<?xml version="1.0" encoding="UTF-8" standalone="no"?>
<!DOCTYPE svg PUBLIC "-//W3C//DTD SVG 1.1//EN"
 "http://www.w3.org/Graphics/SVG/1.1/DTD/svg11.dtd">
<!-- Generated by graphviz version 2.38.0 (20140413.2041)
 -->
<!-- Pages: 1 -->
<svg width="1923pt" height="908pt"
 viewBox="0.00 0.00 1923.20 908.00" xmlns="http://www.w3.org/2000/svg" xmlns:xlink="http://www.w3.org/1999/xlink">
<g id="graph0" class="graph" transform="scale(1 1) rotate(0) translate(4 904)">
<polygon fill="white" stroke="none" points="-4,4 -4,-904 1919.2,-904 1919.2,4 -4,4"/>
<!-- Boost -->
<g id="node1" class="node"><title>Boost</title>
<ellipse fill="none" stroke="black" cx="539.201" cy="-90" rx="37.0935" ry="18"/>
<text text-anchor="middle" x="539.201" y="-86.3" font-family="Times,serif" font-size="14.00">Boost</text>
</g>
<!-- LibXML -->
<g id="node2" class="node"><title>LibXML</title>
<ellipse fill="none" stroke="black" cx="77.2006" cy="-306" rx="48.9926" ry="18"/>
<text text-anchor="middle" x="77.2006" y="-302.3" font-family="Times,serif" font-size="14.00">LibXML</text>
</g>
<!-- element -->
<g id="node3" class="node"><title>element</title>
<ellipse fill="none" stroke="black" cx="729.201" cy="-162" rx="48.1917" ry="18"/>
<text text-anchor="middle" x="729.201" y="-158.3" font-family="Times,serif" font-size="14.00">element</text>
</g>
<!-- element&#45;&gt;Boost -->
<g id="edge1" class="edge"><title>element&#45;&gt;Boost</title>
<path fill="none" stroke="black" d="M696.105,-148.807C663.107,-136.65 612.46,-117.99 577.685,-105.179"/>
<polygon fill="black" stroke="black" points="578.477,-101.74 567.883,-101.567 576.057,-108.309 578.477,-101.74"/>
</g>
<!-- ext -->
<g id="node8" class="node"><title>ext</title>
<ellipse fill="none" stroke="black" cx="729.201" cy="-90" rx="27" ry="18"/>
<text text-anchor="middle" x="729.201" y="-86.3" font-family="Times,serif" font-size="14.00">ext</text>
</g>
<!-- element&#45;&gt;ext -->
<g id="edge2" class="edge"><title>element&#45;&gt;ext</title>
<path fill="none" stroke="black" d="M729.201,-143.697C729.201,-135.983 729.201,-126.712 729.201,-118.112"/>
<polygon fill="black" stroke="black" points="732.701,-118.104 729.201,-108.104 725.701,-118.104 732.701,-118.104"/>
</g>
<!-- error -->
<g id="node34" class="node"><title>error</title>
<ellipse fill="none" stroke="black" cx="639.201" cy="-90" rx="34.394" ry="18"/>
<text text-anchor="middle" x="639.201" y="-86.3" font-family="Times,serif" font-size="14.00">error</text>
</g>
<!-- element&#45;&gt;error -->
<g id="edge3" class="edge"><title>element&#45;&gt;error</title>
<path fill="none" stroke="black" d="M709.227,-145.465C696.447,-135.525 679.718,-122.514 665.816,-111.701"/>
<polygon fill="black" stroke="black" points="667.629,-108.677 657.586,-105.3 663.331,-114.202 667.629,-108.677"/>
</g>
<!-- settings -->
<g id="node4" class="node"><title>settings</title>
<ellipse fill="none" stroke="black" cx="562.201" cy="-378" rx="48.1917" ry="18"/>
<text text-anchor="middle" x="562.201" y="-374.3" font-family="Times,serif" font-size="14.00">settings</text>
</g>
<!-- settings&#45;&gt;Boost -->
<g id="edge4" class="edge"><title>settings&#45;&gt;Boost</title>
<path fill="none" stroke="black" d="M560.831,-359.966C556.997,-312.291 546.132,-177.185 541.423,-118.63"/>
<polygon fill="black" stroke="black" points="544.883,-117.994 540.592,-108.306 537.905,-118.555 544.883,-117.994"/>
</g>
<!-- settings&#45;&gt;error -->
<g id="edge5" class="edge"><title>settings&#45;&gt;error</title>
<path fill="none" stroke="black" d="M566.787,-359.966C579.679,-312.079 616.321,-175.98 631.971,-117.852"/>
<polygon fill="black" stroke="black" points="635.418,-118.511 634.639,-107.945 628.659,-116.691 635.418,-118.511"/>
</g>
<!-- reporter -->
<g id="node5" class="node"><title>reporter</title>
<ellipse fill="none" stroke="black" cx="1448.2" cy="-810" rx="50.0912" ry="18"/>
<text text-anchor="middle" x="1448.2" y="-806.3" font-family="Times,serif" font-size="14.00">reporter</text>
</g>
<!-- risk_analysis -->
<g id="node15" class="node"><title>risk_analysis</title>
<ellipse fill="none" stroke="black" cx="1144.2" cy="-738" rx="71.4873" ry="18"/>
<text text-anchor="middle" x="1144.2" y="-734.3" font-family="Times,serif" font-size="14.00">risk_analysis</text>
</g>
<!-- reporter&#45;&gt;risk_analysis -->
<g id="edge8" class="edge"><title>reporter&#45;&gt;risk_analysis</title>
<path fill="none" stroke="black" d="M1407.2,-799.559C1355.27,-787.6 1265.31,-766.887 1205.28,-753.064"/>
<polygon fill="black" stroke="black" points="1205.7,-749.57 1195.17,-750.737 1204.13,-756.392 1205.7,-749.57"/>
</g>
<!-- version -->
<g id="node42" class="node"><title>version</title>
<ellipse fill="none" stroke="black" cx="1582.2" cy="-738" rx="44.6926" ry="18"/>
<text text-anchor="middle" x="1582.2" y="-734.3" font-family="Times,serif" font-size="14.00">version</text>
</g>
<!-- reporter&#45;&gt;version -->
<g id="edge6" class="edge"><title>reporter&#45;&gt;version</title>
<path fill="none" stroke="black" d="M1475.32,-794.834C1496.02,-784.02 1524.71,-769.033 1547.15,-757.309"/>
<polygon fill="black" stroke="black" points="1548.79,-760.401 1556.04,-752.668 1545.55,-754.196 1548.79,-760.401"/>
</g>
<!-- xml_stream -->
<g id="node45" class="node"><title>xml_stream</title>
<ellipse fill="none" stroke="black" cx="1565.2" cy="-594" rx="65.7887" ry="18"/>
<text text-anchor="middle" x="1565.2" y="-590.3" font-family="Times,serif" font-size="14.00">xml_stream</text>
</g>
<!-- reporter&#45;&gt;xml_stream -->
<g id="edge7" class="edge"><title>reporter&#45;&gt;xml_stream</title>
<path fill="none" stroke="black" d="M1457.38,-792.208C1477.71,-755.03 1526.63,-665.548 1550.96,-621.042"/>
<polygon fill="black" stroke="black" points="1554.17,-622.464 1555.9,-612.01 1548.03,-619.106 1554.17,-622.464"/>
</g>
<!-- zbdd -->
<g id="node6" class="node"><title>zbdd</title>
<ellipse fill="none" stroke="black" cx="889.201" cy="-450" rx="33.2948" ry="18"/>
<text text-anchor="middle" x="889.201" y="-446.3" font-family="Times,serif" font-size="14.00">zbdd</text>
</g>
<!-- bdd -->
<g id="node30" class="node"><title>bdd</title>
<ellipse fill="none" stroke="black" cx="868.201" cy="-522" rx="28.6953" ry="18"/>
<text text-anchor="middle" x="868.201" y="-518.3" font-family="Times,serif" font-size="14.00">bdd</text>
</g>
<!-- zbdd&#45;&gt;bdd -->
<g id="edge9" class="edge"><title>zbdd&#45;&gt;bdd</title>
<path fill="none" stroke="black" d="M889.928,-468.292C888.3,-476.565 885.48,-486.629 882.292,-495.737"/>
<polygon fill="black" stroke="black" points="879.008,-494.525 878.727,-505.116 885.551,-497.012 879.008,-494.525"/>
</g>
<!-- scram -->
<g id="node7" class="node"><title>scram</title>
<ellipse fill="none" stroke="black" cx="1041.2" cy="-882" rx="39.7935" ry="18"/>
<text text-anchor="middle" x="1041.2" y="-878.3" font-family="Times,serif" font-size="14.00">scram</text>
</g>
<!-- scram&#45;&gt;reporter -->
<g id="edge10" class="edge"><title>scram&#45;&gt;reporter</title>
<path fill="none" stroke="black" d="M1077.68,-874.726C1149.58,-862.36 1309.93,-834.781 1394.16,-820.295"/>
<polygon fill="black" stroke="black" points="1394.78,-823.74 1404.04,-818.595 1393.59,-816.841 1394.78,-823.74"/>
</g>
<!-- serialization -->
<g id="node20" class="node"><title>serialization</title>
<ellipse fill="none" stroke="black" cx="1375.2" cy="-666" rx="67.6881" ry="18"/>
<text text-anchor="middle" x="1375.2" y="-662.3" font-family="Times,serif" font-size="14.00">serialization</text>
</g>
<!-- scram&#45;&gt;serialization -->
<g id="edge13" class="edge"><title>scram&#45;&gt;serialization</title>
<path fill="none" stroke="black" d="M1063.12,-866.959C1120.2,-830.383 1273.77,-731.991 1341.88,-688.349"/>
<polygon fill="black" stroke="black" points="1343.99,-691.154 1350.52,-682.812 1340.21,-685.26 1343.99,-691.154"/>
</g>
<!-- initializer -->
<g id="node23" class="node"><title>initializer</title>
<ellipse fill="none" stroke="black" cx="502.201" cy="-666" rx="55.4913" ry="18"/>
<text text-anchor="middle" x="502.201" y="-662.3" font-family="Times,serif" font-size="14.00">initializer</text>
</g>
<!-- scram&#45;&gt;initializer -->
<g id="edge11" class="edge"><title>scram&#45;&gt;initializer</title>
<path fill="none" stroke="black" d="M1012.22,-869.494C922.845,-834.009 651.127,-726.128 545.162,-684.057"/>
<polygon fill="black" stroke="black" points="546.319,-680.751 535.733,-680.313 543.736,-687.257 546.319,-680.751"/>
</g>
<!-- config -->
<g id="node31" class="node"><title>config</title>
<ellipse fill="none" stroke="black" cx="142.201" cy="-450" rx="38.9931" ry="18"/>
<text text-anchor="middle" x="142.201" y="-446.3" font-family="Times,serif" font-size="14.00">config</text>
</g>
<!-- scram&#45;&gt;config -->
<g id="edge12" class="edge"><title>scram&#45;&gt;config</title>
<path fill="none" stroke="black" d="M1001.92,-879.206C825.287,-870.627 113.201,-830.374 113.201,-739 113.201,-739 113.201,-739 113.201,-593 113.201,-551.99 124.955,-505.642 133.497,-477.375"/>
<polygon fill="black" stroke="black" points="136.84,-478.411 136.471,-467.822 130.157,-476.33 136.84,-478.411"/>
</g>
<!-- expression -->
<g id="node9" class="node"><title>expression</title>
<ellipse fill="none" stroke="black" cx="790.201" cy="-234" rx="61.1893" ry="18"/>
<text text-anchor="middle" x="790.201" y="-230.3" font-family="Times,serif" font-size="14.00">expression</text>
</g>
<!-- expression&#45;&gt;element -->
<g id="edge14" class="edge"><title>expression&#45;&gt;element</title>
<path fill="none" stroke="black" d="M775.744,-216.411C768.148,-207.693 758.694,-196.845 750.296,-187.208"/>
<polygon fill="black" stroke="black" points="752.761,-184.71 743.553,-179.47 747.484,-189.309 752.761,-184.71"/>
</g>
<!-- fault_tree -->
<g id="node10" class="node"><title>fault_tree</title>
<ellipse fill="none" stroke="black" cx="1335.2" cy="-522" rx="55.7903" ry="18"/>
<text text-anchor="middle" x="1335.2" y="-518.3" font-family="Times,serif" font-size="14.00">fault_tree</text>
</g>
<!-- ccf_group -->
<g id="node24" class="node"><title>ccf_group</title>
<ellipse fill="none" stroke="black" cx="1411.2" cy="-450" rx="57.3905" ry="18"/>
<text text-anchor="middle" x="1411.2" y="-446.3" font-family="Times,serif" font-size="14.00">ccf_group</text>
</g>
<!-- fault_tree&#45;&gt;ccf_group -->
<g id="edge16" class="edge"><title>fault_tree&#45;&gt;ccf_group</title>
<path fill="none" stroke="black" d="M1352.83,-504.765C1362.71,-495.665 1375.2,-484.162 1386.08,-474.134"/>
<polygon fill="black" stroke="black" points="1388.68,-476.497 1393.67,-467.147 1383.94,-471.348 1388.68,-476.497"/>
</g>
<!-- parameter -->
<g id="node39" class="node"><title>parameter</title>
<ellipse fill="none" stroke="black" cx="1276.2" cy="-450" rx="59.5901" ry="18"/>
<text text-anchor="middle" x="1276.2" y="-446.3" font-family="Times,serif" font-size="14.00">parameter</text>
</g>
<!-- fault_tree&#45;&gt;parameter -->
<g id="edge15" class="edge"><title>fault_tree&#45;&gt;parameter</title>
<path fill="none" stroke="black" d="M1321.22,-504.411C1313.98,-495.82 1304.99,-485.159 1296.96,-475.627"/>
<polygon fill="black" stroke="black" points="1299.61,-473.347 1290.49,-467.956 1294.26,-477.858 1299.61,-473.347"/>
</g>
<!-- event_tree -->
<g id="node11" class="node"><title>event_tree</title>
<ellipse fill="none" stroke="black" cx="1547.2" cy="-450" rx="60.3893" ry="18"/>
<text text-anchor="middle" x="1547.2" y="-446.3" font-family="Times,serif" font-size="14.00">event_tree</text>
</g>
<!-- event -->
<g id="node35" class="node"><title>event</title>
<ellipse fill="none" stroke="black" cx="1081.2" cy="-306" rx="36.2938" ry="18"/>
<text text-anchor="middle" x="1081.2" y="-302.3" font-family="Times,serif" font-size="14.00">event</text>
</g>
<!-- event_tree&#45;&gt;event -->
<g id="edge17" class="edge"><title>event_tree&#45;&gt;event</title>
<path fill="none" stroke="black" d="M1502.46,-437.81C1494.08,-435.807 1485.39,-433.789 1477.2,-432 1395.37,-414.111 1372.33,-420.408 1292.2,-396 1257.9,-385.552 1167.19,-345.643 1116.58,-322.976"/>
<polygon fill="black" stroke="black" points="1117.88,-319.723 1107.32,-318.821 1115.01,-326.109 1117.88,-319.723"/>
</g>
<!-- expression/conditional -->
<g id="node12" class="node"><title>expression/conditional</title>
<ellipse fill="none" stroke="black" cx="608.201" cy="-522" rx="115.88" ry="18"/>
<text text-anchor="middle" x="608.201" y="-518.3" font-family="Times,serif" font-size="14.00">expression/conditional</text>
</g>
<!-- expression/conditional&#45;&gt;expression -->
<g id="edge18" class="edge"><title>expression/conditional&#45;&gt;expression</title>
<path fill="none" stroke="black" d="M615.764,-503.977C633.85,-464.173 682.28,-362.732 738.201,-288 745.924,-277.679 755.548,-267.334 764.409,-258.559"/>
<polygon fill="black" stroke="black" points="766.858,-261.059 771.615,-251.592 761.993,-256.027 766.858,-261.059"/>
</g>
<!-- uncertainty_analysis -->
<g id="node13" class="node"><title>uncertainty_analysis</title>
<ellipse fill="none" stroke="black" cx="1144.2" cy="-666" rx="107.482" ry="18"/>
<text text-anchor="middle" x="1144.2" y="-662.3" font-family="Times,serif" font-size="14.00">uncertainty_analysis</text>
</g>
<!-- probability_analysis -->
<g id="node33" class="node"><title>probability_analysis</title>
<ellipse fill="none" stroke="black" cx="1144.2" cy="-594" rx="103.982" ry="18"/>
<text text-anchor="middle" x="1144.2" y="-590.3" font-family="Times,serif" font-size="14.00">probability_analysis</text>
</g>
<!-- uncertainty_analysis&#45;&gt;probability_analysis -->
<g id="edge19" class="edge"><title>uncertainty_analysis&#45;&gt;probability_analysis</title>
<path fill="none" stroke="black" d="M1144.2,-647.697C1144.2,-639.983 1144.2,-630.712 1144.2,-622.112"/>
<polygon fill="black" stroke="black" points="1147.7,-622.104 1144.2,-612.104 1140.7,-622.104 1147.7,-622.104"/>
</g>
<!-- expression/exponential -->
<g id="node14" class="node"><title>expression/exponential</title>
<ellipse fill="none" stroke="black" cx="866.201" cy="-594" rx="118.079" ry="18"/>
<text text-anchor="middle" x="866.201" y="-590.3" font-family="Times,serif" font-size="14.00">expression/exponential</text>
</g>
<!-- expression/exponential&#45;&gt;expression -->
<g id="edge20" class="edge"><title>expression/exponential&#45;&gt;expression</title>
<path fill="none" stroke="black" d="M849.71,-575.772C827.358,-550.534 790.201,-501.051 790.201,-451 790.201,-451 790.201,-451 790.201,-377 790.201,-336.996 790.201,-290.653 790.201,-262.08"/>
<polygon fill="black" stroke="black" points="793.701,-262.049 790.201,-252.049 786.701,-262.049 793.701,-262.049"/>
</g>
<!-- risk_analysis&#45;&gt;uncertainty_analysis -->
<g id="edge21" class="edge"><title>risk_analysis&#45;&gt;uncertainty_analysis</title>
<path fill="none" stroke="black" d="M1144.2,-719.697C1144.2,-711.983 1144.2,-702.712 1144.2,-694.112"/>
<polygon fill="black" stroke="black" points="1147.7,-694.104 1144.2,-684.104 1140.7,-694.104 1147.7,-694.104"/>
</g>
<!-- importance_analysis -->
<g id="node16" class="node"><title>importance_analysis</title>
<ellipse fill="none" stroke="black" cx="912.201" cy="-666" rx="106.681" ry="18"/>
<text text-anchor="middle" x="912.201" y="-662.3" font-family="Times,serif" font-size="14.00">importance_analysis</text>
</g>
<!-- risk_analysis&#45;&gt;importance_analysis -->
<g id="edge22" class="edge"><title>risk_analysis&#45;&gt;importance_analysis</title>
<path fill="none" stroke="black" d="M1100.29,-723.751C1063.88,-712.766 1011.78,-697.045 971.638,-684.934"/>
<polygon fill="black" stroke="black" points="972.553,-681.554 961.968,-682.016 970.531,-688.256 972.553,-681.554"/>
</g>
<!-- mocus -->
<g id="node21" class="node"><title>mocus</title>
<ellipse fill="none" stroke="black" cx="746.201" cy="-666" rx="40.8928" ry="18"/>
<text text-anchor="middle" x="746.201" y="-662.3" font-family="Times,serif" font-size="14.00">mocus</text>
</g>
<!-- risk_analysis&#45;&gt;mocus -->
<g id="edge23" class="edge"><title>risk_analysis&#45;&gt;mocus</title>
<path fill="none" stroke="black" d="M1079.07,-730.559C1008.65,-722.789 893.419,-707.733 796.201,-684 792.848,-683.182 789.4,-682.236 785.958,-681.219"/>
<polygon fill="black" stroke="black" points="786.944,-677.86 776.354,-678.208 784.849,-684.54 786.944,-677.86"/>
</g>
<!-- random -->
<g id="node36" class="node"><title>random</title>
<ellipse fill="none" stroke="black" cx="229.201" cy="-162" rx="46.2923" ry="18"/>
<text text-anchor="middle" x="229.201" y="-158.3" font-family="Times,serif" font-size="14.00">random</text>
</g>
<!-- risk_analysis&#45;&gt;random -->
<g id="edge26" class="edge"><title>risk_analysis&#45;&gt;random</title>
<path fill="none" stroke="black" d="M1073.55,-734.923C919.32,-729.864 556.828,-714.985 438.201,-684 347.588,-660.332 247.201,-688.652 247.201,-595 247.201,-595 247.201,-595 247.201,-521 247.201,-397.386 236.364,-250.065 231.507,-190.25"/>
<polygon fill="black" stroke="black" points="234.982,-189.804 230.674,-180.125 228.006,-190.378 234.982,-189.804"/>
</g>
<!-- model -->
<g id="node38" class="node"><title>model</title>
<ellipse fill="none" stroke="black" cx="1367.2" cy="-594" rx="38.9931" ry="18"/>
<text text-anchor="middle" x="1367.2" y="-590.3" font-family="Times,serif" font-size="14.00">model</text>
</g>
<!-- risk_analysis&#45;&gt;model -->
<g id="edge24" class="edge"><title>risk_analysis&#45;&gt;model</title>
<path fill="none" stroke="black" d="M1183.5,-722.82C1206.8,-713.513 1236.34,-700.097 1260.2,-684 1279.49,-670.989 1280.51,-663.106 1298.2,-648 1311.17,-636.923 1326.13,-625.304 1338.79,-615.778"/>
<polygon fill="black" stroke="black" points="1341.22,-618.335 1347.14,-609.549 1337.03,-612.724 1341.22,-618.335"/>
</g>
<!-- event_tree_analysis -->
<g id="node41" class="node"><title>event_tree_analysis</title>
<ellipse fill="none" stroke="black" cx="1638.2" cy="-522" rx="102.882" ry="18"/>
<text text-anchor="middle" x="1638.2" y="-518.3" font-family="Times,serif" font-size="14.00">event_tree_analysis</text>
</g>
<!-- risk_analysis&#45;&gt;event_tree_analysis -->
<g id="edge25" class="edge"><title>risk_analysis&#45;&gt;event_tree_analysis</title>
<path fill="none" stroke="black" d="M1213.2,-733.151C1292.71,-727.368 1416.97,-713.762 1452.2,-684 1491.07,-651.163 1454.32,-612.081 1490.2,-576 1508.21,-557.886 1532.84,-545.932 1556.84,-538.056"/>
<polygon fill="black" stroke="black" points="1558.17,-541.309 1566.7,-535.028 1556.11,-534.617 1558.17,-541.309"/>
</g>
<!-- importance_analysis&#45;&gt;probability_analysis -->
<g id="edge27" class="edge"><title>importance_analysis&#45;&gt;probability_analysis</title>
<path fill="none" stroke="black" d="M961.97,-649.983C998.026,-639.105 1046.92,-624.352 1084.98,-612.867"/>
<polygon fill="black" stroke="black" points="1086.35,-616.111 1094.91,-609.872 1084.33,-609.41 1086.35,-616.111"/>
</g>
<!-- env -->
<g id="node17" class="node"><title>env</title>
<ellipse fill="none" stroke="black" cx="75.2006" cy="-378" rx="27.0966" ry="18"/>
<text text-anchor="middle" x="75.2006" y="-374.3" font-family="Times,serif" font-size="14.00">env</text>
</g>
<!-- STL -->
<g id="node26" class="node"><title>STL</title>
<ellipse fill="none" stroke="black" cx="229.201" cy="-18" rx="28.6953" ry="18"/>
<text text-anchor="middle" x="229.201" y="-14.3" font-family="Times,serif" font-size="14.00">STL</text>
</g>
<!-- env&#45;&gt;STL -->
<g id="edge28" class="edge"><title>env&#45;&gt;STL</title>
<path fill="none" stroke="black" d="M57.0458,-364.487C44.491,-354.864 28.4413,-340.458 19.2006,-324 -0.601807,-288.732 0.200602,-275.447 0.200602,-235 0.200602,-235 0.200602,-235 0.200602,-161 0.200602,-71.969 126.767,-36.8329 191.712,-24.6639"/>
<polygon fill="black" stroke="black" points="192.348,-28.1058 201.578,-22.9033 191.118,-21.2147 192.348,-28.1058"/>
</g>
<!-- pdag -->
<g id="node18" class="node"><title>pdag</title>
<ellipse fill="none" stroke="black" cx="932.201" cy="-378" rx="33.5952" ry="18"/>
<text text-anchor="middle" x="932.201" y="-374.3" font-family="Times,serif" font-size="14.00">pdag</text>
</g>
<!-- pdag&#45;&gt;event -->
<g id="edge30" class="edge"><title>pdag&#45;&gt;event</title>
<path fill="none" stroke="black" d="M956.805,-365.441C981.279,-353.943 1019.05,-336.199 1046.55,-323.279"/>
<polygon fill="black" stroke="black" points="1048.25,-326.348 1055.81,-318.928 1045.27,-320.012 1048.25,-326.348"/>
</g>
<!-- logger -->
<g id="node40" class="node"><title>logger</title>
<ellipse fill="none" stroke="black" cx="668.201" cy="-234" rx="40.0939" ry="18"/>
<text text-anchor="middle" x="668.201" y="-230.3" font-family="Times,serif" font-size="14.00">logger</text>
</g>
<!-- pdag&#45;&gt;logger -->
<g id="edge29" class="edge"><title>pdag&#45;&gt;logger</title>
<path fill="none" stroke="black" d="M909.234,-364.647C862.511,-339.515 756.215,-282.341 701.743,-253.042"/>
<polygon fill="black" stroke="black" points="703.296,-249.903 692.831,-248.248 699.98,-256.068 703.296,-249.903"/>
</g>
<!-- fault_tree_analysis -->
<g id="node19" class="node"><title>fault_tree_analysis</title>
<ellipse fill="none" stroke="black" cx="1124.2" cy="-522" rx="98.5829" ry="18"/>
<text text-anchor="middle" x="1124.2" y="-518.3" font-family="Times,serif" font-size="14.00">fault_tree_analysis</text>
</g>
<!-- fault_tree_analysis&#45;&gt;zbdd -->
<g id="edge32" class="edge"><title>fault_tree_analysis&#45;&gt;zbdd</title>
<path fill="none" stroke="black" d="M1067.09,-507.182C1028.4,-497.365 976.293,-483.259 931.201,-468 928.937,-467.234 926.62,-466.411 924.293,-465.554"/>
<polygon fill="black" stroke="black" points="925.378,-462.222 914.788,-461.909 922.872,-468.758 925.378,-462.222"/>
</g>
<!-- preprocessor -->
<g id="node28" class="node"><title>preprocessor</title>
<ellipse fill="none" stroke="black" cx="1012.2" cy="-450" rx="72.2875" ry="18"/>
<text text-anchor="middle" x="1012.2" y="-446.3" font-family="Times,serif" font-size="14.00">preprocessor</text>
</g>
<!-- fault_tree_analysis&#45;&gt;preprocessor -->
<g id="edge31" class="edge"><title>fault_tree_analysis&#45;&gt;preprocessor</title>
<path fill="none" stroke="black" d="M1097.94,-504.588C1082.67,-495.041 1063.23,-482.895 1046.73,-472.581"/>
<polygon fill="black" stroke="black" points="1048.24,-469.4 1037.91,-467.068 1044.53,-475.336 1048.24,-469.4"/>
</g>
<!-- analysis -->
<g id="node44" class="node"><title>analysis</title>
<ellipse fill="none" stroke="black" cx="1150.2" cy="-450" rx="48.1917" ry="18"/>
<text text-anchor="middle" x="1150.2" y="-446.3" font-family="Times,serif" font-size="14.00">analysis</text>
</g>
<!-- fault_tree_analysis&#45;&gt;analysis -->
<g id="edge33" class="edge"><title>fault_tree_analysis&#45;&gt;analysis</title>
<path fill="none" stroke="black" d="M1130.63,-503.697C1133.56,-495.813 1137.09,-486.304 1140.34,-477.546"/>
<polygon fill="black" stroke="black" points="1143.65,-478.697 1143.85,-468.104 1137.08,-476.26 1143.65,-478.697"/>
</g>
<!-- serialization&#45;&gt;expression/exponential -->
<g id="edge35" class="edge"><title>serialization&#45;&gt;expression/exponential</title>
<path fill="none" stroke="black" d="M1317.9,-656.379C1299.48,-653.648 1278.99,-650.652 1260.2,-648 1158.78,-633.683 1042.54,-618.154 962.749,-607.63"/>
<polygon fill="black" stroke="black" points="963.086,-604.144 952.715,-606.308 962.172,-611.084 963.086,-604.144"/>
</g>
<!-- serialization&#45;&gt;model -->
<g id="edge34" class="edge"><title>serialization&#45;&gt;model</title>
<path fill="none" stroke="black" d="M1373.22,-647.697C1372.34,-639.983 1371.28,-630.712 1370.3,-622.112"/>
<polygon fill="black" stroke="black" points="1373.77,-621.642 1369.16,-612.104 1366.81,-622.437 1373.77,-621.642"/>
</g>
<!-- serialization&#45;&gt;xml_stream -->
<g id="edge36" class="edge"><title>serialization&#45;&gt;xml_stream</title>
<path fill="none" stroke="black" d="M1413.19,-651.003C1443.32,-639.902 1485.59,-624.329 1517.91,-612.422"/>
<polygon fill="black" stroke="black" points="1519.42,-615.595 1527.6,-608.854 1517,-609.027 1519.42,-615.595"/>
</g>
<!-- mocus&#45;&gt;zbdd -->
<g id="edge37" class="edge"><title>mocus&#45;&gt;zbdd</title>
<path fill="none" stroke="black" d="M776.658,-653.851C783.061,-651.731 789.811,-649.66 796.201,-648 882.345,-625.614 936.201,-680.36 993.201,-612 1032.66,-564.679 960.635,-501.588 917.751,-470.293"/>
<polygon fill="black" stroke="black" points="919.776,-467.438 909.604,-464.472 915.706,-473.134 919.776,-467.438"/>
</g>
<!-- expression/numerical -->
<g id="node22" class="node"><title>expression/numerical</title>
<ellipse fill="none" stroke="black" cx="1411.2" cy="-378" rx="110.48" ry="18"/>
<text text-anchor="middle" x="1411.2" y="-374.3" font-family="Times,serif" font-size="14.00">expression/numerical</text>
</g>
<!-- expression/constant -->
<g id="node32" class="node"><title>expression/constant</title>
<ellipse fill="none" stroke="black" cx="1337.2" cy="-306" rx="104.782" ry="18"/>
<text text-anchor="middle" x="1337.2" y="-302.3" font-family="Times,serif" font-size="14.00">expression/constant</text>
</g>
<!-- expression/numerical&#45;&gt;expression/constant -->
<g id="edge38" class="edge"><title>expression/numerical&#45;&gt;expression/constant</title>
<path fill="none" stroke="black" d="M1393.29,-360.055C1384.02,-351.285 1372.54,-340.432 1362.39,-330.831"/>
<polygon fill="black" stroke="black" points="1364.62,-328.118 1354.95,-323.789 1359.81,-333.204 1364.62,-328.118"/>
</g>
<!-- initializer&#45;&gt;settings -->
<g id="edge39" class="edge"><title>initializer&#45;&gt;settings</title>
<path fill="none" stroke="black" d="M480.075,-649.286C468.837,-639.902 456.296,-626.916 450.201,-612 432.043,-567.567 433.054,-548.833 450.201,-504 466.709,-460.838 505.747,-423.181 533.065,-400.773"/>
<polygon fill="black" stroke="black" points="535.509,-403.3 541.129,-394.319 531.135,-397.835 535.509,-403.3"/>
</g>
<!-- initializer&#45;&gt;expression/conditional -->
<g id="edge41" class="edge"><title>initializer&#45;&gt;expression/conditional</title>
<path fill="none" stroke="black" d="M501.968,-647.666C502.542,-628.463 506.026,-597.392 521.201,-576 530.686,-562.628 544.709,-551.991 558.739,-543.862"/>
<polygon fill="black" stroke="black" points="560.797,-546.727 567.913,-538.878 557.455,-540.576 560.797,-546.727"/>
</g>
<!-- initializer&#45;&gt;expression/exponential -->
<g id="edge42" class="edge"><title>initializer&#45;&gt;expression/exponential</title>
<path fill="none" stroke="black" d="M548.671,-656.063C608.437,-644.57 713.187,-624.426 785.956,-610.432"/>
<polygon fill="black" stroke="black" points="786.845,-613.825 796.004,-608.499 785.523,-606.951 786.845,-613.825"/>
</g>
<!-- initializer&#45;&gt;env -->
<g id="edge43" class="edge"><title>initializer&#45;&gt;env</title>
<path fill="none" stroke="black" d="M453.661,-657.217C365.56,-640.284 180.486,-591.228 94.2006,-468 81.5664,-449.957 77.0581,-425.171 75.5722,-406.337"/>
<polygon fill="black" stroke="black" points="79.0641,-406.091 75.0165,-396.3 72.0748,-406.478 79.0641,-406.091"/>
</g>
<!-- xml -->
<g id="node25" class="node"><title>xml</title>
<ellipse fill="none" stroke="black" cx="154.201" cy="-378" rx="27.8951" ry="18"/>
<text text-anchor="middle" x="154.201" y="-374.3" font-family="Times,serif" font-size="14.00">xml</text>
</g>
<!-- initializer&#45;&gt;xml -->
<g id="edge44" class="edge"><title>initializer&#45;&gt;xml</title>
<path fill="none" stroke="black" d="M462.638,-653.25C436.241,-644.33 401.503,-630.449 374.201,-612 284.991,-551.719 204.934,-449.423 171.173,-403.085"/>
<polygon fill="black" stroke="black" points="173.921,-400.912 165.232,-394.85 168.244,-405.007 173.921,-400.912"/>
</g>
<!-- expression/boolean -->
<g id="node29" class="node"><title>expression/boolean</title>
<ellipse fill="none" stroke="black" cx="630.201" cy="-594" rx="100.182" ry="18"/>
<text text-anchor="middle" x="630.201" y="-590.3" font-family="Times,serif" font-size="14.00">expression/boolean</text>
</g>
<!-- initializer&#45;&gt;expression/boolean -->
<g id="edge45" class="edge"><title>initializer&#45;&gt;expression/boolean</title>
<path fill="none" stroke="black" d="M529.346,-650.155C547.42,-640.271 571.441,-627.134 591.507,-616.161"/>
<polygon fill="black" stroke="black" points="593.318,-619.159 600.412,-611.29 589.959,-613.018 593.318,-619.159"/>
</g>
<!-- cycle -->
<g id="node37" class="node"><title>cycle</title>
<ellipse fill="none" stroke="black" cx="1444.2" cy="-522" rx="35.194" ry="18"/>
<text text-anchor="middle" x="1444.2" y="-518.3" font-family="Times,serif" font-size="14.00">cycle</text>
</g>
<!-- initializer&#45;&gt;cycle -->
<g id="edge46" class="edge"><title>initializer&#45;&gt;cycle</title>
<path fill="none" stroke="black" d="M554.459,-660.088C593.491,-656.5 648.16,-651.646 696.201,-648 820.766,-638.547 1137.68,-648.329 1257.2,-612 1287.69,-602.734 1290.7,-590.247 1319.2,-576 1348.24,-561.485 1382.21,-547.249 1407.4,-537.192"/>
<polygon fill="black" stroke="black" points="1408.93,-540.352 1416.94,-533.417 1406.35,-533.843 1408.93,-540.352"/>
</g>
<!-- initializer&#45;&gt;model -->
<g id="edge47" class="edge"><title>initializer&#45;&gt;model</title>
<path fill="none" stroke="black" d="M554.454,-660.026C593.485,-656.407 648.152,-651.541 696.201,-648 963.509,-628.299 1033.2,-652.226 1298.2,-612 1306.97,-610.668 1316.27,-608.743 1325.09,-606.662"/>
<polygon fill="black" stroke="black" points="1325.93,-610.06 1334.8,-604.271 1324.26,-603.263 1325.93,-610.06"/>
</g>
<!-- initializer&#45;&gt;logger -->
<g id="edge40" class="edge"><title>initializer&#45;&gt;logger</title>
<path fill="none" stroke="black" d="M494.427,-648.017C481.677,-617.516 459.949,-552.157 483.201,-504 516.761,-434.493 575.775,-459.81 619.201,-396 647.383,-354.588 659.794,-296.434 664.919,-262.536"/>
<polygon fill="black" stroke="black" points="668.412,-262.824 666.337,-252.435 661.48,-261.851 668.412,-262.824"/>
</g>
<!-- expression/random_deviate -->
<g id="node43" class="node"><title>expression/random_deviate</title>
<ellipse fill="none" stroke="black" cx="396.201" cy="-306" rx="138.375" ry="18"/>
<text text-anchor="middle" x="396.201" y="-302.3" font-family="Times,serif" font-size="14.00">expression/random_deviate</text>
</g>
<!-- initializer&#45;&gt;expression/random_deviate -->
<g id="edge48" class="edge"><title>initializer&#45;&gt;expression/random_deviate</title>
<path fill="none" stroke="black" d="M477.745,-649.74C444.248,-626.729 388.201,-579.748 388.201,-523 388.201,-523 388.201,-523 388.201,-449 388.201,-408.933 391.415,-362.606 393.769,-334.054"/>
<polygon fill="black" stroke="black" points="397.261,-334.292 394.62,-324.032 390.286,-333.7 397.261,-334.292"/>
</g>
<!-- ccf_group&#45;&gt;expression/numerical -->
<g id="edge49" class="edge"><title>ccf_group&#45;&gt;expression/numerical</title>
<path fill="none" stroke="black" d="M1411.2,-431.697C1411.2,-423.983 1411.2,-414.712 1411.2,-406.112"/>
<polygon fill="black" stroke="black" points="1414.7,-406.104 1411.2,-396.104 1407.7,-406.104 1414.7,-406.104"/>
</g>
<!-- ccf_group&#45;&gt;event -->
<g id="edge50" class="edge"><title>ccf_group&#45;&gt;event</title>
<path fill="none" stroke="black" d="M1368.75,-437.893C1313.28,-423.322 1222.31,-399.217 1215.2,-396 1174.97,-377.784 1133.32,-348.116 1107.34,-328.092"/>
<polygon fill="black" stroke="black" points="1109.2,-325.099 1099.16,-321.702 1104.89,-330.616 1109.2,-325.099"/>
</g>
<!-- xml&#45;&gt;Boost -->
<g id="edge51" class="edge"><title>xml&#45;&gt;Boost</title>
<path fill="none" stroke="black" d="M149.467,-360.152C138.623,-317.537 117.096,-204.551 174.201,-144 216.671,-98.9659 403.188,-91.7245 491.943,-90.8775"/>
<polygon fill="black" stroke="black" points="492.036,-94.377 502.011,-90.805 491.986,-87.3772 492.036,-94.377"/>
</g>
<!-- xml&#45;&gt;LibXML -->
<g id="edge52" class="edge"><title>xml&#45;&gt;LibXML</title>
<path fill="none" stroke="black" d="M138.619,-362.834C128.164,-353.331 114.166,-340.605 102.174,-329.703"/>
<polygon fill="black" stroke="black" points="104.394,-326.991 94.64,-322.854 99.6851,-332.171 104.394,-326.991"/>
</g>
<!-- xml&#45;&gt;error -->
<g id="edge53" class="edge"><title>xml&#45;&gt;error</title>
<path fill="none" stroke="black" d="M167.58,-362.066C185.04,-343.174 217.16,-310.407 249.201,-288 369.724,-203.715 531.385,-134.102 602.744,-105.281"/>
<polygon fill="black" stroke="black" points="604.222,-108.459 612.2,-101.488 601.616,-101.962 604.222,-108.459"/>
</g>
<!-- expression/test_event -->
<g id="node27" class="node"><title>expression/test_event</title>
<ellipse fill="none" stroke="black" cx="1775.2" cy="-450" rx="112.38" ry="18"/>
<text text-anchor="middle" x="1775.2" y="-446.3" font-family="Times,serif" font-size="14.00">expression/test_event</text>
</g>
<!-- expression/test_event&#45;&gt;expression -->
<g id="edge54" class="edge"><title>expression/test_event&#45;&gt;expression</title>
<path fill="none" stroke="black" d="M1750.1,-432.298C1697.38,-398.193 1570.13,-320.992 1451.2,-288 1341.65,-257.61 1007.68,-242.565 860.793,-237.277"/>
<polygon fill="black" stroke="black" points="860.664,-233.77 850.546,-236.913 860.415,-240.765 860.664,-233.77"/>
</g>
<!-- preprocessor&#45;&gt;pdag -->
<g id="edge55" class="edge"><title>preprocessor&#45;&gt;pdag</title>
<path fill="none" stroke="black" d="M993.242,-432.411C982.355,-422.885 968.56,-410.815 956.84,-400.56"/>
<polygon fill="black" stroke="black" points="958.95,-397.755 949.119,-393.804 954.34,-403.023 958.95,-397.755"/>
</g>
<!-- expression/boolean&#45;&gt;expression -->
<g id="edge56" class="edge"><title>expression/boolean&#45;&gt;expression</title>
<path fill="none" stroke="black" d="M679.113,-578.205C698.664,-569.939 719.7,-557.651 733.201,-540 757.773,-507.873 752.201,-491.447 752.201,-451 752.201,-451 752.201,-451 752.201,-377 752.201,-335.633 767.435,-289.722 778.612,-261.605"/>
<polygon fill="black" stroke="black" points="781.957,-262.673 782.511,-252.093 775.48,-260.019 781.957,-262.673"/>
</g>
<!-- bdd&#45;&gt;settings -->
<g id="edge57" class="edge"><title>bdd&#45;&gt;settings</title>
<path fill="none" stroke="black" d="M845.7,-510.558C793.843,-486.494 665.433,-426.905 600.746,-396.887"/>
<polygon fill="black" stroke="black" points="601.851,-393.541 591.306,-392.507 598.904,-399.891 601.851,-393.541"/>
</g>
<!-- bdd&#45;&gt;zbdd -->
<g id="edge59" class="edge"><title>bdd&#45;&gt;zbdd</title>
<path fill="none" stroke="black" d="M867.476,-503.697C869.074,-495.578 871.82,-485.735 874.935,-476.764"/>
<polygon fill="black" stroke="black" points="878.309,-477.736 878.567,-467.145 871.76,-475.264 878.309,-477.736"/>
</g>
<!-- bdd&#45;&gt;pdag -->
<g id="edge58" class="edge"><title>bdd&#45;&gt;pdag</title>
<path fill="none" stroke="black" d="M857.875,-504.947C847.347,-486.362 834.259,-455.321 847.201,-432 857.382,-413.653 876.848,-400.827 894.585,-392.394"/>
<polygon fill="black" stroke="black" points="896.456,-395.393 904.19,-388.153 893.629,-388.99 896.456,-395.393"/>
</g>
<!-- config&#45;&gt;settings -->
<g id="edge61" class="edge"><title>config&#45;&gt;settings</title>
<path fill="none" stroke="black" d="M178.373,-442.971C252.636,-430.594 422.585,-402.269 509.258,-387.824"/>
<polygon fill="black" stroke="black" points="509.862,-391.271 519.151,-386.175 508.711,-384.367 509.862,-391.271"/>
</g>
<!-- config&#45;&gt;env -->
<g id="edge62" class="edge"><title>config&#45;&gt;env</title>
<path fill="none" stroke="black" d="M126.997,-433.116C118.013,-423.73 106.497,-411.698 96.6059,-401.364"/>
<polygon fill="black" stroke="black" points="98.8706,-398.668 89.4275,-393.864 93.8136,-403.508 98.8706,-398.668"/>
</g>
<!-- config&#45;&gt;xml -->
<g id="edge60" class="edge"><title>config&#45;&gt;xml</title>
<path fill="none" stroke="black" d="M145.167,-431.697C146.489,-423.983 148.078,-414.712 149.553,-406.112"/>
<polygon fill="black" stroke="black" points="153.028,-406.552 151.268,-396.104 146.129,-405.369 153.028,-406.552"/>
</g>
<!-- expression/constant&#45;&gt;expression -->
<g id="edge63" class="edge"><title>expression/constant&#45;&gt;expression</title>
<path fill="none" stroke="black" d="M1255.9,-294.596C1146.71,-280.622 954.865,-256.072 854.899,-243.28"/>
<polygon fill="black" stroke="black" points="855.295,-239.802 844.932,-242.004 854.407,-246.745 855.295,-239.802"/>
</g>
<!-- probability_analysis&#45;&gt;fault_tree_analysis -->
<g id="edge64" class="edge"><title>probability_analysis&#45;&gt;fault_tree_analysis</title>
<path fill="none" stroke="black" d="M1139.26,-575.697C1137.03,-567.898 1134.35,-558.509 1131.87,-549.829"/>
<polygon fill="black" stroke="black" points="1135.2,-548.758 1129.09,-540.104 1128.47,-550.681 1135.2,-548.758"/>
</g>
<!-- probability_analysis&#45;&gt;parameter -->
<g id="edge65" class="edge"><title>probability_analysis&#45;&gt;parameter</title>
<path fill="none" stroke="black" d="M1180.49,-577.127C1197.8,-568.167 1217.83,-555.616 1232.2,-540 1248.72,-522.046 1260.43,-496.735 1267.59,-477.692"/>
<polygon fill="black" stroke="black" points="1270.94,-478.706 1271.01,-468.112 1264.35,-476.351 1270.94,-478.706"/>
</g>
<!-- error&#45;&gt;STL -->
<g id="edge66" class="edge"><title>error&#45;&gt;STL</title>
<path fill="none" stroke="black" d="M611.404,-79.3306C603.054,-76.6761 593.821,-73.9855 585.201,-72 471.28,-45.7596 333.737,-29.5665 267.94,-22.7498"/>
<polygon fill="black" stroke="black" points="267.938,-19.2315 257.635,-21.6984 267.228,-26.1954 267.938,-19.2315"/>
</g>
<!-- event&#45;&gt;expression -->
<g id="edge67" class="edge"><title>event&#45;&gt;expression</title>
<path fill="none" stroke="black" d="M1050.55,-296.167C1040.87,-293.454 1030.11,-290.521 1020.2,-288 961.745,-273.128 894.47,-257.835 847.845,-247.523"/>
<polygon fill="black" stroke="black" points="848.445,-244.072 837.926,-245.336 846.938,-250.908 848.445,-244.072"/>
</g>
<!-- random&#45;&gt;Boost -->
<g id="edge69" class="edge"><title>random&#45;&gt;Boost</title>
<path fill="none" stroke="black" d="M264.947,-150.447C272.904,-148.216 281.318,-145.95 289.201,-144 360.923,-126.258 445.121,-109.172 495.216,-99.3952"/>
<polygon fill="black" stroke="black" points="495.92,-102.824 505.068,-97.4808 494.584,-95.9524 495.92,-102.824"/>
</g>
<!-- random&#45;&gt;STL -->
<g id="edge68" class="edge"><title>random&#45;&gt;STL</title>
<path fill="none" stroke="black" d="M229.201,-143.871C229.201,-119.67 229.201,-75.2108 229.201,-46.3932"/>
<polygon fill="black" stroke="black" points="232.701,-46.1892 229.201,-36.1893 225.701,-46.1893 232.701,-46.1892"/>
</g>
<!-- cycle&#45;&gt;event_tree -->
<g id="edge70" class="edge"><title>cycle&#45;&gt;event_tree</title>
<path fill="none" stroke="black" d="M1464.55,-507.17C1479.13,-497.263 1499.04,-483.73 1515.67,-472.43"/>
<polygon fill="black" stroke="black" points="1517.71,-475.271 1524.02,-466.756 1513.78,-469.482 1517.71,-475.271"/>
</g>
<!-- cycle&#45;&gt;parameter -->
<g id="edge71" class="edge"><title>cycle&#45;&gt;parameter</title>
<path fill="none" stroke="black" d="M1417.58,-509.908C1391.08,-498.868 1350,-481.749 1318.93,-468.805"/>
<polygon fill="black" stroke="black" points="1320.22,-465.549 1309.64,-464.933 1317.52,-472.01 1320.22,-465.549"/>
</g>
<!-- model&#45;&gt;fault_tree -->
<g id="edge73" class="edge"><title>model&#45;&gt;fault_tree</title>
<path fill="none" stroke="black" d="M1359.45,-576.055C1355.81,-568.091 1351.39,-558.411 1347.32,-549.51"/>
<polygon fill="black" stroke="black" points="1350.44,-547.915 1343.1,-540.275 1344.07,-550.825 1350.44,-547.915"/>
</g>
<!-- model&#45;&gt;event_tree -->
<g id="edge74" class="edge"><title>model&#45;&gt;event_tree</title>
<path fill="none" stroke="black" d="M1400.03,-584.24C1426.08,-576.048 1462.31,-561.769 1488.2,-540 1508.81,-522.673 1525.02,-496.361 1535.2,-476.836"/>
<polygon fill="black" stroke="black" points="1538.34,-478.372 1539.7,-467.865 1532.08,-475.233 1538.34,-478.372"/>
</g>
<!-- model&#45;&gt;expression/test_event -->
<g id="edge72" class="edge"><title>model&#45;&gt;expression/test_event</title>
<path fill="none" stroke="black" d="M1403.92,-587.918C1499.79,-574.653 1750.2,-540 1750.2,-540 1767.63,-524.798 1773.36,-498.511 1775.04,-478.434"/>
<polygon fill="black" stroke="black" points="1778.54,-478.489 1775.59,-468.312 1771.55,-478.105 1778.54,-478.489"/>
</g>
<!-- parameter&#45;&gt;expression -->
<g id="edge75" class="edge"><title>parameter&#45;&gt;expression</title>
<path fill="none" stroke="black" d="M1242.42,-435.032C1217,-424.462 1181.33,-409.507 1150.2,-396 1034.06,-345.612 897.883,-284.019 831.202,-253.696"/>
<polygon fill="black" stroke="black" points="832.43,-250.409 821.879,-249.454 829.531,-256.781 832.43,-250.409"/>
</g>
<!-- logger&#45;&gt;Boost -->
<g id="edge77" class="edge"><title>logger&#45;&gt;Boost</title>
<path fill="none" stroke="black" d="M653.653,-216.987C630.887,-191.926 586.725,-143.314 560.413,-114.35"/>
<polygon fill="black" stroke="black" points="562.813,-111.786 553.498,-106.738 557.631,-116.493 562.813,-111.786"/>
</g>
<!-- logger&#45;&gt;error -->
<g id="edge76" class="edge"><title>logger&#45;&gt;error</title>
<path fill="none" stroke="black" d="M664.703,-215.871C659.738,-191.564 650.6,-146.819 644.717,-118.013"/>
<polygon fill="black" stroke="black" points="648.141,-117.287 642.711,-108.189 641.283,-118.687 648.141,-117.287"/>
</g>
<!-- event_tree_analysis&#45;&gt;event_tree -->
<g id="edge78" class="edge"><title>event_tree_analysis&#45;&gt;event_tree</title>
<path fill="none" stroke="black" d="M1616.17,-504.055C1604.18,-494.828 1589.18,-483.295 1576.24,-473.341"/>
<polygon fill="black" stroke="black" points="1578.15,-470.391 1568.09,-467.068 1573.88,-475.939 1578.15,-470.391"/>
</g>
<!-- event_tree_analysis&#45;&gt;expression/numerical -->
<g id="edge80" class="edge"><title>event_tree_analysis&#45;&gt;expression/numerical</title>
<path fill="none" stroke="black" d="M1638.86,-503.775C1638.65,-483.783 1635.12,-451.121 1616.2,-432 1599.46,-415.075 1547.17,-401.708 1499.6,-392.632"/>
<polygon fill="black" stroke="black" points="1500,-389.148 1489.53,-390.761 1498.72,-396.03 1500,-389.148"/>
</g>
<!-- event_tree_analysis&#45;&gt;expression/test_event -->
<g id="edge79" class="edge"><title>event_tree_analysis&#45;&gt;expression/test_event</title>
<path fill="none" stroke="black" d="M1669.98,-504.765C1689.03,-495.028 1713.47,-482.541 1734,-472.051"/>
<polygon fill="black" stroke="black" points="1735.81,-475.057 1743.12,-467.39 1732.63,-468.823 1735.81,-475.057"/>
</g>
<!-- event_tree_analysis&#45;&gt;analysis -->
<g id="edge81" class="edge"><title>event_tree_analysis&#45;&gt;analysis</title>
<path fill="none" stroke="black" d="M1554.61,-511.485C1438.89,-498.195 1240.32,-474.923 1207.2,-468 1203.28,-467.179 1199.23,-466.217 1195.19,-465.174"/>
<polygon fill="black" stroke="black" points="1195.8,-461.713 1185.24,-462.452 1193.96,-468.465 1195.8,-461.713"/>
</g>
<!-- expression/random_deviate&#45;&gt;expression -->
<g id="edge82" class="edge"><title>expression/random_deviate&#45;&gt;expression</title>
<path fill="none" stroke="black" d="M484.015,-292.081C548.69,-282.182 638.671,-267.61 717.201,-252 722.924,-250.862 728.882,-249.602 734.817,-248.296"/>
<polygon fill="black" stroke="black" points="735.748,-251.674 744.739,-246.07 734.215,-244.844 735.748,-251.674"/>
</g>
<!-- expression/random_deviate&#45;&gt;random -->
<g id="edge83" class="edge"><title>expression/random_deviate&#45;&gt;random</title>
<path fill="none" stroke="black" d="M376.388,-288.153C346.439,-262.688 289.581,-214.341 255.975,-185.766"/>
<polygon fill="black" stroke="black" points="257.848,-182.764 247.962,-178.953 253.313,-188.097 257.848,-182.764"/>
</g>
<!-- analysis&#45;&gt;settings -->
<g id="edge84" class="edge"><title>analysis&#45;&gt;settings</title>
<path fill="none" stroke="black" d="M1115.5,-437.507C1108.2,-435.412 1100.5,-433.438 1093.2,-432 923.11,-398.465 717.96,-385.637 619.887,-381.162"/>
<polygon fill="black" stroke="black" points="620.029,-377.665 609.884,-380.718 619.719,-384.658 620.029,-377.665"/>
</g>
<!-- xml_stream&#45;&gt;error -->
<g id="edge85" class="edge"><title>xml_stream&#45;&gt;error</title>
<path fill="none" stroke="black" d="M1617.6,-583.086C1715.24,-563.106 1915.2,-514.443 1915.2,-451 1915.2,-451 1915.2,-451 1915.2,-233 1915.2,-96.5137 826.872,-135.579 693.201,-108 687.786,-106.883 682.144,-105.436 676.635,-103.858"/>
<polygon fill="black" stroke="black" points="677.528,-100.471 666.943,-100.919 675.497,-107.17 677.528,-100.471"/>
</g>
</g>
</svg>
