<?xml version="1.0" encoding="UTF-8" standalone="no"?>
<!DOCTYPE svg PUBLIC "-//W3C//DTD SVG 1.1//EN"
 "http://www.w3.org/Graphics/SVG/1.1/DTD/svg11.dtd">
<!-- Generated by graphviz version 2.38.0 (20140413.2041)
 -->
<!-- Title: algorithm.h Pages: 1 -->
<svg width="657pt" height="84pt"
 viewBox="0.00 0.00 657.00 84.00" xmlns="http://www.w3.org/2000/svg" xmlns:xlink="http://www.w3.org/1999/xlink">
<g id="graph0" class="graph" transform="scale(1 1) rotate(0) translate(4 80)">
<title>algorithm.h</title>
<polygon fill="white" stroke="none" points="-4,4 -4,-80 653,-80 653,4 -4,4"/>
<!-- Node1 -->
<g id="node1" class="node"><title>Node1</title>
<polygon fill="#bfbfbf" stroke="black" points="278,-56.5 278,-75.5 349,-75.5 349,-56.5 278,-56.5"/>
<text text-anchor="middle" x="313.5" y="-63.5" font-family="Helvetica,sans-Serif" font-size="10.00">algorithm.h</text>
</g>
<!-- Node2 -->
<g id="node2" class="node"><title>Node2</title>
<g id="a_node2"><a xlink:href="ccf__group_8cc.xhtml" target="_top" xlink:title="Implementation of various common cause failure models. ">
<polygon fill="white" stroke="black" points="0,-0.5 0,-19.5 77,-19.5 77,-0.5 0,-0.5"/>
<text text-anchor="middle" x="38.5" y="-7.5" font-family="Helvetica,sans-Serif" font-size="10.00">ccf_group.cc</text>
</a>
</g>
</g>
<!-- Node1&#45;&gt;Node2 -->
<g id="edge1" class="edge"><title>Node1&#45;&gt;Node2</title>
<path fill="none" stroke="midnightblue" d="M267.971,-56.0597C214.684,-45.5961 127.364,-28.4497 77.2063,-18.6005"/>
<polygon fill="midnightblue" stroke="midnightblue" points="267.343,-59.5033 277.83,-57.9958 268.692,-52.6345 267.343,-59.5033"/>
</g>
<!-- Node3 -->
<g id="node3" class="node"><title>Node3</title>
<g id="a_node3"><a xlink:href="element_8cc.xhtml" target="_top" xlink:title="Implementation of helper features for all elements of the analysis. ">
<polygon fill="white" stroke="black" points="95.5,-0.5 95.5,-19.5 165.5,-19.5 165.5,-0.5 95.5,-0.5"/>
<text text-anchor="middle" x="130.5" y="-7.5" font-family="Helvetica,sans-Serif" font-size="10.00">element.cc</text>
</a>
</g>
</g>
<!-- Node1&#45;&gt;Node3 -->
<g id="edge2" class="edge"><title>Node1&#45;&gt;Node3</title>
<path fill="none" stroke="midnightblue" d="M274.757,-53.5677C240.235,-43.381 190.495,-28.7034 159.361,-19.5164"/>
<polygon fill="midnightblue" stroke="midnightblue" points="273.921,-56.9702 284.503,-56.4435 275.903,-50.2564 273.921,-56.9702"/>
</g>
<!-- Node4 -->
<g id="node4" class="node"><title>Node4</title>
<g id="a_node4"><a xlink:href="event_8cc.xhtml" target="_top" xlink:title="Implementation of Event Class and its derived classes. ">
<polygon fill="white" stroke="black" points="184,-0.5 184,-19.5 241,-19.5 241,-0.5 184,-0.5"/>
<text text-anchor="middle" x="212.5" y="-7.5" font-family="Helvetica,sans-Serif" font-size="10.00">event.cc</text>
</a>
</g>
</g>
<!-- Node1&#45;&gt;Node4 -->
<g id="edge3" class="edge"><title>Node1&#45;&gt;Node4</title>
<path fill="none" stroke="midnightblue" d="M288.417,-51.5895C269.743,-41.6052 244.796,-28.2672 228.687,-19.6545"/>
<polygon fill="midnightblue" stroke="midnightblue" points="286.804,-54.6955 297.273,-56.324 290.104,-48.5224 286.804,-54.6955"/>
</g>
<!-- Node5 -->
<g id="node5" class="node"><title>Node5</title>
<g id="a_node5"><a xlink:href="random__deviate_8cc.xhtml" target="_top" xlink:title="Implementations of random deviate expressions. ">
<polygon fill="white" stroke="black" points="259.5,-0.5 259.5,-19.5 367.5,-19.5 367.5,-0.5 259.5,-0.5"/>
<text text-anchor="middle" x="313.5" y="-7.5" font-family="Helvetica,sans-Serif" font-size="10.00">random_deviate.cc</text>
</a>
</g>
</g>
<!-- Node1&#45;&gt;Node5 -->
<g id="edge4" class="edge"><title>Node1&#45;&gt;Node5</title>
<path fill="none" stroke="midnightblue" d="M313.5,-45.8045C313.5,-36.9102 313.5,-26.7798 313.5,-19.7511"/>
<polygon fill="midnightblue" stroke="midnightblue" points="310,-46.083 313.5,-56.083 317,-46.083 310,-46.083"/>
</g>
<!-- Node6 -->
<g id="node6" class="node"><title>Node6</title>
<g id="a_node6"><a xlink:href="expression_8cc.xhtml" target="_top" xlink:title="Implementation of the expression base class. ">
<polygon fill="white" stroke="black" points="385.5,-0.5 385.5,-19.5 467.5,-19.5 467.5,-0.5 385.5,-0.5"/>
<text text-anchor="middle" x="426.5" y="-7.5" font-family="Helvetica,sans-Serif" font-size="10.00">expression.cc</text>
</a>
</g>
</g>
<!-- Node1&#45;&gt;Node6 -->
<g id="edge5" class="edge"><title>Node1&#45;&gt;Node6</title>
<path fill="none" stroke="midnightblue" d="M340.503,-52.096C361.614,-42.0073 390.362,-28.2697 408.679,-19.5164"/>
<polygon fill="midnightblue" stroke="midnightblue" points="338.919,-48.9738 331.405,-56.4435 341.937,-55.2897 338.919,-48.9738"/>
</g>
<!-- Node7 -->
<g id="node7" class="node"><title>Node7</title>
<g id="a_node7"><a xlink:href="preprocessor_8cc.xhtml" target="_top" xlink:title="Implementation of preprocessing algorithms. ">
<polygon fill="white" stroke="black" points="485.5,-0.5 485.5,-19.5 577.5,-19.5 577.5,-0.5 485.5,-0.5"/>
<text text-anchor="middle" x="531.5" y="-7.5" font-family="Helvetica,sans-Serif" font-size="10.00">preprocessor.cc</text>
</a>
</g>
</g>
<!-- Node1&#45;&gt;Node7 -->
<g id="edge6" class="edge"><title>Node1&#45;&gt;Node7</title>
<path fill="none" stroke="midnightblue" d="M357.812,-54.0237C398.992,-43.8232 459.473,-28.8414 497.119,-19.5164"/>
<polygon fill="midnightblue" stroke="midnightblue" points="356.908,-50.6417 348.043,-56.4435 358.591,-57.4364 356.908,-50.6417"/>
</g>
<!-- Node8 -->
<g id="node8" class="node"><title>Node8</title>
<g id="a_node8"><a xlink:href="zbdd_8cc.xhtml" target="_top" xlink:title="Implementation of Zero&#45;Suppressed BDD algorithms. ">
<polygon fill="white" stroke="black" points="596,-0.5 596,-19.5 649,-19.5 649,-0.5 596,-0.5"/>
<text text-anchor="middle" x="622.5" y="-7.5" font-family="Helvetica,sans-Serif" font-size="10.00">zbdd.cc</text>
</a>
</g>
</g>
<!-- Node1&#45;&gt;Node8 -->
<g id="edge7" class="edge"><title>Node1&#45;&gt;Node8</title>
<path fill="none" stroke="midnightblue" d="M359.018,-58.658C413.382,-50.816 506.959,-36.4697 586.5,-20 589.528,-19.373 592.686,-18.6647 595.819,-17.9277"/>
<polygon fill="midnightblue" stroke="midnightblue" points="358.412,-55.2089 349.01,-60.092 359.405,-62.1382 358.412,-55.2089"/>
</g>
</g>
</svg>
