<?xml version="1.0" encoding="UTF-8" standalone="no"?>
<!DOCTYPE svg PUBLIC "-//W3C//DTD SVG 1.1//EN"
 "http://www.w3.org/Graphics/SVG/1.1/DTD/svg11.dtd">
<!-- Generated by graphviz version 2.38.0 (20140413.2041)
 -->
<!-- Title: analysis.h Pages: 1 -->
<svg width="326pt" height="140pt"
 viewBox="0.00 0.00 326.00 140.00" xmlns="http://www.w3.org/2000/svg" xmlns:xlink="http://www.w3.org/1999/xlink">
<g id="graph0" class="graph" transform="scale(1 1) rotate(0) translate(4 136)">
<title>analysis.h</title>
<polygon fill="white" stroke="none" points="-4,4 -4,-136 322,-136 322,4 -4,4"/>
<!-- Node1 -->
<g id="node1" class="node"><title>Node1</title>
<polygon fill="#bfbfbf" stroke="black" points="94,-112.5 94,-131.5 158,-131.5 158,-112.5 94,-112.5"/>
<text text-anchor="middle" x="126" y="-119.5" font-family="Helvetica,sans-Serif" font-size="10.00">analysis.h</text>
</g>
<!-- Node2 -->
<g id="node2" class="node"><title>Node2</title>
<polygon fill="white" stroke="#bfbfbf" points="0,-56.5 0,-75.5 52,-75.5 52,-56.5 0,-56.5"/>
<text text-anchor="middle" x="26" y="-63.5" font-family="Helvetica,sans-Serif" font-size="10.00">cassert</text>
</g>
<!-- Node1&#45;&gt;Node2 -->
<g id="edge1" class="edge"><title>Node1&#45;&gt;Node2</title>
<path fill="none" stroke="midnightblue" d="M109.933,-112.324C94.0422,-103.743 69.4926,-90.486 51.0415,-80.5224"/>
<polygon fill="midnightblue" stroke="midnightblue" points="52.489,-77.3264 42.0269,-75.6545 49.1629,-83.4857 52.489,-77.3264"/>
</g>
<!-- Node3 -->
<g id="node3" class="node"><title>Node3</title>
<polygon fill="white" stroke="#bfbfbf" points="128,-0.5 128,-19.5 172,-19.5 172,-0.5 128,-0.5"/>
<text text-anchor="middle" x="150" y="-7.5" font-family="Helvetica,sans-Serif" font-size="10.00">string</text>
</g>
<!-- Node1&#45;&gt;Node3 -->
<g id="edge2" class="edge"><title>Node1&#45;&gt;Node3</title>
<path fill="none" stroke="midnightblue" d="M117.516,-112.096C106.602,-99.5061 90.0533,-75.8256 99,-56 104.616,-43.5553 115.563,-33.1723 125.879,-25.5273"/>
<polygon fill="midnightblue" stroke="midnightblue" points="128.006,-28.3123 134.266,-19.7643 124.042,-22.5431 128.006,-28.3123"/>
</g>
<!-- Node4 -->
<g id="node4" class="node"><title>Node4</title>
<polygon fill="white" stroke="#bfbfbf" points="108,-56.5 108,-75.5 236,-75.5 236,-56.5 108,-56.5"/>
<text text-anchor="middle" x="172" y="-63.5" font-family="Helvetica,sans-Serif" font-size="10.00">boost/noncopyable.hpp</text>
</g>
<!-- Node1&#45;&gt;Node4 -->
<g id="edge3" class="edge"><title>Node1&#45;&gt;Node4</title>
<path fill="none" stroke="midnightblue" d="M133.596,-112.083C140.227,-104.298 150.021,-92.8015 158.058,-83.3665"/>
<polygon fill="midnightblue" stroke="midnightblue" points="160.725,-85.6332 164.545,-75.7511 155.396,-81.0939 160.725,-85.6332"/>
</g>
<!-- Node5 -->
<g id="node5" class="node"><title>Node5</title>
<g id="a_node5"><a xlink:href="settings_8h.xhtml" target="_top" xlink:title="Builder for settings. ">
<polygon fill="white" stroke="black" points="254,-56.5 254,-75.5 318,-75.5 318,-56.5 254,-56.5"/>
<text text-anchor="middle" x="286" y="-63.5" font-family="Helvetica,sans-Serif" font-size="10.00">settings.h</text>
</a>
</g>
</g>
<!-- Node1&#45;&gt;Node5 -->
<g id="edge4" class="edge"><title>Node1&#45;&gt;Node5</title>
<path fill="none" stroke="midnightblue" d="M151.352,-112.444C178.269,-103.359 220.996,-88.9388 251.087,-78.7831"/>
<polygon fill="midnightblue" stroke="midnightblue" points="252.41,-82.0305 260.766,-75.5164 250.172,-75.3981 252.41,-82.0305"/>
</g>
<!-- Node5&#45;&gt;Node3 -->
<g id="edge6" class="edge"><title>Node5&#45;&gt;Node3</title>
<path fill="none" stroke="midnightblue" d="M264.45,-56.4435C241.969,-47.5171 206.512,-33.4387 181.02,-23.3168"/>
<polygon fill="midnightblue" stroke="midnightblue" points="182.035,-19.9539 171.449,-19.5164 179.451,-26.4598 182.035,-19.9539"/>
</g>
<!-- Node6 -->
<g id="node6" class="node"><title>Node6</title>
<polygon fill="white" stroke="#bfbfbf" points="261.5,-0.5 261.5,-19.5 310.5,-19.5 310.5,-0.5 261.5,-0.5"/>
<text text-anchor="middle" x="286" y="-7.5" font-family="Helvetica,sans-Serif" font-size="10.00">cstdint</text>
</g>
<!-- Node5&#45;&gt;Node6 -->
<g id="edge5" class="edge"><title>Node5&#45;&gt;Node6</title>
<path fill="none" stroke="midnightblue" d="M286,-56.083C286,-49.0059 286,-38.8611 286,-29.9865"/>
<polygon fill="midnightblue" stroke="midnightblue" points="289.5,-29.751 286,-19.7511 282.5,-29.7511 289.5,-29.751"/>
</g>
</g>
</svg>
