<?xml version="1.0" encoding="UTF-8" standalone="no"?>
<!DOCTYPE svg PUBLIC "-//W3C//DTD SVG 1.1//EN"
 "http://www.w3.org/Graphics/SVG/1.1/DTD/svg11.dtd">
<!-- Generated by graphviz version 2.38.0 (20140413.2041)
 -->
<!-- Title: bdd.h Pages: 1 -->
<svg width="1478pt" height="218pt"
 viewBox="0.00 0.00 1478.32 218.00" xmlns="http://www.w3.org/2000/svg" xmlns:xlink="http://www.w3.org/1999/xlink">
<g id="graph0" class="graph" transform="scale(1 1) rotate(0) translate(4 214)">
<title>bdd.h</title>
<polygon fill="white" stroke="none" points="-4,4 -4,-214 1474.32,-214 1474.32,4 -4,4"/>
<!-- Node1 -->
<g id="node1" class="node"><title>Node1</title>
<polygon fill="#bfbfbf" stroke="black" points="276.5,-190.5 276.5,-209.5 320.5,-209.5 320.5,-190.5 276.5,-190.5"/>
<text text-anchor="middle" x="298.5" y="-197.5" font-family="Helvetica,sans-Serif" font-size="10.00">bdd.h</text>
</g>
<!-- Node2 -->
<g id="node2" class="node"><title>Node2</title>
<polygon fill="white" stroke="#bfbfbf" points="0,-129 0,-148 47,-148 47,-129 0,-129"/>
<text text-anchor="middle" x="23.5" y="-136" font-family="Helvetica,sans-Serif" font-size="10.00">cmath</text>
</g>
<!-- Node1&#45;&gt;Node2 -->
<g id="edge1" class="edge"><title>Node1&#45;&gt;Node2</title>
<path fill="none" stroke="midnightblue" d="M276.306,-196.124C233.989,-190.347 139.068,-175.976 61.5,-154 58.8525,-153.25 56.1306,-152.392 53.4181,-151.477"/>
<polygon fill="midnightblue" stroke="midnightblue" points="54.3808,-148.104 43.7865,-148 52.0041,-154.688 54.3808,-148.104"/>
</g>
<!-- Node3 -->
<g id="node3" class="node"><title>Node3</title>
<polygon fill="white" stroke="#bfbfbf" points="675.5,-0.5 675.5,-19.5 737.5,-19.5 737.5,-0.5 675.5,-0.5"/>
<text text-anchor="middle" x="706.5" y="-7.5" font-family="Helvetica,sans-Serif" font-size="10.00">algorithm</text>
</g>
<!-- Node1&#45;&gt;Node3 -->
<g id="edge2" class="edge"><title>Node1&#45;&gt;Node3</title>
<path fill="none" stroke="midnightblue" d="M283.12,-190.411C267.898,-181.735 244.098,-167.692 224.5,-154 219.607,-150.581 143.09,-92.3783 140.5,-87 134.523,-74.5864 131.151,-66.1201 140.5,-56 174.838,-18.8311 544.058,-24.0266 594.5,-20 617.789,-18.1409 643.8,-16.0515 664.89,-14.3542"/>
<polygon fill="midnightblue" stroke="midnightblue" points="665.434,-17.8218 675.121,-13.5305 664.872,-10.8444 665.434,-17.8218"/>
</g>
<!-- Node4 -->
<g id="node4" class="node"><title>Node4</title>
<polygon fill="white" stroke="#bfbfbf" points="104,-129 104,-148 175,-148 175,-129 104,-129"/>
<text text-anchor="middle" x="139.5" y="-136" font-family="Helvetica,sans-Serif" font-size="10.00">forward_list</text>
</g>
<!-- Node1&#45;&gt;Node4 -->
<g id="edge3" class="edge"><title>Node1&#45;&gt;Node4</title>
<path fill="none" stroke="midnightblue" d="M276.392,-190.727C249.289,-180.585 203.131,-163.311 171.99,-151.658"/>
<polygon fill="midnightblue" stroke="midnightblue" points="173.043,-148.315 162.45,-148.088 170.589,-154.871 173.043,-148.315"/>
</g>
<!-- Node5 -->
<g id="node5" class="node"><title>Node5</title>
<polygon fill="white" stroke="#bfbfbf" points="150,-62 150,-81 207,-81 207,-62 150,-62"/>
<text text-anchor="middle" x="178.5" y="-69" font-family="Helvetica,sans-Serif" font-size="10.00">memory</text>
</g>
<!-- Node1&#45;&gt;Node5 -->
<g id="edge4" class="edge"><title>Node1&#45;&gt;Node5</title>
<path fill="none" stroke="midnightblue" d="M290.252,-190.305C270.385,-169.362 219.626,-115.854 193.918,-88.7532"/>
<polygon fill="midnightblue" stroke="midnightblue" points="196.227,-86.1019 186.806,-81.2557 191.149,-90.9195 196.227,-86.1019"/>
</g>
<!-- Node6 -->
<g id="node6" class="node"><title>Node6</title>
<polygon fill="white" stroke="#bfbfbf" points="225,-62 225,-81 318,-81 318,-62 225,-62"/>
<text text-anchor="middle" x="271.5" y="-69" font-family="Helvetica,sans-Serif" font-size="10.00">unordered_map</text>
</g>
<!-- Node1&#45;&gt;Node6 -->
<g id="edge5" class="edge"><title>Node1&#45;&gt;Node6</title>
<path fill="none" stroke="midnightblue" d="M296.644,-190.305C292.309,-169.994 281.436,-119.053 275.508,-91.2768"/>
<polygon fill="midnightblue" stroke="midnightblue" points="278.879,-90.3048 273.369,-81.2557 272.033,-91.766 278.879,-90.3048"/>
</g>
<!-- Node7 -->
<g id="node7" class="node"><title>Node7</title>
<polygon fill="white" stroke="#bfbfbf" points="1021.5,-0.5 1021.5,-19.5 1063.5,-19.5 1063.5,-0.5 1021.5,-0.5"/>
<text text-anchor="middle" x="1042.5" y="-7.5" font-family="Helvetica,sans-Serif" font-size="10.00">utility</text>
</g>
<!-- Node1&#45;&gt;Node7 -->
<g id="edge6" class="edge"><title>Node1&#45;&gt;Node7</title>
<path fill="none" stroke="midnightblue" d="M320.754,-199.18C468.358,-200.228 1303.28,-203.912 1403.5,-154 1448.21,-131.734 1491.86,-93.1679 1458.5,-56 1432.86,-27.4328 1165.94,-15.3612 1073.67,-12.0211"/>
<polygon fill="midnightblue" stroke="midnightblue" points="1073.67,-8.51917 1063.56,-11.6649 1073.43,-15.5148 1073.67,-8.51917"/>
</g>
<!-- Node8 -->
<g id="node8" class="node"><title>Node8</title>
<polygon fill="white" stroke="#bfbfbf" points="539,-0.5 539,-19.5 586,-19.5 586,-0.5 539,-0.5"/>
<text text-anchor="middle" x="562.5" y="-7.5" font-family="Helvetica,sans-Serif" font-size="10.00">vector</text>
</g>
<!-- Node1&#45;&gt;Node8 -->
<g id="edge7" class="edge"><title>Node1&#45;&gt;Node8</title>
<path fill="none" stroke="midnightblue" d="M276.387,-197.513C228.392,-193.777 117.159,-182.202 94.5,-154 79.0963,-134.828 93.545,-68.7131 107.5,-56 138.497,-27.7611 428.305,-15.4812 528.564,-12.0539"/>
<polygon fill="midnightblue" stroke="midnightblue" points="528.869,-15.5458 538.747,-11.7142 528.636,-8.54966 528.869,-15.5458"/>
</g>
<!-- Node9 -->
<g id="node9" class="node"><title>Node9</title>
<polygon fill="white" stroke="#bfbfbf" points="345.5,-129 345.5,-148 485.5,-148 485.5,-129 345.5,-129"/>
<text text-anchor="middle" x="415.5" y="-136" font-family="Helvetica,sans-Serif" font-size="10.00">boost/functional/hash.hpp</text>
</g>
<!-- Node1&#45;&gt;Node9 -->
<g id="edge8" class="edge"><title>Node1&#45;&gt;Node9</title>
<path fill="none" stroke="midnightblue" d="M315.263,-190.475C334.725,-180.578 367.045,-164.142 389.711,-152.615"/>
<polygon fill="midnightblue" stroke="midnightblue" points="391.441,-155.662 398.768,-148.009 388.268,-149.422 391.441,-155.662"/>
</g>
<!-- Node10 -->
<g id="node10" class="node"><title>Node10</title>
<polygon fill="white" stroke="#bfbfbf" points="336.5,-62 336.5,-81 464.5,-81 464.5,-62 336.5,-62"/>
<text text-anchor="middle" x="400.5" y="-69" font-family="Helvetica,sans-Serif" font-size="10.00">boost/noncopyable.hpp</text>
</g>
<!-- Node1&#45;&gt;Node10 -->
<g id="edge9" class="edge"><title>Node1&#45;&gt;Node10</title>
<path fill="none" stroke="midnightblue" d="M301.413,-190.315C306.705,-175.414 318.992,-144.509 336.5,-123 348.115,-108.73 364.438,-95.9304 377.691,-86.7877"/>
<polygon fill="midnightblue" stroke="midnightblue" points="379.897,-89.5243 386.281,-81.0691 376.017,-83.6974 379.897,-89.5243"/>
</g>
<!-- Node11 -->
<g id="node11" class="node"><title>Node11</title>
<polygon fill="white" stroke="#bfbfbf" points="784,-123.5 784,-153.5 921,-153.5 921,-123.5 784,-123.5"/>
<text text-anchor="start" x="792" y="-141.5" font-family="Helvetica,sans-Serif" font-size="10.00">boost/smart_ptr/intrusive</text>
<text text-anchor="middle" x="852.5" y="-130.5" font-family="Helvetica,sans-Serif" font-size="10.00">_ptr.hpp</text>
</g>
<!-- Node1&#45;&gt;Node11 -->
<g id="edge10" class="edge"><title>Node1&#45;&gt;Node11</title>
<path fill="none" stroke="midnightblue" d="M320.888,-197.599C387.922,-193.253 593.039,-178.862 773.705,-154.026"/>
<polygon fill="midnightblue" stroke="midnightblue" points="774.228,-157.487 783.651,-152.645 773.265,-150.554 774.228,-157.487"/>
</g>
<!-- Node12 -->
<g id="node12" class="node"><title>Node12</title>
<g id="a_node12"><a xlink:href="pdag_8h.xhtml" target="_top" xlink:title="Classes and facilities to represent fault trees as PDAGs with event and gate indices instead of ID na...">
<polygon fill="white" stroke="black" points="715.5,-129 715.5,-148 765.5,-148 765.5,-129 715.5,-129"/>
<text text-anchor="middle" x="740.5" y="-136" font-family="Helvetica,sans-Serif" font-size="10.00">pdag.h</text>
</a>
</g>
</g>
<!-- Node1&#45;&gt;Node12 -->
<g id="edge11" class="edge"><title>Node1&#45;&gt;Node12</title>
<path fill="none" stroke="midnightblue" d="M320.722,-196.009C392.384,-186.362 617.796,-156.018 705.293,-144.239"/>
<polygon fill="midnightblue" stroke="midnightblue" points="705.817,-147.701 715.26,-142.898 704.883,-140.763 705.817,-147.701"/>
</g>
<!-- Node24 -->
<g id="node24" class="node"><title>Node24</title>
<g id="a_node24"><a xlink:href="settings_8h.xhtml" target="_top" xlink:title="Builder for settings. ">
<polygon fill="white" stroke="black" points="1330.5,-129 1330.5,-148 1394.5,-148 1394.5,-129 1330.5,-129"/>
<text text-anchor="middle" x="1362.5" y="-136" font-family="Helvetica,sans-Serif" font-size="10.00">settings.h</text>
</a>
</g>
</g>
<!-- Node1&#45;&gt;Node24 -->
<g id="edge34" class="edge"><title>Node1&#45;&gt;Node24</title>
<path fill="none" stroke="midnightblue" d="M320.723,-197.757C453.489,-190.333 1142.1,-151.825 1320.34,-141.858"/>
<polygon fill="midnightblue" stroke="midnightblue" points="1320.58,-145.35 1330.37,-141.297 1320.19,-138.36 1320.58,-145.35"/>
</g>
<!-- Node12&#45;&gt;Node3 -->
<g id="edge14" class="edge"><title>Node12&#45;&gt;Node3</title>
<path fill="none" stroke="midnightblue" d="M746.238,-128.551C755.347,-113.122 770.971,-80.7883 759.5,-56 753.58,-43.2072 742.032,-32.7216 731.222,-25.1003"/>
<polygon fill="midnightblue" stroke="midnightblue" points="733.118,-22.1581 722.834,-19.613 729.286,-28.0161 733.118,-22.1581"/>
</g>
<!-- Node12&#45;&gt;Node5 -->
<g id="edge16" class="edge"><title>Node12&#45;&gt;Node5</title>
<path fill="none" stroke="midnightblue" d="M715.335,-136.007C624.31,-130.464 312.46,-110.183 215.5,-87 212.669,-86.3231 209.767,-85.4756 206.893,-84.532"/>
<polygon fill="midnightblue" stroke="midnightblue" points="207.972,-81.2003 197.378,-81.0622 205.574,-87.7766 207.972,-81.2003"/>
</g>
<!-- Node12&#45;&gt;Node6 -->
<g id="edge17" class="edge"><title>Node12&#45;&gt;Node6</title>
<path fill="none" stroke="midnightblue" d="M715.18,-135.573C650.304,-130.382 472.987,-114.606 327.5,-87 322.329,-86.0189 316.929,-84.8318 311.609,-83.5642"/>
<polygon fill="midnightblue" stroke="midnightblue" points="312.111,-80.0821 301.561,-81.0602 310.418,-86.8744 312.111,-80.0821"/>
</g>
<!-- Node12&#45;&gt;Node7 -->
<g id="edge18" class="edge"><title>Node12&#45;&gt;Node7</title>
<path fill="none" stroke="midnightblue" d="M758.179,-128.914C763.341,-126.697 769.059,-124.511 774.5,-123 830.278,-107.51 991.727,-128.093 1032.5,-87 1047.19,-72.1985 1047.64,-47.0468 1045.78,-29.7585"/>
<polygon fill="midnightblue" stroke="midnightblue" points="1049.23,-29.1282 1044.36,-19.721 1042.3,-30.1143 1049.23,-29.1282"/>
</g>
<!-- Node12&#45;&gt;Node8 -->
<g id="edge19" class="edge"><title>Node12&#45;&gt;Node8</title>
<path fill="none" stroke="midnightblue" d="M715.271,-135.801C661.175,-131.577 536.873,-118.578 511.5,-87 502.87,-76.2597 505.833,-68.5583 511.5,-56 517.116,-43.5553 528.063,-33.1723 538.379,-25.5273"/>
<polygon fill="midnightblue" stroke="midnightblue" points="540.506,-28.3123 546.766,-19.7643 536.542,-22.5431 540.506,-28.3123"/>
</g>
<!-- Node12&#45;&gt;Node10 -->
<g id="edge21" class="edge"><title>Node12&#45;&gt;Node10</title>
<path fill="none" stroke="midnightblue" d="M715.499,-132.72C660.94,-122.29 530.113,-97.2789 455.351,-82.9861"/>
<polygon fill="midnightblue" stroke="midnightblue" points="455.667,-79.4832 445.187,-81.0432 454.352,-86.3587 455.667,-79.4832"/>
</g>
<!-- Node13 -->
<g id="node13" class="node"><title>Node13</title>
<polygon fill="white" stroke="#bfbfbf" points="1338,-62 1338,-81 1387,-81 1387,-62 1338,-62"/>
<text text-anchor="middle" x="1362.5" y="-69" font-family="Helvetica,sans-Serif" font-size="10.00">cstdint</text>
</g>
<!-- Node12&#45;&gt;Node13 -->
<g id="edge12" class="edge"><title>Node12&#45;&gt;Node13</title>
<path fill="none" stroke="midnightblue" d="M757.412,-128.957C762.751,-126.627 768.757,-124.369 774.5,-123 1014.52,-65.7872 1088.48,-144.213 1328.5,-87 1331.01,-86.4011 1333.58,-85.6321 1336.11,-84.7612"/>
<polygon fill="midnightblue" stroke="midnightblue" points="1337.56,-87.9535 1345.59,-81.0425 1335,-81.4372 1337.56,-87.9535"/>
</g>
<!-- Node14 -->
<g id="node14" class="node"><title>Node14</title>
<polygon fill="white" stroke="#bfbfbf" points="1080,-62 1080,-81 1127,-81 1127,-62 1080,-62"/>
<text text-anchor="middle" x="1103.5" y="-69" font-family="Helvetica,sans-Serif" font-size="10.00">cstdlib</text>
</g>
<!-- Node12&#45;&gt;Node14 -->
<g id="edge13" class="edge"><title>Node12&#45;&gt;Node14</title>
<path fill="none" stroke="midnightblue" d="M758.164,-128.86C763.326,-126.641 769.047,-124.469 774.5,-123 900.335,-89.1071 939.035,-118.459 1065.5,-87 1068.33,-86.2969 1071.23,-85.4439 1074.11,-84.5075"/>
<polygon fill="midnightblue" stroke="midnightblue" points="1075.43,-87.7529 1083.67,-81.0998 1073.08,-81.1588 1075.43,-87.7529"/>
</g>
<!-- Node15 -->
<g id="node15" class="node"><title>Node15</title>
<polygon fill="white" stroke="#bfbfbf" points="1145.5,-62 1145.5,-81 1191.5,-81 1191.5,-62 1145.5,-62"/>
<text text-anchor="middle" x="1168.5" y="-69" font-family="Helvetica,sans-Serif" font-size="10.00">iosfwd</text>
</g>
<!-- Node12&#45;&gt;Node15 -->
<g id="edge15" class="edge"><title>Node12&#45;&gt;Node15</title>
<path fill="none" stroke="midnightblue" d="M757.791,-128.927C763.043,-126.653 768.906,-124.435 774.5,-123 931.111,-82.8239 980.347,-128.922 1136.5,-87 1138.65,-86.4218 1140.85,-85.7129 1143.02,-84.9226"/>
<polygon fill="midnightblue" stroke="midnightblue" points="1144.37,-88.15 1152.27,-81.0883 1141.69,-81.6833 1144.37,-88.15"/>
</g>
<!-- Node16 -->
<g id="node16" class="node"><title>Node16</title>
<polygon fill="white" stroke="#bfbfbf" points="1209.5,-56.5 1209.5,-86.5 1319.5,-86.5 1319.5,-56.5 1209.5,-56.5"/>
<text text-anchor="start" x="1217.5" y="-74.5" font-family="Helvetica,sans-Serif" font-size="10.00">boost/container/flat</text>
<text text-anchor="middle" x="1264.5" y="-63.5" font-family="Helvetica,sans-Serif" font-size="10.00">_set.hpp</text>
</g>
<!-- Node12&#45;&gt;Node16 -->
<g id="edge20" class="edge"><title>Node12&#45;&gt;Node16</title>
<path fill="none" stroke="midnightblue" d="M757.778,-128.874C763.029,-126.6 768.895,-124.394 774.5,-123 955.742,-77.9335 1010.85,-114.757 1199.47,-86.9921"/>
<polygon fill="midnightblue" stroke="midnightblue" points="1200.07,-90.4416 1209.43,-85.4846 1199.02,-83.5205 1200.07,-90.4416"/>
</g>
<!-- Node17 -->
<g id="node17" class="node"><title>Node17</title>
<polygon fill="white" stroke="#bfbfbf" points="521,-56.5 521,-86.5 636,-86.5 636,-56.5 521,-56.5"/>
<text text-anchor="start" x="529" y="-74.5" font-family="Helvetica,sans-Serif" font-size="10.00">boost/range/adaptor</text>
<text text-anchor="middle" x="578.5" y="-63.5" font-family="Helvetica,sans-Serif" font-size="10.00">/transformed.hpp</text>
</g>
<!-- Node12&#45;&gt;Node17 -->
<g id="edge22" class="edge"><title>Node12&#45;&gt;Node17</title>
<path fill="none" stroke="midnightblue" d="M718.988,-128.869C694.574,-119.073 654.091,-102.83 622.837,-90.2897"/>
<polygon fill="midnightblue" stroke="midnightblue" points="624.046,-87.0036 613.462,-86.5281 621.44,-93.5002 624.046,-87.0036"/>
</g>
<!-- Node18 -->
<g id="node18" class="node"><title>Node18</title>
<g id="a_node18"><a xlink:href="find__iterator_8h.xhtml" target="_top" xlink:title="Convenience iterator adaptor to wrap find calls and results. ">
<polygon fill="white" stroke="black" points="922,-62 922,-81 1023,-81 1023,-62 922,-62"/>
<text text-anchor="middle" x="972.5" y="-69" font-family="Helvetica,sans-Serif" font-size="10.00">ext/find_iterator.h</text>
</a>
</g>
</g>
<!-- Node12&#45;&gt;Node18 -->
<g id="edge23" class="edge"><title>Node12&#45;&gt;Node18</title>
<path fill="none" stroke="midnightblue" d="M759.006,-129C763.978,-126.884 769.394,-124.728 774.5,-123 788.982,-118.098 873.745,-96.8977 927.569,-83.5729"/>
<polygon fill="midnightblue" stroke="midnightblue" points="928.695,-86.8998 937.563,-81.1012 927.015,-80.1045 928.695,-86.8998"/>
</g>
<!-- Node19 -->
<g id="node19" class="node"><title>Node19</title>
<g id="a_node19"><a xlink:href="index__map_8h.xhtml" target="_top" xlink:title="Non&#45;zero based Index&#45;&gt;Value map adapter on sequential containers. ">
<polygon fill="white" stroke="black" points="654.5,-62 654.5,-81 750.5,-81 750.5,-62 654.5,-62"/>
<text text-anchor="middle" x="702.5" y="-69" font-family="Helvetica,sans-Serif" font-size="10.00">ext/index_map.h</text>
</a>
</g>
</g>
<!-- Node12&#45;&gt;Node19 -->
<g id="edge25" class="edge"><title>Node12&#45;&gt;Node19</title>
<path fill="none" stroke="midnightblue" d="M735.375,-128.734C729.563,-118.793 719.944,-102.338 712.608,-89.7892"/>
<polygon fill="midnightblue" stroke="midnightblue" points="715.612,-87.9938 707.544,-81.1273 709.569,-91.5267 715.612,-87.9938"/>
</g>
<!-- Node20 -->
<g id="node20" class="node"><title>Node20</title>
<g id="a_node20"><a xlink:href="linear__map_8h.xhtml" target="_top" xlink:title="Implementation of a vector&#45;based map for a small number of entries. ">
<polygon fill="white" stroke="black" points="807,-62 807,-81 904,-81 904,-62 807,-62"/>
<text text-anchor="middle" x="855.5" y="-69" font-family="Helvetica,sans-Serif" font-size="10.00">ext/linear_map.h</text>
</a>
</g>
</g>
<!-- Node12&#45;&gt;Node20 -->
<g id="edge27" class="edge"><title>Node12&#45;&gt;Node20</title>
<path fill="none" stroke="midnightblue" d="M756.009,-128.734C775.408,-117.769 808.826,-98.8809 831.528,-86.0495"/>
<polygon fill="midnightblue" stroke="midnightblue" points="833.253,-89.0949 840.236,-81.1273 829.808,-83.001 833.253,-89.0949"/>
</g>
<!-- Node18&#45;&gt;Node7 -->
<g id="edge24" class="edge"><title>Node18&#45;&gt;Node7</title>
<path fill="none" stroke="midnightblue" d="M982.529,-61.9751C993.549,-52.6082 1011.46,-37.3839 1024.84,-26.0081"/>
<polygon fill="midnightblue" stroke="midnightblue" points="1027.14,-28.6524 1032.49,-19.5091 1022.6,-23.3188 1027.14,-28.6524"/>
</g>
<!-- Node19&#45;&gt;Node8 -->
<g id="edge26" class="edge"><title>Node19&#45;&gt;Node8</title>
<path fill="none" stroke="midnightblue" d="M682.441,-61.9751C658.738,-51.9013 619.094,-35.0525 591.917,-23.5023"/>
<polygon fill="midnightblue" stroke="midnightblue" points="593.094,-20.1994 582.521,-19.5091 590.356,-26.6417 593.094,-20.1994"/>
</g>
<!-- Node20&#45;&gt;Node3 -->
<g id="edge29" class="edge"><title>Node20&#45;&gt;Node3</title>
<path fill="none" stroke="midnightblue" d="M834.152,-61.9751C808.814,-51.8571 766.362,-34.9046 737.429,-23.3507"/>
<polygon fill="midnightblue" stroke="midnightblue" points="738.393,-19.9673 727.808,-19.5091 735.797,-26.4681 738.393,-19.9673"/>
</g>
<!-- Node20&#45;&gt;Node7 -->
<g id="edge33" class="edge"><title>Node20&#45;&gt;Node7</title>
<path fill="none" stroke="midnightblue" d="M882.293,-61.9751C916.394,-51.1247 975.197,-32.4145 1011.29,-20.9311"/>
<polygon fill="midnightblue" stroke="midnightblue" points="1012.8,-24.1235 1021.27,-17.7562 1010.68,-17.453 1012.8,-24.1235"/>
</g>
<!-- Node20&#45;&gt;Node8 -->
<g id="edge32" class="edge"><title>Node20&#45;&gt;Node8</title>
<path fill="none" stroke="midnightblue" d="M813.52,-61.9751C754.923,-50.0757 649.776,-28.7234 596.069,-17.8168"/>
<polygon fill="midnightblue" stroke="midnightblue" points="596.538,-14.3409 586.042,-15.7807 595.145,-21.2009 596.538,-14.3409"/>
</g>
<!-- Node21 -->
<g id="node21" class="node"><title>Node21</title>
<polygon fill="white" stroke="#bfbfbf" points="755.5,-0.5 755.5,-19.5 807.5,-19.5 807.5,-0.5 755.5,-0.5"/>
<text text-anchor="middle" x="781.5" y="-7.5" font-family="Helvetica,sans-Serif" font-size="10.00">cassert</text>
</g>
<!-- Node20&#45;&gt;Node21 -->
<g id="edge28" class="edge"><title>Node20&#45;&gt;Node21</title>
<path fill="none" stroke="midnightblue" d="M844.898,-61.9751C833.248,-52.6082 814.314,-37.3839 800.165,-26.0081"/>
<polygon fill="midnightblue" stroke="midnightblue" points="802.069,-23.0477 792.083,-19.5091 797.683,-28.503 802.069,-23.0477"/>
</g>
<!-- Node22 -->
<g id="node22" class="node"><title>Node22</title>
<polygon fill="white" stroke="#bfbfbf" points="826,-0.5 826,-19.5 903,-19.5 903,-0.5 826,-0.5"/>
<text text-anchor="middle" x="864.5" y="-7.5" font-family="Helvetica,sans-Serif" font-size="10.00">initializer_list</text>
</g>
<!-- Node20&#45;&gt;Node22 -->
<g id="edge30" class="edge"><title>Node20&#45;&gt;Node22</title>
<path fill="none" stroke="midnightblue" d="M856.789,-61.9751C858.059,-53.5803 860.041,-40.4806 861.677,-29.6631"/>
<polygon fill="midnightblue" stroke="midnightblue" points="865.178,-29.9201 863.213,-19.5091 858.257,-28.8731 865.178,-29.9201"/>
</g>
<!-- Node23 -->
<g id="node23" class="node"><title>Node23</title>
<polygon fill="white" stroke="#bfbfbf" points="921.5,-0.5 921.5,-19.5 985.5,-19.5 985.5,-0.5 921.5,-0.5"/>
<text text-anchor="middle" x="953.5" y="-7.5" font-family="Helvetica,sans-Serif" font-size="10.00">stdexcept</text>
</g>
<!-- Node20&#45;&gt;Node23 -->
<g id="edge31" class="edge"><title>Node20&#45;&gt;Node23</title>
<path fill="none" stroke="midnightblue" d="M869.541,-61.9751C885.551,-52.2548 911.95,-36.2266 930.874,-24.7372"/>
<polygon fill="midnightblue" stroke="midnightblue" points="932.754,-27.6907 939.485,-19.5091 929.121,-21.7072 932.754,-27.6907"/>
</g>
<!-- Node24&#45;&gt;Node13 -->
<g id="edge35" class="edge"><title>Node24&#45;&gt;Node13</title>
<path fill="none" stroke="midnightblue" d="M1362.5,-128.734C1362.5,-119.183 1362.5,-103.618 1362.5,-91.2829"/>
<polygon fill="midnightblue" stroke="midnightblue" points="1366,-91.1273 1362.5,-81.1273 1359,-91.1273 1366,-91.1273"/>
</g>
<!-- Node25 -->
<g id="node25" class="node"><title>Node25</title>
<polygon fill="white" stroke="#bfbfbf" points="1405.5,-62 1405.5,-81 1449.5,-81 1449.5,-62 1405.5,-62"/>
<text text-anchor="middle" x="1427.5" y="-69" font-family="Helvetica,sans-Serif" font-size="10.00">string</text>
</g>
<!-- Node24&#45;&gt;Node25 -->
<g id="edge36" class="edge"><title>Node24&#45;&gt;Node25</title>
<path fill="none" stroke="midnightblue" d="M1371.27,-128.734C1381.6,-118.403 1398.96,-101.037 1411.67,-88.3315"/>
<polygon fill="midnightblue" stroke="midnightblue" points="1414.28,-90.6733 1418.87,-81.1273 1409.33,-85.7235 1414.28,-90.6733"/>
</g>
</g>
</svg>
