<?xml version="1.0" encoding="UTF-8" standalone="no"?>
<!DOCTYPE svg PUBLIC "-//W3C//DTD SVG 1.1//EN"
 "http://www.w3.org/Graphics/SVG/1.1/DTD/svg11.dtd">
<!-- Generated by graphviz version 2.38.0 (20140413.2041)
 -->
<!-- Title: bdd.cc Pages: 1 -->
<!--zoomable 352 -->
<svg id="main" version="1.1" xmlns="http://www.w3.org/2000/svg" xmlns:xlink="http://www.w3.org/1999/xlink" xml:space="preserve" onload="init(evt)">
<style type="text/css"><![CDATA[
.edge:hover path { stroke: red; }
.edge:hover polygon { stroke: red; fill: red; }
]]></style>
<script type="text/javascript"><![CDATA[
var edges = document.getElementsByTagName('g');
if (edges && edges.length) {
  for (var i=0;i<edges.length;i++) {
    if (edges[i].id.substr(0,4)=='edge') {
      edges[i].setAttribute('class','edge');
    }
  }
}
]]></script>
        <defs>
                <circle id="rim" cx="0" cy="0" r="7"/>
                <circle id="rim2" cx="0" cy="0" r="3.5"/>
                <g id="zoomPlus">
                        <use xlink:href="#rim" fill="#404040">
                                <set attributeName="fill" to="#808080" begin="zoomplus.mouseover" end="zoomplus.mouseout"/>
                        </use>
                        <path d="M-4,0h8M0,-4v8" fill="none" stroke="white" stroke-width="1.5" pointer-events="none"/>
                </g>
                <g id="zoomMin">
                        <use xlink:href="#rim" fill="#404040">
                                <set attributeName="fill" to="#808080" begin="zoomminus.mouseover" end="zoomminus.mouseout"/>
                        </use>
                        <path d="M-4,0h8" fill="none" stroke="white" stroke-width="1.5" pointer-events="none"/>
                </g>
                <g id="dirArrow">
                        <path fill="none" stroke="white" stroke-width="1.5" d="M0,-3.0v7 M-2.5,-0.5L0,-3.0L2.5,-0.5"/>
                </g>
               <g id="resetDef">
                       <use xlink:href="#rim2" fill="#404040">
                               <set attributeName="fill" to="#808080" begin="reset.mouseover" end="reset.mouseout"/>
                       </use>
               </g>
        </defs>

<script type="text/javascript">
var viewWidth = 1792;
var viewHeight = 352;
var sectionId = 'dynsection-0';
</script>
<script xlink:href="svgpan.js"/>
<svg id="graph" class="graph">
<g id="viewport">
<title>bdd.cc</title>
<polygon fill="white" stroke="none" points="-4,4 -4,-348 1788.16,-348 1788.16,4 -4,4"/>
<!-- Node1 -->
<g id="node1" class="node"><title>Node1</title>
<polygon fill="#bfbfbf" stroke="black" points="974.16,-324.5 974.16,-343.5 1022.16,-343.5 1022.16,-324.5 974.16,-324.5"/>
<text text-anchor="middle" x="998.16" y="-331.5" font-family="Helvetica,sans-Serif" font-size="10.00">bdd.cc</text>
</g>
<!-- Node2 -->
<g id="node2" class="node"><title>Node2</title>
<g id="a_node2"><a xlink:href="bdd_8h.xhtml" target="_top" xlink:title="Fault tree analysis with the Binary Decision Diagram algorithms. ">
<polygon fill="white" stroke="black" points="804.16,-196 804.16,-215 848.16,-215 848.16,-196 804.16,-196"/>
<text text-anchor="middle" x="826.16" y="-203" font-family="Helvetica,sans-Serif" font-size="10.00">bdd.h</text>
</a>
</g>
</g>
<!-- Node1&#45;&gt;Node2 -->
<g id="edge1" class="edge"><title>Node1&#45;&gt;Node2</title>
<path fill="none" stroke="midnightblue" d="M973.929,-331.305C943.466,-327.938 891.28,-317.898 859.16,-288 841.301,-271.377 832.879,-243.743 829.071,-225.326"/>
<polygon fill="midnightblue" stroke="midnightblue" points="832.47,-224.453 827.254,-215.231 825.581,-225.693 832.47,-224.453"/>
</g>
<!-- Node19 -->
<g id="node19" class="node"><title>Node19</title>
<g id="a_node19"><a xlink:href="find__iterator_8h.xhtml" target="_top" xlink:title="Convenience iterator adaptor to wrap find calls and results. ">
<polygon fill="white" stroke="black" points="39.6598,-62 39.6598,-81 140.66,-81 140.66,-62 39.6598,-62"/>
<text text-anchor="middle" x="90.1598" y="-69" font-family="Helvetica,sans-Serif" font-size="10.00">ext/find_iterator.h</text>
</a>
</g>
</g>
<!-- Node1&#45;&gt;Node19 -->
<g id="edge40" class="edge"><title>Node1&#45;&gt;Node19</title>
<path fill="none" stroke="midnightblue" d="M974.131,-332.9C850.786,-331.936 289.346,-321.985 155.16,-221 112.718,-189.059 97.526,-123.494 92.4733,-91.2486"/>
<polygon fill="midnightblue" stroke="midnightblue" points="95.9388,-90.7579 91.0809,-81.3424 89.007,-91.7323 95.9388,-90.7579"/>
</g>
<!-- Node27 -->
<g id="node27" class="node"><title>Node27</title>
<polygon fill="white" stroke="#bfbfbf" points="868.66,-257.5 868.66,-287.5 981.66,-287.5 981.66,-257.5 868.66,-257.5"/>
<text text-anchor="start" x="876.66" y="-275.5" font-family="Helvetica,sans-Serif" font-size="10.00">boost/multiprecision</text>
<text text-anchor="middle" x="925.16" y="-264.5" font-family="Helvetica,sans-Serif" font-size="10.00">/miller_rabin.hpp</text>
</g>
<!-- Node1&#45;&gt;Node27 -->
<g id="edge38" class="edge"><title>Node1&#45;&gt;Node27</title>
<path fill="none" stroke="midnightblue" d="M987.701,-324.475C977.999,-316.567 963.175,-304.485 950.394,-294.067"/>
<polygon fill="midnightblue" stroke="midnightblue" points="952.327,-291.128 942.364,-287.523 947.905,-296.554 952.327,-291.128"/>
</g>
<!-- Node28 -->
<g id="node28" class="node"><title>Node28</title>
<polygon fill="white" stroke="#bfbfbf" points="1000.16,-263 1000.16,-282 1144.16,-282 1144.16,-263 1000.16,-263"/>
<text text-anchor="middle" x="1072.16" y="-270" font-family="Helvetica,sans-Serif" font-size="10.00">boost/range/algorithm.hpp</text>
</g>
<!-- Node1&#45;&gt;Node28 -->
<g id="edge39" class="edge"><title>Node1&#45;&gt;Node28</title>
<path fill="none" stroke="midnightblue" d="M1008.76,-324.475C1020.41,-315.108 1039.35,-299.884 1053.49,-288.508"/>
<polygon fill="midnightblue" stroke="midnightblue" points="1055.98,-291.003 1061.58,-282.009 1051.59,-285.548 1055.98,-291.003"/>
</g>
<!-- Node29 -->
<g id="node29" class="node"><title>Node29</title>
<g id="a_node29"><a xlink:href="logger_8h.xhtml" target="_top" xlink:title="Logging capability for various purposes, such as warnings and debugging. ">
<polygon fill="white" stroke="black" points="1547.66,-129 1547.66,-148 1602.66,-148 1602.66,-129 1547.66,-129"/>
<text text-anchor="middle" x="1575.16" y="-136" font-family="Helvetica,sans-Serif" font-size="10.00">logger.h</text>
</a>
</g>
</g>
<!-- Node1&#45;&gt;Node29 -->
<g id="edge41" class="edge"><title>Node1&#45;&gt;Node29</title>
<path fill="none" stroke="midnightblue" d="M1022.32,-330.709C1115.49,-321.466 1450.34,-284.342 1533.16,-221 1553.66,-205.318 1565.04,-176.798 1570.63,-157.999"/>
<polygon fill="midnightblue" stroke="midnightblue" points="1574.04,-158.792 1573.28,-148.225 1567.29,-156.963 1574.04,-158.792"/>
</g>
<!-- Node33 -->
<g id="node33" class="node"><title>Node33</title>
<g id="a_node33"><a xlink:href="zbdd_8h.xhtml" target="_top" xlink:title="Zero&#45;Suppressed Binary Decision Diagram facilities. ">
<polygon fill="white" stroke="black" points="1162.66,-263 1162.66,-282 1211.66,-282 1211.66,-263 1162.66,-263"/>
<text text-anchor="middle" x="1187.16" y="-270" font-family="Helvetica,sans-Serif" font-size="10.00">zbdd.h</text>
</a>
</g>
</g>
<!-- Node1&#45;&gt;Node33 -->
<g id="edge47" class="edge"><title>Node1&#45;&gt;Node33</title>
<path fill="none" stroke="midnightblue" d="M1022.34,-326.947C1053.09,-319.032 1107.64,-304.249 1153.16,-288 1155.02,-287.337 1156.92,-286.623 1158.83,-285.882"/>
<polygon fill="midnightblue" stroke="midnightblue" points="1160.32,-289.054 1168.26,-282.038 1157.68,-282.572 1160.32,-289.054"/>
</g>
<!-- Node3 -->
<g id="node3" class="node"><title>Node3</title>
<polygon fill="white" stroke="#bfbfbf" points="197.66,-129 197.66,-148 244.66,-148 244.66,-129 197.66,-129"/>
<text text-anchor="middle" x="221.16" y="-136" font-family="Helvetica,sans-Serif" font-size="10.00">cmath</text>
</g>
<!-- Node2&#45;&gt;Node3 -->
<g id="edge2" class="edge"><title>Node2&#45;&gt;Node3</title>
<path fill="none" stroke="midnightblue" d="M803.926,-204.701C727.214,-204.937 466.925,-201.919 259.16,-154 256.16,-153.308 253.08,-152.432 250.035,-151.453"/>
<polygon fill="midnightblue" stroke="midnightblue" points="251.156,-148.137 240.561,-148.082 248.809,-154.732 251.156,-148.137"/>
</g>
<!-- Node4 -->
<g id="node4" class="node"><title>Node4</title>
<polygon fill="white" stroke="#bfbfbf" points="230.16,-0.5 230.16,-19.5 292.16,-19.5 292.16,-0.5 230.16,-0.5"/>
<text text-anchor="middle" x="261.16" y="-7.5" font-family="Helvetica,sans-Serif" font-size="10.00">algorithm</text>
</g>
<!-- Node2&#45;&gt;Node4 -->
<g id="edge3" class="edge"><title>Node2&#45;&gt;Node4</title>
<path fill="none" stroke="midnightblue" d="M804.084,-203.705C705.96,-200.023 308.901,-183.551 188.16,-154 114.071,-135.867 72.2702,-150.597 30.1598,-87 -43.4748,24.2063 18.0801,-58.7771 219.72,-20.1745"/>
<polygon fill="midnightblue" stroke="midnightblue" points="220.616,-23.5649 229.739,-18.1787 219.248,-16.6998 220.616,-23.5649"/>
</g>
<!-- Node5 -->
<g id="node5" class="node"><title>Node5</title>
<polygon fill="white" stroke="#bfbfbf" points="560.66,-129 560.66,-148 631.66,-148 631.66,-129 560.66,-129"/>
<text text-anchor="middle" x="596.16" y="-136" font-family="Helvetica,sans-Serif" font-size="10.00">forward_list</text>
</g>
<!-- Node2&#45;&gt;Node5 -->
<g id="edge4" class="edge"><title>Node2&#45;&gt;Node5</title>
<path fill="none" stroke="midnightblue" d="M804.14,-198.834C769.38,-189.812 699.717,-171.417 641.16,-154 638.187,-153.116 635.112,-152.177 632.029,-151.219"/>
<polygon fill="midnightblue" stroke="midnightblue" points="632.862,-147.811 622.272,-148.135 630.753,-154.486 632.862,-147.811"/>
</g>
<!-- Node6 -->
<g id="node6" class="node"><title>Node6</title>
<polygon fill="white" stroke="#bfbfbf" points="971.66,-62 971.66,-81 1028.66,-81 1028.66,-62 971.66,-62"/>
<text text-anchor="middle" x="1000.16" y="-69" font-family="Helvetica,sans-Serif" font-size="10.00">memory</text>
</g>
<!-- Node2&#45;&gt;Node6 -->
<g id="edge5" class="edge"><title>Node2&#45;&gt;Node6</title>
<path fill="none" stroke="midnightblue" d="M806.37,-195.837C775.943,-181.347 723.533,-151.021 747.16,-123 777.68,-86.8022 911.255,-98.5995 957.16,-87 960.368,-86.1894 963.681,-85.2544 966.978,-84.2578"/>
<polygon fill="midnightblue" stroke="midnightblue" points="968.243,-87.5278 976.699,-81.1454 966.108,-80.8611 968.243,-87.5278"/>
</g>
<!-- Node7 -->
<g id="node7" class="node"><title>Node7</title>
<polygon fill="white" stroke="#bfbfbf" points="1046.66,-62 1046.66,-81 1139.66,-81 1139.66,-62 1046.66,-62"/>
<text text-anchor="middle" x="1093.16" y="-69" font-family="Helvetica,sans-Serif" font-size="10.00">unordered_map</text>
</g>
<!-- Node2&#45;&gt;Node7 -->
<g id="edge6" class="edge"><title>Node2&#45;&gt;Node7</title>
<path fill="none" stroke="midnightblue" d="M842.195,-195.943C870.613,-180.842 931.761,-148.638 984.16,-123 1011.41,-109.666 1042.89,-95.1789 1064.99,-85.1552"/>
<polygon fill="midnightblue" stroke="midnightblue" points="1066.47,-88.3263 1074.14,-81.0166 1063.59,-81.9482 1066.47,-88.3263"/>
</g>
<!-- Node8 -->
<g id="node8" class="node"><title>Node8</title>
<polygon fill="white" stroke="#bfbfbf" points="170.16,-0.5 170.16,-19.5 212.16,-19.5 212.16,-0.5 170.16,-0.5"/>
<text text-anchor="middle" x="191.16" y="-7.5" font-family="Helvetica,sans-Serif" font-size="10.00">utility</text>
</g>
<!-- Node2&#45;&gt;Node8 -->
<g id="edge7" class="edge"><title>Node2&#45;&gt;Node8</title>
<path fill="none" stroke="midnightblue" d="M804.027,-202.136C710.11,-191.788 344.994,-148.241 249.16,-87 226.712,-72.6554 209.614,-46.4242 199.981,-28.8496"/>
<polygon fill="midnightblue" stroke="midnightblue" points="202.914,-26.9061 195.187,-19.6575 196.708,-30.1427 202.914,-26.9061"/>
</g>
<!-- Node9 -->
<g id="node9" class="node"><title>Node9</title>
<polygon fill="white" stroke="#bfbfbf" points="919.66,-0.5 919.66,-19.5 966.66,-19.5 966.66,-0.5 919.66,-0.5"/>
<text text-anchor="middle" x="943.16" y="-7.5" font-family="Helvetica,sans-Serif" font-size="10.00">vector</text>
</g>
<!-- Node2&#45;&gt;Node9 -->
<g id="edge8" class="edge"><title>Node2&#45;&gt;Node9</title>
<path fill="none" stroke="midnightblue" d="M848.425,-198.263C876.918,-189.906 927.457,-173.807 968.16,-154 991.332,-142.724 993.589,-133.417 1017.16,-123 1072.39,-98.5923 1111.56,-135.02 1148.16,-87 1193.7,-27.2557 1046.3,-14.4641 977.068,-11.7351"/>
<polygon fill="midnightblue" stroke="midnightblue" points="976.783,-8.22334 966.669,-11.3779 976.543,-15.2192 976.783,-8.22334"/>
</g>
<!-- Node10 -->
<g id="node10" class="node"><title>Node10</title>
<polygon fill="white" stroke="#bfbfbf" points="1146.16,-129 1146.16,-148 1286.16,-148 1286.16,-129 1146.16,-129"/>
<text text-anchor="middle" x="1216.16" y="-136" font-family="Helvetica,sans-Serif" font-size="10.00">boost/functional/hash.hpp</text>
</g>
<!-- Node2&#45;&gt;Node10 -->
<g id="edge9" class="edge"><title>Node2&#45;&gt;Node10</title>
<path fill="none" stroke="midnightblue" d="M848.438,-200.881C898.936,-192.666 1025.98,-171.926 1132.16,-154 1140.15,-152.651 1148.56,-151.217 1156.85,-149.794"/>
<polygon fill="midnightblue" stroke="midnightblue" points="1157.6,-153.216 1166.87,-148.071 1156.42,-146.317 1157.6,-153.216"/>
</g>
<!-- Node11 -->
<g id="node11" class="node"><title>Node11</title>
<polygon fill="white" stroke="#bfbfbf" points="1345.16,-62 1345.16,-81 1473.16,-81 1473.16,-62 1345.16,-62"/>
<text text-anchor="middle" x="1409.16" y="-69" font-family="Helvetica,sans-Serif" font-size="10.00">boost/noncopyable.hpp</text>
</g>
<!-- Node2&#45;&gt;Node11 -->
<g id="edge10" class="edge"><title>Node2&#45;&gt;Node11</title>
<path fill="none" stroke="midnightblue" d="M848.513,-204.073C896.607,-202.378 1012.56,-194.097 1099.16,-154 1118.94,-144.843 1117.38,-132.164 1137.16,-123 1139.61,-121.865 1272.97,-97.3804 1352.02,-82.9282"/>
<polygon fill="midnightblue" stroke="midnightblue" points="1353.12,-86.2863 1362.32,-81.0453 1351.86,-79.4003 1353.12,-86.2863"/>
</g>
<!-- Node12 -->
<g id="node12" class="node"><title>Node12</title>
<polygon fill="white" stroke="#bfbfbf" points="756.66,-123.5 756.66,-153.5 893.66,-153.5 893.66,-123.5 756.66,-123.5"/>
<text text-anchor="start" x="764.66" y="-141.5" font-family="Helvetica,sans-Serif" font-size="10.00">boost/smart_ptr/intrusive</text>
<text text-anchor="middle" x="825.16" y="-130.5" font-family="Helvetica,sans-Serif" font-size="10.00">_ptr.hpp</text>
</g>
<!-- Node2&#45;&gt;Node12 -->
<g id="edge11" class="edge"><title>Node2&#45;&gt;Node12</title>
<path fill="none" stroke="midnightblue" d="M826.025,-195.734C825.899,-187.541 825.705,-174.923 825.532,-163.714"/>
<polygon fill="midnightblue" stroke="midnightblue" points="829.03,-163.534 825.377,-153.589 822.031,-163.642 829.03,-163.534"/>
</g>
<!-- Node13 -->
<g id="node13" class="node"><title>Node13</title>
<g id="a_node13"><a xlink:href="pdag_8h.xhtml" target="_top" xlink:title="Classes and facilities to represent fault trees as PDAGs with event and gate indices instead of ID na...">
<polygon fill="white" stroke="black" points="650.16,-129 650.16,-148 700.16,-148 700.16,-129 650.16,-129"/>
<text text-anchor="middle" x="675.16" y="-136" font-family="Helvetica,sans-Serif" font-size="10.00">pdag.h</text>
</a>
</g>
</g>
<!-- Node2&#45;&gt;Node13 -->
<g id="edge12" class="edge"><title>Node2&#45;&gt;Node13</title>
<path fill="none" stroke="midnightblue" d="M806.108,-195.869C780.161,-184.699 734.739,-165.147 704.803,-152.26"/>
<polygon fill="midnightblue" stroke="midnightblue" points="705.863,-148.906 695.294,-148.167 703.096,-155.336 705.863,-148.906"/>
</g>
<!-- Node25 -->
<g id="node25" class="node"><title>Node25</title>
<g id="a_node25"><a xlink:href="settings_8h.xhtml" target="_top" xlink:title="Builder for settings. ">
<polygon fill="white" stroke="black" points="1026.16,-129 1026.16,-148 1090.16,-148 1090.16,-129 1026.16,-129"/>
<text text-anchor="middle" x="1058.16" y="-136" font-family="Helvetica,sans-Serif" font-size="10.00">settings.h</text>
</a>
</g>
</g>
<!-- Node2&#45;&gt;Node25 -->
<g id="edge35" class="edge"><title>Node2&#45;&gt;Node25</title>
<path fill="none" stroke="midnightblue" d="M848.287,-198.8C883.221,-189.733 953.24,-171.277 1012.16,-154 1015.29,-153.081 1018.54,-152.106 1021.79,-151.112"/>
<polygon fill="midnightblue" stroke="midnightblue" points="1022.94,-154.42 1031.46,-148.116 1020.87,-147.734 1022.94,-154.42"/>
</g>
<!-- Node13&#45;&gt;Node4 -->
<g id="edge15" class="edge"><title>Node13&#45;&gt;Node4</title>
<path fill="none" stroke="midnightblue" d="M657.341,-128.921C651.935,-126.648 645.904,-124.431 640.16,-123 558.711,-102.713 321.828,-147.991 264.16,-87 249.946,-71.9667 252.007,-46.867 255.746,-29.6539"/>
<polygon fill="midnightblue" stroke="midnightblue" points="259.213,-30.2209 258.291,-19.6663 252.43,-28.4924 259.213,-30.2209"/>
</g>
<!-- Node13&#45;&gt;Node6 -->
<g id="edge17" class="edge"><title>Node13&#45;&gt;Node6</title>
<path fill="none" stroke="midnightblue" d="M695.953,-128.855C701.767,-126.69 708.143,-124.546 714.16,-123 819.903,-95.8282 851.011,-112.544 957.16,-87 960.556,-86.1826 964.066,-85.2134 967.549,-84.1693"/>
<polygon fill="midnightblue" stroke="midnightblue" points="968.713,-87.4718 977.172,-81.0932 966.581,-80.8042 968.713,-87.4718"/>
</g>
<!-- Node13&#45;&gt;Node7 -->
<g id="edge18" class="edge"><title>Node13&#45;&gt;Node7</title>
<path fill="none" stroke="midnightblue" d="M700.399,-131.933C714.173,-129.018 731.553,-125.536 747.16,-123 875.356,-102.165 909.581,-111.329 1037.16,-87 1042.33,-86.0141 1047.73,-84.8242 1053.05,-83.5552"/>
<polygon fill="midnightblue" stroke="midnightblue" points="1054.24,-86.8653 1063.1,-81.05 1052.55,-80.0732 1054.24,-86.8653"/>
</g>
<!-- Node13&#45;&gt;Node8 -->
<g id="edge19" class="edge"><title>Node13&#45;&gt;Node8</title>
<path fill="none" stroke="midnightblue" d="M675.975,-128.964C677.063,-112.076 676.77,-74.442 655.16,-56 583.774,4.91937 332.134,-35.3868 222.201,-19.5951"/>
<polygon fill="midnightblue" stroke="midnightblue" points="222.769,-16.1416 212.329,-17.9473 221.617,-23.0461 222.769,-16.1416"/>
</g>
<!-- Node13&#45;&gt;Node9 -->
<g id="edge20" class="edge"><title>Node13&#45;&gt;Node9</title>
<path fill="none" stroke="midnightblue" d="M700.253,-131.512C711.781,-128.816 725.643,-125.651 738.16,-123 820.534,-105.554 863.041,-144.916 924.16,-87 939.708,-72.266 943.317,-46.8947 943.792,-29.552"/>
<polygon fill="midnightblue" stroke="midnightblue" points="947.291,-29.4909 943.745,-19.5072 940.291,-29.5234 947.291,-29.4909"/>
</g>
<!-- Node13&#45;&gt;Node11 -->
<g id="edge22" class="edge"><title>Node13&#45;&gt;Node11</title>
<path fill="none" stroke="midnightblue" d="M700.342,-131.548C714.1,-128.52 731.483,-125.054 747.16,-123 1004.13,-89.3387 1071.88,-118.164 1329.16,-87 1338.32,-85.8906 1348.02,-84.4026 1357.38,-82.8015"/>
<polygon fill="midnightblue" stroke="midnightblue" points="1358.13,-86.223 1367.37,-81.0324 1356.91,-79.3303 1358.13,-86.223"/>
</g>
<!-- Node14 -->
<g id="node14" class="node"><title>Node14</title>
<polygon fill="white" stroke="#bfbfbf" points="1271.66,-62 1271.66,-81 1320.66,-81 1320.66,-62 1271.66,-62"/>
<text text-anchor="middle" x="1296.16" y="-69" font-family="Helvetica,sans-Serif" font-size="10.00">cstdint</text>
</g>
<!-- Node13&#45;&gt;Node14 -->
<g id="edge13" class="edge"><title>Node13&#45;&gt;Node14</title>
<path fill="none" stroke="midnightblue" d="M700.351,-131.61C714.111,-128.599 731.493,-125.131 747.16,-123 968.804,-92.8587 1029.31,-128.238 1249.16,-87 1253.41,-86.203 1257.82,-85.1542 1262.15,-83.9843"/>
<polygon fill="midnightblue" stroke="midnightblue" points="1263.41,-87.2615 1272.03,-81.0964 1261.45,-80.5427 1263.41,-87.2615"/>
</g>
<!-- Node15 -->
<g id="node15" class="node"><title>Node15</title>
<polygon fill="white" stroke="#bfbfbf" points="273.66,-62 273.66,-81 320.66,-81 320.66,-62 273.66,-62"/>
<text text-anchor="middle" x="297.16" y="-69" font-family="Helvetica,sans-Serif" font-size="10.00">cstdlib</text>
</g>
<!-- Node13&#45;&gt;Node15 -->
<g id="edge14" class="edge"><title>Node13&#45;&gt;Node15</title>
<path fill="none" stroke="midnightblue" d="M657.323,-128.994C651.916,-126.723 645.889,-124.488 640.16,-123 505.913,-88.1219 464.029,-123.302 330.16,-87 327.867,-86.3781 325.528,-85.6218 323.207,-84.7845"/>
<polygon fill="midnightblue" stroke="midnightblue" points="324.517,-81.539 313.935,-81.0243 321.887,-88.0259 324.517,-81.539"/>
</g>
<!-- Node16 -->
<g id="node16" class="node"><title>Node16</title>
<polygon fill="white" stroke="#bfbfbf" points="339.16,-62 339.16,-81 385.16,-81 385.16,-62 339.16,-62"/>
<text text-anchor="middle" x="362.16" y="-69" font-family="Helvetica,sans-Serif" font-size="10.00">iosfwd</text>
</g>
<!-- Node13&#45;&gt;Node16 -->
<g id="edge16" class="edge"><title>Node13&#45;&gt;Node16</title>
<path fill="none" stroke="midnightblue" d="M656.933,-128.95C651.619,-126.733 645.74,-124.538 640.16,-123 533.637,-93.6295 500.189,-118.108 394.16,-87 392.228,-86.4334 390.263,-85.7719 388.305,-85.0494"/>
<polygon fill="midnightblue" stroke="midnightblue" points="389.339,-81.689 378.762,-81.0856 386.654,-88.1536 389.339,-81.689"/>
</g>
<!-- Node17 -->
<g id="node17" class="node"><title>Node17</title>
<polygon fill="white" stroke="#bfbfbf" points="403.16,-56.5 403.16,-86.5 513.16,-86.5 513.16,-56.5 403.16,-56.5"/>
<text text-anchor="start" x="411.16" y="-74.5" font-family="Helvetica,sans-Serif" font-size="10.00">boost/container/flat</text>
<text text-anchor="middle" x="458.16" y="-63.5" font-family="Helvetica,sans-Serif" font-size="10.00">_set.hpp</text>
</g>
<!-- Node13&#45;&gt;Node17 -->
<g id="edge21" class="edge"><title>Node13&#45;&gt;Node17</title>
<path fill="none" stroke="midnightblue" d="M655.7,-128.944C650.683,-126.875 645.259,-124.756 640.16,-123 601.924,-109.83 558.29,-97.6295 523.333,-88.5206"/>
<polygon fill="midnightblue" stroke="midnightblue" points="523.805,-85.0278 513.248,-85.9155 522.055,-91.8053 523.805,-85.0278"/>
</g>
<!-- Node18 -->
<g id="node18" class="node"><title>Node18</title>
<polygon fill="white" stroke="#bfbfbf" points="531.66,-56.5 531.66,-86.5 646.66,-86.5 646.66,-56.5 531.66,-56.5"/>
<text text-anchor="start" x="539.66" y="-74.5" font-family="Helvetica,sans-Serif" font-size="10.00">boost/range/adaptor</text>
<text text-anchor="middle" x="589.16" y="-63.5" font-family="Helvetica,sans-Serif" font-size="10.00">/transformed.hpp</text>
</g>
<!-- Node13&#45;&gt;Node18 -->
<g id="edge23" class="edge"><title>Node13&#45;&gt;Node18</title>
<path fill="none" stroke="midnightblue" d="M663.561,-128.734C651.38,-119.527 631.806,-104.733 615.792,-92.6293"/>
<polygon fill="midnightblue" stroke="midnightblue" points="617.889,-89.8265 607.801,-86.589 613.668,-95.4109 617.889,-89.8265"/>
</g>
<!-- Node13&#45;&gt;Node19 -->
<g id="edge24" class="edge"><title>Node13&#45;&gt;Node19</title>
<path fill="none" stroke="midnightblue" d="M657.348,-128.893C651.942,-126.619 645.909,-124.409 640.16,-123 462.921,-79.5748 412.815,-104.334 231.16,-87 204.785,-84.4832 175.655,-81.5187 150.753,-78.9281"/>
<polygon fill="midnightblue" stroke="midnightblue" points="151.028,-75.4379 140.719,-77.8808 150.301,-82.4001 151.028,-75.4379"/>
</g>
<!-- Node20 -->
<g id="node20" class="node"><title>Node20</title>
<g id="a_node20"><a xlink:href="index__map_8h.xhtml" target="_top" xlink:title="Non&#45;zero based Index&#45;&gt;Value map adapter on sequential containers. ">
<polygon fill="white" stroke="black" points="819.16,-62 819.16,-81 915.16,-81 915.16,-62 819.16,-62"/>
<text text-anchor="middle" x="867.16" y="-69" font-family="Helvetica,sans-Serif" font-size="10.00">ext/index_map.h</text>
</a>
</g>
</g>
<!-- Node13&#45;&gt;Node20 -->
<g id="edge26" class="edge"><title>Node13&#45;&gt;Node20</title>
<path fill="none" stroke="midnightblue" d="M697.793,-128.923C703.146,-126.94 708.843,-124.865 714.16,-123 753.816,-109.089 799.622,-94.1126 830.702,-84.1127"/>
<polygon fill="midnightblue" stroke="midnightblue" points="831.796,-87.4372 840.248,-81.0485 829.657,-80.7721 831.796,-87.4372"/>
</g>
<!-- Node21 -->
<g id="node21" class="node"><title>Node21</title>
<g id="a_node21"><a xlink:href="linear__map_8h.xhtml" target="_top" xlink:title="Implementation of a vector&#45;based map for a small number of entries. ">
<polygon fill="white" stroke="black" points="703.66,-62 703.66,-81 800.66,-81 800.66,-62 703.66,-62"/>
<text text-anchor="middle" x="752.16" y="-69" font-family="Helvetica,sans-Serif" font-size="10.00">ext/linear_map.h</text>
</a>
</g>
</g>
<!-- Node13&#45;&gt;Node21 -->
<g id="edge28" class="edge"><title>Node13&#45;&gt;Node21</title>
<path fill="none" stroke="midnightblue" d="M685.544,-128.734C698.013,-118.208 719.134,-100.379 734.251,-87.6174"/>
<polygon fill="midnightblue" stroke="midnightblue" points="736.556,-90.2524 741.94,-81.1273 732.041,-84.9034 736.556,-90.2524"/>
</g>
<!-- Node19&#45;&gt;Node8 -->
<g id="edge25" class="edge"><title>Node19&#45;&gt;Node8</title>
<path fill="none" stroke="midnightblue" d="M104.631,-61.9751C121.131,-52.2548 148.338,-36.2266 167.841,-24.7372"/>
<polygon fill="midnightblue" stroke="midnightblue" points="169.876,-27.6005 176.716,-19.5091 166.323,-21.5693 169.876,-27.6005"/>
</g>
<!-- Node20&#45;&gt;Node9 -->
<g id="edge27" class="edge"><title>Node20&#45;&gt;Node9</title>
<path fill="none" stroke="midnightblue" d="M878.049,-61.9751C890.126,-52.5199 909.827,-37.0961 924.4,-25.6871"/>
<polygon fill="midnightblue" stroke="midnightblue" points="926.575,-28.4295 932.291,-19.5091 922.259,-22.9177 926.575,-28.4295"/>
</g>
<!-- Node21&#45;&gt;Node4 -->
<g id="edge30" class="edge"><title>Node21&#45;&gt;Node4</title>
<path fill="none" stroke="midnightblue" d="M718.634,-61.9887C709.152,-59.7984 698.791,-57.6085 689.16,-56 548.216,-32.4603 378.983,-18.9768 302.396,-13.6621"/>
<polygon fill="midnightblue" stroke="midnightblue" points="302.432,-10.1565 292.217,-12.9662 301.955,-17.1402 302.432,-10.1565"/>
</g>
<!-- Node21&#45;&gt;Node8 -->
<g id="edge34" class="edge"><title>Node21&#45;&gt;Node8</title>
<path fill="none" stroke="midnightblue" d="M719.315,-61.9636C709.657,-59.7193 699.034,-57.5075 689.16,-56 486.157,-25.0085 428.056,-57.1558 222.24,-19.7956"/>
<polygon fill="midnightblue" stroke="midnightblue" points="222.796,-16.3392 212.326,-17.9635 221.524,-23.2226 222.796,-16.3392"/>
</g>
<!-- Node21&#45;&gt;Node9 -->
<g id="edge33" class="edge"><title>Node21&#45;&gt;Node9</title>
<path fill="none" stroke="midnightblue" d="M779.525,-61.9751C813.846,-51.2837 872.662,-32.9613 909.644,-21.4406"/>
<polygon fill="midnightblue" stroke="midnightblue" points="910.951,-24.6995 919.458,-18.3836 908.869,-18.0162 910.951,-24.6995"/>
</g>
<!-- Node22 -->
<g id="node22" class="node"><title>Node22</title>
<polygon fill="white" stroke="#bfbfbf" points="643.16,-0.5 643.16,-19.5 695.16,-19.5 695.16,-0.5 643.16,-0.5"/>
<text text-anchor="middle" x="669.16" y="-7.5" font-family="Helvetica,sans-Serif" font-size="10.00">cassert</text>
</g>
<!-- Node21&#45;&gt;Node22 -->
<g id="edge29" class="edge"><title>Node21&#45;&gt;Node22</title>
<path fill="none" stroke="midnightblue" d="M740.268,-61.9751C726.955,-52.4315 705.16,-36.8073 689.203,-25.3683"/>
<polygon fill="midnightblue" stroke="midnightblue" points="691.196,-22.4908 681.03,-19.5091 687.118,-28.18 691.196,-22.4908"/>
</g>
<!-- Node23 -->
<g id="node23" class="node"><title>Node23</title>
<polygon fill="white" stroke="#bfbfbf" points="713.66,-0.5 713.66,-19.5 790.66,-19.5 790.66,-0.5 713.66,-0.5"/>
<text text-anchor="middle" x="752.16" y="-7.5" font-family="Helvetica,sans-Serif" font-size="10.00">initializer_list</text>
</g>
<!-- Node21&#45;&gt;Node23 -->
<g id="edge31" class="edge"><title>Node21&#45;&gt;Node23</title>
<path fill="none" stroke="midnightblue" d="M752.16,-61.9751C752.16,-53.5803 752.16,-40.4806 752.16,-29.6631"/>
<polygon fill="midnightblue" stroke="midnightblue" points="755.66,-29.5091 752.16,-19.5091 748.66,-29.5091 755.66,-29.5091"/>
</g>
<!-- Node24 -->
<g id="node24" class="node"><title>Node24</title>
<polygon fill="white" stroke="#bfbfbf" points="809.16,-0.5 809.16,-19.5 873.16,-19.5 873.16,-0.5 809.16,-0.5"/>
<text text-anchor="middle" x="841.16" y="-7.5" font-family="Helvetica,sans-Serif" font-size="10.00">stdexcept</text>
</g>
<!-- Node21&#45;&gt;Node24 -->
<g id="edge32" class="edge"><title>Node21&#45;&gt;Node24</title>
<path fill="none" stroke="midnightblue" d="M764.911,-61.9751C779.187,-52.4315 802.557,-36.8073 819.668,-25.3683"/>
<polygon fill="midnightblue" stroke="midnightblue" points="822.064,-27.9766 828.432,-19.5091 818.173,-22.1572 822.064,-27.9766"/>
</g>
<!-- Node25&#45;&gt;Node14 -->
<g id="edge36" class="edge"><title>Node25&#45;&gt;Node14</title>
<path fill="none" stroke="midnightblue" d="M1084.35,-128.936C1090.8,-126.911 1097.71,-124.815 1104.16,-123 1168.08,-105.01 1185.19,-104.794 1249.16,-87 1253.23,-85.8673 1257.49,-84.6304 1261.7,-83.3721"/>
<polygon fill="midnightblue" stroke="midnightblue" points="1262.81,-86.6941 1271.36,-80.436 1260.77,-79.9969 1262.81,-86.6941"/>
</g>
<!-- Node26 -->
<g id="node26" class="node"><title>Node26</title>
<polygon fill="white" stroke="#bfbfbf" points="1196.16,-62 1196.16,-81 1240.16,-81 1240.16,-62 1196.16,-62"/>
<text text-anchor="middle" x="1218.16" y="-69" font-family="Helvetica,sans-Serif" font-size="10.00">string</text>
</g>
<!-- Node25&#45;&gt;Node26 -->
<g id="edge37" class="edge"><title>Node25&#45;&gt;Node26</title>
<path fill="none" stroke="midnightblue" d="M1079.41,-128.869C1107.1,-117.619 1155.72,-97.8673 1187.43,-84.9853"/>
<polygon fill="midnightblue" stroke="midnightblue" points="1189.13,-88.0701 1197.08,-81.0637 1186.5,-81.5849 1189.13,-88.0701"/>
</g>
<!-- Node29&#45;&gt;Node11 -->
<g id="edge45" class="edge"><title>Node29&#45;&gt;Node11</title>
<path fill="none" stroke="midnightblue" d="M1553.12,-128.869C1524.26,-117.571 1473.51,-97.6961 1440.62,-84.8183"/>
<polygon fill="midnightblue" stroke="midnightblue" points="1441.62,-81.4508 1431.03,-81.0637 1439.07,-87.9689 1441.62,-81.4508"/>
</g>
<!-- Node29&#45;&gt;Node14 -->
<g id="edge42" class="edge"><title>Node29&#45;&gt;Node14</title>
<path fill="none" stroke="midnightblue" d="M1547.62,-132.97C1502.82,-125.316 1411.6,-108.531 1336.16,-87 1333.36,-86.2018 1330.48,-85.3061 1327.6,-84.3618"/>
<polygon fill="midnightblue" stroke="midnightblue" points="1328.58,-80.9962 1317.99,-81.035 1326.29,-87.6117 1328.58,-80.9962"/>
</g>
<!-- Node30 -->
<g id="node30" class="node"><title>Node30</title>
<polygon fill="white" stroke="#bfbfbf" points="1660.16,-62 1660.16,-81 1710.16,-81 1710.16,-62 1660.16,-62"/>
<text text-anchor="middle" x="1685.16" y="-69" font-family="Helvetica,sans-Serif" font-size="10.00">chrono</text>
</g>
<!-- Node29&#45;&gt;Node30 -->
<g id="edge43" class="edge"><title>Node29&#45;&gt;Node30</title>
<path fill="none" stroke="midnightblue" d="M1589.99,-128.734C1608.47,-117.818 1640.23,-99.0487 1661.94,-86.2209"/>
<polygon fill="midnightblue" stroke="midnightblue" points="1663.73,-89.2279 1670.56,-81.1273 1660.17,-83.2014 1663.73,-89.2279"/>
</g>
<!-- Node31 -->
<g id="node31" class="node"><title>Node31</title>
<polygon fill="white" stroke="#bfbfbf" points="1728.16,-62 1728.16,-81 1784.16,-81 1784.16,-62 1728.16,-62"/>
<text text-anchor="middle" x="1756.16" y="-69" font-family="Helvetica,sans-Serif" font-size="10.00">sstream</text>
</g>
<!-- Node29&#45;&gt;Node31 -->
<g id="edge44" class="edge"><title>Node29&#45;&gt;Node31</title>
<path fill="none" stroke="midnightblue" d="M1600.49,-128.927C1629.33,-119.094 1677.81,-102.349 1719.16,-87 1721.05,-86.2978 1722.99,-85.5668 1724.95,-84.8227"/>
<polygon fill="midnightblue" stroke="midnightblue" points="1726.62,-87.9309 1734.69,-81.0661 1724.1,-81.4001 1726.62,-87.9309"/>
</g>
<!-- Node32 -->
<g id="node32" class="node"><title>Node32</title>
<polygon fill="white" stroke="#bfbfbf" points="1532.16,-56.5 1532.16,-86.5 1642.16,-86.5 1642.16,-56.5 1532.16,-56.5"/>
<text text-anchor="start" x="1540.16" y="-74.5" font-family="Helvetica,sans-Serif" font-size="10.00">boost/preprocessor</text>
<text text-anchor="middle" x="1587.16" y="-63.5" font-family="Helvetica,sans-Serif" font-size="10.00">/cat.hpp</text>
</g>
<!-- Node29&#45;&gt;Node32 -->
<g id="edge46" class="edge"><title>Node29&#45;&gt;Node32</title>
<path fill="none" stroke="midnightblue" d="M1576.78,-128.734C1578.29,-120.541 1580.62,-107.923 1582.69,-96.7136"/>
<polygon fill="midnightblue" stroke="midnightblue" points="1586.19,-97.0583 1584.56,-86.589 1579.3,-95.7874 1586.19,-97.0583"/>
</g>
<!-- Node33&#45;&gt;Node2 -->
<g id="edge58" class="edge"><title>Node33&#45;&gt;Node2</title>
<path fill="none" stroke="midnightblue" d="M1169.47,-262.966C1164.3,-260.749 1158.59,-258.551 1153.16,-257 1097.99,-241.246 929.837,-219.332 858.598,-210.462"/>
<polygon fill="midnightblue" stroke="midnightblue" points="858.776,-206.957 848.422,-209.201 857.916,-213.904 858.776,-206.957"/>
</g>
<!-- Node33&#45;&gt;Node6 -->
<g id="edge51" class="edge"><title>Node33&#45;&gt;Node6</title>
<path fill="none" stroke="midnightblue" d="M1171.75,-262.859C1133.8,-241.279 1037.44,-184.568 1017.16,-154 1004.64,-135.13 1001.08,-108.83 1000.2,-91.2625"/>
<polygon fill="midnightblue" stroke="midnightblue" points="1003.69,-91.053 999.939,-81.1454 996.695,-91.2313 1003.69,-91.053"/>
</g>
<!-- Node33&#45;&gt;Node7 -->
<g id="edge52" class="edge"><title>Node33&#45;&gt;Node7</title>
<path fill="none" stroke="midnightblue" d="M1182.21,-262.896C1173.71,-246.859 1158.77,-212.031 1175.16,-190 1208.4,-145.327 1261.92,-198.673 1295.16,-154 1303.38,-142.946 1303.64,-133.86 1295.16,-123 1286.06,-111.341 1206.02,-93.9479 1149.48,-82.9184"/>
<polygon fill="midnightblue" stroke="midnightblue" points="1150.05,-79.4642 1139.57,-81.0032 1148.72,-86.3371 1150.05,-79.4642"/>
</g>
<!-- Node33&#45;&gt;Node8 -->
<g id="edge53" class="edge"><title>Node33&#45;&gt;Node8</title>
<path fill="none" stroke="midnightblue" d="M1169.87,-262.931C1164.62,-260.657 1158.75,-258.438 1153.16,-257 998.284,-217.178 954.191,-237.772 795.16,-221 525.241,-192.533 369.246,-356.174 188.16,-154 157.321,-119.57 172.915,-59.6059 183.722,-29.443"/>
<polygon fill="midnightblue" stroke="midnightblue" points="187.113,-30.3723 187.392,-19.7811 180.569,-27.8865 187.113,-30.3723"/>
</g>
<!-- Node33&#45;&gt;Node9 -->
<g id="edge54" class="edge"><title>Node33&#45;&gt;Node9</title>
<path fill="none" stroke="midnightblue" d="M1212.06,-269.068C1280,-262.182 1464.7,-241.704 1482.16,-221 1529.44,-164.941 1531.81,-109.969 1482.16,-56 1447.94,-18.8031 1090.02,-12.3437 977.097,-11.23"/>
<polygon fill="midnightblue" stroke="midnightblue" points="976.984,-7.72894 966.952,-11.1381 976.92,-14.7287 976.984,-7.72894"/>
</g>
<!-- Node33&#45;&gt;Node10 -->
<g id="edge55" class="edge"><title>Node33&#45;&gt;Node10</title>
<path fill="none" stroke="midnightblue" d="M1174.05,-262.89C1161.88,-254.039 1144.57,-239.028 1137.16,-221 1131.92,-208.258 1130.54,-202.084 1137.16,-190 1146.64,-172.694 1164.85,-160.455 1181.4,-152.364"/>
<polygon fill="midnightblue" stroke="midnightblue" points="1183.21,-155.387 1190.88,-148.073 1180.32,-149.01 1183.21,-155.387"/>
</g>
<!-- Node33&#45;&gt;Node11 -->
<g id="edge57" class="edge"><title>Node33&#45;&gt;Node11</title>
<path fill="none" stroke="midnightblue" d="M1211.76,-270.837C1273.13,-268.614 1430.31,-259.227 1462.16,-221 1495.49,-180.993 1450.02,-118.449 1424.46,-88.9498"/>
<polygon fill="midnightblue" stroke="midnightblue" points="1426.84,-86.359 1417.57,-81.2335 1421.62,-91.0227 1426.84,-86.359"/>
</g>
<!-- Node33&#45;&gt;Node14 -->
<g id="edge48" class="edge"><title>Node33&#45;&gt;Node14</title>
<path fill="none" stroke="midnightblue" d="M1186.87,-262.627C1186.82,-246.142 1189.11,-210.597 1208.16,-190 1241.65,-153.781 1284.49,-194.144 1313.16,-154 1326.77,-134.946 1316.35,-107.371 1306.86,-89.6887"/>
<polygon fill="midnightblue" stroke="midnightblue" points="1309.87,-87.9098 1301.84,-81.0002 1303.81,-91.4103 1309.87,-87.9098"/>
</g>
<!-- Node34 -->
<g id="node34" class="node"><title>Node34</title>
<polygon fill="white" stroke="#bfbfbf" points="1217.66,-196 1217.66,-215 1258.66,-215 1258.66,-196 1217.66,-196"/>
<text text-anchor="middle" x="1238.16" y="-203" font-family="Helvetica,sans-Serif" font-size="10.00">array</text>
</g>
<!-- Node33&#45;&gt;Node34 -->
<g id="edge49" class="edge"><title>Node33&#45;&gt;Node34</title>
<path fill="none" stroke="midnightblue" d="M1194.04,-262.734C1201.99,-252.598 1215.26,-235.69 1225.17,-223.056"/>
<polygon fill="midnightblue" stroke="midnightblue" points="1227.97,-225.155 1231.39,-215.127 1222.46,-220.834 1227.97,-225.155"/>
</g>
<!-- Node35 -->
<g id="node35" class="node"><title>Node35</title>
<polygon fill="white" stroke="#bfbfbf" points="1277.16,-196 1277.16,-215 1315.16,-215 1315.16,-196 1277.16,-196"/>
<text text-anchor="middle" x="1296.16" y="-203" font-family="Helvetica,sans-Serif" font-size="10.00">map</text>
</g>
<!-- Node33&#45;&gt;Node35 -->
<g id="edge50" class="edge"><title>Node33&#45;&gt;Node35</title>
<path fill="none" stroke="midnightblue" d="M1201.86,-262.734C1220.08,-251.867 1251.36,-233.216 1272.86,-220.393"/>
<polygon fill="midnightblue" stroke="midnightblue" points="1274.9,-223.255 1281.69,-215.127 1271.31,-217.243 1274.9,-223.255"/>
</g>
<!-- Node36 -->
<g id="node36" class="node"><title>Node36</title>
<polygon fill="white" stroke="#bfbfbf" points="1333.16,-190.5 1333.16,-220.5 1453.16,-220.5 1453.16,-190.5 1333.16,-190.5"/>
<text text-anchor="start" x="1341.16" y="-208.5" font-family="Helvetica,sans-Serif" font-size="10.00">boost/iterator/iterator</text>
<text text-anchor="middle" x="1393.16" y="-197.5" font-family="Helvetica,sans-Serif" font-size="10.00">_facade.hpp</text>
</g>
<!-- Node33&#45;&gt;Node36 -->
<g id="edge56" class="edge"><title>Node33&#45;&gt;Node36</title>
<path fill="none" stroke="midnightblue" d="M1212.01,-263.659C1243.31,-253.781 1297.99,-236.53 1339.1,-223.557"/>
<polygon fill="midnightblue" stroke="midnightblue" points="1340.23,-226.872 1348.71,-220.525 1338.12,-220.197 1340.23,-226.872"/>
</g>
</g>
</svg>
        <g id="navigator" transform="translate(0 0)" fill="#404254">
                <rect fill="#f2f5e9" fill-opacity="0.5" stroke="#606060" stroke-width=".5" x="0" y="0" width="60" height="60"/>
                <use id="zoomplus" xlink:href="#zoomPlus" x="17" y="9" onmousedown="handleZoom(evt,'in')"/>
                <use id="zoomminus" xlink:href="#zoomMin" x="42" y="9" onmousedown="handleZoom(evt,'out')"/>
                <use id="reset" xlink:href="#resetDef" x="30" y="36" onmousedown="handleReset()"/>
                <g id="arrowUp" xlink:href="#dirArrow" transform="translate(30 24)" onmousedown="handlePan(0,-1)">
                  <use xlink:href="#rim" fill="#404040">
                        <set attributeName="fill" to="#808080" begin="arrowUp.mouseover" end="arrowUp.mouseout"/>
                  </use>
                  <path fill="none" stroke="white" stroke-width="1.5" d="M0,-3.0v7 M-2.5,-0.5L0,-3.0L2.5,-0.5"/>
                </g>
                <g id="arrowRight" xlink:href="#dirArrow" transform="rotate(90) translate(36 -43)" onmousedown="handlePan(1,0)">
                  <use xlink:href="#rim" fill="#404040">
                        <set attributeName="fill" to="#808080" begin="arrowRight.mouseover" end="arrowRight.mouseout"/>
                  </use>
                  <path fill="none" stroke="white" stroke-width="1.5" d="M0,-3.0v7 M-2.5,-0.5L0,-3.0L2.5,-0.5"/>
                </g>
                <g id="arrowDown" xlink:href="#dirArrow" transform="rotate(180) translate(-30 -48)" onmousedown="handlePan(0,1)">
                  <use xlink:href="#rim" fill="#404040">
                        <set attributeName="fill" to="#808080" begin="arrowDown.mouseover" end="arrowDown.mouseout"/>
                  </use>
                  <path fill="none" stroke="white" stroke-width="1.5" d="M0,-3.0v7 M-2.5,-0.5L0,-3.0L2.5,-0.5"/>
                </g>
                <g id="arrowLeft" xlink:href="#dirArrow" transform="rotate(270) translate(-36 17)" onmousedown="handlePan(-1,0)">
                  <use xlink:href="#rim" fill="#404040">
                        <set attributeName="fill" to="#808080" begin="arrowLeft.mouseover" end="arrowLeft.mouseout"/>
                  </use>
                  <path fill="none" stroke="white" stroke-width="1.5" d="M0,-3.0v7 M-2.5,-0.5L0,-3.0L2.5,-0.5"/>
                </g>
        </g>
        <svg viewBox="0 0 15 15" width="100%" height="30px" preserveAspectRatio="xMaxYMin meet">
         <g id="arrow_out" transform="scale(0.3 0.3)">
          <a xlink:href="bdd_8cc__incl_org.svg" target="_base">
           <rect id="button" ry="5" rx="5" y="6" x="6" height="38" width="38"
                fill="#f2f5e9" fill-opacity="0.5" stroke="#606060" stroke-width="1.0"/>
           <path id="arrow"
             d="M 11.500037,31.436501 C 11.940474,20.09759 22.043105,11.32322 32.158766,21.979434 L 37.068811,17.246167 C 37.068811,17.246167 37.088388,32 37.088388,32 L 22.160133,31.978069 C 22.160133,31.978069 26.997745,27.140456 26.997745,27.140456 C 18.528582,18.264221 13.291696,25.230495 11.500037,31.436501 z"
             style="fill:#404040;"/>
          </a>
         </g>
        </svg>
</svg>
