<?xml version="1.0" encoding="UTF-8" standalone="no"?>
<!DOCTYPE svg PUBLIC "-//W3C//DTD SVG 1.1//EN"
 "http://www.w3.org/Graphics/SVG/1.1/DTD/svg11.dtd">
<!-- Generated by graphviz version 2.38.0 (20140413.2041)
 -->
<!-- Title: boolean.h Pages: 1 -->
<svg width="768pt" height="218pt"
 viewBox="0.00 0.00 768.00 218.00" xmlns="http://www.w3.org/2000/svg" xmlns:xlink="http://www.w3.org/1999/xlink">
<g id="graph0" class="graph" transform="scale(1 1) rotate(0) translate(4 214)">
<title>boolean.h</title>
<polygon fill="white" stroke="none" points="-4,4 -4,-214 764,-214 764,4 -4,4"/>
<!-- Node1 -->
<g id="node1" class="node"><title>Node1</title>
<polygon fill="#bfbfbf" stroke="black" points="241.5,-190.5 241.5,-209.5 305.5,-209.5 305.5,-190.5 241.5,-190.5"/>
<text text-anchor="middle" x="273.5" y="-197.5" font-family="Helvetica,sans-Serif" font-size="10.00">boolean.h</text>
</g>
<!-- Node2 -->
<g id="node2" class="node"><title>Node2</title>
<polygon fill="white" stroke="#bfbfbf" points="194,-134.5 194,-153.5 257,-153.5 257,-134.5 194,-134.5"/>
<text text-anchor="middle" x="225.5" y="-141.5" font-family="Helvetica,sans-Serif" font-size="10.00">functional</text>
</g>
<!-- Node1&#45;&gt;Node2 -->
<g id="edge1" class="edge"><title>Node1&#45;&gt;Node2</title>
<path fill="none" stroke="midnightblue" d="M265.574,-190.083C258.654,-182.298 248.435,-170.801 240.048,-161.367"/>
<polygon fill="midnightblue" stroke="midnightblue" points="242.538,-158.9 233.279,-153.751 237.306,-163.55 242.538,-158.9"/>
</g>
<!-- Node3 -->
<g id="node3" class="node"><title>Node3</title>
<g id="a_node3"><a xlink:href="expression_8h.xhtml" target="_top" xlink:title="Provides the base class for all expressions and units for expression values. ">
<polygon fill="white" stroke="black" points="275,-134.5 275,-153.5 370,-153.5 370,-134.5 275,-134.5"/>
<text text-anchor="middle" x="322.5" y="-141.5" font-family="Helvetica,sans-Serif" font-size="10.00">src/expression.h</text>
</a>
</g>
</g>
<!-- Node1&#45;&gt;Node3 -->
<g id="edge2" class="edge"><title>Node1&#45;&gt;Node3</title>
<path fill="none" stroke="midnightblue" d="M281.591,-190.083C288.655,-182.298 299.088,-170.801 307.649,-161.367"/>
<polygon fill="midnightblue" stroke="midnightblue" points="310.431,-163.509 314.559,-153.751 305.247,-158.805 310.431,-163.509"/>
</g>
<!-- Node4 -->
<g id="node4" class="node"><title>Node4</title>
<polygon fill="white" stroke="#bfbfbf" points="37.5,-73 37.5,-92 99.5,-92 99.5,-73 37.5,-73"/>
<text text-anchor="middle" x="68.5" y="-80" font-family="Helvetica,sans-Serif" font-size="10.00">algorithm</text>
</g>
<!-- Node3&#45;&gt;Node4 -->
<g id="edge3" class="edge"><title>Node3&#45;&gt;Node4</title>
<path fill="none" stroke="midnightblue" d="M274.858,-134.966C231.179,-127.133 164.912,-114.07 108.5,-98 105.703,-97.2032 102.82,-96.3084 99.9435,-95.3648"/>
<polygon fill="midnightblue" stroke="midnightblue" points="100.92,-91.9991 90.325,-92.039 98.6322,-98.6147 100.92,-91.9991"/>
</g>
<!-- Node5 -->
<g id="node5" class="node"><title>Node5</title>
<polygon fill="white" stroke="#bfbfbf" points="117.5,-73 117.5,-92 173.5,-92 173.5,-73 117.5,-73"/>
<text text-anchor="middle" x="145.5" y="-80" font-family="Helvetica,sans-Serif" font-size="10.00">sstream</text>
</g>
<!-- Node3&#45;&gt;Node5 -->
<g id="edge4" class="edge"><title>Node3&#45;&gt;Node5</title>
<path fill="none" stroke="midnightblue" d="M296.592,-134.455C269.394,-125.463 225.401,-110.859 187.5,-98 185.071,-97.1759 182.565,-96.3213 180.042,-95.458"/>
<polygon fill="midnightblue" stroke="midnightblue" points="180.953,-92.0705 170.359,-92.1313 178.679,-98.6907 180.953,-92.0705"/>
</g>
<!-- Node6 -->
<g id="node6" class="node"><title>Node6</title>
<polygon fill="white" stroke="#bfbfbf" points="634.5,-6 634.5,-25 678.5,-25 678.5,-6 634.5,-6"/>
<text text-anchor="middle" x="656.5" y="-13" font-family="Helvetica,sans-Serif" font-size="10.00">string</text>
</g>
<!-- Node3&#45;&gt;Node6 -->
<g id="edge5" class="edge"><title>Node3&#45;&gt;Node6</title>
<path fill="none" stroke="midnightblue" d="M370.156,-142.789C449.203,-141.407 602.515,-134.013 640.5,-98 657.311,-82.0615 659.324,-54.0302 658.491,-35.3613"/>
<polygon fill="midnightblue" stroke="midnightblue" points="661.961,-34.8439 657.711,-25.1389 654.982,-35.3761 661.961,-34.8439"/>
</g>
<!-- Node7 -->
<g id="node7" class="node"><title>Node7</title>
<polygon fill="white" stroke="#bfbfbf" points="229.5,-73 229.5,-92 271.5,-92 271.5,-73 229.5,-73"/>
<text text-anchor="middle" x="250.5" y="-80" font-family="Helvetica,sans-Serif" font-size="10.00">utility</text>
</g>
<!-- Node3&#45;&gt;Node7 -->
<g id="edge6" class="edge"><title>Node3&#45;&gt;Node7</title>
<path fill="none" stroke="midnightblue" d="M312.184,-134.475C300.849,-125.108 282.427,-109.884 268.661,-98.5081"/>
<polygon fill="midnightblue" stroke="midnightblue" points="270.735,-95.6813 260.797,-92.0091 266.276,-101.077 270.735,-95.6813"/>
</g>
<!-- Node8 -->
<g id="node8" class="node"><title>Node8</title>
<polygon fill="white" stroke="#bfbfbf" points="0,-6 0,-25 47,-25 47,-6 0,-6"/>
<text text-anchor="middle" x="23.5" y="-13" font-family="Helvetica,sans-Serif" font-size="10.00">vector</text>
</g>
<!-- Node3&#45;&gt;Node8 -->
<g id="edge7" class="edge"><title>Node3&#45;&gt;Node8</title>
<path fill="none" stroke="midnightblue" d="M298.095,-134.366C276.839,-126.356 245.583,-113.375 220.5,-98 201.917,-86.6095 201.82,-77.09 182.5,-67 130.876,-40.0386 111.286,-50.7599 56.5,-31 54.8407,-30.4015 53.1467,-29.7591 51.4458,-29.0896"/>
<polygon fill="midnightblue" stroke="midnightblue" points="52.3985,-25.6948 41.8217,-25.0771 49.7048,-32.1558 52.3985,-25.6948"/>
</g>
<!-- Node9 -->
<g id="node9" class="node"><title>Node9</title>
<polygon fill="white" stroke="#bfbfbf" points="373.5,-67.5 373.5,-97.5 485.5,-97.5 485.5,-67.5 373.5,-67.5"/>
<text text-anchor="start" x="381.5" y="-85.5" font-family="Helvetica,sans-Serif" font-size="10.00">boost/icl/continuous</text>
<text text-anchor="middle" x="429.5" y="-74.5" font-family="Helvetica,sans-Serif" font-size="10.00">_interval.hpp</text>
</g>
<!-- Node3&#45;&gt;Node9 -->
<g id="edge8" class="edge"><title>Node3&#45;&gt;Node9</title>
<path fill="none" stroke="midnightblue" d="M337.83,-134.475C352.796,-126.153 376.077,-113.207 395.431,-102.445"/>
<polygon fill="midnightblue" stroke="midnightblue" points="397.244,-105.442 404.282,-97.523 393.842,-99.324 397.244,-105.442"/>
</g>
<!-- Node10 -->
<g id="node10" class="node"><title>Node10</title>
<polygon fill="white" stroke="#bfbfbf" points="503.5,-73 503.5,-92 631.5,-92 631.5,-73 503.5,-73"/>
<text text-anchor="middle" x="567.5" y="-80" font-family="Helvetica,sans-Serif" font-size="10.00">boost/noncopyable.hpp</text>
</g>
<!-- Node3&#45;&gt;Node10 -->
<g id="edge9" class="edge"><title>Node3&#45;&gt;Node10</title>
<path fill="none" stroke="midnightblue" d="M357.603,-134.475C400.993,-123.937 474.909,-105.986 522.447,-94.4415"/>
<polygon fill="midnightblue" stroke="midnightblue" points="523.571,-97.7703 532.463,-92.0091 521.919,-90.968 523.571,-97.7703"/>
</g>
<!-- Node11 -->
<g id="node11" class="node"><title>Node11</title>
<g id="a_node11"><a xlink:href="element_8h.xhtml" target="_top" xlink:title="Helper classes, structs, and properties common to all other classes. ">
<polygon fill="white" stroke="black" points="290,-73 290,-92 355,-92 355,-73 290,-73"/>
<text text-anchor="middle" x="322.5" y="-80" font-family="Helvetica,sans-Serif" font-size="10.00">element.h</text>
</a>
</g>
</g>
<!-- Node3&#45;&gt;Node11 -->
<g id="edge10" class="edge"><title>Node3&#45;&gt;Node11</title>
<path fill="none" stroke="midnightblue" d="M322.5,-134.475C322.5,-126.08 322.5,-112.981 322.5,-102.163"/>
<polygon fill="midnightblue" stroke="midnightblue" points="326,-102.009 322.5,-92.0091 319,-102.009 326,-102.009"/>
</g>
<!-- Node16 -->
<g id="node16" class="node"><title>Node16</title>
<g id="a_node16"><a xlink:href="error_8h.xhtml" target="_top" xlink:title="Exceptions for SCRAM. ">
<polygon fill="white" stroke="black" points="687.5,-73 687.5,-92 735.5,-92 735.5,-73 687.5,-73"/>
<text text-anchor="middle" x="711.5" y="-80" font-family="Helvetica,sans-Serif" font-size="10.00">error.h</text>
</a>
</g>
</g>
<!-- Node3&#45;&gt;Node16 -->
<g id="edge17" class="edge"><title>Node3&#45;&gt;Node16</title>
<path fill="none" stroke="midnightblue" d="M370.285,-140.468C438.452,-136.049 567.138,-124.708 673.5,-98 676.325,-97.2906 679.226,-96.4334 682.106,-95.4943"/>
<polygon fill="midnightblue" stroke="midnightblue" points="683.427,-98.739 691.67,-92.0826 681.076,-92.1459 683.427,-98.739"/>
</g>
<!-- Node11&#45;&gt;Node6 -->
<g id="edge12" class="edge"><title>Node11&#45;&gt;Node6</title>
<path fill="none" stroke="midnightblue" d="M344.933,-72.8646C351.194,-70.6994 358.05,-68.5533 364.5,-67 475.775,-40.2005 508.798,-60.0787 619.5,-31 622.161,-30.3011 624.89,-29.4681 627.603,-28.5597"/>
<polygon fill="midnightblue" stroke="midnightblue" points="629.011,-31.7713 637.197,-25.0449 626.603,-25.1984 629.011,-31.7713"/>
</g>
<!-- Node11&#45;&gt;Node8 -->
<g id="edge13" class="edge"><title>Node11&#45;&gt;Node8</title>
<path fill="none" stroke="midnightblue" d="M300.047,-72.946C293.786,-70.7811 286.934,-68.6148 280.5,-67 182.7,-42.4553 153.218,-59.512 56.5,-31 54.3541,-30.3674 52.164,-29.6287 49.9839,-28.8259"/>
<polygon fill="midnightblue" stroke="midnightblue" points="51.2396,-25.5582 40.6581,-25.026 48.5981,-32.0407 51.2396,-25.5582"/>
</g>
<!-- Node12 -->
<g id="node12" class="node"><title>Node12</title>
<polygon fill="white" stroke="#bfbfbf" points="562,-6 562,-25 611,-25 611,-6 562,-6"/>
<text text-anchor="middle" x="586.5" y="-13" font-family="Helvetica,sans-Serif" font-size="10.00">cstdint</text>
</g>
<!-- Node11&#45;&gt;Node12 -->
<g id="edge11" class="edge"><title>Node11&#45;&gt;Node12</title>
<path fill="none" stroke="midnightblue" d="M345.423,-72.9218C351.565,-70.8064 358.239,-68.6709 364.5,-67 446.697,-45.0624 471.13,-55.8285 552.5,-31 554.644,-30.3457 556.837,-29.5999 559.024,-28.7998"/>
<polygon fill="midnightblue" stroke="midnightblue" points="560.421,-32.011 568.416,-25.0595 557.831,-25.5077 560.421,-32.011"/>
</g>
<!-- Node13 -->
<g id="node13" class="node"><title>Node13</title>
<polygon fill="white" stroke="#bfbfbf" points="65.5,-6 65.5,-25 237.5,-25 237.5,-6 65.5,-6"/>
<text text-anchor="middle" x="151.5" y="-13" font-family="Helvetica,sans-Serif" font-size="10.00">boost/multi_index_container.hpp</text>
</g>
<!-- Node11&#45;&gt;Node13 -->
<g id="edge14" class="edge"><title>Node11&#45;&gt;Node13</title>
<path fill="none" stroke="midnightblue" d="M299.793,-72.8685C269.942,-61.5219 217.334,-41.5246 183.47,-28.6522"/>
<polygon fill="midnightblue" stroke="midnightblue" points="184.62,-25.3452 174.029,-25.0637 182.133,-31.8885 184.62,-25.3452"/>
</g>
<!-- Node14 -->
<g id="node14" class="node"><title>Node14</title>
<polygon fill="white" stroke="#bfbfbf" points="255.5,-0.5 255.5,-30.5 395.5,-30.5 395.5,-0.5 255.5,-0.5"/>
<text text-anchor="start" x="263.5" y="-18.5" font-family="Helvetica,sans-Serif" font-size="10.00">boost/multi_index/hashed</text>
<text text-anchor="middle" x="325.5" y="-7.5" font-family="Helvetica,sans-Serif" font-size="10.00">_index.hpp</text>
</g>
<!-- Node11&#45;&gt;Node14 -->
<g id="edge15" class="edge"><title>Node11&#45;&gt;Node14</title>
<path fill="none" stroke="midnightblue" d="M322.905,-72.7338C323.283,-64.5406 323.865,-51.9225 324.382,-40.7136"/>
<polygon fill="midnightblue" stroke="midnightblue" points="327.885,-40.7398 324.85,-30.589 320.892,-40.417 327.885,-40.7398"/>
</g>
<!-- Node15 -->
<g id="node15" class="node"><title>Node15</title>
<polygon fill="white" stroke="#bfbfbf" points="413.5,-0.5 413.5,-30.5 543.5,-30.5 543.5,-0.5 413.5,-0.5"/>
<text text-anchor="start" x="421.5" y="-18.5" font-family="Helvetica,sans-Serif" font-size="10.00">boost/multi_index/mem</text>
<text text-anchor="middle" x="478.5" y="-7.5" font-family="Helvetica,sans-Serif" font-size="10.00">_fun.hpp</text>
</g>
<!-- Node11&#45;&gt;Node15 -->
<g id="edge16" class="edge"><title>Node11&#45;&gt;Node15</title>
<path fill="none" stroke="midnightblue" d="M343.216,-72.8685C366.624,-63.115 405.373,-46.9696 435.415,-34.452"/>
<polygon fill="midnightblue" stroke="midnightblue" points="436.948,-37.6051 444.833,-30.5281 434.256,-31.1435 436.948,-37.6051"/>
</g>
<!-- Node16&#45;&gt;Node6 -->
<g id="edge19" class="edge"><title>Node16&#45;&gt;Node6</title>
<path fill="none" stroke="midnightblue" d="M704.082,-72.7338C695.506,-62.5979 681.199,-45.6899 670.509,-33.0556"/>
<polygon fill="midnightblue" stroke="midnightblue" points="672.931,-30.5004 663.8,-25.1273 667.588,-35.022 672.931,-30.5004"/>
</g>
<!-- Node17 -->
<g id="node17" class="node"><title>Node17</title>
<polygon fill="white" stroke="#bfbfbf" points="697,-6 697,-25 760,-25 760,-6 697,-6"/>
<text text-anchor="middle" x="728.5" y="-13" font-family="Helvetica,sans-Serif" font-size="10.00">exception</text>
</g>
<!-- Node16&#45;&gt;Node17 -->
<g id="edge18" class="edge"><title>Node16&#45;&gt;Node17</title>
<path fill="none" stroke="midnightblue" d="M713.793,-72.7338C716.316,-63.0852 720.445,-47.3001 723.686,-34.9063"/>
<polygon fill="midnightblue" stroke="midnightblue" points="727.099,-35.6875 726.244,-25.1273 720.327,-33.9163 727.099,-35.6875"/>
</g>
</g>
</svg>
