<?xml version="1.0" encoding="UTF-8" standalone="no"?>
<!DOCTYPE svg PUBLIC "-//W3C//DTD SVG 1.1//EN"
 "http://www.w3.org/Graphics/SVG/1.1/DTD/svg11.dtd">
<!-- Generated by graphviz version 2.38.0 (20140413.2041)
 -->
<!-- Title: ccf_group.cc Pages: 1 -->
<!--zoomable 330 -->
<svg id="main" version="1.1" xmlns="http://www.w3.org/2000/svg" xmlns:xlink="http://www.w3.org/1999/xlink" xml:space="preserve" onload="init(evt)">
<style type="text/css"><![CDATA[
.edge:hover path { stroke: red; }
.edge:hover polygon { stroke: red; fill: red; }
]]></style>
<script type="text/javascript"><![CDATA[
var edges = document.getElementsByTagName('g');
if (edges && edges.length) {
  for (var i=0;i<edges.length;i++) {
    if (edges[i].id.substr(0,4)=='edge') {
      edges[i].setAttribute('class','edge');
    }
  }
}
]]></script>
        <defs>
                <circle id="rim" cx="0" cy="0" r="7"/>
                <circle id="rim2" cx="0" cy="0" r="3.5"/>
                <g id="zoomPlus">
                        <use xlink:href="#rim" fill="#404040">
                                <set attributeName="fill" to="#808080" begin="zoomplus.mouseover" end="zoomplus.mouseout"/>
                        </use>
                        <path d="M-4,0h8M0,-4v8" fill="none" stroke="white" stroke-width="1.5" pointer-events="none"/>
                </g>
                <g id="zoomMin">
                        <use xlink:href="#rim" fill="#404040">
                                <set attributeName="fill" to="#808080" begin="zoomminus.mouseover" end="zoomminus.mouseout"/>
                        </use>
                        <path d="M-4,0h8" fill="none" stroke="white" stroke-width="1.5" pointer-events="none"/>
                </g>
                <g id="dirArrow">
                        <path fill="none" stroke="white" stroke-width="1.5" d="M0,-3.0v7 M-2.5,-0.5L0,-3.0L2.5,-0.5"/>
                </g>
               <g id="resetDef">
                       <use xlink:href="#rim2" fill="#404040">
                               <set attributeName="fill" to="#808080" begin="reset.mouseover" end="reset.mouseout"/>
                       </use>
               </g>
        </defs>

<script type="text/javascript">
var viewWidth = 1750;
var viewHeight = 330;
var sectionId = 'dynsection-0';
</script>
<script xlink:href="svgpan.js"/>
<svg id="graph" class="graph">
<g id="viewport">
<title>ccf_group.cc</title>
<polygon fill="white" stroke="none" points="-4,4 -4,-326 1746,-326 1746,4 -4,4"/>
<!-- Node1 -->
<g id="node1" class="node"><title>Node1</title>
<polygon fill="#bfbfbf" stroke="black" points="1090,-302.5 1090,-321.5 1167,-321.5 1167,-302.5 1090,-302.5"/>
<text text-anchor="middle" x="1128.5" y="-309.5" font-family="Helvetica,sans-Serif" font-size="10.00">ccf_group.cc</text>
</g>
<!-- Node2 -->
<g id="node2" class="node"><title>Node2</title>
<g id="a_node2"><a xlink:href="ccf__group_8h.xhtml" target="_top" xlink:title="Functional containers for basic events grouped by common cause failure. ">
<polygon fill="white" stroke="black" points="498.5,-246.5 498.5,-265.5 570.5,-265.5 570.5,-246.5 498.5,-246.5"/>
<text text-anchor="middle" x="534.5" y="-253.5" font-family="Helvetica,sans-Serif" font-size="10.00">ccf_group.h</text>
</a>
</g>
</g>
<!-- Node1&#45;&gt;Node2 -->
<g id="edge1" class="edge"><title>Node1&#45;&gt;Node2</title>
<path fill="none" stroke="midnightblue" d="M1089.98,-307.499C985.028,-297.957 694.271,-271.525 580.75,-261.205"/>
<polygon fill="midnightblue" stroke="midnightblue" points="580.924,-257.706 570.648,-260.286 580.29,-264.677 580.924,-257.706"/>
</g>
<!-- Node21 -->
<g id="node21" class="node"><title>Node21</title>
<g id="a_node21"><a xlink:href="error_8h.xhtml" target="_top" xlink:title="Exceptions for SCRAM. ">
<polygon fill="white" stroke="black" points="982.5,-73 982.5,-92 1030.5,-92 1030.5,-73 982.5,-73"/>
<text text-anchor="middle" x="1006.5" y="-80" font-family="Helvetica,sans-Serif" font-size="10.00">error.h</text>
</a>
</g>
</g>
<!-- Node1&#45;&gt;Node21 -->
<g id="edge38" class="edge"><title>Node1&#45;&gt;Node21</title>
<path fill="none" stroke="midnightblue" d="M1105.82,-302.416C1089.51,-295.113 1068.22,-283.072 1055.5,-266 1017.81,-215.421 1009.1,-137.875 1007.09,-102.398"/>
<polygon fill="midnightblue" stroke="midnightblue" points="1010.57,-101.915 1006.64,-92.079 1003.58,-102.223 1010.57,-101.915"/>
</g>
<!-- Node23 -->
<g id="node23" class="node"><title>Node23</title>
<polygon fill="white" stroke="#bfbfbf" points="1222,-190.5 1222,-209.5 1269,-209.5 1269,-190.5 1222,-190.5"/>
<text text-anchor="middle" x="1245.5" y="-197.5" font-family="Helvetica,sans-Serif" font-size="10.00">cmath</text>
</g>
<!-- Node1&#45;&gt;Node23 -->
<g id="edge37" class="edge"><title>Node1&#45;&gt;Node23</title>
<path fill="none" stroke="midnightblue" d="M1147.08,-302.349C1162.79,-294.415 1185.27,-281.554 1201.5,-266 1215.91,-252.192 1228.23,-232.91 1236.14,-218.935"/>
<polygon fill="midnightblue" stroke="midnightblue" points="1239.38,-220.309 1241.08,-209.852 1233.23,-216.962 1239.38,-220.309"/>
</g>
<!-- Node24 -->
<g id="node24" class="node"><title>Node24</title>
<g id="a_node24"><a xlink:href="constant_8h.xhtml" target="_top" xlink:title="Constant expressions that cannot have uncertainties. ">
<polygon fill="white" stroke="black" points="848.5,-190.5 848.5,-209.5 970.5,-209.5 970.5,-190.5 848.5,-190.5"/>
<text text-anchor="middle" x="909.5" y="-197.5" font-family="Helvetica,sans-Serif" font-size="10.00">expression/constant.h</text>
</a>
</g>
</g>
<!-- Node1&#45;&gt;Node24 -->
<g id="edge39" class="edge"><title>Node1&#45;&gt;Node24</title>
<path fill="none" stroke="midnightblue" d="M1106.22,-302.452C1084.53,-293.916 1050.78,-280.073 1022.5,-266 990.233,-249.943 954.383,-228.71 931.894,-214.954"/>
<polygon fill="midnightblue" stroke="midnightblue" points="933.474,-211.817 923.123,-209.554 929.803,-217.777 933.474,-211.817"/>
</g>
<!-- Node25 -->
<g id="node25" class="node"><title>Node25</title>
<g id="a_node25"><a xlink:href="numerical_8h.xhtml" target="_top" xlink:title="A collection of numerical expressions. ">
<polygon fill="white" stroke="black" points="1064.5,-246.5 1064.5,-265.5 1192.5,-265.5 1192.5,-246.5 1064.5,-246.5"/>
<text text-anchor="middle" x="1128.5" y="-253.5" font-family="Helvetica,sans-Serif" font-size="10.00">expression/numerical.h</text>
</a>
</g>
</g>
<!-- Node1&#45;&gt;Node25 -->
<g id="edge41" class="edge"><title>Node1&#45;&gt;Node25</title>
<path fill="none" stroke="midnightblue" d="M1128.5,-302.083C1128.5,-295.006 1128.5,-284.861 1128.5,-275.986"/>
<polygon fill="midnightblue" stroke="midnightblue" points="1132,-275.751 1128.5,-265.751 1125,-275.751 1132,-275.751"/>
</g>
<!-- Node27 -->
<g id="node27" class="node"><title>Node27</title>
<g id="a_node27"><a xlink:href="algorithm_8h.xhtml" target="_top" xlink:title="Helpful algorithm facilities as an extension to the STL or Boost. ">
<polygon fill="white" stroke="black" points="1231,-134.5 1231,-153.5 1320,-153.5 1320,-134.5 1231,-134.5"/>
<text text-anchor="middle" x="1275.5" y="-141.5" font-family="Helvetica,sans-Serif" font-size="10.00">ext/algorithm.h</text>
</a>
</g>
</g>
<!-- Node1&#45;&gt;Node27 -->
<g id="edge48" class="edge"><title>Node1&#45;&gt;Node27</title>
<path fill="none" stroke="midnightblue" d="M1157.48,-302.448C1194.89,-289.541 1257.64,-260.998 1278.5,-210 1284.51,-195.296 1283.01,-177.133 1280.44,-163.747"/>
<polygon fill="midnightblue" stroke="midnightblue" points="1283.81,-162.777 1278.17,-153.808 1276.99,-164.337 1283.81,-162.777"/>
</g>
<!-- Node29 -->
<g id="node29" class="node"><title>Node29</title>
<g id="a_node29"><a xlink:href="combination__iterator_8h.xhtml" target="_top" xlink:title="n&#45;choose&#45;k combination generation facilities. ">
<polygon fill="white" stroke="black" points="1338,-134.5 1338,-153.5 1481,-153.5 1481,-134.5 1338,-134.5"/>
<text text-anchor="middle" x="1409.5" y="-141.5" font-family="Helvetica,sans-Serif" font-size="10.00">ext/combination_iterator.h</text>
</a>
</g>
</g>
<!-- Node1&#45;&gt;Node29 -->
<g id="edge51" class="edge"><title>Node1&#45;&gt;Node29</title>
<path fill="none" stroke="midnightblue" d="M1162.13,-302.485C1188.73,-294.983 1226.28,-282.653 1256.5,-266 1311.6,-235.638 1367.31,-185.619 1393.72,-160.464"/>
<polygon fill="midnightblue" stroke="midnightblue" points="1396.17,-162.963 1400.94,-153.504 1391.31,-157.922 1396.17,-162.963"/>
</g>
<!-- Node3 -->
<g id="node3" class="node"><title>Node3</title>
<polygon fill="white" stroke="#bfbfbf" points="101,-134.5 101,-153.5 158,-153.5 158,-134.5 101,-134.5"/>
<text text-anchor="middle" x="129.5" y="-141.5" font-family="Helvetica,sans-Serif" font-size="10.00">memory</text>
</g>
<!-- Node2&#45;&gt;Node3 -->
<g id="edge2" class="edge"><title>Node2&#45;&gt;Node3</title>
<path fill="none" stroke="midnightblue" d="M498.307,-246.971C460.339,-238.4 398.999,-224.134 346.5,-210 282.69,-192.821 209.159,-170.19 166.158,-156.666"/>
<polygon fill="midnightblue" stroke="midnightblue" points="167.015,-153.266 156.425,-153.596 164.909,-159.942 167.015,-153.266"/>
</g>
<!-- Node4 -->
<g id="node4" class="node"><title>Node4</title>
<polygon fill="white" stroke="#bfbfbf" points="563.5,-6 563.5,-25 607.5,-25 607.5,-6 563.5,-6"/>
<text text-anchor="middle" x="585.5" y="-13" font-family="Helvetica,sans-Serif" font-size="10.00">string</text>
</g>
<!-- Node2&#45;&gt;Node4 -->
<g id="edge3" class="edge"><title>Node2&#45;&gt;Node4</title>
<path fill="none" stroke="midnightblue" d="M498.229,-251.589C383.139,-240.052 36.8684,-199.52 91.5,-134 120,-99.8202 245.343,-108.861 288.5,-98 331.98,-87.0575 341.177,-78.5488 384.5,-67 459.125,-47.107 481.265,-55.5212 554.5,-31 556.166,-30.4423 557.86,-29.8201 559.554,-29.1556"/>
<polygon fill="midnightblue" stroke="midnightblue" points="561.268,-32.2278 569.055,-25.044 558.487,-25.8036 561.268,-32.2278"/>
</g>
<!-- Node5 -->
<g id="node5" class="node"><title>Node5</title>
<polygon fill="white" stroke="#bfbfbf" points="600.5,-190.5 600.5,-209.5 668.5,-209.5 668.5,-190.5 600.5,-190.5"/>
<text text-anchor="middle" x="634.5" y="-197.5" font-family="Helvetica,sans-Serif" font-size="10.00">type_traits</text>
</g>
<!-- Node2&#45;&gt;Node5 -->
<g id="edge4" class="edge"><title>Node2&#45;&gt;Node5</title>
<path fill="none" stroke="midnightblue" d="M550.567,-246.324C566.458,-237.743 591.007,-224.486 609.458,-214.522"/>
<polygon fill="midnightblue" stroke="midnightblue" points="611.337,-217.486 618.473,-209.655 608.011,-211.326 611.337,-217.486"/>
</g>
<!-- Node6 -->
<g id="node6" class="node"><title>Node6</title>
<polygon fill="white" stroke="#bfbfbf" points="594.5,-73 594.5,-92 636.5,-92 636.5,-73 594.5,-73"/>
<text text-anchor="middle" x="615.5" y="-80" font-family="Helvetica,sans-Serif" font-size="10.00">utility</text>
</g>
<!-- Node2&#45;&gt;Node6 -->
<g id="edge5" class="edge"><title>Node2&#45;&gt;Node6</title>
<path fill="none" stroke="midnightblue" d="M538.628,-246.26C551.304,-219.421 589.845,-137.818 607.05,-101.39"/>
<polygon fill="midnightblue" stroke="midnightblue" points="610.37,-102.556 611.476,-92.0194 604.041,-99.5668 610.37,-102.556"/>
</g>
<!-- Node7 -->
<g id="node7" class="node"><title>Node7</title>
<polygon fill="white" stroke="#bfbfbf" points="795,-6 795,-25 842,-25 842,-6 795,-6"/>
<text text-anchor="middle" x="818.5" y="-13" font-family="Helvetica,sans-Serif" font-size="10.00">vector</text>
</g>
<!-- Node2&#45;&gt;Node7 -->
<g id="edge6" class="edge"><title>Node2&#45;&gt;Node7</title>
<path fill="none" stroke="midnightblue" d="M570.543,-255.212C623.717,-254.175 725.127,-246.966 801.5,-210 834.923,-193.823 910.424,-131.933 925.5,-98 931.094,-85.409 932.876,-78.6372 925.5,-67 909.456,-41.6867 876.945,-28.8237 851.949,-22.4416"/>
<polygon fill="midnightblue" stroke="midnightblue" points="852.64,-19.009 842.107,-20.1571 851.057,-25.8277 852.64,-19.009"/>
</g>
<!-- Node8 -->
<g id="node8" class="node"><title>Node8</title>
<polygon fill="white" stroke="#bfbfbf" points="448.5,-73 448.5,-92 576.5,-92 576.5,-73 448.5,-73"/>
<text text-anchor="middle" x="512.5" y="-80" font-family="Helvetica,sans-Serif" font-size="10.00">boost/noncopyable.hpp</text>
</g>
<!-- Node2&#45;&gt;Node8 -->
<g id="edge7" class="edge"><title>Node2&#45;&gt;Node8</title>
<path fill="none" stroke="midnightblue" d="M531.072,-246.193C527.75,-237.234 522.874,-222.874 520.5,-210 513.54,-172.262 512.35,-127.24 512.299,-102.368"/>
<polygon fill="midnightblue" stroke="midnightblue" points="515.799,-102.191 512.341,-92.176 508.799,-102.161 515.799,-102.191"/>
</g>
<!-- Node9 -->
<g id="node9" class="node"><title>Node9</title>
<polygon fill="white" stroke="#bfbfbf" points="686.5,-190.5 686.5,-209.5 792.5,-209.5 792.5,-190.5 686.5,-190.5"/>
<text text-anchor="middle" x="739.5" y="-197.5" font-family="Helvetica,sans-Serif" font-size="10.00">boost/optional.hpp</text>
</g>
<!-- Node2&#45;&gt;Node9 -->
<g id="edge8" class="edge"><title>Node2&#45;&gt;Node9</title>
<path fill="none" stroke="midnightblue" d="M566.983,-246.444C602.22,-237.162 658.604,-222.309 697.259,-212.127"/>
<polygon fill="midnightblue" stroke="midnightblue" points="698.391,-215.448 707.169,-209.516 696.607,-208.679 698.391,-215.448"/>
</g>
<!-- Node10 -->
<g id="node10" class="node"><title>Node10</title>
<g id="a_node10"><a xlink:href="element_8h.xhtml" target="_top" xlink:title="Helper classes, structs, and properties common to all other classes. ">
<polygon fill="white" stroke="black" points="215,-73 215,-92 280,-92 280,-73 215,-73"/>
<text text-anchor="middle" x="247.5" y="-80" font-family="Helvetica,sans-Serif" font-size="10.00">element.h</text>
</a>
</g>
</g>
<!-- Node2&#45;&gt;Node10 -->
<g id="edge9" class="edge"><title>Node2&#45;&gt;Node10</title>
<path fill="none" stroke="midnightblue" d="M498.279,-254.32C392.224,-251.956 87.9686,-242.386 58.5,-210 35.7673,-185.017 37.928,-160.79 58.5,-134 76.2071,-110.94 154.761,-96.1377 204.857,-88.8614"/>
<polygon fill="midnightblue" stroke="midnightblue" points="205.363,-92.3249 214.777,-87.4644 204.386,-85.3933 205.363,-92.3249"/>
</g>
<!-- Node15 -->
<g id="node15" class="node"><title>Node15</title>
<g id="a_node15"><a xlink:href="event_8h.xhtml" target="_top" xlink:title="Contains event classes for fault trees. ">
<polygon fill="white" stroke="black" points="356,-190.5 356,-209.5 409,-209.5 409,-190.5 356,-190.5"/>
<text text-anchor="middle" x="382.5" y="-197.5" font-family="Helvetica,sans-Serif" font-size="10.00">event.h</text>
</a>
</g>
</g>
<!-- Node2&#45;&gt;Node15 -->
<g id="edge16" class="edge"><title>Node2&#45;&gt;Node15</title>
<path fill="none" stroke="midnightblue" d="M510.415,-246.444C484.955,-237.399 444.606,-223.064 416.041,-212.916"/>
<polygon fill="midnightblue" stroke="midnightblue" points="417.067,-209.566 406.472,-209.516 414.723,-216.162 417.067,-209.566"/>
</g>
<!-- Node17 -->
<g id="node17" class="node"><title>Node17</title>
<g id="a_node17"><a xlink:href="expression_8h.xhtml" target="_top" xlink:title="Provides the base class for all expressions and units for expression values. ">
<polygon fill="white" stroke="black" points="664,-134.5 664,-153.5 741,-153.5 741,-134.5 664,-134.5"/>
<text text-anchor="middle" x="702.5" y="-141.5" font-family="Helvetica,sans-Serif" font-size="10.00">expression.h</text>
</a>
</g>
</g>
<!-- Node2&#45;&gt;Node17 -->
<g id="edge36" class="edge"><title>Node2&#45;&gt;Node17</title>
<path fill="none" stroke="midnightblue" d="M540.149,-246.265C549.393,-232.58 568.992,-206.002 591.5,-190 612.37,-175.163 638.845,-164.188 660.704,-156.792"/>
<polygon fill="midnightblue" stroke="midnightblue" points="661.958,-160.065 670.386,-153.645 659.794,-153.408 661.958,-160.065"/>
</g>
<!-- Node10&#45;&gt;Node4 -->
<g id="edge11" class="edge"><title>Node10&#45;&gt;Node4</title>
<path fill="none" stroke="midnightblue" d="M272.667,-72.9149C279.674,-70.7498 287.331,-68.5913 294.5,-67 408.386,-41.7221 442.632,-64.0844 554.5,-31 556.38,-30.4439 558.291,-29.7903 560.193,-29.0735"/>
<polygon fill="midnightblue" stroke="midnightblue" points="561.626,-32.2672 569.449,-25.122 558.878,-25.8293 561.626,-32.2672"/>
</g>
<!-- Node10&#45;&gt;Node7 -->
<g id="edge12" class="edge"><title>Node10&#45;&gt;Node7</title>
<path fill="none" stroke="midnightblue" d="M280.25,-77.7719C380.611,-66.3472 683.219,-31.8998 784.819,-20.3341"/>
<polygon fill="midnightblue" stroke="midnightblue" points="785.292,-23.8029 794.832,-19.1942 784.501,-16.8478 785.292,-23.8029"/>
</g>
<!-- Node11 -->
<g id="node11" class="node"><title>Node11</title>
<polygon fill="white" stroke="#bfbfbf" points="0,-6 0,-25 49,-25 49,-6 0,-6"/>
<text text-anchor="middle" x="24.5" y="-13" font-family="Helvetica,sans-Serif" font-size="10.00">cstdint</text>
</g>
<!-- Node10&#45;&gt;Node11 -->
<g id="edge10" class="edge"><title>Node10&#45;&gt;Node11</title>
<path fill="none" stroke="midnightblue" d="M220.727,-72.9819C214.133,-70.9556 207.077,-68.8469 200.5,-67 137.817,-49.3974 120.185,-51.8328 58.5,-31 56.5849,-30.3532 54.6263,-29.646 52.6639,-28.9032"/>
<polygon fill="midnightblue" stroke="midnightblue" points="53.5874,-25.5017 43.0042,-25.0052 50.9679,-31.9931 53.5874,-25.5017"/>
</g>
<!-- Node12 -->
<g id="node12" class="node"><title>Node12</title>
<polygon fill="white" stroke="#bfbfbf" points="67.5,-6 67.5,-25 239.5,-25 239.5,-6 67.5,-6"/>
<text text-anchor="middle" x="153.5" y="-13" font-family="Helvetica,sans-Serif" font-size="10.00">boost/multi_index_container.hpp</text>
</g>
<!-- Node10&#45;&gt;Node12 -->
<g id="edge13" class="edge"><title>Node10&#45;&gt;Node12</title>
<path fill="none" stroke="midnightblue" d="M234.823,-72.7338C219.319,-62.0131 192.859,-43.7165 174.344,-30.9137"/>
<polygon fill="midnightblue" stroke="midnightblue" points="176.192,-27.9361 165.976,-25.1273 172.211,-33.6937 176.192,-27.9361"/>
</g>
<!-- Node13 -->
<g id="node13" class="node"><title>Node13</title>
<polygon fill="white" stroke="#bfbfbf" points="257.5,-0.5 257.5,-30.5 397.5,-30.5 397.5,-0.5 257.5,-0.5"/>
<text text-anchor="start" x="265.5" y="-18.5" font-family="Helvetica,sans-Serif" font-size="10.00">boost/multi_index/hashed</text>
<text text-anchor="middle" x="327.5" y="-7.5" font-family="Helvetica,sans-Serif" font-size="10.00">_index.hpp</text>
</g>
<!-- Node10&#45;&gt;Node13 -->
<g id="edge14" class="edge"><title>Node10&#45;&gt;Node13</title>
<path fill="none" stroke="midnightblue" d="M258.289,-72.7338C269.517,-63.6115 287.495,-49.0038 302.315,-36.9631"/>
<polygon fill="midnightblue" stroke="midnightblue" points="304.606,-39.6114 310.16,-30.589 300.191,-34.1786 304.606,-39.6114"/>
</g>
<!-- Node14 -->
<g id="node14" class="node"><title>Node14</title>
<polygon fill="white" stroke="#bfbfbf" points="415.5,-0.5 415.5,-30.5 545.5,-30.5 545.5,-0.5 415.5,-0.5"/>
<text text-anchor="start" x="423.5" y="-18.5" font-family="Helvetica,sans-Serif" font-size="10.00">boost/multi_index/mem</text>
<text text-anchor="middle" x="480.5" y="-7.5" font-family="Helvetica,sans-Serif" font-size="10.00">_fun.hpp</text>
</g>
<!-- Node10&#45;&gt;Node14 -->
<g id="edge15" class="edge"><title>Node10&#45;&gt;Node14</title>
<path fill="none" stroke="midnightblue" d="M274.791,-72.908C281.241,-70.9252 288.103,-68.8546 294.5,-67 335.038,-55.2473 380.786,-42.8157 416.767,-33.2277"/>
<polygon fill="midnightblue" stroke="midnightblue" points="417.879,-36.5537 426.644,-30.6017 416.081,-29.7887 417.879,-36.5537"/>
</g>
<!-- Node15&#45;&gt;Node3 -->
<g id="edge18" class="edge"><title>Node15&#45;&gt;Node3</title>
<path fill="none" stroke="midnightblue" d="M355.903,-193.323C310.944,-183.727 219.761,-164.265 167.879,-153.191"/>
<polygon fill="midnightblue" stroke="midnightblue" points="168.562,-149.759 158.052,-151.094 167.101,-156.604 168.562,-149.759"/>
</g>
<!-- Node15&#45;&gt;Node4 -->
<g id="edge19" class="edge"><title>Node15&#45;&gt;Node4</title>
<path fill="none" stroke="midnightblue" d="M381.166,-190.199C378.146,-166.734 373.423,-102.08 406.5,-67 452.941,-17.7465 490.636,-53.4518 554.5,-31 556.119,-30.431 557.766,-29.8059 559.416,-29.1446"/>
<polygon fill="midnightblue" stroke="midnightblue" points="560.93,-32.3029 568.699,-25.0994 558.133,-25.8857 560.93,-32.3029"/>
</g>
<!-- Node15&#45;&gt;Node7 -->
<g id="edge20" class="edge"><title>Node15&#45;&gt;Node7</title>
<path fill="none" stroke="midnightblue" d="M384.99,-190.436C392.919,-163.77 418.301,-83.0423 439.5,-67 466.843,-46.3075 696.964,-26.1184 784.703,-19.1012"/>
<polygon fill="midnightblue" stroke="midnightblue" points="785.22,-22.5713 794.913,-18.2928 784.668,-15.5931 785.22,-22.5713"/>
</g>
<!-- Node15&#45;&gt;Node8 -->
<g id="edge21" class="edge"><title>Node15&#45;&gt;Node8</title>
<path fill="none" stroke="midnightblue" d="M392.524,-190.437C403.037,-181.43 420.012,-166.813 434.5,-154 455.691,-135.258 479.812,-113.37 495.548,-99.0137"/>
<polygon fill="midnightblue" stroke="midnightblue" points="497.931,-101.578 502.953,-92.2497 493.209,-96.4099 497.931,-101.578"/>
</g>
<!-- Node15&#45;&gt;Node10 -->
<g id="edge23" class="edge"><title>Node15&#45;&gt;Node10</title>
<path fill="none" stroke="midnightblue" d="M355.997,-199.054C323.402,-197.515 269.237,-189.385 243.5,-154 232.707,-139.161 235.902,-117.575 240.417,-102.204"/>
<polygon fill="midnightblue" stroke="midnightblue" points="243.88,-102.889 243.758,-92.2946 237.247,-100.653 243.88,-102.889"/>
</g>
<!-- Node15&#45;&gt;Node11 -->
<g id="edge17" class="edge"><title>Node15&#45;&gt;Node11</title>
<path fill="none" stroke="midnightblue" d="M355.816,-193.399C325.328,-186.447 274.375,-173.123 233.5,-154 158.065,-118.707 78.3786,-59.1422 43.1314,-31.4664"/>
<polygon fill="midnightblue" stroke="midnightblue" points="45.1697,-28.616 35.1573,-25.1515 40.8238,-34.1037 45.1697,-28.616"/>
</g>
<!-- Node16 -->
<g id="node16" class="node"><title>Node16</title>
<polygon fill="white" stroke="#bfbfbf" points="253,-134.5 253,-153.5 354,-153.5 354,-134.5 253,-134.5"/>
<text text-anchor="middle" x="303.5" y="-141.5" font-family="Helvetica,sans-Serif" font-size="10.00">boost/variant.hpp</text>
</g>
<!-- Node15&#45;&gt;Node16 -->
<g id="edge22" class="edge"><title>Node15&#45;&gt;Node16</title>
<path fill="none" stroke="midnightblue" d="M369.807,-190.324C357.599,-181.979 338.922,-169.212 324.497,-159.352"/>
<polygon fill="midnightblue" stroke="midnightblue" points="326.392,-156.408 316.161,-153.655 322.442,-162.187 326.392,-156.408"/>
</g>
<!-- Node15&#45;&gt;Node17 -->
<g id="edge24" class="edge"><title>Node15&#45;&gt;Node17</title>
<path fill="none" stroke="midnightblue" d="M409.233,-194.489C463.098,-185.399 585.366,-164.766 653.8,-153.218"/>
<polygon fill="midnightblue" stroke="midnightblue" points="654.619,-156.63 663.897,-151.514 653.454,-149.727 654.619,-156.63"/>
</g>
<!-- Node17&#45;&gt;Node4 -->
<g id="edge27" class="edge"><title>Node17&#45;&gt;Node4</title>
<path fill="none" stroke="midnightblue" d="M696.772,-134.061C687.115,-119.311 666.575,-89.2922 645.5,-67 633.156,-53.9433 617.595,-40.9281 605.413,-31.3813"/>
<polygon fill="midnightblue" stroke="midnightblue" points="607.295,-28.4135 597.234,-25.0918 603.028,-33.9624 607.295,-28.4135"/>
</g>
<!-- Node17&#45;&gt;Node6 -->
<g id="edge28" class="edge"><title>Node17&#45;&gt;Node6</title>
<path fill="none" stroke="midnightblue" d="M690.035,-134.475C676.081,-124.931 653.235,-109.307 636.509,-97.8683"/>
<polygon fill="midnightblue" stroke="midnightblue" points="638.172,-94.7653 627.942,-92.0091 634.22,-100.543 638.172,-94.7653"/>
</g>
<!-- Node17&#45;&gt;Node7 -->
<g id="edge29" class="edge"><title>Node17&#45;&gt;Node7</title>
<path fill="none" stroke="midnightblue" d="M702.446,-134.496C702.782,-119.325 705.496,-87.2886 721.5,-67 737.538,-46.6679 764.023,-33.6659 785.269,-25.9548"/>
<polygon fill="midnightblue" stroke="midnightblue" points="786.563,-29.2115 794.906,-22.6812 784.312,-22.5834 786.563,-29.2115"/>
</g>
<!-- Node17&#45;&gt;Node8 -->
<g id="edge31" class="edge"><title>Node17&#45;&gt;Node8</title>
<path fill="none" stroke="midnightblue" d="M675.278,-134.475C642.263,-124.136 586.46,-106.661 549.547,-95.1017"/>
<polygon fill="midnightblue" stroke="midnightblue" points="550.261,-91.6576 539.672,-92.0091 548.169,-98.3377 550.261,-91.6576"/>
</g>
<!-- Node17&#45;&gt;Node10 -->
<g id="edge32" class="edge"><title>Node17&#45;&gt;Node10</title>
<path fill="none" stroke="midnightblue" d="M663.707,-137.927C579.055,-126.857 378.307,-100.606 290.204,-89.0843"/>
<polygon fill="midnightblue" stroke="midnightblue" points="290.652,-85.6132 280.282,-87.7869 289.744,-92.5541 290.652,-85.6132"/>
</g>
<!-- Node18 -->
<g id="node18" class="node"><title>Node18</title>
<polygon fill="white" stroke="#bfbfbf" points="1140.5,-73 1140.5,-92 1202.5,-92 1202.5,-73 1140.5,-73"/>
<text text-anchor="middle" x="1171.5" y="-80" font-family="Helvetica,sans-Serif" font-size="10.00">algorithm</text>
</g>
<!-- Node17&#45;&gt;Node18 -->
<g id="edge25" class="edge"><title>Node17&#45;&gt;Node18</title>
<path fill="none" stroke="midnightblue" d="M741.279,-138.08C828.678,-126.992 1040.39,-100.133 1130.16,-88.7446"/>
<polygon fill="midnightblue" stroke="midnightblue" points="1130.75,-92.1973 1140.23,-87.4665 1129.87,-85.253 1130.75,-92.1973"/>
</g>
<!-- Node19 -->
<g id="node19" class="node"><title>Node19</title>
<polygon fill="white" stroke="#bfbfbf" points="860.5,-73 860.5,-92 916.5,-92 916.5,-73 860.5,-73"/>
<text text-anchor="middle" x="888.5" y="-80" font-family="Helvetica,sans-Serif" font-size="10.00">sstream</text>
</g>
<!-- Node17&#45;&gt;Node19 -->
<g id="edge26" class="edge"><title>Node17&#45;&gt;Node19</title>
<path fill="none" stroke="midnightblue" d="M733.264,-134.489C763.555,-125.927 811.028,-112.016 851.5,-98 853.619,-97.2662 855.796,-96.485 857.982,-95.6803"/>
<polygon fill="midnightblue" stroke="midnightblue" points="859.37,-98.8972 867.477,-92.0757 856.886,-92.353 859.37,-98.8972"/>
</g>
<!-- Node20 -->
<g id="node20" class="node"><title>Node20</title>
<polygon fill="white" stroke="#bfbfbf" points="730.5,-67.5 730.5,-97.5 842.5,-97.5 842.5,-67.5 730.5,-67.5"/>
<text text-anchor="start" x="738.5" y="-85.5" font-family="Helvetica,sans-Serif" font-size="10.00">boost/icl/continuous</text>
<text text-anchor="middle" x="786.5" y="-74.5" font-family="Helvetica,sans-Serif" font-size="10.00">_interval.hpp</text>
</g>
<!-- Node17&#45;&gt;Node20 -->
<g id="edge30" class="edge"><title>Node17&#45;&gt;Node20</title>
<path fill="none" stroke="midnightblue" d="M714.535,-134.475C725.912,-126.417 743.409,-114.023 758.301,-103.474"/>
<polygon fill="midnightblue" stroke="midnightblue" points="760.566,-106.159 766.703,-97.523 756.52,-100.447 760.566,-106.159"/>
</g>
<!-- Node17&#45;&gt;Node21 -->
<g id="edge33" class="edge"><title>Node17&#45;&gt;Node21</title>
<path fill="none" stroke="midnightblue" d="M741.002,-135.464C800.864,-123.748 915.294,-101.351 972.368,-90.1804"/>
<polygon fill="midnightblue" stroke="midnightblue" points="973.19,-93.586 982.332,-88.2303 971.846,-86.7163 973.19,-93.586"/>
</g>
<!-- Node21&#45;&gt;Node4 -->
<g id="edge35" class="edge"><title>Node21&#45;&gt;Node4</title>
<path fill="none" stroke="midnightblue" d="M982.431,-76.9982C966.336,-74.0355 944.674,-70.1394 925.5,-67 812.722,-48.5345 678.413,-29.4363 617.895,-20.9851"/>
<polygon fill="midnightblue" stroke="midnightblue" points="618.2,-17.4938 607.813,-19.5804 617.234,-24.4269 618.2,-17.4938"/>
</g>
<!-- Node22 -->
<g id="node22" class="node"><title>Node22</title>
<polygon fill="white" stroke="#bfbfbf" points="975,-6 975,-25 1038,-25 1038,-6 975,-6"/>
<text text-anchor="middle" x="1006.5" y="-13" font-family="Helvetica,sans-Serif" font-size="10.00">exception</text>
</g>
<!-- Node21&#45;&gt;Node22 -->
<g id="edge34" class="edge"><title>Node21&#45;&gt;Node22</title>
<path fill="none" stroke="midnightblue" d="M1006.5,-72.7338C1006.5,-63.1826 1006.5,-47.6183 1006.5,-35.2829"/>
<polygon fill="midnightblue" stroke="midnightblue" points="1010,-35.1273 1006.5,-25.1273 1003,-35.1273 1010,-35.1273"/>
</g>
<!-- Node24&#45;&gt;Node17 -->
<g id="edge40" class="edge"><title>Node24&#45;&gt;Node17</title>
<path fill="none" stroke="midnightblue" d="M876.7,-190.444C841.12,-181.162 784.186,-166.309 745.153,-156.127"/>
<polygon fill="midnightblue" stroke="midnightblue" points="745.706,-152.654 735.146,-153.516 743.939,-159.427 745.706,-152.654"/>
</g>
<!-- Node25&#45;&gt;Node7 -->
<g id="edge44" class="edge"><title>Node25&#45;&gt;Node7</title>
<path fill="none" stroke="midnightblue" d="M1127.12,-246.231C1121.9,-216.055 1100.44,-115.687 1039.5,-67 1010.89,-44.1418 907.093,-27.8307 852.538,-20.627"/>
<polygon fill="midnightblue" stroke="midnightblue" points="852.686,-17.1172 842.321,-19.3084 851.79,-24.0596 852.686,-17.1172"/>
</g>
<!-- Node25&#45;&gt;Node17 -->
<g id="edge47" class="edge"><title>Node25&#45;&gt;Node17</title>
<path fill="none" stroke="midnightblue" d="M1112.47,-246.402C1085.7,-232.417 1029.86,-204.819 979.5,-190 901.399,-167.017 807.238,-154.865 751.258,-149.196"/>
<polygon fill="midnightblue" stroke="midnightblue" points="751.557,-145.709 741.262,-148.212 750.871,-152.675 751.557,-145.709"/>
</g>
<!-- Node25&#45;&gt;Node21 -->
<g id="edge46" class="edge"><title>Node25&#45;&gt;Node21</title>
<path fill="none" stroke="midnightblue" d="M1122.69,-246.415C1116.59,-237.391 1106.78,-222.759 1098.5,-210 1076.75,-176.488 1074.36,-166.044 1050.5,-134 1041.58,-122.025 1030.54,-109.359 1021.75,-99.708"/>
<polygon fill="midnightblue" stroke="midnightblue" points="1024.07,-97.0632 1014.72,-92.0954 1018.93,-101.815 1024.07,-97.0632"/>
</g>
<!-- Node25&#45;&gt;Node23 -->
<g id="edge42" class="edge"><title>Node25&#45;&gt;Node23</title>
<path fill="none" stroke="midnightblue" d="M1147.04,-246.444C1166.12,-237.636 1196.07,-223.812 1217.94,-213.722"/>
<polygon fill="midnightblue" stroke="midnightblue" points="1219.43,-216.885 1227.05,-209.516 1216.5,-210.529 1219.43,-216.885"/>
</g>
<!-- Node25&#45;&gt;Node24 -->
<g id="edge45" class="edge"><title>Node25&#45;&gt;Node24</title>
<path fill="none" stroke="midnightblue" d="M1093.8,-246.444C1055.92,-237.102 995.151,-222.119 953.838,-211.933"/>
<polygon fill="midnightblue" stroke="midnightblue" points="954.586,-208.512 944.039,-209.516 952.91,-215.309 954.586,-208.512"/>
</g>
<!-- Node26 -->
<g id="node26" class="node"><title>Node26</title>
<polygon fill="white" stroke="#bfbfbf" points="1141,-190.5 1141,-209.5 1204,-209.5 1204,-190.5 1141,-190.5"/>
<text text-anchor="middle" x="1172.5" y="-197.5" font-family="Helvetica,sans-Serif" font-size="10.00">functional</text>
</g>
<!-- Node25&#45;&gt;Node26 -->
<g id="edge43" class="edge"><title>Node25&#45;&gt;Node26</title>
<path fill="none" stroke="midnightblue" d="M1135.77,-246.083C1142.04,-238.377 1151.29,-227.033 1158.93,-217.653"/>
<polygon fill="midnightblue" stroke="midnightblue" points="1161.77,-219.714 1165.37,-209.751 1156.34,-215.293 1161.77,-219.714"/>
</g>
<!-- Node27&#45;&gt;Node18 -->
<g id="edge49" class="edge"><title>Node27&#45;&gt;Node18</title>
<path fill="none" stroke="midnightblue" d="M1260.6,-134.475C1243.53,-124.711 1215.34,-108.581 1195.24,-97.0808"/>
<polygon fill="midnightblue" stroke="midnightblue" points="1196.79,-93.9371 1186.37,-92.0091 1193.31,-100.013 1196.79,-93.9371"/>
</g>
<!-- Node28 -->
<g id="node28" class="node"><title>Node28</title>
<polygon fill="white" stroke="#bfbfbf" points="1220.5,-73 1220.5,-92 1364.5,-92 1364.5,-73 1220.5,-73"/>
<text text-anchor="middle" x="1292.5" y="-80" font-family="Helvetica,sans-Serif" font-size="10.00">boost/range/algorithm.hpp</text>
</g>
<!-- Node27&#45;&gt;Node28 -->
<g id="edge50" class="edge"><title>Node27&#45;&gt;Node28</title>
<path fill="none" stroke="midnightblue" d="M1277.94,-134.475C1280.36,-125.992 1284.16,-112.704 1287.27,-101.822"/>
<polygon fill="midnightblue" stroke="midnightblue" points="1290.69,-102.586 1290.07,-92.0091 1283.96,-100.663 1290.69,-102.586"/>
</g>
<!-- Node29&#45;&gt;Node7 -->
<g id="edge54" class="edge"><title>Node29&#45;&gt;Node7</title>
<path fill="none" stroke="midnightblue" d="M1408.19,-134.128C1405.25,-117.759 1396.5,-83.0174 1373.5,-67 1298.8,-14.9915 1056.12,-39.4675 965.5,-31 926.727,-27.3773 882.23,-22.9505 852.442,-19.9482"/>
<polygon fill="midnightblue" stroke="midnightblue" points="852.472,-16.4335 842.171,-18.9107 851.768,-23.398 852.472,-16.4335"/>
</g>
<!-- Node29&#45;&gt;Node18 -->
<g id="edge52" class="edge"><title>Node29&#45;&gt;Node18</title>
<path fill="none" stroke="midnightblue" d="M1364.66,-134.467C1324.26,-126.388 1263.42,-113.246 1211.5,-98 1208.87,-97.2267 1206.15,-96.3724 1203.44,-95.4769"/>
<polygon fill="midnightblue" stroke="midnightblue" points="1204.36,-92.0896 1193.76,-92.1247 1202.07,-98.7043 1204.36,-92.0896"/>
</g>
<!-- Node29&#45;&gt;Node28 -->
<g id="edge56" class="edge"><title>Node29&#45;&gt;Node28</title>
<path fill="none" stroke="midnightblue" d="M1392.74,-134.475C1373.28,-124.578 1340.95,-108.142 1318.29,-96.6151"/>
<polygon fill="midnightblue" stroke="midnightblue" points="1319.73,-93.4224 1309.23,-92.0091 1316.56,-99.6619 1319.73,-93.4224"/>
</g>
<!-- Node30 -->
<g id="node30" class="node"><title>Node30</title>
<polygon fill="white" stroke="#bfbfbf" points="1420.5,-73 1420.5,-92 1472.5,-92 1472.5,-73 1420.5,-73"/>
<text text-anchor="middle" x="1446.5" y="-80" font-family="Helvetica,sans-Serif" font-size="10.00">iterator</text>
</g>
<!-- Node29&#45;&gt;Node30 -->
<g id="edge53" class="edge"><title>Node29&#45;&gt;Node30</title>
<path fill="none" stroke="midnightblue" d="M1414.8,-134.475C1420.24,-125.727 1428.86,-111.869 1435.74,-100.809"/>
<polygon fill="midnightblue" stroke="midnightblue" points="1438.9,-102.349 1441.21,-92.0091 1432.96,-98.6528 1438.9,-102.349"/>
</g>
<!-- Node31 -->
<g id="node31" class="node"><title>Node31</title>
<polygon fill="white" stroke="#bfbfbf" points="1490.5,-67.5 1490.5,-97.5 1610.5,-97.5 1610.5,-67.5 1490.5,-67.5"/>
<text text-anchor="start" x="1498.5" y="-85.5" font-family="Helvetica,sans-Serif" font-size="10.00">boost/iterator/iterator</text>
<text text-anchor="middle" x="1550.5" y="-74.5" font-family="Helvetica,sans-Serif" font-size="10.00">_facade.hpp</text>
</g>
<!-- Node29&#45;&gt;Node31 -->
<g id="edge55" class="edge"><title>Node29&#45;&gt;Node31</title>
<path fill="none" stroke="midnightblue" d="M1429.7,-134.475C1450.05,-125.889 1482.06,-112.383 1508.01,-101.429"/>
<polygon fill="midnightblue" stroke="midnightblue" points="1509.42,-104.636 1517.27,-97.523 1506.7,-98.1863 1509.42,-104.636"/>
</g>
<!-- Node32 -->
<g id="node32" class="node"><title>Node32</title>
<polygon fill="white" stroke="#bfbfbf" points="1629,-67.5 1629,-97.5 1742,-97.5 1742,-67.5 1629,-67.5"/>
<text text-anchor="start" x="1637" y="-85.5" font-family="Helvetica,sans-Serif" font-size="10.00">boost/range/iterator</text>
<text text-anchor="middle" x="1685.5" y="-74.5" font-family="Helvetica,sans-Serif" font-size="10.00">_range.hpp</text>
</g>
<!-- Node29&#45;&gt;Node32 -->
<g id="edge57" class="edge"><title>Node29&#45;&gt;Node32</title>
<path fill="none" stroke="midnightblue" d="M1449.77,-134.435C1489.99,-125.867 1553.85,-112.223 1618.95,-98.1137"/>
<polygon fill="midnightblue" stroke="midnightblue" points="1619.95,-101.478 1628.98,-95.9377 1618.46,-94.6371 1619.95,-101.478"/>
</g>
</g>
</svg>
        <g id="navigator" transform="translate(0 0)" fill="#404254">
                <rect fill="#f2f5e9" fill-opacity="0.5" stroke="#606060" stroke-width=".5" x="0" y="0" width="60" height="60"/>
                <use id="zoomplus" xlink:href="#zoomPlus" x="17" y="9" onmousedown="handleZoom(evt,'in')"/>
                <use id="zoomminus" xlink:href="#zoomMin" x="42" y="9" onmousedown="handleZoom(evt,'out')"/>
                <use id="reset" xlink:href="#resetDef" x="30" y="36" onmousedown="handleReset()"/>
                <g id="arrowUp" xlink:href="#dirArrow" transform="translate(30 24)" onmousedown="handlePan(0,-1)">
                  <use xlink:href="#rim" fill="#404040">
                        <set attributeName="fill" to="#808080" begin="arrowUp.mouseover" end="arrowUp.mouseout"/>
                  </use>
                  <path fill="none" stroke="white" stroke-width="1.5" d="M0,-3.0v7 M-2.5,-0.5L0,-3.0L2.5,-0.5"/>
                </g>
                <g id="arrowRight" xlink:href="#dirArrow" transform="rotate(90) translate(36 -43)" onmousedown="handlePan(1,0)">
                  <use xlink:href="#rim" fill="#404040">
                        <set attributeName="fill" to="#808080" begin="arrowRight.mouseover" end="arrowRight.mouseout"/>
                  </use>
                  <path fill="none" stroke="white" stroke-width="1.5" d="M0,-3.0v7 M-2.5,-0.5L0,-3.0L2.5,-0.5"/>
                </g>
                <g id="arrowDown" xlink:href="#dirArrow" transform="rotate(180) translate(-30 -48)" onmousedown="handlePan(0,1)">
                  <use xlink:href="#rim" fill="#404040">
                        <set attributeName="fill" to="#808080" begin="arrowDown.mouseover" end="arrowDown.mouseout"/>
                  </use>
                  <path fill="none" stroke="white" stroke-width="1.5" d="M0,-3.0v7 M-2.5,-0.5L0,-3.0L2.5,-0.5"/>
                </g>
                <g id="arrowLeft" xlink:href="#dirArrow" transform="rotate(270) translate(-36 17)" onmousedown="handlePan(-1,0)">
                  <use xlink:href="#rim" fill="#404040">
                        <set attributeName="fill" to="#808080" begin="arrowLeft.mouseover" end="arrowLeft.mouseout"/>
                  </use>
                  <path fill="none" stroke="white" stroke-width="1.5" d="M0,-3.0v7 M-2.5,-0.5L0,-3.0L2.5,-0.5"/>
                </g>
        </g>
        <svg viewBox="0 0 15 15" width="100%" height="30px" preserveAspectRatio="xMaxYMin meet">
         <g id="arrow_out" transform="scale(0.3 0.3)">
          <a xlink:href="ccf__group_8cc__incl_org.svg" target="_base">
           <rect id="button" ry="5" rx="5" y="6" x="6" height="38" width="38"
                fill="#f2f5e9" fill-opacity="0.5" stroke="#606060" stroke-width="1.0"/>
           <path id="arrow"
             d="M 11.500037,31.436501 C 11.940474,20.09759 22.043105,11.32322 32.158766,21.979434 L 37.068811,17.246167 C 37.068811,17.246167 37.088388,32 37.088388,32 L 22.160133,31.978069 C 22.160133,31.978069 26.997745,27.140456 26.997745,27.140456 C 18.528582,18.264221 13.291696,25.230495 11.500037,31.436501 z"
             style="fill:#404040;"/>
          </a>
         </g>
        </svg>
</svg>
