<?xml version="1.0" encoding="UTF-8" standalone="no"?>
<!DOCTYPE svg PUBLIC "-//W3C//DTD SVG 1.1//EN"
 "http://www.w3.org/Graphics/SVG/1.1/DTD/svg11.dtd">
<!-- Generated by graphviz version 2.38.0 (20140413.2041)
 -->
<!-- Title: ccf_group.h Pages: 1 -->
<svg width="574pt" height="308pt"
 viewBox="0.00 0.00 573.50 308.00" xmlns="http://www.w3.org/2000/svg" xmlns:xlink="http://www.w3.org/1999/xlink">
<g id="graph0" class="graph" transform="scale(1 1) rotate(0) translate(4 304)">
<title>ccf_group.h</title>
<polygon fill="white" stroke="none" points="-4,4 -4,-304 569.5,-304 569.5,4 -4,4"/>
<!-- Node1 -->
<g id="node1" class="node"><title>Node1</title>
<polygon fill="#bfbfbf" stroke="black" points="309.5,-280.5 309.5,-299.5 381.5,-299.5 381.5,-280.5 309.5,-280.5"/>
<text text-anchor="middle" x="345.5" y="-287.5" font-family="Helvetica,sans-Serif" font-size="10.00">ccf_group.h</text>
</g>
<!-- Node2 -->
<g id="node2" class="node"><title>Node2</title>
<g id="a_node2"><a xlink:href="ccf__group_8cc.xhtml" target="_top" xlink:title="Implementation of various common cause failure models. ">
<polygon fill="white" stroke="black" points="151,-224.5 151,-243.5 228,-243.5 228,-224.5 151,-224.5"/>
<text text-anchor="middle" x="189.5" y="-231.5" font-family="Helvetica,sans-Serif" font-size="10.00">ccf_group.cc</text>
</a>
</g>
</g>
<!-- Node1&#45;&gt;Node2 -->
<g id="edge1" class="edge"><title>Node1&#45;&gt;Node2</title>
<path fill="none" stroke="midnightblue" d="M311.33,-277.172C281.956,-267.004 240.302,-252.585 214.103,-243.516"/>
<polygon fill="midnightblue" stroke="midnightblue" points="310.187,-280.48 320.781,-280.444 312.476,-273.865 310.187,-280.48"/>
</g>
<!-- Node3 -->
<g id="node3" class="node"><title>Node3</title>
<g id="a_node3"><a xlink:href="fault__tree_8h.xhtml" target="_top" xlink:title="Fault Tree and Component containers. ">
<polygon fill="white" stroke="black" points="246,-224.5 246,-243.5 317,-243.5 317,-224.5 246,-224.5"/>
<text text-anchor="middle" x="281.5" y="-231.5" font-family="Helvetica,sans-Serif" font-size="10.00">fault_tree.h</text>
</a>
</g>
</g>
<!-- Node1&#45;&gt;Node3 -->
<g id="edge2" class="edge"><title>Node1&#45;&gt;Node3</title>
<path fill="none" stroke="midnightblue" d="M327.509,-273.82C316.042,-264.145 301.587,-251.948 291.97,-243.834"/>
<polygon fill="midnightblue" stroke="midnightblue" points="325.317,-276.55 335.217,-280.324 329.831,-271.2 325.317,-276.55"/>
</g>
<!-- Node5 -->
<g id="node5" class="node"><title>Node5</title>
<g id="a_node5"><a xlink:href="initializer_8h.xhtml" target="_top" xlink:title="A facility that processes input files into analysis constructs. ">
<polygon fill="white" stroke="black" points="111,-112.5 111,-131.5 178,-131.5 178,-112.5 111,-112.5"/>
<text text-anchor="middle" x="144.5" y="-119.5" font-family="Helvetica,sans-Serif" font-size="10.00">initializer.h</text>
</a>
</g>
</g>
<!-- Node1&#45;&gt;Node5 -->
<g id="edge22" class="edge"><title>Node1&#45;&gt;Node5</title>
<path fill="none" stroke="midnightblue" d="M342.548,-270.455C339.822,-256.908 334.89,-238.459 326.5,-224 309.146,-194.095 301.594,-186.682 272.5,-168 243.264,-149.227 205.225,-137.148 178.233,-130.281"/>
<polygon fill="midnightblue" stroke="midnightblue" points="339.137,-271.261 344.347,-280.486 346.027,-270.025 339.137,-271.261"/>
</g>
<!-- Node8 -->
<g id="node8" class="node"><title>Node8</title>
<g id="a_node8"><a xlink:href="model_8h.xhtml" target="_top" xlink:title="Representation for a model container for risk analysis. ">
<polygon fill="white" stroke="black" points="373.5,-168.5 373.5,-187.5 429.5,-187.5 429.5,-168.5 373.5,-168.5"/>
<text text-anchor="middle" x="401.5" y="-175.5" font-family="Helvetica,sans-Serif" font-size="10.00">model.h</text>
</a>
</g>
</g>
<!-- Node1&#45;&gt;Node8 -->
<g id="edge23" class="edge"><title>Node1&#45;&gt;Node8</title>
<path fill="none" stroke="midnightblue" d="M354.501,-271.32C366.694,-247.37 387.984,-205.548 397.126,-187.591"/>
<polygon fill="midnightblue" stroke="midnightblue" points="351.312,-269.869 349.894,-280.368 357.55,-273.045 351.312,-269.869"/>
</g>
<!-- Node11 -->
<g id="node11" class="node"><title>Node11</title>
<g id="a_node11"><a xlink:href="reporter_8cc.xhtml" target="_top" xlink:title="Implements Reporter class. ">
<polygon fill="white" stroke="black" points="473.5,-0.5 473.5,-19.5 541.5,-19.5 541.5,-0.5 473.5,-0.5"/>
<text text-anchor="middle" x="507.5" y="-7.5" font-family="Helvetica,sans-Serif" font-size="10.00">reporter.cc</text>
</a>
</g>
</g>
<!-- Node1&#45;&gt;Node11 -->
<g id="edge24" class="edge"><title>Node1&#45;&gt;Node11</title>
<path fill="none" stroke="midnightblue" d="M392.177,-285.993C456.759,-279.016 565.5,-255.856 565.5,-179 565.5,-179 565.5,-179 565.5,-121 565.5,-78.9009 531.848,-37.1134 515.81,-19.5894"/>
<polygon fill="midnightblue" stroke="midnightblue" points="391.436,-282.549 381.829,-287.014 392.124,-289.515 391.436,-282.549"/>
</g>
<!-- Node4 -->
<g id="node4" class="node"><title>Node4</title>
<g id="a_node4"><a xlink:href="fault__tree_8cc.xhtml" target="_top" xlink:title="Implementation of fault tree and component containers. ">
<polygon fill="white" stroke="black" points="165.5,-168.5 165.5,-187.5 241.5,-187.5 241.5,-168.5 165.5,-168.5"/>
<text text-anchor="middle" x="203.5" y="-175.5" font-family="Helvetica,sans-Serif" font-size="10.00">fault_tree.cc</text>
</a>
</g>
</g>
<!-- Node3&#45;&gt;Node4 -->
<g id="edge3" class="edge"><title>Node3&#45;&gt;Node4</title>
<path fill="none" stroke="midnightblue" d="M260.732,-218.622C246.483,-208.757 228.044,-195.992 216.001,-187.655"/>
<polygon fill="midnightblue" stroke="midnightblue" points="258.754,-221.51 268.968,-224.324 262.738,-215.754 258.754,-221.51"/>
</g>
<!-- Node3&#45;&gt;Node5 -->
<g id="edge4" class="edge"><title>Node3&#45;&gt;Node5</title>
<path fill="none" stroke="midnightblue" d="M276.61,-214.486C271.984,-200.156 263.742,-180.677 250.5,-168 230.427,-148.782 200.901,-137.167 178.106,-130.564"/>
<polygon fill="midnightblue" stroke="midnightblue" points="273.298,-215.628 279.466,-224.243 280.016,-213.662 273.298,-215.628"/>
</g>
<!-- Node3&#45;&gt;Node8 -->
<g id="edge7" class="edge"><title>Node3&#45;&gt;Node8</title>
<path fill="none" stroke="midnightblue" d="M309.873,-220.232C332.32,-210.131 363.035,-196.309 382.575,-187.516"/>
<polygon fill="midnightblue" stroke="midnightblue" points="308.197,-217.148 300.514,-224.444 311.07,-223.532 308.197,-217.148"/>
</g>
<!-- Node13 -->
<g id="node13" class="node"><title>Node13</title>
<g id="a_node13"><a xlink:href="risk__analysis_8cc.xhtml" target="_top" xlink:title="Implementation of risk analysis handler. ">
<polygon fill="white" stroke="black" points="271.5,-56.5 271.5,-75.5 361.5,-75.5 361.5,-56.5 271.5,-56.5"/>
<text text-anchor="middle" x="316.5" y="-63.5" font-family="Helvetica,sans-Serif" font-size="10.00">risk_analysis.cc</text>
</a>
</g>
</g>
<!-- Node3&#45;&gt;Node13 -->
<g id="edge20" class="edge"><title>Node3&#45;&gt;Node13</title>
<path fill="none" stroke="midnightblue" d="M285.521,-213.93C293.113,-177.92 309.283,-101.231 314.693,-75.5681"/>
<polygon fill="midnightblue" stroke="midnightblue" points="282.02,-213.568 283.382,-224.075 288.87,-215.012 282.02,-213.568"/>
</g>
<!-- Node15 -->
<g id="node15" class="node"><title>Node15</title>
<g id="a_node15"><a xlink:href="serialization_8cc.xhtml" target="_top" xlink:title="serialization.cc">
<polygon fill="white" stroke="black" points="128,-56.5 128,-75.5 215,-75.5 215,-56.5 128,-56.5"/>
<text text-anchor="middle" x="171.5" y="-63.5" font-family="Helvetica,sans-Serif" font-size="10.00">serialization.cc</text>
</a>
</g>
</g>
<!-- Node3&#45;&gt;Node15 -->
<g id="edge21" class="edge"><title>Node3&#45;&gt;Node15</title>
<path fill="none" stroke="midnightblue" d="M236.016,-221.973C211.263,-214.694 180.821,-203.588 156.5,-188 127.13,-169.175 114.705,-164.29 101.5,-132 98.1354,-123.772 97.2406,-119.802 101.5,-112 111.123,-94.374 130.933,-82.622 147.031,-75.5617"/>
<polygon fill="midnightblue" stroke="midnightblue" points="235.318,-225.413 245.893,-224.766 237.222,-218.677 235.318,-225.413"/>
</g>
<!-- Node6 -->
<g id="node6" class="node"><title>Node6</title>
<g id="a_node6"><a xlink:href="initializer_8cc.xhtml" target="_top" xlink:title="Implementation of input file processing into analysis constructs. ">
<polygon fill="white" stroke="black" points="0,-56.5 0,-75.5 71,-75.5 71,-56.5 0,-56.5"/>
<text text-anchor="middle" x="35.5" y="-63.5" font-family="Helvetica,sans-Serif" font-size="10.00">initializer.cc</text>
</a>
</g>
</g>
<!-- Node5&#45;&gt;Node6 -->
<g id="edge5" class="edge"><title>Node5&#45;&gt;Node6</title>
<path fill="none" stroke="midnightblue" d="M117.981,-107.862C97.7697,-97.8492 70.5129,-84.3458 52.9693,-75.6545"/>
<polygon fill="midnightblue" stroke="midnightblue" points="116.473,-111.021 126.987,-112.324 119.58,-104.748 116.473,-111.021"/>
</g>
<!-- Node7 -->
<g id="node7" class="node"><title>Node7</title>
<g id="a_node7"><a xlink:href="scram_8cc.xhtml" target="_top" xlink:title="Main entrance. ">
<polygon fill="white" stroke="black" points="286.5,-0.5 286.5,-19.5 346.5,-19.5 346.5,-0.5 286.5,-0.5"/>
<text text-anchor="middle" x="316.5" y="-7.5" font-family="Helvetica,sans-Serif" font-size="10.00">scram.cc</text>
</a>
</g>
</g>
<!-- Node5&#45;&gt;Node7 -->
<g id="edge6" class="edge"><title>Node5&#45;&gt;Node7</title>
<path fill="none" stroke="midnightblue" d="M129.126,-104.326C118.113,-90.3059 107.072,-70.3166 118.5,-56 139.172,-30.1024 236.265,-17.9731 286.387,-13.3567"/>
<polygon fill="midnightblue" stroke="midnightblue" points="126.645,-106.812 135.779,-112.18 131.986,-102.287 126.645,-106.812"/>
</g>
<!-- Node8&#45;&gt;Node5 -->
<g id="edge8" class="edge"><title>Node8&#45;&gt;Node5</title>
<path fill="none" stroke="midnightblue" d="M363.373,-168.82C362.066,-168.543 360.772,-168.269 359.5,-168 282.659,-151.772 263.341,-148.228 186.5,-132 183.873,-131.445 181.155,-130.869 178.422,-130.287"/>
<polygon fill="midnightblue" stroke="midnightblue" points="362.981,-172.315 373.491,-170.974 364.439,-165.468 362.981,-172.315"/>
</g>
<!-- Node9 -->
<g id="node9" class="node"><title>Node9</title>
<g id="a_node9"><a xlink:href="model_8cc.xhtml" target="_top" xlink:title="Implementation of functions in Model class. ">
<polygon fill="white" stroke="black" points="477.5,-112.5 477.5,-131.5 537.5,-131.5 537.5,-112.5 477.5,-112.5"/>
<text text-anchor="middle" x="507.5" y="-119.5" font-family="Helvetica,sans-Serif" font-size="10.00">model.cc</text>
</a>
</g>
</g>
<!-- Node8&#45;&gt;Node9 -->
<g id="edge9" class="edge"><title>Node8&#45;&gt;Node9</title>
<path fill="none" stroke="midnightblue" d="M427.556,-163.726C447.184,-153.727 473.528,-140.307 490.512,-131.655"/>
<polygon fill="midnightblue" stroke="midnightblue" points="425.852,-160.666 418.531,-168.324 429.03,-166.903 425.852,-160.666"/>
</g>
<!-- Node10 -->
<g id="node10" class="node"><title>Node10</title>
<g id="a_node10"><a xlink:href="reporter_8h.xhtml" target="_top" xlink:title="Reporter of results. ">
<polygon fill="white" stroke="black" points="417.5,-56.5 417.5,-75.5 481.5,-75.5 481.5,-56.5 417.5,-56.5"/>
<text text-anchor="middle" x="449.5" y="-63.5" font-family="Helvetica,sans-Serif" font-size="10.00">reporter.h</text>
</a>
</g>
</g>
<!-- Node8&#45;&gt;Node10 -->
<g id="edge10" class="edge"><title>Node8&#45;&gt;Node10</title>
<path fill="none" stroke="midnightblue" d="M413.978,-160.197C419.619,-152.01 426.011,-141.828 430.5,-132 439.292,-112.75 445.113,-88.4354 447.795,-75.6951"/>
<polygon fill="midnightblue" stroke="midnightblue" points="411.034,-158.297 408.069,-168.468 416.73,-162.366 411.034,-158.297"/>
</g>
<!-- Node12 -->
<g id="node12" class="node"><title>Node12</title>
<g id="a_node12"><a xlink:href="risk__analysis_8h.xhtml" target="_top" xlink:title="Contains the main system for performing analysis. ">
<polygon fill="white" stroke="black" points="335.5,-112.5 335.5,-131.5 421.5,-131.5 421.5,-112.5 335.5,-112.5"/>
<text text-anchor="middle" x="378.5" y="-119.5" font-family="Helvetica,sans-Serif" font-size="10.00">risk_analysis.h</text>
</a>
</g>
</g>
<!-- Node8&#45;&gt;Node12 -->
<g id="edge13" class="edge"><title>Node8&#45;&gt;Node12</title>
<path fill="none" stroke="midnightblue" d="M393.701,-158.69C389.825,-149.589 385.321,-139.014 382.227,-131.751"/>
<polygon fill="midnightblue" stroke="midnightblue" points="390.563,-160.254 397.702,-168.083 397.003,-157.511 390.563,-160.254"/>
</g>
<!-- Node14 -->
<g id="node14" class="node"><title>Node14</title>
<g id="a_node14"><a xlink:href="serialization_8h.xhtml" target="_top" xlink:title="The MEF Model serialization facilities. ">
<polygon fill="white" stroke="black" points="196,-112.5 196,-131.5 279,-131.5 279,-112.5 196,-112.5"/>
<text text-anchor="middle" x="237.5" y="-119.5" font-family="Helvetica,sans-Serif" font-size="10.00">serialization.h</text>
</a>
</g>
</g>
<!-- Node8&#45;&gt;Node14 -->
<g id="edge17" class="edge"><title>Node8&#45;&gt;Node14</title>
<path fill="none" stroke="midnightblue" d="M365.98,-165.304C335.078,-155.129 291.027,-140.625 263.365,-131.516"/>
<polygon fill="midnightblue" stroke="midnightblue" points="364.921,-168.64 375.514,-168.444 367.11,-161.992 364.921,-168.64"/>
</g>
<!-- Node10&#45;&gt;Node7 -->
<g id="edge12" class="edge"><title>Node10&#45;&gt;Node7</title>
<path fill="none" stroke="midnightblue" d="M419.052,-52.6377C394.093,-42.504 359.423,-28.4274 337.476,-19.5164"/>
<polygon fill="midnightblue" stroke="midnightblue" points="417.844,-55.9245 428.426,-56.4435 420.477,-49.4387 417.844,-55.9245"/>
</g>
<!-- Node10&#45;&gt;Node11 -->
<g id="edge11" class="edge"><title>Node10&#45;&gt;Node11</title>
<path fill="none" stroke="midnightblue" d="M466.413,-49.2533C476.703,-39.6731 489.466,-27.7906 498.012,-19.8339"/>
<polygon fill="midnightblue" stroke="midnightblue" points="463.753,-46.9481 458.819,-56.324 468.523,-52.0714 463.753,-46.9481"/>
</g>
<!-- Node12&#45;&gt;Node7 -->
<g id="edge16" class="edge"><title>Node12&#45;&gt;Node7</title>
<path fill="none" stroke="midnightblue" d="M379.752,-102.297C379.85,-88.672 378.24,-70.1932 370.5,-56 361.794,-40.0363 344.93,-27.4111 332.352,-19.6461"/>
<polygon fill="midnightblue" stroke="midnightblue" points="376.25,-102.274 379.365,-112.4 383.245,-102.542 376.25,-102.274"/>
</g>
<!-- Node12&#45;&gt;Node10 -->
<g id="edge14" class="edge"><title>Node12&#45;&gt;Node10</title>
<path fill="none" stroke="midnightblue" d="M398.09,-106.101C410.868,-96.3824 427.113,-84.0269 437.885,-75.8339"/>
<polygon fill="midnightblue" stroke="midnightblue" points="395.748,-103.484 389.907,-112.324 399.986,-109.056 395.748,-103.484"/>
</g>
<!-- Node12&#45;&gt;Node13 -->
<g id="edge15" class="edge"><title>Node12&#45;&gt;Node13</title>
<path fill="none" stroke="midnightblue" d="M360.746,-105.537C349.692,-95.9087 335.869,-83.8694 326.643,-75.8339"/>
<polygon fill="midnightblue" stroke="midnightblue" points="358.699,-108.395 368.539,-112.324 363.297,-103.117 358.699,-108.395"/>
</g>
<!-- Node14&#45;&gt;Node7 -->
<g id="edge18" class="edge"><title>Node14&#45;&gt;Node7</title>
<path fill="none" stroke="midnightblue" d="M241.878,-102.577C245.754,-88.8489 252.389,-70.1153 262.5,-56 273.302,-40.9205 290.314,-27.8837 302.353,-19.7799"/>
<polygon fill="midnightblue" stroke="midnightblue" points="238.471,-101.772 239.347,-112.33 245.247,-103.53 238.471,-101.772"/>
</g>
<!-- Node14&#45;&gt;Node15 -->
<g id="edge19" class="edge"><title>Node14&#45;&gt;Node15</title>
<path fill="none" stroke="midnightblue" d="M218.946,-105.82C207.122,-96.1452 192.214,-83.9481 182.297,-75.8339"/>
<polygon fill="midnightblue" stroke="midnightblue" points="216.94,-108.7 226.896,-112.324 221.373,-103.283 216.94,-108.7"/>
</g>
</g>
</svg>
