<?xml version="1.0" encoding="UTF-8" standalone="no"?>
<!DOCTYPE svg PUBLIC "-//W3C//DTD SVG 1.1//EN"
 "http://www.w3.org/Graphics/SVG/1.1/DTD/svg11.dtd">
<!-- Generated by graphviz version 2.38.0 (20140413.2041)
 -->
<!-- Title: ccf_group.h Pages: 1 -->
<!--zoomable 274 -->
<svg id="main" version="1.1" xmlns="http://www.w3.org/2000/svg" xmlns:xlink="http://www.w3.org/1999/xlink" xml:space="preserve" onload="init(evt)">
<style type="text/css"><![CDATA[
.edge:hover path { stroke: red; }
.edge:hover polygon { stroke: red; fill: red; }
]]></style>
<script type="text/javascript"><![CDATA[
var edges = document.getElementsByTagName('g');
if (edges && edges.length) {
  for (var i=0;i<edges.length;i++) {
    if (edges[i].id.substr(0,4)=='edge') {
      edges[i].setAttribute('class','edge');
    }
  }
}
]]></script>
        <defs>
                <circle id="rim" cx="0" cy="0" r="7"/>
                <circle id="rim2" cx="0" cy="0" r="3.5"/>
                <g id="zoomPlus">
                        <use xlink:href="#rim" fill="#404040">
                                <set attributeName="fill" to="#808080" begin="zoomplus.mouseover" end="zoomplus.mouseout"/>
                        </use>
                        <path d="M-4,0h8M0,-4v8" fill="none" stroke="white" stroke-width="1.5" pointer-events="none"/>
                </g>
                <g id="zoomMin">
                        <use xlink:href="#rim" fill="#404040">
                                <set attributeName="fill" to="#808080" begin="zoomminus.mouseover" end="zoomminus.mouseout"/>
                        </use>
                        <path d="M-4,0h8" fill="none" stroke="white" stroke-width="1.5" pointer-events="none"/>
                </g>
                <g id="dirArrow">
                        <path fill="none" stroke="white" stroke-width="1.5" d="M0,-3.0v7 M-2.5,-0.5L0,-3.0L2.5,-0.5"/>
                </g>
               <g id="resetDef">
                       <use xlink:href="#rim2" fill="#404040">
                               <set attributeName="fill" to="#808080" begin="reset.mouseover" end="reset.mouseout"/>
                       </use>
               </g>
        </defs>

<script type="text/javascript">
var viewWidth = 1244;
var viewHeight = 274;
var sectionId = 'dynsection-0';
</script>
<script xlink:href="svgpan.js"/>
<svg id="graph" class="graph">
<g id="viewport">
<title>ccf_group.h</title>
<polygon fill="white" stroke="none" points="-4,4 -4,-270 1239.86,-270 1239.86,4 -4,4"/>
<!-- Node1 -->
<g id="node1" class="node"><title>Node1</title>
<polygon fill="#bfbfbf" stroke="black" points="507.86,-246.5 507.86,-265.5 579.86,-265.5 579.86,-246.5 507.86,-246.5"/>
<text text-anchor="middle" x="543.86" y="-253.5" font-family="Helvetica,sans-Serif" font-size="10.00">ccf_group.h</text>
</g>
<!-- Node2 -->
<g id="node2" class="node"><title>Node2</title>
<polygon fill="white" stroke="#bfbfbf" points="19.3599,-134.5 19.3599,-153.5 76.3599,-153.5 76.3599,-134.5 19.3599,-134.5"/>
<text text-anchor="middle" x="47.8599" y="-141.5" font-family="Helvetica,sans-Serif" font-size="10.00">memory</text>
</g>
<!-- Node1&#45;&gt;Node2 -->
<g id="edge1" class="edge"><title>Node1&#45;&gt;Node2</title>
<path fill="none" stroke="midnightblue" d="M507.475,-249.711C457.489,-242.2 364.892,-227.404 286.86,-210 215.111,-193.998 132.607,-170.381 85.7086,-156.456"/>
<polygon fill="midnightblue" stroke="midnightblue" points="86.5617,-153.058 75.9785,-153.554 84.5611,-159.766 86.5617,-153.058"/>
</g>
<!-- Node3 -->
<g id="node3" class="node"><title>Node3</title>
<polygon fill="white" stroke="#bfbfbf" points="819.86,-6 819.86,-25 863.86,-25 863.86,-6 819.86,-6"/>
<text text-anchor="middle" x="841.86" y="-13" font-family="Helvetica,sans-Serif" font-size="10.00">string</text>
</g>
<!-- Node1&#45;&gt;Node3 -->
<g id="edge2" class="edge"><title>Node1&#45;&gt;Node3</title>
<path fill="none" stroke="midnightblue" d="M580.064,-255.495C669.428,-254.493 900.231,-237.877 996.86,-98 1004.69,-86.6641 1005.12,-78.0261 996.86,-67 962.705,-21.416 927.266,-50.8036 873.86,-31 872.248,-30.4023 870.603,-29.7604 868.952,-29.0913"/>
<polygon fill="midnightblue" stroke="midnightblue" points="870.184,-25.8114 859.614,-25.08 867.421,-32.243 870.184,-25.8114"/>
</g>
<!-- Node4 -->
<g id="node4" class="node"><title>Node4</title>
<polygon fill="white" stroke="#bfbfbf" points="1043.86,-190.5 1043.86,-209.5 1111.86,-209.5 1111.86,-190.5 1043.86,-190.5"/>
<text text-anchor="middle" x="1077.86" y="-197.5" font-family="Helvetica,sans-Serif" font-size="10.00">type_traits</text>
</g>
<!-- Node1&#45;&gt;Node4 -->
<g id="edge3" class="edge"><title>Node1&#45;&gt;Node4</title>
<path fill="none" stroke="midnightblue" d="M579.964,-252.81C660.809,-247.655 862.438,-233.395 1029.86,-210 1031.14,-209.822 1032.43,-209.633 1033.73,-209.436"/>
<polygon fill="midnightblue" stroke="midnightblue" points="1034.53,-212.852 1043.84,-207.784 1033.4,-205.943 1034.53,-212.852"/>
</g>
<!-- Node5 -->
<g id="node5" class="node"><title>Node5</title>
<polygon fill="white" stroke="#bfbfbf" points="945.86,-73 945.86,-92 987.86,-92 987.86,-73 945.86,-73"/>
<text text-anchor="middle" x="966.86" y="-80" font-family="Helvetica,sans-Serif" font-size="10.00">utility</text>
</g>
<!-- Node1&#45;&gt;Node5 -->
<g id="edge4" class="edge"><title>Node1&#45;&gt;Node5</title>
<path fill="none" stroke="midnightblue" d="M567.129,-246.358C628.284,-223.506 798.363,-159.044 936.86,-98 938.021,-97.4882 939.204,-96.9576 940.395,-96.4152"/>
<polygon fill="midnightblue" stroke="midnightblue" points="941.938,-99.5573 949.506,-92.1425 938.966,-93.2196 941.938,-99.5573"/>
</g>
<!-- Node6 -->
<g id="node6" class="node"><title>Node6</title>
<polygon fill="white" stroke="#bfbfbf" points="162.36,-6 162.36,-25 209.36,-25 209.36,-6 162.36,-6"/>
<text text-anchor="middle" x="185.86" y="-13" font-family="Helvetica,sans-Serif" font-size="10.00">vector</text>
</g>
<!-- Node1&#45;&gt;Node6 -->
<g id="edge5" class="edge"><title>Node1&#45;&gt;Node6</title>
<path fill="none" stroke="midnightblue" d="M507.676,-254.17C397.509,-250.779 70.0495,-234.021 9.85985,-154 -35.4017,-93.8253 89.274,-45.8242 152.118,-26.1527"/>
<polygon fill="midnightblue" stroke="midnightblue" points="153.458,-29.403 161.999,-23.1335 151.412,-22.7086 153.458,-29.403"/>
</g>
<!-- Node7 -->
<g id="node7" class="node"><title>Node7</title>
<polygon fill="white" stroke="#bfbfbf" points="411.86,-73 411.86,-92 539.86,-92 539.86,-73 411.86,-73"/>
<text text-anchor="middle" x="475.86" y="-80" font-family="Helvetica,sans-Serif" font-size="10.00">boost/noncopyable.hpp</text>
</g>
<!-- Node1&#45;&gt;Node7 -->
<g id="edge6" class="edge"><title>Node1&#45;&gt;Node7</title>
<path fill="none" stroke="midnightblue" d="M540.394,-246.26C529.753,-219.421 497.397,-137.818 482.953,-101.39"/>
<polygon fill="midnightblue" stroke="midnightblue" points="486.177,-100.025 479.238,-92.0194 479.67,-102.605 486.177,-100.025"/>
</g>
<!-- Node8 -->
<g id="node8" class="node"><title>Node8</title>
<polygon fill="white" stroke="#bfbfbf" points="1129.86,-190.5 1129.86,-209.5 1235.86,-209.5 1235.86,-190.5 1129.86,-190.5"/>
<text text-anchor="middle" x="1182.86" y="-197.5" font-family="Helvetica,sans-Serif" font-size="10.00">boost/optional.hpp</text>
</g>
<!-- Node1&#45;&gt;Node8 -->
<g id="edge7" class="edge"><title>Node1&#45;&gt;Node8</title>
<path fill="none" stroke="midnightblue" d="M580.058,-253.014C669.676,-247.917 909.253,-233.202 1119.79,-210.049"/>
<polygon fill="midnightblue" stroke="midnightblue" points="1120.24,-213.521 1129.79,-208.94 1119.46,-206.563 1120.24,-213.521"/>
</g>
<!-- Node9 -->
<g id="node9" class="node"><title>Node9</title>
<g id="a_node9"><a xlink:href="element_8h.xhtml" target="_top" xlink:title="Helper classes, structs, and properties common to all other classes. ">
<polygon fill="white" stroke="black" points="290.36,-73 290.36,-92 355.36,-92 355.36,-73 290.36,-73"/>
<text text-anchor="middle" x="322.86" y="-80" font-family="Helvetica,sans-Serif" font-size="10.00">element.h</text>
</a>
</g>
</g>
<!-- Node1&#45;&gt;Node9 -->
<g id="edge8" class="edge"><title>Node1&#45;&gt;Node9</title>
<path fill="none" stroke="midnightblue" d="M532.9,-246.495C497.626,-219.122 386.733,-133.067 341.924,-98.2943"/>
<polygon fill="midnightblue" stroke="midnightblue" points="343.931,-95.4217 333.885,-92.056 339.64,-100.952 343.931,-95.4217"/>
</g>
<!-- Node14 -->
<g id="node14" class="node"><title>Node14</title>
<g id="a_node14"><a xlink:href="event_8h.xhtml" target="_top" xlink:title="Contains event classes for fault trees. ">
<polygon fill="white" stroke="black" points="296.36,-190.5 296.36,-209.5 349.36,-209.5 349.36,-190.5 296.36,-190.5"/>
<text text-anchor="middle" x="322.86" y="-197.5" font-family="Helvetica,sans-Serif" font-size="10.00">event.h</text>
</a>
</g>
</g>
<!-- Node1&#45;&gt;Node14 -->
<g id="edge15" class="edge"><title>Node1&#45;&gt;Node14</title>
<path fill="none" stroke="midnightblue" d="M508.842,-246.444C468,-236.464 400.806,-220.046 359.345,-209.915"/>
<polygon fill="midnightblue" stroke="midnightblue" points="359.936,-206.456 349.391,-207.483 358.274,-213.256 359.936,-206.456"/>
</g>
<!-- Node16 -->
<g id="node16" class="node"><title>Node16</title>
<g id="a_node16"><a xlink:href="expression_8h.xhtml" target="_top" xlink:title="Provides the base class for all expressions and units for expression values. ">
<polygon fill="white" stroke="black" points="550.36,-134.5 550.36,-153.5 627.36,-153.5 627.36,-134.5 550.36,-134.5"/>
<text text-anchor="middle" x="588.86" y="-141.5" font-family="Helvetica,sans-Serif" font-size="10.00">expression.h</text>
</a>
</g>
</g>
<!-- Node1&#45;&gt;Node16 -->
<g id="edge35" class="edge"><title>Node1&#45;&gt;Node16</title>
<path fill="none" stroke="midnightblue" d="M547.391,-246.368C554.719,-228.456 571.709,-186.923 581.517,-162.948"/>
<polygon fill="midnightblue" stroke="midnightblue" points="584.798,-164.172 585.345,-153.591 578.319,-161.522 584.798,-164.172"/>
</g>
<!-- Node9&#45;&gt;Node3 -->
<g id="edge10" class="edge"><title>Node9&#45;&gt;Node3</title>
<path fill="none" stroke="midnightblue" d="M347.003,-72.9777C354.269,-70.7058 362.318,-68.4756 369.86,-67 550.249,-31.7083 600.462,-60.6721 781.86,-31 791.081,-29.4917 800.98,-27.3289 810.027,-25.1323"/>
<polygon fill="midnightblue" stroke="midnightblue" points="810.954,-28.5081 819.796,-22.6711 809.244,-21.7202 810.954,-28.5081"/>
</g>
<!-- Node9&#45;&gt;Node6 -->
<g id="edge11" class="edge"><title>Node9&#45;&gt;Node6</title>
<path fill="none" stroke="midnightblue" d="M304.667,-72.8685C281.33,-61.7961 240.631,-42.4862 213.466,-29.5978"/>
<polygon fill="midnightblue" stroke="midnightblue" points="214.663,-26.2916 204.128,-25.1672 211.662,-32.6159 214.663,-26.2916"/>
</g>
<!-- Node10 -->
<g id="node10" class="node"><title>Node10</title>
<polygon fill="white" stroke="#bfbfbf" points="227.36,-6 227.36,-25 276.36,-25 276.36,-6 227.36,-6"/>
<text text-anchor="middle" x="251.86" y="-13" font-family="Helvetica,sans-Serif" font-size="10.00">cstdint</text>
</g>
<!-- Node9&#45;&gt;Node10 -->
<g id="edge9" class="edge"><title>Node9&#45;&gt;Node10</title>
<path fill="none" stroke="midnightblue" d="M313.284,-72.7338C301.894,-62.3055 282.673,-44.7088 268.761,-31.9732"/>
<polygon fill="midnightblue" stroke="midnightblue" points="271.023,-29.2983 261.284,-25.1273 266.296,-34.4614 271.023,-29.2983"/>
</g>
<!-- Node11 -->
<g id="node11" class="node"><title>Node11</title>
<polygon fill="white" stroke="#bfbfbf" points="600.86,-6 600.86,-25 772.86,-25 772.86,-6 600.86,-6"/>
<text text-anchor="middle" x="686.86" y="-13" font-family="Helvetica,sans-Serif" font-size="10.00">boost/multi_index_container.hpp</text>
</g>
<!-- Node9&#45;&gt;Node11 -->
<g id="edge12" class="edge"><title>Node9&#45;&gt;Node11</title>
<path fill="none" stroke="midnightblue" d="M348.539,-72.8604C355.412,-70.7455 362.874,-68.6256 369.86,-67 382.028,-64.1688 532.717,-40.5211 621.877,-26.6119"/>
<polygon fill="midnightblue" stroke="midnightblue" points="622.559,-30.048 631.9,-25.0489 621.48,-23.1316 622.559,-30.048"/>
</g>
<!-- Node12 -->
<g id="node12" class="node"><title>Node12</title>
<polygon fill="white" stroke="#bfbfbf" points="294.86,-0.5 294.86,-30.5 434.86,-30.5 434.86,-0.5 294.86,-0.5"/>
<text text-anchor="start" x="302.86" y="-18.5" font-family="Helvetica,sans-Serif" font-size="10.00">boost/multi_index/hashed</text>
<text text-anchor="middle" x="364.86" y="-7.5" font-family="Helvetica,sans-Serif" font-size="10.00">_index.hpp</text>
</g>
<!-- Node9&#45;&gt;Node12 -->
<g id="edge13" class="edge"><title>Node9&#45;&gt;Node12</title>
<path fill="none" stroke="midnightblue" d="M328.524,-72.7338C334.091,-64.1183 342.82,-50.61 350.326,-38.9923"/>
<polygon fill="midnightblue" stroke="midnightblue" points="353.269,-40.8877 355.756,-30.589 347.389,-37.0887 353.269,-40.8877"/>
</g>
<!-- Node13 -->
<g id="node13" class="node"><title>Node13</title>
<polygon fill="white" stroke="#bfbfbf" points="452.86,-0.5 452.86,-30.5 582.86,-30.5 582.86,-0.5 452.86,-0.5"/>
<text text-anchor="start" x="460.86" y="-18.5" font-family="Helvetica,sans-Serif" font-size="10.00">boost/multi_index/mem</text>
<text text-anchor="middle" x="517.86" y="-7.5" font-family="Helvetica,sans-Serif" font-size="10.00">_fun.hpp</text>
</g>
<!-- Node9&#45;&gt;Node13 -->
<g id="edge14" class="edge"><title>Node9&#45;&gt;Node13</title>
<path fill="none" stroke="midnightblue" d="M348.754,-72.8685C378.521,-62.9461 428.134,-46.4085 465.945,-33.8051"/>
<polygon fill="midnightblue" stroke="midnightblue" points="467.396,-37.0108 475.776,-30.5281 465.182,-30.37 467.396,-37.0108"/>
</g>
<!-- Node14&#45;&gt;Node2 -->
<g id="edge17" class="edge"><title>Node14&#45;&gt;Node2</title>
<path fill="none" stroke="midnightblue" d="M296.356,-194.451C254.029,-187.086 168.35,-171.772 86.4724,-154.269"/>
<polygon fill="midnightblue" stroke="midnightblue" points="87.0221,-150.807 76.5094,-152.124 85.5486,-157.65 87.0221,-150.807"/>
</g>
<!-- Node14&#45;&gt;Node3 -->
<g id="edge18" class="edge"><title>Node14&#45;&gt;Node3</title>
<path fill="none" stroke="midnightblue" d="M325.162,-190.296C332.118,-165.91 355.418,-96.7644 402.86,-67 474.524,-22.0382 698.42,-44.972 781.86,-31 791.075,-29.4569 800.973,-27.283 810.019,-25.087"/>
<polygon fill="midnightblue" stroke="midnightblue" points="810.945,-28.4633 819.79,-22.6306 809.238,-21.6745 810.945,-28.4633"/>
</g>
<!-- Node14&#45;&gt;Node6 -->
<g id="edge19" class="edge"><title>Node14&#45;&gt;Node6</title>
<path fill="none" stroke="midnightblue" d="M313.872,-190.379C296.675,-173.606 258.461,-134.978 231.86,-98 217.088,-77.4658 203.27,-51.7646 194.709,-34.7757"/>
<polygon fill="midnightblue" stroke="midnightblue" points="197.667,-32.8602 190.097,-25.4476 191.392,-35.963 197.667,-32.8602"/>
</g>
<!-- Node14&#45;&gt;Node7 -->
<g id="edge20" class="edge"><title>Node14&#45;&gt;Node7</title>
<path fill="none" stroke="midnightblue" d="M339.24,-190.383C354.836,-181.902 378.705,-168.193 397.86,-154 420.84,-136.973 444.91,-114.379 460.127,-99.4105"/>
<polygon fill="midnightblue" stroke="midnightblue" points="462.604,-101.883 467.225,-92.3482 457.667,-96.9205 462.604,-101.883"/>
</g>
<!-- Node14&#45;&gt;Node9 -->
<g id="edge22" class="edge"><title>Node14&#45;&gt;Node9</title>
<path fill="none" stroke="midnightblue" d="M322.86,-190.319C322.86,-171.757 322.86,-127.839 322.86,-102.473"/>
<polygon fill="midnightblue" stroke="midnightblue" points="326.36,-102.282 322.86,-92.282 319.36,-102.282 326.36,-102.282"/>
</g>
<!-- Node14&#45;&gt;Node10 -->
<g id="edge16" class="edge"><title>Node14&#45;&gt;Node10</title>
<path fill="none" stroke="midnightblue" d="M319.111,-190.415C311.577,-173.068 294.181,-132.552 280.86,-98 272.528,-76.3893 263.711,-51.2391 258.016,-34.6565"/>
<polygon fill="midnightblue" stroke="midnightblue" points="261.304,-33.4535 254.761,-25.1199 254.679,-35.7144 261.304,-33.4535"/>
</g>
<!-- Node15 -->
<g id="node15" class="node"><title>Node15</title>
<polygon fill="white" stroke="#bfbfbf" points="94.3599,-134.5 94.3599,-153.5 195.36,-153.5 195.36,-134.5 94.3599,-134.5"/>
<text text-anchor="middle" x="144.86" y="-141.5" font-family="Helvetica,sans-Serif" font-size="10.00">boost/variant.hpp</text>
</g>
<!-- Node14&#45;&gt;Node15 -->
<g id="edge21" class="edge"><title>Node14&#45;&gt;Node15</title>
<path fill="none" stroke="midnightblue" d="M296.211,-190.916C266.111,-181.784 216.889,-166.851 182.787,-156.506"/>
<polygon fill="midnightblue" stroke="midnightblue" points="183.749,-153.14 173.164,-153.587 181.717,-159.839 183.749,-153.14"/>
</g>
<!-- Node14&#45;&gt;Node16 -->
<g id="edge23" class="edge"><title>Node14&#45;&gt;Node16</title>
<path fill="none" stroke="midnightblue" d="M349.829,-193.525C394.468,-184.463 484.325,-166.221 540.255,-154.867"/>
<polygon fill="midnightblue" stroke="midnightblue" points="541.181,-158.251 550.284,-152.831 539.788,-151.391 541.181,-158.251"/>
</g>
<!-- Node16&#45;&gt;Node3 -->
<g id="edge26" class="edge"><title>Node16&#45;&gt;Node3</title>
<path fill="none" stroke="midnightblue" d="M627.493,-141.326C689.133,-137.797 805.577,-127.333 832.86,-98 848.355,-81.3402 848.01,-53.7152 845.564,-35.3105"/>
<polygon fill="midnightblue" stroke="midnightblue" points="848.98,-34.5162 843.893,-25.223 842.075,-35.6607 848.98,-34.5162"/>
</g>
<!-- Node16&#45;&gt;Node5 -->
<g id="edge27" class="edge"><title>Node16&#45;&gt;Node5</title>
<path fill="none" stroke="midnightblue" d="M627.541,-142.03C692.678,-139.513 827.824,-130.468 936.86,-98 938.731,-97.4428 940.63,-96.7805 942.518,-96.0505"/>
<polygon fill="midnightblue" stroke="midnightblue" points="943.936,-99.2502 951.671,-92.0094 941.109,-92.8466 943.936,-99.2502"/>
</g>
<!-- Node16&#45;&gt;Node6 -->
<g id="edge28" class="edge"><title>Node16&#45;&gt;Node6</title>
<path fill="none" stroke="midnightblue" d="M550.148,-140.044C478.499,-134.132 328.202,-119.544 280.86,-98 247.263,-82.7107 216.425,-51.8292 199.477,-32.7786"/>
<polygon fill="midnightblue" stroke="midnightblue" points="202.094,-30.4544 192.901,-25.1873 196.803,-35.0375 202.094,-30.4544"/>
</g>
<!-- Node16&#45;&gt;Node7 -->
<g id="edge30" class="edge"><title>Node16&#45;&gt;Node7</title>
<path fill="none" stroke="midnightblue" d="M572.67,-134.475C553.957,-124.622 522.937,-108.288 501.061,-96.7697"/>
<polygon fill="midnightblue" stroke="midnightblue" points="502.499,-93.5713 492.02,-92.0091 499.238,-99.7651 502.499,-93.5713"/>
</g>
<!-- Node16&#45;&gt;Node9 -->
<g id="edge31" class="edge"><title>Node16&#45;&gt;Node9</title>
<path fill="none" stroke="midnightblue" d="M550.749,-134.475C501.694,-123.502 416.705,-104.492 365.534,-93.0455"/>
<polygon fill="midnightblue" stroke="midnightblue" points="365.985,-89.56 355.462,-90.7926 364.457,-96.3912 365.985,-89.56"/>
</g>
<!-- Node17 -->
<g id="node17" class="node"><title>Node17</title>
<polygon fill="white" stroke="#bfbfbf" points="557.86,-73 557.86,-92 619.86,-92 619.86,-73 557.86,-73"/>
<text text-anchor="middle" x="588.86" y="-80" font-family="Helvetica,sans-Serif" font-size="10.00">algorithm</text>
</g>
<!-- Node16&#45;&gt;Node17 -->
<g id="edge24" class="edge"><title>Node16&#45;&gt;Node17</title>
<path fill="none" stroke="midnightblue" d="M588.86,-134.475C588.86,-126.08 588.86,-112.981 588.86,-102.163"/>
<polygon fill="midnightblue" stroke="midnightblue" points="592.36,-102.009 588.86,-92.0091 585.36,-102.009 592.36,-102.009"/>
</g>
<!-- Node18 -->
<g id="node18" class="node"><title>Node18</title>
<polygon fill="white" stroke="#bfbfbf" points="637.86,-73 637.86,-92 693.86,-92 693.86,-73 637.86,-73"/>
<text text-anchor="middle" x="665.86" y="-80" font-family="Helvetica,sans-Serif" font-size="10.00">sstream</text>
</g>
<!-- Node16&#45;&gt;Node18 -->
<g id="edge25" class="edge"><title>Node16&#45;&gt;Node18</title>
<path fill="none" stroke="midnightblue" d="M599.892,-134.475C612.128,-125.02 632.088,-109.596 646.853,-98.1871"/>
<polygon fill="midnightblue" stroke="midnightblue" points="649.075,-100.893 654.848,-92.0091 644.795,-95.3541 649.075,-100.893"/>
</g>
<!-- Node19 -->
<g id="node19" class="node"><title>Node19</title>
<polygon fill="white" stroke="#bfbfbf" points="711.86,-67.5 711.86,-97.5 823.86,-97.5 823.86,-67.5 711.86,-67.5"/>
<text text-anchor="start" x="719.86" y="-85.5" font-family="Helvetica,sans-Serif" font-size="10.00">boost/icl/continuous</text>
<text text-anchor="middle" x="767.86" y="-74.5" font-family="Helvetica,sans-Serif" font-size="10.00">_interval.hpp</text>
</g>
<!-- Node16&#45;&gt;Node19 -->
<g id="edge29" class="edge"><title>Node16&#45;&gt;Node19</title>
<path fill="none" stroke="midnightblue" d="M614.506,-134.475C640.902,-125.701 682.758,-111.788 716.078,-100.712"/>
<polygon fill="midnightblue" stroke="midnightblue" points="717.288,-103.999 725.673,-97.523 715.08,-97.356 717.288,-103.999"/>
</g>
<!-- Node20 -->
<g id="node20" class="node"><title>Node20</title>
<g id="a_node20"><a xlink:href="error_8h.xhtml" target="_top" xlink:title="Exceptions for SCRAM. ">
<polygon fill="white" stroke="black" points="879.86,-73 879.86,-92 927.86,-92 927.86,-73 879.86,-73"/>
<text text-anchor="middle" x="903.86" y="-80" font-family="Helvetica,sans-Serif" font-size="10.00">error.h</text>
</a>
</g>
</g>
<!-- Node16&#45;&gt;Node20 -->
<g id="edge32" class="edge"><title>Node16&#45;&gt;Node20</title>
<path fill="none" stroke="midnightblue" d="M627.467,-139.238C681.477,-133.411 782.349,-120.465 865.86,-98 868.517,-97.2852 871.246,-96.452 873.963,-95.5531"/>
<polygon fill="midnightblue" stroke="midnightblue" points="875.366,-98.7683 883.602,-92.1034 873.007,-92.1777 875.366,-98.7683"/>
</g>
<!-- Node20&#45;&gt;Node3 -->
<g id="edge34" class="edge"><title>Node20&#45;&gt;Node3</title>
<path fill="none" stroke="midnightblue" d="M895.498,-72.7338C885.737,-62.5004 869.392,-45.3642 857.305,-32.6924"/>
<polygon fill="midnightblue" stroke="midnightblue" points="859.524,-29.9477 850.089,-25.1273 854.458,-34.7792 859.524,-29.9477"/>
</g>
<!-- Node21 -->
<g id="node21" class="node"><title>Node21</title>
<polygon fill="white" stroke="#bfbfbf" points="882.36,-6 882.36,-25 945.36,-25 945.36,-6 882.36,-6"/>
<text text-anchor="middle" x="913.86" y="-13" font-family="Helvetica,sans-Serif" font-size="10.00">exception</text>
</g>
<!-- Node20&#45;&gt;Node21 -->
<g id="edge33" class="edge"><title>Node20&#45;&gt;Node21</title>
<path fill="none" stroke="midnightblue" d="M905.208,-72.7338C906.678,-63.1826 909.072,-47.6183 910.97,-35.2829"/>
<polygon fill="midnightblue" stroke="midnightblue" points="914.471,-35.5432 912.533,-25.1273 907.553,-34.4788 914.471,-35.5432"/>
</g>
</g>
</svg>
        <g id="navigator" transform="translate(0 0)" fill="#404254">
                <rect fill="#f2f5e9" fill-opacity="0.5" stroke="#606060" stroke-width=".5" x="0" y="0" width="60" height="60"/>
                <use id="zoomplus" xlink:href="#zoomPlus" x="17" y="9" onmousedown="handleZoom(evt,'in')"/>
                <use id="zoomminus" xlink:href="#zoomMin" x="42" y="9" onmousedown="handleZoom(evt,'out')"/>
                <use id="reset" xlink:href="#resetDef" x="30" y="36" onmousedown="handleReset()"/>
                <g id="arrowUp" xlink:href="#dirArrow" transform="translate(30 24)" onmousedown="handlePan(0,-1)">
                  <use xlink:href="#rim" fill="#404040">
                        <set attributeName="fill" to="#808080" begin="arrowUp.mouseover" end="arrowUp.mouseout"/>
                  </use>
                  <path fill="none" stroke="white" stroke-width="1.5" d="M0,-3.0v7 M-2.5,-0.5L0,-3.0L2.5,-0.5"/>
                </g>
                <g id="arrowRight" xlink:href="#dirArrow" transform="rotate(90) translate(36 -43)" onmousedown="handlePan(1,0)">
                  <use xlink:href="#rim" fill="#404040">
                        <set attributeName="fill" to="#808080" begin="arrowRight.mouseover" end="arrowRight.mouseout"/>
                  </use>
                  <path fill="none" stroke="white" stroke-width="1.5" d="M0,-3.0v7 M-2.5,-0.5L0,-3.0L2.5,-0.5"/>
                </g>
                <g id="arrowDown" xlink:href="#dirArrow" transform="rotate(180) translate(-30 -48)" onmousedown="handlePan(0,1)">
                  <use xlink:href="#rim" fill="#404040">
                        <set attributeName="fill" to="#808080" begin="arrowDown.mouseover" end="arrowDown.mouseout"/>
                  </use>
                  <path fill="none" stroke="white" stroke-width="1.5" d="M0,-3.0v7 M-2.5,-0.5L0,-3.0L2.5,-0.5"/>
                </g>
                <g id="arrowLeft" xlink:href="#dirArrow" transform="rotate(270) translate(-36 17)" onmousedown="handlePan(-1,0)">
                  <use xlink:href="#rim" fill="#404040">
                        <set attributeName="fill" to="#808080" begin="arrowLeft.mouseover" end="arrowLeft.mouseout"/>
                  </use>
                  <path fill="none" stroke="white" stroke-width="1.5" d="M0,-3.0v7 M-2.5,-0.5L0,-3.0L2.5,-0.5"/>
                </g>
        </g>
        <svg viewBox="0 0 15 15" width="100%" height="30px" preserveAspectRatio="xMaxYMin meet">
         <g id="arrow_out" transform="scale(0.3 0.3)">
          <a xlink:href="ccf__group_8h__incl_org.svg" target="_base">
           <rect id="button" ry="5" rx="5" y="6" x="6" height="38" width="38"
                fill="#f2f5e9" fill-opacity="0.5" stroke="#606060" stroke-width="1.0"/>
           <path id="arrow"
             d="M 11.500037,31.436501 C 11.940474,20.09759 22.043105,11.32322 32.158766,21.979434 L 37.068811,17.246167 C 37.068811,17.246167 37.088388,32 37.088388,32 L 22.160133,31.978069 C 22.160133,31.978069 26.997745,27.140456 26.997745,27.140456 C 18.528582,18.264221 13.291696,25.230495 11.500037,31.436501 z"
             style="fill:#404040;"/>
          </a>
         </g>
        </svg>
</svg>
