<?xml version="1.0" encoding="UTF-8" standalone="no"?>
<!DOCTYPE svg PUBLIC "-//W3C//DTD SVG 1.1//EN"
 "http://www.w3.org/Graphics/SVG/1.1/DTD/svg11.dtd">
<!-- Generated by graphviz version 2.38.0 (20140413.2041)
 -->
<!-- Title: scram::core::NonTerminal::order Pages: 1 -->
<svg width="567pt" height="247pt"
 viewBox="0.00 0.00 567.00 247.00" xmlns="http://www.w3.org/2000/svg" xmlns:xlink="http://www.w3.org/1999/xlink">
<g id="graph0" class="graph" transform="scale(1 1) rotate(0) translate(4 243)">
<title>scram::core::NonTerminal::order</title>
<polygon fill="white" stroke="none" points="-4,4 -4,-243 563,-243 563,4 -4,4"/>
<!-- Node1 -->
<g id="node1" class="node"><title>Node1</title>
<polygon fill="#bfbfbf" stroke="black" points="0,-120.5 0,-150.5 139,-150.5 139,-120.5 0,-120.5"/>
<text text-anchor="start" x="8" y="-138.5" font-family="Helvetica,sans-Serif" font-size="10.00">scram::core::NonTerminal</text>
<text text-anchor="middle" x="69.5" y="-127.5" font-family="Helvetica,sans-Serif" font-size="10.00">::order</text>
</g>
<!-- Node2 -->
<g id="node2" class="node"><title>Node2</title>
<g id="a_node2"><a xlink:href="classscram_1_1core_1_1ImportanceAnalysis.xhtml#acf487235f07ddcc1c920943ebfe2ce60" target="_top" xlink:title="Performs quantitative analysis of importance factors of basic events in products. ...">
<polygon fill="white" stroke="black" points="175,-208.5 175,-238.5 348,-238.5 348,-208.5 175,-208.5"/>
<text text-anchor="start" x="183" y="-226.5" font-family="Helvetica,sans-Serif" font-size="10.00">scram::core::ImportanceAnalysis</text>
<text text-anchor="middle" x="261.5" y="-215.5" font-family="Helvetica,sans-Serif" font-size="10.00">::Analyze</text>
</a>
</g>
</g>
<!-- Node1&#45;&gt;Node2 -->
<g id="edge1" class="edge"><title>Node1&#45;&gt;Node2</title>
<path fill="none" stroke="midnightblue" d="M100.516,-156.452C120.819,-169.894 148.639,-186.933 175,-198.5 183.356,-202.166 192.401,-205.471 201.375,-208.385"/>
<polygon fill="midnightblue" stroke="midnightblue" points="102.279,-153.42 92.026,-150.75 98.3763,-159.231 102.279,-153.42"/>
</g>
<!-- Node3 -->
<g id="node3" class="node"><title>Node3</title>
<g id="a_node3"><a xlink:href="classscram_1_1core_1_1Bdd.xhtml#ab9548d4c5f9afaa96dc24e17e2a01a57" target="_top" xlink:title="Runs the Qualitative analysis with the representation of a PDAG as ROBDD. ">
<polygon fill="white" stroke="black" points="190.5,-170 190.5,-189 332.5,-189 332.5,-170 190.5,-170"/>
<text text-anchor="middle" x="261.5" y="-177" font-family="Helvetica,sans-Serif" font-size="10.00">scram::core::Bdd::Analyze</text>
</a>
</g>
</g>
<!-- Node1&#45;&gt;Node3 -->
<g id="edge2" class="edge"><title>Node1&#45;&gt;Node3</title>
<path fill="none" stroke="midnightblue" d="M142.529,-152.893C153.403,-155.472 164.493,-158.076 175,-160.5 188.631,-163.645 203.507,-166.983 216.973,-169.97"/>
<polygon fill="midnightblue" stroke="midnightblue" points="143.165,-149.446 132.626,-150.537 141.545,-156.256 143.165,-149.446"/>
</g>
<!-- Node4 -->
<g id="node4" class="node"><title>Node4</title>
<g id="a_node4"><a xlink:href="classscram_1_1core_1_1Zbdd.xhtml#a499a8bc4bc3854e7b2928c08515243cf" target="_top" xlink:title="Specialization of Apply for AND operator for non&#45;terminal ZBDD vertices. ">
<polygon fill="white" stroke="black" points="206,-120.5 206,-150.5 317,-150.5 317,-120.5 206,-120.5"/>
<text text-anchor="start" x="214" y="-138.5" font-family="Helvetica,sans-Serif" font-size="10.00">scram::core::Zbdd::</text>
<text text-anchor="middle" x="261.5" y="-127.5" font-family="Helvetica,sans-Serif" font-size="10.00">Apply</text>
</a>
</g>
</g>
<!-- Node1&#45;&gt;Node4 -->
<g id="edge3" class="edge"><title>Node1&#45;&gt;Node4</title>
<path fill="none" stroke="midnightblue" d="M149.225,-135.5C168.209,-135.5 188.087,-135.5 205.703,-135.5"/>
<polygon fill="midnightblue" stroke="midnightblue" points="149.094,-132 139.094,-135.5 149.094,-139 149.094,-132"/>
</g>
<!-- Node5 -->
<g id="node5" class="node"><title>Node5</title>
<g id="a_node5"><a xlink:href="classscram_1_1core_1_1Zbdd.xhtml#ac90d12f0c653c679d22109124fa6344c" target="_top" xlink:title="Find or adds a ZBDD SetNode vertex using information from gates. ">
<polygon fill="white" stroke="black" points="206,-71.5 206,-101.5 317,-101.5 317,-71.5 206,-71.5"/>
<text text-anchor="start" x="214" y="-89.5" font-family="Helvetica,sans-Serif" font-size="10.00">scram::core::Zbdd::</text>
<text text-anchor="middle" x="261.5" y="-78.5" font-family="Helvetica,sans-Serif" font-size="10.00">FindOrAddVertex</text>
</a>
</g>
</g>
<!-- Node1&#45;&gt;Node5 -->
<g id="edge4" class="edge"><title>Node1&#45;&gt;Node5</title>
<path fill="none" stroke="midnightblue" d="M138.762,-117.896C160.812,-112.209 184.953,-105.983 205.882,-100.586"/>
<polygon fill="midnightblue" stroke="midnightblue" points="137.607,-114.579 128.797,-120.465 139.355,-121.357 137.607,-114.579"/>
</g>
<!-- Node6 -->
<g id="node6" class="node"><title>Node6</title>
<g id="a_node6"><a xlink:href="classscram_1_1core_1_1Zbdd.xhtml#a516f0d2f35ad213399f83fb9ab102561" target="_top" xlink:title="Traverses ZBDD to find modules and adjusted cut&#45;offs. ">
<polygon fill="white" stroke="black" points="206,-22.5 206,-52.5 317,-52.5 317,-22.5 206,-22.5"/>
<text text-anchor="start" x="214" y="-40.5" font-family="Helvetica,sans-Serif" font-size="10.00">scram::core::Zbdd::</text>
<text text-anchor="middle" x="261.5" y="-29.5" font-family="Helvetica,sans-Serif" font-size="10.00">GatherModules</text>
</a>
</g>
</g>
<!-- Node1&#45;&gt;Node6 -->
<g id="edge5" class="edge"><title>Node1&#45;&gt;Node6</title>
<path fill="none" stroke="midnightblue" d="M96.0742,-114.061C116.375,-97.9571 146.061,-76.3762 175,-62.5 184.622,-57.8862 195.269,-53.9434 205.688,-50.645"/>
<polygon fill="midnightblue" stroke="midnightblue" points="93.8346,-111.37 88.2443,-120.37 98.2269,-116.821 93.8346,-111.37"/>
</g>
<!-- Node7 -->
<g id="node7" class="node"><title>Node7</title>
<g id="a_node7"><a xlink:href="classscram_1_1core_1_1Zbdd.xhtml#af92e04ed908364e0177ce444d7b72712" target="_top" xlink:title="The common constructor to initialize member variables. ">
<polygon fill="white" stroke="black" points="403,-50 403,-69 540,-69 540,-50 403,-50"/>
<text text-anchor="middle" x="471.5" y="-57" font-family="Helvetica,sans-Serif" font-size="10.00">scram::core::Zbdd::Zbdd</text>
</a>
</g>
</g>
<!-- Node6&#45;&gt;Node7 -->
<g id="edge6" class="edge"><title>Node6&#45;&gt;Node7</title>
<path fill="none" stroke="midnightblue" d="M327.227,-44.3461C351.251,-46.8872 378.553,-49.7749 402.834,-52.343"/>
<polygon fill="midnightblue" stroke="midnightblue" points="327.462,-40.8516 317.15,-43.2802 326.726,-47.8127 327.462,-40.8516"/>
</g>
<!-- Node8 -->
<g id="node8" class="node"><title>Node8</title>
<g id="a_node8"><a xlink:href="classscram_1_1core_1_1zbdd_1_1CutSetContainer.xhtml#a478c89f64731781882b50ec55898900b" target="_top" xlink:title="Gathers all module indices in the cut sets. ">
<polygon fill="white" stroke="black" points="384,-0.5 384,-30.5 559,-30.5 559,-0.5 384,-0.5"/>
<text text-anchor="start" x="392" y="-18.5" font-family="Helvetica,sans-Serif" font-size="10.00">scram::core::zbdd::</text>
<text text-anchor="middle" x="471.5" y="-7.5" font-family="Helvetica,sans-Serif" font-size="10.00">CutSetContainer::GatherModules</text>
</a>
</g>
</g>
<!-- Node6&#45;&gt;Node8 -->
<g id="edge7" class="edge"><title>Node6&#45;&gt;Node8</title>
<path fill="none" stroke="midnightblue" d="M327.407,-30.6348C345.212,-28.7516 364.806,-26.6791 383.631,-24.6881"/>
<polygon fill="midnightblue" stroke="midnightblue" points="326.726,-27.1873 317.15,-31.7198 327.462,-34.1484 326.726,-27.1873"/>
</g>
</g>
</svg>
