<?xml version="1.0" encoding="UTF-8" standalone="no"?>
<!DOCTYPE svg PUBLIC "-//W3C//DTD SVG 1.1//EN"
 "http://www.w3.org/Graphics/SVG/1.1/DTD/svg11.dtd">
<!-- Generated by graphviz version 2.38.0 (20140413.2041)
 -->
<!-- Title: scram::core::Constant::value Pages: 1 -->
<svg width="461pt" height="52pt"
 viewBox="0.00 0.00 461.00 51.50" xmlns="http://www.w3.org/2000/svg" xmlns:xlink="http://www.w3.org/1999/xlink">
<g id="graph0" class="graph" transform="scale(1 1) rotate(0) translate(4 47.5)">
<title>scram::core::Constant::value</title>
<polygon fill="white" stroke="none" points="-4,4 -4,-47.5 457,-47.5 457,4 -4,4"/>
<!-- Node1 -->
<g id="node1" class="node"><title>Node1</title>
<polygon fill="#bfbfbf" stroke="black" points="0,-0.5 0,-30.5 123,-30.5 123,-0.5 0,-0.5"/>
<text text-anchor="start" x="8" y="-18.5" font-family="Helvetica,sans-Serif" font-size="10.00">scram::core::Constant</text>
<text text-anchor="middle" x="61.5" y="-7.5" font-family="Helvetica,sans-Serif" font-size="10.00">::value</text>
</g>
<!-- Node2 -->
<g id="node2" class="node"><title>Node2</title>
<g id="a_node2"><a xlink:href="pdag_8cc.xhtml#a3655e18b0516364663797b84c544bd8b" target="_top" xlink:title="Prints PDAG nodes in the Aralia format. ">
<polygon fill="white" stroke="black" points="159,-6 159,-25 296,-25 296,-6 159,-6"/>
<text text-anchor="middle" x="227.5" y="-13" font-family="Helvetica,sans-Serif" font-size="10.00">scram::core::operator&lt;&lt;</text>
</a>
</g>
</g>
<!-- Node1&#45;&gt;Node2 -->
<g id="edge1" class="edge"><title>Node1&#45;&gt;Node2</title>
<path fill="none" stroke="midnightblue" d="M133.361,-15.5C141.858,-15.5 150.518,-15.5 158.967,-15.5"/>
<polygon fill="midnightblue" stroke="midnightblue" points="133.102,-12.0001 123.102,-15.5 133.102,-19.0001 133.102,-12.0001"/>
</g>
<!-- Node2&#45;&gt;Node2 -->
<g id="edge2" class="edge"><title>Node2&#45;&gt;Node2</title>
<path fill="none" stroke="midnightblue" d="M196.811,-33.7746C197.686,-39.241 207.916,-43.5 227.5,-43.5 256.648,-43.5 265.074,-34.0653 252.777,-25.2571"/>
<polygon fill="midnightblue" stroke="midnightblue" points="199.814,-35.5745 202.223,-25.2571 193.906,-31.8207 199.814,-35.5745"/>
</g>
<!-- Node3 -->
<g id="node3" class="node"><title>Node3</title>
<g id="a_node3"><a xlink:href="pdag_8h.xhtml#a7bd9efe5b5cecc9ce62631d4b752d3b2" target="_top" xlink:title="Specialization to clear the generic mark for the whole graph. ">
<polygon fill="white" stroke="black" points="332,-0.5 332,-30.5 453,-30.5 453,-0.5 332,-0.5"/>
<text text-anchor="start" x="340" y="-18.5" font-family="Helvetica,sans-Serif" font-size="10.00">scram::core::Clear</text>
<text text-anchor="middle" x="392.5" y="-7.5" font-family="Helvetica,sans-Serif" font-size="10.00">&lt; Pdag::kGateMark &gt;</text>
</a>
</g>
</g>
<!-- Node2&#45;&gt;Node3 -->
<g id="edge3" class="edge"><title>Node2&#45;&gt;Node3</title>
<path fill="none" stroke="midnightblue" d="M306.245,-15.5C314.835,-15.5 323.48,-15.5 331.798,-15.5"/>
<polygon fill="midnightblue" stroke="midnightblue" points="306.211,-12.0001 296.211,-15.5 306.211,-19.0001 306.211,-12.0001"/>
</g>
</g>
</svg>
