<?xml version="1.0" encoding="UTF-8" standalone="no"?>
<!DOCTYPE svg PUBLIC "-//W3C//DTD SVG 1.1//EN"
 "http://www.w3.org/Graphics/SVG/1.1/DTD/svg11.dtd">
<!-- Generated by graphviz version 2.38.0 (20140413.2041)
 -->
<!-- Title: scram::mef::Id::id Pages: 1 -->
<svg width="318pt" height="127pt"
 viewBox="0.00 0.00 318.00 126.50" xmlns="http://www.w3.org/2000/svg" xmlns:xlink="http://www.w3.org/1999/xlink">
<g id="graph0" class="graph" transform="scale(1 1) rotate(0) translate(4 122.5)">
<title>scram::mef::Id::id</title>
<polygon fill="white" stroke="none" points="-4,4 -4,-122.5 314,-122.5 314,4 -4,4"/>
<!-- Node1 -->
<g id="node1" class="node"><title>Node1</title>
<polygon fill="#bfbfbf" stroke="black" points="0,-44.5 0,-63.5 100,-63.5 100,-44.5 0,-44.5"/>
<text text-anchor="middle" x="50" y="-51.5" font-family="Helvetica,sans-Serif" font-size="10.00">scram::mef::Id::id</text>
</g>
<!-- Node2 -->
<g id="node2" class="node"><title>Node2</title>
<g id="a_node2"><a xlink:href="classscram_1_1core_1_1EventTreeAnalysis.xhtml#a3e3404417cbdcf92474e5653ec24f936" target="_top" xlink:title="scram::core::EventTreeAnalysis\l::EventTreeAnalysis">
<polygon fill="white" stroke="black" points="140.5,-88 140.5,-118 305.5,-118 305.5,-88 140.5,-88"/>
<text text-anchor="start" x="148.5" y="-106" font-family="Helvetica,sans-Serif" font-size="10.00">scram::core::EventTreeAnalysis</text>
<text text-anchor="middle" x="223" y="-95" font-family="Helvetica,sans-Serif" font-size="10.00">::EventTreeAnalysis</text>
</a>
</g>
</g>
<!-- Node1&#45;&gt;Node2 -->
<g id="edge1" class="edge"><title>Node1&#45;&gt;Node2</title>
<path fill="none" stroke="midnightblue" d="M92.9235,-66.4561C106.641,-70.4981 121.96,-74.9763 136,-79 146.133,-81.9039 156.95,-84.9584 167.374,-87.8787"/>
<polygon fill="midnightblue" stroke="midnightblue" points="93.8413,-63.0778 83.2594,-63.6027 91.859,-69.7913 93.8413,-63.0778"/>
</g>
<!-- Node3 -->
<g id="node3" class="node"><title>Node3</title>
<g id="a_node3"><a xlink:href="reporter_8cc.xhtml#ad6460094a94fb73e56c2a4a5efc598ed" target="_top" xlink:title="Describes all performed analyses deduced from settings. ">
<polygon fill="white" stroke="black" points="136,-39 136,-69 310,-69 310,-39 136,-39"/>
<text text-anchor="start" x="144" y="-57" font-family="Helvetica,sans-Serif" font-size="10.00">scram::ReportCalculatedQuantity</text>
<text text-anchor="middle" x="223" y="-46" font-family="Helvetica,sans-Serif" font-size="10.00">&lt; core::RiskAnalysis &gt;</text>
</a>
</g>
</g>
<!-- Node1&#45;&gt;Node3 -->
<g id="edge2" class="edge"><title>Node1&#45;&gt;Node3</title>
<path fill="none" stroke="midnightblue" d="M110.27,-54C118.551,-54 127.195,-54 135.848,-54"/>
<polygon fill="midnightblue" stroke="midnightblue" points="110.002,-50.5001 100.002,-54 110.002,-57.5001 110.002,-50.5001"/>
</g>
<!-- Node4 -->
<g id="node4" class="node"><title>Node4</title>
<g id="a_node4"><a xlink:href="classscram_1_1mef_1_1Id.xhtml#a846997cebdf27bbff872fa87e7f1a9e2" target="_top" xlink:title="Produces unique name for the model element within the same type. ">
<polygon fill="white" stroke="black" points="144.5,-0.5 144.5,-19.5 301.5,-19.5 301.5,-0.5 144.5,-0.5"/>
<text text-anchor="middle" x="223" y="-7.5" font-family="Helvetica,sans-Serif" font-size="10.00">scram::mef::Id::unique_name</text>
</a>
</g>
</g>
<!-- Node1&#45;&gt;Node4 -->
<g id="edge3" class="edge"><title>Node1&#45;&gt;Node4</title>
<path fill="none" stroke="midnightblue" d="M93.5982,-41.5517C107.12,-37.7135 122.155,-33.5625 136,-30 149.955,-26.4094 165.257,-22.7591 179.035,-19.577"/>
<polygon fill="midnightblue" stroke="midnightblue" points="92.2506,-38.2967 83.598,-44.411 94.1749,-45.027 92.2506,-38.2967"/>
</g>
</g>
</svg>
