<?xml version="1.0" encoding="UTF-8" standalone="no"?>
<!DOCTYPE svg PUBLIC "-//W3C//DTD SVG 1.1//EN"
 "http://www.w3.org/Graphics/SVG/1.1/DTD/svg11.dtd">
<!-- Generated by graphviz version 2.38.0 (20140413.2041)
 -->
<!-- Title: scram::XmlStreamElement::SetAttribute Pages: 1 -->
<svg width="364pt" height="243pt"
 viewBox="0.00 0.00 364.00 242.50" xmlns="http://www.w3.org/2000/svg" xmlns:xlink="http://www.w3.org/1999/xlink">
<g id="graph0" class="graph" transform="scale(1 1) rotate(0) translate(4 238.5)">
<title>scram::XmlStreamElement::SetAttribute</title>
<polygon fill="white" stroke="none" points="-4,4 -4,-238.5 360,-238.5 360,4 -4,4"/>
<!-- Node1 -->
<g id="node1" class="node"><title>Node1</title>
<polygon fill="#bfbfbf" stroke="black" points="0,-106 0,-136 146,-136 146,-106 0,-106"/>
<text text-anchor="start" x="8" y="-124" font-family="Helvetica,sans-Serif" font-size="10.00">scram::XmlStreamElement</text>
<text text-anchor="middle" x="73" y="-113" font-family="Helvetica,sans-Serif" font-size="10.00">::SetAttribute</text>
</g>
<!-- Node2 -->
<g id="node2" class="node"><title>Node2</title>
<g id="a_node2"><a xlink:href="reporter_8cc.xhtml#a460bfadbe33cffa6f9a8a149c93893e5" target="_top" xlink:title="Describes the fault tree analysis and techniques. ">
<polygon fill="white" stroke="black" points="182,-204 182,-234 356,-234 356,-204 182,-204"/>
<text text-anchor="start" x="190" y="-222" font-family="Helvetica,sans-Serif" font-size="10.00">scram::ReportCalculatedQuantity</text>
<text text-anchor="middle" x="269" y="-211" font-family="Helvetica,sans-Serif" font-size="10.00">&lt; core::FaultTreeAnalysis &gt;</text>
</a>
</g>
</g>
<!-- Node1&#45;&gt;Node2 -->
<g id="edge1" class="edge"><title>Node1&#45;&gt;Node2</title>
<path fill="none" stroke="midnightblue" d="M100.07,-142.511C121.07,-158.907 151.947,-180.982 182,-195 189.165,-198.342 196.888,-201.304 204.662,-203.907"/>
<polygon fill="midnightblue" stroke="midnightblue" points="101.99,-139.567 91.9809,-136.094 97.6399,-145.051 101.99,-139.567"/>
</g>
<!-- Node3 -->
<g id="node3" class="node"><title>Node3</title>
<g id="a_node3"><a xlink:href="reporter_8cc.xhtml#a04a0fc48f27649e05bafe389d05c7d97" target="_top" xlink:title="Describes the probability analysis and techniques. ">
<polygon fill="white" stroke="black" points="182,-155 182,-185 356,-185 356,-155 182,-155"/>
<text text-anchor="start" x="190" y="-173" font-family="Helvetica,sans-Serif" font-size="10.00">scram::ReportCalculatedQuantity</text>
<text text-anchor="middle" x="269" y="-162" font-family="Helvetica,sans-Serif" font-size="10.00">&lt; core::ProbabilityAnalysis &gt;</text>
</a>
</g>
</g>
<!-- Node1&#45;&gt;Node3 -->
<g id="edge2" class="edge"><title>Node1&#45;&gt;Node3</title>
<path fill="none" stroke="midnightblue" d="M143.483,-138.55C164.787,-143.931 188.021,-149.799 208.588,-154.994"/>
<polygon fill="midnightblue" stroke="midnightblue" points="144.077,-135.09 133.525,-136.035 142.363,-141.877 144.077,-135.09"/>
</g>
<!-- Node4 -->
<g id="node4" class="node"><title>Node4</title>
<g id="a_node4"><a xlink:href="reporter_8cc.xhtml#ad6460094a94fb73e56c2a4a5efc598ed" target="_top" xlink:title="Describes all performed analyses deduced from settings. ">
<polygon fill="white" stroke="black" points="182,-106 182,-136 356,-136 356,-106 182,-106"/>
<text text-anchor="start" x="190" y="-124" font-family="Helvetica,sans-Serif" font-size="10.00">scram::ReportCalculatedQuantity</text>
<text text-anchor="middle" x="269" y="-113" font-family="Helvetica,sans-Serif" font-size="10.00">&lt; core::RiskAnalysis &gt;</text>
</a>
</g>
</g>
<!-- Node1&#45;&gt;Node4 -->
<g id="edge3" class="edge"><title>Node1&#45;&gt;Node4</title>
<path fill="none" stroke="midnightblue" d="M156.438,-121C164.875,-121 173.463,-121 181.938,-121"/>
<polygon fill="midnightblue" stroke="midnightblue" points="156.238,-117.5 146.238,-121 156.238,-124.5 156.238,-117.5"/>
</g>
<!-- Node5 -->
<g id="node5" class="node"><title>Node5</title>
<g id="a_node5"><a xlink:href="reporter_8cc.xhtml#ae12d3bcaf8c4c099d2d5c84a67286424" target="_top" xlink:title="Describes the uncertainty analysis and techniques. ">
<polygon fill="white" stroke="black" points="182,-57 182,-87 356,-87 356,-57 182,-57"/>
<text text-anchor="start" x="190" y="-75" font-family="Helvetica,sans-Serif" font-size="10.00">scram::ReportCalculatedQuantity</text>
<text text-anchor="middle" x="269" y="-64" font-family="Helvetica,sans-Serif" font-size="10.00">&lt; core::UncertaintyAnalysis &gt;</text>
</a>
</g>
</g>
<!-- Node1&#45;&gt;Node5 -->
<g id="edge4" class="edge"><title>Node1&#45;&gt;Node5</title>
<path fill="none" stroke="midnightblue" d="M143.483,-103.45C164.787,-98.0694 188.021,-92.201 208.588,-87.0062"/>
<polygon fill="midnightblue" stroke="midnightblue" points="142.363,-100.123 133.525,-105.965 144.077,-106.91 142.363,-100.123"/>
</g>
<!-- Node6 -->
<g id="node6" class="node"><title>Node6</title>
<g id="a_node6"><a xlink:href="serialization_8cc.xhtml#a83f7058a5caad9ec3ffb5fd6c7d7b8f6" target="_top" xlink:title="Convenience function for serialization into a file. ">
<polygon fill="white" stroke="black" points="210,-0.5 210,-19.5 328,-19.5 328,-0.5 210,-0.5"/>
<text text-anchor="middle" x="269" y="-7.5" font-family="Helvetica,sans-Serif" font-size="10.00">scram::mef::Serialize</text>
</a>
</g>
</g>
<!-- Node1&#45;&gt;Node6 -->
<g id="edge5" class="edge"><title>Node1&#45;&gt;Node6</title>
<path fill="none" stroke="midnightblue" d="M102.274,-99.8423C123.562,-84.4255 153.802,-63.5962 182,-48 201.997,-36.9393 225.843,-26.6115 243.347,-19.523"/>
<polygon fill="midnightblue" stroke="midnightblue" points="100.023,-97.1525 94.0137,-105.878 104.153,-102.804 100.023,-97.1525"/>
</g>
<!-- Node6&#45;&gt;Node6 -->
<g id="edge6" class="edge"><title>Node6&#45;&gt;Node6</title>
<path fill="none" stroke="midnightblue" d="M232.25,-27.5043C232.256,-33.3356 244.506,-38 269,-38 303.836,-38 313.906,-28.5653 299.209,-19.7571"/>
<polygon fill="midnightblue" stroke="midnightblue" points="235.014,-29.6559 238.791,-19.7571 229.665,-25.1402 235.014,-29.6559"/>
</g>
</g>
</svg>
