<?xml version="1.0" encoding="UTF-8" standalone="no"?>
<!DOCTYPE svg PUBLIC "-//W3C//DTD SVG 1.1//EN"
 "http://www.w3.org/Graphics/SVG/1.1/DTD/svg11.dtd">
<!-- Generated by graphviz version 2.38.0 (20140413.2041)
 -->
<!-- Title: scram::core::NonTerminal::module Pages: 1 -->
<svg width="766pt" height="443pt"
 viewBox="0.00 0.00 766.00 443.00" xmlns="http://www.w3.org/2000/svg" xmlns:xlink="http://www.w3.org/1999/xlink">
<g id="graph0" class="graph" transform="scale(1 1) rotate(0) translate(4 439)">
<title>scram::core::NonTerminal::module</title>
<polygon fill="white" stroke="none" points="-4,4 -4,-439 762,-439 762,4 -4,4"/>
<!-- Node1 -->
<g id="node1" class="node"><title>Node1</title>
<polygon fill="#bfbfbf" stroke="black" points="0,-284.5 0,-314.5 139,-314.5 139,-284.5 0,-284.5"/>
<text text-anchor="start" x="8" y="-302.5" font-family="Helvetica,sans-Serif" font-size="10.00">scram::core::NonTerminal</text>
<text text-anchor="middle" x="69.5" y="-291.5" font-family="Helvetica,sans-Serif" font-size="10.00">::module</text>
</g>
<!-- Node2 -->
<g id="node2" class="node"><title>Node2</title>
<g id="a_node2"><a xlink:href="classscram_1_1core_1_1ImportanceAnalysis.xhtml#acf487235f07ddcc1c920943ebfe2ce60" target="_top" xlink:title="Performs quantitative analysis of importance factors of basic events in products. ...">
<polygon fill="white" stroke="black" points="175,-404.5 175,-434.5 348,-434.5 348,-404.5 175,-404.5"/>
<text text-anchor="start" x="183" y="-422.5" font-family="Helvetica,sans-Serif" font-size="10.00">scram::core::ImportanceAnalysis</text>
<text text-anchor="middle" x="261.5" y="-411.5" font-family="Helvetica,sans-Serif" font-size="10.00">::Analyze</text>
</a>
</g>
</g>
<!-- Node1&#45;&gt;Node2 -->
<g id="edge1" class="edge"><title>Node1&#45;&gt;Node2</title>
<path fill="none" stroke="midnightblue" d="M89.9234,-322.342C109.391,-343.87 141.247,-375.569 175,-394.5 181.744,-398.283 189.116,-401.541 196.612,-404.336"/>
<polygon fill="midnightblue" stroke="midnightblue" points="92.3444,-319.797 83.0907,-314.638 87.1072,-324.442 92.3444,-319.797"/>
</g>
<!-- Node3 -->
<g id="node3" class="node"><title>Node3</title>
<g id="a_node3"><a xlink:href="classscram_1_1core_1_1Bdd.xhtml#ab9548d4c5f9afaa96dc24e17e2a01a57" target="_top" xlink:title="Runs the Qualitative analysis with the representation of a PDAG as ROBDD. ">
<polygon fill="white" stroke="black" points="190.5,-366 190.5,-385 332.5,-385 332.5,-366 190.5,-366"/>
<text text-anchor="middle" x="261.5" y="-373" font-family="Helvetica,sans-Serif" font-size="10.00">scram::core::Bdd::Analyze</text>
</a>
</g>
</g>
<!-- Node1&#45;&gt;Node3 -->
<g id="edge2" class="edge"><title>Node1&#45;&gt;Node3</title>
<path fill="none" stroke="midnightblue" d="M102.411,-319.97C122.552,-332.103 149.497,-346.929 175,-356.5 184.965,-360.24 195.874,-363.355 206.464,-365.907"/>
<polygon fill="midnightblue" stroke="midnightblue" points="104.022,-316.852 93.6659,-314.614 100.365,-322.822 104.022,-316.852"/>
</g>
<!-- Node4 -->
<g id="node4" class="node"><title>Node4</title>
<g id="a_node4"><a xlink:href="classscram_1_1core_1_1ProbabilityAnalyzer_3_01Bdd_01_4.xhtml#a45b66605634ae60f1c00e3ac469a7c7a" target="_top" xlink:title="Calculates the total probability with a different set of probability values than the one given upon c...">
<polygon fill="white" stroke="black" points="176,-306 176,-347 347,-347 347,-306 176,-306"/>
<text text-anchor="start" x="184" y="-335" font-family="Helvetica,sans-Serif" font-size="10.00">scram::core::Probability</text>
<text text-anchor="start" x="184" y="-324" font-family="Helvetica,sans-Serif" font-size="10.00">Analyzer&lt; Bdd &gt;::CalculateTotal</text>
<text text-anchor="middle" x="261.5" y="-313" font-family="Helvetica,sans-Serif" font-size="10.00">Probability</text>
</a>
</g>
</g>
<!-- Node1&#45;&gt;Node4 -->
<g id="edge3" class="edge"><title>Node1&#45;&gt;Node4</title>
<path fill="none" stroke="midnightblue" d="M149.263,-310.693C158.016,-311.936 166.958,-313.207 175.78,-314.461"/>
<polygon fill="midnightblue" stroke="midnightblue" points="149.487,-307.189 139.094,-309.248 148.502,-314.12 149.487,-307.189"/>
</g>
<!-- Node5 -->
<g id="node5" class="node"><title>Node5</title>
<g id="a_node5"><a xlink:href="classscram_1_1core_1_1Zbdd.xhtml#a516f0d2f35ad213399f83fb9ab102561" target="_top" xlink:title="Traverses ZBDD to find modules and adjusted cut&#45;offs. ">
<polygon fill="white" stroke="black" points="206,-257.5 206,-287.5 317,-287.5 317,-257.5 206,-257.5"/>
<text text-anchor="start" x="214" y="-275.5" font-family="Helvetica,sans-Serif" font-size="10.00">scram::core::Zbdd::</text>
<text text-anchor="middle" x="261.5" y="-264.5" font-family="Helvetica,sans-Serif" font-size="10.00">GatherModules</text>
</a>
</g>
</g>
<!-- Node1&#45;&gt;Node5 -->
<g id="edge4" class="edge"><title>Node1&#45;&gt;Node5</title>
<path fill="none" stroke="midnightblue" d="M149.225,-288.313C168.209,-285.615 188.087,-282.79 205.703,-280.287"/>
<polygon fill="midnightblue" stroke="midnightblue" points="148.502,-284.88 139.094,-289.752 149.487,-291.811 148.502,-284.88"/>
</g>
<!-- Node8 -->
<g id="node8" class="node"><title>Node8</title>
<g id="a_node8"><a xlink:href="classscram_1_1core_1_1zbdd_1_1CutSetContainer.xhtml#a9f6c0cef12a80aefbfb357022d558053" target="_top" xlink:title="Finds a gate in intermediate cut sets. ">
<polygon fill="white" stroke="black" points="179,-118.5 179,-148.5 344,-148.5 344,-118.5 179,-118.5"/>
<text text-anchor="start" x="187" y="-136.5" font-family="Helvetica,sans-Serif" font-size="10.00">scram::core::zbdd::</text>
<text text-anchor="middle" x="261.5" y="-125.5" font-family="Helvetica,sans-Serif" font-size="10.00">CutSetContainer::GetNextGate</text>
</a>
</g>
</g>
<!-- Node1&#45;&gt;Node8 -->
<g id="edge7" class="edge"><title>Node1&#45;&gt;Node8</title>
<path fill="none" stroke="midnightblue" d="M82.1535,-275.192C98.5209,-243.626 131.28,-188.974 175,-158.5 180.582,-154.609 186.772,-151.317 193.194,-148.533"/>
<polygon fill="midnightblue" stroke="midnightblue" points="78.9906,-273.691 77.6063,-284.195 85.2389,-276.847 78.9906,-273.691"/>
</g>
<!-- Node9 -->
<g id="node9" class="node"><title>Node9</title>
<g id="a_node9"><a xlink:href="classscram_1_1core_1_1Zbdd.xhtml#a3dbb8ef5da2882daf6c39e9724eae459" target="_top" xlink:title="Removes subsets in ZBDD. ">
<polygon fill="white" stroke="black" points="206,-167.5 206,-197.5 317,-197.5 317,-167.5 206,-167.5"/>
<text text-anchor="start" x="214" y="-185.5" font-family="Helvetica,sans-Serif" font-size="10.00">scram::core::Zbdd::</text>
<text text-anchor="middle" x="261.5" y="-174.5" font-family="Helvetica,sans-Serif" font-size="10.00">Minimize</text>
</a>
</g>
</g>
<!-- Node1&#45;&gt;Node9 -->
<g id="edge8" class="edge"><title>Node1&#45;&gt;Node9</title>
<path fill="none" stroke="midnightblue" d="M103.548,-279.15C141.254,-255.931 202.05,-218.493 235.843,-197.684"/>
<polygon fill="midnightblue" stroke="midnightblue" points="101.63,-276.22 94.9502,-284.444 105.301,-282.181 101.63,-276.22"/>
</g>
<!-- Node6 -->
<g id="node6" class="node"><title>Node6</title>
<g id="a_node6"><a xlink:href="classscram_1_1core_1_1Zbdd.xhtml#af92e04ed908364e0177ce444d7b72712" target="_top" xlink:title="The common constructor to initialize member variables. ">
<polygon fill="white" stroke="black" points="608,-251 608,-270 745,-270 745,-251 608,-251"/>
<text text-anchor="middle" x="676.5" y="-258" font-family="Helvetica,sans-Serif" font-size="10.00">scram::core::Zbdd::Zbdd</text>
</a>
</g>
</g>
<!-- Node5&#45;&gt;Node6 -->
<g id="edge5" class="edge"><title>Node5&#45;&gt;Node6</title>
<path fill="none" stroke="midnightblue" d="M327.278,-273.092C387.368,-273.345 479.268,-272.979 559,-269.5 574.808,-268.81 591.798,-267.705 607.783,-266.502"/>
<polygon fill="midnightblue" stroke="midnightblue" points="327.194,-269.591 317.177,-273.042 327.16,-276.591 327.194,-269.591"/>
</g>
<!-- Node7 -->
<g id="node7" class="node"><title>Node7</title>
<g id="a_node7"><a xlink:href="classscram_1_1core_1_1zbdd_1_1CutSetContainer.xhtml#a478c89f64731781882b50ec55898900b" target="_top" xlink:title="Gathers all module indices in the cut sets. ">
<polygon fill="white" stroke="black" points="384,-322.5 384,-352.5 559,-352.5 559,-322.5 384,-322.5"/>
<text text-anchor="start" x="392" y="-340.5" font-family="Helvetica,sans-Serif" font-size="10.00">scram::core::zbdd::</text>
<text text-anchor="middle" x="471.5" y="-329.5" font-family="Helvetica,sans-Serif" font-size="10.00">CutSetContainer::GatherModules</text>
</a>
</g>
</g>
<!-- Node5&#45;&gt;Node7 -->
<g id="edge6" class="edge"><title>Node5&#45;&gt;Node7</title>
<path fill="none" stroke="midnightblue" d="M326.997,-290.237C334.099,-292.3 341.212,-294.413 348,-296.5 374.474,-304.641 403.914,-314.469 427.297,-322.462"/>
<polygon fill="midnightblue" stroke="midnightblue" points="327.929,-286.864 317.351,-287.464 325.995,-293.591 327.929,-286.864"/>
</g>
<!-- Node9&#45;&gt;Node6 -->
<g id="edge11" class="edge"><title>Node9&#45;&gt;Node6</title>
<path fill="none" stroke="midnightblue" d="M298.464,-202.335C322.058,-214.365 353.99,-228.831 384,-236.5 459.027,-255.672 548.109,-260.519 607.876,-261.305"/>
<polygon fill="midnightblue" stroke="midnightblue" points="300.021,-199.199 289.533,-197.694 296.793,-205.411 300.021,-199.199"/>
</g>
<!-- Node10 -->
<g id="node10" class="node"><title>Node10</title>
<g id="a_node10"><a xlink:href="classscram_1_1core_1_1Zbdd.xhtml#a77945d28bd832d2735969d0b0a451c78" target="_top" xlink:title="Runs the analysis with the representation of a PDAG as ZBDD. ">
<polygon fill="white" stroke="black" points="416,-98.5 416,-128.5 527,-128.5 527,-98.5 416,-98.5"/>
<text text-anchor="start" x="424" y="-116.5" font-family="Helvetica,sans-Serif" font-size="10.00">scram::core::Zbdd::</text>
<text text-anchor="middle" x="471.5" y="-105.5" font-family="Helvetica,sans-Serif" font-size="10.00">Analyze</text>
</a>
</g>
</g>
<!-- Node9&#45;&gt;Node10 -->
<g id="edge9" class="edge"><title>Node9&#45;&gt;Node10</title>
<path fill="none" stroke="midnightblue" d="M327.116,-165.284C334.243,-162.89 341.329,-160.287 348,-157.5 364.888,-150.443 367.063,-144.44 384,-137.5 394.095,-133.364 405.136,-129.695 415.852,-126.548"/>
<polygon fill="midnightblue" stroke="midnightblue" points="325.851,-162.014 317.408,-168.414 327.999,-168.676 325.851,-162.014"/>
</g>
<!-- Node12 -->
<g id="node12" class="node"><title>Node12</title>
<g id="a_node12"><a xlink:href="classscram_1_1core_1_1Zbdd.xhtml#a499a8bc4bc3854e7b2928c08515243cf" target="_top" xlink:title="Specialization of Apply for AND operator for non&#45;terminal ZBDD vertices. ">
<polygon fill="white" stroke="black" points="416,-49.5 416,-79.5 527,-79.5 527,-49.5 416,-49.5"/>
<text text-anchor="start" x="424" y="-67.5" font-family="Helvetica,sans-Serif" font-size="10.00">scram::core::Zbdd::</text>
<text text-anchor="middle" x="471.5" y="-56.5" font-family="Helvetica,sans-Serif" font-size="10.00">Apply</text>
</a>
</g>
</g>
<!-- Node9&#45;&gt;Node12 -->
<g id="edge12" class="edge"><title>Node9&#45;&gt;Node12</title>
<path fill="none" stroke="midnightblue" d="M326.741,-170.007C334.395,-166.757 341.71,-162.661 348,-157.5 374.739,-135.557 357.11,-110.257 384,-88.5 393.087,-81.1478 404.273,-76.0436 415.55,-72.5013"/>
<polygon fill="midnightblue" stroke="midnightblue" points="325.409,-166.769 317.283,-173.567 327.875,-173.32 325.409,-166.769"/>
</g>
<!-- Node13 -->
<g id="node13" class="node"><title>Node13</title>
<g id="a_node13"><a xlink:href="classscram_1_1core_1_1Zbdd.xhtml#ac3ac27090b550d973b20bd971c3de9f9" target="_top" xlink:title="Removes complements of variables from products. ">
<polygon fill="white" stroke="black" points="407.5,-196.5 407.5,-226.5 535.5,-226.5 535.5,-196.5 407.5,-196.5"/>
<text text-anchor="start" x="415.5" y="-214.5" font-family="Helvetica,sans-Serif" font-size="10.00">scram::core::Zbdd::</text>
<text text-anchor="middle" x="471.5" y="-203.5" font-family="Helvetica,sans-Serif" font-size="10.00">EliminateComplements</text>
</a>
</g>
</g>
<!-- Node9&#45;&gt;Node13 -->
<g id="edge13" class="edge"><title>Node9&#45;&gt;Node13</title>
<path fill="none" stroke="midnightblue" d="M327.115,-191.509C352.677,-195.073 381.964,-199.156 407.379,-202.699"/>
<polygon fill="midnightblue" stroke="midnightblue" points="327.537,-188.034 317.15,-190.119 326.57,-194.967 327.537,-188.034"/>
</g>
<!-- Node15 -->
<g id="node15" class="node"><title>Node15</title>
<g id="a_node15"><a xlink:href="classscram_1_1core_1_1Zbdd.xhtml#aeb83fd37f2aee74ac41e6ccadba82d39" target="_top" xlink:title="Removes constant modules from products. ">
<polygon fill="white" stroke="black" points="399.5,-147.5 399.5,-177.5 543.5,-177.5 543.5,-147.5 399.5,-147.5"/>
<text text-anchor="start" x="407.5" y="-165.5" font-family="Helvetica,sans-Serif" font-size="10.00">scram::core::Zbdd::</text>
<text text-anchor="middle" x="471.5" y="-154.5" font-family="Helvetica,sans-Serif" font-size="10.00">EliminateConstantModules</text>
</a>
</g>
</g>
<!-- Node9&#45;&gt;Node15 -->
<g id="edge16" class="edge"><title>Node9&#45;&gt;Node15</title>
<path fill="none" stroke="midnightblue" d="M327.11,-176.287C350.03,-174.084 375.945,-171.592 399.377,-169.339"/>
<polygon fill="midnightblue" stroke="midnightblue" points="326.769,-172.804 317.15,-177.245 327.439,-179.772 326.769,-172.804"/>
</g>
<!-- Node17 -->
<g id="node17" class="node"><title>Node17</title>
<g id="a_node17"><a xlink:href="classscram_1_1core_1_1zbdd_1_1CutSetContainer.xhtml#a1648d3f24a95302fac2a40e95f743dda" target="_top" xlink:title="Minimizes cut sets in the container. ">
<polygon fill="white" stroke="black" points="399.5,-0.5 399.5,-30.5 543.5,-30.5 543.5,-0.5 399.5,-0.5"/>
<text text-anchor="start" x="407.5" y="-18.5" font-family="Helvetica,sans-Serif" font-size="10.00">scram::core::zbdd::</text>
<text text-anchor="middle" x="471.5" y="-7.5" font-family="Helvetica,sans-Serif" font-size="10.00">CutSetContainer::Minimize</text>
</a>
</g>
</g>
<!-- Node9&#45;&gt;Node17 -->
<g id="edge19" class="edge"><title>Node9&#45;&gt;Node17</title>
<path fill="none" stroke="midnightblue" d="M326.52,-171.59C334.461,-168.101 341.913,-163.517 348,-157.5 386.996,-118.955 344.738,-77.7744 384,-39.5 388.464,-35.1485 393.644,-31.5709 399.209,-28.6315"/>
<polygon fill="midnightblue" stroke="midnightblue" points="325.127,-168.375 317.026,-175.203 327.617,-174.917 325.127,-168.375"/>
</g>
<!-- Node11 -->
<g id="node11" class="node"><title>Node11</title>
<g id="a_node11"><a xlink:href="classscram_1_1core_1_1FaultTreeAnalyzer.xhtml#aedae0c884539dab245018194771f5021" target="_top" xlink:title="scram::core::FaultTreeAnalyzer\l::algorithm">
<polygon fill="white" stroke="black" points="595,-82.5 595,-112.5 758,-112.5 758,-82.5 595,-82.5"/>
<text text-anchor="start" x="603" y="-100.5" font-family="Helvetica,sans-Serif" font-size="10.00">scram::core::FaultTreeAnalyzer</text>
<text text-anchor="middle" x="676.5" y="-89.5" font-family="Helvetica,sans-Serif" font-size="10.00">::algorithm</text>
</a>
</g>
</g>
<!-- Node10&#45;&gt;Node11 -->
<g id="edge10" class="edge"><title>Node10&#45;&gt;Node11</title>
<path fill="none" stroke="midnightblue" d="M537.138,-108.405C555.462,-106.961 575.64,-105.371 594.788,-103.862"/>
<polygon fill="midnightblue" stroke="midnightblue" points="536.861,-104.916 527.167,-109.191 537.411,-111.895 536.861,-104.916"/>
</g>
<!-- Node13&#45;&gt;Node6 -->
<g id="edge14" class="edge"><title>Node13&#45;&gt;Node6</title>
<path fill="none" stroke="midnightblue" d="M543.356,-228.959C560.271,-233.098 578.271,-237.478 595,-241.5 607.984,-244.622 622.159,-247.983 634.945,-250.998"/>
<polygon fill="midnightblue" stroke="midnightblue" points="544.085,-225.535 533.539,-226.555 542.419,-232.334 544.085,-225.535"/>
</g>
<!-- Node14 -->
<g id="node14" class="node"><title>Node14</title>
<g id="a_node14"><a xlink:href="classscram_1_1core_1_1zbdd_1_1CutSetContainer.xhtml#a49532388bd9b917f4351f94f728518aa" target="_top" xlink:title="Eliminates all complements from cut sets. ">
<polygon fill="white" stroke="black" points="603.5,-191 603.5,-232 749.5,-232 749.5,-191 603.5,-191"/>
<text text-anchor="start" x="611.5" y="-220" font-family="Helvetica,sans-Serif" font-size="10.00">scram::core::zbdd::</text>
<text text-anchor="start" x="611.5" y="-209" font-family="Helvetica,sans-Serif" font-size="10.00">CutSetContainer::Eliminate</text>
<text text-anchor="middle" x="676.5" y="-198" font-family="Helvetica,sans-Serif" font-size="10.00">Complements</text>
</a>
</g>
</g>
<!-- Node13&#45;&gt;Node14 -->
<g id="edge15" class="edge"><title>Node13&#45;&gt;Node14</title>
<path fill="none" stroke="midnightblue" d="M545.834,-211.5C564.512,-211.5 584.571,-211.5 603.197,-211.5"/>
<polygon fill="midnightblue" stroke="midnightblue" points="545.618,-208 535.618,-211.5 545.618,-215 545.618,-208"/>
</g>
<!-- Node15&#45;&gt;Node6 -->
<g id="edge17" class="edge"><title>Node15&#45;&gt;Node6</title>
<path fill="none" stroke="midnightblue" d="M550.654,-182.12C553.555,-183.771 556.351,-185.561 559,-187.5 582.272,-204.542 571.313,-225.04 595,-241.5 600.542,-245.351 606.763,-248.429 613.226,-250.887"/>
<polygon fill="midnightblue" stroke="midnightblue" points="552.177,-178.968 541.675,-177.57 549.013,-185.212 552.177,-178.968"/>
</g>
<!-- Node16 -->
<g id="node16" class="node"><title>Node16</title>
<g id="a_node16"><a xlink:href="classscram_1_1core_1_1zbdd_1_1CutSetContainer.xhtml#a1022ad7a4699257a6f0c0809d8f1903d" target="_top" xlink:title="Removes constant modules from cut sets. ">
<polygon fill="white" stroke="black" points="603.5,-131 603.5,-172 749.5,-172 749.5,-131 603.5,-131"/>
<text text-anchor="start" x="611.5" y="-160" font-family="Helvetica,sans-Serif" font-size="10.00">scram::core::zbdd::</text>
<text text-anchor="start" x="611.5" y="-149" font-family="Helvetica,sans-Serif" font-size="10.00">CutSetContainer::Eliminate</text>
<text text-anchor="middle" x="676.5" y="-138" font-family="Helvetica,sans-Serif" font-size="10.00">ConstantModules</text>
</a>
</g>
</g>
<!-- Node15&#45;&gt;Node16 -->
<g id="edge18" class="edge"><title>Node15&#45;&gt;Node16</title>
<path fill="none" stroke="midnightblue" d="M553.866,-158.091C570.234,-157.204 587.33,-156.278 603.358,-155.409"/>
<polygon fill="midnightblue" stroke="midnightblue" points="553.581,-154.601 543.785,-158.637 553.96,-161.591 553.581,-154.601"/>
</g>
</g>
</svg>
