<?xml version="1.0" encoding="UTF-8" standalone="no"?>
<!DOCTYPE svg PUBLIC "-//W3C//DTD SVG 1.1//EN"
 "http://www.w3.org/Graphics/SVG/1.1/DTD/svg11.dtd">
<!-- Generated by graphviz version 2.38.0 (20140413.2041)
 -->
<!-- Title: scram::core::ProbabilityAnalyzer&lt; Bdd &gt; Pages: 1 -->
<svg width="166pt" height="695pt"
 viewBox="0.00 0.00 166.00 695.00" xmlns="http://www.w3.org/2000/svg" xmlns:xlink="http://www.w3.org/1999/xlink">
<g id="graph0" class="graph" transform="scale(1 1) rotate(0) translate(4 691)">
<title>scram::core::ProbabilityAnalyzer&lt; Bdd &gt;</title>
<polygon fill="white" stroke="none" points="-4,4 -4,-691 162,-691 162,4 -4,4"/>
<!-- Node1 -->
<g id="node1" class="node"><title>Node1</title>
<polygon fill="#bfbfbf" stroke="black" points="3.5,-0.5 3.5,-112.5 154.5,-112.5 154.5,-0.5 3.5,-0.5"/>
<text text-anchor="start" x="11.5" y="-100.5" font-family="Helvetica,sans-Serif" font-size="10.00">scram::core::Probability</text>
<text text-anchor="middle" x="79" y="-89.5" font-family="Helvetica,sans-Serif" font-size="10.00">Analyzer&lt; Bdd &gt;</text>
<polyline fill="none" stroke="black" points="3.5,-82.5 154.5,-82.5 "/>
<text text-anchor="middle" x="79" y="-70.5" font-family="Helvetica,sans-Serif" font-size="10.00"> </text>
<polyline fill="none" stroke="black" points="3.5,-63.5 154.5,-63.5 "/>
<text text-anchor="start" x="11.5" y="-51.5" font-family="Helvetica,sans-Serif" font-size="10.00">+ ProbabilityAnalyzer()</text>
<text text-anchor="start" x="11.5" y="-40.5" font-family="Helvetica,sans-Serif" font-size="10.00">+ ProbabilityAnalyzer()</text>
<text text-anchor="start" x="11.5" y="-29.5" font-family="Helvetica,sans-Serif" font-size="10.00">+ ~ProbabilityAnalyzer()</text>
<text text-anchor="start" x="11.5" y="-18.5" font-family="Helvetica,sans-Serif" font-size="10.00">+ bdd_graph()</text>
<text text-anchor="start" x="11.5" y="-7.5" font-family="Helvetica,sans-Serif" font-size="10.00">+ CalculateTotalProbability()</text>
</g>
<!-- Node2 -->
<g id="node2" class="node"><title>Node2</title>
<g id="a_node2"><a xlink:href="classscram_1_1core_1_1ProbabilityAnalyzerBase.xhtml" target="_top" xlink:title="Base class for Probability analyzers. ">
<polygon fill="white" stroke="black" points="-1.42109e-14,-149.5 -1.42109e-14,-261.5 158,-261.5 158,-149.5 -1.42109e-14,-149.5"/>
<text text-anchor="start" x="8" y="-249.5" font-family="Helvetica,sans-Serif" font-size="10.00">scram::core::Probability</text>
<text text-anchor="middle" x="79" y="-238.5" font-family="Helvetica,sans-Serif" font-size="10.00">AnalyzerBase</text>
<polyline fill="none" stroke="black" points="-1.42109e-14,-231.5 158,-231.5 "/>
<text text-anchor="middle" x="79" y="-219.5" font-family="Helvetica,sans-Serif" font-size="10.00"> </text>
<polyline fill="none" stroke="black" points="-1.42109e-14,-212.5 158,-212.5 "/>
<text text-anchor="start" x="8" y="-200.5" font-family="Helvetica,sans-Serif" font-size="10.00">+ ProbabilityAnalyzerBase()</text>
<text text-anchor="start" x="8" y="-189.5" font-family="Helvetica,sans-Serif" font-size="10.00">+ graph()</text>
<text text-anchor="start" x="8" y="-178.5" font-family="Helvetica,sans-Serif" font-size="10.00">+ products()</text>
<text text-anchor="start" x="8" y="-167.5" font-family="Helvetica,sans-Serif" font-size="10.00">+ p_vars()</text>
<text text-anchor="start" x="8" y="-156.5" font-family="Helvetica,sans-Serif" font-size="10.00"># ~ProbabilityAnalyzerBase()</text>
</a>
</g>
</g>
<!-- Node2&#45;&gt;Node1 -->
<g id="edge1" class="edge"><title>Node2&#45;&gt;Node1</title>
<path fill="none" stroke="midnightblue" d="M79,-139.176C79,-130.427 79,-121.522 79,-112.965"/>
<polygon fill="none" stroke="midnightblue" points="75.5001,-139.344 79,-149.344 82.5001,-139.344 75.5001,-139.344"/>
</g>
<!-- Node3 -->
<g id="node3" class="node"><title>Node3</title>
<g id="a_node3"><a xlink:href="classscram_1_1core_1_1ProbabilityAnalysis.xhtml" target="_top" xlink:title="Main quantitative analysis class. ">
<polygon fill="white" stroke="black" points="13,-298.5 13,-432.5 145,-432.5 145,-298.5 13,-298.5"/>
<text text-anchor="start" x="21" y="-420.5" font-family="Helvetica,sans-Serif" font-size="10.00">scram::core::Probability</text>
<text text-anchor="middle" x="79" y="-409.5" font-family="Helvetica,sans-Serif" font-size="10.00">Analysis</text>
<polyline fill="none" stroke="black" points="13,-402.5 145,-402.5 "/>
<text text-anchor="middle" x="79" y="-390.5" font-family="Helvetica,sans-Serif" font-size="10.00"> </text>
<polyline fill="none" stroke="black" points="13,-383.5 145,-383.5 "/>
<text text-anchor="start" x="21" y="-371.5" font-family="Helvetica,sans-Serif" font-size="10.00">+ ProbabilityAnalysis()</text>
<text text-anchor="start" x="21" y="-360.5" font-family="Helvetica,sans-Serif" font-size="10.00">+ ~ProbabilityAnalysis()</text>
<text text-anchor="start" x="21" y="-349.5" font-family="Helvetica,sans-Serif" font-size="10.00">+ Analyze()</text>
<text text-anchor="start" x="21" y="-338.5" font-family="Helvetica,sans-Serif" font-size="10.00">+ p_total()</text>
<text text-anchor="start" x="21" y="-327.5" font-family="Helvetica,sans-Serif" font-size="10.00">+ p_time()</text>
<text text-anchor="start" x="21" y="-316.5" font-family="Helvetica,sans-Serif" font-size="10.00">+ sil()</text>
<text text-anchor="start" x="21" y="-305.5" font-family="Helvetica,sans-Serif" font-size="10.00"># mission_time()</text>
</a>
</g>
</g>
<!-- Node3&#45;&gt;Node2 -->
<g id="edge2" class="edge"><title>Node3&#45;&gt;Node2</title>
<path fill="none" stroke="midnightblue" d="M79,-288.35C79,-279.401 79,-270.403 79,-261.816"/>
<polygon fill="none" stroke="midnightblue" points="75.5001,-288.409 79,-298.409 82.5001,-288.409 75.5001,-288.409"/>
</g>
<!-- Node4 -->
<g id="node4" class="node"><title>Node4</title>
<g id="a_node4"><a xlink:href="classscram_1_1core_1_1Analysis.xhtml" target="_top" xlink:title="Base abstract class for all analysis with settings. ">
<polygon fill="white" stroke="black" points="19.5,-469.5 19.5,-592.5 138.5,-592.5 138.5,-469.5 19.5,-469.5"/>
<text text-anchor="middle" x="79" y="-580.5" font-family="Helvetica,sans-Serif" font-size="10.00">scram::core::Analysis</text>
<polyline fill="none" stroke="black" points="19.5,-573.5 138.5,-573.5 "/>
<text text-anchor="middle" x="79" y="-561.5" font-family="Helvetica,sans-Serif" font-size="10.00"> </text>
<polyline fill="none" stroke="black" points="19.5,-554.5 138.5,-554.5 "/>
<text text-anchor="start" x="27.5" y="-542.5" font-family="Helvetica,sans-Serif" font-size="10.00">+ Analysis()</text>
<text text-anchor="start" x="27.5" y="-531.5" font-family="Helvetica,sans-Serif" font-size="10.00">+ ~Analysis()</text>
<text text-anchor="start" x="27.5" y="-520.5" font-family="Helvetica,sans-Serif" font-size="10.00">+ settings()</text>
<text text-anchor="start" x="27.5" y="-509.5" font-family="Helvetica,sans-Serif" font-size="10.00">+ warnings()</text>
<text text-anchor="start" x="27.5" y="-498.5" font-family="Helvetica,sans-Serif" font-size="10.00">+ analysis_time()</text>
<text text-anchor="start" x="27.5" y="-487.5" font-family="Helvetica,sans-Serif" font-size="10.00"># AddWarning()</text>
<text text-anchor="start" x="27.5" y="-476.5" font-family="Helvetica,sans-Serif" font-size="10.00"># AddAnalysisTime()</text>
</a>
</g>
</g>
<!-- Node4&#45;&gt;Node3 -->
<g id="edge3" class="edge"><title>Node4&#45;&gt;Node3</title>
<path fill="none" stroke="midnightblue" d="M79,-458.958C79,-450.217 79,-441.309 79,-432.645"/>
<polygon fill="none" stroke="midnightblue" points="75.5001,-459.119 79,-469.119 82.5001,-459.119 75.5001,-459.119"/>
</g>
<!-- Node5 -->
<g id="node5" class="node"><title>Node5</title>
<polygon fill="white" stroke="#bfbfbf" points="40.5,-629.5 40.5,-686.5 117.5,-686.5 117.5,-629.5 40.5,-629.5"/>
<text text-anchor="middle" x="79" y="-674.5" font-family="Helvetica,sans-Serif" font-size="10.00">noncopyable</text>
<polyline fill="none" stroke="#bfbfbf" points="40.5,-667.5 117.5,-667.5 "/>
<text text-anchor="middle" x="79" y="-655.5" font-family="Helvetica,sans-Serif" font-size="10.00"> </text>
<polyline fill="none" stroke="#bfbfbf" points="40.5,-648.5 117.5,-648.5 "/>
<text text-anchor="middle" x="79" y="-636.5" font-family="Helvetica,sans-Serif" font-size="10.00"> </text>
</g>
<!-- Node5&#45;&gt;Node4 -->
<g id="edge4" class="edge"><title>Node5&#45;&gt;Node4</title>
<path fill="none" stroke="#8b1a1a" d="M79,-619.099C79,-610.739 79,-601.68 79,-592.672"/>
<polygon fill="none" stroke="#8b1a1a" points="75.5001,-619.258 79,-629.258 82.5001,-619.258 75.5001,-619.258"/>
</g>
</g>
</svg>
