<?xml version="1.0" encoding="UTF-8" standalone="no"?>
<!DOCTYPE svg PUBLIC "-//W3C//DTD SVG 1.1//EN"
 "http://www.w3.org/Graphics/SVG/1.1/DTD/svg11.dtd">
<!-- Generated by graphviz version 2.38.0 (20140413.2041)
 -->
<!-- Title: scram::mef::Component::Add Pages: 1 -->
<svg width="643pt" height="61pt"
 viewBox="0.00 0.00 643.00 61.00" xmlns="http://www.w3.org/2000/svg" xmlns:xlink="http://www.w3.org/1999/xlink">
<g id="graph0" class="graph" transform="scale(1 1) rotate(0) translate(4 57)">
<title>scram::mef::Component::Add</title>
<polygon fill="white" stroke="none" points="-4,4 -4,-57 639,-57 639,4 -4,4"/>
<!-- Node1 -->
<g id="node1" class="node"><title>Node1</title>
<polygon fill="#bfbfbf" stroke="black" points="0,-6 0,-25 158,-25 158,-6 0,-6"/>
<text text-anchor="middle" x="79" y="-13" font-family="Helvetica,sans-Serif" font-size="10.00">scram::mef::Component::Add</text>
</g>
<!-- Node2 -->
<g id="node2" class="node"><title>Node2</title>
<g id="a_node2"><a xlink:href="classscram_1_1mef_1_1CcfGroup.xhtml#a06dd05cabcbeddf42090536f6a47a184" target="_top" xlink:title="scram::mef::CcfGroup\l::members">
<polygon fill="white" stroke="black" points="194,-22.5 194,-52.5 316,-52.5 316,-22.5 194,-22.5"/>
<text text-anchor="start" x="202" y="-40.5" font-family="Helvetica,sans-Serif" font-size="10.00">scram::mef::CcfGroup</text>
<text text-anchor="middle" x="255" y="-29.5" font-family="Helvetica,sans-Serif" font-size="10.00">::members</text>
</a>
</g>
</g>
<!-- Node1&#45;&gt;Node2 -->
<g id="edge1" class="edge"><title>Node1&#45;&gt;Node2</title>
<path fill="none" stroke="midnightblue" d="M155.307,-25.0216C164.75,-26.2155 174.38,-27.4331 183.742,-28.6167"/>
<polygon fill="midnightblue" stroke="midnightblue" points="183.412,-32.1029 193.773,-29.885 184.291,-25.1582 183.412,-32.1029"/>
</g>
<!-- Node4 -->
<g id="node4" class="node"><title>Node4</title>
<g id="a_node4"><a xlink:href="classscram_1_1mef_1_1Element.xhtml#adb401e2ca84aa98cb60797bec2500a81" target="_top" xlink:title="scram::mef::Element\l::name">
<polygon fill="white" stroke="black" points="518,-0.5 518,-30.5 635,-30.5 635,-0.5 518,-0.5"/>
<text text-anchor="start" x="526" y="-18.5" font-family="Helvetica,sans-Serif" font-size="10.00">scram::mef::Element</text>
<text text-anchor="middle" x="576.5" y="-7.5" font-family="Helvetica,sans-Serif" font-size="10.00">::name</text>
</a>
</g>
</g>
<!-- Node1&#45;&gt;Node4 -->
<g id="edge4" class="edge"><title>Node1&#45;&gt;Node4</title>
<path fill="none" stroke="midnightblue" d="M158.183,-13.1704C170.178,-12.8917 182.419,-12.6524 194,-12.5 321.989,-10.8162 354.016,-10.4473 482,-12.5 490.287,-12.6329 498.985,-12.832 507.602,-13.0657"/>
<polygon fill="midnightblue" stroke="midnightblue" points="507.554,-16.5657 517.65,-13.354 507.755,-9.56855 507.554,-16.5657"/>
</g>
<!-- Node3 -->
<g id="node3" class="node"><title>Node3</title>
<g id="a_node3"><a xlink:href="classscram_1_1mef_1_1BasicEvent.xhtml#acfc0e73e1add67aa2ace841350eb62cd" target="_top" xlink:title="Validates the probability expressions for the primary event. ">
<polygon fill="white" stroke="black" points="352,-22.5 352,-52.5 482,-52.5 482,-22.5 352,-22.5"/>
<text text-anchor="start" x="360" y="-40.5" font-family="Helvetica,sans-Serif" font-size="10.00">scram::mef::BasicEvent</text>
<text text-anchor="middle" x="417" y="-29.5" font-family="Helvetica,sans-Serif" font-size="10.00">::Validate</text>
</a>
</g>
</g>
<!-- Node2&#45;&gt;Node3 -->
<g id="edge2" class="edge"><title>Node2&#45;&gt;Node3</title>
<path fill="none" stroke="midnightblue" d="M316.033,-37.5C324.446,-37.5 333.174,-37.5 341.811,-37.5"/>
<polygon fill="midnightblue" stroke="midnightblue" points="341.883,-41.0001 351.883,-37.5 341.883,-34.0001 341.883,-41.0001"/>
</g>
<!-- Node3&#45;&gt;Node4 -->
<g id="edge3" class="edge"><title>Node3&#45;&gt;Node4</title>
<path fill="none" stroke="midnightblue" d="M482.061,-28.5518C490.57,-27.3633 499.316,-26.1416 507.882,-24.9451"/>
<polygon fill="midnightblue" stroke="midnightblue" points="508.411,-28.4052 517.831,-23.5554 507.443,-21.4725 508.411,-28.4052"/>
</g>
</g>
</svg>
