<?xml version="1.0" encoding="UTF-8" standalone="no"?>
<!DOCTYPE svg PUBLIC "-//W3C//DTD SVG 1.1//EN"
 "http://www.w3.org/Graphics/SVG/1.1/DTD/svg11.dtd">
<!-- Generated by graphviz version 2.38.0 (20140413.2041)
 -->
<!-- Title: scram::mef::BetaFactorModel Pages: 1 -->
<svg width="274pt" height="678pt"
 viewBox="0.00 0.00 274.00 678.00" xmlns="http://www.w3.org/2000/svg" xmlns:xlink="http://www.w3.org/1999/xlink">
<g id="graph0" class="graph" transform="scale(1 1) rotate(0) translate(4 674)">
<title>scram::mef::BetaFactorModel</title>
<polygon fill="white" stroke="none" points="-4,4 -4,-674 270,-674 270,4 -4,4"/>
<!-- Node1 -->
<g id="node1" class="node"><title>Node1</title>
<polygon fill="#bfbfbf" stroke="black" points="94.5,-0.5 94.5,-57.5 252.5,-57.5 252.5,-0.5 94.5,-0.5"/>
<text text-anchor="middle" x="173.5" y="-45.5" font-family="Helvetica,sans-Serif" font-size="10.00">scram::mef::BetaFactorModel</text>
<polyline fill="none" stroke="black" points="94.5,-38.5 252.5,-38.5 "/>
<text text-anchor="middle" x="173.5" y="-26.5" font-family="Helvetica,sans-Serif" font-size="10.00"> </text>
<polyline fill="none" stroke="black" points="94.5,-19.5 252.5,-19.5 "/>
<text text-anchor="middle" x="173.5" y="-7.5" font-family="Helvetica,sans-Serif" font-size="10.00"> </text>
</g>
<!-- Node2 -->
<g id="node2" class="node"><title>Node2</title>
<g id="a_node2"><a xlink:href="classscram_1_1mef_1_1CcfGroup.xhtml" target="_top" xlink:title="Abstract base class for all common cause failure models. ">
<polygon fill="white" stroke="black" points="112.5,-94.5 112.5,-283.5 234.5,-283.5 234.5,-94.5 112.5,-94.5"/>
<text text-anchor="middle" x="173.5" y="-271.5" font-family="Helvetica,sans-Serif" font-size="10.00">scram::mef::CcfGroup</text>
<polyline fill="none" stroke="black" points="112.5,-264.5 234.5,-264.5 "/>
<text text-anchor="middle" x="173.5" y="-252.5" font-family="Helvetica,sans-Serif" font-size="10.00"> </text>
<polyline fill="none" stroke="black" points="112.5,-245.5 234.5,-245.5 "/>
<text text-anchor="start" x="120.5" y="-233.5" font-family="Helvetica,sans-Serif" font-size="10.00">+ ~CcfGroup()</text>
<text text-anchor="start" x="120.5" y="-222.5" font-family="Helvetica,sans-Serif" font-size="10.00">+ members()</text>
<text text-anchor="start" x="120.5" y="-211.5" font-family="Helvetica,sans-Serif" font-size="10.00">+ AddMember()</text>
<text text-anchor="start" x="120.5" y="-200.5" font-family="Helvetica,sans-Serif" font-size="10.00">+ AddDistribution()</text>
<text text-anchor="start" x="120.5" y="-189.5" font-family="Helvetica,sans-Serif" font-size="10.00">+ AddFactor()</text>
<text text-anchor="start" x="120.5" y="-178.5" font-family="Helvetica,sans-Serif" font-size="10.00">+ Validate()</text>
<text text-anchor="start" x="120.5" y="-167.5" font-family="Helvetica,sans-Serif" font-size="10.00">+ ApplyModel()</text>
<text text-anchor="start" x="120.5" y="-156.5" font-family="Helvetica,sans-Serif" font-size="10.00"># distribution()</text>
<text text-anchor="start" x="120.5" y="-145.5" font-family="Helvetica,sans-Serif" font-size="10.00"># factors()</text>
<text text-anchor="start" x="120.5" y="-134.5" font-family="Helvetica,sans-Serif" font-size="10.00"># Register()</text>
<text text-anchor="start" x="120.5" y="-123.5" font-family="Helvetica,sans-Serif" font-size="10.00"># Register()</text>
<text text-anchor="start" x="120.5" y="-112.5" font-family="Helvetica,sans-Serif" font-size="10.00">* Register()</text>
<text text-anchor="start" x="120.5" y="-101.5" font-family="Helvetica,sans-Serif" font-size="10.00">* Register()</text>
</a>
</g>
</g>
<!-- Node2&#45;&gt;Node1 -->
<g id="edge1" class="edge"><title>Node2&#45;&gt;Node1</title>
<path fill="none" stroke="midnightblue" d="M173.5,-84.1277C173.5,-74.5626 173.5,-65.5392 173.5,-57.7023"/>
<polygon fill="none" stroke="midnightblue" points="170,-84.2646 173.5,-94.2646 177,-84.2647 170,-84.2646"/>
</g>
<!-- Node3 -->
<g id="node3" class="node"><title>Node3</title>
<g id="a_node3"><a xlink:href="classscram_1_1mef_1_1Id.xhtml" target="_top" xlink:title="Mixin class for assigning unique identifiers to elements. ">
<polygon fill="white" stroke="black" points="70,-320.5 70,-454.5 171,-454.5 171,-320.5 70,-320.5"/>
<text text-anchor="middle" x="120.5" y="-442.5" font-family="Helvetica,sans-Serif" font-size="10.00">scram::mef::Id</text>
<polyline fill="none" stroke="black" points="70,-435.5 171,-435.5 "/>
<text text-anchor="middle" x="120.5" y="-423.5" font-family="Helvetica,sans-Serif" font-size="10.00"> </text>
<polyline fill="none" stroke="black" points="70,-416.5 171,-416.5 "/>
<text text-anchor="start" x="78" y="-404.5" font-family="Helvetica,sans-Serif" font-size="10.00">+ Id()</text>
<text text-anchor="start" x="78" y="-393.5" font-family="Helvetica,sans-Serif" font-size="10.00">+ id()</text>
<text text-anchor="start" x="78" y="-382.5" font-family="Helvetica,sans-Serif" font-size="10.00">+ id()</text>
<text text-anchor="start" x="78" y="-371.5" font-family="Helvetica,sans-Serif" font-size="10.00">+ unique_name()</text>
<text text-anchor="start" x="78" y="-360.5" font-family="Helvetica,sans-Serif" font-size="10.00">+ unique_name()</text>
<text text-anchor="start" x="78" y="-349.5" font-family="Helvetica,sans-Serif" font-size="10.00"># ~Id()</text>
<text text-anchor="start" x="78" y="-338.5" font-family="Helvetica,sans-Serif" font-size="10.00">* unique_name()</text>
<text text-anchor="start" x="78" y="-327.5" font-family="Helvetica,sans-Serif" font-size="10.00">* unique_name()</text>
</a>
</g>
</g>
<!-- Node3&#45;&gt;Node2 -->
<g id="edge2" class="edge"><title>Node3&#45;&gt;Node2</title>
<path fill="none" stroke="midnightblue" d="M141.02,-310.421C143.397,-301.608 145.842,-292.544 148.272,-283.533"/>
<polygon fill="none" stroke="midnightblue" points="137.594,-309.682 138.369,-320.248 144.353,-311.505 137.594,-309.682"/>
</g>
<!-- Node4 -->
<g id="node4" class="node"><title>Node4</title>
<g id="a_node4"><a xlink:href="classscram_1_1mef_1_1Element.xhtml" target="_top" xlink:title="Mixin class that represents any element of analysis that can have extra descriptions, such as attributes and a label. ">
<polygon fill="white" stroke="black" points="0,-491.5 0,-669.5 117,-669.5 117,-491.5 0,-491.5"/>
<text text-anchor="middle" x="58.5" y="-657.5" font-family="Helvetica,sans-Serif" font-size="10.00">scram::mef::Element</text>
<polyline fill="none" stroke="black" points="0,-650.5 117,-650.5 "/>
<text text-anchor="middle" x="58.5" y="-638.5" font-family="Helvetica,sans-Serif" font-size="10.00"> </text>
<polyline fill="none" stroke="black" points="0,-631.5 117,-631.5 "/>
<text text-anchor="start" x="8" y="-619.5" font-family="Helvetica,sans-Serif" font-size="10.00">+ Element()</text>
<text text-anchor="start" x="8" y="-608.5" font-family="Helvetica,sans-Serif" font-size="10.00">+ name()</text>
<text text-anchor="start" x="8" y="-597.5" font-family="Helvetica,sans-Serif" font-size="10.00">+ label()</text>
<text text-anchor="start" x="8" y="-586.5" font-family="Helvetica,sans-Serif" font-size="10.00">+ label()</text>
<text text-anchor="start" x="8" y="-575.5" font-family="Helvetica,sans-Serif" font-size="10.00">+ attributes()</text>
<text text-anchor="start" x="8" y="-564.5" font-family="Helvetica,sans-Serif" font-size="10.00">+ AddAttribute()</text>
<text text-anchor="start" x="8" y="-553.5" font-family="Helvetica,sans-Serif" font-size="10.00">+ SetAttribute()</text>
<text text-anchor="start" x="8" y="-542.5" font-family="Helvetica,sans-Serif" font-size="10.00">+ HasAttribute()</text>
<text text-anchor="start" x="8" y="-531.5" font-family="Helvetica,sans-Serif" font-size="10.00">+ GetAttribute()</text>
<text text-anchor="start" x="8" y="-520.5" font-family="Helvetica,sans-Serif" font-size="10.00">+ RemoveAttribute()</text>
<text text-anchor="start" x="8" y="-509.5" font-family="Helvetica,sans-Serif" font-size="10.00"># ~Element()</text>
<text text-anchor="start" x="8" y="-498.5" font-family="Helvetica,sans-Serif" font-size="10.00"># name()</text>
</a>
</g>
</g>
<!-- Node4&#45;&gt;Node3 -->
<g id="edge3" class="edge"><title>Node4&#45;&gt;Node3</title>
<path fill="none" stroke="midnightblue" d="M90.2387,-481.724C93.2127,-472.562 96.1777,-463.428 99.024,-454.66"/>
<polygon fill="none" stroke="midnightblue" points="86.8992,-480.676 87.1407,-491.268 93.5573,-482.837 86.8992,-480.676"/>
</g>
<!-- Node5 -->
<g id="node5" class="node"><title>Node5</title>
<g id="a_node5"><a xlink:href="classscram_1_1mef_1_1Role.xhtml" target="_top" xlink:title="Mixin class that manages private or public roles for elements as needed. ">
<polygon fill="white" stroke="black" points="135,-535.5 135,-625.5 232,-625.5 232,-535.5 135,-535.5"/>
<text text-anchor="middle" x="183.5" y="-613.5" font-family="Helvetica,sans-Serif" font-size="10.00">scram::mef::Role</text>
<polyline fill="none" stroke="black" points="135,-606.5 232,-606.5 "/>
<text text-anchor="middle" x="183.5" y="-594.5" font-family="Helvetica,sans-Serif" font-size="10.00"> </text>
<polyline fill="none" stroke="black" points="135,-587.5 232,-587.5 "/>
<text text-anchor="start" x="143" y="-575.5" font-family="Helvetica,sans-Serif" font-size="10.00">+ Role()</text>
<text text-anchor="start" x="143" y="-564.5" font-family="Helvetica,sans-Serif" font-size="10.00">+ role()</text>
<text text-anchor="start" x="143" y="-553.5" font-family="Helvetica,sans-Serif" font-size="10.00">+ base_path()</text>
<text text-anchor="start" x="143" y="-542.5" font-family="Helvetica,sans-Serif" font-size="10.00"># ~Role()</text>
</a>
</g>
</g>
<!-- Node5&#45;&gt;Node3 -->
<g id="edge4" class="edge"><title>Node5&#45;&gt;Node3</title>
<path fill="none" stroke="midnightblue" d="M165.745,-525.67C158.468,-503.61 149.975,-477.86 142.324,-454.666"/>
<polygon fill="none" stroke="midnightblue" points="162.432,-526.8 168.888,-535.201 169.08,-524.608 162.432,-526.8"/>
</g>
<!-- Node6 -->
<g id="node6" class="node"><title>Node6</title>
<polygon fill="white" stroke="#bfbfbf" points="189,-359 189,-416 266,-416 266,-359 189,-359"/>
<text text-anchor="middle" x="227.5" y="-404" font-family="Helvetica,sans-Serif" font-size="10.00">noncopyable</text>
<polyline fill="none" stroke="#bfbfbf" points="189,-397 266,-397 "/>
<text text-anchor="middle" x="227.5" y="-385" font-family="Helvetica,sans-Serif" font-size="10.00"> </text>
<polyline fill="none" stroke="#bfbfbf" points="189,-378 266,-378 "/>
<text text-anchor="middle" x="227.5" y="-366" font-family="Helvetica,sans-Serif" font-size="10.00"> </text>
</g>
<!-- Node6&#45;&gt;Node2 -->
<g id="edge5" class="edge"><title>Node6&#45;&gt;Node2</title>
<path fill="none" stroke="#8b1a1a" d="M217.176,-348.932C212.053,-330.29 205.614,-306.858 199.265,-283.757"/>
<polygon fill="none" stroke="#8b1a1a" points="213.853,-350.048 219.878,-358.763 220.603,-348.193 213.853,-350.048"/>
</g>
</g>
</svg>
