<?xml version="1.0" encoding="UTF-8" standalone="no"?>
<!DOCTYPE svg PUBLIC "-//W3C//DTD SVG 1.1//EN"
 "http://www.w3.org/Graphics/SVG/1.1/DTD/svg11.dtd">
<!-- Generated by graphviz version 2.38.0 (20140413.2041)
 -->
<!-- Title: scram::core::Zbdd::Minimize Pages: 1 -->
<svg width="498pt" height="274pt"
 viewBox="0.00 0.00 498.00 274.00" xmlns="http://www.w3.org/2000/svg" xmlns:xlink="http://www.w3.org/1999/xlink">
<g id="graph0" class="graph" transform="scale(1 1) rotate(0) translate(4 270)">
<title>scram::core::Zbdd::Minimize</title>
<polygon fill="white" stroke="none" points="-4,4 -4,-270 494,-270 494,4 -4,4"/>
<!-- Node1 -->
<g id="node1" class="node"><title>Node1</title>
<polygon fill="#bfbfbf" stroke="black" points="0,-115.5 0,-145.5 111,-145.5 111,-115.5 0,-115.5"/>
<text text-anchor="start" x="8" y="-133.5" font-family="Helvetica,sans-Serif" font-size="10.00">scram::core::Zbdd::</text>
<text text-anchor="middle" x="55.5" y="-122.5" font-family="Helvetica,sans-Serif" font-size="10.00">Minimize</text>
</g>
<!-- Node2 -->
<g id="node2" class="node"><title>Node2</title>
<g id="a_node2"><a xlink:href="classscram_1_1core_1_1Zbdd.xhtml#a77945d28bd832d2735969d0b0a451c78" target="_top" xlink:title="Runs the analysis with the representation of a PDAG as ZBDD. ">
<polygon fill="white" stroke="black" points="163.5,-235.5 163.5,-265.5 274.5,-265.5 274.5,-235.5 163.5,-235.5"/>
<text text-anchor="start" x="171.5" y="-253.5" font-family="Helvetica,sans-Serif" font-size="10.00">scram::core::Zbdd::</text>
<text text-anchor="middle" x="219" y="-242.5" font-family="Helvetica,sans-Serif" font-size="10.00">Analyze</text>
</a>
</g>
</g>
<!-- Node1&#45;&gt;Node2 -->
<g id="edge1" class="edge"><title>Node1&#45;&gt;Node2</title>
<path fill="none" stroke="midnightblue" d="M73.619,-154.006C90.2334,-175.318 117.245,-206.255 147,-225.5 152.816,-229.261 159.267,-232.537 165.84,-235.367"/>
<polygon fill="midnightblue" stroke="midnightblue" points="76.21,-151.632 67.3638,-145.801 70.6432,-155.876 76.21,-151.632"/>
</g>
<!-- Node4 -->
<g id="node4" class="node"><title>Node4</title>
<g id="a_node4"><a xlink:href="classscram_1_1core_1_1Zbdd.xhtml#a499a8bc4bc3854e7b2928c08515243cf" target="_top" xlink:title="Specialization of Apply for AND operator for non&#45;terminal ZBDD vertices. ">
<polygon fill="white" stroke="black" points="163.5,-186.5 163.5,-216.5 274.5,-216.5 274.5,-186.5 163.5,-186.5"/>
<text text-anchor="start" x="171.5" y="-204.5" font-family="Helvetica,sans-Serif" font-size="10.00">scram::core::Zbdd::</text>
<text text-anchor="middle" x="219" y="-193.5" font-family="Helvetica,sans-Serif" font-size="10.00">Apply</text>
</a>
</g>
</g>
<!-- Node1&#45;&gt;Node4 -->
<g id="edge3" class="edge"><title>Node1&#45;&gt;Node4</title>
<path fill="none" stroke="midnightblue" d="M92.9573,-150.414C109.256,-158.955 128.85,-168.732 147,-176.5 155.049,-179.945 163.749,-183.299 172.206,-186.374"/>
<polygon fill="midnightblue" stroke="midnightblue" points="94.2526,-147.139 83.7773,-145.552 90.9767,-153.325 94.2526,-147.139"/>
</g>
<!-- Node5 -->
<g id="node5" class="node"><title>Node5</title>
<g id="a_node5"><a xlink:href="classscram_1_1core_1_1Zbdd.xhtml#ac3ac27090b550d973b20bd971c3de9f9" target="_top" xlink:title="Removes complements of variables from products. ">
<polygon fill="white" stroke="black" points="155,-137.5 155,-167.5 283,-167.5 283,-137.5 155,-137.5"/>
<text text-anchor="start" x="163" y="-155.5" font-family="Helvetica,sans-Serif" font-size="10.00">scram::core::Zbdd::</text>
<text text-anchor="middle" x="219" y="-144.5" font-family="Helvetica,sans-Serif" font-size="10.00">EliminateComplements</text>
</a>
</g>
</g>
<!-- Node1&#45;&gt;Node5 -->
<g id="edge4" class="edge"><title>Node1&#45;&gt;Node5</title>
<path fill="none" stroke="midnightblue" d="M121.189,-139.312C132.247,-140.818 143.723,-142.382 154.743,-143.883"/>
<polygon fill="midnightblue" stroke="midnightblue" points="121.557,-135.83 111.177,-137.948 120.613,-142.766 121.557,-135.83"/>
</g>
<!-- Node7 -->
<g id="node7" class="node"><title>Node7</title>
<g id="a_node7"><a xlink:href="classscram_1_1core_1_1Zbdd.xhtml#af92e04ed908364e0177ce444d7b72712" target="_top" xlink:title="The common constructor to initialize member variables. ">
<polygon fill="white" stroke="black" points="340,-99 340,-118 477,-118 477,-99 340,-99"/>
<text text-anchor="middle" x="408.5" y="-106" font-family="Helvetica,sans-Serif" font-size="10.00">scram::core::Zbdd::Zbdd</text>
</a>
</g>
</g>
<!-- Node1&#45;&gt;Node7 -->
<g id="edge11" class="edge"><title>Node1&#45;&gt;Node7</title>
<path fill="none" stroke="midnightblue" d="M121.416,-126.431C183.524,-122.538 276.812,-116.691 339.824,-112.742"/>
<polygon fill="midnightblue" stroke="midnightblue" points="121.105,-122.944 111.344,-127.062 121.543,-129.93 121.105,-122.944"/>
</g>
<!-- Node8 -->
<g id="node8" class="node"><title>Node8</title>
<g id="a_node8"><a xlink:href="classscram_1_1core_1_1Zbdd.xhtml#aeb83fd37f2aee74ac41e6ccadba82d39" target="_top" xlink:title="Removes constant modules from products. ">
<polygon fill="white" stroke="black" points="147,-49.5 147,-79.5 291,-79.5 291,-49.5 147,-49.5"/>
<text text-anchor="start" x="155" y="-67.5" font-family="Helvetica,sans-Serif" font-size="10.00">scram::core::Zbdd::</text>
<text text-anchor="middle" x="219" y="-56.5" font-family="Helvetica,sans-Serif" font-size="10.00">EliminateConstantModules</text>
</a>
</g>
</g>
<!-- Node1&#45;&gt;Node8 -->
<g id="edge7" class="edge"><title>Node1&#45;&gt;Node8</title>
<path fill="none" stroke="midnightblue" d="M103.119,-111.448C127.914,-101.315 157.971,-89.0318 181.121,-79.5713"/>
<polygon fill="midnightblue" stroke="midnightblue" points="101.484,-108.335 93.5514,-115.358 104.132,-114.815 101.484,-108.335"/>
</g>
<!-- Node10 -->
<g id="node10" class="node"><title>Node10</title>
<g id="a_node10"><a xlink:href="classscram_1_1core_1_1zbdd_1_1CutSetContainer.xhtml#a1648d3f24a95302fac2a40e95f743dda" target="_top" xlink:title="Minimizes cut sets in the container. ">
<polygon fill="white" stroke="black" points="147,-0.5 147,-30.5 291,-30.5 291,-0.5 147,-0.5"/>
<text text-anchor="start" x="155" y="-18.5" font-family="Helvetica,sans-Serif" font-size="10.00">scram::core::zbdd::</text>
<text text-anchor="middle" x="219" y="-7.5" font-family="Helvetica,sans-Serif" font-size="10.00">CutSetContainer::Minimize</text>
</a>
</g>
</g>
<!-- Node1&#45;&gt;Node10 -->
<g id="edge10" class="edge"><title>Node1&#45;&gt;Node10</title>
<path fill="none" stroke="midnightblue" d="M74.0574,-107.586C90.8012,-87.1485 117.744,-57.7222 147,-39.5 152.412,-36.1292 158.353,-33.1695 164.423,-30.5871"/>
<polygon fill="midnightblue" stroke="midnightblue" points="71.2623,-105.477 67.7382,-115.468 76.7239,-109.855 71.2623,-105.477"/>
</g>
<!-- Node3 -->
<g id="node3" class="node"><title>Node3</title>
<g id="a_node3"><a xlink:href="classscram_1_1core_1_1FaultTreeAnalyzer.xhtml#aedae0c884539dab245018194771f5021" target="_top" xlink:title="scram::core::FaultTreeAnalyzer\l::algorithm">
<polygon fill="white" stroke="black" points="327,-235.5 327,-265.5 490,-265.5 490,-235.5 327,-235.5"/>
<text text-anchor="start" x="335" y="-253.5" font-family="Helvetica,sans-Serif" font-size="10.00">scram::core::FaultTreeAnalyzer</text>
<text text-anchor="middle" x="408.5" y="-242.5" font-family="Helvetica,sans-Serif" font-size="10.00">::algorithm</text>
</a>
</g>
</g>
<!-- Node2&#45;&gt;Node3 -->
<g id="edge2" class="edge"><title>Node2&#45;&gt;Node3</title>
<path fill="none" stroke="midnightblue" d="M284.899,-250.5C298.444,-250.5 312.878,-250.5 326.911,-250.5"/>
<polygon fill="midnightblue" stroke="midnightblue" points="284.737,-247 274.737,-250.5 284.737,-254 284.737,-247"/>
</g>
<!-- Node6 -->
<g id="node6" class="node"><title>Node6</title>
<g id="a_node6"><a xlink:href="classscram_1_1core_1_1zbdd_1_1CutSetContainer.xhtml#a49532388bd9b917f4351f94f728518aa" target="_top" xlink:title="Eliminates all complements from cut sets. ">
<polygon fill="white" stroke="black" points="335.5,-137 335.5,-178 481.5,-178 481.5,-137 335.5,-137"/>
<text text-anchor="start" x="343.5" y="-166" font-family="Helvetica,sans-Serif" font-size="10.00">scram::core::zbdd::</text>
<text text-anchor="start" x="343.5" y="-155" font-family="Helvetica,sans-Serif" font-size="10.00">CutSetContainer::Eliminate</text>
<text text-anchor="middle" x="408.5" y="-144" font-family="Helvetica,sans-Serif" font-size="10.00">Complements</text>
</a>
</g>
</g>
<!-- Node5&#45;&gt;Node6 -->
<g id="edge5" class="edge"><title>Node5&#45;&gt;Node6</title>
<path fill="none" stroke="midnightblue" d="M293.548,-154.461C307.237,-154.826 321.53,-155.207 335.182,-155.572"/>
<polygon fill="midnightblue" stroke="midnightblue" points="293.307,-150.954 283.218,-154.186 293.121,-157.951 293.307,-150.954"/>
</g>
<!-- Node5&#45;&gt;Node7 -->
<g id="edge6" class="edge"><title>Node5&#45;&gt;Node7</title>
<path fill="none" stroke="midnightblue" d="M293.081,-135.35C318.171,-129.463 345.339,-123.087 366.904,-118.027"/>
<polygon fill="midnightblue" stroke="midnightblue" points="292.153,-131.973 283.218,-137.665 293.753,-138.788 292.153,-131.973"/>
</g>
<!-- Node8&#45;&gt;Node7 -->
<g id="edge9" class="edge"><title>Node8&#45;&gt;Node7</title>
<path fill="none" stroke="midnightblue" d="M293.801,-81.8187C318.714,-87.6648 345.596,-93.9732 366.964,-98.9876"/>
<polygon fill="midnightblue" stroke="midnightblue" points="294.538,-78.3965 284.002,-79.5192 292.938,-85.2114 294.538,-78.3965"/>
</g>
<!-- Node9 -->
<g id="node9" class="node"><title>Node9</title>
<g id="a_node9"><a xlink:href="classscram_1_1core_1_1zbdd_1_1CutSetContainer.xhtml#a1022ad7a4699257a6f0c0809d8f1903d" target="_top" xlink:title="Removes constant modules from cut sets. ">
<polygon fill="white" stroke="black" points="335.5,-39 335.5,-80 481.5,-80 481.5,-39 335.5,-39"/>
<text text-anchor="start" x="343.5" y="-68" font-family="Helvetica,sans-Serif" font-size="10.00">scram::core::zbdd::</text>
<text text-anchor="start" x="343.5" y="-57" font-family="Helvetica,sans-Serif" font-size="10.00">CutSetContainer::Eliminate</text>
<text text-anchor="middle" x="408.5" y="-46" font-family="Helvetica,sans-Serif" font-size="10.00">ConstantModules</text>
</a>
</g>
</g>
<!-- Node8&#45;&gt;Node9 -->
<g id="edge8" class="edge"><title>Node8&#45;&gt;Node9</title>
<path fill="none" stroke="midnightblue" d="M301.458,-62.3278C312.775,-62.026 324.334,-61.7178 335.462,-61.421"/>
<polygon fill="midnightblue" stroke="midnightblue" points="301.056,-58.8372 291.153,-62.6026 301.243,-65.8347 301.056,-58.8372"/>
</g>
</g>
</svg>
