<?xml version="1.0" encoding="UTF-8" standalone="no"?>
<!DOCTYPE svg PUBLIC "-//W3C//DTD SVG 1.1//EN"
 "http://www.w3.org/Graphics/SVG/1.1/DTD/svg11.dtd">
<!-- Generated by graphviz version 2.38.0 (20140413.2041)
 -->
<!-- Title: scram::mef::Usage Pages: 1 -->
<svg width="1304pt" height="667pt"
 viewBox="0.00 0.00 1303.50 667.00" xmlns="http://www.w3.org/2000/svg" xmlns:xlink="http://www.w3.org/1999/xlink">
<g id="graph0" class="graph" transform="scale(1 1) rotate(0) translate(4 663)">
<title>scram::mef::Usage</title>
<polygon fill="white" stroke="none" points="-4,4 -4,-663 1299.5,-663 1299.5,4 -4,4"/>
<!-- Node1 -->
<g id="node1" class="node"><title>Node1</title>
<polygon fill="#bfbfbf" stroke="black" points="682,-579.5 682,-658.5 790,-658.5 790,-579.5 682,-579.5"/>
<text text-anchor="middle" x="736" y="-646.5" font-family="Helvetica,sans-Serif" font-size="10.00">scram::mef::Usage</text>
<polyline fill="none" stroke="black" points="682,-639.5 790,-639.5 "/>
<text text-anchor="middle" x="736" y="-627.5" font-family="Helvetica,sans-Serif" font-size="10.00"> </text>
<polyline fill="none" stroke="black" points="682,-620.5 790,-620.5 "/>
<text text-anchor="start" x="690" y="-608.5" font-family="Helvetica,sans-Serif" font-size="10.00">+ usage()</text>
<text text-anchor="start" x="690" y="-597.5" font-family="Helvetica,sans-Serif" font-size="10.00">+ usage()</text>
<text text-anchor="start" x="690" y="-586.5" font-family="Helvetica,sans-Serif" font-size="10.00"># ~Usage()</text>
</g>
<!-- Node2 -->
<g id="node2" class="node"><title>Node2</title>
<g id="a_node2"><a xlink:href="classscram_1_1mef_1_1Event.xhtml" target="_top" xlink:title="Abstract base class for general fault tree events. ">
<polygon fill="white" stroke="black" points="147,-397.5 147,-454.5 251,-454.5 251,-397.5 147,-397.5"/>
<text text-anchor="middle" x="199" y="-442.5" font-family="Helvetica,sans-Serif" font-size="10.00">scram::mef::Event</text>
<polyline fill="none" stroke="black" points="147,-435.5 251,-435.5 "/>
<text text-anchor="middle" x="199" y="-423.5" font-family="Helvetica,sans-Serif" font-size="10.00"> </text>
<polyline fill="none" stroke="black" points="147,-416.5 251,-416.5 "/>
<text text-anchor="start" x="155" y="-404.5" font-family="Helvetica,sans-Serif" font-size="10.00">+ ~Event()</text>
</a>
</g>
</g>
<!-- Node1&#45;&gt;Node2 -->
<g id="edge1" class="edge"><title>Node1&#45;&gt;Node2</title>
<path fill="none" stroke="midnightblue" d="M671.624,-614.92C557.327,-608.32 324.868,-589.454 260,-543 230.309,-521.737 213.87,-481.54 205.738,-454.508"/>
<polygon fill="none" stroke="midnightblue" points="671.461,-618.416 681.642,-615.484 671.855,-611.427 671.461,-618.416"/>
</g>
<!-- Node7 -->
<g id="node7" class="node"><title>Node7</title>
<g id="a_node7"><a xlink:href="classscram_1_1mef_1_1EventTree.xhtml" target="_top" xlink:title="Event Tree representation with MEF constructs. ">
<polygon fill="white" stroke="black" points="269,-309.5 269,-542.5 393,-542.5 393,-309.5 269,-309.5"/>
<text text-anchor="middle" x="331" y="-530.5" font-family="Helvetica,sans-Serif" font-size="10.00">scram::mef::EventTree</text>
<polyline fill="none" stroke="black" points="269,-523.5 393,-523.5 "/>
<text text-anchor="middle" x="331" y="-511.5" font-family="Helvetica,sans-Serif" font-size="10.00"> </text>
<polyline fill="none" stroke="black" points="269,-504.5 393,-504.5 "/>
<text text-anchor="start" x="277" y="-492.5" font-family="Helvetica,sans-Serif" font-size="10.00">+ initial_state()</text>
<text text-anchor="start" x="277" y="-481.5" font-family="Helvetica,sans-Serif" font-size="10.00">+ initial_state()</text>
<text text-anchor="start" x="277" y="-470.5" font-family="Helvetica,sans-Serif" font-size="10.00">+ functional_events()</text>
<text text-anchor="start" x="277" y="-459.5" font-family="Helvetica,sans-Serif" font-size="10.00">+ branches()</text>
<text text-anchor="start" x="277" y="-448.5" font-family="Helvetica,sans-Serif" font-size="10.00">+ Add()</text>
<text text-anchor="start" x="277" y="-437.5" font-family="Helvetica,sans-Serif" font-size="10.00">+ Add()</text>
<text text-anchor="start" x="277" y="-426.5" font-family="Helvetica,sans-Serif" font-size="10.00">+ Add()</text>
<text text-anchor="start" x="277" y="-415.5" font-family="Helvetica,sans-Serif" font-size="10.00">+ Add()</text>
<text text-anchor="start" x="277" y="-404.5" font-family="Helvetica,sans-Serif" font-size="10.00">* functional_events()</text>
<text text-anchor="start" x="277" y="-393.5" font-family="Helvetica,sans-Serif" font-size="10.00">* branches()</text>
<text text-anchor="start" x="277" y="-382.5" font-family="Helvetica,sans-Serif" font-size="10.00">* Add()</text>
<text text-anchor="start" x="277" y="-371.5" font-family="Helvetica,sans-Serif" font-size="10.00">* Add()</text>
<text text-anchor="start" x="277" y="-360.5" font-family="Helvetica,sans-Serif" font-size="10.00">* Add()</text>
<text text-anchor="start" x="277" y="-349.5" font-family="Helvetica,sans-Serif" font-size="10.00">* Add()</text>
<text text-anchor="start" x="277" y="-338.5" font-family="Helvetica,sans-Serif" font-size="10.00">* sequences_</text>
<text text-anchor="start" x="277" y="-327.5" font-family="Helvetica,sans-Serif" font-size="10.00">* functional_events_</text>
<text text-anchor="start" x="277" y="-316.5" font-family="Helvetica,sans-Serif" font-size="10.00">* branches_</text>
</a>
</g>
</g>
<!-- Node1&#45;&gt;Node7 -->
<g id="edge6" class="edge"><title>Node1&#45;&gt;Node7</title>
<path fill="none" stroke="midnightblue" d="M671.654,-618.03C599.629,-615.005 482.492,-600.612 402,-543 398.928,-540.801 395.963,-538.424 393.102,-535.9"/>
<polygon fill="none" stroke="midnightblue" points="671.825,-621.538 681.944,-618.397 672.075,-614.543 671.825,-621.538"/>
</g>
<!-- Node8 -->
<g id="node8" class="node"><title>Node8</title>
<g id="a_node8"><a xlink:href="classscram_1_1mef_1_1FunctionalEvent.xhtml" target="_top" xlink:title="Representation of functional events in event trees. ">
<polygon fill="white" stroke="black" points="411,-397.5 411,-454.5 563,-454.5 563,-397.5 411,-397.5"/>
<text text-anchor="middle" x="487" y="-442.5" font-family="Helvetica,sans-Serif" font-size="10.00">scram::mef::FunctionalEvent</text>
<polyline fill="none" stroke="black" points="411,-435.5 563,-435.5 "/>
<text text-anchor="middle" x="487" y="-423.5" font-family="Helvetica,sans-Serif" font-size="10.00"> </text>
<polyline fill="none" stroke="black" points="411,-416.5 563,-416.5 "/>
<text text-anchor="start" x="419" y="-404.5" font-family="Helvetica,sans-Serif" font-size="10.00">+ order()</text>
</a>
</g>
</g>
<!-- Node1&#45;&gt;Node8 -->
<g id="edge7" class="edge"><title>Node1&#45;&gt;Node8</title>
<path fill="none" stroke="midnightblue" d="M672.22,-597.245C640.265,-584.81 602.256,-566.757 573,-543 542.64,-518.347 517.346,-480.664 502.218,-454.987"/>
<polygon fill="none" stroke="midnightblue" points="671.334,-600.652 681.926,-600.923 673.815,-594.106 671.334,-600.652"/>
</g>
<!-- Node9 -->
<g id="node9" class="node"><title>Node9</title>
<g id="a_node9"><a xlink:href="classscram_1_1mef_1_1InitiatingEvent.xhtml" target="_top" xlink:title="Event&#45;tree Initiating Event. ">
<polygon fill="white" stroke="black" points="581.5,-375.5 581.5,-476.5 726.5,-476.5 726.5,-375.5 581.5,-375.5"/>
<text text-anchor="middle" x="654" y="-464.5" font-family="Helvetica,sans-Serif" font-size="10.00">scram::mef::InitiatingEvent</text>
<polyline fill="none" stroke="black" points="581.5,-457.5 726.5,-457.5 "/>
<text text-anchor="middle" x="654" y="-445.5" font-family="Helvetica,sans-Serif" font-size="10.00"> </text>
<polyline fill="none" stroke="black" points="581.5,-438.5 726.5,-438.5 "/>
<text text-anchor="start" x="589.5" y="-426.5" font-family="Helvetica,sans-Serif" font-size="10.00">+ event_tree()</text>
<text text-anchor="start" x="589.5" y="-415.5" font-family="Helvetica,sans-Serif" font-size="10.00">+ event_tree()</text>
<text text-anchor="start" x="589.5" y="-404.5" font-family="Helvetica,sans-Serif" font-size="10.00">+ event_tree()</text>
<text text-anchor="start" x="589.5" y="-393.5" font-family="Helvetica,sans-Serif" font-size="10.00">* event_tree()</text>
<text text-anchor="start" x="589.5" y="-382.5" font-family="Helvetica,sans-Serif" font-size="10.00">* event_tree()</text>
</a>
</g>
</g>
<!-- Node1&#45;&gt;Node9 -->
<g id="edge8" class="edge"><title>Node1&#45;&gt;Node9</title>
<path fill="none" stroke="midnightblue" d="M715.4,-570.016C703.192,-541.582 687.747,-505.607 675.402,-476.852"/>
<polygon fill="none" stroke="midnightblue" points="712.245,-571.54 719.406,-579.348 718.677,-568.779 712.245,-571.54"/>
</g>
<!-- Node10 -->
<g id="node10" class="node"><title>Node10</title>
<g id="a_node10"><a xlink:href="classscram_1_1mef_1_1NamedBranch.xhtml" target="_top" xlink:title="Named branches that can be referenced and reused. ">
<polygon fill="white" stroke="black" points="745,-397.5 745,-454.5 891,-454.5 891,-397.5 745,-397.5"/>
<text text-anchor="middle" x="818" y="-442.5" font-family="Helvetica,sans-Serif" font-size="10.00">scram::mef::NamedBranch</text>
<polyline fill="none" stroke="black" points="745,-435.5 891,-435.5 "/>
<text text-anchor="middle" x="818" y="-423.5" font-family="Helvetica,sans-Serif" font-size="10.00"> </text>
<polyline fill="none" stroke="black" points="745,-416.5 891,-416.5 "/>
<text text-anchor="middle" x="818" y="-404.5" font-family="Helvetica,sans-Serif" font-size="10.00"> </text>
</a>
</g>
</g>
<!-- Node1&#45;&gt;Node10 -->
<g id="edge9" class="edge"><title>Node1&#45;&gt;Node10</title>
<path fill="none" stroke="midnightblue" d="M756.643,-569.916C772.255,-533.552 793.144,-484.896 806.078,-454.77"/>
<polygon fill="none" stroke="midnightblue" points="753.323,-568.779 752.594,-579.348 759.755,-571.54 753.323,-568.779"/>
</g>
<!-- Node11 -->
<g id="node11" class="node"><title>Node11</title>
<g id="a_node11"><a xlink:href="classscram_1_1mef_1_1Parameter.xhtml" target="_top" xlink:title="This class provides a representation of a variable in basic event description. ">
<polygon fill="white" stroke="black" points="909,-375.5 909,-476.5 1037,-476.5 1037,-375.5 909,-375.5"/>
<text text-anchor="middle" x="973" y="-464.5" font-family="Helvetica,sans-Serif" font-size="10.00">scram::mef::Parameter</text>
<polyline fill="none" stroke="black" points="909,-457.5 1037,-457.5 "/>
<text text-anchor="middle" x="973" y="-445.5" font-family="Helvetica,sans-Serif" font-size="10.00"> </text>
<polyline fill="none" stroke="black" points="909,-438.5 1037,-438.5 "/>
<text text-anchor="start" x="917" y="-426.5" font-family="Helvetica,sans-Serif" font-size="10.00">+ expression()</text>
<text text-anchor="start" x="917" y="-415.5" font-family="Helvetica,sans-Serif" font-size="10.00">+ unit()</text>
<text text-anchor="start" x="917" y="-404.5" font-family="Helvetica,sans-Serif" font-size="10.00">+ unit()</text>
<text text-anchor="start" x="917" y="-393.5" font-family="Helvetica,sans-Serif" font-size="10.00">+ value()</text>
<text text-anchor="start" x="917" y="-382.5" font-family="Helvetica,sans-Serif" font-size="10.00">+ interval()</text>
</a>
</g>
</g>
<!-- Node1&#45;&gt;Node11 -->
<g id="edge10" class="edge"><title>Node1&#45;&gt;Node11</title>
<path fill="none" stroke="midnightblue" d="M799.805,-598.668C832.402,-586.494 871.161,-568.243 900,-543 920.859,-524.742 937.851,-499.078 950.176,-476.531"/>
<polygon fill="none" stroke="midnightblue" points="798.556,-595.398 790.347,-602.096 800.941,-601.979 798.556,-595.398"/>
</g>
<!-- Node12 -->
<g id="node12" class="node"><title>Node12</title>
<g id="a_node12"><a xlink:href="classscram_1_1mef_1_1Rule.xhtml" target="_top" xlink:title="A reusable collection of instructions. ">
<polygon fill="white" stroke="black" points="1055.5,-392 1055.5,-460 1152.5,-460 1152.5,-392 1055.5,-392"/>
<text text-anchor="middle" x="1104" y="-448" font-family="Helvetica,sans-Serif" font-size="10.00">scram::mef::Rule</text>
<polyline fill="none" stroke="black" points="1055.5,-441 1152.5,-441 "/>
<text text-anchor="middle" x="1104" y="-429" font-family="Helvetica,sans-Serif" font-size="10.00"> </text>
<polyline fill="none" stroke="black" points="1055.5,-422 1152.5,-422 "/>
<text text-anchor="start" x="1063.5" y="-410" font-family="Helvetica,sans-Serif" font-size="10.00">+ instructions()</text>
<text text-anchor="start" x="1063.5" y="-399" font-family="Helvetica,sans-Serif" font-size="10.00">+ instructions()</text>
</a>
</g>
</g>
<!-- Node1&#45;&gt;Node12 -->
<g id="edge11" class="edge"><title>Node1&#45;&gt;Node12</title>
<path fill="none" stroke="midnightblue" d="M800.3,-617.79C868.229,-614.355 975.121,-599.415 1046,-543 1072.16,-522.177 1087.49,-486.479 1095.75,-460.17"/>
<polygon fill="none" stroke="midnightblue" points="799.995,-614.3 790.157,-618.232 800.3,-621.293 799.995,-614.3"/>
</g>
<!-- Node13 -->
<g id="node13" class="node"><title>Node13</title>
<g id="a_node13"><a xlink:href="classscram_1_1mef_1_1Sequence.xhtml" target="_top" xlink:title="Representation of sequences in event trees. ">
<polygon fill="white" stroke="black" points="1170.5,-392 1170.5,-460 1295.5,-460 1295.5,-392 1170.5,-392"/>
<text text-anchor="middle" x="1233" y="-448" font-family="Helvetica,sans-Serif" font-size="10.00">scram::mef::Sequence</text>
<polyline fill="none" stroke="black" points="1170.5,-441 1295.5,-441 "/>
<text text-anchor="middle" x="1233" y="-429" font-family="Helvetica,sans-Serif" font-size="10.00"> </text>
<polyline fill="none" stroke="black" points="1170.5,-422 1295.5,-422 "/>
<text text-anchor="start" x="1178.5" y="-410" font-family="Helvetica,sans-Serif" font-size="10.00">+ instructions()</text>
<text text-anchor="start" x="1178.5" y="-399" font-family="Helvetica,sans-Serif" font-size="10.00">+ instructions()</text>
</a>
</g>
</g>
<!-- Node1&#45;&gt;Node13 -->
<g id="edge12" class="edge"><title>Node1&#45;&gt;Node13</title>
<path fill="none" stroke="midnightblue" d="M800.284,-613.14C904.399,-604.218 1104.11,-582.427 1162,-543 1191.18,-523.129 1210.49,-486.907 1221.51,-460.207"/>
<polygon fill="none" stroke="midnightblue" points="799.88,-609.661 790.209,-613.988 800.468,-616.636 799.88,-609.661"/>
</g>
<!-- Node3 -->
<g id="node3" class="node"><title>Node3</title>
<g id="a_node3"><a xlink:href="classscram_1_1mef_1_1BasicEvent.xhtml" target="_top" xlink:title="Representation of a basic event in a fault tree. ">
<polygon fill="white" stroke="black" points="0,-127.5 0,-272.5 130,-272.5 130,-127.5 0,-127.5"/>
<text text-anchor="middle" x="65" y="-260.5" font-family="Helvetica,sans-Serif" font-size="10.00">scram::mef::BasicEvent</text>
<polyline fill="none" stroke="black" points="0,-253.5 130,-253.5 "/>
<text text-anchor="middle" x="65" y="-241.5" font-family="Helvetica,sans-Serif" font-size="10.00"> </text>
<polyline fill="none" stroke="black" points="0,-234.5 130,-234.5 "/>
<text text-anchor="start" x="8" y="-222.5" font-family="Helvetica,sans-Serif" font-size="10.00">+ ~BasicEvent()</text>
<text text-anchor="start" x="8" y="-211.5" font-family="Helvetica,sans-Serif" font-size="10.00">+ HasExpression()</text>
<text text-anchor="start" x="8" y="-200.5" font-family="Helvetica,sans-Serif" font-size="10.00">+ expression()</text>
<text text-anchor="start" x="8" y="-189.5" font-family="Helvetica,sans-Serif" font-size="10.00">+ expression()</text>
<text text-anchor="start" x="8" y="-178.5" font-family="Helvetica,sans-Serif" font-size="10.00">+ p()</text>
<text text-anchor="start" x="8" y="-167.5" font-family="Helvetica,sans-Serif" font-size="10.00">+ Validate()</text>
<text text-anchor="start" x="8" y="-156.5" font-family="Helvetica,sans-Serif" font-size="10.00">+ HasCcf()</text>
<text text-anchor="start" x="8" y="-145.5" font-family="Helvetica,sans-Serif" font-size="10.00">+ ccf_gate()</text>
<text text-anchor="start" x="8" y="-134.5" font-family="Helvetica,sans-Serif" font-size="10.00">+ ccf_gate()</text>
</a>
</g>
</g>
<!-- Node2&#45;&gt;Node3 -->
<g id="edge2" class="edge"><title>Node2&#45;&gt;Node3</title>
<path fill="none" stroke="midnightblue" d="M177.027,-388.27C158.321,-356.999 130.897,-311.156 107.865,-272.655"/>
<polygon fill="none" stroke="midnightblue" points="174.162,-390.298 182.3,-397.083 180.17,-386.705 174.162,-390.298"/>
</g>
<!-- Node5 -->
<g id="node5" class="node"><title>Node5</title>
<g id="a_node5"><a xlink:href="classscram_1_1mef_1_1Gate.xhtml" target="_top" xlink:title="A representation of a gate in a fault tree. ">
<polygon fill="white" stroke="black" points="148.5,-138.5 148.5,-261.5 249.5,-261.5 249.5,-138.5 148.5,-138.5"/>
<text text-anchor="middle" x="199" y="-249.5" font-family="Helvetica,sans-Serif" font-size="10.00">scram::mef::Gate</text>
<polyline fill="none" stroke="black" points="148.5,-242.5 249.5,-242.5 "/>
<text text-anchor="middle" x="199" y="-230.5" font-family="Helvetica,sans-Serif" font-size="10.00"> </text>
<polyline fill="none" stroke="black" points="148.5,-223.5 249.5,-223.5 "/>
<text text-anchor="start" x="156.5" y="-211.5" font-family="Helvetica,sans-Serif" font-size="10.00">+ HasFormula()</text>
<text text-anchor="start" x="156.5" y="-200.5" font-family="Helvetica,sans-Serif" font-size="10.00">+ formula()</text>
<text text-anchor="start" x="156.5" y="-189.5" font-family="Helvetica,sans-Serif" font-size="10.00">+ Validate()</text>
<text text-anchor="start" x="156.5" y="-178.5" font-family="Helvetica,sans-Serif" font-size="10.00">+ formula()</text>
<text text-anchor="start" x="156.5" y="-167.5" font-family="Helvetica,sans-Serif" font-size="10.00">+ formula()</text>
<text text-anchor="start" x="156.5" y="-156.5" font-family="Helvetica,sans-Serif" font-size="10.00">* formula()</text>
<text text-anchor="start" x="156.5" y="-145.5" font-family="Helvetica,sans-Serif" font-size="10.00">* formula()</text>
</a>
</g>
</g>
<!-- Node2&#45;&gt;Node5 -->
<g id="edge4" class="edge"><title>Node2&#45;&gt;Node5</title>
<path fill="none" stroke="midnightblue" d="M199,-387.018C199,-352.754 199,-301.757 199,-261.82"/>
<polygon fill="none" stroke="midnightblue" points="195.5,-387.083 199,-397.083 202.5,-387.083 195.5,-387.083"/>
</g>
<!-- Node6 -->
<g id="node6" class="node"><title>Node6</title>
<g id="a_node6"><a xlink:href="classscram_1_1mef_1_1HouseEvent.xhtml" target="_top" xlink:title="Representation of a house event in a fault tree. ">
<polygon fill="white" stroke="black" points="267.5,-155 267.5,-245 402.5,-245 402.5,-155 267.5,-155"/>
<text text-anchor="middle" x="335" y="-233" font-family="Helvetica,sans-Serif" font-size="10.00">scram::mef::HouseEvent</text>
<polyline fill="none" stroke="black" points="267.5,-226 402.5,-226 "/>
<text text-anchor="start" x="275.5" y="-214" font-family="Helvetica,sans-Serif" font-size="10.00">+ kTrue</text>
<text text-anchor="start" x="275.5" y="-203" font-family="Helvetica,sans-Serif" font-size="10.00">+ kFalse</text>
<polyline fill="none" stroke="black" points="267.5,-196 402.5,-196 "/>
<text text-anchor="start" x="275.5" y="-184" font-family="Helvetica,sans-Serif" font-size="10.00">+ HouseEvent()</text>
<text text-anchor="start" x="275.5" y="-173" font-family="Helvetica,sans-Serif" font-size="10.00">+ state()</text>
<text text-anchor="start" x="275.5" y="-162" font-family="Helvetica,sans-Serif" font-size="10.00">+ state()</text>
</a>
</g>
</g>
<!-- Node2&#45;&gt;Node6 -->
<g id="edge5" class="edge"><title>Node2&#45;&gt;Node6</title>
<path fill="none" stroke="midnightblue" d="M216.913,-388.164C228.514,-365.039 244.331,-334.814 260,-309 273.089,-287.437 288.852,-264.367 302.542,-245.109"/>
<polygon fill="none" stroke="midnightblue" points="213.695,-386.776 212.37,-397.287 219.961,-389.896 213.695,-386.776"/>
</g>
<!-- Node4 -->
<g id="node4" class="node"><title>Node4</title>
<g id="a_node4"><a xlink:href="classscram_1_1mef_1_1CcfEvent.xhtml" target="_top" xlink:title="A basic event that represents a multiple failure of a group of events due to a common cause...">
<polygon fill="white" stroke="black" points="5.5,-0.5 5.5,-90.5 124.5,-90.5 124.5,-0.5 5.5,-0.5"/>
<text text-anchor="middle" x="65" y="-78.5" font-family="Helvetica,sans-Serif" font-size="10.00">scram::mef::CcfEvent</text>
<polyline fill="none" stroke="black" points="5.5,-71.5 124.5,-71.5 "/>
<text text-anchor="middle" x="65" y="-59.5" font-family="Helvetica,sans-Serif" font-size="10.00"> </text>
<polyline fill="none" stroke="black" points="5.5,-52.5 124.5,-52.5 "/>
<text text-anchor="start" x="13.5" y="-40.5" font-family="Helvetica,sans-Serif" font-size="10.00">+ CcfEvent()</text>
<text text-anchor="start" x="13.5" y="-29.5" font-family="Helvetica,sans-Serif" font-size="10.00">+ ccf_group()</text>
<text text-anchor="start" x="13.5" y="-18.5" font-family="Helvetica,sans-Serif" font-size="10.00">+ members()</text>
<text text-anchor="start" x="13.5" y="-7.5" font-family="Helvetica,sans-Serif" font-size="10.00">+ members()</text>
</a>
</g>
</g>
<!-- Node3&#45;&gt;Node4 -->
<g id="edge3" class="edge"><title>Node3&#45;&gt;Node4</title>
<path fill="none" stroke="midnightblue" d="M65,-116.941C65,-107.857 65,-98.8847 65,-90.5422"/>
<polygon fill="none" stroke="midnightblue" points="61.5001,-117.215 65,-127.216 68.5001,-117.216 61.5001,-117.215"/>
</g>
</g>
</svg>
