<?xml version="1.0" encoding="UTF-8" standalone="no"?>
<!DOCTYPE svg PUBLIC "-//W3C//DTD SVG 1.1//EN"
 "http://www.w3.org/Graphics/SVG/1.1/DTD/svg11.dtd">
<!-- Generated by graphviz version 2.38.0 (20140413.2041)
 -->
<!-- Title: scram::core::NonTerminal::index Pages: 1 -->
<!--zoomable 406 -->
<svg id="main" version="1.1" xmlns="http://www.w3.org/2000/svg" xmlns:xlink="http://www.w3.org/1999/xlink" xml:space="preserve" onload="init(evt)">
<style type="text/css"><![CDATA[
.edge:hover path { stroke: red; }
.edge:hover polygon { stroke: red; fill: red; }
]]></style>
<script type="text/javascript"><![CDATA[
var edges = document.getElementsByTagName('g');
if (edges && edges.length) {
  for (var i=0;i<edges.length;i++) {
    if (edges[i].id.substr(0,4)=='edge') {
      edges[i].setAttribute('class','edge');
    }
  }
}
]]></script>
        <defs>
                <circle id="rim" cx="0" cy="0" r="7"/>
                <circle id="rim2" cx="0" cy="0" r="3.5"/>
                <g id="zoomPlus">
                        <use xlink:href="#rim" fill="#404040">
                                <set attributeName="fill" to="#808080" begin="zoomplus.mouseover" end="zoomplus.mouseout"/>
                        </use>
                        <path d="M-4,0h8M0,-4v8" fill="none" stroke="white" stroke-width="1.5" pointer-events="none"/>
                </g>
                <g id="zoomMin">
                        <use xlink:href="#rim" fill="#404040">
                                <set attributeName="fill" to="#808080" begin="zoomminus.mouseover" end="zoomminus.mouseout"/>
                        </use>
                        <path d="M-4,0h8" fill="none" stroke="white" stroke-width="1.5" pointer-events="none"/>
                </g>
                <g id="dirArrow">
                        <path fill="none" stroke="white" stroke-width="1.5" d="M0,-3.0v7 M-2.5,-0.5L0,-3.0L2.5,-0.5"/>
                </g>
               <g id="resetDef">
                       <use xlink:href="#rim2" fill="#404040">
                               <set attributeName="fill" to="#808080" begin="reset.mouseover" end="reset.mouseout"/>
                       </use>
               </g>
        </defs>

<script type="text/javascript">
var viewWidth = 766;
var viewHeight = 406;
var sectionId = 'dynsection-1';
</script>
<script xlink:href="svgpan.js"/>
<svg id="graph" class="graph">
<g id="viewport">
<title>scram::core::NonTerminal::index</title>
<polygon fill="white" stroke="none" points="-4,4 -4,-402 762,-402 762,4 -4,4"/>
<!-- Node1 -->
<g id="node1" class="node"><title>Node1</title>
<polygon fill="#bfbfbf" stroke="black" points="0,-171.5 0,-201.5 139,-201.5 139,-171.5 0,-171.5"/>
<text text-anchor="start" x="8" y="-189.5" font-family="Helvetica,sans-Serif" font-size="10.00">scram::core::NonTerminal</text>
<text text-anchor="middle" x="69.5" y="-178.5" font-family="Helvetica,sans-Serif" font-size="10.00">::index</text>
</g>
<!-- Node2 -->
<g id="node2" class="node"><title>Node2</title>
<g id="a_node2"><a xlink:href="classscram_1_1core_1_1ImportanceAnalysis.xhtml#acf487235f07ddcc1c920943ebfe2ce60" target="_top" xlink:title="Performs quantitative analysis of importance factors of basic events in products. ...">
<polygon fill="white" stroke="black" points="175,-322.5 175,-352.5 348,-352.5 348,-322.5 175,-322.5"/>
<text text-anchor="start" x="183" y="-340.5" font-family="Helvetica,sans-Serif" font-size="10.00">scram::core::ImportanceAnalysis</text>
<text text-anchor="middle" x="261.5" y="-329.5" font-family="Helvetica,sans-Serif" font-size="10.00">::Analyze</text>
</a>
</g>
</g>
<!-- Node1&#45;&gt;Node2 -->
<g id="edge1" class="edge"><title>Node1&#45;&gt;Node2</title>
<path fill="none" stroke="midnightblue" d="M84.3475,-210.72C101.867,-239.216 134.672,-285.996 175,-312.5 180.816,-316.322 187.229,-319.573 193.849,-322.336"/>
<polygon fill="midnightblue" stroke="midnightblue" points="87.1494,-208.587 79.0033,-201.812 81.1468,-212.188 87.1494,-208.587"/>
</g>
<!-- Node3 -->
<g id="node3" class="node"><title>Node3</title>
<g id="a_node3"><a xlink:href="classscram_1_1core_1_1Bdd.xhtml#ab9548d4c5f9afaa96dc24e17e2a01a57" target="_top" xlink:title="Runs the Qualitative analysis with the representation of a PDAG as ROBDD. ">
<polygon fill="white" stroke="black" points="190.5,-284 190.5,-303 332.5,-303 332.5,-284 190.5,-284"/>
<text text-anchor="middle" x="261.5" y="-291" font-family="Helvetica,sans-Serif" font-size="10.00">scram::core::Bdd::Analyze</text>
</a>
</g>
</g>
<!-- Node1&#45;&gt;Node3 -->
<g id="edge2" class="edge"><title>Node1&#45;&gt;Node3</title>
<path fill="none" stroke="midnightblue" d="M92.7623,-208.588C112.744,-227.272 143.674,-253.491 175,-269.5 186.944,-275.604 200.644,-280.331 213.528,-283.912"/>
<polygon fill="midnightblue" stroke="midnightblue" points="95.0644,-205.947 85.4082,-201.587 90.2379,-211.017 95.0644,-205.947"/>
</g>
<!-- Node4 -->
<g id="node4" class="node"><title>Node4</title>
<g id="a_node4"><a xlink:href="classscram_1_1core_1_1Zbdd.xhtml#a499a8bc4bc3854e7b2928c08515243cf" target="_top" xlink:title="Specialization of Apply for AND operator for non&#45;terminal ZBDD vertices. ">
<polygon fill="white" stroke="black" points="416,-367.5 416,-397.5 527,-397.5 527,-367.5 416,-367.5"/>
<text text-anchor="start" x="424" y="-385.5" font-family="Helvetica,sans-Serif" font-size="10.00">scram::core::Zbdd::</text>
<text text-anchor="middle" x="471.5" y="-374.5" font-family="Helvetica,sans-Serif" font-size="10.00">Apply</text>
</a>
</g>
</g>
<!-- Node1&#45;&gt;Node4 -->
<g id="edge3" class="edge"><title>Node1&#45;&gt;Node4</title>
<path fill="none" stroke="midnightblue" d="M106.652,-206.338C126.386,-216.511 151.521,-228.425 175,-236.5 249.442,-262.102 287.339,-224.326 348,-274.5 379.299,-300.388 353.417,-331.77 384,-358.5 392.918,-366.295 404.165,-371.576 415.571,-375.15"/>
<polygon fill="midnightblue" stroke="midnightblue" points="108.193,-203.195 97.7104,-201.658 104.947,-209.397 108.193,-203.195"/>
</g>
<!-- Node5 -->
<g id="node5" class="node"><title>Node5</title>
<g id="a_node5"><a xlink:href="classscram_1_1core_1_1ProbabilityAnalyzer_3_01Bdd_01_4.xhtml#a45b66605634ae60f1c00e3ac469a7c7a" target="_top" xlink:title="Calculates the total probability with a different set of probability values than the one given upon c...">
<polygon fill="white" stroke="black" points="176,-49 176,-90 347,-90 347,-49 176,-49"/>
<text text-anchor="start" x="184" y="-78" font-family="Helvetica,sans-Serif" font-size="10.00">scram::core::Probability</text>
<text text-anchor="start" x="184" y="-67" font-family="Helvetica,sans-Serif" font-size="10.00">Analyzer&lt; Bdd &gt;::CalculateTotal</text>
<text text-anchor="middle" x="261.5" y="-56" font-family="Helvetica,sans-Serif" font-size="10.00">Probability</text>
</a>
</g>
</g>
<!-- Node1&#45;&gt;Node5 -->
<g id="edge4" class="edge"><title>Node1&#45;&gt;Node5</title>
<path fill="none" stroke="midnightblue" d="M94.3615,-164.626C114.692,-146.789 145.261,-121.802 175,-104.5 184.011,-99.2571 193.959,-94.4202 203.786,-90.1211"/>
<polygon fill="midnightblue" stroke="midnightblue" points="91.9826,-162.057 86.8324,-171.316 96.6324,-167.29 91.9826,-162.057"/>
</g>
<!-- Node6 -->
<g id="node6" class="node"><title>Node6</title>
<g id="a_node6"><a xlink:href="classscram_1_1core_1_1Zbdd.xhtml#a516f0d2f35ad213399f83fb9ab102561" target="_top" xlink:title="Traverses ZBDD to find modules and adjusted cut&#45;offs. ">
<polygon fill="white" stroke="black" points="206,-147.5 206,-177.5 317,-177.5 317,-147.5 206,-147.5"/>
<text text-anchor="start" x="214" y="-165.5" font-family="Helvetica,sans-Serif" font-size="10.00">scram::core::Zbdd::</text>
<text text-anchor="middle" x="261.5" y="-154.5" font-family="Helvetica,sans-Serif" font-size="10.00">GatherModules</text>
</a>
</g>
</g>
<!-- Node1&#45;&gt;Node6 -->
<g id="edge5" class="edge"><title>Node1&#45;&gt;Node6</title>
<path fill="none" stroke="midnightblue" d="M149.225,-176.556C168.209,-174.158 188.087,-171.647 205.703,-169.422"/>
<polygon fill="midnightblue" stroke="midnightblue" points="148.577,-173.11 139.094,-177.835 149.454,-180.055 148.577,-173.11"/>
</g>
<!-- Node8 -->
<g id="node8" class="node"><title>Node8</title>
<g id="a_node8"><a xlink:href="classscram_1_1core_1_1zbdd_1_1CutSetContainer.xhtml#a478c89f64731781882b50ec55898900b" target="_top" xlink:title="Gathers all module indices in the cut sets. ">
<polygon fill="white" stroke="black" points="384,-45.5 384,-75.5 559,-75.5 559,-45.5 384,-45.5"/>
<text text-anchor="start" x="392" y="-63.5" font-family="Helvetica,sans-Serif" font-size="10.00">scram::core::zbdd::</text>
<text text-anchor="middle" x="471.5" y="-52.5" font-family="Helvetica,sans-Serif" font-size="10.00">CutSetContainer::GatherModules</text>
</a>
</g>
</g>
<!-- Node1&#45;&gt;Node8 -->
<g id="edge8" class="edge"><title>Node1&#45;&gt;Node8</title>
<path fill="none" stroke="midnightblue" d="M107.112,-166.882C126.795,-156.967 151.741,-145.398 175,-137.5 249.542,-112.189 271.969,-119.907 348,-99.5 374.299,-92.4414 403.353,-83.2532 426.563,-75.5682"/>
<polygon fill="midnightblue" stroke="midnightblue" points="105.494,-163.778 98.1834,-171.446 108.68,-170.01 105.494,-163.778"/>
</g>
<!-- Node9 -->
<g id="node9" class="node"><title>Node9</title>
<g id="a_node9"><a xlink:href="classscram_1_1core_1_1zbdd_1_1CutSetContainer.xhtml#a9f6c0cef12a80aefbfb357022d558053" target="_top" xlink:title="Finds a gate in intermediate cut sets. ">
<polygon fill="white" stroke="black" points="179,-0.5 179,-30.5 344,-30.5 344,-0.5 179,-0.5"/>
<text text-anchor="start" x="187" y="-18.5" font-family="Helvetica,sans-Serif" font-size="10.00">scram::core::zbdd::</text>
<text text-anchor="middle" x="261.5" y="-7.5" font-family="Helvetica,sans-Serif" font-size="10.00">CutSetContainer::GetNextGate</text>
</a>
</g>
</g>
<!-- Node1&#45;&gt;Node9 -->
<g id="edge9" class="edge"><title>Node1&#45;&gt;Node9</title>
<path fill="none" stroke="midnightblue" d="M81.3394,-162.099C97.1746,-129.274 129.748,-71.3458 175,-39.5 179.917,-36.0396 185.321,-33.0765 190.948,-30.5395"/>
<polygon fill="midnightblue" stroke="midnightblue" points="78.0437,-160.884 76.9669,-171.424 84.3815,-163.856 78.0437,-160.884"/>
</g>
<!-- Node10 -->
<g id="node10" class="node"><title>Node10</title>
<g id="a_node10"><a xlink:href="classscram_1_1core_1_1Zbdd.xhtml#a3dbb8ef5da2882daf6c39e9724eae459" target="_top" xlink:title="Removes subsets in ZBDD. ">
<polygon fill="white" stroke="black" points="206,-196.5 206,-226.5 317,-226.5 317,-196.5 206,-196.5"/>
<text text-anchor="start" x="214" y="-214.5" font-family="Helvetica,sans-Serif" font-size="10.00">scram::core::Zbdd::</text>
<text text-anchor="middle" x="261.5" y="-203.5" font-family="Helvetica,sans-Serif" font-size="10.00">Minimize</text>
</a>
</g>
</g>
<!-- Node1&#45;&gt;Node10 -->
<g id="edge10" class="edge"><title>Node1&#45;&gt;Node10</title>
<path fill="none" stroke="midnightblue" d="M149.225,-196.859C168.209,-199.356 188.087,-201.972 205.703,-204.29"/>
<polygon fill="midnightblue" stroke="midnightblue" points="149.466,-193.36 139.094,-195.526 148.552,-200.3 149.466,-193.36"/>
</g>
<!-- Node7 -->
<g id="node7" class="node"><title>Node7</title>
<g id="a_node7"><a xlink:href="classscram_1_1core_1_1Zbdd.xhtml#af92e04ed908364e0177ce444d7b72712" target="_top" xlink:title="The common constructor to initialize member variables. ">
<polygon fill="white" stroke="black" points="608,-128 608,-147 745,-147 745,-128 608,-128"/>
<text text-anchor="middle" x="676.5" y="-135" font-family="Helvetica,sans-Serif" font-size="10.00">scram::core::Zbdd::Zbdd</text>
</a>
</g>
</g>
<!-- Node6&#45;&gt;Node7 -->
<g id="edge6" class="edge"><title>Node6&#45;&gt;Node7</title>
<path fill="none" stroke="midnightblue" d="M314.956,-144.446C336.127,-138.052 360.958,-131.663 384,-128.5 460.12,-118.05 548.423,-123.152 607.719,-129.039"/>
<polygon fill="midnightblue" stroke="midnightblue" points="313.71,-141.168 305.194,-147.472 315.782,-147.854 313.71,-141.168"/>
</g>
<!-- Node6&#45;&gt;Node8 -->
<g id="edge7" class="edge"><title>Node6&#45;&gt;Node8</title>
<path fill="none" stroke="midnightblue" d="M326.349,-144.347C333.946,-140.973 341.353,-137.045 348,-132.5 368.294,-118.622 363.681,-104.341 384,-90.5 392.801,-84.5043 402.921,-79.5921 413.065,-75.6069"/>
<polygon fill="midnightblue" stroke="midnightblue" points="324.935,-141.144 317.025,-148.193 327.604,-147.615 324.935,-141.144"/>
</g>
<!-- Node10&#45;&gt;Node4 -->
<g id="edge14" class="edge"><title>Node10&#45;&gt;Node4</title>
<path fill="none" stroke="midnightblue" d="M326.358,-226.207C334.382,-230.153 341.899,-235.157 348,-241.5 385.714,-280.713 344.997,-320.569 384,-358.5 392.714,-366.975 404.149,-372.514 415.836,-376.118"/>
<polygon fill="midnightblue" stroke="midnightblue" points="327.698,-222.973 317.132,-222.186 324.901,-229.39 327.698,-222.973"/>
</g>
<!-- Node10&#45;&gt;Node7 -->
<g id="edge13" class="edge"><title>Node10&#45;&gt;Node7</title>
<path fill="none" stroke="midnightblue" d="M327.1,-195.055C334.278,-192.512 341.38,-189.663 348,-186.5 365.576,-178.102 365.665,-168.08 384,-161.5 457.245,-135.214 547.258,-131.798 607.716,-133.291"/>
<polygon fill="midnightblue" stroke="midnightblue" points="325.674,-191.841 317.302,-198.334 327.895,-198.479 325.674,-191.841"/>
</g>
<!-- Node11 -->
<g id="node11" class="node"><title>Node11</title>
<g id="a_node11"><a xlink:href="classscram_1_1core_1_1Zbdd.xhtml#a77945d28bd832d2735969d0b0a451c78" target="_top" xlink:title="Runs the analysis with the representation of a PDAG as ZBDD. ">
<polygon fill="white" stroke="black" points="416,-269.5 416,-299.5 527,-299.5 527,-269.5 416,-269.5"/>
<text text-anchor="start" x="424" y="-287.5" font-family="Helvetica,sans-Serif" font-size="10.00">scram::core::Zbdd::</text>
<text text-anchor="middle" x="471.5" y="-276.5" font-family="Helvetica,sans-Serif" font-size="10.00">Analyze</text>
</a>
</g>
</g>
<!-- Node10&#45;&gt;Node11 -->
<g id="edge11" class="edge"><title>Node10&#45;&gt;Node11</title>
<path fill="none" stroke="midnightblue" d="M319.184,-230.058C328.893,-233.614 338.809,-237.488 348,-241.5 364.581,-248.737 367.186,-253.821 384,-260.5 394.139,-264.528 405.2,-268.147 415.922,-271.28"/>
<polygon fill="midnightblue" stroke="midnightblue" points="320.172,-226.695 309.578,-226.615 317.81,-233.284 320.172,-226.695"/>
</g>
<!-- Node13 -->
<g id="node13" class="node"><title>Node13</title>
<g id="a_node13"><a xlink:href="classscram_1_1core_1_1Zbdd.xhtml#ac3ac27090b550d973b20bd971c3de9f9" target="_top" xlink:title="Removes complements of variables from products. ">
<polygon fill="white" stroke="black" points="407.5,-171.5 407.5,-201.5 535.5,-201.5 535.5,-171.5 407.5,-171.5"/>
<text text-anchor="start" x="415.5" y="-189.5" font-family="Helvetica,sans-Serif" font-size="10.00">scram::core::Zbdd::</text>
<text text-anchor="middle" x="471.5" y="-178.5" font-family="Helvetica,sans-Serif" font-size="10.00">EliminateComplements</text>
</a>
</g>
</g>
<!-- Node10&#45;&gt;Node13 -->
<g id="edge15" class="edge"><title>Node10&#45;&gt;Node13</title>
<path fill="none" stroke="midnightblue" d="M327.115,-203.734C352.677,-200.661 381.964,-197.141 407.379,-194.087"/>
<polygon fill="midnightblue" stroke="midnightblue" points="326.66,-200.263 317.15,-204.932 327.496,-207.213 326.66,-200.263"/>
</g>
<!-- Node15 -->
<g id="node15" class="node"><title>Node15</title>
<g id="a_node15"><a xlink:href="classscram_1_1core_1_1Zbdd.xhtml#aeb83fd37f2aee74ac41e6ccadba82d39" target="_top" xlink:title="Removes constant modules from products. ">
<polygon fill="white" stroke="black" points="399.5,-220.5 399.5,-250.5 543.5,-250.5 543.5,-220.5 399.5,-220.5"/>
<text text-anchor="start" x="407.5" y="-238.5" font-family="Helvetica,sans-Serif" font-size="10.00">scram::core::Zbdd::</text>
<text text-anchor="middle" x="471.5" y="-227.5" font-family="Helvetica,sans-Serif" font-size="10.00">EliminateConstantModules</text>
</a>
</g>
</g>
<!-- Node10&#45;&gt;Node15 -->
<g id="edge18" class="edge"><title>Node10&#45;&gt;Node15</title>
<path fill="none" stroke="midnightblue" d="M327.11,-218.955C350.03,-221.6 375.945,-224.59 399.377,-227.294"/>
<polygon fill="midnightblue" stroke="midnightblue" points="327.485,-215.475 317.15,-217.806 326.682,-222.429 327.485,-215.475"/>
</g>
<!-- Node17 -->
<g id="node17" class="node"><title>Node17</title>
<g id="a_node17"><a xlink:href="classscram_1_1core_1_1zbdd_1_1CutSetContainer.xhtml#a1648d3f24a95302fac2a40e95f743dda" target="_top" xlink:title="Minimizes cut sets in the container. ">
<polygon fill="white" stroke="black" points="399.5,-318.5 399.5,-348.5 543.5,-348.5 543.5,-318.5 399.5,-318.5"/>
<text text-anchor="start" x="407.5" y="-336.5" font-family="Helvetica,sans-Serif" font-size="10.00">scram::core::zbdd::</text>
<text text-anchor="middle" x="471.5" y="-325.5" font-family="Helvetica,sans-Serif" font-size="10.00">CutSetContainer::Minimize</text>
</a>
</g>
</g>
<!-- Node10&#45;&gt;Node17 -->
<g id="edge21" class="edge"><title>Node10&#45;&gt;Node17</title>
<path fill="none" stroke="midnightblue" d="M326.521,-227.876C334.261,-231.557 341.659,-236.042 348,-241.5 373.918,-263.808 357.351,-288.07 384,-309.5 388.615,-313.211 393.766,-316.35 399.192,-319.003"/>
<polygon fill="midnightblue" stroke="midnightblue" points="327.889,-224.654 317.32,-223.914 325.121,-231.084 327.889,-224.654"/>
</g>
<!-- Node12 -->
<g id="node12" class="node"><title>Node12</title>
<g id="a_node12"><a xlink:href="classscram_1_1core_1_1FaultTreeAnalyzer.xhtml#aedae0c884539dab245018194771f5021" target="_top" xlink:title="scram::core::FaultTreeAnalyzer\l::algorithm">
<polygon fill="white" stroke="black" points="595,-285.5 595,-315.5 758,-315.5 758,-285.5 595,-285.5"/>
<text text-anchor="start" x="603" y="-303.5" font-family="Helvetica,sans-Serif" font-size="10.00">scram::core::FaultTreeAnalyzer</text>
<text text-anchor="middle" x="676.5" y="-292.5" font-family="Helvetica,sans-Serif" font-size="10.00">::algorithm</text>
</a>
</g>
</g>
<!-- Node11&#45;&gt;Node12 -->
<g id="edge12" class="edge"><title>Node11&#45;&gt;Node12</title>
<path fill="none" stroke="midnightblue" d="M537.138,-289.595C555.462,-291.039 575.64,-292.629 594.788,-294.138"/>
<polygon fill="midnightblue" stroke="midnightblue" points="537.411,-286.105 527.167,-288.809 536.861,-293.084 537.411,-286.105"/>
</g>
<!-- Node13&#45;&gt;Node7 -->
<g id="edge16" class="edge"><title>Node13&#45;&gt;Node7</title>
<path fill="none" stroke="midnightblue" d="M543.356,-169.041C560.271,-164.902 578.271,-160.522 595,-156.5 607.984,-153.378 622.159,-150.017 634.945,-147.002"/>
<polygon fill="midnightblue" stroke="midnightblue" points="542.419,-165.666 533.539,-171.445 544.085,-172.465 542.419,-165.666"/>
</g>
<!-- Node14 -->
<g id="node14" class="node"><title>Node14</title>
<g id="a_node14"><a xlink:href="classscram_1_1core_1_1zbdd_1_1CutSetContainer.xhtml#a49532388bd9b917f4351f94f728518aa" target="_top" xlink:title="Eliminates all complements from cut sets. ">
<polygon fill="white" stroke="black" points="603.5,-166 603.5,-207 749.5,-207 749.5,-166 603.5,-166"/>
<text text-anchor="start" x="611.5" y="-195" font-family="Helvetica,sans-Serif" font-size="10.00">scram::core::zbdd::</text>
<text text-anchor="start" x="611.5" y="-184" font-family="Helvetica,sans-Serif" font-size="10.00">CutSetContainer::Eliminate</text>
<text text-anchor="middle" x="676.5" y="-173" font-family="Helvetica,sans-Serif" font-size="10.00">Complements</text>
</a>
</g>
</g>
<!-- Node13&#45;&gt;Node14 -->
<g id="edge17" class="edge"><title>Node13&#45;&gt;Node14</title>
<path fill="none" stroke="midnightblue" d="M545.834,-186.5C564.512,-186.5 584.571,-186.5 603.197,-186.5"/>
<polygon fill="midnightblue" stroke="midnightblue" points="545.618,-183 535.618,-186.5 545.618,-190 545.618,-183"/>
</g>
<!-- Node15&#45;&gt;Node7 -->
<g id="edge19" class="edge"><title>Node15&#45;&gt;Node7</title>
<path fill="none" stroke="midnightblue" d="M550.654,-215.88C553.555,-214.229 556.351,-212.439 559,-210.5 582.272,-193.458 571.313,-172.96 595,-156.5 600.542,-152.649 606.763,-149.571 613.226,-147.113"/>
<polygon fill="midnightblue" stroke="midnightblue" points="549.013,-212.788 541.675,-220.43 552.177,-219.032 549.013,-212.788"/>
</g>
<!-- Node16 -->
<g id="node16" class="node"><title>Node16</title>
<g id="a_node16"><a xlink:href="classscram_1_1core_1_1zbdd_1_1CutSetContainer.xhtml#a1022ad7a4699257a6f0c0809d8f1903d" target="_top" xlink:title="Removes constant modules from cut sets. ">
<polygon fill="white" stroke="black" points="603.5,-226 603.5,-267 749.5,-267 749.5,-226 603.5,-226"/>
<text text-anchor="start" x="611.5" y="-255" font-family="Helvetica,sans-Serif" font-size="10.00">scram::core::zbdd::</text>
<text text-anchor="start" x="611.5" y="-244" font-family="Helvetica,sans-Serif" font-size="10.00">CutSetContainer::Eliminate</text>
<text text-anchor="middle" x="676.5" y="-233" font-family="Helvetica,sans-Serif" font-size="10.00">ConstantModules</text>
</a>
</g>
</g>
<!-- Node15&#45;&gt;Node16 -->
<g id="edge20" class="edge"><title>Node15&#45;&gt;Node16</title>
<path fill="none" stroke="midnightblue" d="M553.866,-239.909C570.234,-240.796 587.33,-241.722 603.358,-242.591"/>
<polygon fill="midnightblue" stroke="midnightblue" points="553.96,-236.409 543.785,-239.363 553.581,-243.399 553.96,-236.409"/>
</g>
</g>
</svg>
        <g id="navigator" transform="translate(0 0)" fill="#404254">
                <rect fill="#f2f5e9" fill-opacity="0.5" stroke="#606060" stroke-width=".5" x="0" y="0" width="60" height="60"/>
                <use id="zoomplus" xlink:href="#zoomPlus" x="17" y="9" onmousedown="handleZoom(evt,'in')"/>
                <use id="zoomminus" xlink:href="#zoomMin" x="42" y="9" onmousedown="handleZoom(evt,'out')"/>
                <use id="reset" xlink:href="#resetDef" x="30" y="36" onmousedown="handleReset()"/>
                <g id="arrowUp" xlink:href="#dirArrow" transform="translate(30 24)" onmousedown="handlePan(0,-1)">
                  <use xlink:href="#rim" fill="#404040">
                        <set attributeName="fill" to="#808080" begin="arrowUp.mouseover" end="arrowUp.mouseout"/>
                  </use>
                  <path fill="none" stroke="white" stroke-width="1.5" d="M0,-3.0v7 M-2.5,-0.5L0,-3.0L2.5,-0.5"/>
                </g>
                <g id="arrowRight" xlink:href="#dirArrow" transform="rotate(90) translate(36 -43)" onmousedown="handlePan(1,0)">
                  <use xlink:href="#rim" fill="#404040">
                        <set attributeName="fill" to="#808080" begin="arrowRight.mouseover" end="arrowRight.mouseout"/>
                  </use>
                  <path fill="none" stroke="white" stroke-width="1.5" d="M0,-3.0v7 M-2.5,-0.5L0,-3.0L2.5,-0.5"/>
                </g>
                <g id="arrowDown" xlink:href="#dirArrow" transform="rotate(180) translate(-30 -48)" onmousedown="handlePan(0,1)">
                  <use xlink:href="#rim" fill="#404040">
                        <set attributeName="fill" to="#808080" begin="arrowDown.mouseover" end="arrowDown.mouseout"/>
                  </use>
                  <path fill="none" stroke="white" stroke-width="1.5" d="M0,-3.0v7 M-2.5,-0.5L0,-3.0L2.5,-0.5"/>
                </g>
                <g id="arrowLeft" xlink:href="#dirArrow" transform="rotate(270) translate(-36 17)" onmousedown="handlePan(-1,0)">
                  <use xlink:href="#rim" fill="#404040">
                        <set attributeName="fill" to="#808080" begin="arrowLeft.mouseover" end="arrowLeft.mouseout"/>
                  </use>
                  <path fill="none" stroke="white" stroke-width="1.5" d="M0,-3.0v7 M-2.5,-0.5L0,-3.0L2.5,-0.5"/>
                </g>
        </g>
        <svg viewBox="0 0 15 15" width="100%" height="30px" preserveAspectRatio="xMaxYMin meet">
         <g id="arrow_out" transform="scale(0.3 0.3)">
          <a xlink:href="classscram_1_1core_1_1NonTerminal_aeeaafd82ae5890a7ec3462c68ffc8628_icgraph_org.svg" target="_base">
           <rect id="button" ry="5" rx="5" y="6" x="6" height="38" width="38"
                fill="#f2f5e9" fill-opacity="0.5" stroke="#606060" stroke-width="1.0"/>
           <path id="arrow"
             d="M 11.500037,31.436501 C 11.940474,20.09759 22.043105,11.32322 32.158766,21.979434 L 37.068811,17.246167 C 37.068811,17.246167 37.088388,32 37.088388,32 L 22.160133,31.978069 C 22.160133,31.978069 26.997745,27.140456 26.997745,27.140456 C 18.528582,18.264221 13.291696,25.230495 11.500037,31.436501 z"
             style="fill:#404040;"/>
          </a>
         </g>
        </svg>
</svg>
