<?xml version="1.0" encoding="UTF-8" standalone="no"?>
<!DOCTYPE svg PUBLIC "-//W3C//DTD SVG 1.1//EN"
 "http://www.w3.org/Graphics/SVG/1.1/DTD/svg11.dtd">
<!-- Generated by graphviz version 2.38.0 (20140413.2041)
 -->
<!-- Title: scram::core::RiskAnalysis::model Pages: 1 -->
<svg width="476pt" height="372pt"
 viewBox="0.00 0.00 476.00 372.00" xmlns="http://www.w3.org/2000/svg" xmlns:xlink="http://www.w3.org/1999/xlink">
<g id="graph0" class="graph" transform="scale(1 1) rotate(0) translate(4 368)">
<title>scram::core::RiskAnalysis::model</title>
<polygon fill="white" stroke="none" points="-4,4 -4,-368 472,-368 472,4 -4,4"/>
<!-- Node1 -->
<g id="node1" class="node"><title>Node1</title>
<polygon fill="#bfbfbf" stroke="black" points="0,-171.5 0,-201.5 137,-201.5 137,-171.5 0,-171.5"/>
<text text-anchor="start" x="8" y="-189.5" font-family="Helvetica,sans-Serif" font-size="10.00">scram::core::RiskAnalysis</text>
<text text-anchor="middle" x="68.5" y="-178.5" font-family="Helvetica,sans-Serif" font-size="10.00">::model</text>
</g>
<!-- Node2 -->
<g id="node2" class="node"><title>Node2</title>
<g id="a_node2"><a xlink:href="classscram_1_1core_1_1RiskAnalysis.xhtml#a7aed757ac5a7a96878c2706a7a9710bb" target="_top" xlink:title="Analyzes the model and performs computations specified in the settings. ">
<polygon fill="white" stroke="black" points="173,-171.5 173,-201.5 310,-201.5 310,-171.5 173,-171.5"/>
<text text-anchor="start" x="181" y="-189.5" font-family="Helvetica,sans-Serif" font-size="10.00">scram::core::RiskAnalysis</text>
<text text-anchor="middle" x="241.5" y="-178.5" font-family="Helvetica,sans-Serif" font-size="10.00">::Analyze</text>
</a>
</g>
</g>
<!-- Node1&#45;&gt;Node2 -->
<g id="edge1" class="edge"><title>Node1&#45;&gt;Node2</title>
<path fill="none" stroke="midnightblue" d="M137.084,-186.5C145.538,-186.5 154.237,-186.5 162.83,-186.5"/>
<polygon fill="midnightblue" stroke="midnightblue" points="162.847,-190 172.847,-186.5 162.847,-183 162.847,-190"/>
</g>
<!-- Node3 -->
<g id="node3" class="node"><title>Node3</title>
<g id="a_node3"><a xlink:href="classscram_1_1core_1_1Analysis.xhtml#ab04a96c555ba726368fa3868a8701610" target="_top" xlink:title="scram::core::Analysis\l::settings">
<polygon fill="white" stroke="black" points="347.5,-333.5 347.5,-363.5 466.5,-363.5 466.5,-333.5 347.5,-333.5"/>
<text text-anchor="start" x="355.5" y="-351.5" font-family="Helvetica,sans-Serif" font-size="10.00">scram::core::Analysis</text>
<text text-anchor="middle" x="407" y="-340.5" font-family="Helvetica,sans-Serif" font-size="10.00">::settings</text>
</a>
</g>
</g>
<!-- Node2&#45;&gt;Node3 -->
<g id="edge2" class="edge"><title>Node2&#45;&gt;Node3</title>
<path fill="none" stroke="midnightblue" d="M250.115,-201.504C264.962,-229.387 300.361,-289.523 346,-324.5 347.773,-325.858 349.632,-327.151 351.555,-328.379"/>
<polygon fill="midnightblue" stroke="midnightblue" points="349.889,-331.458 360.312,-333.36 353.35,-325.374 349.889,-331.458"/>
</g>
<!-- Node4 -->
<g id="node4" class="node"><title>Node4</title>
<g id="a_node4"><a xlink:href="classscram_1_1core_1_1Settings.xhtml#a9937a41d3fd1369f2eea59e1f33a1ac5" target="_top" xlink:title="scram::core::Settings\l::seed">
<polygon fill="white" stroke="black" points="347.5,-284.5 347.5,-314.5 466.5,-314.5 466.5,-284.5 347.5,-284.5"/>
<text text-anchor="start" x="355.5" y="-302.5" font-family="Helvetica,sans-Serif" font-size="10.00">scram::core::Settings</text>
<text text-anchor="middle" x="407" y="-291.5" font-family="Helvetica,sans-Serif" font-size="10.00">::seed</text>
</a>
</g>
</g>
<!-- Node2&#45;&gt;Node4 -->
<g id="edge3" class="edge"><title>Node2&#45;&gt;Node4</title>
<path fill="none" stroke="midnightblue" d="M257.113,-201.53C276.173,-220.489 311.208,-253.183 346,-274.5 349.169,-276.442 352.516,-278.298 355.943,-280.058"/>
<polygon fill="midnightblue" stroke="midnightblue" points="354.603,-283.298 365.131,-284.486 357.642,-276.992 354.603,-283.298"/>
</g>
<!-- Node5 -->
<g id="node5" class="node"><title>Node5</title>
<g id="a_node5"><a xlink:href="classscram_1_1Random.xhtml#afef05703779a8c2b5b44ba7315dd88a2" target="_top" xlink:title="Sets the seed of the underlying random number generator. ">
<polygon fill="white" stroke="black" points="346,-246 346,-265 468,-265 468,-246 346,-246"/>
<text text-anchor="middle" x="407" y="-253" font-family="Helvetica,sans-Serif" font-size="10.00">scram::Random::seed</text>
</a>
</g>
</g>
<!-- Node2&#45;&gt;Node5 -->
<g id="edge4" class="edge"><title>Node2&#45;&gt;Node5</title>
<path fill="none" stroke="midnightblue" d="M271.002,-201.638C291.518,-212.194 320.038,-226.18 346,-236.5 351.529,-238.698 357.421,-240.82 363.27,-242.8"/>
<polygon fill="midnightblue" stroke="midnightblue" points="362.411,-246.202 373.004,-245.985 364.588,-239.549 362.411,-246.202"/>
</g>
<!-- Node6 -->
<g id="node6" class="node"><title>Node6</title>
<g id="a_node6"><a xlink:href="classscram_1_1mef_1_1Model.xhtml#a04f7628e1d3a27295d2ac7bbdc7ab26b" target="_top" xlink:title="scram::mef::Model::\linitiating_events">
<polygon fill="white" stroke="black" points="351,-196.5 351,-226.5 463,-226.5 463,-196.5 351,-196.5"/>
<text text-anchor="start" x="359" y="-214.5" font-family="Helvetica,sans-Serif" font-size="10.00">scram::mef::Model::</text>
<text text-anchor="middle" x="407" y="-203.5" font-family="Helvetica,sans-Serif" font-size="10.00">initiating_events</text>
</a>
</g>
</g>
<!-- Node2&#45;&gt;Node6 -->
<g id="edge5" class="edge"><title>Node2&#45;&gt;Node6</title>
<path fill="none" stroke="midnightblue" d="M310.418,-196.885C320.552,-198.435 330.978,-200.029 341.048,-201.568"/>
<polygon fill="midnightblue" stroke="midnightblue" points="340.562,-205.035 350.976,-203.087 341.62,-198.115 340.562,-205.035"/>
</g>
<!-- Node7 -->
<g id="node7" class="node"><title>Node7</title>
<g id="a_node7"><a xlink:href="classscram_1_1mef_1_1Model.xhtml#a13bd4eb71c3f15f4eece041f19488744" target="_top" xlink:title="scram::mef::Model::\lcontext">
<polygon fill="white" stroke="black" points="351,-147.5 351,-177.5 463,-177.5 463,-147.5 351,-147.5"/>
<text text-anchor="start" x="359" y="-165.5" font-family="Helvetica,sans-Serif" font-size="10.00">scram::mef::Model::</text>
<text text-anchor="middle" x="407" y="-154.5" font-family="Helvetica,sans-Serif" font-size="10.00">context</text>
</a>
</g>
</g>
<!-- Node2&#45;&gt;Node7 -->
<g id="edge6" class="edge"><title>Node2&#45;&gt;Node7</title>
<path fill="none" stroke="midnightblue" d="M310.418,-176.53C320.552,-175.043 330.978,-173.512 341.048,-172.034"/>
<polygon fill="midnightblue" stroke="midnightblue" points="341.59,-175.492 350.976,-170.577 340.573,-168.566 341.59,-175.492"/>
</g>
<!-- Node8 -->
<g id="node8" class="node"><title>Node8</title>
<g id="a_node8"><a xlink:href="classscram_1_1mef_1_1Element.xhtml#adb401e2ca84aa98cb60797bec2500a81" target="_top" xlink:title="scram::mef::Element\l::name">
<polygon fill="white" stroke="black" points="348.5,-98.5 348.5,-128.5 465.5,-128.5 465.5,-98.5 348.5,-98.5"/>
<text text-anchor="start" x="356.5" y="-116.5" font-family="Helvetica,sans-Serif" font-size="10.00">scram::mef::Element</text>
<text text-anchor="middle" x="407" y="-105.5" font-family="Helvetica,sans-Serif" font-size="10.00">::name</text>
</a>
</g>
</g>
<!-- Node2&#45;&gt;Node8 -->
<g id="edge7" class="edge"><title>Node2&#45;&gt;Node8</title>
<path fill="none" stroke="midnightblue" d="M274.062,-171.469C294.487,-161.84 321.706,-149.19 346,-138.5 350.416,-136.557 355.03,-134.566 359.653,-132.597"/>
<polygon fill="midnightblue" stroke="midnightblue" points="361.245,-135.724 369.094,-128.608 358.521,-129.276 361.245,-135.724"/>
</g>
<!-- Node9 -->
<g id="node9" class="node"><title>Node9</title>
<g id="a_node9"><a xlink:href="classscram_1_1mef_1_1Model.xhtml#a9bac9a7746026484f3dc69a3ccb2ac4a" target="_top" xlink:title="scram::mef::Model::\lfault_trees">
<polygon fill="white" stroke="black" points="351,-49.5 351,-79.5 463,-79.5 463,-49.5 351,-49.5"/>
<text text-anchor="start" x="359" y="-67.5" font-family="Helvetica,sans-Serif" font-size="10.00">scram::mef::Model::</text>
<text text-anchor="middle" x="407" y="-56.5" font-family="Helvetica,sans-Serif" font-size="10.00">fault_trees</text>
</a>
</g>
</g>
<!-- Node2&#45;&gt;Node9 -->
<g id="edge8" class="edge"><title>Node2&#45;&gt;Node9</title>
<path fill="none" stroke="midnightblue" d="M255.528,-171.25C273.93,-150.476 309.394,-113.165 346,-89.5 348.932,-87.6046 352.031,-85.8022 355.215,-84.098"/>
<polygon fill="midnightblue" stroke="midnightblue" points="356.946,-87.1461 364.342,-79.5596 353.83,-80.8783 356.946,-87.1461"/>
</g>
<!-- Node10 -->
<g id="node10" class="node"><title>Node10</title>
<g id="a_node10"><a xlink:href="classscram_1_1mef_1_1Model.xhtml#a8a215a2dd25789bfa65d41cc28b0ac4f" target="_top" xlink:title="scram::mef::Model::\lmission_time">
<polygon fill="white" stroke="black" points="351,-0.5 351,-30.5 463,-30.5 463,-0.5 351,-0.5"/>
<text text-anchor="start" x="359" y="-18.5" font-family="Helvetica,sans-Serif" font-size="10.00">scram::mef::Model::</text>
<text text-anchor="middle" x="407" y="-7.5" font-family="Helvetica,sans-Serif" font-size="10.00">mission_time</text>
</a>
</g>
</g>
<!-- Node2&#45;&gt;Node10 -->
<g id="edge9" class="edge"><title>Node2&#45;&gt;Node10</title>
<path fill="none" stroke="midnightblue" d="M249.71,-171.129C264.121,-141.914 299.164,-77.9468 346,-40.5 348.231,-38.7162 350.607,-37.0408 353.079,-35.4697"/>
<polygon fill="midnightblue" stroke="midnightblue" points="354.811,-38.5109 361.773,-30.5243 351.35,-32.4264 354.811,-38.5109"/>
</g>
</g>
</svg>
