<?xml version="1.0" encoding="UTF-8" standalone="no"?>
<!DOCTYPE svg PUBLIC "-//W3C//DTD SVG 1.1//EN"
 "http://www.w3.org/Graphics/SVG/1.1/DTD/svg11.dtd">
<!-- Generated by graphviz version 2.38.0 (20140413.2041)
 -->
<!-- Title: scram::mef::Model::Add Pages: 1 -->
<svg width="435pt" height="137pt"
 viewBox="0.00 0.00 435.00 137.00" xmlns="http://www.w3.org/2000/svg" xmlns:xlink="http://www.w3.org/1999/xlink">
<g id="graph0" class="graph" transform="scale(1 1) rotate(0) translate(4 133)">
<title>scram::mef::Model::Add</title>
<polygon fill="white" stroke="none" points="-4,4 -4,-133 431,-133 431,4 -4,4"/>
<!-- Node1 -->
<g id="node1" class="node"><title>Node1</title>
<polygon fill="#bfbfbf" stroke="black" points="0,-30 0,-49 131,-49 131,-30 0,-30"/>
<text text-anchor="middle" x="65.5" y="-37" font-family="Helvetica,sans-Serif" font-size="10.00">scram::mef::Model::Add</text>
</g>
<!-- Node2 -->
<g id="node2" class="node"><title>Node2</title>
<g id="a_node2"><a xlink:href="classscram_1_1mef_1_1Model.xhtml#aaebfa79fb3fbf5d2987f6bbc9c4a9b67" target="_top" xlink:title="Convenience function to retrieve an event with its ID. ">
<polygon fill="white" stroke="black" points="167,-49.5 167,-79.5 279,-79.5 279,-49.5 167,-49.5"/>
<text text-anchor="start" x="175" y="-67.5" font-family="Helvetica,sans-Serif" font-size="10.00">scram::mef::Model::</text>
<text text-anchor="middle" x="223" y="-56.5" font-family="Helvetica,sans-Serif" font-size="10.00">GetEvent</text>
</a>
</g>
</g>
<!-- Node1&#45;&gt;Node2 -->
<g id="edge1" class="edge"><title>Node1&#45;&gt;Node2</title>
<path fill="none" stroke="midnightblue" d="M125.731,-49.0227C135.838,-50.6476 146.387,-52.3436 156.642,-53.9922"/>
<polygon fill="midnightblue" stroke="midnightblue" points="156.342,-57.4888 166.77,-55.6206 157.453,-50.5776 156.342,-57.4888"/>
</g>
<!-- Node6 -->
<g id="node6" class="node"><title>Node6</title>
<g id="a_node6"><a xlink:href="classscram_1_1mef_1_1Model.xhtml#a29c599ffb3b083ebc34fc0cef1ceeac7" target="_top" xlink:title="Removes MEF constructs from the model container. ">
<polygon fill="white" stroke="black" points="167,-0.5 167,-30.5 279,-30.5 279,-0.5 167,-0.5"/>
<text text-anchor="start" x="175" y="-18.5" font-family="Helvetica,sans-Serif" font-size="10.00">scram::mef::Model::</text>
<text text-anchor="middle" x="223" y="-7.5" font-family="Helvetica,sans-Serif" font-size="10.00">Remove</text>
</a>
</g>
</g>
<!-- Node1&#45;&gt;Node6 -->
<g id="edge5" class="edge"><title>Node1&#45;&gt;Node6</title>
<path fill="none" stroke="midnightblue" d="M128.405,-29.9456C137.734,-28.5056 147.382,-27.0166 156.779,-25.5663"/>
<polygon fill="midnightblue" stroke="midnightblue" points="157.501,-28.9964 166.85,-24.0119 156.433,-22.0783 157.501,-28.9964"/>
</g>
<!-- Node3 -->
<g id="node3" class="node"><title>Node3</title>
<g id="a_node3"><a xlink:href="classscram_1_1mef_1_1Model.xhtml#ada7804d62fc594bff7b080c680586209" target="_top" xlink:title="scram::mef::Model::\lbasic_events">
<polygon fill="white" stroke="black" points="315,-98.5 315,-128.5 427,-128.5 427,-98.5 315,-98.5"/>
<text text-anchor="start" x="323" y="-116.5" font-family="Helvetica,sans-Serif" font-size="10.00">scram::mef::Model::</text>
<text text-anchor="middle" x="371" y="-105.5" font-family="Helvetica,sans-Serif" font-size="10.00">basic_events</text>
</a>
</g>
</g>
<!-- Node2&#45;&gt;Node3 -->
<g id="edge2" class="edge"><title>Node2&#45;&gt;Node3</title>
<path fill="none" stroke="midnightblue" d="M268.996,-79.6014C283.636,-84.5147 300.046,-90.0224 315.314,-95.1466"/>
<polygon fill="midnightblue" stroke="midnightblue" points="314.558,-98.5847 325.152,-98.4484 316.786,-91.9485 314.558,-98.5847"/>
</g>
<!-- Node4 -->
<g id="node4" class="node"><title>Node4</title>
<g id="a_node4"><a xlink:href="classscram_1_1mef_1_1Model.xhtml#ab67ee068ec7f783c7b3c573270cf4fdb" target="_top" xlink:title="scram::mef::Model::\lgates">
<polygon fill="white" stroke="black" points="315,-49.5 315,-79.5 427,-79.5 427,-49.5 315,-49.5"/>
<text text-anchor="start" x="323" y="-67.5" font-family="Helvetica,sans-Serif" font-size="10.00">scram::mef::Model::</text>
<text text-anchor="middle" x="371" y="-56.5" font-family="Helvetica,sans-Serif" font-size="10.00">gates</text>
</a>
</g>
</g>
<!-- Node2&#45;&gt;Node4 -->
<g id="edge3" class="edge"><title>Node2&#45;&gt;Node4</title>
<path fill="none" stroke="midnightblue" d="M279.196,-64.5C287.463,-64.5 296.055,-64.5 304.51,-64.5"/>
<polygon fill="midnightblue" stroke="midnightblue" points="304.726,-68.0001 314.726,-64.5 304.726,-61.0001 304.726,-68.0001"/>
</g>
<!-- Node5 -->
<g id="node5" class="node"><title>Node5</title>
<g id="a_node5"><a xlink:href="classscram_1_1mef_1_1Model.xhtml#a2ddd6d121e1ab6fbe140fc3fb449cd96" target="_top" xlink:title="scram::mef::Model::\lhouse_events">
<polygon fill="white" stroke="black" points="315,-0.5 315,-30.5 427,-30.5 427,-0.5 315,-0.5"/>
<text text-anchor="start" x="323" y="-18.5" font-family="Helvetica,sans-Serif" font-size="10.00">scram::mef::Model::</text>
<text text-anchor="middle" x="371" y="-7.5" font-family="Helvetica,sans-Serif" font-size="10.00">house_events</text>
</a>
</g>
</g>
<!-- Node2&#45;&gt;Node5 -->
<g id="edge4" class="edge"><title>Node2&#45;&gt;Node5</title>
<path fill="none" stroke="midnightblue" d="M268.996,-49.3986C283.636,-44.4853 300.046,-38.9776 315.314,-33.8534"/>
<polygon fill="midnightblue" stroke="midnightblue" points="316.786,-37.0515 325.152,-30.5516 314.558,-30.4153 316.786,-37.0515"/>
</g>
</g>
</svg>
