<?xml version="1.0" encoding="UTF-8" standalone="no"?>
<!DOCTYPE svg PUBLIC "-//W3C//DTD SVG 1.1//EN"
 "http://www.w3.org/Graphics/SVG/1.1/DTD/svg11.dtd">
<!-- Generated by graphviz version 2.38.0 (20140413.2041)
 -->
<!-- Title: scram::Random::UniformRealGenerator Pages: 1 -->
<svg width="354pt" height="88pt"
 viewBox="0.00 0.00 354.00 88.00" xmlns="http://www.w3.org/2000/svg" xmlns:xlink="http://www.w3.org/1999/xlink">
<g id="graph0" class="graph" transform="scale(1 1) rotate(0) translate(4 84)">
<title>scram::Random::UniformRealGenerator</title>
<polygon fill="white" stroke="none" points="-4,4 -4,-84 350,-84 350,4 -4,4"/>
<!-- Node1 -->
<g id="node1" class="node"><title>Node1</title>
<polygon fill="#bfbfbf" stroke="black" points="0,-24.5 0,-54.5 156,-54.5 156,-24.5 0,-24.5"/>
<text text-anchor="start" x="8" y="-42.5" font-family="Helvetica,sans-Serif" font-size="10.00">scram::Random::UniformReal</text>
<text text-anchor="middle" x="78" y="-31.5" font-family="Helvetica,sans-Serif" font-size="10.00">Generator</text>
</g>
<!-- Node2 -->
<g id="node2" class="node"><title>Node2</title>
<g id="a_node2"><a xlink:href="classscram_1_1Random.xhtml#abc4534c5ce4201d29c1155971e7ff057" target="_top" xlink:title="RNG from a log&#45;uniform distribution. ">
<polygon fill="white" stroke="black" points="192,-49.5 192,-79.5 346,-79.5 346,-49.5 192,-49.5"/>
<text text-anchor="start" x="200" y="-67.5" font-family="Helvetica,sans-Serif" font-size="10.00">scram::Random::LogUniform</text>
<text text-anchor="middle" x="269" y="-56.5" font-family="Helvetica,sans-Serif" font-size="10.00">Generator</text>
</a>
</g>
</g>
<!-- Node1&#45;&gt;Node2 -->
<g id="edge1" class="edge"><title>Node1&#45;&gt;Node2</title>
<path fill="none" stroke="midnightblue" d="M166.121,-51.024C174.664,-52.154 183.289,-53.2948 191.712,-54.409"/>
<polygon fill="midnightblue" stroke="midnightblue" points="166.519,-47.5462 156.146,-49.7045 165.601,-54.4857 166.519,-47.5462"/>
</g>
<!-- Node3 -->
<g id="node3" class="node"><title>Node3</title>
<g id="a_node3"><a xlink:href="classscram_1_1mef_1_1UniformDeviate.xhtml#a558a657077fa6d4c1000d21863d56fda" target="_top" xlink:title="scram::mef::UniformDeviate\l::Validate">
<polygon fill="white" stroke="black" points="193,-0.5 193,-30.5 345,-30.5 345,-0.5 193,-0.5"/>
<text text-anchor="start" x="201" y="-18.5" font-family="Helvetica,sans-Serif" font-size="10.00">scram::mef::UniformDeviate</text>
<text text-anchor="middle" x="269" y="-7.5" font-family="Helvetica,sans-Serif" font-size="10.00">::Validate</text>
</a>
</g>
</g>
<!-- Node1&#45;&gt;Node3 -->
<g id="edge2" class="edge"><title>Node1&#45;&gt;Node3</title>
<path fill="none" stroke="midnightblue" d="M166.182,-28.4293C175.119,-27.2945 184.143,-26.1485 192.934,-25.0322"/>
<polygon fill="midnightblue" stroke="midnightblue" points="165.626,-24.9717 156.146,-29.7037 166.507,-31.916 165.626,-24.9717"/>
</g>
</g>
</svg>
