<?xml version="1.0" encoding="UTF-8" standalone="no"?>
<!DOCTYPE svg PUBLIC "-//W3C//DTD SVG 1.1//EN"
 "http://www.w3.org/Graphics/SVG/1.1/DTD/svg11.dtd">
<!-- Generated by graphviz version 2.38.0 (20140413.2041)
 -->
<!-- Title: scram::core::Zbdd::Zbdd Pages: 1 -->
<!--zoomable 1014 -->
<svg id="main" version="1.1" xmlns="http://www.w3.org/2000/svg" xmlns:xlink="http://www.w3.org/1999/xlink" xml:space="preserve" onload="init(evt)">
<style type="text/css"><![CDATA[
.edge:hover path { stroke: red; }
.edge:hover polygon { stroke: red; fill: red; }
]]></style>
<script type="text/javascript"><![CDATA[
var edges = document.getElementsByTagName('g');
if (edges && edges.length) {
  for (var i=0;i<edges.length;i++) {
    if (edges[i].id.substr(0,4)=='edge') {
      edges[i].setAttribute('class','edge');
    }
  }
}
]]></script>
        <defs>
                <circle id="rim" cx="0" cy="0" r="7"/>
                <circle id="rim2" cx="0" cy="0" r="3.5"/>
                <g id="zoomPlus">
                        <use xlink:href="#rim" fill="#404040">
                                <set attributeName="fill" to="#808080" begin="zoomplus.mouseover" end="zoomplus.mouseout"/>
                        </use>
                        <path d="M-4,0h8M0,-4v8" fill="none" stroke="white" stroke-width="1.5" pointer-events="none"/>
                </g>
                <g id="zoomMin">
                        <use xlink:href="#rim" fill="#404040">
                                <set attributeName="fill" to="#808080" begin="zoomminus.mouseover" end="zoomminus.mouseout"/>
                        </use>
                        <path d="M-4,0h8" fill="none" stroke="white" stroke-width="1.5" pointer-events="none"/>
                </g>
                <g id="dirArrow">
                        <path fill="none" stroke="white" stroke-width="1.5" d="M0,-3.0v7 M-2.5,-0.5L0,-3.0L2.5,-0.5"/>
                </g>
               <g id="resetDef">
                       <use xlink:href="#rim2" fill="#404040">
                               <set attributeName="fill" to="#808080" begin="reset.mouseover" end="reset.mouseout"/>
                       </use>
               </g>
        </defs>

<script type="text/javascript">
var viewWidth = 847;
var viewHeight = 1014;
var sectionId = 'dynsection-3';
</script>
<script xlink:href="svgpan.js"/>
<svg id="graph" class="graph">
<g id="viewport">
<title>scram::core::Zbdd::Zbdd</title>
<polygon fill="white" stroke="none" points="-4,4 -4,-1010.07 843,-1010.07 843,4 -4,4"/>
<!-- Node1 -->
<g id="node1" class="node"><title>Node1</title>
<polygon fill="#bfbfbf" stroke="black" points="0,-529.074 0,-548.074 137,-548.074 137,-529.074 0,-529.074"/>
<text text-anchor="middle" x="68.5" y="-536.074" font-family="Helvetica,sans-Serif" font-size="10.00">scram::core::Zbdd::Zbdd</text>
</g>
<!-- Node2 -->
<g id="node2" class="node"><title>Node2</title>
<g id="a_node2"><a xlink:href="classscram_1_1core_1_1Gate.xhtml#a0d070ec20569129162398c73165f65bc" target="_top" xlink:title="scram::core::Gate::\lcoherent">
<polygon fill="white" stroke="black" points="191.5,-975.574 191.5,-1005.57 300.5,-1005.57 300.5,-975.574 191.5,-975.574"/>
<text text-anchor="start" x="199.5" y="-993.574" font-family="Helvetica,sans-Serif" font-size="10.00">scram::core::Gate::</text>
<text text-anchor="middle" x="246" y="-982.574" font-family="Helvetica,sans-Serif" font-size="10.00">coherent</text>
</a>
</g>
</g>
<!-- Node1&#45;&gt;Node2 -->
<g id="edge1" class="edge"><title>Node1&#45;&gt;Node2</title>
<path fill="none" stroke="midnightblue" d="M70.5591,-548.162C77.0593,-605.387 113.257,-901.558 173,-966.574 175.779,-969.598 178.949,-972.242 182.373,-974.553"/>
<polygon fill="midnightblue" stroke="midnightblue" points="180.907,-977.745 191.331,-979.639 184.363,-971.658 180.907,-977.745"/>
</g>
<!-- Node3 -->
<g id="node3" class="node"><title>Node3</title>
<g id="a_node3"><a xlink:href="classscram_1_1core_1_1Gate.xhtml#ab2a4e8ac78b36541a32cc719863910a5" target="_top" xlink:title="scram::core::Gate::\lconstant">
<polygon fill="white" stroke="black" points="191.5,-926.574 191.5,-956.574 300.5,-956.574 300.5,-926.574 191.5,-926.574"/>
<text text-anchor="start" x="199.5" y="-944.574" font-family="Helvetica,sans-Serif" font-size="10.00">scram::core::Gate::</text>
<text text-anchor="middle" x="246" y="-933.574" font-family="Helvetica,sans-Serif" font-size="10.00">constant</text>
</a>
</g>
</g>
<!-- Node1&#45;&gt;Node3 -->
<g id="edge2" class="edge"><title>Node1&#45;&gt;Node3</title>
<path fill="none" stroke="midnightblue" d="M69.286,-548.359C68.792,-595.09 72.6943,-797.976 173,-911.574 176.193,-915.19 179.892,-918.381 183.894,-921.194"/>
<polygon fill="midnightblue" stroke="midnightblue" points="182.115,-924.209 192.468,-926.456 185.775,-918.243 182.115,-924.209"/>
</g>
<!-- Node4 -->
<g id="node4" class="node"><title>Node4</title>
<g id="a_node4"><a xlink:href="classscram_1_1core_1_1Zbdd.xhtml#ac3ac27090b550d973b20bd971c3de9f9" target="_top" xlink:title="Removes complements of variables from products. ">
<polygon fill="white" stroke="black" points="182,-693.574 182,-723.574 310,-723.574 310,-693.574 182,-693.574"/>
<text text-anchor="start" x="190" y="-711.574" font-family="Helvetica,sans-Serif" font-size="10.00">scram::core::Zbdd::</text>
<text text-anchor="middle" x="246" y="-700.574" font-family="Helvetica,sans-Serif" font-size="10.00">EliminateComplements</text>
</a>
</g>
</g>
<!-- Node1&#45;&gt;Node4 -->
<g id="edge3" class="edge"><title>Node1&#45;&gt;Node4</title>
<path fill="none" stroke="midnightblue" d="M75.2256,-548.116C89.4158,-571.157 128.312,-630.723 173,-668.574 181.946,-676.151 192.546,-682.977 202.824,-688.757"/>
<polygon fill="midnightblue" stroke="midnightblue" points="201.26,-691.89 211.723,-693.559 204.584,-685.73 201.26,-691.89"/>
</g>
<!-- Node6 -->
<g id="node6" class="node"><title>Node6</title>
<g id="a_node6"><a xlink:href="structscram_1_1core_1_1IntrusivePtrCast.xhtml#af153c12dc6133b7d9f9b7a57bba29f1d" target="_top" xlink:title="scram::core::IntrusivePtr\lCast\&lt; SetNode \&gt;::Ref">
<polygon fill="white" stroke="black" points="705,-589.574 705,-619.574 839,-619.574 839,-589.574 705,-589.574"/>
<text text-anchor="start" x="713" y="-607.574" font-family="Helvetica,sans-Serif" font-size="10.00">scram::core::IntrusivePtr</text>
<text text-anchor="middle" x="772" y="-596.574" font-family="Helvetica,sans-Serif" font-size="10.00">Cast&lt; SetNode &gt;::Ref</text>
</a>
</g>
</g>
<!-- Node1&#45;&gt;Node6 -->
<g id="edge59" class="edge"><title>Node1&#45;&gt;Node6</title>
<path fill="none" stroke="midnightblue" d="M69.866,-548.334C71.9455,-589.276 85.5796,-748.778 173,-829.574 234.519,-886.431 271.954,-867.59 355,-878.574 493.69,-896.917 559.366,-943.475 669,-856.574 705.037,-828.01 687.988,-802.296 705,-759.574 723.471,-713.19 746.655,-659.746 760.053,-629.281"/>
<polygon fill="midnightblue" stroke="midnightblue" points="763.369,-630.436 764.201,-619.874 756.964,-627.612 763.369,-630.436"/>
</g>
<!-- Node8 -->
<g id="node8" class="node"><title>Node8</title>
<g id="a_node8"><a xlink:href="classscram_1_1core_1_1Settings.xhtml#a0e43ec0f017d23a4fa4e376c4060d380" target="_top" xlink:title="scram::core::Settings\l::limit_order">
<polygon fill="white" stroke="black" points="365,-674.574 365,-704.574 484,-704.574 484,-674.574 365,-674.574"/>
<text text-anchor="start" x="373" y="-692.574" font-family="Helvetica,sans-Serif" font-size="10.00">scram::core::Settings</text>
<text text-anchor="middle" x="424.5" y="-681.574" font-family="Helvetica,sans-Serif" font-size="10.00">::limit_order</text>
</a>
</g>
</g>
<!-- Node1&#45;&gt;Node8 -->
<g id="edge52" class="edge"><title>Node1&#45;&gt;Node8</title>
<path fill="none" stroke="midnightblue" d="M77.8665,-548.153C94.2542,-566.3 132.53,-605.735 173,-626.574 230.467,-656.165 302.635,-672.406 354.731,-680.949"/>
<polygon fill="midnightblue" stroke="midnightblue" points="354.448,-684.448 364.872,-682.557 355.544,-677.534 354.448,-684.448"/>
</g>
<!-- Node9 -->
<g id="node9" class="node"><title>Node9</title>
<g id="a_node9"><a xlink:href="classscram_1_1core_1_1Zbdd.xhtml#a3dbb8ef5da2882daf6c39e9724eae459" target="_top" xlink:title="Removes subsets in ZBDD. ">
<polygon fill="white" stroke="black" points="369,-548.574 369,-578.574 480,-578.574 480,-548.574 369,-548.574"/>
<text text-anchor="start" x="377" y="-566.574" font-family="Helvetica,sans-Serif" font-size="10.00">scram::core::Zbdd::</text>
<text text-anchor="middle" x="424.5" y="-555.574" font-family="Helvetica,sans-Serif" font-size="10.00">Minimize</text>
</a>
</g>
</g>
<!-- Node1&#45;&gt;Node9 -->
<g id="edge55" class="edge"><title>Node1&#45;&gt;Node9</title>
<path fill="none" stroke="midnightblue" d="M137.336,-543.365C201.139,-547.87 295.991,-554.569 358.764,-559.002"/>
<polygon fill="midnightblue" stroke="midnightblue" points="358.717,-562.507 368.939,-559.721 359.21,-555.525 358.717,-562.507"/>
</g>
<!-- Node11 -->
<g id="node11" class="node"><title>Node11</title>
<g id="a_node11"><a xlink:href="classscram_1_1core_1_1SetNode.xhtml#a88d05af2b9f4f08b7bc66a31c2b9e249" target="_top" xlink:title="scram::core::SetNode\l::minimal">
<polygon fill="white" stroke="black" points="538.5,-732.574 538.5,-762.574 660.5,-762.574 660.5,-732.574 538.5,-732.574"/>
<text text-anchor="start" x="546.5" y="-750.574" font-family="Helvetica,sans-Serif" font-size="10.00">scram::core::SetNode</text>
<text text-anchor="middle" x="599.5" y="-739.574" font-family="Helvetica,sans-Serif" font-size="10.00">::minimal</text>
</a>
</g>
</g>
<!-- Node1&#45;&gt;Node11 -->
<g id="edge54" class="edge"><title>Node1&#45;&gt;Node11</title>
<path fill="none" stroke="midnightblue" d="M71.1467,-548.158C77.3683,-581.055 102.765,-689.749 173,-733.574 282.889,-802.142 441.724,-783.394 530.997,-764.742"/>
<polygon fill="midnightblue" stroke="midnightblue" points="531.961,-768.115 541.001,-762.591 530.489,-761.272 531.961,-768.115"/>
</g>
<!-- Node14 -->
<g id="node14" class="node"><title>Node14</title>
<g id="a_node14"><a xlink:href="classscram_1_1core_1_1Settings.xhtml#ae64f362fceb44402e101140dfc1725ba" target="_top" xlink:title="scram::core::Settings\l::prime_implicants">
<polygon fill="white" stroke="black" points="540,-510.574 540,-540.574 659,-540.574 659,-510.574 540,-510.574"/>
<text text-anchor="start" x="548" y="-528.574" font-family="Helvetica,sans-Serif" font-size="10.00">scram::core::Settings</text>
<text text-anchor="middle" x="599.5" y="-517.574" font-family="Helvetica,sans-Serif" font-size="10.00">::prime_implicants</text>
</a>
</g>
</g>
<!-- Node1&#45;&gt;Node14 -->
<g id="edge58" class="edge"><title>Node1&#45;&gt;Node14</title>
<path fill="none" stroke="midnightblue" d="M137.036,-536.914C238.154,-534.429 427.877,-529.767 529.718,-527.264"/>
<polygon fill="midnightblue" stroke="midnightblue" points="529.982,-530.759 539.893,-527.014 529.81,-523.761 529.982,-530.759"/>
</g>
<!-- Node18 -->
<g id="node18" class="node"><title>Node18</title>
<g id="a_node18"><a xlink:href="classscram_1_1core_1_1Zbdd.xhtml#aeb83fd37f2aee74ac41e6ccadba82d39" target="_top" xlink:title="Removes constant modules from products. ">
<polygon fill="white" stroke="black" points="174,-586.574 174,-616.574 318,-616.574 318,-586.574 174,-586.574"/>
<text text-anchor="start" x="182" y="-604.574" font-family="Helvetica,sans-Serif" font-size="10.00">scram::core::Zbdd::</text>
<text text-anchor="middle" x="246" y="-593.574" font-family="Helvetica,sans-Serif" font-size="10.00">EliminateConstantModules</text>
</a>
</g>
</g>
<!-- Node1&#45;&gt;Node18 -->
<g id="edge22" class="edge"><title>Node1&#45;&gt;Node18</title>
<path fill="none" stroke="midnightblue" d="M96.1547,-548.142C121.877,-557.376 161.504,-571.601 193.405,-583.053"/>
<polygon fill="midnightblue" stroke="midnightblue" points="192.439,-586.424 203.033,-586.509 194.804,-579.836 192.439,-586.424"/>
</g>
<!-- Node19 -->
<g id="node19" class="node"><title>Node19</title>
<g id="a_node19"><a xlink:href="classscram_1_1core_1_1Zbdd.xhtml#a516f0d2f35ad213399f83fb9ab102561" target="_top" xlink:title="Traverses ZBDD to find modules and adjusted cut&#45;offs. ">
<polygon fill="white" stroke="black" points="190.5,-457.574 190.5,-487.574 301.5,-487.574 301.5,-457.574 190.5,-457.574"/>
<text text-anchor="start" x="198.5" y="-475.574" font-family="Helvetica,sans-Serif" font-size="10.00">scram::core::Zbdd::</text>
<text text-anchor="middle" x="246" y="-464.574" font-family="Helvetica,sans-Serif" font-size="10.00">GatherModules</text>
</a>
</g>
</g>
<!-- Node1&#45;&gt;Node19 -->
<g id="edge27" class="edge"><title>Node1&#45;&gt;Node19</title>
<path fill="none" stroke="midnightblue" d="M95.0192,-528.977C121.237,-519.117 162.724,-503.515 195.425,-491.218"/>
<polygon fill="midnightblue" stroke="midnightblue" points="196.701,-494.477 204.829,-487.681 194.237,-487.925 196.701,-494.477"/>
</g>
<!-- Node26 -->
<g id="node26" class="node"><title>Node26</title>
<g id="a_node26"><a xlink:href="classscram_1_1core_1_1Node.xhtml#a62121e217b0da73112af7e07275f2c15" target="_top" xlink:title="scram::core::Node::\lindex">
<polygon fill="white" stroke="black" points="190.5,-408.574 190.5,-438.574 301.5,-438.574 301.5,-408.574 190.5,-408.574"/>
<text text-anchor="start" x="198.5" y="-426.574" font-family="Helvetica,sans-Serif" font-size="10.00">scram::core::Node::</text>
<text text-anchor="middle" x="246" y="-415.574" font-family="Helvetica,sans-Serif" font-size="10.00">index</text>
</a>
</g>
</g>
<!-- Node1&#45;&gt;Node26 -->
<g id="edge48" class="edge"><title>Node1&#45;&gt;Node26</title>
<path fill="none" stroke="midnightblue" d="M78.2539,-528.808C94.9999,-510.656 133.437,-471.488 173,-448.574 176.607,-446.485 180.416,-444.531 184.324,-442.712"/>
<polygon fill="midnightblue" stroke="midnightblue" points="185.784,-445.894 193.57,-438.708 183.002,-439.47 185.784,-445.894"/>
</g>
<!-- Node27 -->
<g id="node27" class="node"><title>Node27</title>
<g id="a_node27"><a xlink:href="classscram_1_1core_1_1Zbdd.xhtml#a4ecbf60e6ac51e5260e8d8139c1b8599" target="_top" xlink:title="Joins a ZBDD representing a module gate. ">
<polygon fill="white" stroke="black" points="369,-838.574 369,-868.574 480,-868.574 480,-838.574 369,-838.574"/>
<text text-anchor="start" x="377" y="-856.574" font-family="Helvetica,sans-Serif" font-size="10.00">scram::core::Zbdd::</text>
<text text-anchor="middle" x="424.5" y="-845.574" font-family="Helvetica,sans-Serif" font-size="10.00">JoinModule</text>
</a>
</g>
</g>
<!-- Node1&#45;&gt;Node27 -->
<g id="edge49" class="edge"><title>Node1&#45;&gt;Node27</title>
<path fill="none" stroke="midnightblue" d="M70.5309,-548.104C75.0218,-584.807 96.2427,-718.316 173,-785.574 224.61,-830.796 303.451,-846.279 358.868,-851.402"/>
<polygon fill="midnightblue" stroke="midnightblue" points="358.675,-854.898 368.932,-852.243 359.258,-847.922 358.675,-854.898"/>
</g>
<!-- Node28 -->
<g id="node28" class="node"><title>Node28</title>
<g id="a_node28"><a xlink:href="classscram_1_1core_1_1Zbdd.xhtml#ae819f5439416479971018ac134233091" target="_top" xlink:title="Logs properties of the Zbdd. ">
<polygon fill="white" stroke="black" points="182,-370.074 182,-389.074 310,-389.074 310,-370.074 182,-370.074"/>
<text text-anchor="middle" x="246" y="-377.074" font-family="Helvetica,sans-Serif" font-size="10.00">scram::core::Zbdd::Log</text>
</a>
</g>
</g>
<!-- Node1&#45;&gt;Node28 -->
<g id="edge53" class="edge"><title>Node1&#45;&gt;Node28</title>
<path fill="none" stroke="midnightblue" d="M73.9517,-528.748C86.0112,-503.267 121.876,-434.614 173,-399.574 176.551,-397.14 180.392,-395.001 184.387,-393.121"/>
<polygon fill="midnightblue" stroke="midnightblue" points="186.015,-396.236 193.927,-389.189 183.347,-389.764 186.015,-396.236"/>
</g>
<!-- Node29 -->
<g id="node29" class="node"><title>Node29</title>
<g id="a_node29"><a xlink:href="classscram_1_1core_1_1Gate.xhtml#a93fa477d60140843c4abae7de52fffa1" target="_top" xlink:title="scram::core::Gate::\lmodule">
<polygon fill="white" stroke="black" points="191.5,-320.574 191.5,-350.574 300.5,-350.574 300.5,-320.574 191.5,-320.574"/>
<text text-anchor="start" x="199.5" y="-338.574" font-family="Helvetica,sans-Serif" font-size="10.00">scram::core::Gate::</text>
<text text-anchor="middle" x="246" y="-327.574" font-family="Helvetica,sans-Serif" font-size="10.00">module</text>
</a>
</g>
</g>
<!-- Node1&#45;&gt;Node29 -->
<g id="edge56" class="edge"><title>Node1&#45;&gt;Node29</title>
<path fill="none" stroke="midnightblue" d="M72.438,-528.877C81.9152,-499.21 114.511,-408.764 173,-360.574 175.875,-358.205 178.989,-356.054 182.254,-354.103"/>
<polygon fill="midnightblue" stroke="midnightblue" points="183.978,-357.151 191.19,-349.391 180.712,-350.96 183.978,-357.151"/>
</g>
<!-- Node30 -->
<g id="node30" class="node"><title>Node30</title>
<g id="a_node30"><a xlink:href="classscram_1_1core_1_1Bdd.xhtml#a084e72279927831ec728a1542861dfec" target="_top" xlink:title="scram::core::Bdd::modules">
<polygon fill="white" stroke="black" points="173,-282.074 173,-301.074 319,-301.074 319,-282.074 173,-282.074"/>
<text text-anchor="middle" x="246" y="-289.074" font-family="Helvetica,sans-Serif" font-size="10.00">scram::core::Bdd::modules</text>
</a>
</g>
</g>
<!-- Node1&#45;&gt;Node30 -->
<g id="edge57" class="edge"><title>Node1&#45;&gt;Node30</title>
<path fill="none" stroke="midnightblue" d="M70.8787,-529.036C76.4524,-494.063 100.6,-371.721 173,-310.574 174.988,-308.895 177.108,-307.363 179.327,-305.965"/>
<polygon fill="midnightblue" stroke="midnightblue" points="181.111,-308.981 188.31,-301.208 177.835,-302.794 181.111,-308.981"/>
</g>
<!-- Node31 -->
<g id="node31" class="node"><title>Node31</title>
<g id="a_node31"><a xlink:href="classscram_1_1core_1_1Zbdd.xhtml#ab71281cd644eb442dd2d3ee1c5df56c4" target="_top" xlink:title="scram::core::Zbdd::\lsettings">
<polygon fill="white" stroke="black" points="190.5,-232.574 190.5,-262.574 301.5,-262.574 301.5,-232.574 190.5,-232.574"/>
<text text-anchor="start" x="198.5" y="-250.574" font-family="Helvetica,sans-Serif" font-size="10.00">scram::core::Zbdd::</text>
<text text-anchor="middle" x="246" y="-239.574" font-family="Helvetica,sans-Serif" font-size="10.00">settings</text>
</a>
</g>
</g>
<!-- Node1&#45;&gt;Node31 -->
<g id="edge60" class="edge"><title>Node1&#45;&gt;Node31</title>
<path fill="none" stroke="midnightblue" d="M70.3803,-529.021C74.3953,-490.945 94.3268,-348.398 173,-272.574 175.555,-270.112 178.364,-267.891 181.346,-265.889"/>
<polygon fill="midnightblue" stroke="midnightblue" points="183.238,-268.838 190.143,-260.802 179.734,-262.778 183.238,-268.838"/>
</g>
<!-- Node32 -->
<g id="node32" class="node"><title>Node32</title>
<g id="a_node32"><a xlink:href="classscram_1_1core_1_1Gate.xhtml#ad5a5766ce9dbbd2104c0bb07b9639a48" target="_top" xlink:title="scram::core::Gate::type">
<polygon fill="white" stroke="black" points="181,-194.074 181,-213.074 311,-213.074 311,-194.074 181,-194.074"/>
<text text-anchor="middle" x="246" y="-201.074" font-family="Helvetica,sans-Serif" font-size="10.00">scram::core::Gate::type</text>
</a>
</g>
</g>
<!-- Node1&#45;&gt;Node32 -->
<g id="edge61" class="edge"><title>Node1&#45;&gt;Node32</title>
<path fill="none" stroke="midnightblue" d="M69.5424,-528.868C70.2787,-485.91 79.1366,-311.1 173,-222.574 174.517,-221.144 176.128,-219.818 177.816,-218.59"/>
<polygon fill="midnightblue" stroke="midnightblue" points="180.015,-221.353 186.811,-213.224 176.429,-215.341 180.015,-221.353"/>
</g>
<!-- Node33 -->
<g id="node33" class="node"><title>Node33</title>
<g id="a_node33"><a xlink:href="classscram_1_1core_1_1Zbdd.xhtml#a7dd59951e7bc8fd08c75feb44bc496e2" target="_top" xlink:title="Converts Reduced Ordered BDD into Zero&#45;Suppressed BDD. ">
<polygon fill="white" stroke="black" points="177.5,-156.074 177.5,-175.074 314.5,-175.074 314.5,-156.074 177.5,-156.074"/>
<text text-anchor="middle" x="246" y="-163.074" font-family="Helvetica,sans-Serif" font-size="10.00">scram::core::Zbdd::Zbdd</text>
</a>
</g>
</g>
<!-- Node1&#45;&gt;Node33 -->
<g id="edge62" class="edge"><title>Node1&#45;&gt;Node33</title>
<path fill="none" stroke="midnightblue" d="M69.1525,-528.987C68.0451,-483.252 69.5598,-285.315 173,-184.574 174.493,-183.119 176.084,-181.773 177.755,-180.526"/>
<polygon fill="midnightblue" stroke="midnightblue" points="179.961,-183.281 186.683,-175.091 176.321,-177.302 179.961,-183.281"/>
</g>
<!-- Node5 -->
<g id="node5" class="node"><title>Node5</title>
<g id="a_node5"><a xlink:href="structscram_1_1core_1_1IntrusivePtrCast.xhtml#adc53e5b89cace18e05bac95316da7d91" target="_top" xlink:title="scram::core::IntrusivePtr\lCast\&lt; SetNode \&gt;::Ptr">
<polygon fill="white" stroke="black" points="532.5,-665.574 532.5,-695.574 666.5,-695.574 666.5,-665.574 532.5,-665.574"/>
<text text-anchor="start" x="540.5" y="-683.574" font-family="Helvetica,sans-Serif" font-size="10.00">scram::core::IntrusivePtr</text>
<text text-anchor="middle" x="599.5" y="-672.574" font-family="Helvetica,sans-Serif" font-size="10.00">Cast&lt; SetNode &gt;::Ptr</text>
</a>
</g>
</g>
<!-- Node4&#45;&gt;Node5 -->
<g id="edge4" class="edge"><title>Node4&#45;&gt;Node5</title>
<path fill="none" stroke="midnightblue" d="M310.103,-716.354C360.261,-721.041 432.041,-724.4 494,-714.574 513.555,-711.473 534.43,-705.298 552.34,-699.052"/>
<polygon fill="midnightblue" stroke="midnightblue" points="553.732,-702.271 561.957,-695.593 551.363,-695.684 553.732,-702.271"/>
</g>
<!-- Node4&#45;&gt;Node6 -->
<g id="edge5" class="edge"><title>Node4&#45;&gt;Node6</title>
<path fill="none" stroke="midnightblue" d="M274.037,-723.646C344.247,-760.587 536.13,-847.345 669,-772.574 723.77,-741.753 752.528,-668.319 764.353,-629.543"/>
<polygon fill="midnightblue" stroke="midnightblue" points="767.816,-630.169 767.247,-619.59 761.094,-628.215 767.816,-630.169"/>
</g>
<!-- Node7 -->
<g id="node7" class="node"><title>Node7</title>
<g id="a_node7"><a xlink:href="classscram_1_1core_1_1SetNode.xhtml#a2d7f99792b82961df2e5ecfcd735bb5f" target="_top" xlink:title="scram::core::SetNode\l::max_set_order">
<polygon fill="white" stroke="black" points="711,-768.574 711,-798.574 833,-798.574 833,-768.574 711,-768.574"/>
<text text-anchor="start" x="719" y="-786.574" font-family="Helvetica,sans-Serif" font-size="10.00">scram::core::SetNode</text>
<text text-anchor="middle" x="772" y="-775.574" font-family="Helvetica,sans-Serif" font-size="10.00">::max_set_order</text>
</a>
</g>
</g>
<!-- Node4&#45;&gt;Node7 -->
<g id="edge6" class="edge"><title>Node4&#45;&gt;Node7</title>
<path fill="none" stroke="midnightblue" d="M251.204,-723.795C261.798,-758.806 293.25,-844.646 355,-878.574 477.609,-945.941 538.728,-907.569 669,-856.574 698.809,-844.905 728.016,-822.567 747.484,-805.66"/>
<polygon fill="midnightblue" stroke="midnightblue" points="750.058,-808.055 755.205,-798.794 745.406,-802.824 750.058,-808.055"/>
</g>
<!-- Node4&#45;&gt;Node8 -->
<g id="edge7" class="edge"><title>Node4&#45;&gt;Node8</title>
<path fill="none" stroke="midnightblue" d="M310.222,-701.768C324.688,-700.211 340.133,-698.548 354.817,-696.968"/>
<polygon fill="midnightblue" stroke="midnightblue" points="355.271,-700.439 364.839,-695.889 354.522,-693.479 355.271,-700.439"/>
</g>
<!-- Node4&#45;&gt;Node9 -->
<g id="edge8" class="edge"><title>Node4&#45;&gt;Node9</title>
<path fill="none" stroke="midnightblue" d="M265.555,-693.33C297.019,-667.482 360.936,-614.972 397.07,-585.287"/>
<polygon fill="midnightblue" stroke="midnightblue" points="399.688,-587.665 405.194,-578.613 395.245,-582.257 399.688,-587.665"/>
</g>
<!-- Node9&#45;&gt;Node5 -->
<g id="edge9" class="edge"><title>Node9&#45;&gt;Node5</title>
<path fill="none" stroke="midnightblue" d="M471.089,-578.624C479.291,-582.645 487.338,-587.585 494,-593.574 517.983,-615.133 505.217,-635.939 530,-656.574 531.525,-657.844 533.122,-659.048 534.776,-660.191"/>
<polygon fill="midnightblue" stroke="midnightblue" points="533.077,-663.253 543.453,-665.399 536.68,-657.252 533.077,-663.253"/>
</g>
<!-- Node9&#45;&gt;Node6 -->
<g id="edge10" class="edge"><title>Node9&#45;&gt;Node6</title>
<path fill="none" stroke="midnightblue" d="M480.246,-564.982C538.132,-569.866 629.882,-580.548 694.814,-589.825"/>
<polygon fill="midnightblue" stroke="midnightblue" points="694.598,-593.33 704.996,-591.301 695.602,-586.402 694.598,-593.33"/>
</g>
<!-- Node9&#45;&gt;Node6 -->
<g id="edge14" class="edge"><title>Node9&#45;&gt;Node6</title>
<path fill="none" stroke="midnightblue" d="M480.246,-575.159C538.132,-584.013 629.882,-595.107 694.814,-601.241"/>
<polygon fill="midnightblue" stroke="midnightblue" points="694.717,-604.747 704.996,-602.182 695.361,-597.777 694.717,-604.747"/>
</g>
<!-- Node10 -->
<g id="node10" class="node"><title>Node10</title>
<g id="a_node10"><a xlink:href="classscram_1_1core_1_1Zbdd.xhtml#a42af18229ba2e80201bc0fdac07b7091" target="_top" xlink:title="Finds or adds a unique SetNode in the ZBDD. ">
<polygon fill="white" stroke="black" points="544,-616.574 544,-646.574 655,-646.574 655,-616.574 544,-616.574"/>
<text text-anchor="start" x="552" y="-634.574" font-family="Helvetica,sans-Serif" font-size="10.00">scram::core::Zbdd::</text>
<text text-anchor="middle" x="599.5" y="-623.574" font-family="Helvetica,sans-Serif" font-size="10.00">FindOrAddVertex</text>
</a>
</g>
</g>
<!-- Node9&#45;&gt;Node10 -->
<g id="edge11" class="edge"><title>Node9&#45;&gt;Node10</title>
<path fill="none" stroke="midnightblue" d="M463.894,-578.665C489.54,-588.746 523.457,-602.077 550.829,-612.836"/>
<polygon fill="midnightblue" stroke="midnightblue" points="549.626,-616.124 560.213,-616.525 552.187,-609.609 549.626,-616.124"/>
</g>
<!-- Node9&#45;&gt;Node11 -->
<g id="edge15" class="edge"><title>Node9&#45;&gt;Node11</title>
<path fill="none" stroke="midnightblue" d="M474.249,-578.667C481.586,-582.604 488.518,-587.504 494,-593.574 529.043,-632.379 497.7,-664.458 530,-705.574 536.661,-714.053 545.545,-721.241 554.701,-727.144"/>
<polygon fill="midnightblue" stroke="midnightblue" points="553.123,-730.278 563.501,-732.411 556.718,-724.272 553.123,-730.278"/>
</g>
<!-- Node12 -->
<g id="node12" class="node"><title>Node12</title>
<g id="a_node12"><a xlink:href="classscram_1_1core_1_1Terminal.xhtml#a7a25b0b40498f4876571a5dac4e724c3" target="_top" xlink:title="scram::core::Terminal\l::value">
<polygon fill="white" stroke="black" points="540,-404.574 540,-434.574 659,-434.574 659,-404.574 540,-404.574"/>
<text text-anchor="start" x="548" y="-422.574" font-family="Helvetica,sans-Serif" font-size="10.00">scram::core::Terminal</text>
<text text-anchor="middle" x="599.5" y="-411.574" font-family="Helvetica,sans-Serif" font-size="10.00">::value</text>
</a>
</g>
</g>
<!-- Node9&#45;&gt;Node12 -->
<g id="edge16" class="edge"><title>Node9&#45;&gt;Node12</title>
<path fill="none" stroke="midnightblue" d="M443.687,-548.436C474.447,-522.832 536.85,-470.889 572.317,-441.368"/>
<polygon fill="midnightblue" stroke="midnightblue" points="574.85,-443.813 580.297,-434.725 570.372,-438.433 574.85,-443.813"/>
</g>
<!-- Node9&#45;&gt;Node14 -->
<g id="edge18" class="edge"><title>Node9&#45;&gt;Node14</title>
<path fill="none" stroke="midnightblue" d="M480.238,-551.55C495.978,-548.093 513.347,-544.278 529.815,-540.661"/>
<polygon fill="midnightblue" stroke="midnightblue" points="530.914,-544.003 539.93,-538.439 529.412,-537.166 530.914,-544.003"/>
</g>
<!-- Node15 -->
<g id="node15" class="node"><title>Node15</title>
<g id="a_node15"><a xlink:href="classscram_1_1core_1_1NonTerminal.xhtml#aeeaafd82ae5890a7ec3462c68ffc8628" target="_top" xlink:title="scram::core::NonTerminal\l::index">
<polygon fill="white" stroke="black" points="530,-284.574 530,-314.574 669,-314.574 669,-284.574 530,-284.574"/>
<text text-anchor="start" x="538" y="-302.574" font-family="Helvetica,sans-Serif" font-size="10.00">scram::core::NonTerminal</text>
<text text-anchor="middle" x="599.5" y="-291.574" font-family="Helvetica,sans-Serif" font-size="10.00">::index</text>
</a>
</g>
</g>
<!-- Node9&#45;&gt;Node15 -->
<g id="edge19" class="edge"><title>Node9&#45;&gt;Node15</title>
<path fill="none" stroke="midnightblue" d="M434.414,-548.541C452.081,-518.907 493.031,-451.015 530,-395.574 546.844,-370.313 567.158,-342.106 581.271,-322.841"/>
<polygon fill="midnightblue" stroke="midnightblue" points="584.181,-324.792 587.284,-314.662 578.541,-320.646 584.181,-324.792"/>
</g>
<!-- Node16 -->
<g id="node16" class="node"><title>Node16</title>
<g id="a_node16"><a xlink:href="classscram_1_1core_1_1NonTerminal.xhtml#a9230422e92d086c34f67bcb864bfc8a9" target="_top" xlink:title="scram::core::NonTerminal\l::module">
<polygon fill="white" stroke="black" points="530,-201.574 530,-231.574 669,-231.574 669,-201.574 530,-201.574"/>
<text text-anchor="start" x="538" y="-219.574" font-family="Helvetica,sans-Serif" font-size="10.00">scram::core::NonTerminal</text>
<text text-anchor="middle" x="599.5" y="-208.574" font-family="Helvetica,sans-Serif" font-size="10.00">::module</text>
</a>
</g>
</g>
<!-- Node9&#45;&gt;Node16 -->
<g id="edge20" class="edge"><title>Node9&#45;&gt;Node16</title>
<path fill="none" stroke="midnightblue" d="M433.049,-548.167C446.537,-520.234 475.129,-459.153 494,-405.574 514.059,-348.622 497.508,-325.467 530,-274.574 539.149,-260.244 552.941,-247.594 565.757,-237.795"/>
<polygon fill="midnightblue" stroke="midnightblue" points="567.976,-240.508 573.979,-231.778 563.842,-234.859 567.976,-240.508"/>
</g>
<!-- Node17 -->
<g id="node17" class="node"><title>Node17</title>
<g id="a_node17"><a xlink:href="classscram_1_1core_1_1NonTerminal.xhtml#adcdd0c5114aa6a1d32a03928adc07c49" target="_top" xlink:title="scram::core::NonTerminal\l::coherent">
<polygon fill="white" stroke="black" points="530,-152.574 530,-182.574 669,-182.574 669,-152.574 530,-152.574"/>
<text text-anchor="start" x="538" y="-170.574" font-family="Helvetica,sans-Serif" font-size="10.00">scram::core::NonTerminal</text>
<text text-anchor="middle" x="599.5" y="-159.574" font-family="Helvetica,sans-Serif" font-size="10.00">::coherent</text>
</a>
</g>
</g>
<!-- Node9&#45;&gt;Node17 -->
<g id="edge21" class="edge"><title>Node9&#45;&gt;Node17</title>
<path fill="none" stroke="midnightblue" d="M433.595,-548.344C447.951,-520.692 477.872,-460.042 494,-405.574 521.383,-313.095 467.85,-265.327 530,-191.574 530.731,-190.707 531.495,-189.871 532.289,-189.065"/>
<polygon fill="midnightblue" stroke="midnightblue" points="534.655,-191.651 540.16,-182.598 530.211,-186.242 534.655,-191.651"/>
</g>
<!-- Node10&#45;&gt;Node6 -->
<g id="edge12" class="edge"><title>Node10&#45;&gt;Node6</title>
<path fill="none" stroke="midnightblue" d="M655.386,-622.882C667.953,-620.892 681.533,-618.742 694.816,-616.638"/>
<polygon fill="midnightblue" stroke="midnightblue" points="695.564,-620.063 704.893,-615.042 694.469,-613.15 695.564,-620.063"/>
</g>
<!-- Node10&#45;&gt;Node7 -->
<g id="edge13" class="edge"><title>Node10&#45;&gt;Node7</title>
<path fill="none" stroke="midnightblue" d="M651.477,-646.591C657.647,-649.429 663.65,-652.738 669,-656.574 708.025,-684.555 740.156,-731.292 757.369,-759.593"/>
<polygon fill="midnightblue" stroke="midnightblue" points="754.504,-761.623 762.623,-768.43 760.521,-758.046 754.504,-761.623"/>
</g>
<!-- Node13 -->
<g id="node13" class="node"><title>Node13</title>
<g id="a_node13"><a xlink:href="classscram_1_1core_1_1Vertex.xhtml#a8a4a6e9871c7b80b9951fea57617d438" target="_top" xlink:title="scram::core::Vertex::id">
<polygon fill="white" stroke="black" points="709.5,-410.074 709.5,-429.074 834.5,-429.074 834.5,-410.074 709.5,-410.074"/>
<text text-anchor="middle" x="772" y="-417.074" font-family="Helvetica,sans-Serif" font-size="10.00">scram::core::Vertex::id</text>
</a>
</g>
</g>
<!-- Node12&#45;&gt;Node13 -->
<g id="edge17" class="edge"><title>Node12&#45;&gt;Node13</title>
<path fill="none" stroke="midnightblue" d="M659.176,-419.574C672.072,-419.574 685.869,-419.574 699.215,-419.574"/>
<polygon fill="midnightblue" stroke="midnightblue" points="699.31,-423.074 709.31,-419.574 699.31,-416.074 699.31,-423.074"/>
</g>
<!-- Node18&#45;&gt;Node5 -->
<g id="edge23" class="edge"><title>Node18&#45;&gt;Node5</title>
<path fill="none" stroke="midnightblue" d="M313.942,-616.619C373.377,-629.977 460.185,-649.487 522.273,-663.442"/>
<polygon fill="midnightblue" stroke="midnightblue" points="521.879,-666.94 532.403,-665.719 523.414,-660.111 521.879,-666.94"/>
</g>
<!-- Node18&#45;&gt;Node8 -->
<g id="edge25" class="edge"><title>Node18&#45;&gt;Node8</title>
<path fill="none" stroke="midnightblue" d="M274.715,-616.606C304.005,-632.47 347.058,-655.71 355,-659.574 362.47,-663.208 370.485,-666.9 378.306,-670.393"/>
<polygon fill="midnightblue" stroke="midnightblue" points="377.138,-673.703 387.7,-674.539 379.964,-667.299 377.138,-673.703"/>
</g>
<!-- Node18&#45;&gt;Node9 -->
<g id="edge26" class="edge"><title>Node18&#45;&gt;Node9</title>
<path fill="none" stroke="midnightblue" d="M316.757,-586.555C330.714,-583.55 345.317,-580.406 359.083,-577.443"/>
<polygon fill="midnightblue" stroke="midnightblue" points="359.899,-580.847 368.938,-575.321 358.426,-574.004 359.899,-580.847"/>
</g>
<!-- Node18&#45;&gt;Node12 -->
<g id="edge24" class="edge"><title>Node18&#45;&gt;Node12</title>
<path fill="none" stroke="midnightblue" d="M272.494,-586.33C294.219,-573.487 326.378,-554.822 355,-539.574 424.995,-502.283 508.186,-462.166 556.979,-439.051"/>
<polygon fill="midnightblue" stroke="midnightblue" points="558.72,-442.099 566.265,-434.661 555.728,-435.771 558.72,-442.099"/>
</g>
<!-- Node19&#45;&gt;Node6 -->
<g id="edge29" class="edge"><title>Node19&#45;&gt;Node6</title>
<path fill="none" stroke="midnightblue" d="M301.593,-458.78C385.01,-445.768 547.315,-436.848 669,-492.574 709.527,-511.133 742.8,-553.315 759.458,-580.529"/>
<polygon fill="midnightblue" stroke="midnightblue" points="756.597,-582.573 764.642,-589.467 762.653,-579.061 756.597,-582.573"/>
</g>
<!-- Node19&#45;&gt;Node6 -->
<g id="edge46" class="edge"><title>Node19&#45;&gt;Node6</title>
<path fill="none" stroke="midnightblue" d="M301.593,-470.286C385.01,-463.768 547.315,-454.848 669,-510.574 703.289,-526.276 732.386,-558.889 750.619,-581.429"/>
<polygon fill="midnightblue" stroke="midnightblue" points="748.095,-583.878 757.064,-589.518 753.57,-579.516 748.095,-583.878"/>
</g>
<!-- Node19&#45;&gt;Node8 -->
<g id="edge39" class="edge"><title>Node19&#45;&gt;Node8</title>
<path fill="none" stroke="midnightblue" d="M256.961,-487.984C275.151,-515.724 315.518,-575.465 355,-621.574 368.757,-637.64 385.602,-654.395 399.144,-667.253"/>
<polygon fill="midnightblue" stroke="midnightblue" points="397.003,-670.044 406.688,-674.339 401.795,-664.942 397.003,-670.044"/>
</g>
<!-- Node19&#45;&gt;Node11 -->
<g id="edge47" class="edge"><title>Node19&#45;&gt;Node11</title>
<path fill="none" stroke="midnightblue" d="M258.66,-487.927C277.187,-511.611 315.328,-557.562 355,-588.574 410.641,-632.068 438.729,-621.611 494,-665.574 512.718,-680.462 511.615,-690.276 530,-705.574 539.55,-713.521 550.746,-721.021 561.287,-727.425"/>
<polygon fill="midnightblue" stroke="midnightblue" points="559.546,-730.461 569.937,-732.531 563.105,-724.433 559.546,-730.461"/>
</g>
<!-- Node19&#45;&gt;Node12 -->
<g id="edge28" class="edge"><title>Node19&#45;&gt;Node12</title>
<path fill="none" stroke="midnightblue" d="M301.832,-460.132C308.113,-457.085 314.033,-453.293 319,-448.574 350.833,-418.332 318.734,-381.326 355,-356.574 406.026,-321.747 434.481,-340.021 494,-356.574 523.109,-364.67 552.219,-383.299 572.294,-398.213"/>
<polygon fill="midnightblue" stroke="midnightblue" points="570.245,-401.052 580.318,-404.335 574.491,-395.486 570.245,-401.052"/>
</g>
<!-- Node19&#45;&gt;Node15 -->
<g id="edge40" class="edge"><title>Node19&#45;&gt;Node15</title>
<path fill="none" stroke="midnightblue" d="M301.791,-460.634C308.155,-457.505 314.108,-453.557 319,-448.574 356.521,-410.357 314.144,-368.202 355,-333.574 399.951,-295.475 467.229,-288.579 519.684,-290.312"/>
<polygon fill="midnightblue" stroke="midnightblue" points="519.821,-293.821 529.966,-290.767 520.13,-286.828 519.821,-293.821"/>
</g>
<!-- Node19&#45;&gt;Node16 -->
<g id="edge38" class="edge"><title>Node19&#45;&gt;Node16</title>
<path fill="none" stroke="midnightblue" d="M301.759,-461.617C308.29,-458.339 314.296,-454.087 319,-448.574 382.739,-373.869 281.973,-296.228 355,-230.574 401.912,-188.398 476.687,-190.569 531.008,-199.755"/>
<polygon fill="midnightblue" stroke="midnightblue" points="530.439,-203.209 540.902,-201.543 531.684,-196.321 530.439,-203.209"/>
</g>
<!-- Node19&#45;&gt;Node17 -->
<g id="edge41" class="edge"><title>Node19&#45;&gt;Node17</title>
<path fill="none" stroke="midnightblue" d="M301.531,-461.904C308.182,-458.586 314.281,-454.247 319,-448.574 393.039,-359.565 271.333,-270.601 355,-190.574 378,-168.575 457.557,-164.453 519.549,-164.815"/>
<polygon fill="midnightblue" stroke="midnightblue" points="519.692,-168.317 529.726,-164.915 519.761,-161.317 519.692,-168.317"/>
</g>
<!-- Node20 -->
<g id="node20" class="node"><title>Node20</title>
<g id="a_node20"><a xlink:href="classscram_1_1core_1_1NonTerminal.xhtml#a7b184b2ba68a289aae9f3737f1d13b97" target="_top" xlink:title="scram::core::NonTerminal\l::high">
<polygon fill="white" stroke="black" points="530,-102.574 530,-132.574 669,-132.574 669,-102.574 530,-102.574"/>
<text text-anchor="start" x="538" y="-120.574" font-family="Helvetica,sans-Serif" font-size="10.00">scram::core::NonTerminal</text>
<text text-anchor="middle" x="599.5" y="-109.574" font-family="Helvetica,sans-Serif" font-size="10.00">::high</text>
</a>
</g>
</g>
<!-- Node19&#45;&gt;Node20 -->
<g id="edge30" class="edge"><title>Node19&#45;&gt;Node20</title>
<path fill="none" stroke="midnightblue" d="M301.711,-462.051C308.335,-458.711 314.38,-454.327 319,-448.574 367.13,-388.647 297.892,-156.017 355,-104.574 378.576,-83.3366 458.034,-91.4285 519.846,-101.783"/>
<polygon fill="midnightblue" stroke="midnightblue" points="519.543,-105.283 529.992,-103.529 520.73,-98.3839 519.543,-105.283"/>
</g>
<!-- Node21 -->
<g id="node21" class="node"><title>Node21</title>
<g id="a_node21"><a xlink:href="classscram_1_1core_1_1Zbdd.xhtml#aed1eaa96df30e6eaa32e9e51427c9743" target="_top" xlink:title="scram::core::Zbdd::\lmodules">
<polygon fill="white" stroke="black" points="369,-114.574 369,-144.574 480,-144.574 480,-114.574 369,-114.574"/>
<text text-anchor="start" x="377" y="-132.574" font-family="Helvetica,sans-Serif" font-size="10.00">scram::core::Zbdd::</text>
<text text-anchor="middle" x="424.5" y="-121.574" font-family="Helvetica,sans-Serif" font-size="10.00">modules</text>
</a>
</g>
</g>
<!-- Node19&#45;&gt;Node21 -->
<g id="edge31" class="edge"><title>Node19&#45;&gt;Node21</title>
<path fill="none" stroke="midnightblue" d="M301.608,-461.967C308.247,-458.64 314.323,-454.281 319,-448.574 401.04,-348.457 277.6,-263.32 355,-159.574 357.576,-156.12 360.636,-153.058 364.01,-150.344"/>
<polygon fill="midnightblue" stroke="midnightblue" points="366.098,-153.156 372.375,-144.621 362.146,-147.379 366.098,-153.156"/>
</g>
<!-- Node22 -->
<g id="node22" class="node"><title>Node22</title>
<g id="a_node22"><a xlink:href="classscram_1_1core_1_1NonTerminal.xhtml#adeb100923176ebd5f820c75b79280796" target="_top" xlink:title="scram::core::NonTerminal\l\&lt; SetNode \&gt;::low">
<polygon fill="white" stroke="black" points="530,-52.5739 530,-82.5739 669,-82.5739 669,-52.5739 530,-52.5739"/>
<text text-anchor="start" x="538" y="-70.5739" font-family="Helvetica,sans-Serif" font-size="10.00">scram::core::NonTerminal</text>
<text text-anchor="middle" x="599.5" y="-59.5739" font-family="Helvetica,sans-Serif" font-size="10.00">&lt; SetNode &gt;::low</text>
</a>
</g>
</g>
<!-- Node19&#45;&gt;Node22 -->
<g id="edge42" class="edge"><title>Node19&#45;&gt;Node22</title>
<path fill="none" stroke="midnightblue" d="M301.737,-462.071C308.357,-458.729 314.394,-454.338 319,-448.574 369.33,-385.594 297.498,-144.082 355,-87.5739 398.505,-44.8216 469.965,-43.7882 524.249,-51.0947"/>
<polygon fill="midnightblue" stroke="midnightblue" points="523.772,-54.5623 534.174,-52.5479 524.786,-47.6361 523.772,-54.5623"/>
</g>
<!-- Node23 -->
<g id="node23" class="node"><title>Node23</title>
<g id="a_node23"><a xlink:href="classscram_1_1core_1_1NonTerminal.xhtml#af5853746ad388f479a7aa45c5d843466" target="_top" xlink:title="scram::core::NonTerminal\l\&lt; SetNode \&gt;::order">
<polygon fill="white" stroke="black" points="530,-0.573862 530,-30.5739 669,-30.5739 669,-0.573862 530,-0.573862"/>
<text text-anchor="start" x="538" y="-18.5739" font-family="Helvetica,sans-Serif" font-size="10.00">scram::core::NonTerminal</text>
<text text-anchor="middle" x="599.5" y="-7.57386" font-family="Helvetica,sans-Serif" font-size="10.00">&lt; SetNode &gt;::order</text>
</a>
</g>
</g>
<!-- Node19&#45;&gt;Node23 -->
<g id="edge45" class="edge"><title>Node19&#45;&gt;Node23</title>
<path fill="none" stroke="midnightblue" d="M301.792,-462.115C308.405,-458.767 314.424,-454.362 319,-448.574 374.898,-377.867 292.218,-109.246 355,-44.5739 396.579,-1.74306 465.658,2.8697 519.64,-1.71946"/>
<polygon fill="midnightblue" stroke="midnightblue" points="519.586,-5.23062 529.877,-2.71366 520.263,1.73661 519.586,-5.23062"/>
</g>
<!-- Node24 -->
<g id="node24" class="node"><title>Node24</title>
<g id="a_node24"><a xlink:href="classscram_1_1core_1_1NonTerminal.xhtml#a7b70ab1b978f3197458c95e0891fd79c" target="_top" xlink:title="scram::core::NonTerminal\l::mark">
<polygon fill="white" stroke="black" points="355,-240.574 355,-270.574 494,-270.574 494,-240.574 355,-240.574"/>
<text text-anchor="start" x="363" y="-258.574" font-family="Helvetica,sans-Serif" font-size="10.00">scram::core::NonTerminal</text>
<text text-anchor="middle" x="424.5" y="-247.574" font-family="Helvetica,sans-Serif" font-size="10.00">::mark</text>
</a>
</g>
</g>
<!-- Node19&#45;&gt;Node24 -->
<g id="edge43" class="edge"><title>Node19&#45;&gt;Node24</title>
<path fill="none" stroke="midnightblue" d="M301.846,-461.202C308.282,-457.985 314.238,-453.861 319,-448.574 368.652,-393.448 307.908,-342.902 355,-285.574 357.906,-282.036 361.312,-278.904 365.024,-276.132"/>
<polygon fill="midnightblue" stroke="midnightblue" points="367.058,-278.985 373.565,-270.624 363.264,-273.102 367.058,-278.985"/>
</g>
<!-- Node25 -->
<g id="node25" class="node"><title>Node25</title>
<g id="a_node25"><a xlink:href="classscram_1_1core_1_1SetNode.xhtml#a687ac81766268cd0094acbfcd7c26af0" target="_top" xlink:title="scram::core::SetNode\l::count">
<polygon fill="white" stroke="black" points="363.5,-366.574 363.5,-396.574 485.5,-396.574 485.5,-366.574 363.5,-366.574"/>
<text text-anchor="start" x="371.5" y="-384.574" font-family="Helvetica,sans-Serif" font-size="10.00">scram::core::SetNode</text>
<text text-anchor="middle" x="424.5" y="-373.574" font-family="Helvetica,sans-Serif" font-size="10.00">::count</text>
</a>
</g>
</g>
<!-- Node19&#45;&gt;Node25 -->
<g id="edge44" class="edge"><title>Node19&#45;&gt;Node25</title>
<path fill="none" stroke="midnightblue" d="M301.746,-457.447C307.763,-454.881 313.643,-451.936 319,-448.574 338.434,-436.378 336.141,-424.641 355,-411.574 360.521,-407.748 366.608,-404.244 372.807,-401.087"/>
<polygon fill="midnightblue" stroke="midnightblue" points="374.416,-404.197 381.916,-396.713 371.386,-397.887 374.416,-404.197"/>
</g>
<!-- Node21&#45;&gt;Node15 -->
<g id="edge32" class="edge"><title>Node21&#45;&gt;Node15</title>
<path fill="none" stroke="midnightblue" d="M438.884,-144.77C458.316,-166.603 495.768,-207.823 530,-240.574 543.524,-253.513 559.312,-267.2 572.321,-278.13"/>
<polygon fill="midnightblue" stroke="midnightblue" points="570.095,-280.831 580.016,-284.548 574.578,-275.455 570.095,-280.831"/>
</g>
<!-- Node21&#45;&gt;Node16 -->
<g id="edge36" class="edge"><title>Node21&#45;&gt;Node16</title>
<path fill="none" stroke="midnightblue" d="M448.069,-144.63C468.792,-158.047 500.645,-177.657 530,-191.574 534.531,-193.722 539.3,-195.804 544.124,-197.789"/>
<polygon fill="midnightblue" stroke="midnightblue" points="542.837,-201.043 553.423,-201.477 545.418,-194.536 542.837,-201.043"/>
</g>
<!-- Node21&#45;&gt;Node17 -->
<g id="edge37" class="edge"><title>Node21&#45;&gt;Node17</title>
<path fill="none" stroke="midnightblue" d="M480.238,-141.597C492.983,-144.397 506.797,-147.431 520.335,-150.405"/>
<polygon fill="midnightblue" stroke="midnightblue" points="519.608,-153.828 530.126,-152.555 521.11,-146.991 519.608,-153.828"/>
</g>
<!-- Node21&#45;&gt;Node20 -->
<g id="edge33" class="edge"><title>Node21&#45;&gt;Node20</title>
<path fill="none" stroke="midnightblue" d="M480.238,-125.777C492.781,-124.907 506.358,-123.965 519.69,-123.04"/>
<polygon fill="midnightblue" stroke="midnightblue" points="520.081,-126.522 529.815,-122.338 519.597,-119.539 520.081,-126.522"/>
</g>
<!-- Node21&#45;&gt;Node22 -->
<g id="edge34" class="edge"><title>Node21&#45;&gt;Node22</title>
<path fill="none" stroke="midnightblue" d="M467.378,-114.565C491.32,-105.985 521.541,-95.1544 546.935,-86.0539"/>
<polygon fill="midnightblue" stroke="midnightblue" points="548.175,-89.3276 556.408,-82.659 545.813,-82.738 548.175,-89.3276"/>
</g>
<!-- Node21&#45;&gt;Node23 -->
<g id="edge35" class="edge"><title>Node21&#45;&gt;Node23</title>
<path fill="none" stroke="midnightblue" d="M440.587,-114.305C459.902,-95.4293 495.067,-63.2706 530,-42.5739 534.674,-39.8047 539.684,-37.2108 544.79,-34.8103"/>
<polygon fill="midnightblue" stroke="midnightblue" points="546.315,-37.9626 554.031,-30.7023 543.472,-31.5661 546.315,-37.9626"/>
</g>
<!-- Node27&#45;&gt;Node6 -->
<g id="edge50" class="edge"><title>Node27&#45;&gt;Node6</title>
<path fill="none" stroke="midnightblue" d="M480.043,-861.052C533.307,-865.337 614.141,-863.468 669,-823.574 677.56,-817.349 736.05,-684.752 760.399,-628.965"/>
<polygon fill="midnightblue" stroke="midnightblue" points="763.61,-630.357 764.397,-619.791 757.193,-627.56 763.61,-630.357"/>
</g>
<!-- Node27&#45;&gt;Node11 -->
<g id="edge51" class="edge"><title>Node27&#45;&gt;Node11</title>
<path fill="none" stroke="midnightblue" d="M450.287,-838.387C480.476,-819.889 531.592,-788.569 565.197,-767.979"/>
<polygon fill="midnightblue" stroke="midnightblue" points="567.061,-770.942 573.759,-762.733 563.404,-764.973 567.061,-770.942"/>
</g>
</g>
</svg>
        <g id="navigator" transform="translate(0 0)" fill="#404254">
                <rect fill="#f2f5e9" fill-opacity="0.5" stroke="#606060" stroke-width=".5" x="0" y="0" width="60" height="60"/>
                <use id="zoomplus" xlink:href="#zoomPlus" x="17" y="9" onmousedown="handleZoom(evt,'in')"/>
                <use id="zoomminus" xlink:href="#zoomMin" x="42" y="9" onmousedown="handleZoom(evt,'out')"/>
                <use id="reset" xlink:href="#resetDef" x="30" y="36" onmousedown="handleReset()"/>
                <g id="arrowUp" xlink:href="#dirArrow" transform="translate(30 24)" onmousedown="handlePan(0,-1)">
                  <use xlink:href="#rim" fill="#404040">
                        <set attributeName="fill" to="#808080" begin="arrowUp.mouseover" end="arrowUp.mouseout"/>
                  </use>
                  <path fill="none" stroke="white" stroke-width="1.5" d="M0,-3.0v7 M-2.5,-0.5L0,-3.0L2.5,-0.5"/>
                </g>
                <g id="arrowRight" xlink:href="#dirArrow" transform="rotate(90) translate(36 -43)" onmousedown="handlePan(1,0)">
                  <use xlink:href="#rim" fill="#404040">
                        <set attributeName="fill" to="#808080" begin="arrowRight.mouseover" end="arrowRight.mouseout"/>
                  </use>
                  <path fill="none" stroke="white" stroke-width="1.5" d="M0,-3.0v7 M-2.5,-0.5L0,-3.0L2.5,-0.5"/>
                </g>
                <g id="arrowDown" xlink:href="#dirArrow" transform="rotate(180) translate(-30 -48)" onmousedown="handlePan(0,1)">
                  <use xlink:href="#rim" fill="#404040">
                        <set attributeName="fill" to="#808080" begin="arrowDown.mouseover" end="arrowDown.mouseout"/>
                  </use>
                  <path fill="none" stroke="white" stroke-width="1.5" d="M0,-3.0v7 M-2.5,-0.5L0,-3.0L2.5,-0.5"/>
                </g>
                <g id="arrowLeft" xlink:href="#dirArrow" transform="rotate(270) translate(-36 17)" onmousedown="handlePan(-1,0)">
                  <use xlink:href="#rim" fill="#404040">
                        <set attributeName="fill" to="#808080" begin="arrowLeft.mouseover" end="arrowLeft.mouseout"/>
                  </use>
                  <path fill="none" stroke="white" stroke-width="1.5" d="M0,-3.0v7 M-2.5,-0.5L0,-3.0L2.5,-0.5"/>
                </g>
        </g>
        <svg viewBox="0 0 15 15" width="100%" height="30px" preserveAspectRatio="xMaxYMin meet">
         <g id="arrow_out" transform="scale(0.3 0.3)">
          <a xlink:href="classscram_1_1core_1_1Zbdd_af92e04ed908364e0177ce444d7b72712_cgraph_org.svg" target="_base">
           <rect id="button" ry="5" rx="5" y="6" x="6" height="38" width="38"
                fill="#f2f5e9" fill-opacity="0.5" stroke="#606060" stroke-width="1.0"/>
           <path id="arrow"
             d="M 11.500037,31.436501 C 11.940474,20.09759 22.043105,11.32322 32.158766,21.979434 L 37.068811,17.246167 C 37.068811,17.246167 37.088388,32 37.088388,32 L 22.160133,31.978069 C 22.160133,31.978069 26.997745,27.140456 26.997745,27.140456 C 18.528582,18.264221 13.291696,25.230495 11.500037,31.436501 z"
             style="fill:#404040;"/>
          </a>
         </g>
        </svg>
</svg>
