<?xml version="1.0" encoding="UTF-8" standalone="no"?>
<!DOCTYPE svg PUBLIC "-//W3C//DTD SVG 1.1//EN"
 "http://www.w3.org/Graphics/SVG/1.1/DTD/svg11.dtd">
<!-- Generated by graphviz version 2.38.0 (20140413.2041)
 -->
<!-- Title: scram::core::Zbdd::GatherModules Pages: 1 -->
<!--zoomable 567 -->
<svg id="main" version="1.1" xmlns="http://www.w3.org/2000/svg" xmlns:xlink="http://www.w3.org/1999/xlink" xml:space="preserve" onload="init(evt)">
<style type="text/css"><![CDATA[
.edge:hover path { stroke: red; }
.edge:hover polygon { stroke: red; fill: red; }
]]></style>
<script type="text/javascript"><![CDATA[
var edges = document.getElementsByTagName('g');
if (edges && edges.length) {
  for (var i=0;i<edges.length;i++) {
    if (edges[i].id.substr(0,4)=='edge') {
      edges[i].setAttribute('class','edge');
    }
  }
}
]]></script>
        <defs>
                <circle id="rim" cx="0" cy="0" r="7"/>
                <circle id="rim2" cx="0" cy="0" r="3.5"/>
                <g id="zoomPlus">
                        <use xlink:href="#rim" fill="#404040">
                                <set attributeName="fill" to="#808080" begin="zoomplus.mouseover" end="zoomplus.mouseout"/>
                        </use>
                        <path d="M-4,0h8M0,-4v8" fill="none" stroke="white" stroke-width="1.5" pointer-events="none"/>
                </g>
                <g id="zoomMin">
                        <use xlink:href="#rim" fill="#404040">
                                <set attributeName="fill" to="#808080" begin="zoomminus.mouseover" end="zoomminus.mouseout"/>
                        </use>
                        <path d="M-4,0h8" fill="none" stroke="white" stroke-width="1.5" pointer-events="none"/>
                </g>
                <g id="dirArrow">
                        <path fill="none" stroke="white" stroke-width="1.5" d="M0,-3.0v7 M-2.5,-0.5L0,-3.0L2.5,-0.5"/>
                </g>
               <g id="resetDef">
                       <use xlink:href="#rim2" fill="#404040">
                               <set attributeName="fill" to="#808080" begin="reset.mouseover" end="reset.mouseout"/>
                       </use>
               </g>
        </defs>

<script type="text/javascript">
var viewWidth = 511;
var viewHeight = 567;
var sectionId = 'dynsection-25';
</script>
<script xlink:href="svgpan.js"/>
<svg id="graph" class="graph">
<g id="viewport">
<title>scram::core::Zbdd::GatherModules</title>
<polygon fill="white" stroke="none" points="-4,4 -4,-563 507,-563 507,4 -4,4"/>
<!-- Node1 -->
<g id="node1" class="node"><title>Node1</title>
<polygon fill="#bfbfbf" stroke="black" points="0,-267.5 0,-297.5 111,-297.5 111,-267.5 0,-267.5"/>
<text text-anchor="start" x="8" y="-285.5" font-family="Helvetica,sans-Serif" font-size="10.00">scram::core::Zbdd::</text>
<text text-anchor="middle" x="55.5" y="-274.5" font-family="Helvetica,sans-Serif" font-size="10.00">GatherModules</text>
</g>
<!-- Node2 -->
<g id="node2" class="node"><title>Node2</title>
<g id="a_node2"><a xlink:href="classscram_1_1core_1_1NonTerminal.xhtml#adcdd0c5114aa6a1d32a03928adc07c49" target="_top" xlink:title="scram::core::NonTerminal\l::coherent">
<polygon fill="white" stroke="black" points="353.5,-528.5 353.5,-558.5 492.5,-558.5 492.5,-528.5 353.5,-528.5"/>
<text text-anchor="start" x="361.5" y="-546.5" font-family="Helvetica,sans-Serif" font-size="10.00">scram::core::NonTerminal</text>
<text text-anchor="middle" x="423" y="-535.5" font-family="Helvetica,sans-Serif" font-size="10.00">::coherent</text>
</a>
</g>
</g>
<!-- Node1&#45;&gt;Node2 -->
<g id="edge1" class="edge"><title>Node1&#45;&gt;Node2</title>
<path fill="none" stroke="midnightblue" d="M57.5171,-297.685C61.1771,-339.138 77.4566,-454.722 147,-508.5 202.335,-551.291 283.479,-556.775 343.29,-553.521"/>
<polygon fill="midnightblue" stroke="midnightblue" points="343.69,-557.003 353.447,-552.874 343.245,-550.017 343.69,-557.003"/>
</g>
<!-- Node3 -->
<g id="node3" class="node"><title>Node3</title>
<g id="a_node3"><a xlink:href="classscram_1_1core_1_1SetNode.xhtml#a687ac81766268cd0094acbfcd7c26af0" target="_top" xlink:title="scram::core::SetNode\l::count">
<polygon fill="white" stroke="black" points="166,-245.5 166,-275.5 288,-275.5 288,-245.5 166,-245.5"/>
<text text-anchor="start" x="174" y="-263.5" font-family="Helvetica,sans-Serif" font-size="10.00">scram::core::SetNode</text>
<text text-anchor="middle" x="227" y="-252.5" font-family="Helvetica,sans-Serif" font-size="10.00">::count</text>
</a>
</g>
</g>
<!-- Node1&#45;&gt;Node3 -->
<g id="edge2" class="edge"><title>Node1&#45;&gt;Node3</title>
<path fill="none" stroke="midnightblue" d="M111.064,-275.418C125.296,-273.571 140.835,-271.554 155.756,-269.617"/>
<polygon fill="midnightblue" stroke="midnightblue" points="156.497,-273.051 165.963,-268.292 155.596,-266.109 156.497,-273.051"/>
</g>
<!-- Node4 -->
<g id="node4" class="node"><title>Node4</title>
<g id="a_node4"><a xlink:href="classscram_1_1core_1_1NonTerminal.xhtml#a7b184b2ba68a289aae9f3737f1d13b97" target="_top" xlink:title="scram::core::NonTerminal\l::high">
<polygon fill="white" stroke="black" points="353.5,-479.5 353.5,-509.5 492.5,-509.5 492.5,-479.5 353.5,-479.5"/>
<text text-anchor="start" x="361.5" y="-497.5" font-family="Helvetica,sans-Serif" font-size="10.00">scram::core::NonTerminal</text>
<text text-anchor="middle" x="423" y="-486.5" font-family="Helvetica,sans-Serif" font-size="10.00">::high</text>
</a>
</g>
</g>
<!-- Node1&#45;&gt;Node4 -->
<g id="edge3" class="edge"><title>Node1&#45;&gt;Node4</title>
<path fill="none" stroke="midnightblue" d="M58.3974,-297.686C64.0087,-335.441 84.2654,-433.596 147,-476.5 204.026,-515.5 284.213,-516.231 343.29,-509.456"/>
<polygon fill="midnightblue" stroke="midnightblue" points="343.829,-512.916 353.322,-508.211 342.967,-505.969 343.829,-512.916"/>
</g>
<!-- Node5 -->
<g id="node5" class="node"><title>Node5</title>
<g id="a_node5"><a xlink:href="classscram_1_1core_1_1NonTerminal.xhtml#aeeaafd82ae5890a7ec3462c68ffc8628" target="_top" xlink:title="scram::core::NonTerminal\l::index">
<polygon fill="white" stroke="black" points="353.5,-430.5 353.5,-460.5 492.5,-460.5 492.5,-430.5 353.5,-430.5"/>
<text text-anchor="start" x="361.5" y="-448.5" font-family="Helvetica,sans-Serif" font-size="10.00">scram::core::NonTerminal</text>
<text text-anchor="middle" x="423" y="-437.5" font-family="Helvetica,sans-Serif" font-size="10.00">::index</text>
</a>
</g>
</g>
<!-- Node1&#45;&gt;Node5 -->
<g id="edge4" class="edge"><title>Node1&#45;&gt;Node5</title>
<path fill="none" stroke="midnightblue" d="M59.3508,-297.617C66.7385,-331.977 90.0496,-415.587 147,-449.5 213.026,-488.817 304.722,-477.118 363.717,-463.009"/>
<polygon fill="midnightblue" stroke="midnightblue" points="364.757,-466.357 373.616,-460.545 363.067,-459.564 364.757,-466.357"/>
</g>
<!-- Node6 -->
<g id="node6" class="node"><title>Node6</title>
<g id="a_node6"><a xlink:href="classscram_1_1core_1_1Settings.xhtml#a0e43ec0f017d23a4fa4e376c4060d380" target="_top" xlink:title="scram::core::Settings\l::limit_order">
<polygon fill="white" stroke="black" points="167.5,-196.5 167.5,-226.5 286.5,-226.5 286.5,-196.5 167.5,-196.5"/>
<text text-anchor="start" x="175.5" y="-214.5" font-family="Helvetica,sans-Serif" font-size="10.00">scram::core::Settings</text>
<text text-anchor="middle" x="227" y="-203.5" font-family="Helvetica,sans-Serif" font-size="10.00">::limit_order</text>
</a>
</g>
</g>
<!-- Node1&#45;&gt;Node6 -->
<g id="edge5" class="edge"><title>Node1&#45;&gt;Node6</title>
<path fill="none" stroke="midnightblue" d="M82.425,-267.408C100.199,-257.47 124.539,-244.653 147,-235.5 151.773,-233.555 156.763,-231.683 161.815,-229.902"/>
<polygon fill="midnightblue" stroke="midnightblue" points="163.222,-233.121 171.568,-226.593 160.973,-226.492 163.222,-233.121"/>
</g>
<!-- Node7 -->
<g id="node7" class="node"><title>Node7</title>
<g id="a_node7"><a xlink:href="classscram_1_1core_1_1NonTerminal.xhtml#adeb100923176ebd5f820c75b79280796" target="_top" xlink:title="scram::core::NonTerminal::low">
<polygon fill="white" stroke="black" points="343,-391 343,-410 503,-410 503,-391 343,-391"/>
<text text-anchor="middle" x="423" y="-398" font-family="Helvetica,sans-Serif" font-size="10.00">scram::core::NonTerminal::low</text>
</a>
</g>
</g>
<!-- Node1&#45;&gt;Node7 -->
<g id="edge6" class="edge"><title>Node1&#45;&gt;Node7</title>
<path fill="none" stroke="midnightblue" d="M78.2354,-297.731C96.0011,-309.55 122.153,-325.549 147,-335.5 212.732,-361.826 291.76,-379.129 348.196,-389.214"/>
<polygon fill="midnightblue" stroke="midnightblue" points="347.656,-392.673 358.11,-390.953 348.865,-385.778 347.656,-392.673"/>
</g>
<!-- Node8 -->
<g id="node8" class="node"><title>Node8</title>
<g id="a_node8"><a xlink:href="classscram_1_1core_1_1NonTerminal.xhtml#a7b70ab1b978f3197458c95e0891fd79c" target="_top" xlink:title="scram::core::NonTerminal\l::mark">
<polygon fill="white" stroke="black" points="157.5,-147.5 157.5,-177.5 296.5,-177.5 296.5,-147.5 157.5,-147.5"/>
<text text-anchor="start" x="165.5" y="-165.5" font-family="Helvetica,sans-Serif" font-size="10.00">scram::core::NonTerminal</text>
<text text-anchor="middle" x="227" y="-154.5" font-family="Helvetica,sans-Serif" font-size="10.00">::mark</text>
</a>
</g>
</g>
<!-- Node1&#45;&gt;Node8 -->
<g id="edge7" class="edge"><title>Node1&#45;&gt;Node8</title>
<path fill="none" stroke="midnightblue" d="M66.9339,-267.177C82.1302,-246.002 112.347,-207.981 147,-186.5 149.656,-184.854 152.432,-183.314 155.288,-181.874"/>
<polygon fill="midnightblue" stroke="midnightblue" points="156.992,-184.944 164.638,-177.61 154.088,-178.575 156.992,-184.944"/>
</g>
<!-- Node9 -->
<g id="node9" class="node"><title>Node9</title>
<g id="a_node9"><a xlink:href="classscram_1_1core_1_1SetNode.xhtml#a88d05af2b9f4f08b7bc66a31c2b9e249" target="_top" xlink:title="scram::core::SetNode\l::minimal">
<polygon fill="white" stroke="black" points="166,-98.5 166,-128.5 288,-128.5 288,-98.5 166,-98.5"/>
<text text-anchor="start" x="174" y="-116.5" font-family="Helvetica,sans-Serif" font-size="10.00">scram::core::SetNode</text>
<text text-anchor="middle" x="227" y="-105.5" font-family="Helvetica,sans-Serif" font-size="10.00">::minimal</text>
</a>
</g>
</g>
<!-- Node1&#45;&gt;Node9 -->
<g id="edge8" class="edge"><title>Node1&#45;&gt;Node9</title>
<path fill="none" stroke="midnightblue" d="M61.8131,-267.266C72.8947,-237.732 101.306,-172.517 147,-137.5 150.022,-135.184 153.268,-133.09 156.658,-131.198"/>
<polygon fill="midnightblue" stroke="midnightblue" points="158.487,-134.198 165.914,-126.642 155.397,-127.917 158.487,-134.198"/>
</g>
<!-- Node10 -->
<g id="node10" class="node"><title>Node10</title>
<g id="a_node10"><a xlink:href="classscram_1_1core_1_1NonTerminal.xhtml#a9230422e92d086c34f67bcb864bfc8a9" target="_top" xlink:title="scram::core::NonTerminal\l::module">
<polygon fill="white" stroke="black" points="353.5,-340.5 353.5,-370.5 492.5,-370.5 492.5,-340.5 353.5,-340.5"/>
<text text-anchor="start" x="361.5" y="-358.5" font-family="Helvetica,sans-Serif" font-size="10.00">scram::core::NonTerminal</text>
<text text-anchor="middle" x="423" y="-347.5" font-family="Helvetica,sans-Serif" font-size="10.00">::module</text>
</a>
</g>
</g>
<!-- Node1&#45;&gt;Node10 -->
<g id="edge9" class="edge"><title>Node1&#45;&gt;Node10</title>
<path fill="none" stroke="midnightblue" d="M107.494,-297.515C120.328,-301.037 134.118,-304.604 147,-307.5 212.658,-322.263 287.996,-335.132 343.197,-343.82"/>
<polygon fill="midnightblue" stroke="midnightblue" points="342.842,-347.307 353.262,-345.393 343.923,-340.391 342.842,-347.307"/>
</g>
<!-- Node11 -->
<g id="node11" class="node"><title>Node11</title>
<g id="a_node11"><a xlink:href="classscram_1_1core_1_1Zbdd.xhtml#aed1eaa96df30e6eaa32e9e51427c9743" target="_top" xlink:title="scram::core::Zbdd::\lmodules">
<polygon fill="white" stroke="black" points="171.5,-409.5 171.5,-439.5 282.5,-439.5 282.5,-409.5 171.5,-409.5"/>
<text text-anchor="start" x="179.5" y="-427.5" font-family="Helvetica,sans-Serif" font-size="10.00">scram::core::Zbdd::</text>
<text text-anchor="middle" x="227" y="-416.5" font-family="Helvetica,sans-Serif" font-size="10.00">modules</text>
</a>
</g>
</g>
<!-- Node1&#45;&gt;Node11 -->
<g id="edge10" class="edge"><title>Node1&#45;&gt;Node11</title>
<path fill="none" stroke="midnightblue" d="M65.1103,-297.69C79.2959,-321.459 109.753,-367.51 147,-394.5 152.507,-398.491 158.611,-402.02 164.914,-405.124"/>
<polygon fill="midnightblue" stroke="midnightblue" points="163.694,-408.414 174.245,-409.371 166.594,-402.043 163.694,-408.414"/>
</g>
<!-- Node12 -->
<g id="node12" class="node"><title>Node12</title>
<g id="a_node12"><a xlink:href="classscram_1_1core_1_1NonTerminal.xhtml#af5853746ad388f479a7aa45c5d843466" target="_top" xlink:title="scram::core::NonTerminal\l\&lt; SetNode \&gt;::order">
<polygon fill="white" stroke="black" points="353.5,-289.5 353.5,-319.5 492.5,-319.5 492.5,-289.5 353.5,-289.5"/>
<text text-anchor="start" x="361.5" y="-307.5" font-family="Helvetica,sans-Serif" font-size="10.00">scram::core::NonTerminal</text>
<text text-anchor="middle" x="423" y="-296.5" font-family="Helvetica,sans-Serif" font-size="10.00">&lt; SetNode &gt;::order</text>
</a>
</g>
</g>
<!-- Node1&#45;&gt;Node12 -->
<g id="edge17" class="edge"><title>Node1&#45;&gt;Node12</title>
<path fill="none" stroke="midnightblue" d="M111.219,-285.794C172.812,-289.501 273.399,-295.555 343.393,-299.769"/>
<polygon fill="midnightblue" stroke="midnightblue" points="343.297,-303.269 353.489,-300.376 343.718,-296.282 343.297,-303.269"/>
</g>
<!-- Node13 -->
<g id="node13" class="node"><title>Node13</title>
<g id="a_node13"><a xlink:href="structscram_1_1core_1_1IntrusivePtrCast.xhtml#af153c12dc6133b7d9f9b7a57bba29f1d" target="_top" xlink:title="scram::core::IntrusivePtr\lCast\&lt; T, Terminal\&lt; T \&gt; \&gt;::Ref">
<polygon fill="white" stroke="black" points="147,-49.5 147,-79.5 307,-79.5 307,-49.5 147,-49.5"/>
<text text-anchor="start" x="155" y="-67.5" font-family="Helvetica,sans-Serif" font-size="10.00">scram::core::IntrusivePtr</text>
<text text-anchor="middle" x="227" y="-56.5" font-family="Helvetica,sans-Serif" font-size="10.00">Cast&lt; T, Terminal&lt; T &gt; &gt;::Ref</text>
</a>
</g>
</g>
<!-- Node1&#45;&gt;Node13 -->
<g id="edge18" class="edge"><title>Node1&#45;&gt;Node13</title>
<path fill="none" stroke="midnightblue" d="M58.4153,-267.427C64.4145,-231.065 85.7324,-139.599 139.249,-86.6869"/>
<polygon fill="midnightblue" stroke="midnightblue" points="141.713,-89.1744 146.653,-79.8017 136.947,-84.0482 141.713,-89.1744"/>
</g>
<!-- Node1&#45;&gt;Node13 -->
<g id="edge19" class="edge"><title>Node1&#45;&gt;Node13</title>
<path fill="none" stroke="midnightblue" d="M60.2705,-267.272C68.6485,-231.797 92.5398,-144.75 147,-97.5 154.313,-91.1556 163.265,-86.4883 172.484,-82.8896"/>
<polygon fill="midnightblue" stroke="midnightblue" points="173.855,-86.1177 182.129,-79.5006 171.534,-79.5135 173.855,-86.1177"/>
</g>
<!-- Node14 -->
<g id="node14" class="node"><title>Node14</title>
<g id="a_node14"><a xlink:href="classscram_1_1core_1_1Terminal.xhtml#a7a25b0b40498f4876571a5dac4e724c3" target="_top" xlink:title="scram::core::Terminal\l::value">
<polygon fill="white" stroke="black" points="167.5,-0.5 167.5,-30.5 286.5,-30.5 286.5,-0.5 167.5,-0.5"/>
<text text-anchor="start" x="175.5" y="-18.5" font-family="Helvetica,sans-Serif" font-size="10.00">scram::core::Terminal</text>
<text text-anchor="middle" x="227" y="-7.5" font-family="Helvetica,sans-Serif" font-size="10.00">::value</text>
</a>
</g>
</g>
<!-- Node1&#45;&gt;Node14 -->
<g id="edge20" class="edge"><title>Node1&#45;&gt;Node14</title>
<path fill="none" stroke="midnightblue" d="M57.5998,-267.453C61.5104,-225.13 78.4531,-103.951 147,-39.5 150.381,-36.3211 154.17,-33.5624 158.21,-31.1684"/>
<polygon fill="midnightblue" stroke="midnightblue" points="160.074,-34.1472 167.395,-26.4888 156.896,-27.9101 160.074,-34.1472"/>
</g>
<!-- Node11&#45;&gt;Node2 -->
<g id="edge11" class="edge"><title>Node11&#45;&gt;Node2</title>
<path fill="none" stroke="midnightblue" d="M242.211,-439.511C262.653,-460.285 302.387,-497.697 343,-519.5 346.453,-521.354 350.07,-523.086 353.776,-524.7"/>
<polygon fill="midnightblue" stroke="midnightblue" points="352.547,-527.978 363.13,-528.474 355.166,-521.487 352.547,-527.978"/>
</g>
<!-- Node11&#45;&gt;Node4 -->
<g id="edge12" class="edge"><title>Node11&#45;&gt;Node4</title>
<path fill="none" stroke="midnightblue" d="M263.445,-439.59C286.03,-448.978 316.016,-461.024 343,-470.5 348.545,-472.447 354.34,-474.386 360.163,-476.27"/>
<polygon fill="midnightblue" stroke="midnightblue" points="359.36,-479.687 369.95,-479.379 361.479,-473.016 359.36,-479.687"/>
</g>
<!-- Node11&#45;&gt;Node5 -->
<g id="edge13" class="edge"><title>Node11&#45;&gt;Node5</title>
<path fill="none" stroke="midnightblue" d="M282.556,-430.406C301.347,-432.44 322.786,-434.76 343.122,-436.962"/>
<polygon fill="midnightblue" stroke="midnightblue" points="342.998,-440.469 353.317,-438.065 343.752,-433.509 342.998,-440.469"/>
</g>
<!-- Node11&#45;&gt;Node7 -->
<g id="edge14" class="edge"><title>Node11&#45;&gt;Node7</title>
<path fill="none" stroke="midnightblue" d="M282.556,-417.751C298.763,-415.746 316.94,-413.497 334.681,-411.302"/>
<polygon fill="midnightblue" stroke="midnightblue" points="335.563,-414.72 345.057,-410.019 334.703,-407.773 335.563,-414.72"/>
</g>
<!-- Node11&#45;&gt;Node10 -->
<g id="edge15" class="edge"><title>Node11&#45;&gt;Node10</title>
<path fill="none" stroke="midnightblue" d="M266.981,-409.484C289.182,-401.043 317.561,-390.438 343,-381.5 350.28,-378.942 357.962,-376.319 365.563,-373.77"/>
<polygon fill="midnightblue" stroke="midnightblue" points="366.727,-377.071 375.109,-370.591 364.516,-370.43 366.727,-377.071"/>
</g>
<!-- Node11&#45;&gt;Node12 -->
<g id="edge16" class="edge"><title>Node11&#45;&gt;Node12</title>
<path fill="none" stroke="midnightblue" d="M243.083,-409.332C263.921,-389.114 303.443,-353.351 343,-331.5 348.412,-328.511 354.214,-325.768 360.125,-323.272"/>
<polygon fill="midnightblue" stroke="midnightblue" points="361.468,-326.505 369.464,-319.555 358.879,-320.001 361.468,-326.505"/>
</g>
<!-- Node15 -->
<g id="node15" class="node"><title>Node15</title>
<g id="a_node15"><a xlink:href="classscram_1_1core_1_1Vertex.xhtml#a8a4a6e9871c7b80b9951fea57617d438" target="_top" xlink:title="scram::core::Vertex::id">
<polygon fill="white" stroke="black" points="360.5,-6 360.5,-25 485.5,-25 485.5,-6 360.5,-6"/>
<text text-anchor="middle" x="423" y="-13" font-family="Helvetica,sans-Serif" font-size="10.00">scram::core::Vertex::id</text>
</a>
</g>
</g>
<!-- Node14&#45;&gt;Node15 -->
<g id="edge21" class="edge"><title>Node14&#45;&gt;Node15</title>
<path fill="none" stroke="midnightblue" d="M286.733,-15.5C306.763,-15.5 329.386,-15.5 350.318,-15.5"/>
<polygon fill="midnightblue" stroke="midnightblue" points="350.439,-19.0001 360.439,-15.5 350.439,-12.0001 350.439,-19.0001"/>
</g>
</g>
</svg>
        <g id="navigator" transform="translate(0 0)" fill="#404254">
                <rect fill="#f2f5e9" fill-opacity="0.5" stroke="#606060" stroke-width=".5" x="0" y="0" width="60" height="60"/>
                <use id="zoomplus" xlink:href="#zoomPlus" x="17" y="9" onmousedown="handleZoom(evt,'in')"/>
                <use id="zoomminus" xlink:href="#zoomMin" x="42" y="9" onmousedown="handleZoom(evt,'out')"/>
                <use id="reset" xlink:href="#resetDef" x="30" y="36" onmousedown="handleReset()"/>
                <g id="arrowUp" xlink:href="#dirArrow" transform="translate(30 24)" onmousedown="handlePan(0,-1)">
                  <use xlink:href="#rim" fill="#404040">
                        <set attributeName="fill" to="#808080" begin="arrowUp.mouseover" end="arrowUp.mouseout"/>
                  </use>
                  <path fill="none" stroke="white" stroke-width="1.5" d="M0,-3.0v7 M-2.5,-0.5L0,-3.0L2.5,-0.5"/>
                </g>
                <g id="arrowRight" xlink:href="#dirArrow" transform="rotate(90) translate(36 -43)" onmousedown="handlePan(1,0)">
                  <use xlink:href="#rim" fill="#404040">
                        <set attributeName="fill" to="#808080" begin="arrowRight.mouseover" end="arrowRight.mouseout"/>
                  </use>
                  <path fill="none" stroke="white" stroke-width="1.5" d="M0,-3.0v7 M-2.5,-0.5L0,-3.0L2.5,-0.5"/>
                </g>
                <g id="arrowDown" xlink:href="#dirArrow" transform="rotate(180) translate(-30 -48)" onmousedown="handlePan(0,1)">
                  <use xlink:href="#rim" fill="#404040">
                        <set attributeName="fill" to="#808080" begin="arrowDown.mouseover" end="arrowDown.mouseout"/>
                  </use>
                  <path fill="none" stroke="white" stroke-width="1.5" d="M0,-3.0v7 M-2.5,-0.5L0,-3.0L2.5,-0.5"/>
                </g>
                <g id="arrowLeft" xlink:href="#dirArrow" transform="rotate(270) translate(-36 17)" onmousedown="handlePan(-1,0)">
                  <use xlink:href="#rim" fill="#404040">
                        <set attributeName="fill" to="#808080" begin="arrowLeft.mouseover" end="arrowLeft.mouseout"/>
                  </use>
                  <path fill="none" stroke="white" stroke-width="1.5" d="M0,-3.0v7 M-2.5,-0.5L0,-3.0L2.5,-0.5"/>
                </g>
        </g>
        <svg viewBox="0 0 15 15" width="100%" height="30px" preserveAspectRatio="xMaxYMin meet">
         <g id="arrow_out" transform="scale(0.3 0.3)">
          <a xlink:href="classscram_1_1core_1_1Zbdd_a516f0d2f35ad213399f83fb9ab102561_cgraph_org.svg" target="_base">
           <rect id="button" ry="5" rx="5" y="6" x="6" height="38" width="38"
                fill="#f2f5e9" fill-opacity="0.5" stroke="#606060" stroke-width="1.0"/>
           <path id="arrow"
             d="M 11.500037,31.436501 C 11.940474,20.09759 22.043105,11.32322 32.158766,21.979434 L 37.068811,17.246167 C 37.068811,17.246167 37.088388,32 37.088388,32 L 22.160133,31.978069 C 22.160133,31.978069 26.997745,27.140456 26.997745,27.140456 C 18.528582,18.264221 13.291696,25.230495 11.500037,31.436501 z"
             style="fill:#404040;"/>
          </a>
         </g>
        </svg>
</svg>
