<?xml version="1.0" encoding="UTF-8" standalone="no"?>
<!DOCTYPE svg PUBLIC "-//W3C//DTD SVG 1.1//EN"
 "http://www.w3.org/Graphics/SVG/1.1/DTD/svg11.dtd">
<!-- Generated by graphviz version 2.38.0 (20140413.2041)
 -->
<!-- Title: scram::core::zbdd::CutSetContainer::GatherModules Pages: 1 -->
<!--zoomable 579 -->
<svg id="main" version="1.1" xmlns="http://www.w3.org/2000/svg" xmlns:xlink="http://www.w3.org/1999/xlink" xml:space="preserve" onload="init(evt)">
<style type="text/css"><![CDATA[
.edge:hover path { stroke: red; }
.edge:hover polygon { stroke: red; fill: red; }
]]></style>
<script type="text/javascript"><![CDATA[
var edges = document.getElementsByTagName('g');
if (edges && edges.length) {
  for (var i=0;i<edges.length;i++) {
    if (edges[i].id.substr(0,4)=='edge') {
      edges[i].setAttribute('class','edge');
    }
  }
}
]]></script>
        <defs>
                <circle id="rim" cx="0" cy="0" r="7"/>
                <circle id="rim2" cx="0" cy="0" r="3.5"/>
                <g id="zoomPlus">
                        <use xlink:href="#rim" fill="#404040">
                                <set attributeName="fill" to="#808080" begin="zoomplus.mouseover" end="zoomplus.mouseout"/>
                        </use>
                        <path d="M-4,0h8M0,-4v8" fill="none" stroke="white" stroke-width="1.5" pointer-events="none"/>
                </g>
                <g id="zoomMin">
                        <use xlink:href="#rim" fill="#404040">
                                <set attributeName="fill" to="#808080" begin="zoomminus.mouseover" end="zoomminus.mouseout"/>
                        </use>
                        <path d="M-4,0h8" fill="none" stroke="white" stroke-width="1.5" pointer-events="none"/>
                </g>
                <g id="dirArrow">
                        <path fill="none" stroke="white" stroke-width="1.5" d="M0,-3.0v7 M-2.5,-0.5L0,-3.0L2.5,-0.5"/>
                </g>
               <g id="resetDef">
                       <use xlink:href="#rim2" fill="#404040">
                               <set attributeName="fill" to="#808080" begin="reset.mouseover" end="reset.mouseout"/>
                       </use>
               </g>
        </defs>

<script type="text/javascript">
var viewWidth = 742;
var viewHeight = 579;
var sectionId = 'dynsection-9';
</script>
<script xlink:href="svgpan.js"/>
<svg id="graph" class="graph">
<g id="viewport">
<title>scram::core::zbdd::CutSetContainer::GatherModules</title>
<polygon fill="white" stroke="none" points="-4,4 -4,-574.982 738,-574.982 738,4 -4,4"/>
<!-- Node1 -->
<g id="node1" class="node"><title>Node1</title>
<polygon fill="#bfbfbf" stroke="black" points="0,-242.5 0,-272.5 175,-272.5 175,-242.5 0,-242.5"/>
<text text-anchor="start" x="8" y="-260.5" font-family="Helvetica,sans-Serif" font-size="10.00">scram::core::zbdd::</text>
<text text-anchor="middle" x="87.5" y="-249.5" font-family="Helvetica,sans-Serif" font-size="10.00">CutSetContainer::GatherModules</text>
</g>
<!-- Node2 -->
<g id="node2" class="node"><title>Node2</title>
<g id="a_node2"><a xlink:href="classscram_1_1core_1_1Zbdd.xhtml#a516f0d2f35ad213399f83fb9ab102561" target="_top" xlink:title="Traverses ZBDD to find modules and adjusted cut&#45;offs. ">
<polygon fill="white" stroke="black" points="221,-267.5 221,-297.5 332,-297.5 332,-267.5 221,-267.5"/>
<text text-anchor="start" x="229" y="-285.5" font-family="Helvetica,sans-Serif" font-size="10.00">scram::core::Zbdd::</text>
<text text-anchor="middle" x="276.5" y="-274.5" font-family="Helvetica,sans-Serif" font-size="10.00">GatherModules</text>
</a>
</g>
</g>
<!-- Node1&#45;&gt;Node2 -->
<g id="edge1" class="edge"><title>Node1&#45;&gt;Node2</title>
<path fill="none" stroke="midnightblue" d="M175.157,-269.085C187.202,-270.695 199.399,-272.326 210.943,-273.869"/>
<polygon fill="midnightblue" stroke="midnightblue" points="210.523,-277.344 220.899,-275.2 211.451,-270.406 210.523,-277.344"/>
</g>
<!-- Node6 -->
<g id="node6" class="node"><title>Node6</title>
<g id="a_node6"><a xlink:href="classscram_1_1core_1_1NonTerminal.xhtml#aeeaafd82ae5890a7ec3462c68ffc8628" target="_top" xlink:title="scram::core::NonTerminal\l::index">
<polygon fill="white" stroke="black" points="584.5,-529.5 584.5,-559.5 723.5,-559.5 723.5,-529.5 584.5,-529.5"/>
<text text-anchor="start" x="592.5" y="-547.5" font-family="Helvetica,sans-Serif" font-size="10.00">scram::core::NonTerminal</text>
<text text-anchor="middle" x="654" y="-536.5" font-family="Helvetica,sans-Serif" font-size="10.00">::index</text>
</a>
</g>
</g>
<!-- Node1&#45;&gt;Node6 -->
<g id="edge23" class="edge"><title>Node1&#45;&gt;Node6</title>
<path fill="none" stroke="midnightblue" d="M97.2531,-272.77C127.801,-324.3 235.609,-491.876 378,-551.5 443.764,-579.038 526.345,-572.078 583.766,-561.49"/>
<polygon fill="midnightblue" stroke="midnightblue" points="584.671,-564.88 593.827,-559.551 583.346,-558.007 584.671,-564.88"/>
</g>
<!-- Node12 -->
<g id="node12" class="node"><title>Node12</title>
<g id="a_node12"><a xlink:href="classscram_1_1core_1_1Zbdd.xhtml#aed1eaa96df30e6eaa32e9e51427c9743" target="_top" xlink:title="scram::core::Zbdd::\lmodules">
<polygon fill="white" stroke="black" points="402.5,-447.5 402.5,-477.5 513.5,-477.5 513.5,-447.5 402.5,-447.5"/>
<text text-anchor="start" x="410.5" y="-465.5" font-family="Helvetica,sans-Serif" font-size="10.00">scram::core::Zbdd::</text>
<text text-anchor="middle" x="458" y="-454.5" font-family="Helvetica,sans-Serif" font-size="10.00">modules</text>
</a>
</g>
</g>
<!-- Node1&#45;&gt;Node12 -->
<g id="edge28" class="edge"><title>Node1&#45;&gt;Node12</title>
<path fill="none" stroke="midnightblue" d="M115.597,-272.574C180.949,-308.93 347.263,-401.452 420.934,-442.436"/>
<polygon fill="midnightblue" stroke="midnightblue" points="419.423,-445.601 429.864,-447.404 422.826,-439.484 419.423,-445.601"/>
</g>
<!-- Node17 -->
<g id="node17" class="node"><title>Node17</title>
<g id="a_node17"><a xlink:href="classscram_1_1core_1_1Zbdd.xhtml#a4ecbf60e6ac51e5260e8d8139c1b8599" target="_top" xlink:title="Joins a ZBDD representing a module gate. ">
<polygon fill="white" stroke="black" points="221,-218.5 221,-248.5 332,-248.5 332,-218.5 221,-218.5"/>
<text text-anchor="start" x="229" y="-236.5" font-family="Helvetica,sans-Serif" font-size="10.00">scram::core::Zbdd::</text>
<text text-anchor="middle" x="276.5" y="-225.5" font-family="Helvetica,sans-Serif" font-size="10.00">JoinModule</text>
</a>
</g>
</g>
<!-- Node1&#45;&gt;Node17 -->
<g id="edge24" class="edge"><title>Node1&#45;&gt;Node17</title>
<path fill="none" stroke="midnightblue" d="M175.157,-246.378C187.202,-244.832 199.399,-243.267 210.943,-241.785"/>
<polygon fill="midnightblue" stroke="midnightblue" points="211.426,-245.252 220.899,-240.508 210.535,-238.309 211.426,-245.252"/>
</g>
<!-- Node18 -->
<g id="node18" class="node"><title>Node18</title>
<g id="a_node18"><a xlink:href="classscram_1_1core_1_1Zbdd.xhtml#ae819f5439416479971018ac134233091" target="_top" xlink:title="Logs properties of the Zbdd. ">
<polygon fill="white" stroke="black" points="212.5,-180 212.5,-199 340.5,-199 340.5,-180 212.5,-180"/>
<text text-anchor="middle" x="276.5" y="-187" font-family="Helvetica,sans-Serif" font-size="10.00">scram::core::Zbdd::Log</text>
</a>
</g>
</g>
<!-- Node1&#45;&gt;Node18 -->
<g id="edge27" class="edge"><title>Node1&#45;&gt;Node18</title>
<path fill="none" stroke="midnightblue" d="M123.549,-242.46C147.868,-232.278 181.132,-218.847 211,-208.5 217.448,-206.266 224.314,-204.062 231.071,-201.99"/>
<polygon fill="midnightblue" stroke="midnightblue" points="232.259,-205.288 240.832,-199.062 230.247,-198.583 232.259,-205.288"/>
</g>
<!-- Node19 -->
<g id="node19" class="node"><title>Node19</title>
<g id="a_node19"><a xlink:href="classscram_1_1core_1_1Zbdd.xhtml#aa599878612e128fa09e17d0520280dbe" target="_top" xlink:title="scram::core::Zbdd::root">
<polygon fill="white" stroke="black" points="211,-142 211,-161 342,-161 342,-142 211,-142"/>
<text text-anchor="middle" x="276.5" y="-149" font-family="Helvetica,sans-Serif" font-size="10.00">scram::core::Zbdd::root</text>
</a>
</g>
</g>
<!-- Node1&#45;&gt;Node19 -->
<g id="edge29" class="edge"><title>Node1&#45;&gt;Node19</title>
<path fill="none" stroke="midnightblue" d="M105.979,-242.21C128.733,-223.012 170.405,-190.21 211,-170.5 215.671,-168.232 220.667,-166.178 225.733,-164.333"/>
<polygon fill="midnightblue" stroke="midnightblue" points="227.138,-167.553 235.495,-161.04 224.901,-160.92 227.138,-167.553"/>
</g>
<!-- Node3 -->
<g id="node3" class="node"><title>Node3</title>
<g id="a_node3"><a xlink:href="classscram_1_1core_1_1NonTerminal.xhtml#adcdd0c5114aa6a1d32a03928adc07c49" target="_top" xlink:title="scram::core::NonTerminal\l::coherent">
<polygon fill="white" stroke="black" points="584.5,-339.5 584.5,-369.5 723.5,-369.5 723.5,-339.5 584.5,-339.5"/>
<text text-anchor="start" x="592.5" y="-357.5" font-family="Helvetica,sans-Serif" font-size="10.00">scram::core::NonTerminal</text>
<text text-anchor="middle" x="654" y="-346.5" font-family="Helvetica,sans-Serif" font-size="10.00">::coherent</text>
</a>
</g>
</g>
<!-- Node2&#45;&gt;Node3 -->
<g id="edge2" class="edge"><title>Node2&#45;&gt;Node3</title>
<path fill="none" stroke="midnightblue" d="M332.097,-296.867C346.938,-300.557 363.042,-304.366 378,-307.5 443.827,-321.293 519.151,-333.951 574.303,-342.647"/>
<polygon fill="midnightblue" stroke="midnightblue" points="573.938,-346.132 584.359,-344.224 575.022,-339.217 573.938,-346.132"/>
</g>
<!-- Node4 -->
<g id="node4" class="node"><title>Node4</title>
<g id="a_node4"><a xlink:href="classscram_1_1core_1_1SetNode.xhtml#a687ac81766268cd0094acbfcd7c26af0" target="_top" xlink:title="scram::core::SetNode\l::count">
<polygon fill="white" stroke="black" points="397,-245.5 397,-275.5 519,-275.5 519,-245.5 397,-245.5"/>
<text text-anchor="start" x="405" y="-263.5" font-family="Helvetica,sans-Serif" font-size="10.00">scram::core::SetNode</text>
<text text-anchor="middle" x="458" y="-252.5" font-family="Helvetica,sans-Serif" font-size="10.00">::count</text>
</a>
</g>
</g>
<!-- Node2&#45;&gt;Node4 -->
<g id="edge3" class="edge"><title>Node2&#45;&gt;Node4</title>
<path fill="none" stroke="midnightblue" d="M332.331,-275.78C349.556,-273.669 368.813,-271.308 386.942,-269.086"/>
<polygon fill="midnightblue" stroke="midnightblue" points="387.378,-272.559 396.878,-267.869 386.527,-265.611 387.378,-272.559"/>
</g>
<!-- Node5 -->
<g id="node5" class="node"><title>Node5</title>
<g id="a_node5"><a xlink:href="classscram_1_1core_1_1NonTerminal.xhtml#a7b184b2ba68a289aae9f3737f1d13b97" target="_top" xlink:title="scram::core::NonTerminal\l::high">
<polygon fill="white" stroke="black" points="584.5,-289.5 584.5,-319.5 723.5,-319.5 723.5,-289.5 584.5,-289.5"/>
<text text-anchor="start" x="592.5" y="-307.5" font-family="Helvetica,sans-Serif" font-size="10.00">scram::core::NonTerminal</text>
<text text-anchor="middle" x="654" y="-296.5" font-family="Helvetica,sans-Serif" font-size="10.00">::high</text>
</a>
</g>
</g>
<!-- Node2&#45;&gt;Node5 -->
<g id="edge4" class="edge"><title>Node2&#45;&gt;Node5</title>
<path fill="none" stroke="midnightblue" d="M332.101,-285.699C395.821,-289.432 501.698,-295.635 574.291,-299.889"/>
<polygon fill="midnightblue" stroke="midnightblue" points="574.117,-303.384 584.305,-300.475 574.527,-296.396 574.117,-303.384"/>
</g>
<!-- Node2&#45;&gt;Node6 -->
<g id="edge5" class="edge"><title>Node2&#45;&gt;Node6</title>
<path fill="none" stroke="midnightblue" d="M278.82,-297.506C283.451,-340.16 303.009,-462.562 378,-517.5 434.063,-558.572 514.739,-561.805 574.219,-556.873"/>
<polygon fill="midnightblue" stroke="midnightblue" points="574.684,-560.345 584.32,-555.94 574.041,-553.374 574.684,-560.345"/>
</g>
<!-- Node7 -->
<g id="node7" class="node"><title>Node7</title>
<g id="a_node7"><a xlink:href="classscram_1_1core_1_1Settings.xhtml#a0e43ec0f017d23a4fa4e376c4060d380" target="_top" xlink:title="scram::core::Settings\l::limit_order">
<polygon fill="white" stroke="black" points="398.5,-196.5 398.5,-226.5 517.5,-226.5 517.5,-196.5 398.5,-196.5"/>
<text text-anchor="start" x="406.5" y="-214.5" font-family="Helvetica,sans-Serif" font-size="10.00">scram::core::Settings</text>
<text text-anchor="middle" x="458" y="-203.5" font-family="Helvetica,sans-Serif" font-size="10.00">::limit_order</text>
</a>
</g>
</g>
<!-- Node2&#45;&gt;Node7 -->
<g id="edge6" class="edge"><title>Node2&#45;&gt;Node7</title>
<path fill="none" stroke="midnightblue" d="M319.607,-267.433C327.166,-264.376 334.895,-261.013 342,-257.5 358.809,-249.19 360.892,-243.176 378,-235.5 382.349,-233.549 386.9,-231.7 391.529,-229.959"/>
<polygon fill="midnightblue" stroke="midnightblue" points="392.858,-233.201 401.097,-226.54 390.503,-226.609 392.858,-233.201"/>
</g>
<!-- Node8 -->
<g id="node8" class="node"><title>Node8</title>
<g id="a_node8"><a xlink:href="classscram_1_1core_1_1NonTerminal.xhtml#adeb100923176ebd5f820c75b79280796" target="_top" xlink:title="scram::core::NonTerminal::low">
<polygon fill="white" stroke="black" points="574,-491 574,-510 734,-510 734,-491 574,-491"/>
<text text-anchor="middle" x="654" y="-498" font-family="Helvetica,sans-Serif" font-size="10.00">scram::core::NonTerminal::low</text>
</a>
</g>
</g>
<!-- Node2&#45;&gt;Node8 -->
<g id="edge7" class="edge"><title>Node2&#45;&gt;Node8</title>
<path fill="none" stroke="midnightblue" d="M279.693,-297.776C286.264,-337.249 309.751,-442.677 378,-487.5 446.215,-532.301 545.772,-523.122 604.515,-512.04"/>
<polygon fill="midnightblue" stroke="midnightblue" points="605.51,-515.411 614.639,-510.035 604.15,-508.545 605.51,-515.411"/>
</g>
<!-- Node9 -->
<g id="node9" class="node"><title>Node9</title>
<g id="a_node9"><a xlink:href="classscram_1_1core_1_1NonTerminal.xhtml#a7b70ab1b978f3197458c95e0891fd79c" target="_top" xlink:title="scram::core::NonTerminal\l::mark">
<polygon fill="white" stroke="black" points="388.5,-98.5 388.5,-128.5 527.5,-128.5 527.5,-98.5 388.5,-98.5"/>
<text text-anchor="start" x="396.5" y="-116.5" font-family="Helvetica,sans-Serif" font-size="10.00">scram::core::NonTerminal</text>
<text text-anchor="middle" x="458" y="-105.5" font-family="Helvetica,sans-Serif" font-size="10.00">::mark</text>
</a>
</g>
</g>
<!-- Node2&#45;&gt;Node9 -->
<g id="edge8" class="edge"><title>Node2&#45;&gt;Node9</title>
<path fill="none" stroke="midnightblue" d="M329.558,-267.444C334.153,-264.665 338.413,-261.38 342,-257.5 379.801,-216.616 338.696,-176.941 378,-137.5 379.075,-136.421 380.197,-135.391 381.36,-134.406"/>
<polygon fill="midnightblue" stroke="midnightblue" points="383.459,-137.208 389.572,-128.554 379.397,-131.507 383.459,-137.208"/>
</g>
<!-- Node10 -->
<g id="node10" class="node"><title>Node10</title>
<g id="a_node10"><a xlink:href="classscram_1_1core_1_1SetNode.xhtml#a88d05af2b9f4f08b7bc66a31c2b9e249" target="_top" xlink:title="scram::core::SetNode\l::minimal">
<polygon fill="white" stroke="black" points="397,-0.5 397,-30.5 519,-30.5 519,-0.5 397,-0.5"/>
<text text-anchor="start" x="405" y="-18.5" font-family="Helvetica,sans-Serif" font-size="10.00">scram::core::SetNode</text>
<text text-anchor="middle" x="458" y="-7.5" font-family="Helvetica,sans-Serif" font-size="10.00">::minimal</text>
</a>
</g>
</g>
<!-- Node2&#45;&gt;Node10 -->
<g id="edge9" class="edge"><title>Node2&#45;&gt;Node10</title>
<path fill="none" stroke="midnightblue" d="M330.996,-267.305C335.13,-264.56 338.895,-261.321 342,-257.5 403.927,-181.286 313.265,-113.344 378,-39.5 381.005,-36.0727 384.481,-33.1265 388.267,-30.5948"/>
<polygon fill="midnightblue" stroke="midnightblue" points="389.986,-33.6436 396.984,-25.6887 386.553,-27.5434 389.986,-33.6436"/>
</g>
<!-- Node11 -->
<g id="node11" class="node"><title>Node11</title>
<g id="a_node11"><a xlink:href="classscram_1_1core_1_1NonTerminal.xhtml#a9230422e92d086c34f67bcb864bfc8a9" target="_top" xlink:title="scram::core::NonTerminal\l::module">
<polygon fill="white" stroke="black" points="584.5,-440.5 584.5,-470.5 723.5,-470.5 723.5,-440.5 584.5,-440.5"/>
<text text-anchor="start" x="592.5" y="-458.5" font-family="Helvetica,sans-Serif" font-size="10.00">scram::core::NonTerminal</text>
<text text-anchor="middle" x="654" y="-447.5" font-family="Helvetica,sans-Serif" font-size="10.00">::module</text>
</a>
</g>
</g>
<!-- Node2&#45;&gt;Node11 -->
<g id="edge10" class="edge"><title>Node2&#45;&gt;Node11</title>
<path fill="none" stroke="midnightblue" d="M290.234,-297.651C307.937,-317.785 341.902,-353.175 378,-373.5 439.532,-408.146 517.229,-429.564 574.327,-441.781"/>
<polygon fill="midnightblue" stroke="midnightblue" points="573.877,-445.263 584.382,-443.883 575.31,-438.411 573.877,-445.263"/>
</g>
<!-- Node2&#45;&gt;Node12 -->
<g id="edge11" class="edge"><title>Node2&#45;&gt;Node12</title>
<path fill="none" stroke="midnightblue" d="M286.009,-297.581C305.449,-331.605 353.341,-412.895 378,-432.5 382.974,-436.454 388.526,-439.93 394.319,-442.974"/>
<polygon fill="midnightblue" stroke="midnightblue" points="393.04,-446.243 403.57,-447.412 396.067,-439.931 393.04,-446.243"/>
</g>
<!-- Node13 -->
<g id="node13" class="node"><title>Node13</title>
<g id="a_node13"><a xlink:href="classscram_1_1core_1_1NonTerminal.xhtml#af5853746ad388f479a7aa45c5d843466" target="_top" xlink:title="scram::core::NonTerminal\l\&lt; SetNode \&gt;::order">
<polygon fill="white" stroke="black" points="584.5,-390.5 584.5,-420.5 723.5,-420.5 723.5,-390.5 584.5,-390.5"/>
<text text-anchor="start" x="592.5" y="-408.5" font-family="Helvetica,sans-Serif" font-size="10.00">scram::core::NonTerminal</text>
<text text-anchor="middle" x="654" y="-397.5" font-family="Helvetica,sans-Serif" font-size="10.00">&lt; SetNode &gt;::order</text>
</a>
</g>
</g>
<!-- Node2&#45;&gt;Node13 -->
<g id="edge18" class="edge"><title>Node2&#45;&gt;Node13</title>
<path fill="none" stroke="midnightblue" d="M301.473,-297.571C321.345,-309.52 350.663,-325.915 378,-336.5 442.303,-361.4 518.58,-379.71 574.469,-391.187"/>
<polygon fill="midnightblue" stroke="midnightblue" points="573.813,-394.625 584.309,-393.18 575.203,-387.764 573.813,-394.625"/>
</g>
<!-- Node14 -->
<g id="node14" class="node"><title>Node14</title>
<g id="a_node14"><a xlink:href="structscram_1_1core_1_1IntrusivePtrCast.xhtml#af153c12dc6133b7d9f9b7a57bba29f1d" target="_top" xlink:title="scram::core::IntrusivePtr\lCast\&lt; T, Terminal\&lt; T \&gt; \&gt;::Ref">
<polygon fill="white" stroke="black" points="378,-49.5 378,-79.5 538,-79.5 538,-49.5 378,-49.5"/>
<text text-anchor="start" x="386" y="-67.5" font-family="Helvetica,sans-Serif" font-size="10.00">scram::core::IntrusivePtr</text>
<text text-anchor="middle" x="458" y="-56.5" font-family="Helvetica,sans-Serif" font-size="10.00">Cast&lt; T, Terminal&lt; T &gt; &gt;::Ref</text>
</a>
</g>
</g>
<!-- Node2&#45;&gt;Node14 -->
<g id="edge19" class="edge"><title>Node2&#45;&gt;Node14</title>
<path fill="none" stroke="midnightblue" d="M312.16,-267.43C323.128,-263.224 334.369,-257.46 342,-248.5 389.366,-192.883 332.188,-141.334 371.217,-87.7524"/>
<polygon fill="midnightblue" stroke="midnightblue" points="374.074,-89.7875 377.697,-79.8314 368.656,-85.355 374.074,-89.7875"/>
</g>
<!-- Node2&#45;&gt;Node14 -->
<g id="edge20" class="edge"><title>Node2&#45;&gt;Node14</title>
<path fill="none" stroke="midnightblue" d="M332.022,-275.316C335.723,-272.81 339.119,-269.883 342,-266.5 391.793,-208.034 326.055,-154.063 378,-97.5 383.583,-91.4203 390.652,-86.8614 398.256,-83.3443"/>
<polygon fill="midnightblue" stroke="midnightblue" points="399.757,-86.5134 407.732,-79.5387 397.148,-80.0176 399.757,-86.5134"/>
</g>
<!-- Node15 -->
<g id="node15" class="node"><title>Node15</title>
<g id="a_node15"><a xlink:href="classscram_1_1core_1_1Terminal.xhtml#a7a25b0b40498f4876571a5dac4e724c3" target="_top" xlink:title="scram::core::Terminal\l::value">
<polygon fill="white" stroke="black" points="398.5,-147.5 398.5,-177.5 517.5,-177.5 517.5,-147.5 398.5,-147.5"/>
<text text-anchor="start" x="406.5" y="-165.5" font-family="Helvetica,sans-Serif" font-size="10.00">scram::core::Terminal</text>
<text text-anchor="middle" x="458" y="-154.5" font-family="Helvetica,sans-Serif" font-size="10.00">::value</text>
</a>
</g>
</g>
<!-- Node2&#45;&gt;Node15 -->
<g id="edge21" class="edge"><title>Node2&#45;&gt;Node15</title>
<path fill="none" stroke="midnightblue" d="M327.583,-267.468C332.787,-264.665 337.726,-261.368 342,-257.5 368.231,-233.757 350.9,-209.245 378,-186.5 381.335,-183.701 384.991,-181.228 388.844,-179.044"/>
<polygon fill="midnightblue" stroke="midnightblue" points="390.722,-182.02 398.137,-174.452 387.621,-175.744 390.722,-182.02"/>
</g>
<!-- Node12&#45;&gt;Node3 -->
<g id="edge12" class="edge"><title>Node12&#45;&gt;Node3</title>
<path fill="none" stroke="midnightblue" d="M476.624,-447.331C498.3,-429.312 536.81,-399.33 574,-380.5 579.199,-377.868 584.722,-375.419 590.338,-373.162"/>
<polygon fill="midnightblue" stroke="midnightblue" points="591.737,-376.374 599.837,-369.545 589.246,-369.833 591.737,-376.374"/>
</g>
<!-- Node12&#45;&gt;Node5 -->
<g id="edge13" class="edge"><title>Node12&#45;&gt;Node5</title>
<path fill="none" stroke="midnightblue" d="M468.058,-447.331C485.255,-419.814 525.301,-361.557 574,-329.5 577.128,-327.441 580.437,-325.542 583.857,-323.792"/>
<polygon fill="midnightblue" stroke="midnightblue" points="585.52,-326.879 593.124,-319.501 582.579,-320.527 585.52,-326.879"/>
</g>
<!-- Node12&#45;&gt;Node6 -->
<g id="edge14" class="edge"><title>Node12&#45;&gt;Node6</title>
<path fill="none" stroke="midnightblue" d="M486.338,-477.541C509.302,-489.81 543.208,-507.082 574,-519.5 579.779,-521.83 585.863,-524.088 591.985,-526.23"/>
<polygon fill="midnightblue" stroke="midnightblue" points="591.002,-529.593 601.597,-529.496 593.254,-522.965 591.002,-529.593"/>
</g>
<!-- Node12&#45;&gt;Node8 -->
<g id="edge15" class="edge"><title>Node12&#45;&gt;Node8</title>
<path fill="none" stroke="midnightblue" d="M513.556,-473.186C538.785,-478.128 568.786,-484.004 594.485,-489.038"/>
<polygon fill="midnightblue" stroke="midnightblue" points="593.985,-492.507 604.471,-490.994 595.33,-485.637 593.985,-492.507"/>
</g>
<!-- Node12&#45;&gt;Node11 -->
<g id="edge16" class="edge"><title>Node12&#45;&gt;Node11</title>
<path fill="none" stroke="midnightblue" d="M513.556,-460.531C532.347,-459.853 553.786,-459.08 574.122,-458.346"/>
<polygon fill="midnightblue" stroke="midnightblue" points="574.45,-461.837 584.317,-457.978 574.197,-454.841 574.45,-461.837"/>
</g>
<!-- Node12&#45;&gt;Node13 -->
<g id="edge17" class="edge"><title>Node12&#45;&gt;Node13</title>
<path fill="none" stroke="midnightblue" d="M510.225,-447.449C535.31,-440.079 565.693,-431.152 591.973,-423.431"/>
<polygon fill="midnightblue" stroke="midnightblue" points="593.217,-426.713 601.825,-420.536 591.243,-419.997 593.217,-426.713"/>
</g>
<!-- Node16 -->
<g id="node16" class="node"><title>Node16</title>
<g id="a_node16"><a xlink:href="classscram_1_1core_1_1Vertex.xhtml#a8a4a6e9871c7b80b9951fea57617d438" target="_top" xlink:title="scram::core::Vertex::id">
<polygon fill="white" stroke="black" points="591.5,-153 591.5,-172 716.5,-172 716.5,-153 591.5,-153"/>
<text text-anchor="middle" x="654" y="-160" font-family="Helvetica,sans-Serif" font-size="10.00">scram::core::Vertex::id</text>
</a>
</g>
</g>
<!-- Node15&#45;&gt;Node16 -->
<g id="edge22" class="edge"><title>Node15&#45;&gt;Node16</title>
<path fill="none" stroke="midnightblue" d="M517.733,-162.5C537.763,-162.5 560.386,-162.5 581.318,-162.5"/>
<polygon fill="midnightblue" stroke="midnightblue" points="581.439,-166 591.439,-162.5 581.439,-159 581.439,-166"/>
</g>
<!-- Node17&#45;&gt;Node10 -->
<g id="edge25" class="edge"><title>Node17&#45;&gt;Node10</title>
<path fill="none" stroke="midnightblue" d="M330.505,-218.348C334.796,-215.593 338.73,-212.34 342,-208.5 391.793,-150.034 326.055,-96.0628 378,-39.5 380.945,-36.2931 384.303,-33.5094 387.936,-31.0935"/>
<polygon fill="midnightblue" stroke="midnightblue" points="389.832,-34.0427 396.842,-26.098 386.408,-27.9375 389.832,-34.0427"/>
</g>
<!-- Node17&#45;&gt;Node14 -->
<g id="edge26" class="edge"><title>Node17&#45;&gt;Node14</title>
<path fill="none" stroke="midnightblue" d="M329.558,-218.444C334.153,-215.665 338.413,-212.38 342,-208.5 379.801,-167.616 338.696,-127.941 378,-88.5 379.075,-87.4212 380.197,-86.3906 381.36,-85.4061"/>
<polygon fill="midnightblue" stroke="midnightblue" points="383.459,-88.208 389.572,-79.5542 379.397,-82.5074 383.459,-88.208"/>
</g>
</g>
</svg>
        <g id="navigator" transform="translate(0 0)" fill="#404254">
                <rect fill="#f2f5e9" fill-opacity="0.5" stroke="#606060" stroke-width=".5" x="0" y="0" width="60" height="60"/>
                <use id="zoomplus" xlink:href="#zoomPlus" x="17" y="9" onmousedown="handleZoom(evt,'in')"/>
                <use id="zoomminus" xlink:href="#zoomMin" x="42" y="9" onmousedown="handleZoom(evt,'out')"/>
                <use id="reset" xlink:href="#resetDef" x="30" y="36" onmousedown="handleReset()"/>
                <g id="arrowUp" xlink:href="#dirArrow" transform="translate(30 24)" onmousedown="handlePan(0,-1)">
                  <use xlink:href="#rim" fill="#404040">
                        <set attributeName="fill" to="#808080" begin="arrowUp.mouseover" end="arrowUp.mouseout"/>
                  </use>
                  <path fill="none" stroke="white" stroke-width="1.5" d="M0,-3.0v7 M-2.5,-0.5L0,-3.0L2.5,-0.5"/>
                </g>
                <g id="arrowRight" xlink:href="#dirArrow" transform="rotate(90) translate(36 -43)" onmousedown="handlePan(1,0)">
                  <use xlink:href="#rim" fill="#404040">
                        <set attributeName="fill" to="#808080" begin="arrowRight.mouseover" end="arrowRight.mouseout"/>
                  </use>
                  <path fill="none" stroke="white" stroke-width="1.5" d="M0,-3.0v7 M-2.5,-0.5L0,-3.0L2.5,-0.5"/>
                </g>
                <g id="arrowDown" xlink:href="#dirArrow" transform="rotate(180) translate(-30 -48)" onmousedown="handlePan(0,1)">
                  <use xlink:href="#rim" fill="#404040">
                        <set attributeName="fill" to="#808080" begin="arrowDown.mouseover" end="arrowDown.mouseout"/>
                  </use>
                  <path fill="none" stroke="white" stroke-width="1.5" d="M0,-3.0v7 M-2.5,-0.5L0,-3.0L2.5,-0.5"/>
                </g>
                <g id="arrowLeft" xlink:href="#dirArrow" transform="rotate(270) translate(-36 17)" onmousedown="handlePan(-1,0)">
                  <use xlink:href="#rim" fill="#404040">
                        <set attributeName="fill" to="#808080" begin="arrowLeft.mouseover" end="arrowLeft.mouseout"/>
                  </use>
                  <path fill="none" stroke="white" stroke-width="1.5" d="M0,-3.0v7 M-2.5,-0.5L0,-3.0L2.5,-0.5"/>
                </g>
        </g>
        <svg viewBox="0 0 15 15" width="100%" height="30px" preserveAspectRatio="xMaxYMin meet">
         <g id="arrow_out" transform="scale(0.3 0.3)">
          <a xlink:href="classscram_1_1core_1_1zbdd_1_1CutSetContainer_a478c89f64731781882b50ec55898900b_cgraph_org.svg" target="_base">
           <rect id="button" ry="5" rx="5" y="6" x="6" height="38" width="38"
                fill="#f2f5e9" fill-opacity="0.5" stroke="#606060" stroke-width="1.0"/>
           <path id="arrow"
             d="M 11.500037,31.436501 C 11.940474,20.09759 22.043105,11.32322 32.158766,21.979434 L 37.068811,17.246167 C 37.068811,17.246167 37.088388,32 37.088388,32 L 22.160133,31.978069 C 22.160133,31.978069 26.997745,27.140456 26.997745,27.140456 C 18.528582,18.264221 13.291696,25.230495 11.500037,31.436501 z"
             style="fill:#404040;"/>
          </a>
         </g>
        </svg>
</svg>
