<?xml version="1.0" encoding="UTF-8" standalone="no"?>
<!DOCTYPE svg PUBLIC "-//W3C//DTD SVG 1.1//EN"
 "http://www.w3.org/Graphics/SVG/1.1/DTD/svg11.dtd">
<!-- Generated by graphviz version 2.38.0 (20140413.2041)
 -->
<!-- Title: scram::mef::BetaDeviate::interval Pages: 1 -->
<svg width="351pt" height="78pt"
 viewBox="0.00 0.00 351.00 77.50" xmlns="http://www.w3.org/2000/svg" xmlns:xlink="http://www.w3.org/1999/xlink">
<g id="graph0" class="graph" transform="scale(1 1) rotate(0) translate(4 73.5)">
<title>scram::mef::BetaDeviate::interval</title>
<polygon fill="white" stroke="none" points="-4,4 -4,-73.5 347,-73.5 347,4 -4,4"/>
<!-- Node1 -->
<g id="node1" class="node"><title>Node1</title>
<polygon fill="#bfbfbf" stroke="black" points="0,-22.5 0,-52.5 137,-52.5 137,-22.5 0,-22.5"/>
<text text-anchor="start" x="8" y="-40.5" font-family="Helvetica,sans-Serif" font-size="10.00">scram::mef::BetaDeviate</text>
<text text-anchor="middle" x="68.5" y="-29.5" font-family="Helvetica,sans-Serif" font-size="10.00">::interval</text>
</g>
<!-- Node2 -->
<g id="node2" class="node"><title>Node2</title>
<g id="a_node2"><a xlink:href="classscram_1_1Random.xhtml#a0c493e04d7d5b75b4a5a6aeed776d799" target="_top" xlink:title="RNG from a Beta distribution. ">
<polygon fill="white" stroke="black" points="173,-50 173,-69 343,-69 343,-50 173,-50"/>
<text text-anchor="middle" x="258" y="-57" font-family="Helvetica,sans-Serif" font-size="10.00">scram::Random::BetaGenerator</text>
</a>
</g>
</g>
<!-- Node1&#45;&gt;Node2 -->
<g id="edge1" class="edge"><title>Node1&#45;&gt;Node2</title>
<path fill="none" stroke="midnightblue" d="M137.192,-45.4425C146.534,-46.5387 156.252,-47.6788 165.931,-48.8145"/>
<polygon fill="midnightblue" stroke="midnightblue" points="165.647,-52.3051 175.986,-49.9944 166.463,-45.3528 165.647,-52.3051"/>
</g>
<!-- Node3 -->
<g id="node3" class="node"><title>Node3</title>
<g id="a_node3"><a xlink:href="classscram_1_1mef_1_1Expression.xhtml#af4c1a5cb29e8f45623a99742b7ba8bc5" target="_top" xlink:title="scram::mef::Expression\l::value">
<polygon fill="white" stroke="black" points="193.5,-0.5 193.5,-30.5 322.5,-30.5 322.5,-0.5 193.5,-0.5"/>
<text text-anchor="start" x="201.5" y="-18.5" font-family="Helvetica,sans-Serif" font-size="10.00">scram::mef::Expression</text>
<text text-anchor="middle" x="258" y="-7.5" font-family="Helvetica,sans-Serif" font-size="10.00">::value</text>
</a>
</g>
</g>
<!-- Node1&#45;&gt;Node3 -->
<g id="edge2" class="edge"><title>Node1&#45;&gt;Node3</title>
<path fill="none" stroke="midnightblue" d="M137.192,-29.5575C152.107,-27.8075 167.978,-25.9453 183.123,-24.1682"/>
<polygon fill="midnightblue" stroke="midnightblue" points="183.948,-27.5955 193.472,-22.954 183.132,-20.6432 183.948,-27.5955"/>
</g>
</g>
</svg>
