<?xml version="1.0" encoding="UTF-8" standalone="no"?>
<!DOCTYPE svg PUBLIC "-//W3C//DTD SVG 1.1//EN"
 "http://www.w3.org/Graphics/SVG/1.1/DTD/svg11.dtd">
<!-- Generated by graphviz version 2.38.0 (20140413.2041)
 -->
<!-- Title: scram::mef::Element::name Pages: 1 -->
<svg width="876pt" height="1295pt"
 viewBox="0.00 0.00 876.00 1295.03" xmlns="http://www.w3.org/2000/svg" xmlns:xlink="http://www.w3.org/1999/xlink">
<g id="graph0" class="graph" transform="scale(1 1) rotate(0) translate(4 1291.03)">
<title>scram::mef::Element::name</title>
<polygon fill="white" stroke="none" points="-4,4 -4,-1291.03 872,-1291.03 872,4 -4,4"/>
<!-- Node1 -->
<g id="node1" class="node"><title>Node1</title>
<polygon fill="#bfbfbf" stroke="black" points="0,-596.5 0,-626.5 117,-626.5 117,-596.5 0,-596.5"/>
<text text-anchor="start" x="8" y="-614.5" font-family="Helvetica,sans-Serif" font-size="10.00">scram::mef::Element</text>
<text text-anchor="middle" x="58.5" y="-603.5" font-family="Helvetica,sans-Serif" font-size="10.00">::name</text>
</g>
<!-- Node2 -->
<g id="node2" class="node"><title>Node2</title>
<g id="a_node2"><a xlink:href="classscram_1_1mef_1_1Component.xhtml#a4fd4a9b195b92c8061149da20f5bd3f0" target="_top" xlink:title="Adds MEF constructs into this component container. ">
<polygon fill="white" stroke="black" points="559,-1220 559,-1239 717,-1239 717,-1220 559,-1220"/>
<text text-anchor="middle" x="638" y="-1227" font-family="Helvetica,sans-Serif" font-size="10.00">scram::mef::Component::Add</text>
</a>
</g>
</g>
<!-- Node1&#45;&gt;Node2 -->
<g id="edge1" class="edge"><title>Node1&#45;&gt;Node2</title>
<path fill="none" stroke="midnightblue" d="M59.2681,-636.906C58.8914,-742.309 63.4394,-1143.33 153,-1221.5 287.541,-1338.93 532.213,-1266.92 611.479,-1239.06"/>
<polygon fill="midnightblue" stroke="midnightblue" points="62.7697,-636.61 59.325,-626.591 55.7698,-636.572 62.7697,-636.61"/>
</g>
<!-- Node3 -->
<g id="node3" class="node"><title>Node3</title>
<g id="a_node3"><a xlink:href="classscram_1_1mef_1_1CcfGroup.xhtml#ac5ff8673a8ebbecee6a645671d5ae063" target="_top" xlink:title="Adds the distribution that describes the probability of basic events in this CCF group. ">
<polygon fill="white" stroke="black" points="174.5,-841.5 174.5,-871.5 296.5,-871.5 296.5,-841.5 174.5,-841.5"/>
<text text-anchor="start" x="182.5" y="-859.5" font-family="Helvetica,sans-Serif" font-size="10.00">scram::mef::CcfGroup</text>
<text text-anchor="middle" x="235.5" y="-848.5" font-family="Helvetica,sans-Serif" font-size="10.00">::AddDistribution</text>
</a>
</g>
</g>
<!-- Node1&#45;&gt;Node3 -->
<g id="edge2" class="edge"><title>Node1&#45;&gt;Node3</title>
<path fill="none" stroke="midnightblue" d="M63.0176,-636.637C70.7593,-682.402 93.57,-779.479 153,-832.5 159.164,-837.999 166.531,-842.241 174.279,-845.512"/>
<polygon fill="midnightblue" stroke="midnightblue" points="66.4598,-635.996 61.4351,-626.669 59.5464,-637.094 66.4598,-635.996"/>
</g>
<!-- Node5 -->
<g id="node5" class="node"><title>Node5</title>
<g id="a_node5"><a xlink:href="classscram_1_1mef_1_1CcfGroup.xhtml#ab6ec2054de2a2d97fce880af77a05066" target="_top" xlink:title="Adds a CCF factor for the specified model. ">
<polygon fill="white" stroke="black" points="174.5,-743.5 174.5,-773.5 296.5,-773.5 296.5,-743.5 174.5,-743.5"/>
<text text-anchor="start" x="182.5" y="-761.5" font-family="Helvetica,sans-Serif" font-size="10.00">scram::mef::CcfGroup</text>
<text text-anchor="middle" x="235.5" y="-750.5" font-family="Helvetica,sans-Serif" font-size="10.00">::AddFactor</text>
</a>
</g>
</g>
<!-- Node1&#45;&gt;Node5 -->
<g id="edge4" class="edge"><title>Node1&#45;&gt;Node5</title>
<path fill="none" stroke="midnightblue" d="M71.8504,-635.957C87.1676,-663.851 115.862,-708.895 153,-734.5 159.436,-738.937 166.701,-742.566 174.174,-745.531"/>
<polygon fill="midnightblue" stroke="midnightblue" points="74.7947,-634.04 66.9985,-626.866 68.6192,-637.336 74.7947,-634.04"/>
</g>
<!-- Node7 -->
<g id="node7" class="node"><title>Node7</title>
<g id="a_node7"><a xlink:href="classscram_1_1mef_1_1CcfGroup.xhtml#a9d6dbf5a3154a1537a806e7f3993c710" target="_top" xlink:title="Adds a basic event into this CCF group. ">
<polygon fill="white" stroke="black" points="174.5,-792.5 174.5,-822.5 296.5,-822.5 296.5,-792.5 174.5,-792.5"/>
<text text-anchor="start" x="182.5" y="-810.5" font-family="Helvetica,sans-Serif" font-size="10.00">scram::mef::CcfGroup</text>
<text text-anchor="middle" x="235.5" y="-799.5" font-family="Helvetica,sans-Serif" font-size="10.00">::AddMember</text>
</a>
</g>
</g>
<!-- Node1&#45;&gt;Node7 -->
<g id="edge6" class="edge"><title>Node1&#45;&gt;Node7</title>
<path fill="none" stroke="midnightblue" d="M66.2928,-636.342C77.8212,-673.814 104.792,-744.546 153,-783.5 159.31,-788.599 166.67,-792.614 174.339,-795.777"/>
<polygon fill="midnightblue" stroke="midnightblue" points="69.6367,-635.307 63.4459,-626.709 62.9237,-637.291 69.6367,-635.307"/>
</g>
<!-- Node8 -->
<g id="node8" class="node"><title>Node8</title>
<g id="a_node8"><a xlink:href="classscram_1_1core_1_1EventTreeAnalysis.xhtml#a070c68c0d67edb30c9bf57e226aaf88e" target="_top" xlink:title="Analyzes an event tree given the initiating event. ">
<polygon fill="white" stroke="black" points="153,-694.5 153,-724.5 318,-724.5 318,-694.5 153,-694.5"/>
<text text-anchor="start" x="161" y="-712.5" font-family="Helvetica,sans-Serif" font-size="10.00">scram::core::EventTreeAnalysis</text>
<text text-anchor="middle" x="235.5" y="-701.5" font-family="Helvetica,sans-Serif" font-size="10.00">::Analyze</text>
</a>
</g>
</g>
<!-- Node1&#45;&gt;Node8 -->
<g id="edge8" class="edge"><title>Node1&#45;&gt;Node8</title>
<path fill="none" stroke="midnightblue" d="M82.3482,-633.741C100.272,-650.103 126.539,-671.793 153,-685.5 159.549,-688.892 166.648,-691.875 173.834,-694.478"/>
<polygon fill="midnightblue" stroke="midnightblue" points="84.4328,-630.9 74.7291,-626.647 79.6625,-636.023 84.4328,-630.9"/>
</g>
<!-- Node9 -->
<g id="node9" class="node"><title>Node9</title>
<g id="a_node9"><a xlink:href="classscram_1_1core_1_1RiskAnalysis.xhtml#a7aed757ac5a7a96878c2706a7a9710bb" target="_top" xlink:title="Analyzes the model and performs computations specified in the settings. ">
<polygon fill="white" stroke="black" points="167,-929.5 167,-959.5 304,-959.5 304,-929.5 167,-929.5"/>
<text text-anchor="start" x="175" y="-947.5" font-family="Helvetica,sans-Serif" font-size="10.00">scram::core::RiskAnalysis</text>
<text text-anchor="middle" x="235.5" y="-936.5" font-family="Helvetica,sans-Serif" font-size="10.00">::Analyze</text>
</a>
</g>
</g>
<!-- Node1&#45;&gt;Node9 -->
<g id="edge9" class="edge"><title>Node1&#45;&gt;Node9</title>
<path fill="none" stroke="midnightblue" d="M59.6097,-636.99C61.2769,-695.388 73.6746,-839.944 153,-919.5 157.075,-923.587 161.801,-927.01 166.883,-929.874"/>
<polygon fill="midnightblue" stroke="midnightblue" points="63.1055,-636.74 59.406,-626.812 56.1069,-636.881 63.1055,-636.74"/>
</g>
<!-- Node11 -->
<g id="node11" class="node"><title>Node11</title>
<g id="a_node11"><a xlink:href="reporter_8cc.xhtml#ad6460094a94fb73e56c2a4a5efc598ed" target="_top" xlink:title="Describes all performed analyses deduced from settings. ">
<polygon fill="white" stroke="black" points="551,-973.5 551,-1003.5 725,-1003.5 725,-973.5 551,-973.5"/>
<text text-anchor="start" x="559" y="-991.5" font-family="Helvetica,sans-Serif" font-size="10.00">scram::ReportCalculatedQuantity</text>
<text text-anchor="middle" x="638" y="-980.5" font-family="Helvetica,sans-Serif" font-size="10.00">&lt; core::RiskAnalysis &gt;</text>
</a>
</g>
</g>
<!-- Node1&#45;&gt;Node11 -->
<g id="edge37" class="edge"><title>Node1&#45;&gt;Node11</title>
<path fill="none" stroke="midnightblue" d="M62.2949,-637.195C71.0028,-712.011 100.267,-927.093 153,-969.5 212.142,-1017.06 428.498,-1007 550.97,-996.927"/>
<polygon fill="midnightblue" stroke="midnightblue" points="65.7232,-636.365 61.116,-626.824 58.768,-637.155 65.7232,-636.365"/>
</g>
<!-- Node12 -->
<g id="node12" class="node"><title>Node12</title>
<g id="a_node12"><a xlink:href="classscram_1_1mef_1_1CcfGroup.xhtml#ab399c5ed0c1d7d0a316ac3b7244b7eb9" target="_top" xlink:title="Processes the given factors and members to create common cause failure probabilities and new events t...">
<polygon fill="white" stroke="black" points="577,-1148.5 577,-1178.5 699,-1178.5 699,-1148.5 577,-1148.5"/>
<text text-anchor="start" x="585" y="-1166.5" font-family="Helvetica,sans-Serif" font-size="10.00">scram::mef::CcfGroup</text>
<text text-anchor="middle" x="638" y="-1155.5" font-family="Helvetica,sans-Serif" font-size="10.00">::ApplyModel</text>
</a>
</g>
</g>
<!-- Node1&#45;&gt;Node12 -->
<g id="edge12" class="edge"><title>Node1&#45;&gt;Node12</title>
<path fill="none" stroke="midnightblue" d="M60.3953,-636.786C64.2172,-729.109 82.3605,-1046.02 153,-1111.5 213.199,-1167.3 460.71,-1168.36 576.612,-1165.62"/>
<polygon fill="midnightblue" stroke="midnightblue" points="63.888,-636.527 59.9977,-626.672 56.8934,-636.802 63.888,-636.527"/>
</g>
<!-- Node13 -->
<g id="node13" class="node"><title>Node13</title>
<g id="a_node13"><a xlink:href="classscram_1_1mef_1_1Initializer.xhtml#a23644918c97ad60b587532ee6533287d" target="_top" xlink:title="Specializations for elements defined after registration. ">
<polygon fill="white" stroke="black" points="176,-645.5 176,-675.5 295,-675.5 295,-645.5 176,-645.5"/>
<text text-anchor="start" x="184" y="-663.5" font-family="Helvetica,sans-Serif" font-size="10.00">scram::mef::Initializer</text>
<text text-anchor="middle" x="235.5" y="-652.5" font-family="Helvetica,sans-Serif" font-size="10.00">::Define</text>
</a>
</g>
</g>
<!-- Node1&#45;&gt;Node13 -->
<g id="edge13" class="edge"><title>Node1&#45;&gt;Node13</title>
<path fill="none" stroke="midnightblue" d="M123.147,-629.321C142.042,-634.612 162.543,-640.352 180.744,-645.448"/>
<polygon fill="midnightblue" stroke="midnightblue" points="124.007,-625.927 113.434,-626.601 122.12,-632.668 124.007,-625.927"/>
</g>
<!-- Node14 -->
<g id="node14" class="node"><title>Node14</title>
<g id="a_node14"><a xlink:href="classscram_1_1mef_1_1Element.xhtml#a006e56dfae6a5a3bb91f1a4644ed59fa" target="_top" xlink:title="Constructs an element with an original name. ">
<polygon fill="white" stroke="black" points="177,-596.5 177,-626.5 294,-626.5 294,-596.5 177,-596.5"/>
<text text-anchor="start" x="185" y="-614.5" font-family="Helvetica,sans-Serif" font-size="10.00">scram::mef::Element</text>
<text text-anchor="middle" x="235.5" y="-603.5" font-family="Helvetica,sans-Serif" font-size="10.00">::Element</text>
</a>
</g>
</g>
<!-- Node1&#45;&gt;Node14 -->
<g id="edge14" class="edge"><title>Node1&#45;&gt;Node14</title>
<path fill="none" stroke="midnightblue" d="M127.311,-611.5C143.647,-611.5 160.948,-611.5 176.774,-611.5"/>
<polygon fill="midnightblue" stroke="midnightblue" points="127.287,-608 117.287,-611.5 127.287,-615 127.287,-608"/>
</g>
<!-- Node15 -->
<g id="node15" class="node"><title>Node15</title>
<g id="a_node15"><a xlink:href="classscram_1_1core_1_1EventTreeAnalysis.xhtml#a3e3404417cbdcf92474e5653ec24f936" target="_top" xlink:title="scram::core::EventTreeAnalysis\l::EventTreeAnalysis">
<polygon fill="white" stroke="black" points="153,-547.5 153,-577.5 318,-577.5 318,-547.5 153,-547.5"/>
<text text-anchor="start" x="161" y="-565.5" font-family="Helvetica,sans-Serif" font-size="10.00">scram::core::EventTreeAnalysis</text>
<text text-anchor="middle" x="235.5" y="-554.5" font-family="Helvetica,sans-Serif" font-size="10.00">::EventTreeAnalysis</text>
</a>
</g>
</g>
<!-- Node1&#45;&gt;Node15 -->
<g id="edge15" class="edge"><title>Node1&#45;&gt;Node15</title>
<path fill="none" stroke="midnightblue" d="M123.147,-593.679C142.042,-588.388 162.543,-582.648 180.744,-577.552"/>
<polygon fill="midnightblue" stroke="midnightblue" points="122.12,-590.332 113.434,-596.399 124.007,-597.073 122.12,-590.332"/>
</g>
<!-- Node16 -->
<g id="node16" class="node"><title>Node16</title>
<g id="a_node16"><a xlink:href="classscram_1_1mef_1_1Fork.xhtml#a2f4a542f37c3874891f1fd5a2796b1b1" target="_top" xlink:title="scram::mef::Fork::Fork">
<polygon fill="white" stroke="black" points="173.5,-509 173.5,-528 297.5,-528 297.5,-509 173.5,-509"/>
<text text-anchor="middle" x="235.5" y="-516" font-family="Helvetica,sans-Serif" font-size="10.00">scram::mef::Fork::Fork</text>
</a>
</g>
</g>
<!-- Node1&#45;&gt;Node16 -->
<g id="edge16" class="edge"><title>Node1&#45;&gt;Node16</title>
<path fill="none" stroke="midnightblue" d="M82.2271,-589.226C100.088,-572.912 126.328,-551.442 153,-538.5 161.913,-534.175 171.841,-530.737 181.617,-528.019"/>
<polygon fill="midnightblue" stroke="midnightblue" points="79.5603,-586.928 74.639,-596.31 84.3372,-592.044 79.5603,-586.928"/>
</g>
<!-- Node17 -->
<g id="node17" class="node"><title>Node17</title>
<g id="a_node17"><a xlink:href="classscram_1_1mef_1_1Component.xhtml#a63441da08667fe6826f3ae0c0a5a94fe" target="_top" xlink:title="Recursively traverses components to gather gates relevant to the whole component. ...">
<polygon fill="white" stroke="black" points="168.5,-421.5 168.5,-451.5 302.5,-451.5 302.5,-421.5 168.5,-421.5"/>
<text text-anchor="start" x="176.5" y="-439.5" font-family="Helvetica,sans-Serif" font-size="10.00">scram::mef::Component</text>
<text text-anchor="middle" x="235.5" y="-428.5" font-family="Helvetica,sans-Serif" font-size="10.00">::GatherGates</text>
</a>
</g>
</g>
<!-- Node1&#45;&gt;Node17 -->
<g id="edge17" class="edge"><title>Node1&#45;&gt;Node17</title>
<path fill="none" stroke="midnightblue" d="M69.3579,-587.01C83.4006,-555.032 112.076,-499.282 153,-466.5 160.531,-460.467 169.39,-455.576 178.443,-451.632"/>
<polygon fill="midnightblue" stroke="midnightblue" points="66.0153,-585.926 65.3158,-596.498 72.4553,-588.669 66.0153,-585.926"/>
</g>
<!-- Node20 -->
<g id="node20" class="node"><title>Node20</title>
<g id="a_node20"><a xlink:href="serialization_8cc.xhtml#a83f7058a5caad9ec3ffb5fd6c7d7b8f6" target="_top" xlink:title="Convenience function for serialization into a file. ">
<polygon fill="white" stroke="black" points="579,-449 579,-468 697,-468 697,-449 579,-449"/>
<text text-anchor="middle" x="638" y="-456" font-family="Helvetica,sans-Serif" font-size="10.00">scram::mef::Serialize</text>
</a>
</g>
</g>
<!-- Node1&#45;&gt;Node20 -->
<g id="edge38" class="edge"><title>Node1&#45;&gt;Node20</title>
<path fill="none" stroke="midnightblue" d="M72.0631,-587.165C87.2745,-560.513 115.579,-518.975 153,-499.5 189.982,-480.254 458.63,-466.277 578.972,-460.913"/>
<polygon fill="midnightblue" stroke="midnightblue" points="68.8218,-585.795 67.0587,-596.242 74.9519,-589.175 68.8218,-585.795"/>
</g>
<!-- Node21 -->
<g id="node21" class="node"><title>Node21</title>
<g id="a_node21"><a xlink:href="classscram_1_1mef_1_1Element.xhtml#a7db1af9365e25a0ce332a1745441630a" target="_top" xlink:title="scram::mef::Element\l::GetAttribute">
<polygon fill="white" stroke="black" points="177,-372.5 177,-402.5 294,-402.5 294,-372.5 177,-372.5"/>
<text text-anchor="start" x="185" y="-390.5" font-family="Helvetica,sans-Serif" font-size="10.00">scram::mef::Element</text>
<text text-anchor="middle" x="235.5" y="-379.5" font-family="Helvetica,sans-Serif" font-size="10.00">::GetAttribute</text>
</a>
</g>
</g>
<!-- Node1&#45;&gt;Node21 -->
<g id="edge22" class="edge"><title>Node1&#45;&gt;Node21</title>
<path fill="none" stroke="midnightblue" d="M64.4335,-586.256C73.9897,-544.084 99.0225,-459.328 153,-412.5 159.931,-406.487 168.285,-401.92 176.967,-398.451"/>
<polygon fill="midnightblue" stroke="midnightblue" points="60.9655,-585.735 62.2809,-596.247 67.8085,-587.209 60.9655,-585.735"/>
</g>
<!-- Node22 -->
<g id="node22" class="node"><title>Node22</title>
<g id="a_node22"><a xlink:href="classscram_1_1mef_1_1Gate.xhtml#abeb0d7efda63e877e150f54719da1ba8" target="_top" xlink:title="Checks if a gate is initialized correctly. ">
<polygon fill="white" stroke="black" points="362,-334 362,-353 507,-353 507,-334 362,-334"/>
<text text-anchor="middle" x="434.5" y="-341" font-family="Helvetica,sans-Serif" font-size="10.00">scram::mef::Gate::Validate</text>
</a>
</g>
</g>
<!-- Node1&#45;&gt;Node22 -->
<g id="edge55" class="edge"><title>Node1&#45;&gt;Node22</title>
<path fill="none" stroke="midnightblue" d="M60.5798,-585.988C64.2829,-534.276 80.6593,-417.442 153,-363.5 184.898,-339.715 289.894,-338.11 361.97,-340.084"/>
<polygon fill="midnightblue" stroke="midnightblue" points="57.0681,-586.075 59.9523,-596.269 64.0551,-586.501 57.0681,-586.075"/>
</g>
<!-- Node24 -->
<g id="node24" class="node"><title>Node24</title>
<g id="a_node24"><a xlink:href="classscram_1_1mef_1_1Model.xhtml#a8c11c1a8b9cd08ac3305ceb35d2ae2b4" target="_top" xlink:title="scram::mef::Model::\lGetOptionalName">
<polygon fill="white" stroke="black" points="378.5,-1093.5 378.5,-1123.5 490.5,-1123.5 490.5,-1093.5 378.5,-1093.5"/>
<text text-anchor="start" x="386.5" y="-1111.5" font-family="Helvetica,sans-Serif" font-size="10.00">scram::mef::Model::</text>
<text text-anchor="middle" x="434.5" y="-1100.5" font-family="Helvetica,sans-Serif" font-size="10.00">GetOptionalName</text>
</a>
</g>
</g>
<!-- Node1&#45;&gt;Node24 -->
<g id="edge25" class="edge"><title>Node1&#45;&gt;Node24</title>
<path fill="none" stroke="midnightblue" d="M60.8695,-637.105C66.1317,-725.149 88.1142,-1013.34 153,-1073.5 213.459,-1129.56 315.367,-1127.11 378.284,-1118.81"/>
<polygon fill="midnightblue" stroke="midnightblue" points="64.3534,-636.722 60.2841,-626.94 57.365,-637.124 64.3534,-636.722"/>
</g>
<!-- Node25 -->
<g id="node25" class="node"><title>Node25</title>
<g id="a_node25"><a xlink:href="cycle_8h.xhtml#a230f776f001ca1a60c9ad6ee960aa2f0" target="_top" xlink:title="Specialization for event&#45;tree link name retrieval. ">
<polygon fill="white" stroke="black" points="182,-235.5 182,-265.5 289,-265.5 289,-235.5 182,-235.5"/>
<text text-anchor="start" x="190" y="-253.5" font-family="Helvetica,sans-Serif" font-size="10.00">scram::mef::cycle::</text>
<text text-anchor="middle" x="235.5" y="-242.5" font-family="Helvetica,sans-Serif" font-size="10.00">GetUniqueName</text>
</a>
</g>
</g>
<!-- Node1&#45;&gt;Node25 -->
<g id="edge26" class="edge"><title>Node1&#45;&gt;Node25</title>
<path fill="none" stroke="midnightblue" d="M58.8369,-586.281C58.6308,-524.439 66.909,-363.879 153,-275.5 160.849,-267.443 171.22,-261.966 181.925,-258.248"/>
<polygon fill="midnightblue" stroke="midnightblue" points="55.3374,-586.356 58.9507,-596.316 62.3369,-586.277 55.3374,-586.356"/>
</g>
<!-- Node26 -->
<g id="node26" class="node"><title>Node26</title>
<g id="a_node26"><a xlink:href="classscram_1_1mef_1_1Element.xhtml#ae291c86b68c20c0e2b845fbbc8bddb25" target="_top" xlink:title="Checks if the element has a given attribute. ">
<polygon fill="white" stroke="black" points="177,-284.5 177,-314.5 294,-314.5 294,-284.5 177,-284.5"/>
<text text-anchor="start" x="185" y="-302.5" font-family="Helvetica,sans-Serif" font-size="10.00">scram::mef::Element</text>
<text text-anchor="middle" x="235.5" y="-291.5" font-family="Helvetica,sans-Serif" font-size="10.00">::HasAttribute</text>
</a>
</g>
</g>
<!-- Node1&#45;&gt;Node26 -->
<g id="edge27" class="edge"><title>Node1&#45;&gt;Node26</title>
<path fill="none" stroke="midnightblue" d="M60.7648,-586.21C64.8246,-531.881 81.8498,-403.005 153,-329.5 159.606,-322.675 167.897,-317.392 176.643,-313.306"/>
<polygon fill="midnightblue" stroke="midnightblue" points="57.2628,-586.126 60.0968,-596.335 64.2476,-586.587 57.2628,-586.126"/>
</g>
<!-- Node28 -->
<g id="node28" class="node"><title>Node28</title>
<g id="a_node28"><a xlink:href="classscram_1_1mef_1_1Model.xhtml#a742b8f5f989b633eeeeb192d2e793181" target="_top" xlink:title="scram::mef::Model::\lHasDefaultName">
<polygon fill="white" stroke="black" points="179.5,-1033.5 179.5,-1063.5 291.5,-1063.5 291.5,-1033.5 179.5,-1033.5"/>
<text text-anchor="start" x="187.5" y="-1051.5" font-family="Helvetica,sans-Serif" font-size="10.00">scram::mef::Model::</text>
<text text-anchor="middle" x="235.5" y="-1040.5" font-family="Helvetica,sans-Serif" font-size="10.00">HasDefaultName</text>
</a>
</g>
</g>
<!-- Node1&#45;&gt;Node28 -->
<g id="edge30" class="edge"><title>Node1&#45;&gt;Node28</title>
<path fill="none" stroke="midnightblue" d="M58.9057,-636.789C58.6158,-703.57 66.2522,-887.397 153,-1002.5 163.17,-1015.99 178.528,-1026.12 193.179,-1033.38"/>
<polygon fill="midnightblue" stroke="midnightblue" points="62.4057,-636.794 59.0155,-626.756 55.4062,-636.717 62.4057,-636.794"/>
</g>
<!-- Node30 -->
<g id="node30" class="node"><title>Node30</title>
<g id="a_node30"><a xlink:href="classscram_1_1mef_1_1Id.xhtml#afa644b550e338f53cc22a867e2ac52a9" target="_top" xlink:title="Resets the element ID. ">
<polygon fill="white" stroke="black" points="185.5,-197 185.5,-216 285.5,-216 285.5,-197 185.5,-197"/>
<text text-anchor="middle" x="235.5" y="-204" font-family="Helvetica,sans-Serif" font-size="10.00">scram::mef::Id::id</text>
</a>
</g>
</g>
<!-- Node1&#45;&gt;Node30 -->
<g id="edge34" class="edge"><title>Node1&#45;&gt;Node30</title>
<path fill="none" stroke="midnightblue" d="M62.2644,-585.941C71.1576,-508.426 101.49,-278.134 153,-226.5 161.643,-217.836 173.389,-212.704 185.271,-209.72"/>
<polygon fill="midnightblue" stroke="midnightblue" points="58.7469,-585.902 61.1079,-596.23 65.7031,-586.684 58.7469,-585.902"/>
</g>
<!-- Node31 -->
<g id="node31" class="node"><title>Node31</title>
<g id="a_node31"><a xlink:href="classscram_1_1mef_1_1Model.xhtml#a111c96980bb9a43b19aaccd7e7baa641" target="_top" xlink:title="Removes MEF constructs from the model container. ">
<polygon fill="white" stroke="black" points="179.5,-147.5 179.5,-177.5 291.5,-177.5 291.5,-147.5 179.5,-147.5"/>
<text text-anchor="start" x="187.5" y="-165.5" font-family="Helvetica,sans-Serif" font-size="10.00">scram::mef::Model::</text>
<text text-anchor="middle" x="235.5" y="-154.5" font-family="Helvetica,sans-Serif" font-size="10.00">Remove</text>
</a>
</g>
</g>
<!-- Node1&#45;&gt;Node31 -->
<g id="edge35" class="edge"><title>Node1&#45;&gt;Node31</title>
<path fill="none" stroke="midnightblue" d="M61.7668,-586.226C69.6181,-504.14 98.2154,-246.888 153,-187.5 160.125,-179.776 169.567,-174.414 179.492,-170.697"/>
<polygon fill="midnightblue" stroke="midnightblue" points="58.2815,-585.907 60.8343,-596.19 65.251,-586.56 58.2815,-585.907"/>
</g>
<!-- Node32 -->
<g id="node32" class="node"><title>Node32</title>
<g id="a_node32"><a xlink:href="classscram_1_1mef_1_1Element.xhtml#aeb9ddfc1f7f1461c1670b80eab5a113a" target="_top" xlink:title="Removes the attribute of the element. ">
<polygon fill="white" stroke="black" points="177,-98.5 177,-128.5 294,-128.5 294,-98.5 177,-98.5"/>
<text text-anchor="start" x="185" y="-116.5" font-family="Helvetica,sans-Serif" font-size="10.00">scram::mef::Element</text>
<text text-anchor="middle" x="235.5" y="-105.5" font-family="Helvetica,sans-Serif" font-size="10.00">::RemoveAttribute</text>
</a>
</g>
</g>
<!-- Node1&#45;&gt;Node32 -->
<g id="edge36" class="edge"><title>Node1&#45;&gt;Node32</title>
<path fill="none" stroke="midnightblue" d="M61.1353,-586.279C67.3406,-498.177 92.2281,-205.842 153,-138.5 159.445,-131.358 167.871,-126.231 176.857,-122.557"/>
<polygon fill="midnightblue" stroke="midnightblue" points="57.6318,-586.213 60.4403,-596.428 64.6154,-586.691 57.6318,-586.213"/>
</g>
<!-- Node33 -->
<g id="node33" class="node"><title>Node33</title>
<g id="a_node33"><a xlink:href="classscram_1_1mef_1_1Model.xhtml#a63c29088e50a8e55a75a8c707ee068d3" target="_top" xlink:title="Sets the optional name of the model. ">
<polygon fill="white" stroke="black" points="179.5,-49.5 179.5,-79.5 291.5,-79.5 291.5,-49.5 179.5,-49.5"/>
<text text-anchor="start" x="187.5" y="-67.5" font-family="Helvetica,sans-Serif" font-size="10.00">scram::mef::Model::</text>
<text text-anchor="middle" x="235.5" y="-56.5" font-family="Helvetica,sans-Serif" font-size="10.00">SetOptionalName</text>
</a>
</g>
</g>
<!-- Node1&#45;&gt;Node33 -->
<g id="edge39" class="edge"><title>Node1&#45;&gt;Node33</title>
<path fill="none" stroke="midnightblue" d="M60.6149,-586.457C65.2765,-492.829 86.182,-164.889 153,-89.5 159.97,-81.6361 169.342,-76.2113 179.249,-72.4774"/>
<polygon fill="midnightblue" stroke="midnightblue" points="57.119,-586.289 60.1357,-596.446 64.1109,-586.625 57.119,-586.289"/>
</g>
<!-- Node34 -->
<g id="node34" class="node"><title>Node34</title>
<g id="a_node34"><a xlink:href="classscram_1_1mef_1_1Id.xhtml#ad92eeb2ebe9c650e3c5ad90526f2d8f9" target="_top" xlink:title="Produces unique name for the model element within the same type. ">
<polygon fill="white" stroke="black" points="157,-891 157,-910 314,-910 314,-891 157,-891"/>
<text text-anchor="middle" x="235.5" y="-898" font-family="Helvetica,sans-Serif" font-size="10.00">scram::mef::Id::unique_name</text>
</a>
</g>
</g>
<!-- Node1&#45;&gt;Node34 -->
<g id="edge40" class="edge"><title>Node1&#45;&gt;Node34</title>
<path fill="none" stroke="midnightblue" d="M60.4924,-636.782C64.0205,-690.365 80.0696,-815.808 153,-881.5 157.21,-885.292 162.029,-888.37 167.173,-890.863"/>
<polygon fill="midnightblue" stroke="midnightblue" points="63.9855,-636.56 59.9269,-626.774 56.9967,-636.955 63.9855,-636.56"/>
</g>
<!-- Node38 -->
<g id="node38" class="node"><title>Node38</title>
<g id="a_node38"><a xlink:href="classscram_1_1mef_1_1BasicEvent.xhtml#acfc0e73e1add67aa2ace841350eb62cd" target="_top" xlink:title="Validates the probability expressions for the primary event. ">
<polygon fill="white" stroke="black" points="170.5,-1181.5 170.5,-1211.5 300.5,-1211.5 300.5,-1181.5 170.5,-1181.5"/>
<text text-anchor="start" x="178.5" y="-1199.5" font-family="Helvetica,sans-Serif" font-size="10.00">scram::mef::BasicEvent</text>
<text text-anchor="middle" x="235.5" y="-1188.5" font-family="Helvetica,sans-Serif" font-size="10.00">::Validate</text>
</a>
</g>
</g>
<!-- Node1&#45;&gt;Node38 -->
<g id="edge49" class="edge"><title>Node1&#45;&gt;Node38</title>
<path fill="none" stroke="midnightblue" d="M60.4684,-636.723C64.687,-734.053 84.445,-1083.86 153,-1166.5 158.102,-1172.65 164.585,-1177.54 171.658,-1181.43"/>
<polygon fill="midnightblue" stroke="midnightblue" points="63.961,-636.471 60.048,-626.625 56.9671,-636.762 63.961,-636.471"/>
</g>
<!-- Node40 -->
<g id="node40" class="node"><title>Node40</title>
<g id="a_node40"><a xlink:href="classscram_1_1mef_1_1CcfGroup.xhtml#a31cbe59ce89f295de7bb810d8b75990e" target="_top" xlink:title="Validates the setup for the CCF model and group. ">
<polygon fill="white" stroke="black" points="174.5,-0.5 174.5,-30.5 296.5,-30.5 296.5,-0.5 174.5,-0.5"/>
<text text-anchor="start" x="182.5" y="-18.5" font-family="Helvetica,sans-Serif" font-size="10.00">scram::mef::CcfGroup</text>
<text text-anchor="middle" x="235.5" y="-7.5" font-family="Helvetica,sans-Serif" font-size="10.00">::Validate</text>
</a>
</g>
</g>
<!-- Node1&#45;&gt;Node40 -->
<g id="edge54" class="edge"><title>Node1&#45;&gt;Node40</title>
<path fill="none" stroke="midnightblue" d="M60.1605,-586.329C63.2737,-486.874 79.5864,-122.662 153,-39.5 158.759,-32.9759 166.193,-28.1842 174.223,-24.673"/>
<polygon fill="midnightblue" stroke="midnightblue" points="56.6608,-586.27 59.8637,-596.369 63.6577,-586.477 56.6608,-586.27"/>
</g>
<!-- Node4 -->
<g id="node4" class="node"><title>Node4</title>
<g id="a_node4"><a xlink:href="classscram_1_1mef_1_1Initializer.xhtml#a11cfe2ebf9fc06fbac97f38530a326c4" target="_top" xlink:title="Specializations for elements defined after registration. ">
<polygon fill="white" stroke="black" points="375,-774.5 375,-804.5 494,-804.5 494,-774.5 375,-774.5"/>
<text text-anchor="start" x="383" y="-792.5" font-family="Helvetica,sans-Serif" font-size="10.00">scram::mef::Initializer</text>
<text text-anchor="middle" x="434.5" y="-781.5" font-family="Helvetica,sans-Serif" font-size="10.00">::Define</text>
</a>
</g>
</g>
<!-- Node3&#45;&gt;Node4 -->
<g id="edge3" class="edge"><title>Node3&#45;&gt;Node4</title>
<path fill="none" stroke="midnightblue" d="M302.29,-838.229C307.645,-836.409 312.939,-834.492 318,-832.5 334.645,-825.948 337.415,-821.204 354,-814.5 362.719,-810.975 372.136,-807.629 381.334,-804.597"/>
<polygon fill="midnightblue" stroke="midnightblue" points="301.034,-834.958 292.623,-841.4 303.215,-841.609 301.034,-834.958"/>
</g>
<!-- Node6 -->
<g id="node6" class="node"><title>Node6</title>
<g id="a_node6"><a xlink:href="structscram_1_1mef_1_1Initializer_1_1Extractor_3_01T_00-1_01_4.xhtml#a0d6a8f1491cbe14a5aac653129c6445d" target="_top" xlink:title="Constructs an expression with a variable number of arguments. ">
<polygon fill="white" stroke="black" points="354,-725.5 354,-755.5 515,-755.5 515,-725.5 354,-725.5"/>
<text text-anchor="start" x="362" y="-743.5" font-family="Helvetica,sans-Serif" font-size="10.00">scram::mef::Initializer</text>
<text text-anchor="middle" x="434.5" y="-732.5" font-family="Helvetica,sans-Serif" font-size="10.00">::Extractor&lt; T,&#45;1 &gt;::operator()</text>
</a>
</g>
</g>
<!-- Node5&#45;&gt;Node6 -->
<g id="edge5" class="edge"><title>Node5&#45;&gt;Node6</title>
<path fill="none" stroke="midnightblue" d="M306.99,-752.059C322.139,-750.675 338.251,-749.203 353.723,-747.789"/>
<polygon fill="midnightblue" stroke="midnightblue" points="306.317,-748.606 296.677,-753.002 306.954,-755.577 306.317,-748.606"/>
</g>
<!-- Node7&#45;&gt;Node6 -->
<g id="edge7" class="edge"><title>Node7&#45;&gt;Node6</title>
<path fill="none" stroke="midnightblue" d="M302.29,-789.229C307.645,-787.409 312.939,-785.492 318,-783.5 334.645,-776.948 337.415,-772.204 354,-765.5 362.719,-761.975 372.136,-758.629 381.334,-755.597"/>
<polygon fill="midnightblue" stroke="midnightblue" points="301.034,-785.958 292.623,-792.4 303.215,-792.609 301.034,-785.958"/>
</g>
<!-- Node10 -->
<g id="node10" class="node"><title>Node10</title>
<g id="a_node10"><a xlink:href="classscram_1_1core_1_1RiskAnalysis.xhtml#a337f7e9fe02b1581e872590d6f7baa01" target="_top" xlink:title="scram::core::RiskAnalysis\l::model">
<polygon fill="white" stroke="black" points="366,-929.5 366,-959.5 503,-959.5 503,-929.5 366,-929.5"/>
<text text-anchor="start" x="374" y="-947.5" font-family="Helvetica,sans-Serif" font-size="10.00">scram::core::RiskAnalysis</text>
<text text-anchor="middle" x="434.5" y="-936.5" font-family="Helvetica,sans-Serif" font-size="10.00">::model</text>
</a>
</g>
</g>
<!-- Node9&#45;&gt;Node10 -->
<g id="edge10" class="edge"><title>Node9&#45;&gt;Node10</title>
<path fill="none" stroke="midnightblue" d="M314.449,-944.5C331.404,-944.5 349.21,-944.5 365.733,-944.5"/>
<polygon fill="midnightblue" stroke="midnightblue" points="314.021,-941 304.021,-944.5 314.021,-948 314.021,-941"/>
</g>
<!-- Node10&#45;&gt;Node11 -->
<g id="edge11" class="edge"><title>Node10&#45;&gt;Node11</title>
<path fill="none" stroke="midnightblue" d="M513.106,-961.446C531.237,-965.405 550.426,-969.596 568.147,-973.465"/>
<polygon fill="midnightblue" stroke="midnightblue" points="513.674,-957.988 503.157,-959.274 512.18,-964.827 513.674,-957.988"/>
</g>
<!-- Node18 -->
<g id="node18" class="node"><title>Node18</title>
<g id="a_node18"><a xlink:href="classscram_1_1mef_1_1FaultTree.xhtml#a9535bd49edb4598ead887faf8dadd9f2" target="_top" xlink:title="Collects top event gates in this fault tree with components. ">
<polygon fill="white" stroke="black" points="375,-372.5 375,-402.5 494,-402.5 494,-372.5 375,-372.5"/>
<text text-anchor="start" x="383" y="-390.5" font-family="Helvetica,sans-Serif" font-size="10.00">scram::mef::FaultTree</text>
<text text-anchor="middle" x="434.5" y="-379.5" font-family="Helvetica,sans-Serif" font-size="10.00">::CollectTopEvents</text>
</a>
</g>
</g>
<!-- Node17&#45;&gt;Node18 -->
<g id="edge18" class="edge"><title>Node17&#45;&gt;Node18</title>
<path fill="none" stroke="midnightblue" d="M306.697,-419.04C329.013,-413.489 353.447,-407.412 374.859,-402.086"/>
<polygon fill="midnightblue" stroke="midnightblue" points="305.805,-415.655 296.945,-421.465 307.494,-422.448 305.805,-415.655"/>
</g>
<!-- Node19 -->
<g id="node19" class="node"><title>Node19</title>
<g id="a_node19"><a xlink:href="classscram_1_1mef_1_1Component.xhtml#a483f7a67e2197449902bddc48756e2cd" target="_top" xlink:title="scram::mef::Component\l::components">
<polygon fill="white" stroke="black" points="367.5,-421.5 367.5,-451.5 501.5,-451.5 501.5,-421.5 367.5,-421.5"/>
<text text-anchor="start" x="375.5" y="-439.5" font-family="Helvetica,sans-Serif" font-size="10.00">scram::mef::Component</text>
<text text-anchor="middle" x="434.5" y="-428.5" font-family="Helvetica,sans-Serif" font-size="10.00">::components</text>
</a>
</g>
</g>
<!-- Node17&#45;&gt;Node19 -->
<g id="edge19" class="edge"><title>Node17&#45;&gt;Node19</title>
<path fill="none" stroke="midnightblue" d="M312.784,-436.5C330.734,-436.5 349.723,-436.5 367.193,-436.5"/>
<polygon fill="midnightblue" stroke="midnightblue" points="312.646,-433 302.646,-436.5 312.646,-440 312.646,-433"/>
</g>
<!-- Node19&#45;&gt;Node20 -->
<g id="edge20" class="edge"><title>Node19&#45;&gt;Node20</title>
<path fill="none" stroke="midnightblue" d="M511.828,-444.834C534.039,-447.259 557.935,-449.868 578.836,-452.15"/>
<polygon fill="midnightblue" stroke="midnightblue" points="512.079,-441.34 501.758,-443.734 511.319,-448.299 512.079,-441.34"/>
</g>
<!-- Node20&#45;&gt;Node20 -->
<g id="edge21" class="edge"><title>Node20&#45;&gt;Node20</title>
<path fill="none" stroke="midnightblue" d="M605.017,-476.391C605.5,-482.041 616.494,-486.5 638,-486.5 669.281,-486.5 678.323,-477.065 665.127,-468.257"/>
<polygon fill="midnightblue" stroke="midnightblue" points="607.871,-478.417 610.873,-468.257 602.19,-474.327 607.871,-478.417"/>
</g>
<!-- Node21&#45;&gt;Node22 -->
<g id="edge23" class="edge"><title>Node21&#45;&gt;Node22</title>
<path fill="none" stroke="midnightblue" d="M304.022,-372.419C332.843,-365.982 365.603,-358.665 390.96,-353.001"/>
<polygon fill="midnightblue" stroke="midnightblue" points="303.007,-369.059 294.01,-374.655 304.533,-375.891 303.007,-369.059"/>
</g>
<!-- Node23 -->
<g id="node23" class="node"><title>Node23</title>
<g id="a_node23"><a xlink:href="classscram_1_1mef_1_1Initializer.xhtml#a14baeb786ca655ac41c6ad3197ebf612" target="_top" xlink:title="Specializations for elements defined after registration. ">
<polygon fill="white" stroke="black" points="578.5,-328.5 578.5,-358.5 697.5,-358.5 697.5,-328.5 578.5,-328.5"/>
<text text-anchor="start" x="586.5" y="-346.5" font-family="Helvetica,sans-Serif" font-size="10.00">scram::mef::Initializer</text>
<text text-anchor="middle" x="638" y="-335.5" font-family="Helvetica,sans-Serif" font-size="10.00">::Define</text>
</a>
</g>
</g>
<!-- Node22&#45;&gt;Node23 -->
<g id="edge24" class="edge"><title>Node22&#45;&gt;Node23</title>
<path fill="none" stroke="midnightblue" d="M517.338,-343.5C537.735,-343.5 559.205,-343.5 578.24,-343.5"/>
<polygon fill="midnightblue" stroke="midnightblue" points="517.109,-340 507.109,-343.5 517.109,-347 517.109,-340"/>
</g>
<!-- Node26&#45;&gt;Node22 -->
<g id="edge29" class="edge"><title>Node26&#45;&gt;Node22</title>
<path fill="none" stroke="midnightblue" d="M304.022,-314.581C332.843,-321.018 365.603,-328.335 390.96,-333.999"/>
<polygon fill="midnightblue" stroke="midnightblue" points="304.533,-311.109 294.01,-312.345 303.007,-317.941 304.533,-311.109"/>
</g>
<!-- Node27 -->
<g id="node27" class="node"><title>Node27</title>
<g id="a_node27"><a xlink:href="classscram_1_1mef_1_1Element.xhtml#ad5906432084ef153b708dbe77307d4f9" target="_top" xlink:title="Adds an attribute to the attribute map. ">
<polygon fill="white" stroke="black" points="376,-284.5 376,-314.5 493,-314.5 493,-284.5 376,-284.5"/>
<text text-anchor="start" x="384" y="-302.5" font-family="Helvetica,sans-Serif" font-size="10.00">scram::mef::Element</text>
<text text-anchor="middle" x="434.5" y="-291.5" font-family="Helvetica,sans-Serif" font-size="10.00">::AddAttribute</text>
</a>
</g>
</g>
<!-- Node26&#45;&gt;Node27 -->
<g id="edge28" class="edge"><title>Node26&#45;&gt;Node27</title>
<path fill="none" stroke="midnightblue" d="M304.188,-299.5C327.537,-299.5 353.454,-299.5 375.918,-299.5"/>
<polygon fill="midnightblue" stroke="midnightblue" points="304.01,-296 294.01,-299.5 304.01,-303 304.01,-296"/>
</g>
<!-- Node28&#45;&gt;Node11 -->
<g id="edge32" class="edge"><title>Node28&#45;&gt;Node11</title>
<path fill="none" stroke="midnightblue" d="M302.052,-1055.53C359.076,-1059.83 443.542,-1061.77 515,-1045.5 551.015,-1037.3 589.047,-1017.51 612.886,-1003.56"/>
<polygon fill="midnightblue" stroke="midnightblue" points="301.981,-1052.02 291.734,-1054.71 301.423,-1059 301.981,-1052.02"/>
</g>
<!-- Node28&#45;&gt;Node24 -->
<g id="edge31" class="edge"><title>Node28&#45;&gt;Node24</title>
<path fill="none" stroke="midnightblue" d="M295.694,-1066.53C323.881,-1075.11 357.205,-1085.26 384.023,-1093.43"/>
<polygon fill="midnightblue" stroke="midnightblue" points="296.543,-1063.13 285.957,-1063.56 294.504,-1069.82 296.543,-1063.13"/>
</g>
<!-- Node29 -->
<g id="node29" class="node"><title>Node29</title>
<g id="a_node29"><a xlink:href="serialization_8cc.xhtml#a12094f882cf779ecac838576c86954ee" target="_top" xlink:title="Serializes the model and its data into stream as XML. ">
<polygon fill="white" stroke="black" points="375.5,-1017 375.5,-1036 493.5,-1036 493.5,-1017 375.5,-1017"/>
<text text-anchor="middle" x="434.5" y="-1024" font-family="Helvetica,sans-Serif" font-size="10.00">scram::mef::Serialize</text>
</a>
</g>
</g>
<!-- Node28&#45;&gt;Node29 -->
<g id="edge33" class="edge"><title>Node28&#45;&gt;Node29</title>
<path fill="none" stroke="midnightblue" d="M301.631,-1041.23C325.413,-1038.57 352.138,-1035.59 375.28,-1033"/>
<polygon fill="midnightblue" stroke="midnightblue" points="301.187,-1037.75 291.637,-1042.34 301.964,-1044.71 301.187,-1037.75"/>
</g>
<!-- Node34&#45;&gt;Node11 -->
<g id="edge48" class="edge"><title>Node34&#45;&gt;Node11</title>
<path fill="none" stroke="midnightblue" d="M324.253,-897.14C379.978,-897.35 453.015,-901.997 515,-920.5 553.571,-932.014 593.417,-957.188 616.668,-973.465"/>
<polygon fill="midnightblue" stroke="midnightblue" points="324.053,-893.641 314.056,-897.151 324.06,-900.641 324.053,-893.641"/>
</g>
<!-- Node35 -->
<g id="node35" class="node"><title>Node35</title>
<g id="a_node35"><a xlink:href="cycle_8h.xhtml#a8f86e1c839eb739736a5c3836cd93c5d" target="_top" xlink:title="Retrieves a unique name for a node. ">
<polygon fill="white" stroke="black" points="381,-823.5 381,-853.5 488,-853.5 488,-823.5 381,-823.5"/>
<text text-anchor="start" x="389" y="-841.5" font-family="Helvetica,sans-Serif" font-size="10.00">scram::mef::cycle::</text>
<text text-anchor="middle" x="434.5" y="-830.5" font-family="Helvetica,sans-Serif" font-size="10.00">GetUniqueName</text>
</a>
</g>
</g>
<!-- Node34&#45;&gt;Node35 -->
<g id="edge41" class="edge"><title>Node34&#45;&gt;Node35</title>
<path fill="none" stroke="midnightblue" d="M291.857,-888.598C300.652,-886.42 309.611,-884.028 318,-881.5 344.735,-873.443 374.227,-862.426 396.717,-853.561"/>
<polygon fill="midnightblue" stroke="midnightblue" points="290.938,-885.22 282.036,-890.964 292.577,-892.025 290.938,-885.22"/>
</g>
<!-- Node35&#45;&gt;Node35 -->
<g id="edge42" class="edge"><title>Node35&#45;&gt;Node35</title>
<path fill="none" stroke="midnightblue" d="M399.318,-863.958C403.684,-868.679 415.412,-872 434.5,-872 465.824,-872 477.326,-863.057 469.006,-853.659"/>
<polygon fill="midnightblue" stroke="midnightblue" points="402.831,-863.867 399.994,-853.659 395.846,-863.408 402.831,-863.867"/>
</g>
<!-- Node36 -->
<g id="node36" class="node"><title>Node36</title>
<g id="a_node36"><a xlink:href="cycle_8h.xhtml#a15cca15d6c6a9db61edc78ca5d195f9a" target="_top" xlink:title="Prints the detected cycle from the output produced by cycle detection functions. ">
<polygon fill="white" stroke="black" points="584.5,-792.5 584.5,-822.5 691.5,-822.5 691.5,-792.5 584.5,-792.5"/>
<text text-anchor="start" x="592.5" y="-810.5" font-family="Helvetica,sans-Serif" font-size="10.00">scram::mef::cycle::</text>
<text text-anchor="middle" x="638" y="-799.5" font-family="Helvetica,sans-Serif" font-size="10.00">PrintCycle</text>
</a>
</g>
</g>
<!-- Node35&#45;&gt;Node36 -->
<g id="edge43" class="edge"><title>Node35&#45;&gt;Node36</title>
<path fill="none" stroke="midnightblue" d="M498.138,-828.863C525.773,-824.612 557.895,-819.67 584.279,-815.611"/>
<polygon fill="midnightblue" stroke="midnightblue" points="497.53,-825.416 488.179,-830.396 498.595,-832.334 497.53,-825.416"/>
</g>
<!-- Node37 -->
<g id="node37" class="node"><title>Node37</title>
<g id="a_node37"><a xlink:href="cycle_8h.xhtml#a8ff9fbf65ad4582369783058a9dec0fc" target="_top" xlink:title="Checks for cycles in a model constructs. ">
<polygon fill="white" stroke="black" points="761,-823.5 761,-853.5 868,-853.5 868,-823.5 761,-823.5"/>
<text text-anchor="start" x="769" y="-841.5" font-family="Helvetica,sans-Serif" font-size="10.00">scram::mef::cycle::</text>
<text text-anchor="middle" x="814.5" y="-830.5" font-family="Helvetica,sans-Serif" font-size="10.00">CheckCycle</text>
</a>
</g>
</g>
<!-- Node35&#45;&gt;Node37 -->
<g id="edge47" class="edge"><title>Node35&#45;&gt;Node37</title>
<path fill="none" stroke="midnightblue" d="M498.42,-846.23C515.456,-847.997 533.911,-849.615 551,-850.5 628.23,-854.501 647.842,-855.707 725,-850.5 736.602,-849.717 749.003,-848.363 760.737,-846.839"/>
<polygon fill="midnightblue" stroke="midnightblue" points="498.337,-842.701 488.021,-845.116 497.591,-849.662 498.337,-842.701"/>
</g>
<!-- Node36&#45;&gt;Node36 -->
<g id="edge46" class="edge"><title>Node36&#45;&gt;Node36</title>
<path fill="none" stroke="midnightblue" d="M606.727,-832.958C610.608,-837.679 621.033,-841 638,-841 665.844,-841 676.068,-832.057 668.672,-822.659"/>
<polygon fill="midnightblue" stroke="midnightblue" points="610.239,-832.846 607.328,-822.659 603.251,-832.438 610.239,-832.846"/>
</g>
<!-- Node36&#45;&gt;Node37 -->
<g id="edge44" class="edge"><title>Node36&#45;&gt;Node37</title>
<path fill="none" stroke="midnightblue" d="M701.772,-818.651C721.133,-822.091 742.244,-825.841 760.85,-829.147"/>
<polygon fill="midnightblue" stroke="midnightblue" points="702.287,-815.188 691.829,-816.885 701.063,-822.08 702.287,-815.188"/>
</g>
<!-- Node37&#45;&gt;Node37 -->
<g id="edge45" class="edge"><title>Node37&#45;&gt;Node37</title>
<path fill="none" stroke="midnightblue" d="M783.227,-863.958C787.108,-868.679 797.533,-872 814.5,-872 842.344,-872 852.568,-863.057 845.172,-853.659"/>
<polygon fill="midnightblue" stroke="midnightblue" points="786.739,-863.846 783.828,-853.659 779.751,-863.438 786.739,-863.846"/>
</g>
<!-- Node39 -->
<g id="node39" class="node"><title>Node39</title>
<g id="a_node39"><a xlink:href="classscram_1_1mef_1_1CcfGroup.xhtml#a06dd05cabcbeddf42090536f6a47a184" target="_top" xlink:title="scram::mef::CcfGroup\l::members">
<polygon fill="white" stroke="black" points="373.5,-1181.5 373.5,-1211.5 495.5,-1211.5 495.5,-1181.5 373.5,-1181.5"/>
<text text-anchor="start" x="381.5" y="-1199.5" font-family="Helvetica,sans-Serif" font-size="10.00">scram::mef::CcfGroup</text>
<text text-anchor="middle" x="434.5" y="-1188.5" font-family="Helvetica,sans-Serif" font-size="10.00">::members</text>
</a>
</g>
</g>
<!-- Node38&#45;&gt;Node39 -->
<g id="edge50" class="edge"><title>Node38&#45;&gt;Node39</title>
<path fill="none" stroke="midnightblue" d="M310.742,-1196.5C331.416,-1196.5 353.611,-1196.5 373.365,-1196.5"/>
<polygon fill="midnightblue" stroke="midnightblue" points="310.733,-1193 300.733,-1196.5 310.733,-1200 310.733,-1193"/>
</g>
<!-- Node39&#45;&gt;Node2 -->
<g id="edge51" class="edge"><title>Node39&#45;&gt;Node2</title>
<path fill="none" stroke="midnightblue" d="M505.746,-1208C529.625,-1211.92 556.03,-1216.24 578.857,-1219.98"/>
<polygon fill="midnightblue" stroke="midnightblue" points="506.118,-1204.52 495.684,-1206.36 504.987,-1211.43 506.118,-1204.52"/>
</g>
<!-- Node39&#45;&gt;Node11 -->
<g id="edge53" class="edge"><title>Node39&#45;&gt;Node11</title>
<path fill="none" stroke="midnightblue" d="M465.243,-1175.19C480.703,-1163.56 499.543,-1148.51 515,-1133.5 559.843,-1089.95 605.325,-1031.17 625.796,-1003.76"/>
<polygon fill="midnightblue" stroke="midnightblue" points="462.99,-1172.5 457.045,-1181.27 467.161,-1178.12 462.99,-1172.5"/>
</g>
<!-- Node39&#45;&gt;Node12 -->
<g id="edge52" class="edge"><title>Node39&#45;&gt;Node12</title>
<path fill="none" stroke="midnightblue" d="M505.786,-1184.99C528.934,-1181.2 554.45,-1177.02 576.778,-1173.36"/>
<polygon fill="midnightblue" stroke="midnightblue" points="504.987,-1181.57 495.684,-1186.64 506.118,-1188.48 504.987,-1181.57"/>
</g>
</g>
</svg>
