<?xml version="1.0" encoding="UTF-8" standalone="no"?>
<!DOCTYPE svg PUBLIC "-//W3C//DTD SVG 1.1//EN"
 "http://www.w3.org/Graphics/SVG/1.1/DTD/svg11.dtd">
<!-- Generated by graphviz version 2.38.0 (20140413.2041)
 -->
<!-- Title: scram::core::RiskAnalysis::Analyze Pages: 1 -->
<svg width="303pt" height="372pt"
 viewBox="0.00 0.00 303.00 372.00" xmlns="http://www.w3.org/2000/svg" xmlns:xlink="http://www.w3.org/1999/xlink">
<g id="graph0" class="graph" transform="scale(1 1) rotate(0) translate(4 368)">
<title>scram::core::RiskAnalysis::Analyze</title>
<polygon fill="white" stroke="none" points="-4,4 -4,-368 299,-368 299,4 -4,4"/>
<!-- Node1 -->
<g id="node1" class="node"><title>Node1</title>
<polygon fill="#bfbfbf" stroke="black" points="0,-161.5 0,-191.5 137,-191.5 137,-161.5 0,-161.5"/>
<text text-anchor="start" x="8" y="-179.5" font-family="Helvetica,sans-Serif" font-size="10.00">scram::core::RiskAnalysis</text>
<text text-anchor="middle" x="68.5" y="-168.5" font-family="Helvetica,sans-Serif" font-size="10.00">::Analyze</text>
</g>
<!-- Node2 -->
<g id="node2" class="node"><title>Node2</title>
<g id="a_node2"><a xlink:href="classscram_1_1mef_1_1Model.xhtml#a13bd4eb71c3f15f4eece041f19488744" target="_top" xlink:title="scram::mef::Model::\lcontext">
<polygon fill="white" stroke="black" points="178,-333.5 178,-363.5 290,-363.5 290,-333.5 178,-333.5"/>
<text text-anchor="start" x="186" y="-351.5" font-family="Helvetica,sans-Serif" font-size="10.00">scram::mef::Model::</text>
<text text-anchor="middle" x="234" y="-340.5" font-family="Helvetica,sans-Serif" font-size="10.00">context</text>
</a>
</g>
</g>
<!-- Node1&#45;&gt;Node2 -->
<g id="edge1" class="edge"><title>Node1&#45;&gt;Node2</title>
<path fill="none" stroke="midnightblue" d="M76.3857,-191.687C90.4777,-221.199 125.342,-286.703 173,-324.5 174.582,-325.755 176.239,-326.952 177.951,-328.093"/>
<polygon fill="midnightblue" stroke="midnightblue" points="176.497,-331.298 186.893,-333.342 180.041,-325.261 176.497,-331.298"/>
</g>
<!-- Node3 -->
<g id="node3" class="node"><title>Node3</title>
<g id="a_node3"><a xlink:href="classscram_1_1mef_1_1Model.xhtml#a9bac9a7746026484f3dc69a3ccb2ac4a" target="_top" xlink:title="scram::mef::Model::\lfault_trees">
<polygon fill="white" stroke="black" points="178,-284.5 178,-314.5 290,-314.5 290,-284.5 178,-284.5"/>
<text text-anchor="start" x="186" y="-302.5" font-family="Helvetica,sans-Serif" font-size="10.00">scram::mef::Model::</text>
<text text-anchor="middle" x="234" y="-291.5" font-family="Helvetica,sans-Serif" font-size="10.00">fault_trees</text>
</a>
</g>
</g>
<!-- Node1&#45;&gt;Node3 -->
<g id="edge2" class="edge"><title>Node1&#45;&gt;Node3</title>
<path fill="none" stroke="midnightblue" d="M82.1045,-191.8C100.282,-213.041 135.781,-251.547 173,-275.5 175.308,-276.986 177.724,-278.407 180.204,-279.762"/>
<polygon fill="midnightblue" stroke="midnightblue" points="178.891,-283.018 189.399,-284.377 182.032,-276.763 178.891,-283.018"/>
</g>
<!-- Node4 -->
<g id="node4" class="node"><title>Node4</title>
<g id="a_node4"><a xlink:href="classscram_1_1mef_1_1Model.xhtml#a04f7628e1d3a27295d2ac7bbdc7ab26b" target="_top" xlink:title="scram::mef::Model::\linitiating_events">
<polygon fill="white" stroke="black" points="178,-235.5 178,-265.5 290,-265.5 290,-235.5 178,-235.5"/>
<text text-anchor="start" x="186" y="-253.5" font-family="Helvetica,sans-Serif" font-size="10.00">scram::mef::Model::</text>
<text text-anchor="middle" x="234" y="-242.5" font-family="Helvetica,sans-Serif" font-size="10.00">initiating_events</text>
</a>
</g>
</g>
<!-- Node1&#45;&gt;Node4 -->
<g id="edge3" class="edge"><title>Node1&#45;&gt;Node4</title>
<path fill="none" stroke="midnightblue" d="M99.5849,-191.718C120.102,-201.926 147.984,-215.47 173,-226.5 176.811,-228.18 180.779,-229.878 184.777,-231.553"/>
<polygon fill="midnightblue" stroke="midnightblue" points="183.525,-234.822 194.104,-235.4 186.194,-228.351 183.525,-234.822"/>
</g>
<!-- Node5 -->
<g id="node5" class="node"><title>Node5</title>
<g id="a_node5"><a xlink:href="classscram_1_1mef_1_1Model.xhtml#a8a215a2dd25789bfa65d41cc28b0ac4f" target="_top" xlink:title="scram::mef::Model::\lmission_time">
<polygon fill="white" stroke="black" points="178,-186.5 178,-216.5 290,-216.5 290,-186.5 178,-186.5"/>
<text text-anchor="start" x="186" y="-204.5" font-family="Helvetica,sans-Serif" font-size="10.00">scram::mef::Model::</text>
<text text-anchor="middle" x="234" y="-193.5" font-family="Helvetica,sans-Serif" font-size="10.00">mission_time</text>
</a>
</g>
</g>
<!-- Node1&#45;&gt;Node5 -->
<g id="edge4" class="edge"><title>Node1&#45;&gt;Node5</title>
<path fill="none" stroke="midnightblue" d="M137.418,-186.885C147.552,-188.435 157.978,-190.029 168.048,-191.568"/>
<polygon fill="midnightblue" stroke="midnightblue" points="167.562,-195.035 177.976,-193.087 168.62,-188.115 167.562,-195.035"/>
</g>
<!-- Node6 -->
<g id="node6" class="node"><title>Node6</title>
<g id="a_node6"><a xlink:href="classscram_1_1mef_1_1Element.xhtml#adb401e2ca84aa98cb60797bec2500a81" target="_top" xlink:title="scram::mef::Element\l::name">
<polygon fill="white" stroke="black" points="175.5,-137.5 175.5,-167.5 292.5,-167.5 292.5,-137.5 175.5,-137.5"/>
<text text-anchor="start" x="183.5" y="-155.5" font-family="Helvetica,sans-Serif" font-size="10.00">scram::mef::Element</text>
<text text-anchor="middle" x="234" y="-144.5" font-family="Helvetica,sans-Serif" font-size="10.00">::name</text>
</a>
</g>
</g>
<!-- Node1&#45;&gt;Node6 -->
<g id="edge5" class="edge"><title>Node1&#45;&gt;Node6</title>
<path fill="none" stroke="midnightblue" d="M137.418,-166.53C146.697,-165.168 156.22,-163.771 165.49,-162.41"/>
<polygon fill="midnightblue" stroke="midnightblue" points="166.042,-165.866 175.428,-160.951 165.026,-158.94 166.042,-165.866"/>
</g>
<!-- Node7 -->
<g id="node7" class="node"><title>Node7</title>
<g id="a_node7"><a xlink:href="classscram_1_1Random.xhtml#afef05703779a8c2b5b44ba7315dd88a2" target="_top" xlink:title="Sets the seed of the underlying random number generator. ">
<polygon fill="white" stroke="black" points="173,-99 173,-118 295,-118 295,-99 173,-99"/>
<text text-anchor="middle" x="234" y="-106" font-family="Helvetica,sans-Serif" font-size="10.00">scram::Random::seed</text>
</a>
</g>
</g>
<!-- Node1&#45;&gt;Node7 -->
<g id="edge6" class="edge"><title>Node1&#45;&gt;Node7</title>
<path fill="none" stroke="midnightblue" d="M99.9015,-161.3C120.318,-151.367 147.964,-138.442 173,-128.5 179.308,-125.995 186.068,-123.534 192.693,-121.241"/>
<polygon fill="midnightblue" stroke="midnightblue" points="193.883,-124.534 202.237,-118.017 191.642,-117.902 193.883,-124.534"/>
</g>
<!-- Node8 -->
<g id="node8" class="node"><title>Node8</title>
<g id="a_node8"><a xlink:href="classscram_1_1core_1_1Settings.xhtml#a9937a41d3fd1369f2eea59e1f33a1ac5" target="_top" xlink:title="scram::core::Settings\l::seed">
<polygon fill="white" stroke="black" points="174.5,-49.5 174.5,-79.5 293.5,-79.5 293.5,-49.5 174.5,-49.5"/>
<text text-anchor="start" x="182.5" y="-67.5" font-family="Helvetica,sans-Serif" font-size="10.00">scram::core::Settings</text>
<text text-anchor="middle" x="234" y="-56.5" font-family="Helvetica,sans-Serif" font-size="10.00">::seed</text>
</a>
</g>
</g>
<!-- Node1&#45;&gt;Node8 -->
<g id="edge7" class="edge"><title>Node1&#45;&gt;Node8</title>
<path fill="none" stroke="midnightblue" d="M84.4786,-161.328C103.647,-142.552 138.514,-110.496 173,-89.5 176.175,-87.5671 179.526,-85.7177 182.955,-83.9623"/>
<polygon fill="midnightblue" stroke="midnightblue" points="184.653,-87.0298 192.149,-79.5427 181.62,-80.7209 184.653,-87.0298"/>
</g>
<!-- Node9 -->
<g id="node9" class="node"><title>Node9</title>
<g id="a_node9"><a xlink:href="classscram_1_1core_1_1Analysis.xhtml#ab04a96c555ba726368fa3868a8701610" target="_top" xlink:title="scram::core::Analysis\l::settings">
<polygon fill="white" stroke="black" points="174.5,-0.5 174.5,-30.5 293.5,-30.5 293.5,-0.5 174.5,-0.5"/>
<text text-anchor="start" x="182.5" y="-18.5" font-family="Helvetica,sans-Serif" font-size="10.00">scram::core::Analysis</text>
<text text-anchor="middle" x="234" y="-7.5" font-family="Helvetica,sans-Serif" font-size="10.00">::settings</text>
</a>
</g>
</g>
<!-- Node1&#45;&gt;Node9 -->
<g id="edge8" class="edge"><title>Node1&#45;&gt;Node9</title>
<path fill="none" stroke="midnightblue" d="M77.4538,-161.348C92.6079,-133.794 128.144,-75.1356 173,-40.5 175.303,-38.7219 177.75,-37.0484 180.29,-35.4764"/>
<polygon fill="midnightblue" stroke="midnightblue" points="182.166,-38.4381 189.204,-30.5187 178.763,-32.3207 182.166,-38.4381"/>
</g>
</g>
</svg>
