<?xml version="1.0" encoding="UTF-8" standalone="no"?>
<!DOCTYPE svg PUBLIC "-//W3C//DTD SVG 1.1//EN"
 "http://www.w3.org/Graphics/SVG/1.1/DTD/svg11.dtd">
<!-- Generated by graphviz version 2.38.0 (20140413.2041)
 -->
<!-- Title: scram::core::Zbdd::FindOrAddVertex Pages: 1 -->
<svg width="697pt" height="277pt"
 viewBox="0.00 0.00 697.00 277.00" xmlns="http://www.w3.org/2000/svg" xmlns:xlink="http://www.w3.org/1999/xlink">
<g id="graph0" class="graph" transform="scale(1 1) rotate(0) translate(4 273)">
<title>scram::core::Zbdd::FindOrAddVertex</title>
<polygon fill="white" stroke="none" points="-4,4 -4,-273 693,-273 693,4 -4,4"/>
<!-- Node1 -->
<g id="node1" class="node"><title>Node1</title>
<polygon fill="#bfbfbf" stroke="black" points="0,-139.5 0,-169.5 111,-169.5 111,-139.5 0,-139.5"/>
<text text-anchor="start" x="8" y="-157.5" font-family="Helvetica,sans-Serif" font-size="10.00">scram::core::Zbdd::</text>
<text text-anchor="middle" x="55.5" y="-146.5" font-family="Helvetica,sans-Serif" font-size="10.00">FindOrAddVertex</text>
</g>
<!-- Node2 -->
<g id="node2" class="node"><title>Node2</title>
<g id="a_node2"><a xlink:href="classscram_1_1core_1_1zbdd_1_1CutSetContainer.xhtml#a15ccbd5b839be87c831a743f0100588e" target="_top" xlink:title="Converts a PDAG gate into intermediate cut sets. ">
<polygon fill="white" stroke="black" points="147,-213.5 147,-243.5 310,-243.5 310,-213.5 147,-213.5"/>
<text text-anchor="start" x="155" y="-231.5" font-family="Helvetica,sans-Serif" font-size="10.00">scram::core::zbdd::</text>
<text text-anchor="middle" x="228.5" y="-220.5" font-family="Helvetica,sans-Serif" font-size="10.00">CutSetContainer::ConvertGate</text>
</a>
</g>
</g>
<!-- Node1&#45;&gt;Node2 -->
<g id="edge1" class="edge"><title>Node1&#45;&gt;Node2</title>
<path fill="none" stroke="midnightblue" d="M90.0508,-174.7C106.781,-184.242 127.55,-195.307 147,-203.5 155.496,-207.079 164.686,-210.411 173.714,-213.4"/>
<polygon fill="midnightblue" stroke="midnightblue" points="91.6147,-171.561 81.2061,-169.583 88.1095,-177.62 91.6147,-171.561"/>
</g>
<!-- Node3 -->
<g id="node3" class="node"><title>Node3</title>
<g id="a_node3"><a xlink:href="classscram_1_1core_1_1Zbdd.xhtml#ac90d12f0c653c679d22109124fa6344c" target="_top" xlink:title="Find or adds a ZBDD SetNode vertex using information from gates. ">
<polygon fill="white" stroke="black" points="173,-164.5 173,-194.5 284,-194.5 284,-164.5 173,-164.5"/>
<text text-anchor="start" x="181" y="-182.5" font-family="Helvetica,sans-Serif" font-size="10.00">scram::core::Zbdd::</text>
<text text-anchor="middle" x="228.5" y="-171.5" font-family="Helvetica,sans-Serif" font-size="10.00">FindOrAddVertex</text>
</a>
</g>
</g>
<!-- Node1&#45;&gt;Node3 -->
<g id="edge2" class="edge"><title>Node1&#45;&gt;Node3</title>
<path fill="none" stroke="midnightblue" d="M120.976,-163.926C138.064,-166.425 156.347,-169.097 172.856,-171.511"/>
<polygon fill="midnightblue" stroke="midnightblue" points="121.477,-160.462 111.076,-162.479 120.464,-167.389 121.477,-160.462"/>
</g>
<!-- Node4 -->
<g id="node4" class="node"><title>Node4</title>
<g id="a_node4"><a xlink:href="classscram_1_1core_1_1Zbdd.xhtml#a3dbb8ef5da2882daf6c39e9724eae459" target="_top" xlink:title="Removes subsets in ZBDD. ">
<polygon fill="white" stroke="black" points="173,-115.5 173,-145.5 284,-145.5 284,-115.5 173,-115.5"/>
<text text-anchor="start" x="181" y="-133.5" font-family="Helvetica,sans-Serif" font-size="10.00">scram::core::Zbdd::</text>
<text text-anchor="middle" x="228.5" y="-122.5" font-family="Helvetica,sans-Serif" font-size="10.00">Minimize</text>
</a>
</g>
</g>
<!-- Node1&#45;&gt;Node4 -->
<g id="edge3" class="edge"><title>Node1&#45;&gt;Node4</title>
<path fill="none" stroke="midnightblue" d="M121.456,-145.383C138.406,-143.004 156.501,-140.465 172.856,-138.169"/>
<polygon fill="midnightblue" stroke="midnightblue" points="120.492,-141.984 111.076,-146.84 121.465,-148.916 120.492,-141.984"/>
</g>
<!-- Node14 -->
<g id="node14" class="node"><title>Node14</title>
<g id="a_node14"><a xlink:href="classscram_1_1core_1_1Zbdd.xhtml#a38b5c81971df473b1b46de59d0752c81" target="_top" xlink:title="Constructor with the analysis target. ">
<polygon fill="white" stroke="black" points="160,-77 160,-96 297,-96 297,-77 160,-77"/>
<text text-anchor="middle" x="228.5" y="-84" font-family="Helvetica,sans-Serif" font-size="10.00">scram::core::Zbdd::Zbdd</text>
</a>
</g>
</g>
<!-- Node1&#45;&gt;Node14 -->
<g id="edge15" class="edge"><title>Node1&#45;&gt;Node14</title>
<path fill="none" stroke="midnightblue" d="M89.1018,-134.123C105.893,-124.342 126.996,-113.121 147,-105.5 156.796,-101.768 167.551,-98.6193 177.921,-96.0249"/>
<polygon fill="midnightblue" stroke="midnightblue" points="87.0636,-131.263 80.2513,-139.377 90.6369,-137.282 87.0636,-131.263"/>
</g>
<!-- Node5 -->
<g id="node5" class="node"><title>Node5</title>
<g id="a_node5"><a xlink:href="classscram_1_1core_1_1Zbdd.xhtml#a77945d28bd832d2735969d0b0a451c78" target="_top" xlink:title="Runs the analysis with the representation of a PDAG as ZBDD. ">
<polygon fill="white" stroke="black" points="362.5,-237.5 362.5,-267.5 473.5,-267.5 473.5,-237.5 362.5,-237.5"/>
<text text-anchor="start" x="370.5" y="-255.5" font-family="Helvetica,sans-Serif" font-size="10.00">scram::core::Zbdd::</text>
<text text-anchor="middle" x="418" y="-244.5" font-family="Helvetica,sans-Serif" font-size="10.00">Analyze</text>
</a>
</g>
</g>
<!-- Node4&#45;&gt;Node5 -->
<g id="edge4" class="edge"><title>Node4&#45;&gt;Node5</title>
<path fill="none" stroke="midnightblue" d="M293.562,-144.162C299.472,-146.985 305.078,-150.391 310,-154.5 337.159,-177.174 319.694,-201.841 346,-225.5 351.295,-230.262 357.515,-234.216 364.035,-237.492"/>
<polygon fill="midnightblue" stroke="midnightblue" points="294.655,-140.825 284.079,-140.189 291.95,-147.282 294.655,-140.825"/>
</g>
<!-- Node7 -->
<g id="node7" class="node"><title>Node7</title>
<g id="a_node7"><a xlink:href="classscram_1_1core_1_1Zbdd.xhtml#af92e04ed908364e0177ce444d7b72712" target="_top" xlink:title="The common constructor to initialize member variables. ">
<polygon fill="white" stroke="black" points="539,-102 539,-121 676,-121 676,-102 539,-102"/>
<text text-anchor="middle" x="607.5" y="-109" font-family="Helvetica,sans-Serif" font-size="10.00">scram::core::Zbdd::Zbdd</text>
</a>
</g>
</g>
<!-- Node4&#45;&gt;Node7 -->
<g id="edge6" class="edge"><title>Node4&#45;&gt;Node7</title>
<path fill="none" stroke="midnightblue" d="M294.517,-127.223C362.78,-123.783 469.625,-118.398 538.859,-114.909"/>
<polygon fill="midnightblue" stroke="midnightblue" points="294.13,-123.738 284.319,-127.737 294.483,-130.729 294.13,-123.738"/>
</g>
<!-- Node8 -->
<g id="node8" class="node"><title>Node8</title>
<g id="a_node8"><a xlink:href="classscram_1_1core_1_1Zbdd.xhtml#a499a8bc4bc3854e7b2928c08515243cf" target="_top" xlink:title="Specialization of Apply for AND operator for non&#45;terminal ZBDD vertices. ">
<polygon fill="white" stroke="black" points="362.5,-137.5 362.5,-167.5 473.5,-167.5 473.5,-137.5 362.5,-137.5"/>
<text text-anchor="start" x="370.5" y="-155.5" font-family="Helvetica,sans-Serif" font-size="10.00">scram::core::Zbdd::</text>
<text text-anchor="middle" x="418" y="-144.5" font-family="Helvetica,sans-Serif" font-size="10.00">Apply</text>
</a>
</g>
</g>
<!-- Node4&#45;&gt;Node8 -->
<g id="edge7" class="edge"><title>Node4&#45;&gt;Node8</title>
<path fill="none" stroke="midnightblue" d="M294.223,-138.094C316.368,-140.692 340.91,-143.572 362.195,-146.07"/>
<polygon fill="midnightblue" stroke="midnightblue" points="294.577,-134.612 284.237,-136.922 293.761,-141.564 294.577,-134.612"/>
</g>
<!-- Node9 -->
<g id="node9" class="node"><title>Node9</title>
<g id="a_node9"><a xlink:href="classscram_1_1core_1_1Zbdd.xhtml#ac3ac27090b550d973b20bd971c3de9f9" target="_top" xlink:title="Removes complements of variables from products. ">
<polygon fill="white" stroke="black" points="354,-186.5 354,-216.5 482,-216.5 482,-186.5 354,-186.5"/>
<text text-anchor="start" x="362" y="-204.5" font-family="Helvetica,sans-Serif" font-size="10.00">scram::core::Zbdd::</text>
<text text-anchor="middle" x="418" y="-193.5" font-family="Helvetica,sans-Serif" font-size="10.00">EliminateComplements</text>
</a>
</g>
</g>
<!-- Node4&#45;&gt;Node9 -->
<g id="edge8" class="edge"><title>Node4&#45;&gt;Node9</title>
<path fill="none" stroke="midnightblue" d="M294.14,-148.145C299.57,-150.116 304.921,-152.237 310,-154.5 327.128,-162.131 329.063,-168.453 346,-176.5 353.554,-180.089 361.769,-183.446 369.842,-186.463"/>
<polygon fill="midnightblue" stroke="midnightblue" points="294.917,-144.71 284.322,-144.759 292.635,-151.328 294.917,-144.71"/>
</g>
<!-- Node11 -->
<g id="node11" class="node"><title>Node11</title>
<g id="a_node11"><a xlink:href="classscram_1_1core_1_1Zbdd.xhtml#aeb83fd37f2aee74ac41e6ccadba82d39" target="_top" xlink:title="Removes constant modules from products. ">
<polygon fill="white" stroke="black" points="346,-49.5 346,-79.5 490,-79.5 490,-49.5 346,-49.5"/>
<text text-anchor="start" x="354" y="-67.5" font-family="Helvetica,sans-Serif" font-size="10.00">scram::core::Zbdd::</text>
<text text-anchor="middle" x="418" y="-56.5" font-family="Helvetica,sans-Serif" font-size="10.00">EliminateConstantModules</text>
</a>
</g>
</g>
<!-- Node4&#45;&gt;Node11 -->
<g id="edge11" class="edge"><title>Node4&#45;&gt;Node11</title>
<path fill="none" stroke="midnightblue" d="M289.847,-112.225C296.666,-110.022 303.497,-107.753 310,-105.5 333.309,-97.4245 359.141,-87.5528 379.584,-79.5195"/>
<polygon fill="midnightblue" stroke="midnightblue" points="288.369,-109.023 279.906,-115.396 290.497,-115.692 288.369,-109.023"/>
</g>
<!-- Node13 -->
<g id="node13" class="node"><title>Node13</title>
<g id="a_node13"><a xlink:href="classscram_1_1core_1_1zbdd_1_1CutSetContainer.xhtml#a1648d3f24a95302fac2a40e95f743dda" target="_top" xlink:title="Minimizes cut sets in the container. ">
<polygon fill="white" stroke="black" points="346,-0.5 346,-30.5 490,-30.5 490,-0.5 346,-0.5"/>
<text text-anchor="start" x="354" y="-18.5" font-family="Helvetica,sans-Serif" font-size="10.00">scram::core::zbdd::</text>
<text text-anchor="middle" x="418" y="-7.5" font-family="Helvetica,sans-Serif" font-size="10.00">CutSetContainer::Minimize</text>
</a>
</g>
</g>
<!-- Node4&#45;&gt;Node13 -->
<g id="edge14" class="edge"><title>Node4&#45;&gt;Node13</title>
<path fill="none" stroke="midnightblue" d="M293.713,-115.722C299.548,-112.889 305.097,-109.516 310,-105.5 335.849,-84.3272 320.416,-60.9924 346,-39.5 350.085,-36.0685 354.682,-33.1206 359.523,-30.5894"/>
<polygon fill="midnightblue" stroke="midnightblue" points="292.165,-112.578 284.36,-119.742 294.929,-119.009 292.165,-112.578"/>
</g>
<!-- Node6 -->
<g id="node6" class="node"><title>Node6</title>
<g id="a_node6"><a xlink:href="classscram_1_1core_1_1FaultTreeAnalyzer.xhtml#aedae0c884539dab245018194771f5021" target="_top" xlink:title="scram::core::FaultTreeAnalyzer\l::algorithm">
<polygon fill="white" stroke="black" points="526,-238.5 526,-268.5 689,-268.5 689,-238.5 526,-238.5"/>
<text text-anchor="start" x="534" y="-256.5" font-family="Helvetica,sans-Serif" font-size="10.00">scram::core::FaultTreeAnalyzer</text>
<text text-anchor="middle" x="607.5" y="-245.5" font-family="Helvetica,sans-Serif" font-size="10.00">::algorithm</text>
</a>
</g>
</g>
<!-- Node5&#45;&gt;Node6 -->
<g id="edge5" class="edge"><title>Node5&#45;&gt;Node6</title>
<path fill="none" stroke="midnightblue" d="M483.899,-252.846C497.444,-252.918 511.878,-252.995 525.911,-253.07"/>
<polygon fill="midnightblue" stroke="midnightblue" points="483.755,-249.345 473.737,-252.792 483.718,-256.345 483.755,-249.345"/>
</g>
<!-- Node9&#45;&gt;Node7 -->
<g id="edge9" class="edge"><title>Node9&#45;&gt;Node7</title>
<path fill="none" stroke="midnightblue" d="M474.69,-182.917C479.912,-180.868 485.086,-178.716 490,-176.5 527.58,-159.549 569.223,-134.746 591.111,-121.205"/>
<polygon fill="midnightblue" stroke="midnightblue" points="473.39,-179.667 465.283,-186.489 475.874,-186.211 473.39,-179.667"/>
</g>
<!-- Node10 -->
<g id="node10" class="node"><title>Node10</title>
<g id="a_node10"><a xlink:href="classscram_1_1core_1_1zbdd_1_1CutSetContainer.xhtml#a49532388bd9b917f4351f94f728518aa" target="_top" xlink:title="Eliminates all complements from cut sets. ">
<polygon fill="white" stroke="black" points="534.5,-179 534.5,-220 680.5,-220 680.5,-179 534.5,-179"/>
<text text-anchor="start" x="542.5" y="-208" font-family="Helvetica,sans-Serif" font-size="10.00">scram::core::zbdd::</text>
<text text-anchor="start" x="542.5" y="-197" font-family="Helvetica,sans-Serif" font-size="10.00">CutSetContainer::Eliminate</text>
<text text-anchor="middle" x="607.5" y="-186" font-family="Helvetica,sans-Serif" font-size="10.00">Complements</text>
</a>
</g>
</g>
<!-- Node9&#45;&gt;Node10 -->
<g id="edge10" class="edge"><title>Node9&#45;&gt;Node10</title>
<path fill="none" stroke="midnightblue" d="M492.548,-200.715C506.237,-200.569 520.53,-200.417 534.182,-200.271"/>
<polygon fill="midnightblue" stroke="midnightblue" points="492.18,-197.219 482.218,-200.826 492.254,-204.219 492.18,-197.219"/>
</g>
<!-- Node11&#45;&gt;Node7 -->
<g id="edge12" class="edge"><title>Node11&#45;&gt;Node7</title>
<path fill="none" stroke="midnightblue" d="M485.024,-82.0443C498.563,-85.5666 512.73,-89.1982 526,-92.5 538.681,-95.6551 552.518,-98.968 565.087,-101.928"/>
<polygon fill="midnightblue" stroke="midnightblue" points="485.859,-78.6449 475.299,-79.505 484.09,-85.4179 485.859,-78.6449"/>
</g>
<!-- Node12 -->
<g id="node12" class="node"><title>Node12</title>
<g id="a_node12"><a xlink:href="classscram_1_1core_1_1zbdd_1_1CutSetContainer.xhtml#a1022ad7a4699257a6f0c0809d8f1903d" target="_top" xlink:title="Removes constant modules from cut sets. ">
<polygon fill="white" stroke="black" points="534.5,-42 534.5,-83 680.5,-83 680.5,-42 534.5,-42"/>
<text text-anchor="start" x="542.5" y="-71" font-family="Helvetica,sans-Serif" font-size="10.00">scram::core::zbdd::</text>
<text text-anchor="start" x="542.5" y="-60" font-family="Helvetica,sans-Serif" font-size="10.00">CutSetContainer::Eliminate</text>
<text text-anchor="middle" x="607.5" y="-49" font-family="Helvetica,sans-Serif" font-size="10.00">ConstantModules</text>
</a>
</g>
</g>
<!-- Node11&#45;&gt;Node12 -->
<g id="edge13" class="edge"><title>Node11&#45;&gt;Node12</title>
<path fill="none" stroke="midnightblue" d="M500.458,-63.6311C511.775,-63.5104 523.334,-63.3871 534.462,-63.2684"/>
<polygon fill="midnightblue" stroke="midnightblue" points="500.115,-60.1345 490.153,-63.741 500.19,-67.1341 500.115,-60.1345"/>
</g>
</g>
</svg>
