<?xml version="1.0" encoding="UTF-8" standalone="no"?>
<!DOCTYPE svg PUBLIC "-//W3C//DTD SVG 1.1//EN"
 "http://www.w3.org/Graphics/SVG/1.1/DTD/svg11.dtd">
<!-- Generated by graphviz version 2.38.0 (20140413.2041)
 -->
<!-- Title: scram::core::SetNode::max_set_order Pages: 1 -->
<!--zoomable 294 -->
<svg id="main" version="1.1" xmlns="http://www.w3.org/2000/svg" xmlns:xlink="http://www.w3.org/1999/xlink" xml:space="preserve" onload="init(evt)">
<style type="text/css"><![CDATA[
.edge:hover path { stroke: red; }
.edge:hover polygon { stroke: red; fill: red; }
]]></style>
<script type="text/javascript"><![CDATA[
var edges = document.getElementsByTagName('g');
if (edges && edges.length) {
  for (var i=0;i<edges.length;i++) {
    if (edges[i].id.substr(0,4)=='edge') {
      edges[i].setAttribute('class','edge');
    }
  }
}
]]></script>
        <defs>
                <circle id="rim" cx="0" cy="0" r="7"/>
                <circle id="rim2" cx="0" cy="0" r="3.5"/>
                <g id="zoomPlus">
                        <use xlink:href="#rim" fill="#404040">
                                <set attributeName="fill" to="#808080" begin="zoomplus.mouseover" end="zoomplus.mouseout"/>
                        </use>
                        <path d="M-4,0h8M0,-4v8" fill="none" stroke="white" stroke-width="1.5" pointer-events="none"/>
                </g>
                <g id="zoomMin">
                        <use xlink:href="#rim" fill="#404040">
                                <set attributeName="fill" to="#808080" begin="zoomminus.mouseover" end="zoomminus.mouseout"/>
                        </use>
                        <path d="M-4,0h8" fill="none" stroke="white" stroke-width="1.5" pointer-events="none"/>
                </g>
                <g id="dirArrow">
                        <path fill="none" stroke="white" stroke-width="1.5" d="M0,-3.0v7 M-2.5,-0.5L0,-3.0L2.5,-0.5"/>
                </g>
               <g id="resetDef">
                       <use xlink:href="#rim2" fill="#404040">
                               <set attributeName="fill" to="#808080" begin="reset.mouseover" end="reset.mouseout"/>
                       </use>
               </g>
        </defs>

<script type="text/javascript">
var viewWidth = 905;
var viewHeight = 294;
var sectionId = 'dynsection-2';
</script>
<script xlink:href="svgpan.js"/>
<svg id="graph" class="graph">
<g id="viewport">
<title>scram::core::SetNode::max_set_order</title>
<polygon fill="white" stroke="none" points="-4,4 -4,-289.5 901,-289.5 901,4 -4,4"/>
<!-- Node1 -->
<g id="node1" class="node"><title>Node1</title>
<polygon fill="#bfbfbf" stroke="black" points="0,-138 0,-168 122,-168 122,-138 0,-138"/>
<text text-anchor="start" x="8" y="-156" font-family="Helvetica,sans-Serif" font-size="10.00">scram::core::SetNode</text>
<text text-anchor="middle" x="61" y="-145" font-family="Helvetica,sans-Serif" font-size="10.00">::max_set_order</text>
</g>
<!-- Node2 -->
<g id="node2" class="node"><title>Node2</title>
<g id="a_node2"><a xlink:href="classscram_1_1core_1_1Zbdd.xhtml#a77945d28bd832d2735969d0b0a451c78" target="_top" xlink:title="Runs the analysis with the representation of a PDAG as ZBDD. ">
<polygon fill="white" stroke="black" points="570.5,-255 570.5,-285 681.5,-285 681.5,-255 570.5,-255"/>
<text text-anchor="start" x="578.5" y="-273" font-family="Helvetica,sans-Serif" font-size="10.00">scram::core::Zbdd::</text>
<text text-anchor="middle" x="626" y="-262" font-family="Helvetica,sans-Serif" font-size="10.00">Analyze</text>
</a>
</g>
</g>
<!-- Node1&#45;&gt;Node2 -->
<g id="edge1" class="edge"><title>Node1&#45;&gt;Node2</title>
<path fill="none" stroke="midnightblue" d="M81.5199,-175.702C99.3245,-194.67 127.451,-220.553 158,-233 297.905,-290.002 480.647,-283.764 570.407,-276.048"/>
<polygon fill="midnightblue" stroke="midnightblue" points="84.0969,-173.334 74.7692,-168.309 78.9277,-178.054 84.0969,-173.334"/>
</g>
<!-- Node4 -->
<g id="node4" class="node"><title>Node4</title>
<g id="a_node4"><a xlink:href="classscram_1_1core_1_1Zbdd.xhtml#a363960002737004ea45f67758d9ac17d" target="_top" xlink:title="Specialization of Apply for AND operator for any ZBDD vertices. ">
<polygon fill="white" stroke="black" points="183,-114 183,-144 294,-144 294,-114 183,-114"/>
<text text-anchor="start" x="191" y="-132" font-family="Helvetica,sans-Serif" font-size="10.00">scram::core::Zbdd::</text>
<text text-anchor="middle" x="238.5" y="-121" font-family="Helvetica,sans-Serif" font-size="10.00">Apply</text>
</a>
</g>
</g>
<!-- Node1&#45;&gt;Node4 -->
<g id="edge3" class="edge"><title>Node1&#45;&gt;Node4</title>
<path fill="none" stroke="midnightblue" d="M132.677,-143.335C149.402,-141.048 166.988,-138.643 182.876,-136.47"/>
<polygon fill="midnightblue" stroke="midnightblue" points="131.831,-139.918 122.397,-144.741 132.779,-146.853 131.831,-139.918"/>
</g>
<!-- Node5 -->
<g id="node5" class="node"><title>Node5</title>
<g id="a_node5"><a xlink:href="classscram_1_1core_1_1Zbdd.xhtml#ac3ac27090b550d973b20bd971c3de9f9" target="_top" xlink:title="Removes complements of variables from products. ">
<polygon fill="white" stroke="black" points="562,-194 562,-224 690,-224 690,-194 562,-194"/>
<text text-anchor="start" x="570" y="-212" font-family="Helvetica,sans-Serif" font-size="10.00">scram::core::Zbdd::</text>
<text text-anchor="middle" x="626" y="-201" font-family="Helvetica,sans-Serif" font-size="10.00">EliminateComplements</text>
</a>
</g>
</g>
<!-- Node1&#45;&gt;Node5 -->
<g id="edge4" class="edge"><title>Node1&#45;&gt;Node5</title>
<path fill="none" stroke="midnightblue" d="M93.9845,-173.368C112.083,-183.924 135.532,-196.033 158,-203 311.16,-250.496 358.201,-240.347 518,-227 532.267,-225.808 547.493,-223.738 561.852,-221.415"/>
<polygon fill="midnightblue" stroke="midnightblue" points="95.421,-170.149 85.0414,-168.025 91.8308,-176.158 95.421,-170.149"/>
</g>
<!-- Node8 -->
<g id="node8" class="node"><title>Node8</title>
<g id="a_node8"><a xlink:href="classscram_1_1core_1_1zbdd_1_1CutSetContainer.xhtml#a59985023f1eba639571610ad9a0b2a41" target="_top" xlink:title="Expands the intermediate ZBDD representation of a gate in intermediate cut sets containing the gate...">
<polygon fill="white" stroke="black" points="158,-65 158,-95 319,-95 319,-65 158,-65"/>
<text text-anchor="start" x="166" y="-83" font-family="Helvetica,sans-Serif" font-size="10.00">scram::core::zbdd::</text>
<text text-anchor="middle" x="238.5" y="-72" font-family="Helvetica,sans-Serif" font-size="10.00">CutSetContainer::ExpandGate</text>
</a>
</g>
</g>
<!-- Node1&#45;&gt;Node8 -->
<g id="edge7" class="edge"><title>Node1&#45;&gt;Node8</title>
<path fill="none" stroke="midnightblue" d="M98.0615,-133.263C115.806,-123.994 137.698,-113.207 158,-105 166.719,-101.475 176.136,-98.1289 185.334,-95.0973"/>
<polygon fill="midnightblue" stroke="midnightblue" points="96.3974,-130.183 89.1907,-137.95 99.6676,-136.373 96.3974,-130.183"/>
</g>
<!-- Node9 -->
<g id="node9" class="node"><title>Node9</title>
<g id="a_node9"><a xlink:href="classscram_1_1core_1_1Zbdd.xhtml#a42af18229ba2e80201bc0fdac07b7091" target="_top" xlink:title="Finds or adds a unique SetNode in the ZBDD. ">
<polygon fill="white" stroke="black" points="183,-163 183,-193 294,-193 294,-163 183,-163"/>
<text text-anchor="start" x="191" y="-181" font-family="Helvetica,sans-Serif" font-size="10.00">scram::core::Zbdd::</text>
<text text-anchor="middle" x="238.5" y="-170" font-family="Helvetica,sans-Serif" font-size="10.00">FindOrAddVertex</text>
</a>
</g>
</g>
<!-- Node1&#45;&gt;Node9 -->
<g id="edge8" class="edge"><title>Node1&#45;&gt;Node9</title>
<path fill="none" stroke="midnightblue" d="M132.677,-163.068C149.402,-165.45 166.988,-167.956 182.876,-170.219"/>
<polygon fill="midnightblue" stroke="midnightblue" points="132.791,-159.549 122.397,-161.604 131.804,-166.479 132.791,-159.549"/>
</g>
<!-- Node18 -->
<g id="node18" class="node"><title>Node18</title>
<g id="a_node18"><a xlink:href="classscram_1_1core_1_1zbdd_1_1CutSetContainer.xhtml#a87489caef0ebb8e4b62c600455da84a2" target="_top" xlink:title="Merges a set of cut sets into the main container. ">
<polygon fill="white" stroke="black" points="172.5,-16 172.5,-46 304.5,-46 304.5,-16 172.5,-16"/>
<text text-anchor="start" x="180.5" y="-34" font-family="Helvetica,sans-Serif" font-size="10.00">scram::core::zbdd::</text>
<text text-anchor="middle" x="238.5" y="-23" font-family="Helvetica,sans-Serif" font-size="10.00">CutSetContainer::Merge</text>
</a>
</g>
</g>
<!-- Node1&#45;&gt;Node18 -->
<g id="edge21" class="edge"><title>Node1&#45;&gt;Node18</title>
<path fill="none" stroke="midnightblue" d="M79.375,-129.817C96.9529,-107.882 126.034,-75.4941 158,-56 164.3,-52.1581 171.245,-48.8547 178.328,-46.0278"/>
<polygon fill="midnightblue" stroke="midnightblue" points="76.4181,-127.916 73.0032,-137.946 81.9272,-132.235 76.4181,-127.916"/>
</g>
<!-- Node3 -->
<g id="node3" class="node"><title>Node3</title>
<g id="a_node3"><a xlink:href="classscram_1_1core_1_1FaultTreeAnalyzer.xhtml#aedae0c884539dab245018194771f5021" target="_top" xlink:title="scram::core::FaultTreeAnalyzer\l::algorithm">
<polygon fill="white" stroke="black" points="734,-255 734,-285 897,-285 897,-255 734,-255"/>
<text text-anchor="start" x="742" y="-273" font-family="Helvetica,sans-Serif" font-size="10.00">scram::core::FaultTreeAnalyzer</text>
<text text-anchor="middle" x="815.5" y="-262" font-family="Helvetica,sans-Serif" font-size="10.00">::algorithm</text>
</a>
</g>
</g>
<!-- Node2&#45;&gt;Node3 -->
<g id="edge2" class="edge"><title>Node2&#45;&gt;Node3</title>
<path fill="none" stroke="midnightblue" d="M691.899,-270C705.444,-270 719.878,-270 733.911,-270"/>
<polygon fill="midnightblue" stroke="midnightblue" points="691.737,-266.5 681.737,-270 691.737,-273.5 691.737,-266.5"/>
</g>
<!-- Node6 -->
<g id="node6" class="node"><title>Node6</title>
<g id="a_node6"><a xlink:href="classscram_1_1core_1_1Zbdd.xhtml#af92e04ed908364e0177ce444d7b72712" target="_top" xlink:title="The common constructor to initialize member variables. ">
<polygon fill="white" stroke="black" points="747,-60.5 747,-79.5 884,-79.5 884,-60.5 747,-60.5"/>
<text text-anchor="middle" x="815.5" y="-67.5" font-family="Helvetica,sans-Serif" font-size="10.00">scram::core::Zbdd::Zbdd</text>
</a>
</g>
</g>
<!-- Node5&#45;&gt;Node6 -->
<g id="edge5" class="edge"><title>Node5&#45;&gt;Node6</title>
<path fill="none" stroke="midnightblue" d="M689.79,-189.583C692.62,-188.147 695.371,-186.621 698,-185 746.385,-155.172 790.274,-101.76 807.161,-79.8193"/>
<polygon fill="midnightblue" stroke="midnightblue" points="688.15,-186.485 680.547,-193.864 691.092,-192.837 688.15,-186.485"/>
</g>
<!-- Node7 -->
<g id="node7" class="node"><title>Node7</title>
<g id="a_node7"><a xlink:href="classscram_1_1core_1_1zbdd_1_1CutSetContainer.xhtml#a49532388bd9b917f4351f94f728518aa" target="_top" xlink:title="Eliminates all complements from cut sets. ">
<polygon fill="white" stroke="black" points="742.5,-188.5 742.5,-229.5 888.5,-229.5 888.5,-188.5 742.5,-188.5"/>
<text text-anchor="start" x="750.5" y="-217.5" font-family="Helvetica,sans-Serif" font-size="10.00">scram::core::zbdd::</text>
<text text-anchor="start" x="750.5" y="-206.5" font-family="Helvetica,sans-Serif" font-size="10.00">CutSetContainer::Eliminate</text>
<text text-anchor="middle" x="815.5" y="-195.5" font-family="Helvetica,sans-Serif" font-size="10.00">Complements</text>
</a>
</g>
</g>
<!-- Node5&#45;&gt;Node7 -->
<g id="edge6" class="edge"><title>Node5&#45;&gt;Node7</title>
<path fill="none" stroke="midnightblue" d="M700.548,-209C714.237,-209 728.53,-209 742.182,-209"/>
<polygon fill="midnightblue" stroke="midnightblue" points="700.218,-205.5 690.218,-209 700.218,-212.5 700.218,-205.5"/>
</g>
<!-- Node10 -->
<g id="node10" class="node"><title>Node10</title>
<g id="a_node10"><a xlink:href="classscram_1_1core_1_1Zbdd.xhtml#a38b5c81971df473b1b46de59d0752c81" target="_top" xlink:title="Constructor with the analysis target. ">
<polygon fill="white" stroke="black" points="368,-50.5 368,-69.5 505,-69.5 505,-50.5 368,-50.5"/>
<text text-anchor="middle" x="436.5" y="-57.5" font-family="Helvetica,sans-Serif" font-size="10.00">scram::core::Zbdd::Zbdd</text>
</a>
</g>
</g>
<!-- Node9&#45;&gt;Node10 -->
<g id="edge9" class="edge"><title>Node9&#45;&gt;Node10</title>
<path fill="none" stroke="midnightblue" d="M303.762,-163.887C309.243,-161.155 314.43,-157.893 319,-154 346.841,-130.282 326.578,-103.019 355,-80 360.371,-75.6495 366.559,-72.2273 373.067,-69.5382"/>
<polygon fill="midnightblue" stroke="midnightblue" points="302.083,-160.801 294.314,-168.005 304.88,-167.218 302.083,-160.801"/>
</g>
<!-- Node11 -->
<g id="node11" class="node"><title>Node11</title>
<g id="a_node11"><a xlink:href="classscram_1_1core_1_1Zbdd.xhtml#ac90d12f0c653c679d22109124fa6344c" target="_top" xlink:title="Find or adds a ZBDD SetNode vertex using information from gates. ">
<polygon fill="white" stroke="black" points="381,-187 381,-217 492,-217 492,-187 381,-187"/>
<text text-anchor="start" x="389" y="-205" font-family="Helvetica,sans-Serif" font-size="10.00">scram::core::Zbdd::</text>
<text text-anchor="middle" x="436.5" y="-194" font-family="Helvetica,sans-Serif" font-size="10.00">FindOrAddVertex</text>
</a>
</g>
</g>
<!-- Node9&#45;&gt;Node11 -->
<g id="edge10" class="edge"><title>Node9&#45;&gt;Node11</title>
<path fill="none" stroke="midnightblue" d="M304.156,-185.917C328.985,-188.957 357.057,-192.395 380.856,-195.309"/>
<polygon fill="midnightblue" stroke="midnightblue" points="304.448,-182.427 294.097,-184.685 303.597,-189.375 304.448,-182.427"/>
</g>
<!-- Node12 -->
<g id="node12" class="node"><title>Node12</title>
<g id="a_node12"><a xlink:href="classscram_1_1core_1_1Zbdd.xhtml#a3dbb8ef5da2882daf6c39e9724eae459" target="_top" xlink:title="Removes subsets in ZBDD. ">
<polygon fill="white" stroke="black" points="381,-89 381,-119 492,-119 492,-89 381,-89"/>
<text text-anchor="start" x="389" y="-107" font-family="Helvetica,sans-Serif" font-size="10.00">scram::core::Zbdd::</text>
<text text-anchor="middle" x="436.5" y="-96" font-family="Helvetica,sans-Serif" font-size="10.00">Minimize</text>
</a>
</g>
</g>
<!-- Node9&#45;&gt;Node12 -->
<g id="edge11" class="edge"><title>Node9&#45;&gt;Node12</title>
<path fill="none" stroke="midnightblue" d="M303.743,-160.534C308.984,-158.53 314.132,-156.352 319,-154 336.54,-145.525 337.494,-137.544 355,-129 363.154,-125.02 372.08,-121.502 380.926,-118.455"/>
<polygon fill="midnightblue" stroke="midnightblue" points="302.47,-157.273 294.249,-163.955 304.843,-163.858 302.47,-157.273"/>
</g>
<!-- Node17 -->
<g id="node17" class="node"><title>Node17</title>
<g id="a_node17"><a xlink:href="classscram_1_1core_1_1zbdd_1_1CutSetContainer.xhtml#a15ccbd5b839be87c831a743f0100588e" target="_top" xlink:title="Converts a PDAG gate into intermediate cut sets. ">
<polygon fill="white" stroke="black" points="355,-138 355,-168 518,-168 518,-138 355,-138"/>
<text text-anchor="start" x="363" y="-156" font-family="Helvetica,sans-Serif" font-size="10.00">scram::core::zbdd::</text>
<text text-anchor="middle" x="436.5" y="-145" font-family="Helvetica,sans-Serif" font-size="10.00">CutSetContainer::ConvertGate</text>
</a>
</g>
</g>
<!-- Node9&#45;&gt;Node17 -->
<g id="edge20" class="edge"><title>Node9&#45;&gt;Node17</title>
<path fill="none" stroke="midnightblue" d="M304.47,-169.713C320.584,-167.658 338.047,-165.43 354.811,-163.292"/>
<polygon fill="midnightblue" stroke="midnightblue" points="303.574,-166.299 294.097,-171.036 304.459,-173.243 303.574,-166.299"/>
</g>
<!-- Node12&#45;&gt;Node2 -->
<g id="edge12" class="edge"><title>Node12&#45;&gt;Node2</title>
<path fill="none" stroke="midnightblue" d="M501.245,-117.328C507.389,-120.439 513.133,-124.273 518,-129 553.389,-163.371 521.622,-196.778 554,-234 561.619,-242.759 571.883,-249.646 582.235,-254.946"/>
<polygon fill="midnightblue" stroke="midnightblue" points="502.576,-114.09 492.013,-113.269 499.759,-120.498 502.576,-114.09"/>
</g>
<!-- Node12&#45;&gt;Node5 -->
<g id="edge15" class="edge"><title>Node12&#45;&gt;Node5</title>
<path fill="none" stroke="midnightblue" d="M501.42,-119.149C507.313,-121.908 512.955,-125.163 518,-129 541.549,-146.913 530.675,-166.796 554,-185 558.411,-188.442 563.343,-191.405 568.497,-193.953"/>
<polygon fill="midnightblue" stroke="midnightblue" points="502.58,-115.84 492.004,-115.209 499.877,-122.298 502.58,-115.84"/>
</g>
<!-- Node12&#45;&gt;Node6 -->
<g id="edge13" class="edge"><title>Node12&#45;&gt;Node6</title>
<path fill="none" stroke="midnightblue" d="M502.454,-93.5858C519.214,-91.156 537.251,-88.7657 554,-87 619.355,-80.1102 694.247,-75.5714 746.906,-72.9307"/>
<polygon fill="midnightblue" stroke="midnightblue" points="501.588,-90.1756 492.207,-95.0986 502.611,-97.1006 501.588,-90.1756"/>
</g>
<!-- Node13 -->
<g id="node13" class="node"><title>Node13</title>
<g id="a_node13"><a xlink:href="classscram_1_1core_1_1Zbdd.xhtml#a499a8bc4bc3854e7b2928c08515243cf" target="_top" xlink:title="Specialization of Apply for AND operator for non&#45;terminal ZBDD vertices. ">
<polygon fill="white" stroke="black" points="570.5,-145 570.5,-175 681.5,-175 681.5,-145 570.5,-145"/>
<text text-anchor="start" x="578.5" y="-163" font-family="Helvetica,sans-Serif" font-size="10.00">scram::core::Zbdd::</text>
<text text-anchor="middle" x="626" y="-152" font-family="Helvetica,sans-Serif" font-size="10.00">Apply</text>
</a>
</g>
</g>
<!-- Node12&#45;&gt;Node13 -->
<g id="edge14" class="edge"><title>Node12&#45;&gt;Node13</title>
<path fill="none" stroke="midnightblue" d="M497.438,-121.901C522.309,-129.33 550.847,-137.853 574.615,-144.952"/>
<polygon fill="midnightblue" stroke="midnightblue" points="498.33,-118.515 487.747,-119.007 496.327,-125.222 498.33,-118.515"/>
</g>
<!-- Node14 -->
<g id="node14" class="node"><title>Node14</title>
<g id="a_node14"><a xlink:href="classscram_1_1core_1_1Zbdd.xhtml#aeb83fd37f2aee74ac41e6ccadba82d39" target="_top" xlink:title="Removes constant modules from products. ">
<polygon fill="white" stroke="black" points="554,-8 554,-38 698,-38 698,-8 554,-8"/>
<text text-anchor="start" x="562" y="-26" font-family="Helvetica,sans-Serif" font-size="10.00">scram::core::Zbdd::</text>
<text text-anchor="middle" x="626" y="-15" font-family="Helvetica,sans-Serif" font-size="10.00">EliminateConstantModules</text>
</a>
</g>
</g>
<!-- Node12&#45;&gt;Node14 -->
<g id="edge16" class="edge"><title>Node12&#45;&gt;Node14</title>
<path fill="none" stroke="midnightblue" d="M501.654,-86.181C507.276,-83.991 512.8,-81.5976 518,-79 535.656,-70.1797 536.8,-62.6802 554,-53 563.679,-47.5525 574.545,-42.4838 584.811,-38.1209"/>
<polygon fill="midnightblue" stroke="midnightblue" points="500.319,-82.9424 492.138,-89.6746 502.732,-89.5135 500.319,-82.9424"/>
</g>
<!-- Node16 -->
<g id="node16" class="node"><title>Node16</title>
<g id="a_node16"><a xlink:href="classscram_1_1core_1_1zbdd_1_1CutSetContainer.xhtml#a1648d3f24a95302fac2a40e95f743dda" target="_top" xlink:title="Minimizes cut sets in the container. ">
<polygon fill="white" stroke="black" points="554,-96 554,-126 698,-126 698,-96 554,-96"/>
<text text-anchor="start" x="562" y="-114" font-family="Helvetica,sans-Serif" font-size="10.00">scram::core::zbdd::</text>
<text text-anchor="middle" x="626" y="-103" font-family="Helvetica,sans-Serif" font-size="10.00">CutSetContainer::Minimize</text>
</a>
</g>
</g>
<!-- Node12&#45;&gt;Node16 -->
<g id="edge19" class="edge"><title>Node12&#45;&gt;Node16</title>
<path fill="none" stroke="midnightblue" d="M502.373,-106.422C518.964,-107.041 536.892,-107.711 553.782,-108.341"/>
<polygon fill="midnightblue" stroke="midnightblue" points="502.36,-102.919 492.237,-106.044 502.099,-109.914 502.36,-102.919"/>
</g>
<!-- Node14&#45;&gt;Node6 -->
<g id="edge17" class="edge"><title>Node14&#45;&gt;Node6</title>
<path fill="none" stroke="midnightblue" d="M693.024,-40.5443C706.563,-44.0666 720.73,-47.6982 734,-51 746.681,-54.1551 760.518,-57.468 773.087,-60.4277"/>
<polygon fill="midnightblue" stroke="midnightblue" points="693.859,-37.1449 683.299,-38.005 692.09,-43.9179 693.859,-37.1449"/>
</g>
<!-- Node15 -->
<g id="node15" class="node"><title>Node15</title>
<g id="a_node15"><a xlink:href="classscram_1_1core_1_1zbdd_1_1CutSetContainer.xhtml#a1022ad7a4699257a6f0c0809d8f1903d" target="_top" xlink:title="Removes constant modules from cut sets. ">
<polygon fill="white" stroke="black" points="742.5,-0.5 742.5,-41.5 888.5,-41.5 888.5,-0.5 742.5,-0.5"/>
<text text-anchor="start" x="750.5" y="-29.5" font-family="Helvetica,sans-Serif" font-size="10.00">scram::core::zbdd::</text>
<text text-anchor="start" x="750.5" y="-18.5" font-family="Helvetica,sans-Serif" font-size="10.00">CutSetContainer::Eliminate</text>
<text text-anchor="middle" x="815.5" y="-7.5" font-family="Helvetica,sans-Serif" font-size="10.00">ConstantModules</text>
</a>
</g>
</g>
<!-- Node14&#45;&gt;Node15 -->
<g id="edge18" class="edge"><title>Node14&#45;&gt;Node15</title>
<path fill="none" stroke="midnightblue" d="M708.458,-22.1311C719.775,-22.0104 731.334,-21.8871 742.462,-21.7684"/>
<polygon fill="midnightblue" stroke="midnightblue" points="708.115,-18.6345 698.153,-22.241 708.19,-25.6341 708.115,-18.6345"/>
</g>
</g>
</svg>
        <g id="navigator" transform="translate(0 0)" fill="#404254">
                <rect fill="#f2f5e9" fill-opacity="0.5" stroke="#606060" stroke-width=".5" x="0" y="0" width="60" height="60"/>
                <use id="zoomplus" xlink:href="#zoomPlus" x="17" y="9" onmousedown="handleZoom(evt,'in')"/>
                <use id="zoomminus" xlink:href="#zoomMin" x="42" y="9" onmousedown="handleZoom(evt,'out')"/>
                <use id="reset" xlink:href="#resetDef" x="30" y="36" onmousedown="handleReset()"/>
                <g id="arrowUp" xlink:href="#dirArrow" transform="translate(30 24)" onmousedown="handlePan(0,-1)">
                  <use xlink:href="#rim" fill="#404040">
                        <set attributeName="fill" to="#808080" begin="arrowUp.mouseover" end="arrowUp.mouseout"/>
                  </use>
                  <path fill="none" stroke="white" stroke-width="1.5" d="M0,-3.0v7 M-2.5,-0.5L0,-3.0L2.5,-0.5"/>
                </g>
                <g id="arrowRight" xlink:href="#dirArrow" transform="rotate(90) translate(36 -43)" onmousedown="handlePan(1,0)">
                  <use xlink:href="#rim" fill="#404040">
                        <set attributeName="fill" to="#808080" begin="arrowRight.mouseover" end="arrowRight.mouseout"/>
                  </use>
                  <path fill="none" stroke="white" stroke-width="1.5" d="M0,-3.0v7 M-2.5,-0.5L0,-3.0L2.5,-0.5"/>
                </g>
                <g id="arrowDown" xlink:href="#dirArrow" transform="rotate(180) translate(-30 -48)" onmousedown="handlePan(0,1)">
                  <use xlink:href="#rim" fill="#404040">
                        <set attributeName="fill" to="#808080" begin="arrowDown.mouseover" end="arrowDown.mouseout"/>
                  </use>
                  <path fill="none" stroke="white" stroke-width="1.5" d="M0,-3.0v7 M-2.5,-0.5L0,-3.0L2.5,-0.5"/>
                </g>
                <g id="arrowLeft" xlink:href="#dirArrow" transform="rotate(270) translate(-36 17)" onmousedown="handlePan(-1,0)">
                  <use xlink:href="#rim" fill="#404040">
                        <set attributeName="fill" to="#808080" begin="arrowLeft.mouseover" end="arrowLeft.mouseout"/>
                  </use>
                  <path fill="none" stroke="white" stroke-width="1.5" d="M0,-3.0v7 M-2.5,-0.5L0,-3.0L2.5,-0.5"/>
                </g>
        </g>
        <svg viewBox="0 0 15 15" width="100%" height="30px" preserveAspectRatio="xMaxYMin meet">
         <g id="arrow_out" transform="scale(0.3 0.3)">
          <a xlink:href="classscram_1_1core_1_1SetNode_a2d7f99792b82961df2e5ecfcd735bb5f_icgraph_org.svg" target="_base">
           <rect id="button" ry="5" rx="5" y="6" x="6" height="38" width="38"
                fill="#f2f5e9" fill-opacity="0.5" stroke="#606060" stroke-width="1.0"/>
           <path id="arrow"
             d="M 11.500037,31.436501 C 11.940474,20.09759 22.043105,11.32322 32.158766,21.979434 L 37.068811,17.246167 C 37.068811,17.246167 37.088388,32 37.088388,32 L 22.160133,31.978069 C 22.160133,31.978069 26.997745,27.140456 26.997745,27.140456 C 18.528582,18.264221 13.291696,25.230495 11.500037,31.436501 z"
             style="fill:#404040;"/>
          </a>
         </g>
        </svg>
</svg>
