<?xml version="1.0" encoding="UTF-8" standalone="no"?>
<!DOCTYPE svg PUBLIC "-//W3C//DTD SVG 1.1//EN"
 "http://www.w3.org/Graphics/SVG/1.1/DTD/svg11.dtd">
<!-- Generated by graphviz version 2.38.0 (20140413.2041)
 -->
<!-- Title: scram::core::Settings::limit_order Pages: 1 -->
<svg width="537pt" height="558pt"
 viewBox="0.00 0.00 537.00 558.00" xmlns="http://www.w3.org/2000/svg" xmlns:xlink="http://www.w3.org/1999/xlink">
<g id="graph0" class="graph" transform="scale(1 1) rotate(0) translate(4 554)">
<title>scram::core::Settings::limit_order</title>
<polygon fill="white" stroke="none" points="-4,4 -4,-554 533,-554 533,4 -4,4"/>
<!-- Node1 -->
<g id="node1" class="node"><title>Node1</title>
<polygon fill="#bfbfbf" stroke="black" points="0,-262.5 0,-292.5 119,-292.5 119,-262.5 0,-262.5"/>
<text text-anchor="start" x="8" y="-280.5" font-family="Helvetica,sans-Serif" font-size="10.00">scram::core::Settings</text>
<text text-anchor="middle" x="59.5" y="-269.5" font-family="Helvetica,sans-Serif" font-size="10.00">::limit_order</text>
</g>
<!-- Node2 -->
<g id="node2" class="node"><title>Node2</title>
<g id="a_node2"><a xlink:href="classscram_1_1core_1_1Mocus.xhtml#a008348c27bdc85ad9d0d106b18dcc1a2" target="_top" xlink:title="Finds minimal cut sets from the PDAG. ">
<polygon fill="white" stroke="black" points="181.5,-519.5 181.5,-549.5 291.5,-549.5 291.5,-519.5 181.5,-519.5"/>
<text text-anchor="start" x="189.5" y="-537.5" font-family="Helvetica,sans-Serif" font-size="10.00">scram::core::Mocus</text>
<text text-anchor="middle" x="236.5" y="-526.5" font-family="Helvetica,sans-Serif" font-size="10.00">::Analyze</text>
</a>
</g>
</g>
<!-- Node1&#45;&gt;Node2 -->
<g id="edge1" class="edge"><title>Node1&#45;&gt;Node2</title>
<path fill="none" stroke="midnightblue" d="M63.5279,-302.617C70.608,-350.215 92.6605,-453.85 155,-510.5 162.447,-517.267 171.728,-522.13 181.313,-525.624"/>
<polygon fill="midnightblue" stroke="midnightblue" points="66.9741,-301.987 62.1339,-292.562 60.0404,-302.948 66.9741,-301.987"/>
</g>
<!-- Node3 -->
<g id="node3" class="node"><title>Node3</title>
<g id="a_node3"><a xlink:href="classscram_1_1core_1_1FaultTreeAnalysis.xhtml#a327afc0524cff5289c3887357487266b" target="_top" xlink:title="Analyzes the fault tree and performs computations. ">
<polygon fill="white" stroke="black" points="156,-470.5 156,-500.5 317,-500.5 317,-470.5 156,-470.5"/>
<text text-anchor="start" x="164" y="-488.5" font-family="Helvetica,sans-Serif" font-size="10.00">scram::core::FaultTreeAnalysis</text>
<text text-anchor="middle" x="236.5" y="-477.5" font-family="Helvetica,sans-Serif" font-size="10.00">::Analyze</text>
</a>
</g>
</g>
<!-- Node1&#45;&gt;Node3 -->
<g id="edge2" class="edge"><title>Node1&#45;&gt;Node3</title>
<path fill="none" stroke="midnightblue" d="M66.5552,-302.586C77.421,-342.219 104.007,-419.153 155,-461.5 159.151,-464.947 163.784,-467.9 168.672,-470.428"/>
<polygon fill="midnightblue" stroke="midnightblue" points="69.8798,-301.466 63.9563,-292.681 63.1089,-303.242 69.8798,-301.466"/>
</g>
<!-- Node4 -->
<g id="node4" class="node"><title>Node4</title>
<g id="a_node4"><a xlink:href="classscram_1_1core_1_1Zbdd.xhtml#a77945d28bd832d2735969d0b0a451c78" target="_top" xlink:title="Runs the analysis with the representation of a PDAG as ZBDD. ">
<polygon fill="white" stroke="black" points="181,-421.5 181,-451.5 292,-451.5 292,-421.5 181,-421.5"/>
<text text-anchor="start" x="189" y="-439.5" font-family="Helvetica,sans-Serif" font-size="10.00">scram::core::Zbdd::</text>
<text text-anchor="middle" x="236.5" y="-428.5" font-family="Helvetica,sans-Serif" font-size="10.00">Analyze</text>
</a>
</g>
</g>
<!-- Node1&#45;&gt;Node4 -->
<g id="edge3" class="edge"><title>Node1&#45;&gt;Node4</title>
<path fill="none" stroke="midnightblue" d="M71.6596,-302.221C86.4903,-332.344 115.495,-382.766 155,-411.5 162.693,-417.095 171.668,-421.461 180.78,-424.86"/>
<polygon fill="midnightblue" stroke="midnightblue" points="74.6484,-300.358 67.1788,-292.844 68.3325,-303.376 74.6484,-300.358"/>
</g>
<!-- Node6 -->
<g id="node6" class="node"><title>Node6</title>
<g id="a_node6"><a xlink:href="classscram_1_1Config.xhtml#ab0d7940fbb627fab9867821e133eab5d" target="_top" xlink:title="A constructor with configurations for analysis. ">
<polygon fill="white" stroke="black" points="177,-383 177,-402 296,-402 296,-383 177,-383"/>
<text text-anchor="middle" x="236.5" y="-390" font-family="Helvetica,sans-Serif" font-size="10.00">scram::Config::Config</text>
</a>
</g>
</g>
<!-- Node1&#45;&gt;Node6 -->
<g id="edge5" class="edge"><title>Node1&#45;&gt;Node6</title>
<path fill="none" stroke="midnightblue" d="M77.2775,-300.958C94.339,-323.049 122.792,-355.377 155,-373.5 161.883,-377.373 169.524,-380.459 177.28,-382.917"/>
<polygon fill="midnightblue" stroke="midnightblue" points="79.9148,-298.642 71.1032,-292.759 74.323,-302.853 79.9148,-298.642"/>
</g>
<!-- Node7 -->
<g id="node7" class="node"><title>Node7</title>
<g id="a_node7"><a xlink:href="classscram_1_1core_1_1zbdd_1_1CutSetContainer.xhtml#a15ccbd5b839be87c831a743f0100588e" target="_top" xlink:title="Converts a PDAG gate into intermediate cut sets. ">
<polygon fill="white" stroke="black" points="155,-333.5 155,-363.5 318,-363.5 318,-333.5 155,-333.5"/>
<text text-anchor="start" x="163" y="-351.5" font-family="Helvetica,sans-Serif" font-size="10.00">scram::core::zbdd::</text>
<text text-anchor="middle" x="236.5" y="-340.5" font-family="Helvetica,sans-Serif" font-size="10.00">CutSetContainer::ConvertGate</text>
</a>
</g>
</g>
<!-- Node1&#45;&gt;Node7 -->
<g id="edge6" class="edge"><title>Node1&#45;&gt;Node7</title>
<path fill="none" stroke="midnightblue" d="M96.8166,-297.394C114.119,-306.394 135.296,-316.73 155,-324.5 163.14,-327.71 171.886,-330.734 180.508,-333.482"/>
<polygon fill="midnightblue" stroke="midnightblue" points="98.1152,-294.122 87.6367,-292.556 94.8515,-300.314 98.1152,-294.122"/>
</g>
<!-- Node8 -->
<g id="node8" class="node"><title>Node8</title>
<g id="a_node8"><a xlink:href="classscram_1_1core_1_1Zbdd.xhtml#ac3ac27090b550d973b20bd971c3de9f9" target="_top" xlink:title="Removes complements of variables from products. ">
<polygon fill="white" stroke="black" points="172.5,-196.5 172.5,-226.5 300.5,-226.5 300.5,-196.5 172.5,-196.5"/>
<text text-anchor="start" x="180.5" y="-214.5" font-family="Helvetica,sans-Serif" font-size="10.00">scram::core::Zbdd::</text>
<text text-anchor="middle" x="236.5" y="-203.5" font-family="Helvetica,sans-Serif" font-size="10.00">EliminateComplements</text>
</a>
</g>
</g>
<!-- Node1&#45;&gt;Node8 -->
<g id="edge7" class="edge"><title>Node1&#45;&gt;Node8</title>
<path fill="none" stroke="midnightblue" d="M109.407,-258.791C124.061,-253.207 140.176,-247.086 155,-241.5 167.98,-236.609 182.153,-231.313 194.939,-226.551"/>
<polygon fill="midnightblue" stroke="midnightblue" points="108.114,-255.539 100.017,-262.373 110.608,-262.079 108.114,-255.539"/>
</g>
<!-- Node9 -->
<g id="node9" class="node"><title>Node9</title>
<g id="a_node9"><a xlink:href="classscram_1_1core_1_1Zbdd.xhtml#af92e04ed908364e0177ce444d7b72712" target="_top" xlink:title="The common constructor to initialize member variables. ">
<polygon fill="white" stroke="black" points="373,-246 373,-265 510,-265 510,-246 373,-246"/>
<text text-anchor="middle" x="441.5" y="-253" font-family="Helvetica,sans-Serif" font-size="10.00">scram::core::Zbdd::Zbdd</text>
</a>
</g>
</g>
<!-- Node1&#45;&gt;Node9 -->
<g id="edge19" class="edge"><title>Node1&#45;&gt;Node9</title>
<path fill="none" stroke="midnightblue" d="M129.385,-273.512C198.493,-269.511 304.261,-263.388 372.907,-259.413"/>
<polygon fill="midnightblue" stroke="midnightblue" points="128.823,-270.038 119.042,-274.111 129.228,-277.027 128.823,-270.038"/>
</g>
<!-- Node11 -->
<g id="node11" class="node"><title>Node11</title>
<g id="a_node11"><a xlink:href="classscram_1_1core_1_1Zbdd.xhtml#aeb83fd37f2aee74ac41e6ccadba82d39" target="_top" xlink:title="Removes constant modules from products. ">
<polygon fill="white" stroke="black" points="164.5,-284.5 164.5,-314.5 308.5,-314.5 308.5,-284.5 164.5,-284.5"/>
<text text-anchor="start" x="172.5" y="-302.5" font-family="Helvetica,sans-Serif" font-size="10.00">scram::core::Zbdd::</text>
<text text-anchor="middle" x="236.5" y="-291.5" font-family="Helvetica,sans-Serif" font-size="10.00">EliminateConstantModules</text>
</a>
</g>
</g>
<!-- Node1&#45;&gt;Node11 -->
<g id="edge10" class="edge"><title>Node1&#45;&gt;Node11</title>
<path fill="none" stroke="midnightblue" d="M129.274,-286.146C140.828,-287.598 152.839,-289.108 164.449,-290.568"/>
<polygon fill="midnightblue" stroke="midnightblue" points="129.618,-282.662 119.259,-284.887 128.745,-289.607 129.618,-282.662"/>
</g>
<!-- Node13 -->
<g id="node13" class="node"><title>Node13</title>
<g id="a_node13"><a xlink:href="classscram_1_1core_1_1zbdd_1_1CutSetContainer.xhtml#a59985023f1eba639571610ad9a0b2a41" target="_top" xlink:title="Expands the intermediate ZBDD representation of a gate in intermediate cut sets containing the gate...">
<polygon fill="white" stroke="black" points="156,-98.5 156,-128.5 317,-128.5 317,-98.5 156,-98.5"/>
<text text-anchor="start" x="164" y="-116.5" font-family="Helvetica,sans-Serif" font-size="10.00">scram::core::zbdd::</text>
<text text-anchor="middle" x="236.5" y="-105.5" font-family="Helvetica,sans-Serif" font-size="10.00">CutSetContainer::ExpandGate</text>
</a>
</g>
</g>
<!-- Node1&#45;&gt;Node13 -->
<g id="edge13" class="edge"><title>Node1&#45;&gt;Node13</title>
<path fill="none" stroke="midnightblue" d="M70.7785,-253.234C85.1524,-222.166 114.16,-168.743 155,-138.5 160.175,-134.668 165.949,-131.415 171.963,-128.654"/>
<polygon fill="midnightblue" stroke="midnightblue" points="67.5312,-251.922 66.6294,-262.478 73.9174,-254.788 67.5312,-251.922"/>
</g>
<!-- Node14 -->
<g id="node14" class="node"><title>Node14</title>
<g id="a_node14"><a xlink:href="classscram_1_1core_1_1Zbdd.xhtml#ac90d12f0c653c679d22109124fa6344c" target="_top" xlink:title="Find or adds a ZBDD SetNode vertex using information from gates. ">
<polygon fill="white" stroke="black" points="181,-49.5 181,-79.5 292,-79.5 292,-49.5 181,-49.5"/>
<text text-anchor="start" x="189" y="-67.5" font-family="Helvetica,sans-Serif" font-size="10.00">scram::core::Zbdd::</text>
<text text-anchor="middle" x="236.5" y="-56.5" font-family="Helvetica,sans-Serif" font-size="10.00">FindOrAddVertex</text>
</a>
</g>
</g>
<!-- Node1&#45;&gt;Node14 -->
<g id="edge14" class="edge"><title>Node1&#45;&gt;Node14</title>
<path fill="none" stroke="midnightblue" d="M66.13,-252.604C76.5673,-212.171 102.774,-132.351 155,-88.5 162.483,-82.217 171.563,-77.5788 180.892,-74.1548"/>
<polygon fill="midnightblue" stroke="midnightblue" points="62.6991,-251.898 63.7024,-262.446 69.4954,-253.575 62.6991,-251.898"/>
</g>
<!-- Node15 -->
<g id="node15" class="node"><title>Node15</title>
<g id="a_node15"><a xlink:href="classscram_1_1core_1_1Zbdd.xhtml#a516f0d2f35ad213399f83fb9ab102561" target="_top" xlink:title="Traverses ZBDD to find modules and adjusted cut&#45;offs. ">
<polygon fill="white" stroke="black" points="181,-147.5 181,-177.5 292,-177.5 292,-147.5 181,-147.5"/>
<text text-anchor="start" x="189" y="-165.5" font-family="Helvetica,sans-Serif" font-size="10.00">scram::core::Zbdd::</text>
<text text-anchor="middle" x="236.5" y="-154.5" font-family="Helvetica,sans-Serif" font-size="10.00">GatherModules</text>
</a>
</g>
</g>
<!-- Node1&#45;&gt;Node15 -->
<g id="edge15" class="edge"><title>Node1&#45;&gt;Node15</title>
<path fill="none" stroke="midnightblue" d="M79.289,-254.362C96.8983,-234.078 124.952,-205.148 155,-187.5 162.95,-182.831 171.862,-178.946 180.781,-175.741"/>
<polygon fill="midnightblue" stroke="midnightblue" points="76.4355,-252.315 72.6273,-262.202 81.7698,-256.848 76.4355,-252.315"/>
</g>
<!-- Node17 -->
<g id="node17" class="node"><title>Node17</title>
<g id="a_node17"><a xlink:href="classscram_1_1core_1_1zbdd_1_1CutSetContainer.xhtml#a87489caef0ebb8e4b62c600455da84a2" target="_top" xlink:title="Merges a set of cut sets into the main container. ">
<polygon fill="white" stroke="black" points="170.5,-0.5 170.5,-30.5 302.5,-30.5 302.5,-0.5 170.5,-0.5"/>
<text text-anchor="start" x="178.5" y="-18.5" font-family="Helvetica,sans-Serif" font-size="10.00">scram::core::zbdd::</text>
<text text-anchor="middle" x="236.5" y="-7.5" font-family="Helvetica,sans-Serif" font-size="10.00">CutSetContainer::Merge</text>
</a>
</g>
</g>
<!-- Node1&#45;&gt;Node17 -->
<g id="edge18" class="edge"><title>Node1&#45;&gt;Node17</title>
<path fill="none" stroke="midnightblue" d="M63.3085,-252.205C70.0425,-203.764 91.57,-97.5672 155,-39.5 159.518,-35.3641 164.72,-31.9393 170.261,-29.1036"/>
<polygon fill="midnightblue" stroke="midnightblue" points="59.7986,-252.058 61.9914,-262.424 66.7411,-252.953 59.7986,-252.058"/>
</g>
<!-- Node5 -->
<g id="node5" class="node"><title>Node5</title>
<g id="a_node5"><a xlink:href="classscram_1_1core_1_1FaultTreeAnalyzer.xhtml#aedae0c884539dab245018194771f5021" target="_top" xlink:title="scram::core::FaultTreeAnalyzer\l::algorithm">
<polygon fill="white" stroke="black" points="360,-421.5 360,-451.5 523,-451.5 523,-421.5 360,-421.5"/>
<text text-anchor="start" x="368" y="-439.5" font-family="Helvetica,sans-Serif" font-size="10.00">scram::core::FaultTreeAnalyzer</text>
<text text-anchor="middle" x="441.5" y="-428.5" font-family="Helvetica,sans-Serif" font-size="10.00">::algorithm</text>
</a>
</g>
</g>
<!-- Node4&#45;&gt;Node5 -->
<g id="edge4" class="edge"><title>Node4&#45;&gt;Node5</title>
<path fill="none" stroke="midnightblue" d="M302.393,-436.5C320.649,-436.5 340.729,-436.5 359.788,-436.5"/>
<polygon fill="midnightblue" stroke="midnightblue" points="302.167,-433 292.167,-436.5 302.167,-440 302.167,-433"/>
</g>
<!-- Node8&#45;&gt;Node9 -->
<g id="edge8" class="edge"><title>Node8&#45;&gt;Node9</title>
<path fill="none" stroke="midnightblue" d="M310.621,-227.349C339.339,-233.574 371.353,-240.512 396.411,-245.944"/>
<polygon fill="midnightblue" stroke="midnightblue" points="311.132,-223.878 300.618,-225.181 309.649,-230.72 311.132,-223.878"/>
</g>
<!-- Node10 -->
<g id="node10" class="node"><title>Node10</title>
<g id="a_node10"><a xlink:href="classscram_1_1core_1_1zbdd_1_1CutSetContainer.xhtml#a49532388bd9b917f4351f94f728518aa" target="_top" xlink:title="Eliminates all complements from cut sets. ">
<polygon fill="white" stroke="black" points="368.5,-186 368.5,-227 514.5,-227 514.5,-186 368.5,-186"/>
<text text-anchor="start" x="376.5" y="-215" font-family="Helvetica,sans-Serif" font-size="10.00">scram::core::zbdd::</text>
<text text-anchor="start" x="376.5" y="-204" font-family="Helvetica,sans-Serif" font-size="10.00">CutSetContainer::Eliminate</text>
<text text-anchor="middle" x="441.5" y="-193" font-family="Helvetica,sans-Serif" font-size="10.00">Complements</text>
</a>
</g>
</g>
<!-- Node8&#45;&gt;Node10 -->
<g id="edge9" class="edge"><title>Node8&#45;&gt;Node10</title>
<path fill="none" stroke="midnightblue" d="M310.834,-209.694C329.512,-209.234 349.571,-208.74 368.197,-208.281"/>
<polygon fill="midnightblue" stroke="midnightblue" points="310.528,-206.2 300.618,-209.945 310.701,-213.198 310.528,-206.2"/>
</g>
<!-- Node11&#45;&gt;Node9 -->
<g id="edge11" class="edge"><title>Node11&#45;&gt;Node9</title>
<path fill="none" stroke="midnightblue" d="M316.687,-282.336C343.858,-276.447 373.274,-270.071 396.613,-265.012"/>
<polygon fill="midnightblue" stroke="midnightblue" points="315.825,-278.942 306.793,-284.481 317.308,-285.783 315.825,-278.942"/>
</g>
<!-- Node12 -->
<g id="node12" class="node"><title>Node12</title>
<g id="a_node12"><a xlink:href="classscram_1_1core_1_1zbdd_1_1CutSetContainer.xhtml#a1022ad7a4699257a6f0c0809d8f1903d" target="_top" xlink:title="Removes constant modules from cut sets. ">
<polygon fill="white" stroke="black" points="368.5,-284 368.5,-325 514.5,-325 514.5,-284 368.5,-284"/>
<text text-anchor="start" x="376.5" y="-313" font-family="Helvetica,sans-Serif" font-size="10.00">scram::core::zbdd::</text>
<text text-anchor="start" x="376.5" y="-302" font-family="Helvetica,sans-Serif" font-size="10.00">CutSetContainer::Eliminate</text>
<text text-anchor="middle" x="441.5" y="-291" font-family="Helvetica,sans-Serif" font-size="10.00">ConstantModules</text>
</a>
</g>
</g>
<!-- Node11&#45;&gt;Node12 -->
<g id="edge12" class="edge"><title>Node11&#45;&gt;Node12</title>
<path fill="none" stroke="midnightblue" d="M318.866,-301.504C335.234,-301.907 352.33,-302.328 368.358,-302.723"/>
<polygon fill="midnightblue" stroke="midnightblue" points="318.868,-298.003 308.785,-301.256 318.696,-305.001 318.868,-298.003"/>
</g>
<!-- Node15&#45;&gt;Node9 -->
<g id="edge16" class="edge"><title>Node15&#45;&gt;Node9</title>
<path fill="none" stroke="midnightblue" d="M301.448,-178.101C307.292,-180.768 312.916,-183.877 318,-187.5 340.007,-203.183 331.347,-221.765 354,-236.5 359.929,-240.356 366.52,-243.44 373.344,-245.905"/>
<polygon fill="midnightblue" stroke="midnightblue" points="302.709,-174.835 292.13,-174.265 300.044,-181.308 302.709,-174.835"/>
</g>
<!-- Node16 -->
<g id="node16" class="node"><title>Node16</title>
<g id="a_node16"><a xlink:href="classscram_1_1core_1_1zbdd_1_1CutSetContainer.xhtml#a478c89f64731781882b50ec55898900b" target="_top" xlink:title="Gathers all module indices in the cut sets. ">
<polygon fill="white" stroke="black" points="354,-137.5 354,-167.5 529,-167.5 529,-137.5 354,-137.5"/>
<text text-anchor="start" x="362" y="-155.5" font-family="Helvetica,sans-Serif" font-size="10.00">scram::core::zbdd::</text>
<text text-anchor="middle" x="441.5" y="-144.5" font-family="Helvetica,sans-Serif" font-size="10.00">CutSetContainer::GatherModules</text>
</a>
</g>
</g>
<!-- Node15&#45;&gt;Node16 -->
<g id="edge17" class="edge"><title>Node15&#45;&gt;Node16</title>
<path fill="none" stroke="midnightblue" d="M302.207,-159.312C318.672,-158.501 336.63,-157.617 353.99,-156.762"/>
<polygon fill="midnightblue" stroke="midnightblue" points="301.983,-155.819 292.167,-159.807 302.327,-162.811 301.983,-155.819"/>
</g>
</g>
</svg>
