<?xml version="1.0" encoding="UTF-8" standalone="no"?>
<!DOCTYPE svg PUBLIC "-//W3C//DTD SVG 1.1//EN"
 "http://www.w3.org/Graphics/SVG/1.1/DTD/svg11.dtd">
<!-- Generated by graphviz version 2.38.0 (20140413.2041)
 -->
<!-- Title: scram::mef::Expression::args Pages: 1 -->
<!--zoomable 631 -->
<svg id="main" version="1.1" xmlns="http://www.w3.org/2000/svg" xmlns:xlink="http://www.w3.org/1999/xlink" xml:space="preserve" onload="init(evt)">
<style type="text/css"><![CDATA[
.edge:hover path { stroke: red; }
.edge:hover polygon { stroke: red; fill: red; }
]]></style>
<script type="text/javascript"><![CDATA[
var edges = document.getElementsByTagName('g');
if (edges && edges.length) {
  for (var i=0;i<edges.length;i++) {
    if (edges[i].id.substr(0,4)=='edge') {
      edges[i].setAttribute('class','edge');
    }
  }
}
]]></script>
        <defs>
                <circle id="rim" cx="0" cy="0" r="7"/>
                <circle id="rim2" cx="0" cy="0" r="3.5"/>
                <g id="zoomPlus">
                        <use xlink:href="#rim" fill="#404040">
                                <set attributeName="fill" to="#808080" begin="zoomplus.mouseover" end="zoomplus.mouseout"/>
                        </use>
                        <path d="M-4,0h8M0,-4v8" fill="none" stroke="white" stroke-width="1.5" pointer-events="none"/>
                </g>
                <g id="zoomMin">
                        <use xlink:href="#rim" fill="#404040">
                                <set attributeName="fill" to="#808080" begin="zoomminus.mouseover" end="zoomminus.mouseout"/>
                        </use>
                        <path d="M-4,0h8" fill="none" stroke="white" stroke-width="1.5" pointer-events="none"/>
                </g>
                <g id="dirArrow">
                        <path fill="none" stroke="white" stroke-width="1.5" d="M0,-3.0v7 M-2.5,-0.5L0,-3.0L2.5,-0.5"/>
                </g>
               <g id="resetDef">
                       <use xlink:href="#rim2" fill="#404040">
                               <set attributeName="fill" to="#808080" begin="reset.mouseover" end="reset.mouseout"/>
                       </use>
               </g>
        </defs>

<script type="text/javascript">
var viewWidth = 470;
var viewHeight = 631;
var sectionId = 'dynsection-1';
</script>
<script xlink:href="svgpan.js"/>
<svg id="graph" class="graph">
<g id="viewport">
<title>scram::mef::Expression::args</title>
<polygon fill="white" stroke="none" points="-4,4 -4,-627 466,-627 466,4 -4,4"/>
<!-- Node1 -->
<g id="node1" class="node"><title>Node1</title>
<polygon fill="#bfbfbf" stroke="black" points="0,-298 0,-328 129,-328 129,-298 0,-298"/>
<text text-anchor="start" x="8" y="-316" font-family="Helvetica,sans-Serif" font-size="10.00">scram::mef::Expression</text>
<text text-anchor="middle" x="64.5" y="-305" font-family="Helvetica,sans-Serif" font-size="10.00">::args</text>
</g>
<!-- Node2 -->
<g id="node2" class="node"><title>Node2</title>
<g id="a_node2"><a xlink:href="classscram_1_1mef_1_1Ite.xhtml#a1b17042c2c839d9e1def40c53a4d3c7b" target="_top" xlink:title="Computes the if&#45;then&#45;else expression with the given evaluator. ">
<polygon fill="white" stroke="black" points="172,-603.5 172,-622.5 312,-622.5 312,-603.5 172,-603.5"/>
<text text-anchor="middle" x="242" y="-610.5" font-family="Helvetica,sans-Serif" font-size="10.00">scram::mef::Ite::Compute</text>
</a>
</g>
</g>
<!-- Node1&#45;&gt;Node2 -->
<g id="edge1" class="edge"><title>Node1&#45;&gt;Node2</title>
<path fill="none" stroke="midnightblue" d="M66.7795,-338.45C70.9734,-393.614 88.8643,-524.798 165,-594 169.227,-597.842 174.113,-600.935 179.327,-603.421"/>
<polygon fill="midnightblue" stroke="midnightblue" points="70.252,-337.92 66.0931,-328.176 63.2676,-338.387 70.252,-337.92"/>
</g>
<!-- Node3 -->
<g id="node3" class="node"><title>Node3</title>
<g id="a_node3"><a xlink:href="classscram_1_1mef_1_1Mean.xhtml#ab75b082938d5f6ed2b7bd2d45c3c850b" target="_top" xlink:title="Computes the expression value with a given argument value extractor. ">
<polygon fill="white" stroke="black" points="165,-565.5 165,-584.5 319,-584.5 319,-565.5 165,-565.5"/>
<text text-anchor="middle" x="242" y="-572.5" font-family="Helvetica,sans-Serif" font-size="10.00">scram::mef::Mean::Compute</text>
</a>
</g>
</g>
<!-- Node1&#45;&gt;Node3 -->
<g id="edge2" class="edge"><title>Node1&#45;&gt;Node3</title>
<path fill="none" stroke="midnightblue" d="M68.383,-338.436C75.4015,-388.067 98.0323,-498.023 165,-556 169.421,-559.828 174.502,-562.906 179.895,-565.378"/>
<polygon fill="midnightblue" stroke="midnightblue" points="71.8188,-337.717 67.046,-328.259 64.8784,-338.629 71.8188,-337.717"/>
</g>
<!-- Node4 -->
<g id="node4" class="node"><title>Node4</title>
<g id="a_node4"><a xlink:href="classscram_1_1mef_1_1NaryExpression_3_01T_00_012_01_4.xhtml#abb547de88b721a2ac2f8773c03bd5176" target="_top" xlink:title="Computes the expression value with a given argument value extractor. ">
<polygon fill="white" stroke="black" points="166,-516 166,-546 318,-546 318,-516 166,-516"/>
<text text-anchor="start" x="174" y="-534" font-family="Helvetica,sans-Serif" font-size="10.00">scram::mef::NaryExpression</text>
<text text-anchor="middle" x="242" y="-523" font-family="Helvetica,sans-Serif" font-size="10.00">&lt; T, 2 &gt;::Compute</text>
</a>
</g>
</g>
<!-- Node1&#45;&gt;Node4 -->
<g id="edge3" class="edge"><title>Node1&#45;&gt;Node4</title>
<path fill="none" stroke="midnightblue" d="M71.5497,-337.898C82.8357,-379.089 110.999,-461.388 165,-507 169.017,-510.393 173.516,-513.307 178.265,-515.81"/>
<polygon fill="midnightblue" stroke="midnightblue" points="74.9085,-336.908 68.9802,-328.127 68.1387,-338.688 74.9085,-336.908"/>
</g>
<!-- Node5 -->
<g id="node5" class="node"><title>Node5</title>
<g id="a_node5"><a xlink:href="classscram_1_1mef_1_1NaryExpression_3_01T_00-1_01_4.xhtml#aad5811e7fc2298aaf486697e050774fa" target="_top" xlink:title="Computes the expression value with a given argument value extractor. ">
<polygon fill="white" stroke="black" points="166,-467 166,-497 318,-497 318,-467 166,-467"/>
<text text-anchor="start" x="174" y="-485" font-family="Helvetica,sans-Serif" font-size="10.00">scram::mef::NaryExpression</text>
<text text-anchor="middle" x="242" y="-474" font-family="Helvetica,sans-Serif" font-size="10.00">&lt; T,&#45;1 &gt;::Compute</text>
</a>
</g>
</g>
<!-- Node1&#45;&gt;Node5 -->
<g id="edge4" class="edge"><title>Node1&#45;&gt;Node5</title>
<path fill="none" stroke="midnightblue" d="M75.9765,-337.362C91.0518,-369.593 121.871,-426.047 165,-458 169.67,-461.46 174.852,-464.43 180.255,-466.978"/>
<polygon fill="midnightblue" stroke="midnightblue" points="79.132,-335.846 71.8072,-328.191 72.7596,-338.743 79.132,-335.846"/>
</g>
<!-- Node6 -->
<g id="node6" class="node"><title>Node6</title>
<g id="a_node6"><a xlink:href="cycle_8h.xhtml#aeed4b968387a7629985a8d3d9528c4e0" target="_top" xlink:title="Retrieves connectors from a connector. ">
<polygon fill="white" stroke="black" points="188.5,-418 188.5,-448 295.5,-448 295.5,-418 188.5,-418"/>
<text text-anchor="start" x="196.5" y="-436" font-family="Helvetica,sans-Serif" font-size="10.00">scram::mef::cycle::</text>
<text text-anchor="middle" x="242" y="-425" font-family="Helvetica,sans-Serif" font-size="10.00">GetConnectors</text>
</a>
</g>
</g>
<!-- Node1&#45;&gt;Node6 -->
<g id="edge5" class="edge"><title>Node1&#45;&gt;Node6</title>
<path fill="none" stroke="midnightblue" d="M83.808,-335.976C102.207,-357.652 132.44,-389.629 165,-409 172.135,-413.245 180.1,-416.818 188.114,-419.802"/>
<polygon fill="midnightblue" stroke="midnightblue" points="86.4421,-333.67 77.3557,-328.221 81.061,-338.147 86.4421,-333.67"/>
</g>
<!-- Node7 -->
<g id="node7" class="node"><title>Node7</title>
<g id="a_node7"><a xlink:href="cycle_8h.xhtml#a71f7c737eb867b62f0c092592028b3f1" target="_top" xlink:title="Retrieves nodes from a connector. ">
<polygon fill="white" stroke="black" points="188.5,-369 188.5,-399 295.5,-399 295.5,-369 188.5,-369"/>
<text text-anchor="start" x="196.5" y="-387" font-family="Helvetica,sans-Serif" font-size="10.00">scram::mef::cycle::</text>
<text text-anchor="middle" x="242" y="-376" font-family="Helvetica,sans-Serif" font-size="10.00">GetNodes</text>
</a>
</g>
</g>
<!-- Node1&#45;&gt;Node7 -->
<g id="edge6" class="edge"><title>Node1&#45;&gt;Node7</title>
<path fill="none" stroke="midnightblue" d="M103.802,-332.582C122.076,-341.537 144.401,-351.925 165,-360 172.987,-363.131 181.563,-366.153 189.974,-368.935"/>
<polygon fill="midnightblue" stroke="midnightblue" points="105.161,-329.349 94.6464,-328.049 102.055,-335.623 105.161,-329.349"/>
</g>
<!-- Node8 -->
<g id="node8" class="node"><title>Node8</title>
<g id="a_node8"><a xlink:href="classscram_1_1mef_1_1Histogram.xhtml#a58994566e7edb6346480990a539b669f" target="_top" xlink:title="Histogram distribution setup. ">
<polygon fill="white" stroke="black" points="178,-320 178,-350 306,-350 306,-320 178,-320"/>
<text text-anchor="start" x="186" y="-338" font-family="Helvetica,sans-Serif" font-size="10.00">scram::mef::Histogram</text>
<text text-anchor="middle" x="242" y="-327" font-family="Helvetica,sans-Serif" font-size="10.00">::Histogram</text>
</a>
</g>
</g>
<!-- Node1&#45;&gt;Node8 -->
<g id="edge7" class="edge"><title>Node1&#45;&gt;Node8</title>
<path fill="none" stroke="midnightblue" d="M139.469,-322.272C152.212,-323.87 165.352,-325.517 177.779,-327.075"/>
<polygon fill="midnightblue" stroke="midnightblue" points="139.714,-318.776 129.356,-321.005 138.843,-325.721 139.714,-318.776"/>
</g>
<!-- Node9 -->
<g id="node9" class="node"><title>Node9</title>
<g id="a_node9"><a xlink:href="classscram_1_1mef_1_1Ite.xhtml#ae1ff319255e2d26312e433af6459f03a" target="_top" xlink:title="scram::mef::Ite::interval">
<polygon fill="white" stroke="black" points="176.5,-281.5 176.5,-300.5 307.5,-300.5 307.5,-281.5 176.5,-281.5"/>
<text text-anchor="middle" x="242" y="-288.5" font-family="Helvetica,sans-Serif" font-size="10.00">scram::mef::Ite::interval</text>
</a>
</g>
</g>
<!-- Node1&#45;&gt;Node9 -->
<g id="edge8" class="edge"><title>Node1&#45;&gt;Node9</title>
<path fill="none" stroke="midnightblue" d="M139.518,-303.721C151.744,-302.189 164.335,-300.61 176.308,-299.109"/>
<polygon fill="midnightblue" stroke="midnightblue" points="138.843,-300.279 129.356,-304.995 139.714,-307.224 138.843,-300.279"/>
</g>
<!-- Node11 -->
<g id="node11" class="node"><title>Node11</title>
<g id="a_node11"><a xlink:href="classscram_1_1mef_1_1Mean.xhtml#ad94cf687c6332df11d9b3d50e8c66dde" target="_top" xlink:title="scram::mef::Mean::interval">
<polygon fill="white" stroke="black" points="169.5,-243.5 169.5,-262.5 314.5,-262.5 314.5,-243.5 169.5,-243.5"/>
<text text-anchor="middle" x="242" y="-250.5" font-family="Helvetica,sans-Serif" font-size="10.00">scram::mef::Mean::interval</text>
</a>
</g>
</g>
<!-- Node1&#45;&gt;Node11 -->
<g id="edge10" class="edge"><title>Node1&#45;&gt;Node11</title>
<path fill="none" stroke="midnightblue" d="M108.008,-293.884C125.453,-286.461 145.983,-278.258 165,-272 175.594,-268.514 187.198,-265.312 198.079,-262.569"/>
<polygon fill="midnightblue" stroke="midnightblue" points="106.463,-290.739 98.6637,-297.91 109.232,-297.167 106.463,-290.739"/>
</g>
<!-- Node12 -->
<g id="node12" class="node"><title>Node12</title>
<g id="a_node12"><a xlink:href="classscram_1_1mef_1_1NaryExpression_3_01T_00_012_01_4.xhtml#a559345ae6b65f649a2a2fa5c8d7fcb35" target="_top" xlink:title="scram::mef::NaryExpression\l\&lt; T, 2 \&gt;::interval">
<polygon fill="white" stroke="black" points="166,-194 166,-224 318,-224 318,-194 166,-194"/>
<text text-anchor="start" x="174" y="-212" font-family="Helvetica,sans-Serif" font-size="10.00">scram::mef::NaryExpression</text>
<text text-anchor="middle" x="242" y="-201" font-family="Helvetica,sans-Serif" font-size="10.00">&lt; T, 2 &gt;::interval</text>
</a>
</g>
</g>
<!-- Node1&#45;&gt;Node12 -->
<g id="edge11" class="edge"><title>Node1&#45;&gt;Node12</title>
<path fill="none" stroke="midnightblue" d="M88.1347,-291.143C107.291,-273.648 136.161,-249.547 165,-234 171.969,-230.243 179.603,-226.92 187.259,-224.023"/>
<polygon fill="midnightblue" stroke="midnightblue" points="85.7415,-288.589 80.7954,-297.958 90.5048,-293.718 85.7415,-288.589"/>
</g>
<!-- Node13 -->
<g id="node13" class="node"><title>Node13</title>
<g id="a_node13"><a xlink:href="classscram_1_1mef_1_1NaryExpression_3_01T_00-1_01_4.xhtml#a1d2f6e2308ab6f24ce53103d7460b80e" target="_top" xlink:title="scram::mef::NaryExpression\l\&lt; T,&#45;1 \&gt;::interval">
<polygon fill="white" stroke="black" points="166,-145 166,-175 318,-175 318,-145 166,-145"/>
<text text-anchor="start" x="174" y="-163" font-family="Helvetica,sans-Serif" font-size="10.00">scram::mef::NaryExpression</text>
<text text-anchor="middle" x="242" y="-152" font-family="Helvetica,sans-Serif" font-size="10.00">&lt; T,&#45;1 &gt;::interval</text>
</a>
</g>
</g>
<!-- Node1&#45;&gt;Node13 -->
<g id="edge12" class="edge"><title>Node1&#45;&gt;Node13</title>
<path fill="none" stroke="midnightblue" d="M78.4574,-288.603C94.9156,-259.856 125.933,-212.533 165,-185 170.45,-181.159 176.528,-177.88 182.807,-175.086"/>
<polygon fill="midnightblue" stroke="midnightblue" points="75.262,-287.146 73.4434,-297.584 81.374,-290.558 75.262,-287.146"/>
</g>
<!-- Node14 -->
<g id="node14" class="node"><title>Node14</title>
<g id="a_node14"><a xlink:href="classscram_1_1mef_1_1Mean.xhtml#a826aa96252b38e91fe41f57a77b976a1" target="_top" xlink:title="Checks the number of provided arguments upon initialization. ">
<polygon fill="white" stroke="black" points="174,-106.5 174,-125.5 310,-125.5 310,-106.5 174,-106.5"/>
<text text-anchor="middle" x="242" y="-113.5" font-family="Helvetica,sans-Serif" font-size="10.00">scram::mef::Mean::Mean</text>
</a>
</g>
</g>
<!-- Node1&#45;&gt;Node14 -->
<g id="edge13" class="edge"><title>Node1&#45;&gt;Node14</title>
<path fill="none" stroke="midnightblue" d="M72.6523,-287.825C84.9604,-249.163 113.883,-175.509 165,-136 170.613,-131.661 177.082,-128.26 183.827,-125.594"/>
<polygon fill="midnightblue" stroke="midnightblue" points="69.1963,-287.158 69.6167,-297.744 75.8899,-289.206 69.1963,-287.158"/>
</g>
<!-- Node15 -->
<g id="node15" class="node"><title>Node15</title>
<g id="a_node15"><a xlink:href="classscram_1_1mef_1_1NaryExpression_3_01T_00-1_01_4.xhtml#adb8d79a4cee720e7f0c153ed2335ec2c" target="_top" xlink:title="Checks the number of provided arguments upon initialization. ">
<polygon fill="white" stroke="black" points="166,-57 166,-87 318,-87 318,-57 166,-57"/>
<text text-anchor="start" x="174" y="-75" font-family="Helvetica,sans-Serif" font-size="10.00">scram::mef::NaryExpression</text>
<text text-anchor="middle" x="242" y="-64" font-family="Helvetica,sans-Serif" font-size="10.00">&lt; T,&#45;1 &gt;::NaryExpression</text>
</a>
</g>
</g>
<!-- Node1&#45;&gt;Node15 -->
<g id="edge14" class="edge"><title>Node1&#45;&gt;Node15</title>
<path fill="none" stroke="midnightblue" d="M70.2107,-287.963C79.9225,-243.214 106.368,-149.308 165,-97 169.353,-93.1163 174.324,-89.8341 179.592,-87.0604"/>
<polygon fill="midnightblue" stroke="midnightblue" points="66.7372,-287.478 68.1411,-297.979 73.5924,-288.894 66.7372,-287.478"/>
</g>
<!-- Node16 -->
<g id="node16" class="node"><title>Node16</title>
<g id="a_node16"><a xlink:href="serialization_8cc.xhtml#a83f7058a5caad9ec3ffb5fd6c7d7b8f6" target="_top" xlink:title="Convenience function for serialization into a file. ">
<polygon fill="white" stroke="black" points="183,-0.5 183,-19.5 301,-19.5 301,-0.5 183,-0.5"/>
<text text-anchor="middle" x="242" y="-7.5" font-family="Helvetica,sans-Serif" font-size="10.00">scram::mef::Serialize</text>
</a>
</g>
</g>
<!-- Node1&#45;&gt;Node16 -->
<g id="edge15" class="edge"><title>Node1&#45;&gt;Node16</title>
<path fill="none" stroke="midnightblue" d="M68.7547,-287.669C76.5467,-236.462 100.657,-119.442 165,-48 176.847,-34.8462 194.286,-25.6745 209.473,-19.6419"/>
<polygon fill="midnightblue" stroke="midnightblue" points="65.252,-287.438 67.2935,-297.834 72.1808,-288.434 65.252,-287.438"/>
</g>
<!-- Node10 -->
<g id="node10" class="node"><title>Node10</title>
<g id="a_node10"><a xlink:href="classscram_1_1mef_1_1Ite.xhtml#a5d7852d6221ba1a046ba5f83a8e4258c" target="_top" xlink:title="scram::mef::Ite::Ite">
<polygon fill="white" stroke="black" points="355,-281.5 355,-300.5 462,-300.5 462,-281.5 355,-281.5"/>
<text text-anchor="middle" x="408.5" y="-288.5" font-family="Helvetica,sans-Serif" font-size="10.00">scram::mef::Ite::Ite</text>
</a>
</g>
</g>
<!-- Node9&#45;&gt;Node10 -->
<g id="edge9" class="edge"><title>Node9&#45;&gt;Node10</title>
<path fill="none" stroke="midnightblue" d="M317.551,-291C330.124,-291 342.938,-291 354.806,-291"/>
<polygon fill="midnightblue" stroke="midnightblue" points="317.543,-287.5 307.543,-291 317.543,-294.5 317.543,-287.5"/>
</g>
<!-- Node16&#45;&gt;Node16 -->
<g id="edge16" class="edge"><title>Node16&#45;&gt;Node16</title>
<path fill="none" stroke="midnightblue" d="M210.937,-28.2746C211.823,-33.741 222.177,-38 242,-38 271.504,-38 280.032,-28.5653 267.585,-19.7571"/>
<polygon fill="midnightblue" stroke="midnightblue" points="213.949,-30.0611 216.415,-19.7571 208.062,-26.2749 213.949,-30.0611"/>
</g>
</g>
</svg>
        <g id="navigator" transform="translate(0 0)" fill="#404254">
                <rect fill="#f2f5e9" fill-opacity="0.5" stroke="#606060" stroke-width=".5" x="0" y="0" width="60" height="60"/>
                <use id="zoomplus" xlink:href="#zoomPlus" x="17" y="9" onmousedown="handleZoom(evt,'in')"/>
                <use id="zoomminus" xlink:href="#zoomMin" x="42" y="9" onmousedown="handleZoom(evt,'out')"/>
                <use id="reset" xlink:href="#resetDef" x="30" y="36" onmousedown="handleReset()"/>
                <g id="arrowUp" xlink:href="#dirArrow" transform="translate(30 24)" onmousedown="handlePan(0,-1)">
                  <use xlink:href="#rim" fill="#404040">
                        <set attributeName="fill" to="#808080" begin="arrowUp.mouseover" end="arrowUp.mouseout"/>
                  </use>
                  <path fill="none" stroke="white" stroke-width="1.5" d="M0,-3.0v7 M-2.5,-0.5L0,-3.0L2.5,-0.5"/>
                </g>
                <g id="arrowRight" xlink:href="#dirArrow" transform="rotate(90) translate(36 -43)" onmousedown="handlePan(1,0)">
                  <use xlink:href="#rim" fill="#404040">
                        <set attributeName="fill" to="#808080" begin="arrowRight.mouseover" end="arrowRight.mouseout"/>
                  </use>
                  <path fill="none" stroke="white" stroke-width="1.5" d="M0,-3.0v7 M-2.5,-0.5L0,-3.0L2.5,-0.5"/>
                </g>
                <g id="arrowDown" xlink:href="#dirArrow" transform="rotate(180) translate(-30 -48)" onmousedown="handlePan(0,1)">
                  <use xlink:href="#rim" fill="#404040">
                        <set attributeName="fill" to="#808080" begin="arrowDown.mouseover" end="arrowDown.mouseout"/>
                  </use>
                  <path fill="none" stroke="white" stroke-width="1.5" d="M0,-3.0v7 M-2.5,-0.5L0,-3.0L2.5,-0.5"/>
                </g>
                <g id="arrowLeft" xlink:href="#dirArrow" transform="rotate(270) translate(-36 17)" onmousedown="handlePan(-1,0)">
                  <use xlink:href="#rim" fill="#404040">
                        <set attributeName="fill" to="#808080" begin="arrowLeft.mouseover" end="arrowLeft.mouseout"/>
                  </use>
                  <path fill="none" stroke="white" stroke-width="1.5" d="M0,-3.0v7 M-2.5,-0.5L0,-3.0L2.5,-0.5"/>
                </g>
        </g>
        <svg viewBox="0 0 15 15" width="100%" height="30px" preserveAspectRatio="xMaxYMin meet">
         <g id="arrow_out" transform="scale(0.3 0.3)">
          <a xlink:href="classscram_1_1mef_1_1Expression_ac22fdb9ced7ef6942f666337b6a34110_icgraph_org.svg" target="_base">
           <rect id="button" ry="5" rx="5" y="6" x="6" height="38" width="38"
                fill="#f2f5e9" fill-opacity="0.5" stroke="#606060" stroke-width="1.0"/>
           <path id="arrow"
             d="M 11.500037,31.436501 C 11.940474,20.09759 22.043105,11.32322 32.158766,21.979434 L 37.068811,17.246167 C 37.068811,17.246167 37.088388,32 37.088388,32 L 22.160133,31.978069 C 22.160133,31.978069 26.997745,27.140456 26.997745,27.140456 C 18.528582,18.264221 13.291696,25.230495 11.500037,31.436501 z"
             style="fill:#404040;"/>
          </a>
         </g>
        </svg>
</svg>
