<?xml version="1.0" encoding="UTF-8" standalone="no"?>
<!DOCTYPE svg PUBLIC "-//W3C//DTD SVG 1.1//EN"
 "http://www.w3.org/Graphics/SVG/1.1/DTD/svg11.dtd">
<!-- Generated by graphviz version 2.38.0 (20140413.2041)
 -->
<!-- Title: scram::Reporter::Report Pages: 1 -->
<svg width="668pt" height="235pt"
 viewBox="0.00 0.00 668.00 235.00" xmlns="http://www.w3.org/2000/svg" xmlns:xlink="http://www.w3.org/1999/xlink">
<g id="graph0" class="graph" transform="scale(1 1) rotate(0) translate(4 231)">
<title>scram::Reporter::Report</title>
<polygon fill="white" stroke="none" points="-4,4 -4,-231 664,-231 664,4 -4,4"/>
<!-- Node1 -->
<g id="node1" class="node"><title>Node1</title>
<polygon fill="#bfbfbf" stroke="black" points="0,-104 0,-123 130,-123 130,-104 0,-104"/>
<text text-anchor="middle" x="65" y="-111" font-family="Helvetica,sans-Serif" font-size="10.00">scram::Reporter::Report</text>
</g>
<!-- Node2 -->
<g id="node2" class="node"><title>Node2</title>
<g id="a_node2"><a xlink:href="classscram_1_1Reporter.xhtml#a6a6327c0fc2d0e8ab6ec24a145ae1abe" target="_top" xlink:title="Reports the results of risk analysis on a model. ">
<polygon fill="white" stroke="black" points="166,-104 166,-123 296,-123 296,-104 166,-104"/>
<text text-anchor="middle" x="231" y="-111" font-family="Helvetica,sans-Serif" font-size="10.00">scram::Reporter::Report</text>
</a>
</g>
</g>
<!-- Node1&#45;&gt;Node2 -->
<g id="edge1" class="edge"><title>Node1&#45;&gt;Node2</title>
<path fill="none" stroke="midnightblue" d="M130.346,-113.5C138.64,-113.5 147.187,-113.5 155.625,-113.5"/>
<polygon fill="midnightblue" stroke="midnightblue" points="155.839,-117 165.839,-113.5 155.839,-110 155.839,-117"/>
</g>
<!-- Node3 -->
<g id="node3" class="node"><title>Node3</title>
<g id="a_node3"><a xlink:href="classscram_1_1XmlStreamElement.xhtml#ac8227ce1d2bf22ab83d3055a8e98fb2d" target="_top" xlink:title="Adds a child element to the element. ">
<polygon fill="white" stroke="black" points="332,-196.5 332,-226.5 478,-226.5 478,-196.5 332,-196.5"/>
<text text-anchor="start" x="340" y="-214.5" font-family="Helvetica,sans-Serif" font-size="10.00">scram::XmlStreamElement</text>
<text text-anchor="middle" x="405" y="-203.5" font-family="Helvetica,sans-Serif" font-size="10.00">::AddChild</text>
</a>
</g>
</g>
<!-- Node2&#45;&gt;Node3 -->
<g id="edge2" class="edge"><title>Node2&#45;&gt;Node3</title>
<path fill="none" stroke="midnightblue" d="M242.629,-123.166C260.112,-138.632 296.549,-169.07 332,-187.5 335.452,-189.295 339.066,-190.995 342.759,-192.598"/>
<polygon fill="midnightblue" stroke="midnightblue" points="341.47,-195.852 352.051,-196.383 344.11,-189.369 341.47,-195.852"/>
</g>
<!-- Node5 -->
<g id="node5" class="node"><title>Node5</title>
<g id="a_node5"><a xlink:href="classscram_1_1core_1_1RiskAnalysis.xhtml#aa76056b247bb6850a592d30ece0a3483" target="_top" xlink:title="scram::core::RiskAnalysis\l::event_tree_results">
<polygon fill="white" stroke="black" points="336.5,-147.5 336.5,-177.5 473.5,-177.5 473.5,-147.5 336.5,-147.5"/>
<text text-anchor="start" x="344.5" y="-165.5" font-family="Helvetica,sans-Serif" font-size="10.00">scram::core::RiskAnalysis</text>
<text text-anchor="middle" x="405" y="-154.5" font-family="Helvetica,sans-Serif" font-size="10.00">::event_tree_results</text>
</a>
</g>
</g>
<!-- Node2&#45;&gt;Node5 -->
<g id="edge4" class="edge"><title>Node2&#45;&gt;Node5</title>
<path fill="none" stroke="midnightblue" d="M265.572,-123.064C287.157,-129.213 315.869,-137.393 341.546,-144.708"/>
<polygon fill="midnightblue" stroke="midnightblue" points="340.641,-148.089 351.217,-147.463 342.559,-141.357 340.641,-148.089"/>
</g>
<!-- Node6 -->
<g id="node6" class="node"><title>Node6</title>
<g id="a_node6"><a xlink:href="classscram_1_1core_1_1Settings.xhtml#a83ddd939f7217fb9f0438bd1dd01f7b1" target="_top" xlink:title="scram::core::Settings\l::probability_analysis">
<polygon fill="white" stroke="black" points="345.5,-98.5 345.5,-128.5 464.5,-128.5 464.5,-98.5 345.5,-98.5"/>
<text text-anchor="start" x="353.5" y="-116.5" font-family="Helvetica,sans-Serif" font-size="10.00">scram::core::Settings</text>
<text text-anchor="middle" x="405" y="-105.5" font-family="Helvetica,sans-Serif" font-size="10.00">::probability_analysis</text>
</a>
</g>
</g>
<!-- Node2&#45;&gt;Node6 -->
<g id="edge5" class="edge"><title>Node2&#45;&gt;Node6</title>
<path fill="none" stroke="midnightblue" d="M296.046,-113.5C308.783,-113.5 322.208,-113.5 335.099,-113.5"/>
<polygon fill="midnightblue" stroke="midnightblue" points="335.3,-117 345.3,-113.5 335.3,-110 335.3,-117"/>
</g>
<!-- Node7 -->
<g id="node7" class="node"><title>Node7</title>
<g id="a_node7"><a xlink:href="classscram_1_1core_1_1RiskAnalysis.xhtml#a9198a9d439e7559e7661aa664e172400" target="_top" xlink:title="scram::core::RiskAnalysis\l::results">
<polygon fill="white" stroke="black" points="336.5,-49.5 336.5,-79.5 473.5,-79.5 473.5,-49.5 336.5,-49.5"/>
<text text-anchor="start" x="344.5" y="-67.5" font-family="Helvetica,sans-Serif" font-size="10.00">scram::core::RiskAnalysis</text>
<text text-anchor="middle" x="405" y="-56.5" font-family="Helvetica,sans-Serif" font-size="10.00">::results</text>
</a>
</g>
</g>
<!-- Node2&#45;&gt;Node7 -->
<g id="edge6" class="edge"><title>Node2&#45;&gt;Node7</title>
<path fill="none" stroke="midnightblue" d="M265.572,-103.936C287.157,-97.7866 315.869,-89.6072 341.546,-82.2922"/>
<polygon fill="midnightblue" stroke="midnightblue" points="342.559,-85.6429 351.217,-79.537 340.641,-78.9108 342.559,-85.6429"/>
</g>
<!-- Node8 -->
<g id="node8" class="node"><title>Node8</title>
<g id="a_node8"><a xlink:href="classscram_1_1core_1_1Analysis.xhtml#ab04a96c555ba726368fa3868a8701610" target="_top" xlink:title="scram::core::Analysis\l::settings">
<polygon fill="white" stroke="black" points="345.5,-0.5 345.5,-30.5 464.5,-30.5 464.5,-0.5 345.5,-0.5"/>
<text text-anchor="start" x="353.5" y="-18.5" font-family="Helvetica,sans-Serif" font-size="10.00">scram::core::Analysis</text>
<text text-anchor="middle" x="405" y="-7.5" font-family="Helvetica,sans-Serif" font-size="10.00">::settings</text>
</a>
</g>
</g>
<!-- Node2&#45;&gt;Node8 -->
<g id="edge7" class="edge"><title>Node2&#45;&gt;Node8</title>
<path fill="none" stroke="midnightblue" d="M242.966,-103.779C260.631,-88.5323 296.963,-58.8473 332,-40.5 336.176,-38.3132 340.584,-36.2509 345.079,-34.3208"/>
<polygon fill="midnightblue" stroke="midnightblue" points="346.429,-37.5501 354.38,-30.5472 343.797,-31.0637 346.429,-37.5501"/>
</g>
<!-- Node4 -->
<g id="node4" class="node"><title>Node4</title>
<g id="a_node4"><a xlink:href="classscram_1_1XmlStreamElement.xhtml#af62b9ffc844dba0b3fa143136dc5ac50" target="_top" xlink:title="Constructs a root streamer for the XML element data ready to accept attributes, elements, text. ">
<polygon fill="white" stroke="black" points="514,-196.5 514,-226.5 660,-226.5 660,-196.5 514,-196.5"/>
<text text-anchor="start" x="522" y="-214.5" font-family="Helvetica,sans-Serif" font-size="10.00">scram::XmlStreamElement</text>
<text text-anchor="middle" x="587" y="-203.5" font-family="Helvetica,sans-Serif" font-size="10.00">::XmlStreamElement</text>
</a>
</g>
</g>
<!-- Node3&#45;&gt;Node4 -->
<g id="edge3" class="edge"><title>Node3&#45;&gt;Node4</title>
<path fill="none" stroke="midnightblue" d="M478.176,-211.5C486.52,-211.5 495.077,-211.5 503.544,-211.5"/>
<polygon fill="midnightblue" stroke="midnightblue" points="503.808,-215 513.808,-211.5 503.808,-208 503.808,-215"/>
</g>
</g>
</svg>
