<?xml version="1.0" encoding="UTF-8" standalone="no"?>
<!DOCTYPE svg PUBLIC "-//W3C//DTD SVG 1.1//EN"
 "http://www.w3.org/Graphics/SVG/1.1/DTD/svg11.dtd">
<!-- Generated by graphviz version 2.38.0 (20140413.2041)
 -->
<!-- Title: scram::core::SetNode::minimal Pages: 1 -->
<!--zoomable 429 -->
<svg id="main" version="1.1" xmlns="http://www.w3.org/2000/svg" xmlns:xlink="http://www.w3.org/1999/xlink" xml:space="preserve" onload="init(evt)">
<style type="text/css"><![CDATA[
.edge:hover path { stroke: red; }
.edge:hover polygon { stroke: red; fill: red; }
]]></style>
<script type="text/javascript"><![CDATA[
var edges = document.getElementsByTagName('g');
if (edges && edges.length) {
  for (var i=0;i<edges.length;i++) {
    if (edges[i].id.substr(0,4)=='edge') {
      edges[i].setAttribute('class','edge');
    }
  }
}
]]></script>
        <defs>
                <circle id="rim" cx="0" cy="0" r="7"/>
                <circle id="rim2" cx="0" cy="0" r="3.5"/>
                <g id="zoomPlus">
                        <use xlink:href="#rim" fill="#404040">
                                <set attributeName="fill" to="#808080" begin="zoomplus.mouseover" end="zoomplus.mouseout"/>
                        </use>
                        <path d="M-4,0h8M0,-4v8" fill="none" stroke="white" stroke-width="1.5" pointer-events="none"/>
                </g>
                <g id="zoomMin">
                        <use xlink:href="#rim" fill="#404040">
                                <set attributeName="fill" to="#808080" begin="zoomminus.mouseover" end="zoomminus.mouseout"/>
                        </use>
                        <path d="M-4,0h8" fill="none" stroke="white" stroke-width="1.5" pointer-events="none"/>
                </g>
                <g id="dirArrow">
                        <path fill="none" stroke="white" stroke-width="1.5" d="M0,-3.0v7 M-2.5,-0.5L0,-3.0L2.5,-0.5"/>
                </g>
               <g id="resetDef">
                       <use xlink:href="#rim2" fill="#404040">
                               <set attributeName="fill" to="#808080" begin="reset.mouseover" end="reset.mouseout"/>
                       </use>
               </g>
        </defs>

<script type="text/javascript">
var viewWidth = 687;
var viewHeight = 429;
var sectionId = 'dynsection-1';
</script>
<script xlink:href="svgpan.js"/>
<svg id="graph" class="graph">
<g id="viewport">
<title>scram::core::SetNode::minimal</title>
<polygon fill="white" stroke="none" points="-4,4 -4,-424.52 683,-424.52 683,4 -4,4"/>
<!-- Node1 -->
<g id="node1" class="node"><title>Node1</title>
<polygon fill="#bfbfbf" stroke="black" points="0,-110.02 0,-140.02 122,-140.02 122,-110.02 0,-110.02"/>
<text text-anchor="start" x="8" y="-128.02" font-family="Helvetica,sans-Serif" font-size="10.00">scram::core::SetNode</text>
<text text-anchor="middle" x="61" y="-117.02" font-family="Helvetica,sans-Serif" font-size="10.00">::minimal</text>
</g>
<!-- Node2 -->
<g id="node2" class="node"><title>Node2</title>
<g id="a_node2"><a xlink:href="classscram_1_1core_1_1Zbdd.xhtml#a77945d28bd832d2735969d0b0a451c78" target="_top" xlink:title="Runs the analysis with the representation of a PDAG as ZBDD. ">
<polygon fill="white" stroke="black" points="337,-388.02 337,-418.02 448,-418.02 448,-388.02 337,-388.02"/>
<text text-anchor="start" x="345" y="-406.02" font-family="Helvetica,sans-Serif" font-size="10.00">scram::core::Zbdd::</text>
<text text-anchor="middle" x="392.5" y="-395.02" font-family="Helvetica,sans-Serif" font-size="10.00">Analyze</text>
</a>
</g>
</g>
<!-- Node1&#45;&gt;Node2 -->
<g id="edge1" class="edge"><title>Node1&#45;&gt;Node2</title>
<path fill="none" stroke="midnightblue" d="M72.9969,-149.315C88.5449,-181.797 119.408,-239.926 158,-280.02 212.625,-336.771 233.457,-346.064 305,-379.02 314.909,-383.585 325.866,-387.447 336.557,-390.651"/>
<polygon fill="midnightblue" stroke="midnightblue" points="76.091,-147.67 68.6718,-140.106 69.755,-150.645 76.091,-147.67"/>
</g>
<!-- Node4 -->
<g id="node4" class="node"><title>Node4</title>
<g id="a_node4"><a xlink:href="classscram_1_1core_1_1Zbdd.xhtml#a516f0d2f35ad213399f83fb9ab102561" target="_top" xlink:title="Traverses ZBDD to find modules and adjusted cut&#45;offs. ">
<polygon fill="white" stroke="black" points="158,-17.0204 158,-47.0204 269,-47.0204 269,-17.0204 158,-17.0204"/>
<text text-anchor="start" x="166" y="-35.0204" font-family="Helvetica,sans-Serif" font-size="10.00">scram::core::Zbdd::</text>
<text text-anchor="middle" x="213.5" y="-24.0204" font-family="Helvetica,sans-Serif" font-size="10.00">GatherModules</text>
</a>
</g>
</g>
<!-- Node1&#45;&gt;Node4 -->
<g id="edge3" class="edge"><title>Node1&#45;&gt;Node4</title>
<path fill="none" stroke="midnightblue" d="M88.7578,-103.473C107.474,-88.9907 133.426,-70.0579 158,-56.0204 163.476,-52.8922 169.437,-49.8921 175.34,-47.1367"/>
<polygon fill="midnightblue" stroke="midnightblue" points="86.4163,-100.861 80.6983,-109.781 90.7305,-106.374 86.4163,-100.861"/>
</g>
<!-- Node5 -->
<g id="node5" class="node"><title>Node5</title>
<g id="a_node5"><a xlink:href="classscram_1_1core_1_1Zbdd.xhtml#af92e04ed908364e0177ce444d7b72712" target="_top" xlink:title="The common constructor to initialize member variables. ">
<polygon fill="white" stroke="black" points="529,-131.52 529,-150.52 666,-150.52 666,-131.52 529,-131.52"/>
<text text-anchor="middle" x="597.5" y="-138.52" font-family="Helvetica,sans-Serif" font-size="10.00">scram::core::Zbdd::Zbdd</text>
</a>
</g>
</g>
<!-- Node1&#45;&gt;Node5 -->
<g id="edge20" class="edge"><title>Node1&#45;&gt;Node5</title>
<path fill="none" stroke="midnightblue" d="M132.027,-127.117C235.245,-130.206 426.979,-135.946 528.831,-138.995"/>
<polygon fill="midnightblue" stroke="midnightblue" points="132.117,-123.618 122.016,-126.817 131.907,-130.615 132.117,-123.618"/>
</g>
<!-- Node7 -->
<g id="node7" class="node"><title>Node7</title>
<g id="a_node7"><a xlink:href="classscram_1_1core_1_1Zbdd.xhtml#a4ecbf60e6ac51e5260e8d8139c1b8599" target="_top" xlink:title="Joins a ZBDD representing a module gate. ">
<polygon fill="white" stroke="black" points="158,-66.0204 158,-96.0204 269,-96.0204 269,-66.0204 158,-66.0204"/>
<text text-anchor="start" x="166" y="-84.0204" font-family="Helvetica,sans-Serif" font-size="10.00">scram::core::Zbdd::</text>
<text text-anchor="middle" x="213.5" y="-73.0204" font-family="Helvetica,sans-Serif" font-size="10.00">JoinModule</text>
</a>
</g>
</g>
<!-- Node1&#45;&gt;Node7 -->
<g id="edge6" class="edge"><title>Node1&#45;&gt;Node7</title>
<path fill="none" stroke="midnightblue" d="M123.297,-107.1C135.85,-103.43 148.941,-99.6025 161.104,-96.0466"/>
<polygon fill="midnightblue" stroke="midnightblue" points="121.989,-103.836 113.373,-110.001 123.953,-110.554 121.989,-103.836"/>
</g>
<!-- Node8 -->
<g id="node8" class="node"><title>Node8</title>
<g id="a_node8"><a xlink:href="classscram_1_1core_1_1Zbdd.xhtml#a3dbb8ef5da2882daf6c39e9724eae459" target="_top" xlink:title="Removes subsets in ZBDD. ">
<polygon fill="white" stroke="black" points="158,-241.02 158,-271.02 269,-271.02 269,-241.02 158,-241.02"/>
<text text-anchor="start" x="166" y="-259.02" font-family="Helvetica,sans-Serif" font-size="10.00">scram::core::Zbdd::</text>
<text text-anchor="middle" x="213.5" y="-248.02" font-family="Helvetica,sans-Serif" font-size="10.00">Minimize</text>
</a>
</g>
</g>
<!-- Node1&#45;&gt;Node8 -->
<g id="edge9" class="edge"><title>Node1&#45;&gt;Node8</title>
<path fill="none" stroke="midnightblue" d="M86.9223,-146.714C117.427,-173.266 168.306,-217.553 194.974,-240.765"/>
<polygon fill="midnightblue" stroke="midnightblue" points="89.105,-143.973 79.2643,-140.048 84.5092,-149.253 89.105,-143.973"/>
</g>
<!-- Node3 -->
<g id="node3" class="node"><title>Node3</title>
<g id="a_node3"><a xlink:href="classscram_1_1core_1_1FaultTreeAnalyzer.xhtml#aedae0c884539dab245018194771f5021" target="_top" xlink:title="scram::core::FaultTreeAnalyzer\l::algorithm">
<polygon fill="white" stroke="black" points="516,-390.02 516,-420.02 679,-420.02 679,-390.02 516,-390.02"/>
<text text-anchor="start" x="524" y="-408.02" font-family="Helvetica,sans-Serif" font-size="10.00">scram::core::FaultTreeAnalyzer</text>
<text text-anchor="middle" x="597.5" y="-397.02" font-family="Helvetica,sans-Serif" font-size="10.00">::algorithm</text>
</a>
</g>
</g>
<!-- Node2&#45;&gt;Node3 -->
<g id="edge2" class="edge"><title>Node2&#45;&gt;Node3</title>
<path fill="none" stroke="midnightblue" d="M458.393,-403.66C476.649,-403.84 496.729,-404.037 515.788,-404.225"/>
<polygon fill="midnightblue" stroke="midnightblue" points="458.201,-400.158 448.167,-403.559 458.132,-407.157 458.201,-400.158"/>
</g>
<!-- Node4&#45;&gt;Node5 -->
<g id="edge4" class="edge"><title>Node4&#45;&gt;Node5</title>
<path fill="none" stroke="midnightblue" d="M273.313,-14.4447C328.931,-1.09811 413.539,10.5709 480,-18.0204 535.657,-41.9641 577.177,-107.019 591.273,-131.517"/>
<polygon fill="midnightblue" stroke="midnightblue" points="272.133,-11.1318 263.277,-16.947 273.826,-17.9239 272.133,-11.1318"/>
</g>
<!-- Node6 -->
<g id="node6" class="node"><title>Node6</title>
<g id="a_node6"><a xlink:href="classscram_1_1core_1_1zbdd_1_1CutSetContainer.xhtml#a478c89f64731781882b50ec55898900b" target="_top" xlink:title="Gathers all module indices in the cut sets. ">
<polygon fill="white" stroke="black" points="305,-28.0204 305,-58.0204 480,-58.0204 480,-28.0204 305,-28.0204"/>
<text text-anchor="start" x="313" y="-46.0204" font-family="Helvetica,sans-Serif" font-size="10.00">scram::core::zbdd::</text>
<text text-anchor="middle" x="392.5" y="-35.0204" font-family="Helvetica,sans-Serif" font-size="10.00">CutSetContainer::GatherModules</text>
</a>
</g>
</g>
<!-- Node4&#45;&gt;Node6 -->
<g id="edge5" class="edge"><title>Node4&#45;&gt;Node6</title>
<path fill="none" stroke="midnightblue" d="M279.114,-36.0359C287.51,-36.5577 296.215,-37.0987 304.896,-37.6382"/>
<polygon fill="midnightblue" stroke="midnightblue" points="279.248,-32.5376 269.05,-35.4105 278.814,-39.5241 279.248,-32.5376"/>
</g>
<!-- Node7&#45;&gt;Node5 -->
<g id="edge7" class="edge"><title>Node7&#45;&gt;Node5</title>
<path fill="none" stroke="midnightblue" d="M279.356,-85.8048C333.341,-90.3949 412.072,-98.4998 480,-111.02 508.755,-116.321 540.901,-124.796 564.13,-131.388"/>
<polygon fill="midnightblue" stroke="midnightblue" points="279.492,-82.3041 269.236,-84.9609 278.91,-89.2799 279.492,-82.3041"/>
</g>
<!-- Node7&#45;&gt;Node6 -->
<g id="edge8" class="edge"><title>Node7&#45;&gt;Node6</title>
<path fill="none" stroke="midnightblue" d="M278.944,-67.185C292.766,-64.2174 307.436,-61.068 321.459,-58.0575"/>
<polygon fill="midnightblue" stroke="midnightblue" points="278.093,-63.7879 269.05,-69.309 279.562,-70.6319 278.093,-63.7879"/>
</g>
<!-- Node8&#45;&gt;Node2 -->
<g id="edge10" class="edge"><title>Node8&#45;&gt;Node2</title>
<path fill="none" stroke="midnightblue" d="M230.77,-279.843C254.045,-313.648 295.132,-372.218 305,-379.02 314.495,-385.566 325.729,-390.333 336.902,-393.802"/>
<polygon fill="midnightblue" stroke="midnightblue" points="233.538,-277.69 224.992,-271.428 227.767,-281.653 233.538,-277.69"/>
</g>
<!-- Node8&#45;&gt;Node5 -->
<g id="edge11" class="edge"><title>Node8&#45;&gt;Node5</title>
<path fill="none" stroke="midnightblue" d="M235.039,-233.549C252.042,-216.47 277.752,-193.947 305,-182.02 377.099,-150.462 467.941,-142.036 528.885,-140.33"/>
<polygon fill="midnightblue" stroke="midnightblue" points="232.309,-231.337 227.865,-240.955 237.337,-236.207 232.309,-231.337"/>
</g>
<!-- Node9 -->
<g id="node9" class="node"><title>Node9</title>
<g id="a_node9"><a xlink:href="classscram_1_1core_1_1Zbdd.xhtml#a499a8bc4bc3854e7b2928c08515243cf" target="_top" xlink:title="Specialization of Apply for AND operator for non&#45;terminal ZBDD vertices. ">
<polygon fill="white" stroke="black" points="337,-290.02 337,-320.02 448,-320.02 448,-290.02 337,-290.02"/>
<text text-anchor="start" x="345" y="-308.02" font-family="Helvetica,sans-Serif" font-size="10.00">scram::core::Zbdd::</text>
<text text-anchor="middle" x="392.5" y="-297.02" font-family="Helvetica,sans-Serif" font-size="10.00">Apply</text>
</a>
</g>
</g>
<!-- Node8&#45;&gt;Node9 -->
<g id="edge12" class="edge"><title>Node8&#45;&gt;Node9</title>
<path fill="none" stroke="midnightblue" d="M278.875,-273.842C297.985,-279.132 318.721,-284.873 337.13,-289.969"/>
<polygon fill="midnightblue" stroke="midnightblue" points="279.621,-270.417 269.05,-271.122 277.754,-277.163 279.621,-270.417"/>
</g>
<!-- Node10 -->
<g id="node10" class="node"><title>Node10</title>
<g id="a_node10"><a xlink:href="classscram_1_1core_1_1Zbdd.xhtml#ac3ac27090b550d973b20bd971c3de9f9" target="_top" xlink:title="Removes complements of variables from products. ">
<polygon fill="white" stroke="black" points="328.5,-339.02 328.5,-369.02 456.5,-369.02 456.5,-339.02 328.5,-339.02"/>
<text text-anchor="start" x="336.5" y="-357.02" font-family="Helvetica,sans-Serif" font-size="10.00">scram::core::Zbdd::</text>
<text text-anchor="middle" x="392.5" y="-346.02" font-family="Helvetica,sans-Serif" font-size="10.00">EliminateComplements</text>
</a>
</g>
</g>
<!-- Node8&#45;&gt;Node10 -->
<g id="edge13" class="edge"><title>Node8&#45;&gt;Node10</title>
<path fill="none" stroke="midnightblue" d="M236.835,-278.312C254.128,-294.448 279.381,-315.681 305,-329.02 312.348,-332.847 320.362,-336.16 328.45,-339.009"/>
<polygon fill="midnightblue" stroke="midnightblue" points="239.133,-275.667 229.478,-271.304 234.305,-280.735 239.133,-275.667"/>
</g>
<!-- Node12 -->
<g id="node12" class="node"><title>Node12</title>
<g id="a_node12"><a xlink:href="classscram_1_1core_1_1Zbdd.xhtml#aeb83fd37f2aee74ac41e6ccadba82d39" target="_top" xlink:title="Removes constant modules from products. ">
<polygon fill="white" stroke="black" points="320.5,-192.02 320.5,-222.02 464.5,-222.02 464.5,-192.02 320.5,-192.02"/>
<text text-anchor="start" x="328.5" y="-210.02" font-family="Helvetica,sans-Serif" font-size="10.00">scram::core::Zbdd::</text>
<text text-anchor="middle" x="392.5" y="-199.02" font-family="Helvetica,sans-Serif" font-size="10.00">EliminateConstantModules</text>
</a>
</g>
</g>
<!-- Node8&#45;&gt;Node12 -->
<g id="edge16" class="edge"><title>Node8&#45;&gt;Node12</title>
<path fill="none" stroke="midnightblue" d="M278.875,-238.199C297.985,-232.909 318.721,-227.168 337.13,-222.072"/>
<polygon fill="midnightblue" stroke="midnightblue" points="277.754,-234.878 269.05,-240.919 279.621,-241.624 277.754,-234.878"/>
</g>
<!-- Node14 -->
<g id="node14" class="node"><title>Node14</title>
<g id="a_node14"><a xlink:href="classscram_1_1core_1_1zbdd_1_1CutSetContainer.xhtml#a1648d3f24a95302fac2a40e95f743dda" target="_top" xlink:title="Minimizes cut sets in the container. ">
<polygon fill="white" stroke="black" points="320.5,-241.02 320.5,-271.02 464.5,-271.02 464.5,-241.02 320.5,-241.02"/>
<text text-anchor="start" x="328.5" y="-259.02" font-family="Helvetica,sans-Serif" font-size="10.00">scram::core::zbdd::</text>
<text text-anchor="middle" x="392.5" y="-248.02" font-family="Helvetica,sans-Serif" font-size="10.00">CutSetContainer::Minimize</text>
</a>
</g>
</g>
<!-- Node8&#45;&gt;Node14 -->
<g id="edge19" class="edge"><title>Node8&#45;&gt;Node14</title>
<path fill="none" stroke="midnightblue" d="M279.154,-256.02C292.598,-256.02 306.836,-256.02 320.495,-256.02"/>
<polygon fill="midnightblue" stroke="midnightblue" points="279.05,-252.52 269.05,-256.02 279.05,-259.52 279.05,-252.52"/>
</g>
<!-- Node10&#45;&gt;Node5 -->
<g id="edge14" class="edge"><title>Node10&#45;&gt;Node5</title>
<path fill="none" stroke="midnightblue" d="M465.757,-339.97C471.007,-336.979 475.856,-333.371 480,-329.02 527.878,-278.747 471.733,-230.501 516,-177.02 526.445,-164.401 542.222,-156.042 557.049,-150.586"/>
<polygon fill="midnightblue" stroke="midnightblue" points="464.049,-336.908 456.598,-344.44 467.12,-343.199 464.049,-336.908"/>
</g>
<!-- Node11 -->
<g id="node11" class="node"><title>Node11</title>
<g id="a_node11"><a xlink:href="classscram_1_1core_1_1zbdd_1_1CutSetContainer.xhtml#a49532388bd9b917f4351f94f728518aa" target="_top" xlink:title="Eliminates all complements from cut sets. ">
<polygon fill="white" stroke="black" points="524.5,-330.52 524.5,-371.52 670.5,-371.52 670.5,-330.52 524.5,-330.52"/>
<text text-anchor="start" x="532.5" y="-359.52" font-family="Helvetica,sans-Serif" font-size="10.00">scram::core::zbdd::</text>
<text text-anchor="start" x="532.5" y="-348.52" font-family="Helvetica,sans-Serif" font-size="10.00">CutSetContainer::Eliminate</text>
<text text-anchor="middle" x="597.5" y="-337.52" font-family="Helvetica,sans-Serif" font-size="10.00">Complements</text>
</a>
</g>
</g>
<!-- Node10&#45;&gt;Node11 -->
<g id="edge15" class="edge"><title>Node10&#45;&gt;Node11</title>
<path fill="none" stroke="midnightblue" d="M466.834,-352.937C485.512,-352.661 505.571,-352.364 524.197,-352.089"/>
<polygon fill="midnightblue" stroke="midnightblue" points="466.565,-349.44 456.618,-353.088 466.668,-356.439 466.565,-349.44"/>
</g>
<!-- Node12&#45;&gt;Node5 -->
<g id="edge17" class="edge"><title>Node12&#45;&gt;Node5</title>
<path fill="none" stroke="midnightblue" d="M449.732,-188.738C487.743,-176.38 536.406,-160.558 567.027,-150.603"/>
<polygon fill="midnightblue" stroke="midnightblue" points="448.246,-185.541 439.818,-191.961 450.41,-192.198 448.246,-185.541"/>
</g>
<!-- Node13 -->
<g id="node13" class="node"><title>Node13</title>
<g id="a_node13"><a xlink:href="classscram_1_1core_1_1zbdd_1_1CutSetContainer.xhtml#a1022ad7a4699257a6f0c0809d8f1903d" target="_top" xlink:title="Removes constant modules from cut sets. ">
<polygon fill="white" stroke="black" points="524.5,-186.52 524.5,-227.52 670.5,-227.52 670.5,-186.52 524.5,-186.52"/>
<text text-anchor="start" x="532.5" y="-215.52" font-family="Helvetica,sans-Serif" font-size="10.00">scram::core::zbdd::</text>
<text text-anchor="start" x="532.5" y="-204.52" font-family="Helvetica,sans-Serif" font-size="10.00">CutSetContainer::Eliminate</text>
<text text-anchor="middle" x="597.5" y="-193.52" font-family="Helvetica,sans-Serif" font-size="10.00">ConstantModules</text>
</a>
</g>
</g>
<!-- Node12&#45;&gt;Node13 -->
<g id="edge18" class="edge"><title>Node12&#45;&gt;Node13</title>
<path fill="none" stroke="midnightblue" d="M474.866,-207.02C491.234,-207.02 508.33,-207.02 524.358,-207.02"/>
<polygon fill="midnightblue" stroke="midnightblue" points="474.785,-203.52 464.785,-207.02 474.785,-210.52 474.785,-203.52"/>
</g>
</g>
</svg>
        <g id="navigator" transform="translate(0 0)" fill="#404254">
                <rect fill="#f2f5e9" fill-opacity="0.5" stroke="#606060" stroke-width=".5" x="0" y="0" width="60" height="60"/>
                <use id="zoomplus" xlink:href="#zoomPlus" x="17" y="9" onmousedown="handleZoom(evt,'in')"/>
                <use id="zoomminus" xlink:href="#zoomMin" x="42" y="9" onmousedown="handleZoom(evt,'out')"/>
                <use id="reset" xlink:href="#resetDef" x="30" y="36" onmousedown="handleReset()"/>
                <g id="arrowUp" xlink:href="#dirArrow" transform="translate(30 24)" onmousedown="handlePan(0,-1)">
                  <use xlink:href="#rim" fill="#404040">
                        <set attributeName="fill" to="#808080" begin="arrowUp.mouseover" end="arrowUp.mouseout"/>
                  </use>
                  <path fill="none" stroke="white" stroke-width="1.5" d="M0,-3.0v7 M-2.5,-0.5L0,-3.0L2.5,-0.5"/>
                </g>
                <g id="arrowRight" xlink:href="#dirArrow" transform="rotate(90) translate(36 -43)" onmousedown="handlePan(1,0)">
                  <use xlink:href="#rim" fill="#404040">
                        <set attributeName="fill" to="#808080" begin="arrowRight.mouseover" end="arrowRight.mouseout"/>
                  </use>
                  <path fill="none" stroke="white" stroke-width="1.5" d="M0,-3.0v7 M-2.5,-0.5L0,-3.0L2.5,-0.5"/>
                </g>
                <g id="arrowDown" xlink:href="#dirArrow" transform="rotate(180) translate(-30 -48)" onmousedown="handlePan(0,1)">
                  <use xlink:href="#rim" fill="#404040">
                        <set attributeName="fill" to="#808080" begin="arrowDown.mouseover" end="arrowDown.mouseout"/>
                  </use>
                  <path fill="none" stroke="white" stroke-width="1.5" d="M0,-3.0v7 M-2.5,-0.5L0,-3.0L2.5,-0.5"/>
                </g>
                <g id="arrowLeft" xlink:href="#dirArrow" transform="rotate(270) translate(-36 17)" onmousedown="handlePan(-1,0)">
                  <use xlink:href="#rim" fill="#404040">
                        <set attributeName="fill" to="#808080" begin="arrowLeft.mouseover" end="arrowLeft.mouseout"/>
                  </use>
                  <path fill="none" stroke="white" stroke-width="1.5" d="M0,-3.0v7 M-2.5,-0.5L0,-3.0L2.5,-0.5"/>
                </g>
        </g>
        <svg viewBox="0 0 15 15" width="100%" height="30px" preserveAspectRatio="xMaxYMin meet">
         <g id="arrow_out" transform="scale(0.3 0.3)">
          <a xlink:href="classscram_1_1core_1_1SetNode_a88d05af2b9f4f08b7bc66a31c2b9e249_icgraph_org.svg" target="_base">
           <rect id="button" ry="5" rx="5" y="6" x="6" height="38" width="38"
                fill="#f2f5e9" fill-opacity="0.5" stroke="#606060" stroke-width="1.0"/>
           <path id="arrow"
             d="M 11.500037,31.436501 C 11.940474,20.09759 22.043105,11.32322 32.158766,21.979434 L 37.068811,17.246167 C 37.068811,17.246167 37.088388,32 37.088388,32 L 22.160133,31.978069 C 22.160133,31.978069 26.997745,27.140456 26.997745,27.140456 C 18.528582,18.264221 13.291696,25.230495 11.500037,31.436501 z"
             style="fill:#404040;"/>
          </a>
         </g>
        </svg>
</svg>
