<?xml version="1.0" encoding="UTF-8" standalone="no"?>
<!DOCTYPE svg PUBLIC "-//W3C//DTD SVG 1.1//EN"
 "http://www.w3.org/Graphics/SVG/1.1/DTD/svg11.dtd">
<!-- Generated by graphviz version 2.38.0 (20140413.2041)
 -->
<!-- Title: scram::mef::Initializer::Initializer Pages: 1 -->
<svg width="266pt" height="84pt"
 viewBox="0.00 0.00 266.00 84.00" xmlns="http://www.w3.org/2000/svg" xmlns:xlink="http://www.w3.org/1999/xlink">
<g id="graph0" class="graph" transform="scale(1 1) rotate(0) translate(4 80)">
<title>scram::mef::Initializer::Initializer</title>
<polygon fill="white" stroke="none" points="-4,4 -4,-80 262,-80 262,4 -4,4"/>
<!-- Node1 -->
<g id="node1" class="node"><title>Node1</title>
<polygon fill="#bfbfbf" stroke="black" points="0,-14 0,-44 119,-44 119,-14 0,-14"/>
<text text-anchor="start" x="8" y="-32" font-family="Helvetica,sans-Serif" font-size="10.00">scram::mef::Initializer</text>
<text text-anchor="middle" x="59.5" y="-21" font-family="Helvetica,sans-Serif" font-size="10.00">::Initializer</text>
</g>
<!-- Node2 -->
<g id="node2" class="node"><title>Node2</title>
<g id="a_node2"><a xlink:href="xml_8h.xhtml#a0f074705681d730dcd5fb6035e91f30f" target="_top" xlink:title="Returns XML line number message. ">
<polygon fill="white" stroke="black" points="162,-38.5 162,-57.5 251,-57.5 251,-38.5 162,-38.5"/>
<text text-anchor="middle" x="206.5" y="-45.5" font-family="Helvetica,sans-Serif" font-size="10.00">scram::GetLine</text>
</a>
</g>
</g>
<!-- Node1&#45;&gt;Node2 -->
<g id="edge1" class="edge"><title>Node1&#45;&gt;Node2</title>
<path fill="none" stroke="midnightblue" d="M119.059,-36.6733C129.9,-38.0937 141.172,-39.5709 151.858,-40.971"/>
<polygon fill="midnightblue" stroke="midnightblue" points="151.519,-44.4565 161.889,-42.2855 152.429,-37.5158 151.519,-44.4565"/>
</g>
<!-- Node3 -->
<g id="node3" class="node"><title>Node3</title>
<g id="a_node3"><a xlink:href="classscram_1_1Error.xhtml#a35818dcc7c8dde101d4fd117adf47bc3" target="_top" xlink:title="scram::Error::msg">
<polygon fill="white" stroke="black" points="155,-0.5 155,-19.5 258,-19.5 258,-0.5 155,-0.5"/>
<text text-anchor="middle" x="206.5" y="-7.5" font-family="Helvetica,sans-Serif" font-size="10.00">scram::Error::msg</text>
</a>
</g>
</g>
<!-- Node1&#45;&gt;Node3 -->
<g id="edge3" class="edge"><title>Node1&#45;&gt;Node3</title>
<path fill="none" stroke="midnightblue" d="M119.059,-21.3267C127.441,-20.2284 136.081,-19.0963 144.509,-17.992"/>
<polygon fill="midnightblue" stroke="midnightblue" points="145.19,-21.4327 154.651,-16.663 144.281,-14.492 145.19,-21.4327"/>
</g>
<!-- Node2&#45;&gt;Node2 -->
<g id="edge2" class="edge"><title>Node2&#45;&gt;Node2</title>
<path fill="none" stroke="midnightblue" d="M183.997,-57.7571C173.05,-66.5653 180.551,-76 206.5,-76 223.529,-76 232.613,-71.9368 233.753,-66.6539"/>
<polygon fill="midnightblue" stroke="midnightblue" points="236.8,-64.9303 229.003,-57.7571 230.625,-68.227 236.8,-64.9303"/>
</g>
</g>
</svg>
