<?xml version="1.0" encoding="UTF-8" standalone="no"?>
<!DOCTYPE svg PUBLIC "-//W3C//DTD SVG 1.1//EN"
 "http://www.w3.org/Graphics/SVG/1.1/DTD/svg11.dtd">
<!-- Generated by graphviz version 2.38.0 (20140413.2041)
 -->
<!-- Title: scram::Error::msg Pages: 1 -->
<svg width="308pt" height="176pt"
 viewBox="0.00 0.00 308.00 175.50" xmlns="http://www.w3.org/2000/svg" xmlns:xlink="http://www.w3.org/1999/xlink">
<g id="graph0" class="graph" transform="scale(1 1) rotate(0) translate(4 171.5)">
<title>scram::Error::msg</title>
<polygon fill="white" stroke="none" points="-4,4 -4,-171.5 304,-171.5 304,4 -4,4"/>
<!-- Node1 -->
<g id="node1" class="node"><title>Node1</title>
<polygon fill="#bfbfbf" stroke="black" points="0,-79 0,-98 103,-98 103,-79 0,-79"/>
<text text-anchor="middle" x="51.5" y="-86" font-family="Helvetica,sans-Serif" font-size="10.00">scram::Error::msg</text>
</g>
<!-- Node2 -->
<g id="node2" class="node"><title>Node2</title>
<g id="a_node2"><a xlink:href="classscram_1_1Config.xhtml#ab0d7940fbb627fab9867821e133eab5d" target="_top" xlink:title="A constructor with configurations for analysis. ">
<polygon fill="white" stroke="black" points="160,-148 160,-167 279,-167 279,-148 160,-148"/>
<text text-anchor="middle" x="219.5" y="-155" font-family="Helvetica,sans-Serif" font-size="10.00">scram::Config::Config</text>
</a>
</g>
</g>
<!-- Node1&#45;&gt;Node2 -->
<g id="edge1" class="edge"><title>Node1&#45;&gt;Node2</title>
<path fill="none" stroke="midnightblue" d="M74.8591,-103.851C91.8069,-114.872 116.025,-129.341 139,-138.5 148.359,-142.231 158.642,-145.354 168.616,-147.919"/>
<polygon fill="midnightblue" stroke="midnightblue" points="76.5139,-100.748 66.2457,-98.1378 72.6448,-106.582 76.5139,-100.748"/>
</g>
<!-- Node3 -->
<g id="node3" class="node"><title>Node3</title>
<g id="a_node3"><a xlink:href="classscram_1_1mef_1_1Initializer.xhtml#a14baeb786ca655ac41c6ad3197ebf612" target="_top" xlink:title="Specializations for elements defined after registration. ">
<polygon fill="white" stroke="black" points="160,-98.5 160,-128.5 279,-128.5 279,-98.5 160,-98.5"/>
<text text-anchor="start" x="168" y="-116.5" font-family="Helvetica,sans-Serif" font-size="10.00">scram::mef::Initializer</text>
<text text-anchor="middle" x="219.5" y="-105.5" font-family="Helvetica,sans-Serif" font-size="10.00">::Define</text>
</a>
</g>
</g>
<!-- Node1&#45;&gt;Node3 -->
<g id="edge2" class="edge"><title>Node1&#45;&gt;Node3</title>
<path fill="none" stroke="midnightblue" d="M113.514,-97.6889C128.685,-99.9736 144.911,-102.417 159.96,-104.684"/>
<polygon fill="midnightblue" stroke="midnightblue" points="113.617,-94.165 103.207,-96.1367 112.575,-101.087 113.617,-94.165"/>
</g>
<!-- Node4 -->
<g id="node4" class="node"><title>Node4</title>
<g id="a_node4"><a xlink:href="classscram_1_1mef_1_1Initializer.xhtml#a8fb6959baa83f7619b3ca9ed8423d40a" target="_top" xlink:title="Reads input files with the structure of analysis constructs. ">
<polygon fill="white" stroke="black" points="160,-49.5 160,-79.5 279,-79.5 279,-49.5 160,-49.5"/>
<text text-anchor="start" x="168" y="-67.5" font-family="Helvetica,sans-Serif" font-size="10.00">scram::mef::Initializer</text>
<text text-anchor="middle" x="219.5" y="-56.5" font-family="Helvetica,sans-Serif" font-size="10.00">::Initializer</text>
</a>
</g>
</g>
<!-- Node1&#45;&gt;Node4 -->
<g id="edge3" class="edge"><title>Node1&#45;&gt;Node4</title>
<path fill="none" stroke="midnightblue" d="M113.514,-79.6787C128.685,-77.4854 144.911,-75.1393 159.96,-72.9636"/>
<polygon fill="midnightblue" stroke="midnightblue" points="112.604,-76.2738 103.207,-81.1688 113.605,-83.2018 112.604,-76.2738"/>
</g>
<!-- Node5 -->
<g id="node5" class="node"><title>Node5</title>
<g id="a_node5"><a xlink:href="structscram_1_1mef_1_1Initializer_1_1Extractor_3_01T_00-1_01_4.xhtml#a0d6a8f1491cbe14a5aac653129c6445d" target="_top" xlink:title="Constructs an expression with a variable number of arguments. ">
<polygon fill="white" stroke="black" points="139,-0.5 139,-30.5 300,-30.5 300,-0.5 139,-0.5"/>
<text text-anchor="start" x="147" y="-18.5" font-family="Helvetica,sans-Serif" font-size="10.00">scram::mef::Initializer</text>
<text text-anchor="middle" x="219.5" y="-7.5" font-family="Helvetica,sans-Serif" font-size="10.00">::Extractor&lt; T,&#45;1 &gt;::operator()</text>
</a>
</g>
</g>
<!-- Node1&#45;&gt;Node5 -->
<g id="edge4" class="edge"><title>Node1&#45;&gt;Node5</title>
<path fill="none" stroke="midnightblue" d="M76.3629,-73.5375C93.3739,-63.3039 117.03,-49.9352 139,-40.5 147.375,-36.9031 156.443,-33.5625 165.355,-30.5699"/>
<polygon fill="midnightblue" stroke="midnightblue" points="74.3617,-70.6584 67.6489,-78.8554 78.0082,-76.6336 74.3617,-70.6584"/>
</g>
</g>
</svg>
