<?xml version="1.0" encoding="UTF-8" standalone="no"?>
<!DOCTYPE svg PUBLIC "-//W3C//DTD SVG 1.1//EN"
 "http://www.w3.org/Graphics/SVG/1.1/DTD/svg11.dtd">
<!-- Generated by graphviz version 2.38.0 (20140413.2041)
 -->
<!-- Title: scram::XmlStreamElement::XmlStreamElement Pages: 1 -->
<svg width="712pt" height="281pt"
 viewBox="0.00 0.00 712.00 281.00" xmlns="http://www.w3.org/2000/svg" xmlns:xlink="http://www.w3.org/1999/xlink">
<g id="graph0" class="graph" transform="scale(1 1) rotate(0) translate(4 277)">
<title>scram::XmlStreamElement::XmlStreamElement</title>
<polygon fill="white" stroke="none" points="-4,4 -4,-277 708,-277 708,4 -4,4"/>
<!-- Node1 -->
<g id="node1" class="node"><title>Node1</title>
<polygon fill="#bfbfbf" stroke="black" points="0,-130 0,-160 146,-160 146,-130 0,-130"/>
<text text-anchor="start" x="8" y="-148" font-family="Helvetica,sans-Serif" font-size="10.00">scram::XmlStreamElement</text>
<text text-anchor="middle" x="73" y="-137" font-family="Helvetica,sans-Serif" font-size="10.00">::XmlStreamElement</text>
</g>
<!-- Node2 -->
<g id="node2" class="node"><title>Node2</title>
<g id="a_node2"><a xlink:href="classscram_1_1XmlStreamElement.xhtml#ac8227ce1d2bf22ab83d3055a8e98fb2d" target="_top" xlink:title="Adds a child element to the element. ">
<polygon fill="white" stroke="black" points="182,-130 182,-160 328,-160 328,-130 182,-130"/>
<text text-anchor="start" x="190" y="-148" font-family="Helvetica,sans-Serif" font-size="10.00">scram::XmlStreamElement</text>
<text text-anchor="middle" x="255" y="-137" font-family="Helvetica,sans-Serif" font-size="10.00">::AddChild</text>
</a>
</g>
</g>
<!-- Node1&#45;&gt;Node2 -->
<g id="edge1" class="edge"><title>Node1&#45;&gt;Node2</title>
<path fill="none" stroke="midnightblue" d="M156.439,-145C164.906,-145 173.464,-145 181.808,-145"/>
<polygon fill="midnightblue" stroke="midnightblue" points="156.176,-141.5 146.176,-145 156.176,-148.5 156.176,-141.5"/>
</g>
<!-- Node3 -->
<g id="node3" class="node"><title>Node3</title>
<g id="a_node3"><a xlink:href="classscram_1_1Reporter.xhtml#a6a6327c0fc2d0e8ab6ec24a145ae1abe" target="_top" xlink:title="Reports the results of risk analysis on a model. ">
<polygon fill="white" stroke="black" points="386,-253.5 386,-272.5 516,-272.5 516,-253.5 386,-253.5"/>
<text text-anchor="middle" x="451" y="-260.5" font-family="Helvetica,sans-Serif" font-size="10.00">scram::Reporter::Report</text>
</a>
</g>
</g>
<!-- Node2&#45;&gt;Node3 -->
<g id="edge2" class="edge"><title>Node2&#45;&gt;Node3</title>
<path fill="none" stroke="midnightblue" d="M274.496,-167.887C294.236,-190.73 327.625,-225.077 364,-244 371.461,-247.881 379.685,-250.972 388.001,-253.432"/>
<polygon fill="midnightblue" stroke="midnightblue" points="276.991,-165.417 267.861,-160.042 271.646,-169.937 276.991,-165.417"/>
</g>
<!-- Node5 -->
<g id="node5" class="node"><title>Node5</title>
<g id="a_node5"><a xlink:href="reporter_8cc.xhtml#a460bfadbe33cffa6f9a8a149c93893e5" target="_top" xlink:title="Describes the fault tree analysis and techniques. ">
<polygon fill="white" stroke="black" points="364,-204 364,-234 538,-234 538,-204 364,-204"/>
<text text-anchor="start" x="372" y="-222" font-family="Helvetica,sans-Serif" font-size="10.00">scram::ReportCalculatedQuantity</text>
<text text-anchor="middle" x="451" y="-211" font-family="Helvetica,sans-Serif" font-size="10.00">&lt; core::FaultTreeAnalysis &gt;</text>
</a>
</g>
</g>
<!-- Node2&#45;&gt;Node5 -->
<g id="edge4" class="edge"><title>Node2&#45;&gt;Node5</title>
<path fill="none" stroke="midnightblue" d="M294.49,-164.664C314.825,-174.578 340.399,-186.308 364,-195 372.728,-198.214 382.088,-201.24 391.306,-203.989"/>
<polygon fill="midnightblue" stroke="midnightblue" points="295.768,-161.392 285.251,-160.109 292.673,-167.67 295.768,-161.392"/>
</g>
<!-- Node6 -->
<g id="node6" class="node"><title>Node6</title>
<g id="a_node6"><a xlink:href="reporter_8cc.xhtml#a04a0fc48f27649e05bafe389d05c7d97" target="_top" xlink:title="Describes the probability analysis and techniques. ">
<polygon fill="white" stroke="black" points="364,-155 364,-185 538,-185 538,-155 364,-155"/>
<text text-anchor="start" x="372" y="-173" font-family="Helvetica,sans-Serif" font-size="10.00">scram::ReportCalculatedQuantity</text>
<text text-anchor="middle" x="451" y="-162" font-family="Helvetica,sans-Serif" font-size="10.00">&lt; core::ProbabilityAnalysis &gt;</text>
</a>
</g>
</g>
<!-- Node2&#45;&gt;Node6 -->
<g id="edge5" class="edge"><title>Node2&#45;&gt;Node6</title>
<path fill="none" stroke="midnightblue" d="M338.16,-155.588C346.686,-156.686 355.37,-157.805 363.938,-158.91"/>
<polygon fill="midnightblue" stroke="midnightblue" points="338.604,-152.116 328.238,-154.309 337.709,-159.059 338.604,-152.116"/>
</g>
<!-- Node7 -->
<g id="node7" class="node"><title>Node7</title>
<g id="a_node7"><a xlink:href="reporter_8cc.xhtml#ae12d3bcaf8c4c099d2d5c84a67286424" target="_top" xlink:title="Describes the uncertainty analysis and techniques. ">
<polygon fill="white" stroke="black" points="364,-106 364,-136 538,-136 538,-106 364,-106"/>
<text text-anchor="start" x="372" y="-124" font-family="Helvetica,sans-Serif" font-size="10.00">scram::ReportCalculatedQuantity</text>
<text text-anchor="middle" x="451" y="-113" font-family="Helvetica,sans-Serif" font-size="10.00">&lt; core::UncertaintyAnalysis &gt;</text>
</a>
</g>
</g>
<!-- Node2&#45;&gt;Node7 -->
<g id="edge6" class="edge"><title>Node2&#45;&gt;Node7</title>
<path fill="none" stroke="midnightblue" d="M338.438,-134.802C346.875,-133.758 355.463,-132.695 363.938,-131.647"/>
<polygon fill="midnightblue" stroke="midnightblue" points="337.733,-131.362 328.238,-136.063 338.593,-138.309 337.733,-131.362"/>
</g>
<!-- Node8 -->
<g id="node8" class="node"><title>Node8</title>
<g id="a_node8"><a xlink:href="reporter_8cc.xhtml#ad6460094a94fb73e56c2a4a5efc598ed" target="_top" xlink:title="Describes all performed analyses deduced from settings. ">
<polygon fill="white" stroke="black" points="364,-57 364,-87 538,-87 538,-57 364,-57"/>
<text text-anchor="start" x="372" y="-75" font-family="Helvetica,sans-Serif" font-size="10.00">scram::ReportCalculatedQuantity</text>
<text text-anchor="middle" x="451" y="-64" font-family="Helvetica,sans-Serif" font-size="10.00">&lt; core::RiskAnalysis &gt;</text>
</a>
</g>
</g>
<!-- Node2&#45;&gt;Node8 -->
<g id="edge7" class="edge"><title>Node2&#45;&gt;Node8</title>
<path fill="none" stroke="midnightblue" d="M296.355,-125.505C316.425,-116.212 341.209,-105.334 364,-97 373.638,-93.4757 384.023,-90.107 394.128,-87.0478"/>
<polygon fill="midnightblue" stroke="midnightblue" points="294.777,-122.379 287.2,-129.785 297.741,-128.721 294.777,-122.379"/>
</g>
<!-- Node9 -->
<g id="node9" class="node"><title>Node9</title>
<g id="a_node9"><a xlink:href="serialization_8cc.xhtml#a83f7058a5caad9ec3ffb5fd6c7d7b8f6" target="_top" xlink:title="Convenience function for serialization into a file. ">
<polygon fill="white" stroke="black" points="392,-0.5 392,-19.5 510,-19.5 510,-0.5 392,-0.5"/>
<text text-anchor="middle" x="451" y="-7.5" font-family="Helvetica,sans-Serif" font-size="10.00">scram::mef::Serialize</text>
</a>
</g>
</g>
<!-- Node2&#45;&gt;Node9 -->
<g id="edge8" class="edge"><title>Node2&#45;&gt;Node9</title>
<path fill="none" stroke="midnightblue" d="M276.803,-122.598C297.41,-101.357 330.636,-69.5703 364,-48 382.368,-36.1244 405.07,-26.2696 422.536,-19.5738"/>
<polygon fill="midnightblue" stroke="midnightblue" points="274.192,-120.264 269.805,-129.908 279.248,-125.105 274.192,-120.264"/>
</g>
<!-- Node4 -->
<g id="node4" class="node"><title>Node4</title>
<g id="a_node4"><a xlink:href="classscram_1_1Reporter.xhtml#acf35ee03ce2ffc48aed92a578842b9d6" target="_top" xlink:title="A convenience function to generate the report into a file. ">
<polygon fill="white" stroke="black" points="574,-253.5 574,-272.5 704,-272.5 704,-253.5 574,-253.5"/>
<text text-anchor="middle" x="639" y="-260.5" font-family="Helvetica,sans-Serif" font-size="10.00">scram::Reporter::Report</text>
</a>
</g>
</g>
<!-- Node3&#45;&gt;Node4 -->
<g id="edge3" class="edge"><title>Node3&#45;&gt;Node4</title>
<path fill="none" stroke="midnightblue" d="M526.242,-263C542.007,-263 558.521,-263 573.871,-263"/>
<polygon fill="midnightblue" stroke="midnightblue" points="526.011,-259.5 516.011,-263 526.011,-266.5 526.011,-259.5"/>
</g>
<!-- Node9&#45;&gt;Node9 -->
<g id="edge9" class="edge"><title>Node9&#45;&gt;Node9</title>
<path fill="none" stroke="midnightblue" d="M415.768,-27.8913C416.284,-33.5406 428.028,-38 451,-38 484.414,-38 494.073,-28.5653 479.976,-19.7571"/>
<polygon fill="midnightblue" stroke="midnightblue" points="418.702,-29.8176 422.024,-19.7571 413.153,-25.5501 418.702,-29.8176"/>
</g>
</g>
</svg>
