<?xml version="1.0" encoding="UTF-8" standalone="no"?>
<!DOCTYPE svg PUBLIC "-//W3C//DTD SVG 1.1//EN"
 "http://www.w3.org/Graphics/SVG/1.1/DTD/svg11.dtd">
<!-- Generated by graphviz version 2.38.0 (20140413.2041)
 -->
<!-- Title: scram::Config::Config Pages: 1 -->
<svg width="315pt" height="1194pt"
 viewBox="0.00 0.00 315.00 1193.50" xmlns="http://www.w3.org/2000/svg" xmlns:xlink="http://www.w3.org/1999/xlink">
<g id="graph0" class="graph" transform="scale(1 1) rotate(0) translate(4 1189.5)">
<title>scram::Config::Config</title>
<polygon fill="white" stroke="none" points="-4,4 -4,-1189.5 311,-1189.5 311,4 -4,4"/>
<!-- Node1 -->
<g id="node1" class="node"><title>Node1</title>
<polygon fill="#bfbfbf" stroke="black" points="0,-566.5 0,-585.5 119,-585.5 119,-566.5 0,-566.5"/>
<text text-anchor="middle" x="59.5" y="-573.5" font-family="Helvetica,sans-Serif" font-size="10.00">scram::Config::Config</text>
</g>
<!-- Node2 -->
<g id="node2" class="node"><title>Node2</title>
<g id="a_node2"><a xlink:href="classscram_1_1core_1_1Settings.xhtml#a34ae01bd2f50a2625c22ff3441315a61" target="_top" xlink:title="scram::core::Settings\l::algorithm">
<polygon fill="white" stroke="black" points="171.5,-1155 171.5,-1185 290.5,-1185 290.5,-1155 171.5,-1155"/>
<text text-anchor="start" x="179.5" y="-1173" font-family="Helvetica,sans-Serif" font-size="10.00">scram::core::Settings</text>
<text text-anchor="middle" x="231" y="-1162" font-family="Helvetica,sans-Serif" font-size="10.00">::algorithm</text>
</a>
</g>
</g>
<!-- Node1&#45;&gt;Node2 -->
<g id="edge1" class="edge"><title>Node1&#45;&gt;Node2</title>
<path fill="none" stroke="midnightblue" d="M60.7604,-585.503C62.7891,-652.775 78.0962,-1057.01 155,-1146 157.235,-1148.59 159.748,-1150.9 162.465,-1152.96"/>
<polygon fill="midnightblue" stroke="midnightblue" points="160.823,-1156.06 171.148,-1158.44 164.557,-1150.14 160.823,-1156.06"/>
</g>
<!-- Node3 -->
<g id="node3" class="node"><title>Node3</title>
<g id="a_node3"><a xlink:href="classscram_1_1core_1_1Settings.xhtml#ace850c06d594dd41a09bda3b3e1cc179" target="_top" xlink:title="scram::core::Settings\l::approximation">
<polygon fill="white" stroke="black" points="171.5,-1106 171.5,-1136 290.5,-1136 290.5,-1106 171.5,-1106"/>
<text text-anchor="start" x="179.5" y="-1124" font-family="Helvetica,sans-Serif" font-size="10.00">scram::core::Settings</text>
<text text-anchor="middle" x="231" y="-1113" font-family="Helvetica,sans-Serif" font-size="10.00">::approximation</text>
</a>
</g>
</g>
<!-- Node1&#45;&gt;Node3 -->
<g id="edge2" class="edge"><title>Node1&#45;&gt;Node3</title>
<path fill="none" stroke="midnightblue" d="M60.9408,-585.911C64.0249,-650.948 84.3619,-1016.5 155,-1097 157.254,-1099.57 159.784,-1101.87 162.513,-1103.92"/>
<polygon fill="midnightblue" stroke="midnightblue" points="160.89,-1107.03 171.224,-1109.37 164.604,-1101.1 160.89,-1107.03"/>
</g>
<!-- Node4 -->
<g id="node4" class="node"><title>Node4</title>
<g id="a_node4"><a xlink:href="classscram_1_1core_1_1Settings.xhtml#a4a71410d7b91bb82cadc29c0fe0b2506" target="_top" xlink:title="scram::core::Settings\l::ccf_analysis">
<polygon fill="white" stroke="black" points="171.5,-1057 171.5,-1087 290.5,-1087 290.5,-1057 171.5,-1057"/>
<text text-anchor="start" x="179.5" y="-1075" font-family="Helvetica,sans-Serif" font-size="10.00">scram::core::Settings</text>
<text text-anchor="middle" x="231" y="-1064" font-family="Helvetica,sans-Serif" font-size="10.00">::ccf_analysis</text>
</a>
</g>
</g>
<!-- Node1&#45;&gt;Node4 -->
<g id="edge3" class="edge"><title>Node1&#45;&gt;Node4</title>
<path fill="none" stroke="midnightblue" d="M61.1326,-585.762C65.2756,-646.799 90.3996,-975.719 155,-1048 157.278,-1050.55 159.826,-1052.83 162.569,-1054.87"/>
<polygon fill="midnightblue" stroke="midnightblue" points="160.971,-1057.99 171.314,-1060.29 164.66,-1052.04 160.971,-1057.99"/>
</g>
<!-- Node5 -->
<g id="node5" class="node"><title>Node5</title>
<g id="a_node5"><a xlink:href="classscram_1_1Env.xhtml#a21479e967316f19a8b1570e9c5e5b926" target="_top" xlink:title="scram::Env::config\l_schema">
<polygon fill="white" stroke="black" points="179,-1008 179,-1038 283,-1038 283,-1008 179,-1008"/>
<text text-anchor="start" x="187" y="-1026" font-family="Helvetica,sans-Serif" font-size="10.00">scram::Env::config</text>
<text text-anchor="middle" x="231" y="-1015" font-family="Helvetica,sans-Serif" font-size="10.00">_schema</text>
</a>
</g>
</g>
<!-- Node1&#45;&gt;Node5 -->
<g id="edge4" class="edge"><title>Node1&#45;&gt;Node5</title>
<path fill="none" stroke="midnightblue" d="M61.3996,-585.816C66.8332,-643.092 96.9966,-933.792 155,-998 159.227,-1002.68 164.351,-1006.48 169.916,-1009.58"/>
<polygon fill="midnightblue" stroke="midnightblue" points="168.422,-1012.74 178.956,-1013.88 171.428,-1006.42 168.422,-1012.74"/>
</g>
<!-- Node6 -->
<g id="node6" class="node"><title>Node6</title>
<g id="a_node6"><a xlink:href="xml_8h.xhtml#ac6e06a790ddf60f0108718e37bb405ed" target="_top" xlink:title="Initializes a DOM parser and converts library exceptions into local errors. ">
<polygon fill="white" stroke="black" points="155,-951.5 155,-970.5 307,-970.5 307,-951.5 155,-951.5"/>
<text text-anchor="middle" x="231" y="-958.5" font-family="Helvetica,sans-Serif" font-size="10.00">scram::ConstructDomParser</text>
</a>
</g>
</g>
<!-- Node1&#45;&gt;Node6 -->
<g id="edge5" class="edge"><title>Node1&#45;&gt;Node6</title>
<path fill="none" stroke="midnightblue" d="M61.6547,-585.586C68.1491,-637.95 101.746,-888.989 155,-942 156.428,-943.421 157.946,-944.742 159.539,-945.967"/>
<polygon fill="midnightblue" stroke="midnightblue" points="157.729,-948.964 168.054,-951.342 161.466,-943.045 157.729,-948.964"/>
</g>
<!-- Node7 -->
<g id="node7" class="node"><title>Node7</title>
<g id="a_node7"><a xlink:href="classscram_1_1core_1_1Settings.xhtml#acbba7a642ade93cf58155748cdf0b446" target="_top" xlink:title="scram::core::Settings\l::cut_off">
<polygon fill="white" stroke="black" points="171.5,-902 171.5,-932 290.5,-932 290.5,-902 171.5,-902"/>
<text text-anchor="start" x="179.5" y="-920" font-family="Helvetica,sans-Serif" font-size="10.00">scram::core::Settings</text>
<text text-anchor="middle" x="231" y="-909" font-family="Helvetica,sans-Serif" font-size="10.00">::cut_off</text>
</a>
</g>
</g>
<!-- Node1&#45;&gt;Node7 -->
<g id="edge7" class="edge"><title>Node1&#45;&gt;Node7</title>
<path fill="none" stroke="midnightblue" d="M60.3756,-585.543C60.3545,-627.809 65.9256,-800.105 155,-892 157.34,-894.415 159.92,-896.596 162.671,-898.567"/>
<polygon fill="midnightblue" stroke="midnightblue" points="161.012,-901.654 171.373,-903.869 164.655,-895.677 161.012,-901.654"/>
</g>
<!-- Node8 -->
<g id="node8" class="node"><title>Node8</title>
<g id="a_node8"><a xlink:href="xml_8h.xhtml#a0c5491388e25d1f1badb26b56ef302e7" target="_top" xlink:title="Returns Normalized (trimmed) string value of an XML element attribute. ">
<polygon fill="white" stroke="black" points="162,-845.5 162,-864.5 300,-864.5 300,-845.5 162,-845.5"/>
<text text-anchor="middle" x="231" y="-852.5" font-family="Helvetica,sans-Serif" font-size="10.00">scram::GetAttributeValue</text>
</a>
</g>
</g>
<!-- Node1&#45;&gt;Node8 -->
<g id="edge8" class="edge"><title>Node1&#45;&gt;Node8</title>
<path fill="none" stroke="midnightblue" d="M60.9161,-585.515C63.1062,-623.41 76.4493,-764.972 155,-836 156.74,-837.574 158.593,-839.021 160.533,-840.352"/>
<polygon fill="midnightblue" stroke="midnightblue" points="159.112,-843.571 169.535,-845.473 162.573,-837.486 159.112,-843.571"/>
</g>
<!-- Node9 -->
<g id="node9" class="node"><title>Node9</title>
<g id="a_node9"><a xlink:href="xml_8h.xhtml#a818b7826f3993c5ff58d45a237274285" target="_top" xlink:title="Returns Normalized content of an XML text node. ">
<polygon fill="white" stroke="black" points="177,-789.5 177,-808.5 285,-808.5 285,-789.5 177,-789.5"/>
<text text-anchor="middle" x="231" y="-796.5" font-family="Helvetica,sans-Serif" font-size="10.00">scram::GetContent</text>
</a>
</g>
</g>
<!-- Node1&#45;&gt;Node9 -->
<g id="edge10" class="edge"><title>Node1&#45;&gt;Node9</title>
<path fill="none" stroke="midnightblue" d="M62.0255,-585.899C67.658,-618.948 90.4143,-726.417 155,-780 158.744,-783.106 162.93,-785.714 167.358,-787.902"/>
<polygon fill="midnightblue" stroke="midnightblue" points="166.147,-791.189 176.722,-791.829 168.854,-784.734 166.147,-791.189"/>
</g>
<!-- Node10 -->
<g id="node10" class="node"><title>Node10</title>
<g id="a_node10"><a xlink:href="xml_8h.xhtml#a0f074705681d730dcd5fb6035e91f30f" target="_top" xlink:title="Returns XML line number message. ">
<polygon fill="white" stroke="black" points="186.5,-733.5 186.5,-752.5 275.5,-752.5 275.5,-733.5 186.5,-733.5"/>
<text text-anchor="middle" x="231" y="-740.5" font-family="Helvetica,sans-Serif" font-size="10.00">scram::GetLine</text>
</a>
</g>
</g>
<!-- Node1&#45;&gt;Node10 -->
<g id="edge12" class="edge"><title>Node1&#45;&gt;Node10</title>
<path fill="none" stroke="midnightblue" d="M63.7987,-585.743C73.3361,-612.378 103.589,-686.882 155,-724 161.432,-728.644 168.888,-732.156 176.554,-734.812"/>
<polygon fill="midnightblue" stroke="midnightblue" points="175.73,-738.219 186.314,-737.739 177.741,-731.514 175.73,-738.219"/>
</g>
<!-- Node11 -->
<g id="node11" class="node"><title>Node11</title>
<g id="a_node11"><a xlink:href="classscram_1_1core_1_1Settings.xhtml#a16c99e2ccd22a9be037f6c6fe229894b" target="_top" xlink:title="scram::core::Settings\l::importance_analysis">
<polygon fill="white" stroke="black" points="170.5,-684 170.5,-714 291.5,-714 291.5,-684 170.5,-684"/>
<text text-anchor="start" x="178.5" y="-702" font-family="Helvetica,sans-Serif" font-size="10.00">scram::core::Settings</text>
<text text-anchor="middle" x="231" y="-691" font-family="Helvetica,sans-Serif" font-size="10.00">::importance_analysis</text>
</a>
</g>
</g>
<!-- Node1&#45;&gt;Node11 -->
<g id="edge14" class="edge"><title>Node1&#45;&gt;Node11</title>
<path fill="none" stroke="midnightblue" d="M67.134,-585.694C81.1005,-605.387 115.522,-650.295 155,-675 157.638,-676.651 160.401,-678.198 163.244,-679.647"/>
<polygon fill="midnightblue" stroke="midnightblue" points="162.001,-682.928 172.547,-683.946 164.937,-676.574 162.001,-682.928"/>
</g>
<!-- Node12 -->
<g id="node12" class="node"><title>Node12</title>
<g id="a_node12"><a xlink:href="classscram_1_1Config.xhtml#a5ac61fcdac1a41a1d19c191c9a5c50b4" target="_top" xlink:title="scram::Config::input\l_files">
<polygon fill="white" stroke="black" points="174.5,-635 174.5,-665 287.5,-665 287.5,-635 174.5,-635"/>
<text text-anchor="start" x="182.5" y="-653" font-family="Helvetica,sans-Serif" font-size="10.00">scram::Config::input</text>
<text text-anchor="middle" x="231" y="-642" font-family="Helvetica,sans-Serif" font-size="10.00">_files</text>
</a>
</g>
</g>
<!-- Node1&#45;&gt;Node12 -->
<g id="edge15" class="edge"><title>Node1&#45;&gt;Node12</title>
<path fill="none" stroke="midnightblue" d="M76.4634,-585.57C94.9187,-596.366 126.428,-613.981 155,-626 159.489,-627.888 164.182,-629.716 168.933,-631.463"/>
<polygon fill="midnightblue" stroke="midnightblue" points="168.13,-634.892 178.725,-634.93 170.467,-628.293 168.13,-634.892"/>
</g>
<!-- Node13 -->
<g id="node13" class="node"><title>Node13</title>
<g id="a_node13"><a xlink:href="classscram_1_1core_1_1Settings.xhtml#a0e43ec0f017d23a4fa4e376c4060d380" target="_top" xlink:title="scram::core::Settings\l::limit_order">
<polygon fill="white" stroke="black" points="171.5,-586 171.5,-616 290.5,-616 290.5,-586 171.5,-586"/>
<text text-anchor="start" x="179.5" y="-604" font-family="Helvetica,sans-Serif" font-size="10.00">scram::core::Settings</text>
<text text-anchor="middle" x="231" y="-593" font-family="Helvetica,sans-Serif" font-size="10.00">::limit_order</text>
</a>
</g>
</g>
<!-- Node1&#45;&gt;Node13 -->
<g id="edge16" class="edge"><title>Node1&#45;&gt;Node13</title>
<path fill="none" stroke="midnightblue" d="M119.307,-584.674C132.849,-586.671 147.369,-588.812 161.289,-590.866"/>
<polygon fill="midnightblue" stroke="midnightblue" points="160.893,-594.345 171.297,-592.342 161.915,-587.42 160.893,-594.345"/>
</g>
<!-- Node14 -->
<g id="node14" class="node"><title>Node14</title>
<g id="a_node14"><a xlink:href="classscram_1_1core_1_1Settings.xhtml#a0c130c599ff39bd4a5b269907f06b66d" target="_top" xlink:title="scram::core::Settings\l::mission_time">
<polygon fill="white" stroke="black" points="171.5,-537 171.5,-567 290.5,-567 290.5,-537 171.5,-537"/>
<text text-anchor="start" x="179.5" y="-555" font-family="Helvetica,sans-Serif" font-size="10.00">scram::core::Settings</text>
<text text-anchor="middle" x="231" y="-544" font-family="Helvetica,sans-Serif" font-size="10.00">::mission_time</text>
</a>
</g>
</g>
<!-- Node1&#45;&gt;Node14 -->
<g id="edge17" class="edge"><title>Node1&#45;&gt;Node14</title>
<path fill="none" stroke="midnightblue" d="M119.307,-567.673C132.849,-565.756 147.369,-563.7 161.289,-561.729"/>
<polygon fill="midnightblue" stroke="midnightblue" points="161.886,-565.179 171.297,-560.312 160.905,-558.249 161.886,-565.179"/>
</g>
<!-- Node15 -->
<g id="node15" class="node"><title>Node15</title>
<g id="a_node15"><a xlink:href="classscram_1_1Error.xhtml#a35818dcc7c8dde101d4fd117adf47bc3" target="_top" xlink:title="scram::Error::msg">
<polygon fill="white" stroke="black" points="179.5,-498.5 179.5,-517.5 282.5,-517.5 282.5,-498.5 179.5,-498.5"/>
<text text-anchor="middle" x="231" y="-505.5" font-family="Helvetica,sans-Serif" font-size="10.00">scram::Error::msg</text>
</a>
</g>
</g>
<!-- Node1&#45;&gt;Node15 -->
<g id="edge18" class="edge"><title>Node1&#45;&gt;Node15</title>
<path fill="none" stroke="midnightblue" d="M76.7482,-566.419C95.2048,-555.855 126.469,-538.912 155,-528 162.346,-525.191 170.24,-522.623 178.05,-520.332"/>
<polygon fill="midnightblue" stroke="midnightblue" points="179.169,-523.654 187.852,-517.582 177.278,-516.914 179.169,-523.654"/>
</g>
<!-- Node16 -->
<g id="node16" class="node"><title>Node16</title>
<g id="a_node16"><a xlink:href="classscram_1_1core_1_1Settings.xhtml#ad646c62b90b1e6cef5a2db6ea9834601" target="_top" xlink:title="scram::core::Settings\l::num_bins">
<polygon fill="white" stroke="black" points="171.5,-449 171.5,-479 290.5,-479 290.5,-449 171.5,-449"/>
<text text-anchor="start" x="179.5" y="-467" font-family="Helvetica,sans-Serif" font-size="10.00">scram::core::Settings</text>
<text text-anchor="middle" x="231" y="-456" font-family="Helvetica,sans-Serif" font-size="10.00">::num_bins</text>
</a>
</g>
</g>
<!-- Node1&#45;&gt;Node16 -->
<g id="edge19" class="edge"><title>Node1&#45;&gt;Node16</title>
<path fill="none" stroke="midnightblue" d="M68.3508,-566.485C83.4043,-548.814 118.121,-510.753 155,-489 158.591,-486.882 162.386,-484.914 166.285,-483.092"/>
<polygon fill="midnightblue" stroke="midnightblue" points="167.736,-486.278 175.527,-479.099 164.959,-479.852 167.736,-486.278"/>
</g>
<!-- Node17 -->
<g id="node17" class="node"><title>Node17</title>
<g id="a_node17"><a xlink:href="classscram_1_1core_1_1Settings.xhtml#a35d180dd84bc1006157a02791c4bd210" target="_top" xlink:title="scram::core::Settings\l::num_quantiles">
<polygon fill="white" stroke="black" points="171.5,-400 171.5,-430 290.5,-430 290.5,-400 171.5,-400"/>
<text text-anchor="start" x="179.5" y="-418" font-family="Helvetica,sans-Serif" font-size="10.00">scram::core::Settings</text>
<text text-anchor="middle" x="231" y="-407" font-family="Helvetica,sans-Serif" font-size="10.00">::num_quantiles</text>
</a>
</g>
</g>
<!-- Node1&#45;&gt;Node17 -->
<g id="edge20" class="edge"><title>Node1&#45;&gt;Node17</title>
<path fill="none" stroke="midnightblue" d="M64.6394,-566.164C75.6024,-541.284 107.817,-475.324 155,-440 157.501,-438.127 160.151,-436.39 162.903,-434.779"/>
<polygon fill="midnightblue" stroke="midnightblue" points="164.729,-437.774 171.981,-430.051 161.495,-431.566 164.729,-437.774"/>
</g>
<!-- Node18 -->
<g id="node18" class="node"><title>Node18</title>
<g id="a_node18"><a xlink:href="classscram_1_1core_1_1Settings.xhtml#adda26a07ac3d505246a23b80829f8267" target="_top" xlink:title="scram::core::Settings\l::num_trials">
<polygon fill="white" stroke="black" points="171.5,-351 171.5,-381 290.5,-381 290.5,-351 171.5,-351"/>
<text text-anchor="start" x="179.5" y="-369" font-family="Helvetica,sans-Serif" font-size="10.00">scram::core::Settings</text>
<text text-anchor="middle" x="231" y="-358" font-family="Helvetica,sans-Serif" font-size="10.00">::num_trials</text>
</a>
</g>
</g>
<!-- Node1&#45;&gt;Node18 -->
<g id="edge21" class="edge"><title>Node1&#45;&gt;Node18</title>
<path fill="none" stroke="midnightblue" d="M62.6725,-566.334C70.0115,-535.896 96.7499,-441.082 155,-391 157.369,-388.963 159.91,-387.09 162.574,-385.369"/>
<polygon fill="midnightblue" stroke="midnightblue" points="164.445,-388.333 171.436,-380.372 161.007,-382.235 164.445,-388.333"/>
</g>
<!-- Node19 -->
<g id="node19" class="node"><title>Node19</title>
<g id="a_node19"><a xlink:href="classscram_1_1core_1_1Settings.xhtml#ae64f362fceb44402e101140dfc1725ba" target="_top" xlink:title="scram::core::Settings\l::prime_implicants">
<polygon fill="white" stroke="black" points="171.5,-302 171.5,-332 290.5,-332 290.5,-302 171.5,-302"/>
<text text-anchor="start" x="179.5" y="-320" font-family="Helvetica,sans-Serif" font-size="10.00">scram::core::Settings</text>
<text text-anchor="middle" x="231" y="-309" font-family="Helvetica,sans-Serif" font-size="10.00">::prime_implicants</text>
</a>
</g>
</g>
<!-- Node1&#45;&gt;Node19 -->
<g id="edge22" class="edge"><title>Node1&#45;&gt;Node19</title>
<path fill="none" stroke="midnightblue" d="M61.5278,-566.387C65.81,-531.105 85.3999,-407.409 155,-342 157.4,-339.744 160.01,-337.692 162.768,-335.824"/>
<polygon fill="midnightblue" stroke="midnightblue" points="164.565,-338.828 171.429,-330.758 161.03,-332.786 164.565,-338.828"/>
</g>
<!-- Node20 -->
<g id="node20" class="node"><title>Node20</title>
<g id="a_node20"><a xlink:href="classscram_1_1core_1_1Settings.xhtml#a83ddd939f7217fb9f0438bd1dd01f7b1" target="_top" xlink:title="scram::core::Settings\l::probability_analysis">
<polygon fill="white" stroke="black" points="171.5,-253 171.5,-283 290.5,-283 290.5,-253 171.5,-253"/>
<text text-anchor="start" x="179.5" y="-271" font-family="Helvetica,sans-Serif" font-size="10.00">scram::core::Settings</text>
<text text-anchor="middle" x="231" y="-260" font-family="Helvetica,sans-Serif" font-size="10.00">::probability_analysis</text>
</a>
</g>
</g>
<!-- Node1&#45;&gt;Node20 -->
<g id="edge23" class="edge"><title>Node1&#45;&gt;Node20</title>
<path fill="none" stroke="midnightblue" d="M60.7647,-566.385C62.3817,-526.724 73.8491,-374.108 155,-293 157.257,-290.744 159.723,-288.692 162.341,-286.825"/>
<polygon fill="midnightblue" stroke="midnightblue" points="164.423,-289.655 171.15,-281.469 160.787,-283.673 164.423,-289.655"/>
</g>
<!-- Node21 -->
<g id="node21" class="node"><title>Node21</title>
<g id="a_node21"><a xlink:href="classscram_1_1core_1_1Settings.xhtml#a694757a6ab5effaea2d585905950d6bd" target="_top" xlink:title="scram::core::Settings\l::safety_integrity_levels">
<polygon fill="white" stroke="black" points="167,-204 167,-234 295,-234 295,-204 167,-204"/>
<text text-anchor="start" x="175" y="-222" font-family="Helvetica,sans-Serif" font-size="10.00">scram::core::Settings</text>
<text text-anchor="middle" x="231" y="-211" font-family="Helvetica,sans-Serif" font-size="10.00">::safety_integrity_levels</text>
</a>
</g>
</g>
<!-- Node1&#45;&gt;Node21 -->
<g id="edge24" class="edge"><title>Node1&#45;&gt;Node21</title>
<path fill="none" stroke="midnightblue" d="M60.2111,-566.282C59.4512,-522.439 62.211,-341.007 155,-244 156.387,-242.549 157.861,-241.183 159.407,-239.896"/>
<polygon fill="midnightblue" stroke="midnightblue" points="161.493,-242.708 167.667,-234.098 157.471,-236.978 161.493,-242.708"/>
</g>
<!-- Node22 -->
<g id="node22" class="node"><title>Node22</title>
<g id="a_node22"><a xlink:href="classscram_1_1core_1_1Settings.xhtml#a9937a41d3fd1369f2eea59e1f33a1ac5" target="_top" xlink:title="scram::core::Settings\l::seed">
<polygon fill="white" stroke="black" points="171.5,-155 171.5,-185 290.5,-185 290.5,-155 171.5,-155"/>
<text text-anchor="start" x="179.5" y="-173" font-family="Helvetica,sans-Serif" font-size="10.00">scram::core::Settings</text>
<text text-anchor="middle" x="231" y="-162" font-family="Helvetica,sans-Serif" font-size="10.00">::seed</text>
</a>
</g>
</g>
<!-- Node1&#45;&gt;Node22 -->
<g id="edge25" class="edge"><title>Node1&#45;&gt;Node22</title>
<path fill="none" stroke="midnightblue" d="M61.6218,-566.444C68.0624,-513.093 101.919,-252.428 155,-195 157.282,-192.531 159.815,-190.305 162.529,-188.299"/>
<polygon fill="midnightblue" stroke="midnightblue" points="164.519,-191.183 171.145,-182.916 160.81,-185.246 164.519,-191.183"/>
</g>
<!-- Node23 -->
<g id="node23" class="node"><title>Node23</title>
<g id="a_node23"><a xlink:href="classscram_1_1core_1_1Settings.xhtml#a2bc9e5d7c8028a8fd8e2ea02d766bb2b" target="_top" xlink:title="scram::core::Settings\l::time_step">
<polygon fill="white" stroke="black" points="171.5,-106 171.5,-136 290.5,-136 290.5,-106 171.5,-106"/>
<text text-anchor="start" x="179.5" y="-124" font-family="Helvetica,sans-Serif" font-size="10.00">scram::core::Settings</text>
<text text-anchor="middle" x="231" y="-113" font-family="Helvetica,sans-Serif" font-size="10.00">::time_step</text>
</a>
</g>
</g>
<!-- Node1&#45;&gt;Node23 -->
<g id="edge26" class="edge"><title>Node1&#45;&gt;Node23</title>
<path fill="none" stroke="midnightblue" d="M61.3382,-566.376C66.5228,-508.934 95.9511,-211.627 155,-146 157.367,-143.37 160.018,-141.015 162.871,-138.908"/>
<polygon fill="midnightblue" stroke="midnightblue" points="164.748,-141.863 171.382,-133.601 161.045,-135.923 164.748,-141.863"/>
</g>
<!-- Node24 -->
<g id="node24" class="node"><title>Node24</title>
<g id="a_node24"><a xlink:href="classscram_1_1core_1_1Settings.xhtml#aa07ede20b118ae78028fb0807e52f632" target="_top" xlink:title="scram::core::Settings\l::uncertainty_analysis">
<polygon fill="white" stroke="black" points="171,-57 171,-87 291,-87 291,-57 171,-57"/>
<text text-anchor="start" x="179" y="-75" font-family="Helvetica,sans-Serif" font-size="10.00">scram::core::Settings</text>
<text text-anchor="middle" x="231" y="-64" font-family="Helvetica,sans-Serif" font-size="10.00">::uncertainty_analysis</text>
</a>
</g>
</g>
<!-- Node1&#45;&gt;Node24 -->
<g id="edge27" class="edge"><title>Node1&#45;&gt;Node24</title>
<path fill="none" stroke="midnightblue" d="M61.1228,-566.105C65.2053,-504.234 90.0248,-170.797 155,-97 157.222,-94.4762 159.706,-92.2065 162.381,-90.1653"/>
<polygon fill="midnightblue" stroke="midnightblue" points="164.376,-93.0436 170.909,-84.7021 160.6,-87.1494 164.376,-93.0436"/>
</g>
<!-- Node25 -->
<g id="node25" class="node"><title>Node25</title>
<g id="a_node25"><a xlink:href="xml_8h.xhtml#ab908f9834f69be3009ee07445b51a673" target="_top" xlink:title="Helper function to statically cast to XML element. ">
<polygon fill="white" stroke="black" points="176,-0.5 176,-19.5 286,-19.5 286,-0.5 176,-0.5"/>
<text text-anchor="middle" x="231" y="-7.5" font-family="Helvetica,sans-Serif" font-size="10.00">scram::XmlElement</text>
</a>
</g>
</g>
<!-- Node1&#45;&gt;Node25 -->
<g id="edge28" class="edge"><title>Node1&#45;&gt;Node25</title>
<path fill="none" stroke="midnightblue" d="M61.0835,-566.088C65.0843,-501.029 90.2576,-135.053 155,-48 162.904,-37.3717 174.628,-29.5036 186.471,-23.7743"/>
<polygon fill="midnightblue" stroke="midnightblue" points="188.173,-26.8498 195.923,-19.6262 185.36,-20.4398 188.173,-26.8498"/>
</g>
<!-- Node6&#45;&gt;Node6 -->
<g id="edge6" class="edge"><title>Node6&#45;&gt;Node6</title>
<path fill="none" stroke="midnightblue" d="M204.798,-970.757C192.051,-979.565 200.785,-989 231,-989 251.301,-989 261.904,-984.741 262.811,-979.275"/>
<polygon fill="midnightblue" stroke="midnightblue" points="265.625,-977.184 257.202,-970.757 259.779,-981.034 265.625,-977.184"/>
</g>
<!-- Node8&#45;&gt;Node8 -->
<g id="edge9" class="edge"><title>Node8&#45;&gt;Node8</title>
<path fill="none" stroke="midnightblue" d="M204.798,-864.757C192.051,-873.565 200.785,-883 231,-883 251.301,-883 261.904,-878.741 262.811,-873.275"/>
<polygon fill="midnightblue" stroke="midnightblue" points="265.625,-871.184 257.202,-864.757 259.779,-875.034 265.625,-871.184"/>
</g>
<!-- Node9&#45;&gt;Node9 -->
<g id="edge11" class="edge"><title>Node9&#45;&gt;Node9</title>
<path fill="none" stroke="midnightblue" d="M204.798,-808.757C192.051,-817.565 200.785,-827 231,-827 251.301,-827 261.904,-822.741 262.811,-817.275"/>
<polygon fill="midnightblue" stroke="midnightblue" points="265.625,-815.184 257.202,-808.757 259.779,-819.034 265.625,-815.184"/>
</g>
<!-- Node10&#45;&gt;Node10 -->
<g id="edge13" class="edge"><title>Node10&#45;&gt;Node10</title>
<path fill="none" stroke="midnightblue" d="M204.798,-752.757C192.051,-761.565 200.785,-771 231,-771 251.301,-771 261.904,-766.741 262.811,-761.275"/>
<polygon fill="midnightblue" stroke="midnightblue" points="265.625,-759.184 257.202,-752.757 259.779,-763.034 265.625,-759.184"/>
</g>
<!-- Node25&#45;&gt;Node25 -->
<g id="edge29" class="edge"><title>Node25&#45;&gt;Node25</title>
<path fill="none" stroke="midnightblue" d="M204.798,-19.7571C192.051,-28.5653 200.785,-38 231,-38 251.301,-38 261.904,-33.741 262.811,-28.2746"/>
<polygon fill="midnightblue" stroke="midnightblue" points="265.625,-26.1836 257.202,-19.7571 259.779,-30.0337 265.625,-26.1836"/>
</g>
</g>
</svg>
