<?xml version="1.0" encoding="UTF-8" standalone="no"?>
<!DOCTYPE svg PUBLIC "-//W3C//DTD SVG 1.1//EN"
 "http://www.w3.org/Graphics/SVG/1.1/DTD/svg11.dtd">
<!-- Generated by graphviz version 2.38.0 (20140413.2041)
 -->
<!-- Title: scram::mef::Expression::interval Pages: 1 -->
<svg width="346pt" height="411pt"
 viewBox="0.00 0.00 346.00 410.50" xmlns="http://www.w3.org/2000/svg" xmlns:xlink="http://www.w3.org/1999/xlink">
<g id="graph0" class="graph" transform="scale(1 1) rotate(0) translate(4 406.5)">
<title>scram::mef::Expression::interval</title>
<polygon fill="white" stroke="none" points="-4,4 -4,-406.5 342,-406.5 342,4 -4,4"/>
<!-- Node1 -->
<g id="node1" class="node"><title>Node1</title>
<polygon fill="#bfbfbf" stroke="black" points="0,-169.5 0,-199.5 129,-199.5 129,-169.5 0,-169.5"/>
<text text-anchor="start" x="8" y="-187.5" font-family="Helvetica,sans-Serif" font-size="10.00">scram::mef::Expression</text>
<text text-anchor="middle" x="64.5" y="-176.5" font-family="Helvetica,sans-Serif" font-size="10.00">::interval</text>
</g>
<!-- Node2 -->
<g id="node2" class="node"><title>Node2</title>
<g id="a_node2"><a xlink:href="expression_8h.xhtml#aee12bbf581047eae146d411cef0585b9" target="_top" xlink:title="Ensures that expression yields non&#45;negative (&gt;= 0) values. ">
<polygon fill="white" stroke="black" points="165,-365 165,-384 338,-384 338,-365 165,-365"/>
<text text-anchor="middle" x="251.5" y="-372" font-family="Helvetica,sans-Serif" font-size="10.00">scram::mef::EnsureNonNegative</text>
</a>
</g>
</g>
<!-- Node1&#45;&gt;Node2 -->
<g id="edge1" class="edge"><title>Node1&#45;&gt;Node2</title>
<path fill="none" stroke="midnightblue" d="M72.8178,-209.351C85.2753,-247.11 114.309,-318.444 165,-355.5 170.279,-359.359 176.196,-362.457 182.389,-364.942"/>
<polygon fill="midnightblue" stroke="midnightblue" points="76.0997,-208.122 69.7395,-199.648 69.4274,-210.238 76.0997,-208.122"/>
</g>
<!-- Node3 -->
<g id="node3" class="node"><title>Node3</title>
<g id="a_node3"><a xlink:href="expression_8h.xhtml#a051e7ad7c13edf0451ea5db7caf17729" target="_top" xlink:title="Ensures that expression yields positive (&gt; 0) values. ">
<polygon fill="white" stroke="black" points="178,-309 178,-328 325,-328 325,-309 178,-309"/>
<text text-anchor="middle" x="251.5" y="-316" font-family="Helvetica,sans-Serif" font-size="10.00">scram::mef::EnsurePositive</text>
</a>
</g>
</g>
<!-- Node1&#45;&gt;Node3 -->
<g id="edge3" class="edge"><title>Node1&#45;&gt;Node3</title>
<path fill="none" stroke="midnightblue" d="M79.405,-208.209C96.2313,-234.71 127.078,-276.866 165,-299.5 171.529,-303.397 178.768,-306.496 186.193,-308.961"/>
<polygon fill="midnightblue" stroke="midnightblue" points="82.2848,-206.211 74.0494,-199.545 76.3306,-209.892 82.2848,-206.211"/>
</g>
<!-- Node4 -->
<g id="node4" class="node"><title>Node4</title>
<g id="a_node4"><a xlink:href="expression_8h.xhtml#a958c404b31cdb929075b67827e31f4de" target="_top" xlink:title="Ensures that expression can be used for probability ([0, 1]). ">
<polygon fill="white" stroke="black" points="171.5,-253 171.5,-272 331.5,-272 331.5,-253 171.5,-253"/>
<text text-anchor="middle" x="251.5" y="-260" font-family="Helvetica,sans-Serif" font-size="10.00">scram::mef::EnsureProbability</text>
</a>
</g>
</g>
<!-- Node1&#45;&gt;Node4 -->
<g id="edge5" class="edge"><title>Node1&#45;&gt;Node4</title>
<path fill="none" stroke="midnightblue" d="M94.9012,-205.307C114.066,-218 140.063,-233.628 165,-243.5 174.614,-247.306 185.153,-250.431 195.448,-252.967"/>
<polygon fill="midnightblue" stroke="midnightblue" points="96.853,-202.402 86.6049,-199.714 92.9396,-208.206 96.853,-202.402"/>
</g>
<!-- Node5 -->
<g id="node5" class="node"><title>Node5</title>
<g id="a_node5"><a xlink:href="expression_8h.xhtml#acfed368a4876558582c7b15a0af3330e" target="_top" xlink:title="Ensures that expression values are within the interval. ">
<polygon fill="white" stroke="black" points="182,-197 182,-216 321,-216 321,-197 182,-197"/>
<text text-anchor="middle" x="251.5" y="-204" font-family="Helvetica,sans-Serif" font-size="10.00">scram::mef::EnsureWithin</text>
</a>
</g>
</g>
<!-- Node1&#45;&gt;Node5 -->
<g id="edge7" class="edge"><title>Node1&#45;&gt;Node5</title>
<path fill="none" stroke="midnightblue" d="M139.295,-193.276C153.379,-194.95 168.066,-196.697 181.976,-198.351"/>
<polygon fill="midnightblue" stroke="midnightblue" points="139.51,-189.777 129.167,-192.071 138.683,-196.728 139.51,-189.777"/>
</g>
<!-- Node6 -->
<g id="node6" class="node"><title>Node6</title>
<g id="a_node6"><a xlink:href="classscram_1_1mef_1_1Switch.xhtml#aece696754288dcbdbcda71355da80a19" target="_top" xlink:title="scram::mef::Switch\l::interval">
<polygon fill="white" stroke="black" points="197.5,-147.5 197.5,-177.5 305.5,-177.5 305.5,-147.5 197.5,-147.5"/>
<text text-anchor="start" x="205.5" y="-165.5" font-family="Helvetica,sans-Serif" font-size="10.00">scram::mef::Switch</text>
<text text-anchor="middle" x="251.5" y="-154.5" font-family="Helvetica,sans-Serif" font-size="10.00">::interval</text>
</a>
</g>
</g>
<!-- Node1&#45;&gt;Node6 -->
<g id="edge9" class="edge"><title>Node1&#45;&gt;Node6</title>
<path fill="none" stroke="midnightblue" d="M139.225,-175.733C158.698,-173.417 179.33,-170.964 197.469,-168.806"/>
<polygon fill="midnightblue" stroke="midnightblue" points="138.683,-172.272 129.167,-176.929 139.51,-179.223 138.683,-172.272"/>
</g>
<!-- Node7 -->
<g id="node7" class="node"><title>Node7</title>
<g id="a_node7"><a xlink:href="classscram_1_1mef_1_1LognormalDeviate.xhtml#a18f3499d5d98d1af462db56d07069997" target="_top" xlink:title="scram::mef::LognormalDeviate\l::value">
<polygon fill="white" stroke="black" points="169,-98.5 169,-128.5 334,-128.5 334,-98.5 169,-98.5"/>
<text text-anchor="start" x="177" y="-116.5" font-family="Helvetica,sans-Serif" font-size="10.00">scram::mef::LognormalDeviate</text>
<text text-anchor="middle" x="251.5" y="-105.5" font-family="Helvetica,sans-Serif" font-size="10.00">::value</text>
</a>
</g>
</g>
<!-- Node1&#45;&gt;Node7 -->
<g id="edge10" class="edge"><title>Node1&#45;&gt;Node7</title>
<path fill="none" stroke="midnightblue" d="M104.172,-164.993C122.363,-156.241 144.515,-146.182 165,-138.5 174.412,-134.97 184.557,-131.622 194.456,-128.589"/>
<polygon fill="midnightblue" stroke="midnightblue" points="102.511,-161.908 95.0503,-169.431 105.574,-168.203 102.511,-161.908"/>
</g>
<!-- Node8 -->
<g id="node8" class="node"><title>Node8</title>
<g id="a_node8"><a xlink:href="classscram_1_1mef_1_1GammaDeviate.xhtml#aac9dd9e446203c28033a32385a68570c" target="_top" xlink:title="scram::mef::GammaDeviate\l::value">
<polygon fill="white" stroke="black" points="175,-49.5 175,-79.5 328,-79.5 328,-49.5 175,-49.5"/>
<text text-anchor="start" x="183" y="-67.5" font-family="Helvetica,sans-Serif" font-size="10.00">scram::mef::GammaDeviate</text>
<text text-anchor="middle" x="251.5" y="-56.5" font-family="Helvetica,sans-Serif" font-size="10.00">::value</text>
</a>
</g>
</g>
<!-- Node1&#45;&gt;Node8 -->
<g id="edge11" class="edge"><title>Node1&#45;&gt;Node8</title>
<path fill="none" stroke="midnightblue" d="M83.7679,-161.618C102.137,-140.061 132.349,-108.341 165,-89.5 171.698,-85.6352 179.04,-82.3265 186.521,-79.5039"/>
<polygon fill="midnightblue" stroke="midnightblue" points="81.0484,-159.414 77.3272,-169.334 86.4223,-163.9 81.0484,-159.414"/>
</g>
<!-- Node9 -->
<g id="node9" class="node"><title>Node9</title>
<g id="a_node9"><a xlink:href="classscram_1_1mef_1_1BetaDeviate.xhtml#a23cf22ef291bb47601ddefd7640fe93a" target="_top" xlink:title="scram::mef::BetaDeviate\l::value">
<polygon fill="white" stroke="black" points="183,-0.5 183,-30.5 320,-30.5 320,-0.5 183,-0.5"/>
<text text-anchor="start" x="191" y="-18.5" font-family="Helvetica,sans-Serif" font-size="10.00">scram::mef::BetaDeviate</text>
<text text-anchor="middle" x="251.5" y="-7.5" font-family="Helvetica,sans-Serif" font-size="10.00">::value</text>
</a>
</g>
</g>
<!-- Node1&#45;&gt;Node9 -->
<g id="edge12" class="edge"><title>Node1&#45;&gt;Node9</title>
<path fill="none" stroke="midnightblue" d="M75.9216,-160.17C90.9349,-128.009 121.684,-71.7723 165,-40.5 170.392,-36.6074 176.384,-33.3171 182.624,-30.5366"/>
<polygon fill="midnightblue" stroke="midnightblue" points="72.7129,-158.771 71.771,-169.324 79.0882,-161.662 72.7129,-158.771"/>
</g>
<!-- Node2&#45;&gt;Node2 -->
<g id="edge2" class="edge"><title>Node2&#45;&gt;Node2</title>
<path fill="none" stroke="midnightblue" d="M216.643,-392.391C217.153,-398.041 228.772,-402.5 251.5,-402.5 284.559,-402.5 294.115,-393.065 280.168,-384.257"/>
<polygon fill="midnightblue" stroke="midnightblue" points="219.562,-394.335 222.832,-384.257 213.991,-390.096 219.562,-394.335"/>
</g>
<!-- Node3&#45;&gt;Node3 -->
<g id="edge4" class="edge"><title>Node3&#45;&gt;Node3</title>
<path fill="none" stroke="midnightblue" d="M216.643,-336.391C217.153,-342.041 228.772,-346.5 251.5,-346.5 284.559,-346.5 294.115,-337.065 280.168,-328.257"/>
<polygon fill="midnightblue" stroke="midnightblue" points="219.562,-338.335 222.832,-328.257 213.991,-334.096 219.562,-338.335"/>
</g>
<!-- Node4&#45;&gt;Node4 -->
<g id="edge6" class="edge"><title>Node4&#45;&gt;Node4</title>
<path fill="none" stroke="midnightblue" d="M216.643,-280.391C217.153,-286.041 228.772,-290.5 251.5,-290.5 284.559,-290.5 294.115,-281.065 280.168,-272.257"/>
<polygon fill="midnightblue" stroke="midnightblue" points="219.562,-282.335 222.832,-272.257 213.991,-278.096 219.562,-282.335"/>
</g>
<!-- Node5&#45;&gt;Node5 -->
<g id="edge8" class="edge"><title>Node5&#45;&gt;Node5</title>
<path fill="none" stroke="midnightblue" d="M216.643,-224.391C217.153,-230.041 228.772,-234.5 251.5,-234.5 284.559,-234.5 294.115,-225.065 280.168,-216.257"/>
<polygon fill="midnightblue" stroke="midnightblue" points="219.562,-226.335 222.832,-216.257 213.991,-222.096 219.562,-226.335"/>
</g>
</g>
</svg>
