<?xml version="1.0" encoding="UTF-8" standalone="no"?>
<!DOCTYPE svg PUBLIC "-//W3C//DTD SVG 1.1//EN"
 "http://www.w3.org/Graphics/SVG/1.1/DTD/svg11.dtd">
<!-- Generated by graphviz version 2.38.0 (20140413.2041)
 -->
<!-- Title: scram::core::ProbabilityAnalysis Pages: 1 -->
<svg width="328pt" height="695pt"
 viewBox="0.00 0.00 328.00 695.00" xmlns="http://www.w3.org/2000/svg" xmlns:xlink="http://www.w3.org/1999/xlink">
<g id="graph0" class="graph" transform="scale(1 1) rotate(0) translate(4 691)">
<title>scram::core::ProbabilityAnalysis</title>
<polygon fill="white" stroke="none" points="-4,4 -4,-691 324,-691 324,4 -4,4"/>
<!-- Node1 -->
<g id="node1" class="node"><title>Node1</title>
<polygon fill="#bfbfbf" stroke="black" points="93.5,-298.5 93.5,-432.5 225.5,-432.5 225.5,-298.5 93.5,-298.5"/>
<text text-anchor="start" x="101.5" y="-420.5" font-family="Helvetica,sans-Serif" font-size="10.00">scram::core::Probability</text>
<text text-anchor="middle" x="159.5" y="-409.5" font-family="Helvetica,sans-Serif" font-size="10.00">Analysis</text>
<polyline fill="none" stroke="black" points="93.5,-402.5 225.5,-402.5 "/>
<text text-anchor="middle" x="159.5" y="-390.5" font-family="Helvetica,sans-Serif" font-size="10.00"> </text>
<polyline fill="none" stroke="black" points="93.5,-383.5 225.5,-383.5 "/>
<text text-anchor="start" x="101.5" y="-371.5" font-family="Helvetica,sans-Serif" font-size="10.00">+ ProbabilityAnalysis()</text>
<text text-anchor="start" x="101.5" y="-360.5" font-family="Helvetica,sans-Serif" font-size="10.00">+ ~ProbabilityAnalysis()</text>
<text text-anchor="start" x="101.5" y="-349.5" font-family="Helvetica,sans-Serif" font-size="10.00">+ Analyze()</text>
<text text-anchor="start" x="101.5" y="-338.5" font-family="Helvetica,sans-Serif" font-size="10.00">+ p_total()</text>
<text text-anchor="start" x="101.5" y="-327.5" font-family="Helvetica,sans-Serif" font-size="10.00">+ p_time()</text>
<text text-anchor="start" x="101.5" y="-316.5" font-family="Helvetica,sans-Serif" font-size="10.00">+ sil()</text>
<text text-anchor="start" x="101.5" y="-305.5" font-family="Helvetica,sans-Serif" font-size="10.00"># mission_time()</text>
</g>
<!-- Node4 -->
<g id="node4" class="node"><title>Node4</title>
<g id="a_node4"><a xlink:href="classscram_1_1core_1_1ProbabilityAnalyzerBase.xhtml" target="_top" xlink:title="Base class for Probability analyzers. ">
<polygon fill="white" stroke="black" points="80.5,-149.5 80.5,-261.5 238.5,-261.5 238.5,-149.5 80.5,-149.5"/>
<text text-anchor="start" x="88.5" y="-249.5" font-family="Helvetica,sans-Serif" font-size="10.00">scram::core::Probability</text>
<text text-anchor="middle" x="159.5" y="-238.5" font-family="Helvetica,sans-Serif" font-size="10.00">AnalyzerBase</text>
<polyline fill="none" stroke="black" points="80.5,-231.5 238.5,-231.5 "/>
<text text-anchor="middle" x="159.5" y="-219.5" font-family="Helvetica,sans-Serif" font-size="10.00"> </text>
<polyline fill="none" stroke="black" points="80.5,-212.5 238.5,-212.5 "/>
<text text-anchor="start" x="88.5" y="-200.5" font-family="Helvetica,sans-Serif" font-size="10.00">+ ProbabilityAnalyzerBase()</text>
<text text-anchor="start" x="88.5" y="-189.5" font-family="Helvetica,sans-Serif" font-size="10.00">+ graph()</text>
<text text-anchor="start" x="88.5" y="-178.5" font-family="Helvetica,sans-Serif" font-size="10.00">+ products()</text>
<text text-anchor="start" x="88.5" y="-167.5" font-family="Helvetica,sans-Serif" font-size="10.00">+ p_vars()</text>
<text text-anchor="start" x="88.5" y="-156.5" font-family="Helvetica,sans-Serif" font-size="10.00"># ~ProbabilityAnalyzerBase()</text>
</a>
</g>
</g>
<!-- Node1&#45;&gt;Node4 -->
<g id="edge3" class="edge"><title>Node1&#45;&gt;Node4</title>
<path fill="none" stroke="midnightblue" d="M159.5,-288.35C159.5,-279.401 159.5,-270.403 159.5,-261.816"/>
<polygon fill="none" stroke="midnightblue" points="156,-288.409 159.5,-298.409 163,-288.409 156,-288.409"/>
</g>
<!-- Node2 -->
<g id="node2" class="node"><title>Node2</title>
<g id="a_node2"><a xlink:href="classscram_1_1core_1_1Analysis.xhtml" target="_top" xlink:title="Base abstract class for all analysis with settings. ">
<polygon fill="white" stroke="black" points="100,-469.5 100,-592.5 219,-592.5 219,-469.5 100,-469.5"/>
<text text-anchor="middle" x="159.5" y="-580.5" font-family="Helvetica,sans-Serif" font-size="10.00">scram::core::Analysis</text>
<polyline fill="none" stroke="black" points="100,-573.5 219,-573.5 "/>
<text text-anchor="middle" x="159.5" y="-561.5" font-family="Helvetica,sans-Serif" font-size="10.00"> </text>
<polyline fill="none" stroke="black" points="100,-554.5 219,-554.5 "/>
<text text-anchor="start" x="108" y="-542.5" font-family="Helvetica,sans-Serif" font-size="10.00">+ Analysis()</text>
<text text-anchor="start" x="108" y="-531.5" font-family="Helvetica,sans-Serif" font-size="10.00">+ ~Analysis()</text>
<text text-anchor="start" x="108" y="-520.5" font-family="Helvetica,sans-Serif" font-size="10.00">+ settings()</text>
<text text-anchor="start" x="108" y="-509.5" font-family="Helvetica,sans-Serif" font-size="10.00">+ warnings()</text>
<text text-anchor="start" x="108" y="-498.5" font-family="Helvetica,sans-Serif" font-size="10.00">+ analysis_time()</text>
<text text-anchor="start" x="108" y="-487.5" font-family="Helvetica,sans-Serif" font-size="10.00"># AddWarning()</text>
<text text-anchor="start" x="108" y="-476.5" font-family="Helvetica,sans-Serif" font-size="10.00"># AddAnalysisTime()</text>
</a>
</g>
</g>
<!-- Node2&#45;&gt;Node1 -->
<g id="edge1" class="edge"><title>Node2&#45;&gt;Node1</title>
<path fill="none" stroke="midnightblue" d="M159.5,-458.958C159.5,-450.217 159.5,-441.309 159.5,-432.645"/>
<polygon fill="none" stroke="midnightblue" points="156,-459.119 159.5,-469.119 163,-459.119 156,-459.119"/>
</g>
<!-- Node3 -->
<g id="node3" class="node"><title>Node3</title>
<polygon fill="white" stroke="#bfbfbf" points="121,-629.5 121,-686.5 198,-686.5 198,-629.5 121,-629.5"/>
<text text-anchor="middle" x="159.5" y="-674.5" font-family="Helvetica,sans-Serif" font-size="10.00">noncopyable</text>
<polyline fill="none" stroke="#bfbfbf" points="121,-667.5 198,-667.5 "/>
<text text-anchor="middle" x="159.5" y="-655.5" font-family="Helvetica,sans-Serif" font-size="10.00"> </text>
<polyline fill="none" stroke="#bfbfbf" points="121,-648.5 198,-648.5 "/>
<text text-anchor="middle" x="159.5" y="-636.5" font-family="Helvetica,sans-Serif" font-size="10.00"> </text>
</g>
<!-- Node3&#45;&gt;Node2 -->
<g id="edge2" class="edge"><title>Node3&#45;&gt;Node2</title>
<path fill="none" stroke="#8b1a1a" d="M159.5,-619.099C159.5,-610.739 159.5,-601.68 159.5,-592.672"/>
<polygon fill="none" stroke="#8b1a1a" points="156,-619.258 159.5,-629.258 163,-619.258 156,-619.258"/>
</g>
<!-- Node5 -->
<g id="node5" class="node"><title>Node5</title>
<g id="a_node5"><a xlink:href="classscram_1_1core_1_1ProbabilityAnalyzer.xhtml" target="_top" xlink:title="Fault&#45;tree&#45;analysis&#45;aware probability analyzer. ">
<polygon fill="white" stroke="black" points="0,-22.5 0,-90.5 151,-90.5 151,-22.5 0,-22.5"/>
<text text-anchor="start" x="8" y="-78.5" font-family="Helvetica,sans-Serif" font-size="10.00">scram::core::Probability</text>
<text text-anchor="middle" x="75.5" y="-67.5" font-family="Helvetica,sans-Serif" font-size="10.00">Analyzer&lt; Calculator &gt;</text>
<polyline fill="none" stroke="black" points="0,-60.5 151,-60.5 "/>
<text text-anchor="middle" x="75.5" y="-48.5" font-family="Helvetica,sans-Serif" font-size="10.00"> </text>
<polyline fill="none" stroke="black" points="0,-41.5 151,-41.5 "/>
<text text-anchor="start" x="8" y="-29.5" font-family="Helvetica,sans-Serif" font-size="10.00">+ CalculateTotalProbability()</text>
</a>
</g>
</g>
<!-- Node4&#45;&gt;Node5 -->
<g id="edge4" class="edge"><title>Node4&#45;&gt;Node5</title>
<path fill="none" stroke="midnightblue" d="M122.906,-140.461C113.107,-123.312 102.909,-105.465 94.4928,-90.7375"/>
<polygon fill="none" stroke="midnightblue" points="119.982,-142.398 127.983,-149.344 126.06,-138.925 119.982,-142.398"/>
</g>
<!-- Node6 -->
<g id="node6" class="node"><title>Node6</title>
<g id="a_node6"><a xlink:href="classscram_1_1core_1_1ProbabilityAnalyzer_3_01Bdd_01_4.xhtml" target="_top" xlink:title="Specialization of probability analyzer with Binary Decision Diagrams. ">
<polygon fill="white" stroke="black" points="169,-0.5 169,-112.5 320,-112.5 320,-0.5 169,-0.5"/>
<text text-anchor="start" x="177" y="-100.5" font-family="Helvetica,sans-Serif" font-size="10.00">scram::core::Probability</text>
<text text-anchor="middle" x="244.5" y="-89.5" font-family="Helvetica,sans-Serif" font-size="10.00">Analyzer&lt; Bdd &gt;</text>
<polyline fill="none" stroke="black" points="169,-82.5 320,-82.5 "/>
<text text-anchor="middle" x="244.5" y="-70.5" font-family="Helvetica,sans-Serif" font-size="10.00"> </text>
<polyline fill="none" stroke="black" points="169,-63.5 320,-63.5 "/>
<text text-anchor="start" x="177" y="-51.5" font-family="Helvetica,sans-Serif" font-size="10.00">+ ProbabilityAnalyzer()</text>
<text text-anchor="start" x="177" y="-40.5" font-family="Helvetica,sans-Serif" font-size="10.00">+ ProbabilityAnalyzer()</text>
<text text-anchor="start" x="177" y="-29.5" font-family="Helvetica,sans-Serif" font-size="10.00">+ ~ProbabilityAnalyzer()</text>
<text text-anchor="start" x="177" y="-18.5" font-family="Helvetica,sans-Serif" font-size="10.00">+ bdd_graph()</text>
<text text-anchor="start" x="177" y="-7.5" font-family="Helvetica,sans-Serif" font-size="10.00">+ CalculateTotalProbability()</text>
</a>
</g>
</g>
<!-- Node4&#45;&gt;Node6 -->
<g id="edge5" class="edge"><title>Node4&#45;&gt;Node6</title>
<path fill="none" stroke="midnightblue" d="M196.448,-140.601C201.771,-131.396 207.211,-121.987 212.429,-112.965"/>
<polygon fill="none" stroke="midnightblue" points="193.369,-138.935 191.393,-149.344 199.428,-142.439 193.369,-138.935"/>
</g>
</g>
</svg>
