<?xml version="1.0" encoding="UTF-8" standalone="no"?>
<!DOCTYPE svg PUBLIC "-//W3C//DTD SVG 1.1//EN"
 "http://www.w3.org/Graphics/SVG/1.1/DTD/svg11.dtd">
<!-- Generated by graphviz version 2.38.0 (20140413.2041)
 -->
<!-- Title: scram::mef::LognormalDeviate Pages: 1 -->
<svg width="173pt" height="491pt"
 viewBox="0.00 0.00 173.00 491.00" xmlns="http://www.w3.org/2000/svg" xmlns:xlink="http://www.w3.org/1999/xlink">
<g id="graph0" class="graph" transform="scale(1 1) rotate(0) translate(4 487)">
<title>scram::mef::LognormalDeviate</title>
<polygon fill="white" stroke="none" points="-4,4 -4,-487 169,-487 169,4 -4,4"/>
<!-- Node1 -->
<g id="node1" class="node"><title>Node1</title>
<polygon fill="#bfbfbf" stroke="black" points="0,-0.5 0,-101.5 165,-101.5 165,-0.5 0,-0.5"/>
<text text-anchor="middle" x="82.5" y="-89.5" font-family="Helvetica,sans-Serif" font-size="10.00">scram::mef::LognormalDeviate</text>
<polyline fill="none" stroke="black" points="0,-82.5 165,-82.5 "/>
<text text-anchor="middle" x="82.5" y="-70.5" font-family="Helvetica,sans-Serif" font-size="10.00"> </text>
<polyline fill="none" stroke="black" points="0,-63.5 165,-63.5 "/>
<text text-anchor="start" x="8" y="-51.5" font-family="Helvetica,sans-Serif" font-size="10.00">+ LognormalDeviate()</text>
<text text-anchor="start" x="8" y="-40.5" font-family="Helvetica,sans-Serif" font-size="10.00">+ LognormalDeviate()</text>
<text text-anchor="start" x="8" y="-29.5" font-family="Helvetica,sans-Serif" font-size="10.00">+ Validate()</text>
<text text-anchor="start" x="8" y="-18.5" font-family="Helvetica,sans-Serif" font-size="10.00">+ value()</text>
<text text-anchor="start" x="8" y="-7.5" font-family="Helvetica,sans-Serif" font-size="10.00">+ interval()</text>
</g>
<!-- Node2 -->
<g id="node2" class="node"><title>Node2</title>
<g id="a_node2"><a xlink:href="classscram_1_1mef_1_1RandomDeviate.xhtml" target="_top" xlink:title="Abstract base class for all deviate expressions. ">
<polygon fill="white" stroke="black" points="5.5,-138.5 5.5,-195.5 159.5,-195.5 159.5,-138.5 5.5,-138.5"/>
<text text-anchor="middle" x="82.5" y="-183.5" font-family="Helvetica,sans-Serif" font-size="10.00">scram::mef::RandomDeviate</text>
<polyline fill="none" stroke="black" points="5.5,-176.5 159.5,-176.5 "/>
<text text-anchor="middle" x="82.5" y="-164.5" font-family="Helvetica,sans-Serif" font-size="10.00"> </text>
<polyline fill="none" stroke="black" points="5.5,-157.5 159.5,-157.5 "/>
<text text-anchor="start" x="13.5" y="-145.5" font-family="Helvetica,sans-Serif" font-size="10.00">+ IsDeviate()</text>
</a>
</g>
</g>
<!-- Node2&#45;&gt;Node1 -->
<g id="edge1" class="edge"><title>Node2&#45;&gt;Node1</title>
<path fill="none" stroke="midnightblue" d="M82.5,-128.354C82.5,-119.796 82.5,-110.578 82.5,-101.608"/>
<polygon fill="none" stroke="midnightblue" points="79.0001,-128.404 82.5,-138.404 86.0001,-128.404 79.0001,-128.404"/>
</g>
<!-- Node3 -->
<g id="node3" class="node"><title>Node3</title>
<g id="a_node3"><a xlink:href="classscram_1_1mef_1_1Expression.xhtml" target="_top" xlink:title="Abstract base class for all sorts of expressions to describe events. ">
<polygon fill="white" stroke="black" points="18,-232.5 18,-388.5 147,-388.5 147,-232.5 18,-232.5"/>
<text text-anchor="middle" x="82.5" y="-376.5" font-family="Helvetica,sans-Serif" font-size="10.00">scram::mef::Expression</text>
<polyline fill="none" stroke="black" points="18,-369.5 147,-369.5 "/>
<text text-anchor="middle" x="82.5" y="-357.5" font-family="Helvetica,sans-Serif" font-size="10.00"> </text>
<polyline fill="none" stroke="black" points="18,-350.5 147,-350.5 "/>
<text text-anchor="start" x="26" y="-338.5" font-family="Helvetica,sans-Serif" font-size="10.00">+ Expression()</text>
<text text-anchor="start" x="26" y="-327.5" font-family="Helvetica,sans-Serif" font-size="10.00">+ ~Expression()</text>
<text text-anchor="start" x="26" y="-316.5" font-family="Helvetica,sans-Serif" font-size="10.00">+ args()</text>
<text text-anchor="start" x="26" y="-305.5" font-family="Helvetica,sans-Serif" font-size="10.00">+ Validate()</text>
<text text-anchor="start" x="26" y="-294.5" font-family="Helvetica,sans-Serif" font-size="10.00">+ value()</text>
<text text-anchor="start" x="26" y="-283.5" font-family="Helvetica,sans-Serif" font-size="10.00">+ interval()</text>
<text text-anchor="start" x="26" y="-272.5" font-family="Helvetica,sans-Serif" font-size="10.00">+ IsDeviate()</text>
<text text-anchor="start" x="26" y="-261.5" font-family="Helvetica,sans-Serif" font-size="10.00">+ Sample()</text>
<text text-anchor="start" x="26" y="-250.5" font-family="Helvetica,sans-Serif" font-size="10.00">+ Reset()</text>
<text text-anchor="start" x="26" y="-239.5" font-family="Helvetica,sans-Serif" font-size="10.00"># AddArg()</text>
</a>
</g>
</g>
<!-- Node3&#45;&gt;Node2 -->
<g id="edge2" class="edge"><title>Node3&#45;&gt;Node2</title>
<path fill="none" stroke="midnightblue" d="M82.5,-221.838C82.5,-212.477 82.5,-203.536 82.5,-195.724"/>
<polygon fill="none" stroke="midnightblue" points="79.0001,-222.126 82.5,-232.126 86.0001,-222.126 79.0001,-222.126"/>
</g>
<!-- Node4 -->
<g id="node4" class="node"><title>Node4</title>
<polygon fill="white" stroke="#bfbfbf" points="44,-425.5 44,-482.5 121,-482.5 121,-425.5 44,-425.5"/>
<text text-anchor="middle" x="82.5" y="-470.5" font-family="Helvetica,sans-Serif" font-size="10.00">noncopyable</text>
<polyline fill="none" stroke="#bfbfbf" points="44,-463.5 121,-463.5 "/>
<text text-anchor="middle" x="82.5" y="-451.5" font-family="Helvetica,sans-Serif" font-size="10.00"> </text>
<polyline fill="none" stroke="#bfbfbf" points="44,-444.5 121,-444.5 "/>
<text text-anchor="middle" x="82.5" y="-432.5" font-family="Helvetica,sans-Serif" font-size="10.00"> </text>
</g>
<!-- Node4&#45;&gt;Node3 -->
<g id="edge3" class="edge"><title>Node4&#45;&gt;Node3</title>
<path fill="none" stroke="#8b1a1a" d="M82.5,-415.34C82.5,-407.044 82.5,-397.964 82.5,-388.736"/>
<polygon fill="none" stroke="#8b1a1a" points="79.0001,-415.381 82.5,-425.381 86.0001,-415.382 79.0001,-415.381"/>
</g>
</g>
</svg>
