<?xml version="1.0" encoding="UTF-8" standalone="no"?>
<!DOCTYPE svg PUBLIC "-//W3C//DTD SVG 1.1//EN"
 "http://www.w3.org/Graphics/SVG/1.1/DTD/svg11.dtd">
<!-- Generated by graphviz version 2.38.0 (20140413.2041)
 -->
<!-- Title: scram::core::Vertex::id Pages: 1 -->
<svg width="845pt" height="367pt"
 viewBox="0.00 0.00 845.00 367.00" xmlns="http://www.w3.org/2000/svg" xmlns:xlink="http://www.w3.org/1999/xlink">
<g id="graph0" class="graph" transform="scale(1 1) rotate(0) translate(4 363)">
<title>scram::core::Vertex::id</title>
<polygon fill="white" stroke="none" points="-4,4 -4,-363 841,-363 841,4 -4,4"/>
<!-- Node1 -->
<g id="node1" class="node"><title>Node1</title>
<polygon fill="#bfbfbf" stroke="black" points="0,-263 0,-282 125,-282 125,-263 0,-263"/>
<text text-anchor="middle" x="62.5" y="-270" font-family="Helvetica,sans-Serif" font-size="10.00">scram::core::Vertex::id</text>
</g>
<!-- Node2 -->
<g id="node2" class="node"><title>Node2</title>
<g id="a_node2"><a xlink:href="classscram_1_1core_1_1Terminal.xhtml#a7a25b0b40498f4876571a5dac4e724c3" target="_top" xlink:title="scram::core::Terminal\l::value">
<polygon fill="white" stroke="black" points="161,-257.5 161,-287.5 280,-287.5 280,-257.5 161,-257.5"/>
<text text-anchor="start" x="169" y="-275.5" font-family="Helvetica,sans-Serif" font-size="10.00">scram::core::Terminal</text>
<text text-anchor="middle" x="220.5" y="-264.5" font-family="Helvetica,sans-Serif" font-size="10.00">::value</text>
</a>
</g>
</g>
<!-- Node1&#45;&gt;Node2 -->
<g id="edge1" class="edge"><title>Node1&#45;&gt;Node2</title>
<path fill="none" stroke="midnightblue" d="M135.17,-272.5C143.762,-272.5 152.458,-272.5 160.836,-272.5"/>
<polygon fill="midnightblue" stroke="midnightblue" points="135.155,-269 125.155,-272.5 135.155,-276 135.155,-269"/>
</g>
<!-- Node3 -->
<g id="node3" class="node"><title>Node3</title>
<g id="a_node3"><a xlink:href="classscram_1_1core_1_1Zbdd.xhtml#a363960002737004ea45f67758d9ac17d" target="_top" xlink:title="Specialization of Apply for AND operator for any ZBDD vertices. ">
<polygon fill="white" stroke="black" points="316,-328.5 316,-358.5 427,-358.5 427,-328.5 316,-328.5"/>
<text text-anchor="start" x="324" y="-346.5" font-family="Helvetica,sans-Serif" font-size="10.00">scram::core::Zbdd::</text>
<text text-anchor="middle" x="371.5" y="-335.5" font-family="Helvetica,sans-Serif" font-size="10.00">Apply</text>
</a>
</g>
</g>
<!-- Node2&#45;&gt;Node3 -->
<g id="edge2" class="edge"><title>Node2&#45;&gt;Node3</title>
<path fill="none" stroke="midnightblue" d="M260.21,-292.262C277.233,-300.821 297.52,-310.841 316,-319.5 322.272,-322.439 328.995,-325.483 335.502,-328.377"/>
<polygon fill="midnightblue" stroke="midnightblue" points="261.625,-289.056 251.12,-287.676 258.471,-295.305 261.625,-289.056"/>
</g>
<!-- Node4 -->
<g id="node4" class="node"><title>Node4</title>
<g id="a_node4"><a xlink:href="classscram_1_1core_1_1Zbdd.xhtml#aeb83fd37f2aee74ac41e6ccadba82d39" target="_top" xlink:title="Removes constant modules from products. ">
<polygon fill="white" stroke="black" points="478.5,-235.5 478.5,-265.5 622.5,-265.5 622.5,-235.5 478.5,-235.5"/>
<text text-anchor="start" x="486.5" y="-253.5" font-family="Helvetica,sans-Serif" font-size="10.00">scram::core::Zbdd::</text>
<text text-anchor="middle" x="550.5" y="-242.5" font-family="Helvetica,sans-Serif" font-size="10.00">EliminateConstantModules</text>
</a>
</g>
</g>
<!-- Node2&#45;&gt;Node4 -->
<g id="edge3" class="edge"><title>Node2&#45;&gt;Node4</title>
<path fill="none" stroke="midnightblue" d="M290.166,-267.894C345.288,-264.197 422.423,-259.023 478.225,-255.281"/>
<polygon fill="midnightblue" stroke="midnightblue" points="289.883,-264.405 280.14,-268.567 290.352,-271.39 289.883,-264.405"/>
</g>
<!-- Node7 -->
<g id="node7" class="node"><title>Node7</title>
<g id="a_node7"><a xlink:href="classscram_1_1core_1_1Zbdd.xhtml#a516f0d2f35ad213399f83fb9ab102561" target="_top" xlink:title="Traverses ZBDD to find modules and adjusted cut&#45;offs. ">
<polygon fill="white" stroke="black" points="316,-279.5 316,-309.5 427,-309.5 427,-279.5 316,-279.5"/>
<text text-anchor="start" x="324" y="-297.5" font-family="Helvetica,sans-Serif" font-size="10.00">scram::core::Zbdd::</text>
<text text-anchor="middle" x="371.5" y="-286.5" font-family="Helvetica,sans-Serif" font-size="10.00">GatherModules</text>
</a>
</g>
</g>
<!-- Node2&#45;&gt;Node7 -->
<g id="edge6" class="edge"><title>Node2&#45;&gt;Node7</title>
<path fill="none" stroke="midnightblue" d="M290.373,-282.669C298.94,-283.934 307.607,-285.214 315.917,-286.441"/>
<polygon fill="midnightblue" stroke="midnightblue" points="290.793,-279.193 280.389,-281.195 289.77,-286.118 290.793,-279.193"/>
</g>
<!-- Node9 -->
<g id="node9" class="node"><title>Node9</title>
<g id="a_node9"><a xlink:href="classscram_1_1core_1_1Zbdd.xhtml#a3dbb8ef5da2882daf6c39e9724eae459" target="_top" xlink:title="Removes subsets in ZBDD. ">
<polygon fill="white" stroke="black" points="316,-147.5 316,-177.5 427,-177.5 427,-147.5 316,-147.5"/>
<text text-anchor="start" x="324" y="-165.5" font-family="Helvetica,sans-Serif" font-size="10.00">scram::core::Zbdd::</text>
<text text-anchor="middle" x="371.5" y="-154.5" font-family="Helvetica,sans-Serif" font-size="10.00">Minimize</text>
</a>
</g>
</g>
<!-- Node2&#45;&gt;Node9 -->
<g id="edge9" class="edge"><title>Node2&#45;&gt;Node9</title>
<path fill="none" stroke="midnightblue" d="M250.07,-251.408C279.277,-229.846 323.926,-196.883 349.863,-177.735"/>
<polygon fill="midnightblue" stroke="midnightblue" points="247.872,-248.68 241.905,-257.436 252.029,-254.312 247.872,-248.68"/>
</g>
<!-- Node5 -->
<g id="node5" class="node"><title>Node5</title>
<g id="a_node5"><a xlink:href="classscram_1_1core_1_1Zbdd.xhtml#af92e04ed908364e0177ce444d7b72712" target="_top" xlink:title="The common constructor to initialize member variables. ">
<polygon fill="white" stroke="black" points="687,-199 687,-218 824,-218 824,-199 687,-199"/>
<text text-anchor="middle" x="755.5" y="-206" font-family="Helvetica,sans-Serif" font-size="10.00">scram::core::Zbdd::Zbdd</text>
</a>
</g>
</g>
<!-- Node4&#45;&gt;Node5 -->
<g id="edge4" class="edge"><title>Node4&#45;&gt;Node5</title>
<path fill="none" stroke="midnightblue" d="M632.913,-233.656C658.624,-228.336 686.126,-222.646 708.459,-218.026"/>
<polygon fill="midnightblue" stroke="midnightblue" points="631.868,-230.298 622.785,-235.751 633.287,-237.153 631.868,-230.298"/>
</g>
<!-- Node6 -->
<g id="node6" class="node"><title>Node6</title>
<g id="a_node6"><a xlink:href="classscram_1_1core_1_1zbdd_1_1CutSetContainer.xhtml#a1022ad7a4699257a6f0c0809d8f1903d" target="_top" xlink:title="Removes constant modules from cut sets. ">
<polygon fill="white" stroke="black" points="682.5,-237 682.5,-278 828.5,-278 828.5,-237 682.5,-237"/>
<text text-anchor="start" x="690.5" y="-266" font-family="Helvetica,sans-Serif" font-size="10.00">scram::core::zbdd::</text>
<text text-anchor="start" x="690.5" y="-255" font-family="Helvetica,sans-Serif" font-size="10.00">CutSetContainer::Eliminate</text>
<text text-anchor="middle" x="755.5" y="-244" font-family="Helvetica,sans-Serif" font-size="10.00">ConstantModules</text>
</a>
</g>
</g>
<!-- Node4&#45;&gt;Node6 -->
<g id="edge5" class="edge"><title>Node4&#45;&gt;Node6</title>
<path fill="none" stroke="midnightblue" d="M632.866,-253.306C649.234,-253.87 666.33,-254.46 682.358,-255.012"/>
<polygon fill="midnightblue" stroke="midnightblue" points="632.899,-249.805 622.785,-252.958 632.658,-256.801 632.899,-249.805"/>
</g>
<!-- Node7&#45;&gt;Node5 -->
<g id="edge7" class="edge"><title>Node7&#45;&gt;Node5</title>
<path fill="none" stroke="midnightblue" d="M437.255,-304.242C493.75,-309.53 576.13,-309.249 638,-275.5 661.41,-262.73 651.688,-242.104 674,-227.5 679.887,-223.647 686.47,-220.572 693.267,-218.12"/>
<polygon fill="midnightblue" stroke="midnightblue" points="437.322,-300.731 427.019,-303.197 436.611,-307.695 437.322,-300.731"/>
</g>
<!-- Node8 -->
<g id="node8" class="node"><title>Node8</title>
<g id="a_node8"><a xlink:href="classscram_1_1core_1_1zbdd_1_1CutSetContainer.xhtml#a478c89f64731781882b50ec55898900b" target="_top" xlink:title="Gathers all module indices in the cut sets. ">
<polygon fill="white" stroke="black" points="463,-323.5 463,-353.5 638,-353.5 638,-323.5 463,-323.5"/>
<text text-anchor="start" x="471" y="-341.5" font-family="Helvetica,sans-Serif" font-size="10.00">scram::core::zbdd::</text>
<text text-anchor="middle" x="550.5" y="-330.5" font-family="Helvetica,sans-Serif" font-size="10.00">CutSetContainer::GatherModules</text>
</a>
</g>
</g>
<!-- Node7&#45;&gt;Node8 -->
<g id="edge8" class="edge"><title>Node7&#45;&gt;Node8</title>
<path fill="none" stroke="midnightblue" d="M436.89,-310.506C453.889,-314.732 472.173,-319.277 488.961,-323.451"/>
<polygon fill="midnightblue" stroke="midnightblue" points="437.599,-307.076 427.05,-308.06 435.91,-313.87 437.599,-307.076"/>
</g>
<!-- Node9&#45;&gt;Node4 -->
<g id="edge17" class="edge"><title>Node9&#45;&gt;Node4</title>
<path fill="none" stroke="midnightblue" d="M401.397,-183.514C418.679,-195.437 441.412,-210.022 463,-220.5 474.583,-226.122 487.495,-231.19 499.737,-235.491"/>
<polygon fill="midnightblue" stroke="midnightblue" points="403.09,-180.427 392.891,-177.558 399.075,-186.161 403.09,-180.427"/>
</g>
<!-- Node9&#45;&gt;Node5 -->
<g id="edge12" class="edge"><title>Node9&#45;&gt;Node5</title>
<path fill="none" stroke="midnightblue" d="M432.77,-180.128C442.799,-182.586 453.143,-184.836 463,-186.5 539.066,-199.344 627.568,-204.692 686.923,-206.917"/>
<polygon fill="midnightblue" stroke="midnightblue" points="433.431,-176.685 422.877,-177.615 431.708,-183.469 433.431,-176.685"/>
</g>
<!-- Node10 -->
<g id="node10" class="node"><title>Node10</title>
<g id="a_node10"><a xlink:href="classscram_1_1core_1_1Zbdd.xhtml#a77945d28bd832d2735969d0b0a451c78" target="_top" xlink:title="Runs the analysis with the representation of a PDAG as ZBDD. ">
<polygon fill="white" stroke="black" points="495,-49.5 495,-79.5 606,-79.5 606,-49.5 495,-49.5"/>
<text text-anchor="start" x="503" y="-67.5" font-family="Helvetica,sans-Serif" font-size="10.00">scram::core::Zbdd::</text>
<text text-anchor="middle" x="550.5" y="-56.5" font-family="Helvetica,sans-Serif" font-size="10.00">Analyze</text>
</a>
</g>
</g>
<!-- Node9&#45;&gt;Node10 -->
<g id="edge10" class="edge"><title>Node9&#45;&gt;Node10</title>
<path fill="none" stroke="midnightblue" d="M394.426,-140.106C411.676,-123.664 437.059,-101.941 463,-88.5 472.825,-83.4096 483.853,-79.2967 494.662,-76.0107"/>
<polygon fill="midnightblue" stroke="midnightblue" points="391.823,-137.755 387.1,-147.239 396.706,-142.771 391.823,-137.755"/>
</g>
<!-- Node12 -->
<g id="node12" class="node"><title>Node12</title>
<g id="a_node12"><a xlink:href="classscram_1_1core_1_1Zbdd.xhtml#a499a8bc4bc3854e7b2928c08515243cf" target="_top" xlink:title="Specialization of Apply for AND operator for non&#45;terminal ZBDD vertices. ">
<polygon fill="white" stroke="black" points="495,-98.5 495,-128.5 606,-128.5 606,-98.5 495,-98.5"/>
<text text-anchor="start" x="503" y="-116.5" font-family="Helvetica,sans-Serif" font-size="10.00">scram::core::Zbdd::</text>
<text text-anchor="middle" x="550.5" y="-105.5" font-family="Helvetica,sans-Serif" font-size="10.00">Apply</text>
</a>
</g>
</g>
<!-- Node9&#45;&gt;Node12 -->
<g id="edge13" class="edge"><title>Node9&#45;&gt;Node12</title>
<path fill="none" stroke="midnightblue" d="M436.875,-144.679C455.985,-139.388 476.721,-133.648 495.13,-128.552"/>
<polygon fill="midnightblue" stroke="midnightblue" points="435.754,-141.357 427.05,-147.399 437.621,-148.104 435.754,-141.357"/>
</g>
<!-- Node13 -->
<g id="node13" class="node"><title>Node13</title>
<g id="a_node13"><a xlink:href="classscram_1_1core_1_1Zbdd.xhtml#ac3ac27090b550d973b20bd971c3de9f9" target="_top" xlink:title="Removes complements of variables from products. ">
<polygon fill="white" stroke="black" points="486.5,-147.5 486.5,-177.5 614.5,-177.5 614.5,-147.5 486.5,-147.5"/>
<text text-anchor="start" x="494.5" y="-165.5" font-family="Helvetica,sans-Serif" font-size="10.00">scram::core::Zbdd::</text>
<text text-anchor="middle" x="550.5" y="-154.5" font-family="Helvetica,sans-Serif" font-size="10.00">EliminateComplements</text>
</a>
</g>
</g>
<!-- Node9&#45;&gt;Node13 -->
<g id="edge14" class="edge"><title>Node9&#45;&gt;Node13</title>
<path fill="none" stroke="midnightblue" d="M437.389,-162.5C453.402,-162.5 470.528,-162.5 486.453,-162.5"/>
<polygon fill="midnightblue" stroke="midnightblue" points="437.05,-159 427.05,-162.5 437.05,-166 437.05,-159"/>
</g>
<!-- Node15 -->
<g id="node15" class="node"><title>Node15</title>
<g id="a_node15"><a xlink:href="classscram_1_1core_1_1zbdd_1_1CutSetContainer.xhtml#a1648d3f24a95302fac2a40e95f743dda" target="_top" xlink:title="Minimizes cut sets in the container. ">
<polygon fill="white" stroke="black" points="478.5,-0.5 478.5,-30.5 622.5,-30.5 622.5,-0.5 478.5,-0.5"/>
<text text-anchor="start" x="486.5" y="-18.5" font-family="Helvetica,sans-Serif" font-size="10.00">scram::core::zbdd::</text>
<text text-anchor="middle" x="550.5" y="-7.5" font-family="Helvetica,sans-Serif" font-size="10.00">CutSetContainer::Minimize</text>
</a>
</g>
</g>
<!-- Node9&#45;&gt;Node15 -->
<g id="edge18" class="edge"><title>Node9&#45;&gt;Node15</title>
<path fill="none" stroke="midnightblue" d="M383.954,-138.382C398.465,-110.424 426.097,-64.9398 463,-39.5 468.004,-36.0503 473.491,-33.0946 479.198,-30.5626"/>
<polygon fill="midnightblue" stroke="midnightblue" points="380.745,-136.973 379.375,-147.479 386.998,-140.12 380.745,-136.973"/>
</g>
<!-- Node11 -->
<g id="node11" class="node"><title>Node11</title>
<g id="a_node11"><a xlink:href="classscram_1_1core_1_1FaultTreeAnalyzer.xhtml#aedae0c884539dab245018194771f5021" target="_top" xlink:title="scram::core::FaultTreeAnalyzer\l::algorithm">
<polygon fill="white" stroke="black" points="674,-49.5 674,-79.5 837,-79.5 837,-49.5 674,-49.5"/>
<text text-anchor="start" x="682" y="-67.5" font-family="Helvetica,sans-Serif" font-size="10.00">scram::core::FaultTreeAnalyzer</text>
<text text-anchor="middle" x="755.5" y="-56.5" font-family="Helvetica,sans-Serif" font-size="10.00">::algorithm</text>
</a>
</g>
</g>
<!-- Node10&#45;&gt;Node11 -->
<g id="edge11" class="edge"><title>Node10&#45;&gt;Node11</title>
<path fill="none" stroke="midnightblue" d="M616.393,-64.5C634.649,-64.5 654.729,-64.5 673.788,-64.5"/>
<polygon fill="midnightblue" stroke="midnightblue" points="616.167,-61.0001 606.167,-64.5 616.167,-68.0001 616.167,-61.0001"/>
</g>
<!-- Node13&#45;&gt;Node5 -->
<g id="edge15" class="edge"><title>Node13&#45;&gt;Node5</title>
<path fill="none" stroke="midnightblue" d="M624.465,-179.034C653.944,-185.714 686.919,-193.186 712.286,-198.934"/>
<polygon fill="midnightblue" stroke="midnightblue" points="625.144,-175.599 614.618,-176.803 623.597,-182.426 625.144,-175.599"/>
</g>
<!-- Node14 -->
<g id="node14" class="node"><title>Node14</title>
<g id="a_node14"><a xlink:href="classscram_1_1core_1_1zbdd_1_1CutSetContainer.xhtml#a49532388bd9b917f4351f94f728518aa" target="_top" xlink:title="Eliminates all complements from cut sets. ">
<polygon fill="white" stroke="black" points="682.5,-139 682.5,-180 828.5,-180 828.5,-139 682.5,-139"/>
<text text-anchor="start" x="690.5" y="-168" font-family="Helvetica,sans-Serif" font-size="10.00">scram::core::zbdd::</text>
<text text-anchor="start" x="690.5" y="-157" font-family="Helvetica,sans-Serif" font-size="10.00">CutSetContainer::Eliminate</text>
<text text-anchor="middle" x="755.5" y="-146" font-family="Helvetica,sans-Serif" font-size="10.00">Complements</text>
</a>
</g>
</g>
<!-- Node13&#45;&gt;Node14 -->
<g id="edge16" class="edge"><title>Node13&#45;&gt;Node14</title>
<path fill="none" stroke="midnightblue" d="M624.834,-161.416C643.512,-161.14 663.571,-160.844 682.197,-160.569"/>
<polygon fill="midnightblue" stroke="midnightblue" points="624.565,-157.92 614.618,-161.567 624.668,-164.919 624.565,-157.92"/>
</g>
</g>
</svg>
