<?xml version="1.0" encoding="UTF-8" standalone="no"?>
<!DOCTYPE svg PUBLIC "-//W3C//DTD SVG 1.1//EN"
 "http://www.w3.org/Graphics/SVG/1.1/DTD/svg11.dtd">
<!-- Generated by graphviz version 2.38.0 (20140413.2041)
 -->
<!-- Title: scram::mef::Rule Pages: 1 -->
<svg width="532pt" height="599pt"
 viewBox="0.00 0.00 531.50 599.00" xmlns="http://www.w3.org/2000/svg" xmlns:xlink="http://www.w3.org/1999/xlink">
<g id="graph0" class="graph" transform="scale(1 1) rotate(0) translate(4 595)">
<title>scram::mef::Rule</title>
<polygon fill="white" stroke="none" points="-4,4 -4,-595 527.5,-595 527.5,4 -4,4"/>
<!-- Node1 -->
<g id="node1" class="node"><title>Node1</title>
<polygon fill="#bfbfbf" stroke="black" points="251,-0.5 251,-68.5 348,-68.5 348,-0.5 251,-0.5"/>
<text text-anchor="middle" x="299.5" y="-56.5" font-family="Helvetica,sans-Serif" font-size="10.00">scram::mef::Rule</text>
<polyline fill="none" stroke="black" points="251,-49.5 348,-49.5 "/>
<text text-anchor="middle" x="299.5" y="-37.5" font-family="Helvetica,sans-Serif" font-size="10.00"> </text>
<polyline fill="none" stroke="black" points="251,-30.5 348,-30.5 "/>
<text text-anchor="start" x="259" y="-18.5" font-family="Helvetica,sans-Serif" font-size="10.00">+ instructions()</text>
<text text-anchor="start" x="259" y="-7.5" font-family="Helvetica,sans-Serif" font-size="10.00">+ instructions()</text>
</g>
<!-- Node2 -->
<g id="node2" class="node"><title>Node2</title>
<g id="a_node2"><a xlink:href="classscram_1_1mef_1_1Element.xhtml" target="_top" xlink:title="Mixin class that represents any element of analysis that can have extra descriptions, such as attributes and a label. ">
<polygon fill="white" stroke="black" points="0,-106.5 0,-284.5 117,-284.5 117,-106.5 0,-106.5"/>
<text text-anchor="middle" x="58.5" y="-272.5" font-family="Helvetica,sans-Serif" font-size="10.00">scram::mef::Element</text>
<polyline fill="none" stroke="black" points="0,-265.5 117,-265.5 "/>
<text text-anchor="middle" x="58.5" y="-253.5" font-family="Helvetica,sans-Serif" font-size="10.00"> </text>
<polyline fill="none" stroke="black" points="0,-246.5 117,-246.5 "/>
<text text-anchor="start" x="8" y="-234.5" font-family="Helvetica,sans-Serif" font-size="10.00">+ Element()</text>
<text text-anchor="start" x="8" y="-223.5" font-family="Helvetica,sans-Serif" font-size="10.00">+ name()</text>
<text text-anchor="start" x="8" y="-212.5" font-family="Helvetica,sans-Serif" font-size="10.00">+ label()</text>
<text text-anchor="start" x="8" y="-201.5" font-family="Helvetica,sans-Serif" font-size="10.00">+ label()</text>
<text text-anchor="start" x="8" y="-190.5" font-family="Helvetica,sans-Serif" font-size="10.00">+ attributes()</text>
<text text-anchor="start" x="8" y="-179.5" font-family="Helvetica,sans-Serif" font-size="10.00">+ AddAttribute()</text>
<text text-anchor="start" x="8" y="-168.5" font-family="Helvetica,sans-Serif" font-size="10.00">+ SetAttribute()</text>
<text text-anchor="start" x="8" y="-157.5" font-family="Helvetica,sans-Serif" font-size="10.00">+ HasAttribute()</text>
<text text-anchor="start" x="8" y="-146.5" font-family="Helvetica,sans-Serif" font-size="10.00">+ GetAttribute()</text>
<text text-anchor="start" x="8" y="-135.5" font-family="Helvetica,sans-Serif" font-size="10.00">+ RemoveAttribute()</text>
<text text-anchor="start" x="8" y="-124.5" font-family="Helvetica,sans-Serif" font-size="10.00"># ~Element()</text>
<text text-anchor="start" x="8" y="-113.5" font-family="Helvetica,sans-Serif" font-size="10.00"># name()</text>
</a>
</g>
</g>
<!-- Node2&#45;&gt;Node1 -->
<g id="edge1" class="edge"><title>Node2&#45;&gt;Node1</title>
<path fill="none" stroke="midnightblue" d="M124.688,-107.407C125.289,-106.932 125.893,-106.463 126.5,-106 163.772,-77.5889 214.086,-58.7894 250.844,-47.803"/>
<polygon fill="none" stroke="midnightblue" points="122.373,-104.781 117.022,-113.925 126.907,-110.114 122.373,-104.781"/>
</g>
<!-- Node3 -->
<g id="node3" class="node"><title>Node3</title>
<g id="a_node3"><a xlink:href="classscram_1_1mef_1_1Visitable.xhtml" target="_top" xlink:title="{scram::mef::Visitable\l\&lt; Rule \&gt;\n||+ Accept()\l}">
<polygon fill="white" stroke="black" points="135.5,-161.5 135.5,-229.5 253.5,-229.5 253.5,-161.5 135.5,-161.5"/>
<text text-anchor="start" x="143.5" y="-217.5" font-family="Helvetica,sans-Serif" font-size="10.00">scram::mef::Visitable</text>
<text text-anchor="middle" x="194.5" y="-206.5" font-family="Helvetica,sans-Serif" font-size="10.00">&lt; Rule &gt;</text>
<polyline fill="none" stroke="black" points="135.5,-199.5 253.5,-199.5 "/>
<text text-anchor="middle" x="194.5" y="-187.5" font-family="Helvetica,sans-Serif" font-size="10.00"> </text>
<polyline fill="none" stroke="black" points="135.5,-180.5 253.5,-180.5 "/>
<text text-anchor="start" x="143.5" y="-168.5" font-family="Helvetica,sans-Serif" font-size="10.00">+ Accept()</text>
</a>
</g>
</g>
<!-- Node3&#45;&gt;Node1 -->
<g id="edge2" class="edge"><title>Node3&#45;&gt;Node1</title>
<path fill="none" stroke="midnightblue" d="M222.2,-152.554C239.551,-126.279 261.594,-92.8999 277.698,-68.515"/>
<polygon fill="none" stroke="midnightblue" points="219.101,-150.895 216.511,-161.168 224.943,-154.752 219.101,-150.895"/>
</g>
<!-- Node4 -->
<g id="node4" class="node"><title>Node4</title>
<g id="a_node4"><a xlink:href="classscram_1_1mef_1_1Instruction.xhtml" target="_top" xlink:title="Instructions and rules for event tree paths. ">
<polygon fill="white" stroke="black" points="145.5,-427.5 145.5,-495.5 273.5,-495.5 273.5,-427.5 145.5,-427.5"/>
<text text-anchor="middle" x="209.5" y="-483.5" font-family="Helvetica,sans-Serif" font-size="10.00">scram::mef::Instruction</text>
<polyline fill="none" stroke="black" points="145.5,-476.5 273.5,-476.5 "/>
<text text-anchor="middle" x="209.5" y="-464.5" font-family="Helvetica,sans-Serif" font-size="10.00"> </text>
<polyline fill="none" stroke="black" points="145.5,-457.5 273.5,-457.5 "/>
<text text-anchor="start" x="153.5" y="-445.5" font-family="Helvetica,sans-Serif" font-size="10.00">+ ~Instruction()</text>
<text text-anchor="start" x="153.5" y="-434.5" font-family="Helvetica,sans-Serif" font-size="10.00">+ Accept()</text>
</a>
</g>
</g>
<!-- Node4&#45;&gt;Node3 -->
<g id="edge3" class="edge"><title>Node4&#45;&gt;Node3</title>
<path fill="none" stroke="midnightblue" d="M201.083,-417.362C199.628,-408.354 198.321,-398.893 197.5,-390 192.327,-333.962 192.639,-268.417 193.473,-229.796"/>
<polygon fill="none" stroke="midnightblue" points="197.643,-418.014 202.771,-427.286 204.544,-416.84 197.643,-418.014"/>
</g>
<!-- Node6 -->
<g id="node6" class="node"><title>Node6</title>
<g id="a_node6"><a xlink:href="classscram_1_1mef_1_1Visitable.xhtml" target="_top" xlink:title="Default visit for instruction type of T. ">
<polygon fill="white" stroke="black" points="206.5,-332.5 206.5,-389.5 352.5,-389.5 352.5,-332.5 206.5,-332.5"/>
<text text-anchor="middle" x="279.5" y="-377.5" font-family="Helvetica,sans-Serif" font-size="10.00">scram::mef::Visitable&lt; T &gt;</text>
<polyline fill="none" stroke="black" points="206.5,-370.5 352.5,-370.5 "/>
<text text-anchor="middle" x="279.5" y="-358.5" font-family="Helvetica,sans-Serif" font-size="10.00"> </text>
<polyline fill="none" stroke="black" points="206.5,-351.5 352.5,-351.5 "/>
<text text-anchor="start" x="214.5" y="-339.5" font-family="Helvetica,sans-Serif" font-size="10.00">+ Accept()</text>
</a>
</g>
</g>
<!-- Node4&#45;&gt;Node6 -->
<g id="edge6" class="edge"><title>Node4&#45;&gt;Node6</title>
<path fill="none" stroke="midnightblue" d="M238.866,-419.178C245.965,-409.188 253.382,-398.752 259.907,-389.571"/>
<polygon fill="none" stroke="midnightblue" points="235.944,-417.248 233.004,-427.427 241.65,-421.303 235.944,-417.248"/>
</g>
<!-- Node5 -->
<g id="node5" class="node"><title>Node5</title>
<polygon fill="white" stroke="#bfbfbf" points="171,-533.5 171,-590.5 248,-590.5 248,-533.5 171,-533.5"/>
<text text-anchor="middle" x="209.5" y="-578.5" font-family="Helvetica,sans-Serif" font-size="10.00">noncopyable</text>
<polyline fill="none" stroke="#bfbfbf" points="171,-571.5 248,-571.5 "/>
<text text-anchor="middle" x="209.5" y="-559.5" font-family="Helvetica,sans-Serif" font-size="10.00"> </text>
<polyline fill="none" stroke="#bfbfbf" points="171,-552.5 248,-552.5 "/>
<text text-anchor="middle" x="209.5" y="-540.5" font-family="Helvetica,sans-Serif" font-size="10.00"> </text>
</g>
<!-- Node5&#45;&gt;Node4 -->
<g id="edge4" class="edge"><title>Node5&#45;&gt;Node4</title>
<path fill="none" stroke="#8b1a1a" d="M209.5,-523.007C209.5,-513.962 209.5,-504.383 209.5,-495.578"/>
<polygon fill="none" stroke="#8b1a1a" points="206,-523.3 209.5,-533.3 213,-523.3 206,-523.3"/>
</g>
<!-- Node6&#45;&gt;Node3 -->
<g id="edge5" class="edge"><title>Node6&#45;&gt;Node3</title>
<path fill="none" stroke="orange" d="M260.357,-323.177C245.778,-295.134 225.88,-256.86 211.782,-229.742"/>
<polygon fill="orange" stroke="orange" points="257.363,-325.006 265.081,-332.264 263.574,-321.777 257.363,-325.006"/>
<text text-anchor="middle" x="277.5" y="-306" font-family="Helvetica,sans-Serif" font-size="10.00"> &lt; Rule &gt;</text>
</g>
<!-- Node7 -->
<g id="node7" class="node"><title>Node7</title>
<g id="a_node7"><a xlink:href="classscram_1_1mef_1_1NodeMark.xhtml" target="_top" xlink:title="Mixin class for providing marks for graph nodes. ">
<polygon fill="white" stroke="black" points="271.5,-156 271.5,-235 397.5,-235 397.5,-156 271.5,-156"/>
<text text-anchor="middle" x="334.5" y="-223" font-family="Helvetica,sans-Serif" font-size="10.00">scram::mef::NodeMark</text>
<polyline fill="none" stroke="black" points="271.5,-216 397.5,-216 "/>
<text text-anchor="middle" x="334.5" y="-204" font-family="Helvetica,sans-Serif" font-size="10.00"> </text>
<polyline fill="none" stroke="black" points="271.5,-197 397.5,-197 "/>
<text text-anchor="start" x="279.5" y="-185" font-family="Helvetica,sans-Serif" font-size="10.00">+ mark()</text>
<text text-anchor="start" x="279.5" y="-174" font-family="Helvetica,sans-Serif" font-size="10.00">+ mark()</text>
<text text-anchor="start" x="279.5" y="-163" font-family="Helvetica,sans-Serif" font-size="10.00"># ~NodeMark()</text>
</a>
</g>
</g>
<!-- Node7&#45;&gt;Node1 -->
<g id="edge7" class="edge"><title>Node7&#45;&gt;Node1</title>
<path fill="none" stroke="midnightblue" d="M323.732,-145.584C318.235,-120.61 311.692,-90.8848 306.791,-68.6215"/>
<polygon fill="none" stroke="midnightblue" points="320.37,-146.59 325.938,-155.604 327.206,-145.086 320.37,-146.59"/>
</g>
<!-- Node8 -->
<g id="node8" class="node"><title>Node8</title>
<g id="a_node8"><a xlink:href="classscram_1_1mef_1_1Usage.xhtml" target="_top" xlink:title="Mixin class for providing usage marks for elements. ">
<polygon fill="white" stroke="black" points="415.5,-156 415.5,-235 523.5,-235 523.5,-156 415.5,-156"/>
<text text-anchor="middle" x="469.5" y="-223" font-family="Helvetica,sans-Serif" font-size="10.00">scram::mef::Usage</text>
<polyline fill="none" stroke="black" points="415.5,-216 523.5,-216 "/>
<text text-anchor="middle" x="469.5" y="-204" font-family="Helvetica,sans-Serif" font-size="10.00"> </text>
<polyline fill="none" stroke="black" points="415.5,-197 523.5,-197 "/>
<text text-anchor="start" x="423.5" y="-185" font-family="Helvetica,sans-Serif" font-size="10.00">+ usage()</text>
<text text-anchor="start" x="423.5" y="-174" font-family="Helvetica,sans-Serif" font-size="10.00">+ usage()</text>
<text text-anchor="start" x="423.5" y="-163" font-family="Helvetica,sans-Serif" font-size="10.00"># ~Usage()</text>
</a>
</g>
</g>
<!-- Node8&#45;&gt;Node1 -->
<g id="edge8" class="edge"><title>Node8&#45;&gt;Node1</title>
<path fill="none" stroke="midnightblue" d="M440.676,-147.249C430.827,-133.106 419.09,-118.144 406.5,-106 389.208,-89.3202 367.462,-74.1665 348.098,-62.2199"/>
<polygon fill="none" stroke="midnightblue" points="438.046,-149.605 446.556,-155.916 443.839,-145.676 438.046,-149.605"/>
</g>
</g>
</svg>
