<?xml version="1.0" encoding="UTF-8" standalone="no"?>
<!DOCTYPE svg PUBLIC "-//W3C//DTD SVG 1.1//EN"
 "http://www.w3.org/Graphics/SVG/1.1/DTD/svg11.dtd">
<!-- Generated by graphviz version 2.38.0 (20140413.2041)
 -->
<!-- Title: scram::XmlStreamElement::AddChild Pages: 1 -->
<svg width="530pt" height="281pt"
 viewBox="0.00 0.00 530.00 281.00" xmlns="http://www.w3.org/2000/svg" xmlns:xlink="http://www.w3.org/1999/xlink">
<g id="graph0" class="graph" transform="scale(1 1) rotate(0) translate(4 277)">
<title>scram::XmlStreamElement::AddChild</title>
<polygon fill="white" stroke="none" points="-4,4 -4,-277 526,-277 526,4 -4,4"/>
<!-- Node1 -->
<g id="node1" class="node"><title>Node1</title>
<polygon fill="#bfbfbf" stroke="black" points="0,-130 0,-160 146,-160 146,-130 0,-130"/>
<text text-anchor="start" x="8" y="-148" font-family="Helvetica,sans-Serif" font-size="10.00">scram::XmlStreamElement</text>
<text text-anchor="middle" x="73" y="-137" font-family="Helvetica,sans-Serif" font-size="10.00">::AddChild</text>
</g>
<!-- Node2 -->
<g id="node2" class="node"><title>Node2</title>
<g id="a_node2"><a xlink:href="classscram_1_1Reporter.xhtml#a6a6327c0fc2d0e8ab6ec24a145ae1abe" target="_top" xlink:title="Reports the results of risk analysis on a model. ">
<polygon fill="white" stroke="black" points="204,-253.5 204,-272.5 334,-272.5 334,-253.5 204,-253.5"/>
<text text-anchor="middle" x="269" y="-260.5" font-family="Helvetica,sans-Serif" font-size="10.00">scram::Reporter::Report</text>
</a>
</g>
</g>
<!-- Node1&#45;&gt;Node2 -->
<g id="edge1" class="edge"><title>Node1&#45;&gt;Node2</title>
<path fill="none" stroke="midnightblue" d="M92.4963,-167.887C112.236,-190.73 145.625,-225.077 182,-244 189.461,-247.881 197.685,-250.972 206.001,-253.432"/>
<polygon fill="midnightblue" stroke="midnightblue" points="94.9911,-165.417 85.8611,-160.042 89.6464,-169.937 94.9911,-165.417"/>
</g>
<!-- Node4 -->
<g id="node4" class="node"><title>Node4</title>
<g id="a_node4"><a xlink:href="reporter_8cc.xhtml#a460bfadbe33cffa6f9a8a149c93893e5" target="_top" xlink:title="Describes the fault tree analysis and techniques. ">
<polygon fill="white" stroke="black" points="182,-204 182,-234 356,-234 356,-204 182,-204"/>
<text text-anchor="start" x="190" y="-222" font-family="Helvetica,sans-Serif" font-size="10.00">scram::ReportCalculatedQuantity</text>
<text text-anchor="middle" x="269" y="-211" font-family="Helvetica,sans-Serif" font-size="10.00">&lt; core::FaultTreeAnalysis &gt;</text>
</a>
</g>
</g>
<!-- Node1&#45;&gt;Node4 -->
<g id="edge3" class="edge"><title>Node1&#45;&gt;Node4</title>
<path fill="none" stroke="midnightblue" d="M112.49,-164.664C132.825,-174.578 158.399,-186.308 182,-195 190.728,-198.214 200.088,-201.24 209.306,-203.989"/>
<polygon fill="midnightblue" stroke="midnightblue" points="113.768,-161.392 103.251,-160.109 110.673,-167.67 113.768,-161.392"/>
</g>
<!-- Node5 -->
<g id="node5" class="node"><title>Node5</title>
<g id="a_node5"><a xlink:href="reporter_8cc.xhtml#a04a0fc48f27649e05bafe389d05c7d97" target="_top" xlink:title="Describes the probability analysis and techniques. ">
<polygon fill="white" stroke="black" points="182,-155 182,-185 356,-185 356,-155 182,-155"/>
<text text-anchor="start" x="190" y="-173" font-family="Helvetica,sans-Serif" font-size="10.00">scram::ReportCalculatedQuantity</text>
<text text-anchor="middle" x="269" y="-162" font-family="Helvetica,sans-Serif" font-size="10.00">&lt; core::ProbabilityAnalysis &gt;</text>
</a>
</g>
</g>
<!-- Node1&#45;&gt;Node5 -->
<g id="edge4" class="edge"><title>Node1&#45;&gt;Node5</title>
<path fill="none" stroke="midnightblue" d="M156.16,-155.588C164.686,-156.686 173.37,-157.805 181.938,-158.91"/>
<polygon fill="midnightblue" stroke="midnightblue" points="156.604,-152.116 146.238,-154.309 155.709,-159.059 156.604,-152.116"/>
</g>
<!-- Node6 -->
<g id="node6" class="node"><title>Node6</title>
<g id="a_node6"><a xlink:href="reporter_8cc.xhtml#ad6460094a94fb73e56c2a4a5efc598ed" target="_top" xlink:title="Describes all performed analyses deduced from settings. ">
<polygon fill="white" stroke="black" points="182,-106 182,-136 356,-136 356,-106 182,-106"/>
<text text-anchor="start" x="190" y="-124" font-family="Helvetica,sans-Serif" font-size="10.00">scram::ReportCalculatedQuantity</text>
<text text-anchor="middle" x="269" y="-113" font-family="Helvetica,sans-Serif" font-size="10.00">&lt; core::RiskAnalysis &gt;</text>
</a>
</g>
</g>
<!-- Node1&#45;&gt;Node6 -->
<g id="edge5" class="edge"><title>Node1&#45;&gt;Node6</title>
<path fill="none" stroke="midnightblue" d="M156.438,-134.802C164.875,-133.758 173.463,-132.695 181.938,-131.647"/>
<polygon fill="midnightblue" stroke="midnightblue" points="155.733,-131.362 146.238,-136.063 156.593,-138.309 155.733,-131.362"/>
</g>
<!-- Node7 -->
<g id="node7" class="node"><title>Node7</title>
<g id="a_node7"><a xlink:href="reporter_8cc.xhtml#ae12d3bcaf8c4c099d2d5c84a67286424" target="_top" xlink:title="Describes the uncertainty analysis and techniques. ">
<polygon fill="white" stroke="black" points="182,-57 182,-87 356,-87 356,-57 182,-57"/>
<text text-anchor="start" x="190" y="-75" font-family="Helvetica,sans-Serif" font-size="10.00">scram::ReportCalculatedQuantity</text>
<text text-anchor="middle" x="269" y="-64" font-family="Helvetica,sans-Serif" font-size="10.00">&lt; core::UncertaintyAnalysis &gt;</text>
</a>
</g>
</g>
<!-- Node1&#45;&gt;Node7 -->
<g id="edge6" class="edge"><title>Node1&#45;&gt;Node7</title>
<path fill="none" stroke="midnightblue" d="M114.355,-125.505C134.425,-116.212 159.209,-105.334 182,-97 191.638,-93.4757 202.023,-90.107 212.128,-87.0478"/>
<polygon fill="midnightblue" stroke="midnightblue" points="112.777,-122.379 105.2,-129.785 115.741,-128.721 112.777,-122.379"/>
</g>
<!-- Node8 -->
<g id="node8" class="node"><title>Node8</title>
<g id="a_node8"><a xlink:href="serialization_8cc.xhtml#a83f7058a5caad9ec3ffb5fd6c7d7b8f6" target="_top" xlink:title="Convenience function for serialization into a file. ">
<polygon fill="white" stroke="black" points="210,-0.5 210,-19.5 328,-19.5 328,-0.5 210,-0.5"/>
<text text-anchor="middle" x="269" y="-7.5" font-family="Helvetica,sans-Serif" font-size="10.00">scram::mef::Serialize</text>
</a>
</g>
</g>
<!-- Node1&#45;&gt;Node8 -->
<g id="edge7" class="edge"><title>Node1&#45;&gt;Node8</title>
<path fill="none" stroke="midnightblue" d="M94.8027,-122.598C115.41,-101.357 148.636,-69.5703 182,-48 200.368,-36.1244 223.07,-26.2696 240.536,-19.5738"/>
<polygon fill="midnightblue" stroke="midnightblue" points="92.1916,-120.264 87.8047,-129.908 97.2481,-125.105 92.1916,-120.264"/>
</g>
<!-- Node3 -->
<g id="node3" class="node"><title>Node3</title>
<g id="a_node3"><a xlink:href="classscram_1_1Reporter.xhtml#acf35ee03ce2ffc48aed92a578842b9d6" target="_top" xlink:title="A convenience function to generate the report into a file. ">
<polygon fill="white" stroke="black" points="392,-253.5 392,-272.5 522,-272.5 522,-253.5 392,-253.5"/>
<text text-anchor="middle" x="457" y="-260.5" font-family="Helvetica,sans-Serif" font-size="10.00">scram::Reporter::Report</text>
</a>
</g>
</g>
<!-- Node2&#45;&gt;Node3 -->
<g id="edge2" class="edge"><title>Node2&#45;&gt;Node3</title>
<path fill="none" stroke="midnightblue" d="M344.242,-263C360.007,-263 376.521,-263 391.871,-263"/>
<polygon fill="midnightblue" stroke="midnightblue" points="344.011,-259.5 334.011,-263 344.011,-266.5 344.011,-259.5"/>
</g>
<!-- Node8&#45;&gt;Node8 -->
<g id="edge8" class="edge"><title>Node8&#45;&gt;Node8</title>
<path fill="none" stroke="midnightblue" d="M233.768,-27.8913C234.284,-33.5406 246.028,-38 269,-38 302.414,-38 312.073,-28.5653 297.976,-19.7571"/>
<polygon fill="midnightblue" stroke="midnightblue" points="236.702,-29.8176 240.024,-19.7571 231.153,-25.5501 236.702,-29.8176"/>
</g>
</g>
</svg>
