<?xml version="1.0" encoding="UTF-8" standalone="no"?>
<!DOCTYPE svg PUBLIC "-//W3C//DTD SVG 1.1//EN"
 "http://www.w3.org/Graphics/SVG/1.1/DTD/svg11.dtd">
<!-- Generated by graphviz version 2.38.0 (20140413.2041)
 -->
<!-- Title: scram::mef::CcfGroup::members Pages: 1 -->
<svg width="449pt" height="39pt"
 viewBox="0.00 0.00 449.00 39.00" xmlns="http://www.w3.org/2000/svg" xmlns:xlink="http://www.w3.org/1999/xlink">
<g id="graph0" class="graph" transform="scale(1 1) rotate(0) translate(4 35)">
<title>scram::mef::CcfGroup::members</title>
<polygon fill="white" stroke="none" points="-4,4 -4,-35 445,-35 445,4 -4,4"/>
<!-- Node1 -->
<g id="node1" class="node"><title>Node1</title>
<polygon fill="#bfbfbf" stroke="black" points="0,-0.5 0,-30.5 122,-30.5 122,-0.5 0,-0.5"/>
<text text-anchor="start" x="8" y="-18.5" font-family="Helvetica,sans-Serif" font-size="10.00">scram::mef::CcfGroup</text>
<text text-anchor="middle" x="61" y="-7.5" font-family="Helvetica,sans-Serif" font-size="10.00">::members</text>
</g>
<!-- Node2 -->
<g id="node2" class="node"><title>Node2</title>
<g id="a_node2"><a xlink:href="classscram_1_1mef_1_1BasicEvent.xhtml#acfc0e73e1add67aa2ace841350eb62cd" target="_top" xlink:title="Validates the probability expressions for the primary event. ">
<polygon fill="white" stroke="black" points="158,-0.5 158,-30.5 288,-30.5 288,-0.5 158,-0.5"/>
<text text-anchor="start" x="166" y="-18.5" font-family="Helvetica,sans-Serif" font-size="10.00">scram::mef::BasicEvent</text>
<text text-anchor="middle" x="223" y="-7.5" font-family="Helvetica,sans-Serif" font-size="10.00">::Validate</text>
</a>
</g>
</g>
<!-- Node1&#45;&gt;Node2 -->
<g id="edge1" class="edge"><title>Node1&#45;&gt;Node2</title>
<path fill="none" stroke="midnightblue" d="M122.033,-15.5C130.446,-15.5 139.174,-15.5 147.811,-15.5"/>
<polygon fill="midnightblue" stroke="midnightblue" points="147.883,-19.0001 157.883,-15.5 147.883,-12.0001 147.883,-19.0001"/>
</g>
<!-- Node3 -->
<g id="node3" class="node"><title>Node3</title>
<g id="a_node3"><a xlink:href="classscram_1_1mef_1_1Element.xhtml#adb401e2ca84aa98cb60797bec2500a81" target="_top" xlink:title="scram::mef::Element\l::name">
<polygon fill="white" stroke="black" points="324,-0.5 324,-30.5 441,-30.5 441,-0.5 324,-0.5"/>
<text text-anchor="start" x="332" y="-18.5" font-family="Helvetica,sans-Serif" font-size="10.00">scram::mef::Element</text>
<text text-anchor="middle" x="382.5" y="-7.5" font-family="Helvetica,sans-Serif" font-size="10.00">::name</text>
</a>
</g>
</g>
<!-- Node2&#45;&gt;Node3 -->
<g id="edge2" class="edge"><title>Node2&#45;&gt;Node3</title>
<path fill="none" stroke="midnightblue" d="M288.061,-15.5C296.477,-15.5 305.125,-15.5 313.603,-15.5"/>
<polygon fill="midnightblue" stroke="midnightblue" points="313.831,-19.0001 323.831,-15.5 313.831,-12.0001 313.831,-19.0001"/>
</g>
</g>
</svg>
