<?xml version="1.0" encoding="UTF-8" standalone="no"?>
<!DOCTYPE svg PUBLIC "-//W3C//DTD SVG 1.1//EN"
 "http://www.w3.org/Graphics/SVG/1.1/DTD/svg11.dtd">
<!-- Generated by graphviz version 2.38.0 (20140413.2041)
 -->
<!-- Title: scram::Reporter::Report Pages: 1 -->
<svg width="502pt" height="235pt"
 viewBox="0.00 0.00 502.00 235.00" xmlns="http://www.w3.org/2000/svg" xmlns:xlink="http://www.w3.org/1999/xlink">
<g id="graph0" class="graph" transform="scale(1 1) rotate(0) translate(4 231)">
<title>scram::Reporter::Report</title>
<polygon fill="white" stroke="none" points="-4,4 -4,-231 498,-231 498,4 -4,4"/>
<!-- Node1 -->
<g id="node1" class="node"><title>Node1</title>
<polygon fill="#bfbfbf" stroke="black" points="0,-104 0,-123 130,-123 130,-104 0,-104"/>
<text text-anchor="middle" x="65" y="-111" font-family="Helvetica,sans-Serif" font-size="10.00">scram::Reporter::Report</text>
</g>
<!-- Node2 -->
<g id="node2" class="node"><title>Node2</title>
<g id="a_node2"><a xlink:href="classscram_1_1XmlStreamElement.xhtml#ac8227ce1d2bf22ab83d3055a8e98fb2d" target="_top" xlink:title="Adds a child element to the element. ">
<polygon fill="white" stroke="black" points="166,-196.5 166,-226.5 312,-226.5 312,-196.5 166,-196.5"/>
<text text-anchor="start" x="174" y="-214.5" font-family="Helvetica,sans-Serif" font-size="10.00">scram::XmlStreamElement</text>
<text text-anchor="middle" x="239" y="-203.5" font-family="Helvetica,sans-Serif" font-size="10.00">::AddChild</text>
</a>
</g>
</g>
<!-- Node1&#45;&gt;Node2 -->
<g id="edge1" class="edge"><title>Node1&#45;&gt;Node2</title>
<path fill="none" stroke="midnightblue" d="M76.6285,-123.166C94.1124,-138.632 130.549,-169.07 166,-187.5 169.452,-189.295 173.066,-190.995 176.759,-192.598"/>
<polygon fill="midnightblue" stroke="midnightblue" points="175.47,-195.852 186.051,-196.383 178.11,-189.369 175.47,-195.852"/>
</g>
<!-- Node4 -->
<g id="node4" class="node"><title>Node4</title>
<g id="a_node4"><a xlink:href="classscram_1_1core_1_1RiskAnalysis.xhtml#aa76056b247bb6850a592d30ece0a3483" target="_top" xlink:title="scram::core::RiskAnalysis\l::event_tree_results">
<polygon fill="white" stroke="black" points="170.5,-147.5 170.5,-177.5 307.5,-177.5 307.5,-147.5 170.5,-147.5"/>
<text text-anchor="start" x="178.5" y="-165.5" font-family="Helvetica,sans-Serif" font-size="10.00">scram::core::RiskAnalysis</text>
<text text-anchor="middle" x="239" y="-154.5" font-family="Helvetica,sans-Serif" font-size="10.00">::event_tree_results</text>
</a>
</g>
</g>
<!-- Node1&#45;&gt;Node4 -->
<g id="edge3" class="edge"><title>Node1&#45;&gt;Node4</title>
<path fill="none" stroke="midnightblue" d="M99.5716,-123.064C121.157,-129.213 149.869,-137.393 175.546,-144.708"/>
<polygon fill="midnightblue" stroke="midnightblue" points="174.641,-148.089 185.217,-147.463 176.559,-141.357 174.641,-148.089"/>
</g>
<!-- Node5 -->
<g id="node5" class="node"><title>Node5</title>
<g id="a_node5"><a xlink:href="classscram_1_1core_1_1Settings.xhtml#a83ddd939f7217fb9f0438bd1dd01f7b1" target="_top" xlink:title="scram::core::Settings\l::probability_analysis">
<polygon fill="white" stroke="black" points="179.5,-98.5 179.5,-128.5 298.5,-128.5 298.5,-98.5 179.5,-98.5"/>
<text text-anchor="start" x="187.5" y="-116.5" font-family="Helvetica,sans-Serif" font-size="10.00">scram::core::Settings</text>
<text text-anchor="middle" x="239" y="-105.5" font-family="Helvetica,sans-Serif" font-size="10.00">::probability_analysis</text>
</a>
</g>
</g>
<!-- Node1&#45;&gt;Node5 -->
<g id="edge4" class="edge"><title>Node1&#45;&gt;Node5</title>
<path fill="none" stroke="midnightblue" d="M130.046,-113.5C142.783,-113.5 156.208,-113.5 169.099,-113.5"/>
<polygon fill="midnightblue" stroke="midnightblue" points="169.3,-117 179.3,-113.5 169.3,-110 169.3,-117"/>
</g>
<!-- Node6 -->
<g id="node6" class="node"><title>Node6</title>
<g id="a_node6"><a xlink:href="classscram_1_1core_1_1RiskAnalysis.xhtml#a9198a9d439e7559e7661aa664e172400" target="_top" xlink:title="scram::core::RiskAnalysis\l::results">
<polygon fill="white" stroke="black" points="170.5,-49.5 170.5,-79.5 307.5,-79.5 307.5,-49.5 170.5,-49.5"/>
<text text-anchor="start" x="178.5" y="-67.5" font-family="Helvetica,sans-Serif" font-size="10.00">scram::core::RiskAnalysis</text>
<text text-anchor="middle" x="239" y="-56.5" font-family="Helvetica,sans-Serif" font-size="10.00">::results</text>
</a>
</g>
</g>
<!-- Node1&#45;&gt;Node6 -->
<g id="edge5" class="edge"><title>Node1&#45;&gt;Node6</title>
<path fill="none" stroke="midnightblue" d="M99.5716,-103.936C121.157,-97.7866 149.869,-89.6072 175.546,-82.2922"/>
<polygon fill="midnightblue" stroke="midnightblue" points="176.559,-85.6429 185.217,-79.537 174.641,-78.9108 176.559,-85.6429"/>
</g>
<!-- Node7 -->
<g id="node7" class="node"><title>Node7</title>
<g id="a_node7"><a xlink:href="classscram_1_1core_1_1Analysis.xhtml#ab04a96c555ba726368fa3868a8701610" target="_top" xlink:title="scram::core::Analysis\l::settings">
<polygon fill="white" stroke="black" points="179.5,-0.5 179.5,-30.5 298.5,-30.5 298.5,-0.5 179.5,-0.5"/>
<text text-anchor="start" x="187.5" y="-18.5" font-family="Helvetica,sans-Serif" font-size="10.00">scram::core::Analysis</text>
<text text-anchor="middle" x="239" y="-7.5" font-family="Helvetica,sans-Serif" font-size="10.00">::settings</text>
</a>
</g>
</g>
<!-- Node1&#45;&gt;Node7 -->
<g id="edge6" class="edge"><title>Node1&#45;&gt;Node7</title>
<path fill="none" stroke="midnightblue" d="M76.9665,-103.779C94.6313,-88.5323 130.963,-58.8473 166,-40.5 170.176,-38.3132 174.584,-36.2509 179.079,-34.3208"/>
<polygon fill="midnightblue" stroke="midnightblue" points="180.429,-37.5501 188.38,-30.5472 177.797,-31.0637 180.429,-37.5501"/>
</g>
<!-- Node3 -->
<g id="node3" class="node"><title>Node3</title>
<g id="a_node3"><a xlink:href="classscram_1_1XmlStreamElement.xhtml#af62b9ffc844dba0b3fa143136dc5ac50" target="_top" xlink:title="Constructs a root streamer for the XML element data ready to accept attributes, elements, text. ">
<polygon fill="white" stroke="black" points="348,-196.5 348,-226.5 494,-226.5 494,-196.5 348,-196.5"/>
<text text-anchor="start" x="356" y="-214.5" font-family="Helvetica,sans-Serif" font-size="10.00">scram::XmlStreamElement</text>
<text text-anchor="middle" x="421" y="-203.5" font-family="Helvetica,sans-Serif" font-size="10.00">::XmlStreamElement</text>
</a>
</g>
</g>
<!-- Node2&#45;&gt;Node3 -->
<g id="edge2" class="edge"><title>Node2&#45;&gt;Node3</title>
<path fill="none" stroke="midnightblue" d="M312.176,-211.5C320.52,-211.5 329.077,-211.5 337.544,-211.5"/>
<polygon fill="midnightblue" stroke="midnightblue" points="337.808,-215 347.808,-211.5 337.808,-208 337.808,-215"/>
</g>
</g>
</svg>
