<?xml version="1.0" encoding="UTF-8" standalone="no"?>
<!DOCTYPE svg PUBLIC "-//W3C//DTD SVG 1.1//EN"
 "http://www.w3.org/Graphics/SVG/1.1/DTD/svg11.dtd">
<!-- Generated by graphviz version 2.38.0 (20140413.2041)
 -->
<!-- Title: scram::mef::Parameter Pages: 1 -->
<svg width="527pt" height="518pt"
 viewBox="0.00 0.00 526.50 518.00" xmlns="http://www.w3.org/2000/svg" xmlns:xlink="http://www.w3.org/1999/xlink">
<g id="graph0" class="graph" transform="scale(1 1) rotate(0) translate(4 514)">
<title>scram::mef::Parameter</title>
<polygon fill="white" stroke="none" points="-4,4 -4,-514 522.5,-514 522.5,4 -4,4"/>
<!-- Node1 -->
<g id="node1" class="node"><title>Node1</title>
<polygon fill="#bfbfbf" stroke="black" points="199.5,-0.5 199.5,-101.5 327.5,-101.5 327.5,-0.5 199.5,-0.5"/>
<text text-anchor="middle" x="263.5" y="-89.5" font-family="Helvetica,sans-Serif" font-size="10.00">scram::mef::Parameter</text>
<polyline fill="none" stroke="black" points="199.5,-82.5 327.5,-82.5 "/>
<text text-anchor="middle" x="263.5" y="-70.5" font-family="Helvetica,sans-Serif" font-size="10.00"> </text>
<polyline fill="none" stroke="black" points="199.5,-63.5 327.5,-63.5 "/>
<text text-anchor="start" x="207.5" y="-51.5" font-family="Helvetica,sans-Serif" font-size="10.00">+ expression()</text>
<text text-anchor="start" x="207.5" y="-40.5" font-family="Helvetica,sans-Serif" font-size="10.00">+ unit()</text>
<text text-anchor="start" x="207.5" y="-29.5" font-family="Helvetica,sans-Serif" font-size="10.00">+ unit()</text>
<text text-anchor="start" x="207.5" y="-18.5" font-family="Helvetica,sans-Serif" font-size="10.00">+ value()</text>
<text text-anchor="start" x="207.5" y="-7.5" font-family="Helvetica,sans-Serif" font-size="10.00">+ interval()</text>
</g>
<!-- Node2 -->
<g id="node2" class="node"><title>Node2</title>
<g id="a_node2"><a xlink:href="classscram_1_1mef_1_1Expression.xhtml" target="_top" xlink:title="Abstract base class for all sorts of expressions to describe events. ">
<polygon fill="white" stroke="black" points="0,-138.5 0,-294.5 129,-294.5 129,-138.5 0,-138.5"/>
<text text-anchor="middle" x="64.5" y="-282.5" font-family="Helvetica,sans-Serif" font-size="10.00">scram::mef::Expression</text>
<polyline fill="none" stroke="black" points="0,-275.5 129,-275.5 "/>
<text text-anchor="middle" x="64.5" y="-263.5" font-family="Helvetica,sans-Serif" font-size="10.00"> </text>
<polyline fill="none" stroke="black" points="0,-256.5 129,-256.5 "/>
<text text-anchor="start" x="8" y="-244.5" font-family="Helvetica,sans-Serif" font-size="10.00">+ Expression()</text>
<text text-anchor="start" x="8" y="-233.5" font-family="Helvetica,sans-Serif" font-size="10.00">+ ~Expression()</text>
<text text-anchor="start" x="8" y="-222.5" font-family="Helvetica,sans-Serif" font-size="10.00">+ args()</text>
<text text-anchor="start" x="8" y="-211.5" font-family="Helvetica,sans-Serif" font-size="10.00">+ Validate()</text>
<text text-anchor="start" x="8" y="-200.5" font-family="Helvetica,sans-Serif" font-size="10.00">+ value()</text>
<text text-anchor="start" x="8" y="-189.5" font-family="Helvetica,sans-Serif" font-size="10.00">+ interval()</text>
<text text-anchor="start" x="8" y="-178.5" font-family="Helvetica,sans-Serif" font-size="10.00">+ IsDeviate()</text>
<text text-anchor="start" x="8" y="-167.5" font-family="Helvetica,sans-Serif" font-size="10.00">+ Sample()</text>
<text text-anchor="start" x="8" y="-156.5" font-family="Helvetica,sans-Serif" font-size="10.00">+ Reset()</text>
<text text-anchor="start" x="8" y="-145.5" font-family="Helvetica,sans-Serif" font-size="10.00"># AddArg()</text>
</a>
</g>
</g>
<!-- Node2&#45;&gt;Node1 -->
<g id="edge1" class="edge"><title>Node2&#45;&gt;Node1</title>
<path fill="none" stroke="midnightblue" d="M136.709,-138.678C136.973,-138.451 137.237,-138.225 137.5,-138 156.628,-121.655 178.911,-105.598 199.373,-91.866"/>
<polygon fill="none" stroke="midnightblue" points="134.218,-136.209 129.067,-145.468 138.868,-141.442 134.218,-136.209"/>
</g>
<!-- Node3 -->
<g id="node3" class="node"><title>Node3</title>
<polygon fill="white" stroke="#bfbfbf" points="26,-392 26,-449 103,-449 103,-392 26,-392"/>
<text text-anchor="middle" x="64.5" y="-437" font-family="Helvetica,sans-Serif" font-size="10.00">noncopyable</text>
<polyline fill="none" stroke="#bfbfbf" points="26,-430 103,-430 "/>
<text text-anchor="middle" x="64.5" y="-418" font-family="Helvetica,sans-Serif" font-size="10.00"> </text>
<polyline fill="none" stroke="#bfbfbf" points="26,-411 103,-411 "/>
<text text-anchor="middle" x="64.5" y="-399" font-family="Helvetica,sans-Serif" font-size="10.00"> </text>
</g>
<!-- Node3&#45;&gt;Node2 -->
<g id="edge2" class="edge"><title>Node3&#45;&gt;Node2</title>
<path fill="none" stroke="#8b1a1a" d="M64.5,-381.573C64.5,-357.162 64.5,-324.555 64.5,-294.842"/>
<polygon fill="none" stroke="#8b1a1a" points="61.0001,-381.836 64.5,-391.836 68.0001,-381.836 61.0001,-381.836"/>
</g>
<!-- Node4 -->
<g id="node4" class="node"><title>Node4</title>
<g id="a_node4"><a xlink:href="classscram_1_1mef_1_1Id.xhtml" target="_top" xlink:title="Mixin class for assigning unique identifiers to elements. ">
<polygon fill="white" stroke="black" points="147,-149.5 147,-283.5 248,-283.5 248,-149.5 147,-149.5"/>
<text text-anchor="middle" x="197.5" y="-271.5" font-family="Helvetica,sans-Serif" font-size="10.00">scram::mef::Id</text>
<polyline fill="none" stroke="black" points="147,-264.5 248,-264.5 "/>
<text text-anchor="middle" x="197.5" y="-252.5" font-family="Helvetica,sans-Serif" font-size="10.00"> </text>
<polyline fill="none" stroke="black" points="147,-245.5 248,-245.5 "/>
<text text-anchor="start" x="155" y="-233.5" font-family="Helvetica,sans-Serif" font-size="10.00">+ Id()</text>
<text text-anchor="start" x="155" y="-222.5" font-family="Helvetica,sans-Serif" font-size="10.00">+ id()</text>
<text text-anchor="start" x="155" y="-211.5" font-family="Helvetica,sans-Serif" font-size="10.00">+ id()</text>
<text text-anchor="start" x="155" y="-200.5" font-family="Helvetica,sans-Serif" font-size="10.00">+ unique_name()</text>
<text text-anchor="start" x="155" y="-189.5" font-family="Helvetica,sans-Serif" font-size="10.00">+ unique_name()</text>
<text text-anchor="start" x="155" y="-178.5" font-family="Helvetica,sans-Serif" font-size="10.00"># ~Id()</text>
<text text-anchor="start" x="155" y="-167.5" font-family="Helvetica,sans-Serif" font-size="10.00">* unique_name()</text>
<text text-anchor="start" x="155" y="-156.5" font-family="Helvetica,sans-Serif" font-size="10.00">* unique_name()</text>
</a>
</g>
</g>
<!-- Node4&#45;&gt;Node1 -->
<g id="edge3" class="edge"><title>Node4&#45;&gt;Node1</title>
<path fill="none" stroke="midnightblue" d="M227.958,-140.046C233.214,-127.027 238.556,-113.793 243.447,-101.676"/>
<polygon fill="none" stroke="midnightblue" points="224.652,-138.886 224.154,-149.47 231.143,-141.507 224.652,-138.886"/>
</g>
<!-- Node5 -->
<g id="node5" class="node"><title>Node5</title>
<g id="a_node5"><a xlink:href="classscram_1_1mef_1_1Element.xhtml" target="_top" xlink:title="Mixin class that represents any element of analysis that can have extra descriptions, such as attributes and a label. ">
<polygon fill="white" stroke="black" points="130,-331.5 130,-509.5 247,-509.5 247,-331.5 130,-331.5"/>
<text text-anchor="middle" x="188.5" y="-497.5" font-family="Helvetica,sans-Serif" font-size="10.00">scram::mef::Element</text>
<polyline fill="none" stroke="black" points="130,-490.5 247,-490.5 "/>
<text text-anchor="middle" x="188.5" y="-478.5" font-family="Helvetica,sans-Serif" font-size="10.00"> </text>
<polyline fill="none" stroke="black" points="130,-471.5 247,-471.5 "/>
<text text-anchor="start" x="138" y="-459.5" font-family="Helvetica,sans-Serif" font-size="10.00">+ Element()</text>
<text text-anchor="start" x="138" y="-448.5" font-family="Helvetica,sans-Serif" font-size="10.00">+ name()</text>
<text text-anchor="start" x="138" y="-437.5" font-family="Helvetica,sans-Serif" font-size="10.00">+ label()</text>
<text text-anchor="start" x="138" y="-426.5" font-family="Helvetica,sans-Serif" font-size="10.00">+ label()</text>
<text text-anchor="start" x="138" y="-415.5" font-family="Helvetica,sans-Serif" font-size="10.00">+ attributes()</text>
<text text-anchor="start" x="138" y="-404.5" font-family="Helvetica,sans-Serif" font-size="10.00">+ AddAttribute()</text>
<text text-anchor="start" x="138" y="-393.5" font-family="Helvetica,sans-Serif" font-size="10.00">+ SetAttribute()</text>
<text text-anchor="start" x="138" y="-382.5" font-family="Helvetica,sans-Serif" font-size="10.00">+ HasAttribute()</text>
<text text-anchor="start" x="138" y="-371.5" font-family="Helvetica,sans-Serif" font-size="10.00">+ GetAttribute()</text>
<text text-anchor="start" x="138" y="-360.5" font-family="Helvetica,sans-Serif" font-size="10.00">+ RemoveAttribute()</text>
<text text-anchor="start" x="138" y="-349.5" font-family="Helvetica,sans-Serif" font-size="10.00"># ~Element()</text>
<text text-anchor="start" x="138" y="-338.5" font-family="Helvetica,sans-Serif" font-size="10.00"># name()</text>
</a>
</g>
</g>
<!-- Node5&#45;&gt;Node4 -->
<g id="edge4" class="edge"><title>Node5&#45;&gt;Node4</title>
<path fill="none" stroke="midnightblue" d="M192.876,-321.284C193.444,-308.527 194.015,-295.71 194.553,-283.649"/>
<polygon fill="none" stroke="midnightblue" points="189.37,-321.342 192.421,-331.487 196.363,-321.653 189.37,-321.342"/>
</g>
<!-- Node6 -->
<g id="node6" class="node"><title>Node6</title>
<g id="a_node6"><a xlink:href="classscram_1_1mef_1_1Role.xhtml" target="_top" xlink:title="Mixin class that manages private or public roles for elements as needed. ">
<polygon fill="white" stroke="black" points="265,-375.5 265,-465.5 362,-465.5 362,-375.5 265,-375.5"/>
<text text-anchor="middle" x="313.5" y="-453.5" font-family="Helvetica,sans-Serif" font-size="10.00">scram::mef::Role</text>
<polyline fill="none" stroke="black" points="265,-446.5 362,-446.5 "/>
<text text-anchor="middle" x="313.5" y="-434.5" font-family="Helvetica,sans-Serif" font-size="10.00"> </text>
<polyline fill="none" stroke="black" points="265,-427.5 362,-427.5 "/>
<text text-anchor="start" x="273" y="-415.5" font-family="Helvetica,sans-Serif" font-size="10.00">+ Role()</text>
<text text-anchor="start" x="273" y="-404.5" font-family="Helvetica,sans-Serif" font-size="10.00">+ role()</text>
<text text-anchor="start" x="273" y="-393.5" font-family="Helvetica,sans-Serif" font-size="10.00">+ base_path()</text>
<text text-anchor="start" x="273" y="-382.5" font-family="Helvetica,sans-Serif" font-size="10.00"># ~Role()</text>
</a>
</g>
</g>
<!-- Node6&#45;&gt;Node4 -->
<g id="edge5" class="edge"><title>Node6&#45;&gt;Node4</title>
<path fill="none" stroke="midnightblue" d="M283.026,-366.433C268.462,-341.072 250.884,-310.461 235.461,-283.604"/>
<polygon fill="none" stroke="midnightblue" points="280.028,-368.241 288.043,-375.17 286.099,-364.755 280.028,-368.241"/>
</g>
<!-- Node7 -->
<g id="node7" class="node"><title>Node7</title>
<g id="a_node7"><a xlink:href="classscram_1_1mef_1_1NodeMark.xhtml" target="_top" xlink:title="Mixin class for providing marks for graph nodes. ">
<polygon fill="white" stroke="black" points="266.5,-177 266.5,-256 392.5,-256 392.5,-177 266.5,-177"/>
<text text-anchor="middle" x="329.5" y="-244" font-family="Helvetica,sans-Serif" font-size="10.00">scram::mef::NodeMark</text>
<polyline fill="none" stroke="black" points="266.5,-237 392.5,-237 "/>
<text text-anchor="middle" x="329.5" y="-225" font-family="Helvetica,sans-Serif" font-size="10.00"> </text>
<polyline fill="none" stroke="black" points="266.5,-218 392.5,-218 "/>
<text text-anchor="start" x="274.5" y="-206" font-family="Helvetica,sans-Serif" font-size="10.00">+ mark()</text>
<text text-anchor="start" x="274.5" y="-195" font-family="Helvetica,sans-Serif" font-size="10.00">+ mark()</text>
<text text-anchor="start" x="274.5" y="-184" font-family="Helvetica,sans-Serif" font-size="10.00"># ~NodeMark()</text>
</a>
</g>
</g>
<!-- Node7&#45;&gt;Node1 -->
<g id="edge6" class="edge"><title>Node7&#45;&gt;Node1</title>
<path fill="none" stroke="midnightblue" d="M310.011,-167.221C301.67,-146.558 291.937,-122.445 283.536,-101.634"/>
<polygon fill="none" stroke="midnightblue" points="306.87,-168.79 313.859,-176.753 313.361,-166.17 306.87,-168.79"/>
</g>
<!-- Node8 -->
<g id="node8" class="node"><title>Node8</title>
<g id="a_node8"><a xlink:href="classscram_1_1mef_1_1Usage.xhtml" target="_top" xlink:title="Mixin class for providing usage marks for elements. ">
<polygon fill="white" stroke="black" points="410.5,-177 410.5,-256 518.5,-256 518.5,-177 410.5,-177"/>
<text text-anchor="middle" x="464.5" y="-244" font-family="Helvetica,sans-Serif" font-size="10.00">scram::mef::Usage</text>
<polyline fill="none" stroke="black" points="410.5,-237 518.5,-237 "/>
<text text-anchor="middle" x="464.5" y="-225" font-family="Helvetica,sans-Serif" font-size="10.00"> </text>
<polyline fill="none" stroke="black" points="410.5,-218 518.5,-218 "/>
<text text-anchor="start" x="418.5" y="-206" font-family="Helvetica,sans-Serif" font-size="10.00">+ usage()</text>
<text text-anchor="start" x="418.5" y="-195" font-family="Helvetica,sans-Serif" font-size="10.00">+ usage()</text>
<text text-anchor="start" x="418.5" y="-184" font-family="Helvetica,sans-Serif" font-size="10.00"># ~Usage()</text>
</a>
</g>
</g>
<!-- Node8&#45;&gt;Node1 -->
<g id="edge7" class="edge"><title>Node8&#45;&gt;Node1</title>
<path fill="none" stroke="midnightblue" d="M430.492,-168.536C421.678,-157.88 411.759,-147.048 401.5,-138 379.27,-118.393 352.06,-100.403 327.695,-86.0008"/>
<polygon fill="none" stroke="midnightblue" points="428.005,-171.028 437.005,-176.618 433.456,-166.636 428.005,-171.028"/>
</g>
</g>
</svg>
