<?xml version="1.0" encoding="UTF-8" standalone="no"?>
<!DOCTYPE svg PUBLIC "-//W3C//DTD SVG 1.1//EN"
 "http://www.w3.org/Graphics/SVG/1.1/DTD/svg11.dtd">
<!-- Generated by graphviz version 2.38.0 (20140413.2041)
 -->
<!-- Title: scram::Logger Pages: 1 -->
<svg width="104pt" height="204pt"
 viewBox="0.00 0.00 104.00 204.00" xmlns="http://www.w3.org/2000/svg" xmlns:xlink="http://www.w3.org/1999/xlink">
<g id="graph0" class="graph" transform="scale(1 1) rotate(0) translate(4 200)">
<title>scram::Logger</title>
<polygon fill="white" stroke="none" points="-4,4 -4,-200 100,-200 100,4 -4,4"/>
<!-- Node1 -->
<g id="node1" class="node"><title>Node1</title>
<polygon fill="#bfbfbf" stroke="black" points="0,-0.5 0,-101.5 96,-101.5 96,-0.5 0,-0.5"/>
<text text-anchor="middle" x="48" y="-89.5" font-family="Helvetica,sans-Serif" font-size="10.00">scram::Logger</text>
<polyline fill="none" stroke="black" points="0,-82.5 96,-82.5 "/>
<text text-anchor="middle" x="48" y="-70.5" font-family="Helvetica,sans-Serif" font-size="10.00"> </text>
<polyline fill="none" stroke="black" points="0,-63.5 96,-63.5 "/>
<text text-anchor="start" x="8" y="-51.5" font-family="Helvetica,sans-Serif" font-size="10.00">+ ~Logger()</text>
<text text-anchor="start" x="8" y="-40.5" font-family="Helvetica,sans-Serif" font-size="10.00">+ Get()</text>
<text text-anchor="start" x="8" y="-29.5" font-family="Helvetica,sans-Serif" font-size="10.00">+ report_level()</text>
<text text-anchor="start" x="8" y="-18.5" font-family="Helvetica,sans-Serif" font-size="10.00">+ report_level()</text>
<text text-anchor="start" x="8" y="-7.5" font-family="Helvetica,sans-Serif" font-size="10.00">+ SetVerbosity()</text>
</g>
<!-- Node2 -->
<g id="node2" class="node"><title>Node2</title>
<polygon fill="white" stroke="#bfbfbf" points="9.5,-138.5 9.5,-195.5 86.5,-195.5 86.5,-138.5 9.5,-138.5"/>
<text text-anchor="middle" x="48" y="-183.5" font-family="Helvetica,sans-Serif" font-size="10.00">noncopyable</text>
<polyline fill="none" stroke="#bfbfbf" points="9.5,-176.5 86.5,-176.5 "/>
<text text-anchor="middle" x="48" y="-164.5" font-family="Helvetica,sans-Serif" font-size="10.00"> </text>
<polyline fill="none" stroke="#bfbfbf" points="9.5,-157.5 86.5,-157.5 "/>
<text text-anchor="middle" x="48" y="-145.5" font-family="Helvetica,sans-Serif" font-size="10.00"> </text>
</g>
<!-- Node2&#45;&gt;Node1 -->
<g id="edge1" class="edge"><title>Node2&#45;&gt;Node1</title>
<path fill="none" stroke="#8b1a1a" d="M48,-128.354C48,-119.796 48,-110.578 48,-101.608"/>
<polygon fill="none" stroke="#8b1a1a" points="44.5001,-128.404 48,-138.404 51.5001,-128.404 44.5001,-128.404"/>
</g>
</g>
</svg>
