<?xml version="1.0" encoding="UTF-8" standalone="no"?>
<!DOCTYPE svg PUBLIC "-//W3C//DTD SVG 1.1//EN"
 "http://www.w3.org/Graphics/SVG/1.1/DTD/svg11.dtd">
<!-- Generated by graphviz version 2.38.0 (20140413.2041)
 -->
<!-- Title: scram::core::NonTerminal::low Pages: 1 -->
<svg width="588pt" height="257pt"
 viewBox="0.00 0.00 588.00 257.00" xmlns="http://www.w3.org/2000/svg" xmlns:xlink="http://www.w3.org/1999/xlink">
<g id="graph0" class="graph" transform="scale(1 1) rotate(0) translate(4 253)">
<title>scram::core::NonTerminal::low</title>
<polygon fill="white" stroke="none" points="-4,4 -4,-253 584,-253 584,4 -4,4"/>
<!-- Node1 -->
<g id="node1" class="node"><title>Node1</title>
<polygon fill="#bfbfbf" stroke="black" points="0,-136 0,-155 160,-155 160,-136 0,-136"/>
<text text-anchor="middle" x="80" y="-143" font-family="Helvetica,sans-Serif" font-size="10.00">scram::core::NonTerminal::low</text>
</g>
<!-- Node2 -->
<g id="node2" class="node"><title>Node2</title>
<g id="a_node2"><a xlink:href="classscram_1_1core_1_1ImportanceAnalysis.xhtml#acf487235f07ddcc1c920943ebfe2ce60" target="_top" xlink:title="Performs quantitative analysis of importance factors of basic events in products. ...">
<polygon fill="white" stroke="black" points="196,-218.5 196,-248.5 369,-248.5 369,-218.5 196,-218.5"/>
<text text-anchor="start" x="204" y="-236.5" font-family="Helvetica,sans-Serif" font-size="10.00">scram::core::ImportanceAnalysis</text>
<text text-anchor="middle" x="282.5" y="-225.5" font-family="Helvetica,sans-Serif" font-size="10.00">::Analyze</text>
</a>
</g>
</g>
<!-- Node1&#45;&gt;Node2 -->
<g id="edge1" class="edge"><title>Node1&#45;&gt;Node2</title>
<path fill="none" stroke="midnightblue" d="M104.721,-160.487C127.462,-174.369 163.098,-194.867 196,-208.5 204.715,-212.111 214.132,-215.421 223.42,-218.368"/>
<polygon fill="midnightblue" stroke="midnightblue" points="106.444,-157.438 96.0964,-155.162 102.766,-163.394 106.444,-157.438"/>
</g>
<!-- Node3 -->
<g id="node3" class="node"><title>Node3</title>
<g id="a_node3"><a xlink:href="classscram_1_1core_1_1Bdd.xhtml#ab9548d4c5f9afaa96dc24e17e2a01a57" target="_top" xlink:title="Runs the Qualitative analysis with the representation of a PDAG as ROBDD. ">
<polygon fill="white" stroke="black" points="211.5,-180 211.5,-199 353.5,-199 353.5,-180 211.5,-180"/>
<text text-anchor="middle" x="282.5" y="-187" font-family="Helvetica,sans-Serif" font-size="10.00">scram::core::Bdd::Analyze</text>
</a>
</g>
</g>
<!-- Node1&#45;&gt;Node3 -->
<g id="edge2" class="edge"><title>Node1&#45;&gt;Node3</title>
<path fill="none" stroke="midnightblue" d="M134.278,-157.192C166.712,-164.31 207.621,-173.287 238.079,-179.971"/>
<polygon fill="midnightblue" stroke="midnightblue" points="135.023,-153.772 124.506,-155.047 133.523,-160.61 135.023,-153.772"/>
</g>
<!-- Node4 -->
<g id="node4" class="node"><title>Node4</title>
<g id="a_node4"><a xlink:href="classscram_1_1core_1_1Zbdd.xhtml#a499a8bc4bc3854e7b2928c08515243cf" target="_top" xlink:title="Specialization of Apply for AND operator for non&#45;terminal ZBDD vertices. ">
<polygon fill="white" stroke="black" points="227,-130.5 227,-160.5 338,-160.5 338,-130.5 227,-130.5"/>
<text text-anchor="start" x="235" y="-148.5" font-family="Helvetica,sans-Serif" font-size="10.00">scram::core::Zbdd::</text>
<text text-anchor="middle" x="282.5" y="-137.5" font-family="Helvetica,sans-Serif" font-size="10.00">Apply</text>
</a>
</g>
</g>
<!-- Node1&#45;&gt;Node4 -->
<g id="edge3" class="edge"><title>Node1&#45;&gt;Node4</title>
<path fill="none" stroke="midnightblue" d="M170.267,-145.5C189.562,-145.5 209.407,-145.5 226.895,-145.5"/>
<polygon fill="midnightblue" stroke="midnightblue" points="170.243,-142 160.243,-145.5 170.243,-149 170.243,-142"/>
</g>
<!-- Node5 -->
<g id="node5" class="node"><title>Node5</title>
<g id="a_node5"><a xlink:href="classscram_1_1core_1_1ProbabilityAnalyzer_3_01Bdd_01_4.xhtml#a45b66605634ae60f1c00e3ac469a7c7a" target="_top" xlink:title="Calculates the total probability with a different set of probability values than the one given upon c...">
<polygon fill="white" stroke="black" points="197,-71 197,-112 368,-112 368,-71 197,-71"/>
<text text-anchor="start" x="205" y="-100" font-family="Helvetica,sans-Serif" font-size="10.00">scram::core::Probability</text>
<text text-anchor="start" x="205" y="-89" font-family="Helvetica,sans-Serif" font-size="10.00">Analyzer&lt; Bdd &gt;::CalculateTotal</text>
<text text-anchor="middle" x="282.5" y="-78" font-family="Helvetica,sans-Serif" font-size="10.00">Probability</text>
</a>
</g>
</g>
<!-- Node1&#45;&gt;Node5 -->
<g id="edge4" class="edge"><title>Node1&#45;&gt;Node5</title>
<path fill="none" stroke="midnightblue" d="M126.335,-133.29C149.657,-127.009 178.714,-119.183 205.357,-112.007"/>
<polygon fill="midnightblue" stroke="midnightblue" points="125.13,-129.99 116.384,-135.97 126.95,-136.749 125.13,-129.99"/>
</g>
<!-- Node6 -->
<g id="node6" class="node"><title>Node6</title>
<g id="a_node6"><a xlink:href="classscram_1_1core_1_1Zbdd.xhtml#a516f0d2f35ad213399f83fb9ab102561" target="_top" xlink:title="Traverses ZBDD to find modules and adjusted cut&#45;offs. ">
<polygon fill="white" stroke="black" points="227,-22.5 227,-52.5 338,-52.5 338,-22.5 227,-22.5"/>
<text text-anchor="start" x="235" y="-40.5" font-family="Helvetica,sans-Serif" font-size="10.00">scram::core::Zbdd::</text>
<text text-anchor="middle" x="282.5" y="-29.5" font-family="Helvetica,sans-Serif" font-size="10.00">GatherModules</text>
</a>
</g>
</g>
<!-- Node1&#45;&gt;Node6 -->
<g id="edge5" class="edge"><title>Node1&#45;&gt;Node6</title>
<path fill="none" stroke="midnightblue" d="M98.9427,-129.188C120.51,-110.379 158.502,-79.7182 196,-61.5 205.569,-56.8512 216.19,-52.9648 226.603,-49.7677"/>
<polygon fill="midnightblue" stroke="midnightblue" points="96.4245,-126.743 91.2618,-135.995 101.067,-131.982 96.4245,-126.743"/>
</g>
<!-- Node7 -->
<g id="node7" class="node"><title>Node7</title>
<g id="a_node7"><a xlink:href="classscram_1_1core_1_1Zbdd.xhtml#af92e04ed908364e0177ce444d7b72712" target="_top" xlink:title="The common constructor to initialize member variables. ">
<polygon fill="white" stroke="black" points="424,-50 424,-69 561,-69 561,-50 424,-50"/>
<text text-anchor="middle" x="492.5" y="-57" font-family="Helvetica,sans-Serif" font-size="10.00">scram::core::Zbdd::Zbdd</text>
</a>
</g>
</g>
<!-- Node6&#45;&gt;Node7 -->
<g id="edge6" class="edge"><title>Node6&#45;&gt;Node7</title>
<path fill="none" stroke="midnightblue" d="M348.227,-44.3461C372.251,-46.8872 399.553,-49.7749 423.834,-52.343"/>
<polygon fill="midnightblue" stroke="midnightblue" points="348.462,-40.8516 338.15,-43.2802 347.726,-47.8127 348.462,-40.8516"/>
</g>
<!-- Node8 -->
<g id="node8" class="node"><title>Node8</title>
<g id="a_node8"><a xlink:href="classscram_1_1core_1_1zbdd_1_1CutSetContainer.xhtml#a478c89f64731781882b50ec55898900b" target="_top" xlink:title="Gathers all module indices in the cut sets. ">
<polygon fill="white" stroke="black" points="405,-0.5 405,-30.5 580,-30.5 580,-0.5 405,-0.5"/>
<text text-anchor="start" x="413" y="-18.5" font-family="Helvetica,sans-Serif" font-size="10.00">scram::core::zbdd::</text>
<text text-anchor="middle" x="492.5" y="-7.5" font-family="Helvetica,sans-Serif" font-size="10.00">CutSetContainer::GatherModules</text>
</a>
</g>
</g>
<!-- Node6&#45;&gt;Node8 -->
<g id="edge7" class="edge"><title>Node6&#45;&gt;Node8</title>
<path fill="none" stroke="midnightblue" d="M348.407,-30.6348C366.212,-28.7516 385.806,-26.6791 404.631,-24.6881"/>
<polygon fill="midnightblue" stroke="midnightblue" points="347.726,-27.1873 338.15,-31.7198 348.462,-34.1484 347.726,-27.1873"/>
</g>
</g>
</svg>
