<?xml version="1.0" encoding="UTF-8" standalone="no"?>
<!DOCTYPE svg PUBLIC "-//W3C//DTD SVG 1.1//EN"
 "http://www.w3.org/Graphics/SVG/1.1/DTD/svg11.dtd">
<!-- Generated by graphviz version 2.38.0 (20140413.2041)
 -->
<!-- Title: scram::mef::EventTree Pages: 1 -->
<svg width="347pt" height="457pt"
 viewBox="0.00 0.00 347.00 457.00" xmlns="http://www.w3.org/2000/svg" xmlns:xlink="http://www.w3.org/1999/xlink">
<g id="graph0" class="graph" transform="scale(1 1) rotate(0) translate(4 453)">
<title>scram::mef::EventTree</title>
<polygon fill="white" stroke="none" points="-4,4 -4,-453 343,-453 343,4 -4,4"/>
<!-- Node1 -->
<g id="node1" class="node"><title>Node1</title>
<polygon fill="#bfbfbf" stroke="black" points="127.5,-0.5 127.5,-233.5 251.5,-233.5 251.5,-0.5 127.5,-0.5"/>
<text text-anchor="middle" x="189.5" y="-221.5" font-family="Helvetica,sans-Serif" font-size="10.00">scram::mef::EventTree</text>
<polyline fill="none" stroke="black" points="127.5,-214.5 251.5,-214.5 "/>
<text text-anchor="middle" x="189.5" y="-202.5" font-family="Helvetica,sans-Serif" font-size="10.00"> </text>
<polyline fill="none" stroke="black" points="127.5,-195.5 251.5,-195.5 "/>
<text text-anchor="start" x="135.5" y="-183.5" font-family="Helvetica,sans-Serif" font-size="10.00">+ initial_state()</text>
<text text-anchor="start" x="135.5" y="-172.5" font-family="Helvetica,sans-Serif" font-size="10.00">+ initial_state()</text>
<text text-anchor="start" x="135.5" y="-161.5" font-family="Helvetica,sans-Serif" font-size="10.00">+ functional_events()</text>
<text text-anchor="start" x="135.5" y="-150.5" font-family="Helvetica,sans-Serif" font-size="10.00">+ branches()</text>
<text text-anchor="start" x="135.5" y="-139.5" font-family="Helvetica,sans-Serif" font-size="10.00">+ Add()</text>
<text text-anchor="start" x="135.5" y="-128.5" font-family="Helvetica,sans-Serif" font-size="10.00">+ Add()</text>
<text text-anchor="start" x="135.5" y="-117.5" font-family="Helvetica,sans-Serif" font-size="10.00">+ Add()</text>
<text text-anchor="start" x="135.5" y="-106.5" font-family="Helvetica,sans-Serif" font-size="10.00">+ Add()</text>
<text text-anchor="start" x="135.5" y="-95.5" font-family="Helvetica,sans-Serif" font-size="10.00">* sequences_</text>
<text text-anchor="start" x="135.5" y="-84.5" font-family="Helvetica,sans-Serif" font-size="10.00">* functional_events_</text>
<text text-anchor="start" x="135.5" y="-73.5" font-family="Helvetica,sans-Serif" font-size="10.00">* branches_</text>
<text text-anchor="start" x="135.5" y="-62.5" font-family="Helvetica,sans-Serif" font-size="10.00">* functional_events()</text>
<text text-anchor="start" x="135.5" y="-51.5" font-family="Helvetica,sans-Serif" font-size="10.00">* branches()</text>
<text text-anchor="start" x="135.5" y="-40.5" font-family="Helvetica,sans-Serif" font-size="10.00">* Add()</text>
<text text-anchor="start" x="135.5" y="-29.5" font-family="Helvetica,sans-Serif" font-size="10.00">* Add()</text>
<text text-anchor="start" x="135.5" y="-18.5" font-family="Helvetica,sans-Serif" font-size="10.00">* Add()</text>
<text text-anchor="start" x="135.5" y="-7.5" font-family="Helvetica,sans-Serif" font-size="10.00">* Add()</text>
</g>
<!-- Node2 -->
<g id="node2" class="node"><title>Node2</title>
<g id="a_node2"><a xlink:href="classscram_1_1mef_1_1Element.xhtml" target="_top" xlink:title="Mixin class that represents any element of analysis that can have extra descriptions, such as attributes and a label. ">
<polygon fill="white" stroke="black" points="0,-270.5 0,-448.5 117,-448.5 117,-270.5 0,-270.5"/>
<text text-anchor="middle" x="58.5" y="-436.5" font-family="Helvetica,sans-Serif" font-size="10.00">scram::mef::Element</text>
<polyline fill="none" stroke="black" points="0,-429.5 117,-429.5 "/>
<text text-anchor="middle" x="58.5" y="-417.5" font-family="Helvetica,sans-Serif" font-size="10.00"> </text>
<polyline fill="none" stroke="black" points="0,-410.5 117,-410.5 "/>
<text text-anchor="start" x="8" y="-398.5" font-family="Helvetica,sans-Serif" font-size="10.00">+ Element()</text>
<text text-anchor="start" x="8" y="-387.5" font-family="Helvetica,sans-Serif" font-size="10.00">+ name()</text>
<text text-anchor="start" x="8" y="-376.5" font-family="Helvetica,sans-Serif" font-size="10.00">+ label()</text>
<text text-anchor="start" x="8" y="-365.5" font-family="Helvetica,sans-Serif" font-size="10.00">+ label()</text>
<text text-anchor="start" x="8" y="-354.5" font-family="Helvetica,sans-Serif" font-size="10.00">+ attributes()</text>
<text text-anchor="start" x="8" y="-343.5" font-family="Helvetica,sans-Serif" font-size="10.00">+ AddAttribute()</text>
<text text-anchor="start" x="8" y="-332.5" font-family="Helvetica,sans-Serif" font-size="10.00">+ SetAttribute()</text>
<text text-anchor="start" x="8" y="-321.5" font-family="Helvetica,sans-Serif" font-size="10.00">+ HasAttribute()</text>
<text text-anchor="start" x="8" y="-310.5" font-family="Helvetica,sans-Serif" font-size="10.00">+ GetAttribute()</text>
<text text-anchor="start" x="8" y="-299.5" font-family="Helvetica,sans-Serif" font-size="10.00">+ RemoveAttribute()</text>
<text text-anchor="start" x="8" y="-288.5" font-family="Helvetica,sans-Serif" font-size="10.00"># ~Element()</text>
<text text-anchor="start" x="8" y="-277.5" font-family="Helvetica,sans-Serif" font-size="10.00"># name()</text>
</a>
</g>
</g>
<!-- Node2&#45;&gt;Node1 -->
<g id="edge1" class="edge"><title>Node2&#45;&gt;Node1</title>
<path fill="none" stroke="midnightblue" d="M111.351,-261.472C116.634,-251.773 122.031,-241.865 127.397,-232.013"/>
<polygon fill="none" stroke="midnightblue" points="108.246,-259.856 106.536,-270.312 114.393,-263.205 108.246,-259.856"/>
</g>
<!-- Node3 -->
<g id="node3" class="node"><title>Node3</title>
<g id="a_node3"><a xlink:href="classscram_1_1mef_1_1Usage.xhtml" target="_top" xlink:title="Mixin class for providing usage marks for elements. ">
<polygon fill="white" stroke="black" points="135.5,-320 135.5,-399 243.5,-399 243.5,-320 135.5,-320"/>
<text text-anchor="middle" x="189.5" y="-387" font-family="Helvetica,sans-Serif" font-size="10.00">scram::mef::Usage</text>
<polyline fill="none" stroke="black" points="135.5,-380 243.5,-380 "/>
<text text-anchor="middle" x="189.5" y="-368" font-family="Helvetica,sans-Serif" font-size="10.00"> </text>
<polyline fill="none" stroke="black" points="135.5,-361 243.5,-361 "/>
<text text-anchor="start" x="143.5" y="-349" font-family="Helvetica,sans-Serif" font-size="10.00">+ usage()</text>
<text text-anchor="start" x="143.5" y="-338" font-family="Helvetica,sans-Serif" font-size="10.00">+ usage()</text>
<text text-anchor="start" x="143.5" y="-327" font-family="Helvetica,sans-Serif" font-size="10.00"># ~Usage()</text>
</a>
</g>
</g>
<!-- Node3&#45;&gt;Node1 -->
<g id="edge2" class="edge"><title>Node3&#45;&gt;Node1</title>
<path fill="none" stroke="midnightblue" d="M189.5,-309.77C189.5,-287.688 189.5,-260.553 189.5,-233.719"/>
<polygon fill="none" stroke="midnightblue" points="186,-309.859 189.5,-319.86 193,-309.86 186,-309.859"/>
</g>
<!-- Node4 -->
<g id="node4" class="node"><title>Node4</title>
<polygon fill="white" stroke="#bfbfbf" points="262,-331 262,-388 339,-388 339,-331 262,-331"/>
<text text-anchor="middle" x="300.5" y="-376" font-family="Helvetica,sans-Serif" font-size="10.00">noncopyable</text>
<polyline fill="none" stroke="#bfbfbf" points="262,-369 339,-369 "/>
<text text-anchor="middle" x="300.5" y="-357" font-family="Helvetica,sans-Serif" font-size="10.00"> </text>
<polyline fill="none" stroke="#bfbfbf" points="262,-350 339,-350 "/>
<text text-anchor="middle" x="300.5" y="-338" font-family="Helvetica,sans-Serif" font-size="10.00"> </text>
</g>
<!-- Node4&#45;&gt;Node1 -->
<g id="edge3" class="edge"><title>Node4&#45;&gt;Node1</title>
<path fill="none" stroke="#8b1a1a" d="M283.465,-321.592C272.488,-297.808 257.56,-265.464 242.836,-233.561"/>
<polygon fill="none" stroke="#8b1a1a" points="280.398,-323.299 287.767,-330.912 286.754,-320.365 280.398,-323.299"/>
</g>
</g>
</svg>
