<?xml version="1.0" encoding="UTF-8" standalone="no"?>
<!DOCTYPE svg PUBLIC "-//W3C//DTD SVG 1.1//EN"
 "http://www.w3.org/Graphics/SVG/1.1/DTD/svg11.dtd">
<!-- Generated by graphviz version 2.38.0 (20140413.2041)
 -->
<!-- Title: scram::mef::Expression::IsDeviate Pages: 1 -->
<svg width="511pt" height="411pt"
 viewBox="0.00 0.00 511.00 410.50" xmlns="http://www.w3.org/2000/svg" xmlns:xlink="http://www.w3.org/1999/xlink">
<g id="graph0" class="graph" transform="scale(1 1) rotate(0) translate(4 406.5)">
<title>scram::mef::Expression::IsDeviate</title>
<polygon fill="white" stroke="none" points="-4,4 -4,-406.5 507,-406.5 507,4 -4,4"/>
<!-- Node1 -->
<g id="node1" class="node"><title>Node1</title>
<polygon fill="#bfbfbf" stroke="black" points="0,-169.5 0,-199.5 129,-199.5 129,-169.5 0,-169.5"/>
<text text-anchor="start" x="8" y="-187.5" font-family="Helvetica,sans-Serif" font-size="10.00">scram::mef::Expression</text>
<text text-anchor="middle" x="64.5" y="-176.5" font-family="Helvetica,sans-Serif" font-size="10.00">::IsDeviate</text>
</g>
<!-- Node1&#45;&gt;Node1 -->
<g id="edge14" class="edge"><title>Node1&#45;&gt;Node1</title>
<path fill="none" stroke="midnightblue" d="M35.3592,-209.958C38.976,-214.679 48.6896,-218 64.5,-218 90.4453,-218 99.9721,-209.057 93.0804,-199.659"/>
<polygon fill="midnightblue" stroke="midnightblue" points="38.871,-209.834 35.9196,-199.659 31.8813,-209.454 38.871,-209.834"/>
</g>
<!-- Node2 -->
<g id="node2" class="node"><title>Node2</title>
<g id="a_node2"><a xlink:href="classscram_1_1mef_1_1Expression.xhtml#a179b21e75df522673e6d51b784d10e86" target="_top" xlink:title="scram::mef::Expression\l::interval">
<polygon fill="white" stroke="black" points="165,-169.5 165,-199.5 294,-199.5 294,-169.5 165,-169.5"/>
<text text-anchor="start" x="173" y="-187.5" font-family="Helvetica,sans-Serif" font-size="10.00">scram::mef::Expression</text>
<text text-anchor="middle" x="229.5" y="-176.5" font-family="Helvetica,sans-Serif" font-size="10.00">::interval</text>
</a>
</g>
</g>
<!-- Node1&#45;&gt;Node2 -->
<g id="edge1" class="edge"><title>Node1&#45;&gt;Node2</title>
<path fill="none" stroke="midnightblue" d="M139.688,-184.5C148.141,-184.5 156.701,-184.5 164.998,-184.5"/>
<polygon fill="midnightblue" stroke="midnightblue" points="139.454,-181 129.454,-184.5 139.454,-188 139.454,-181"/>
</g>
<!-- Node3 -->
<g id="node3" class="node"><title>Node3</title>
<g id="a_node3"><a xlink:href="expression_8h.xhtml#aee12bbf581047eae146d411cef0585b9" target="_top" xlink:title="Ensures that expression yields non&#45;negative (&gt;= 0) values. ">
<polygon fill="white" stroke="black" points="330,-365 330,-384 503,-384 503,-365 330,-365"/>
<text text-anchor="middle" x="416.5" y="-372" font-family="Helvetica,sans-Serif" font-size="10.00">scram::mef::EnsureNonNegative</text>
</a>
</g>
</g>
<!-- Node2&#45;&gt;Node3 -->
<g id="edge2" class="edge"><title>Node2&#45;&gt;Node3</title>
<path fill="none" stroke="midnightblue" d="M237.818,-209.351C250.275,-247.11 279.309,-318.444 330,-355.5 335.279,-359.359 341.196,-362.457 347.389,-364.942"/>
<polygon fill="midnightblue" stroke="midnightblue" points="241.1,-208.122 234.74,-199.648 234.427,-210.238 241.1,-208.122"/>
</g>
<!-- Node4 -->
<g id="node4" class="node"><title>Node4</title>
<g id="a_node4"><a xlink:href="expression_8h.xhtml#a051e7ad7c13edf0451ea5db7caf17729" target="_top" xlink:title="Ensures that expression yields positive (&gt; 0) values. ">
<polygon fill="white" stroke="black" points="343,-309 343,-328 490,-328 490,-309 343,-309"/>
<text text-anchor="middle" x="416.5" y="-316" font-family="Helvetica,sans-Serif" font-size="10.00">scram::mef::EnsurePositive</text>
</a>
</g>
</g>
<!-- Node2&#45;&gt;Node4 -->
<g id="edge4" class="edge"><title>Node2&#45;&gt;Node4</title>
<path fill="none" stroke="midnightblue" d="M244.405,-208.209C261.231,-234.71 292.078,-276.866 330,-299.5 336.529,-303.397 343.768,-306.496 351.193,-308.961"/>
<polygon fill="midnightblue" stroke="midnightblue" points="247.285,-206.211 239.049,-199.545 241.331,-209.892 247.285,-206.211"/>
</g>
<!-- Node5 -->
<g id="node5" class="node"><title>Node5</title>
<g id="a_node5"><a xlink:href="expression_8h.xhtml#a958c404b31cdb929075b67827e31f4de" target="_top" xlink:title="Ensures that expression can be used for probability ([0, 1]). ">
<polygon fill="white" stroke="black" points="336.5,-253 336.5,-272 496.5,-272 496.5,-253 336.5,-253"/>
<text text-anchor="middle" x="416.5" y="-260" font-family="Helvetica,sans-Serif" font-size="10.00">scram::mef::EnsureProbability</text>
</a>
</g>
</g>
<!-- Node2&#45;&gt;Node5 -->
<g id="edge6" class="edge"><title>Node2&#45;&gt;Node5</title>
<path fill="none" stroke="midnightblue" d="M259.901,-205.307C279.066,-218 305.063,-233.628 330,-243.5 339.614,-247.306 350.153,-250.431 360.448,-252.967"/>
<polygon fill="midnightblue" stroke="midnightblue" points="261.853,-202.402 251.605,-199.714 257.94,-208.206 261.853,-202.402"/>
</g>
<!-- Node6 -->
<g id="node6" class="node"><title>Node6</title>
<g id="a_node6"><a xlink:href="expression_8h.xhtml#acfed368a4876558582c7b15a0af3330e" target="_top" xlink:title="Ensures that expression values are within the interval. ">
<polygon fill="white" stroke="black" points="347,-197 347,-216 486,-216 486,-197 347,-197"/>
<text text-anchor="middle" x="416.5" y="-204" font-family="Helvetica,sans-Serif" font-size="10.00">scram::mef::EnsureWithin</text>
</a>
</g>
</g>
<!-- Node2&#45;&gt;Node6 -->
<g id="edge8" class="edge"><title>Node2&#45;&gt;Node6</title>
<path fill="none" stroke="midnightblue" d="M304.295,-193.276C318.379,-194.95 333.066,-196.697 346.976,-198.351"/>
<polygon fill="midnightblue" stroke="midnightblue" points="304.51,-189.777 294.167,-192.071 303.683,-196.728 304.51,-189.777"/>
</g>
<!-- Node7 -->
<g id="node7" class="node"><title>Node7</title>
<g id="a_node7"><a xlink:href="classscram_1_1mef_1_1Switch.xhtml#aece696754288dcbdbcda71355da80a19" target="_top" xlink:title="scram::mef::Switch\l::interval">
<polygon fill="white" stroke="black" points="362.5,-147.5 362.5,-177.5 470.5,-177.5 470.5,-147.5 362.5,-147.5"/>
<text text-anchor="start" x="370.5" y="-165.5" font-family="Helvetica,sans-Serif" font-size="10.00">scram::mef::Switch</text>
<text text-anchor="middle" x="416.5" y="-154.5" font-family="Helvetica,sans-Serif" font-size="10.00">::interval</text>
</a>
</g>
</g>
<!-- Node2&#45;&gt;Node7 -->
<g id="edge10" class="edge"><title>Node2&#45;&gt;Node7</title>
<path fill="none" stroke="midnightblue" d="M304.225,-175.733C323.698,-173.417 344.33,-170.964 362.469,-168.806"/>
<polygon fill="midnightblue" stroke="midnightblue" points="303.683,-172.272 294.167,-176.929 304.51,-179.223 303.683,-172.272"/>
</g>
<!-- Node8 -->
<g id="node8" class="node"><title>Node8</title>
<g id="a_node8"><a xlink:href="classscram_1_1mef_1_1LognormalDeviate.xhtml#a18f3499d5d98d1af462db56d07069997" target="_top" xlink:title="scram::mef::LognormalDeviate\l::value">
<polygon fill="white" stroke="black" points="334,-98.5 334,-128.5 499,-128.5 499,-98.5 334,-98.5"/>
<text text-anchor="start" x="342" y="-116.5" font-family="Helvetica,sans-Serif" font-size="10.00">scram::mef::LognormalDeviate</text>
<text text-anchor="middle" x="416.5" y="-105.5" font-family="Helvetica,sans-Serif" font-size="10.00">::value</text>
</a>
</g>
</g>
<!-- Node2&#45;&gt;Node8 -->
<g id="edge11" class="edge"><title>Node2&#45;&gt;Node8</title>
<path fill="none" stroke="midnightblue" d="M269.172,-164.993C287.363,-156.241 309.515,-146.182 330,-138.5 339.412,-134.97 349.557,-131.622 359.456,-128.589"/>
<polygon fill="midnightblue" stroke="midnightblue" points="267.511,-161.908 260.05,-169.431 270.574,-168.203 267.511,-161.908"/>
</g>
<!-- Node9 -->
<g id="node9" class="node"><title>Node9</title>
<g id="a_node9"><a xlink:href="classscram_1_1mef_1_1GammaDeviate.xhtml#aac9dd9e446203c28033a32385a68570c" target="_top" xlink:title="scram::mef::GammaDeviate\l::value">
<polygon fill="white" stroke="black" points="340,-49.5 340,-79.5 493,-79.5 493,-49.5 340,-49.5"/>
<text text-anchor="start" x="348" y="-67.5" font-family="Helvetica,sans-Serif" font-size="10.00">scram::mef::GammaDeviate</text>
<text text-anchor="middle" x="416.5" y="-56.5" font-family="Helvetica,sans-Serif" font-size="10.00">::value</text>
</a>
</g>
</g>
<!-- Node2&#45;&gt;Node9 -->
<g id="edge12" class="edge"><title>Node2&#45;&gt;Node9</title>
<path fill="none" stroke="midnightblue" d="M248.768,-161.618C267.137,-140.061 297.349,-108.341 330,-89.5 336.698,-85.6352 344.04,-82.3265 351.521,-79.5039"/>
<polygon fill="midnightblue" stroke="midnightblue" points="246.048,-159.414 242.327,-169.334 251.422,-163.9 246.048,-159.414"/>
</g>
<!-- Node10 -->
<g id="node10" class="node"><title>Node10</title>
<g id="a_node10"><a xlink:href="classscram_1_1mef_1_1BetaDeviate.xhtml#a23cf22ef291bb47601ddefd7640fe93a" target="_top" xlink:title="scram::mef::BetaDeviate\l::value">
<polygon fill="white" stroke="black" points="348,-0.5 348,-30.5 485,-30.5 485,-0.5 348,-0.5"/>
<text text-anchor="start" x="356" y="-18.5" font-family="Helvetica,sans-Serif" font-size="10.00">scram::mef::BetaDeviate</text>
<text text-anchor="middle" x="416.5" y="-7.5" font-family="Helvetica,sans-Serif" font-size="10.00">::value</text>
</a>
</g>
</g>
<!-- Node2&#45;&gt;Node10 -->
<g id="edge13" class="edge"><title>Node2&#45;&gt;Node10</title>
<path fill="none" stroke="midnightblue" d="M240.922,-160.17C255.935,-128.009 286.684,-71.7723 330,-40.5 335.392,-36.6074 341.384,-33.3171 347.624,-30.5366"/>
<polygon fill="midnightblue" stroke="midnightblue" points="237.713,-158.771 236.771,-169.324 244.088,-161.662 237.713,-158.771"/>
</g>
<!-- Node3&#45;&gt;Node3 -->
<g id="edge3" class="edge"><title>Node3&#45;&gt;Node3</title>
<path fill="none" stroke="midnightblue" d="M381.643,-392.391C382.153,-398.041 393.772,-402.5 416.5,-402.5 449.559,-402.5 459.115,-393.065 445.168,-384.257"/>
<polygon fill="midnightblue" stroke="midnightblue" points="384.562,-394.335 387.832,-384.257 378.991,-390.096 384.562,-394.335"/>
</g>
<!-- Node4&#45;&gt;Node4 -->
<g id="edge5" class="edge"><title>Node4&#45;&gt;Node4</title>
<path fill="none" stroke="midnightblue" d="M381.643,-336.391C382.153,-342.041 393.772,-346.5 416.5,-346.5 449.559,-346.5 459.115,-337.065 445.168,-328.257"/>
<polygon fill="midnightblue" stroke="midnightblue" points="384.562,-338.335 387.832,-328.257 378.991,-334.096 384.562,-338.335"/>
</g>
<!-- Node5&#45;&gt;Node5 -->
<g id="edge7" class="edge"><title>Node5&#45;&gt;Node5</title>
<path fill="none" stroke="midnightblue" d="M381.643,-280.391C382.153,-286.041 393.772,-290.5 416.5,-290.5 449.559,-290.5 459.115,-281.065 445.168,-272.257"/>
<polygon fill="midnightblue" stroke="midnightblue" points="384.562,-282.335 387.832,-272.257 378.991,-278.096 384.562,-282.335"/>
</g>
<!-- Node6&#45;&gt;Node6 -->
<g id="edge9" class="edge"><title>Node6&#45;&gt;Node6</title>
<path fill="none" stroke="midnightblue" d="M381.643,-224.391C382.153,-230.041 393.772,-234.5 416.5,-234.5 449.559,-234.5 459.115,-225.065 445.168,-216.257"/>
<polygon fill="midnightblue" stroke="midnightblue" points="384.562,-226.335 387.832,-216.257 378.991,-222.096 384.562,-226.335"/>
</g>
</g>
</svg>
