<?xml version="1.0" encoding="UTF-8" standalone="no"?>
<!DOCTYPE svg PUBLIC "-//W3C//DTD SVG 1.1//EN"
 "http://www.w3.org/Graphics/SVG/1.1/DTD/svg11.dtd">
<!-- Generated by graphviz version 2.38.0 (20140413.2041)
 -->
<!-- Title: scram::core::Zbdd::Analyze Pages: 1 -->
<svg width="645pt" height="608pt"
 viewBox="0.00 0.00 645.00 608.13" xmlns="http://www.w3.org/2000/svg" xmlns:xlink="http://www.w3.org/1999/xlink">
<g id="graph0" class="graph" transform="scale(1 1) rotate(0) translate(4 604.125)">
<title>scram::core::Zbdd::Analyze</title>
<polygon fill="white" stroke="none" points="-4,4 -4,-604.125 641,-604.125 641,4 -4,4"/>
<!-- Node1 -->
<g id="node1" class="node"><title>Node1</title>
<polygon fill="#bfbfbf" stroke="black" points="0,-455.625 0,-485.625 111,-485.625 111,-455.625 0,-455.625"/>
<text text-anchor="start" x="8" y="-473.625" font-family="Helvetica,sans-Serif" font-size="10.00">scram::core::Zbdd::</text>
<text text-anchor="middle" x="55.5" y="-462.625" font-family="Helvetica,sans-Serif" font-size="10.00">Analyze</text>
</g>
<!-- Node2 -->
<g id="node2" class="node"><title>Node2</title>
<g id="a_node2"><a xlink:href="classscram_1_1core_1_1Zbdd.xhtml#a3e6359ba152137912cbafc500c2e6430" target="_top" xlink:title="Freezes the graph. ">
<polygon fill="white" stroke="black" points="151,-569.625 151,-599.625 262,-599.625 262,-569.625 151,-569.625"/>
<text text-anchor="start" x="159" y="-587.625" font-family="Helvetica,sans-Serif" font-size="10.00">scram::core::Zbdd::</text>
<text text-anchor="middle" x="206.5" y="-576.625" font-family="Helvetica,sans-Serif" font-size="10.00">Freeze</text>
</a>
</g>
</g>
<!-- Node1&#45;&gt;Node2 -->
<g id="edge1" class="edge"><title>Node1&#45;&gt;Node2</title>
<path fill="none" stroke="midnightblue" d="M68.5198,-485.849C84.612,-505.388 114.876,-539.304 147,-560.625 149.161,-562.06 151.421,-563.433 153.744,-564.746"/>
<polygon fill="midnightblue" stroke="midnightblue" points="152.446,-568.015 162.936,-569.502 155.663,-561.798 152.446,-568.015"/>
</g>
<!-- Node4 -->
<g id="node4" class="node"><title>Node4</title>
<g id="a_node4"><a xlink:href="classscram_1_1core_1_1Settings.xhtml#a0e43ec0f017d23a4fa4e376c4060d380" target="_top" xlink:title="scram::core::Settings\l::limit_order">
<polygon fill="white" stroke="black" points="147,-520.625 147,-550.625 266,-550.625 266,-520.625 147,-520.625"/>
<text text-anchor="start" x="155" y="-538.625" font-family="Helvetica,sans-Serif" font-size="10.00">scram::core::Settings</text>
<text text-anchor="middle" x="206.5" y="-527.625" font-family="Helvetica,sans-Serif" font-size="10.00">::limit_order</text>
</a>
</g>
</g>
<!-- Node1&#45;&gt;Node4 -->
<g id="edge3" class="edge"><title>Node1&#45;&gt;Node4</title>
<path fill="none" stroke="midnightblue" d="M91.0581,-485.701C112.045,-494.856 139.037,-506.631 161.535,-516.446"/>
<polygon fill="midnightblue" stroke="midnightblue" points="160.306,-519.728 170.872,-520.519 163.105,-513.312 160.306,-519.728"/>
</g>
<!-- Node5 -->
<g id="node5" class="node"><title>Node5</title>
<g id="a_node5"><a xlink:href="classscram_1_1core_1_1SetNode.xhtml#a2d7f99792b82961df2e5ecfcd735bb5f" target="_top" xlink:title="scram::core::SetNode\l::max_set_order">
<polygon fill="white" stroke="black" points="496,-429.625 496,-459.625 618,-459.625 618,-429.625 496,-429.625"/>
<text text-anchor="start" x="504" y="-447.625" font-family="Helvetica,sans-Serif" font-size="10.00">scram::core::SetNode</text>
<text text-anchor="middle" x="557" y="-436.625" font-family="Helvetica,sans-Serif" font-size="10.00">::max_set_order</text>
</a>
</g>
</g>
<!-- Node1&#45;&gt;Node5 -->
<g id="edge4" class="edge"><title>Node1&#45;&gt;Node5</title>
<path fill="none" stroke="midnightblue" d="M111.197,-475.265C185.99,-480.618 324.224,-486.975 441,-472.625 458.816,-470.436 477.864,-466.48 495.228,-462.219"/>
<polygon fill="midnightblue" stroke="midnightblue" points="496.401,-465.533 505.236,-459.686 494.683,-458.747 496.401,-465.533"/>
</g>
<!-- Node6 -->
<g id="node6" class="node"><title>Node6</title>
<g id="a_node6"><a xlink:href="classscram_1_1core_1_1SetNode.xhtml#a88d05af2b9f4f08b7bc66a31c2b9e249" target="_top" xlink:title="scram::core::SetNode\l::minimal">
<polygon fill="white" stroke="black" points="310.5,-432.625 310.5,-462.625 432.5,-462.625 432.5,-432.625 310.5,-432.625"/>
<text text-anchor="start" x="318.5" y="-450.625" font-family="Helvetica,sans-Serif" font-size="10.00">scram::core::SetNode</text>
<text text-anchor="middle" x="371.5" y="-439.625" font-family="Helvetica,sans-Serif" font-size="10.00">::minimal</text>
</a>
</g>
</g>
<!-- Node1&#45;&gt;Node6 -->
<g id="edge5" class="edge"><title>Node1&#45;&gt;Node6</title>
<path fill="none" stroke="midnightblue" d="M111.195,-466.619C163.657,-462.776 243.113,-456.956 300.239,-452.772"/>
<polygon fill="midnightblue" stroke="midnightblue" points="300.559,-456.258 310.277,-452.037 300.048,-449.277 300.559,-456.258"/>
</g>
<!-- Node7 -->
<g id="node7" class="node"><title>Node7</title>
<g id="a_node7"><a xlink:href="classscram_1_1core_1_1Zbdd.xhtml#a3dbb8ef5da2882daf6c39e9724eae459" target="_top" xlink:title="Removes subsets in ZBDD. ">
<polygon fill="white" stroke="black" points="151,-232.625 151,-262.625 262,-262.625 262,-232.625 151,-232.625"/>
<text text-anchor="start" x="159" y="-250.625" font-family="Helvetica,sans-Serif" font-size="10.00">scram::core::Zbdd::</text>
<text text-anchor="middle" x="206.5" y="-239.625" font-family="Helvetica,sans-Serif" font-size="10.00">Minimize</text>
</a>
</g>
</g>
<!-- Node1&#45;&gt;Node7 -->
<g id="edge6" class="edge"><title>Node1&#45;&gt;Node7</title>
<path fill="none" stroke="midnightblue" d="M66.7414,-455.298C92.3217,-417.013 159.149,-316.996 189.766,-271.173"/>
<polygon fill="midnightblue" stroke="midnightblue" points="192.739,-273.025 195.384,-262.765 186.918,-269.136 192.739,-273.025"/>
</g>
<!-- Node9 -->
<g id="node9" class="node"><title>Node9</title>
<g id="a_node9"><a xlink:href="structscram_1_1core_1_1IntrusivePtrCast.xhtml#af153c12dc6133b7d9f9b7a57bba29f1d" target="_top" xlink:title="scram::core::IntrusivePtr\lCast\&lt; T, Terminal\&lt; T \&gt; \&gt;::Ref">
<polygon fill="white" stroke="black" points="477,-232.625 477,-262.625 637,-262.625 637,-232.625 477,-232.625"/>
<text text-anchor="start" x="485" y="-250.625" font-family="Helvetica,sans-Serif" font-size="10.00">scram::core::IntrusivePtr</text>
<text text-anchor="middle" x="557" y="-239.625" font-family="Helvetica,sans-Serif" font-size="10.00">Cast&lt; T, Terminal&lt; T &gt; &gt;::Ref</text>
</a>
</g>
</g>
<!-- Node1&#45;&gt;Node9 -->
<g id="edge20" class="edge"><title>Node1&#45;&gt;Node9</title>
<path fill="none" stroke="midnightblue" d="M58.6918,-455.484C69.4681,-387.539 123.716,-110.28 302,-22.6253 357.44,4.63182 388.305,9.62032 441,-22.6253 459.885,-34.1819 520.501,-167.433 545.286,-223.258"/>
<polygon fill="midnightblue" stroke="midnightblue" points="542.099,-224.705 549.346,-232.433 548.5,-221.872 542.099,-224.705"/>
</g>
<!-- Node3 -->
<g id="node3" class="node"><title>Node3</title>
<g id="a_node3"><a xlink:href="classscram_1_1core_1_1Zbdd.xhtml#a7c1129acd9810b5b9ff4952f587ce490" target="_top" xlink:title="Clears all memoization tables. ">
<polygon fill="white" stroke="black" points="316,-569.625 316,-599.625 427,-599.625 427,-569.625 316,-569.625"/>
<text text-anchor="start" x="324" y="-587.625" font-family="Helvetica,sans-Serif" font-size="10.00">scram::core::Zbdd::</text>
<text text-anchor="middle" x="371.5" y="-576.625" font-family="Helvetica,sans-Serif" font-size="10.00">ClearTables</text>
</a>
</g>
</g>
<!-- Node2&#45;&gt;Node3 -->
<g id="edge2" class="edge"><title>Node2&#45;&gt;Node3</title>
<path fill="none" stroke="midnightblue" d="M262.23,-584.625C276.147,-584.625 291.236,-584.625 305.605,-584.625"/>
<polygon fill="midnightblue" stroke="midnightblue" points="305.914,-588.125 315.914,-584.625 305.914,-581.125 305.914,-588.125"/>
</g>
<!-- Node7&#45;&gt;Node6 -->
<g id="edge13" class="edge"><title>Node7&#45;&gt;Node6</title>
<path fill="none" stroke="midnightblue" d="M211.52,-262.735C221.259,-296.48 249.286,-378.543 302,-423.625 303.508,-424.915 305.09,-426.137 306.731,-427.295"/>
<polygon fill="midnightblue" stroke="midnightblue" points="305,-430.338 315.358,-432.563 308.647,-424.364 305,-430.338"/>
</g>
<!-- Node8 -->
<g id="node8" class="node"><title>Node8</title>
<g id="a_node8"><a xlink:href="structscram_1_1core_1_1IntrusivePtrCast.xhtml#adc53e5b89cace18e05bac95316da7d91" target="_top" xlink:title="scram::core::IntrusivePtr\lCast\&lt; SetNode \&gt;::Ptr">
<polygon fill="white" stroke="black" points="304.5,-81.6253 304.5,-111.625 438.5,-111.625 438.5,-81.6253 304.5,-81.6253"/>
<text text-anchor="start" x="312.5" y="-99.6253" font-family="Helvetica,sans-Serif" font-size="10.00">scram::core::IntrusivePtr</text>
<text text-anchor="middle" x="371.5" y="-88.6253" font-family="Helvetica,sans-Serif" font-size="10.00">Cast&lt; SetNode &gt;::Ptr</text>
</a>
</g>
</g>
<!-- Node7&#45;&gt;Node8 -->
<g id="edge7" class="edge"><title>Node7&#45;&gt;Node8</title>
<path fill="none" stroke="midnightblue" d="M214.931,-232.405C228.588,-205.955 260.153,-151.396 302,-120.625 304.043,-119.123 306.188,-117.709 308.407,-116.377"/>
<polygon fill="midnightblue" stroke="midnightblue" points="310.094,-119.444 317.268,-111.647 306.798,-113.269 310.094,-119.444"/>
</g>
<!-- Node7&#45;&gt;Node9 -->
<g id="edge8" class="edge"><title>Node7&#45;&gt;Node9</title>
<path fill="none" stroke="midnightblue" d="M262.336,-242.55C317.104,-240.676 402.195,-240.375 466.712,-241.646"/>
<polygon fill="midnightblue" stroke="midnightblue" points="466.809,-245.149 476.882,-241.864 466.959,-238.151 466.809,-245.149"/>
</g>
<!-- Node7&#45;&gt;Node9 -->
<g id="edge12" class="edge"><title>Node7&#45;&gt;Node9</title>
<path fill="none" stroke="midnightblue" d="M262.336,-252.701C317.104,-254.575 402.195,-254.876 466.712,-253.605"/>
<polygon fill="midnightblue" stroke="midnightblue" points="466.959,-257.1 476.882,-253.387 466.809,-250.102 466.959,-257.1"/>
</g>
<!-- Node10 -->
<g id="node10" class="node"><title>Node10</title>
<g id="a_node10"><a xlink:href="classscram_1_1core_1_1Zbdd.xhtml#a42af18229ba2e80201bc0fdac07b7091" target="_top" xlink:title="Finds or adds a unique SetNode in the ZBDD. ">
<polygon fill="white" stroke="black" points="316,-383.625 316,-413.625 427,-413.625 427,-383.625 316,-383.625"/>
<text text-anchor="start" x="324" y="-401.625" font-family="Helvetica,sans-Serif" font-size="10.00">scram::core::Zbdd::</text>
<text text-anchor="middle" x="371.5" y="-390.625" font-family="Helvetica,sans-Serif" font-size="10.00">FindOrAddVertex</text>
</a>
</g>
</g>
<!-- Node7&#45;&gt;Node10 -->
<g id="edge9" class="edge"><title>Node7&#45;&gt;Node10</title>
<path fill="none" stroke="midnightblue" d="M214.931,-262.846C228.588,-289.296 260.153,-343.854 302,-374.625 304.043,-376.128 306.188,-377.542 308.407,-378.873"/>
<polygon fill="midnightblue" stroke="midnightblue" points="306.798,-381.982 317.268,-383.604 310.094,-375.807 306.798,-381.982"/>
</g>
<!-- Node11 -->
<g id="node11" class="node"><title>Node11</title>
<g id="a_node11"><a xlink:href="classscram_1_1core_1_1Terminal.xhtml#a7a25b0b40498f4876571a5dac4e724c3" target="_top" xlink:title="scram::core::Terminal\l::value">
<polygon fill="white" stroke="black" points="312,-32.6253 312,-62.6253 431,-62.6253 431,-32.6253 312,-32.6253"/>
<text text-anchor="start" x="320" y="-50.6253" font-family="Helvetica,sans-Serif" font-size="10.00">scram::core::Terminal</text>
<text text-anchor="middle" x="371.5" y="-39.6253" font-family="Helvetica,sans-Serif" font-size="10.00">::value</text>
</a>
</g>
</g>
<!-- Node7&#45;&gt;Node11 -->
<g id="edge14" class="edge"><title>Node7&#45;&gt;Node11</title>
<path fill="none" stroke="midnightblue" d="M211.52,-232.516C221.259,-198.771 249.286,-116.708 302,-71.6253 303.508,-70.3354 305.09,-69.1133 306.731,-67.9557"/>
<polygon fill="midnightblue" stroke="midnightblue" points="308.647,-70.8866 315.358,-62.6881 305,-64.9122 308.647,-70.8866"/>
</g>
<!-- Node13 -->
<g id="node13" class="node"><title>Node13</title>
<g id="a_node13"><a xlink:href="classscram_1_1core_1_1Settings.xhtml#ae64f362fceb44402e101140dfc1725ba" target="_top" xlink:title="scram::core::Settings\l::prime_implicants">
<polygon fill="white" stroke="black" points="312,-334.625 312,-364.625 431,-364.625 431,-334.625 312,-334.625"/>
<text text-anchor="start" x="320" y="-352.625" font-family="Helvetica,sans-Serif" font-size="10.00">scram::core::Settings</text>
<text text-anchor="middle" x="371.5" y="-341.625" font-family="Helvetica,sans-Serif" font-size="10.00">::prime_implicants</text>
</a>
</g>
</g>
<!-- Node7&#45;&gt;Node13 -->
<g id="edge16" class="edge"><title>Node7&#45;&gt;Node13</title>
<path fill="none" stroke="midnightblue" d="M222.287,-262.716C239.901,-279.963 270.871,-308.069 302,-325.625 305.056,-327.349 308.258,-328.982 311.537,-330.522"/>
<polygon fill="midnightblue" stroke="midnightblue" points="310.363,-333.829 320.929,-334.622 313.164,-327.414 310.363,-333.829"/>
</g>
<!-- Node14 -->
<g id="node14" class="node"><title>Node14</title>
<g id="a_node14"><a xlink:href="classscram_1_1core_1_1NonTerminal.xhtml#aeeaafd82ae5890a7ec3462c68ffc8628" target="_top" xlink:title="scram::core::NonTerminal\l::index">
<polygon fill="white" stroke="black" points="302,-285.625 302,-315.625 441,-315.625 441,-285.625 302,-285.625"/>
<text text-anchor="start" x="310" y="-303.625" font-family="Helvetica,sans-Serif" font-size="10.00">scram::core::NonTerminal</text>
<text text-anchor="middle" x="371.5" y="-292.625" font-family="Helvetica,sans-Serif" font-size="10.00">::index</text>
</a>
</g>
</g>
<!-- Node7&#45;&gt;Node14 -->
<g id="edge17" class="edge"><title>Node7&#45;&gt;Node14</title>
<path fill="none" stroke="midnightblue" d="M253.773,-262.671C272.7,-268.825 294.766,-276 314.586,-282.445"/>
<polygon fill="midnightblue" stroke="midnightblue" points="313.519,-285.778 324.111,-285.542 315.683,-279.121 313.519,-285.778"/>
</g>
<!-- Node15 -->
<g id="node15" class="node"><title>Node15</title>
<g id="a_node15"><a xlink:href="classscram_1_1core_1_1NonTerminal.xhtml#a9230422e92d086c34f67bcb864bfc8a9" target="_top" xlink:title="scram::core::NonTerminal\l::module">
<polygon fill="white" stroke="black" points="302,-179.625 302,-209.625 441,-209.625 441,-179.625 302,-179.625"/>
<text text-anchor="start" x="310" y="-197.625" font-family="Helvetica,sans-Serif" font-size="10.00">scram::core::NonTerminal</text>
<text text-anchor="middle" x="371.5" y="-186.625" font-family="Helvetica,sans-Serif" font-size="10.00">::module</text>
</a>
</g>
</g>
<!-- Node7&#45;&gt;Node15 -->
<g id="edge18" class="edge"><title>Node7&#45;&gt;Node15</title>
<path fill="none" stroke="midnightblue" d="M253.773,-232.579C272.7,-226.425 294.766,-219.25 314.586,-212.806"/>
<polygon fill="midnightblue" stroke="midnightblue" points="315.683,-216.13 324.111,-209.709 313.519,-209.473 315.683,-216.13"/>
</g>
<!-- Node16 -->
<g id="node16" class="node"><title>Node16</title>
<g id="a_node16"><a xlink:href="classscram_1_1core_1_1NonTerminal.xhtml#adcdd0c5114aa6a1d32a03928adc07c49" target="_top" xlink:title="scram::core::NonTerminal\l::coherent">
<polygon fill="white" stroke="black" points="302,-130.625 302,-160.625 441,-160.625 441,-130.625 302,-130.625"/>
<text text-anchor="start" x="310" y="-148.625" font-family="Helvetica,sans-Serif" font-size="10.00">scram::core::NonTerminal</text>
<text text-anchor="middle" x="371.5" y="-137.625" font-family="Helvetica,sans-Serif" font-size="10.00">::coherent</text>
</a>
</g>
</g>
<!-- Node7&#45;&gt;Node16 -->
<g id="edge19" class="edge"><title>Node7&#45;&gt;Node16</title>
<path fill="none" stroke="midnightblue" d="M222.287,-232.535C239.901,-215.287 270.871,-187.182 302,-169.625 305.056,-167.902 308.258,-166.269 311.537,-164.728"/>
<polygon fill="midnightblue" stroke="midnightblue" points="313.164,-167.837 320.929,-160.628 310.363,-161.422 313.164,-167.837"/>
</g>
<!-- Node10&#45;&gt;Node5 -->
<g id="edge11" class="edge"><title>Node10&#45;&gt;Node5</title>
<path fill="none" stroke="midnightblue" d="M427.059,-412.302C445.586,-416.947 466.549,-422.202 486.105,-427.104"/>
<polygon fill="midnightblue" stroke="midnightblue" points="485.328,-430.517 495.879,-429.554 487.03,-423.727 485.328,-430.517"/>
</g>
<!-- Node10&#45;&gt;Node9 -->
<g id="edge10" class="edge"><title>Node10&#45;&gt;Node9</title>
<path fill="none" stroke="midnightblue" d="M424.341,-383.624C430.171,-381.027 435.856,-378.04 441,-374.625 483.265,-346.572 520.255,-299.534 540.24,-271.255"/>
<polygon fill="midnightblue" stroke="midnightblue" points="543.294,-272.993 546.117,-262.781 537.542,-269.004 543.294,-272.993"/>
</g>
<!-- Node12 -->
<g id="node12" class="node"><title>Node12</title>
<g id="a_node12"><a xlink:href="classscram_1_1core_1_1Vertex.xhtml#a8a4a6e9871c7b80b9951fea57617d438" target="_top" xlink:title="scram::core::Vertex::id">
<polygon fill="white" stroke="black" points="494.5,-38.1253 494.5,-57.1253 619.5,-57.1253 619.5,-38.1253 494.5,-38.1253"/>
<text text-anchor="middle" x="557" y="-45.1253" font-family="Helvetica,sans-Serif" font-size="10.00">scram::core::Vertex::id</text>
</a>
</g>
</g>
<!-- Node11&#45;&gt;Node12 -->
<g id="edge15" class="edge"><title>Node11&#45;&gt;Node12</title>
<path fill="none" stroke="midnightblue" d="M431.065,-47.6253C447.9,-47.6253 466.457,-47.6253 484.002,-47.6253"/>
<polygon fill="midnightblue" stroke="midnightblue" points="484.195,-51.1254 494.195,-47.6253 484.195,-44.1254 484.195,-51.1254"/>
</g>
</g>
</svg>
