<?xml version="1.0" encoding="UTF-8" standalone="no"?>
<!DOCTYPE svg PUBLIC "-//W3C//DTD SVG 1.1//EN"
 "http://www.w3.org/Graphics/SVG/1.1/DTD/svg11.dtd">
<!-- Generated by graphviz version 2.38.0 (20140413.2041)
 -->
<!-- Title: scram::mef::HouseEvent::state Pages: 1 -->
<svg width="344pt" height="145pt"
 viewBox="0.00 0.00 344.00 144.50" xmlns="http://www.w3.org/2000/svg" xmlns:xlink="http://www.w3.org/1999/xlink">
<g id="graph0" class="graph" transform="scale(1 1) rotate(0) translate(4 140.5)">
<title>scram::mef::HouseEvent::state</title>
<polygon fill="white" stroke="none" points="-4,4 -4,-140.5 340,-140.5 340,4 -4,4"/>
<!-- Node1 -->
<g id="node1" class="node"><title>Node1</title>
<polygon fill="#bfbfbf" stroke="black" points="0,-57 0,-87 135,-87 135,-57 0,-57"/>
<text text-anchor="start" x="8" y="-75" font-family="Helvetica,sans-Serif" font-size="10.00">scram::mef::HouseEvent</text>
<text text-anchor="middle" x="67.5" y="-64" font-family="Helvetica,sans-Serif" font-size="10.00">::state</text>
</g>
<!-- Node2 -->
<g id="node2" class="node"><title>Node2</title>
<g id="a_node2"><a xlink:href="classscram_1_1core_1_1Pdag.xhtml#a211c8fff58a63dcbd4b56f107eb0024d" target="_top" xlink:title="Specialization for HouseEvent arguments. ">
<polygon fill="white" stroke="black" points="198.5,-106 198.5,-136 308.5,-136 308.5,-106 198.5,-106"/>
<text text-anchor="start" x="206.5" y="-124" font-family="Helvetica,sans-Serif" font-size="10.00">scram::core::Pdag::</text>
<text text-anchor="middle" x="253.5" y="-113" font-family="Helvetica,sans-Serif" font-size="10.00">AddArg</text>
</a>
</g>
</g>
<!-- Node1&#45;&gt;Node2 -->
<g id="edge1" class="edge"><title>Node1&#45;&gt;Node2</title>
<path fill="none" stroke="midnightblue" d="M134.715,-89.6335C155.601,-95.1955 178.416,-101.271 198.356,-106.581"/>
<polygon fill="midnightblue" stroke="midnightblue" points="135.52,-86.2259 124.957,-87.0346 133.719,-92.9902 135.52,-86.2259"/>
</g>
<!-- Node3 -->
<g id="node3" class="node"><title>Node3</title>
<g id="a_node3"><a xlink:href="classscram_1_1core_1_1EventTreeAnalysis.xhtml#a3e3404417cbdcf92474e5653ec24f936" target="_top" xlink:title="scram::core::EventTreeAnalysis\l::EventTreeAnalysis">
<polygon fill="white" stroke="black" points="171,-57 171,-87 336,-87 336,-57 171,-57"/>
<text text-anchor="start" x="179" y="-75" font-family="Helvetica,sans-Serif" font-size="10.00">scram::core::EventTreeAnalysis</text>
<text text-anchor="middle" x="253.5" y="-64" font-family="Helvetica,sans-Serif" font-size="10.00">::EventTreeAnalysis</text>
</a>
</g>
</g>
<!-- Node1&#45;&gt;Node3 -->
<g id="edge2" class="edge"><title>Node1&#45;&gt;Node3</title>
<path fill="none" stroke="midnightblue" d="M145.393,-72C153.847,-72 162.475,-72 170.982,-72"/>
<polygon fill="midnightblue" stroke="midnightblue" points="145.188,-68.5001 135.188,-72 145.188,-75.5001 145.188,-68.5001"/>
</g>
<!-- Node4 -->
<g id="node4" class="node"><title>Node4</title>
<g id="a_node4"><a xlink:href="serialization_8cc.xhtml#a83f7058a5caad9ec3ffb5fd6c7d7b8f6" target="_top" xlink:title="Convenience function for serialization into a file. ">
<polygon fill="white" stroke="black" points="194.5,-0.5 194.5,-19.5 312.5,-19.5 312.5,-0.5 194.5,-0.5"/>
<text text-anchor="middle" x="253.5" y="-7.5" font-family="Helvetica,sans-Serif" font-size="10.00">scram::mef::Serialize</text>
</a>
</g>
</g>
<!-- Node1&#45;&gt;Node4 -->
<g id="edge3" class="edge"><title>Node1&#45;&gt;Node4</title>
<path fill="none" stroke="midnightblue" d="M122.635,-53.759C155.891,-42.5529 197.145,-28.6523 224.112,-19.5654"/>
<polygon fill="midnightblue" stroke="midnightblue" points="121.4,-50.4815 113.041,-56.9915 123.635,-57.1151 121.4,-50.4815"/>
</g>
<!-- Node4&#45;&gt;Node4 -->
<g id="edge4" class="edge"><title>Node4&#45;&gt;Node4</title>
<path fill="none" stroke="midnightblue" d="M218.643,-27.8913C219.153,-33.5406 230.772,-38 253.5,-38 286.559,-38 296.115,-28.5653 282.168,-19.7571"/>
<polygon fill="midnightblue" stroke="midnightblue" points="221.562,-29.8346 224.832,-19.7571 215.991,-25.5958 221.562,-29.8346"/>
</g>
</g>
</svg>
