<?xml version="1.0" encoding="UTF-8" standalone="no"?>
<!DOCTYPE svg PUBLIC "-//W3C//DTD SVG 1.1//EN"
 "http://www.w3.org/Graphics/SVG/1.1/DTD/svg11.dtd">
<!-- Generated by graphviz version 2.38.0 (20140413.2041)
 -->
<!-- Title: scram::mef::RandomDeviate Pages: 1 -->
<!--zoomable 491 -->
<svg id="main" version="1.1" xmlns="http://www.w3.org/2000/svg" xmlns:xlink="http://www.w3.org/1999/xlink" xml:space="preserve" onload="init(evt)">
<style type="text/css"><![CDATA[
.edge:hover path { stroke: red; }
.edge:hover polygon { stroke: red; fill: red; }
]]></style>
<script type="text/javascript"><![CDATA[
var edges = document.getElementsByTagName('g');
if (edges && edges.length) {
  for (var i=0;i<edges.length;i++) {
    if (edges[i].id.substr(0,4)=='edge') {
      edges[i].setAttribute('class','edge');
    }
  }
}
]]></script>
        <defs>
                <circle id="rim" cx="0" cy="0" r="7"/>
                <circle id="rim2" cx="0" cy="0" r="3.5"/>
                <g id="zoomPlus">
                        <use xlink:href="#rim" fill="#404040">
                                <set attributeName="fill" to="#808080" begin="zoomplus.mouseover" end="zoomplus.mouseout"/>
                        </use>
                        <path d="M-4,0h8M0,-4v8" fill="none" stroke="white" stroke-width="1.5" pointer-events="none"/>
                </g>
                <g id="zoomMin">
                        <use xlink:href="#rim" fill="#404040">
                                <set attributeName="fill" to="#808080" begin="zoomminus.mouseover" end="zoomminus.mouseout"/>
                        </use>
                        <path d="M-4,0h8" fill="none" stroke="white" stroke-width="1.5" pointer-events="none"/>
                </g>
                <g id="dirArrow">
                        <path fill="none" stroke="white" stroke-width="1.5" d="M0,-3.0v7 M-2.5,-0.5L0,-3.0L2.5,-0.5"/>
                </g>
               <g id="resetDef">
                       <use xlink:href="#rim2" fill="#404040">
                               <set attributeName="fill" to="#808080" begin="reset.mouseover" end="reset.mouseout"/>
                       </use>
               </g>
        </defs>

<script type="text/javascript">
var viewWidth = 984;
var viewHeight = 491;
var sectionId = 'dynsection-0';
</script>
<script xlink:href="svgpan.js"/>
<svg id="graph" class="graph">
<g id="viewport">
<title>scram::mef::RandomDeviate</title>
<polygon fill="white" stroke="none" points="-4,4 -4,-487 979.5,-487 979.5,4 -4,4"/>
<!-- Node1 -->
<g id="node1" class="node"><title>Node1</title>
<polygon fill="#bfbfbf" stroke="black" points="395.5,-138.5 395.5,-195.5 549.5,-195.5 549.5,-138.5 395.5,-138.5"/>
<text text-anchor="middle" x="472.5" y="-183.5" font-family="Helvetica,sans-Serif" font-size="10.00">scram::mef::RandomDeviate</text>
<polyline fill="none" stroke="black" points="395.5,-176.5 549.5,-176.5 "/>
<text text-anchor="middle" x="472.5" y="-164.5" font-family="Helvetica,sans-Serif" font-size="10.00"> </text>
<polyline fill="none" stroke="black" points="395.5,-157.5 549.5,-157.5 "/>
<text text-anchor="start" x="403.5" y="-145.5" font-family="Helvetica,sans-Serif" font-size="10.00">+ IsDeviate()</text>
</g>
<!-- Node4 -->
<g id="node4" class="node"><title>Node4</title>
<g id="a_node4"><a xlink:href="classscram_1_1mef_1_1BetaDeviate.xhtml" target="_top" xlink:title="Beta distribution. ">
<polygon fill="white" stroke="black" points="0,-6 0,-96 137,-96 137,-6 0,-6"/>
<text text-anchor="middle" x="68.5" y="-84" font-family="Helvetica,sans-Serif" font-size="10.00">scram::mef::BetaDeviate</text>
<polyline fill="none" stroke="black" points="0,-77 137,-77 "/>
<text text-anchor="middle" x="68.5" y="-65" font-family="Helvetica,sans-Serif" font-size="10.00"> </text>
<polyline fill="none" stroke="black" points="0,-58 137,-58 "/>
<text text-anchor="start" x="8" y="-46" font-family="Helvetica,sans-Serif" font-size="10.00">+ BetaDeviate()</text>
<text text-anchor="start" x="8" y="-35" font-family="Helvetica,sans-Serif" font-size="10.00">+ Validate()</text>
<text text-anchor="start" x="8" y="-24" font-family="Helvetica,sans-Serif" font-size="10.00">+ value()</text>
<text text-anchor="start" x="8" y="-13" font-family="Helvetica,sans-Serif" font-size="10.00">+ interval()</text>
</a>
</g>
</g>
<!-- Node1&#45;&gt;Node4 -->
<g id="edge3" class="edge"><title>Node1&#45;&gt;Node4</title>
<path fill="none" stroke="midnightblue" d="M385.309,-158.096C317.903,-149.835 223.281,-133.482 145.5,-102 141.215,-100.266 136.913,-98.2828 132.653,-96.1297"/>
<polygon fill="none" stroke="midnightblue" points="385.125,-161.599 395.468,-159.306 385.952,-154.648 385.125,-161.599"/>
</g>
<!-- Node5 -->
<g id="node5" class="node"><title>Node5</title>
<g id="a_node5"><a xlink:href="classscram_1_1mef_1_1GammaDeviate.xhtml" target="_top" xlink:title="Gamma distribution. ">
<polygon fill="white" stroke="black" points="155,-6 155,-96 308,-96 308,-6 155,-6"/>
<text text-anchor="middle" x="231.5" y="-84" font-family="Helvetica,sans-Serif" font-size="10.00">scram::mef::GammaDeviate</text>
<polyline fill="none" stroke="black" points="155,-77 308,-77 "/>
<text text-anchor="middle" x="231.5" y="-65" font-family="Helvetica,sans-Serif" font-size="10.00"> </text>
<polyline fill="none" stroke="black" points="155,-58 308,-58 "/>
<text text-anchor="start" x="163" y="-46" font-family="Helvetica,sans-Serif" font-size="10.00">+ GammaDeviate()</text>
<text text-anchor="start" x="163" y="-35" font-family="Helvetica,sans-Serif" font-size="10.00">+ Validate()</text>
<text text-anchor="start" x="163" y="-24" font-family="Helvetica,sans-Serif" font-size="10.00">+ value()</text>
<text text-anchor="start" x="163" y="-13" font-family="Helvetica,sans-Serif" font-size="10.00">+ interval()</text>
</a>
</g>
</g>
<!-- Node1&#45;&gt;Node5 -->
<g id="edge4" class="edge"><title>Node1&#45;&gt;Node5</title>
<path fill="none" stroke="midnightblue" d="M390.462,-134.541C366.634,-124.758 340.771,-113.503 317.5,-102 313.784,-100.163 310.009,-98.2313 306.219,-96.2384"/>
<polygon fill="none" stroke="midnightblue" points="389.25,-137.826 399.832,-138.356 391.89,-131.343 389.25,-137.826"/>
</g>
<!-- Node6 -->
<g id="node6" class="node"><title>Node6</title>
<g id="a_node6"><a xlink:href="classscram_1_1mef_1_1Histogram.xhtml" target="_top" xlink:title="Histogram distribution. ">
<polygon fill="white" stroke="black" points="326.5,-6 326.5,-96 454.5,-96 454.5,-6 326.5,-6"/>
<text text-anchor="middle" x="390.5" y="-84" font-family="Helvetica,sans-Serif" font-size="10.00">scram::mef::Histogram</text>
<polyline fill="none" stroke="black" points="326.5,-77 454.5,-77 "/>
<text text-anchor="middle" x="390.5" y="-65" font-family="Helvetica,sans-Serif" font-size="10.00"> </text>
<polyline fill="none" stroke="black" points="326.5,-58 454.5,-58 "/>
<text text-anchor="start" x="334.5" y="-46" font-family="Helvetica,sans-Serif" font-size="10.00">+ Histogram()</text>
<text text-anchor="start" x="334.5" y="-35" font-family="Helvetica,sans-Serif" font-size="10.00">+ Validate()</text>
<text text-anchor="start" x="334.5" y="-24" font-family="Helvetica,sans-Serif" font-size="10.00">+ value()</text>
<text text-anchor="start" x="334.5" y="-13" font-family="Helvetica,sans-Serif" font-size="10.00">+ interval()</text>
</a>
</g>
</g>
<!-- Node1&#45;&gt;Node6 -->
<g id="edge5" class="edge"><title>Node1&#45;&gt;Node6</title>
<path fill="none" stroke="midnightblue" d="M446.661,-130.078C438.938,-119.341 430.38,-107.443 422.321,-96.2385"/>
<polygon fill="none" stroke="midnightblue" points="443.969,-132.329 452.65,-138.404 449.652,-128.242 443.969,-132.329"/>
</g>
<!-- Node7 -->
<g id="node7" class="node"><title>Node7</title>
<g id="a_node7"><a xlink:href="classscram_1_1mef_1_1LognormalDeviate.xhtml" target="_top" xlink:title="Log&#45;normal distribution. ">
<polygon fill="white" stroke="black" points="473,-0.5 473,-101.5 638,-101.5 638,-0.5 473,-0.5"/>
<text text-anchor="middle" x="555.5" y="-89.5" font-family="Helvetica,sans-Serif" font-size="10.00">scram::mef::LognormalDeviate</text>
<polyline fill="none" stroke="black" points="473,-82.5 638,-82.5 "/>
<text text-anchor="middle" x="555.5" y="-70.5" font-family="Helvetica,sans-Serif" font-size="10.00"> </text>
<polyline fill="none" stroke="black" points="473,-63.5 638,-63.5 "/>
<text text-anchor="start" x="481" y="-51.5" font-family="Helvetica,sans-Serif" font-size="10.00">+ LognormalDeviate()</text>
<text text-anchor="start" x="481" y="-40.5" font-family="Helvetica,sans-Serif" font-size="10.00">+ LognormalDeviate()</text>
<text text-anchor="start" x="481" y="-29.5" font-family="Helvetica,sans-Serif" font-size="10.00">+ Validate()</text>
<text text-anchor="start" x="481" y="-18.5" font-family="Helvetica,sans-Serif" font-size="10.00">+ value()</text>
<text text-anchor="start" x="481" y="-7.5" font-family="Helvetica,sans-Serif" font-size="10.00">+ interval()</text>
</a>
</g>
</g>
<!-- Node1&#45;&gt;Node7 -->
<g id="edge6" class="edge"><title>Node1&#45;&gt;Node7</title>
<path fill="none" stroke="midnightblue" d="M498.48,-130.317C505.106,-121.216 512.349,-111.268 519.382,-101.608"/>
<polygon fill="none" stroke="midnightblue" points="495.648,-128.259 492.592,-138.404 501.307,-132.38 495.648,-128.259"/>
</g>
<!-- Node8 -->
<g id="node8" class="node"><title>Node8</title>
<g id="a_node8"><a xlink:href="classscram_1_1mef_1_1NormalDeviate.xhtml" target="_top" xlink:title="Normal distribution. ">
<polygon fill="white" stroke="black" points="656,-6 656,-96 805,-96 805,-6 656,-6"/>
<text text-anchor="middle" x="730.5" y="-84" font-family="Helvetica,sans-Serif" font-size="10.00">scram::mef::NormalDeviate</text>
<polyline fill="none" stroke="black" points="656,-77 805,-77 "/>
<text text-anchor="middle" x="730.5" y="-65" font-family="Helvetica,sans-Serif" font-size="10.00"> </text>
<polyline fill="none" stroke="black" points="656,-58 805,-58 "/>
<text text-anchor="start" x="664" y="-46" font-family="Helvetica,sans-Serif" font-size="10.00">+ NormalDeviate()</text>
<text text-anchor="start" x="664" y="-35" font-family="Helvetica,sans-Serif" font-size="10.00">+ Validate()</text>
<text text-anchor="start" x="664" y="-24" font-family="Helvetica,sans-Serif" font-size="10.00">+ value()</text>
<text text-anchor="start" x="664" y="-13" font-family="Helvetica,sans-Serif" font-size="10.00">+ interval()</text>
</a>
</g>
</g>
<!-- Node1&#45;&gt;Node8 -->
<g id="edge7" class="edge"><title>Node1&#45;&gt;Node8</title>
<path fill="none" stroke="midnightblue" d="M559.183,-138.004C587.787,-127.793 619.449,-115.426 647.5,-102 651.293,-100.184 655.138,-98.2465 658.986,-96.2276"/>
<polygon fill="none" stroke="midnightblue" points="557.874,-134.754 549.609,-141.383 560.204,-141.355 557.874,-134.754"/>
</g>
<!-- Node9 -->
<g id="node9" class="node"><title>Node9</title>
<g id="a_node9"><a xlink:href="classscram_1_1mef_1_1UniformDeviate.xhtml" target="_top" xlink:title="Uniform distribution. ">
<polygon fill="white" stroke="black" points="823.5,-6 823.5,-96 975.5,-96 975.5,-6 823.5,-6"/>
<text text-anchor="middle" x="899.5" y="-84" font-family="Helvetica,sans-Serif" font-size="10.00">scram::mef::UniformDeviate</text>
<polyline fill="none" stroke="black" points="823.5,-77 975.5,-77 "/>
<text text-anchor="middle" x="899.5" y="-65" font-family="Helvetica,sans-Serif" font-size="10.00"> </text>
<polyline fill="none" stroke="black" points="823.5,-58 975.5,-58 "/>
<text text-anchor="start" x="831.5" y="-46" font-family="Helvetica,sans-Serif" font-size="10.00">+ UniformDeviate()</text>
<text text-anchor="start" x="831.5" y="-35" font-family="Helvetica,sans-Serif" font-size="10.00">+ Validate()</text>
<text text-anchor="start" x="831.5" y="-24" font-family="Helvetica,sans-Serif" font-size="10.00">+ value()</text>
<text text-anchor="start" x="831.5" y="-13" font-family="Helvetica,sans-Serif" font-size="10.00">+ interval()</text>
</a>
</g>
</g>
<!-- Node1&#45;&gt;Node9 -->
<g id="edge8" class="edge"><title>Node1&#45;&gt;Node9</title>
<path fill="none" stroke="midnightblue" d="M559.768,-158.096C630.243,-149.735 731.064,-133.249 814.5,-102 819.15,-100.259 823.837,-98.2701 828.493,-96.1128"/>
<polygon fill="none" stroke="midnightblue" points="559.128,-154.646 549.595,-159.271 559.931,-161.6 559.128,-154.646"/>
</g>
<!-- Node2 -->
<g id="node2" class="node"><title>Node2</title>
<g id="a_node2"><a xlink:href="classscram_1_1mef_1_1Expression.xhtml" target="_top" xlink:title="Abstract base class for all sorts of expressions to describe events. ">
<polygon fill="white" stroke="black" points="408,-232.5 408,-388.5 537,-388.5 537,-232.5 408,-232.5"/>
<text text-anchor="middle" x="472.5" y="-376.5" font-family="Helvetica,sans-Serif" font-size="10.00">scram::mef::Expression</text>
<polyline fill="none" stroke="black" points="408,-369.5 537,-369.5 "/>
<text text-anchor="middle" x="472.5" y="-357.5" font-family="Helvetica,sans-Serif" font-size="10.00"> </text>
<polyline fill="none" stroke="black" points="408,-350.5 537,-350.5 "/>
<text text-anchor="start" x="416" y="-338.5" font-family="Helvetica,sans-Serif" font-size="10.00">+ Expression()</text>
<text text-anchor="start" x="416" y="-327.5" font-family="Helvetica,sans-Serif" font-size="10.00">+ ~Expression()</text>
<text text-anchor="start" x="416" y="-316.5" font-family="Helvetica,sans-Serif" font-size="10.00">+ args()</text>
<text text-anchor="start" x="416" y="-305.5" font-family="Helvetica,sans-Serif" font-size="10.00">+ Validate()</text>
<text text-anchor="start" x="416" y="-294.5" font-family="Helvetica,sans-Serif" font-size="10.00">+ value()</text>
<text text-anchor="start" x="416" y="-283.5" font-family="Helvetica,sans-Serif" font-size="10.00">+ interval()</text>
<text text-anchor="start" x="416" y="-272.5" font-family="Helvetica,sans-Serif" font-size="10.00">+ IsDeviate()</text>
<text text-anchor="start" x="416" y="-261.5" font-family="Helvetica,sans-Serif" font-size="10.00">+ Sample()</text>
<text text-anchor="start" x="416" y="-250.5" font-family="Helvetica,sans-Serif" font-size="10.00">+ Reset()</text>
<text text-anchor="start" x="416" y="-239.5" font-family="Helvetica,sans-Serif" font-size="10.00"># AddArg()</text>
</a>
</g>
</g>
<!-- Node2&#45;&gt;Node1 -->
<g id="edge1" class="edge"><title>Node2&#45;&gt;Node1</title>
<path fill="none" stroke="midnightblue" d="M472.5,-221.838C472.5,-212.477 472.5,-203.536 472.5,-195.724"/>
<polygon fill="none" stroke="midnightblue" points="469,-222.126 472.5,-232.126 476,-222.126 469,-222.126"/>
</g>
<!-- Node3 -->
<g id="node3" class="node"><title>Node3</title>
<polygon fill="white" stroke="#bfbfbf" points="434,-425.5 434,-482.5 511,-482.5 511,-425.5 434,-425.5"/>
<text text-anchor="middle" x="472.5" y="-470.5" font-family="Helvetica,sans-Serif" font-size="10.00">noncopyable</text>
<polyline fill="none" stroke="#bfbfbf" points="434,-463.5 511,-463.5 "/>
<text text-anchor="middle" x="472.5" y="-451.5" font-family="Helvetica,sans-Serif" font-size="10.00"> </text>
<polyline fill="none" stroke="#bfbfbf" points="434,-444.5 511,-444.5 "/>
<text text-anchor="middle" x="472.5" y="-432.5" font-family="Helvetica,sans-Serif" font-size="10.00"> </text>
</g>
<!-- Node3&#45;&gt;Node2 -->
<g id="edge2" class="edge"><title>Node3&#45;&gt;Node2</title>
<path fill="none" stroke="#8b1a1a" d="M472.5,-415.34C472.5,-407.044 472.5,-397.964 472.5,-388.736"/>
<polygon fill="none" stroke="#8b1a1a" points="469,-415.381 472.5,-425.381 476,-415.382 469,-415.381"/>
</g>
</g>
</svg>
        <g id="navigator" transform="translate(0 0)" fill="#404254">
                <rect fill="#f2f5e9" fill-opacity="0.5" stroke="#606060" stroke-width=".5" x="0" y="0" width="60" height="60"/>
                <use id="zoomplus" xlink:href="#zoomPlus" x="17" y="9" onmousedown="handleZoom(evt,'in')"/>
                <use id="zoomminus" xlink:href="#zoomMin" x="42" y="9" onmousedown="handleZoom(evt,'out')"/>
                <use id="reset" xlink:href="#resetDef" x="30" y="36" onmousedown="handleReset()"/>
                <g id="arrowUp" xlink:href="#dirArrow" transform="translate(30 24)" onmousedown="handlePan(0,-1)">
                  <use xlink:href="#rim" fill="#404040">
                        <set attributeName="fill" to="#808080" begin="arrowUp.mouseover" end="arrowUp.mouseout"/>
                  </use>
                  <path fill="none" stroke="white" stroke-width="1.5" d="M0,-3.0v7 M-2.5,-0.5L0,-3.0L2.5,-0.5"/>
                </g>
                <g id="arrowRight" xlink:href="#dirArrow" transform="rotate(90) translate(36 -43)" onmousedown="handlePan(1,0)">
                  <use xlink:href="#rim" fill="#404040">
                        <set attributeName="fill" to="#808080" begin="arrowRight.mouseover" end="arrowRight.mouseout"/>
                  </use>
                  <path fill="none" stroke="white" stroke-width="1.5" d="M0,-3.0v7 M-2.5,-0.5L0,-3.0L2.5,-0.5"/>
                </g>
                <g id="arrowDown" xlink:href="#dirArrow" transform="rotate(180) translate(-30 -48)" onmousedown="handlePan(0,1)">
                  <use xlink:href="#rim" fill="#404040">
                        <set attributeName="fill" to="#808080" begin="arrowDown.mouseover" end="arrowDown.mouseout"/>
                  </use>
                  <path fill="none" stroke="white" stroke-width="1.5" d="M0,-3.0v7 M-2.5,-0.5L0,-3.0L2.5,-0.5"/>
                </g>
                <g id="arrowLeft" xlink:href="#dirArrow" transform="rotate(270) translate(-36 17)" onmousedown="handlePan(-1,0)">
                  <use xlink:href="#rim" fill="#404040">
                        <set attributeName="fill" to="#808080" begin="arrowLeft.mouseover" end="arrowLeft.mouseout"/>
                  </use>
                  <path fill="none" stroke="white" stroke-width="1.5" d="M0,-3.0v7 M-2.5,-0.5L0,-3.0L2.5,-0.5"/>
                </g>
        </g>
        <svg viewBox="0 0 15 15" width="100%" height="30px" preserveAspectRatio="xMaxYMin meet">
         <g id="arrow_out" transform="scale(0.3 0.3)">
          <a xlink:href="classscram_1_1mef_1_1RandomDeviate__inherit__graph_org.svg" target="_base">
           <rect id="button" ry="5" rx="5" y="6" x="6" height="38" width="38"
                fill="#f2f5e9" fill-opacity="0.5" stroke="#606060" stroke-width="1.0"/>
           <path id="arrow"
             d="M 11.500037,31.436501 C 11.940474,20.09759 22.043105,11.32322 32.158766,21.979434 L 37.068811,17.246167 C 37.068811,17.246167 37.088388,32 37.088388,32 L 22.160133,31.978069 C 22.160133,31.978069 26.997745,27.140456 26.997745,27.140456 C 18.528582,18.264221 13.291696,25.230495 11.500037,31.436501 z"
             style="fill:#404040;"/>
          </a>
         </g>
        </svg>
</svg>
