<?xml version="1.0" encoding="UTF-8" standalone="no"?>
<!DOCTYPE svg PUBLIC "-//W3C//DTD SVG 1.1//EN"
 "http://www.w3.org/Graphics/SVG/1.1/DTD/svg11.dtd">
<!-- Generated by graphviz version 2.38.0 (20140413.2041)
 -->
<!-- Title: scram::core::NonTerminal::mark Pages: 1 -->
<svg width="567pt" height="246pt"
 viewBox="0.00 0.00 567.00 245.50" xmlns="http://www.w3.org/2000/svg" xmlns:xlink="http://www.w3.org/1999/xlink">
<g id="graph0" class="graph" transform="scale(1 1) rotate(0) translate(4 241.5)">
<title>scram::core::NonTerminal::mark</title>
<polygon fill="white" stroke="none" points="-4,4 -4,-241.5 563,-241.5 563,4 -4,4"/>
<!-- Node1 -->
<g id="node1" class="node"><title>Node1</title>
<polygon fill="#bfbfbf" stroke="black" points="0,-114 0,-144 139,-144 139,-114 0,-114"/>
<text text-anchor="start" x="8" y="-132" font-family="Helvetica,sans-Serif" font-size="10.00">scram::core::NonTerminal</text>
<text text-anchor="middle" x="69.5" y="-121" font-family="Helvetica,sans-Serif" font-size="10.00">::mark</text>
</g>
<!-- Node2 -->
<g id="node2" class="node"><title>Node2</title>
<g id="a_node2"><a xlink:href="classscram_1_1core_1_1ImportanceAnalysis.xhtml#acf487235f07ddcc1c920943ebfe2ce60" target="_top" xlink:title="Performs quantitative analysis of importance factors of basic events in products. ...">
<polygon fill="white" stroke="black" points="175,-207 175,-237 348,-237 348,-207 175,-207"/>
<text text-anchor="start" x="183" y="-225" font-family="Helvetica,sans-Serif" font-size="10.00">scram::core::ImportanceAnalysis</text>
<text text-anchor="middle" x="261.5" y="-214" font-family="Helvetica,sans-Serif" font-size="10.00">::Analyze</text>
</a>
</g>
</g>
<!-- Node1&#45;&gt;Node2 -->
<g id="edge1" class="edge"><title>Node1&#45;&gt;Node2</title>
<path fill="none" stroke="midnightblue" d="M98.0823,-150.164C118.434,-164.958 147.292,-184.27 175,-197 183.151,-200.745 191.997,-204.076 200.805,-206.989"/>
<polygon fill="midnightblue" stroke="midnightblue" points="100.034,-147.254 89.9091,-144.132 95.8771,-152.886 100.034,-147.254"/>
</g>
<!-- Node3 -->
<g id="node3" class="node"><title>Node3</title>
<g id="a_node3"><a xlink:href="classscram_1_1core_1_1Bdd.xhtml#ab9548d4c5f9afaa96dc24e17e2a01a57" target="_top" xlink:title="Runs the Qualitative analysis with the representation of a PDAG as ROBDD. ">
<polygon fill="white" stroke="black" points="190.5,-168.5 190.5,-187.5 332.5,-187.5 332.5,-168.5 190.5,-168.5"/>
<text text-anchor="middle" x="261.5" y="-175.5" font-family="Helvetica,sans-Serif" font-size="10.00">scram::core::Bdd::Analyze</text>
</a>
</g>
</g>
<!-- Node1&#45;&gt;Node3 -->
<g id="edge2" class="edge"><title>Node1&#45;&gt;Node3</title>
<path fill="none" stroke="midnightblue" d="M130.442,-146.886C144.98,-151.036 160.509,-155.313 175,-159 187.968,-162.299 202.124,-165.575 215.118,-168.454"/>
<polygon fill="midnightblue" stroke="midnightblue" points="131.139,-143.444 120.561,-144.042 129.203,-150.171 131.139,-143.444"/>
</g>
<!-- Node4 -->
<g id="node4" class="node"><title>Node4</title>
<g id="a_node4"><a xlink:href="classscram_1_1core_1_1ProbabilityAnalyzer_3_01Bdd_01_4.xhtml#a45b66605634ae60f1c00e3ac469a7c7a" target="_top" xlink:title="Calculates the total probability with a different set of probability values than the one given upon c...">
<polygon fill="white" stroke="black" points="176,-108.5 176,-149.5 347,-149.5 347,-108.5 176,-108.5"/>
<text text-anchor="start" x="184" y="-137.5" font-family="Helvetica,sans-Serif" font-size="10.00">scram::core::Probability</text>
<text text-anchor="start" x="184" y="-126.5" font-family="Helvetica,sans-Serif" font-size="10.00">Analyzer&lt; Bdd &gt;::CalculateTotal</text>
<text text-anchor="middle" x="261.5" y="-115.5" font-family="Helvetica,sans-Serif" font-size="10.00">Probability</text>
</a>
</g>
</g>
<!-- Node1&#45;&gt;Node4 -->
<g id="edge3" class="edge"><title>Node1&#45;&gt;Node4</title>
<path fill="none" stroke="midnightblue" d="M149.263,-129C158.016,-129 166.958,-129 175.78,-129"/>
<polygon fill="midnightblue" stroke="midnightblue" points="149.094,-125.5 139.094,-129 149.094,-132.5 149.094,-125.5"/>
</g>
<!-- Node5 -->
<g id="node5" class="node"><title>Node5</title>
<g id="a_node5"><a xlink:href="classscram_1_1core_1_1Zbdd.xhtml#a516f0d2f35ad213399f83fb9ab102561" target="_top" xlink:title="Traverses ZBDD to find modules and adjusted cut&#45;offs. ">
<polygon fill="white" stroke="black" points="206,-60 206,-90 317,-90 317,-60 206,-60"/>
<text text-anchor="start" x="214" y="-78" font-family="Helvetica,sans-Serif" font-size="10.00">scram::core::Zbdd::</text>
<text text-anchor="middle" x="261.5" y="-67" font-family="Helvetica,sans-Serif" font-size="10.00">GatherModules</text>
</a>
</g>
</g>
<!-- Node1&#45;&gt;Node5 -->
<g id="edge4" class="edge"><title>Node1&#45;&gt;Node5</title>
<path fill="none" stroke="midnightblue" d="M132.57,-111.116C146.524,-107.113 161.265,-102.899 175,-99 185.234,-96.0948 196.162,-93.0121 206.667,-90.0587"/>
<polygon fill="midnightblue" stroke="midnightblue" points="131.22,-107.862 122.574,-113.985 133.151,-114.59 131.22,-107.862"/>
</g>
<!-- Node8 -->
<g id="node8" class="node"><title>Node8</title>
<g id="a_node8"><a xlink:href="classscram_1_1core_1_1ProbabilityAnalyzer_3_01Bdd_01_4.xhtml#afcfc98b0b573c5cc5d62125a7272f09d" target="_top" xlink:title="Reuses BDD structures from Fault tree analyzer. ">
<polygon fill="white" stroke="black" points="184,-0.5 184,-41.5 339,-41.5 339,-0.5 184,-0.5"/>
<text text-anchor="start" x="192" y="-29.5" font-family="Helvetica,sans-Serif" font-size="10.00">scram::core::Probability</text>
<text text-anchor="start" x="192" y="-18.5" font-family="Helvetica,sans-Serif" font-size="10.00">Analyzer&lt; Bdd &gt;::Probability</text>
<text text-anchor="middle" x="261.5" y="-7.5" font-family="Helvetica,sans-Serif" font-size="10.00">Analyzer</text>
</a>
</g>
</g>
<!-- Node1&#45;&gt;Node8 -->
<g id="edge7" class="edge"><title>Node1&#45;&gt;Node8</title>
<path fill="none" stroke="midnightblue" d="M95.3184,-107.05C115.621,-89.9683 145.671,-66.6187 175,-51 181.387,-47.5987 188.239,-44.4512 195.183,-41.5759"/>
<polygon fill="midnightblue" stroke="midnightblue" points="92.8423,-104.561 87.5092,-113.716 97.3872,-109.885 92.8423,-104.561"/>
</g>
<!-- Node6 -->
<g id="node6" class="node"><title>Node6</title>
<g id="a_node6"><a xlink:href="classscram_1_1core_1_1Zbdd.xhtml#af92e04ed908364e0177ce444d7b72712" target="_top" xlink:title="The common constructor to initialize member variables. ">
<polygon fill="white" stroke="black" points="403,-87.5 403,-106.5 540,-106.5 540,-87.5 403,-87.5"/>
<text text-anchor="middle" x="471.5" y="-94.5" font-family="Helvetica,sans-Serif" font-size="10.00">scram::core::Zbdd::Zbdd</text>
</a>
</g>
</g>
<!-- Node5&#45;&gt;Node6 -->
<g id="edge5" class="edge"><title>Node5&#45;&gt;Node6</title>
<path fill="none" stroke="midnightblue" d="M327.227,-81.8461C351.251,-84.3872 378.553,-87.2749 402.834,-89.843"/>
<polygon fill="midnightblue" stroke="midnightblue" points="327.462,-78.3516 317.15,-80.7802 326.726,-85.3127 327.462,-78.3516"/>
</g>
<!-- Node7 -->
<g id="node7" class="node"><title>Node7</title>
<g id="a_node7"><a xlink:href="classscram_1_1core_1_1zbdd_1_1CutSetContainer.xhtml#a478c89f64731781882b50ec55898900b" target="_top" xlink:title="Gathers all module indices in the cut sets. ">
<polygon fill="white" stroke="black" points="384,-38 384,-68 559,-68 559,-38 384,-38"/>
<text text-anchor="start" x="392" y="-56" font-family="Helvetica,sans-Serif" font-size="10.00">scram::core::zbdd::</text>
<text text-anchor="middle" x="471.5" y="-45" font-family="Helvetica,sans-Serif" font-size="10.00">CutSetContainer::GatherModules</text>
</a>
</g>
</g>
<!-- Node5&#45;&gt;Node7 -->
<g id="edge6" class="edge"><title>Node5&#45;&gt;Node7</title>
<path fill="none" stroke="midnightblue" d="M327.407,-68.1348C345.212,-66.2516 364.806,-64.1791 383.631,-62.1881"/>
<polygon fill="midnightblue" stroke="midnightblue" points="326.726,-64.6873 317.15,-69.2198 327.462,-71.6484 326.726,-64.6873"/>
</g>
</g>
</svg>
