<?xml version="1.0" encoding="UTF-8" standalone="no"?>
<!DOCTYPE svg PUBLIC "-//W3C//DTD SVG 1.1//EN"
 "http://www.w3.org/Graphics/SVG/1.1/DTD/svg11.dtd">
<!-- Generated by graphviz version 2.38.0 (20140413.2041)
 -->
<!-- Title: scram::Error Pages: 1 -->
<!--zoomable 414 -->
<svg id="main" version="1.1" xmlns="http://www.w3.org/2000/svg" xmlns:xlink="http://www.w3.org/1999/xlink" xml:space="preserve" onload="init(evt)">
<style type="text/css"><![CDATA[
.edge:hover path { stroke: red; }
.edge:hover polygon { stroke: red; fill: red; }
]]></style>
<script type="text/javascript"><![CDATA[
var edges = document.getElementsByTagName('g');
if (edges && edges.length) {
  for (var i=0;i<edges.length;i++) {
    if (edges[i].id.substr(0,4)=='edge') {
      edges[i].setAttribute('class','edge');
    }
  }
}
]]></script>
        <defs>
                <circle id="rim" cx="0" cy="0" r="7"/>
                <circle id="rim2" cx="0" cy="0" r="3.5"/>
                <g id="zoomPlus">
                        <use xlink:href="#rim" fill="#404040">
                                <set attributeName="fill" to="#808080" begin="zoomplus.mouseover" end="zoomplus.mouseout"/>
                        </use>
                        <path d="M-4,0h8M0,-4v8" fill="none" stroke="white" stroke-width="1.5" pointer-events="none"/>
                </g>
                <g id="zoomMin">
                        <use xlink:href="#rim" fill="#404040">
                                <set attributeName="fill" to="#808080" begin="zoomminus.mouseover" end="zoomminus.mouseout"/>
                        </use>
                        <path d="M-4,0h8" fill="none" stroke="white" stroke-width="1.5" pointer-events="none"/>
                </g>
                <g id="dirArrow">
                        <path fill="none" stroke="white" stroke-width="1.5" d="M0,-3.0v7 M-2.5,-0.5L0,-3.0L2.5,-0.5"/>
                </g>
               <g id="resetDef">
                       <use xlink:href="#rim2" fill="#404040">
                               <set attributeName="fill" to="#808080" begin="reset.mouseover" end="reset.mouseout"/>
                       </use>
               </g>
        </defs>

<script type="text/javascript">
var viewWidth = 917;
var viewHeight = 414;
var sectionId = 'dynsection-0';
</script>
<script xlink:href="svgpan.js"/>
<svg id="graph" class="graph">
<g id="viewport">
<title>scram::Error</title>
<polygon fill="white" stroke="none" points="-4,4 -4,-410 912.5,-410 912.5,4 -4,4"/>
<!-- Node1 -->
<g id="node1" class="node"><title>Node1</title>
<polygon fill="#bfbfbf" stroke="black" points="411.5,-199.5 411.5,-311.5 487.5,-311.5 487.5,-199.5 411.5,-199.5"/>
<text text-anchor="middle" x="449.5" y="-299.5" font-family="Helvetica,sans-Serif" font-size="10.00">scram::Error</text>
<polyline fill="none" stroke="black" points="411.5,-292.5 487.5,-292.5 "/>
<text text-anchor="middle" x="449.5" y="-280.5" font-family="Helvetica,sans-Serif" font-size="10.00"> </text>
<polyline fill="none" stroke="black" points="411.5,-273.5 487.5,-273.5 "/>
<text text-anchor="start" x="419.5" y="-261.5" font-family="Helvetica,sans-Serif" font-size="10.00">+ Error()</text>
<text text-anchor="start" x="419.5" y="-250.5" font-family="Helvetica,sans-Serif" font-size="10.00">+ Error()</text>
<text text-anchor="start" x="419.5" y="-239.5" font-family="Helvetica,sans-Serif" font-size="10.00">+ ~Error()</text>
<text text-anchor="start" x="419.5" y="-228.5" font-family="Helvetica,sans-Serif" font-size="10.00">+ what()</text>
<text text-anchor="start" x="419.5" y="-217.5" font-family="Helvetica,sans-Serif" font-size="10.00">+ msg()</text>
<text text-anchor="start" x="419.5" y="-206.5" font-family="Helvetica,sans-Serif" font-size="10.00">+ msg()</text>
</g>
<!-- Node3 -->
<g id="node3" class="node"><title>Node3</title>
<g id="a_node3"><a xlink:href="structscram_1_1IllegalOperation.xhtml" target="_top" xlink:title="This error can be used to indicate that call for a function or operation is not legal. ">
<polygon fill="white" stroke="black" points="0,-105.5 0,-162.5 127,-162.5 127,-105.5 0,-105.5"/>
<text text-anchor="middle" x="63.5" y="-150.5" font-family="Helvetica,sans-Serif" font-size="10.00">scram::IllegalOperation</text>
<polyline fill="none" stroke="black" points="0,-143.5 127,-143.5 "/>
<text text-anchor="middle" x="63.5" y="-131.5" font-family="Helvetica,sans-Serif" font-size="10.00"> </text>
<polyline fill="none" stroke="black" points="0,-124.5 127,-124.5 "/>
<text text-anchor="middle" x="63.5" y="-112.5" font-family="Helvetica,sans-Serif" font-size="10.00"> </text>
</a>
</g>
</g>
<!-- Node1&#45;&gt;Node3 -->
<g id="edge2" class="edge"><title>Node1&#45;&gt;Node3</title>
<path fill="none" stroke="midnightblue" d="M401.591,-241.939C339.662,-225.383 228.707,-194.637 135.5,-163 132.833,-162.095 130.119,-161.15 127.384,-160.177"/>
<polygon fill="none" stroke="midnightblue" points="400.903,-245.378 411.467,-244.57 402.705,-238.613 400.903,-245.378"/>
</g>
<!-- Node4 -->
<g id="node4" class="node"><title>Node4</title>
<g id="a_node4"><a xlink:href="structscram_1_1InvalidArgument.xhtml" target="_top" xlink:title="This error class can be used to indicate unacceptable arguments. ">
<polygon fill="white" stroke="black" points="145,-105.5 145,-162.5 276,-162.5 276,-105.5 145,-105.5"/>
<text text-anchor="middle" x="210.5" y="-150.5" font-family="Helvetica,sans-Serif" font-size="10.00">scram::InvalidArgument</text>
<polyline fill="none" stroke="black" points="145,-143.5 276,-143.5 "/>
<text text-anchor="middle" x="210.5" y="-131.5" font-family="Helvetica,sans-Serif" font-size="10.00"> </text>
<polyline fill="none" stroke="black" points="145,-124.5 276,-124.5 "/>
<text text-anchor="middle" x="210.5" y="-112.5" font-family="Helvetica,sans-Serif" font-size="10.00"> </text>
</a>
</g>
</g>
<!-- Node1&#45;&gt;Node4 -->
<g id="edge3" class="edge"><title>Node1&#45;&gt;Node4</title>
<path fill="none" stroke="midnightblue" d="M402.268,-230.884C363.042,-211.271 307.177,-183.339 265.856,-162.678"/>
<polygon fill="none" stroke="midnightblue" points="400.856,-234.091 411.365,-235.433 403.986,-227.83 400.856,-234.091"/>
</g>
<!-- Node5 -->
<g id="node5" class="node"><title>Node5</title>
<g id="a_node5"><a xlink:href="structscram_1_1IOError.xhtml" target="_top" xlink:title="For input/output related errors. ">
<polygon fill="white" stroke="black" points="294.5,-105.5 294.5,-162.5 380.5,-162.5 380.5,-105.5 294.5,-105.5"/>
<text text-anchor="middle" x="337.5" y="-150.5" font-family="Helvetica,sans-Serif" font-size="10.00">scram::IOError</text>
<polyline fill="none" stroke="black" points="294.5,-143.5 380.5,-143.5 "/>
<text text-anchor="middle" x="337.5" y="-131.5" font-family="Helvetica,sans-Serif" font-size="10.00"> </text>
<polyline fill="none" stroke="black" points="294.5,-124.5 380.5,-124.5 "/>
<text text-anchor="middle" x="337.5" y="-112.5" font-family="Helvetica,sans-Serif" font-size="10.00"> </text>
</a>
</g>
</g>
<!-- Node1&#45;&gt;Node5 -->
<g id="edge4" class="edge"><title>Node1&#45;&gt;Node5</title>
<path fill="none" stroke="midnightblue" d="M404.152,-206.115C390.349,-191.388 375.65,-175.705 363.578,-162.824"/>
<polygon fill="none" stroke="midnightblue" points="401.877,-208.806 411.269,-213.709 406.985,-204.019 401.877,-208.806"/>
</g>
<!-- Node6 -->
<g id="node6" class="node"><title>Node6</title>
<g id="a_node6"><a xlink:href="structscram_1_1LogicError.xhtml" target="_top" xlink:title="Signals internal logic errors, for example, pre&#45;condition failure or use of functionality in ways not...">
<polygon fill="white" stroke="black" points="399,-105.5 399,-162.5 500,-162.5 500,-105.5 399,-105.5"/>
<text text-anchor="middle" x="449.5" y="-150.5" font-family="Helvetica,sans-Serif" font-size="10.00">scram::LogicError</text>
<polyline fill="none" stroke="black" points="399,-143.5 500,-143.5 "/>
<text text-anchor="middle" x="449.5" y="-131.5" font-family="Helvetica,sans-Serif" font-size="10.00"> </text>
<polyline fill="none" stroke="black" points="399,-124.5 500,-124.5 "/>
<text text-anchor="middle" x="449.5" y="-112.5" font-family="Helvetica,sans-Serif" font-size="10.00"> </text>
</a>
</g>
</g>
<!-- Node1&#45;&gt;Node6 -->
<g id="edge5" class="edge"><title>Node1&#45;&gt;Node6</title>
<path fill="none" stroke="midnightblue" d="M449.5,-189.146C449.5,-179.817 449.5,-170.672 449.5,-162.631"/>
<polygon fill="none" stroke="midnightblue" points="446,-189.297 449.5,-199.297 453,-189.297 446,-189.297"/>
</g>
<!-- Node7 -->
<g id="node7" class="node"><title>Node7</title>
<g id="a_node7"><a xlink:href="structscram_1_1ValidationError.xhtml" target="_top" xlink:title="For validating input parameters or user arguments. ">
<polygon fill="white" stroke="black" points="518.5,-105.5 518.5,-162.5 640.5,-162.5 640.5,-105.5 518.5,-105.5"/>
<text text-anchor="middle" x="579.5" y="-150.5" font-family="Helvetica,sans-Serif" font-size="10.00">scram::ValidationError</text>
<polyline fill="none" stroke="black" points="518.5,-143.5 640.5,-143.5 "/>
<text text-anchor="middle" x="579.5" y="-131.5" font-family="Helvetica,sans-Serif" font-size="10.00"> </text>
<polyline fill="none" stroke="black" points="518.5,-124.5 640.5,-124.5 "/>
<text text-anchor="middle" x="579.5" y="-112.5" font-family="Helvetica,sans-Serif" font-size="10.00"> </text>
</a>
</g>
</g>
<!-- Node1&#45;&gt;Node7 -->
<g id="edge6" class="edge"><title>Node1&#45;&gt;Node7</title>
<path fill="none" stroke="midnightblue" d="M495.326,-212.375C513.23,-195.917 533.266,-177.5 549.297,-162.763"/>
<polygon fill="none" stroke="midnightblue" points="492.795,-209.948 487.801,-219.292 497.532,-215.102 492.795,-209.948"/>
</g>
<!-- Node12 -->
<g id="node12" class="node"><title>Node12</title>
<g id="a_node12"><a xlink:href="structscram_1_1ValueError.xhtml" target="_top" xlink:title="For values that are not acceptable. ">
<polygon fill="white" stroke="black" points="658.5,-105.5 658.5,-162.5 760.5,-162.5 760.5,-105.5 658.5,-105.5"/>
<text text-anchor="middle" x="709.5" y="-150.5" font-family="Helvetica,sans-Serif" font-size="10.00">scram::ValueError</text>
<polyline fill="none" stroke="black" points="658.5,-143.5 760.5,-143.5 "/>
<text text-anchor="middle" x="709.5" y="-131.5" font-family="Helvetica,sans-Serif" font-size="10.00"> </text>
<polyline fill="none" stroke="black" points="658.5,-124.5 760.5,-124.5 "/>
<text text-anchor="middle" x="709.5" y="-112.5" font-family="Helvetica,sans-Serif" font-size="10.00"> </text>
</a>
</g>
</g>
<!-- Node1&#45;&gt;Node12 -->
<g id="edge11" class="edge"><title>Node1&#45;&gt;Node12</title>
<path fill="none" stroke="midnightblue" d="M496.618,-233.065C537.176,-214.585 597.245,-187.146 649.5,-163 652.422,-161.65 655.422,-160.26 658.449,-158.856"/>
<polygon fill="none" stroke="midnightblue" points="495.158,-229.884 487.508,-237.214 498.06,-236.254 495.158,-229.884"/>
</g>
<!-- Node13 -->
<g id="node13" class="node"><title>Node13</title>
<g id="a_node13"><a xlink:href="structscram_1_1XmlStreamError.xhtml" target="_top" xlink:title="Errors in using XML streaming facilities. ">
<polygon fill="white" stroke="black" points="778.5,-105.5 778.5,-162.5 908.5,-162.5 908.5,-105.5 778.5,-105.5"/>
<text text-anchor="middle" x="843.5" y="-150.5" font-family="Helvetica,sans-Serif" font-size="10.00">scram::XmlStreamError</text>
<polyline fill="none" stroke="black" points="778.5,-143.5 908.5,-143.5 "/>
<text text-anchor="middle" x="843.5" y="-131.5" font-family="Helvetica,sans-Serif" font-size="10.00"> </text>
<polyline fill="none" stroke="black" points="778.5,-124.5 908.5,-124.5 "/>
<text text-anchor="middle" x="843.5" y="-112.5" font-family="Helvetica,sans-Serif" font-size="10.00"> </text>
</a>
</g>
</g>
<!-- Node1&#45;&gt;Node13 -->
<g id="edge12" class="edge"><title>Node1&#45;&gt;Node13</title>
<path fill="none" stroke="midnightblue" d="M497.781,-242.038C560.762,-225.476 674.164,-194.606 769.5,-163 772.368,-162.049 775.29,-161.055 778.235,-160.032"/>
<polygon fill="none" stroke="midnightblue" points="496.529,-238.748 487.743,-244.669 498.303,-245.519 496.529,-238.748"/>
</g>
<!-- Node2 -->
<g id="node2" class="node"><title>Node2</title>
<polygon fill="white" stroke="#bfbfbf" points="407.5,-348.5 407.5,-405.5 491.5,-405.5 491.5,-348.5 407.5,-348.5"/>
<text text-anchor="middle" x="449.5" y="-393.5" font-family="Helvetica,sans-Serif" font-size="10.00">std::exception</text>
<polyline fill="none" stroke="#bfbfbf" points="407.5,-386.5 491.5,-386.5 "/>
<text text-anchor="middle" x="449.5" y="-374.5" font-family="Helvetica,sans-Serif" font-size="10.00"> </text>
<polyline fill="none" stroke="#bfbfbf" points="407.5,-367.5 491.5,-367.5 "/>
<text text-anchor="middle" x="449.5" y="-355.5" font-family="Helvetica,sans-Serif" font-size="10.00"> </text>
</g>
<!-- Node2&#45;&gt;Node1 -->
<g id="edge1" class="edge"><title>Node2&#45;&gt;Node1</title>
<path fill="none" stroke="midnightblue" d="M449.5,-338.108C449.5,-329.748 449.5,-320.725 449.5,-311.834"/>
<polygon fill="none" stroke="midnightblue" points="446,-338.284 449.5,-348.284 453,-338.284 446,-338.284"/>
</g>
<!-- Node8 -->
<g id="node8" class="node"><title>Node8</title>
<g id="a_node8"><a xlink:href="structscram_1_1CycleError.xhtml" target="_top" xlink:title="Signals unacceptable cycles in invalid structures. ">
<polygon fill="white" stroke="black" points="309,-6 309,-63 410,-63 410,-6 309,-6"/>
<text text-anchor="middle" x="359.5" y="-51" font-family="Helvetica,sans-Serif" font-size="10.00">scram::CycleError</text>
<polyline fill="none" stroke="black" points="309,-44 410,-44 "/>
<text text-anchor="middle" x="359.5" y="-32" font-family="Helvetica,sans-Serif" font-size="10.00"> </text>
<polyline fill="none" stroke="black" points="309,-25 410,-25 "/>
<text text-anchor="middle" x="359.5" y="-13" font-family="Helvetica,sans-Serif" font-size="10.00"> </text>
</a>
</g>
</g>
<!-- Node7&#45;&gt;Node8 -->
<g id="edge7" class="edge"><title>Node7&#45;&gt;Node8</title>
<path fill="none" stroke="midnightblue" d="M508.676,-104.906C467.989,-88.7265 424.041,-71.1649 419.5,-69 415.623,-67.1518 411.65,-65.1609 407.685,-63.104"/>
<polygon fill="none" stroke="midnightblue" points="507.519,-108.212 518.105,-108.654 510.105,-101.707 507.519,-108.212"/>
</g>
<!-- Node9 -->
<g id="node9" class="node"><title>Node9</title>
<g id="a_node9"><a xlink:href="structscram_1_1DuplicateArgumentError.xhtml" target="_top" xlink:title="This error indicates that arguments must be unique. ">
<polygon fill="white" stroke="black" points="428.5,-0.5 428.5,-68.5 574.5,-68.5 574.5,-0.5 428.5,-0.5"/>
<text text-anchor="start" x="436.5" y="-56.5" font-family="Helvetica,sans-Serif" font-size="10.00">scram::DuplicateArgument</text>
<text text-anchor="middle" x="501.5" y="-45.5" font-family="Helvetica,sans-Serif" font-size="10.00">Error</text>
<polyline fill="none" stroke="black" points="428.5,-38.5 574.5,-38.5 "/>
<text text-anchor="middle" x="501.5" y="-26.5" font-family="Helvetica,sans-Serif" font-size="10.00"> </text>
<polyline fill="none" stroke="black" points="428.5,-19.5 574.5,-19.5 "/>
<text text-anchor="middle" x="501.5" y="-7.5" font-family="Helvetica,sans-Serif" font-size="10.00"> </text>
</a>
</g>
</g>
<!-- Node7&#45;&gt;Node9 -->
<g id="edge8" class="edge"><title>Node7&#45;&gt;Node9</title>
<path fill="none" stroke="midnightblue" d="M550.97,-97.3377C543.506,-88.0075 535.489,-77.9866 528.128,-68.7855"/>
<polygon fill="none" stroke="midnightblue" points="548.377,-99.6989 557.357,-105.321 553.843,-95.3261 548.377,-99.6989"/>
</g>
<!-- Node10 -->
<g id="node10" class="node"><title>Node10</title>
<g id="a_node10"><a xlink:href="structscram_1_1RedefinitionError.xhtml" target="_top" xlink:title="For cases when events or practically anything is redefined. ">
<polygon fill="white" stroke="black" points="593,-6 593,-63 724,-63 724,-6 593,-6"/>
<text text-anchor="middle" x="658.5" y="-51" font-family="Helvetica,sans-Serif" font-size="10.00">scram::RedefinitionError</text>
<polyline fill="none" stroke="black" points="593,-44 724,-44 "/>
<text text-anchor="middle" x="658.5" y="-32" font-family="Helvetica,sans-Serif" font-size="10.00"> </text>
<polyline fill="none" stroke="black" points="593,-25 724,-25 "/>
<text text-anchor="middle" x="658.5" y="-13" font-family="Helvetica,sans-Serif" font-size="10.00"> </text>
</a>
</g>
</g>
<!-- Node7&#45;&gt;Node10 -->
<g id="edge9" class="edge"><title>Node7&#45;&gt;Node10</title>
<path fill="none" stroke="midnightblue" d="M608.387,-97.3489C617.497,-86.1046 627.422,-73.8561 636.017,-63.248"/>
<polygon fill="none" stroke="midnightblue" points="605.503,-95.3481 601.927,-105.321 610.942,-99.7549 605.503,-95.3481"/>
</g>
<!-- Node11 -->
<g id="node11" class="node"><title>Node11</title>
<g id="a_node11"><a xlink:href="structscram_1_1UndefinedElement.xhtml" target="_top" xlink:title="The error for undefined elements in a model. ">
<polygon fill="white" stroke="black" points="742,-6 742,-63 883,-63 883,-6 742,-6"/>
<text text-anchor="middle" x="812.5" y="-51" font-family="Helvetica,sans-Serif" font-size="10.00">scram::UndefinedElement</text>
<polyline fill="none" stroke="black" points="742,-44 883,-44 "/>
<text text-anchor="middle" x="812.5" y="-32" font-family="Helvetica,sans-Serif" font-size="10.00"> </text>
<polyline fill="none" stroke="black" points="742,-25 883,-25 "/>
<text text-anchor="middle" x="812.5" y="-13" font-family="Helvetica,sans-Serif" font-size="10.00"> </text>
</a>
</g>
</g>
<!-- Node7&#45;&gt;Node11 -->
<g id="edge10" class="edge"><title>Node7&#45;&gt;Node11</title>
<path fill="none" stroke="midnightblue" d="M649.936,-103.543C675.89,-92.6873 705.533,-80.2864 732.5,-69 737.084,-67.0816 741.815,-65.1011 746.58,-63.1065"/>
<polygon fill="none" stroke="midnightblue" points="648.427,-100.38 640.552,-107.468 651.128,-106.838 648.427,-100.38"/>
</g>
</g>
</svg>
        <g id="navigator" transform="translate(0 0)" fill="#404254">
                <rect fill="#f2f5e9" fill-opacity="0.5" stroke="#606060" stroke-width=".5" x="0" y="0" width="60" height="60"/>
                <use id="zoomplus" xlink:href="#zoomPlus" x="17" y="9" onmousedown="handleZoom(evt,'in')"/>
                <use id="zoomminus" xlink:href="#zoomMin" x="42" y="9" onmousedown="handleZoom(evt,'out')"/>
                <use id="reset" xlink:href="#resetDef" x="30" y="36" onmousedown="handleReset()"/>
                <g id="arrowUp" xlink:href="#dirArrow" transform="translate(30 24)" onmousedown="handlePan(0,-1)">
                  <use xlink:href="#rim" fill="#404040">
                        <set attributeName="fill" to="#808080" begin="arrowUp.mouseover" end="arrowUp.mouseout"/>
                  </use>
                  <path fill="none" stroke="white" stroke-width="1.5" d="M0,-3.0v7 M-2.5,-0.5L0,-3.0L2.5,-0.5"/>
                </g>
                <g id="arrowRight" xlink:href="#dirArrow" transform="rotate(90) translate(36 -43)" onmousedown="handlePan(1,0)">
                  <use xlink:href="#rim" fill="#404040">
                        <set attributeName="fill" to="#808080" begin="arrowRight.mouseover" end="arrowRight.mouseout"/>
                  </use>
                  <path fill="none" stroke="white" stroke-width="1.5" d="M0,-3.0v7 M-2.5,-0.5L0,-3.0L2.5,-0.5"/>
                </g>
                <g id="arrowDown" xlink:href="#dirArrow" transform="rotate(180) translate(-30 -48)" onmousedown="handlePan(0,1)">
                  <use xlink:href="#rim" fill="#404040">
                        <set attributeName="fill" to="#808080" begin="arrowDown.mouseover" end="arrowDown.mouseout"/>
                  </use>
                  <path fill="none" stroke="white" stroke-width="1.5" d="M0,-3.0v7 M-2.5,-0.5L0,-3.0L2.5,-0.5"/>
                </g>
                <g id="arrowLeft" xlink:href="#dirArrow" transform="rotate(270) translate(-36 17)" onmousedown="handlePan(-1,0)">
                  <use xlink:href="#rim" fill="#404040">
                        <set attributeName="fill" to="#808080" begin="arrowLeft.mouseover" end="arrowLeft.mouseout"/>
                  </use>
                  <path fill="none" stroke="white" stroke-width="1.5" d="M0,-3.0v7 M-2.5,-0.5L0,-3.0L2.5,-0.5"/>
                </g>
        </g>
        <svg viewBox="0 0 15 15" width="100%" height="30px" preserveAspectRatio="xMaxYMin meet">
         <g id="arrow_out" transform="scale(0.3 0.3)">
          <a xlink:href="classscram_1_1Error__inherit__graph_org.svg" target="_base">
           <rect id="button" ry="5" rx="5" y="6" x="6" height="38" width="38"
                fill="#f2f5e9" fill-opacity="0.5" stroke="#606060" stroke-width="1.0"/>
           <path id="arrow"
             d="M 11.500037,31.436501 C 11.940474,20.09759 22.043105,11.32322 32.158766,21.979434 L 37.068811,17.246167 C 37.068811,17.246167 37.088388,32 37.088388,32 L 22.160133,31.978069 C 22.160133,31.978069 26.997745,27.140456 26.997745,27.140456 C 18.528582,18.264221 13.291696,25.230495 11.500037,31.436501 z"
             style="fill:#404040;"/>
          </a>
         </g>
        </svg>
</svg>
