<?xml version="1.0" encoding="UTF-8" standalone="no"?>
<!DOCTYPE svg PUBLIC "-//W3C//DTD SVG 1.1//EN"
 "http://www.w3.org/Graphics/SVG/1.1/DTD/svg11.dtd">
<!-- Generated by graphviz version 2.38.0 (20140413.2041)
 -->
<!-- Title: scram::Logger::report_level Pages: 1 -->
<svg width="317pt" height="66pt"
 viewBox="0.00 0.00 317.00 66.00" xmlns="http://www.w3.org/2000/svg" xmlns:xlink="http://www.w3.org/1999/xlink">
<g id="graph0" class="graph" transform="scale(1 1) rotate(0) translate(4 62)">
<title>scram::Logger::report_level</title>
<polygon fill="white" stroke="none" points="-4,4 -4,-62 313,-62 313,4 -4,4"/>
<!-- Node1 -->
<g id="node1" class="node"><title>Node1</title>
<polygon fill="#bfbfbf" stroke="black" points="0,-14 0,-44 121,-44 121,-14 0,-14"/>
<text text-anchor="start" x="8" y="-32" font-family="Helvetica,sans-Serif" font-size="10.00">scram::Logger::report</text>
<text text-anchor="middle" x="60.5" y="-21" font-family="Helvetica,sans-Serif" font-size="10.00">_level</text>
</g>
<!-- Node2 -->
<g id="node2" class="node"><title>Node2</title>
<g id="a_node2"><a xlink:href="classscram_1_1Logger.xhtml#a4758c14402d2dbc180f98edaf94effcb" target="_top" xlink:title="Returns a string stream by reference that is flushed to stderr by the Logger class destructor...">
<polygon fill="white" stroke="black" points="178.5,-38.5 178.5,-57.5 287.5,-57.5 287.5,-38.5 178.5,-38.5"/>
<text text-anchor="middle" x="233" y="-45.5" font-family="Helvetica,sans-Serif" font-size="10.00">scram::Logger::Get</text>
</a>
</g>
</g>
<!-- Node1&#45;&gt;Node2 -->
<g id="edge1" class="edge"><title>Node1&#45;&gt;Node2</title>
<path fill="none" stroke="midnightblue" d="M121.133,-35.6453C136.415,-37.3483 152.908,-39.1862 168.383,-40.9107"/>
<polygon fill="midnightblue" stroke="midnightblue" points="168.056,-44.3958 178.382,-42.0249 168.831,-37.4389 168.056,-44.3958"/>
</g>
<!-- Node3 -->
<g id="node3" class="node"><title>Node3</title>
<g id="a_node3"><a xlink:href="classscram_1_1Logger.xhtml#aebef6b78425a64649abea7dfe7b7d0bc" target="_top" xlink:title="Sets the reporting level cut&#45;off from an integer. ">
<polygon fill="white" stroke="black" points="157,-0.5 157,-19.5 309,-19.5 309,-0.5 157,-0.5"/>
<text text-anchor="middle" x="233" y="-7.5" font-family="Helvetica,sans-Serif" font-size="10.00">scram::Logger::SetVerbosity</text>
</a>
</g>
</g>
<!-- Node1&#45;&gt;Node3 -->
<g id="edge2" class="edge"><title>Node1&#45;&gt;Node3</title>
<path fill="none" stroke="midnightblue" d="M121.133,-22.3547C129.415,-21.4317 138.053,-20.4691 146.692,-19.5064"/>
<polygon fill="midnightblue" stroke="midnightblue" points="147.262,-22.9647 156.813,-18.3786 146.487,-16.0077 147.262,-22.9647"/>
</g>
</g>
</svg>
