<?xml version="1.0" encoding="UTF-8" standalone="no"?>
<!DOCTYPE svg PUBLIC "-//W3C//DTD SVG 1.1//EN"
 "http://www.w3.org/Graphics/SVG/1.1/DTD/svg11.dtd">
<!-- Generated by graphviz version 2.38.0 (20140413.2041)
 -->
<!-- Title: scram::mef::Expression::value Pages: 1 -->
<!--zoomable 908 -->
<svg id="main" version="1.1" xmlns="http://www.w3.org/2000/svg" xmlns:xlink="http://www.w3.org/1999/xlink" xml:space="preserve" onload="init(evt)">
<style type="text/css"><![CDATA[
.edge:hover path { stroke: red; }
.edge:hover polygon { stroke: red; fill: red; }
]]></style>
<script type="text/javascript"><![CDATA[
var edges = document.getElementsByTagName('g');
if (edges && edges.length) {
  for (var i=0;i<edges.length;i++) {
    if (edges[i].id.substr(0,4)=='edge') {
      edges[i].setAttribute('class','edge');
    }
  }
}
]]></script>
        <defs>
                <circle id="rim" cx="0" cy="0" r="7"/>
                <circle id="rim2" cx="0" cy="0" r="3.5"/>
                <g id="zoomPlus">
                        <use xlink:href="#rim" fill="#404040">
                                <set attributeName="fill" to="#808080" begin="zoomplus.mouseover" end="zoomplus.mouseout"/>
                        </use>
                        <path d="M-4,0h8M0,-4v8" fill="none" stroke="white" stroke-width="1.5" pointer-events="none"/>
                </g>
                <g id="zoomMin">
                        <use xlink:href="#rim" fill="#404040">
                                <set attributeName="fill" to="#808080" begin="zoomminus.mouseover" end="zoomminus.mouseout"/>
                        </use>
                        <path d="M-4,0h8" fill="none" stroke="white" stroke-width="1.5" pointer-events="none"/>
                </g>
                <g id="dirArrow">
                        <path fill="none" stroke="white" stroke-width="1.5" d="M0,-3.0v7 M-2.5,-0.5L0,-3.0L2.5,-0.5"/>
                </g>
               <g id="resetDef">
                       <use xlink:href="#rim2" fill="#404040">
                               <set attributeName="fill" to="#808080" begin="reset.mouseover" end="reset.mouseout"/>
                       </use>
               </g>
        </defs>

<script type="text/javascript">
var viewWidth = 550;
var viewHeight = 908;
var sectionId = 'dynsection-4';
</script>
<script xlink:href="svgpan.js"/>
<svg id="graph" class="graph">
<g id="viewport">
<title>scram::mef::Expression::value</title>
<polygon fill="white" stroke="none" points="-4,4 -4,-903.5 546,-903.5 546,4 -4,4"/>
<!-- Node1 -->
<g id="node1" class="node"><title>Node1</title>
<polygon fill="#bfbfbf" stroke="black" points="0,-451.5 0,-481.5 129,-481.5 129,-451.5 0,-451.5"/>
<text text-anchor="start" x="8" y="-469.5" font-family="Helvetica,sans-Serif" font-size="10.00">scram::mef::Expression</text>
<text text-anchor="middle" x="64.5" y="-458.5" font-family="Helvetica,sans-Serif" font-size="10.00">::value</text>
</g>
<!-- Node2 -->
<g id="node2" class="node"><title>Node2</title>
<g id="a_node2"><a xlink:href="classscram_1_1mef_1_1CcfGroup.xhtml#ab399c5ed0c1d7d0a316ac3b7244b7eb9" target="_top" xlink:title="Processes the given factors and members to create common cause failure probabilities and new events t...">
<polygon fill="white" stroke="black" points="188,-840.5 188,-870.5 310,-870.5 310,-840.5 188,-840.5"/>
<text text-anchor="start" x="196" y="-858.5" font-family="Helvetica,sans-Serif" font-size="10.00">scram::mef::CcfGroup</text>
<text text-anchor="middle" x="249" y="-847.5" font-family="Helvetica,sans-Serif" font-size="10.00">::ApplyModel</text>
</a>
</g>
</g>
<!-- Node1&#45;&gt;Node2 -->
<g id="edge1" class="edge"><title>Node1&#45;&gt;Node2</title>
<path fill="none" stroke="midnightblue" d="M65.0453,-491.861C65.2838,-556.314 74.8413,-728.17 165,-825.5 171.352,-832.357 179.389,-837.649 187.948,-841.733"/>
<polygon fill="midnightblue" stroke="midnightblue" points="68.5454,-491.802 65.0836,-481.788 61.5455,-491.775 68.5454,-491.802"/>
</g>
<!-- Node3 -->
<g id="node3" class="node"><title>Node3</title>
<g id="a_node3"><a xlink:href="expression_8h.xhtml#aee12bbf581047eae146d411cef0585b9" target="_top" xlink:title="Ensures that expression yields non&#45;negative (&gt;= 0) values. ">
<polygon fill="white" stroke="black" points="369,-862 369,-881 542,-881 542,-862 369,-862"/>
<text text-anchor="middle" x="455.5" y="-869" font-family="Helvetica,sans-Serif" font-size="10.00">scram::mef::EnsureNonNegative</text>
</a>
</g>
</g>
<!-- Node1&#45;&gt;Node3 -->
<g id="edge2" class="edge"><title>Node1&#45;&gt;Node3</title>
<path fill="none" stroke="midnightblue" d="M65.7627,-491.653C67.7903,-551.224 81.3856,-702.019 165,-783.5 220.615,-837.696 261.572,-801.032 333,-831.5 350.038,-838.768 351.753,-845.744 369,-852.5 378.628,-856.272 389.173,-859.38 399.47,-861.912"/>
<polygon fill="midnightblue" stroke="midnightblue" points="69.2609,-491.535 65.5044,-481.628 62.2632,-491.715 69.2609,-491.535"/>
</g>
<!-- Node4 -->
<g id="node4" class="node"><title>Node4</title>
<g id="a_node4"><a xlink:href="expression_8h.xhtml#a051e7ad7c13edf0451ea5db7caf17729" target="_top" xlink:title="Ensures that expression yields positive (&gt; 0) values. ">
<polygon fill="white" stroke="black" points="382,-806 382,-825 529,-825 529,-806 382,-806"/>
<text text-anchor="middle" x="455.5" y="-813" font-family="Helvetica,sans-Serif" font-size="10.00">scram::mef::EnsurePositive</text>
</a>
</g>
</g>
<!-- Node1&#45;&gt;Node4 -->
<g id="edge4" class="edge"><title>Node1&#45;&gt;Node4</title>
<path fill="none" stroke="midnightblue" d="M66.6524,-491.771C70.5955,-547.081 88.0213,-679.424 165,-748.5 182.518,-764.22 322.187,-791.577 400.943,-805.99"/>
<polygon fill="midnightblue" stroke="midnightblue" points="70.145,-491.541 66.0299,-481.778 63.1585,-491.976 70.145,-491.541"/>
</g>
<!-- Node5 -->
<g id="node5" class="node"><title>Node5</title>
<g id="a_node5"><a xlink:href="expression_8h.xhtml#a958c404b31cdb929075b67827e31f4de" target="_top" xlink:title="Ensures that expression can be used for probability ([0, 1]). ">
<polygon fill="white" stroke="black" points="375.5,-750 375.5,-769 535.5,-769 535.5,-750 375.5,-750"/>
<text text-anchor="middle" x="455.5" y="-757" font-family="Helvetica,sans-Serif" font-size="10.00">scram::mef::EnsureProbability</text>
</a>
</g>
</g>
<!-- Node1&#45;&gt;Node5 -->
<g id="edge6" class="edge"><title>Node1&#45;&gt;Node5</title>
<path fill="none" stroke="midnightblue" d="M67.4965,-491.808C73.0047,-543.181 93.1781,-659.63 165,-716.5 196.719,-741.616 301.004,-752.124 375.297,-756.479"/>
<polygon fill="midnightblue" stroke="midnightblue" points="70.9555,-491.215 66.5063,-481.6 63.9882,-491.891 70.9555,-491.215"/>
</g>
<!-- Node6 -->
<g id="node6" class="node"><title>Node6</title>
<g id="a_node6"><a xlink:href="expression_8h.xhtml#acfed368a4876558582c7b15a0af3330e" target="_top" xlink:title="Ensures that expression values are within the interval. ">
<polygon fill="white" stroke="black" points="386,-546 386,-565 525,-565 525,-546 386,-546"/>
<text text-anchor="middle" x="455.5" y="-553" font-family="Helvetica,sans-Serif" font-size="10.00">scram::mef::EnsureWithin</text>
</a>
</g>
</g>
<!-- Node1&#45;&gt;Node6 -->
<g id="edge8" class="edge"><title>Node1&#45;&gt;Node6</title>
<path fill="none" stroke="midnightblue" d="M72.3349,-491.429C84.1491,-529.045 112.339,-599.043 165,-628.5 230.165,-664.951 263.817,-656.587 333,-628.5 353.676,-620.106 350.517,-606.004 369,-593.5 386.894,-581.395 409.273,-571.611 426.646,-565.004"/>
<polygon fill="midnightblue" stroke="midnightblue" points="75.6541,-490.312 69.4302,-481.738 68.9489,-492.322 75.6541,-490.312"/>
</g>
<!-- Node7 -->
<g id="node7" class="node"><title>Node7</title>
<g id="a_node7"><a xlink:href="classscram_1_1mef_1_1NormalDeviate.xhtml#a502421d76dd262810fd70aed68f742e0" target="_top" xlink:title="scram::mef::NormalDeviate\l::interval">
<polygon fill="white" stroke="black" points="174.5,-500.5 174.5,-530.5 323.5,-530.5 323.5,-500.5 174.5,-500.5"/>
<text text-anchor="start" x="182.5" y="-518.5" font-family="Helvetica,sans-Serif" font-size="10.00">scram::mef::NormalDeviate</text>
<text text-anchor="middle" x="249" y="-507.5" font-family="Helvetica,sans-Serif" font-size="10.00">::interval</text>
</a>
</g>
</g>
<!-- Node1&#45;&gt;Node7 -->
<g id="edge10" class="edge"><title>Node1&#45;&gt;Node7</title>
<path fill="none" stroke="midnightblue" d="M131.604,-484.248C151.383,-489.559 172.872,-495.329 191.941,-500.448"/>
<polygon fill="midnightblue" stroke="midnightblue" points="132.311,-480.814 121.745,-481.601 130.495,-487.575 132.311,-480.814"/>
</g>
<!-- Node8 -->
<g id="node8" class="node"><title>Node8</title>
<g id="a_node8"><a xlink:href="classscram_1_1mef_1_1Expression.xhtml#a179b21e75df522673e6d51b784d10e86" target="_top" xlink:title="scram::mef::Expression\l::interval">
<polygon fill="white" stroke="black" points="184.5,-676.5 184.5,-706.5 313.5,-706.5 313.5,-676.5 184.5,-676.5"/>
<text text-anchor="start" x="192.5" y="-694.5" font-family="Helvetica,sans-Serif" font-size="10.00">scram::mef::Expression</text>
<text text-anchor="middle" x="249" y="-683.5" font-family="Helvetica,sans-Serif" font-size="10.00">::interval</text>
</a>
</g>
</g>
<!-- Node1&#45;&gt;Node8 -->
<g id="edge11" class="edge"><title>Node1&#45;&gt;Node8</title>
<path fill="none" stroke="midnightblue" d="M71.7205,-491.283C83.2564,-532.33 111.777,-614.545 165,-661.5 171.894,-667.582 180.116,-672.461 188.664,-676.367"/>
<polygon fill="midnightblue" stroke="midnightblue" points="75.0777,-490.29 69.0889,-481.55 68.3203,-492.117 75.0777,-490.29"/>
</g>
<!-- Node10 -->
<g id="node10" class="node"><title>Node10</title>
<g id="a_node10"><a xlink:href="classscram_1_1mef_1_1LognormalDeviate.xhtml#a18f3499d5d98d1af462db56d07069997" target="_top" xlink:title="scram::mef::LognormalDeviate\l::value">
<polygon fill="white" stroke="black" points="373,-496.5 373,-526.5 538,-526.5 538,-496.5 373,-496.5"/>
<text text-anchor="start" x="381" y="-514.5" font-family="Helvetica,sans-Serif" font-size="10.00">scram::mef::LognormalDeviate</text>
<text text-anchor="middle" x="455.5" y="-503.5" font-family="Helvetica,sans-Serif" font-size="10.00">::value</text>
</a>
</g>
</g>
<!-- Node1&#45;&gt;Node10 -->
<g id="edge29" class="edge"><title>Node1&#45;&gt;Node10</title>
<path fill="none" stroke="midnightblue" d="M86.923,-488.968C105.597,-506.807 134.421,-530.376 165,-540.5 235.882,-563.969 258.845,-549.227 333,-540.5 356.368,-537.75 381.753,-532.122 403.248,-526.549"/>
<polygon fill="midnightblue" stroke="midnightblue" points="89.1487,-486.248 79.5655,-481.73 84.2394,-491.238 89.1487,-486.248"/>
</g>
<!-- Node13 -->
<g id="node13" class="node"><title>Node13</title>
<g id="a_node13"><a xlink:href="classscram_1_1mef_1_1GammaDeviate.xhtml#a76d78aab0bcd2e472abb3e001e455f1f" target="_top" xlink:title="The high is 99 percentile. ">
<polygon fill="white" stroke="black" points="172.5,-451.5 172.5,-481.5 325.5,-481.5 325.5,-451.5 172.5,-451.5"/>
<text text-anchor="start" x="180.5" y="-469.5" font-family="Helvetica,sans-Serif" font-size="10.00">scram::mef::GammaDeviate</text>
<text text-anchor="middle" x="249" y="-458.5" font-family="Helvetica,sans-Serif" font-size="10.00">::interval</text>
</a>
</g>
</g>
<!-- Node1&#45;&gt;Node13 -->
<g id="edge20" class="edge"><title>Node1&#45;&gt;Node13</title>
<path fill="none" stroke="midnightblue" d="M139.386,-466.5C150.273,-466.5 161.503,-466.5 172.424,-466.5"/>
<polygon fill="midnightblue" stroke="midnightblue" points="139.073,-463 129.073,-466.5 139.073,-470 139.073,-463"/>
</g>
<!-- Node14 -->
<g id="node14" class="node"><title>Node14</title>
<g id="a_node14"><a xlink:href="classscram_1_1mef_1_1BetaDeviate.xhtml#ad019a413a7e7a2e6602db98e74792450" target="_top" xlink:title="scram::mef::BetaDeviate\l::interval">
<polygon fill="white" stroke="black" points="180.5,-402.5 180.5,-432.5 317.5,-432.5 317.5,-402.5 180.5,-402.5"/>
<text text-anchor="start" x="188.5" y="-420.5" font-family="Helvetica,sans-Serif" font-size="10.00">scram::mef::BetaDeviate</text>
<text text-anchor="middle" x="249" y="-409.5" font-family="Helvetica,sans-Serif" font-size="10.00">::interval</text>
</a>
</g>
</g>
<!-- Node1&#45;&gt;Node14 -->
<g id="edge21" class="edge"><title>Node1&#45;&gt;Node14</title>
<path fill="none" stroke="midnightblue" d="M131.604,-448.752C151.383,-443.441 172.872,-437.671 191.941,-432.552"/>
<polygon fill="midnightblue" stroke="midnightblue" points="130.495,-445.425 121.745,-451.399 132.311,-452.186 130.495,-445.425"/>
</g>
<!-- Node15 -->
<g id="node15" class="node"><title>Node15</title>
<g id="a_node15"><a xlink:href="classscram_1_1mef_1_1Histogram.xhtml#a4aab126e9ab267847d9dbd78cedf0682" target="_top" xlink:title="scram::mef::Histogram\l::interval">
<polygon fill="white" stroke="black" points="185,-353.5 185,-383.5 313,-383.5 313,-353.5 185,-353.5"/>
<text text-anchor="start" x="193" y="-371.5" font-family="Helvetica,sans-Serif" font-size="10.00">scram::mef::Histogram</text>
<text text-anchor="middle" x="249" y="-360.5" font-family="Helvetica,sans-Serif" font-size="10.00">::interval</text>
</a>
</g>
</g>
<!-- Node1&#45;&gt;Node15 -->
<g id="edge22" class="edge"><title>Node1&#45;&gt;Node15</title>
<path fill="none" stroke="midnightblue" d="M89.968,-444.842C109.216,-428.76 137.321,-407.309 165,-393.5 172.541,-389.738 180.755,-386.425 188.986,-383.546"/>
<polygon fill="midnightblue" stroke="midnightblue" points="87.6425,-442.225 82.2884,-451.368 92.1752,-447.56 87.6425,-442.225"/>
</g>
<!-- Node16 -->
<g id="node16" class="node"><title>Node16</title>
<g id="a_node16"><a xlink:href="classscram_1_1mef_1_1UniformDeviate.xhtml#a558a657077fa6d4c1000d21863d56fda" target="_top" xlink:title="scram::mef::UniformDeviate\l::Validate">
<polygon fill="white" stroke="black" points="173,-304.5 173,-334.5 325,-334.5 325,-304.5 173,-304.5"/>
<text text-anchor="start" x="181" y="-322.5" font-family="Helvetica,sans-Serif" font-size="10.00">scram::mef::UniformDeviate</text>
<text text-anchor="middle" x="249" y="-311.5" font-family="Helvetica,sans-Serif" font-size="10.00">::Validate</text>
</a>
</g>
</g>
<!-- Node1&#45;&gt;Node16 -->
<g id="edge23" class="edge"><title>Node1&#45;&gt;Node16</title>
<path fill="none" stroke="midnightblue" d="M78.8899,-442.659C95.5773,-415.075 126.629,-370.169 165,-344.5 170.754,-340.651 177.12,-337.378 183.692,-334.598"/>
<polygon fill="midnightblue" stroke="midnightblue" points="75.8605,-440.906 73.7916,-451.297 81.8888,-444.464 75.8605,-440.906"/>
</g>
<!-- Node17 -->
<g id="node17" class="node"><title>Node17</title>
<g id="a_node17"><a xlink:href="classscram_1_1mef_1_1NormalDeviate.xhtml#a00e2955e101aa9725b2dd503c5f4c61a" target="_top" xlink:title="scram::mef::NormalDeviate\l::Validate">
<polygon fill="white" stroke="black" points="174.5,-255.5 174.5,-285.5 323.5,-285.5 323.5,-255.5 174.5,-255.5"/>
<text text-anchor="start" x="182.5" y="-273.5" font-family="Helvetica,sans-Serif" font-size="10.00">scram::mef::NormalDeviate</text>
<text text-anchor="middle" x="249" y="-262.5" font-family="Helvetica,sans-Serif" font-size="10.00">::Validate</text>
</a>
</g>
</g>
<!-- Node1&#45;&gt;Node17 -->
<g id="edge24" class="edge"><title>Node1&#45;&gt;Node17</title>
<path fill="none" stroke="midnightblue" d="M73.2591,-441.822C86.2261,-404.594 115.835,-334.306 165,-295.5 169.843,-291.677 175.264,-288.438 180.953,-285.693"/>
<polygon fill="midnightblue" stroke="midnightblue" points="69.9109,-440.798 70.0407,-451.392 76.5458,-443.03 69.9109,-440.798"/>
</g>
<!-- Node18 -->
<g id="node18" class="node"><title>Node18</title>
<g id="a_node18"><a xlink:href="classscram_1_1mef_1_1Expression.xhtml#af3e09d926b52f6077aa85c26454c4e18" target="_top" xlink:title="Validates the expression. ">
<polygon fill="white" stroke="black" points="184.5,-588.5 184.5,-618.5 313.5,-618.5 313.5,-588.5 184.5,-588.5"/>
<text text-anchor="start" x="192.5" y="-606.5" font-family="Helvetica,sans-Serif" font-size="10.00">scram::mef::Expression</text>
<text text-anchor="middle" x="249" y="-595.5" font-family="Helvetica,sans-Serif" font-size="10.00">::Validate</text>
</a>
</g>
</g>
<!-- Node1&#45;&gt;Node18 -->
<g id="edge25" class="edge"><title>Node1&#45;&gt;Node18</title>
<path fill="none" stroke="midnightblue" d="M81.9982,-489.975C99.9469,-513.963 130.703,-550.82 165,-573.5 173.946,-579.416 184.206,-584.34 194.392,-588.372"/>
<polygon fill="midnightblue" stroke="midnightblue" points="84.7177,-487.765 75.9821,-481.77 79.0724,-491.904 84.7177,-487.765"/>
</g>
<!-- Node19 -->
<g id="node19" class="node"><title>Node19</title>
<g id="a_node19"><a xlink:href="classscram_1_1mef_1_1GammaDeviate.xhtml#a4e6270b70787e8ab6f58c605ddebf674" target="_top" xlink:title="scram::mef::GammaDeviate\l::Validate">
<polygon fill="white" stroke="black" points="172.5,-206.5 172.5,-236.5 325.5,-236.5 325.5,-206.5 172.5,-206.5"/>
<text text-anchor="start" x="180.5" y="-224.5" font-family="Helvetica,sans-Serif" font-size="10.00">scram::mef::GammaDeviate</text>
<text text-anchor="middle" x="249" y="-213.5" font-family="Helvetica,sans-Serif" font-size="10.00">::Validate</text>
</a>
</g>
</g>
<!-- Node1&#45;&gt;Node19 -->
<g id="edge27" class="edge"><title>Node1&#45;&gt;Node19</title>
<path fill="none" stroke="midnightblue" d="M69.8125,-441.48C78.9802,-395.928 104.715,-299.3 165,-246.5 169.415,-242.633 174.411,-239.364 179.709,-236.601"/>
<polygon fill="midnightblue" stroke="midnightblue" points="66.3557,-440.923 67.9178,-451.402 73.2315,-442.236 66.3557,-440.923"/>
</g>
<!-- Node20 -->
<g id="node20" class="node"><title>Node20</title>
<g id="a_node20"><a xlink:href="classscram_1_1mef_1_1BetaDeviate.xhtml#aa65f2fd1412e180085e80bbcbace562b" target="_top" xlink:title="scram::mef::BetaDeviate\l::Validate">
<polygon fill="white" stroke="black" points="180.5,-157.5 180.5,-187.5 317.5,-187.5 317.5,-157.5 180.5,-157.5"/>
<text text-anchor="start" x="188.5" y="-175.5" font-family="Helvetica,sans-Serif" font-size="10.00">scram::mef::BetaDeviate</text>
<text text-anchor="middle" x="249" y="-164.5" font-family="Helvetica,sans-Serif" font-size="10.00">::Validate</text>
</a>
</g>
</g>
<!-- Node1&#45;&gt;Node20 -->
<g id="edge28" class="edge"><title>Node1&#45;&gt;Node20</title>
<path fill="none" stroke="midnightblue" d="M67.4919,-441.295C73.0411,-388.335 93.365,-264.845 165,-197.5 169.496,-193.274 174.68,-189.76 180.217,-186.839"/>
<polygon fill="midnightblue" stroke="midnightblue" points="63.9858,-441.193 66.5188,-451.48 70.9541,-441.858 63.9858,-441.193"/>
</g>
<!-- Node21 -->
<g id="node21" class="node"><title>Node21</title>
<g id="a_node21"><a xlink:href="classscram_1_1mef_1_1ExpressionFormula.xhtml#a1f7c71744d679ab1a4e5ca3ca98277a6" target="_top" xlink:title="Computes the expression with argument expression default values. ">
<polygon fill="white" stroke="black" points="165,-98 165,-139 333,-139 333,-98 165,-98"/>
<text text-anchor="start" x="173" y="-127" font-family="Helvetica,sans-Serif" font-size="10.00">scram::mef::ExpressionFormula</text>
<text text-anchor="start" x="173" y="-116" font-family="Helvetica,sans-Serif" font-size="10.00">&lt; NaryExpression&lt; T, 1 &gt;</text>
<text text-anchor="middle" x="249" y="-105" font-family="Helvetica,sans-Serif" font-size="10.00"> &gt;::value</text>
</a>
</g>
</g>
<!-- Node1&#45;&gt;Node21 -->
<g id="edge30" class="edge"><title>Node1&#45;&gt;Node21</title>
<path fill="none" stroke="midnightblue" d="M66.0421,-441.137C68.6893,-381.633 83.5549,-231.745 165,-147.5 167.971,-144.427 171.284,-141.68 174.831,-139.223"/>
<polygon fill="midnightblue" stroke="midnightblue" points="62.532,-441.354 65.6679,-451.474 69.5274,-441.607 62.532,-441.354"/>
</g>
<!-- Node22 -->
<g id="node22" class="node"><title>Node22</title>
<g id="a_node22"><a xlink:href="classscram_1_1mef_1_1Histogram.xhtml#a2ea1258aa096f32013766848a318eb7f" target="_top" xlink:title="scram::mef::Histogram\l::value">
<polygon fill="white" stroke="black" points="185,-49.5 185,-79.5 313,-79.5 313,-49.5 185,-49.5"/>
<text text-anchor="start" x="193" y="-67.5" font-family="Helvetica,sans-Serif" font-size="10.00">scram::mef::Histogram</text>
<text text-anchor="middle" x="249" y="-56.5" font-family="Helvetica,sans-Serif" font-size="10.00">::value</text>
</a>
</g>
</g>
<!-- Node1&#45;&gt;Node22 -->
<g id="edge31" class="edge"><title>Node1&#45;&gt;Node22</title>
<path fill="none" stroke="midnightblue" d="M68.9159,-440.962C79.6265,-364.559 114.849,-139.874 165,-88.5 170.553,-82.8112 177.365,-78.4492 184.675,-75.1085"/>
<polygon fill="midnightblue" stroke="midnightblue" points="65.4141,-440.736 67.5147,-451.121 72.3484,-441.693 65.4141,-440.736"/>
</g>
<!-- Node23 -->
<g id="node23" class="node"><title>Node23</title>
<g id="a_node23"><a xlink:href="classscram_1_1mef_1_1InstructionVisitor.xhtml#a100bdabeea8503c87dd349eda22e3b14" target="_top" xlink:title="A set of required visitation functions for concrete visitors to implement. ">
<polygon fill="white" stroke="black" points="170,-0.5 170,-30.5 328,-30.5 328,-0.5 170,-0.5"/>
<text text-anchor="start" x="178" y="-18.5" font-family="Helvetica,sans-Serif" font-size="10.00">scram::mef::InstructionVisitor</text>
<text text-anchor="middle" x="249" y="-7.5" font-family="Helvetica,sans-Serif" font-size="10.00">::Visit</text>
</a>
</g>
</g>
<!-- Node1&#45;&gt;Node23 -->
<g id="edge32" class="edge"><title>Node1&#45;&gt;Node23</title>
<path fill="none" stroke="midnightblue" d="M68.0823,-440.998C76.9645,-358.178 108.843,-98.6877 165,-39.5 168.201,-36.1267 171.843,-33.2185 175.774,-30.7121"/>
<polygon fill="midnightblue" stroke="midnightblue" points="64.5902,-440.74 67.0249,-451.051 71.5518,-441.472 64.5902,-440.74"/>
</g>
<!-- Node3&#45;&gt;Node3 -->
<g id="edge3" class="edge"><title>Node3&#45;&gt;Node3</title>
<path fill="none" stroke="midnightblue" d="M416.894,-888.614C416.315,-894.626 429.184,-899.5 455.5,-899.5 492.113,-899.5 502.697,-890.065 487.251,-881.257"/>
<polygon fill="midnightblue" stroke="midnightblue" points="419.492,-890.959 423.749,-881.257 414.371,-886.187 419.492,-890.959"/>
</g>
<!-- Node4&#45;&gt;Node4 -->
<g id="edge5" class="edge"><title>Node4&#45;&gt;Node4</title>
<path fill="none" stroke="midnightblue" d="M416.894,-832.614C416.315,-838.626 429.184,-843.5 455.5,-843.5 492.113,-843.5 502.697,-834.065 487.251,-825.257"/>
<polygon fill="midnightblue" stroke="midnightblue" points="419.492,-834.959 423.749,-825.257 414.371,-830.187 419.492,-834.959"/>
</g>
<!-- Node5&#45;&gt;Node5 -->
<g id="edge7" class="edge"><title>Node5&#45;&gt;Node5</title>
<path fill="none" stroke="midnightblue" d="M416.894,-776.614C416.315,-782.626 429.184,-787.5 455.5,-787.5 492.113,-787.5 502.697,-778.065 487.251,-769.257"/>
<polygon fill="midnightblue" stroke="midnightblue" points="419.492,-778.959 423.749,-769.257 414.371,-774.187 419.492,-778.959"/>
</g>
<!-- Node6&#45;&gt;Node6 -->
<g id="edge9" class="edge"><title>Node6&#45;&gt;Node6</title>
<path fill="none" stroke="midnightblue" d="M416.894,-572.614C416.315,-578.626 429.184,-583.5 455.5,-583.5 492.113,-583.5 502.697,-574.065 487.251,-565.257"/>
<polygon fill="midnightblue" stroke="midnightblue" points="419.492,-574.959 423.749,-565.257 414.371,-570.187 419.492,-574.959"/>
</g>
<!-- Node8&#45;&gt;Node3 -->
<g id="edge15" class="edge"><title>Node8&#45;&gt;Node3</title>
<path fill="none" stroke="midnightblue" d="M268.877,-714.438C286.088,-735.621 311.962,-768.152 333,-797.5 350.021,-821.245 344.97,-835.885 369,-852.5 374.628,-856.392 380.92,-859.502 387.467,-861.986"/>
<polygon fill="midnightblue" stroke="midnightblue" points="271.546,-712.172 262.513,-706.636 266.122,-716.597 271.546,-712.172"/>
</g>
<!-- Node8&#45;&gt;Node4 -->
<g id="edge14" class="edge"><title>Node8&#45;&gt;Node4</title>
<path fill="none" stroke="midnightblue" d="M277.777,-712.97C294.22,-725.992 315.239,-743.193 333,-759.5 349.901,-775.017 348.963,-785.322 369,-796.5 375.905,-800.352 383.533,-803.424 391.304,-805.872"/>
<polygon fill="midnightblue" stroke="midnightblue" points="279.662,-709.999 269.638,-706.568 275.334,-715.501 279.662,-709.999"/>
</g>
<!-- Node8&#45;&gt;Node5 -->
<g id="edge13" class="edge"><title>Node8&#45;&gt;Node5</title>
<path fill="none" stroke="midnightblue" d="M304.674,-710.039C314.208,-713.618 323.961,-717.504 333,-721.5 349.547,-728.815 352.019,-734.26 369,-740.5 379.134,-744.224 390.223,-747.343 400.958,-749.908"/>
<polygon fill="midnightblue" stroke="midnightblue" points="305.842,-706.739 295.249,-706.57 303.425,-713.308 305.842,-706.739"/>
</g>
<!-- Node8&#45;&gt;Node6 -->
<g id="edge16" class="edge"><title>Node8&#45;&gt;Node6</title>
<path fill="none" stroke="midnightblue" d="M318.053,-671.843C323.406,-668.855 328.48,-665.427 333,-661.5 358.813,-639.071 344.004,-616.836 369,-593.5 383.248,-580.198 402.926,-571.017 419.811,-565.016"/>
<polygon fill="midnightblue" stroke="midnightblue" points="316.198,-668.858 308.827,-676.469 319.335,-675.115 316.198,-668.858"/>
</g>
<!-- Node9 -->
<g id="node9" class="node"><title>Node9</title>
<g id="a_node9"><a xlink:href="classscram_1_1mef_1_1Switch.xhtml#aece696754288dcbdbcda71355da80a19" target="_top" xlink:title="scram::mef::Switch\l::interval">
<polygon fill="white" stroke="black" points="401.5,-700.5 401.5,-730.5 509.5,-730.5 509.5,-700.5 401.5,-700.5"/>
<text text-anchor="start" x="409.5" y="-718.5" font-family="Helvetica,sans-Serif" font-size="10.00">scram::mef::Switch</text>
<text text-anchor="middle" x="455.5" y="-707.5" font-family="Helvetica,sans-Serif" font-size="10.00">::interval</text>
</a>
</g>
</g>
<!-- Node8&#45;&gt;Node9 -->
<g id="edge12" class="edge"><title>Node8&#45;&gt;Node9</title>
<path fill="none" stroke="midnightblue" d="M323.649,-700.143C349.312,-703.155 377.589,-706.474 401.271,-709.253"/>
<polygon fill="midnightblue" stroke="midnightblue" points="323.924,-696.652 313.584,-698.962 323.108,-703.604 323.924,-696.652"/>
</g>
<!-- Node8&#45;&gt;Node10 -->
<g id="edge17" class="edge"><title>Node8&#45;&gt;Node10</title>
<path fill="none" stroke="midnightblue" d="M285.783,-670.726C301.98,-659.855 320.298,-645.304 333,-628.5 359.477,-593.473 336.609,-566.143 369,-536.5 373.221,-532.637 378.008,-529.368 383.109,-526.603"/>
<polygon fill="midnightblue" stroke="midnightblue" points="283.544,-668.006 277.051,-676.378 287.348,-673.882 283.544,-668.006"/>
</g>
<!-- Node11 -->
<g id="node11" class="node"><title>Node11</title>
<g id="a_node11"><a xlink:href="classscram_1_1mef_1_1GammaDeviate.xhtml#aac9dd9e446203c28033a32385a68570c" target="_top" xlink:title="scram::mef::GammaDeviate\l::value">
<polygon fill="white" stroke="black" points="379,-651.5 379,-681.5 532,-681.5 532,-651.5 379,-651.5"/>
<text text-anchor="start" x="387" y="-669.5" font-family="Helvetica,sans-Serif" font-size="10.00">scram::mef::GammaDeviate</text>
<text text-anchor="middle" x="455.5" y="-658.5" font-family="Helvetica,sans-Serif" font-size="10.00">::value</text>
</a>
</g>
</g>
<!-- Node8&#45;&gt;Node11 -->
<g id="edge18" class="edge"><title>Node8&#45;&gt;Node11</title>
<path fill="none" stroke="midnightblue" d="M323.672,-682.494C341.576,-680.305 360.752,-677.961 378.751,-675.76"/>
<polygon fill="midnightblue" stroke="midnightblue" points="323.085,-679.039 313.584,-683.727 323.935,-685.987 323.085,-679.039"/>
</g>
<!-- Node12 -->
<g id="node12" class="node"><title>Node12</title>
<g id="a_node12"><a xlink:href="classscram_1_1mef_1_1BetaDeviate.xhtml#a23cf22ef291bb47601ddefd7640fe93a" target="_top" xlink:title="scram::mef::BetaDeviate\l::value">
<polygon fill="white" stroke="black" points="387,-602.5 387,-632.5 524,-632.5 524,-602.5 387,-602.5"/>
<text text-anchor="start" x="395" y="-620.5" font-family="Helvetica,sans-Serif" font-size="10.00">scram::mef::BetaDeviate</text>
<text text-anchor="middle" x="455.5" y="-609.5" font-family="Helvetica,sans-Serif" font-size="10.00">::value</text>
</a>
</g>
</g>
<!-- Node8&#45;&gt;Node12 -->
<g id="edge19" class="edge"><title>Node8&#45;&gt;Node12</title>
<path fill="none" stroke="midnightblue" d="M304.674,-672.961C314.208,-669.382 323.961,-665.496 333,-661.5 349.547,-654.185 352.233,-649.295 369,-642.5 377.886,-638.899 387.483,-635.575 396.926,-632.606"/>
<polygon fill="midnightblue" stroke="midnightblue" points="303.425,-669.692 295.249,-676.43 305.842,-676.261 303.425,-669.692"/>
</g>
<!-- Node18&#45;&gt;Node10 -->
<g id="edge26" class="edge"><title>Node18&#45;&gt;Node10</title>
<path fill="none" stroke="midnightblue" d="M312.748,-584.324C319.81,-581.154 326.715,-577.555 333,-573.5 352.28,-561.062 349.342,-548.331 369,-536.5 375.36,-532.672 382.341,-529.401 389.487,-526.612"/>
<polygon fill="midnightblue" stroke="midnightblue" points="310.936,-581.288 303.067,-588.383 313.642,-587.744 310.936,-581.288"/>
</g>
</g>
</svg>
        <g id="navigator" transform="translate(0 0)" fill="#404254">
                <rect fill="#f2f5e9" fill-opacity="0.5" stroke="#606060" stroke-width=".5" x="0" y="0" width="60" height="60"/>
                <use id="zoomplus" xlink:href="#zoomPlus" x="17" y="9" onmousedown="handleZoom(evt,'in')"/>
                <use id="zoomminus" xlink:href="#zoomMin" x="42" y="9" onmousedown="handleZoom(evt,'out')"/>
                <use id="reset" xlink:href="#resetDef" x="30" y="36" onmousedown="handleReset()"/>
                <g id="arrowUp" xlink:href="#dirArrow" transform="translate(30 24)" onmousedown="handlePan(0,-1)">
                  <use xlink:href="#rim" fill="#404040">
                        <set attributeName="fill" to="#808080" begin="arrowUp.mouseover" end="arrowUp.mouseout"/>
                  </use>
                  <path fill="none" stroke="white" stroke-width="1.5" d="M0,-3.0v7 M-2.5,-0.5L0,-3.0L2.5,-0.5"/>
                </g>
                <g id="arrowRight" xlink:href="#dirArrow" transform="rotate(90) translate(36 -43)" onmousedown="handlePan(1,0)">
                  <use xlink:href="#rim" fill="#404040">
                        <set attributeName="fill" to="#808080" begin="arrowRight.mouseover" end="arrowRight.mouseout"/>
                  </use>
                  <path fill="none" stroke="white" stroke-width="1.5" d="M0,-3.0v7 M-2.5,-0.5L0,-3.0L2.5,-0.5"/>
                </g>
                <g id="arrowDown" xlink:href="#dirArrow" transform="rotate(180) translate(-30 -48)" onmousedown="handlePan(0,1)">
                  <use xlink:href="#rim" fill="#404040">
                        <set attributeName="fill" to="#808080" begin="arrowDown.mouseover" end="arrowDown.mouseout"/>
                  </use>
                  <path fill="none" stroke="white" stroke-width="1.5" d="M0,-3.0v7 M-2.5,-0.5L0,-3.0L2.5,-0.5"/>
                </g>
                <g id="arrowLeft" xlink:href="#dirArrow" transform="rotate(270) translate(-36 17)" onmousedown="handlePan(-1,0)">
                  <use xlink:href="#rim" fill="#404040">
                        <set attributeName="fill" to="#808080" begin="arrowLeft.mouseover" end="arrowLeft.mouseout"/>
                  </use>
                  <path fill="none" stroke="white" stroke-width="1.5" d="M0,-3.0v7 M-2.5,-0.5L0,-3.0L2.5,-0.5"/>
                </g>
        </g>
        <svg viewBox="0 0 15 15" width="100%" height="30px" preserveAspectRatio="xMaxYMin meet">
         <g id="arrow_out" transform="scale(0.3 0.3)">
          <a xlink:href="classscram_1_1mef_1_1Expression_af4c1a5cb29e8f45623a99742b7ba8bc5_icgraph_org.svg" target="_base">
           <rect id="button" ry="5" rx="5" y="6" x="6" height="38" width="38"
                fill="#f2f5e9" fill-opacity="0.5" stroke="#606060" stroke-width="1.0"/>
           <path id="arrow"
             d="M 11.500037,31.436501 C 11.940474,20.09759 22.043105,11.32322 32.158766,21.979434 L 37.068811,17.246167 C 37.068811,17.246167 37.088388,32 37.088388,32 L 22.160133,31.978069 C 22.160133,31.978069 26.997745,27.140456 26.997745,27.140456 C 18.528582,18.264221 13.291696,25.230495 11.500037,31.436501 z"
             style="fill:#404040;"/>
          </a>
         </g>
        </svg>
</svg>
