<?xml version="1.0" encoding="UTF-8" standalone="no"?>
<!DOCTYPE svg PUBLIC "-//W3C//DTD SVG 1.1//EN"
 "http://www.w3.org/Graphics/SVG/1.1/DTD/svg11.dtd">
<!-- Generated by graphviz version 2.38.0 (20140413.2041)
 -->
<!-- Title: scram::mef::CcfGroup::ApplyModel Pages: 1 -->
<svg width="614pt" height="225pt"
 viewBox="0.00 0.00 614.00 225.00" xmlns="http://www.w3.org/2000/svg" xmlns:xlink="http://www.w3.org/1999/xlink">
<g id="graph0" class="graph" transform="scale(1 1) rotate(0) translate(4 221)">
<title>scram::mef::CcfGroup::ApplyModel</title>
<polygon fill="white" stroke="none" points="-4,4 -4,-221 610,-221 610,4 -4,4"/>
<!-- Node1 -->
<g id="node1" class="node"><title>Node1</title>
<polygon fill="#bfbfbf" stroke="black" points="0,-88.5 0,-118.5 122,-118.5 122,-88.5 0,-88.5"/>
<text text-anchor="start" x="8" y="-106.5" font-family="Helvetica,sans-Serif" font-size="10.00">scram::mef::CcfGroup</text>
<text text-anchor="middle" x="61" y="-95.5" font-family="Helvetica,sans-Serif" font-size="10.00">::ApplyModel</text>
</g>
<!-- Node2 -->
<g id="node2" class="node"><title>Node2</title>
<g id="a_node2"><a xlink:href="classscram_1_1mef_1_1CcfGroup.xhtml#a791a1a130e5551a7b70da25df8dbf765" target="_top" xlink:title="scram::mef::CcfGroup\l::distribution">
<polygon fill="white" stroke="black" points="161.5,-186.5 161.5,-216.5 283.5,-216.5 283.5,-186.5 161.5,-186.5"/>
<text text-anchor="start" x="169.5" y="-204.5" font-family="Helvetica,sans-Serif" font-size="10.00">scram::mef::CcfGroup</text>
<text text-anchor="middle" x="222.5" y="-193.5" font-family="Helvetica,sans-Serif" font-size="10.00">::distribution</text>
</a>
</g>
</g>
<!-- Node1&#45;&gt;Node2 -->
<g id="edge1" class="edge"><title>Node1&#45;&gt;Node2</title>
<path fill="none" stroke="midnightblue" d="M78.6077,-118.786C96.9414,-135.042 127.864,-160.682 158,-177.5 161.025,-179.188 164.192,-180.805 167.429,-182.344"/>
<polygon fill="midnightblue" stroke="midnightblue" points="166.118,-185.592 176.676,-186.474 168.973,-179.201 166.118,-185.592"/>
</g>
<!-- Node3 -->
<g id="node3" class="node"><title>Node3</title>
<g id="a_node3"><a xlink:href="classscram_1_1mef_1_1CcfGroup.xhtml#a870cff942d6ce90dc50de37e17a151ee" target="_top" xlink:title="scram::mef::CcfGroup\l::factors">
<polygon fill="white" stroke="black" points="161.5,-137.5 161.5,-167.5 283.5,-167.5 283.5,-137.5 161.5,-137.5"/>
<text text-anchor="start" x="169.5" y="-155.5" font-family="Helvetica,sans-Serif" font-size="10.00">scram::mef::CcfGroup</text>
<text text-anchor="middle" x="222.5" y="-144.5" font-family="Helvetica,sans-Serif" font-size="10.00">::factors</text>
</a>
</g>
</g>
<!-- Node1&#45;&gt;Node3 -->
<g id="edge2" class="edge"><title>Node1&#45;&gt;Node3</title>
<path fill="none" stroke="midnightblue" d="M111.157,-118.601C127.455,-123.608 145.762,-129.232 162.71,-134.439"/>
<polygon fill="midnightblue" stroke="midnightblue" points="161.919,-137.857 172.506,-137.448 163.974,-131.166 161.919,-137.857"/>
</g>
<!-- Node4 -->
<g id="node4" class="node"><title>Node4</title>
<g id="a_node4"><a xlink:href="classscram_1_1mef_1_1CcfGroup.xhtml#a06dd05cabcbeddf42090536f6a47a184" target="_top" xlink:title="scram::mef::CcfGroup\l::members">
<polygon fill="white" stroke="black" points="161.5,-88.5 161.5,-118.5 283.5,-118.5 283.5,-88.5 161.5,-88.5"/>
<text text-anchor="start" x="169.5" y="-106.5" font-family="Helvetica,sans-Serif" font-size="10.00">scram::mef::CcfGroup</text>
<text text-anchor="middle" x="222.5" y="-95.5" font-family="Helvetica,sans-Serif" font-size="10.00">::members</text>
</a>
</g>
</g>
<!-- Node1&#45;&gt;Node4 -->
<g id="edge3" class="edge"><title>Node1&#45;&gt;Node4</title>
<path fill="none" stroke="midnightblue" d="M122.3,-103.5C131.794,-103.5 141.679,-103.5 151.372,-103.5"/>
<polygon fill="midnightblue" stroke="midnightblue" points="151.379,-107 161.379,-103.5 151.379,-100 151.379,-107"/>
</g>
<!-- Node6 -->
<g id="node6" class="node"><title>Node6</title>
<g id="a_node6"><a xlink:href="classscram_1_1mef_1_1Element.xhtml#adb401e2ca84aa98cb60797bec2500a81" target="_top" xlink:title="scram::mef::Element\l::name">
<polygon fill="white" stroke="black" points="489,-66.5 489,-96.5 606,-96.5 606,-66.5 489,-66.5"/>
<text text-anchor="start" x="497" y="-84.5" font-family="Helvetica,sans-Serif" font-size="10.00">scram::mef::Element</text>
<text text-anchor="middle" x="547.5" y="-73.5" font-family="Helvetica,sans-Serif" font-size="10.00">::name</text>
</a>
</g>
</g>
<!-- Node1&#45;&gt;Node6 -->
<g id="edge6" class="edge"><title>Node1&#45;&gt;Node6</title>
<path fill="none" stroke="midnightblue" d="M109.874,-88.4755C125.099,-84.3904 142.113,-80.5347 158,-78.5 269.73,-64.1904 401.017,-69.8273 478.796,-75.476"/>
<polygon fill="midnightblue" stroke="midnightblue" points="478.709,-78.9792 488.942,-76.2351 479.231,-71.9987 478.709,-78.9792"/>
</g>
<!-- Node7 -->
<g id="node7" class="node"><title>Node7</title>
<g id="a_node7"><a xlink:href="classscram_1_1mef_1_1Expression.xhtml#af4c1a5cb29e8f45623a99742b7ba8bc5" target="_top" xlink:title="scram::mef::Expression\l::value">
<polygon fill="white" stroke="black" points="158,-0.5 158,-30.5 287,-30.5 287,-0.5 158,-0.5"/>
<text text-anchor="start" x="166" y="-18.5" font-family="Helvetica,sans-Serif" font-size="10.00">scram::mef::Expression</text>
<text text-anchor="middle" x="222.5" y="-7.5" font-family="Helvetica,sans-Serif" font-size="10.00">::value</text>
</a>
</g>
</g>
<!-- Node1&#45;&gt;Node7 -->
<g id="edge7" class="edge"><title>Node1&#45;&gt;Node7</title>
<path fill="none" stroke="midnightblue" d="M85.6727,-88.2694C104.867,-76.1478 132.776,-59.0324 158,-45.5 164.574,-41.973 171.633,-38.4182 178.57,-35.0504"/>
<polygon fill="midnightblue" stroke="midnightblue" points="180.382,-38.0634 187.896,-30.5939 177.364,-31.7475 180.382,-38.0634"/>
</g>
<!-- Node5 -->
<g id="node5" class="node"><title>Node5</title>
<g id="a_node5"><a xlink:href="classscram_1_1mef_1_1BasicEvent.xhtml#acfc0e73e1add67aa2ace841350eb62cd" target="_top" xlink:title="Validates the probability expressions for the primary event. ">
<polygon fill="white" stroke="black" points="323,-88.5 323,-118.5 453,-118.5 453,-88.5 323,-88.5"/>
<text text-anchor="start" x="331" y="-106.5" font-family="Helvetica,sans-Serif" font-size="10.00">scram::mef::BasicEvent</text>
<text text-anchor="middle" x="388" y="-95.5" font-family="Helvetica,sans-Serif" font-size="10.00">::Validate</text>
</a>
</g>
</g>
<!-- Node4&#45;&gt;Node5 -->
<g id="edge4" class="edge"><title>Node4&#45;&gt;Node5</title>
<path fill="none" stroke="midnightblue" d="M283.917,-103.5C293.369,-103.5 303.23,-103.5 312.945,-103.5"/>
<polygon fill="midnightblue" stroke="midnightblue" points="312.993,-107 322.993,-103.5 312.993,-100 312.993,-107"/>
</g>
<!-- Node5&#45;&gt;Node6 -->
<g id="edge5" class="edge"><title>Node5&#45;&gt;Node6</title>
<path fill="none" stroke="midnightblue" d="M453.061,-94.5518C461.57,-93.3633 470.316,-92.1416 478.882,-90.9451"/>
<polygon fill="midnightblue" stroke="midnightblue" points="479.411,-94.4052 488.831,-89.5554 478.443,-87.4725 479.411,-94.4052"/>
</g>
</g>
</svg>
