<?xml version="1.0" encoding="UTF-8" standalone="no"?>
<!DOCTYPE svg PUBLIC "-//W3C//DTD SVG 1.1//EN"
 "http://www.w3.org/Graphics/SVG/1.1/DTD/svg11.dtd">
<!-- Generated by graphviz version 2.38.0 (20140413.2041)
 -->
<!-- Title: scram::mef::PeriodicTest::interval Pages: 1 -->
<svg width="346pt" height="186pt"
 viewBox="0.00 0.00 346.00 186.00" xmlns="http://www.w3.org/2000/svg" xmlns:xlink="http://www.w3.org/1999/xlink">
<g id="graph0" class="graph" transform="scale(1 1) rotate(0) translate(4 182)">
<title>scram::mef::PeriodicTest::interval</title>
<polygon fill="white" stroke="none" points="-4,4 -4,-182 342,-182 342,4 -4,4"/>
<!-- Node1 -->
<g id="node1" class="node"><title>Node1</title>
<polygon fill="#bfbfbf" stroke="black" points="0,-73.5 0,-103.5 134,-103.5 134,-73.5 0,-73.5"/>
<text text-anchor="start" x="8" y="-91.5" font-family="Helvetica,sans-Serif" font-size="10.00">scram::mef::PeriodicTest</text>
<text text-anchor="middle" x="67" y="-80.5" font-family="Helvetica,sans-Serif" font-size="10.00">::interval</text>
</g>
<!-- Node2 -->
<g id="node2" class="node"><title>Node2</title>
<g id="a_node2"><a xlink:href="classscram_1_1mef_1_1Exponential.xhtml#aad85ef30a15dac65afb7033244e2539a" target="_top" xlink:title="Evaluates the expression. ">
<polygon fill="white" stroke="black" points="187.5,-147.5 187.5,-177.5 320.5,-177.5 320.5,-147.5 187.5,-147.5"/>
<text text-anchor="start" x="195.5" y="-165.5" font-family="Helvetica,sans-Serif" font-size="10.00">scram::mef::Exponential</text>
<text text-anchor="middle" x="254" y="-154.5" font-family="Helvetica,sans-Serif" font-size="10.00">::Compute</text>
</a>
</g>
</g>
<!-- Node1&#45;&gt;Node2 -->
<g id="edge1" class="edge"><title>Node1&#45;&gt;Node2</title>
<path fill="none" stroke="midnightblue" d="M95.5537,-103.639C115.752,-114.33 144.061,-128.48 170,-138.5 175.16,-140.493 180.555,-142.41 186.011,-144.231"/>
<polygon fill="midnightblue" stroke="midnightblue" points="185.268,-147.669 195.86,-147.402 187.414,-141.006 185.268,-147.669"/>
</g>
<!-- Node3 -->
<g id="node3" class="node"><title>Node3</title>
<g id="a_node3"><a xlink:href="classscram_1_1mef_1_1Expression.xhtml#a5cf00d8b2ff843ad029a501a89ee572a" target="_top" xlink:title="scram::mef::Expression\l::Sample">
<polygon fill="white" stroke="black" points="189.5,-98.5 189.5,-128.5 318.5,-128.5 318.5,-98.5 189.5,-98.5"/>
<text text-anchor="start" x="197.5" y="-116.5" font-family="Helvetica,sans-Serif" font-size="10.00">scram::mef::Expression</text>
<text text-anchor="middle" x="254" y="-105.5" font-family="Helvetica,sans-Serif" font-size="10.00">::Sample</text>
</a>
</g>
</g>
<!-- Node1&#45;&gt;Node3 -->
<g id="edge2" class="edge"><title>Node1&#45;&gt;Node3</title>
<path fill="none" stroke="midnightblue" d="M134.006,-97.4197C148.592,-99.3908 164.137,-101.492 179.017,-103.502"/>
<polygon fill="midnightblue" stroke="midnightblue" points="178.813,-107.006 189.191,-104.877 179.75,-100.069 178.813,-107.006"/>
</g>
<!-- Node4 -->
<g id="node4" class="node"><title>Node4</title>
<g id="a_node4"><a xlink:href="classscram_1_1mef_1_1Exponential.xhtml#a93569be7f366dce3dd25dcbb083ca774" target="_top" xlink:title="scram::mef::Exponential\l::Validate">
<polygon fill="white" stroke="black" points="187.5,-49.5 187.5,-79.5 320.5,-79.5 320.5,-49.5 187.5,-49.5"/>
<text text-anchor="start" x="195.5" y="-67.5" font-family="Helvetica,sans-Serif" font-size="10.00">scram::mef::Exponential</text>
<text text-anchor="middle" x="254" y="-56.5" font-family="Helvetica,sans-Serif" font-size="10.00">::Validate</text>
</a>
</g>
</g>
<!-- Node1&#45;&gt;Node4 -->
<g id="edge3" class="edge"><title>Node1&#45;&gt;Node4</title>
<path fill="none" stroke="midnightblue" d="M134.006,-79.9371C147.95,-78.1281 162.772,-76.2052 177.051,-74.3529"/>
<polygon fill="midnightblue" stroke="midnightblue" points="177.864,-77.7768 187.331,-73.0192 176.964,-70.8349 177.864,-77.7768"/>
</g>
<!-- Node5 -->
<g id="node5" class="node"><title>Node5</title>
<g id="a_node5"><a xlink:href="classscram_1_1mef_1_1ExpressionFormula.xhtml#a1f7c71744d679ab1a4e5ca3ca98277a6" target="_top" xlink:title="Computes the expression with argument expression default values. ">
<polygon fill="white" stroke="black" points="170,-0.5 170,-30.5 338,-30.5 338,-0.5 170,-0.5"/>
<text text-anchor="start" x="178" y="-18.5" font-family="Helvetica,sans-Serif" font-size="10.00">scram::mef::ExpressionFormula</text>
<text text-anchor="middle" x="254" y="-7.5" font-family="Helvetica,sans-Serif" font-size="10.00">&lt; Exponential &gt;::value</text>
</a>
</g>
</g>
<!-- Node1&#45;&gt;Node5 -->
<g id="edge4" class="edge"><title>Node1&#45;&gt;Node5</title>
<path fill="none" stroke="midnightblue" d="M96.9623,-73.4709C117.113,-63.3636 144.783,-50.1709 170,-40.5 175.994,-38.2014 182.295,-35.9747 188.634,-33.8597"/>
<polygon fill="midnightblue" stroke="midnightblue" points="190.154,-37.0464 198.588,-30.634 187.996,-30.3873 190.154,-37.0464"/>
</g>
</g>
</svg>
