<?xml version="1.0" encoding="UTF-8" standalone="no"?>
<!DOCTYPE svg PUBLIC "-//W3C//DTD SVG 1.1//EN"
 "http://www.w3.org/Graphics/SVG/1.1/DTD/svg11.dtd">
<!-- Generated by graphviz version 2.38.0 (20140413.2041)
 -->
<!-- Title: scram::mef::Model::Add Pages: 1 -->
<svg width="497pt" height="78pt"
 viewBox="0.00 0.00 497.00 77.50" xmlns="http://www.w3.org/2000/svg" xmlns:xlink="http://www.w3.org/1999/xlink">
<g id="graph0" class="graph" transform="scale(1 1) rotate(0) translate(4 73.5)">
<title>scram::mef::Model::Add</title>
<polygon fill="white" stroke="none" points="-4,4 -4,-73.5 493,-73.5 493,4 -4,4"/>
<!-- Node1 -->
<g id="node1" class="node"><title>Node1</title>
<polygon fill="#bfbfbf" stroke="black" points="0,-22.5 0,-41.5 131,-41.5 131,-22.5 0,-22.5"/>
<text text-anchor="middle" x="65.5" y="-29.5" font-family="Helvetica,sans-Serif" font-size="10.00">scram::mef::Model::Add</text>
</g>
<!-- Node2 -->
<g id="node2" class="node"><title>Node2</title>
<g id="a_node2"><a xlink:href="classscram_1_1mef_1_1Model.xhtml#a5c8b03561207b374fc06dd61c0cf3ace" target="_top" xlink:title="scram::mef::Model::\lccf_groups">
<polygon fill="white" stroke="black" points="167,-17 167,-47 279,-47 279,-17 167,-17"/>
<text text-anchor="start" x="175" y="-35" font-family="Helvetica,sans-Serif" font-size="10.00">scram::mef::Model::</text>
<text text-anchor="middle" x="223" y="-24" font-family="Helvetica,sans-Serif" font-size="10.00">ccf_groups</text>
</a>
</g>
</g>
<!-- Node1&#45;&gt;Node2 -->
<g id="edge1" class="edge"><title>Node1&#45;&gt;Node2</title>
<path fill="none" stroke="midnightblue" d="M141.167,-32C149.788,-32 158.46,-32 166.758,-32"/>
<polygon fill="midnightblue" stroke="midnightblue" points="141.095,-28.5001 131.095,-32 141.095,-35.5001 141.095,-28.5001"/>
</g>
<!-- Node3 -->
<g id="node3" class="node"><title>Node3</title>
<g id="a_node3"><a xlink:href="reporter_8cc.xhtml#ad6460094a94fb73e56c2a4a5efc598ed" target="_top" xlink:title="Describes all performed analyses deduced from settings. ">
<polygon fill="white" stroke="black" points="315,-39 315,-69 489,-69 489,-39 315,-39"/>
<text text-anchor="start" x="323" y="-57" font-family="Helvetica,sans-Serif" font-size="10.00">scram::ReportCalculatedQuantity</text>
<text text-anchor="middle" x="402" y="-46" font-family="Helvetica,sans-Serif" font-size="10.00">&lt; core::RiskAnalysis &gt;</text>
</a>
</g>
</g>
<!-- Node2&#45;&gt;Node3 -->
<g id="edge2" class="edge"><title>Node2&#45;&gt;Node3</title>
<path fill="none" stroke="midnightblue" d="M289.084,-40.0896C297.465,-41.1312 306.148,-42.2104 314.801,-43.286"/>
<polygon fill="midnightblue" stroke="midnightblue" points="289.389,-36.6006 279.034,-38.8403 288.526,-43.5471 289.389,-36.6006"/>
</g>
<!-- Node4 -->
<g id="node4" class="node"><title>Node4</title>
<g id="a_node4"><a xlink:href="serialization_8cc.xhtml#a12094f882cf779ecac838576c86954ee" target="_top" xlink:title="Serializes the model and its data into stream as XML. ">
<polygon fill="white" stroke="black" points="343,-0.5 343,-19.5 461,-19.5 461,-0.5 343,-0.5"/>
<text text-anchor="middle" x="402" y="-7.5" font-family="Helvetica,sans-Serif" font-size="10.00">scram::mef::Serialize</text>
</a>
</g>
</g>
<!-- Node2&#45;&gt;Node4 -->
<g id="edge3" class="edge"><title>Node2&#45;&gt;Node4</title>
<path fill="none" stroke="midnightblue" d="M289.223,-23.8932C306.826,-21.7052 325.753,-19.3527 342.936,-17.217"/>
<polygon fill="midnightblue" stroke="midnightblue" points="288.526,-20.4529 279.034,-25.1597 289.389,-27.3994 288.526,-20.4529"/>
</g>
</g>
</svg>
