<?xml version="1.0" encoding="UTF-8" standalone="no"?>
<!DOCTYPE svg PUBLIC "-//W3C//DTD SVG 1.1//EN"
 "http://www.w3.org/Graphics/SVG/1.1/DTD/svg11.dtd">
<!-- Generated by graphviz version 2.38.0 (20140413.2041)
 -->
<!-- Title: scram::core::Zbdd::modules Pages: 1 -->
<svg width="477pt" height="83pt"
 viewBox="0.00 0.00 477.00 83.00" xmlns="http://www.w3.org/2000/svg" xmlns:xlink="http://www.w3.org/1999/xlink">
<g id="graph0" class="graph" transform="scale(1 1) rotate(0) translate(4 79)">
<title>scram::core::Zbdd::modules</title>
<polygon fill="white" stroke="none" points="-4,4 -4,-79 473,-79 473,4 -4,4"/>
<!-- Node1 -->
<g id="node1" class="node"><title>Node1</title>
<polygon fill="#bfbfbf" stroke="black" points="0,-22.5 0,-52.5 111,-52.5 111,-22.5 0,-22.5"/>
<text text-anchor="start" x="8" y="-40.5" font-family="Helvetica,sans-Serif" font-size="10.00">scram::core::Zbdd::</text>
<text text-anchor="middle" x="55.5" y="-29.5" font-family="Helvetica,sans-Serif" font-size="10.00">modules</text>
</g>
<!-- Node2 -->
<g id="node2" class="node"><title>Node2</title>
<g id="a_node2"><a xlink:href="classscram_1_1core_1_1Zbdd.xhtml#a516f0d2f35ad213399f83fb9ab102561" target="_top" xlink:title="Traverses ZBDD to find modules and adjusted cut&#45;offs. ">
<polygon fill="white" stroke="black" points="147,-44.5 147,-74.5 258,-74.5 258,-44.5 147,-44.5"/>
<text text-anchor="start" x="155" y="-62.5" font-family="Helvetica,sans-Serif" font-size="10.00">scram::core::Zbdd::</text>
<text text-anchor="middle" x="202.5" y="-51.5" font-family="Helvetica,sans-Serif" font-size="10.00">GatherModules</text>
</a>
</g>
</g>
<!-- Node1&#45;&gt;Node2 -->
<g id="edge1" class="edge"><title>Node1&#45;&gt;Node2</title>
<path fill="none" stroke="midnightblue" d="M121.462,-47.3563C129.859,-48.6303 138.392,-49.925 146.604,-51.171"/>
<polygon fill="midnightblue" stroke="midnightblue" points="121.73,-43.857 111.318,-45.8173 120.68,-50.7778 121.73,-43.857"/>
</g>
<!-- Node4 -->
<g id="node4" class="node"><title>Node4</title>
<g id="a_node4"><a xlink:href="classscram_1_1core_1_1zbdd_1_1CutSetContainer.xhtml#a478c89f64731781882b50ec55898900b" target="_top" xlink:title="Gathers all module indices in the cut sets. ">
<polygon fill="white" stroke="black" points="294,-0.5 294,-30.5 469,-30.5 469,-0.5 294,-0.5"/>
<text text-anchor="start" x="302" y="-18.5" font-family="Helvetica,sans-Serif" font-size="10.00">scram::core::zbdd::</text>
<text text-anchor="middle" x="381.5" y="-7.5" font-family="Helvetica,sans-Serif" font-size="10.00">CutSetContainer::GatherModules</text>
</a>
</g>
</g>
<!-- Node1&#45;&gt;Node4 -->
<g id="edge4" class="edge"><title>Node1&#45;&gt;Node4</title>
<path fill="none" stroke="midnightblue" d="M121.364,-33.0957C170.907,-29.7316 239.666,-25.0628 293.908,-21.3797"/>
<polygon fill="midnightblue" stroke="midnightblue" points="120.836,-29.6234 111.096,-33.7929 121.31,-36.6073 120.836,-29.6234"/>
</g>
<!-- Node3 -->
<g id="node3" class="node"><title>Node3</title>
<g id="a_node3"><a xlink:href="classscram_1_1core_1_1Zbdd.xhtml#af92e04ed908364e0177ce444d7b72712" target="_top" xlink:title="The common constructor to initialize member variables. ">
<polygon fill="white" stroke="black" points="313,-50 313,-69 450,-69 450,-50 313,-50"/>
<text text-anchor="middle" x="381.5" y="-57" font-family="Helvetica,sans-Serif" font-size="10.00">scram::core::Zbdd::Zbdd</text>
</a>
</g>
</g>
<!-- Node2&#45;&gt;Node3 -->
<g id="edge2" class="edge"><title>Node2&#45;&gt;Node3</title>
<path fill="none" stroke="midnightblue" d="M268.376,-59.5C282.811,-59.5 298.15,-59.5 312.698,-59.5"/>
<polygon fill="midnightblue" stroke="midnightblue" points="268.05,-56.0001 258.05,-59.5 268.05,-63.0001 268.05,-56.0001"/>
</g>
<!-- Node2&#45;&gt;Node4 -->
<g id="edge3" class="edge"><title>Node2&#45;&gt;Node4</title>
<path fill="none" stroke="midnightblue" d="M267.89,-43.4936C284.889,-39.2678 303.173,-34.7226 319.961,-30.5493"/>
<polygon fill="midnightblue" stroke="midnightblue" points="266.91,-40.1304 258.05,-45.9395 268.599,-46.9236 266.91,-40.1304"/>
</g>
</g>
</svg>
