<?xml version="1.0" encoding="UTF-8" standalone="no"?>
<!DOCTYPE svg PUBLIC "-//W3C//DTD SVG 1.1//EN"
 "http://www.w3.org/Graphics/SVG/1.1/DTD/svg11.dtd">
<!-- Generated by graphviz version 2.38.0 (20140413.2041)
 -->
<!-- Title: scram::mef::ExpressionFormula&lt; T &gt; Pages: 1 -->
<svg width="1664pt" height="643pt"
 viewBox="0.00 0.00 1664.00 643.00" xmlns="http://www.w3.org/2000/svg" xmlns:xlink="http://www.w3.org/1999/xlink">
<g id="graph0" class="graph" transform="scale(1 1) rotate(0) translate(4 639)">
<title>scram::mef::ExpressionFormula&lt; T &gt;</title>
<polygon fill="white" stroke="none" points="-4,4 -4,-639 1660,-639 1660,4 -4,4"/>
<!-- Node1 -->
<g id="node1" class="node"><title>Node1</title>
<polygon fill="#bfbfbf" stroke="black" points="730,-288.5 730,-345.5 926,-345.5 926,-288.5 730,-288.5"/>
<text text-anchor="middle" x="828" y="-333.5" font-family="Helvetica,sans-Serif" font-size="10.00">scram::mef::ExpressionFormula&lt; T &gt;</text>
<polyline fill="none" stroke="black" points="730,-326.5 926,-326.5 "/>
<text text-anchor="middle" x="828" y="-314.5" font-family="Helvetica,sans-Serif" font-size="10.00"> </text>
<polyline fill="none" stroke="black" points="730,-307.5 926,-307.5 "/>
<text text-anchor="start" x="738" y="-295.5" font-family="Helvetica,sans-Serif" font-size="10.00">+ value()</text>
</g>
<!-- Node4 -->
<g id="node4" class="node"><title>Node4</title>
<g id="a_node4"><a xlink:href="classscram_1_1mef_1_1ExpressionFormula.xhtml" target="_top" xlink:title="{scram::mef::ExpressionFormula\l\&lt; Glm \&gt;\n||+ value()\l}">
<polygon fill="white" stroke="black" points="0,-161.5 0,-229.5 168,-229.5 168,-161.5 0,-161.5"/>
<text text-anchor="start" x="8" y="-217.5" font-family="Helvetica,sans-Serif" font-size="10.00">scram::mef::ExpressionFormula</text>
<text text-anchor="middle" x="84" y="-206.5" font-family="Helvetica,sans-Serif" font-size="10.00">&lt; Glm &gt;</text>
<polyline fill="none" stroke="black" points="0,-199.5 168,-199.5 "/>
<text text-anchor="middle" x="84" y="-187.5" font-family="Helvetica,sans-Serif" font-size="10.00"> </text>
<polyline fill="none" stroke="black" points="0,-180.5 168,-180.5 "/>
<text text-anchor="start" x="8" y="-168.5" font-family="Helvetica,sans-Serif" font-size="10.00">+ value()</text>
</a>
</g>
</g>
<!-- Node1&#45;&gt;Node4 -->
<g id="edge3" class="edge"><title>Node1&#45;&gt;Node4</title>
<path fill="none" stroke="orange" d="M719.937,-311.385C589.162,-303.608 363.323,-283.113 177,-230 174.112,-229.177 171.184,-228.309 168.235,-227.408"/>
<polygon fill="orange" stroke="orange" points="719.776,-314.881 729.962,-311.967 720.182,-307.893 719.776,-314.881"/>
<text text-anchor="middle" x="376" y="-256.5" font-family="Helvetica,sans-Serif" font-size="10.00"> &lt; Glm &gt;</text>
</g>
<!-- Node6 -->
<g id="node6" class="node"><title>Node6</title>
<g id="a_node6"><a xlink:href="classscram_1_1mef_1_1ExpressionFormula.xhtml" target="_top" xlink:title="{scram::mef::ExpressionFormula\l\&lt; NaryExpression\&lt; T, 2 \&gt; \&gt;\n||+ value()\l}">
<polygon fill="white" stroke="black" points="186,-161.5 186,-229.5 354,-229.5 354,-161.5 186,-161.5"/>
<text text-anchor="start" x="194" y="-217.5" font-family="Helvetica,sans-Serif" font-size="10.00">scram::mef::ExpressionFormula</text>
<text text-anchor="middle" x="270" y="-206.5" font-family="Helvetica,sans-Serif" font-size="10.00">&lt; NaryExpression&lt; T, 2 &gt; &gt;</text>
<polyline fill="none" stroke="black" points="186,-199.5 354,-199.5 "/>
<text text-anchor="middle" x="270" y="-187.5" font-family="Helvetica,sans-Serif" font-size="10.00"> </text>
<polyline fill="none" stroke="black" points="186,-180.5 354,-180.5 "/>
<text text-anchor="start" x="194" y="-168.5" font-family="Helvetica,sans-Serif" font-size="10.00">+ value()</text>
</a>
</g>
</g>
<!-- Node1&#45;&gt;Node6 -->
<g id="edge5" class="edge"><title>Node1&#45;&gt;Node6</title>
<path fill="none" stroke="orange" d="M719.547,-306.224C652.344,-298.961 564.543,-287.285 488,-270 431.102,-257.152 418.226,-248.776 363,-230 360.075,-229.006 357.102,-227.986 354.102,-226.948"/>
<polygon fill="orange" stroke="orange" points="719.415,-309.73 729.729,-307.308 720.156,-302.769 719.415,-309.73"/>
<text text-anchor="start" x="488" y="-262" font-family="Helvetica,sans-Serif" font-size="10.00"> &lt; NaryExpression&lt; T,</text>
<text text-anchor="middle" x="542.5" y="-251" font-family="Helvetica,sans-Serif" font-size="10.00"> 2 &gt; &gt;</text>
</g>
<!-- Node8 -->
<g id="node8" class="node"><title>Node8</title>
<g id="a_node8"><a xlink:href="classscram_1_1mef_1_1ExpressionFormula.xhtml" target="_top" xlink:title="{scram::mef::ExpressionFormula\l\&lt; Switch \&gt;\n||+ value()\l}">
<polygon fill="white" stroke="black" points="372,-161.5 372,-229.5 540,-229.5 540,-161.5 372,-161.5"/>
<text text-anchor="start" x="380" y="-217.5" font-family="Helvetica,sans-Serif" font-size="10.00">scram::mef::ExpressionFormula</text>
<text text-anchor="middle" x="456" y="-206.5" font-family="Helvetica,sans-Serif" font-size="10.00">&lt; Switch &gt;</text>
<polyline fill="none" stroke="black" points="372,-199.5 540,-199.5 "/>
<text text-anchor="middle" x="456" y="-187.5" font-family="Helvetica,sans-Serif" font-size="10.00"> </text>
<polyline fill="none" stroke="black" points="372,-180.5 540,-180.5 "/>
<text text-anchor="start" x="380" y="-168.5" font-family="Helvetica,sans-Serif" font-size="10.00">+ value()</text>
</a>
</g>
</g>
<!-- Node1&#45;&gt;Node8 -->
<g id="edge7" class="edge"><title>Node1&#45;&gt;Node8</title>
<path fill="none" stroke="orange" d="M720.317,-287.078C701.162,-281.621 681.444,-275.8 663,-270 611.778,-253.893 599.593,-247.988 549,-230 546.089,-228.965 543.128,-227.91 540.138,-226.843"/>
<polygon fill="orange" stroke="orange" points="719.394,-290.454 729.969,-289.811 721.301,-283.719 719.394,-290.454"/>
<text text-anchor="middle" x="691.5" y="-256.5" font-family="Helvetica,sans-Serif" font-size="10.00"> &lt; Switch &gt;</text>
</g>
<!-- Node10 -->
<g id="node10" class="node"><title>Node10</title>
<g id="a_node10"><a xlink:href="classscram_1_1mef_1_1ExpressionFormula.xhtml" target="_top" xlink:title="{scram::mef::ExpressionFormula\l\&lt; Ite \&gt;\n||+ value()\l}">
<polygon fill="white" stroke="black" points="558,-161.5 558,-229.5 726,-229.5 726,-161.5 558,-161.5"/>
<text text-anchor="start" x="566" y="-217.5" font-family="Helvetica,sans-Serif" font-size="10.00">scram::mef::ExpressionFormula</text>
<text text-anchor="middle" x="642" y="-206.5" font-family="Helvetica,sans-Serif" font-size="10.00">&lt; Ite &gt;</text>
<polyline fill="none" stroke="black" points="558,-199.5 726,-199.5 "/>
<text text-anchor="middle" x="642" y="-187.5" font-family="Helvetica,sans-Serif" font-size="10.00"> </text>
<polyline fill="none" stroke="black" points="558,-180.5 726,-180.5 "/>
<text text-anchor="start" x="566" y="-168.5" font-family="Helvetica,sans-Serif" font-size="10.00">+ value()</text>
</a>
</g>
</g>
<!-- Node1&#45;&gt;Node10 -->
<g id="edge9" class="edge"><title>Node1&#45;&gt;Node10</title>
<path fill="none" stroke="orange" d="M776.319,-282.797C750.485,-266.199 719.312,-246.171 693.503,-229.589"/>
<polygon fill="orange" stroke="orange" points="774.555,-285.823 784.86,-288.284 778.339,-279.934 774.555,-285.823"/>
<text text-anchor="middle" x="771" y="-256.5" font-family="Helvetica,sans-Serif" font-size="10.00"> &lt; Ite &gt;</text>
</g>
<!-- Node12 -->
<g id="node12" class="node"><title>Node12</title>
<g id="a_node12"><a xlink:href="classscram_1_1mef_1_1ExpressionFormula.xhtml" target="_top" xlink:title="{scram::mef::ExpressionFormula\l\&lt; Mean \&gt;\n||+ value()\l}">
<polygon fill="white" stroke="black" points="744,-161.5 744,-229.5 912,-229.5 912,-161.5 744,-161.5"/>
<text text-anchor="start" x="752" y="-217.5" font-family="Helvetica,sans-Serif" font-size="10.00">scram::mef::ExpressionFormula</text>
<text text-anchor="middle" x="828" y="-206.5" font-family="Helvetica,sans-Serif" font-size="10.00">&lt; Mean &gt;</text>
<polyline fill="none" stroke="black" points="744,-199.5 912,-199.5 "/>
<text text-anchor="middle" x="828" y="-187.5" font-family="Helvetica,sans-Serif" font-size="10.00"> </text>
<polyline fill="none" stroke="black" points="744,-180.5 912,-180.5 "/>
<text text-anchor="start" x="752" y="-168.5" font-family="Helvetica,sans-Serif" font-size="10.00">+ value()</text>
</a>
</g>
</g>
<!-- Node1&#45;&gt;Node12 -->
<g id="edge11" class="edge"><title>Node1&#45;&gt;Node12</title>
<path fill="none" stroke="orange" d="M828,-277.946C828,-262.399 828,-244.585 828,-229.589"/>
<polygon fill="orange" stroke="orange" points="824.5,-278.284 828,-288.284 831.5,-278.284 824.5,-278.284"/>
<text text-anchor="middle" x="854" y="-256.5" font-family="Helvetica,sans-Serif" font-size="10.00"> &lt; Mean &gt;</text>
</g>
<!-- Node14 -->
<g id="node14" class="node"><title>Node14</title>
<g id="a_node14"><a xlink:href="classscram_1_1mef_1_1ExpressionFormula.xhtml" target="_top" xlink:title="{scram::mef::ExpressionFormula\l\&lt; Exponential \&gt;\n||+ value()\l}">
<polygon fill="white" stroke="black" points="930,-161.5 930,-229.5 1098,-229.5 1098,-161.5 930,-161.5"/>
<text text-anchor="start" x="938" y="-217.5" font-family="Helvetica,sans-Serif" font-size="10.00">scram::mef::ExpressionFormula</text>
<text text-anchor="middle" x="1014" y="-206.5" font-family="Helvetica,sans-Serif" font-size="10.00">&lt; Exponential &gt;</text>
<polyline fill="none" stroke="black" points="930,-199.5 1098,-199.5 "/>
<text text-anchor="middle" x="1014" y="-187.5" font-family="Helvetica,sans-Serif" font-size="10.00"> </text>
<polyline fill="none" stroke="black" points="930,-180.5 1098,-180.5 "/>
<text text-anchor="start" x="938" y="-168.5" font-family="Helvetica,sans-Serif" font-size="10.00">+ value()</text>
</a>
</g>
</g>
<!-- Node1&#45;&gt;Node14 -->
<g id="edge13" class="edge"><title>Node1&#45;&gt;Node14</title>
<path fill="none" stroke="orange" d="M879.681,-282.797C905.515,-266.199 936.688,-246.171 962.497,-229.589"/>
<polygon fill="orange" stroke="orange" points="877.661,-279.934 871.14,-288.284 881.445,-285.823 877.661,-279.934"/>
<text text-anchor="middle" x="974" y="-256.5" font-family="Helvetica,sans-Serif" font-size="10.00"> &lt; Exponential &gt;</text>
</g>
<!-- Node16 -->
<g id="node16" class="node"><title>Node16</title>
<g id="a_node16"><a xlink:href="classscram_1_1mef_1_1ExpressionFormula.xhtml" target="_top" xlink:title="{scram::mef::ExpressionFormula\l\&lt; Weibull \&gt;\n||+ value()\l}">
<polygon fill="white" stroke="black" points="1116,-161.5 1116,-229.5 1284,-229.5 1284,-161.5 1116,-161.5"/>
<text text-anchor="start" x="1124" y="-217.5" font-family="Helvetica,sans-Serif" font-size="10.00">scram::mef::ExpressionFormula</text>
<text text-anchor="middle" x="1200" y="-206.5" font-family="Helvetica,sans-Serif" font-size="10.00">&lt; Weibull &gt;</text>
<polyline fill="none" stroke="black" points="1116,-199.5 1284,-199.5 "/>
<text text-anchor="middle" x="1200" y="-187.5" font-family="Helvetica,sans-Serif" font-size="10.00"> </text>
<polyline fill="none" stroke="black" points="1116,-180.5 1284,-180.5 "/>
<text text-anchor="start" x="1124" y="-168.5" font-family="Helvetica,sans-Serif" font-size="10.00">+ value()</text>
</a>
</g>
</g>
<!-- Node1&#45;&gt;Node16 -->
<g id="edge15" class="edge"><title>Node1&#45;&gt;Node16</title>
<path fill="none" stroke="orange" d="M936.37,-292.875C963.569,-286.259 992.538,-278.507 1019,-270 1054.68,-258.53 1093.28,-243.268 1125.63,-229.625"/>
<polygon fill="orange" stroke="orange" points="935.344,-289.522 926.438,-295.26 936.978,-296.328 935.344,-289.522"/>
<text text-anchor="middle" x="1109" y="-256.5" font-family="Helvetica,sans-Serif" font-size="10.00"> &lt; Weibull &gt;</text>
</g>
<!-- Node18 -->
<g id="node18" class="node"><title>Node18</title>
<g id="a_node18"><a xlink:href="classscram_1_1mef_1_1ExpressionFormula.xhtml" target="_top" xlink:title="{scram::mef::ExpressionFormula\l\&lt; NaryExpression\&lt; T,&#45;1 \&gt; \&gt;\n||+ value()\l}">
<polygon fill="white" stroke="black" points="1302,-161.5 1302,-229.5 1470,-229.5 1470,-161.5 1302,-161.5"/>
<text text-anchor="start" x="1310" y="-217.5" font-family="Helvetica,sans-Serif" font-size="10.00">scram::mef::ExpressionFormula</text>
<text text-anchor="middle" x="1386" y="-206.5" font-family="Helvetica,sans-Serif" font-size="10.00">&lt; NaryExpression&lt; T,&#45;1 &gt; &gt;</text>
<polyline fill="none" stroke="black" points="1302,-199.5 1470,-199.5 "/>
<text text-anchor="middle" x="1386" y="-187.5" font-family="Helvetica,sans-Serif" font-size="10.00"> </text>
<polyline fill="none" stroke="black" points="1302,-180.5 1470,-180.5 "/>
<text text-anchor="start" x="1310" y="-168.5" font-family="Helvetica,sans-Serif" font-size="10.00">+ value()</text>
</a>
</g>
</g>
<!-- Node1&#45;&gt;Node18 -->
<g id="edge17" class="edge"><title>Node1&#45;&gt;Node18</title>
<path fill="none" stroke="orange" d="M936.088,-303.244C996.882,-295.301 1074,-283.94 1142,-270 1210.01,-256.057 1226.72,-250.673 1293,-230 1295.95,-229.08 1298.94,-228.124 1301.96,-227.141"/>
<polygon fill="orange" stroke="orange" points="935.559,-299.783 926.091,-304.539 936.458,-306.725 935.559,-299.783"/>
<text text-anchor="start" x="1234" y="-262" font-family="Helvetica,sans-Serif" font-size="10.00"> &lt; NaryExpression&lt; T,</text>
<text text-anchor="middle" x="1288.5" y="-251" font-family="Helvetica,sans-Serif" font-size="10.00">&#45;1 &gt; &gt;</text>
</g>
<!-- Node20 -->
<g id="node20" class="node"><title>Node20</title>
<g id="a_node20"><a xlink:href="classscram_1_1mef_1_1ExpressionFormula.xhtml" target="_top" xlink:title="{scram::mef::ExpressionFormula\l\&lt; NaryExpression\&lt; T, 1 \&gt; \&gt;\n||+ value()\l}">
<polygon fill="white" stroke="black" points="1488,-161.5 1488,-229.5 1656,-229.5 1656,-161.5 1488,-161.5"/>
<text text-anchor="start" x="1496" y="-217.5" font-family="Helvetica,sans-Serif" font-size="10.00">scram::mef::ExpressionFormula</text>
<text text-anchor="middle" x="1572" y="-206.5" font-family="Helvetica,sans-Serif" font-size="10.00">&lt; NaryExpression&lt; T, 1 &gt; &gt;</text>
<polyline fill="none" stroke="black" points="1488,-199.5 1656,-199.5 "/>
<text text-anchor="middle" x="1572" y="-187.5" font-family="Helvetica,sans-Serif" font-size="10.00"> </text>
<polyline fill="none" stroke="black" points="1488,-180.5 1656,-180.5 "/>
<text text-anchor="start" x="1496" y="-168.5" font-family="Helvetica,sans-Serif" font-size="10.00">+ value()</text>
</a>
</g>
</g>
<!-- Node1&#45;&gt;Node20 -->
<g id="edge19" class="edge"><title>Node1&#45;&gt;Node20</title>
<path fill="none" stroke="orange" d="M936.441,-312.878C1042.07,-308.317 1206.77,-297.161 1347,-270 1394.61,-260.779 1446.13,-244.443 1487.84,-229.51"/>
<polygon fill="orange" stroke="orange" points="936.25,-309.383 926.406,-313.299 936.544,-316.376 936.25,-309.383"/>
<text text-anchor="start" x="1429" y="-262" font-family="Helvetica,sans-Serif" font-size="10.00"> &lt; NaryExpression&lt; T,</text>
<text text-anchor="middle" x="1483.5" y="-251" font-family="Helvetica,sans-Serif" font-size="10.00"> 1 &gt; &gt;</text>
</g>
<!-- Node2 -->
<g id="node2" class="node"><title>Node2</title>
<g id="a_node2"><a xlink:href="classscram_1_1mef_1_1Expression.xhtml" target="_top" xlink:title="Abstract base class for all sorts of expressions to describe events. ">
<polygon fill="white" stroke="black" points="763.5,-383.5 763.5,-539.5 892.5,-539.5 892.5,-383.5 763.5,-383.5"/>
<text text-anchor="middle" x="828" y="-527.5" font-family="Helvetica,sans-Serif" font-size="10.00">scram::mef::Expression</text>
<polyline fill="none" stroke="black" points="763.5,-520.5 892.5,-520.5 "/>
<text text-anchor="middle" x="828" y="-508.5" font-family="Helvetica,sans-Serif" font-size="10.00"> </text>
<polyline fill="none" stroke="black" points="763.5,-501.5 892.5,-501.5 "/>
<text text-anchor="start" x="771.5" y="-489.5" font-family="Helvetica,sans-Serif" font-size="10.00">+ Expression()</text>
<text text-anchor="start" x="771.5" y="-478.5" font-family="Helvetica,sans-Serif" font-size="10.00">+ ~Expression()</text>
<text text-anchor="start" x="771.5" y="-467.5" font-family="Helvetica,sans-Serif" font-size="10.00">+ args()</text>
<text text-anchor="start" x="771.5" y="-456.5" font-family="Helvetica,sans-Serif" font-size="10.00">+ Validate()</text>
<text text-anchor="start" x="771.5" y="-445.5" font-family="Helvetica,sans-Serif" font-size="10.00">+ value()</text>
<text text-anchor="start" x="771.5" y="-434.5" font-family="Helvetica,sans-Serif" font-size="10.00">+ interval()</text>
<text text-anchor="start" x="771.5" y="-423.5" font-family="Helvetica,sans-Serif" font-size="10.00">+ IsDeviate()</text>
<text text-anchor="start" x="771.5" y="-412.5" font-family="Helvetica,sans-Serif" font-size="10.00">+ Sample()</text>
<text text-anchor="start" x="771.5" y="-401.5" font-family="Helvetica,sans-Serif" font-size="10.00">+ Reset()</text>
<text text-anchor="start" x="771.5" y="-390.5" font-family="Helvetica,sans-Serif" font-size="10.00"># AddArg()</text>
</a>
</g>
</g>
<!-- Node2&#45;&gt;Node1 -->
<g id="edge1" class="edge"><title>Node2&#45;&gt;Node1</title>
<path fill="none" stroke="midnightblue" d="M828,-373.363C828,-363.428 828,-353.928 828,-345.689"/>
<polygon fill="none" stroke="midnightblue" points="824.5,-373.411 828,-383.411 831.5,-373.411 824.5,-373.411"/>
</g>
<!-- Node3 -->
<g id="node3" class="node"><title>Node3</title>
<polygon fill="white" stroke="#bfbfbf" points="789.5,-577.5 789.5,-634.5 866.5,-634.5 866.5,-577.5 789.5,-577.5"/>
<text text-anchor="middle" x="828" y="-622.5" font-family="Helvetica,sans-Serif" font-size="10.00">noncopyable</text>
<polyline fill="none" stroke="#bfbfbf" points="789.5,-615.5 866.5,-615.5 "/>
<text text-anchor="middle" x="828" y="-603.5" font-family="Helvetica,sans-Serif" font-size="10.00"> </text>
<polyline fill="none" stroke="#bfbfbf" points="789.5,-596.5 866.5,-596.5 "/>
<text text-anchor="middle" x="828" y="-584.5" font-family="Helvetica,sans-Serif" font-size="10.00"> </text>
</g>
<!-- Node3&#45;&gt;Node2 -->
<g id="edge2" class="edge"><title>Node3&#45;&gt;Node2</title>
<path fill="none" stroke="#8b1a1a" d="M828,-566.915C828,-558.424 828,-549.125 828,-539.686"/>
<polygon fill="none" stroke="#8b1a1a" points="824.5,-567.186 828,-577.186 831.5,-567.186 824.5,-567.186"/>
</g>
<!-- Node5 -->
<g id="node5" class="node"><title>Node5</title>
<g id="a_node5"><a xlink:href="classscram_1_1mef_1_1Glm.xhtml" target="_top" xlink:title="Exponential with probability of failure on demand, hourly failure rate, hourly repairing rate...">
<polygon fill="white" stroke="black" points="35.5,-0.5 35.5,-123.5 132.5,-123.5 132.5,-0.5 35.5,-0.5"/>
<text text-anchor="middle" x="84" y="-111.5" font-family="Helvetica,sans-Serif" font-size="10.00">scram::mef::Glm</text>
<polyline fill="none" stroke="black" points="35.5,-104.5 132.5,-104.5 "/>
<text text-anchor="middle" x="84" y="-92.5" font-family="Helvetica,sans-Serif" font-size="10.00"> </text>
<polyline fill="none" stroke="black" points="35.5,-85.5 132.5,-85.5 "/>
<text text-anchor="start" x="43.5" y="-73.5" font-family="Helvetica,sans-Serif" font-size="10.00">+ Glm()</text>
<text text-anchor="start" x="43.5" y="-62.5" font-family="Helvetica,sans-Serif" font-size="10.00">+ Validate()</text>
<text text-anchor="start" x="43.5" y="-51.5" font-family="Helvetica,sans-Serif" font-size="10.00">+ interval()</text>
<text text-anchor="start" x="43.5" y="-40.5" font-family="Helvetica,sans-Serif" font-size="10.00">+ Compute()</text>
<text text-anchor="start" x="43.5" y="-29.5" font-family="Helvetica,sans-Serif" font-size="10.00">+ Compute()</text>
<text text-anchor="start" x="43.5" y="-18.5" font-family="Helvetica,sans-Serif" font-size="10.00">* Compute()</text>
<text text-anchor="start" x="43.5" y="-7.5" font-family="Helvetica,sans-Serif" font-size="10.00">* Compute()</text>
</a>
</g>
</g>
<!-- Node4&#45;&gt;Node5 -->
<g id="edge4" class="edge"><title>Node4&#45;&gt;Node5</title>
<path fill="none" stroke="midnightblue" d="M84,-151.248C84,-142.389 84,-132.91 84,-123.572"/>
<polygon fill="none" stroke="midnightblue" points="80.5001,-151.317 84,-161.317 87.5001,-151.317 80.5001,-151.317"/>
</g>
<!-- Node7 -->
<g id="node7" class="node"><title>Node7</title>
<g id="a_node7"><a xlink:href="classscram_1_1mef_1_1NaryExpression_3_01T_00_012_01_4.xhtml" target="_top" xlink:title="Binary expression. ">
<polygon fill="white" stroke="black" points="194,-11.5 194,-112.5 346,-112.5 346,-11.5 194,-11.5"/>
<text text-anchor="start" x="202" y="-100.5" font-family="Helvetica,sans-Serif" font-size="10.00">scram::mef::NaryExpression</text>
<text text-anchor="middle" x="270" y="-89.5" font-family="Helvetica,sans-Serif" font-size="10.00">&lt; T, 2 &gt;</text>
<polyline fill="none" stroke="black" points="194,-82.5 346,-82.5 "/>
<text text-anchor="middle" x="270" y="-70.5" font-family="Helvetica,sans-Serif" font-size="10.00"> </text>
<polyline fill="none" stroke="black" points="194,-63.5 346,-63.5 "/>
<text text-anchor="start" x="202" y="-51.5" font-family="Helvetica,sans-Serif" font-size="10.00">+ NaryExpression()</text>
<text text-anchor="start" x="202" y="-40.5" font-family="Helvetica,sans-Serif" font-size="10.00">+ Validate()</text>
<text text-anchor="start" x="202" y="-29.5" font-family="Helvetica,sans-Serif" font-size="10.00">+ interval()</text>
<text text-anchor="start" x="202" y="-18.5" font-family="Helvetica,sans-Serif" font-size="10.00">+ Compute()</text>
</a>
</g>
</g>
<!-- Node6&#45;&gt;Node7 -->
<g id="edge6" class="edge"><title>Node6&#45;&gt;Node7</title>
<path fill="none" stroke="midnightblue" d="M270,-151.255C270,-138.884 270,-125.305 270,-112.586"/>
<polygon fill="none" stroke="midnightblue" points="266.5,-151.317 270,-161.317 273.5,-151.317 266.5,-151.317"/>
</g>
<!-- Node9 -->
<g id="node9" class="node"><title>Node9</title>
<g id="a_node9"><a xlink:href="classscram_1_1mef_1_1Switch.xhtml" target="_top" xlink:title="Switch&#45;Case conditional operations. ">
<polygon fill="white" stroke="black" points="402,-22.5 402,-101.5 510,-101.5 510,-22.5 402,-22.5"/>
<text text-anchor="middle" x="456" y="-89.5" font-family="Helvetica,sans-Serif" font-size="10.00">scram::mef::Switch</text>
<polyline fill="none" stroke="black" points="402,-82.5 510,-82.5 "/>
<text text-anchor="middle" x="456" y="-70.5" font-family="Helvetica,sans-Serif" font-size="10.00"> </text>
<polyline fill="none" stroke="black" points="402,-63.5 510,-63.5 "/>
<text text-anchor="start" x="410" y="-51.5" font-family="Helvetica,sans-Serif" font-size="10.00">+ Switch()</text>
<text text-anchor="start" x="410" y="-40.5" font-family="Helvetica,sans-Serif" font-size="10.00">+ interval()</text>
<text text-anchor="start" x="410" y="-29.5" font-family="Helvetica,sans-Serif" font-size="10.00">+ Compute()</text>
</a>
</g>
</g>
<!-- Node8&#45;&gt;Node9 -->
<g id="edge8" class="edge"><title>Node8&#45;&gt;Node9</title>
<path fill="none" stroke="midnightblue" d="M456,-151.175C456,-135.233 456,-117.292 456,-101.776"/>
<polygon fill="none" stroke="midnightblue" points="452.5,-151.317 456,-161.317 459.5,-151.317 452.5,-151.317"/>
</g>
<!-- Node11 -->
<g id="node11" class="node"><title>Node11</title>
<g id="a_node11"><a xlink:href="classscram_1_1mef_1_1Ite.xhtml" target="_top" xlink:title="If&#45;Then&#45;Else ternary expression. ">
<polygon fill="white" stroke="black" points="597.5,-22.5 597.5,-101.5 686.5,-101.5 686.5,-22.5 597.5,-22.5"/>
<text text-anchor="middle" x="642" y="-89.5" font-family="Helvetica,sans-Serif" font-size="10.00">scram::mef::Ite</text>
<polyline fill="none" stroke="black" points="597.5,-82.5 686.5,-82.5 "/>
<text text-anchor="middle" x="642" y="-70.5" font-family="Helvetica,sans-Serif" font-size="10.00"> </text>
<polyline fill="none" stroke="black" points="597.5,-63.5 686.5,-63.5 "/>
<text text-anchor="start" x="605.5" y="-51.5" font-family="Helvetica,sans-Serif" font-size="10.00">+ Ite()</text>
<text text-anchor="start" x="605.5" y="-40.5" font-family="Helvetica,sans-Serif" font-size="10.00">+ interval()</text>
<text text-anchor="start" x="605.5" y="-29.5" font-family="Helvetica,sans-Serif" font-size="10.00">+ Compute()</text>
</a>
</g>
</g>
<!-- Node10&#45;&gt;Node11 -->
<g id="edge10" class="edge"><title>Node10&#45;&gt;Node11</title>
<path fill="none" stroke="midnightblue" d="M642,-151.175C642,-135.233 642,-117.292 642,-101.776"/>
<polygon fill="none" stroke="midnightblue" points="638.5,-151.317 642,-161.317 645.5,-151.317 638.5,-151.317"/>
</g>
<!-- Node13 -->
<g id="node13" class="node"><title>Node13</title>
<g id="a_node13"><a xlink:href="classscram_1_1mef_1_1Mean.xhtml" target="_top" xlink:title="The average of argument expression values. ">
<polygon fill="white" stroke="black" points="776,-22.5 776,-101.5 880,-101.5 880,-22.5 776,-22.5"/>
<text text-anchor="middle" x="828" y="-89.5" font-family="Helvetica,sans-Serif" font-size="10.00">scram::mef::Mean</text>
<polyline fill="none" stroke="black" points="776,-82.5 880,-82.5 "/>
<text text-anchor="middle" x="828" y="-70.5" font-family="Helvetica,sans-Serif" font-size="10.00"> </text>
<polyline fill="none" stroke="black" points="776,-63.5 880,-63.5 "/>
<text text-anchor="start" x="784" y="-51.5" font-family="Helvetica,sans-Serif" font-size="10.00">+ Mean()</text>
<text text-anchor="start" x="784" y="-40.5" font-family="Helvetica,sans-Serif" font-size="10.00">+ interval()</text>
<text text-anchor="start" x="784" y="-29.5" font-family="Helvetica,sans-Serif" font-size="10.00">+ Compute()</text>
</a>
</g>
</g>
<!-- Node12&#45;&gt;Node13 -->
<g id="edge12" class="edge"><title>Node12&#45;&gt;Node13</title>
<path fill="none" stroke="midnightblue" d="M828,-151.175C828,-135.233 828,-117.292 828,-101.776"/>
<polygon fill="none" stroke="midnightblue" points="824.5,-151.317 828,-161.317 831.5,-151.317 824.5,-151.317"/>
</g>
<!-- Node15 -->
<g id="node15" class="node"><title>Node15</title>
<g id="a_node15"><a xlink:href="classscram_1_1mef_1_1Exponential.xhtml" target="_top" xlink:title="Negative exponential distribution with hourly failure rate and time. ">
<polygon fill="white" stroke="black" points="947.5,-0.5 947.5,-123.5 1080.5,-123.5 1080.5,-0.5 947.5,-0.5"/>
<text text-anchor="middle" x="1014" y="-111.5" font-family="Helvetica,sans-Serif" font-size="10.00">scram::mef::Exponential</text>
<polyline fill="none" stroke="black" points="947.5,-104.5 1080.5,-104.5 "/>
<text text-anchor="middle" x="1014" y="-92.5" font-family="Helvetica,sans-Serif" font-size="10.00"> </text>
<polyline fill="none" stroke="black" points="947.5,-85.5 1080.5,-85.5 "/>
<text text-anchor="start" x="955.5" y="-73.5" font-family="Helvetica,sans-Serif" font-size="10.00">+ Exponential()</text>
<text text-anchor="start" x="955.5" y="-62.5" font-family="Helvetica,sans-Serif" font-size="10.00">+ Validate()</text>
<text text-anchor="start" x="955.5" y="-51.5" font-family="Helvetica,sans-Serif" font-size="10.00">+ interval()</text>
<text text-anchor="start" x="955.5" y="-40.5" font-family="Helvetica,sans-Serif" font-size="10.00">+ Compute()</text>
<text text-anchor="start" x="955.5" y="-29.5" font-family="Helvetica,sans-Serif" font-size="10.00">+ Compute()</text>
<text text-anchor="start" x="955.5" y="-18.5" font-family="Helvetica,sans-Serif" font-size="10.00">* Compute()</text>
<text text-anchor="start" x="955.5" y="-7.5" font-family="Helvetica,sans-Serif" font-size="10.00">* Compute()</text>
</a>
</g>
</g>
<!-- Node14&#45;&gt;Node15 -->
<g id="edge14" class="edge"><title>Node14&#45;&gt;Node15</title>
<path fill="none" stroke="midnightblue" d="M1014,-151.248C1014,-142.389 1014,-132.91 1014,-123.572"/>
<polygon fill="none" stroke="midnightblue" points="1010.5,-151.317 1014,-161.317 1017.5,-151.317 1010.5,-151.317"/>
</g>
<!-- Node17 -->
<g id="node17" class="node"><title>Node17</title>
<g id="a_node17"><a xlink:href="classscram_1_1mef_1_1Weibull.xhtml" target="_top" xlink:title="Weibull distribution with scale, shape, time shift, and time. ">
<polygon fill="white" stroke="black" points="1145,-0.5 1145,-123.5 1255,-123.5 1255,-0.5 1145,-0.5"/>
<text text-anchor="middle" x="1200" y="-111.5" font-family="Helvetica,sans-Serif" font-size="10.00">scram::mef::Weibull</text>
<polyline fill="none" stroke="black" points="1145,-104.5 1255,-104.5 "/>
<text text-anchor="middle" x="1200" y="-92.5" font-family="Helvetica,sans-Serif" font-size="10.00"> </text>
<polyline fill="none" stroke="black" points="1145,-85.5 1255,-85.5 "/>
<text text-anchor="start" x="1153" y="-73.5" font-family="Helvetica,sans-Serif" font-size="10.00">+ Weibull()</text>
<text text-anchor="start" x="1153" y="-62.5" font-family="Helvetica,sans-Serif" font-size="10.00">+ Validate()</text>
<text text-anchor="start" x="1153" y="-51.5" font-family="Helvetica,sans-Serif" font-size="10.00">+ interval()</text>
<text text-anchor="start" x="1153" y="-40.5" font-family="Helvetica,sans-Serif" font-size="10.00">+ Compute()</text>
<text text-anchor="start" x="1153" y="-29.5" font-family="Helvetica,sans-Serif" font-size="10.00">+ Compute()</text>
<text text-anchor="start" x="1153" y="-18.5" font-family="Helvetica,sans-Serif" font-size="10.00">* Compute()</text>
<text text-anchor="start" x="1153" y="-7.5" font-family="Helvetica,sans-Serif" font-size="10.00">* Compute()</text>
</a>
</g>
</g>
<!-- Node16&#45;&gt;Node17 -->
<g id="edge16" class="edge"><title>Node16&#45;&gt;Node17</title>
<path fill="none" stroke="midnightblue" d="M1200,-151.248C1200,-142.389 1200,-132.91 1200,-123.572"/>
<polygon fill="none" stroke="midnightblue" points="1196.5,-151.317 1200,-161.317 1203.5,-151.317 1196.5,-151.317"/>
</g>
<!-- Node19 -->
<g id="node19" class="node"><title>Node19</title>
<g id="a_node19"><a xlink:href="classscram_1_1mef_1_1NaryExpression_3_01T_00-1_01_4.xhtml" target="_top" xlink:title="Multivariate expression. ">
<polygon fill="white" stroke="black" points="1310,-11.5 1310,-112.5 1462,-112.5 1462,-11.5 1310,-11.5"/>
<text text-anchor="start" x="1318" y="-100.5" font-family="Helvetica,sans-Serif" font-size="10.00">scram::mef::NaryExpression</text>
<text text-anchor="middle" x="1386" y="-89.5" font-family="Helvetica,sans-Serif" font-size="10.00">&lt; T,&#45;1 &gt;</text>
<polyline fill="none" stroke="black" points="1310,-82.5 1462,-82.5 "/>
<text text-anchor="middle" x="1386" y="-70.5" font-family="Helvetica,sans-Serif" font-size="10.00"> </text>
<polyline fill="none" stroke="black" points="1310,-63.5 1462,-63.5 "/>
<text text-anchor="start" x="1318" y="-51.5" font-family="Helvetica,sans-Serif" font-size="10.00">+ NaryExpression()</text>
<text text-anchor="start" x="1318" y="-40.5" font-family="Helvetica,sans-Serif" font-size="10.00">+ Validate()</text>
<text text-anchor="start" x="1318" y="-29.5" font-family="Helvetica,sans-Serif" font-size="10.00">+ interval()</text>
<text text-anchor="start" x="1318" y="-18.5" font-family="Helvetica,sans-Serif" font-size="10.00">+ Compute()</text>
</a>
</g>
</g>
<!-- Node18&#45;&gt;Node19 -->
<g id="edge18" class="edge"><title>Node18&#45;&gt;Node19</title>
<path fill="none" stroke="midnightblue" d="M1386,-151.255C1386,-138.884 1386,-125.305 1386,-112.586"/>
<polygon fill="none" stroke="midnightblue" points="1382.5,-151.317 1386,-161.317 1389.5,-151.317 1382.5,-151.317"/>
</g>
<!-- Node21 -->
<g id="node21" class="node"><title>Node21</title>
<g id="a_node21"><a xlink:href="classscram_1_1mef_1_1NaryExpression_3_01T_00_011_01_4.xhtml" target="_top" xlink:title="Unary expression. ">
<polygon fill="white" stroke="black" points="1496,-11.5 1496,-112.5 1648,-112.5 1648,-11.5 1496,-11.5"/>
<text text-anchor="start" x="1504" y="-100.5" font-family="Helvetica,sans-Serif" font-size="10.00">scram::mef::NaryExpression</text>
<text text-anchor="middle" x="1572" y="-89.5" font-family="Helvetica,sans-Serif" font-size="10.00">&lt; T, 1 &gt;</text>
<polyline fill="none" stroke="black" points="1496,-82.5 1648,-82.5 "/>
<text text-anchor="middle" x="1572" y="-70.5" font-family="Helvetica,sans-Serif" font-size="10.00"> </text>
<polyline fill="none" stroke="black" points="1496,-63.5 1648,-63.5 "/>
<text text-anchor="start" x="1504" y="-51.5" font-family="Helvetica,sans-Serif" font-size="10.00">+ NaryExpression()</text>
<text text-anchor="start" x="1504" y="-40.5" font-family="Helvetica,sans-Serif" font-size="10.00">+ Validate()</text>
<text text-anchor="start" x="1504" y="-29.5" font-family="Helvetica,sans-Serif" font-size="10.00">+ interval()</text>
<text text-anchor="start" x="1504" y="-18.5" font-family="Helvetica,sans-Serif" font-size="10.00">+ Compute()</text>
</a>
</g>
</g>
<!-- Node20&#45;&gt;Node21 -->
<g id="edge20" class="edge"><title>Node20&#45;&gt;Node21</title>
<path fill="none" stroke="midnightblue" d="M1572,-151.255C1572,-138.884 1572,-125.305 1572,-112.586"/>
<polygon fill="none" stroke="midnightblue" points="1568.5,-151.317 1572,-161.317 1575.5,-151.317 1568.5,-151.317"/>
</g>
</g>
</svg>
