<?xml version="1.0" encoding="UTF-8" standalone="no"?>
<!DOCTYPE svg PUBLIC "-//W3C//DTD SVG 1.1//EN"
 "http://www.w3.org/Graphics/SVG/1.1/DTD/svg11.dtd">
<!-- Generated by graphviz version 2.38.0 (20140413.2041)
 -->
<!-- Title: scram::mef::Expression::Sample Pages: 1 -->
<svg width="550pt" height="411pt"
 viewBox="0.00 0.00 550.00 410.50" xmlns="http://www.w3.org/2000/svg" xmlns:xlink="http://www.w3.org/1999/xlink">
<g id="graph0" class="graph" transform="scale(1 1) rotate(0) translate(4 406.5)">
<title>scram::mef::Expression::Sample</title>
<polygon fill="white" stroke="none" points="-4,4 -4,-406.5 546,-406.5 546,4 -4,4"/>
<!-- Node1 -->
<g id="node1" class="node"><title>Node1</title>
<polygon fill="#bfbfbf" stroke="black" points="0,-120.5 0,-150.5 129,-150.5 129,-120.5 0,-120.5"/>
<text text-anchor="start" x="8" y="-138.5" font-family="Helvetica,sans-Serif" font-size="10.00">scram::mef::Expression</text>
<text text-anchor="middle" x="64.5" y="-127.5" font-family="Helvetica,sans-Serif" font-size="10.00">::Sample</text>
</g>
<!-- Node2 -->
<g id="node2" class="node"><title>Node2</title>
<g id="a_node2"><a xlink:href="classscram_1_1mef_1_1Expression.xhtml#a179b21e75df522673e6d51b784d10e86" target="_top" xlink:title="scram::mef::Expression\l::interval">
<polygon fill="white" stroke="black" points="184.5,-169.5 184.5,-199.5 313.5,-199.5 313.5,-169.5 184.5,-169.5"/>
<text text-anchor="start" x="192.5" y="-187.5" font-family="Helvetica,sans-Serif" font-size="10.00">scram::mef::Expression</text>
<text text-anchor="middle" x="249" y="-176.5" font-family="Helvetica,sans-Serif" font-size="10.00">::interval</text>
</a>
</g>
</g>
<!-- Node1&#45;&gt;Node2 -->
<g id="edge1" class="edge"><title>Node1&#45;&gt;Node2</title>
<path fill="none" stroke="midnightblue" d="M131.604,-153.248C151.383,-158.559 172.872,-164.329 191.941,-169.448"/>
<polygon fill="midnightblue" stroke="midnightblue" points="132.311,-149.814 121.745,-150.601 130.495,-156.575 132.311,-149.814"/>
</g>
<!-- Node11 -->
<g id="node11" class="node"><title>Node11</title>
<g id="a_node11"><a xlink:href="classscram_1_1mef_1_1PeriodicTest.xhtml#a0aa8dc4d62e8fc24194f0183bc533638" target="_top" xlink:title="scram::mef::PeriodicTest\l::interval">
<polygon fill="white" stroke="black" points="182,-120.5 182,-150.5 316,-150.5 316,-120.5 182,-120.5"/>
<text text-anchor="start" x="190" y="-138.5" font-family="Helvetica,sans-Serif" font-size="10.00">scram::mef::PeriodicTest</text>
<text text-anchor="middle" x="249" y="-127.5" font-family="Helvetica,sans-Serif" font-size="10.00">::interval</text>
</a>
</g>
</g>
<!-- Node1&#45;&gt;Node11 -->
<g id="edge14" class="edge"><title>Node1&#45;&gt;Node11</title>
<path fill="none" stroke="midnightblue" d="M139.222,-135.5C153.329,-135.5 168.016,-135.5 181.866,-135.5"/>
<polygon fill="midnightblue" stroke="midnightblue" points="139.073,-132 129.073,-135.5 139.073,-139 139.073,-132"/>
</g>
<!-- Node12 -->
<g id="node12" class="node"><title>Node12</title>
<g id="a_node12"><a xlink:href="classscram_1_1mef_1_1ExpressionFormula.xhtml#a1f7c71744d679ab1a4e5ca3ca98277a6" target="_top" xlink:title="Computes the expression with argument expression default values. ">
<polygon fill="white" stroke="black" points="165,-61 165,-102 333,-102 333,-61 165,-61"/>
<text text-anchor="start" x="173" y="-90" font-family="Helvetica,sans-Serif" font-size="10.00">scram::mef::ExpressionFormula</text>
<text text-anchor="start" x="173" y="-79" font-family="Helvetica,sans-Serif" font-size="10.00">&lt; NaryExpression&lt; T, 1 &gt;</text>
<text text-anchor="middle" x="249" y="-68" font-family="Helvetica,sans-Serif" font-size="10.00"> &gt;::value</text>
</a>
</g>
</g>
<!-- Node1&#45;&gt;Node12 -->
<g id="edge15" class="edge"><title>Node1&#45;&gt;Node12</title>
<path fill="none" stroke="midnightblue" d="M126.06,-117.581C142.919,-112.592 161.361,-107.136 178.681,-102.011"/>
<polygon fill="midnightblue" stroke="midnightblue" points="124.932,-114.264 116.336,-120.458 126.919,-120.977 124.932,-114.264"/>
</g>
<!-- Node3 -->
<g id="node3" class="node"><title>Node3</title>
<g id="a_node3"><a xlink:href="expression_8h.xhtml#aee12bbf581047eae146d411cef0585b9" target="_top" xlink:title="Ensures that expression yields non&#45;negative (&gt;= 0) values. ">
<polygon fill="white" stroke="black" points="369,-365 369,-384 542,-384 542,-365 369,-365"/>
<text text-anchor="middle" x="455.5" y="-372" font-family="Helvetica,sans-Serif" font-size="10.00">scram::mef::EnsureNonNegative</text>
</a>
</g>
</g>
<!-- Node2&#45;&gt;Node3 -->
<g id="edge2" class="edge"><title>Node2&#45;&gt;Node3</title>
<path fill="none" stroke="midnightblue" d="M259.938,-208.924C276.599,-246.629 313.85,-318.515 369,-355.5 374.809,-359.396 381.291,-362.505 388.017,-364.985"/>
<polygon fill="midnightblue" stroke="midnightblue" points="263.132,-207.489 255.967,-199.684 256.7,-210.254 263.132,-207.489"/>
</g>
<!-- Node4 -->
<g id="node4" class="node"><title>Node4</title>
<g id="a_node4"><a xlink:href="expression_8h.xhtml#a051e7ad7c13edf0451ea5db7caf17729" target="_top" xlink:title="Ensures that expression yields positive (&gt; 0) values. ">
<polygon fill="white" stroke="black" points="382,-309 382,-328 529,-328 529,-309 382,-309"/>
<text text-anchor="middle" x="455.5" y="-316" font-family="Helvetica,sans-Serif" font-size="10.00">scram::mef::EnsurePositive</text>
</a>
</g>
</g>
<!-- Node2&#45;&gt;Node4 -->
<g id="edge4" class="edge"><title>Node2&#45;&gt;Node4</title>
<path fill="none" stroke="midnightblue" d="M267.172,-207.472C288.193,-233.882 326.305,-276.535 369,-299.5 376.231,-303.39 384.216,-306.484 392.315,-308.945"/>
<polygon fill="midnightblue" stroke="midnightblue" points="269.873,-205.245 260.963,-199.513 264.354,-209.55 269.873,-205.245"/>
</g>
<!-- Node5 -->
<g id="node5" class="node"><title>Node5</title>
<g id="a_node5"><a xlink:href="expression_8h.xhtml#a958c404b31cdb929075b67827e31f4de" target="_top" xlink:title="Ensures that expression can be used for probability ([0, 1]). ">
<polygon fill="white" stroke="black" points="375.5,-253 375.5,-272 535.5,-272 535.5,-253 375.5,-253"/>
<text text-anchor="middle" x="455.5" y="-260" font-family="Helvetica,sans-Serif" font-size="10.00">scram::mef::EnsureProbability</text>
</a>
</g>
</g>
<!-- Node2&#45;&gt;Node5 -->
<g id="edge6" class="edge"><title>Node2&#45;&gt;Node5</title>
<path fill="none" stroke="midnightblue" d="M284.46,-204.367C307.714,-217.069 339.439,-233.061 369,-243.5 379.467,-247.196 390.917,-250.33 401.938,-252.92"/>
<polygon fill="midnightblue" stroke="midnightblue" points="286.117,-201.284 275.673,-199.504 282.727,-207.408 286.117,-201.284"/>
</g>
<!-- Node6 -->
<g id="node6" class="node"><title>Node6</title>
<g id="a_node6"><a xlink:href="expression_8h.xhtml#acfed368a4876558582c7b15a0af3330e" target="_top" xlink:title="Ensures that expression values are within the interval. ">
<polygon fill="white" stroke="black" points="386,-197 386,-216 525,-216 525,-197 386,-197"/>
<text text-anchor="middle" x="455.5" y="-204" font-family="Helvetica,sans-Serif" font-size="10.00">scram::mef::EnsureWithin</text>
</a>
</g>
</g>
<!-- Node2&#45;&gt;Node6 -->
<g id="edge8" class="edge"><title>Node2&#45;&gt;Node6</title>
<path fill="none" stroke="midnightblue" d="M323.723,-192.431C344.036,-194.616 365.981,-196.977 385.987,-199.129"/>
<polygon fill="midnightblue" stroke="midnightblue" points="323.901,-188.93 313.584,-191.34 323.152,-195.89 323.901,-188.93"/>
</g>
<!-- Node7 -->
<g id="node7" class="node"><title>Node7</title>
<g id="a_node7"><a xlink:href="classscram_1_1mef_1_1Switch.xhtml#aece696754288dcbdbcda71355da80a19" target="_top" xlink:title="scram::mef::Switch\l::interval">
<polygon fill="white" stroke="black" points="401.5,-147.5 401.5,-177.5 509.5,-177.5 509.5,-147.5 401.5,-147.5"/>
<text text-anchor="start" x="409.5" y="-165.5" font-family="Helvetica,sans-Serif" font-size="10.00">scram::mef::Switch</text>
<text text-anchor="middle" x="455.5" y="-154.5" font-family="Helvetica,sans-Serif" font-size="10.00">::interval</text>
</a>
</g>
</g>
<!-- Node2&#45;&gt;Node7 -->
<g id="edge10" class="edge"><title>Node2&#45;&gt;Node7</title>
<path fill="none" stroke="midnightblue" d="M323.649,-176.577C349.312,-173.816 377.589,-170.774 401.271,-168.226"/>
<polygon fill="midnightblue" stroke="midnightblue" points="323.152,-173.11 313.584,-177.66 323.901,-180.07 323.152,-173.11"/>
</g>
<!-- Node8 -->
<g id="node8" class="node"><title>Node8</title>
<g id="a_node8"><a xlink:href="classscram_1_1mef_1_1LognormalDeviate.xhtml#a18f3499d5d98d1af462db56d07069997" target="_top" xlink:title="scram::mef::LognormalDeviate\l::value">
<polygon fill="white" stroke="black" points="373,-98.5 373,-128.5 538,-128.5 538,-98.5 373,-98.5"/>
<text text-anchor="start" x="381" y="-116.5" font-family="Helvetica,sans-Serif" font-size="10.00">scram::mef::LognormalDeviate</text>
<text text-anchor="middle" x="455.5" y="-105.5" font-family="Helvetica,sans-Serif" font-size="10.00">::value</text>
</a>
</g>
</g>
<!-- Node2&#45;&gt;Node8 -->
<g id="edge11" class="edge"><title>Node2&#45;&gt;Node8</title>
<path fill="none" stroke="midnightblue" d="M316.507,-166.139C322.154,-164.078 327.72,-161.862 333,-159.5 350.117,-151.845 351.811,-144.993 369,-137.5 376.632,-134.173 384.848,-131.182 393.063,-128.532"/>
<polygon fill="midnightblue" stroke="midnightblue" points="315.259,-162.867 306.964,-169.459 317.559,-169.478 315.259,-162.867"/>
</g>
<!-- Node9 -->
<g id="node9" class="node"><title>Node9</title>
<g id="a_node9"><a xlink:href="classscram_1_1mef_1_1GammaDeviate.xhtml#aac9dd9e446203c28033a32385a68570c" target="_top" xlink:title="scram::mef::GammaDeviate\l::value">
<polygon fill="white" stroke="black" points="379,-49.5 379,-79.5 532,-79.5 532,-49.5 379,-49.5"/>
<text text-anchor="start" x="387" y="-67.5" font-family="Helvetica,sans-Serif" font-size="10.00">scram::mef::GammaDeviate</text>
<text text-anchor="middle" x="455.5" y="-56.5" font-family="Helvetica,sans-Serif" font-size="10.00">::value</text>
</a>
</g>
</g>
<!-- Node2&#45;&gt;Node9 -->
<g id="edge12" class="edge"><title>Node2&#45;&gt;Node9</title>
<path fill="none" stroke="midnightblue" d="M322.501,-166.798C326.221,-164.639 329.755,-162.217 333,-159.5 360.127,-136.788 341.659,-110.955 369,-88.5 373.17,-85.0752 377.798,-82.1382 382.681,-79.6198"/>
<polygon fill="midnightblue" stroke="midnightblue" points="320.849,-163.711 313.531,-171.372 324.029,-169.947 320.849,-163.711"/>
</g>
<!-- Node10 -->
<g id="node10" class="node"><title>Node10</title>
<g id="a_node10"><a xlink:href="classscram_1_1mef_1_1BetaDeviate.xhtml#a23cf22ef291bb47601ddefd7640fe93a" target="_top" xlink:title="scram::mef::BetaDeviate\l::value">
<polygon fill="white" stroke="black" points="387,-0.5 387,-30.5 524,-30.5 524,-0.5 387,-0.5"/>
<text text-anchor="start" x="395" y="-18.5" font-family="Helvetica,sans-Serif" font-size="10.00">scram::mef::BetaDeviate</text>
<text text-anchor="middle" x="455.5" y="-7.5" font-family="Helvetica,sans-Serif" font-size="10.00">::value</text>
</a>
</g>
</g>
<!-- Node2&#45;&gt;Node10 -->
<g id="edge13" class="edge"><title>Node2&#45;&gt;Node10</title>
<path fill="none" stroke="midnightblue" d="M322.364,-167.933C326.212,-165.495 329.803,-162.701 333,-159.5 372.351,-120.105 329.278,-78.5209 369,-39.5 374.169,-34.422 380.322,-30.3995 386.924,-27.2163"/>
<polygon fill="midnightblue" stroke="midnightblue" points="320.685,-164.862 313.582,-172.723 324.037,-171.007 320.685,-164.862"/>
</g>
<!-- Node3&#45;&gt;Node3 -->
<g id="edge3" class="edge"><title>Node3&#45;&gt;Node3</title>
<path fill="none" stroke="midnightblue" d="M416.894,-391.614C416.315,-397.626 429.184,-402.5 455.5,-402.5 492.113,-402.5 502.697,-393.065 487.251,-384.257"/>
<polygon fill="midnightblue" stroke="midnightblue" points="419.492,-393.959 423.749,-384.257 414.371,-389.187 419.492,-393.959"/>
</g>
<!-- Node4&#45;&gt;Node4 -->
<g id="edge5" class="edge"><title>Node4&#45;&gt;Node4</title>
<path fill="none" stroke="midnightblue" d="M416.894,-335.614C416.315,-341.626 429.184,-346.5 455.5,-346.5 492.113,-346.5 502.697,-337.065 487.251,-328.257"/>
<polygon fill="midnightblue" stroke="midnightblue" points="419.492,-337.959 423.749,-328.257 414.371,-333.187 419.492,-337.959"/>
</g>
<!-- Node5&#45;&gt;Node5 -->
<g id="edge7" class="edge"><title>Node5&#45;&gt;Node5</title>
<path fill="none" stroke="midnightblue" d="M416.894,-279.614C416.315,-285.626 429.184,-290.5 455.5,-290.5 492.113,-290.5 502.697,-281.065 487.251,-272.257"/>
<polygon fill="midnightblue" stroke="midnightblue" points="419.492,-281.959 423.749,-272.257 414.371,-277.187 419.492,-281.959"/>
</g>
<!-- Node6&#45;&gt;Node6 -->
<g id="edge9" class="edge"><title>Node6&#45;&gt;Node6</title>
<path fill="none" stroke="midnightblue" d="M416.894,-223.614C416.315,-229.626 429.184,-234.5 455.5,-234.5 492.113,-234.5 502.697,-225.065 487.251,-216.257"/>
<polygon fill="midnightblue" stroke="midnightblue" points="419.492,-225.959 423.749,-216.257 414.371,-221.187 419.492,-225.959"/>
</g>
</g>
</svg>
