<?xml version="1.0" encoding="UTF-8" standalone="no"?>
<!DOCTYPE svg PUBLIC "-//W3C//DTD SVG 1.1//EN"
 "http://www.w3.org/Graphics/SVG/1.1/DTD/svg11.dtd">
<!-- Generated by graphviz version 2.38.0 (20140413.2041)
 -->
<!-- Title: conditional.cc Pages: 1 -->
<!--zoomable 274 -->
<svg id="main" version="1.1" xmlns="http://www.w3.org/2000/svg" xmlns:xlink="http://www.w3.org/1999/xlink" xml:space="preserve" onload="init(evt)">
<style type="text/css"><![CDATA[
.edge:hover path { stroke: red; }
.edge:hover polygon { stroke: red; fill: red; }
]]></style>
<script type="text/javascript"><![CDATA[
var edges = document.getElementsByTagName('g');
if (edges && edges.length) {
  for (var i=0;i<edges.length;i++) {
    if (edges[i].id.substr(0,4)=='edge') {
      edges[i].setAttribute('class','edge');
    }
  }
}
]]></script>
        <defs>
                <circle id="rim" cx="0" cy="0" r="7"/>
                <circle id="rim2" cx="0" cy="0" r="3.5"/>
                <g id="zoomPlus">
                        <use xlink:href="#rim" fill="#404040">
                                <set attributeName="fill" to="#808080" begin="zoomplus.mouseover" end="zoomplus.mouseout"/>
                        </use>
                        <path d="M-4,0h8M0,-4v8" fill="none" stroke="white" stroke-width="1.5" pointer-events="none"/>
                </g>
                <g id="zoomMin">
                        <use xlink:href="#rim" fill="#404040">
                                <set attributeName="fill" to="#808080" begin="zoomminus.mouseover" end="zoomminus.mouseout"/>
                        </use>
                        <path d="M-4,0h8" fill="none" stroke="white" stroke-width="1.5" pointer-events="none"/>
                </g>
                <g id="dirArrow">
                        <path fill="none" stroke="white" stroke-width="1.5" d="M0,-3.0v7 M-2.5,-0.5L0,-3.0L2.5,-0.5"/>
                </g>
               <g id="resetDef">
                       <use xlink:href="#rim2" fill="#404040">
                               <set attributeName="fill" to="#808080" begin="reset.mouseover" end="reset.mouseout"/>
                       </use>
               </g>
        </defs>

<script type="text/javascript">
var viewWidth = 810;
var viewHeight = 274;
var sectionId = 'dynsection-0';
</script>
<script xlink:href="svgpan.js"/>
<svg id="graph" class="graph">
<g id="viewport">
<title>conditional.cc</title>
<polygon fill="white" stroke="none" points="-4,4 -4,-270 805.5,-270 805.5,4 -4,4"/>
<!-- Node1 -->
<g id="node1" class="node"><title>Node1</title>
<polygon fill="#bfbfbf" stroke="black" points="659,-246.5 659,-265.5 741,-265.5 741,-246.5 659,-246.5"/>
<text text-anchor="middle" x="700" y="-253.5" font-family="Helvetica,sans-Serif" font-size="10.00">conditional.cc</text>
</g>
<!-- Node2 -->
<g id="node2" class="node"><title>Node2</title>
<g id="a_node2"><a xlink:href="conditional_8h.xhtml" target="_top" xlink:title="Conditional (if&#45;then&#45;else, switch&#45;case) expressions. ">
<polygon fill="white" stroke="black" points="695.5,-190.5 695.5,-209.5 772.5,-209.5 772.5,-190.5 695.5,-190.5"/>
<text text-anchor="middle" x="734" y="-197.5" font-family="Helvetica,sans-Serif" font-size="10.00">conditional.h</text>
</a>
</g>
</g>
<!-- Node1&#45;&gt;Node2 -->
<g id="edge1" class="edge"><title>Node1&#45;&gt;Node2</title>
<path fill="none" stroke="midnightblue" d="M705.614,-246.083C710.367,-238.534 717.318,-227.495 723.152,-218.23"/>
<polygon fill="midnightblue" stroke="midnightblue" points="726.124,-220.078 728.49,-209.751 720.2,-216.349 726.124,-220.078"/>
</g>
<!-- Node5 -->
<g id="node5" class="node"><title>Node5</title>
<polygon fill="white" stroke="#bfbfbf" points="636,-73 636,-92 698,-92 698,-73 636,-73"/>
<text text-anchor="middle" x="667" y="-80" font-family="Helvetica,sans-Serif" font-size="10.00">algorithm</text>
</g>
<!-- Node1&#45;&gt;Node5 -->
<g id="edge21" class="edge"><title>Node1&#45;&gt;Node5</title>
<path fill="none" stroke="midnightblue" d="M696.921,-246.48C693.781,-237.508 688.962,-222.919 686,-210 677.346,-172.252 671.666,-127.233 668.924,-102.365"/>
<polygon fill="midnightblue" stroke="midnightblue" points="672.378,-101.749 667.841,-92.1744 665.417,-102.488 672.378,-101.749"/>
</g>
<!-- Node3 -->
<g id="node3" class="node"><title>Node3</title>
<polygon fill="white" stroke="#bfbfbf" points="754.5,-6 754.5,-25 801.5,-25 801.5,-6 754.5,-6"/>
<text text-anchor="middle" x="778" y="-13" font-family="Helvetica,sans-Serif" font-size="10.00">vector</text>
</g>
<!-- Node2&#45;&gt;Node3 -->
<g id="edge2" class="edge"><title>Node2&#45;&gt;Node3</title>
<path fill="none" stroke="midnightblue" d="M736.122,-190.198C742.903,-162.073 764.147,-73.9576 773.502,-35.1575"/>
<polygon fill="midnightblue" stroke="midnightblue" points="776.958,-35.7558 775.899,-25.214 770.153,-34.1151 776.958,-35.7558"/>
</g>
<!-- Node4 -->
<g id="node4" class="node"><title>Node4</title>
<g id="a_node4"><a xlink:href="expression_8h.xhtml" target="_top" xlink:title="Provides the base class for all expressions and units for expression values. ">
<polygon fill="white" stroke="black" points="315.5,-134.5 315.5,-153.5 410.5,-153.5 410.5,-134.5 315.5,-134.5"/>
<text text-anchor="middle" x="363" y="-141.5" font-family="Helvetica,sans-Serif" font-size="10.00">src/expression.h</text>
</a>
</g>
</g>
<!-- Node2&#45;&gt;Node4 -->
<g id="edge3" class="edge"><title>Node2&#45;&gt;Node4</title>
<path fill="none" stroke="midnightblue" d="M695.346,-193.374C629.895,-183.847 496.929,-164.494 420.51,-153.371"/>
<polygon fill="midnightblue" stroke="midnightblue" points="420.97,-149.901 410.57,-151.924 419.961,-156.828 420.97,-149.901"/>
</g>
<!-- Node4&#45;&gt;Node3 -->
<g id="edge8" class="edge"><title>Node4&#45;&gt;Node3</title>
<path fill="none" stroke="midnightblue" d="M410.684,-139.998C457.665,-135.565 530.546,-124.663 588,-98 608.085,-88.6791 607.4,-77.3005 627,-67 675.537,-41.4927 693.589,-50.0616 745,-31 746.654,-30.3868 748.344,-29.7328 750.041,-29.0545"/>
<polygon fill="midnightblue" stroke="midnightblue" points="751.791,-32.1159 759.657,-25.0176 749.081,-25.6617 751.791,-32.1159"/>
</g>
<!-- Node4&#45;&gt;Node5 -->
<g id="edge4" class="edge"><title>Node4&#45;&gt;Node5</title>
<path fill="none" stroke="midnightblue" d="M410.674,-136.755C462.952,-129.435 549.109,-115.982 622,-98 625.452,-97.1485 629.023,-96.17 632.576,-95.132"/>
<polygon fill="midnightblue" stroke="midnightblue" points="633.891,-98.3893 642.421,-92.1046 631.834,-91.6985 633.891,-98.3893"/>
</g>
<!-- Node6 -->
<g id="node6" class="node"><title>Node6</title>
<polygon fill="white" stroke="#bfbfbf" points="0,-73 0,-92 56,-92 56,-73 0,-73"/>
<text text-anchor="middle" x="28" y="-80" font-family="Helvetica,sans-Serif" font-size="10.00">sstream</text>
</g>
<!-- Node4&#45;&gt;Node6 -->
<g id="edge5" class="edge"><title>Node4&#45;&gt;Node6</title>
<path fill="none" stroke="midnightblue" d="M315.362,-139.116C255.962,-133.521 151.678,-121.215 65,-98 62.3426,-97.2883 59.6153,-96.4465 56.9045,-95.5324"/>
<polygon fill="midnightblue" stroke="midnightblue" points="57.9061,-92.1717 47.3125,-92.0085 55.4921,-98.7423 57.9061,-92.1717"/>
</g>
<!-- Node7 -->
<g id="node7" class="node"><title>Node7</title>
<polygon fill="white" stroke="#bfbfbf" points="128,-6 128,-25 172,-25 172,-6 128,-6"/>
<text text-anchor="middle" x="150" y="-13" font-family="Helvetica,sans-Serif" font-size="10.00">string</text>
</g>
<!-- Node4&#45;&gt;Node7 -->
<g id="edge6" class="edge"><title>Node4&#45;&gt;Node7</title>
<path fill="none" stroke="midnightblue" d="M315.454,-137.745C264.847,-131.181 189.303,-118.281 169,-98 152.486,-81.5044 149.216,-53.6152 149.071,-35.1294"/>
<polygon fill="midnightblue" stroke="midnightblue" points="152.573,-35.0954 149.295,-25.0205 145.575,-34.9408 152.573,-35.0954"/>
</g>
<!-- Node8 -->
<g id="node8" class="node"><title>Node8</title>
<polygon fill="white" stroke="#bfbfbf" points="178,-73 178,-92 220,-92 220,-73 178,-73"/>
<text text-anchor="middle" x="199" y="-80" font-family="Helvetica,sans-Serif" font-size="10.00">utility</text>
</g>
<!-- Node4&#45;&gt;Node8 -->
<g id="edge7" class="edge"><title>Node4&#45;&gt;Node8</title>
<path fill="none" stroke="midnightblue" d="M334.125,-134.461C306.724,-126.088 264.564,-112.499 229,-98 227.627,-97.4404 226.229,-96.8475 224.824,-96.2337"/>
<polygon fill="midnightblue" stroke="midnightblue" points="226.197,-93.013 215.65,-92.0081 223.269,-99.3709 226.197,-93.013"/>
</g>
<!-- Node9 -->
<g id="node9" class="node"><title>Node9</title>
<polygon fill="white" stroke="#bfbfbf" points="238,-67.5 238,-97.5 350,-97.5 350,-67.5 238,-67.5"/>
<text text-anchor="start" x="246" y="-85.5" font-family="Helvetica,sans-Serif" font-size="10.00">boost/icl/continuous</text>
<text text-anchor="middle" x="294" y="-74.5" font-family="Helvetica,sans-Serif" font-size="10.00">_interval.hpp</text>
</g>
<!-- Node4&#45;&gt;Node9 -->
<g id="edge9" class="edge"><title>Node4&#45;&gt;Node9</title>
<path fill="none" stroke="midnightblue" d="M353.114,-134.475C343.944,-126.567 329.932,-114.485 317.851,-104.067"/>
<polygon fill="midnightblue" stroke="midnightblue" points="320.121,-101.403 310.262,-97.523 315.549,-106.704 320.121,-101.403"/>
</g>
<!-- Node10 -->
<g id="node10" class="node"><title>Node10</title>
<polygon fill="white" stroke="#bfbfbf" points="368,-73 368,-92 496,-92 496,-73 368,-73"/>
<text text-anchor="middle" x="432" y="-80" font-family="Helvetica,sans-Serif" font-size="10.00">boost/noncopyable.hpp</text>
</g>
<!-- Node4&#45;&gt;Node10 -->
<g id="edge10" class="edge"><title>Node4&#45;&gt;Node10</title>
<path fill="none" stroke="midnightblue" d="M372.886,-134.475C383.646,-125.197 401.071,-110.171 414.221,-98.831"/>
<polygon fill="midnightblue" stroke="midnightblue" points="416.845,-101.19 422.132,-92.0091 412.273,-95.889 416.845,-101.19"/>
</g>
<!-- Node11 -->
<g id="node11" class="node"><title>Node11</title>
<g id="a_node11"><a xlink:href="element_8h.xhtml" target="_top" xlink:title="Helper classes, structs, and properties common to all other classes. ">
<polygon fill="white" stroke="black" points="514.5,-73 514.5,-92 579.5,-92 579.5,-73 514.5,-73"/>
<text text-anchor="middle" x="547" y="-80" font-family="Helvetica,sans-Serif" font-size="10.00">element.h</text>
</a>
</g>
</g>
<!-- Node4&#45;&gt;Node11 -->
<g id="edge11" class="edge"><title>Node4&#45;&gt;Node11</title>
<path fill="none" stroke="midnightblue" d="M390.555,-134.497C419.214,-125.599 465.35,-111.125 505,-98 507.588,-97.1432 510.262,-96.2467 512.949,-95.3376"/>
<polygon fill="midnightblue" stroke="midnightblue" points="514.274,-98.5839 522.606,-92.0397 512.011,-91.9596 514.274,-98.5839"/>
</g>
<!-- Node16 -->
<g id="node16" class="node"><title>Node16</title>
<g id="a_node16"><a xlink:href="error_8h.xhtml" target="_top" xlink:title="Exceptions for SCRAM. ">
<polygon fill="white" stroke="black" points="74,-73 74,-92 122,-92 122,-73 74,-73"/>
<text text-anchor="middle" x="98" y="-80" font-family="Helvetica,sans-Serif" font-size="10.00">error.h</text>
</a>
</g>
</g>
<!-- Node4&#45;&gt;Node16 -->
<g id="edge18" class="edge"><title>Node4&#45;&gt;Node16</title>
<path fill="none" stroke="midnightblue" d="M315.492,-135.981C269.176,-128.578 197.005,-115.55 136,-98 133.417,-97.257 130.762,-96.4143 128.114,-95.5181"/>
<polygon fill="midnightblue" stroke="midnightblue" points="129.286,-92.2202 118.691,-92.1203 126.911,-98.8051 129.286,-92.2202"/>
</g>
<!-- Node11&#45;&gt;Node3 -->
<g id="edge14" class="edge"><title>Node11&#45;&gt;Node3</title>
<path fill="none" stroke="midnightblue" d="M573.755,-72.9154C580.349,-70.8911 587.41,-68.8 594,-67 660.554,-48.8209 679.598,-52.9657 745,-31 746.869,-30.3724 748.777,-29.6797 750.687,-28.9475"/>
<polygon fill="midnightblue" stroke="midnightblue" points="752.166,-32.1236 760.076,-25.0746 749.497,-25.6526 752.166,-32.1236"/>
</g>
<!-- Node11&#45;&gt;Node7 -->
<g id="edge13" class="edge"><title>Node11&#45;&gt;Node7</title>
<path fill="none" stroke="midnightblue" d="M525.033,-72.8894C518.655,-70.6711 511.622,-68.4916 505,-67 363.655,-35.1636 320.478,-70.2156 181,-31 179.07,-30.4572 177.109,-29.8056 175.161,-29.0831"/>
<polygon fill="midnightblue" stroke="midnightblue" points="176.278,-25.7548 165.706,-25.0579 173.536,-32.1955 176.278,-25.7548"/>
</g>
<!-- Node12 -->
<g id="node12" class="node"><title>Node12</title>
<polygon fill="white" stroke="#bfbfbf" points="338.5,-6 338.5,-25 387.5,-25 387.5,-6 338.5,-6"/>
<text text-anchor="middle" x="363" y="-13" font-family="Helvetica,sans-Serif" font-size="10.00">cstdint</text>
</g>
<!-- Node11&#45;&gt;Node12 -->
<g id="edge12" class="edge"><title>Node11&#45;&gt;Node12</title>
<path fill="none" stroke="midnightblue" d="M522.141,-72.8687C516.509,-70.9267 510.552,-68.8836 505,-67 457.086,-50.744 444.31,-48.939 397,-31 395.35,-30.3743 393.662,-29.7157 391.963,-29.0385"/>
<polygon fill="midnightblue" stroke="midnightblue" points="392.887,-25.6334 382.308,-25.056 390.218,-32.1046 392.887,-25.6334"/>
</g>
<!-- Node13 -->
<g id="node13" class="node"><title>Node13</title>
<polygon fill="white" stroke="#bfbfbf" points="406,-6 406,-25 578,-25 578,-6 406,-6"/>
<text text-anchor="middle" x="492" y="-13" font-family="Helvetica,sans-Serif" font-size="10.00">boost/multi_index_container.hpp</text>
</g>
<!-- Node11&#45;&gt;Node13 -->
<g id="edge15" class="edge"><title>Node11&#45;&gt;Node13</title>
<path fill="none" stroke="midnightblue" d="M539.582,-72.7338C531.006,-62.5979 516.699,-45.6899 506.009,-33.0556"/>
<polygon fill="midnightblue" stroke="midnightblue" points="508.431,-30.5004 499.3,-25.1273 503.088,-35.022 508.431,-30.5004"/>
</g>
<!-- Node14 -->
<g id="node14" class="node"><title>Node14</title>
<polygon fill="white" stroke="#bfbfbf" points="596,-0.5 596,-30.5 736,-30.5 736,-0.5 596,-0.5"/>
<text text-anchor="start" x="604" y="-18.5" font-family="Helvetica,sans-Serif" font-size="10.00">boost/multi_index/hashed</text>
<text text-anchor="middle" x="666" y="-7.5" font-family="Helvetica,sans-Serif" font-size="10.00">_index.hpp</text>
</g>
<!-- Node11&#45;&gt;Node14 -->
<g id="edge16" class="edge"><title>Node11&#45;&gt;Node14</title>
<path fill="none" stroke="midnightblue" d="M563.049,-72.7338C580.446,-63.2314 608.739,-47.777 631.267,-35.4719"/>
<polygon fill="midnightblue" stroke="midnightblue" points="633.108,-38.4544 640.206,-30.589 629.752,-32.3111 633.108,-38.4544"/>
</g>
<!-- Node15 -->
<g id="node15" class="node"><title>Node15</title>
<polygon fill="white" stroke="#bfbfbf" points="190,-0.5 190,-30.5 320,-30.5 320,-0.5 190,-0.5"/>
<text text-anchor="start" x="198" y="-18.5" font-family="Helvetica,sans-Serif" font-size="10.00">boost/multi_index/mem</text>
<text text-anchor="middle" x="255" y="-7.5" font-family="Helvetica,sans-Serif" font-size="10.00">_fun.hpp</text>
</g>
<!-- Node11&#45;&gt;Node15 -->
<g id="edge17" class="edge"><title>Node11&#45;&gt;Node15</title>
<path fill="none" stroke="midnightblue" d="M524.065,-72.9646C517.923,-70.849 511.252,-68.7026 505,-67 496.449,-64.6713 400.786,-45.4983 330.332,-31.464"/>
<polygon fill="midnightblue" stroke="midnightblue" points="330.624,-27.9536 320.133,-29.4332 329.257,-34.8188 330.624,-27.9536"/>
</g>
<!-- Node16&#45;&gt;Node7 -->
<g id="edge20" class="edge"><title>Node16&#45;&gt;Node7</title>
<path fill="none" stroke="midnightblue" d="M105.013,-72.7338C113.122,-62.5979 126.648,-45.6899 136.755,-33.0556"/>
<polygon fill="midnightblue" stroke="midnightblue" points="139.584,-35.1225 143.098,-25.1273 134.118,-30.7496 139.584,-35.1225"/>
</g>
<!-- Node17 -->
<g id="node17" class="node"><title>Node17</title>
<polygon fill="white" stroke="#bfbfbf" points="46.5,-6 46.5,-25 109.5,-25 109.5,-6 46.5,-6"/>
<text text-anchor="middle" x="78" y="-13" font-family="Helvetica,sans-Serif" font-size="10.00">exception</text>
</g>
<!-- Node16&#45;&gt;Node17 -->
<g id="edge19" class="edge"><title>Node16&#45;&gt;Node17</title>
<path fill="none" stroke="midnightblue" d="M95.3027,-72.7338C92.3339,-63.0852 87.4769,-47.3001 83.6635,-34.9063"/>
<polygon fill="midnightblue" stroke="midnightblue" points="86.9407,-33.6558 80.6546,-25.1273 80.2503,-35.7144 86.9407,-33.6558"/>
</g>
</g>
</svg>
        <g id="navigator" transform="translate(0 0)" fill="#404254">
                <rect fill="#f2f5e9" fill-opacity="0.5" stroke="#606060" stroke-width=".5" x="0" y="0" width="60" height="60"/>
                <use id="zoomplus" xlink:href="#zoomPlus" x="17" y="9" onmousedown="handleZoom(evt,'in')"/>
                <use id="zoomminus" xlink:href="#zoomMin" x="42" y="9" onmousedown="handleZoom(evt,'out')"/>
                <use id="reset" xlink:href="#resetDef" x="30" y="36" onmousedown="handleReset()"/>
                <g id="arrowUp" xlink:href="#dirArrow" transform="translate(30 24)" onmousedown="handlePan(0,-1)">
                  <use xlink:href="#rim" fill="#404040">
                        <set attributeName="fill" to="#808080" begin="arrowUp.mouseover" end="arrowUp.mouseout"/>
                  </use>
                  <path fill="none" stroke="white" stroke-width="1.5" d="M0,-3.0v7 M-2.5,-0.5L0,-3.0L2.5,-0.5"/>
                </g>
                <g id="arrowRight" xlink:href="#dirArrow" transform="rotate(90) translate(36 -43)" onmousedown="handlePan(1,0)">
                  <use xlink:href="#rim" fill="#404040">
                        <set attributeName="fill" to="#808080" begin="arrowRight.mouseover" end="arrowRight.mouseout"/>
                  </use>
                  <path fill="none" stroke="white" stroke-width="1.5" d="M0,-3.0v7 M-2.5,-0.5L0,-3.0L2.5,-0.5"/>
                </g>
                <g id="arrowDown" xlink:href="#dirArrow" transform="rotate(180) translate(-30 -48)" onmousedown="handlePan(0,1)">
                  <use xlink:href="#rim" fill="#404040">
                        <set attributeName="fill" to="#808080" begin="arrowDown.mouseover" end="arrowDown.mouseout"/>
                  </use>
                  <path fill="none" stroke="white" stroke-width="1.5" d="M0,-3.0v7 M-2.5,-0.5L0,-3.0L2.5,-0.5"/>
                </g>
                <g id="arrowLeft" xlink:href="#dirArrow" transform="rotate(270) translate(-36 17)" onmousedown="handlePan(-1,0)">
                  <use xlink:href="#rim" fill="#404040">
                        <set attributeName="fill" to="#808080" begin="arrowLeft.mouseover" end="arrowLeft.mouseout"/>
                  </use>
                  <path fill="none" stroke="white" stroke-width="1.5" d="M0,-3.0v7 M-2.5,-0.5L0,-3.0L2.5,-0.5"/>
                </g>
        </g>
        <svg viewBox="0 0 15 15" width="100%" height="30px" preserveAspectRatio="xMaxYMin meet">
         <g id="arrow_out" transform="scale(0.3 0.3)">
          <a xlink:href="conditional_8cc__incl_org.svg" target="_base">
           <rect id="button" ry="5" rx="5" y="6" x="6" height="38" width="38"
                fill="#f2f5e9" fill-opacity="0.5" stroke="#606060" stroke-width="1.0"/>
           <path id="arrow"
             d="M 11.500037,31.436501 C 11.940474,20.09759 22.043105,11.32322 32.158766,21.979434 L 37.068811,17.246167 C 37.068811,17.246167 37.088388,32 37.088388,32 L 22.160133,31.978069 C 22.160133,31.978069 26.997745,27.140456 26.997745,27.140456 C 18.528582,18.264221 13.291696,25.230495 11.500037,31.436501 z"
             style="fill:#404040;"/>
          </a>
         </g>
        </svg>
</svg>
