<?xml version="1.0" encoding="UTF-8" standalone="no"?>
<!DOCTYPE svg PUBLIC "-//W3C//DTD SVG 1.1//EN"
 "http://www.w3.org/Graphics/SVG/1.1/DTD/svg11.dtd">
<!-- Generated by graphviz version 2.38.0 (20140413.2041)
 -->
<!-- Title: conditional.h Pages: 1 -->
<svg width="1019pt" height="218pt"
 viewBox="0.00 0.00 1018.50 218.00" xmlns="http://www.w3.org/2000/svg" xmlns:xlink="http://www.w3.org/1999/xlink">
<g id="graph0" class="graph" transform="scale(1 1) rotate(0) translate(4 214)">
<title>conditional.h</title>
<polygon fill="white" stroke="none" points="-4,4 -4,-214 1014.5,-214 1014.5,4 -4,4"/>
<!-- Node1 -->
<g id="node1" class="node"><title>Node1</title>
<polygon fill="#bfbfbf" stroke="black" points="323,-190.5 323,-209.5 400,-209.5 400,-190.5 323,-190.5"/>
<text text-anchor="middle" x="361.5" y="-197.5" font-family="Helvetica,sans-Serif" font-size="10.00">conditional.h</text>
</g>
<!-- Node2 -->
<g id="node2" class="node"><title>Node2</title>
<polygon fill="white" stroke="#bfbfbf" points="0,-6 0,-25 47,-25 47,-6 0,-6"/>
<text text-anchor="middle" x="23.5" y="-13" font-family="Helvetica,sans-Serif" font-size="10.00">vector</text>
</g>
<!-- Node1&#45;&gt;Node2 -->
<g id="edge1" class="edge"><title>Node1&#45;&gt;Node2</title>
<path fill="none" stroke="midnightblue" d="M345.651,-190.442C291.538,-161.225 113.814,-65.2643 48.1602,-29.8151"/>
<polygon fill="midnightblue" stroke="midnightblue" points="49.777,-26.7104 39.3148,-25.0391 46.4512,-32.8699 49.777,-26.7104"/>
</g>
<!-- Node3 -->
<g id="node3" class="node"><title>Node3</title>
<g id="a_node3"><a xlink:href="expression_8h.xhtml" target="_top" xlink:title="Provides the base class for all expressions and units for expression values. ">
<polygon fill="white" stroke="black" points="523,-134.5 523,-153.5 618,-153.5 618,-134.5 523,-134.5"/>
<text text-anchor="middle" x="570.5" y="-141.5" font-family="Helvetica,sans-Serif" font-size="10.00">src/expression.h</text>
</a>
</g>
</g>
<!-- Node1&#45;&gt;Node3 -->
<g id="edge2" class="edge"><title>Node1&#45;&gt;Node3</title>
<path fill="none" stroke="midnightblue" d="M394.617,-190.444C430.618,-181.142 488.27,-166.246 527.686,-156.062"/>
<polygon fill="midnightblue" stroke="midnightblue" points="528.732,-159.407 537.538,-153.516 526.981,-152.629 528.732,-159.407"/>
</g>
<!-- Node3&#45;&gt;Node2 -->
<g id="edge7" class="edge"><title>Node3&#45;&gt;Node2</title>
<path fill="none" stroke="midnightblue" d="M522.659,-136.319C430.503,-122.641 222.692,-87.8536 55.5,-31 53.8326,-30.433 52.1342,-29.8094 50.4331,-29.1493"/>
<polygon fill="midnightblue" stroke="midnightblue" points="51.4301,-25.7712 40.8561,-25.1073 48.7082,-32.2203 51.4301,-25.7712"/>
</g>
<!-- Node4 -->
<g id="node4" class="node"><title>Node4</title>
<polygon fill="white" stroke="#bfbfbf" points="434.5,-73 434.5,-92 496.5,-92 496.5,-73 434.5,-73"/>
<text text-anchor="middle" x="465.5" y="-80" font-family="Helvetica,sans-Serif" font-size="10.00">algorithm</text>
</g>
<!-- Node3&#45;&gt;Node4 -->
<g id="edge3" class="edge"><title>Node3&#45;&gt;Node4</title>
<path fill="none" stroke="midnightblue" d="M555.456,-134.475C538.225,-124.711 509.76,-108.581 489.466,-97.0808"/>
<polygon fill="midnightblue" stroke="midnightblue" points="490.942,-93.8942 480.516,-92.0091 487.491,-99.9843 490.942,-93.8942"/>
</g>
<!-- Node5 -->
<g id="node5" class="node"><title>Node5</title>
<polygon fill="white" stroke="#bfbfbf" points="514.5,-73 514.5,-92 570.5,-92 570.5,-73 514.5,-73"/>
<text text-anchor="middle" x="542.5" y="-80" font-family="Helvetica,sans-Serif" font-size="10.00">sstream</text>
</g>
<!-- Node3&#45;&gt;Node5 -->
<g id="edge4" class="edge"><title>Node3&#45;&gt;Node5</title>
<path fill="none" stroke="midnightblue" d="M566.488,-134.475C562.413,-125.815 555.982,-112.149 550.804,-101.145"/>
<polygon fill="midnightblue" stroke="midnightblue" points="553.929,-99.567 546.504,-92.0091 547.595,-102.548 553.929,-99.567"/>
</g>
<!-- Node6 -->
<g id="node6" class="node"><title>Node6</title>
<polygon fill="white" stroke="#bfbfbf" points="628.5,-6 628.5,-25 672.5,-25 672.5,-6 628.5,-6"/>
<text text-anchor="middle" x="650.5" y="-13" font-family="Helvetica,sans-Serif" font-size="10.00">string</text>
</g>
<!-- Node3&#45;&gt;Node6 -->
<g id="edge5" class="edge"><title>Node3&#45;&gt;Node6</title>
<path fill="none" stroke="midnightblue" d="M575.928,-134.063C584.605,-119.812 602.184,-91.0886 617.5,-67 624.654,-55.7479 632.854,-43.1977 639.29,-33.4235"/>
<polygon fill="midnightblue" stroke="midnightblue" points="642.239,-35.3093 644.829,-25.0358 636.398,-31.4519 642.239,-35.3093"/>
</g>
<!-- Node7 -->
<g id="node7" class="node"><title>Node7</title>
<polygon fill="white" stroke="#bfbfbf" points="692.5,-73 692.5,-92 734.5,-92 734.5,-73 692.5,-73"/>
<text text-anchor="middle" x="713.5" y="-80" font-family="Helvetica,sans-Serif" font-size="10.00">utility</text>
</g>
<!-- Node3&#45;&gt;Node7 -->
<g id="edge6" class="edge"><title>Node3&#45;&gt;Node7</title>
<path fill="none" stroke="midnightblue" d="M593.64,-134.339C616.621,-125.608 652.769,-111.525 683.5,-98 684.662,-97.4888 685.844,-96.9587 687.036,-96.4168"/>
<polygon fill="midnightblue" stroke="midnightblue" points="688.579,-99.5592 696.148,-92.1458 685.608,-93.221 688.579,-99.5592"/>
</g>
<!-- Node8 -->
<g id="node8" class="node"><title>Node8</title>
<polygon fill="white" stroke="#bfbfbf" points="752.5,-67.5 752.5,-97.5 864.5,-97.5 864.5,-67.5 752.5,-67.5"/>
<text text-anchor="start" x="760.5" y="-85.5" font-family="Helvetica,sans-Serif" font-size="10.00">boost/icl/continuous</text>
<text text-anchor="middle" x="808.5" y="-74.5" font-family="Helvetica,sans-Serif" font-size="10.00">_interval.hpp</text>
</g>
<!-- Node3&#45;&gt;Node8 -->
<g id="edge8" class="edge"><title>Node3&#45;&gt;Node8</title>
<path fill="none" stroke="midnightblue" d="M604.6,-134.475C640.448,-125.513 697.746,-111.188 742.487,-100.003"/>
<polygon fill="midnightblue" stroke="midnightblue" points="743.556,-103.344 752.408,-97.523 741.858,-96.5529 743.556,-103.344"/>
</g>
<!-- Node9 -->
<g id="node9" class="node"><title>Node9</title>
<polygon fill="white" stroke="#bfbfbf" points="882.5,-73 882.5,-92 1010.5,-92 1010.5,-73 882.5,-73"/>
<text text-anchor="middle" x="946.5" y="-80" font-family="Helvetica,sans-Serif" font-size="10.00">boost/noncopyable.hpp</text>
</g>
<!-- Node3&#45;&gt;Node9 -->
<g id="edge9" class="edge"><title>Node3&#45;&gt;Node9</title>
<path fill="none" stroke="midnightblue" d="M618.11,-136.659C677.884,-128.53 783.505,-113.611 873.5,-98 880.59,-96.7702 888.049,-95.3893 895.382,-93.9812"/>
<polygon fill="midnightblue" stroke="midnightblue" points="896.111,-97.4051 905.257,-92.056 894.772,-90.5344 896.111,-97.4051"/>
</g>
<!-- Node10 -->
<g id="node10" class="node"><title>Node10</title>
<g id="a_node10"><a xlink:href="element_8h.xhtml" target="_top" xlink:title="Helper classes, structs, and properties common to all other classes. ">
<polygon fill="white" stroke="black" points="351,-73 351,-92 416,-92 416,-73 351,-73"/>
<text text-anchor="middle" x="383.5" y="-80" font-family="Helvetica,sans-Serif" font-size="10.00">element.h</text>
</a>
</g>
</g>
<!-- Node3&#45;&gt;Node10 -->
<g id="edge10" class="edge"><title>Node3&#45;&gt;Node10</title>
<path fill="none" stroke="midnightblue" d="M542.076,-134.468C512.781,-125.607 465.826,-111.215 425.5,-98 422.909,-97.151 420.233,-96.26 417.545,-95.3548"/>
<polygon fill="midnightblue" stroke="midnightblue" points="418.48,-91.9761 407.886,-92.0644 416.223,-98.6022 418.48,-91.9761"/>
</g>
<!-- Node15 -->
<g id="node15" class="node"><title>Node15</title>
<g id="a_node15"><a xlink:href="error_8h.xhtml" target="_top" xlink:title="Exceptions for SCRAM. ">
<polygon fill="white" stroke="black" points="626.5,-73 626.5,-92 674.5,-92 674.5,-73 626.5,-73"/>
<text text-anchor="middle" x="650.5" y="-80" font-family="Helvetica,sans-Serif" font-size="10.00">error.h</text>
</a>
</g>
</g>
<!-- Node3&#45;&gt;Node15 -->
<g id="edge17" class="edge"><title>Node3&#45;&gt;Node15</title>
<path fill="none" stroke="midnightblue" d="M581.962,-134.475C594.675,-125.02 615.413,-109.596 630.753,-98.1871"/>
<polygon fill="midnightblue" stroke="midnightblue" points="633.124,-100.785 639.059,-92.0091 628.946,-95.1686 633.124,-100.785"/>
</g>
<!-- Node10&#45;&gt;Node2 -->
<g id="edge13" class="edge"><title>Node10&#45;&gt;Node2</title>
<path fill="none" stroke="midnightblue" d="M350.749,-76.9746C273.351,-66.2061 83.5263,-39.3362 55.5,-31 53.5708,-30.4262 51.6072,-29.7593 49.6501,-29.033"/>
<polygon fill="midnightblue" stroke="midnightblue" points="50.6862,-25.6732 40.109,-25.0608 47.9957,-32.1355 50.6862,-25.6732"/>
</g>
<!-- Node10&#45;&gt;Node6 -->
<g id="edge12" class="edge"><title>Node10&#45;&gt;Node6</title>
<path fill="none" stroke="midnightblue" d="M406.417,-72.8975C412.559,-70.7824 419.235,-68.653 425.5,-67 510.293,-44.629 535.999,-57.7932 619.5,-31 621.172,-30.4633 622.872,-29.8573 624.57,-29.205"/>
<polygon fill="midnightblue" stroke="midnightblue" points="626.271,-32.2838 634.082,-25.1249 623.512,-25.8507 626.271,-32.2838"/>
</g>
<!-- Node11 -->
<g id="node11" class="node"><title>Node11</title>
<polygon fill="white" stroke="#bfbfbf" points="65,-6 65,-25 114,-25 114,-6 65,-6"/>
<text text-anchor="middle" x="89.5" y="-13" font-family="Helvetica,sans-Serif" font-size="10.00">cstdint</text>
</g>
<!-- Node10&#45;&gt;Node11 -->
<g id="edge11" class="edge"><title>Node10&#45;&gt;Node11</title>
<path fill="none" stroke="midnightblue" d="M350.942,-77.4295C301.169,-70.7057 203.512,-55.5299 123.5,-31 121.356,-30.3428 119.165,-29.595 116.978,-28.7934"/>
<polygon fill="midnightblue" stroke="midnightblue" points="118.172,-25.5016 107.587,-25.0503 115.58,-32.0041 118.172,-25.5016"/>
</g>
<!-- Node12 -->
<g id="node12" class="node"><title>Node12</title>
<polygon fill="white" stroke="#bfbfbf" points="132.5,-6 132.5,-25 304.5,-25 304.5,-6 132.5,-6"/>
<text text-anchor="middle" x="218.5" y="-13" font-family="Helvetica,sans-Serif" font-size="10.00">boost/multi_index_container.hpp</text>
</g>
<!-- Node10&#45;&gt;Node12 -->
<g id="edge14" class="edge"><title>Node10&#45;&gt;Node12</title>
<path fill="none" stroke="midnightblue" d="M361.589,-72.8685C332.91,-61.5706 282.459,-41.6961 249.77,-28.8183"/>
<polygon fill="midnightblue" stroke="midnightblue" points="250.825,-25.4725 240.239,-25.0637 248.26,-31.9854 250.825,-25.4725"/>
</g>
<!-- Node13 -->
<g id="node13" class="node"><title>Node13</title>
<polygon fill="white" stroke="#bfbfbf" points="322.5,-0.5 322.5,-30.5 462.5,-30.5 462.5,-0.5 322.5,-0.5"/>
<text text-anchor="start" x="330.5" y="-18.5" font-family="Helvetica,sans-Serif" font-size="10.00">boost/multi_index/hashed</text>
<text text-anchor="middle" x="392.5" y="-7.5" font-family="Helvetica,sans-Serif" font-size="10.00">_index.hpp</text>
</g>
<!-- Node10&#45;&gt;Node13 -->
<g id="edge15" class="edge"><title>Node10&#45;&gt;Node13</title>
<path fill="none" stroke="midnightblue" d="M384.714,-72.7338C385.848,-64.5406 387.595,-51.9225 389.147,-40.7136"/>
<polygon fill="midnightblue" stroke="midnightblue" points="392.645,-40.9746 390.549,-30.589 385.711,-40.0145 392.645,-40.9746"/>
</g>
<!-- Node14 -->
<g id="node14" class="node"><title>Node14</title>
<polygon fill="white" stroke="#bfbfbf" points="480.5,-0.5 480.5,-30.5 610.5,-30.5 610.5,-0.5 480.5,-0.5"/>
<text text-anchor="start" x="488.5" y="-18.5" font-family="Helvetica,sans-Serif" font-size="10.00">boost/multi_index/mem</text>
<text text-anchor="middle" x="545.5" y="-7.5" font-family="Helvetica,sans-Serif" font-size="10.00">_fun.hpp</text>
</g>
<!-- Node10&#45;&gt;Node14 -->
<g id="edge16" class="edge"><title>Node10&#45;&gt;Node14</title>
<path fill="none" stroke="midnightblue" d="M405.012,-72.8685C429.426,-63.0728 469.909,-46.8296 501.163,-34.2897"/>
<polygon fill="midnightblue" stroke="midnightblue" points="502.56,-37.5002 510.538,-30.5281 499.954,-31.0036 502.56,-37.5002"/>
</g>
<!-- Node15&#45;&gt;Node6 -->
<g id="edge19" class="edge"><title>Node15&#45;&gt;Node6</title>
<path fill="none" stroke="midnightblue" d="M650.5,-72.7338C650.5,-63.1826 650.5,-47.6183 650.5,-35.2829"/>
<polygon fill="midnightblue" stroke="midnightblue" points="654,-35.1273 650.5,-25.1273 647,-35.1273 654,-35.1273"/>
</g>
<!-- Node16 -->
<g id="node16" class="node"><title>Node16</title>
<polygon fill="white" stroke="#bfbfbf" points="691,-6 691,-25 754,-25 754,-6 691,-6"/>
<text text-anchor="middle" x="722.5" y="-13" font-family="Helvetica,sans-Serif" font-size="10.00">exception</text>
</g>
<!-- Node15&#45;&gt;Node16 -->
<g id="edge18" class="edge"><title>Node15&#45;&gt;Node16</title>
<path fill="none" stroke="midnightblue" d="M660.21,-72.7338C671.762,-62.3055 691.253,-44.7088 705.36,-31.9732"/>
<polygon fill="midnightblue" stroke="midnightblue" points="707.866,-34.4263 712.944,-25.1273 703.176,-29.2304 707.866,-34.4263"/>
</g>
</g>
</svg>
