<?xml version="1.0" encoding="UTF-8" standalone="no"?>
<!DOCTYPE svg PUBLIC "-//W3C//DTD SVG 1.1//EN"
 "http://www.w3.org/Graphics/SVG/1.1/DTD/svg11.dtd">
<!-- Generated by graphviz version 2.38.0 (20140413.2041)
 -->
<!-- Title: config.cc Pages: 1 -->
<!--zoomable 196 -->
<svg id="main" version="1.1" xmlns="http://www.w3.org/2000/svg" xmlns:xlink="http://www.w3.org/1999/xlink" xml:space="preserve" onload="init(evt)">
<style type="text/css"><![CDATA[
.edge:hover path { stroke: red; }
.edge:hover polygon { stroke: red; fill: red; }
]]></style>
<script type="text/javascript"><![CDATA[
var edges = document.getElementsByTagName('g');
if (edges && edges.length) {
  for (var i=0;i<edges.length;i++) {
    if (edges[i].id.substr(0,4)=='edge') {
      edges[i].setAttribute('class','edge');
    }
  }
}
]]></script>
        <defs>
                <circle id="rim" cx="0" cy="0" r="7"/>
                <circle id="rim2" cx="0" cy="0" r="3.5"/>
                <g id="zoomPlus">
                        <use xlink:href="#rim" fill="#404040">
                                <set attributeName="fill" to="#808080" begin="zoomplus.mouseover" end="zoomplus.mouseout"/>
                        </use>
                        <path d="M-4,0h8M0,-4v8" fill="none" stroke="white" stroke-width="1.5" pointer-events="none"/>
                </g>
                <g id="zoomMin">
                        <use xlink:href="#rim" fill="#404040">
                                <set attributeName="fill" to="#808080" begin="zoomminus.mouseover" end="zoomminus.mouseout"/>
                        </use>
                        <path d="M-4,0h8" fill="none" stroke="white" stroke-width="1.5" pointer-events="none"/>
                </g>
                <g id="dirArrow">
                        <path fill="none" stroke="white" stroke-width="1.5" d="M0,-3.0v7 M-2.5,-0.5L0,-3.0L2.5,-0.5"/>
                </g>
               <g id="resetDef">
                       <use xlink:href="#rim2" fill="#404040">
                               <set attributeName="fill" to="#808080" begin="reset.mouseover" end="reset.mouseout"/>
                       </use>
               </g>
        </defs>

<script type="text/javascript">
var viewWidth = 1278;
var viewHeight = 196;
var sectionId = 'dynsection-0';
</script>
<script xlink:href="svgpan.js"/>
<svg id="graph" class="graph">
<g id="viewport">
<title>config.cc</title>
<polygon fill="white" stroke="none" points="-4,4 -4,-192 1274.49,-192 1274.49,4 -4,4"/>
<!-- Node1 -->
<g id="node1" class="node"><title>Node1</title>
<polygon fill="#bfbfbf" stroke="black" points="672.487,-168.5 672.487,-187.5 731.487,-187.5 731.487,-168.5 672.487,-168.5"/>
<text text-anchor="middle" x="701.987" y="-175.5" font-family="Helvetica,sans-Serif" font-size="10.00">config.cc</text>
</g>
<!-- Node2 -->
<g id="node2" class="node"><title>Node2</title>
<g id="a_node2"><a xlink:href="config_8h.xhtml" target="_top" xlink:title="Configuration management facilities to make various setups for analysis possible. ...">
<polygon fill="white" stroke="black" points="255.987,-112.5 255.987,-131.5 309.987,-131.5 309.987,-112.5 255.987,-112.5"/>
<text text-anchor="middle" x="282.987" y="-119.5" font-family="Helvetica,sans-Serif" font-size="10.00">config.h</text>
</a>
</g>
</g>
<!-- Node1&#45;&gt;Node2 -->
<g id="edge1" class="edge"><title>Node1&#45;&gt;Node2</title>
<path fill="none" stroke="midnightblue" d="M672.189,-173.16C597.5,-163.534 402.419,-138.392 320.289,-127.807"/>
<polygon fill="midnightblue" stroke="midnightblue" points="320.525,-124.309 310.16,-126.502 319.63,-131.252 320.525,-124.309"/>
</g>
<!-- Node9 -->
<g id="node9" class="node"><title>Node9</title>
<polygon fill="white" stroke="#bfbfbf" points="729.987,-112.5 729.987,-131.5 781.987,-131.5 781.987,-112.5 729.987,-112.5"/>
<text text-anchor="middle" x="755.987" y="-119.5" font-family="Helvetica,sans-Serif" font-size="10.00">cassert</text>
</g>
<!-- Node1&#45;&gt;Node9 -->
<g id="edge9" class="edge"><title>Node1&#45;&gt;Node9</title>
<path fill="none" stroke="midnightblue" d="M710.904,-168.083C718.767,-160.22 730.418,-148.569 739.905,-139.081"/>
<polygon fill="midnightblue" stroke="midnightblue" points="742.639,-141.297 747.235,-131.751 737.689,-136.347 742.639,-141.297"/>
</g>
<!-- Node10 -->
<g id="node10" class="node"><title>Node10</title>
<polygon fill="white" stroke="#bfbfbf" points="495.487,-56.5 495.487,-75.5 552.487,-75.5 552.487,-56.5 495.487,-56.5"/>
<text text-anchor="middle" x="523.987" y="-63.5" font-family="Helvetica,sans-Serif" font-size="10.00">memory</text>
</g>
<!-- Node1&#45;&gt;Node10 -->
<g id="edge10" class="edge"><title>Node1&#45;&gt;Node10</title>
<path fill="none" stroke="midnightblue" d="M685.622,-168.426C669.097,-159.647 642.947,-145.426 620.987,-132 593.962,-115.478 563.79,-94.9092 544.381,-81.3891"/>
<polygon fill="midnightblue" stroke="midnightblue" points="546.224,-78.407 536.024,-75.54 542.21,-84.1418 546.224,-78.407"/>
</g>
<!-- Node11 -->
<g id="node11" class="node"><title>Node11</title>
<polygon fill="white" stroke="#bfbfbf" points="799.987,-112.5 799.987,-131.5 915.987,-131.5 915.987,-112.5 799.987,-112.5"/>
<text text-anchor="middle" x="857.987" y="-119.5" font-family="Helvetica,sans-Serif" font-size="10.00">boost/filesystem.hpp</text>
</g>
<!-- Node1&#45;&gt;Node11 -->
<g id="edge11" class="edge"><title>Node1&#45;&gt;Node11</title>
<path fill="none" stroke="midnightblue" d="M726.705,-168.444C752.835,-159.399 794.246,-145.064 823.563,-134.916"/>
<polygon fill="midnightblue" stroke="midnightblue" points="825.079,-138.095 833.384,-131.516 822.789,-131.48 825.079,-138.095"/>
</g>
<!-- Node12 -->
<g id="node12" class="node"><title>Node12</title>
<polygon fill="white" stroke="#bfbfbf" points="933.987,-112.5 933.987,-131.5 1019.99,-131.5 1019.99,-112.5 933.987,-112.5"/>
<text text-anchor="middle" x="976.987" y="-119.5" font-family="Helvetica,sans-Serif" font-size="10.00">boost/predef.h</text>
</g>
<!-- Node1&#45;&gt;Node12 -->
<g id="edge12" class="edge"><title>Node1&#45;&gt;Node12</title>
<path fill="none" stroke="midnightblue" d="M731.678,-171.17C777.665,-162.139 866.769,-144.643 923.988,-133.407"/>
<polygon fill="midnightblue" stroke="midnightblue" points="924.795,-136.815 933.933,-131.454 923.446,-129.947 924.795,-136.815"/>
</g>
<!-- Node13 -->
<g id="node13" class="node"><title>Node13</title>
<polygon fill="white" stroke="#bfbfbf" points="1037.99,-112.5 1037.99,-131.5 1181.99,-131.5 1181.99,-112.5 1037.99,-112.5"/>
<text text-anchor="middle" x="1109.99" y="-119.5" font-family="Helvetica,sans-Serif" font-size="10.00">boost/range/algorithm.hpp</text>
</g>
<!-- Node1&#45;&gt;Node13 -->
<g id="edge13" class="edge"><title>Node1&#45;&gt;Node13</title>
<path fill="none" stroke="midnightblue" d="M731.658,-173.073C794.934,-164.698 944.762,-144.868 1035.74,-132.827"/>
<polygon fill="midnightblue" stroke="midnightblue" points="1036.26,-136.289 1045.71,-131.507 1035.34,-129.349 1036.26,-136.289"/>
</g>
<!-- Node14 -->
<g id="node14" class="node"><title>Node14</title>
<g id="a_node14"><a xlink:href="env_8h.xhtml" target="_top" xlink:title="Environmental Variables. ">
<polygon fill="white" stroke="black" points="80.9865,-112.5 80.9865,-131.5 122.987,-131.5 122.987,-112.5 80.9865,-112.5"/>
<text text-anchor="middle" x="101.987" y="-119.5" font-family="Helvetica,sans-Serif" font-size="10.00">env.h</text>
</a>
</g>
</g>
<!-- Node1&#45;&gt;Node14 -->
<g id="edge14" class="edge"><title>Node1&#45;&gt;Node14</title>
<path fill="none" stroke="midnightblue" d="M672.232,-174.322C570.49,-165.165 237.025,-135.153 133.16,-125.806"/>
<polygon fill="midnightblue" stroke="midnightblue" points="133.289,-122.303 123.016,-124.893 132.662,-129.275 133.289,-122.303"/>
</g>
<!-- Node15 -->
<g id="node15" class="node"><title>Node15</title>
<g id="a_node15"><a xlink:href="error_8h.xhtml" target="_top" xlink:title="Exceptions for SCRAM. ">
<polygon fill="white" stroke="black" points="1214.99,-56.5 1214.99,-75.5 1262.99,-75.5 1262.99,-56.5 1214.99,-56.5"/>
<text text-anchor="middle" x="1238.99" y="-63.5" font-family="Helvetica,sans-Serif" font-size="10.00">error.h</text>
</a>
</g>
</g>
<!-- Node1&#45;&gt;Node15 -->
<g id="edge16" class="edge"><title>Node1&#45;&gt;Node15</title>
<path fill="none" stroke="midnightblue" d="M701.658,-168.163C701.659,-153.835 703.986,-125.755 720.987,-112 761.15,-79.5049 1119.15,-84.6032 1204.91,-75.4805"/>
<polygon fill="midnightblue" stroke="midnightblue" points="1205.51,-78.9313 1214.96,-74.1273 1204.58,-71.994 1205.51,-78.9313"/>
</g>
<!-- Node17 -->
<g id="node17" class="node"><title>Node17</title>
<g id="a_node17"><a xlink:href="xml_8h.xhtml" target="_top" xlink:title="XML helper facilities to work with libxml++. ">
<polygon fill="white" stroke="black" points="630.487,-112.5 630.487,-131.5 673.487,-131.5 673.487,-112.5 630.487,-112.5"/>
<text text-anchor="middle" x="651.987" y="-119.5" font-family="Helvetica,sans-Serif" font-size="10.00">xml.h</text>
</a>
</g>
</g>
<!-- Node1&#45;&gt;Node17 -->
<g id="edge19" class="edge"><title>Node1&#45;&gt;Node17</title>
<path fill="none" stroke="midnightblue" d="M693.73,-168.083C686.522,-160.298 675.877,-148.801 667.141,-139.367"/>
<polygon fill="midnightblue" stroke="midnightblue" points="669.452,-136.711 660.089,-131.751 664.315,-141.467 669.452,-136.711"/>
</g>
<!-- Node3 -->
<g id="node3" class="node"><title>Node3</title>
<polygon fill="white" stroke="#bfbfbf" points="309.987,-0.5 309.987,-19.5 353.987,-19.5 353.987,-0.5 309.987,-0.5"/>
<text text-anchor="middle" x="331.987" y="-7.5" font-family="Helvetica,sans-Serif" font-size="10.00">string</text>
</g>
<!-- Node2&#45;&gt;Node3 -->
<g id="edge2" class="edge"><title>Node2&#45;&gt;Node3</title>
<path fill="none" stroke="midnightblue" d="M289.516,-112.45C295.954,-103.69 305.713,-89.4829 311.987,-76 318.991,-60.9463 324.335,-42.8174 327.729,-29.5343"/>
<polygon fill="midnightblue" stroke="midnightblue" points="331.161,-30.2332 330.115,-19.6901 324.358,-28.584 331.161,-30.2332"/>
</g>
<!-- Node4 -->
<g id="node4" class="node"><title>Node4</title>
<polygon fill="white" stroke="#bfbfbf" points="97.4865,-56.5 97.4865,-75.5 144.487,-75.5 144.487,-56.5 97.4865,-56.5"/>
<text text-anchor="middle" x="120.987" y="-63.5" font-family="Helvetica,sans-Serif" font-size="10.00">vector</text>
</g>
<!-- Node2&#45;&gt;Node4 -->
<g id="edge3" class="edge"><title>Node2&#45;&gt;Node4</title>
<path fill="none" stroke="midnightblue" d="M257.317,-112.444C229.503,-103.172 185.015,-88.3427 154.471,-78.1614"/>
<polygon fill="midnightblue" stroke="midnightblue" points="155.285,-74.7435 144.691,-74.9015 153.071,-81.3843 155.285,-74.7435"/>
</g>
<!-- Node5 -->
<g id="node5" class="node"><title>Node5</title>
<polygon fill="white" stroke="#bfbfbf" points="162.487,-56.5 162.487,-75.5 303.487,-75.5 303.487,-56.5 162.487,-56.5"/>
<text text-anchor="middle" x="232.987" y="-63.5" font-family="Helvetica,sans-Serif" font-size="10.00">boost/filesystem/path.hpp</text>
</g>
<!-- Node2&#45;&gt;Node5 -->
<g id="edge4" class="edge"><title>Node2&#45;&gt;Node5</title>
<path fill="none" stroke="midnightblue" d="M274.73,-112.083C267.522,-104.298 256.877,-92.8015 248.141,-83.3665"/>
<polygon fill="midnightblue" stroke="midnightblue" points="250.452,-80.7108 241.089,-75.7511 245.315,-85.4666 250.452,-80.7108"/>
</g>
<!-- Node6 -->
<g id="node6" class="node"><title>Node6</title>
<polygon fill="white" stroke="#bfbfbf" points="360.487,-56.5 360.487,-75.5 477.487,-75.5 477.487,-56.5 360.487,-56.5"/>
<text text-anchor="middle" x="418.987" y="-63.5" font-family="Helvetica,sans-Serif" font-size="10.00">libxml++/libxml++.h</text>
</g>
<!-- Node2&#45;&gt;Node6 -->
<g id="edge5" class="edge"><title>Node2&#45;&gt;Node6</title>
<path fill="none" stroke="midnightblue" d="M304.536,-112.444C327.018,-103.517 362.474,-89.4387 387.966,-79.3168"/>
<polygon fill="midnightblue" stroke="midnightblue" points="389.535,-82.4598 397.538,-75.5164 386.952,-75.9539 389.535,-82.4598"/>
</g>
<!-- Node7 -->
<g id="node7" class="node"><title>Node7</title>
<g id="a_node7"><a xlink:href="settings_8h.xhtml" target="_top" xlink:title="Builder for settings. ">
<polygon fill="white" stroke="black" points="14.9865,-56.5 14.9865,-75.5 78.9865,-75.5 78.9865,-56.5 14.9865,-56.5"/>
<text text-anchor="middle" x="46.9865" y="-63.5" font-family="Helvetica,sans-Serif" font-size="10.00">settings.h</text>
</a>
</g>
</g>
<!-- Node2&#45;&gt;Node7 -->
<g id="edge6" class="edge"><title>Node2&#45;&gt;Node7</title>
<path fill="none" stroke="midnightblue" d="M255.914,-114.806C214.996,-105.443 137.066,-87.6113 88.8131,-76.5705"/>
<polygon fill="midnightblue" stroke="midnightblue" points="89.5198,-73.1418 78.991,-74.3231 87.9584,-79.9655 89.5198,-73.1418"/>
</g>
<!-- Node7&#45;&gt;Node3 -->
<g id="edge8" class="edge"><title>Node7&#45;&gt;Node3</title>
<path fill="none" stroke="midnightblue" d="M79.1938,-57.8227C82.1638,-57.1933 85.1292,-56.5769 87.9865,-56 163.589,-40.7352 252.798,-24.8098 299.597,-16.6153"/>
<polygon fill="midnightblue" stroke="midnightblue" points="300.485,-20.0132 309.734,-14.8451 299.281,-13.1175 300.485,-20.0132"/>
</g>
<!-- Node8 -->
<g id="node8" class="node"><title>Node8</title>
<polygon fill="white" stroke="#bfbfbf" points="22.4865,-0.5 22.4865,-19.5 71.4865,-19.5 71.4865,-0.5 22.4865,-0.5"/>
<text text-anchor="middle" x="46.9865" y="-7.5" font-family="Helvetica,sans-Serif" font-size="10.00">cstdint</text>
</g>
<!-- Node7&#45;&gt;Node8 -->
<g id="edge7" class="edge"><title>Node7&#45;&gt;Node8</title>
<path fill="none" stroke="midnightblue" d="M46.9865,-56.083C46.9865,-49.0059 46.9865,-38.8611 46.9865,-29.9865"/>
<polygon fill="midnightblue" stroke="midnightblue" points="50.4866,-29.751 46.9865,-19.7511 43.4866,-29.7511 50.4866,-29.751"/>
</g>
<!-- Node14&#45;&gt;Node3 -->
<g id="edge15" class="edge"><title>Node14&#45;&gt;Node3</title>
<path fill="none" stroke="midnightblue" d="M80.8455,-115.942C45.5707,-106.556 -19.0722,-84.7553 5.98653,-56 43.9097,-12.4824 225.066,-9.62703 299.72,-10.3556"/>
<polygon fill="midnightblue" stroke="midnightblue" points="299.889,-13.858 309.932,-10.4847 299.977,-6.85852 299.889,-13.858"/>
</g>
<!-- Node15&#45;&gt;Node3 -->
<g id="edge18" class="edge"><title>Node15&#45;&gt;Node3</title>
<path fill="none" stroke="midnightblue" d="M1214.97,-57.8082C1211.96,-57.0992 1208.92,-56.4697 1205.99,-56 1039.1,-29.2658 502.201,-15.0123 364.441,-11.7376"/>
<polygon fill="midnightblue" stroke="midnightblue" points="364.222,-8.23161 354.143,-11.4957 364.058,-15.2297 364.222,-8.23161"/>
</g>
<!-- Node16 -->
<g id="node16" class="node"><title>Node16</title>
<polygon fill="white" stroke="#bfbfbf" points="1207.49,-0.5 1207.49,-19.5 1270.49,-19.5 1270.49,-0.5 1207.49,-0.5"/>
<text text-anchor="middle" x="1238.99" y="-7.5" font-family="Helvetica,sans-Serif" font-size="10.00">exception</text>
</g>
<!-- Node15&#45;&gt;Node16 -->
<g id="edge17" class="edge"><title>Node15&#45;&gt;Node16</title>
<path fill="none" stroke="midnightblue" d="M1238.99,-56.083C1238.99,-49.0059 1238.99,-38.8611 1238.99,-29.9865"/>
<polygon fill="midnightblue" stroke="midnightblue" points="1242.49,-29.751 1238.99,-19.7511 1235.49,-29.7511 1242.49,-29.751"/>
</g>
<!-- Node17&#45;&gt;Node3 -->
<g id="edge21" class="edge"><title>Node17&#45;&gt;Node3</title>
<path fill="none" stroke="midnightblue" d="M642.734,-112.286C627.159,-98.1333 594.146,-70.2998 560.987,-56 494.682,-27.407 409.715,-16.816 364.202,-13.0196"/>
<polygon fill="midnightblue" stroke="midnightblue" points="364.287,-9.51577 354.046,-12.2318 363.745,-16.4948 364.287,-9.51577"/>
</g>
<!-- Node17&#45;&gt;Node6 -->
<g id="edge25" class="edge"><title>Node17&#45;&gt;Node6</title>
<path fill="none" stroke="midnightblue" d="M630.484,-116.017C593.279,-107.394 516.077,-89.5016 465.954,-77.8853"/>
<polygon fill="midnightblue" stroke="midnightblue" points="466.535,-74.427 456.003,-75.5788 464.954,-81.2463 466.535,-74.427"/>
</g>
<!-- Node17&#45;&gt;Node10 -->
<g id="edge20" class="edge"><title>Node17&#45;&gt;Node10</title>
<path fill="none" stroke="midnightblue" d="M631.705,-112.444C610.639,-103.557 577.47,-89.5632 553.501,-79.4514"/>
<polygon fill="midnightblue" stroke="midnightblue" points="554.748,-76.1787 544.174,-75.5164 552.027,-82.6283 554.748,-76.1787"/>
</g>
<!-- Node17&#45;&gt;Node15 -->
<g id="edge28" class="edge"><title>Node17&#45;&gt;Node15</title>
<path fill="none" stroke="midnightblue" d="M673.562,-114.953C678.283,-113.813 683.278,-112.746 687.987,-112 912.692,-76.3865 976.647,-113.467 1205.01,-75.8101"/>
<polygon fill="midnightblue" stroke="midnightblue" points="1205.68,-79.2482 1214.96,-74.1407 1204.52,-72.3448 1205.68,-79.2482"/>
</g>
<!-- Node18 -->
<g id="node18" class="node"><title>Node18</title>
<polygon fill="white" stroke="#bfbfbf" points="826.987,-56.5 826.987,-75.5 894.987,-75.5 894.987,-56.5 826.987,-56.5"/>
<text text-anchor="middle" x="860.987" y="-63.5" font-family="Helvetica,sans-Serif" font-size="10.00">type_traits</text>
</g>
<!-- Node17&#45;&gt;Node18 -->
<g id="edge22" class="edge"><title>Node17&#45;&gt;Node18</title>
<path fill="none" stroke="midnightblue" d="M673.566,-115.424C707.528,-106.65 774.102,-89.4486 818.068,-78.0891"/>
<polygon fill="midnightblue" stroke="midnightblue" points="819.098,-81.438 827.904,-75.5476 817.346,-74.6605 819.098,-81.438"/>
</g>
<!-- Node19 -->
<g id="node19" class="node"><title>Node19</title>
<polygon fill="white" stroke="#bfbfbf" points="913.487,-56.5 913.487,-75.5 1056.49,-75.5 1056.49,-56.5 913.487,-56.5"/>
<text text-anchor="middle" x="984.987" y="-63.5" font-family="Helvetica,sans-Serif" font-size="10.00">boost/algorithm/string.hpp</text>
</g>
<!-- Node17&#45;&gt;Node19 -->
<g id="edge23" class="edge"><title>Node17&#45;&gt;Node19</title>
<path fill="none" stroke="midnightblue" d="M673.613,-115.241C678.332,-114.083 683.312,-112.936 687.987,-112 761.462,-97.2836 846.022,-84.9107 906.076,-76.8867"/>
<polygon fill="midnightblue" stroke="midnightblue" points="906.793,-80.3224 916.246,-75.5382 905.873,-73.3831 906.793,-80.3224"/>
</g>
<!-- Node20 -->
<g id="node20" class="node"><title>Node20</title>
<polygon fill="white" stroke="#bfbfbf" points="1074.99,-56.5 1074.99,-75.5 1196.99,-75.5 1196.99,-56.5 1074.99,-56.5"/>
<text text-anchor="middle" x="1135.99" y="-63.5" font-family="Helvetica,sans-Serif" font-size="10.00">boost/lexical_cast.hpp</text>
</g>
<!-- Node17&#45;&gt;Node20 -->
<g id="edge24" class="edge"><title>Node17&#45;&gt;Node20</title>
<path fill="none" stroke="midnightblue" d="M673.577,-115.044C678.298,-113.899 683.288,-112.806 687.987,-112 851.148,-83.9981 896.554,-94.3466 1064.97,-76.0693"/>
<polygon fill="midnightblue" stroke="midnightblue" points="1065.36,-79.5472 1074.92,-74.972 1064.59,-72.5894 1065.36,-79.5472"/>
</g>
<!-- Node21 -->
<g id="node21" class="node"><title>Node21</title>
<polygon fill="white" stroke="#bfbfbf" points="608.987,-56.5 608.987,-75.5 694.987,-75.5 694.987,-56.5 608.987,-56.5"/>
<text text-anchor="middle" x="651.987" y="-63.5" font-family="Helvetica,sans-Serif" font-size="10.00">libxml/parser.h</text>
</g>
<!-- Node17&#45;&gt;Node21 -->
<g id="edge26" class="edge"><title>Node17&#45;&gt;Node21</title>
<path fill="none" stroke="midnightblue" d="M651.987,-112.083C651.987,-105.006 651.987,-94.8611 651.987,-85.9865"/>
<polygon fill="midnightblue" stroke="midnightblue" points="655.487,-85.751 651.987,-75.7511 648.487,-85.7511 655.487,-85.751"/>
</g>
<!-- Node22 -->
<g id="node22" class="node"><title>Node22</title>
<polygon fill="white" stroke="#bfbfbf" points="713.487,-56.5 713.487,-75.5 808.487,-75.5 808.487,-56.5 713.487,-56.5"/>
<text text-anchor="middle" x="760.987" y="-63.5" font-family="Helvetica,sans-Serif" font-size="10.00">libxml/xinclude.h</text>
</g>
<!-- Node17&#45;&gt;Node22 -->
<g id="edge27" class="edge"><title>Node17&#45;&gt;Node22</title>
<path fill="none" stroke="midnightblue" d="M669.499,-112.324C687.059,-103.625 714.318,-90.1202 734.518,-80.113"/>
<polygon fill="midnightblue" stroke="midnightblue" points="736.11,-83.23 743.517,-75.6545 733.003,-76.9575 736.11,-83.23"/>
</g>
</g>
</svg>
        <g id="navigator" transform="translate(0 0)" fill="#404254">
                <rect fill="#f2f5e9" fill-opacity="0.5" stroke="#606060" stroke-width=".5" x="0" y="0" width="60" height="60"/>
                <use id="zoomplus" xlink:href="#zoomPlus" x="17" y="9" onmousedown="handleZoom(evt,'in')"/>
                <use id="zoomminus" xlink:href="#zoomMin" x="42" y="9" onmousedown="handleZoom(evt,'out')"/>
                <use id="reset" xlink:href="#resetDef" x="30" y="36" onmousedown="handleReset()"/>
                <g id="arrowUp" xlink:href="#dirArrow" transform="translate(30 24)" onmousedown="handlePan(0,-1)">
                  <use xlink:href="#rim" fill="#404040">
                        <set attributeName="fill" to="#808080" begin="arrowUp.mouseover" end="arrowUp.mouseout"/>
                  </use>
                  <path fill="none" stroke="white" stroke-width="1.5" d="M0,-3.0v7 M-2.5,-0.5L0,-3.0L2.5,-0.5"/>
                </g>
                <g id="arrowRight" xlink:href="#dirArrow" transform="rotate(90) translate(36 -43)" onmousedown="handlePan(1,0)">
                  <use xlink:href="#rim" fill="#404040">
                        <set attributeName="fill" to="#808080" begin="arrowRight.mouseover" end="arrowRight.mouseout"/>
                  </use>
                  <path fill="none" stroke="white" stroke-width="1.5" d="M0,-3.0v7 M-2.5,-0.5L0,-3.0L2.5,-0.5"/>
                </g>
                <g id="arrowDown" xlink:href="#dirArrow" transform="rotate(180) translate(-30 -48)" onmousedown="handlePan(0,1)">
                  <use xlink:href="#rim" fill="#404040">
                        <set attributeName="fill" to="#808080" begin="arrowDown.mouseover" end="arrowDown.mouseout"/>
                  </use>
                  <path fill="none" stroke="white" stroke-width="1.5" d="M0,-3.0v7 M-2.5,-0.5L0,-3.0L2.5,-0.5"/>
                </g>
                <g id="arrowLeft" xlink:href="#dirArrow" transform="rotate(270) translate(-36 17)" onmousedown="handlePan(-1,0)">
                  <use xlink:href="#rim" fill="#404040">
                        <set attributeName="fill" to="#808080" begin="arrowLeft.mouseover" end="arrowLeft.mouseout"/>
                  </use>
                  <path fill="none" stroke="white" stroke-width="1.5" d="M0,-3.0v7 M-2.5,-0.5L0,-3.0L2.5,-0.5"/>
                </g>
        </g>
        <svg viewBox="0 0 15 15" width="100%" height="30px" preserveAspectRatio="xMaxYMin meet">
         <g id="arrow_out" transform="scale(0.3 0.3)">
          <a xlink:href="config_8cc__incl_org.svg" target="_base">
           <rect id="button" ry="5" rx="5" y="6" x="6" height="38" width="38"
                fill="#f2f5e9" fill-opacity="0.5" stroke="#606060" stroke-width="1.0"/>
           <path id="arrow"
             d="M 11.500037,31.436501 C 11.940474,20.09759 22.043105,11.32322 32.158766,21.979434 L 37.068811,17.246167 C 37.068811,17.246167 37.088388,32 37.088388,32 L 22.160133,31.978069 C 22.160133,31.978069 26.997745,27.140456 26.997745,27.140456 C 18.528582,18.264221 13.291696,25.230495 11.500037,31.436501 z"
             style="fill:#404040;"/>
          </a>
         </g>
        </svg>
</svg>
