<?xml version="1.0" encoding="UTF-8" standalone="no"?>
<!DOCTYPE svg PUBLIC "-//W3C//DTD SVG 1.1//EN"
 "http://www.w3.org/Graphics/SVG/1.1/DTD/svg11.dtd">
<!-- Generated by graphviz version 2.38.0 (20140413.2041)
 -->
<!-- Title: config.h Pages: 1 -->
<svg width="448pt" height="140pt"
 viewBox="0.00 0.00 447.51 140.00" xmlns="http://www.w3.org/2000/svg" xmlns:xlink="http://www.w3.org/1999/xlink">
<g id="graph0" class="graph" transform="scale(1 1) rotate(0) translate(4 136)">
<title>config.h</title>
<polygon fill="white" stroke="none" points="-4,4 -4,-136 443.51,-136 443.51,4 -4,4"/>
<!-- Node1 -->
<g id="node1" class="node"><title>Node1</title>
<polygon fill="#bfbfbf" stroke="black" points="124.51,-112.5 124.51,-131.5 178.51,-131.5 178.51,-112.5 124.51,-112.5"/>
<text text-anchor="middle" x="151.51" y="-119.5" font-family="Helvetica,sans-Serif" font-size="10.00">config.h</text>
</g>
<!-- Node2 -->
<g id="node2" class="node"><title>Node2</title>
<polygon fill="white" stroke="#bfbfbf" points="142.51,-0.5 142.51,-19.5 186.51,-19.5 186.51,-0.5 142.51,-0.5"/>
<text text-anchor="middle" x="164.51" y="-7.5" font-family="Helvetica,sans-Serif" font-size="10.00">string</text>
</g>
<!-- Node1&#45;&gt;Node2 -->
<g id="edge1" class="edge"><title>Node1&#45;&gt;Node2</title>
<path fill="none" stroke="midnightblue" d="M124.44,-118.925C74.1606,-114.018 -25.7373,-98.7135 6.50965,-56 21.6391,-35.9598 90.7024,-22.1987 132.35,-15.5596"/>
<polygon fill="midnightblue" stroke="midnightblue" points="132.949,-19.0088 142.298,-14.0257 131.882,-12.0906 132.949,-19.0088"/>
</g>
<!-- Node3 -->
<g id="node3" class="node"><title>Node3</title>
<polygon fill="white" stroke="#bfbfbf" points="16.0097,-56.5 16.0097,-75.5 63.0097,-75.5 63.0097,-56.5 16.0097,-56.5"/>
<text text-anchor="middle" x="39.5097" y="-63.5" font-family="Helvetica,sans-Serif" font-size="10.00">vector</text>
</g>
<!-- Node1&#45;&gt;Node3 -->
<g id="edge2" class="edge"><title>Node1&#45;&gt;Node3</title>
<path fill="none" stroke="midnightblue" d="M133.515,-112.324C115.472,-103.625 87.4628,-90.1202 66.7069,-80.113"/>
<polygon fill="midnightblue" stroke="midnightblue" points="67.9875,-76.8449 57.4597,-75.6545 64.9474,-83.1502 67.9875,-76.8449"/>
</g>
<!-- Node4 -->
<g id="node4" class="node"><title>Node4</title>
<polygon fill="white" stroke="#bfbfbf" points="81.0097,-56.5 81.0097,-75.5 222.01,-75.5 222.01,-56.5 81.0097,-56.5"/>
<text text-anchor="middle" x="151.51" y="-63.5" font-family="Helvetica,sans-Serif" font-size="10.00">boost/filesystem/path.hpp</text>
</g>
<!-- Node1&#45;&gt;Node4 -->
<g id="edge3" class="edge"><title>Node1&#45;&gt;Node4</title>
<path fill="none" stroke="midnightblue" d="M151.51,-112.083C151.51,-105.006 151.51,-94.8611 151.51,-85.9865"/>
<polygon fill="midnightblue" stroke="midnightblue" points="155.01,-85.751 151.51,-75.7511 148.01,-85.7511 155.01,-85.751"/>
</g>
<!-- Node5 -->
<g id="node5" class="node"><title>Node5</title>
<polygon fill="white" stroke="#bfbfbf" points="240.01,-56.5 240.01,-75.5 357.01,-75.5 357.01,-56.5 240.01,-56.5"/>
<text text-anchor="middle" x="298.51" y="-63.5" font-family="Helvetica,sans-Serif" font-size="10.00">libxml++/libxml++.h</text>
</g>
<!-- Node1&#45;&gt;Node5 -->
<g id="edge4" class="edge"><title>Node1&#45;&gt;Node5</title>
<path fill="none" stroke="midnightblue" d="M174.802,-112.444C199.317,-103.438 238.106,-89.1891 265.71,-79.049"/>
<polygon fill="midnightblue" stroke="midnightblue" points="267.146,-82.25 275.326,-75.5164 264.732,-75.6793 267.146,-82.25"/>
</g>
<!-- Node6 -->
<g id="node6" class="node"><title>Node6</title>
<g id="a_node6"><a xlink:href="settings_8h.xhtml" target="_top" xlink:title="Builder for settings. ">
<polygon fill="white" stroke="black" points="375.51,-56.5 375.51,-75.5 439.51,-75.5 439.51,-56.5 375.51,-56.5"/>
<text text-anchor="middle" x="407.51" y="-63.5" font-family="Helvetica,sans-Serif" font-size="10.00">settings.h</text>
</a>
</g>
</g>
<!-- Node1&#45;&gt;Node6 -->
<g id="edge5" class="edge"><title>Node1&#45;&gt;Node6</title>
<path fill="none" stroke="midnightblue" d="M178.542,-115.35C219.146,-106.856 298.29,-90.2695 365.51,-76 365.61,-75.9787 365.71,-75.9574 365.811,-75.936"/>
<polygon fill="midnightblue" stroke="midnightblue" points="366.357,-79.3983 375.409,-73.892 364.899,-72.5518 366.357,-79.3983"/>
</g>
<!-- Node6&#45;&gt;Node2 -->
<g id="edge7" class="edge"><title>Node6&#45;&gt;Node2</title>
<path fill="none" stroke="midnightblue" d="M375.492,-57.8849C329.003,-47.5542 243.297,-28.5082 196.707,-18.155"/>
<polygon fill="midnightblue" stroke="midnightblue" points="197.363,-14.7154 186.842,-15.9627 195.844,-21.5487 197.363,-14.7154"/>
</g>
<!-- Node7 -->
<g id="node7" class="node"><title>Node7</title>
<polygon fill="white" stroke="#bfbfbf" points="383.01,-0.5 383.01,-19.5 432.01,-19.5 432.01,-0.5 383.01,-0.5"/>
<text text-anchor="middle" x="407.51" y="-7.5" font-family="Helvetica,sans-Serif" font-size="10.00">cstdint</text>
</g>
<!-- Node6&#45;&gt;Node7 -->
<g id="edge6" class="edge"><title>Node6&#45;&gt;Node7</title>
<path fill="none" stroke="midnightblue" d="M407.51,-56.083C407.51,-49.0059 407.51,-38.8611 407.51,-29.9865"/>
<polygon fill="midnightblue" stroke="midnightblue" points="411.01,-29.751 407.51,-19.7511 404.01,-29.7511 411.01,-29.751"/>
</g>
</g>
</svg>
