<?xml version="1.0" encoding="UTF-8" standalone="no"?>
<!DOCTYPE svg PUBLIC "-//W3C//DTD SVG 1.1//EN"
 "http://www.w3.org/Graphics/SVG/1.1/DTD/svg11.dtd">
<!-- Generated by graphviz version 2.38.0 (20140413.2041)
 -->
<!-- Title: cycle.h Pages: 1 -->
<!--zoomable 341 -->
<svg id="main" version="1.1" xmlns="http://www.w3.org/2000/svg" xmlns:xlink="http://www.w3.org/1999/xlink" xml:space="preserve" onload="init(evt)">
<style type="text/css"><![CDATA[
.edge:hover path { stroke: red; }
.edge:hover polygon { stroke: red; fill: red; }
]]></style>
<script type="text/javascript"><![CDATA[
var edges = document.getElementsByTagName('g');
if (edges && edges.length) {
  for (var i=0;i<edges.length;i++) {
    if (edges[i].id.substr(0,4)=='edge') {
      edges[i].setAttribute('class','edge');
    }
  }
}
]]></script>
        <defs>
                <circle id="rim" cx="0" cy="0" r="7"/>
                <circle id="rim2" cx="0" cy="0" r="3.5"/>
                <g id="zoomPlus">
                        <use xlink:href="#rim" fill="#404040">
                                <set attributeName="fill" to="#808080" begin="zoomplus.mouseover" end="zoomplus.mouseout"/>
                        </use>
                        <path d="M-4,0h8M0,-4v8" fill="none" stroke="white" stroke-width="1.5" pointer-events="none"/>
                </g>
                <g id="zoomMin">
                        <use xlink:href="#rim" fill="#404040">
                                <set attributeName="fill" to="#808080" begin="zoomminus.mouseover" end="zoomminus.mouseout"/>
                        </use>
                        <path d="M-4,0h8" fill="none" stroke="white" stroke-width="1.5" pointer-events="none"/>
                </g>
                <g id="dirArrow">
                        <path fill="none" stroke="white" stroke-width="1.5" d="M0,-3.0v7 M-2.5,-0.5L0,-3.0L2.5,-0.5"/>
                </g>
               <g id="resetDef">
                       <use xlink:href="#rim2" fill="#404040">
                               <set attributeName="fill" to="#808080" begin="reset.mouseover" end="reset.mouseout"/>
                       </use>
               </g>
        </defs>

<script type="text/javascript">
var viewWidth = 1519;
var viewHeight = 341;
var sectionId = 'dynsection-0';
</script>
<script xlink:href="svgpan.js"/>
<svg id="graph" class="graph">
<g id="viewport">
<title>cycle.h</title>
<polygon fill="white" stroke="none" points="-4,4 -4,-337 1515,-337 1515,4 -4,4"/>
<!-- Node1 -->
<g id="node1" class="node"><title>Node1</title>
<polygon fill="#bfbfbf" stroke="black" points="898.5,-313.5 898.5,-332.5 948.5,-332.5 948.5,-313.5 898.5,-313.5"/>
<text text-anchor="middle" x="923.5" y="-320.5" font-family="Helvetica,sans-Serif" font-size="10.00">cycle.h</text>
</g>
<!-- Node2 -->
<g id="node2" class="node"><title>Node2</title>
<polygon fill="white" stroke="#bfbfbf" points="137.5,-6 137.5,-25 181.5,-25 181.5,-6 137.5,-6"/>
<text text-anchor="middle" x="159.5" y="-13" font-family="Helvetica,sans-Serif" font-size="10.00">string</text>
</g>
<!-- Node1&#45;&gt;Node2 -->
<g id="edge1" class="edge"><title>Node1&#45;&gt;Node2</title>
<path fill="none" stroke="midnightblue" d="M898.36,-321.096C758.595,-315.747 83.5,-285.536 83.5,-201 83.5,-201 83.5,-201 83.5,-143 83.5,-97.6215 119.879,-54.482 142.299,-32.205"/>
<polygon fill="midnightblue" stroke="midnightblue" points="144.777,-34.6776 149.564,-25.2259 139.928,-29.6293 144.777,-34.6776"/>
</g>
<!-- Node3 -->
<g id="node3" class="node"><title>Node3</title>
<polygon fill="white" stroke="#bfbfbf" points="976,-6 976,-25 1023,-25 1023,-6 976,-6"/>
<text text-anchor="middle" x="999.5" y="-13" font-family="Helvetica,sans-Serif" font-size="10.00">vector</text>
</g>
<!-- Node1&#45;&gt;Node3 -->
<g id="edge2" class="edge"><title>Node1&#45;&gt;Node3</title>
<path fill="none" stroke="midnightblue" d="M928.799,-313.28C934.046,-304.389 942.061,-290.081 947.5,-277 979.452,-200.151 990.141,-180.303 1002.5,-98 1005.71,-76.6121 1004.02,-51.7315 1002.14,-35.1409"/>
<polygon fill="midnightblue" stroke="midnightblue" points="1005.6,-34.6007 1000.86,-25.1243 998.654,-35.487 1005.6,-34.6007"/>
</g>
<!-- Node4 -->
<g id="node4" class="node"><title>Node4</title>
<polygon fill="white" stroke="#bfbfbf" points="989.5,-246.5 989.5,-276.5 1111.5,-276.5 1111.5,-246.5 989.5,-246.5"/>
<text text-anchor="start" x="997.5" y="-264.5" font-family="Helvetica,sans-Serif" font-size="10.00">boost/algorithm/string</text>
<text text-anchor="middle" x="1050.5" y="-253.5" font-family="Helvetica,sans-Serif" font-size="10.00">/join.hpp</text>
</g>
<!-- Node1&#45;&gt;Node4 -->
<g id="edge3" class="edge"><title>Node1&#45;&gt;Node4</title>
<path fill="none" stroke="midnightblue" d="M941.696,-313.475C959.781,-305.002 988.094,-291.737 1011.31,-280.863"/>
<polygon fill="midnightblue" stroke="midnightblue" points="1013,-283.935 1020.57,-276.523 1010.03,-277.596 1013,-283.935"/>
</g>
<!-- Node5 -->
<g id="node5" class="node"><title>Node5</title>
<polygon fill="white" stroke="#bfbfbf" points="1130,-246.5 1130,-276.5 1245,-276.5 1245,-246.5 1130,-246.5"/>
<text text-anchor="start" x="1138" y="-264.5" font-family="Helvetica,sans-Serif" font-size="10.00">boost/range/adaptor</text>
<text text-anchor="middle" x="1187.5" y="-253.5" font-family="Helvetica,sans-Serif" font-size="10.00">/filtered.hpp</text>
</g>
<!-- Node1&#45;&gt;Node5 -->
<g id="edge4" class="edge"><title>Node1&#45;&gt;Node5</title>
<path fill="none" stroke="midnightblue" d="M948.813,-316.295C987.894,-307.487 1064.24,-290.28 1120.1,-277.69"/>
<polygon fill="midnightblue" stroke="midnightblue" points="1120.94,-281.088 1129.93,-275.475 1119.4,-274.26 1120.94,-281.088"/>
</g>
<!-- Node6 -->
<g id="node6" class="node"><title>Node6</title>
<polygon fill="white" stroke="#bfbfbf" points="1263,-246.5 1263,-276.5 1378,-276.5 1378,-246.5 1263,-246.5"/>
<text text-anchor="start" x="1271" y="-264.5" font-family="Helvetica,sans-Serif" font-size="10.00">boost/range/adaptor</text>
<text text-anchor="middle" x="1320.5" y="-253.5" font-family="Helvetica,sans-Serif" font-size="10.00">/reversed.hpp</text>
</g>
<!-- Node1&#45;&gt;Node6 -->
<g id="edge5" class="edge"><title>Node1&#45;&gt;Node6</title>
<path fill="none" stroke="midnightblue" d="M948.858,-319.222C1002.8,-313.168 1133.08,-297.78 1252.75,-277.043"/>
<polygon fill="midnightblue" stroke="midnightblue" points="1253.57,-280.454 1262.81,-275.282 1252.36,-273.558 1253.57,-280.454"/>
</g>
<!-- Node7 -->
<g id="node7" class="node"><title>Node7</title>
<polygon fill="white" stroke="#bfbfbf" points="1396,-246.5 1396,-276.5 1511,-276.5 1511,-246.5 1396,-246.5"/>
<text text-anchor="start" x="1404" y="-264.5" font-family="Helvetica,sans-Serif" font-size="10.00">boost/range/adaptor</text>
<text text-anchor="middle" x="1453.5" y="-253.5" font-family="Helvetica,sans-Serif" font-size="10.00">/transformed.hpp</text>
</g>
<!-- Node1&#45;&gt;Node7 -->
<g id="edge6" class="edge"><title>Node1&#45;&gt;Node7</title>
<path fill="none" stroke="midnightblue" d="M948.724,-320.582C1017.28,-316.512 1212.89,-303.445 1385.79,-276.981"/>
<polygon fill="midnightblue" stroke="midnightblue" points="1386.49,-280.415 1395.84,-275.425 1385.42,-273.498 1386.49,-280.415"/>
</g>
<!-- Node8 -->
<g id="node8" class="node"><title>Node8</title>
<g id="a_node8"><a xlink:href="element_8h.xhtml" target="_top" xlink:title="Helper classes, structs, and properties common to all other classes. ">
<polygon fill="white" stroke="black" points="684,-73 684,-92 749,-92 749,-73 684,-73"/>
<text text-anchor="middle" x="716.5" y="-80" font-family="Helvetica,sans-Serif" font-size="10.00">element.h</text>
</a>
</g>
</g>
<!-- Node1&#45;&gt;Node8 -->
<g id="edge7" class="edge"><title>Node1&#45;&gt;Node8</title>
<path fill="none" stroke="midnightblue" d="M925.651,-313.208C932.281,-283.797 949.313,-187.678 903.5,-134 894.034,-122.909 811.563,-103.667 759.352,-92.4091"/>
<polygon fill="midnightblue" stroke="midnightblue" points="759.854,-88.9375 749.343,-90.2687 758.39,-95.7828 759.854,-88.9375"/>
</g>
<!-- Node13 -->
<g id="node13" class="node"><title>Node13</title>
<g id="a_node13"><a xlink:href="error_8h.xhtml" target="_top" xlink:title="Exceptions for SCRAM. ">
<polygon fill="white" stroke="black" points="7.5,-73 7.5,-92 55.5,-92 55.5,-73 7.5,-73"/>
<text text-anchor="middle" x="31.5" y="-80" font-family="Helvetica,sans-Serif" font-size="10.00">error.h</text>
</a>
</g>
</g>
<!-- Node1&#45;&gt;Node13 -->
<g id="edge14" class="edge"><title>Node1&#45;&gt;Node13</title>
<path fill="none" stroke="midnightblue" d="M898.076,-321.533C759.63,-318.884 101.598,-304.856 69.5,-277 18.4329,-232.682 23.5443,-141.573 28.5465,-102.25"/>
<polygon fill="midnightblue" stroke="midnightblue" points="32.0309,-102.607 29.9705,-92.214 25.1003,-101.623 32.0309,-102.607"/>
</g>
<!-- Node15 -->
<g id="node15" class="node"><title>Node15</title>
<g id="a_node15"><a xlink:href="event_8h.xhtml" target="_top" xlink:title="Contains event classes for fault trees. ">
<polygon fill="white" stroke="black" points="644,-190.5 644,-209.5 697,-209.5 697,-190.5 644,-190.5"/>
<text text-anchor="middle" x="670.5" y="-197.5" font-family="Helvetica,sans-Serif" font-size="10.00">event.h</text>
</a>
</g>
</g>
<!-- Node1&#45;&gt;Node15 -->
<g id="edge17" class="edge"><title>Node1&#45;&gt;Node15</title>
<path fill="none" stroke="midnightblue" d="M898.49,-321.821C858.655,-320.402 779.763,-312.856 725.5,-277 703.69,-262.589 687.609,-236.375 678.646,-218.822"/>
<polygon fill="midnightblue" stroke="midnightblue" points="681.71,-217.118 674.202,-209.643 675.409,-220.168 681.71,-217.118"/>
</g>
<!-- Node24 -->
<g id="node24" class="node"><title>Node24</title>
<g id="a_node24"><a xlink:href="event__tree_8h.xhtml" target="_top" xlink:title="Event Tree facilities. ">
<polygon fill="white" stroke="black" points="735,-252 735,-271 812,-271 812,-252 735,-252"/>
<text text-anchor="middle" x="773.5" y="-259" font-family="Helvetica,sans-Serif" font-size="10.00">event_tree.h</text>
</a>
</g>
</g>
<!-- Node1&#45;&gt;Node24 -->
<g id="edge35" class="edge"><title>Node1&#45;&gt;Node24</title>
<path fill="none" stroke="midnightblue" d="M902.009,-313.475C876.39,-303.313 833.39,-286.256 804.255,-274.7"/>
<polygon fill="midnightblue" stroke="midnightblue" points="805.537,-271.443 794.951,-271.009 802.956,-277.95 805.537,-271.443"/>
</g>
<!-- Node26 -->
<g id="node26" class="node"><title>Node26</title>
<g id="a_node26"><a xlink:href="parameter_8h.xhtml" target="_top" xlink:title="Parameter expressions that act like a shareable variable. ">
<polygon fill="white" stroke="black" points="355.5,-190.5 355.5,-209.5 431.5,-209.5 431.5,-190.5 355.5,-190.5"/>
<text text-anchor="middle" x="393.5" y="-197.5" font-family="Helvetica,sans-Serif" font-size="10.00">parameter.h</text>
</a>
</g>
</g>
<!-- Node1&#45;&gt;Node26 -->
<g id="edge46" class="edge"><title>Node1&#45;&gt;Node26</title>
<path fill="none" stroke="midnightblue" d="M898.339,-317.615C855.648,-310.063 766.363,-293.792 691.5,-277 599.104,-256.276 491.705,-227.79 434.435,-212.244"/>
<polygon fill="midnightblue" stroke="midnightblue" points="435.244,-208.837 424.676,-209.588 433.406,-215.591 435.244,-208.837"/>
</g>
<!-- Node8&#45;&gt;Node2 -->
<g id="edge9" class="edge"><title>Node8&#45;&gt;Node2</title>
<path fill="none" stroke="midnightblue" d="M683.893,-75.0272C669.418,-72.2993 652.149,-69.2434 636.5,-67 469.987,-43.1286 269.264,-25.4871 191.992,-19.1066"/>
<polygon fill="midnightblue" stroke="midnightblue" points="192.177,-15.6101 181.924,-18.2816 191.605,-22.5867 192.177,-15.6101"/>
</g>
<!-- Node8&#45;&gt;Node3 -->
<g id="edge10" class="edge"><title>Node8&#45;&gt;Node3</title>
<path fill="none" stroke="midnightblue" d="M742.198,-72.9433C749.071,-70.8278 756.528,-68.6868 763.5,-67 852.56,-45.4525 878.822,-57.6192 966.5,-31 968.431,-30.4137 970.399,-29.745 972.365,-29.024"/>
<polygon fill="midnightblue" stroke="midnightblue" points="974.032,-32.1246 981.983,-25.122 971.401,-25.6381 974.032,-32.1246"/>
</g>
<!-- Node9 -->
<g id="node9" class="node"><title>Node9</title>
<polygon fill="white" stroke="#bfbfbf" points="412,-6 412,-25 461,-25 461,-6 412,-6"/>
<text text-anchor="middle" x="436.5" y="-13" font-family="Helvetica,sans-Serif" font-size="10.00">cstdint</text>
</g>
<!-- Node8&#45;&gt;Node9 -->
<g id="edge8" class="edge"><title>Node8&#45;&gt;Node9</title>
<path fill="none" stroke="midnightblue" d="M690.798,-72.9596C683.925,-70.8439 676.469,-68.6988 669.5,-67 582.177,-45.7132 556.6,-56.7911 470.5,-31 468.352,-30.3567 466.158,-29.6188 463.969,-28.8243"/>
<polygon fill="midnightblue" stroke="midnightblue" points="465.159,-25.5312 454.573,-25.0953 462.576,-32.0375 465.159,-25.5312"/>
</g>
<!-- Node10 -->
<g id="node10" class="node"><title>Node10</title>
<polygon fill="white" stroke="#bfbfbf" points="785.5,-6 785.5,-25 957.5,-25 957.5,-6 785.5,-6"/>
<text text-anchor="middle" x="871.5" y="-13" font-family="Helvetica,sans-Serif" font-size="10.00">boost/multi_index_container.hpp</text>
</g>
<!-- Node8&#45;&gt;Node10 -->
<g id="edge11" class="edge"><title>Node8&#45;&gt;Node10</title>
<path fill="none" stroke="midnightblue" d="M737.083,-72.8685C763.834,-61.6504 810.748,-41.9766 841.472,-29.0925"/>
<polygon fill="midnightblue" stroke="midnightblue" points="842.964,-32.2622 850.832,-25.1672 840.257,-25.8068 842.964,-32.2622"/>
</g>
<!-- Node11 -->
<g id="node11" class="node"><title>Node11</title>
<polygon fill="white" stroke="#bfbfbf" points="479.5,-0.5 479.5,-30.5 619.5,-30.5 619.5,-0.5 479.5,-0.5"/>
<text text-anchor="start" x="487.5" y="-18.5" font-family="Helvetica,sans-Serif" font-size="10.00">boost/multi_index/hashed</text>
<text text-anchor="middle" x="549.5" y="-7.5" font-family="Helvetica,sans-Serif" font-size="10.00">_index.hpp</text>
</g>
<!-- Node8&#45;&gt;Node11 -->
<g id="edge12" class="edge"><title>Node8&#45;&gt;Node11</title>
<path fill="none" stroke="midnightblue" d="M694.324,-72.8685C669.156,-63.0728 627.424,-46.8296 595.206,-34.2897"/>
<polygon fill="midnightblue" stroke="midnightblue" points="596.13,-30.8936 585.541,-30.5281 593.591,-37.4169 596.13,-30.8936"/>
</g>
<!-- Node12 -->
<g id="node12" class="node"><title>Node12</title>
<polygon fill="white" stroke="#bfbfbf" points="637.5,-0.5 637.5,-30.5 767.5,-30.5 767.5,-0.5 637.5,-0.5"/>
<text text-anchor="start" x="645.5" y="-18.5" font-family="Helvetica,sans-Serif" font-size="10.00">boost/multi_index/mem</text>
<text text-anchor="middle" x="702.5" y="-7.5" font-family="Helvetica,sans-Serif" font-size="10.00">_fun.hpp</text>
</g>
<!-- Node8&#45;&gt;Node12 -->
<g id="edge13" class="edge"><title>Node8&#45;&gt;Node12</title>
<path fill="none" stroke="midnightblue" d="M714.612,-72.7338C712.829,-64.4561 710.073,-51.6619 707.641,-40.3674"/>
<polygon fill="midnightblue" stroke="midnightblue" points="711.062,-39.6279 705.535,-30.589 704.219,-41.1018 711.062,-39.6279"/>
</g>
<!-- Node13&#45;&gt;Node2 -->
<g id="edge16" class="edge"><title>Node13&#45;&gt;Node2</title>
<path fill="none" stroke="midnightblue" d="M48.4974,-72.8685C70.2058,-61.8447 107.994,-42.6554 133.373,-29.7678"/>
<polygon fill="midnightblue" stroke="midnightblue" points="135.101,-32.8157 142.432,-25.1672 131.931,-26.5743 135.101,-32.8157"/>
</g>
<!-- Node14 -->
<g id="node14" class="node"><title>Node14</title>
<polygon fill="white" stroke="#bfbfbf" points="0,-6 0,-25 63,-25 63,-6 0,-6"/>
<text text-anchor="middle" x="31.5" y="-13" font-family="Helvetica,sans-Serif" font-size="10.00">exception</text>
</g>
<!-- Node13&#45;&gt;Node14 -->
<g id="edge15" class="edge"><title>Node13&#45;&gt;Node14</title>
<path fill="none" stroke="midnightblue" d="M31.5,-72.7338C31.5,-63.1826 31.5,-47.6183 31.5,-35.2829"/>
<polygon fill="midnightblue" stroke="midnightblue" points="35.0001,-35.1273 31.5,-25.1273 28.0001,-35.1273 35.0001,-35.1273"/>
</g>
<!-- Node15&#45;&gt;Node2 -->
<g id="edge20" class="edge"><title>Node15&#45;&gt;Node2</title>
<path fill="none" stroke="midnightblue" d="M643.817,-198.656C571.78,-196.575 369.497,-183.016 231.5,-98 204.823,-81.565 182.475,-52.1869 170.055,-33.5545"/>
<polygon fill="midnightblue" stroke="midnightblue" points="172.995,-31.6558 164.637,-25.145 167.11,-35.447 172.995,-31.6558"/>
</g>
<!-- Node15&#45;&gt;Node3 -->
<g id="edge21" class="edge"><title>Node15&#45;&gt;Node3</title>
<path fill="none" stroke="midnightblue" d="M682.879,-190.301C703.178,-176.424 745.221,-149.285 784.5,-134 851.619,-107.881 882.744,-138.205 942.5,-98 965.949,-82.2227 982.715,-53.3013 991.758,-34.4949"/>
<polygon fill="midnightblue" stroke="midnightblue" points="995.015,-35.7861 995.98,-25.2352 988.646,-32.8818 995.015,-35.7861"/>
</g>
<!-- Node15&#45;&gt;Node8 -->
<g id="edge24" class="edge"><title>Node15&#45;&gt;Node8</title>
<path fill="none" stroke="midnightblue" d="M669.566,-190.219C668.549,-177.371 667.956,-152.924 675.5,-134 680.74,-120.856 690.672,-108.481 699.448,-99.2711"/>
<polygon fill="midnightblue" stroke="midnightblue" points="702.088,-101.583 706.716,-92.0523 697.155,-96.6162 702.088,-101.583"/>
</g>
<!-- Node15&#45;&gt;Node9 -->
<g id="edge18" class="edge"><title>Node15&#45;&gt;Node9</title>
<path fill="none" stroke="midnightblue" d="M669.434,-190.184C666.03,-163.503 654.576,-84.3924 636.5,-67 582.1,-14.6569 542.432,-53.9102 470.5,-31 468.574,-30.3866 466.607,-29.7045 464.639,-28.9801"/>
<polygon fill="midnightblue" stroke="midnightblue" points="465.55,-25.5757 454.965,-25.1257 462.959,-32.0785 465.55,-25.5757"/>
</g>
<!-- Node16 -->
<g id="node16" class="node"><title>Node16</title>
<polygon fill="white" stroke="#bfbfbf" points="150,-134.5 150,-153.5 207,-153.5 207,-134.5 150,-134.5"/>
<text text-anchor="middle" x="178.5" y="-141.5" font-family="Helvetica,sans-Serif" font-size="10.00">memory</text>
</g>
<!-- Node15&#45;&gt;Node16 -->
<g id="edge19" class="edge"><title>Node15&#45;&gt;Node16</title>
<path fill="none" stroke="midnightblue" d="M643.569,-196.066C577.908,-188.911 404.336,-169.975 259.5,-154 245.85,-152.494 230.908,-150.837 217.615,-149.359"/>
<polygon fill="midnightblue" stroke="midnightblue" points="217.69,-145.846 207.365,-148.219 216.916,-152.803 217.69,-145.846"/>
</g>
<!-- Node17 -->
<g id="node17" class="node"><title>Node17</title>
<polygon fill="white" stroke="#bfbfbf" points="805.5,-73 805.5,-92 933.5,-92 933.5,-73 805.5,-73"/>
<text text-anchor="middle" x="869.5" y="-80" font-family="Helvetica,sans-Serif" font-size="10.00">boost/noncopyable.hpp</text>
</g>
<!-- Node15&#45;&gt;Node17 -->
<g id="edge22" class="edge"><title>Node15&#45;&gt;Node17</title>
<path fill="none" stroke="midnightblue" d="M673.892,-190.493C679.842,-176.639 693.461,-149.225 713.5,-134 731.105,-120.625 784.782,-104.888 824.273,-94.5799"/>
<polygon fill="midnightblue" stroke="midnightblue" points="825.166,-97.9643 833.977,-92.081 823.42,-91.1854 825.166,-97.9643"/>
</g>
<!-- Node18 -->
<g id="node18" class="node"><title>Node18</title>
<polygon fill="white" stroke="#bfbfbf" points="794,-134.5 794,-153.5 895,-153.5 895,-134.5 794,-134.5"/>
<text text-anchor="middle" x="844.5" y="-141.5" font-family="Helvetica,sans-Serif" font-size="10.00">boost/variant.hpp</text>
</g>
<!-- Node15&#45;&gt;Node18 -->
<g id="edge23" class="edge"><title>Node15&#45;&gt;Node18</title>
<path fill="none" stroke="midnightblue" d="M697.306,-190.681C726.766,-181.538 774.287,-166.79 807.334,-156.534"/>
<polygon fill="midnightblue" stroke="midnightblue" points="808.576,-159.814 817.089,-153.507 806.501,-153.128 808.576,-159.814"/>
</g>
<!-- Node19 -->
<g id="node19" class="node"><title>Node19</title>
<g id="a_node19"><a xlink:href="expression_8h.xhtml" target="_top" xlink:title="Provides the base class for all expressions and units for expression values. ">
<polygon fill="white" stroke="black" points="454,-134.5 454,-153.5 531,-153.5 531,-134.5 454,-134.5"/>
<text text-anchor="middle" x="492.5" y="-141.5" font-family="Helvetica,sans-Serif" font-size="10.00">expression.h</text>
</a>
</g>
</g>
<!-- Node15&#45;&gt;Node19 -->
<g id="edge25" class="edge"><title>Node15&#45;&gt;Node19</title>
<path fill="none" stroke="midnightblue" d="M643.852,-190.916C613.751,-181.784 564.529,-166.851 530.427,-156.506"/>
<polygon fill="midnightblue" stroke="midnightblue" points="531.389,-153.14 520.804,-153.587 529.357,-159.839 531.389,-153.14"/>
</g>
<!-- Node19&#45;&gt;Node2 -->
<g id="edge28" class="edge"><title>Node19&#45;&gt;Node2</title>
<path fill="none" stroke="midnightblue" d="M453.776,-138.136C412.638,-132.094 346.254,-119.816 292.5,-98 249.144,-80.4041 203.727,-49.4347 178.781,-31.1595"/>
<polygon fill="midnightblue" stroke="midnightblue" points="180.673,-28.2044 170.559,-25.0491 176.498,-33.8229 180.673,-28.2044"/>
</g>
<!-- Node19&#45;&gt;Node3 -->
<g id="edge30" class="edge"><title>Node19&#45;&gt;Node3</title>
<path fill="none" stroke="midnightblue" d="M531.085,-142.409C584.269,-140.295 682.077,-131.673 757.5,-98 777.719,-88.9732 776.468,-76.4341 796.5,-67 866.37,-34.0942 892.982,-54.6586 966.5,-31 968.421,-30.3818 970.382,-29.6892 972.342,-28.9508"/>
<polygon fill="midnightblue" stroke="midnightblue" points="974.025,-32.0435 981.948,-25.0093 971.368,-25.5674 974.025,-32.0435"/>
</g>
<!-- Node19&#45;&gt;Node8 -->
<g id="edge33" class="edge"><title>Node19&#45;&gt;Node8</title>
<path fill="none" stroke="midnightblue" d="M524.594,-134.475C564.099,-123.982 631.279,-106.137 674.761,-94.587"/>
<polygon fill="midnightblue" stroke="midnightblue" points="675.699,-97.9591 684.466,-92.0091 673.902,-91.1937 675.699,-97.9591"/>
</g>
<!-- Node19&#45;&gt;Node13 -->
<g id="edge34" class="edge"><title>Node19&#45;&gt;Node13</title>
<path fill="none" stroke="midnightblue" d="M453.988,-138.029C365.687,-126.633 149.785,-98.7667 65.7555,-87.9213"/>
<polygon fill="midnightblue" stroke="midnightblue" points="66.0834,-84.4346 55.7176,-86.6257 65.1873,-91.3771 66.0834,-84.4346"/>
</g>
<!-- Node19&#45;&gt;Node17 -->
<g id="edge32" class="edge"><title>Node19&#45;&gt;Node17</title>
<path fill="none" stroke="midnightblue" d="M531.273,-137.599C588.352,-129.55 698.318,-113.668 791.5,-98 799.14,-96.7153 807.189,-95.2951 815.098,-93.8609"/>
<polygon fill="midnightblue" stroke="midnightblue" points="815.794,-97.2917 824.999,-92.0461 814.532,-90.4064 815.794,-97.2917"/>
</g>
<!-- Node20 -->
<g id="node20" class="node"><title>Node20</title>
<polygon fill="white" stroke="#bfbfbf" points="301.5,-73 301.5,-92 363.5,-92 363.5,-73 301.5,-73"/>
<text text-anchor="middle" x="332.5" y="-80" font-family="Helvetica,sans-Serif" font-size="10.00">algorithm</text>
</g>
<!-- Node19&#45;&gt;Node20 -->
<g id="edge26" class="edge"><title>Node19&#45;&gt;Node20</title>
<path fill="none" stroke="midnightblue" d="M469.576,-134.475C442.13,-124.269 395.984,-107.108 364.901,-95.5492"/>
<polygon fill="midnightblue" stroke="midnightblue" points="365.974,-92.2142 355.382,-92.0091 363.535,-98.7752 365.974,-92.2142"/>
</g>
<!-- Node21 -->
<g id="node21" class="node"><title>Node21</title>
<polygon fill="white" stroke="#bfbfbf" points="381.5,-73 381.5,-92 437.5,-92 437.5,-73 381.5,-73"/>
<text text-anchor="middle" x="409.5" y="-80" font-family="Helvetica,sans-Serif" font-size="10.00">sstream</text>
</g>
<!-- Node19&#45;&gt;Node21 -->
<g id="edge27" class="edge"><title>Node19&#45;&gt;Node21</title>
<path fill="none" stroke="midnightblue" d="M480.608,-134.475C467.295,-124.931 445.5,-109.307 429.543,-97.8683"/>
<polygon fill="midnightblue" stroke="midnightblue" points="431.536,-94.9908 421.37,-92.0091 427.458,-100.68 431.536,-94.9908"/>
</g>
<!-- Node22 -->
<g id="node22" class="node"><title>Node22</title>
<polygon fill="white" stroke="#bfbfbf" points="455.5,-73 455.5,-92 497.5,-92 497.5,-73 455.5,-73"/>
<text text-anchor="middle" x="476.5" y="-80" font-family="Helvetica,sans-Serif" font-size="10.00">utility</text>
</g>
<!-- Node19&#45;&gt;Node22 -->
<g id="edge29" class="edge"><title>Node19&#45;&gt;Node22</title>
<path fill="none" stroke="midnightblue" d="M490.208,-134.475C487.926,-125.992 484.353,-112.704 481.427,-101.822"/>
<polygon fill="midnightblue" stroke="midnightblue" points="484.765,-100.757 478.788,-92.0091 478.005,-102.575 484.765,-100.757"/>
</g>
<!-- Node23 -->
<g id="node23" class="node"><title>Node23</title>
<polygon fill="white" stroke="#bfbfbf" points="515.5,-67.5 515.5,-97.5 627.5,-97.5 627.5,-67.5 515.5,-67.5"/>
<text text-anchor="start" x="523.5" y="-85.5" font-family="Helvetica,sans-Serif" font-size="10.00">boost/icl/continuous</text>
<text text-anchor="middle" x="571.5" y="-74.5" font-family="Helvetica,sans-Serif" font-size="10.00">_interval.hpp</text>
</g>
<!-- Node19&#45;&gt;Node23 -->
<g id="edge31" class="edge"><title>Node19&#45;&gt;Node23</title>
<path fill="none" stroke="midnightblue" d="M503.819,-134.475C514.418,-126.492 530.667,-114.254 544.586,-103.77"/>
<polygon fill="midnightblue" stroke="midnightblue" points="546.999,-106.335 552.881,-97.523 542.788,-100.743 546.999,-106.335"/>
</g>
<!-- Node24&#45;&gt;Node2 -->
<g id="edge37" class="edge"><title>Node24&#45;&gt;Node2</title>
<path fill="none" stroke="midnightblue" d="M734.726,-260.807C607.599,-260.849 207.706,-253.004 140.5,-154 115.548,-117.241 136.388,-62.1161 150.007,-34.1415"/>
<polygon fill="midnightblue" stroke="midnightblue" points="153.168,-35.6457 154.599,-25.1478 146.934,-32.4623 153.168,-35.6457"/>
</g>
<!-- Node24&#45;&gt;Node3 -->
<g id="edge38" class="edge"><title>Node24&#45;&gt;Node3</title>
<path fill="none" stroke="midnightblue" d="M812.149,-256.168C845.12,-250.613 891.914,-238.073 922.5,-210 974.642,-162.143 992.064,-74.3363 997.377,-35.6566"/>
<polygon fill="midnightblue" stroke="midnightblue" points="1000.9,-35.6839 998.662,-25.3283 993.954,-34.8196 1000.9,-35.6839"/>
</g>
<!-- Node24&#45;&gt;Node8 -->
<g id="edge41" class="edge"><title>Node24&#45;&gt;Node8</title>
<path fill="none" stroke="midnightblue" d="M770.751,-251.963C762.007,-224.811 734.699,-140.012 722.496,-102.118"/>
<polygon fill="midnightblue" stroke="midnightblue" points="725.753,-100.814 719.356,-92.3684 719.09,-102.96 725.753,-100.814"/>
</g>
<!-- Node24&#45;&gt;Node15 -->
<g id="edge42" class="edge"><title>Node24&#45;&gt;Node15</title>
<path fill="none" stroke="midnightblue" d="M758.743,-251.975C741.839,-242.211 713.917,-226.081 694.01,-214.581"/>
<polygon fill="midnightblue" stroke="midnightblue" points="695.64,-211.481 685.23,-209.509 692.138,-217.542 695.64,-211.481"/>
</g>
<!-- Node24&#45;&gt;Node16 -->
<g id="edge36" class="edge"><title>Node24&#45;&gt;Node16</title>
<path fill="none" stroke="midnightblue" d="M734.934,-259.178C659.35,-255.881 486.867,-244.863 346.5,-210 295.064,-197.225 238.106,-172.879 205.477,-157.88"/>
<polygon fill="midnightblue" stroke="midnightblue" points="206.709,-154.593 196.165,-153.548 203.756,-160.94 206.709,-154.593"/>
</g>
<!-- Node24&#45;&gt;Node17 -->
<g id="edge39" class="edge"><title>Node24&#45;&gt;Node17</title>
<path fill="none" stroke="midnightblue" d="M812.276,-256.961C842.702,-251.913 883.194,-239.673 903.5,-210 922.576,-182.125 913.362,-166.306 903.5,-134 899.712,-121.59 891.738,-109.469 884.464,-100.214"/>
<polygon fill="midnightblue" stroke="midnightblue" points="886.957,-97.739 877.864,-92.3022 881.582,-102.223 886.957,-97.739"/>
</g>
<!-- Node24&#45;&gt;Node18 -->
<g id="edge40" class="edge"><title>Node24&#45;&gt;Node18</title>
<path fill="none" stroke="midnightblue" d="M777.04,-251.937C782.813,-238.345 794.979,-211.198 808.5,-190 814.889,-179.983 823.097,-169.577 830.062,-161.297"/>
<polygon fill="midnightblue" stroke="midnightblue" points="832.865,-163.405 836.741,-153.545 827.562,-158.836 832.865,-163.405"/>
</g>
<!-- Node24&#45;&gt;Node19 -->
<g id="edge43" class="edge"><title>Node24&#45;&gt;Node19</title>
<path fill="none" stroke="midnightblue" d="M748.156,-251.982C720.113,-242.398 673.701,-226.062 634.5,-210 593.879,-193.356 547.84,-171.765 519.484,-158.142"/>
<polygon fill="midnightblue" stroke="midnightblue" points="520.757,-154.87 510.23,-153.677 517.715,-161.175 520.757,-154.87"/>
</g>
<!-- Node25 -->
<g id="node25" class="node"><title>Node25</title>
<g id="a_node25"><a xlink:href="variant_8h.xhtml" target="_top" xlink:title="Extra helper functions for boost::variant. ">
<polygon fill="white" stroke="black" points="818,-190.5 818,-209.5 895,-209.5 895,-190.5 818,-190.5"/>
<text text-anchor="middle" x="856.5" y="-197.5" font-family="Helvetica,sans-Serif" font-size="10.00">ext/variant.h</text>
</a>
</g>
</g>
<!-- Node24&#45;&gt;Node25 -->
<g id="edge44" class="edge"><title>Node24&#45;&gt;Node25</title>
<path fill="none" stroke="midnightblue" d="M785.392,-251.975C798.705,-242.431 820.5,-226.807 836.457,-215.368"/>
<polygon fill="midnightblue" stroke="midnightblue" points="838.542,-218.18 844.63,-209.509 834.464,-212.491 838.542,-218.18"/>
</g>
<!-- Node25&#45;&gt;Node18 -->
<g id="edge45" class="edge"><title>Node25&#45;&gt;Node18</title>
<path fill="none" stroke="midnightblue" d="M854.518,-190.083C852.928,-182.927 850.641,-172.635 848.654,-163.691"/>
<polygon fill="midnightblue" stroke="midnightblue" points="852.031,-162.754 846.445,-153.751 845.197,-164.272 852.031,-162.754"/>
</g>
<!-- Node26&#45;&gt;Node2 -->
<g id="edge49" class="edge"><title>Node26&#45;&gt;Node2</title>
<path fill="none" stroke="midnightblue" d="M355.096,-192.297C306.388,-181.594 223.888,-155.654 183.5,-98 170.24,-79.0719 164.221,-52.7846 161.547,-35.2363"/>
<polygon fill="midnightblue" stroke="midnightblue" points="164.993,-34.5954 160.23,-25.1317 158.052,-35.5002 164.993,-34.5954"/>
</g>
<!-- Node26&#45;&gt;Node8 -->
<g id="edge50" class="edge"><title>Node26&#45;&gt;Node8</title>
<path fill="none" stroke="midnightblue" d="M423.649,-190.474C453.333,-181.899 499.852,-167.981 539.5,-154 592.025,-135.478 652.027,-110.822 686.948,-96.114"/>
<polygon fill="midnightblue" stroke="midnightblue" points="688.677,-99.1828 696.525,-92.0646 685.951,-92.7355 688.677,-99.1828"/>
</g>
<!-- Node26&#45;&gt;Node9 -->
<g id="edge47" class="edge"><title>Node26&#45;&gt;Node9</title>
<path fill="none" stroke="midnightblue" d="M377.682,-190.36C341.57,-169.516 258.703,-114.667 292.5,-67 317.149,-32.2354 367.677,-21.2209 401.829,-17.8357"/>
<polygon fill="midnightblue" stroke="midnightblue" points="402.176,-21.3191 411.856,-17.0121 401.603,-14.3426 402.176,-21.3191"/>
</g>
<!-- Node26&#45;&gt;Node16 -->
<g id="edge48" class="edge"><title>Node26&#45;&gt;Node16</title>
<path fill="none" stroke="midnightblue" d="M359.433,-190.444C320.682,-180.711 257.547,-164.854 217.032,-154.678"/>
<polygon fill="midnightblue" stroke="midnightblue" points="217.799,-151.262 207.248,-152.22 216.094,-158.051 217.799,-151.262"/>
</g>
<!-- Node26&#45;&gt;Node19 -->
<g id="edge51" class="edge"><title>Node26&#45;&gt;Node19</title>
<path fill="none" stroke="midnightblue" d="M409.406,-190.324C425.138,-181.743 449.442,-168.486 467.709,-158.522"/>
<polygon fill="midnightblue" stroke="midnightblue" points="469.53,-161.516 476.633,-153.655 466.178,-155.37 469.53,-161.516"/>
</g>
</g>
</svg>
        <g id="navigator" transform="translate(0 0)" fill="#404254">
                <rect fill="#f2f5e9" fill-opacity="0.5" stroke="#606060" stroke-width=".5" x="0" y="0" width="60" height="60"/>
                <use id="zoomplus" xlink:href="#zoomPlus" x="17" y="9" onmousedown="handleZoom(evt,'in')"/>
                <use id="zoomminus" xlink:href="#zoomMin" x="42" y="9" onmousedown="handleZoom(evt,'out')"/>
                <use id="reset" xlink:href="#resetDef" x="30" y="36" onmousedown="handleReset()"/>
                <g id="arrowUp" xlink:href="#dirArrow" transform="translate(30 24)" onmousedown="handlePan(0,-1)">
                  <use xlink:href="#rim" fill="#404040">
                        <set attributeName="fill" to="#808080" begin="arrowUp.mouseover" end="arrowUp.mouseout"/>
                  </use>
                  <path fill="none" stroke="white" stroke-width="1.5" d="M0,-3.0v7 M-2.5,-0.5L0,-3.0L2.5,-0.5"/>
                </g>
                <g id="arrowRight" xlink:href="#dirArrow" transform="rotate(90) translate(36 -43)" onmousedown="handlePan(1,0)">
                  <use xlink:href="#rim" fill="#404040">
                        <set attributeName="fill" to="#808080" begin="arrowRight.mouseover" end="arrowRight.mouseout"/>
                  </use>
                  <path fill="none" stroke="white" stroke-width="1.5" d="M0,-3.0v7 M-2.5,-0.5L0,-3.0L2.5,-0.5"/>
                </g>
                <g id="arrowDown" xlink:href="#dirArrow" transform="rotate(180) translate(-30 -48)" onmousedown="handlePan(0,1)">
                  <use xlink:href="#rim" fill="#404040">
                        <set attributeName="fill" to="#808080" begin="arrowDown.mouseover" end="arrowDown.mouseout"/>
                  </use>
                  <path fill="none" stroke="white" stroke-width="1.5" d="M0,-3.0v7 M-2.5,-0.5L0,-3.0L2.5,-0.5"/>
                </g>
                <g id="arrowLeft" xlink:href="#dirArrow" transform="rotate(270) translate(-36 17)" onmousedown="handlePan(-1,0)">
                  <use xlink:href="#rim" fill="#404040">
                        <set attributeName="fill" to="#808080" begin="arrowLeft.mouseover" end="arrowLeft.mouseout"/>
                  </use>
                  <path fill="none" stroke="white" stroke-width="1.5" d="M0,-3.0v7 M-2.5,-0.5L0,-3.0L2.5,-0.5"/>
                </g>
        </g>
        <svg viewBox="0 0 15 15" width="100%" height="30px" preserveAspectRatio="xMaxYMin meet">
         <g id="arrow_out" transform="scale(0.3 0.3)">
          <a xlink:href="cycle_8h__incl_org.svg" target="_base">
           <rect id="button" ry="5" rx="5" y="6" x="6" height="38" width="38"
                fill="#f2f5e9" fill-opacity="0.5" stroke="#606060" stroke-width="1.0"/>
           <path id="arrow"
             d="M 11.500037,31.436501 C 11.940474,20.09759 22.043105,11.32322 32.158766,21.979434 L 37.068811,17.246167 C 37.068811,17.246167 37.088388,32 37.088388,32 L 22.160133,31.978069 C 22.160133,31.978069 26.997745,27.140456 26.997745,27.140456 C 18.528582,18.264221 13.291696,25.230495 11.500037,31.436501 z"
             style="fill:#404040;"/>
          </a>
         </g>
        </svg>
</svg>
