<?xml version="1.0" encoding="UTF-8" standalone="no"?>
<!DOCTYPE svg PUBLIC "-//W3C//DTD SVG 1.1//EN"
 "http://www.w3.org/Graphics/SVG/1.1/DTD/svg11.dtd">
<!-- Generated by graphviz version 2.38.0 (20140413.2041)
 -->
<!-- Title: element.cc Pages: 1 -->
<!--zoomable 151 -->
<svg id="main" version="1.1" xmlns="http://www.w3.org/2000/svg" xmlns:xlink="http://www.w3.org/1999/xlink" xml:space="preserve" onload="init(evt)">
<style type="text/css"><![CDATA[
.edge:hover path { stroke: red; }
.edge:hover polygon { stroke: red; fill: red; }
]]></style>
<script type="text/javascript"><![CDATA[
var edges = document.getElementsByTagName('g');
if (edges && edges.length) {
  for (var i=0;i<edges.length;i++) {
    if (edges[i].id.substr(0,4)=='edge') {
      edges[i].setAttribute('class','edge');
    }
  }
}
]]></script>
        <defs>
                <circle id="rim" cx="0" cy="0" r="7"/>
                <circle id="rim2" cx="0" cy="0" r="3.5"/>
                <g id="zoomPlus">
                        <use xlink:href="#rim" fill="#404040">
                                <set attributeName="fill" to="#808080" begin="zoomplus.mouseover" end="zoomplus.mouseout"/>
                        </use>
                        <path d="M-4,0h8M0,-4v8" fill="none" stroke="white" stroke-width="1.5" pointer-events="none"/>
                </g>
                <g id="zoomMin">
                        <use xlink:href="#rim" fill="#404040">
                                <set attributeName="fill" to="#808080" begin="zoomminus.mouseover" end="zoomminus.mouseout"/>
                        </use>
                        <path d="M-4,0h8" fill="none" stroke="white" stroke-width="1.5" pointer-events="none"/>
                </g>
                <g id="dirArrow">
                        <path fill="none" stroke="white" stroke-width="1.5" d="M0,-3.0v7 M-2.5,-0.5L0,-3.0L2.5,-0.5"/>
                </g>
               <g id="resetDef">
                       <use xlink:href="#rim2" fill="#404040">
                               <set attributeName="fill" to="#808080" begin="reset.mouseover" end="reset.mouseout"/>
                       </use>
               </g>
        </defs>

<script type="text/javascript">
var viewWidth = 1005;
var viewHeight = 151;
var sectionId = 'dynsection-0';
</script>
<script xlink:href="svgpan.js"/>
<svg id="graph" class="graph">
<g id="viewport">
<title>element.cc</title>
<polygon fill="white" stroke="none" points="-4,4 -4,-147 1001,-147 1001,4 -4,4"/>
<!-- Node1 -->
<g id="node1" class="node"><title>Node1</title>
<polygon fill="#bfbfbf" stroke="black" points="712,-123.5 712,-142.5 782,-142.5 782,-123.5 712,-123.5"/>
<text text-anchor="middle" x="747" y="-130.5" font-family="Helvetica,sans-Serif" font-size="10.00">element.cc</text>
</g>
<!-- Node2 -->
<g id="node2" class="node"><title>Node2</title>
<g id="a_node2"><a xlink:href="element_8h.xhtml" target="_top" xlink:title="Helper classes, structs, and properties common to all other classes. ">
<polygon fill="white" stroke="black" points="334.5,-67.5 334.5,-86.5 399.5,-86.5 399.5,-67.5 334.5,-67.5"/>
<text text-anchor="middle" x="367" y="-74.5" font-family="Helvetica,sans-Serif" font-size="10.00">element.h</text>
</a>
</g>
</g>
<!-- Node1&#45;&gt;Node2 -->
<g id="edge1" class="edge"><title>Node1&#45;&gt;Node2</title>
<path fill="none" stroke="midnightblue" d="M711.932,-127.017C642.002,-117.079 485.436,-94.8304 409.678,-84.0648"/>
<polygon fill="midnightblue" stroke="midnightblue" points="409.935,-80.5662 399.542,-82.6244 408.95,-87.4966 409.935,-80.5662"/>
</g>
<!-- Node9 -->
<g id="node9" class="node"><title>Node9</title>
<polygon fill="white" stroke="#bfbfbf" points="773,-6 773,-25 917,-25 917,-6 773,-6"/>
<text text-anchor="middle" x="845" y="-13" font-family="Helvetica,sans-Serif" font-size="10.00">boost/range/algorithm.hpp</text>
</g>
<!-- Node1&#45;&gt;Node9 -->
<g id="edge8" class="edge"><title>Node1&#45;&gt;Node9</title>
<path fill="none" stroke="midnightblue" d="M752.477,-123.214C760.65,-110.36 776.818,-85.9047 793,-67 803.59,-54.6283 816.761,-41.8603 827.197,-32.2579"/>
<polygon fill="midnightblue" stroke="midnightblue" points="829.815,-34.6096 834.879,-25.3037 825.117,-29.4201 829.815,-34.6096"/>
</g>
<!-- Node10 -->
<g id="node10" class="node"><title>Node10</title>
<g id="a_node10"><a xlink:href="error_8h.xhtml" target="_top" xlink:title="Exceptions for SCRAM. ">
<polygon fill="white" stroke="black" points="697,-67.5 697,-86.5 745,-86.5 745,-67.5 697,-67.5"/>
<text text-anchor="middle" x="721" y="-74.5" font-family="Helvetica,sans-Serif" font-size="10.00">error.h</text>
</a>
</g>
</g>
<!-- Node1&#45;&gt;Node10 -->
<g id="edge9" class="edge"><title>Node1&#45;&gt;Node10</title>
<path fill="none" stroke="midnightblue" d="M742.707,-123.083C739.148,-115.691 733.978,-104.953 729.576,-95.8111"/>
<polygon fill="midnightblue" stroke="midnightblue" points="732.705,-94.2427 725.213,-86.7511 726.398,-97.2795 732.705,-94.2427"/>
</g>
<!-- Node12 -->
<g id="node12" class="node"><title>Node12</title>
<g id="a_node12"><a xlink:href="algorithm_8h.xhtml" target="_top" xlink:title="Helpful algorithm facilities as an extension to the STL or Boost. ">
<polygon fill="white" stroke="black" points="801.5,-67.5 801.5,-86.5 890.5,-86.5 890.5,-67.5 801.5,-67.5"/>
<text text-anchor="middle" x="846" y="-74.5" font-family="Helvetica,sans-Serif" font-size="10.00">ext/algorithm.h</text>
</a>
</g>
</g>
<!-- Node1&#45;&gt;Node12 -->
<g id="edge12" class="edge"><title>Node1&#45;&gt;Node12</title>
<path fill="none" stroke="midnightblue" d="M762.906,-123.324C778.638,-114.743 802.942,-101.486 821.209,-91.5224"/>
<polygon fill="midnightblue" stroke="midnightblue" points="823.03,-94.5157 830.133,-86.6545 819.678,-88.3704 823.03,-94.5157"/>
</g>
<!-- Node3 -->
<g id="node3" class="node"><title>Node3</title>
<polygon fill="white" stroke="#bfbfbf" points="148.5,-6 148.5,-25 197.5,-25 197.5,-6 148.5,-6"/>
<text text-anchor="middle" x="173" y="-13" font-family="Helvetica,sans-Serif" font-size="10.00">cstdint</text>
</g>
<!-- Node2&#45;&gt;Node3 -->
<g id="edge2" class="edge"><title>Node2&#45;&gt;Node3</title>
<path fill="none" stroke="midnightblue" d="M334.198,-68.2796C301.361,-60.2145 249.59,-46.5803 206,-31 204.339,-30.4063 202.644,-29.7676 200.942,-29.1009"/>
<polygon fill="midnightblue" stroke="midnightblue" points="201.892,-25.7055 191.315,-25.0963 199.204,-32.1687 201.892,-25.7055"/>
</g>
<!-- Node4 -->
<g id="node4" class="node"><title>Node4</title>
<polygon fill="white" stroke="#bfbfbf" points="629,-6 629,-25 673,-25 673,-6 629,-6"/>
<text text-anchor="middle" x="651" y="-13" font-family="Helvetica,sans-Serif" font-size="10.00">string</text>
</g>
<!-- Node2&#45;&gt;Node4 -->
<g id="edge3" class="edge"><title>Node2&#45;&gt;Node4</title>
<path fill="none" stroke="midnightblue" d="M399.6,-72.9548C448.422,-67.7831 543.02,-55.3846 620,-31 621.674,-30.4696 623.376,-29.8683 625.075,-29.2196"/>
<polygon fill="midnightblue" stroke="midnightblue" points="626.772,-32.3004 634.589,-25.149 624.019,-25.8647 626.772,-32.3004"/>
</g>
<!-- Node5 -->
<g id="node5" class="node"><title>Node5</title>
<polygon fill="white" stroke="#bfbfbf" points="215.5,-6 215.5,-25 262.5,-25 262.5,-6 215.5,-6"/>
<text text-anchor="middle" x="239" y="-13" font-family="Helvetica,sans-Serif" font-size="10.00">vector</text>
</g>
<!-- Node2&#45;&gt;Node5 -->
<g id="edge4" class="edge"><title>Node2&#45;&gt;Node5</title>
<path fill="none" stroke="midnightblue" d="M348.661,-67.4751C327.179,-57.4897 291.378,-40.8476 266.552,-29.3075"/>
<polygon fill="midnightblue" stroke="midnightblue" points="267.849,-26.0506 257.305,-25.0091 264.898,-32.3983 267.849,-26.0506"/>
</g>
<!-- Node6 -->
<g id="node6" class="node"><title>Node6</title>
<polygon fill="white" stroke="#bfbfbf" points="281,-6 281,-25 453,-25 453,-6 281,-6"/>
<text text-anchor="middle" x="367" y="-13" font-family="Helvetica,sans-Serif" font-size="10.00">boost/multi_index_container.hpp</text>
</g>
<!-- Node2&#45;&gt;Node6 -->
<g id="edge5" class="edge"><title>Node2&#45;&gt;Node6</title>
<path fill="none" stroke="midnightblue" d="M367,-67.4751C367,-59.0803 367,-45.9806 367,-35.1631"/>
<polygon fill="midnightblue" stroke="midnightblue" points="370.5,-35.0091 367,-25.0091 363.5,-35.0091 370.5,-35.0091"/>
</g>
<!-- Node7 -->
<g id="node7" class="node"><title>Node7</title>
<polygon fill="white" stroke="#bfbfbf" points="471,-0.5 471,-30.5 611,-30.5 611,-0.5 471,-0.5"/>
<text text-anchor="start" x="479" y="-18.5" font-family="Helvetica,sans-Serif" font-size="10.00">boost/multi_index/hashed</text>
<text text-anchor="middle" x="541" y="-7.5" font-family="Helvetica,sans-Serif" font-size="10.00">_index.hpp</text>
</g>
<!-- Node2&#45;&gt;Node7 -->
<g id="edge6" class="edge"><title>Node2&#45;&gt;Node7</title>
<path fill="none" stroke="midnightblue" d="M391.93,-67.4751C417.478,-58.7388 457.927,-44.9073 490.247,-33.855"/>
<polygon fill="midnightblue" stroke="midnightblue" points="491.662,-37.0704 499.992,-30.523 489.397,-30.4469 491.662,-37.0704"/>
</g>
<!-- Node8 -->
<g id="node8" class="node"><title>Node8</title>
<polygon fill="white" stroke="#bfbfbf" points="0,-0.5 0,-30.5 130,-30.5 130,-0.5 0,-0.5"/>
<text text-anchor="start" x="8" y="-18.5" font-family="Helvetica,sans-Serif" font-size="10.00">boost/multi_index/mem</text>
<text text-anchor="middle" x="65" y="-7.5" font-family="Helvetica,sans-Serif" font-size="10.00">_fun.hpp</text>
</g>
<!-- Node2&#45;&gt;Node8 -->
<g id="edge7" class="edge"><title>Node2&#45;&gt;Node8</title>
<path fill="none" stroke="midnightblue" d="M334.394,-69.5759C288.305,-60.4956 202.782,-43.6458 140.426,-31.3605"/>
<polygon fill="midnightblue" stroke="midnightblue" points="140.726,-27.8524 130.238,-29.3532 139.373,-34.7203 140.726,-27.8524"/>
</g>
<!-- Node10&#45;&gt;Node4 -->
<g id="edge11" class="edge"><title>Node10&#45;&gt;Node4</title>
<path fill="none" stroke="midnightblue" d="M710.971,-67.4751C699.951,-58.1082 682.04,-42.8839 668.657,-31.5081"/>
<polygon fill="midnightblue" stroke="midnightblue" points="670.897,-28.8188 661.011,-25.0091 666.363,-34.1524 670.897,-28.8188"/>
</g>
<!-- Node11 -->
<g id="node11" class="node"><title>Node11</title>
<polygon fill="white" stroke="#bfbfbf" points="691.5,-6 691.5,-25 754.5,-25 754.5,-6 691.5,-6"/>
<text text-anchor="middle" x="723" y="-13" font-family="Helvetica,sans-Serif" font-size="10.00">exception</text>
</g>
<!-- Node10&#45;&gt;Node11 -->
<g id="edge10" class="edge"><title>Node10&#45;&gt;Node11</title>
<path fill="none" stroke="midnightblue" d="M721.287,-67.4751C721.569,-59.0803 722.009,-45.9806 722.373,-35.1631"/>
<polygon fill="midnightblue" stroke="midnightblue" points="725.876,-35.1211 722.714,-25.0091 718.88,-34.8858 725.876,-35.1211"/>
</g>
<!-- Node12&#45;&gt;Node9 -->
<g id="edge14" class="edge"><title>Node12&#45;&gt;Node9</title>
<path fill="none" stroke="midnightblue" d="M845.857,-67.4751C845.716,-59.0803 845.495,-45.9806 845.314,-35.1631"/>
<polygon fill="midnightblue" stroke="midnightblue" points="848.811,-34.9488 845.143,-25.0091 841.812,-35.0665 848.811,-34.9488"/>
</g>
<!-- Node13 -->
<g id="node13" class="node"><title>Node13</title>
<polygon fill="white" stroke="#bfbfbf" points="935,-6 935,-25 997,-25 997,-6 935,-6"/>
<text text-anchor="middle" x="966" y="-13" font-family="Helvetica,sans-Serif" font-size="10.00">algorithm</text>
</g>
<!-- Node12&#45;&gt;Node13 -->
<g id="edge13" class="edge"><title>Node12&#45;&gt;Node13</title>
<path fill="none" stroke="midnightblue" d="M863.193,-67.4751C883.243,-57.5338 916.599,-40.9947 939.86,-29.461"/>
<polygon fill="midnightblue" stroke="midnightblue" points="941.434,-32.5871 948.839,-25.0091 938.325,-26.3157 941.434,-32.5871"/>
</g>
</g>
</svg>
        <g id="navigator" transform="translate(0 0)" fill="#404254">
                <rect fill="#f2f5e9" fill-opacity="0.5" stroke="#606060" stroke-width=".5" x="0" y="0" width="60" height="60"/>
                <use id="zoomplus" xlink:href="#zoomPlus" x="17" y="9" onmousedown="handleZoom(evt,'in')"/>
                <use id="zoomminus" xlink:href="#zoomMin" x="42" y="9" onmousedown="handleZoom(evt,'out')"/>
                <use id="reset" xlink:href="#resetDef" x="30" y="36" onmousedown="handleReset()"/>
                <g id="arrowUp" xlink:href="#dirArrow" transform="translate(30 24)" onmousedown="handlePan(0,-1)">
                  <use xlink:href="#rim" fill="#404040">
                        <set attributeName="fill" to="#808080" begin="arrowUp.mouseover" end="arrowUp.mouseout"/>
                  </use>
                  <path fill="none" stroke="white" stroke-width="1.5" d="M0,-3.0v7 M-2.5,-0.5L0,-3.0L2.5,-0.5"/>
                </g>
                <g id="arrowRight" xlink:href="#dirArrow" transform="rotate(90) translate(36 -43)" onmousedown="handlePan(1,0)">
                  <use xlink:href="#rim" fill="#404040">
                        <set attributeName="fill" to="#808080" begin="arrowRight.mouseover" end="arrowRight.mouseout"/>
                  </use>
                  <path fill="none" stroke="white" stroke-width="1.5" d="M0,-3.0v7 M-2.5,-0.5L0,-3.0L2.5,-0.5"/>
                </g>
                <g id="arrowDown" xlink:href="#dirArrow" transform="rotate(180) translate(-30 -48)" onmousedown="handlePan(0,1)">
                  <use xlink:href="#rim" fill="#404040">
                        <set attributeName="fill" to="#808080" begin="arrowDown.mouseover" end="arrowDown.mouseout"/>
                  </use>
                  <path fill="none" stroke="white" stroke-width="1.5" d="M0,-3.0v7 M-2.5,-0.5L0,-3.0L2.5,-0.5"/>
                </g>
                <g id="arrowLeft" xlink:href="#dirArrow" transform="rotate(270) translate(-36 17)" onmousedown="handlePan(-1,0)">
                  <use xlink:href="#rim" fill="#404040">
                        <set attributeName="fill" to="#808080" begin="arrowLeft.mouseover" end="arrowLeft.mouseout"/>
                  </use>
                  <path fill="none" stroke="white" stroke-width="1.5" d="M0,-3.0v7 M-2.5,-0.5L0,-3.0L2.5,-0.5"/>
                </g>
        </g>
        <svg viewBox="0 0 15 15" width="100%" height="30px" preserveAspectRatio="xMaxYMin meet">
         <g id="arrow_out" transform="scale(0.3 0.3)">
          <a xlink:href="element_8cc__incl_org.svg" target="_base">
           <rect id="button" ry="5" rx="5" y="6" x="6" height="38" width="38"
                fill="#f2f5e9" fill-opacity="0.5" stroke="#606060" stroke-width="1.0"/>
           <path id="arrow"
             d="M 11.500037,31.436501 C 11.940474,20.09759 22.043105,11.32322 32.158766,21.979434 L 37.068811,17.246167 C 37.068811,17.246167 37.088388,32 37.088388,32 L 22.160133,31.978069 C 22.160133,31.978069 26.997745,27.140456 26.997745,27.140456 C 18.528582,18.264221 13.291696,25.230495 11.500037,31.436501 z"
             style="fill:#404040;"/>
          </a>
         </g>
        </svg>
</svg>
