<?xml version="1.0" encoding="UTF-8" standalone="no"?>
<!DOCTYPE svg PUBLIC "-//W3C//DTD SVG 1.1//EN"
 "http://www.w3.org/Graphics/SVG/1.1/DTD/svg11.dtd">
<!-- Generated by graphviz version 2.38.0 (20140413.2041)
 -->
<!-- Title: element.h Pages: 1 -->
<svg width="682pt" height="95pt"
 viewBox="0.00 0.00 681.50 95.00" xmlns="http://www.w3.org/2000/svg" xmlns:xlink="http://www.w3.org/1999/xlink">
<g id="graph0" class="graph" transform="scale(1 1) rotate(0) translate(4 91)">
<title>element.h</title>
<polygon fill="white" stroke="none" points="-4,4 -4,-91 677.5,-91 677.5,4 -4,4"/>
<!-- Node1 -->
<g id="node1" class="node"><title>Node1</title>
<polygon fill="#bfbfbf" stroke="black" points="185,-67.5 185,-86.5 250,-86.5 250,-67.5 185,-67.5"/>
<text text-anchor="middle" x="217.5" y="-74.5" font-family="Helvetica,sans-Serif" font-size="10.00">element.h</text>
</g>
<!-- Node2 -->
<g id="node2" class="node"><title>Node2</title>
<polygon fill="white" stroke="#bfbfbf" points="0,-6 0,-25 49,-25 49,-6 0,-6"/>
<text text-anchor="middle" x="24.5" y="-13" font-family="Helvetica,sans-Serif" font-size="10.00">cstdint</text>
</g>
<!-- Node1&#45;&gt;Node2 -->
<g id="edge1" class="edge"><title>Node1&#45;&gt;Node2</title>
<path fill="none" stroke="midnightblue" d="M184.842,-68.0559C152.43,-59.8693 101.512,-46.1887 58.5,-31 56.6393,-30.3429 54.7351,-29.6345 52.8246,-28.8966"/>
<polygon fill="midnightblue" stroke="midnightblue" points="53.9747,-25.586 43.3929,-25.0616 51.3381,-32.0705 53.9747,-25.586"/>
</g>
<!-- Node3 -->
<g id="node3" class="node"><title>Node3</title>
<polygon fill="white" stroke="#bfbfbf" points="67.5,-6 67.5,-25 111.5,-25 111.5,-6 67.5,-6"/>
<text text-anchor="middle" x="89.5" y="-13" font-family="Helvetica,sans-Serif" font-size="10.00">string</text>
</g>
<!-- Node1&#45;&gt;Node3 -->
<g id="edge2" class="edge"><title>Node1&#45;&gt;Node3</title>
<path fill="none" stroke="midnightblue" d="M198.896,-67.3905C179.364,-58.3462 147.761,-43.6991 120.5,-31 119.349,-30.4637 118.174,-29.9159 116.987,-29.3622"/>
<polygon fill="midnightblue" stroke="midnightblue" points="118.396,-26.1577 107.855,-25.0969 115.434,-32.5 118.396,-26.1577"/>
</g>
<!-- Node4 -->
<g id="node4" class="node"><title>Node4</title>
<polygon fill="white" stroke="#bfbfbf" points="130,-6 130,-25 177,-25 177,-6 130,-6"/>
<text text-anchor="middle" x="153.5" y="-13" font-family="Helvetica,sans-Serif" font-size="10.00">vector</text>
</g>
<!-- Node1&#45;&gt;Node4 -->
<g id="edge3" class="edge"><title>Node1&#45;&gt;Node4</title>
<path fill="none" stroke="midnightblue" d="M208.33,-67.4751C198.35,-58.1966 182.188,-43.1706 169.991,-31.831"/>
<polygon fill="midnightblue" stroke="midnightblue" points="172.36,-29.2547 162.653,-25.0091 167.593,-34.3814 172.36,-29.2547"/>
</g>
<!-- Node5 -->
<g id="node5" class="node"><title>Node5</title>
<polygon fill="white" stroke="#bfbfbf" points="195.5,-6 195.5,-25 367.5,-25 367.5,-6 195.5,-6"/>
<text text-anchor="middle" x="281.5" y="-13" font-family="Helvetica,sans-Serif" font-size="10.00">boost/multi_index_container.hpp</text>
</g>
<!-- Node1&#45;&gt;Node5 -->
<g id="edge4" class="edge"><title>Node1&#45;&gt;Node5</title>
<path fill="none" stroke="midnightblue" d="M226.67,-67.4751C236.65,-58.1966 252.812,-43.1706 265.009,-31.831"/>
<polygon fill="midnightblue" stroke="midnightblue" points="267.407,-34.3814 272.347,-25.0091 262.64,-29.2547 267.407,-34.3814"/>
</g>
<!-- Node6 -->
<g id="node6" class="node"><title>Node6</title>
<polygon fill="white" stroke="#bfbfbf" points="385.5,-0.5 385.5,-30.5 525.5,-30.5 525.5,-0.5 385.5,-0.5"/>
<text text-anchor="start" x="393.5" y="-18.5" font-family="Helvetica,sans-Serif" font-size="10.00">boost/multi_index/hashed</text>
<text text-anchor="middle" x="455.5" y="-7.5" font-family="Helvetica,sans-Serif" font-size="10.00">_index.hpp</text>
</g>
<!-- Node1&#45;&gt;Node6 -->
<g id="edge5" class="edge"><title>Node1&#45;&gt;Node6</title>
<path fill="none" stroke="midnightblue" d="M250.094,-67.8515C285.794,-58.9264 344.006,-44.3736 389.36,-33.035"/>
<polygon fill="midnightblue" stroke="midnightblue" points="390.27,-36.4154 399.122,-30.5945 388.572,-29.6244 390.27,-36.4154"/>
</g>
<!-- Node7 -->
<g id="node7" class="node"><title>Node7</title>
<polygon fill="white" stroke="#bfbfbf" points="543.5,-0.5 543.5,-30.5 673.5,-30.5 673.5,-0.5 543.5,-0.5"/>
<text text-anchor="start" x="551.5" y="-18.5" font-family="Helvetica,sans-Serif" font-size="10.00">boost/multi_index/mem</text>
<text text-anchor="middle" x="608.5" y="-7.5" font-family="Helvetica,sans-Serif" font-size="10.00">_fun.hpp</text>
</g>
<!-- Node1&#45;&gt;Node7 -->
<g id="edge6" class="edge"><title>Node1&#45;&gt;Node7</title>
<path fill="none" stroke="midnightblue" d="M250.445,-71.9024C306.455,-64.8107 424.029,-49.3823 533.295,-31.1533"/>
<polygon fill="midnightblue" stroke="midnightblue" points="533.882,-34.6039 543.164,-29.4953 532.722,-27.7006 533.882,-34.6039"/>
</g>
</g>
</svg>
