<?xml version="1.0" encoding="UTF-8" standalone="no"?>
<!DOCTYPE svg PUBLIC "-//W3C//DTD SVG 1.1//EN"
 "http://www.w3.org/Graphics/SVG/1.1/DTD/svg11.dtd">
<!-- Generated by graphviz version 2.38.0 (20140413.2041)
 -->
<!-- Title: scram::mef::GetFullPath Pages: 1 -->
<svg width="487pt" height="78pt"
 viewBox="0.00 0.00 487.00 77.50" xmlns="http://www.w3.org/2000/svg" xmlns:xlink="http://www.w3.org/1999/xlink">
<g id="graph0" class="graph" transform="scale(1 1) rotate(0) translate(4 73.5)">
<title>scram::mef::GetFullPath</title>
<polygon fill="white" stroke="none" points="-4,4 -4,-73.5 483,-73.5 483,4 -4,4"/>
<!-- Node1 -->
<g id="node1" class="node"><title>Node1</title>
<polygon fill="#bfbfbf" stroke="black" points="0,-22.5 0,-41.5 131,-41.5 131,-22.5 0,-22.5"/>
<text text-anchor="middle" x="65.5" y="-29.5" font-family="Helvetica,sans-Serif" font-size="10.00">scram::mef::GetFullPath</text>
</g>
<!-- Node1&#45;&gt;Node1 -->
<g id="edge1" class="edge"><title>Node1&#45;&gt;Node1</title>
<path fill="none" stroke="midnightblue" d="M31.767,-49.8913C32.261,-55.5406 43.5054,-60 65.5,-60 97.4922,-60 106.74,-50.5653 93.2432,-41.7571"/>
<polygon fill="midnightblue" stroke="midnightblue" points="34.6456,-51.8848 37.7568,-41.7571 29.0089,-47.7341 34.6456,-51.8848"/>
</g>
<!-- Node2 -->
<g id="node2" class="node"><title>Node2</title>
<g id="a_node2"><a xlink:href="classscram_1_1mef_1_1Initializer.xhtml#aa541fee61ff2be90b083f45dc1c26046" target="_top" xlink:title="scram::mef::Initializer\l::model">
<polygon fill="white" stroke="black" points="186,-39 186,-69 305,-69 305,-39 186,-39"/>
<text text-anchor="start" x="194" y="-57" font-family="Helvetica,sans-Serif" font-size="10.00">scram::mef::Initializer</text>
<text text-anchor="middle" x="245.5" y="-46" font-family="Helvetica,sans-Serif" font-size="10.00">::model</text>
</a>
</g>
</g>
<!-- Node1&#45;&gt;Node2 -->
<g id="edge2" class="edge"><title>Node1&#45;&gt;Node2</title>
<path fill="none" stroke="midnightblue" d="M141.217,-41.2347C156.113,-43.0758 171.557,-44.9846 185.821,-46.7476"/>
<polygon fill="midnightblue" stroke="midnightblue" points="141.368,-37.7267 131.014,-39.9736 140.509,-44.6739 141.368,-37.7267"/>
</g>
<!-- Node4 -->
<g id="node4" class="node"><title>Node4</title>
<g id="a_node4"><a xlink:href="classscram_1_1mef_1_1Id.xhtml#a846997cebdf27bbff872fa87e7f1a9e2" target="_top" xlink:title="Produces unique name for the model element within the same type. ">
<polygon fill="white" stroke="black" points="167,-0.5 167,-19.5 324,-19.5 324,-0.5 167,-0.5"/>
<text text-anchor="middle" x="245.5" y="-7.5" font-family="Helvetica,sans-Serif" font-size="10.00">scram::mef::Id::unique_name</text>
</a>
</g>
</g>
<!-- Node1&#45;&gt;Node4 -->
<g id="edge4" class="edge"><title>Node1&#45;&gt;Node4</title>
<path fill="none" stroke="midnightblue" d="M141.132,-22.7759C149.842,-21.6993 158.741,-20.5995 167.483,-19.519"/>
<polygon fill="midnightblue" stroke="midnightblue" points="140.509,-19.3261 131.014,-24.0264 141.368,-26.2733 140.509,-19.3261"/>
</g>
<!-- Node3 -->
<g id="node3" class="node"><title>Node3</title>
<g id="a_node3"><a xlink:href="classscram_1_1mef_1_1Initializer.xhtml#a922f808a593655cd2a909533c2e4620b" target="_top" xlink:title="Specializations for element registrations. ">
<polygon fill="white" stroke="black" points="360,-39 360,-69 479,-69 479,-39 360,-39"/>
<text text-anchor="start" x="368" y="-57" font-family="Helvetica,sans-Serif" font-size="10.00">scram::mef::Initializer</text>
<text text-anchor="middle" x="419.5" y="-46" font-family="Helvetica,sans-Serif" font-size="10.00">::Register</text>
</a>
</g>
</g>
<!-- Node2&#45;&gt;Node3 -->
<g id="edge3" class="edge"><title>Node2&#45;&gt;Node3</title>
<path fill="none" stroke="midnightblue" d="M315.277,-54C330.011,-54 345.448,-54 359.761,-54"/>
<polygon fill="midnightblue" stroke="midnightblue" points="315.212,-50.5001 305.212,-54 315.212,-57.5001 315.212,-50.5001"/>
</g>
</g>
</svg>
