<?xml version="1.0" encoding="UTF-8" standalone="no"?>
<!DOCTYPE svg PUBLIC "-//W3C//DTD SVG 1.1//EN"
 "http://www.w3.org/Graphics/SVG/1.1/DTD/svg11.dtd">
<!-- Generated by graphviz version 2.38.0 (20140413.2041)
 -->
<!-- Title: env.h Pages: 1 -->
<svg width="233pt" height="84pt"
 viewBox="0.00 0.00 233.00 84.00" xmlns="http://www.w3.org/2000/svg" xmlns:xlink="http://www.w3.org/1999/xlink">
<g id="graph0" class="graph" transform="scale(1 1) rotate(0) translate(4 80)">
<title>env.h</title>
<polygon fill="white" stroke="none" points="-4,4 -4,-80 229,-80 229,4 -4,4"/>
<!-- Node1 -->
<g id="node1" class="node"><title>Node1</title>
<polygon fill="#bfbfbf" stroke="black" points="85.5,-56.5 85.5,-75.5 127.5,-75.5 127.5,-56.5 85.5,-56.5"/>
<text text-anchor="middle" x="106.5" y="-63.5" font-family="Helvetica,sans-Serif" font-size="10.00">env.h</text>
</g>
<!-- Node2 -->
<g id="node2" class="node"><title>Node2</title>
<g id="a_node2"><a xlink:href="config_8cc.xhtml" target="_top" xlink:title="Implementation of configuration facilities. ">
<polygon fill="white" stroke="black" points="0,-0.5 0,-19.5 59,-19.5 59,-0.5 0,-0.5"/>
<text text-anchor="middle" x="29.5" y="-7.5" font-family="Helvetica,sans-Serif" font-size="10.00">config.cc</text>
</a>
</g>
</g>
<!-- Node1&#45;&gt;Node2 -->
<g id="edge1" class="edge"><title>Node1&#45;&gt;Node2</title>
<path fill="none" stroke="midnightblue" d="M85.599,-50.3422C71.5889,-40.5169 53.617,-27.9132 41.8407,-19.6545"/>
<polygon fill="midnightblue" stroke="midnightblue" points="83.9317,-53.4477 94.1286,-56.324 87.9509,-47.7166 83.9317,-53.4477"/>
</g>
<!-- Node3 -->
<g id="node3" class="node"><title>Node3</title>
<g id="a_node3"><a xlink:href="env_8cc_8in.xhtml" target="_top" xlink:title="Implementation of Env class. ">
<polygon fill="white" stroke="black" points="77.5,-0.5 77.5,-19.5 135.5,-19.5 135.5,-0.5 77.5,-0.5"/>
<text text-anchor="middle" x="106.5" y="-7.5" font-family="Helvetica,sans-Serif" font-size="10.00">env.cc.in</text>
</a>
</g>
</g>
<!-- Node1&#45;&gt;Node3 -->
<g id="edge2" class="edge"><title>Node1&#45;&gt;Node3</title>
<path fill="none" stroke="midnightblue" d="M106.5,-45.8045C106.5,-36.9102 106.5,-26.7798 106.5,-19.7511"/>
<polygon fill="midnightblue" stroke="midnightblue" points="103,-46.083 106.5,-56.083 110,-46.083 103,-46.083"/>
</g>
<!-- Node4 -->
<g id="node4" class="node"><title>Node4</title>
<g id="a_node4"><a xlink:href="initializer_8cc.xhtml" target="_top" xlink:title="Implementation of input file processing into analysis constructs. ">
<polygon fill="white" stroke="black" points="154,-0.5 154,-19.5 225,-19.5 225,-0.5 154,-0.5"/>
<text text-anchor="middle" x="189.5" y="-7.5" font-family="Helvetica,sans-Serif" font-size="10.00">initializer.cc</text>
</a>
</g>
</g>
<!-- Node1&#45;&gt;Node4 -->
<g id="edge3" class="edge"><title>Node1&#45;&gt;Node4</title>
<path fill="none" stroke="midnightblue" d="M128.599,-50.6221C143.762,-40.7574 163.383,-27.9919 176.198,-19.6545"/>
<polygon fill="midnightblue" stroke="midnightblue" points="126.309,-47.9367 119.835,-56.324 130.126,-53.8042 126.309,-47.9367"/>
</g>
</g>
</svg>
