<?xml version="1.0" encoding="UTF-8" standalone="no"?>
<!DOCTYPE svg PUBLIC "-//W3C//DTD SVG 1.1//EN"
 "http://www.w3.org/Graphics/SVG/1.1/DTD/svg11.dtd">
<!-- Generated by graphviz version 2.38.0 (20140413.2041)
 -->
<!-- Title: env.cc.in Pages: 1 -->
<svg width="155pt" height="140pt"
 viewBox="0.00 0.00 155.00 140.00" xmlns="http://www.w3.org/2000/svg" xmlns:xlink="http://www.w3.org/1999/xlink">
<g id="graph0" class="graph" transform="scale(1 1) rotate(0) translate(4 136)">
<title>env.cc.in</title>
<polygon fill="white" stroke="none" points="-4,4 -4,-136 151,-136 151,4 -4,4"/>
<!-- Node1 -->
<g id="node1" class="node"><title>Node1</title>
<polygon fill="#bfbfbf" stroke="black" points="34,-112.5 34,-131.5 92,-131.5 92,-112.5 34,-112.5"/>
<text text-anchor="middle" x="63" y="-119.5" font-family="Helvetica,sans-Serif" font-size="10.00">env.cc.in</text>
</g>
<!-- Node2 -->
<g id="node2" class="node"><title>Node2</title>
<g id="a_node2"><a xlink:href="env_8h.xhtml" target="_top" xlink:title="Environmental Variables. ">
<polygon fill="white" stroke="black" points="1,-56.5 1,-75.5 43,-75.5 43,-56.5 1,-56.5"/>
<text text-anchor="middle" x="22" y="-63.5" font-family="Helvetica,sans-Serif" font-size="10.00">env.h</text>
</a>
</g>
</g>
<!-- Node1&#45;&gt;Node2 -->
<g id="edge1" class="edge"><title>Node1&#45;&gt;Node2</title>
<path fill="none" stroke="midnightblue" d="M56.2297,-112.083C50.4384,-104.455 41.9415,-93.2645 34.8625,-83.9408"/>
<polygon fill="midnightblue" stroke="midnightblue" points="37.479,-81.5991 28.6443,-75.7511 31.9039,-85.8321 37.479,-81.5991"/>
</g>
<!-- Node4 -->
<g id="node4" class="node"><title>Node4</title>
<polygon fill="white" stroke="#bfbfbf" points="61,-56.5 61,-75.5 147,-75.5 147,-56.5 61,-56.5"/>
<text text-anchor="middle" x="104" y="-63.5" font-family="Helvetica,sans-Serif" font-size="10.00">boost/predef.h</text>
</g>
<!-- Node1&#45;&gt;Node4 -->
<g id="edge3" class="edge"><title>Node1&#45;&gt;Node4</title>
<path fill="none" stroke="midnightblue" d="M69.7703,-112.083C75.5616,-104.455 84.0585,-93.2645 91.1375,-83.9408"/>
<polygon fill="midnightblue" stroke="midnightblue" points="94.0961,-85.8321 97.3557,-75.7511 88.521,-81.5991 94.0961,-85.8321"/>
</g>
<!-- Node3 -->
<g id="node3" class="node"><title>Node3</title>
<polygon fill="white" stroke="#bfbfbf" points="-3.55271e-15,-0.5 -3.55271e-15,-19.5 44,-19.5 44,-0.5 -3.55271e-15,-0.5"/>
<text text-anchor="middle" x="22" y="-7.5" font-family="Helvetica,sans-Serif" font-size="10.00">string</text>
</g>
<!-- Node2&#45;&gt;Node3 -->
<g id="edge2" class="edge"><title>Node2&#45;&gt;Node3</title>
<path fill="none" stroke="midnightblue" d="M22,-56.083C22,-49.0059 22,-38.8611 22,-29.9865"/>
<polygon fill="midnightblue" stroke="midnightblue" points="25.5001,-29.751 22,-19.7511 18.5001,-29.7511 25.5001,-29.751"/>
</g>
</g>
</svg>
