<?xml version="1.0" encoding="UTF-8" standalone="no"?>
<!DOCTYPE svg PUBLIC "-//W3C//DTD SVG 1.1//EN"
 "http://www.w3.org/Graphics/SVG/1.1/DTD/svg11.dtd">
<!-- Generated by graphviz version 2.38.0 (20140413.2041)
 -->
<!-- Title: event.h Pages: 1 -->
<!--zoomable 364 -->
<svg id="main" version="1.1" xmlns="http://www.w3.org/2000/svg" xmlns:xlink="http://www.w3.org/1999/xlink" xml:space="preserve" onload="init(evt)">
<style type="text/css"><![CDATA[
.edge:hover path { stroke: red; }
.edge:hover polygon { stroke: red; fill: red; }
]]></style>
<script type="text/javascript"><![CDATA[
var edges = document.getElementsByTagName('g');
if (edges && edges.length) {
  for (var i=0;i<edges.length;i++) {
    if (edges[i].id.substr(0,4)=='edge') {
      edges[i].setAttribute('class','edge');
    }
  }
}
]]></script>
        <defs>
                <circle id="rim" cx="0" cy="0" r="7"/>
                <circle id="rim2" cx="0" cy="0" r="3.5"/>
                <g id="zoomPlus">
                        <use xlink:href="#rim" fill="#404040">
                                <set attributeName="fill" to="#808080" begin="zoomplus.mouseover" end="zoomplus.mouseout"/>
                        </use>
                        <path d="M-4,0h8M0,-4v8" fill="none" stroke="white" stroke-width="1.5" pointer-events="none"/>
                </g>
                <g id="zoomMin">
                        <use xlink:href="#rim" fill="#404040">
                                <set attributeName="fill" to="#808080" begin="zoomminus.mouseover" end="zoomminus.mouseout"/>
                        </use>
                        <path d="M-4,0h8" fill="none" stroke="white" stroke-width="1.5" pointer-events="none"/>
                </g>
                <g id="dirArrow">
                        <path fill="none" stroke="white" stroke-width="1.5" d="M0,-3.0v7 M-2.5,-0.5L0,-3.0L2.5,-0.5"/>
                </g>
               <g id="resetDef">
                       <use xlink:href="#rim2" fill="#404040">
                               <set attributeName="fill" to="#808080" begin="reset.mouseover" end="reset.mouseout"/>
                       </use>
               </g>
        </defs>

<script type="text/javascript">
var viewWidth = 1623;
var viewHeight = 364;
var sectionId = 'dynsection-1';
</script>
<script xlink:href="svgpan.js"/>
<svg id="graph" class="graph">
<g id="viewport">
<title>event.h</title>
<polygon fill="white" stroke="none" points="-4,4 -4,-360 1619,-360 1619,4 -4,4"/>
<!-- Node1 -->
<g id="node1" class="node"><title>Node1</title>
<polygon fill="#bfbfbf" stroke="black" points="802.5,-336.5 802.5,-355.5 855.5,-355.5 855.5,-336.5 802.5,-336.5"/>
<text text-anchor="middle" x="829" y="-343.5" font-family="Helvetica,sans-Serif" font-size="10.00">event.h</text>
</g>
<!-- Node2 -->
<g id="node2" class="node"><title>Node2</title>
<g id="a_node2"><a xlink:href="ccf__group_8h.xhtml" target="_top" xlink:title="Functional containers for basic events grouped by common cause failure. ">
<polygon fill="white" stroke="black" points="231,-280.5 231,-299.5 303,-299.5 303,-280.5 231,-280.5"/>
<text text-anchor="middle" x="267" y="-287.5" font-family="Helvetica,sans-Serif" font-size="10.00">ccf_group.h</text>
</a>
</g>
</g>
<!-- Node1&#45;&gt;Node2 -->
<g id="edge1" class="edge"><title>Node1&#45;&gt;Node2</title>
<path fill="none" stroke="midnightblue" d="M792.132,-341.458C689.973,-331.642 404.14,-304.177 303.013,-294.46"/>
<polygon fill="midnightblue" stroke="midnightblue" points="791.983,-344.959 802.272,-342.432 792.652,-337.991 791.983,-344.959"/>
</g>
<!-- Node4 -->
<g id="node4" class="node"><title>Node4</title>
<g id="a_node4"><a xlink:href="fault__tree_8h.xhtml" target="_top" xlink:title="Fault Tree and Component containers. ">
<polygon fill="white" stroke="black" points="354.5,-224.5 354.5,-243.5 425.5,-243.5 425.5,-224.5 354.5,-224.5"/>
<text text-anchor="middle" x="390" y="-231.5" font-family="Helvetica,sans-Serif" font-size="10.00">fault_tree.h</text>
</a>
</g>
</g>
<!-- Node1&#45;&gt;Node4 -->
<g id="edge38" class="edge"><title>Node1&#45;&gt;Node4</title>
<path fill="none" stroke="midnightblue" d="M792.391,-335.827C708.854,-314.895 505.149,-263.853 424.089,-243.542"/>
<polygon fill="midnightblue" stroke="midnightblue" points="791.649,-339.249 802.199,-338.285 793.35,-332.459 791.649,-339.249"/>
</g>
<!-- Node6 -->
<g id="node6" class="node"><title>Node6</title>
<g id="a_node6"><a xlink:href="initializer_8h.xhtml" target="_top" xlink:title="A facility that processes input files into analysis constructs. ">
<polygon fill="white" stroke="black" points="453.5,-112.5 453.5,-131.5 520.5,-131.5 520.5,-112.5 453.5,-112.5"/>
<text text-anchor="middle" x="487" y="-119.5" font-family="Helvetica,sans-Serif" font-size="10.00">initializer.h</text>
</a>
</g>
</g>
<!-- Node1&#45;&gt;Node6 -->
<g id="edge41" class="edge"><title>Node1&#45;&gt;Node6</title>
<path fill="none" stroke="midnightblue" d="M831.1,-326.213C834.018,-289.82 834.638,-209.642 790,-168 770.483,-149.794 595.25,-132.469 520.521,-125.839"/>
<polygon fill="midnightblue" stroke="midnightblue" points="827.595,-326.097 830.126,-336.385 834.563,-326.764 827.595,-326.097"/>
</g>
<!-- Node9 -->
<g id="node9" class="node"><title>Node9</title>
<g id="a_node9"><a xlink:href="model_8h.xhtml" target="_top" xlink:title="Representation for a model container for risk analysis. ">
<polygon fill="white" stroke="black" points="202,-168.5 202,-187.5 258,-187.5 258,-168.5 202,-168.5"/>
<text text-anchor="middle" x="230" y="-175.5" font-family="Helvetica,sans-Serif" font-size="10.00">model.h</text>
</a>
</g>
</g>
<!-- Node1&#45;&gt;Node9 -->
<g id="edge42" class="edge"><title>Node1&#45;&gt;Node9</title>
<path fill="none" stroke="midnightblue" d="M792.191,-344.591C677.649,-342.956 328.831,-335.143 222,-300 172.59,-283.746 105.009,-267.842 133,-224 147.985,-200.529 178.712,-189.114 201.588,-183.684"/>
<polygon fill="midnightblue" stroke="midnightblue" points="792.172,-348.091 802.219,-344.727 792.267,-341.092 792.172,-348.091"/>
</g>
<!-- Node11 -->
<g id="node11" class="node"><title>Node11</title>
<g id="a_node11"><a xlink:href="reporter_8h.xhtml" target="_top" xlink:title="Reporter of results. ">
<polygon fill="white" stroke="black" points="94,-56.5 94,-75.5 158,-75.5 158,-56.5 94,-56.5"/>
<text text-anchor="middle" x="126" y="-63.5" font-family="Helvetica,sans-Serif" font-size="10.00">reporter.h</text>
</a>
</g>
</g>
<!-- Node1&#45;&gt;Node11 -->
<g id="edge45" class="edge"><title>Node1&#45;&gt;Node11</title>
<path fill="none" stroke="midnightblue" d="M792.036,-344.515C666.655,-342.574 258.355,-333.751 132,-300 68.8213,-283.124 0,-300.394 0,-235 0,-235 0,-235 0,-177 0,-123.57 65.0918,-90.1192 101.706,-75.5298"/>
<polygon fill="midnightblue" stroke="midnightblue" points="792.212,-348.018 802.264,-344.668 792.317,-341.019 792.212,-348.018"/>
</g>
<!-- Node13 -->
<g id="node13" class="node"><title>Node13</title>
<g id="a_node13"><a xlink:href="risk__analysis_8h.xhtml" target="_top" xlink:title="Contains the main system for performing analysis. ">
<polygon fill="white" stroke="black" points="132,-112.5 132,-131.5 218,-131.5 218,-112.5 132,-112.5"/>
<text text-anchor="middle" x="175" y="-119.5" font-family="Helvetica,sans-Serif" font-size="10.00">risk_analysis.h</text>
</a>
</g>
</g>
<!-- Node1&#45;&gt;Node13 -->
<g id="edge46" class="edge"><title>Node1&#45;&gt;Node13</title>
<path fill="none" stroke="midnightblue" d="M792.202,-344.365C660.421,-341.841 216.953,-331.094 162,-300 128.957,-281.303 114.059,-260.898 123,-224 131.964,-187.007 156.967,-148.386 168.731,-131.619"/>
<polygon fill="midnightblue" stroke="midnightblue" points="792.144,-347.865 802.208,-344.552 792.275,-340.866 792.144,-347.865"/>
</g>
<!-- Node16 -->
<g id="node16" class="node"><title>Node16</title>
<g id="a_node16"><a xlink:href="serialization_8cc.xhtml" target="_top" xlink:title="serialization.cc">
<polygon fill="white" stroke="black" points="505.5,-56.5 505.5,-75.5 592.5,-75.5 592.5,-56.5 505.5,-56.5"/>
<text text-anchor="middle" x="549" y="-63.5" font-family="Helvetica,sans-Serif" font-size="10.00">serialization.cc</text>
</a>
</g>
</g>
<!-- Node1&#45;&gt;Node16 -->
<g id="edge47" class="edge"><title>Node1&#45;&gt;Node16</title>
<path fill="none" stroke="midnightblue" d="M844.542,-328.823C873.511,-296.634 929.96,-222.934 897,-168 869.789,-122.648 841.922,-129.465 792,-112 724.571,-88.4104 642.061,-76.4704 592.611,-71.0049"/>
<polygon fill="midnightblue" stroke="midnightblue" points="841.74,-326.697 837.518,-336.415 846.878,-331.452 841.74,-326.697"/>
</g>
<!-- Node17 -->
<g id="node17" class="node"><title>Node17</title>
<g id="a_node17"><a xlink:href="cycle_8h.xhtml" target="_top" xlink:title="Validation facilities to detect and print cycles in graphs. ">
<polygon fill="white" stroke="black" points="838,-168.5 838,-187.5 888,-187.5 888,-168.5 838,-168.5"/>
<text text-anchor="middle" x="863" y="-175.5" font-family="Helvetica,sans-Serif" font-size="10.00">cycle.h</text>
</a>
</g>
</g>
<!-- Node1&#45;&gt;Node17 -->
<g id="edge26" class="edge"><title>Node1&#45;&gt;Node17</title>
<path fill="none" stroke="midnightblue" d="M832.906,-325.93C840.281,-289.92 855.989,-213.231 861.245,-187.568"/>
<polygon fill="midnightblue" stroke="midnightblue" points="829.406,-325.576 830.828,-336.075 836.263,-326.981 829.406,-325.576"/>
</g>
<!-- Node18 -->
<g id="node18" class="node"><title>Node18</title>
<g id="a_node18"><a xlink:href="event__tree_8h.xhtml" target="_top" xlink:title="Event Tree facilities. ">
<polygon fill="white" stroke="black" points="595.5,-224.5 595.5,-243.5 672.5,-243.5 672.5,-224.5 595.5,-224.5"/>
<text text-anchor="middle" x="634" y="-231.5" font-family="Helvetica,sans-Serif" font-size="10.00">event_tree.h</text>
</a>
</g>
</g>
<!-- Node1&#45;&gt;Node18 -->
<g id="edge28" class="edge"><title>Node1&#45;&gt;Node18</title>
<path fill="none" stroke="midnightblue" d="M798.834,-332.413C779.387,-323.958 753.76,-312.172 732,-300 699.571,-281.86 663.72,-256.66 645.703,-243.607"/>
<polygon fill="midnightblue" stroke="midnightblue" points="797.543,-335.668 808.113,-336.399 800.306,-329.236 797.543,-335.668"/>
</g>
<!-- Node20 -->
<g id="node20" class="node"><title>Node20</title>
<g id="a_node20"><a xlink:href="event__tree__analysis_8h.xhtml" target="_top" xlink:title="Event tree analysis facilities. ">
<polygon fill="white" stroke="black" points="660.5,-168.5 660.5,-187.5 781.5,-187.5 781.5,-168.5 660.5,-168.5"/>
<text text-anchor="middle" x="721" y="-175.5" font-family="Helvetica,sans-Serif" font-size="10.00">event_tree_analysis.h</text>
</a>
</g>
</g>
<!-- Node1&#45;&gt;Node20 -->
<g id="edge37" class="edge"><title>Node1&#45;&gt;Node20</title>
<path fill="none" stroke="midnightblue" d="M816.067,-328.022C809.844,-319.689 802.369,-309.435 796,-300 768.204,-258.827 737.821,-207.715 726.049,-187.654"/>
<polygon fill="midnightblue" stroke="midnightblue" points="813.403,-330.303 822.218,-336.182 818.993,-326.089 813.403,-330.303"/>
</g>
<!-- Node22 -->
<g id="node22" class="node"><title>Node22</title>
<g id="a_node22"><a xlink:href="event_8cc.xhtml" target="_top" xlink:title="Implementation of Event Class and its derived classes. ">
<polygon fill="white" stroke="black" points="914.5,-280.5 914.5,-299.5 971.5,-299.5 971.5,-280.5 914.5,-280.5"/>
<text text-anchor="middle" x="943" y="-287.5" font-family="Helvetica,sans-Serif" font-size="10.00">event.cc</text>
</a>
</g>
</g>
<!-- Node1&#45;&gt;Node22 -->
<g id="edge36" class="edge"><title>Node1&#45;&gt;Node22</title>
<path fill="none" stroke="midnightblue" d="M856.242,-332.096C877.54,-322.007 906.542,-308.27 925.021,-299.516"/>
<polygon fill="midnightblue" stroke="midnightblue" points="854.603,-329 847.064,-336.444 857.599,-335.326 854.603,-329"/>
</g>
<!-- Node23 -->
<g id="node23" class="node"><title>Node23</title>
<g id="a_node23"><a xlink:href="fault__tree__analysis_8cc.xhtml" target="_top" xlink:title="Implementation of fault tree analysis. ">
<polygon fill="white" stroke="black" points="989.5,-280.5 989.5,-299.5 1108.5,-299.5 1108.5,-280.5 989.5,-280.5"/>
<text text-anchor="middle" x="1049" y="-287.5" font-family="Helvetica,sans-Serif" font-size="10.00">fault_tree_analysis.cc</text>
</a>
</g>
</g>
<!-- Node1&#45;&gt;Node23 -->
<g id="edge39" class="edge"><title>Node1&#45;&gt;Node23</title>
<path fill="none" stroke="midnightblue" d="M865.443,-336.055C906.688,-325.931 973.402,-309.556 1014.03,-299.584"/>
<polygon fill="midnightblue" stroke="midnightblue" points="864.415,-332.703 855.537,-338.486 866.083,-339.502 864.415,-332.703"/>
</g>
<!-- Node24 -->
<g id="node24" class="node"><title>Node24</title>
<g id="a_node24"><a xlink:href="importance__analysis_8cc.xhtml" target="_top" xlink:title="Implementations of functions to provide quantitative importance informations. ">
<polygon fill="white" stroke="black" points="1127,-280.5 1127,-299.5 1255,-299.5 1255,-280.5 1127,-280.5"/>
<text text-anchor="middle" x="1191" y="-287.5" font-family="Helvetica,sans-Serif" font-size="10.00">importance_analysis.cc</text>
</a>
</g>
</g>
<!-- Node1&#45;&gt;Node24 -->
<g id="edge40" class="edge"><title>Node1&#45;&gt;Node24</title>
<path fill="none" stroke="midnightblue" d="M865.517,-339.553C928.626,-330.139 1058.55,-310.758 1133.76,-299.539"/>
<polygon fill="midnightblue" stroke="midnightblue" points="864.993,-336.092 855.619,-341.029 866.026,-343.015 864.993,-336.092"/>
</g>
<!-- Node25 -->
<g id="node25" class="node"><title>Node25</title>
<g id="a_node25"><a xlink:href="pdag_8cc.xhtml" target="_top" xlink:title="Implementation of a Propositional Directed Acyclic Graph with indexed nodes, variables, and gates. ">
<polygon fill="white" stroke="black" points="1273,-280.5 1273,-299.5 1327,-299.5 1327,-280.5 1273,-280.5"/>
<text text-anchor="middle" x="1300" y="-287.5" font-family="Helvetica,sans-Serif" font-size="10.00">pdag.cc</text>
</a>
</g>
</g>
<!-- Node1&#45;&gt;Node25 -->
<g id="edge43" class="edge"><title>Node1&#45;&gt;Node25</title>
<path fill="none" stroke="midnightblue" d="M866.034,-342.947C941.411,-338.377 1117.89,-325.687 1264,-300 1266.92,-299.487 1269.95,-298.868 1272.96,-298.197"/>
<polygon fill="midnightblue" stroke="midnightblue" points="865.437,-339.476 855.663,-343.563 865.852,-346.464 865.437,-339.476"/>
</g>
<!-- Node26 -->
<g id="node26" class="node"><title>Node26</title>
<g id="a_node26"><a xlink:href="probability__analysis_8cc.xhtml" target="_top" xlink:title="Implementations of functions to provide probability analysis. ">
<polygon fill="white" stroke="black" points="1345.5,-280.5 1345.5,-299.5 1468.5,-299.5 1468.5,-280.5 1345.5,-280.5"/>
<text text-anchor="middle" x="1407" y="-287.5" font-family="Helvetica,sans-Serif" font-size="10.00">probability_analysis.cc</text>
</a>
</g>
</g>
<!-- Node1&#45;&gt;Node26 -->
<g id="edge44" class="edge"><title>Node1&#45;&gt;Node26</title>
<path fill="none" stroke="midnightblue" d="M865.707,-342.218C949.28,-335.779 1160.12,-318.946 1336,-300 1339.09,-299.667 1342.25,-299.314 1345.44,-298.947"/>
<polygon fill="midnightblue" stroke="midnightblue" points="865.398,-338.731 855.695,-342.986 865.934,-345.71 865.398,-338.731"/>
</g>
<!-- Node27 -->
<g id="node27" class="node"><title>Node27</title>
<g id="a_node27"><a xlink:href="uncertainty__analysis_8cc.xhtml" target="_top" xlink:title="Implements the functionality to run Monte Carlo simulations. ">
<polygon fill="white" stroke="black" points="1487,-280.5 1487,-299.5 1615,-299.5 1615,-280.5 1487,-280.5"/>
<text text-anchor="middle" x="1551" y="-287.5" font-family="Helvetica,sans-Serif" font-size="10.00">uncertainty_analysis.cc</text>
</a>
</g>
</g>
<!-- Node1&#45;&gt;Node27 -->
<g id="edge48" class="edge"><title>Node1&#45;&gt;Node27</title>
<path fill="none" stroke="midnightblue" d="M865.71,-343.144C964.692,-337.99 1245.33,-322.393 1478,-300 1480.92,-299.719 1483.91,-299.415 1486.93,-299.096"/>
<polygon fill="midnightblue" stroke="midnightblue" points="865.43,-339.654 855.624,-343.665 865.792,-346.644 865.43,-339.654"/>
</g>
<!-- Node3 -->
<g id="node3" class="node"><title>Node3</title>
<g id="a_node3"><a xlink:href="ccf__group_8cc.xhtml" target="_top" xlink:title="Implementation of various common cause failure models. ">
<polygon fill="white" stroke="black" points="142.5,-224.5 142.5,-243.5 219.5,-243.5 219.5,-224.5 142.5,-224.5"/>
<text text-anchor="middle" x="181" y="-231.5" font-family="Helvetica,sans-Serif" font-size="10.00">ccf_group.cc</text>
</a>
</g>
</g>
<!-- Node2&#45;&gt;Node3 -->
<g id="edge2" class="edge"><title>Node2&#45;&gt;Node3</title>
<path fill="none" stroke="midnightblue" d="M244.545,-274.901C228.776,-264.999 208.186,-252.071 194.783,-243.655"/>
<polygon fill="midnightblue" stroke="midnightblue" points="242.852,-277.97 253.183,-280.324 246.575,-272.042 242.852,-277.97"/>
</g>
<!-- Node2&#45;&gt;Node4 -->
<g id="edge3" class="edge"><title>Node2&#45;&gt;Node4</title>
<path fill="none" stroke="midnightblue" d="M295.773,-276.368C318.807,-266.255 350.484,-252.349 370.601,-243.516"/>
<polygon fill="midnightblue" stroke="midnightblue" points="294.239,-273.219 286.49,-280.444 297.053,-279.628 294.239,-273.219"/>
</g>
<!-- Node2&#45;&gt;Node6 -->
<g id="edge23" class="edge"><title>Node2&#45;&gt;Node6</title>
<path fill="none" stroke="midnightblue" d="M273.734,-270.622C284.379,-244.096 307.593,-195.278 343,-168 360.325,-154.653 416.326,-139.57 453.17,-130.695"/>
<polygon fill="midnightblue" stroke="midnightblue" points="270.372,-269.612 270.051,-280.202 276.906,-272.124 270.372,-269.612"/>
</g>
<!-- Node2&#45;&gt;Node9 -->
<g id="edge24" class="edge"><title>Node2&#45;&gt;Node9</title>
<path fill="none" stroke="midnightblue" d="M260.836,-270.674C252.747,-246.625 238.876,-205.388 232.89,-187.591"/>
<polygon fill="midnightblue" stroke="midnightblue" points="257.591,-272.006 264.097,-280.368 264.226,-269.774 257.591,-272.006"/>
</g>
<!-- Node12 -->
<g id="node12" class="node"><title>Node12</title>
<g id="a_node12"><a xlink:href="reporter_8cc.xhtml" target="_top" xlink:title="Implements Reporter class. ">
<polygon fill="white" stroke="black" points="81,-0.5 81,-19.5 149,-19.5 149,-0.5 81,-0.5"/>
<text text-anchor="middle" x="115" y="-7.5" font-family="Helvetica,sans-Serif" font-size="10.00">reporter.cc</text>
</a>
</g>
</g>
<!-- Node2&#45;&gt;Node12 -->
<g id="edge25" class="edge"><title>Node2&#45;&gt;Node12</title>
<path fill="none" stroke="midnightblue" d="M220.876,-284.408C191.937,-279.172 155.898,-267.969 133,-244 79.3586,-187.85 95.7708,-152.904 85,-76 83.7671,-67.197 82.4241,-64.5075 85,-56 89.2446,-41.9809 99.4563,-28.3374 106.786,-19.8175"/>
<polygon fill="midnightblue" stroke="midnightblue" points="220.35,-287.868 230.783,-286.022 221.476,-280.959 220.35,-287.868"/>
</g>
<!-- Node5 -->
<g id="node5" class="node"><title>Node5</title>
<g id="a_node5"><a xlink:href="fault__tree_8cc.xhtml" target="_top" xlink:title="Implementation of fault tree and component containers. ">
<polygon fill="white" stroke="black" points="352,-168.5 352,-187.5 428,-187.5 428,-168.5 352,-168.5"/>
<text text-anchor="middle" x="390" y="-175.5" font-family="Helvetica,sans-Serif" font-size="10.00">fault_tree.cc</text>
</a>
</g>
</g>
<!-- Node4&#45;&gt;Node5 -->
<g id="edge4" class="edge"><title>Node4&#45;&gt;Node5</title>
<path fill="none" stroke="midnightblue" d="M390,-213.805C390,-204.91 390,-194.78 390,-187.751"/>
<polygon fill="midnightblue" stroke="midnightblue" points="386.5,-214.083 390,-224.083 393.5,-214.083 386.5,-214.083"/>
</g>
<!-- Node4&#45;&gt;Node6 -->
<g id="edge5" class="edge"><title>Node4&#45;&gt;Node6</title>
<path fill="none" stroke="midnightblue" d="M407.194,-217.71C416.37,-209.265 427.663,-198.404 437,-188 454.117,-168.928 471.882,-144.541 480.922,-131.742"/>
<polygon fill="midnightblue" stroke="midnightblue" points="404.833,-215.126 399.778,-224.437 409.536,-220.311 404.833,-215.126"/>
</g>
<!-- Node4&#45;&gt;Node9 -->
<g id="edge8" class="edge"><title>Node4&#45;&gt;Node9</title>
<path fill="none" stroke="midnightblue" d="M354.954,-221.172C324.826,-211.004 282.104,-196.585 255.234,-187.516"/>
<polygon fill="midnightblue" stroke="midnightblue" points="354.053,-224.562 364.648,-224.444 356.292,-217.929 354.053,-224.562"/>
</g>
<!-- Node14 -->
<g id="node14" class="node"><title>Node14</title>
<g id="a_node14"><a xlink:href="risk__analysis_8cc.xhtml" target="_top" xlink:title="Implementation of risk analysis handler. ">
<polygon fill="white" stroke="black" points="238,-56.5 238,-75.5 328,-75.5 328,-56.5 238,-56.5"/>
<text text-anchor="middle" x="283" y="-63.5" font-family="Helvetica,sans-Serif" font-size="10.00">risk_analysis.cc</text>
</a>
</g>
</g>
<!-- Node4&#45;&gt;Node14 -->
<g id="edge21" class="edge"><title>Node4&#45;&gt;Node14</title>
<path fill="none" stroke="midnightblue" d="M371.248,-217.776C361.975,-209.61 351.071,-198.984 343,-188 341.152,-185.485 300.842,-103.39 287.353,-75.8818"/>
<polygon fill="midnightblue" stroke="midnightblue" points="368.983,-220.444 378.865,-224.266 373.523,-215.116 368.983,-220.444"/>
</g>
<!-- Node4&#45;&gt;Node16 -->
<g id="edge22" class="edge"><title>Node4&#45;&gt;Node16</title>
<path fill="none" stroke="midnightblue" d="M418.704,-219.729C450.52,-203.53 501.026,-173.13 529,-132 541.085,-114.232 546.095,-88.8747 547.982,-75.6998"/>
<polygon fill="midnightblue" stroke="midnightblue" points="416.885,-216.723 409.475,-224.296 419.99,-222.997 416.885,-216.723"/>
</g>
<!-- Node7 -->
<g id="node7" class="node"><title>Node7</title>
<g id="a_node7"><a xlink:href="initializer_8cc.xhtml" target="_top" xlink:title="Implementation of input file processing into analysis constructs. ">
<polygon fill="white" stroke="black" points="764.5,-56.5 764.5,-75.5 835.5,-75.5 835.5,-56.5 764.5,-56.5"/>
<text text-anchor="middle" x="800" y="-63.5" font-family="Helvetica,sans-Serif" font-size="10.00">initializer.cc</text>
</a>
</g>
</g>
<!-- Node6&#45;&gt;Node7 -->
<g id="edge6" class="edge"><title>Node6&#45;&gt;Node7</title>
<path fill="none" stroke="midnightblue" d="M530.734,-113.455C593.21,-102.676 706.808,-83.0778 764.432,-73.1363"/>
<polygon fill="midnightblue" stroke="midnightblue" points="530.053,-110.02 520.794,-115.17 531.243,-116.919 530.053,-110.02"/>
</g>
<!-- Node8 -->
<g id="node8" class="node"><title>Node8</title>
<g id="a_node8"><a xlink:href="scram_8cc.xhtml" target="_top" xlink:title="Main entrance. ">
<polygon fill="white" stroke="black" points="173,-0.5 173,-19.5 233,-19.5 233,-0.5 173,-0.5"/>
<text text-anchor="middle" x="203" y="-7.5" font-family="Helvetica,sans-Serif" font-size="10.00">scram.cc</text>
</a>
</g>
</g>
<!-- Node6&#45;&gt;Node8 -->
<g id="edge7" class="edge"><title>Node6&#45;&gt;Node8</title>
<path fill="none" stroke="midnightblue" d="M464.119,-107.146C439.742,-92.8344 399.688,-70.5895 363,-56 319.026,-38.5133 265.73,-24.9634 233.102,-17.4828"/>
<polygon fill="midnightblue" stroke="midnightblue" points="462.568,-110.295 472.953,-112.389 466.14,-104.275 462.568,-110.295"/>
</g>
<!-- Node9&#45;&gt;Node6 -->
<g id="edge9" class="edge"><title>Node9&#45;&gt;Node6</title>
<path fill="none" stroke="midnightblue" d="M268.128,-168.822C269.434,-168.544 270.728,-168.269 272,-168 280.861,-166.123 395,-142.244 453.264,-130.057"/>
<polygon fill="midnightblue" stroke="midnightblue" points="267.061,-165.47 258.01,-170.978 268.52,-172.316 267.061,-165.47"/>
</g>
<!-- Node10 -->
<g id="node10" class="node"><title>Node10</title>
<g id="a_node10"><a xlink:href="model_8cc.xhtml" target="_top" xlink:title="Implementation of functions in Model class. ">
<polygon fill="white" stroke="black" points="236,-112.5 236,-131.5 296,-131.5 296,-112.5 236,-112.5"/>
<text text-anchor="middle" x="266" y="-119.5" font-family="Helvetica,sans-Serif" font-size="10.00">model.cc</text>
</a>
</g>
</g>
<!-- Node9&#45;&gt;Node10 -->
<g id="edge10" class="edge"><title>Node9&#45;&gt;Node10</title>
<path fill="none" stroke="midnightblue" d="M241.623,-159.566C247.817,-150.275 255.168,-139.248 260.166,-131.751"/>
<polygon fill="midnightblue" stroke="midnightblue" points="238.58,-157.821 235.945,-168.083 244.404,-161.704 238.58,-157.821"/>
</g>
<!-- Node9&#45;&gt;Node11 -->
<g id="edge11" class="edge"><title>Node9&#45;&gt;Node11</title>
<path fill="none" stroke="midnightblue" d="M191.771,-171.716C167.631,-166.185 138.221,-154.913 123,-132 111.624,-114.874 117.939,-89.246 122.541,-75.8608"/>
<polygon fill="midnightblue" stroke="midnightblue" points="191.239,-175.18 201.738,-173.752 192.64,-168.322 191.239,-175.18"/>
</g>
<!-- Node9&#45;&gt;Node13 -->
<g id="edge14" class="edge"><title>Node9&#45;&gt;Node13</title>
<path fill="none" stroke="midnightblue" d="M213.706,-161.002C203.959,-151.433 191.947,-139.639 183.913,-131.751"/>
<polygon fill="midnightblue" stroke="midnightblue" points="211.33,-163.575 220.918,-168.083 216.234,-158.58 211.33,-163.575"/>
</g>
<!-- Node15 -->
<g id="node15" class="node"><title>Node15</title>
<g id="a_node15"><a xlink:href="serialization_8h.xhtml" target="_top" xlink:title="The MEF Model serialization facilities. ">
<polygon fill="white" stroke="black" points="352.5,-112.5 352.5,-131.5 435.5,-131.5 435.5,-112.5 352.5,-112.5"/>
<text text-anchor="middle" x="394" y="-119.5" font-family="Helvetica,sans-Serif" font-size="10.00">serialization.h</text>
</a>
</g>
</g>
<!-- Node9&#45;&gt;Node15 -->
<g id="edge18" class="edge"><title>Node9&#45;&gt;Node15</title>
<path fill="none" stroke="midnightblue" d="M265.52,-165.304C296.422,-155.129 340.473,-140.625 368.135,-131.516"/>
<polygon fill="midnightblue" stroke="midnightblue" points="264.39,-161.992 255.986,-168.444 266.579,-168.64 264.39,-161.992"/>
</g>
<!-- Node11&#45;&gt;Node8 -->
<g id="edge13" class="edge"><title>Node11&#45;&gt;Node8</title>
<path fill="none" stroke="midnightblue" d="M146.901,-50.3422C160.911,-40.5169 178.883,-27.9132 190.659,-19.6545"/>
<polygon fill="midnightblue" stroke="midnightblue" points="144.549,-47.7166 138.371,-56.324 148.568,-53.4477 144.549,-47.7166"/>
</g>
<!-- Node11&#45;&gt;Node12 -->
<g id="edge12" class="edge"><title>Node11&#45;&gt;Node12</title>
<path fill="none" stroke="midnightblue" d="M122.15,-46.1005C120.324,-37.1357 118.23,-26.8579 116.783,-19.7511"/>
<polygon fill="midnightblue" stroke="midnightblue" points="118.758,-46.9829 124.184,-56.083 125.617,-45.5856 118.758,-46.9829"/>
</g>
<!-- Node13&#45;&gt;Node8 -->
<g id="edge17" class="edge"><title>Node13&#45;&gt;Node8</title>
<path fill="none" stroke="midnightblue" d="M179.665,-102.674C185.786,-78.6248 196.283,-37.3881 200.813,-19.5914"/>
<polygon fill="midnightblue" stroke="midnightblue" points="176.272,-101.814 177.197,-112.368 183.056,-103.541 176.272,-101.814"/>
</g>
<!-- Node13&#45;&gt;Node11 -->
<g id="edge15" class="edge"><title>Node13&#45;&gt;Node11</title>
<path fill="none" stroke="midnightblue" d="M159.966,-104.431C151.378,-94.9673 140.957,-83.4827 133.941,-75.7511"/>
<polygon fill="midnightblue" stroke="midnightblue" points="157.597,-107.029 166.909,-112.083 162.781,-102.325 157.597,-107.029"/>
</g>
<!-- Node13&#45;&gt;Node14 -->
<g id="edge16" class="edge"><title>Node13&#45;&gt;Node14</title>
<path fill="none" stroke="midnightblue" d="M201.548,-107.726C221.546,-97.7271 248.387,-84.3065 265.691,-75.6545"/>
<polygon fill="midnightblue" stroke="midnightblue" points="199.731,-104.721 192.352,-112.324 202.862,-110.982 199.731,-104.721"/>
</g>
<!-- Node15&#45;&gt;Node8 -->
<g id="edge19" class="edge"><title>Node15&#45;&gt;Node8</title>
<path fill="none" stroke="midnightblue" d="M382.607,-103.487C372.292,-88.9015 355.857,-68.5556 337,-56 304.93,-34.6463 261.797,-22.5591 233.232,-16.4039"/>
<polygon fill="midnightblue" stroke="midnightblue" points="379.947,-105.799 388.465,-112.1 385.735,-101.862 379.947,-105.799"/>
</g>
<!-- Node15&#45;&gt;Node16 -->
<g id="edge20" class="edge"><title>Node15&#45;&gt;Node16</title>
<path fill="none" stroke="midnightblue" d="M428.332,-109.039C457.497,-98.8786 498.637,-84.5457 524.555,-75.5164"/>
<polygon fill="midnightblue" stroke="midnightblue" points="426.852,-105.848 418.56,-112.444 429.155,-112.459 426.852,-105.848"/>
</g>
<!-- Node17&#45;&gt;Node7 -->
<g id="edge27" class="edge"><title>Node17&#45;&gt;Node7</title>
<path fill="none" stroke="midnightblue" d="M853.057,-159.64C839.371,-135.744 815.251,-93.6286 804.921,-75.5914"/>
<polygon fill="midnightblue" stroke="midnightblue" points="850.049,-161.43 858.056,-168.368 856.124,-157.951 850.049,-161.43"/>
</g>
<!-- Node18&#45;&gt;Node6 -->
<g id="edge34" class="edge"><title>Node18&#45;&gt;Node6</title>
<path fill="none" stroke="midnightblue" d="M605.359,-220.099C588.754,-211.992 567.862,-200.686 551,-188 527.967,-170.672 505.337,-145.129 494.178,-131.81"/>
<polygon fill="midnightblue" stroke="midnightblue" points="604.044,-223.349 614.578,-224.489 607.054,-217.029 604.044,-223.349"/>
</g>
<!-- Node18&#45;&gt;Node9 -->
<g id="edge35" class="edge"><title>Node18&#45;&gt;Node9</title>
<path fill="none" stroke="midnightblue" d="M585.308,-226.492C499.971,-215.085 326.013,-191.833 258.073,-182.752"/>
<polygon fill="midnightblue" stroke="midnightblue" points="584.887,-229.966 595.263,-227.822 585.815,-223.028 584.887,-229.966"/>
</g>
<!-- Node18&#45;&gt;Node17 -->
<g id="edge29" class="edge"><title>Node18&#45;&gt;Node17</title>
<path fill="none" stroke="midnightblue" d="M680.027,-222.146C727.548,-210.941 799.939,-193.87 837.849,-184.931"/>
<polygon fill="midnightblue" stroke="midnightblue" points="679.215,-218.742 670.286,-224.444 680.822,-225.555 679.215,-218.742"/>
</g>
<!-- Node19 -->
<g id="node19" class="node"><title>Node19</title>
<g id="a_node19"><a xlink:href="event__tree_8cc.xhtml" target="_top" xlink:title="Implementation of event tree facilities. ">
<polygon fill="white" stroke="black" points="560,-168.5 560,-187.5 642,-187.5 642,-168.5 560,-168.5"/>
<text text-anchor="middle" x="601" y="-175.5" font-family="Helvetica,sans-Serif" font-size="10.00">event_tree.cc</text>
</a>
</g>
</g>
<!-- Node18&#45;&gt;Node19 -->
<g id="edge30" class="edge"><title>Node18&#45;&gt;Node19</title>
<path fill="none" stroke="midnightblue" d="M623.168,-215.275C617.528,-206.045 610.882,-195.17 606.348,-187.751"/>
<polygon fill="midnightblue" stroke="midnightblue" points="620.35,-217.375 628.551,-224.083 626.323,-213.725 620.35,-217.375"/>
</g>
<!-- Node18&#45;&gt;Node20 -->
<g id="edge31" class="edge"><title>Node18&#45;&gt;Node20</title>
<path fill="none" stroke="midnightblue" d="M656.716,-218.901C672.669,-208.999 693.497,-196.071 707.057,-187.655"/>
<polygon fill="midnightblue" stroke="midnightblue" points="654.629,-216.077 647.978,-224.324 658.32,-222.024 654.629,-216.077"/>
</g>
<!-- Node20&#45;&gt;Node13 -->
<g id="edge33" class="edge"><title>Node20&#45;&gt;Node13</title>
<path fill="none" stroke="midnightblue" d="M650.323,-167.978C461.251,-148.208 411.369,-155.737 227,-132 224.092,-131.626 221.099,-131.204 218.087,-130.753"/>
<polygon fill="midnightblue" stroke="midnightblue" points="650,-171.464 660.313,-169.035 650.736,-164.502 650,-171.464"/>
</g>
<!-- Node21 -->
<g id="node21" class="node"><title>Node21</title>
<g id="a_node21"><a xlink:href="event__tree__analysis_8cc.xhtml" target="_top" xlink:title="Implementation of event tree analysis facilities. ">
<polygon fill="white" stroke="black" points="658.5,-112.5 658.5,-131.5 783.5,-131.5 783.5,-112.5 658.5,-112.5"/>
<text text-anchor="middle" x="721" y="-119.5" font-family="Helvetica,sans-Serif" font-size="10.00">event_tree_analysis.cc</text>
</a>
</g>
</g>
<!-- Node20&#45;&gt;Node21 -->
<g id="edge32" class="edge"><title>Node20&#45;&gt;Node21</title>
<path fill="none" stroke="midnightblue" d="M721,-157.805C721,-148.91 721,-138.78 721,-131.751"/>
<polygon fill="midnightblue" stroke="midnightblue" points="717.5,-158.083 721,-168.083 724.5,-158.083 717.5,-158.083"/>
</g>
</g>
</svg>
        <g id="navigator" transform="translate(0 0)" fill="#404254">
                <rect fill="#f2f5e9" fill-opacity="0.5" stroke="#606060" stroke-width=".5" x="0" y="0" width="60" height="60"/>
                <use id="zoomplus" xlink:href="#zoomPlus" x="17" y="9" onmousedown="handleZoom(evt,'in')"/>
                <use id="zoomminus" xlink:href="#zoomMin" x="42" y="9" onmousedown="handleZoom(evt,'out')"/>
                <use id="reset" xlink:href="#resetDef" x="30" y="36" onmousedown="handleReset()"/>
                <g id="arrowUp" xlink:href="#dirArrow" transform="translate(30 24)" onmousedown="handlePan(0,-1)">
                  <use xlink:href="#rim" fill="#404040">
                        <set attributeName="fill" to="#808080" begin="arrowUp.mouseover" end="arrowUp.mouseout"/>
                  </use>
                  <path fill="none" stroke="white" stroke-width="1.5" d="M0,-3.0v7 M-2.5,-0.5L0,-3.0L2.5,-0.5"/>
                </g>
                <g id="arrowRight" xlink:href="#dirArrow" transform="rotate(90) translate(36 -43)" onmousedown="handlePan(1,0)">
                  <use xlink:href="#rim" fill="#404040">
                        <set attributeName="fill" to="#808080" begin="arrowRight.mouseover" end="arrowRight.mouseout"/>
                  </use>
                  <path fill="none" stroke="white" stroke-width="1.5" d="M0,-3.0v7 M-2.5,-0.5L0,-3.0L2.5,-0.5"/>
                </g>
                <g id="arrowDown" xlink:href="#dirArrow" transform="rotate(180) translate(-30 -48)" onmousedown="handlePan(0,1)">
                  <use xlink:href="#rim" fill="#404040">
                        <set attributeName="fill" to="#808080" begin="arrowDown.mouseover" end="arrowDown.mouseout"/>
                  </use>
                  <path fill="none" stroke="white" stroke-width="1.5" d="M0,-3.0v7 M-2.5,-0.5L0,-3.0L2.5,-0.5"/>
                </g>
                <g id="arrowLeft" xlink:href="#dirArrow" transform="rotate(270) translate(-36 17)" onmousedown="handlePan(-1,0)">
                  <use xlink:href="#rim" fill="#404040">
                        <set attributeName="fill" to="#808080" begin="arrowLeft.mouseover" end="arrowLeft.mouseout"/>
                  </use>
                  <path fill="none" stroke="white" stroke-width="1.5" d="M0,-3.0v7 M-2.5,-0.5L0,-3.0L2.5,-0.5"/>
                </g>
        </g>
        <svg viewBox="0 0 15 15" width="100%" height="30px" preserveAspectRatio="xMaxYMin meet">
         <g id="arrow_out" transform="scale(0.3 0.3)">
          <a xlink:href="event_8h__dep__incl_org.svg" target="_base">
           <rect id="button" ry="5" rx="5" y="6" x="6" height="38" width="38"
                fill="#f2f5e9" fill-opacity="0.5" stroke="#606060" stroke-width="1.0"/>
           <path id="arrow"
             d="M 11.500037,31.436501 C 11.940474,20.09759 22.043105,11.32322 32.158766,21.979434 L 37.068811,17.246167 C 37.068811,17.246167 37.088388,32 37.088388,32 L 22.160133,31.978069 C 22.160133,31.978069 26.997745,27.140456 26.997745,27.140456 C 18.528582,18.264221 13.291696,25.230495 11.500037,31.436501 z"
             style="fill:#404040;"/>
          </a>
         </g>
        </svg>
</svg>
