<?xml version="1.0" encoding="UTF-8" standalone="no"?>
<!DOCTYPE svg PUBLIC "-//W3C//DTD SVG 1.1//EN"
 "http://www.w3.org/Graphics/SVG/1.1/DTD/svg11.dtd">
<!-- Generated by graphviz version 2.38.0 (20140413.2041)
 -->
<!-- Title: event_tree_analysis.cc Pages: 1 -->
<svg width="1324pt" height="386pt"
 viewBox="0.00 0.00 1324.28 386.00" xmlns="http://www.w3.org/2000/svg" xmlns:xlink="http://www.w3.org/1999/xlink">
<g id="graph0" class="graph" transform="scale(1 1) rotate(0) translate(4 382)">
<title>event_tree_analysis.cc</title>
<polygon fill="white" stroke="none" points="-4,4 -4,-382 1320.28,-382 1320.28,4 -4,4"/>
<!-- Node1 -->
<g id="node1" class="node"><title>Node1</title>
<polygon fill="#bfbfbf" stroke="black" points="1047.5,-358.5 1047.5,-377.5 1172.5,-377.5 1172.5,-358.5 1047.5,-358.5"/>
<text text-anchor="middle" x="1110" y="-365.5" font-family="Helvetica,sans-Serif" font-size="10.00">event_tree_analysis.cc</text>
</g>
<!-- Node2 -->
<g id="node2" class="node"><title>Node2</title>
<g id="a_node2"><a xlink:href="event__tree__analysis_8h.xhtml" target="_top" xlink:title="Event tree analysis facilities. ">
<polygon fill="white" stroke="black" points="413.5,-302.5 413.5,-321.5 534.5,-321.5 534.5,-302.5 413.5,-302.5"/>
<text text-anchor="middle" x="474" y="-309.5" font-family="Helvetica,sans-Serif" font-size="10.00">event_tree_analysis.h</text>
</a>
</g>
</g>
<!-- Node1&#45;&gt;Node2 -->
<g id="edge1" class="edge"><title>Node1&#45;&gt;Node2</title>
<path fill="none" stroke="midnightblue" d="M1047.28,-361.674C928.247,-351.568 670.329,-329.669 545.095,-319.036"/>
<polygon fill="midnightblue" stroke="midnightblue" points="545.114,-315.525 534.853,-318.167 544.521,-322.5 545.114,-315.525"/>
</g>
<!-- Node28 -->
<g id="node28" class="node"><title>Node28</title>
<g id="a_node28"><a xlink:href="numerical_8h.xhtml" target="_top" xlink:title="A collection of numerical expressions. ">
<polygon fill="white" stroke="black" points="1138,-246.5 1138,-265.5 1266,-265.5 1266,-246.5 1138,-246.5"/>
<text text-anchor="middle" x="1202" y="-253.5" font-family="Helvetica,sans-Serif" font-size="10.00">expression/numerical.h</text>
</a>
</g>
</g>
<!-- Node1&#45;&gt;Node28 -->
<g id="edge56" class="edge"><title>Node1&#45;&gt;Node28</title>
<path fill="none" stroke="midnightblue" d="M1125.15,-358.455C1138.33,-350.413 1157.28,-337.334 1170,-322 1181.65,-307.959 1190.37,-288.965 1195.74,-275.137"/>
<polygon fill="midnightblue" stroke="midnightblue" points="1199.03,-276.33 1199.19,-265.737 1192.46,-273.919 1199.03,-276.33"/>
</g>
<!-- Node32 -->
<g id="node32" class="node"><title>Node32</title>
<g id="a_node32"><a xlink:href="find__iterator_8h.xhtml" target="_top" xlink:title="Convenience iterator adaptor to wrap find calls and results. ">
<polygon fill="white" stroke="black" points="1059.5,-302.5 1059.5,-321.5 1160.5,-321.5 1160.5,-302.5 1059.5,-302.5"/>
<text text-anchor="middle" x="1110" y="-309.5" font-family="Helvetica,sans-Serif" font-size="10.00">ext/find_iterator.h</text>
</a>
</g>
</g>
<!-- Node1&#45;&gt;Node32 -->
<g id="edge64" class="edge"><title>Node1&#45;&gt;Node32</title>
<path fill="none" stroke="midnightblue" d="M1110,-358.083C1110,-351.006 1110,-340.861 1110,-331.986"/>
<polygon fill="midnightblue" stroke="midnightblue" points="1113.5,-331.751 1110,-321.751 1106.5,-331.751 1113.5,-331.751"/>
</g>
<!-- Node3 -->
<g id="node3" class="node"><title>Node3</title>
<polygon fill="white" stroke="#bfbfbf" points="152.5,-134.5 152.5,-153.5 209.5,-153.5 209.5,-134.5 152.5,-134.5"/>
<text text-anchor="middle" x="181" y="-141.5" font-family="Helvetica,sans-Serif" font-size="10.00">memory</text>
</g>
<!-- Node2&#45;&gt;Node3 -->
<g id="edge2" class="edge"><title>Node2&#45;&gt;Node3</title>
<path fill="none" stroke="midnightblue" d="M442.307,-302.386C394.735,-288.415 303.473,-257.5 238,-210 219.663,-196.697 203.134,-176.485 192.656,-162.136"/>
<polygon fill="midnightblue" stroke="midnightblue" points="195.314,-159.832 186.686,-153.684 189.597,-163.871 195.314,-159.832"/>
</g>
<!-- Node4 -->
<g id="node4" class="node"><title>Node4</title>
<polygon fill="white" stroke="#bfbfbf" points="339,-6 339,-25 383,-25 383,-6 339,-6"/>
<text text-anchor="middle" x="361" y="-13" font-family="Helvetica,sans-Serif" font-size="10.00">string</text>
</g>
<!-- Node2&#45;&gt;Node4 -->
<g id="edge3" class="edge"><title>Node2&#45;&gt;Node4</title>
<path fill="none" stroke="midnightblue" d="M413.168,-304.415C331.725,-291.777 191.835,-255.608 143,-154 139.149,-145.988 138.443,-141.632 143,-134 163.999,-98.8265 274.527,-50.9121 329.663,-28.7138"/>
<polygon fill="midnightblue" stroke="midnightblue" points="330.974,-31.9592 338.964,-25.0018 328.379,-25.4578 330.974,-31.9592"/>
</g>
<!-- Node5 -->
<g id="node5" class="node"><title>Node5</title>
<polygon fill="white" stroke="#bfbfbf" points="788.5,-190.5 788.5,-209.5 881.5,-209.5 881.5,-190.5 788.5,-190.5"/>
<text text-anchor="middle" x="835" y="-197.5" font-family="Helvetica,sans-Serif" font-size="10.00">unordered_map</text>
</g>
<!-- Node2&#45;&gt;Node5 -->
<g id="edge4" class="edge"><title>Node2&#45;&gt;Node5</title>
<path fill="none" stroke="midnightblue" d="M534.605,-309.198C617.086,-305.66 759.22,-295.376 801,-266 816.593,-255.037 825.575,-234.674 830.346,-219.651"/>
<polygon fill="midnightblue" stroke="midnightblue" points="833.76,-220.441 833.11,-209.866 827.023,-218.538 833.76,-220.441"/>
</g>
<!-- Node6 -->
<g id="node6" class="node"><title>Node6</title>
<polygon fill="white" stroke="#bfbfbf" points="931.5,-6 931.5,-25 978.5,-25 978.5,-6 931.5,-6"/>
<text text-anchor="middle" x="955" y="-13" font-family="Helvetica,sans-Serif" font-size="10.00">vector</text>
</g>
<!-- Node2&#45;&gt;Node6 -->
<g id="edge5" class="edge"><title>Node2&#45;&gt;Node6</title>
<path fill="none" stroke="midnightblue" d="M534.67,-306.96C610.765,-301.192 744.972,-288.695 858,-266 946.405,-248.249 975.115,-255.436 1053,-210 1114.35,-174.21 1139.53,-163.5 1167,-98 1172.33,-85.2944 1175.54,-77.8124 1167,-67 1145.18,-39.3725 1043.06,-25.226 988.91,-19.5601"/>
<polygon fill="midnightblue" stroke="midnightblue" points="989.059,-16.0574 978.759,-18.5385 988.358,-23.0222 989.059,-16.0574"/>
</g>
<!-- Node7 -->
<g id="node7" class="node"><title>Node7</title>
<g id="a_node7"><a xlink:href="analysis_8h.xhtml" target="_top" xlink:title="Common facilities for all analysis classes. ">
<polygon fill="white" stroke="black" points="32,-134.5 32,-153.5 96,-153.5 96,-134.5 32,-134.5"/>
<text text-anchor="middle" x="64" y="-141.5" font-family="Helvetica,sans-Serif" font-size="10.00">analysis.h</text>
</a>
</g>
</g>
<!-- Node2&#45;&gt;Node7 -->
<g id="edge6" class="edge"><title>Node2&#45;&gt;Node7</title>
<path fill="none" stroke="midnightblue" d="M413.267,-310.882C322.147,-309.505 155.839,-301.963 110,-266 78.1292,-240.996 68.334,-191.216 65.3278,-163.945"/>
<polygon fill="midnightblue" stroke="midnightblue" points="68.7946,-163.419 64.4105,-153.774 61.8229,-164.048 68.7946,-163.419"/>
</g>
<!-- Node10 -->
<g id="node10" class="node"><title>Node10</title>
<g id="a_node10"><a xlink:href="settings_8h.xhtml" target="_top" xlink:title="Builder for settings. ">
<polygon fill="white" stroke="black" points="0,-73 0,-92 64,-92 64,-73 0,-73"/>
<text text-anchor="middle" x="32" y="-80" font-family="Helvetica,sans-Serif" font-size="10.00">settings.h</text>
</a>
</g>
</g>
<!-- Node2&#45;&gt;Node10 -->
<g id="edge55" class="edge"><title>Node2&#45;&gt;Node10</title>
<path fill="none" stroke="midnightblue" d="M413.438,-310.434C318.528,-308.486 140.185,-300.227 88,-266 39.8745,-234.435 37.9585,-209.576 23,-154 18.3489,-136.72 21.8563,-116.392 25.771,-102.015"/>
<polygon fill="midnightblue" stroke="midnightblue" points="29.1552,-102.917 28.7156,-92.3309 22.4579,-100.88 29.1552,-102.917"/>
</g>
<!-- Node12 -->
<g id="node12" class="node"><title>Node12</title>
<g id="a_node12"><a xlink:href="event_8h.xhtml" target="_top" xlink:title="Contains event classes for fault trees. ">
<polygon fill="white" stroke="black" points="287.5,-190.5 287.5,-209.5 340.5,-209.5 340.5,-190.5 287.5,-190.5"/>
<text text-anchor="middle" x="314" y="-197.5" font-family="Helvetica,sans-Serif" font-size="10.00">event.h</text>
</a>
</g>
</g>
<!-- Node2&#45;&gt;Node12 -->
<g id="edge13" class="edge"><title>Node2&#45;&gt;Node12</title>
<path fill="none" stroke="midnightblue" d="M461.445,-302.368C434.106,-283.573 368.936,-238.768 335.139,-215.533"/>
<polygon fill="midnightblue" stroke="midnightblue" points="336.72,-212.373 326.497,-209.591 332.754,-218.141 336.72,-212.373"/>
</g>
<!-- Node18 -->
<g id="node18" class="node"><title>Node18</title>
<g id="a_node18"><a xlink:href="expression_8h.xhtml" target="_top" xlink:title="Provides the base class for all expressions and units for expression values. ">
<polygon fill="white" stroke="black" points="819.5,-134.5 819.5,-153.5 896.5,-153.5 896.5,-134.5 819.5,-134.5"/>
<text text-anchor="middle" x="858" y="-141.5" font-family="Helvetica,sans-Serif" font-size="10.00">expression.h</text>
</a>
</g>
</g>
<!-- Node2&#45;&gt;Node18 -->
<g id="edge50" class="edge"><title>Node2&#45;&gt;Node18</title>
<path fill="none" stroke="midnightblue" d="M534.531,-307.369C620.592,-301.506 773.489,-288.299 824,-266 859.193,-250.463 873.838,-244.91 890,-210 897.79,-193.175 885.999,-174.175 874.594,-161.083"/>
<polygon fill="midnightblue" stroke="midnightblue" points="877.119,-158.659 867.722,-153.767 872.018,-163.452 877.119,-158.659"/>
</g>
<!-- Node25 -->
<g id="node25" class="node"><title>Node25</title>
<g id="a_node25"><a xlink:href="event__tree_8h.xhtml" target="_top" xlink:title="Event Tree facilities. ">
<polygon fill="white" stroke="black" points="435.5,-246.5 435.5,-265.5 512.5,-265.5 512.5,-246.5 435.5,-246.5"/>
<text text-anchor="middle" x="474" y="-253.5" font-family="Helvetica,sans-Serif" font-size="10.00">event_tree.h</text>
</a>
</g>
</g>
<!-- Node2&#45;&gt;Node25 -->
<g id="edge39" class="edge"><title>Node2&#45;&gt;Node25</title>
<path fill="none" stroke="midnightblue" d="M474,-302.083C474,-295.006 474,-284.861 474,-275.986"/>
<polygon fill="midnightblue" stroke="midnightblue" points="477.5,-275.751 474,-265.751 470.5,-275.751 477.5,-275.751"/>
</g>
<!-- Node27 -->
<g id="node27" class="node"><title>Node27</title>
<g id="a_node27"><a xlink:href="test__event_8h.xhtml" target="_top" xlink:title="Event tree analysis expressions to test functional and initiating events. ">
<polygon fill="white" stroke="black" points="661.5,-246.5 661.5,-265.5 792.5,-265.5 792.5,-246.5 661.5,-246.5"/>
<text text-anchor="middle" x="727" y="-253.5" font-family="Helvetica,sans-Serif" font-size="10.00">expression/test_event.h</text>
</a>
</g>
</g>
<!-- Node2&#45;&gt;Node27 -->
<g id="edge51" class="edge"><title>Node2&#45;&gt;Node27</title>
<path fill="none" stroke="midnightblue" d="M514.089,-302.444C558.316,-293.004 629.539,-277.802 677.285,-267.611"/>
<polygon fill="midnightblue" stroke="midnightblue" points="678.05,-271.027 687.099,-265.516 676.589,-264.181 678.05,-271.027"/>
</g>
<!-- Node7&#45;&gt;Node4 -->
<g id="edge8" class="edge"><title>Node7&#45;&gt;Node4</title>
<path fill="none" stroke="midnightblue" d="M66.7601,-134.316C72.3394,-118.259 86.5539,-84.0179 111,-67 145.968,-42.6573 269.641,-26.3752 328.891,-19.7911"/>
<polygon fill="midnightblue" stroke="midnightblue" points="329.271,-23.2705 338.834,-18.7103 328.514,-16.3115 329.271,-23.2705"/>
</g>
<!-- Node8 -->
<g id="node8" class="node"><title>Node8</title>
<polygon fill="white" stroke="#bfbfbf" points="120,-73 120,-92 172,-92 172,-73 120,-73"/>
<text text-anchor="middle" x="146" y="-80" font-family="Helvetica,sans-Serif" font-size="10.00">cassert</text>
</g>
<!-- Node7&#45;&gt;Node8 -->
<g id="edge7" class="edge"><title>Node7&#45;&gt;Node8</title>
<path fill="none" stroke="midnightblue" d="M75.7486,-134.475C88.7794,-125.02 110.036,-109.596 125.759,-98.1871"/>
<polygon fill="midnightblue" stroke="midnightblue" points="128.235,-100.715 134.273,-92.0091 124.124,-95.0492 128.235,-100.715"/>
</g>
<!-- Node9 -->
<g id="node9" class="node"><title>Node9</title>
<polygon fill="white" stroke="#bfbfbf" points="304,-73 304,-92 432,-92 432,-73 304,-73"/>
<text text-anchor="middle" x="368" y="-80" font-family="Helvetica,sans-Serif" font-size="10.00">boost/noncopyable.hpp</text>
</g>
<!-- Node7&#45;&gt;Node9 -->
<g id="edge9" class="edge"><title>Node7&#45;&gt;Node9</title>
<path fill="none" stroke="midnightblue" d="M96.2455,-136.689C148.211,-126.518 251.032,-106.393 314.228,-94.0245"/>
<polygon fill="midnightblue" stroke="midnightblue" points="315.257,-97.3896 324.398,-92.0339 313.912,-90.52 315.257,-97.3896"/>
</g>
<!-- Node7&#45;&gt;Node10 -->
<g id="edge10" class="edge"><title>Node7&#45;&gt;Node10</title>
<path fill="none" stroke="midnightblue" d="M59.4152,-134.475C54.7577,-125.815 47.4076,-112.149 41.4899,-101.145"/>
<polygon fill="midnightblue" stroke="midnightblue" points="44.3954,-99.1584 36.5763,-92.0091 38.2305,-102.474 44.3954,-99.1584"/>
</g>
<!-- Node10&#45;&gt;Node4 -->
<g id="edge12" class="edge"><title>Node10&#45;&gt;Node4</title>
<path fill="none" stroke="midnightblue" d="M57.1421,-72.9322C63.8689,-70.8167 71.1695,-68.6786 78,-67 167.778,-44.9373 275.804,-28.3625 328.664,-20.8852"/>
<polygon fill="midnightblue" stroke="midnightblue" points="329.361,-24.3219 338.78,-19.4705 328.392,-17.3893 329.361,-24.3219"/>
</g>
<!-- Node11 -->
<g id="node11" class="node"><title>Node11</title>
<polygon fill="white" stroke="#bfbfbf" points="175.5,-6 175.5,-25 224.5,-25 224.5,-6 175.5,-6"/>
<text text-anchor="middle" x="200" y="-13" font-family="Helvetica,sans-Serif" font-size="10.00">cstdint</text>
</g>
<!-- Node10&#45;&gt;Node11 -->
<g id="edge11" class="edge"><title>Node10&#45;&gt;Node11</title>
<path fill="none" stroke="midnightblue" d="M54.3091,-72.8685C83.5099,-61.5706 134.878,-41.6961 168.162,-28.8183"/>
<polygon fill="midnightblue" stroke="midnightblue" points="169.803,-31.9363 177.866,-25.0637 167.277,-25.4079 169.803,-31.9363"/>
</g>
<!-- Node12&#45;&gt;Node3 -->
<g id="edge15" class="edge"><title>Node12&#45;&gt;Node3</title>
<path fill="none" stroke="midnightblue" d="M292.926,-190.444C270.94,-181.517 236.266,-167.439 211.336,-157.317"/>
<polygon fill="midnightblue" stroke="midnightblue" points="212.558,-154.035 201.976,-153.516 209.924,-160.521 212.558,-154.035"/>
</g>
<!-- Node12&#45;&gt;Node4 -->
<g id="edge16" class="edge"><title>Node12&#45;&gt;Node4</title>
<path fill="none" stroke="midnightblue" d="M309.535,-190.438C298.808,-168.6 273.978,-109.554 295,-67 302.915,-50.9772 318.623,-38.6369 332.728,-30.1668"/>
<polygon fill="midnightblue" stroke="midnightblue" points="334.654,-33.0999 341.669,-25.1598 331.233,-26.9925 334.654,-33.0999"/>
</g>
<!-- Node12&#45;&gt;Node6 -->
<g id="edge17" class="edge"><title>Node12&#45;&gt;Node6</title>
<path fill="none" stroke="midnightblue" d="M333.699,-190.49C365.203,-177.115 429.075,-150.953 485,-134 553.51,-113.232 576.621,-127.164 642,-98 663.847,-88.2547 663.921,-76.2068 686,-67 770.168,-31.9027 798.531,-48.6475 888,-31 898.972,-28.8358 910.917,-26.3067 921.641,-23.9722"/>
<polygon fill="midnightblue" stroke="midnightblue" points="922.462,-27.3755 931.478,-21.8119 920.96,-20.5384 922.462,-27.3755"/>
</g>
<!-- Node12&#45;&gt;Node9 -->
<g id="edge18" class="edge"><title>Node12&#45;&gt;Node9</title>
<path fill="none" stroke="midnightblue" d="M316.626,-190.383C320.602,-177.74 328.682,-153.545 338,-134 343.464,-122.54 350.709,-110.282 356.71,-100.714"/>
<polygon fill="midnightblue" stroke="midnightblue" points="359.736,-102.478 362.185,-92.1704 353.842,-98.7015 359.736,-102.478"/>
</g>
<!-- Node12&#45;&gt;Node11 -->
<g id="edge14" class="edge"><title>Node12&#45;&gt;Node11</title>
<path fill="none" stroke="midnightblue" d="M308.502,-190.198C290.782,-161.831 234.944,-72.4405 211.037,-34.1693"/>
<polygon fill="midnightblue" stroke="midnightblue" points="213.71,-31.8411 205.443,-25.214 207.773,-35.5496 213.71,-31.8411"/>
</g>
<!-- Node13 -->
<g id="node13" class="node"><title>Node13</title>
<polygon fill="white" stroke="#bfbfbf" points="494.5,-134.5 494.5,-153.5 595.5,-153.5 595.5,-134.5 494.5,-134.5"/>
<text text-anchor="middle" x="545" y="-141.5" font-family="Helvetica,sans-Serif" font-size="10.00">boost/variant.hpp</text>
</g>
<!-- Node12&#45;&gt;Node13 -->
<g id="edge19" class="edge"><title>Node12&#45;&gt;Node13</title>
<path fill="none" stroke="midnightblue" d="M340.951,-192.7C379.536,-183.68 451.074,-166.957 498.359,-155.903"/>
<polygon fill="midnightblue" stroke="midnightblue" points="499.413,-159.251 508.354,-153.567 497.819,-152.435 499.413,-159.251"/>
</g>
<!-- Node14 -->
<g id="node14" class="node"><title>Node14</title>
<g id="a_node14"><a xlink:href="element_8h.xhtml" target="_top" xlink:title="Helper classes, structs, and properties common to all other classes. ">
<polygon fill="white" stroke="black" points="568.5,-73 568.5,-92 633.5,-92 633.5,-73 568.5,-73"/>
<text text-anchor="middle" x="601" y="-80" font-family="Helvetica,sans-Serif" font-size="10.00">element.h</text>
</a>
</g>
</g>
<!-- Node12&#45;&gt;Node14 -->
<g id="edge20" class="edge"><title>Node12&#45;&gt;Node14</title>
<path fill="none" stroke="midnightblue" d="M324.738,-190.379C342.376,-176.611 379.024,-149.622 414,-134 461.352,-112.85 519.516,-98.8554 558.281,-91.0707"/>
<polygon fill="midnightblue" stroke="midnightblue" points="559.046,-94.4875 568.187,-89.1318 557.701,-87.6179 559.046,-94.4875"/>
</g>
<!-- Node12&#45;&gt;Node18 -->
<g id="edge27" class="edge"><title>Node12&#45;&gt;Node18</title>
<path fill="none" stroke="midnightblue" d="M340.607,-196.359C426.557,-187.827 697.65,-160.917 809.259,-149.838"/>
<polygon fill="midnightblue" stroke="midnightblue" points="809.63,-153.319 819.235,-148.848 808.938,-146.353 809.63,-153.319"/>
</g>
<!-- Node14&#45;&gt;Node4 -->
<g id="edge22" class="edge"><title>Node14&#45;&gt;Node4</title>
<path fill="none" stroke="midnightblue" d="M574.758,-72.9951C568.023,-70.9251 560.769,-68.7931 554,-67 482.703,-48.113 461.822,-54.7669 392,-31 390.337,-30.434 388.645,-29.8054 386.953,-29.1361"/>
<polygon fill="midnightblue" stroke="midnightblue" points="388.022,-25.785 377.456,-25.012 385.234,-32.2057 388.022,-25.785"/>
</g>
<!-- Node14&#45;&gt;Node6 -->
<g id="edge23" class="edge"><title>Node14&#45;&gt;Node6</title>
<path fill="none" stroke="midnightblue" d="M626.179,-72.9684C633.186,-70.8036 640.84,-68.6318 648,-67 753.164,-43.0337 781.902,-50.4173 888,-31 898.912,-29.003 910.76,-26.5379 921.416,-24.2103"/>
<polygon fill="midnightblue" stroke="midnightblue" points="922.193,-27.6232 931.198,-22.0407 920.677,-20.7892 922.193,-27.6232"/>
</g>
<!-- Node14&#45;&gt;Node11 -->
<g id="edge21" class="edge"><title>Node14&#45;&gt;Node11</title>
<path fill="none" stroke="midnightblue" d="M568.184,-76.1808C493.509,-64.0763 311.438,-34.5635 234.852,-22.1493"/>
<polygon fill="midnightblue" stroke="midnightblue" points="235.199,-18.6599 224.768,-20.5147 234.079,-25.5697 235.199,-18.6599"/>
</g>
<!-- Node15 -->
<g id="node15" class="node"><title>Node15</title>
<polygon fill="white" stroke="#bfbfbf" points="549,-6 549,-25 721,-25 721,-6 549,-6"/>
<text text-anchor="middle" x="635" y="-13" font-family="Helvetica,sans-Serif" font-size="10.00">boost/multi_index_container.hpp</text>
</g>
<!-- Node14&#45;&gt;Node15 -->
<g id="edge24" class="edge"><title>Node14&#45;&gt;Node15</title>
<path fill="none" stroke="midnightblue" d="M605.585,-72.7338C610.734,-62.8903 619.224,-46.6598 625.763,-34.1594"/>
<polygon fill="midnightblue" stroke="midnightblue" points="628.954,-35.6106 630.487,-25.1273 622.751,-32.366 628.954,-35.6106"/>
</g>
<!-- Node16 -->
<g id="node16" class="node"><title>Node16</title>
<polygon fill="white" stroke="#bfbfbf" points="739,-0.5 739,-30.5 879,-30.5 879,-0.5 739,-0.5"/>
<text text-anchor="start" x="747" y="-18.5" font-family="Helvetica,sans-Serif" font-size="10.00">boost/multi_index/hashed</text>
<text text-anchor="middle" x="809" y="-7.5" font-family="Helvetica,sans-Serif" font-size="10.00">_index.hpp</text>
</g>
<!-- Node14&#45;&gt;Node16 -->
<g id="edge25" class="edge"><title>Node14&#45;&gt;Node16</title>
<path fill="none" stroke="midnightblue" d="M628.621,-72.8685C660.575,-62.8828 713.969,-46.1971 754.395,-33.5642"/>
<polygon fill="midnightblue" stroke="midnightblue" points="755.609,-36.8516 764.11,-30.5281 753.521,-30.1702 755.609,-36.8516"/>
</g>
<!-- Node17 -->
<g id="node17" class="node"><title>Node17</title>
<polygon fill="white" stroke="#bfbfbf" points="401,-0.5 401,-30.5 531,-30.5 531,-0.5 401,-0.5"/>
<text text-anchor="start" x="409" y="-18.5" font-family="Helvetica,sans-Serif" font-size="10.00">boost/multi_index/mem</text>
<text text-anchor="middle" x="466" y="-7.5" font-family="Helvetica,sans-Serif" font-size="10.00">_fun.hpp</text>
</g>
<!-- Node14&#45;&gt;Node17 -->
<g id="edge26" class="edge"><title>Node14&#45;&gt;Node17</title>
<path fill="none" stroke="midnightblue" d="M583.073,-72.8685C563.079,-63.2417 530.152,-47.3878 504.302,-34.9415"/>
<polygon fill="midnightblue" stroke="midnightblue" points="505.664,-31.7128 495.135,-30.5281 502.627,-38.0198 505.664,-31.7128"/>
</g>
<!-- Node18&#45;&gt;Node4 -->
<g id="edge30" class="edge"><title>Node18&#45;&gt;Node4</title>
<path fill="none" stroke="midnightblue" d="M819.188,-142.921C760.648,-141.549 647.231,-133.959 559,-98 537.183,-89.1081 537.177,-77.3239 516,-67 464.416,-41.8531 445.707,-51.2176 392,-31 390.575,-30.4636 389.125,-29.8893 387.669,-29.2901"/>
<polygon fill="midnightblue" stroke="midnightblue" points="388.739,-25.9372 378.176,-25.1111 385.918,-32.3438 388.739,-25.9372"/>
</g>
<!-- Node18&#45;&gt;Node6 -->
<g id="edge32" class="edge"><title>Node18&#45;&gt;Node6</title>
<path fill="none" stroke="midnightblue" d="M896.585,-142.873C930.723,-140.451 978.768,-130.893 1003,-98 1019.11,-76.1364 994.373,-48.5095 974.843,-31.6894"/>
<polygon fill="midnightblue" stroke="midnightblue" points="976.875,-28.83 966.925,-25.1908 972.434,-34.2407 976.875,-28.83"/>
</g>
<!-- Node18&#45;&gt;Node9 -->
<g id="edge34" class="edge"><title>Node18&#45;&gt;Node9</title>
<path fill="none" stroke="midnightblue" d="M819.141,-138.281C737.677,-128.389 547.835,-105.337 442.226,-92.5131"/>
<polygon fill="midnightblue" stroke="midnightblue" points="442.624,-89.0358 432.275,-91.3048 441.78,-95.9848 442.624,-89.0358"/>
</g>
<!-- Node18&#45;&gt;Node14 -->
<g id="edge35" class="edge"><title>Node18&#45;&gt;Node14</title>
<path fill="none" stroke="midnightblue" d="M821.178,-134.475C774.173,-123.593 693.017,-104.804 643.456,-93.3293"/>
<polygon fill="midnightblue" stroke="midnightblue" points="644.215,-89.9126 633.684,-91.0669 642.637,-96.7323 644.215,-89.9126"/>
</g>
<!-- Node19 -->
<g id="node19" class="node"><title>Node19</title>
<polygon fill="white" stroke="#bfbfbf" points="932,-73 932,-92 994,-92 994,-73 932,-73"/>
<text text-anchor="middle" x="963" y="-80" font-family="Helvetica,sans-Serif" font-size="10.00">algorithm</text>
</g>
<!-- Node18&#45;&gt;Node19 -->
<g id="edge28" class="edge"><title>Node18&#45;&gt;Node19</title>
<path fill="none" stroke="midnightblue" d="M873.044,-134.475C890.275,-124.711 918.74,-108.581 939.034,-97.0808"/>
<polygon fill="midnightblue" stroke="midnightblue" points="941.009,-99.9843 947.984,-92.0091 937.558,-93.8942 941.009,-99.9843"/>
</g>
<!-- Node20 -->
<g id="node20" class="node"><title>Node20</title>
<polygon fill="white" stroke="#bfbfbf" points="728,-73 728,-92 784,-92 784,-73 728,-73"/>
<text text-anchor="middle" x="756" y="-80" font-family="Helvetica,sans-Serif" font-size="10.00">sstream</text>
</g>
<!-- Node18&#45;&gt;Node20 -->
<g id="edge29" class="edge"><title>Node18&#45;&gt;Node20</title>
<path fill="none" stroke="midnightblue" d="M843.386,-134.475C826.647,-124.711 798.996,-108.581 779.281,-97.0808"/>
<polygon fill="midnightblue" stroke="midnightblue" points="780.988,-94.0246 770.587,-92.0091 777.461,-100.071 780.988,-94.0246"/>
</g>
<!-- Node21 -->
<g id="node21" class="node"><title>Node21</title>
<polygon fill="white" stroke="#bfbfbf" points="1050,-73 1050,-92 1092,-92 1092,-73 1050,-73"/>
<text text-anchor="middle" x="1071" y="-80" font-family="Helvetica,sans-Serif" font-size="10.00">utility</text>
</g>
<!-- Node18&#45;&gt;Node21 -->
<g id="edge31" class="edge"><title>Node18&#45;&gt;Node21</title>
<path fill="none" stroke="midnightblue" d="M896.657,-134.929C933.029,-126.937 988.802,-113.651 1036,-98 1037.92,-97.3634 1039.88,-96.6706 1041.85,-95.9441"/>
<polygon fill="midnightblue" stroke="midnightblue" points="1043.53,-99.0445 1051.57,-92.1373 1040.98,-92.527 1043.53,-99.0445"/>
</g>
<!-- Node22 -->
<g id="node22" class="node"><title>Node22</title>
<polygon fill="white" stroke="#bfbfbf" points="802,-67.5 802,-97.5 914,-97.5 914,-67.5 802,-67.5"/>
<text text-anchor="start" x="810" y="-85.5" font-family="Helvetica,sans-Serif" font-size="10.00">boost/icl/continuous</text>
<text text-anchor="middle" x="858" y="-74.5" font-family="Helvetica,sans-Serif" font-size="10.00">_interval.hpp</text>
</g>
<!-- Node18&#45;&gt;Node22 -->
<g id="edge33" class="edge"><title>Node18&#45;&gt;Node22</title>
<path fill="none" stroke="midnightblue" d="M858,-134.475C858,-127.471 858,-117.192 858,-107.696"/>
<polygon fill="midnightblue" stroke="midnightblue" points="861.5,-107.523 858,-97.523 854.5,-107.523 861.5,-107.523"/>
</g>
<!-- Node23 -->
<g id="node23" class="node"><title>Node23</title>
<g id="a_node23"><a xlink:href="error_8h.xhtml" target="_top" xlink:title="Exceptions for SCRAM. ">
<polygon fill="white" stroke="black" points="1110,-73 1110,-92 1158,-92 1158,-73 1110,-73"/>
<text text-anchor="middle" x="1134" y="-80" font-family="Helvetica,sans-Serif" font-size="10.00">error.h</text>
</a>
</g>
</g>
<!-- Node18&#45;&gt;Node23 -->
<g id="edge36" class="edge"><title>Node18&#45;&gt;Node23</title>
<path fill="none" stroke="midnightblue" d="M896.538,-138.656C945.02,-132.559 1030.47,-119.706 1101,-98 1102.93,-97.4064 1104.9,-96.7322 1106.86,-96.0072"/>
<polygon fill="midnightblue" stroke="midnightblue" points="1108.53,-99.106 1116.48,-92.0961 1105.89,-92.6219 1108.53,-99.106"/>
</g>
<!-- Node23&#45;&gt;Node4 -->
<g id="edge38" class="edge"><title>Node23&#45;&gt;Node4</title>
<path fill="none" stroke="midnightblue" d="M1117.62,-72.9043C1112.44,-70.5713 1106.6,-68.3258 1101,-67 793.963,5.65732 698.162,-107.262 392,-31 390.011,-30.5045 387.995,-29.8793 385.995,-29.1682"/>
<polygon fill="midnightblue" stroke="midnightblue" points="386.911,-25.756 376.336,-25.1013 384.194,-32.2075 386.911,-25.756"/>
</g>
<!-- Node24 -->
<g id="node24" class="node"><title>Node24</title>
<polygon fill="white" stroke="#bfbfbf" points="1102.5,-6 1102.5,-25 1165.5,-25 1165.5,-6 1102.5,-6"/>
<text text-anchor="middle" x="1134" y="-13" font-family="Helvetica,sans-Serif" font-size="10.00">exception</text>
</g>
<!-- Node23&#45;&gt;Node24 -->
<g id="edge37" class="edge"><title>Node23&#45;&gt;Node24</title>
<path fill="none" stroke="midnightblue" d="M1134,-72.7338C1134,-63.1826 1134,-47.6183 1134,-35.2829"/>
<polygon fill="midnightblue" stroke="midnightblue" points="1137.5,-35.1273 1134,-25.1273 1130.5,-35.1273 1137.5,-35.1273"/>
</g>
<!-- Node25&#45;&gt;Node3 -->
<g id="edge40" class="edge"><title>Node25&#45;&gt;Node3</title>
<path fill="none" stroke="midnightblue" d="M435.128,-250.332C394.614,-244.502 329.916,-232.443 278,-210 248.122,-197.084 217.563,-174.799 198.932,-159.979"/>
<polygon fill="midnightblue" stroke="midnightblue" points="200.999,-157.148 191.028,-153.566 196.589,-162.584 200.999,-157.148"/>
</g>
<!-- Node25&#45;&gt;Node4 -->
<g id="edge41" class="edge"><title>Node25&#45;&gt;Node4</title>
<path fill="none" stroke="midnightblue" d="M512.577,-248.802C537.374,-242.88 568.49,-231.515 588,-210 611.188,-184.43 624.474,-161.791 604,-134 571.982,-90.5392 536.794,-121.09 488,-98 465.381,-87.2963 462.026,-80.5683 441,-67 421.734,-54.5674 399.691,-40.6769 383.628,-30.6157"/>
<polygon fill="midnightblue" stroke="midnightblue" points="385.262,-27.5096 374.928,-25.1743 381.55,-33.4445 385.262,-27.5096"/>
</g>
<!-- Node25&#45;&gt;Node6 -->
<g id="edge42" class="edge"><title>Node25&#45;&gt;Node6</title>
<path fill="none" stroke="midnightblue" d="M512.574,-248.637C541.456,-242.434 580.843,-230.795 610,-210 675.062,-163.598 651.493,-109.766 719,-67 783.874,-25.9018 812.915,-47.122 888,-31 898.934,-28.6522 910.869,-26.0743 921.596,-23.7516"/>
<polygon fill="midnightblue" stroke="midnightblue" points="922.407,-27.1572 931.439,-21.6187 920.924,-20.316 922.407,-27.1572"/>
</g>
<!-- Node25&#45;&gt;Node9 -->
<g id="edge43" class="edge"><title>Node25&#45;&gt;Node9</title>
<path fill="none" stroke="midnightblue" d="M460.975,-246.334C449.455,-238.119 432.839,-224.851 422,-210 396.873,-175.57 380.533,-127.652 372.942,-101.795"/>
<polygon fill="midnightblue" stroke="midnightblue" points="376.309,-100.84 370.224,-92.1671 369.573,-102.742 376.309,-100.84"/>
</g>
<!-- Node25&#45;&gt;Node12 -->
<g id="edge46" class="edge"><title>Node25&#45;&gt;Node12</title>
<path fill="none" stroke="midnightblue" d="M448.648,-246.444C421.731,-237.359 379.004,-222.939 348.913,-212.783"/>
<polygon fill="midnightblue" stroke="midnightblue" points="349.828,-209.398 339.234,-209.516 347.59,-216.031 349.828,-209.398"/>
</g>
<!-- Node25&#45;&gt;Node13 -->
<g id="edge44" class="edge"><title>Node25&#45;&gt;Node13</title>
<path fill="none" stroke="midnightblue" d="M474.946,-246.359C476.712,-233.262 481.437,-208.004 493,-190 500.661,-178.071 512.404,-167.526 522.793,-159.648"/>
<polygon fill="midnightblue" stroke="midnightblue" points="525.008,-162.367 531.082,-153.686 520.92,-156.684 525.008,-162.367"/>
</g>
<!-- Node25&#45;&gt;Node14 -->
<g id="edge45" class="edge"><title>Node25&#45;&gt;Node14</title>
<path fill="none" stroke="midnightblue" d="M472.059,-246.369C467.781,-225.008 459.808,-168.886 485,-134 502.142,-110.263 532.885,-97.5532 558.416,-90.8232"/>
<polygon fill="midnightblue" stroke="midnightblue" points="559.364,-94.1951 568.264,-88.4474 557.722,-87.3903 559.364,-94.1951"/>
</g>
<!-- Node25&#45;&gt;Node18 -->
<g id="edge47" class="edge"><title>Node25&#45;&gt;Node18</title>
<path fill="none" stroke="midnightblue" d="M512.707,-246.583C550.494,-238.143 609.512,-224.37 660,-210 718.421,-193.372 785.372,-170.599 824.539,-156.891"/>
<polygon fill="midnightblue" stroke="midnightblue" points="825.838,-160.145 834.112,-153.528 823.518,-153.54 825.838,-160.145"/>
</g>
<!-- Node26 -->
<g id="node26" class="node"><title>Node26</title>
<g id="a_node26"><a xlink:href="variant_8h.xhtml" target="_top" xlink:title="Extra helper functions for boost::variant. ">
<polygon fill="white" stroke="black" points="502.5,-190.5 502.5,-209.5 579.5,-209.5 579.5,-190.5 502.5,-190.5"/>
<text text-anchor="middle" x="541" y="-197.5" font-family="Helvetica,sans-Serif" font-size="10.00">ext/variant.h</text>
</a>
</g>
</g>
<!-- Node25&#45;&gt;Node26 -->
<g id="edge48" class="edge"><title>Node25&#45;&gt;Node26</title>
<path fill="none" stroke="midnightblue" d="M484.765,-246.324C494.766,-238.263 509.887,-226.077 521.93,-216.369"/>
<polygon fill="midnightblue" stroke="midnightblue" points="524.45,-218.834 530.039,-209.834 520.057,-213.384 524.45,-218.834"/>
</g>
<!-- Node26&#45;&gt;Node13 -->
<g id="edge49" class="edge"><title>Node26&#45;&gt;Node13</title>
<path fill="none" stroke="midnightblue" d="M541.661,-190.083C542.185,-183.006 542.936,-172.861 543.594,-163.986"/>
<polygon fill="midnightblue" stroke="midnightblue" points="547.103,-163.982 544.352,-153.751 540.123,-163.465 547.103,-163.982"/>
</g>
<!-- Node27&#45;&gt;Node4 -->
<g id="edge52" class="edge"><title>Node27&#45;&gt;Node4</title>
<path fill="none" stroke="midnightblue" d="M721.87,-246.283C708.457,-224.23 670.1,-165.719 623,-134 581.383,-105.973 559.766,-122.537 516,-98 497.287,-87.5088 497.347,-78.1193 479,-67 443.213,-45.3109 430.295,-47.8691 392,-31 390.807,-30.4746 389.591,-29.9327 388.365,-29.3811"/>
<polygon fill="midnightblue" stroke="midnightblue" points="389.518,-26.0593 378.969,-25.0723 386.6,-32.4222 389.518,-26.0593"/>
</g>
<!-- Node27&#45;&gt;Node5 -->
<g id="edge53" class="edge"><title>Node27&#45;&gt;Node5</title>
<path fill="none" stroke="midnightblue" d="M744.352,-246.324C761.672,-237.664 788.515,-224.242 808.502,-214.249"/>
<polygon fill="midnightblue" stroke="midnightblue" points="810.312,-217.257 817.691,-209.655 807.181,-210.996 810.312,-217.257"/>
</g>
<!-- Node27&#45;&gt;Node18 -->
<g id="edge54" class="edge"><title>Node27&#45;&gt;Node18</title>
<path fill="none" stroke="midnightblue" d="M732.51,-246.128C741.156,-232.729 759.001,-207.083 779,-190 794.107,-177.096 813.458,-166.002 829.226,-158.058"/>
<polygon fill="midnightblue" stroke="midnightblue" points="831.057,-161.059 838.512,-153.531 827.989,-154.767 831.057,-161.059"/>
</g>
<!-- Node28&#45;&gt;Node6 -->
<g id="edge59" class="edge"><title>Node28&#45;&gt;Node6</title>
<path fill="none" stroke="midnightblue" d="M1252.18,-246.416C1287.34,-237.632 1326.07,-220.767 1314,-190 1286.79,-120.609 1264.93,-103.602 1200,-67 1164.21,-46.8227 1047.47,-28.8832 989.008,-20.897"/>
<polygon fill="midnightblue" stroke="midnightblue" points="989.179,-17.3887 978.802,-19.5234 988.246,-24.3261 989.179,-17.3887"/>
</g>
<!-- Node28&#45;&gt;Node18 -->
<g id="edge63" class="edge"><title>Node28&#45;&gt;Node18</title>
<path fill="none" stroke="midnightblue" d="M1137.77,-248.813C1089.58,-242.725 1022.62,-231.155 967,-210 933.484,-197.252 898.529,-174.442 877.51,-159.516"/>
<polygon fill="midnightblue" stroke="midnightblue" points="879.555,-156.676 869.401,-153.654 875.455,-162.349 879.555,-156.676"/>
</g>
<!-- Node28&#45;&gt;Node23 -->
<g id="edge62" class="edge"><title>Node28&#45;&gt;Node23</title>
<path fill="none" stroke="midnightblue" d="M1193.85,-246.375C1186.15,-237.782 1174.8,-223.898 1168,-210 1150.41,-174.036 1140.94,-127.716 1136.73,-102.289"/>
<polygon fill="midnightblue" stroke="midnightblue" points="1140.16,-101.532 1135.16,-92.1884 1133.24,-102.607 1140.16,-101.532"/>
</g>
<!-- Node29 -->
<g id="node29" class="node"><title>Node29</title>
<polygon fill="white" stroke="#bfbfbf" points="1176.5,-190.5 1176.5,-209.5 1223.5,-209.5 1223.5,-190.5 1176.5,-190.5"/>
<text text-anchor="middle" x="1200" y="-197.5" font-family="Helvetica,sans-Serif" font-size="10.00">cmath</text>
</g>
<!-- Node28&#45;&gt;Node29 -->
<g id="edge57" class="edge"><title>Node28&#45;&gt;Node29</title>
<path fill="none" stroke="midnightblue" d="M1201.67,-246.083C1201.41,-239.006 1201.03,-228.861 1200.7,-219.986"/>
<polygon fill="midnightblue" stroke="midnightblue" points="1204.19,-219.615 1200.32,-209.751 1197.2,-219.874 1204.19,-219.615"/>
</g>
<!-- Node30 -->
<g id="node30" class="node"><title>Node30</title>
<polygon fill="white" stroke="#bfbfbf" points="1241.5,-190.5 1241.5,-209.5 1304.5,-209.5 1304.5,-190.5 1241.5,-190.5"/>
<text text-anchor="middle" x="1273" y="-197.5" font-family="Helvetica,sans-Serif" font-size="10.00">functional</text>
</g>
<!-- Node28&#45;&gt;Node30 -->
<g id="edge58" class="edge"><title>Node28&#45;&gt;Node30</title>
<path fill="none" stroke="midnightblue" d="M1213.41,-246.324C1224.11,-238.185 1240.34,-225.839 1253.16,-216.087"/>
<polygon fill="midnightblue" stroke="midnightblue" points="1255.54,-218.673 1261.39,-209.834 1251.31,-213.102 1255.54,-218.673"/>
</g>
<!-- Node31 -->
<g id="node31" class="node"><title>Node31</title>
<g id="a_node31"><a xlink:href="constant_8h.xhtml" target="_top" xlink:title="Constant expressions that cannot have uncertainties. ">
<polygon fill="white" stroke="black" points="976,-190.5 976,-209.5 1044,-209.5 1044,-190.5 976,-190.5"/>
<text text-anchor="middle" x="1010" y="-197.5" font-family="Helvetica,sans-Serif" font-size="10.00">constant.h</text>
</a>
</g>
</g>
<!-- Node28&#45;&gt;Node31 -->
<g id="edge60" class="edge"><title>Node28&#45;&gt;Node31</title>
<path fill="none" stroke="midnightblue" d="M1171.58,-246.444C1138.72,-237.201 1086.22,-222.436 1050.03,-212.257"/>
<polygon fill="midnightblue" stroke="midnightblue" points="1050.85,-208.855 1040.28,-209.516 1048.96,-215.593 1050.85,-208.855"/>
</g>
<!-- Node31&#45;&gt;Node18 -->
<g id="edge61" class="edge"><title>Node31&#45;&gt;Node18</title>
<path fill="none" stroke="midnightblue" d="M985.915,-190.444C960.455,-181.399 920.106,-167.064 891.541,-156.916"/>
<polygon fill="midnightblue" stroke="midnightblue" points="892.567,-153.566 881.972,-153.516 890.223,-160.162 892.567,-153.566"/>
</g>
<!-- Node32&#45;&gt;Node21 -->
<g id="edge65" class="edge"><title>Node32&#45;&gt;Node21</title>
<path fill="none" stroke="midnightblue" d="M1108.52,-302.36C1102.81,-269.068 1082.17,-148.651 1074.18,-102.074"/>
<polygon fill="midnightblue" stroke="midnightblue" points="1077.62,-101.414 1072.48,-92.1491 1070.72,-102.597 1077.62,-101.414"/>
</g>
</g>
</svg>
