<?xml version="1.0" encoding="UTF-8" standalone="no"?>
<!DOCTYPE svg PUBLIC "-//W3C//DTD SVG 1.1//EN"
 "http://www.w3.org/Graphics/SVG/1.1/DTD/svg11.dtd">
<!-- Generated by graphviz version 2.38.0 (20140413.2041)
 -->
<!-- Title: event_tree_analysis.h Pages: 1 -->
<svg width="1165pt" height="330pt"
 viewBox="0.00 0.00 1164.84 330.00" xmlns="http://www.w3.org/2000/svg" xmlns:xlink="http://www.w3.org/1999/xlink">
<g id="graph0" class="graph" transform="scale(1 1) rotate(0) translate(4 326)">
<title>event_tree_analysis.h</title>
<polygon fill="white" stroke="none" points="-4,4 -4,-326 1160.84,-326 1160.84,4 -4,4"/>
<!-- Node1 -->
<g id="node1" class="node"><title>Node1</title>
<polygon fill="#bfbfbf" stroke="black" points="417.339,-302.5 417.339,-321.5 538.339,-321.5 538.339,-302.5 417.339,-302.5"/>
<text text-anchor="middle" x="477.839" y="-309.5" font-family="Helvetica,sans-Serif" font-size="10.00">event_tree_analysis.h</text>
</g>
<!-- Node2 -->
<g id="node2" class="node"><title>Node2</title>
<polygon fill="white" stroke="#bfbfbf" points="209.339,-134.5 209.339,-153.5 266.339,-153.5 266.339,-134.5 209.339,-134.5"/>
<text text-anchor="middle" x="237.839" y="-141.5" font-family="Helvetica,sans-Serif" font-size="10.00">memory</text>
</g>
<!-- Node1&#45;&gt;Node2 -->
<g id="edge1" class="edge"><title>Node1&#45;&gt;Node2</title>
<path fill="none" stroke="midnightblue" d="M435.1,-302.444C385.529,-290.328 304.644,-263.423 257.839,-210 246.543,-197.106 241.627,-177.931 239.488,-163.746"/>
<polygon fill="midnightblue" stroke="midnightblue" points="242.945,-163.177 238.298,-153.655 235.993,-163.996 242.945,-163.177"/>
</g>
<!-- Node3 -->
<g id="node3" class="node"><title>Node3</title>
<polygon fill="white" stroke="#bfbfbf" points="249.839,-6 249.839,-25 293.839,-25 293.839,-6 249.839,-6"/>
<text text-anchor="middle" x="271.839" y="-13" font-family="Helvetica,sans-Serif" font-size="10.00">string</text>
</g>
<!-- Node1&#45;&gt;Node3 -->
<g id="edge2" class="edge"><title>Node1&#45;&gt;Node3</title>
<path fill="none" stroke="midnightblue" d="M417.215,-304.53C380.464,-298.583 333.714,-287.291 296.839,-266 239.811,-233.073 221.017,-216.353 199.839,-154 183.897,-107.061 228.051,-56.5767 254.16,-31.8832"/>
<polygon fill="midnightblue" stroke="midnightblue" points="256.581,-34.4122 261.597,-25.0802 251.856,-29.2472 256.581,-34.4122"/>
</g>
<!-- Node4 -->
<g id="node4" class="node"><title>Node4</title>
<polygon fill="white" stroke="#bfbfbf" points="821.339,-190.5 821.339,-209.5 914.339,-209.5 914.339,-190.5 821.339,-190.5"/>
<text text-anchor="middle" x="867.839" y="-197.5" font-family="Helvetica,sans-Serif" font-size="10.00">unordered_map</text>
</g>
<!-- Node1&#45;&gt;Node4 -->
<g id="edge3" class="edge"><title>Node1&#45;&gt;Node4</title>
<path fill="none" stroke="midnightblue" d="M538.578,-309.992C627.432,-307.422 787.349,-298.306 833.839,-266 849.492,-255.123 858.464,-234.746 863.216,-219.696"/>
<polygon fill="midnightblue" stroke="midnightblue" points="866.636,-220.464 865.966,-209.89 859.896,-218.573 866.636,-220.464"/>
</g>
<!-- Node5 -->
<g id="node5" class="node"><title>Node5</title>
<polygon fill="white" stroke="#bfbfbf" points="1057.34,-6 1057.34,-25 1104.34,-25 1104.34,-6 1057.34,-6"/>
<text text-anchor="middle" x="1080.84" y="-13" font-family="Helvetica,sans-Serif" font-size="10.00">vector</text>
</g>
<!-- Node1&#45;&gt;Node5 -->
<g id="edge4" class="edge"><title>Node1&#45;&gt;Node5</title>
<path fill="none" stroke="midnightblue" d="M538.395,-307.529C704.814,-297.188 1156.84,-263.359 1156.84,-201 1156.84,-201 1156.84,-201 1156.84,-143 1156.84,-97.6215 1120.46,-54.482 1098.04,-32.205"/>
<polygon fill="midnightblue" stroke="midnightblue" points="1100.41,-29.6293 1090.78,-25.2259 1095.56,-34.6776 1100.41,-29.6293"/>
</g>
<!-- Node6 -->
<g id="node6" class="node"><title>Node6</title>
<g id="a_node6"><a xlink:href="analysis_8h.xhtml" target="_top" xlink:title="Common facilities for all analysis classes. ">
<polygon fill="white" stroke="black" points="88.8394,-134.5 88.8394,-153.5 152.839,-153.5 152.839,-134.5 88.8394,-134.5"/>
<text text-anchor="middle" x="120.839" y="-141.5" font-family="Helvetica,sans-Serif" font-size="10.00">analysis.h</text>
</a>
</g>
</g>
<!-- Node1&#45;&gt;Node6 -->
<g id="edge5" class="edge"><title>Node1&#45;&gt;Node6</title>
<path fill="none" stroke="midnightblue" d="M417.022,-309.373C337.628,-306.062 204.355,-296.066 166.839,-266 135.229,-240.667 125.328,-191.021 122.236,-163.859"/>
<polygon fill="midnightblue" stroke="midnightblue" points="125.704,-163.36 121.284,-153.731 118.735,-164.015 125.704,-163.36"/>
</g>
<!-- Node9 -->
<g id="node9" class="node"><title>Node9</title>
<g id="a_node9"><a xlink:href="settings_8h.xhtml" target="_top" xlink:title="Builder for settings. ">
<polygon fill="white" stroke="black" points="12.8394,-73 12.8394,-92 76.8394,-92 76.8394,-73 12.8394,-73"/>
<text text-anchor="middle" x="44.8394" y="-80" font-family="Helvetica,sans-Serif" font-size="10.00">settings.h</text>
</a>
</g>
</g>
<!-- Node1&#45;&gt;Node9 -->
<g id="edge54" class="edge"><title>Node1&#45;&gt;Node9</title>
<path fill="none" stroke="midnightblue" d="M417.077,-308.964C333.92,-305.142 190.037,-294.513 146.839,-266 87.2852,-226.691 59.0463,-140.129 49.1473,-102.071"/>
<polygon fill="midnightblue" stroke="midnightblue" points="52.5328,-101.182 46.7395,-92.3111 45.7366,-102.858 52.5328,-101.182"/>
</g>
<!-- Node11 -->
<g id="node11" class="node"><title>Node11</title>
<g id="a_node11"><a xlink:href="event_8h.xhtml" target="_top" xlink:title="Contains event classes for fault trees. ">
<polygon fill="white" stroke="black" points="384.339,-190.5 384.339,-209.5 437.339,-209.5 437.339,-190.5 384.339,-190.5"/>
<text text-anchor="middle" x="410.839" y="-197.5" font-family="Helvetica,sans-Serif" font-size="10.00">event.h</text>
</a>
</g>
</g>
<!-- Node1&#45;&gt;Node11 -->
<g id="edge12" class="edge"><title>Node1&#45;&gt;Node11</title>
<path fill="none" stroke="midnightblue" d="M472.582,-302.368C461.574,-284.296 435.92,-242.176 421.381,-218.307"/>
<polygon fill="midnightblue" stroke="midnightblue" points="424.264,-216.311 416.072,-209.591 418.285,-219.953 424.264,-216.311"/>
</g>
<!-- Node17 -->
<g id="node17" class="node"><title>Node17</title>
<g id="a_node17"><a xlink:href="expression_8h.xhtml" target="_top" xlink:title="Provides the base class for all expressions and units for expression values. ">
<polygon fill="white" stroke="black" points="709.339,-134.5 709.339,-153.5 786.339,-153.5 786.339,-134.5 709.339,-134.5"/>
<text text-anchor="middle" x="747.839" y="-141.5" font-family="Helvetica,sans-Serif" font-size="10.00">expression.h</text>
</a>
</g>
</g>
<!-- Node1&#45;&gt;Node17 -->
<g id="edge49" class="edge"><title>Node1&#45;&gt;Node17</title>
<path fill="none" stroke="midnightblue" d="M538.404,-308.06C630.542,-302.875 801.105,-290.283 856.839,-266 892.107,-250.634 906.677,-244.91 922.839,-210 946.652,-158.565 856.262,-147.071 796.589,-144.95"/>
<polygon fill="midnightblue" stroke="midnightblue" points="796.662,-141.451 786.568,-144.67 796.467,-148.448 796.662,-141.451"/>
</g>
<!-- Node24 -->
<g id="node24" class="node"><title>Node24</title>
<g id="a_node24"><a xlink:href="event__tree_8h.xhtml" target="_top" xlink:title="Event Tree facilities. ">
<polygon fill="white" stroke="black" points="480.339,-246.5 480.339,-265.5 557.339,-265.5 557.339,-246.5 480.339,-246.5"/>
<text text-anchor="middle" x="518.839" y="-253.5" font-family="Helvetica,sans-Serif" font-size="10.00">event_tree.h</text>
</a>
</g>
</g>
<!-- Node1&#45;&gt;Node24 -->
<g id="edge38" class="edge"><title>Node1&#45;&gt;Node24</title>
<path fill="none" stroke="midnightblue" d="M484.61,-302.083C490.401,-294.455 498.898,-283.264 505.977,-273.941"/>
<polygon fill="midnightblue" stroke="midnightblue" points="508.936,-275.832 512.195,-265.751 503.36,-271.599 508.936,-275.832"/>
</g>
<!-- Node26 -->
<g id="node26" class="node"><title>Node26</title>
<g id="a_node26"><a xlink:href="test__event_8h.xhtml" target="_top" xlink:title="Event tree analysis expressions to test functional and initiating events. ">
<polygon fill="white" stroke="black" points="694.339,-246.5 694.339,-265.5 825.339,-265.5 825.339,-246.5 694.339,-246.5"/>
<text text-anchor="middle" x="759.839" y="-253.5" font-family="Helvetica,sans-Serif" font-size="10.00">expression/test_event.h</text>
</a>
</g>
</g>
<!-- Node1&#45;&gt;Node26 -->
<g id="edge50" class="edge"><title>Node1&#45;&gt;Node26</title>
<path fill="none" stroke="midnightblue" d="M522.523,-302.444C572.13,-292.944 652.204,-277.611 705.425,-267.42"/>
<polygon fill="midnightblue" stroke="midnightblue" points="706.201,-270.835 715.365,-265.516 704.885,-263.96 706.201,-270.835"/>
</g>
<!-- Node6&#45;&gt;Node3 -->
<g id="edge7" class="edge"><title>Node6&#45;&gt;Node3</title>
<path fill="none" stroke="midnightblue" d="M129.056,-134.074C142.817,-119.344 171.69,-89.3524 198.839,-67 214.997,-53.6969 234.557,-40.2957 249.361,-30.6446"/>
<polygon fill="midnightblue" stroke="midnightblue" points="251.377,-33.5097 257.892,-25.1545 247.588,-27.6234 251.377,-33.5097"/>
</g>
<!-- Node7 -->
<g id="node7" class="node"><title>Node7</title>
<polygon fill="white" stroke="#bfbfbf" points="94.8394,-73 94.8394,-92 146.839,-92 146.839,-73 94.8394,-73"/>
<text text-anchor="middle" x="120.839" y="-80" font-family="Helvetica,sans-Serif" font-size="10.00">cassert</text>
</g>
<!-- Node6&#45;&gt;Node7 -->
<g id="edge6" class="edge"><title>Node6&#45;&gt;Node7</title>
<path fill="none" stroke="midnightblue" d="M120.839,-134.475C120.839,-126.08 120.839,-112.981 120.839,-102.163"/>
<polygon fill="midnightblue" stroke="midnightblue" points="124.339,-102.009 120.839,-92.0091 117.339,-102.009 124.339,-102.009"/>
</g>
<!-- Node8 -->
<g id="node8" class="node"><title>Node8</title>
<polygon fill="white" stroke="#bfbfbf" points="316.839,-73 316.839,-92 444.839,-92 444.839,-73 316.839,-73"/>
<text text-anchor="middle" x="380.839" y="-80" font-family="Helvetica,sans-Serif" font-size="10.00">boost/noncopyable.hpp</text>
</g>
<!-- Node6&#45;&gt;Node8 -->
<g id="edge8" class="edge"><title>Node6&#45;&gt;Node8</title>
<path fill="none" stroke="midnightblue" d="M152.981,-135.644C198.199,-125.297 280.909,-106.369 333.263,-94.3876"/>
<polygon fill="midnightblue" stroke="midnightblue" points="334.342,-97.7313 343.309,-92.0886 332.78,-90.9077 334.342,-97.7313"/>
</g>
<!-- Node6&#45;&gt;Node9 -->
<g id="edge9" class="edge"><title>Node6&#45;&gt;Node9</title>
<path fill="none" stroke="midnightblue" d="M109.95,-134.475C97.8732,-125.02 78.1723,-109.596 63.5994,-98.1871"/>
<polygon fill="midnightblue" stroke="midnightblue" points="65.7397,-95.4177 55.7081,-92.0091 61.4245,-100.929 65.7397,-95.4177"/>
</g>
<!-- Node9&#45;&gt;Node3 -->
<g id="edge11" class="edge"><title>Node9&#45;&gt;Node3</title>
<path fill="none" stroke="midnightblue" d="M68.1544,-72.9147C73.9075,-70.8903 80.0736,-68.7995 85.8394,-67 139.414,-50.2791 202.632,-33.7904 239.857,-24.4076"/>
<polygon fill="midnightblue" stroke="midnightblue" points="240.789,-27.7823 249.638,-21.9553 239.087,-20.9924 240.789,-27.7823"/>
</g>
<!-- Node10 -->
<g id="node10" class="node"><title>Node10</title>
<polygon fill="white" stroke="#bfbfbf" points="20.3394,-6 20.3394,-25 69.3394,-25 69.3394,-6 20.3394,-6"/>
<text text-anchor="middle" x="44.8394" y="-13" font-family="Helvetica,sans-Serif" font-size="10.00">cstdint</text>
</g>
<!-- Node9&#45;&gt;Node10 -->
<g id="edge10" class="edge"><title>Node9&#45;&gt;Node10</title>
<path fill="none" stroke="midnightblue" d="M44.8394,-72.7338C44.8394,-63.1826 44.8394,-47.6183 44.8394,-35.2829"/>
<polygon fill="midnightblue" stroke="midnightblue" points="48.3395,-35.1273 44.8394,-25.1273 41.3395,-35.1273 48.3395,-35.1273"/>
</g>
<!-- Node11&#45;&gt;Node2 -->
<g id="edge14" class="edge"><title>Node11&#45;&gt;Node2</title>
<path fill="none" stroke="midnightblue" d="M384.187,-190.681C354.897,-181.538 307.649,-166.79 274.792,-156.534"/>
<polygon fill="midnightblue" stroke="midnightblue" points="275.682,-153.146 265.093,-153.507 273.596,-159.828 275.682,-153.146"/>
</g>
<!-- Node11&#45;&gt;Node3 -->
<g id="edge15" class="edge"><title>Node11&#45;&gt;Node3</title>
<path fill="none" stroke="midnightblue" d="M399.557,-190.379C379.002,-174.194 335.069,-137.329 307.839,-98 294.116,-78.1785 283.759,-52.2831 277.756,-35.057"/>
<polygon fill="midnightblue" stroke="midnightblue" points="280.932,-33.5187 274.448,-25.1398 274.292,-35.7335 280.932,-33.5187"/>
</g>
<!-- Node11&#45;&gt;Node5 -->
<g id="edge16" class="edge"><title>Node11&#45;&gt;Node5</title>
<path fill="none" stroke="midnightblue" d="M420.346,-190.323C436.336,-176.224 470.177,-148.466 503.839,-134 577.194,-102.476 607.706,-132.226 679.839,-98 699.531,-88.6566 697.861,-75.7133 717.839,-67 776.745,-41.3095 968.699,-24.7196 1047.06,-18.8638"/>
<polygon fill="midnightblue" stroke="midnightblue" points="1047.62,-22.3321 1057.34,-18.1089 1047.11,-15.3509 1047.62,-22.3321"/>
</g>
<!-- Node11&#45;&gt;Node8 -->
<g id="edge17" class="edge"><title>Node11&#45;&gt;Node8</title>
<path fill="none" stroke="midnightblue" d="M407.395,-190.492C403.867,-181.53 398.407,-166.95 394.839,-154 390.08,-136.723 386.255,-116.644 383.813,-102.344"/>
<polygon fill="midnightblue" stroke="midnightblue" points="387.234,-101.579 382.16,-92.2782 380.327,-102.713 387.234,-101.579"/>
</g>
<!-- Node11&#45;&gt;Node10 -->
<g id="edge13" class="edge"><title>Node11&#45;&gt;Node10</title>
<path fill="none" stroke="midnightblue" d="M383.955,-199.759C326.067,-200.464 186.259,-197.133 79.8394,-154 40.9548,-138.24 22.762,-135.448 3.8394,-98 -7.70152,-75.1606 11.6545,-48.6885 27.5059,-32.2656"/>
<polygon fill="midnightblue" stroke="midnightblue" points="30.1579,-34.5674 34.8551,-25.0707 25.2609,-29.5654 30.1579,-34.5674"/>
</g>
<!-- Node12 -->
<g id="node12" class="node"><title>Node12</title>
<polygon fill="white" stroke="#bfbfbf" points="513.339,-134.5 513.339,-153.5 614.339,-153.5 614.339,-134.5 513.339,-134.5"/>
<text text-anchor="middle" x="563.839" y="-141.5" font-family="Helvetica,sans-Serif" font-size="10.00">boost/variant.hpp</text>
</g>
<!-- Node11&#45;&gt;Node12 -->
<g id="edge18" class="edge"><title>Node11&#45;&gt;Node12</title>
<path fill="none" stroke="midnightblue" d="M435.083,-190.444C460.71,-181.399 501.325,-167.064 530.078,-156.916"/>
<polygon fill="midnightblue" stroke="midnightblue" points="531.445,-160.145 539.71,-153.516 529.115,-153.544 531.445,-160.145"/>
</g>
<!-- Node13 -->
<g id="node13" class="node"><title>Node13</title>
<g id="a_node13"><a xlink:href="element_8h.xhtml" target="_top" xlink:title="Helper classes, structs, and properties common to all other classes. ">
<polygon fill="white" stroke="black" points="539.339,-73 539.339,-92 604.339,-92 604.339,-73 539.339,-73"/>
<text text-anchor="middle" x="571.839" y="-80" font-family="Helvetica,sans-Serif" font-size="10.00">element.h</text>
</a>
</g>
</g>
<!-- Node11&#45;&gt;Node13 -->
<g id="edge19" class="edge"><title>Node11&#45;&gt;Node13</title>
<path fill="none" stroke="midnightblue" d="M411.444,-190.186C412.852,-176.394 417.511,-149.671 432.839,-134 458.405,-107.862 498.539,-95.1773 529.122,-89.0663"/>
<polygon fill="midnightblue" stroke="midnightblue" points="529.889,-92.4841 539.093,-87.236 528.625,-85.5991 529.889,-92.4841"/>
</g>
<!-- Node11&#45;&gt;Node17 -->
<g id="edge26" class="edge"><title>Node11&#45;&gt;Node17</title>
<path fill="none" stroke="midnightblue" d="M437.565,-194.718C494.172,-185.647 626.869,-164.384 699.028,-152.821"/>
<polygon fill="midnightblue" stroke="midnightblue" points="699.899,-156.227 709.219,-151.188 698.791,-149.315 699.899,-156.227"/>
</g>
<!-- Node13&#45;&gt;Node3 -->
<g id="edge21" class="edge"><title>Node13&#45;&gt;Node3</title>
<path fill="none" stroke="midnightblue" d="M546.158,-72.8736C539.285,-70.7586 531.823,-68.6353 524.839,-67 427.516,-44.2119 398.356,-60.4564 302.839,-31 300.966,-30.4222 299.06,-29.7524 297.162,-29.0239"/>
<polygon fill="midnightblue" stroke="midnightblue" points="298.483,-25.7821 287.913,-25.0471 295.717,-32.2128 298.483,-25.7821"/>
</g>
<!-- Node13&#45;&gt;Node5 -->
<g id="edge22" class="edge"><title>Node13&#45;&gt;Node5</title>
<path fill="none" stroke="midnightblue" d="M593.804,-72.8768C600.182,-70.6584 607.215,-68.4819 613.839,-67 696.79,-48.4443 954.319,-26.6218 1047.1,-19.1575"/>
<polygon fill="midnightblue" stroke="midnightblue" points="1047.38,-22.646 1057.07,-18.3594 1046.82,-15.6683 1047.38,-22.646"/>
</g>
<!-- Node13&#45;&gt;Node10 -->
<g id="edge20" class="edge"><title>Node13&#45;&gt;Node10</title>
<path fill="none" stroke="midnightblue" d="M539.271,-77.483C445.612,-65.9312 176.113,-32.6913 79.6777,-20.7969"/>
<polygon fill="midnightblue" stroke="midnightblue" points="79.9336,-17.3021 69.5804,-19.5515 79.0767,-24.2494 79.9336,-17.3021"/>
</g>
<!-- Node14 -->
<g id="node14" class="node"><title>Node14</title>
<polygon fill="white" stroke="#bfbfbf" points="311.839,-6 311.839,-25 483.839,-25 483.839,-6 311.839,-6"/>
<text text-anchor="middle" x="397.839" y="-13" font-family="Helvetica,sans-Serif" font-size="10.00">boost/multi_index_container.hpp</text>
</g>
<!-- Node13&#45;&gt;Node14 -->
<g id="edge23" class="edge"><title>Node13&#45;&gt;Node14</title>
<path fill="none" stroke="midnightblue" d="M548.734,-72.8685C518.359,-61.5219 464.828,-41.5246 430.37,-28.6522"/>
<polygon fill="midnightblue" stroke="midnightblue" points="431.356,-25.2845 420.764,-25.0637 428.907,-31.8419 431.356,-25.2845"/>
</g>
<!-- Node15 -->
<g id="node15" class="node"><title>Node15</title>
<polygon fill="white" stroke="#bfbfbf" points="501.839,-0.5 501.839,-30.5 641.839,-30.5 641.839,-0.5 501.839,-0.5"/>
<text text-anchor="start" x="509.839" y="-18.5" font-family="Helvetica,sans-Serif" font-size="10.00">boost/multi_index/hashed</text>
<text text-anchor="middle" x="571.839" y="-7.5" font-family="Helvetica,sans-Serif" font-size="10.00">_index.hpp</text>
</g>
<!-- Node13&#45;&gt;Node15 -->
<g id="edge24" class="edge"><title>Node13&#45;&gt;Node15</title>
<path fill="none" stroke="midnightblue" d="M571.839,-72.7338C571.839,-64.5406 571.839,-51.9225 571.839,-40.7136"/>
<polygon fill="midnightblue" stroke="midnightblue" points="575.339,-40.589 571.839,-30.589 568.339,-40.5891 575.339,-40.589"/>
</g>
<!-- Node16 -->
<g id="node16" class="node"><title>Node16</title>
<polygon fill="white" stroke="#bfbfbf" points="659.839,-0.5 659.839,-30.5 789.839,-30.5 789.839,-0.5 659.839,-0.5"/>
<text text-anchor="start" x="667.839" y="-18.5" font-family="Helvetica,sans-Serif" font-size="10.00">boost/multi_index/mem</text>
<text text-anchor="middle" x="724.839" y="-7.5" font-family="Helvetica,sans-Serif" font-size="10.00">_fun.hpp</text>
</g>
<!-- Node13&#45;&gt;Node16 -->
<g id="edge25" class="edge"><title>Node13&#45;&gt;Node16</title>
<path fill="none" stroke="midnightblue" d="M592.157,-72.8685C615.115,-63.115 653.119,-46.9696 682.583,-34.452"/>
<polygon fill="midnightblue" stroke="midnightblue" points="683.984,-37.6596 691.819,-30.5281 681.247,-31.2169 683.984,-37.6596"/>
</g>
<!-- Node17&#45;&gt;Node3 -->
<g id="edge29" class="edge"><title>Node17&#45;&gt;Node3</title>
<path fill="none" stroke="midnightblue" d="M709.194,-135.933C651.04,-125.161 546.069,-105.133 529.839,-98 508.271,-88.5204 508.457,-76.3679 486.839,-67 410.382,-33.8669 382.058,-56.845 302.839,-31 301.17,-30.4552 299.472,-29.8429 297.775,-29.1859"/>
<polygon fill="midnightblue" stroke="midnightblue" points="298.837,-25.8325 288.268,-25.0937 296.069,-32.2622 298.837,-25.8325"/>
</g>
<!-- Node17&#45;&gt;Node5 -->
<g id="edge31" class="edge"><title>Node17&#45;&gt;Node5</title>
<path fill="none" stroke="midnightblue" d="M786.374,-142.728C861.205,-141.384 1022.31,-134.24 1061.84,-98 1079.04,-82.2259 1082.14,-54.1527 1082.06,-35.4297"/>
<polygon fill="midnightblue" stroke="midnightblue" points="1085.54,-35.0435 1081.69,-25.1738 1078.55,-35.2917 1085.54,-35.0435"/>
</g>
<!-- Node17&#45;&gt;Node8 -->
<g id="edge33" class="edge"><title>Node17&#45;&gt;Node8</title>
<path fill="none" stroke="midnightblue" d="M709.258,-136.745C645.94,-126.48 519.42,-105.967 443.23,-93.6151"/>
<polygon fill="midnightblue" stroke="midnightblue" points="443.713,-90.1478 433.282,-92.0023 442.593,-97.0576 443.713,-90.1478"/>
</g>
<!-- Node17&#45;&gt;Node13 -->
<g id="edge34" class="edge"><title>Node17&#45;&gt;Node13</title>
<path fill="none" stroke="midnightblue" d="M722.129,-134.437C695.137,-125.431 651.473,-110.815 613.839,-98 611.411,-97.1732 608.906,-96.3166 606.383,-95.4518"/>
<polygon fill="midnightblue" stroke="midnightblue" points="607.296,-92.0646 596.701,-92.1221 605.019,-98.6841 607.296,-92.0646"/>
</g>
<!-- Node18 -->
<g id="node18" class="node"><title>Node18</title>
<polygon fill="white" stroke="#bfbfbf" points="916.839,-73 916.839,-92 978.839,-92 978.839,-73 916.839,-73"/>
<text text-anchor="middle" x="947.839" y="-80" font-family="Helvetica,sans-Serif" font-size="10.00">algorithm</text>
</g>
<!-- Node17&#45;&gt;Node18 -->
<g id="edge27" class="edge"><title>Node17&#45;&gt;Node18</title>
<path fill="none" stroke="midnightblue" d="M780.839,-134.48C813.339,-125.91 864.297,-111.994 907.839,-98 910.389,-97.1807 913.018,-96.3027 915.654,-95.399"/>
<polygon fill="midnightblue" stroke="midnightblue" points="916.825,-98.6971 925.094,-92.0731 914.499,-92.0949 916.825,-98.6971"/>
</g>
<!-- Node19 -->
<g id="node19" class="node"><title>Node19</title>
<polygon fill="white" stroke="#bfbfbf" points="996.839,-73 996.839,-92 1052.84,-92 1052.84,-73 996.839,-73"/>
<text text-anchor="middle" x="1024.84" y="-80" font-family="Helvetica,sans-Serif" font-size="10.00">sstream</text>
</g>
<!-- Node17&#45;&gt;Node19 -->
<g id="edge28" class="edge"><title>Node17&#45;&gt;Node19</title>
<path fill="none" stroke="midnightblue" d="M786.6,-138.024C834.484,-131.355 918.159,-117.993 987.839,-98 990.424,-97.2585 993.079,-96.4067 995.723,-95.4955"/>
<polygon fill="midnightblue" stroke="midnightblue" points="996.941,-98.7768 1005.11,-92.0254 994.513,-92.2114 996.941,-98.7768"/>
</g>
<!-- Node20 -->
<g id="node20" class="node"><title>Node20</title>
<polygon fill="white" stroke="#bfbfbf" points="726.839,-73 726.839,-92 768.839,-92 768.839,-73 726.839,-73"/>
<text text-anchor="middle" x="747.839" y="-80" font-family="Helvetica,sans-Serif" font-size="10.00">utility</text>
</g>
<!-- Node17&#45;&gt;Node20 -->
<g id="edge30" class="edge"><title>Node17&#45;&gt;Node20</title>
<path fill="none" stroke="midnightblue" d="M747.839,-134.475C747.839,-126.08 747.839,-112.981 747.839,-102.163"/>
<polygon fill="midnightblue" stroke="midnightblue" points="751.339,-102.009 747.839,-92.0091 744.339,-102.009 751.339,-102.009"/>
</g>
<!-- Node21 -->
<g id="node21" class="node"><title>Node21</title>
<polygon fill="white" stroke="#bfbfbf" points="786.839,-67.5 786.839,-97.5 898.839,-97.5 898.839,-67.5 786.839,-67.5"/>
<text text-anchor="start" x="794.839" y="-85.5" font-family="Helvetica,sans-Serif" font-size="10.00">boost/icl/continuous</text>
<text text-anchor="middle" x="842.839" y="-74.5" font-family="Helvetica,sans-Serif" font-size="10.00">_interval.hpp</text>
</g>
<!-- Node17&#45;&gt;Node21 -->
<g id="edge32" class="edge"><title>Node17&#45;&gt;Node21</title>
<path fill="none" stroke="midnightblue" d="M761.451,-134.475C774.558,-126.266 794.848,-113.558 811.889,-102.885"/>
<polygon fill="midnightblue" stroke="midnightblue" points="813.833,-105.797 820.45,-97.523 810.117,-99.8648 813.833,-105.797"/>
</g>
<!-- Node22 -->
<g id="node22" class="node"><title>Node22</title>
<g id="a_node22"><a xlink:href="error_8h.xhtml" target="_top" xlink:title="Exceptions for SCRAM. ">
<polygon fill="white" stroke="black" points="622.839,-73 622.839,-92 670.839,-92 670.839,-73 622.839,-73"/>
<text text-anchor="middle" x="646.839" y="-80" font-family="Helvetica,sans-Serif" font-size="10.00">error.h</text>
</a>
</g>
</g>
<!-- Node17&#45;&gt;Node22 -->
<g id="edge35" class="edge"><title>Node17&#45;&gt;Node22</title>
<path fill="none" stroke="midnightblue" d="M733.369,-134.475C716.868,-124.755 689.661,-108.727 670.158,-97.2372"/>
<polygon fill="midnightblue" stroke="midnightblue" points="671.676,-94.0693 661.283,-92.0091 668.123,-100.101 671.676,-94.0693"/>
</g>
<!-- Node22&#45;&gt;Node3 -->
<g id="edge37" class="edge"><title>Node22&#45;&gt;Node3</title>
<path fill="none" stroke="midnightblue" d="M629.533,-72.9847C624.281,-70.7131 618.422,-68.4812 612.839,-67 478.775,-31.4273 436.272,-68.8728 302.839,-31 300.91,-30.4525 298.951,-29.7973 297.003,-29.0723"/>
<polygon fill="midnightblue" stroke="midnightblue" points="298.121,-25.7443 287.55,-25.0419 295.376,-32.1835 298.121,-25.7443"/>
</g>
<!-- Node23 -->
<g id="node23" class="node"><title>Node23</title>
<polygon fill="white" stroke="#bfbfbf" points="808.339,-6 808.339,-25 871.339,-25 871.339,-6 808.339,-6"/>
<text text-anchor="middle" x="839.839" y="-13" font-family="Helvetica,sans-Serif" font-size="10.00">exception</text>
</g>
<!-- Node22&#45;&gt;Node23 -->
<g id="edge36" class="edge"><title>Node22&#45;&gt;Node23</title>
<path fill="none" stroke="midnightblue" d="M668.462,-72.998C673.793,-70.9712 679.505,-68.8583 684.839,-67 735.015,-49.5214 748.452,-47.8603 798.839,-31 801.283,-30.1824 803.803,-29.3252 806.337,-28.4533"/>
<polygon fill="midnightblue" stroke="midnightblue" points="807.748,-31.6681 816.039,-25.0716 805.444,-25.0581 807.748,-31.6681"/>
</g>
<!-- Node24&#45;&gt;Node2 -->
<g id="edge39" class="edge"><title>Node24&#45;&gt;Node2</title>
<path fill="none" stroke="midnightblue" d="M480.117,-251.355C421.323,-245.218 312.972,-231.357 280.839,-210 263.81,-198.681 251.901,-178.074 245.002,-163.09"/>
<polygon fill="midnightblue" stroke="midnightblue" points="248.178,-161.613 241.025,-153.797 241.742,-164.368 248.178,-161.613"/>
</g>
<!-- Node24&#45;&gt;Node3 -->
<g id="edge40" class="edge"><title>Node24&#45;&gt;Node3</title>
<path fill="none" stroke="midnightblue" d="M480.27,-249.471C449.549,-243.608 406.58,-232.025 374.839,-210 323.055,-174.066 313.951,-155.368 287.839,-98 278.715,-77.9533 274.783,-52.8133 273.095,-35.7954"/>
<polygon fill="midnightblue" stroke="midnightblue" points="276.555,-35.1544 272.249,-25.4737 269.578,-35.7262 276.555,-35.1544"/>
</g>
<!-- Node24&#45;&gt;Node5 -->
<g id="edge41" class="edge"><title>Node24&#45;&gt;Node5</title>
<path fill="none" stroke="midnightblue" d="M557.672,-247.037C679.971,-221.581 1051.03,-141.316 1083.84,-98 1097.5,-79.9695 1092.94,-52.7054 1087.58,-34.7528"/>
<polygon fill="midnightblue" stroke="midnightblue" points="1090.87,-33.5483 1084.39,-25.1712 1084.23,-35.7649 1090.87,-33.5483"/>
</g>
<!-- Node24&#45;&gt;Node8 -->
<g id="edge42" class="edge"><title>Node24&#45;&gt;Node8</title>
<path fill="none" stroke="midnightblue" d="M511.806,-246.26C489.932,-219.076 422.849,-135.708 394.121,-100.006"/>
<polygon fill="midnightblue" stroke="midnightblue" points="396.691,-97.6161 387.695,-92.0194 391.237,-102.005 396.691,-97.6161"/>
</g>
<!-- Node24&#45;&gt;Node11 -->
<g id="edge45" class="edge"><title>Node24&#45;&gt;Node11</title>
<path fill="none" stroke="midnightblue" d="M501.487,-246.324C484.168,-237.664 457.324,-224.242 437.337,-214.249"/>
<polygon fill="midnightblue" stroke="midnightblue" points="438.658,-210.996 428.148,-209.655 435.527,-217.257 438.658,-210.996"/>
</g>
<!-- Node24&#45;&gt;Node12 -->
<g id="edge43" class="edge"><title>Node24&#45;&gt;Node12</title>
<path fill="none" stroke="midnightblue" d="M540.322,-246.36C555.231,-239.09 573.95,-227.117 582.839,-210 590.688,-194.887 583.573,-176.068 575.914,-162.574"/>
<polygon fill="midnightblue" stroke="midnightblue" points="578.713,-160.448 570.448,-153.819 572.775,-164.155 578.713,-160.448"/>
</g>
<!-- Node24&#45;&gt;Node13 -->
<g id="edge44" class="edge"><title>Node24&#45;&gt;Node13</title>
<path fill="none" stroke="midnightblue" d="M542.941,-246.348C560.437,-239.01 583.615,-226.956 598.839,-210 616.93,-189.852 617.395,-180.525 622.839,-154 624.627,-145.293 626.261,-142.204 622.839,-134 616.8,-119.521 604.365,-107.068 593.286,-98.1517"/>
<polygon fill="midnightblue" stroke="midnightblue" points="595.295,-95.2832 585.207,-92.0473 591.075,-100.868 595.295,-95.2832"/>
</g>
<!-- Node24&#45;&gt;Node17 -->
<g id="edge46" class="edge"><title>Node24&#45;&gt;Node17</title>
<path fill="none" stroke="midnightblue" d="M553.749,-246.462C581.895,-238.876 622.047,-226.442 654.839,-210 682.684,-196.039 711.612,-174.525 729.662,-160.116"/>
<polygon fill="midnightblue" stroke="midnightblue" points="732.037,-162.696 737.597,-153.677 727.626,-157.261 732.037,-162.696"/>
</g>
<!-- Node25 -->
<g id="node25" class="node"><title>Node25</title>
<g id="a_node25"><a xlink:href="variant_8h.xhtml" target="_top" xlink:title="Extra helper functions for boost::variant. ">
<polygon fill="white" stroke="black" points="497.339,-190.5 497.339,-209.5 574.339,-209.5 574.339,-190.5 497.339,-190.5"/>
<text text-anchor="middle" x="535.839" y="-197.5" font-family="Helvetica,sans-Serif" font-size="10.00">ext/variant.h</text>
</a>
</g>
</g>
<!-- Node24&#45;&gt;Node25 -->
<g id="edge47" class="edge"><title>Node24&#45;&gt;Node25</title>
<path fill="none" stroke="midnightblue" d="M521.647,-246.083C523.924,-238.849 527.211,-228.409 530.048,-219.397"/>
<polygon fill="midnightblue" stroke="midnightblue" points="533.42,-220.341 533.084,-209.751 526.743,-218.239 533.42,-220.341"/>
</g>
<!-- Node25&#45;&gt;Node12 -->
<g id="edge48" class="edge"><title>Node25&#45;&gt;Node12</title>
<path fill="none" stroke="midnightblue" d="M540.463,-190.083C544.296,-182.691 549.864,-171.953 554.604,-162.811"/>
<polygon fill="midnightblue" stroke="midnightblue" points="557.806,-164.24 559.302,-153.751 551.591,-161.018 557.806,-164.24"/>
</g>
<!-- Node26&#45;&gt;Node3 -->
<g id="edge51" class="edge"><title>Node26&#45;&gt;Node3</title>
<path fill="none" stroke="midnightblue" d="M752.799,-246.484C734.067,-224.393 680.484,-164.83 622.839,-134 567.703,-104.512 541.516,-128.331 486.839,-98 469.242,-88.2385 471.556,-76.5432 453.839,-67 393.099,-34.2813 367.979,-53.733 302.839,-31 301.22,-30.4347 299.571,-29.8124 297.92,-29.1533"/>
<polygon fill="midnightblue" stroke="midnightblue" points="299.201,-25.8939 288.635,-25.1139 296.409,-32.3127 299.201,-25.8939"/>
</g>
<!-- Node26&#45;&gt;Node4 -->
<g id="edge52" class="edge"><title>Node26&#45;&gt;Node4</title>
<path fill="none" stroke="midnightblue" d="M777.191,-246.324C794.511,-237.664 821.355,-224.242 841.341,-214.249"/>
<polygon fill="midnightblue" stroke="midnightblue" points="843.151,-217.257 850.53,-209.655 840.021,-210.996 843.151,-217.257"/>
</g>
<!-- Node26&#45;&gt;Node17 -->
<g id="edge53" class="edge"><title>Node26&#45;&gt;Node17</title>
<path fill="none" stroke="midnightblue" d="M763.06,-246.088C767.165,-233.489 773.231,-209.797 768.839,-190 766.715,-180.426 762.333,-170.476 758.118,-162.374"/>
<polygon fill="midnightblue" stroke="midnightblue" points="761.137,-160.601 753.224,-153.557 755.017,-163.999 761.137,-160.601"/>
</g>
</g>
</svg>
