<?xml version="1.0" encoding="UTF-8" standalone="no"?>
<!DOCTYPE svg PUBLIC "-//W3C//DTD SVG 1.1//EN"
 "http://www.w3.org/Graphics/SVG/1.1/DTD/svg11.dtd">
<!-- Generated by graphviz version 2.38.0 (20140413.2041)
 -->
<!-- Title: event.cc Pages: 1 -->
<svg width="1022pt" height="274pt"
 viewBox="0.00 0.00 1021.50 274.00" xmlns="http://www.w3.org/2000/svg" xmlns:xlink="http://www.w3.org/1999/xlink">
<g id="graph0" class="graph" transform="scale(1 1) rotate(0) translate(4 270)">
<title>event.cc</title>
<polygon fill="white" stroke="none" points="-4,4 -4,-270 1017.5,-270 1017.5,4 -4,4"/>
<!-- Node1 -->
<g id="node1" class="node"><title>Node1</title>
<polygon fill="#bfbfbf" stroke="black" points="719,-246.5 719,-265.5 776,-265.5 776,-246.5 719,-246.5"/>
<text text-anchor="middle" x="747.5" y="-253.5" font-family="Helvetica,sans-Serif" font-size="10.00">event.cc</text>
</g>
<!-- Node2 -->
<g id="node2" class="node"><title>Node2</title>
<g id="a_node2"><a xlink:href="event_8h.xhtml" target="_top" xlink:title="Contains event classes for fault trees. ">
<polygon fill="white" stroke="black" points="581,-190.5 581,-209.5 634,-209.5 634,-190.5 581,-190.5"/>
<text text-anchor="middle" x="607.5" y="-197.5" font-family="Helvetica,sans-Serif" font-size="10.00">event.h</text>
</a>
</g>
</g>
<!-- Node1&#45;&gt;Node2 -->
<g id="edge1" class="edge"><title>Node1&#45;&gt;Node2</title>
<path fill="none" stroke="midnightblue" d="M725.317,-246.444C702.072,-237.478 665.351,-223.314 639.085,-213.183"/>
<polygon fill="midnightblue" stroke="midnightblue" points="640.169,-209.85 629.58,-209.516 637.65,-216.381 640.169,-209.85"/>
</g>
<!-- Node18 -->
<g id="node18" class="node"><title>Node18</title>
<g id="a_node18"><a xlink:href="error_8h.xhtml" target="_top" xlink:title="Exceptions for SCRAM. ">
<polygon fill="white" stroke="black" points="7.5,-73 7.5,-92 55.5,-92 55.5,-73 7.5,-73"/>
<text text-anchor="middle" x="31.5" y="-80" font-family="Helvetica,sans-Serif" font-size="10.00">error.h</text>
</a>
</g>
</g>
<!-- Node1&#45;&gt;Node18 -->
<g id="edge28" class="edge"><title>Node1&#45;&gt;Node18</title>
<path fill="none" stroke="midnightblue" d="M718.94,-253.587C632.014,-248.564 363.949,-227.708 156.5,-154 117.155,-140.02 75.7536,-114.13 51.8503,-97.9155"/>
<polygon fill="midnightblue" stroke="midnightblue" points="53.8066,-95.0131 43.5866,-92.2197 49.8339,-100.777 53.8066,-95.0131"/>
</g>
<!-- Node20 -->
<g id="node20" class="node"><title>Node20</title>
<polygon fill="white" stroke="#bfbfbf" points="869.5,-134.5 869.5,-153.5 1013.5,-153.5 1013.5,-134.5 869.5,-134.5"/>
<text text-anchor="middle" x="941.5" y="-141.5" font-family="Helvetica,sans-Serif" font-size="10.00">boost/range/algorithm.hpp</text>
</g>
<!-- Node1&#45;&gt;Node20 -->
<g id="edge27" class="edge"><title>Node1&#45;&gt;Node20</title>
<path fill="none" stroke="midnightblue" d="M776.097,-252.8C809.274,-248.956 864.185,-238.468 901.5,-210 917.267,-197.971 928.271,-177.789 934.691,-163.099"/>
<polygon fill="midnightblue" stroke="midnightblue" points="938.041,-164.151 938.558,-153.569 931.555,-161.519 938.041,-164.151"/>
</g>
<!-- Node21 -->
<g id="node21" class="node"><title>Node21</title>
<g id="a_node21"><a xlink:href="algorithm_8h.xhtml" target="_top" xlink:title="Helpful algorithm facilities as an extension to the STL or Boost. ">
<polygon fill="white" stroke="black" points="804,-190.5 804,-209.5 893,-209.5 893,-190.5 804,-190.5"/>
<text text-anchor="middle" x="848.5" y="-197.5" font-family="Helvetica,sans-Serif" font-size="10.00">ext/algorithm.h</text>
</a>
</g>
</g>
<!-- Node1&#45;&gt;Node21 -->
<g id="edge29" class="edge"><title>Node1&#45;&gt;Node21</title>
<path fill="none" stroke="midnightblue" d="M763.727,-246.324C779.851,-237.703 804.8,-224.364 823.464,-214.386"/>
<polygon fill="midnightblue" stroke="midnightblue" points="825.144,-217.456 832.313,-209.655 821.844,-211.283 825.144,-217.456"/>
</g>
<!-- Node22 -->
<g id="node22" class="node"><title>Node22</title>
<g id="a_node22"><a xlink:href="variant_8h.xhtml" target="_top" xlink:title="Extra helper functions for boost::variant. ">
<polygon fill="white" stroke="black" points="709,-190.5 709,-209.5 786,-209.5 786,-190.5 709,-190.5"/>
<text text-anchor="middle" x="747.5" y="-197.5" font-family="Helvetica,sans-Serif" font-size="10.00">ext/variant.h</text>
</a>
</g>
</g>
<!-- Node1&#45;&gt;Node22 -->
<g id="edge32" class="edge"><title>Node1&#45;&gt;Node22</title>
<path fill="none" stroke="midnightblue" d="M747.5,-246.083C747.5,-239.006 747.5,-228.861 747.5,-219.986"/>
<polygon fill="midnightblue" stroke="midnightblue" points="751,-219.751 747.5,-209.751 744,-219.751 751,-219.751"/>
</g>
<!-- Node3 -->
<g id="node3" class="node"><title>Node3</title>
<polygon fill="white" stroke="#bfbfbf" points="946,-6 946,-25 995,-25 995,-6 946,-6"/>
<text text-anchor="middle" x="970.5" y="-13" font-family="Helvetica,sans-Serif" font-size="10.00">cstdint</text>
</g>
<!-- Node2&#45;&gt;Node3 -->
<g id="edge2" class="edge"><title>Node2&#45;&gt;Node3</title>
<path fill="none" stroke="midnightblue" d="M618.415,-190.39C635.593,-177.108 670.305,-151.346 702.5,-134 739.701,-113.957 751.69,-114.718 790.5,-98 844.928,-74.5546 907.869,-45.6374 943.046,-29.3107"/>
<polygon fill="midnightblue" stroke="midnightblue" points="944.609,-32.444 952.201,-25.0546 941.658,-26.0963 944.609,-32.444"/>
</g>
<!-- Node4 -->
<g id="node4" class="node"><title>Node4</title>
<polygon fill="white" stroke="#bfbfbf" points="484,-134.5 484,-153.5 541,-153.5 541,-134.5 484,-134.5"/>
<text text-anchor="middle" x="512.5" y="-141.5" font-family="Helvetica,sans-Serif" font-size="10.00">memory</text>
</g>
<!-- Node2&#45;&gt;Node4 -->
<g id="edge3" class="edge"><title>Node2&#45;&gt;Node4</title>
<path fill="none" stroke="midnightblue" d="M592.237,-190.324C577.279,-181.822 554.245,-168.729 536.773,-158.797"/>
<polygon fill="midnightblue" stroke="midnightblue" points="538.149,-155.553 527.726,-153.655 534.69,-161.639 538.149,-155.553"/>
</g>
<!-- Node5 -->
<g id="node5" class="node"><title>Node5</title>
<polygon fill="white" stroke="#bfbfbf" points="185.5,-6 185.5,-25 229.5,-25 229.5,-6 185.5,-6"/>
<text text-anchor="middle" x="207.5" y="-13" font-family="Helvetica,sans-Serif" font-size="10.00">string</text>
</g>
<!-- Node2&#45;&gt;Node5 -->
<g id="edge4" class="edge"><title>Node2&#45;&gt;Node5</title>
<path fill="none" stroke="midnightblue" d="M580.783,-197.993C485.258,-193.774 163.112,-174.029 102.5,-98 77.1714,-66.2287 136.358,-39.6067 175.782,-26.0807"/>
<polygon fill="midnightblue" stroke="midnightblue" points="176.92,-29.3909 185.316,-22.9289 174.723,-22.7447 176.92,-29.3909"/>
</g>
<!-- Node6 -->
<g id="node6" class="node"><title>Node6</title>
<polygon fill="white" stroke="#bfbfbf" points="384,-6 384,-25 431,-25 431,-6 384,-6"/>
<text text-anchor="middle" x="407.5" y="-13" font-family="Helvetica,sans-Serif" font-size="10.00">vector</text>
</g>
<!-- Node2&#45;&gt;Node6 -->
<g id="edge5" class="edge"><title>Node2&#45;&gt;Node6</title>
<path fill="none" stroke="midnightblue" d="M609.221,-190.242C613.261,-166.883 620.73,-102.47 588.5,-67 542.975,-16.8981 504.624,-52.6995 440.5,-31 438.633,-30.3681 436.725,-29.6722 434.816,-28.9376"/>
<polygon fill="midnightblue" stroke="midnightblue" points="436.008,-25.6433 425.43,-25.0592 433.335,-32.1128 436.008,-25.6433"/>
</g>
<!-- Node7 -->
<g id="node7" class="node"><title>Node7</title>
<polygon fill="white" stroke="#bfbfbf" points="451.5,-73 451.5,-92 579.5,-92 579.5,-73 451.5,-73"/>
<text text-anchor="middle" x="515.5" y="-80" font-family="Helvetica,sans-Serif" font-size="10.00">boost/noncopyable.hpp</text>
</g>
<!-- Node2&#45;&gt;Node7 -->
<g id="edge6" class="edge"><title>Node2&#45;&gt;Node7</title>
<path fill="none" stroke="midnightblue" d="M600.585,-190.319C585.334,-171.172 548.592,-125.044 528.747,-100.131"/>
<polygon fill="midnightblue" stroke="midnightblue" points="531.463,-97.9233 522.495,-92.282 525.988,-102.285 531.463,-97.9233"/>
</g>
<!-- Node8 -->
<g id="node8" class="node"><title>Node8</title>
<polygon fill="white" stroke="#bfbfbf" points="712,-134.5 712,-153.5 813,-153.5 813,-134.5 712,-134.5"/>
<text text-anchor="middle" x="762.5" y="-141.5" font-family="Helvetica,sans-Serif" font-size="10.00">boost/variant.hpp</text>
</g>
<!-- Node2&#45;&gt;Node8 -->
<g id="edge7" class="edge"><title>Node2&#45;&gt;Node8</title>
<path fill="none" stroke="midnightblue" d="M632.06,-190.444C658.023,-181.399 699.168,-167.064 728.297,-156.916"/>
<polygon fill="midnightblue" stroke="midnightblue" points="729.763,-160.112 738.055,-153.516 727.46,-153.501 729.763,-160.112"/>
</g>
<!-- Node9 -->
<g id="node9" class="node"><title>Node9</title>
<g id="a_node9"><a xlink:href="element_8h.xhtml" target="_top" xlink:title="Helper classes, structs, and properties common to all other classes. ">
<polygon fill="white" stroke="black" points="636,-73 636,-92 701,-92 701,-73 636,-73"/>
<text text-anchor="middle" x="668.5" y="-80" font-family="Helvetica,sans-Serif" font-size="10.00">element.h</text>
</a>
</g>
</g>
<!-- Node2&#45;&gt;Node9 -->
<g id="edge8" class="edge"><title>Node2&#45;&gt;Node9</title>
<path fill="none" stroke="midnightblue" d="M612.085,-190.319C622.021,-171.506 645.712,-126.648 659.017,-101.455"/>
<polygon fill="midnightblue" stroke="midnightblue" points="662.287,-102.759 663.862,-92.282 656.097,-99.49 662.287,-102.759"/>
</g>
<!-- Node13 -->
<g id="node13" class="node"><title>Node13</title>
<g id="a_node13"><a xlink:href="expression_8h.xhtml" target="_top" xlink:title="Provides the base class for all expressions and units for expression values. ">
<polygon fill="white" stroke="black" points="357,-134.5 357,-153.5 434,-153.5 434,-134.5 357,-134.5"/>
<text text-anchor="middle" x="395.5" y="-141.5" font-family="Helvetica,sans-Serif" font-size="10.00">expression.h</text>
</a>
</g>
</g>
<!-- Node2&#45;&gt;Node13 -->
<g id="edge15" class="edge"><title>Node2&#45;&gt;Node13</title>
<path fill="none" stroke="midnightblue" d="M580.65,-192.161C544.96,-183.07 481.458,-166.895 438.913,-156.058"/>
<polygon fill="midnightblue" stroke="midnightblue" points="439.665,-152.638 429.11,-153.561 437.937,-159.421 439.665,-152.638"/>
</g>
<!-- Node9&#45;&gt;Node3 -->
<g id="edge9" class="edge"><title>Node9&#45;&gt;Node3</title>
<path fill="none" stroke="midnightblue" d="M690.951,-72.9401C697.213,-70.7752 704.064,-68.6104 710.5,-67 809.169,-42.3101 838.765,-59.1612 936.5,-31 938.789,-30.3404 941.13,-29.5671 943.458,-28.7271"/>
<polygon fill="midnightblue" stroke="midnightblue" points="944.799,-31.9607 952.801,-25.0177 942.216,-25.4546 944.799,-31.9607"/>
</g>
<!-- Node9&#45;&gt;Node5 -->
<g id="edge10" class="edge"><title>Node9&#45;&gt;Node5</title>
<path fill="none" stroke="midnightblue" d="M635.864,-75.2224C621.383,-72.5306 604.118,-69.449 588.5,-67 459.868,-46.8296 305.964,-28.0671 240.054,-20.2858"/>
<polygon fill="midnightblue" stroke="midnightblue" points="240.225,-16.7818 229.884,-19.0899 239.407,-23.7339 240.225,-16.7818"/>
</g>
<!-- Node9&#45;&gt;Node6 -->
<g id="edge11" class="edge"><title>Node9&#45;&gt;Node6</title>
<path fill="none" stroke="midnightblue" d="M642.285,-72.8902C635.55,-70.8222 628.288,-68.7174 621.5,-67 541.985,-46.8836 518.731,-55.6431 440.5,-31 438.575,-30.3936 436.611,-29.7099 434.649,-28.978"/>
<polygon fill="midnightblue" stroke="midnightblue" points="435.62,-25.5937 425.039,-25.0512 432.972,-32.0736 435.62,-25.5937"/>
</g>
<!-- Node10 -->
<g id="node10" class="node"><title>Node10</title>
<polygon fill="white" stroke="#bfbfbf" points="597.5,-6 597.5,-25 769.5,-25 769.5,-6 597.5,-6"/>
<text text-anchor="middle" x="683.5" y="-13" font-family="Helvetica,sans-Serif" font-size="10.00">boost/multi_index_container.hpp</text>
</g>
<!-- Node9&#45;&gt;Node10 -->
<g id="edge12" class="edge"><title>Node9&#45;&gt;Node10</title>
<path fill="none" stroke="midnightblue" d="M670.523,-72.7338C672.75,-63.0852 676.392,-47.3001 679.252,-34.9063"/>
<polygon fill="midnightblue" stroke="midnightblue" points="682.671,-35.6583 681.509,-25.1273 675.85,-34.0842 682.671,-35.6583"/>
</g>
<!-- Node11 -->
<g id="node11" class="node"><title>Node11</title>
<polygon fill="white" stroke="#bfbfbf" points="787.5,-0.5 787.5,-30.5 927.5,-30.5 927.5,-0.5 787.5,-0.5"/>
<text text-anchor="start" x="795.5" y="-18.5" font-family="Helvetica,sans-Serif" font-size="10.00">boost/multi_index/hashed</text>
<text text-anchor="middle" x="857.5" y="-7.5" font-family="Helvetica,sans-Serif" font-size="10.00">_index.hpp</text>
</g>
<!-- Node9&#45;&gt;Node11 -->
<g id="edge13" class="edge"><title>Node9&#45;&gt;Node11</title>
<path fill="none" stroke="midnightblue" d="M693.372,-72.9064C699.003,-70.9625 704.957,-68.909 710.5,-67 742.567,-55.9567 778.578,-43.5848 806.932,-33.8507"/>
<polygon fill="midnightblue" stroke="midnightblue" points="808.301,-37.0813 816.623,-30.5241 806.029,-30.4605 808.301,-37.0813"/>
</g>
<!-- Node12 -->
<g id="node12" class="node"><title>Node12</title>
<polygon fill="white" stroke="#bfbfbf" points="449.5,-0.5 449.5,-30.5 579.5,-30.5 579.5,-0.5 449.5,-0.5"/>
<text text-anchor="start" x="457.5" y="-18.5" font-family="Helvetica,sans-Serif" font-size="10.00">boost/multi_index/mem</text>
<text text-anchor="middle" x="514.5" y="-7.5" font-family="Helvetica,sans-Serif" font-size="10.00">_fun.hpp</text>
</g>
<!-- Node9&#45;&gt;Node12 -->
<g id="edge14" class="edge"><title>Node9&#45;&gt;Node12</title>
<path fill="none" stroke="midnightblue" d="M648.05,-72.8685C624.942,-63.115 586.689,-46.9696 557.032,-34.452"/>
<polygon fill="midnightblue" stroke="midnightblue" points="558.31,-31.1922 547.736,-30.5281 555.588,-37.6413 558.31,-31.1922"/>
</g>
<!-- Node13&#45;&gt;Node5 -->
<g id="edge18" class="edge"><title>Node13&#45;&gt;Node5</title>
<path fill="none" stroke="midnightblue" d="M382.337,-134.331C369.053,-125.479 348.049,-111.201 330.5,-98 313.082,-84.8977 310.363,-79.4895 292.5,-67 273.034,-53.3896 249.778,-39.7382 232.516,-30.0667"/>
<polygon fill="midnightblue" stroke="midnightblue" points="234.048,-26.9143 223.604,-25.1286 230.655,-33.037 234.048,-26.9143"/>
</g>
<!-- Node13&#45;&gt;Node6 -->
<g id="edge20" class="edge"><title>Node13&#45;&gt;Node6</title>
<path fill="none" stroke="midnightblue" d="M397.639,-134.439C399.789,-125.434 402.992,-110.819 404.5,-98 407.002,-76.7269 407.595,-52.1353 407.661,-35.5761"/>
<polygon fill="midnightblue" stroke="midnightblue" points="411.16,-35.0919 407.636,-25.1004 404.16,-35.1088 411.16,-35.0919"/>
</g>
<!-- Node13&#45;&gt;Node7 -->
<g id="edge22" class="edge"><title>Node13&#45;&gt;Node7</title>
<path fill="none" stroke="midnightblue" d="M412.693,-134.475C432.743,-124.534 466.099,-107.995 489.36,-96.461"/>
<polygon fill="midnightblue" stroke="midnightblue" points="490.934,-99.5871 498.339,-92.0091 487.825,-93.3157 490.934,-99.5871"/>
</g>
<!-- Node13&#45;&gt;Node9 -->
<g id="edge23" class="edge"><title>Node13&#45;&gt;Node9</title>
<path fill="none" stroke="midnightblue" d="M434.035,-134.601C484.605,-123.58 573.089,-104.295 625.694,-92.8295"/>
<polygon fill="midnightblue" stroke="midnightblue" points="626.69,-96.1947 635.715,-90.6454 625.199,-89.3553 626.69,-96.1947"/>
</g>
<!-- Node14 -->
<g id="node14" class="node"><title>Node14</title>
<polygon fill="white" stroke="#bfbfbf" points="719.5,-73 719.5,-92 781.5,-92 781.5,-73 719.5,-73"/>
<text text-anchor="middle" x="750.5" y="-80" font-family="Helvetica,sans-Serif" font-size="10.00">algorithm</text>
</g>
<!-- Node13&#45;&gt;Node14 -->
<g id="edge16" class="edge"><title>Node13&#45;&gt;Node14</title>
<path fill="none" stroke="midnightblue" d="M434.093,-138.438C506.025,-129.774 657.961,-110.675 709.5,-98 712.554,-97.2489 715.7,-96.3584 718.827,-95.3936"/>
<polygon fill="midnightblue" stroke="midnightblue" points="720.229,-98.6157 728.614,-92.139 718.02,-91.9734 720.229,-98.6157"/>
</g>
<!-- Node15 -->
<g id="node15" class="node"><title>Node15</title>
<polygon fill="white" stroke="#bfbfbf" points="339.5,-73 339.5,-92 395.5,-92 395.5,-73 339.5,-73"/>
<text text-anchor="middle" x="367.5" y="-80" font-family="Helvetica,sans-Serif" font-size="10.00">sstream</text>
</g>
<!-- Node13&#45;&gt;Node15 -->
<g id="edge17" class="edge"><title>Node13&#45;&gt;Node15</title>
<path fill="none" stroke="midnightblue" d="M391.488,-134.475C387.413,-125.815 380.982,-112.149 375.804,-101.145"/>
<polygon fill="midnightblue" stroke="midnightblue" points="378.929,-99.567 371.504,-92.0091 372.595,-102.548 378.929,-99.567"/>
</g>
<!-- Node16 -->
<g id="node16" class="node"><title>Node16</title>
<polygon fill="white" stroke="#bfbfbf" points="111.5,-73 111.5,-92 153.5,-92 153.5,-73 111.5,-73"/>
<text text-anchor="middle" x="132.5" y="-80" font-family="Helvetica,sans-Serif" font-size="10.00">utility</text>
</g>
<!-- Node13&#45;&gt;Node16 -->
<g id="edge19" class="edge"><title>Node13&#45;&gt;Node16</title>
<path fill="none" stroke="midnightblue" d="M356.787,-138.647C309.909,-132.669 228.972,-120.065 162.5,-98 160.877,-97.4612 159.229,-96.8535 157.583,-96.2"/>
<polygon fill="midnightblue" stroke="midnightblue" points="158.932,-92.9697 148.371,-92.1168 156.095,-99.3691 158.932,-92.9697"/>
</g>
<!-- Node17 -->
<g id="node17" class="node"><title>Node17</title>
<polygon fill="white" stroke="#bfbfbf" points="171.5,-67.5 171.5,-97.5 283.5,-97.5 283.5,-67.5 171.5,-67.5"/>
<text text-anchor="start" x="179.5" y="-85.5" font-family="Helvetica,sans-Serif" font-size="10.00">boost/icl/continuous</text>
<text text-anchor="middle" x="227.5" y="-74.5" font-family="Helvetica,sans-Serif" font-size="10.00">_interval.hpp</text>
</g>
<!-- Node13&#45;&gt;Node17 -->
<g id="edge21" class="edge"><title>Node13&#45;&gt;Node17</title>
<path fill="none" stroke="midnightblue" d="M371.43,-134.475C346.869,-125.776 308.045,-112.026 276.906,-100.998"/>
<polygon fill="midnightblue" stroke="midnightblue" points="277.689,-97.5623 267.094,-97.523 275.352,-104.161 277.689,-97.5623"/>
</g>
<!-- Node13&#45;&gt;Node18 -->
<g id="edge24" class="edge"><title>Node13&#45;&gt;Node18</title>
<path fill="none" stroke="midnightblue" d="M356.536,-137.636C300.301,-129.754 193.183,-114.214 102.5,-98 90.431,-95.8421 77.2618,-93.2259 65.5791,-90.813"/>
<polygon fill="midnightblue" stroke="midnightblue" points="66.2646,-87.3807 55.7601,-88.7615 64.8329,-94.2328 66.2646,-87.3807"/>
</g>
<!-- Node18&#45;&gt;Node5 -->
<g id="edge26" class="edge"><title>Node18&#45;&gt;Node5</title>
<path fill="none" stroke="midnightblue" d="M53.9855,-72.8616C59.0818,-70.92 64.4731,-68.8788 69.5,-67 105.895,-53.3976 147.827,-38.1068 175.828,-27.9505"/>
<polygon fill="midnightblue" stroke="midnightblue" points="177.268,-31.1514 185.477,-24.4537 174.883,-24.5702 177.268,-31.1514"/>
</g>
<!-- Node19 -->
<g id="node19" class="node"><title>Node19</title>
<polygon fill="white" stroke="#bfbfbf" points="0,-6 0,-25 63,-25 63,-6 0,-6"/>
<text text-anchor="middle" x="31.5" y="-13" font-family="Helvetica,sans-Serif" font-size="10.00">exception</text>
</g>
<!-- Node18&#45;&gt;Node19 -->
<g id="edge25" class="edge"><title>Node18&#45;&gt;Node19</title>
<path fill="none" stroke="midnightblue" d="M31.5,-72.7338C31.5,-63.1826 31.5,-47.6183 31.5,-35.2829"/>
<polygon fill="midnightblue" stroke="midnightblue" points="35.0001,-35.1273 31.5,-25.1273 28.0001,-35.1273 35.0001,-35.1273"/>
</g>
<!-- Node21&#45;&gt;Node14 -->
<g id="edge30" class="edge"><title>Node21&#45;&gt;Node14</title>
<path fill="none" stroke="midnightblue" d="M846.512,-190.205C843.162,-176.906 835.365,-151.389 821.5,-134 809.317,-118.721 791.349,-106.002 776.538,-97.151"/>
<polygon fill="midnightblue" stroke="midnightblue" points="778.221,-94.0816 767.803,-92.1512 774.743,-100.157 778.221,-94.0816"/>
</g>
<!-- Node21&#45;&gt;Node20 -->
<g id="edge31" class="edge"><title>Node21&#45;&gt;Node20</title>
<path fill="none" stroke="midnightblue" d="M863.442,-190.324C878.085,-181.822 900.634,-168.729 917.738,-158.797"/>
<polygon fill="midnightblue" stroke="midnightblue" points="919.705,-161.703 926.595,-153.655 916.19,-155.649 919.705,-161.703"/>
</g>
<!-- Node22&#45;&gt;Node8 -->
<g id="edge33" class="edge"><title>Node22&#45;&gt;Node8</title>
<path fill="none" stroke="midnightblue" d="M749.977,-190.083C751.986,-182.849 754.886,-172.409 757.39,-163.397"/>
<polygon fill="midnightblue" stroke="midnightblue" points="760.765,-164.323 760.069,-153.751 754.02,-162.449 760.765,-164.323"/>
</g>
</g>
</svg>
