<?xml version="1.0" encoding="UTF-8" standalone="no"?>
<!DOCTYPE svg PUBLIC "-//W3C//DTD SVG 1.1//EN"
 "http://www.w3.org/Graphics/SVG/1.1/DTD/svg11.dtd">
<!-- Generated by graphviz version 2.38.0 (20140413.2041)
 -->
<!-- Title: event_tree.h Pages: 1 -->
<svg width="1086pt" height="274pt"
 viewBox="0.00 0.00 1086.20 274.00" xmlns="http://www.w3.org/2000/svg" xmlns:xlink="http://www.w3.org/1999/xlink">
<g id="graph0" class="graph" transform="scale(1 1) rotate(0) translate(4 270)">
<title>event_tree.h</title>
<polygon fill="white" stroke="none" points="-4,4 -4,-270 1082.2,-270 1082.2,4 -4,4"/>
<!-- Node1 -->
<g id="node1" class="node"><title>Node1</title>
<polygon fill="#bfbfbf" stroke="black" points="253,-246.5 253,-265.5 330,-265.5 330,-246.5 253,-246.5"/>
<text text-anchor="middle" x="291.5" y="-253.5" font-family="Helvetica,sans-Serif" font-size="10.00">event_tree.h</text>
</g>
<!-- Node2 -->
<g id="node2" class="node"><title>Node2</title>
<polygon fill="white" stroke="#bfbfbf" points="102,-134.5 102,-153.5 159,-153.5 159,-134.5 102,-134.5"/>
<text text-anchor="middle" x="130.5" y="-141.5" font-family="Helvetica,sans-Serif" font-size="10.00">memory</text>
</g>
<!-- Node1&#45;&gt;Node2 -->
<g id="edge1" class="edge"><title>Node1&#45;&gt;Node2</title>
<path fill="none" stroke="midnightblue" d="M254.521,-246.451C230.484,-239.545 199.463,-227.968 176.5,-210 160.223,-197.264 147.269,-177.235 139.308,-162.776"/>
<polygon fill="midnightblue" stroke="midnightblue" points="142.355,-161.048 134.615,-153.813 136.153,-164.295 142.355,-161.048"/>
</g>
<!-- Node3 -->
<g id="node3" class="node"><title>Node3</title>
<polygon fill="white" stroke="#bfbfbf" points="629.5,-6 629.5,-25 673.5,-25 673.5,-6 629.5,-6"/>
<text text-anchor="middle" x="651.5" y="-13" font-family="Helvetica,sans-Serif" font-size="10.00">string</text>
</g>
<!-- Node1&#45;&gt;Node3 -->
<g id="edge2" class="edge"><title>Node1&#45;&gt;Node3</title>
<path fill="none" stroke="midnightblue" d="M330.221,-253.471C474.409,-246.885 976.769,-215.694 1071.5,-98 1080.14,-87.267 1080.64,-77.3075 1071.5,-67 1045.81,-38.0347 777.464,-22.5229 683.657,-17.9542"/>
<polygon fill="midnightblue" stroke="midnightblue" points="683.768,-14.4557 673.612,-17.4746 683.434,-21.4477 683.768,-14.4557"/>
</g>
<!-- Node4 -->
<g id="node4" class="node"><title>Node4</title>
<polygon fill="white" stroke="#bfbfbf" points="0,-6 0,-25 47,-25 47,-6 0,-6"/>
<text text-anchor="middle" x="23.5" y="-13" font-family="Helvetica,sans-Serif" font-size="10.00">vector</text>
</g>
<!-- Node1&#45;&gt;Node4 -->
<g id="edge3" class="edge"><title>Node1&#45;&gt;Node4</title>
<path fill="none" stroke="midnightblue" d="M252.801,-250.362C203.061,-243.683 120.375,-229.931 97.5,-210 44.1722,-163.536 29.1076,-74.2711 24.989,-35.3828"/>
<polygon fill="midnightblue" stroke="midnightblue" points="28.438,-34.6697 24.0319,-25.0345 21.4678,-35.3144 28.438,-34.6697"/>
</g>
<!-- Node5 -->
<g id="node5" class="node"><title>Node5</title>
<polygon fill="white" stroke="#bfbfbf" points="448.5,-73 448.5,-92 576.5,-92 576.5,-73 448.5,-73"/>
<text text-anchor="middle" x="512.5" y="-80" font-family="Helvetica,sans-Serif" font-size="10.00">boost/noncopyable.hpp</text>
</g>
<!-- Node1&#45;&gt;Node5 -->
<g id="edge4" class="edge"><title>Node1&#45;&gt;Node5</title>
<path fill="none" stroke="midnightblue" d="M312.753,-246.405C347.247,-231.639 416.122,-198.679 461.5,-154 477.924,-137.829 492.887,-115.891 502.296,-100.804"/>
<polygon fill="midnightblue" stroke="midnightblue" points="505.438,-102.373 507.637,-92.009 499.455,-98.7399 505.438,-102.373"/>
</g>
<!-- Node6 -->
<g id="node6" class="node"><title>Node6</title>
<polygon fill="white" stroke="#bfbfbf" points="177,-134.5 177,-153.5 278,-153.5 278,-134.5 177,-134.5"/>
<text text-anchor="middle" x="227.5" y="-141.5" font-family="Helvetica,sans-Serif" font-size="10.00">boost/variant.hpp</text>
</g>
<!-- Node1&#45;&gt;Node6 -->
<g id="edge5" class="edge"><title>Node1&#45;&gt;Node6</title>
<path fill="none" stroke="midnightblue" d="M290.205,-246.476C287.957,-233.532 282.48,-208.471 271.5,-190 264.831,-178.782 254.808,-168.236 246.011,-160.178"/>
<polygon fill="midnightblue" stroke="midnightblue" points="248.24,-157.477 238.409,-153.528 243.632,-162.746 248.24,-157.477"/>
</g>
<!-- Node7 -->
<g id="node7" class="node"><title>Node7</title>
<g id="a_node7"><a xlink:href="element_8h.xhtml" target="_top" xlink:title="Helper classes, structs, and properties common to all other classes. ">
<polygon fill="white" stroke="black" points="289,-73 289,-92 354,-92 354,-73 289,-73"/>
<text text-anchor="middle" x="321.5" y="-80" font-family="Helvetica,sans-Serif" font-size="10.00">element.h</text>
</a>
</g>
</g>
<!-- Node1&#45;&gt;Node7 -->
<g id="edge6" class="edge"><title>Node1&#45;&gt;Node7</title>
<path fill="none" stroke="midnightblue" d="M252.945,-247.791C182.265,-232.911 43.494,-194.99 92.5,-134 115.413,-105.483 219.006,-92.1174 278.714,-86.6838"/>
<polygon fill="midnightblue" stroke="midnightblue" points="279.31,-90.1453 288.968,-85.7893 278.701,-83.1718 279.31,-90.1453"/>
</g>
<!-- Node12 -->
<g id="node12" class="node"><title>Node12</title>
<g id="a_node12"><a xlink:href="event_8h.xhtml" target="_top" xlink:title="Contains event classes for fault trees. ">
<polygon fill="white" stroke="black" points="320,-190.5 320,-209.5 373,-209.5 373,-190.5 320,-190.5"/>
<text text-anchor="middle" x="346.5" y="-197.5" font-family="Helvetica,sans-Serif" font-size="10.00">event.h</text>
</a>
</g>
</g>
<!-- Node1&#45;&gt;Node12 -->
<g id="edge13" class="edge"><title>Node1&#45;&gt;Node12</title>
<path fill="none" stroke="midnightblue" d="M300.582,-246.083C308.671,-238.141 320.695,-226.335 330.41,-216.797"/>
<polygon fill="midnightblue" stroke="midnightblue" points="332.903,-219.254 337.587,-209.751 327.999,-214.26 332.903,-219.254"/>
</g>
<!-- Node13 -->
<g id="node13" class="node"><title>Node13</title>
<g id="a_node13"><a xlink:href="expression_8h.xhtml" target="_top" xlink:title="Provides the base class for all expressions and units for expression values. ">
<polygon fill="white" stroke="black" points="604,-134.5 604,-153.5 681,-153.5 681,-134.5 604,-134.5"/>
<text text-anchor="middle" x="642.5" y="-141.5" font-family="Helvetica,sans-Serif" font-size="10.00">expression.h</text>
</a>
</g>
</g>
<!-- Node1&#45;&gt;Node13 -->
<g id="edge33" class="edge"><title>Node1&#45;&gt;Node13</title>
<path fill="none" stroke="midnightblue" d="M330.057,-251.117C376.707,-245.601 457.12,-233.452 522.5,-210 558.958,-196.922 597.788,-174.041 621.093,-159.21"/>
<polygon fill="midnightblue" stroke="midnightblue" points="623.297,-161.953 629.795,-153.584 619.496,-156.074 623.297,-161.953"/>
</g>
<!-- Node20 -->
<g id="node20" class="node"><title>Node20</title>
<g id="a_node20"><a xlink:href="variant_8h.xhtml" target="_top" xlink:title="Extra helper functions for boost::variant. ">
<polygon fill="white" stroke="black" points="186,-190.5 186,-209.5 263,-209.5 263,-190.5 186,-190.5"/>
<text text-anchor="middle" x="224.5" y="-197.5" font-family="Helvetica,sans-Serif" font-size="10.00">ext/variant.h</text>
</a>
</g>
</g>
<!-- Node1&#45;&gt;Node20 -->
<g id="edge34" class="edge"><title>Node1&#45;&gt;Node20</title>
<path fill="none" stroke="midnightblue" d="M280.735,-246.324C270.734,-238.263 255.613,-226.077 243.57,-216.369"/>
<polygon fill="midnightblue" stroke="midnightblue" points="245.443,-213.384 235.461,-209.834 241.05,-218.834 245.443,-213.384"/>
</g>
<!-- Node7&#45;&gt;Node3 -->
<g id="edge8" class="edge"><title>Node7&#45;&gt;Node3</title>
<path fill="none" stroke="midnightblue" d="M354.193,-75.911C369.994,-73.2128 389.232,-69.9321 406.5,-67 501.154,-50.9276 527.678,-59.046 619.5,-31 621.425,-30.412 623.385,-29.7347 625.34,-29.0008"/>
<polygon fill="midnightblue" stroke="midnightblue" points="627.001,-32.0999 634.876,-25.0121 624.3,-25.642 627.001,-32.0999"/>
</g>
<!-- Node7&#45;&gt;Node4 -->
<g id="edge9" class="edge"><title>Node7&#45;&gt;Node4</title>
<path fill="none" stroke="midnightblue" d="M295.815,-72.8873C288.942,-70.7722 281.482,-68.6454 274.5,-67 178.918,-44.4734 150.633,-58.9707 56.5,-31 54.3555,-30.3628 52.1664,-29.6208 49.987,-28.8156"/>
<polygon fill="midnightblue" stroke="midnightblue" points="51.2437,-25.5483 40.6625,-25.0113 48.5993,-32.0296 51.2437,-25.5483"/>
</g>
<!-- Node8 -->
<g id="node8" class="node"><title>Node8</title>
<polygon fill="white" stroke="#bfbfbf" points="562,-6 562,-25 611,-25 611,-6 562,-6"/>
<text text-anchor="middle" x="586.5" y="-13" font-family="Helvetica,sans-Serif" font-size="10.00">cstdint</text>
</g>
<!-- Node7&#45;&gt;Node8 -->
<g id="edge7" class="edge"><title>Node7&#45;&gt;Node8</title>
<path fill="none" stroke="midnightblue" d="M347.711,-72.8755C354.446,-70.8078 361.709,-68.7068 368.5,-67 449.315,-46.6889 472.848,-55.479 552.5,-31 554.643,-30.3414 556.834,-29.5925 559.021,-28.7902"/>
<polygon fill="midnightblue" stroke="midnightblue" points="560.42,-32.0006 568.412,-25.0455 557.827,-25.4984 560.42,-32.0006"/>
</g>
<!-- Node9 -->
<g id="node9" class="node"><title>Node9</title>
<polygon fill="white" stroke="#bfbfbf" points="65.5,-6 65.5,-25 237.5,-25 237.5,-6 65.5,-6"/>
<text text-anchor="middle" x="151.5" y="-13" font-family="Helvetica,sans-Serif" font-size="10.00">boost/multi_index_container.hpp</text>
</g>
<!-- Node7&#45;&gt;Node9 -->
<g id="edge10" class="edge"><title>Node7&#45;&gt;Node9</title>
<path fill="none" stroke="midnightblue" d="M298.925,-72.8685C269.25,-61.5219 216.949,-41.5246 183.283,-28.6522"/>
<polygon fill="midnightblue" stroke="midnightblue" points="184.488,-25.3659 173.897,-25.0637 181.988,-31.9043 184.488,-25.3659"/>
</g>
<!-- Node10 -->
<g id="node10" class="node"><title>Node10</title>
<polygon fill="white" stroke="#bfbfbf" points="255.5,-0.5 255.5,-30.5 395.5,-30.5 395.5,-0.5 255.5,-0.5"/>
<text text-anchor="start" x="263.5" y="-18.5" font-family="Helvetica,sans-Serif" font-size="10.00">boost/multi_index/hashed</text>
<text text-anchor="middle" x="325.5" y="-7.5" font-family="Helvetica,sans-Serif" font-size="10.00">_index.hpp</text>
</g>
<!-- Node7&#45;&gt;Node10 -->
<g id="edge11" class="edge"><title>Node7&#45;&gt;Node10</title>
<path fill="none" stroke="midnightblue" d="M322.039,-72.7338C322.544,-64.5406 323.32,-51.9225 324.01,-40.7136"/>
<polygon fill="midnightblue" stroke="midnightblue" points="327.512,-40.7851 324.633,-30.589 320.525,-40.3551 327.512,-40.7851"/>
</g>
<!-- Node11 -->
<g id="node11" class="node"><title>Node11</title>
<polygon fill="white" stroke="#bfbfbf" points="413.5,-0.5 413.5,-30.5 543.5,-30.5 543.5,-0.5 413.5,-0.5"/>
<text text-anchor="start" x="421.5" y="-18.5" font-family="Helvetica,sans-Serif" font-size="10.00">boost/multi_index/mem</text>
<text text-anchor="middle" x="478.5" y="-7.5" font-family="Helvetica,sans-Serif" font-size="10.00">_fun.hpp</text>
</g>
<!-- Node7&#45;&gt;Node11 -->
<g id="edge12" class="edge"><title>Node7&#45;&gt;Node11</title>
<path fill="none" stroke="midnightblue" d="M342.348,-72.8685C365.907,-63.115 404.904,-46.9696 435.139,-34.452"/>
<polygon fill="midnightblue" stroke="midnightblue" points="436.716,-37.5872 444.617,-30.5281 434.039,-31.1196 436.716,-37.5872"/>
</g>
<!-- Node12&#45;&gt;Node2 -->
<g id="edge15" class="edge"><title>Node12&#45;&gt;Node2</title>
<path fill="none" stroke="midnightblue" d="M319.58,-192.27C281.68,-182.795 212.385,-165.471 169.033,-154.633"/>
<polygon fill="midnightblue" stroke="midnightblue" points="169.686,-151.189 159.136,-152.159 167.989,-157.98 169.686,-151.189"/>
</g>
<!-- Node12&#45;&gt;Node3 -->
<g id="edge16" class="edge"><title>Node12&#45;&gt;Node3</title>
<path fill="none" stroke="midnightblue" d="M352.173,-190.168C370.389,-161.926 426.932,-75.1841 439.5,-67 507.867,-22.4804 541.84,-55.9985 619.5,-31 621.372,-30.3973 623.281,-29.7163 625.187,-28.9863"/>
<polygon fill="midnightblue" stroke="midnightblue" points="626.652,-32.1671 634.513,-25.064 623.938,-25.7145 626.652,-32.1671"/>
</g>
<!-- Node12&#45;&gt;Node4 -->
<g id="edge17" class="edge"><title>Node12&#45;&gt;Node4</title>
<path fill="none" stroke="midnightblue" d="M340.378,-190.379C330.407,-176.85 309.453,-150.482 286.5,-134 281.346,-130.299 118.967,-58.5726 51.9723,-29.0408"/>
<polygon fill="midnightblue" stroke="midnightblue" points="53.3723,-25.833 42.81,-25.0029 50.5493,-32.2386 53.3723,-25.833"/>
</g>
<!-- Node12&#45;&gt;Node5 -->
<g id="edge18" class="edge"><title>Node12&#45;&gt;Node5</title>
<path fill="none" stroke="midnightblue" d="M366.918,-190.407C385.321,-182.241 412.747,-169.004 434.5,-154 458.081,-137.735 482.063,-114.917 497.093,-99.6934"/>
<polygon fill="midnightblue" stroke="midnightblue" points="500.005,-101.719 504.462,-92.1069 494.984,-96.8412 500.005,-101.719"/>
</g>
<!-- Node12&#45;&gt;Node6 -->
<g id="edge19" class="edge"><title>Node12&#45;&gt;Node6</title>
<path fill="none" stroke="midnightblue" d="M327.644,-190.444C308.234,-181.636 277.77,-167.812 255.535,-157.722"/>
<polygon fill="midnightblue" stroke="midnightblue" points="256.82,-154.462 246.268,-153.516 253.928,-160.836 256.82,-154.462"/>
</g>
<!-- Node12&#45;&gt;Node7 -->
<g id="edge20" class="edge"><title>Node12&#45;&gt;Node7</title>
<path fill="none" stroke="midnightblue" d="M344.621,-190.319C340.585,-171.673 331.011,-127.443 325.533,-102.132"/>
<polygon fill="midnightblue" stroke="midnightblue" points="328.937,-101.315 323.401,-92.282 322.096,-102.796 328.937,-101.315"/>
</g>
<!-- Node12&#45;&gt;Node8 -->
<g id="edge14" class="edge"><title>Node12&#45;&gt;Node8</title>
<path fill="none" stroke="midnightblue" d="M347.788,-190.346C351.784,-166.684 366.217,-100.448 406.5,-67 457.918,-24.3063 489.112,-52.1776 552.5,-31 554.417,-30.3595 556.377,-29.657 558.341,-28.9176"/>
<polygon fill="midnightblue" stroke="midnightblue" points="560.034,-32.0091 568.003,-25.0279 557.42,-25.5155 560.034,-32.0091"/>
</g>
<!-- Node12&#45;&gt;Node13 -->
<g id="edge21" class="edge"><title>Node12&#45;&gt;Node13</title>
<path fill="none" stroke="midnightblue" d="M373.029,-194.16C422.763,-185.087 530.682,-165.399 593.82,-153.881"/>
<polygon fill="midnightblue" stroke="midnightblue" points="594.721,-157.274 603.93,-152.036 593.464,-150.388 594.721,-157.274"/>
</g>
<!-- Node13&#45;&gt;Node3 -->
<g id="edge24" class="edge"><title>Node13&#45;&gt;Node3</title>
<path fill="none" stroke="midnightblue" d="M643.119,-134.305C644.564,-113.994 648.188,-63.0532 650.164,-35.2768"/>
<polygon fill="midnightblue" stroke="midnightblue" points="653.658,-35.4789 650.877,-25.2557 646.676,-34.9821 653.658,-35.4789"/>
</g>
<!-- Node13&#45;&gt;Node4 -->
<g id="edge26" class="edge"><title>Node13&#45;&gt;Node4</title>
<path fill="none" stroke="midnightblue" d="M639.037,-134.473C631.853,-118.043 613.616,-82.2731 585.5,-67 481.963,-10.7566 170.923,-59.1193 56.5,-31 54.1414,-30.4204 51.7394,-29.6832 49.3614,-28.8496"/>
<polygon fill="midnightblue" stroke="midnightblue" points="50.4775,-25.5259 39.8939,-25.0363 47.8622,-32.019 50.4775,-25.5259"/>
</g>
<!-- Node13&#45;&gt;Node5 -->
<g id="edge28" class="edge"><title>Node13&#45;&gt;Node5</title>
<path fill="none" stroke="midnightblue" d="M623.874,-134.475C602.057,-124.49 565.696,-107.848 540.483,-96.3075"/>
<polygon fill="midnightblue" stroke="midnightblue" points="541.641,-92.9884 531.091,-92.0091 538.728,-99.3534 541.641,-92.9884"/>
</g>
<!-- Node13&#45;&gt;Node7 -->
<g id="edge29" class="edge"><title>Node13&#45;&gt;Node7</title>
<path fill="none" stroke="midnightblue" d="M603.78,-135.823C543.282,-124.609 426.786,-103.016 364.028,-91.3829"/>
<polygon fill="midnightblue" stroke="midnightblue" points="364.536,-87.9175 354.065,-89.5363 363.26,-94.8003 364.536,-87.9175"/>
</g>
<!-- Node14 -->
<g id="node14" class="node"><title>Node14</title>
<polygon fill="white" stroke="#bfbfbf" points="670.5,-73 670.5,-92 732.5,-92 732.5,-73 670.5,-73"/>
<text text-anchor="middle" x="701.5" y="-80" font-family="Helvetica,sans-Serif" font-size="10.00">algorithm</text>
</g>
<!-- Node13&#45;&gt;Node14 -->
<g id="edge22" class="edge"><title>Node13&#45;&gt;Node14</title>
<path fill="none" stroke="midnightblue" d="M650.953,-134.475C660.066,-125.285 674.77,-110.456 685.976,-99.156"/>
<polygon fill="midnightblue" stroke="midnightblue" points="688.507,-101.574 693.062,-92.0091 683.536,-96.6455 688.507,-101.574"/>
</g>
<!-- Node15 -->
<g id="node15" class="node"><title>Node15</title>
<polygon fill="white" stroke="#bfbfbf" points="750.5,-73 750.5,-92 806.5,-92 806.5,-73 750.5,-73"/>
<text text-anchor="middle" x="778.5" y="-80" font-family="Helvetica,sans-Serif" font-size="10.00">sstream</text>
</g>
<!-- Node13&#45;&gt;Node15 -->
<g id="edge23" class="edge"><title>Node13&#45;&gt;Node15</title>
<path fill="none" stroke="midnightblue" d="M661.985,-134.475C684.91,-124.445 723.185,-107.7 749.575,-96.1546"/>
<polygon fill="midnightblue" stroke="midnightblue" points="751.292,-99.2239 759.051,-92.0091 748.486,-92.8108 751.292,-99.2239"/>
</g>
<!-- Node16 -->
<g id="node16" class="node"><title>Node16</title>
<polygon fill="white" stroke="#bfbfbf" points="824.5,-73 824.5,-92 866.5,-92 866.5,-73 824.5,-73"/>
<text text-anchor="middle" x="845.5" y="-80" font-family="Helvetica,sans-Serif" font-size="10.00">utility</text>
</g>
<!-- Node13&#45;&gt;Node16 -->
<g id="edge25" class="edge"><title>Node13&#45;&gt;Node16</title>
<path fill="none" stroke="midnightblue" d="M681.299,-135.191C716.803,-127.512 770.498,-114.547 815.5,-98 816.925,-97.476 818.374,-96.9069 819.825,-96.3076"/>
<polygon fill="midnightblue" stroke="midnightblue" points="821.562,-99.3642 829.247,-92.07 818.691,-92.9802 821.562,-99.3642"/>
</g>
<!-- Node17 -->
<g id="node17" class="node"><title>Node17</title>
<polygon fill="white" stroke="#bfbfbf" points="884.5,-67.5 884.5,-97.5 996.5,-97.5 996.5,-67.5 884.5,-67.5"/>
<text text-anchor="start" x="892.5" y="-85.5" font-family="Helvetica,sans-Serif" font-size="10.00">boost/icl/continuous</text>
<text text-anchor="middle" x="940.5" y="-74.5" font-family="Helvetica,sans-Serif" font-size="10.00">_interval.hpp</text>
</g>
<!-- Node13&#45;&gt;Node17 -->
<g id="edge27" class="edge"><title>Node13&#45;&gt;Node17</title>
<path fill="none" stroke="midnightblue" d="M681.321,-135.855C725.636,-127.621 800.545,-113.466 874.236,-98.2319"/>
<polygon fill="midnightblue" stroke="midnightblue" points="875.071,-101.633 884.151,-96.1739 873.649,-94.7793 875.071,-101.633"/>
</g>
<!-- Node18 -->
<g id="node18" class="node"><title>Node18</title>
<g id="a_node18"><a xlink:href="error_8h.xhtml" target="_top" xlink:title="Exceptions for SCRAM. ">
<polygon fill="white" stroke="black" points="1014.5,-73 1014.5,-92 1062.5,-92 1062.5,-73 1014.5,-73"/>
<text text-anchor="middle" x="1038.5" y="-80" font-family="Helvetica,sans-Serif" font-size="10.00">error.h</text>
</a>
</g>
</g>
<!-- Node13&#45;&gt;Node18 -->
<g id="edge30" class="edge"><title>Node13&#45;&gt;Node18</title>
<path fill="none" stroke="midnightblue" d="M681.098,-141.881C748.206,-139.13 890.244,-129.733 1005.5,-98 1007.66,-97.4061 1009.85,-96.6954 1012.04,-95.9119"/>
<polygon fill="midnightblue" stroke="midnightblue" points="1013.41,-99.1336 1021.38,-92.1492 1010.79,-92.641 1013.41,-99.1336"/>
</g>
<!-- Node18&#45;&gt;Node3 -->
<g id="edge32" class="edge"><title>Node18&#45;&gt;Node3</title>
<path fill="none" stroke="midnightblue" d="M1021.36,-72.9137C1016.35,-70.6959 1010.8,-68.5105 1005.5,-67 890.091,-34.0822 747.117,-22.0825 684.021,-18.1797"/>
<polygon fill="midnightblue" stroke="midnightblue" points="684.082,-14.6773 673.893,-17.5812 683.669,-21.6651 684.082,-14.6773"/>
</g>
<!-- Node19 -->
<g id="node19" class="node"><title>Node19</title>
<polygon fill="white" stroke="#bfbfbf" points="1007,-6 1007,-25 1070,-25 1070,-6 1007,-6"/>
<text text-anchor="middle" x="1038.5" y="-13" font-family="Helvetica,sans-Serif" font-size="10.00">exception</text>
</g>
<!-- Node18&#45;&gt;Node19 -->
<g id="edge31" class="edge"><title>Node18&#45;&gt;Node19</title>
<path fill="none" stroke="midnightblue" d="M1038.5,-72.7338C1038.5,-63.1826 1038.5,-47.6183 1038.5,-35.2829"/>
<polygon fill="midnightblue" stroke="midnightblue" points="1042,-35.1273 1038.5,-25.1273 1035,-35.1273 1042,-35.1273"/>
</g>
<!-- Node20&#45;&gt;Node6 -->
<g id="edge35" class="edge"><title>Node20&#45;&gt;Node6</title>
<path fill="none" stroke="midnightblue" d="M224.995,-190.083C225.389,-183.006 225.952,-172.861 226.445,-163.986"/>
<polygon fill="midnightblue" stroke="midnightblue" points="229.954,-163.93 227.014,-153.751 222.964,-163.542 229.954,-163.93"/>
</g>
</g>
</svg>
