<?xml version="1.0" encoding="UTF-8" standalone="no"?>
<!DOCTYPE svg PUBLIC "-//W3C//DTD SVG 1.1//EN"
 "http://www.w3.org/Graphics/SVG/1.1/DTD/svg11.dtd">
<!-- Generated by graphviz version 2.38.0 (20140413.2041)
 -->
<!-- Title: event.h Pages: 1 -->
<svg width="1226pt" height="218pt"
 viewBox="0.00 0.00 1225.50 218.00" xmlns="http://www.w3.org/2000/svg" xmlns:xlink="http://www.w3.org/1999/xlink">
<g id="graph0" class="graph" transform="scale(1 1) rotate(0) translate(4 214)">
<title>event.h</title>
<polygon fill="white" stroke="none" points="-4,4 -4,-214 1221.5,-214 1221.5,4 -4,4"/>
<!-- Node1 -->
<g id="node1" class="node"><title>Node1</title>
<polygon fill="#bfbfbf" stroke="black" points="600,-190.5 600,-209.5 653,-209.5 653,-190.5 600,-190.5"/>
<text text-anchor="middle" x="626.5" y="-197.5" font-family="Helvetica,sans-Serif" font-size="10.00">event.h</text>
</g>
<!-- Node2 -->
<g id="node2" class="node"><title>Node2</title>
<polygon fill="white" stroke="#bfbfbf" points="0,-6 0,-25 49,-25 49,-6 0,-6"/>
<text text-anchor="middle" x="24.5" y="-13" font-family="Helvetica,sans-Serif" font-size="10.00">cstdint</text>
</g>
<!-- Node1&#45;&gt;Node2 -->
<g id="edge1" class="edge"><title>Node1&#45;&gt;Node2</title>
<path fill="none" stroke="midnightblue" d="M599.821,-192.284C517.944,-171.424 263.395,-104.714 58.5,-31 56.6432,-30.332 54.742,-29.6153 52.8337,-28.8712"/>
<polygon fill="midnightblue" stroke="midnightblue" points="53.9883,-25.5621 43.4073,-25.0212 51.3415,-32.0425 53.9883,-25.5621"/>
</g>
<!-- Node3 -->
<g id="node3" class="node"><title>Node3</title>
<polygon fill="white" stroke="#bfbfbf" points="773,-134.5 773,-153.5 830,-153.5 830,-134.5 773,-134.5"/>
<text text-anchor="middle" x="801.5" y="-141.5" font-family="Helvetica,sans-Serif" font-size="10.00">memory</text>
</g>
<!-- Node1&#45;&gt;Node3 -->
<g id="edge2" class="edge"><title>Node1&#45;&gt;Node3</title>
<path fill="none" stroke="midnightblue" d="M653.079,-190.799C682.627,-181.681 730.577,-166.885 763.95,-156.587"/>
<polygon fill="midnightblue" stroke="midnightblue" points="765.279,-159.84 773.802,-153.547 763.215,-153.151 765.279,-159.84"/>
</g>
<!-- Node4 -->
<g id="node4" class="node"><title>Node4</title>
<polygon fill="white" stroke="#bfbfbf" points="629.5,-6 629.5,-25 673.5,-25 673.5,-6 629.5,-6"/>
<text text-anchor="middle" x="651.5" y="-13" font-family="Helvetica,sans-Serif" font-size="10.00">string</text>
</g>
<!-- Node1&#45;&gt;Node4 -->
<g id="edge3" class="edge"><title>Node1&#45;&gt;Node4</title>
<path fill="none" stroke="midnightblue" d="M626.52,-190.137C626.636,-177.597 627.181,-153.974 629.5,-134 633.594,-98.7447 642.036,-58.1566 647.19,-35.0938"/>
<polygon fill="midnightblue" stroke="midnightblue" points="650.617,-35.8073 649.422,-25.28 643.791,-34.2545 650.617,-35.8073"/>
</g>
<!-- Node5 -->
<g id="node5" class="node"><title>Node5</title>
<polygon fill="white" stroke="#bfbfbf" points="564,-6 564,-25 611,-25 611,-6 564,-6"/>
<text text-anchor="middle" x="587.5" y="-13" font-family="Helvetica,sans-Serif" font-size="10.00">vector</text>
</g>
<!-- Node1&#45;&gt;Node5 -->
<g id="edge4" class="edge"><title>Node1&#45;&gt;Node5</title>
<path fill="none" stroke="midnightblue" d="M624.619,-190.198C618.609,-162.073 599.779,-73.9576 591.487,-35.1575"/>
<polygon fill="midnightblue" stroke="midnightblue" points="594.875,-34.2618 589.362,-25.214 588.029,-35.7247 594.875,-34.2618"/>
</g>
<!-- Node6 -->
<g id="node6" class="node"><title>Node6</title>
<polygon fill="white" stroke="#bfbfbf" points="1089.5,-73 1089.5,-92 1217.5,-92 1217.5,-73 1089.5,-73"/>
<text text-anchor="middle" x="1153.5" y="-80" font-family="Helvetica,sans-Serif" font-size="10.00">boost/noncopyable.hpp</text>
</g>
<!-- Node1&#45;&gt;Node6 -->
<g id="edge5" class="edge"><title>Node1&#45;&gt;Node6</title>
<path fill="none" stroke="midnightblue" d="M645.742,-190.392C665.566,-181.47 697.32,-167.031 724.5,-154 742.423,-145.407 745.446,-139.656 764.5,-134 900.009,-93.7774 940.836,-119.788 1080.5,-98 1087.96,-96.8367 1095.81,-95.4495 1103.49,-94.0011"/>
<polygon fill="midnightblue" stroke="midnightblue" points="1104.29,-97.4115 1113.44,-92.0754 1102.96,-90.539 1104.29,-97.4115"/>
</g>
<!-- Node7 -->
<g id="node7" class="node"><title>Node7</title>
<polygon fill="white" stroke="#bfbfbf" points="848,-134.5 848,-153.5 949,-153.5 949,-134.5 848,-134.5"/>
<text text-anchor="middle" x="898.5" y="-141.5" font-family="Helvetica,sans-Serif" font-size="10.00">boost/variant.hpp</text>
</g>
<!-- Node1&#45;&gt;Node7 -->
<g id="edge6" class="edge"><title>Node1&#45;&gt;Node7</title>
<path fill="none" stroke="midnightblue" d="M653.076,-193.724C697.465,-184.911 787.509,-167.035 845.316,-155.559"/>
<polygon fill="midnightblue" stroke="midnightblue" points="846.236,-158.944 855.363,-153.564 844.873,-152.078 846.236,-158.944"/>
</g>
<!-- Node8 -->
<g id="node8" class="node"><title>Node8</title>
<g id="a_node8"><a xlink:href="element_8h.xhtml" target="_top" xlink:title="Helper classes, structs, and properties common to all other classes. ">
<polygon fill="white" stroke="black" points="444,-73 444,-92 509,-92 509,-73 444,-73"/>
<text text-anchor="middle" x="476.5" y="-80" font-family="Helvetica,sans-Serif" font-size="10.00">element.h</text>
</a>
</g>
</g>
<!-- Node1&#45;&gt;Node8 -->
<g id="edge7" class="edge"><title>Node1&#45;&gt;Node8</title>
<path fill="none" stroke="midnightblue" d="M599.687,-191.912C577.443,-185.016 545.938,-172.798 523.5,-154 506.11,-139.431 492.616,-116.831 484.634,-101.162"/>
<polygon fill="midnightblue" stroke="midnightblue" points="487.713,-99.4906 480.2,-92.021 481.415,-102.546 487.713,-99.4906"/>
</g>
<!-- Node12 -->
<g id="node12" class="node"><title>Node12</title>
<g id="a_node12"><a xlink:href="expression_8h.xhtml" target="_top" xlink:title="Provides the base class for all expressions and units for expression values. ">
<polygon fill="white" stroke="black" points="639,-134.5 639,-153.5 716,-153.5 716,-134.5 639,-134.5"/>
<text text-anchor="middle" x="677.5" y="-141.5" font-family="Helvetica,sans-Serif" font-size="10.00">expression.h</text>
</a>
</g>
</g>
<!-- Node1&#45;&gt;Node12 -->
<g id="edge14" class="edge"><title>Node1&#45;&gt;Node12</title>
<path fill="none" stroke="midnightblue" d="M634.922,-190.083C642.348,-182.22 653.352,-170.569 662.312,-161.081"/>
<polygon fill="midnightblue" stroke="midnightblue" points="664.913,-163.424 669.235,-153.751 659.824,-158.618 664.913,-163.424"/>
</g>
<!-- Node8&#45;&gt;Node2 -->
<g id="edge8" class="edge"><title>Node8&#45;&gt;Node2</title>
<path fill="none" stroke="midnightblue" d="M443.922,-80.6825C372.776,-78.2242 198.658,-68.5364 58.5,-31 56.1987,-30.3837 53.8499,-29.6412 51.5156,-28.8221"/>
<polygon fill="midnightblue" stroke="midnightblue" points="52.7492,-25.5463 42.1617,-25.1504 50.1914,-32.0623 52.7492,-25.5463"/>
</g>
<!-- Node8&#45;&gt;Node4 -->
<g id="edge9" class="edge"><title>Node8&#45;&gt;Node4</title>
<path fill="none" stroke="midnightblue" d="M502.846,-72.9524C531.731,-63.4065 579.318,-47.164 619.5,-31 620.915,-30.4309 622.358,-29.8347 623.811,-29.2221"/>
<polygon fill="midnightblue" stroke="midnightblue" points="625.581,-32.2684 633.341,-25.0548 622.776,-25.8548 625.581,-32.2684"/>
</g>
<!-- Node8&#45;&gt;Node5 -->
<g id="edge10" class="edge"><title>Node8&#45;&gt;Node5</title>
<path fill="none" stroke="midnightblue" d="M491.47,-72.7338C510.11,-61.8182 542.163,-43.0487 564.069,-30.2209"/>
<polygon fill="midnightblue" stroke="midnightblue" points="565.907,-33.2008 572.767,-25.1273 562.369,-27.1603 565.907,-33.2008"/>
</g>
<!-- Node9 -->
<g id="node9" class="node"><title>Node9</title>
<polygon fill="white" stroke="#bfbfbf" points="67.5,-6 67.5,-25 239.5,-25 239.5,-6 67.5,-6"/>
<text text-anchor="middle" x="153.5" y="-13" font-family="Helvetica,sans-Serif" font-size="10.00">boost/multi_index_container.hpp</text>
</g>
<!-- Node8&#45;&gt;Node9 -->
<g id="edge11" class="edge"><title>Node8&#45;&gt;Node9</title>
<path fill="none" stroke="midnightblue" d="M443.752,-74.9097C387.765,-63.6431 273.199,-40.588 205.957,-27.0564"/>
<polygon fill="midnightblue" stroke="midnightblue" points="206.484,-23.5923 195.99,-25.0506 205.103,-30.4547 206.484,-23.5923"/>
</g>
<!-- Node10 -->
<g id="node10" class="node"><title>Node10</title>
<polygon fill="white" stroke="#bfbfbf" points="257.5,-0.5 257.5,-30.5 397.5,-30.5 397.5,-0.5 257.5,-0.5"/>
<text text-anchor="start" x="265.5" y="-18.5" font-family="Helvetica,sans-Serif" font-size="10.00">boost/multi_index/hashed</text>
<text text-anchor="middle" x="327.5" y="-7.5" font-family="Helvetica,sans-Serif" font-size="10.00">_index.hpp</text>
</g>
<!-- Node8&#45;&gt;Node10 -->
<g id="edge12" class="edge"><title>Node8&#45;&gt;Node10</title>
<path fill="none" stroke="midnightblue" d="M456.714,-72.8685C434.453,-63.1572 397.666,-47.1092 369.025,-34.6148"/>
<polygon fill="midnightblue" stroke="midnightblue" points="370.222,-31.3186 359.657,-30.5281 367.423,-37.7347 370.222,-31.3186"/>
</g>
<!-- Node11 -->
<g id="node11" class="node"><title>Node11</title>
<polygon fill="white" stroke="#bfbfbf" points="415.5,-0.5 415.5,-30.5 545.5,-30.5 545.5,-0.5 415.5,-0.5"/>
<text text-anchor="start" x="423.5" y="-18.5" font-family="Helvetica,sans-Serif" font-size="10.00">boost/multi_index/mem</text>
<text text-anchor="middle" x="480.5" y="-7.5" font-family="Helvetica,sans-Serif" font-size="10.00">_fun.hpp</text>
</g>
<!-- Node8&#45;&gt;Node11 -->
<g id="edge13" class="edge"><title>Node8&#45;&gt;Node11</title>
<path fill="none" stroke="midnightblue" d="M477.039,-72.7338C477.544,-64.5406 478.32,-51.9225 479.01,-40.7136"/>
<polygon fill="midnightblue" stroke="midnightblue" points="482.512,-40.7851 479.633,-30.589 475.525,-40.3551 482.512,-40.7851"/>
</g>
<!-- Node12&#45;&gt;Node4 -->
<g id="edge17" class="edge"><title>Node12&#45;&gt;Node4</title>
<path fill="none" stroke="midnightblue" d="M675.713,-134.305C671.538,-113.994 661.068,-63.0532 655.359,-35.2768"/>
<polygon fill="midnightblue" stroke="midnightblue" points="658.741,-34.3463 653.3,-25.2557 651.885,-35.7556 658.741,-34.3463"/>
</g>
<!-- Node12&#45;&gt;Node5 -->
<g id="edge19" class="edge"><title>Node12&#45;&gt;Node5</title>
<path fill="none" stroke="midnightblue" d="M671.314,-134.305C656.542,-113.543 618.999,-60.774 599.566,-33.4599"/>
<polygon fill="midnightblue" stroke="midnightblue" points="602.378,-31.3749 593.729,-25.2557 596.675,-35.4329 602.378,-31.3749"/>
</g>
<!-- Node12&#45;&gt;Node6 -->
<g id="edge21" class="edge"><title>Node12&#45;&gt;Node6</title>
<path fill="none" stroke="midnightblue" d="M716.242,-136.119C721.037,-135.357 725.876,-134.63 730.5,-134 885.446,-112.899 925.863,-121.258 1080.5,-98 1088.23,-96.8379 1096.38,-95.4158 1104.32,-93.9213"/>
<polygon fill="midnightblue" stroke="midnightblue" points="1105.07,-97.3415 1114.22,-92.0038 1103.73,-90.4693 1105.07,-97.3415"/>
</g>
<!-- Node12&#45;&gt;Node8 -->
<g id="edge22" class="edge"><title>Node12&#45;&gt;Node8</title>
<path fill="none" stroke="midnightblue" d="M648.702,-134.475C613.626,-124.092 554.237,-106.512 515.193,-94.9538"/>
<polygon fill="midnightblue" stroke="midnightblue" points="515.827,-91.4916 505.245,-92.0091 513.84,-98.2036 515.827,-91.4916"/>
</g>
<!-- Node13 -->
<g id="node13" class="node"><title>Node13</title>
<polygon fill="white" stroke="#bfbfbf" points="745.5,-73 745.5,-92 807.5,-92 807.5,-73 745.5,-73"/>
<text text-anchor="middle" x="776.5" y="-80" font-family="Helvetica,sans-Serif" font-size="10.00">algorithm</text>
</g>
<!-- Node12&#45;&gt;Node13 -->
<g id="edge15" class="edge"><title>Node12&#45;&gt;Node13</title>
<path fill="none" stroke="midnightblue" d="M691.684,-134.475C707.858,-124.755 734.526,-108.727 753.643,-97.2372"/>
<polygon fill="midnightblue" stroke="midnightblue" points="755.574,-100.16 762.342,-92.0091 751.968,-94.1606 755.574,-100.16"/>
</g>
<!-- Node14 -->
<g id="node14" class="node"><title>Node14</title>
<polygon fill="white" stroke="#bfbfbf" points="825.5,-73 825.5,-92 881.5,-92 881.5,-73 825.5,-73"/>
<text text-anchor="middle" x="853.5" y="-80" font-family="Helvetica,sans-Serif" font-size="10.00">sstream</text>
</g>
<!-- Node12&#45;&gt;Node14 -->
<g id="edge16" class="edge"><title>Node12&#45;&gt;Node14</title>
<path fill="none" stroke="midnightblue" d="M705.623,-134.443C733.821,-125.735 778.403,-111.618 816.5,-98 818.611,-97.2453 820.783,-96.4485 822.966,-95.6325"/>
<polygon fill="midnightblue" stroke="midnightblue" points="824.363,-98.8455 832.451,-92.0027 821.861,-92.3078 824.363,-98.8455"/>
</g>
<!-- Node15 -->
<g id="node15" class="node"><title>Node15</title>
<polygon fill="white" stroke="#bfbfbf" points="899.5,-73 899.5,-92 941.5,-92 941.5,-73 899.5,-73"/>
<text text-anchor="middle" x="920.5" y="-80" font-family="Helvetica,sans-Serif" font-size="10.00">utility</text>
</g>
<!-- Node12&#45;&gt;Node15 -->
<g id="edge18" class="edge"><title>Node12&#45;&gt;Node15</title>
<path fill="none" stroke="midnightblue" d="M716.347,-135.96C768.634,-126.284 858.758,-108.845 890.5,-98 892.118,-97.4471 893.763,-96.8286 895.406,-96.1669"/>
<polygon fill="midnightblue" stroke="midnightblue" points="896.903,-99.3318 904.61,-92.0625 894.052,-92.9387 896.903,-99.3318"/>
</g>
<!-- Node16 -->
<g id="node16" class="node"><title>Node16</title>
<polygon fill="white" stroke="#bfbfbf" points="959.5,-67.5 959.5,-97.5 1071.5,-97.5 1071.5,-67.5 959.5,-67.5"/>
<text text-anchor="start" x="967.5" y="-85.5" font-family="Helvetica,sans-Serif" font-size="10.00">boost/icl/continuous</text>
<text text-anchor="middle" x="1015.5" y="-74.5" font-family="Helvetica,sans-Serif" font-size="10.00">_interval.hpp</text>
</g>
<!-- Node12&#45;&gt;Node16 -->
<g id="edge20" class="edge"><title>Node12&#45;&gt;Node16</title>
<path fill="none" stroke="midnightblue" d="M716.283,-136.387C721.07,-135.578 725.897,-134.767 730.5,-134 825.08,-118.231 851.534,-116.868 949.175,-98.1969"/>
<polygon fill="midnightblue" stroke="midnightblue" points="950.013,-101.6 959.171,-96.2729 948.69,-94.7261 950.013,-101.6"/>
</g>
<!-- Node17 -->
<g id="node17" class="node"><title>Node17</title>
<g id="a_node17"><a xlink:href="error_8h.xhtml" target="_top" xlink:title="Exceptions for SCRAM. ">
<polygon fill="white" stroke="black" points="679.5,-73 679.5,-92 727.5,-92 727.5,-73 679.5,-73"/>
<text text-anchor="middle" x="703.5" y="-80" font-family="Helvetica,sans-Serif" font-size="10.00">error.h</text>
</a>
</g>
</g>
<!-- Node12&#45;&gt;Node17 -->
<g id="edge23" class="edge"><title>Node12&#45;&gt;Node17</title>
<path fill="none" stroke="midnightblue" d="M681.225,-134.475C684.971,-125.904 690.86,-112.427 695.642,-101.483"/>
<polygon fill="midnightblue" stroke="midnightblue" points="698.985,-102.574 699.782,-92.0091 692.57,-99.771 698.985,-102.574"/>
</g>
<!-- Node17&#45;&gt;Node4 -->
<g id="edge25" class="edge"><title>Node17&#45;&gt;Node4</title>
<path fill="none" stroke="midnightblue" d="M696.487,-72.7338C688.378,-62.5979 674.852,-45.6899 664.745,-33.0556"/>
<polygon fill="midnightblue" stroke="midnightblue" points="667.382,-30.7496 658.402,-25.1273 661.916,-35.1225 667.382,-30.7496"/>
</g>
<!-- Node18 -->
<g id="node18" class="node"><title>Node18</title>
<polygon fill="white" stroke="#bfbfbf" points="692,-6 692,-25 755,-25 755,-6 692,-6"/>
<text text-anchor="middle" x="723.5" y="-13" font-family="Helvetica,sans-Serif" font-size="10.00">exception</text>
</g>
<!-- Node17&#45;&gt;Node18 -->
<g id="edge24" class="edge"><title>Node17&#45;&gt;Node18</title>
<path fill="none" stroke="midnightblue" d="M706.197,-72.7338C709.166,-63.0852 714.023,-47.3001 717.837,-34.9063"/>
<polygon fill="midnightblue" stroke="midnightblue" points="721.25,-35.7144 720.845,-25.1273 714.559,-33.6558 721.25,-35.7144"/>
</g>
</g>
</svg>
