<?xml version="1.0" encoding="UTF-8" standalone="no"?>
<!DOCTYPE svg PUBLIC "-//W3C//DTD SVG 1.1//EN"
 "http://www.w3.org/Graphics/SVG/1.1/DTD/svg11.dtd">
<!-- Generated by graphviz version 2.38.0 (20140413.2041)
 -->
<!-- Title: event_tree.cc Pages: 1 -->
<!--zoomable 330 -->
<svg id="main" version="1.1" xmlns="http://www.w3.org/2000/svg" xmlns:xlink="http://www.w3.org/1999/xlink" xml:space="preserve" onload="init(evt)">
<style type="text/css"><![CDATA[
.edge:hover path { stroke: red; }
.edge:hover polygon { stroke: red; fill: red; }
]]></style>
<script type="text/javascript"><![CDATA[
var edges = document.getElementsByTagName('g');
if (edges && edges.length) {
  for (var i=0;i<edges.length;i++) {
    if (edges[i].id.substr(0,4)=='edge') {
      edges[i].setAttribute('class','edge');
    }
  }
}
]]></script>
        <defs>
                <circle id="rim" cx="0" cy="0" r="7"/>
                <circle id="rim2" cx="0" cy="0" r="3.5"/>
                <g id="zoomPlus">
                        <use xlink:href="#rim" fill="#404040">
                                <set attributeName="fill" to="#808080" begin="zoomplus.mouseover" end="zoomplus.mouseout"/>
                        </use>
                        <path d="M-4,0h8M0,-4v8" fill="none" stroke="white" stroke-width="1.5" pointer-events="none"/>
                </g>
                <g id="zoomMin">
                        <use xlink:href="#rim" fill="#404040">
                                <set attributeName="fill" to="#808080" begin="zoomminus.mouseover" end="zoomminus.mouseout"/>
                        </use>
                        <path d="M-4,0h8" fill="none" stroke="white" stroke-width="1.5" pointer-events="none"/>
                </g>
                <g id="dirArrow">
                        <path fill="none" stroke="white" stroke-width="1.5" d="M0,-3.0v7 M-2.5,-0.5L0,-3.0L2.5,-0.5"/>
                </g>
               <g id="resetDef">
                       <use xlink:href="#rim2" fill="#404040">
                               <set attributeName="fill" to="#808080" begin="reset.mouseover" end="reset.mouseout"/>
                       </use>
               </g>
        </defs>

<script type="text/javascript">
var viewWidth = 921;
var viewHeight = 330;
var sectionId = 'dynsection-0';
</script>
<script xlink:href="svgpan.js"/>
<svg id="graph" class="graph">
<g id="viewport">
<title>event_tree.cc</title>
<polygon fill="white" stroke="none" points="-4,4 -4,-326 917,-326 917,4 -4,4"/>
<!-- Node1 -->
<g id="node1" class="node"><title>Node1</title>
<polygon fill="#bfbfbf" stroke="black" points="814.5,-302.5 814.5,-321.5 896.5,-321.5 896.5,-302.5 814.5,-302.5"/>
<text text-anchor="middle" x="855.5" y="-309.5" font-family="Helvetica,sans-Serif" font-size="10.00">event_tree.cc</text>
</g>
<!-- Node2 -->
<g id="node2" class="node"><title>Node2</title>
<g id="a_node2"><a xlink:href="event__tree_8h.xhtml" target="_top" xlink:title="Event Tree facilities. ">
<polygon fill="white" stroke="black" points="285,-246.5 285,-265.5 362,-265.5 362,-246.5 285,-246.5"/>
<text text-anchor="middle" x="323.5" y="-253.5" font-family="Helvetica,sans-Serif" font-size="10.00">event_tree.h</text>
</a>
</g>
</g>
<!-- Node1&#45;&gt;Node2 -->
<g id="edge1" class="edge"><title>Node1&#45;&gt;Node2</title>
<path fill="none" stroke="midnightblue" d="M814.198,-306.808C717.427,-296.985 476.383,-272.518 372.458,-261.969"/>
<polygon fill="midnightblue" stroke="midnightblue" points="372.55,-258.461 362.247,-260.933 371.843,-265.425 372.55,-258.461"/>
</g>
<!-- Node15 -->
<g id="node15" class="node"><title>Node15</title>
<polygon fill="white" stroke="#bfbfbf" points="739.5,-73 739.5,-92 801.5,-92 801.5,-73 739.5,-73"/>
<text text-anchor="middle" x="770.5" y="-80" font-family="Helvetica,sans-Serif" font-size="10.00">algorithm</text>
</g>
<!-- Node1&#45;&gt;Node15 -->
<g id="edge37" class="edge"><title>Node1&#45;&gt;Node15</title>
<path fill="none" stroke="midnightblue" d="M852.272,-302.36C839.807,-268.998 794.652,-148.142 777.33,-101.78"/>
<polygon fill="midnightblue" stroke="midnightblue" points="780.51,-100.292 773.732,-92.1491 773.953,-102.742 780.51,-100.292"/>
</g>
<!-- Node19 -->
<g id="node19" class="node"><title>Node19</title>
<g id="a_node19"><a xlink:href="error_8h.xhtml" target="_top" xlink:title="Exceptions for SCRAM. ">
<polygon fill="white" stroke="black" points="857.5,-73 857.5,-92 905.5,-92 905.5,-73 857.5,-73"/>
<text text-anchor="middle" x="881.5" y="-80" font-family="Helvetica,sans-Serif" font-size="10.00">error.h</text>
</a>
</g>
</g>
<!-- Node1&#45;&gt;Node19 -->
<g id="edge38" class="edge"><title>Node1&#45;&gt;Node19</title>
<path fill="none" stroke="midnightblue" d="M858.921,-302.192C862.238,-293.231 867.109,-278.871 869.5,-266 880.444,-207.076 881.773,-135.834 881.717,-102.469"/>
<polygon fill="midnightblue" stroke="midnightblue" points="885.216,-102.306 881.652,-92.3287 878.216,-102.351 885.216,-102.306"/>
</g>
<!-- Node3 -->
<g id="node3" class="node"><title>Node3</title>
<polygon fill="white" stroke="#bfbfbf" points="533,-134.5 533,-153.5 590,-153.5 590,-134.5 533,-134.5"/>
<text text-anchor="middle" x="561.5" y="-141.5" font-family="Helvetica,sans-Serif" font-size="10.00">memory</text>
</g>
<!-- Node2&#45;&gt;Node3 -->
<g id="edge2" class="edge"><title>Node2&#45;&gt;Node3</title>
<path fill="none" stroke="midnightblue" d="M342.175,-246.368C383.885,-227.091 484.791,-180.454 533.828,-157.789"/>
<polygon fill="midnightblue" stroke="midnightblue" points="535.302,-160.964 542.911,-153.591 532.366,-154.61 535.302,-160.964"/>
</g>
<!-- Node4 -->
<g id="node4" class="node"><title>Node4</title>
<polygon fill="white" stroke="#bfbfbf" points="689.5,-6 689.5,-25 733.5,-25 733.5,-6 689.5,-6"/>
<text text-anchor="middle" x="711.5" y="-13" font-family="Helvetica,sans-Serif" font-size="10.00">string</text>
</g>
<!-- Node2&#45;&gt;Node4 -->
<g id="edge3" class="edge"><title>Node2&#45;&gt;Node4</title>
<path fill="none" stroke="midnightblue" d="M362.325,-248.455C467.916,-229.787 756.045,-172.77 810.5,-98 818.611,-86.8629 817.696,-78.7491 810.5,-67 796.015,-43.3512 766.588,-30.3388 743.564,-23.4738"/>
<polygon fill="midnightblue" stroke="midnightblue" points="744.401,-20.0742 733.832,-20.8155 742.556,-26.8269 744.401,-20.0742"/>
</g>
<!-- Node5 -->
<g id="node5" class="node"><title>Node5</title>
<polygon fill="white" stroke="#bfbfbf" points="0,-6 0,-25 47,-25 47,-6 0,-6"/>
<text text-anchor="middle" x="23.5" y="-13" font-family="Helvetica,sans-Serif" font-size="10.00">vector</text>
</g>
<!-- Node2&#45;&gt;Node5 -->
<g id="edge4" class="edge"><title>Node2&#45;&gt;Node5</title>
<path fill="none" stroke="midnightblue" d="M284.909,-253.217C220.147,-249.457 93.434,-238.574 60.5,-210 9.47628,-165.731 15.1593,-74.5957 20.4205,-35.258"/>
<polygon fill="midnightblue" stroke="midnightblue" points="23.9045,-35.6234 21.9113,-25.2178 16.9804,-34.5953 23.9045,-35.6234"/>
</g>
<!-- Node6 -->
<g id="node6" class="node"><title>Node6</title>
<polygon fill="white" stroke="#bfbfbf" points="93.5,-73 93.5,-92 221.5,-92 221.5,-73 93.5,-73"/>
<text text-anchor="middle" x="157.5" y="-80" font-family="Helvetica,sans-Serif" font-size="10.00">boost/noncopyable.hpp</text>
</g>
<!-- Node2&#45;&gt;Node6 -->
<g id="edge5" class="edge"><title>Node2&#45;&gt;Node6</title>
<path fill="none" stroke="midnightblue" d="M315.04,-246.26C288.616,-218.96 207.348,-135 173.04,-99.5546"/>
<polygon fill="midnightblue" stroke="midnightblue" points="175.216,-96.7705 165.746,-92.0194 170.186,-101.639 175.216,-96.7705"/>
</g>
<!-- Node7 -->
<g id="node7" class="node"><title>Node7</title>
<polygon fill="white" stroke="#bfbfbf" points="52,-134.5 52,-153.5 153,-153.5 153,-134.5 52,-134.5"/>
<text text-anchor="middle" x="102.5" y="-141.5" font-family="Helvetica,sans-Serif" font-size="10.00">boost/variant.hpp</text>
</g>
<!-- Node2&#45;&gt;Node7 -->
<g id="edge6" class="edge"><title>Node2&#45;&gt;Node7</title>
<path fill="none" stroke="midnightblue" d="M296.612,-246.453C272.267,-238.317 235.7,-225.1 205.5,-210 175.486,-194.993 143.103,-173.614 122.822,-159.529"/>
<polygon fill="midnightblue" stroke="midnightblue" points="124.602,-156.503 114.407,-153.621 120.579,-162.232 124.602,-156.503"/>
</g>
<!-- Node8 -->
<g id="node8" class="node"><title>Node8</title>
<g id="a_node8"><a xlink:href="element_8h.xhtml" target="_top" xlink:title="Helper classes, structs, and properties common to all other classes. ">
<polygon fill="white" stroke="black" points="278,-73 278,-92 343,-92 343,-73 278,-73"/>
<text text-anchor="middle" x="310.5" y="-80" font-family="Helvetica,sans-Serif" font-size="10.00">element.h</text>
</a>
</g>
</g>
<!-- Node2&#45;&gt;Node8 -->
<g id="edge7" class="edge"><title>Node2&#45;&gt;Node8</title>
<path fill="none" stroke="midnightblue" d="M321.347,-246.44C319.187,-237.437 315.975,-222.822 314.5,-210 310.122,-171.934 309.853,-127.031 310.126,-102.268"/>
<polygon fill="midnightblue" stroke="midnightblue" points="313.627,-102.178 310.282,-92.1253 306.628,-102.07 313.627,-102.178"/>
</g>
<!-- Node13 -->
<g id="node13" class="node"><title>Node13</title>
<g id="a_node13"><a xlink:href="event_8h.xhtml" target="_top" xlink:title="Contains event classes for fault trees. ">
<polygon fill="white" stroke="black" points="324,-190.5 324,-209.5 377,-209.5 377,-190.5 324,-190.5"/>
<text text-anchor="middle" x="350.5" y="-197.5" font-family="Helvetica,sans-Serif" font-size="10.00">event.h</text>
</a>
</g>
</g>
<!-- Node2&#45;&gt;Node13 -->
<g id="edge14" class="edge"><title>Node2&#45;&gt;Node13</title>
<path fill="none" stroke="midnightblue" d="M327.959,-246.083C331.654,-238.691 337.023,-227.953 341.594,-218.811"/>
<polygon fill="midnightblue" stroke="midnightblue" points="344.783,-220.261 346.124,-209.751 338.522,-217.13 344.783,-220.261"/>
</g>
<!-- Node14 -->
<g id="node14" class="node"><title>Node14</title>
<g id="a_node14"><a xlink:href="expression_8h.xhtml" target="_top" xlink:title="Provides the base class for all expressions and units for expression values. ">
<polygon fill="white" stroke="black" points="438,-134.5 438,-153.5 515,-153.5 515,-134.5 438,-134.5"/>
<text text-anchor="middle" x="476.5" y="-141.5" font-family="Helvetica,sans-Serif" font-size="10.00">expression.h</text>
</a>
</g>
</g>
<!-- Node2&#45;&gt;Node14 -->
<g id="edge34" class="edge"><title>Node2&#45;&gt;Node14</title>
<path fill="none" stroke="midnightblue" d="M335.506,-246.368C361.649,-227.573 423.968,-182.768 456.285,-159.533"/>
<polygon fill="midnightblue" stroke="midnightblue" points="458.474,-162.271 464.55,-153.591 454.388,-156.587 458.474,-162.271"/>
</g>
<!-- Node21 -->
<g id="node21" class="node"><title>Node21</title>
<g id="a_node21"><a xlink:href="variant_8h.xhtml" target="_top" xlink:title="Extra helper functions for boost::variant. ">
<polygon fill="white" stroke="black" points="70,-190.5 70,-209.5 147,-209.5 147,-190.5 70,-190.5"/>
<text text-anchor="middle" x="108.5" y="-197.5" font-family="Helvetica,sans-Serif" font-size="10.00">ext/variant.h</text>
</a>
</g>
</g>
<!-- Node2&#45;&gt;Node21 -->
<g id="edge35" class="edge"><title>Node2&#45;&gt;Node21</title>
<path fill="none" stroke="midnightblue" d="M289.433,-246.444C252.32,-237.122 192.839,-222.183 152.285,-211.997"/>
<polygon fill="midnightblue" stroke="midnightblue" points="152.959,-208.558 142.408,-209.516 151.254,-215.347 152.959,-208.558"/>
</g>
<!-- Node8&#45;&gt;Node4 -->
<g id="edge9" class="edge"><title>Node8&#45;&gt;Node4</title>
<path fill="none" stroke="midnightblue" d="M343.181,-75.8426C358.979,-73.1287 378.219,-69.8547 395.5,-67 449.872,-58.018 609.745,-32.6297 678.951,-21.6572"/>
<polygon fill="midnightblue" stroke="midnightblue" points="679.921,-25.0472 689.249,-20.0247 678.825,-18.1336 679.921,-25.0472"/>
</g>
<!-- Node8&#45;&gt;Node5 -->
<g id="edge10" class="edge"><title>Node8&#45;&gt;Node5</title>
<path fill="none" stroke="midnightblue" d="M284.805,-72.9276C277.932,-70.8122 270.475,-68.6752 263.5,-67 172.701,-45.1917 145.899,-57.9793 56.5,-31 54.5679,-30.4169 52.5989,-29.7506 50.633,-29.0314"/>
<polygon fill="midnightblue" stroke="midnightblue" points="51.596,-25.6452 41.0136,-25.1333 48.967,-32.1328 51.596,-25.6452"/>
</g>
<!-- Node9 -->
<g id="node9" class="node"><title>Node9</title>
<polygon fill="white" stroke="#bfbfbf" points="562,-6 562,-25 611,-25 611,-6 562,-6"/>
<text text-anchor="middle" x="586.5" y="-13" font-family="Helvetica,sans-Serif" font-size="10.00">cstdint</text>
</g>
<!-- Node8&#45;&gt;Node9 -->
<g id="edge8" class="edge"><title>Node8&#45;&gt;Node9</title>
<path fill="none" stroke="midnightblue" d="M336.206,-72.9765C343.079,-70.8607 350.534,-68.7113 357.5,-67 443.086,-45.9737 468.121,-56.4409 552.5,-31 554.647,-30.3528 556.84,-29.6122 559.029,-28.8157"/>
<polygon fill="midnightblue" stroke="midnightblue" points="560.423,-32.0282 568.423,-25.0827 557.838,-25.5229 560.423,-32.0282"/>
</g>
<!-- Node10 -->
<g id="node10" class="node"><title>Node10</title>
<polygon fill="white" stroke="#bfbfbf" points="65.5,-6 65.5,-25 237.5,-25 237.5,-6 65.5,-6"/>
<text text-anchor="middle" x="151.5" y="-13" font-family="Helvetica,sans-Serif" font-size="10.00">boost/multi_index_container.hpp</text>
</g>
<!-- Node8&#45;&gt;Node10 -->
<g id="edge11" class="edge"><title>Node8&#45;&gt;Node10</title>
<path fill="none" stroke="midnightblue" d="M289.386,-72.8685C261.869,-61.6193 213.552,-41.8673 182.041,-28.9853"/>
<polygon fill="midnightblue" stroke="midnightblue" points="183.029,-25.6081 172.448,-25.0637 180.38,-32.0875 183.029,-25.6081"/>
</g>
<!-- Node11 -->
<g id="node11" class="node"><title>Node11</title>
<polygon fill="white" stroke="#bfbfbf" points="255.5,-0.5 255.5,-30.5 395.5,-30.5 395.5,-0.5 255.5,-0.5"/>
<text text-anchor="start" x="263.5" y="-18.5" font-family="Helvetica,sans-Serif" font-size="10.00">boost/multi_index/hashed</text>
<text text-anchor="middle" x="325.5" y="-7.5" font-family="Helvetica,sans-Serif" font-size="10.00">_index.hpp</text>
</g>
<!-- Node8&#45;&gt;Node11 -->
<g id="edge12" class="edge"><title>Node8&#45;&gt;Node11</title>
<path fill="none" stroke="midnightblue" d="M312.523,-72.7338C314.433,-64.4561 317.386,-51.6619 319.992,-40.3674"/>
<polygon fill="midnightblue" stroke="midnightblue" points="323.41,-41.12 322.249,-30.589 316.59,-39.5459 323.41,-41.12"/>
</g>
<!-- Node12 -->
<g id="node12" class="node"><title>Node12</title>
<polygon fill="white" stroke="#bfbfbf" points="413.5,-0.5 413.5,-30.5 543.5,-30.5 543.5,-0.5 413.5,-0.5"/>
<text text-anchor="start" x="421.5" y="-18.5" font-family="Helvetica,sans-Serif" font-size="10.00">boost/multi_index/mem</text>
<text text-anchor="middle" x="478.5" y="-7.5" font-family="Helvetica,sans-Serif" font-size="10.00">_fun.hpp</text>
</g>
<!-- Node8&#45;&gt;Node12 -->
<g id="edge13" class="edge"><title>Node8&#45;&gt;Node12</title>
<path fill="none" stroke="midnightblue" d="M332.809,-72.8685C358.127,-63.0728 400.11,-46.8296 432.521,-34.2897"/>
<polygon fill="midnightblue" stroke="midnightblue" points="434.18,-37.4007 442.243,-30.5281 431.654,-30.8723 434.18,-37.4007"/>
</g>
<!-- Node13&#45;&gt;Node3 -->
<g id="edge16" class="edge"><title>Node13&#45;&gt;Node3</title>
<path fill="none" stroke="midnightblue" d="M377.223,-192.161C414.104,-182.722 480.825,-165.647 523.058,-154.838"/>
<polygon fill="midnightblue" stroke="midnightblue" points="524.155,-158.17 532.975,-152.3 522.419,-151.389 524.155,-158.17"/>
</g>
<!-- Node13&#45;&gt;Node4 -->
<g id="edge17" class="edge"><title>Node13&#45;&gt;Node4</title>
<path fill="none" stroke="midnightblue" d="M354.392,-190.447C366.679,-163.811 405.213,-83.1665 428.5,-67 438.785,-59.8599 606.88,-32.8771 679.025,-21.5523"/>
<polygon fill="midnightblue" stroke="midnightblue" points="680.005,-24.9416 689.343,-19.9368 678.922,-18.0259 680.005,-24.9416"/>
</g>
<!-- Node13&#45;&gt;Node5 -->
<g id="edge18" class="edge"><title>Node13&#45;&gt;Node5</title>
<path fill="none" stroke="midnightblue" d="M325.443,-190.385C263.13,-168.835 104.721,-113.232 84.5,-98 61.6308,-80.7736 43.2779,-52.7126 32.8833,-34.4278"/>
<polygon fill="midnightblue" stroke="midnightblue" points="35.8185,-32.5003 27.9492,-25.4063 29.677,-35.8593 35.8185,-32.5003"/>
</g>
<!-- Node13&#45;&gt;Node6 -->
<g id="edge19" class="edge"><title>Node13&#45;&gt;Node6</title>
<path fill="none" stroke="midnightblue" d="M335.994,-190.319C302.73,-170.412 220.736,-121.343 180.509,-97.2695"/>
<polygon fill="midnightblue" stroke="midnightblue" points="182.29,-94.2564 171.911,-92.1245 178.695,-100.263 182.29,-94.2564"/>
</g>
<!-- Node13&#45;&gt;Node7 -->
<g id="edge20" class="edge"><title>Node13&#45;&gt;Node7</title>
<path fill="none" stroke="midnightblue" d="M323.96,-193.221C282.959,-184.293 203.554,-167.004 151.808,-155.737"/>
<polygon fill="midnightblue" stroke="midnightblue" points="152.363,-152.275 141.848,-153.568 150.874,-159.115 152.363,-152.275"/>
</g>
<!-- Node13&#45;&gt;Node8 -->
<g id="edge21" class="edge"><title>Node13&#45;&gt;Node8</title>
<path fill="none" stroke="midnightblue" d="M347.493,-190.319C341.007,-171.59 325.581,-127.046 316.835,-101.792"/>
<polygon fill="midnightblue" stroke="midnightblue" points="320.121,-100.586 313.541,-92.282 313.507,-102.877 320.121,-100.586"/>
</g>
<!-- Node13&#45;&gt;Node9 -->
<g id="edge15" class="edge"><title>Node13&#45;&gt;Node9</title>
<path fill="none" stroke="midnightblue" d="M350.708,-190.376C351.768,-166.788 358.101,-100.727 395.5,-67 448.663,-19.0561 484.417,-53.1289 552.5,-31 554.422,-30.3752 556.387,-29.6846 558.353,-28.9538"/>
<polygon fill="midnightblue" stroke="midnightblue" points="560.038,-32.0493 568.022,-25.0845 557.437,-25.5504 560.038,-32.0493"/>
</g>
<!-- Node13&#45;&gt;Node14 -->
<g id="edge22" class="edge"><title>Node13&#45;&gt;Node14</title>
<path fill="none" stroke="midnightblue" d="M370.465,-190.444C391.109,-181.596 423.563,-167.687 447.132,-157.586"/>
<polygon fill="midnightblue" stroke="midnightblue" points="448.816,-160.673 456.628,-153.516 446.058,-154.239 448.816,-160.673"/>
</g>
<!-- Node14&#45;&gt;Node4 -->
<g id="edge25" class="edge"><title>Node14&#45;&gt;Node4</title>
<path fill="none" stroke="midnightblue" d="M515.403,-135.444C576.733,-123.457 689.314,-101.111 692.5,-98 709.199,-81.6915 712.421,-53.7546 712.505,-35.2073"/>
<polygon fill="midnightblue" stroke="midnightblue" points="716.001,-34.967 712.245,-25.0603 709.003,-35.1469 716.001,-34.967"/>
</g>
<!-- Node14&#45;&gt;Node5 -->
<g id="edge27" class="edge"><title>Node14&#45;&gt;Node5</title>
<path fill="none" stroke="midnightblue" d="M437.942,-140.09C394.813,-135.627 323.761,-124.604 268.5,-98 248.861,-88.5455 250.181,-76.3656 230.5,-67 159.191,-33.0664 131.731,-55.0163 56.5,-31 54.5774,-30.3863 52.6156,-29.697 50.6548,-28.9611"/>
<polygon fill="midnightblue" stroke="midnightblue" points="51.6276,-25.5773 41.0472,-25.0251 48.9739,-32.0548 51.6276,-25.5773"/>
</g>
<!-- Node14&#45;&gt;Node6 -->
<g id="edge29" class="edge"><title>Node14&#45;&gt;Node6</title>
<path fill="none" stroke="midnightblue" d="M437.703,-135.764C381.594,-125.298 277.491,-105.881 213.189,-93.887"/>
<polygon fill="midnightblue" stroke="midnightblue" points="213.696,-90.4214 203.223,-92.0284 212.412,-97.3027 213.696,-90.4214"/>
</g>
<!-- Node14&#45;&gt;Node8 -->
<g id="edge30" class="edge"><title>Node14&#45;&gt;Node8</title>
<path fill="none" stroke="midnightblue" d="M452.716,-134.475C424.118,-124.225 375.949,-106.959 343.698,-95.3994"/>
<polygon fill="midnightblue" stroke="midnightblue" points="344.834,-92.0885 334.24,-92.0091 342.472,-98.678 344.834,-92.0885"/>
</g>
<!-- Node14&#45;&gt;Node15 -->
<g id="edge23" class="edge"><title>Node14&#45;&gt;Node15</title>
<path fill="none" stroke="midnightblue" d="M515.221,-135.545C518.022,-135.018 520.804,-134.498 523.5,-134 613.173,-117.424 637.01,-120.035 725.5,-98 728.95,-97.141 732.52,-96.1576 736.072,-95.1165"/>
<polygon fill="midnightblue" stroke="midnightblue" points="737.389,-98.3732 745.916,-92.0849 735.329,-91.6832 737.389,-98.3732"/>
</g>
<!-- Node16 -->
<g id="node16" class="node"><title>Node16</title>
<polygon fill="white" stroke="#bfbfbf" points="627.5,-73 627.5,-92 683.5,-92 683.5,-73 627.5,-73"/>
<text text-anchor="middle" x="655.5" y="-80" font-family="Helvetica,sans-Serif" font-size="10.00">sstream</text>
</g>
<!-- Node14&#45;&gt;Node16 -->
<g id="edge24" class="edge"><title>Node14&#45;&gt;Node16</title>
<path fill="none" stroke="midnightblue" d="M505.516,-134.423C534.348,-125.756 579.737,-111.72 618.5,-98 620.614,-97.2518 622.787,-96.4599 624.971,-95.6474"/>
<polygon fill="midnightblue" stroke="midnightblue" points="626.365,-98.8617 634.459,-92.0255 623.869,-92.3219 626.365,-98.8617"/>
</g>
<!-- Node17 -->
<g id="node17" class="node"><title>Node17</title>
<polygon fill="white" stroke="#bfbfbf" points="437.5,-73 437.5,-92 479.5,-92 479.5,-73 437.5,-73"/>
<text text-anchor="middle" x="458.5" y="-80" font-family="Helvetica,sans-Serif" font-size="10.00">utility</text>
</g>
<!-- Node14&#45;&gt;Node17 -->
<g id="edge26" class="edge"><title>Node14&#45;&gt;Node17</title>
<path fill="none" stroke="midnightblue" d="M473.921,-134.475C471.355,-125.992 467.335,-112.704 464.043,-101.822"/>
<polygon fill="midnightblue" stroke="midnightblue" points="467.32,-100.567 461.074,-92.0091 460.62,-102.594 467.32,-100.567"/>
</g>
<!-- Node18 -->
<g id="node18" class="node"><title>Node18</title>
<polygon fill="white" stroke="#bfbfbf" points="497.5,-67.5 497.5,-97.5 609.5,-97.5 609.5,-67.5 497.5,-67.5"/>
<text text-anchor="start" x="505.5" y="-85.5" font-family="Helvetica,sans-Serif" font-size="10.00">boost/icl/continuous</text>
<text text-anchor="middle" x="553.5" y="-74.5" font-family="Helvetica,sans-Serif" font-size="10.00">_interval.hpp</text>
</g>
<!-- Node14&#45;&gt;Node18 -->
<g id="edge28" class="edge"><title>Node14&#45;&gt;Node18</title>
<path fill="none" stroke="midnightblue" d="M487.532,-134.475C497.863,-126.492 513.7,-114.254 527.268,-103.77"/>
<polygon fill="midnightblue" stroke="midnightblue" points="529.58,-106.407 535.353,-97.523 525.3,-100.868 529.58,-106.407"/>
</g>
<!-- Node14&#45;&gt;Node19 -->
<g id="edge31" class="edge"><title>Node14&#45;&gt;Node19</title>
<path fill="none" stroke="midnightblue" d="M515.194,-135.386C518.001,-134.896 520.792,-134.429 523.5,-134 650.474,-113.901 683.651,-118.877 810.5,-98 822.598,-96.0089 835.774,-93.4325 847.454,-91.0049"/>
<polygon fill="midnightblue" stroke="midnightblue" points="848.21,-94.4226 857.269,-88.9284 846.761,-87.5742 848.21,-94.4226"/>
</g>
<!-- Node19&#45;&gt;Node4 -->
<g id="edge33" class="edge"><title>Node19&#45;&gt;Node4</title>
<path fill="none" stroke="midnightblue" d="M858.925,-72.8685C829.167,-61.4904 776.659,-41.4137 743.003,-28.5454"/>
<polygon fill="midnightblue" stroke="midnightblue" points="744.218,-25.2629 733.628,-24.9606 741.718,-31.8012 744.218,-25.2629"/>
</g>
<!-- Node20 -->
<g id="node20" class="node"><title>Node20</title>
<polygon fill="white" stroke="#bfbfbf" points="850,-6 850,-25 913,-25 913,-6 850,-6"/>
<text text-anchor="middle" x="881.5" y="-13" font-family="Helvetica,sans-Serif" font-size="10.00">exception</text>
</g>
<!-- Node19&#45;&gt;Node20 -->
<g id="edge32" class="edge"><title>Node19&#45;&gt;Node20</title>
<path fill="none" stroke="midnightblue" d="M881.5,-72.7338C881.5,-63.1826 881.5,-47.6183 881.5,-35.2829"/>
<polygon fill="midnightblue" stroke="midnightblue" points="885,-35.1273 881.5,-25.1273 878,-35.1273 885,-35.1273"/>
</g>
<!-- Node21&#45;&gt;Node7 -->
<g id="edge36" class="edge"><title>Node21&#45;&gt;Node7</title>
<path fill="none" stroke="midnightblue" d="M107.509,-190.083C106.714,-182.927 105.571,-172.635 104.577,-163.691"/>
<polygon fill="midnightblue" stroke="midnightblue" points="108.055,-163.303 103.472,-153.751 101.098,-164.076 108.055,-163.303"/>
</g>
</g>
</svg>
        <g id="navigator" transform="translate(0 0)" fill="#404254">
                <rect fill="#f2f5e9" fill-opacity="0.5" stroke="#606060" stroke-width=".5" x="0" y="0" width="60" height="60"/>
                <use id="zoomplus" xlink:href="#zoomPlus" x="17" y="9" onmousedown="handleZoom(evt,'in')"/>
                <use id="zoomminus" xlink:href="#zoomMin" x="42" y="9" onmousedown="handleZoom(evt,'out')"/>
                <use id="reset" xlink:href="#resetDef" x="30" y="36" onmousedown="handleReset()"/>
                <g id="arrowUp" xlink:href="#dirArrow" transform="translate(30 24)" onmousedown="handlePan(0,-1)">
                  <use xlink:href="#rim" fill="#404040">
                        <set attributeName="fill" to="#808080" begin="arrowUp.mouseover" end="arrowUp.mouseout"/>
                  </use>
                  <path fill="none" stroke="white" stroke-width="1.5" d="M0,-3.0v7 M-2.5,-0.5L0,-3.0L2.5,-0.5"/>
                </g>
                <g id="arrowRight" xlink:href="#dirArrow" transform="rotate(90) translate(36 -43)" onmousedown="handlePan(1,0)">
                  <use xlink:href="#rim" fill="#404040">
                        <set attributeName="fill" to="#808080" begin="arrowRight.mouseover" end="arrowRight.mouseout"/>
                  </use>
                  <path fill="none" stroke="white" stroke-width="1.5" d="M0,-3.0v7 M-2.5,-0.5L0,-3.0L2.5,-0.5"/>
                </g>
                <g id="arrowDown" xlink:href="#dirArrow" transform="rotate(180) translate(-30 -48)" onmousedown="handlePan(0,1)">
                  <use xlink:href="#rim" fill="#404040">
                        <set attributeName="fill" to="#808080" begin="arrowDown.mouseover" end="arrowDown.mouseout"/>
                  </use>
                  <path fill="none" stroke="white" stroke-width="1.5" d="M0,-3.0v7 M-2.5,-0.5L0,-3.0L2.5,-0.5"/>
                </g>
                <g id="arrowLeft" xlink:href="#dirArrow" transform="rotate(270) translate(-36 17)" onmousedown="handlePan(-1,0)">
                  <use xlink:href="#rim" fill="#404040">
                        <set attributeName="fill" to="#808080" begin="arrowLeft.mouseover" end="arrowLeft.mouseout"/>
                  </use>
                  <path fill="none" stroke="white" stroke-width="1.5" d="M0,-3.0v7 M-2.5,-0.5L0,-3.0L2.5,-0.5"/>
                </g>
        </g>
        <svg viewBox="0 0 15 15" width="100%" height="30px" preserveAspectRatio="xMaxYMin meet">
         <g id="arrow_out" transform="scale(0.3 0.3)">
          <a xlink:href="event__tree_8cc__incl_org.svg" target="_base">
           <rect id="button" ry="5" rx="5" y="6" x="6" height="38" width="38"
                fill="#f2f5e9" fill-opacity="0.5" stroke="#606060" stroke-width="1.0"/>
           <path id="arrow"
             d="M 11.500037,31.436501 C 11.940474,20.09759 22.043105,11.32322 32.158766,21.979434 L 37.068811,17.246167 C 37.068811,17.246167 37.088388,32 37.088388,32 L 22.160133,31.978069 C 22.160133,31.978069 26.997745,27.140456 26.997745,27.140456 C 18.528582,18.264221 13.291696,25.230495 11.500037,31.436501 z"
             style="fill:#404040;"/>
          </a>
         </g>
        </svg>
</svg>
