<?xml version="1.0" encoding="UTF-8" standalone="no"?>
<!DOCTYPE svg PUBLIC "-//W3C//DTD SVG 1.1//EN"
 "http://www.w3.org/Graphics/SVG/1.1/DTD/svg11.dtd">
<!-- Generated by graphviz version 2.38.0 (20140413.2041)
 -->
<!-- Title: exponential.cc Pages: 1 -->
<!--zoomable 274 -->
<svg id="main" version="1.1" xmlns="http://www.w3.org/2000/svg" xmlns:xlink="http://www.w3.org/1999/xlink" xml:space="preserve" onload="init(evt)">
<style type="text/css"><![CDATA[
.edge:hover path { stroke: red; }
.edge:hover polygon { stroke: red; fill: red; }
]]></style>
<script type="text/javascript"><![CDATA[
var edges = document.getElementsByTagName('g');
if (edges && edges.length) {
  for (var i=0;i<edges.length;i++) {
    if (edges[i].id.substr(0,4)=='edge') {
      edges[i].setAttribute('class','edge');
    }
  }
}
]]></script>
        <defs>
                <circle id="rim" cx="0" cy="0" r="7"/>
                <circle id="rim2" cx="0" cy="0" r="3.5"/>
                <g id="zoomPlus">
                        <use xlink:href="#rim" fill="#404040">
                                <set attributeName="fill" to="#808080" begin="zoomplus.mouseover" end="zoomplus.mouseout"/>
                        </use>
                        <path d="M-4,0h8M0,-4v8" fill="none" stroke="white" stroke-width="1.5" pointer-events="none"/>
                </g>
                <g id="zoomMin">
                        <use xlink:href="#rim" fill="#404040">
                                <set attributeName="fill" to="#808080" begin="zoomminus.mouseover" end="zoomminus.mouseout"/>
                        </use>
                        <path d="M-4,0h8" fill="none" stroke="white" stroke-width="1.5" pointer-events="none"/>
                </g>
                <g id="dirArrow">
                        <path fill="none" stroke="white" stroke-width="1.5" d="M0,-3.0v7 M-2.5,-0.5L0,-3.0L2.5,-0.5"/>
                </g>
               <g id="resetDef">
                       <use xlink:href="#rim2" fill="#404040">
                               <set attributeName="fill" to="#808080" begin="reset.mouseover" end="reset.mouseout"/>
                       </use>
               </g>
        </defs>

<script type="text/javascript">
var viewWidth = 847;
var viewHeight = 274;
var sectionId = 'dynsection-0';
</script>
<script xlink:href="svgpan.js"/>
<svg id="graph" class="graph">
<g id="viewport">
<title>exponential.cc</title>
<polygon fill="white" stroke="none" points="-4,4 -4,-270 843,-270 843,4 -4,4"/>
<!-- Node1 -->
<g id="node1" class="node"><title>Node1</title>
<polygon fill="#bfbfbf" stroke="black" points="720.5,-246.5 720.5,-265.5 806.5,-265.5 806.5,-246.5 720.5,-246.5"/>
<text text-anchor="middle" x="763.5" y="-253.5" font-family="Helvetica,sans-Serif" font-size="10.00">exponential.cc</text>
</g>
<!-- Node2 -->
<g id="node2" class="node"><title>Node2</title>
<g id="a_node2"><a xlink:href="exponential_8h.xhtml" target="_top" xlink:title="Expressions and distributions that are described with exponential formulas. ">
<polygon fill="white" stroke="black" points="555,-190.5 555,-209.5 636,-209.5 636,-190.5 555,-190.5"/>
<text text-anchor="middle" x="595.5" y="-197.5" font-family="Helvetica,sans-Serif" font-size="10.00">exponential.h</text>
</a>
</g>
</g>
<!-- Node1&#45;&gt;Node2 -->
<g id="edge1" class="edge"><title>Node1&#45;&gt;Node2</title>
<path fill="none" stroke="midnightblue" d="M736.88,-246.444C708.494,-237.32 663.363,-222.813 631.747,-212.651"/>
<polygon fill="midnightblue" stroke="midnightblue" points="632.587,-209.244 621.996,-209.516 630.445,-215.909 632.587,-209.244"/>
</g>
<!-- Node17 -->
<g id="node17" class="node"><title>Node17</title>
<g id="a_node17"><a xlink:href="error_8h.xhtml" target="_top" xlink:title="Exceptions for SCRAM. ">
<polygon fill="white" stroke="black" points="764.5,-73 764.5,-92 812.5,-92 812.5,-73 764.5,-73"/>
<text text-anchor="middle" x="788.5" y="-80" font-family="Helvetica,sans-Serif" font-size="10.00">error.h</text>
</a>
</g>
</g>
<!-- Node1&#45;&gt;Node17 -->
<g id="edge22" class="edge"><title>Node1&#45;&gt;Node17</title>
<path fill="none" stroke="midnightblue" d="M764.774,-246.26C768.653,-219.651 780.378,-139.215 785.754,-102.338"/>
<polygon fill="midnightblue" stroke="midnightblue" points="789.279,-102.42 787.258,-92.0194 782.352,-101.41 789.279,-102.42"/>
</g>
<!-- Node19 -->
<g id="node19" class="node"><title>Node19</title>
<polygon fill="white" stroke="#bfbfbf" points="792,-190.5 792,-209.5 839,-209.5 839,-190.5 792,-190.5"/>
<text text-anchor="middle" x="815.5" y="-197.5" font-family="Helvetica,sans-Serif" font-size="10.00">cmath</text>
</g>
<!-- Node1&#45;&gt;Node19 -->
<g id="edge21" class="edge"><title>Node1&#45;&gt;Node19</title>
<path fill="none" stroke="midnightblue" d="M772.087,-246.083C779.659,-238.22 790.878,-226.569 800.014,-217.081"/>
<polygon fill="midnightblue" stroke="midnightblue" points="802.658,-219.382 807.073,-209.751 797.615,-214.527 802.658,-219.382"/>
</g>
<!-- Node3 -->
<g id="node3" class="node"><title>Node3</title>
<polygon fill="white" stroke="#bfbfbf" points="567,-134.5 567,-153.5 624,-153.5 624,-134.5 567,-134.5"/>
<text text-anchor="middle" x="595.5" y="-141.5" font-family="Helvetica,sans-Serif" font-size="10.00">memory</text>
</g>
<!-- Node2&#45;&gt;Node3 -->
<g id="edge2" class="edge"><title>Node2&#45;&gt;Node3</title>
<path fill="none" stroke="midnightblue" d="M595.5,-190.083C595.5,-183.006 595.5,-172.861 595.5,-163.986"/>
<polygon fill="midnightblue" stroke="midnightblue" points="599,-163.751 595.5,-153.751 592,-163.751 599,-163.751"/>
</g>
<!-- Node4 -->
<g id="node4" class="node"><title>Node4</title>
<g id="a_node4"><a xlink:href="expression_8h.xhtml" target="_top" xlink:title="Provides the base class for all expressions and units for expression values. ">
<polygon fill="white" stroke="black" points="404,-134.5 404,-153.5 499,-153.5 499,-134.5 404,-134.5"/>
<text text-anchor="middle" x="451.5" y="-141.5" font-family="Helvetica,sans-Serif" font-size="10.00">src/expression.h</text>
</a>
</g>
</g>
<!-- Node2&#45;&gt;Node4 -->
<g id="edge3" class="edge"><title>Node2&#45;&gt;Node4</title>
<path fill="none" stroke="midnightblue" d="M572.683,-190.444C548.668,-181.438 510.671,-167.189 483.631,-157.049"/>
<polygon fill="midnightblue" stroke="midnightblue" points="484.803,-153.751 474.21,-153.516 482.345,-160.305 484.803,-153.751"/>
</g>
<!-- Node5 -->
<g id="node5" class="node"><title>Node5</title>
<polygon fill="white" stroke="#bfbfbf" points="684.5,-73 684.5,-92 746.5,-92 746.5,-73 684.5,-73"/>
<text text-anchor="middle" x="715.5" y="-80" font-family="Helvetica,sans-Serif" font-size="10.00">algorithm</text>
</g>
<!-- Node4&#45;&gt;Node5 -->
<g id="edge4" class="edge"><title>Node4&#45;&gt;Node5</title>
<path fill="none" stroke="midnightblue" d="M499.266,-134.738C543.866,-126.658 612.128,-113.353 670.5,-98 673.856,-97.1172 677.331,-96.1305 680.795,-95.0983"/>
<polygon fill="midnightblue" stroke="midnightblue" points="681.899,-98.4205 690.415,-92.1172 679.827,-91.7342 681.899,-98.4205"/>
</g>
<!-- Node6 -->
<g id="node6" class="node"><title>Node6</title>
<polygon fill="white" stroke="#bfbfbf" points="114.5,-73 114.5,-92 170.5,-92 170.5,-73 114.5,-73"/>
<text text-anchor="middle" x="142.5" y="-80" font-family="Helvetica,sans-Serif" font-size="10.00">sstream</text>
</g>
<!-- Node4&#45;&gt;Node6 -->
<g id="edge5" class="edge"><title>Node4&#45;&gt;Node6</title>
<path fill="none" stroke="midnightblue" d="M403.739,-137.375C349.931,-130.479 260.113,-117.283 184.5,-98 181.286,-97.1803 177.967,-96.2269 174.668,-95.2078"/>
<polygon fill="midnightblue" stroke="midnightblue" points="175.554,-91.8149 164.961,-92.0215 173.37,-98.4657 175.554,-91.8149"/>
</g>
<!-- Node7 -->
<g id="node7" class="node"><title>Node7</title>
<polygon fill="white" stroke="#bfbfbf" points="634.5,-6 634.5,-25 678.5,-25 678.5,-6 634.5,-6"/>
<text text-anchor="middle" x="656.5" y="-13" font-family="Helvetica,sans-Serif" font-size="10.00">string</text>
</g>
<!-- Node4&#45;&gt;Node7 -->
<g id="edge6" class="edge"><title>Node4&#45;&gt;Node7</title>
<path fill="none" stroke="midnightblue" d="M499.312,-137.174C547.81,-130.292 618.375,-117.285 637.5,-98 653.936,-81.4266 657.226,-53.5573 657.396,-35.0971"/>
<polygon fill="midnightblue" stroke="midnightblue" points="660.893,-34.93 657.189,-25.004 653.895,-35.0738 660.893,-34.93"/>
</g>
<!-- Node8 -->
<g id="node8" class="node"><title>Node8</title>
<polygon fill="white" stroke="#bfbfbf" points="226.5,-73 226.5,-92 268.5,-92 268.5,-73 226.5,-73"/>
<text text-anchor="middle" x="247.5" y="-80" font-family="Helvetica,sans-Serif" font-size="10.00">utility</text>
</g>
<!-- Node4&#45;&gt;Node8 -->
<g id="edge7" class="edge"><title>Node4&#45;&gt;Node8</title>
<path fill="none" stroke="midnightblue" d="M408.951,-134.458C373.278,-126.715 321.293,-114.068 277.5,-98 276.074,-97.477 274.626,-96.9087 273.174,-96.3101"/>
<polygon fill="midnightblue" stroke="midnightblue" points="274.308,-92.9824 263.752,-92.0744 271.437,-99.367 274.308,-92.9824"/>
</g>
<!-- Node9 -->
<g id="node9" class="node"><title>Node9</title>
<polygon fill="white" stroke="#bfbfbf" points="0,-6 0,-25 47,-25 47,-6 0,-6"/>
<text text-anchor="middle" x="23.5" y="-13" font-family="Helvetica,sans-Serif" font-size="10.00">vector</text>
</g>
<!-- Node4&#45;&gt;Node9 -->
<g id="edge8" class="edge"><title>Node4&#45;&gt;Node9</title>
<path fill="none" stroke="midnightblue" d="M403.673,-140.658C354.837,-136.726 277.842,-126.197 217.5,-98 197.754,-88.7727 198.787,-77.152 179.5,-67 129.096,-40.4693 110.019,-50.4975 56.5,-31 54.8426,-30.3962 53.1502,-29.7496 51.4504,-29.0769"/>
<polygon fill="midnightblue" stroke="midnightblue" points="52.4057,-25.6828 41.8295,-25.0556 49.7062,-32.1413 52.4057,-25.6828"/>
</g>
<!-- Node10 -->
<g id="node10" class="node"><title>Node10</title>
<polygon fill="white" stroke="#bfbfbf" points="370.5,-67.5 370.5,-97.5 482.5,-97.5 482.5,-67.5 370.5,-67.5"/>
<text text-anchor="start" x="378.5" y="-85.5" font-family="Helvetica,sans-Serif" font-size="10.00">boost/icl/continuous</text>
<text text-anchor="middle" x="426.5" y="-74.5" font-family="Helvetica,sans-Serif" font-size="10.00">_interval.hpp</text>
</g>
<!-- Node4&#45;&gt;Node10 -->
<g id="edge9" class="edge"><title>Node4&#45;&gt;Node10</title>
<path fill="none" stroke="midnightblue" d="M447.918,-134.475C444.88,-127.245 440.376,-116.525 436.281,-106.779"/>
<polygon fill="midnightblue" stroke="midnightblue" points="439.492,-105.386 432.392,-97.523 433.039,-108.098 439.492,-105.386"/>
</g>
<!-- Node11 -->
<g id="node11" class="node"><title>Node11</title>
<polygon fill="white" stroke="#bfbfbf" points="500.5,-73 500.5,-92 628.5,-92 628.5,-73 500.5,-73"/>
<text text-anchor="middle" x="564.5" y="-80" font-family="Helvetica,sans-Serif" font-size="10.00">boost/noncopyable.hpp</text>
</g>
<!-- Node4&#45;&gt;Node11 -->
<g id="edge10" class="edge"><title>Node4&#45;&gt;Node11</title>
<path fill="none" stroke="midnightblue" d="M467.69,-134.475C486.402,-124.622 517.423,-108.288 539.299,-96.7697"/>
<polygon fill="midnightblue" stroke="midnightblue" points="541.122,-99.7651 548.34,-92.0091 537.861,-93.5713 541.122,-99.7651"/>
</g>
<!-- Node12 -->
<g id="node12" class="node"><title>Node12</title>
<g id="a_node12"><a xlink:href="element_8h.xhtml" target="_top" xlink:title="Helper classes, structs, and properties common to all other classes. ">
<polygon fill="white" stroke="black" points="287,-73 287,-92 352,-92 352,-73 287,-73"/>
<text text-anchor="middle" x="319.5" y="-80" font-family="Helvetica,sans-Serif" font-size="10.00">element.h</text>
</a>
</g>
</g>
<!-- Node4&#45;&gt;Node12 -->
<g id="edge11" class="edge"><title>Node4&#45;&gt;Node12</title>
<path fill="none" stroke="midnightblue" d="M432.588,-134.475C410.337,-124.445 373.188,-107.7 347.574,-96.1546"/>
<polygon fill="midnightblue" stroke="midnightblue" points="348.932,-92.9277 338.377,-92.0091 346.056,-99.3094 348.932,-92.9277"/>
</g>
<!-- Node4&#45;&gt;Node17 -->
<g id="edge18" class="edge"><title>Node4&#45;&gt;Node17</title>
<path fill="none" stroke="midnightblue" d="M499.219,-137.513C572.292,-128.843 708.398,-111.569 755.5,-98 757.65,-97.3807 759.843,-96.6516 762.025,-95.8555"/>
<polygon fill="midnightblue" stroke="midnightblue" points="763.405,-99.0726 771.354,-92.0683 760.772,-92.5866 763.405,-99.0726"/>
</g>
<!-- Node12&#45;&gt;Node7 -->
<g id="edge13" class="edge"><title>Node12&#45;&gt;Node7</title>
<path fill="none" stroke="midnightblue" d="M341.931,-72.8578C348.193,-70.6925 355.049,-68.5481 361.5,-67 474.081,-39.982 507.498,-60.324 619.5,-31 622.161,-30.3032 624.891,-29.4717 627.604,-28.5643"/>
<polygon fill="midnightblue" stroke="midnightblue" points="629.012,-31.7761 637.199,-25.0511 626.605,-25.2029 629.012,-31.7761"/>
</g>
<!-- Node12&#45;&gt;Node9 -->
<g id="edge14" class="edge"><title>Node12&#45;&gt;Node9</title>
<path fill="none" stroke="midnightblue" d="M297.045,-72.9551C290.783,-70.7902 283.933,-68.6217 277.5,-67 181.002,-42.6732 151.926,-59.2413 56.5,-31 54.3548,-30.3651 52.1652,-29.6248 49.9854,-28.8208"/>
<polygon fill="midnightblue" stroke="midnightblue" points="51.2416,-25.5533 40.6602,-25.0187 48.5987,-32.0353 51.2416,-25.5533"/>
</g>
<!-- Node13 -->
<g id="node13" class="node"><title>Node13</title>
<polygon fill="white" stroke="#bfbfbf" points="562,-6 562,-25 611,-25 611,-6 562,-6"/>
<text text-anchor="middle" x="586.5" y="-13" font-family="Helvetica,sans-Serif" font-size="10.00">cstdint</text>
</g>
<!-- Node12&#45;&gt;Node13 -->
<g id="edge12" class="edge"><title>Node12&#45;&gt;Node13</title>
<path fill="none" stroke="midnightblue" d="M342.42,-72.9095C348.562,-70.7942 355.237,-68.6618 361.5,-67 444.994,-44.8458 469.841,-56.0908 552.5,-31 554.645,-30.3488 556.838,-29.6053 559.026,-28.8067"/>
<polygon fill="midnightblue" stroke="midnightblue" points="560.422,-32.0185 568.419,-25.0697 557.834,-25.5143 560.422,-32.0185"/>
</g>
<!-- Node14 -->
<g id="node14" class="node"><title>Node14</title>
<polygon fill="white" stroke="#bfbfbf" points="65.5,-6 65.5,-25 237.5,-25 237.5,-6 65.5,-6"/>
<text text-anchor="middle" x="151.5" y="-13" font-family="Helvetica,sans-Serif" font-size="10.00">boost/multi_index_container.hpp</text>
</g>
<!-- Node12&#45;&gt;Node14 -->
<g id="edge15" class="edge"><title>Node12&#45;&gt;Node14</title>
<path fill="none" stroke="midnightblue" d="M297.191,-72.8685C267.99,-61.5706 216.622,-41.6961 183.338,-28.8183"/>
<polygon fill="midnightblue" stroke="midnightblue" points="184.223,-25.4079 173.634,-25.0637 181.697,-31.9363 184.223,-25.4079"/>
</g>
<!-- Node15 -->
<g id="node15" class="node"><title>Node15</title>
<polygon fill="white" stroke="#bfbfbf" points="255.5,-0.5 255.5,-30.5 395.5,-30.5 395.5,-0.5 255.5,-0.5"/>
<text text-anchor="start" x="263.5" y="-18.5" font-family="Helvetica,sans-Serif" font-size="10.00">boost/multi_index/hashed</text>
<text text-anchor="middle" x="325.5" y="-7.5" font-family="Helvetica,sans-Serif" font-size="10.00">_index.hpp</text>
</g>
<!-- Node12&#45;&gt;Node15 -->
<g id="edge16" class="edge"><title>Node12&#45;&gt;Node15</title>
<path fill="none" stroke="midnightblue" d="M320.309,-72.7338C321.065,-64.5406 322.23,-51.9225 323.265,-40.7136"/>
<polygon fill="midnightblue" stroke="midnightblue" points="326.765,-40.8684 324.199,-30.589 319.795,-40.2249 326.765,-40.8684"/>
</g>
<!-- Node16 -->
<g id="node16" class="node"><title>Node16</title>
<polygon fill="white" stroke="#bfbfbf" points="413.5,-0.5 413.5,-30.5 543.5,-30.5 543.5,-0.5 413.5,-0.5"/>
<text text-anchor="start" x="421.5" y="-18.5" font-family="Helvetica,sans-Serif" font-size="10.00">boost/multi_index/mem</text>
<text text-anchor="middle" x="478.5" y="-7.5" font-family="Helvetica,sans-Serif" font-size="10.00">_fun.hpp</text>
</g>
<!-- Node12&#45;&gt;Node16 -->
<g id="edge17" class="edge"><title>Node12&#45;&gt;Node16</title>
<path fill="none" stroke="midnightblue" d="M340.614,-72.8685C364.473,-63.115 403.967,-46.9696 434.587,-34.452"/>
<polygon fill="midnightblue" stroke="midnightblue" points="436.253,-37.5519 444.185,-30.5281 433.604,-31.0724 436.253,-37.5519"/>
</g>
<!-- Node17&#45;&gt;Node7 -->
<g id="edge20" class="edge"><title>Node17&#45;&gt;Node7</title>
<path fill="none" stroke="midnightblue" d="M770.971,-72.8685C748.486,-61.7961 709.272,-42.4862 683.099,-29.5978"/>
<polygon fill="midnightblue" stroke="midnightblue" points="684.619,-26.445 674.101,-25.1672 681.526,-32.7249 684.619,-26.445"/>
</g>
<!-- Node18 -->
<g id="node18" class="node"><title>Node18</title>
<polygon fill="white" stroke="#bfbfbf" points="757,-6 757,-25 820,-25 820,-6 757,-6"/>
<text text-anchor="middle" x="788.5" y="-13" font-family="Helvetica,sans-Serif" font-size="10.00">exception</text>
</g>
<!-- Node17&#45;&gt;Node18 -->
<g id="edge19" class="edge"><title>Node17&#45;&gt;Node18</title>
<path fill="none" stroke="midnightblue" d="M788.5,-72.7338C788.5,-63.1826 788.5,-47.6183 788.5,-35.2829"/>
<polygon fill="midnightblue" stroke="midnightblue" points="792,-35.1273 788.5,-25.1273 785,-35.1273 792,-35.1273"/>
</g>
</g>
</svg>
        <g id="navigator" transform="translate(0 0)" fill="#404254">
                <rect fill="#f2f5e9" fill-opacity="0.5" stroke="#606060" stroke-width=".5" x="0" y="0" width="60" height="60"/>
                <use id="zoomplus" xlink:href="#zoomPlus" x="17" y="9" onmousedown="handleZoom(evt,'in')"/>
                <use id="zoomminus" xlink:href="#zoomMin" x="42" y="9" onmousedown="handleZoom(evt,'out')"/>
                <use id="reset" xlink:href="#resetDef" x="30" y="36" onmousedown="handleReset()"/>
                <g id="arrowUp" xlink:href="#dirArrow" transform="translate(30 24)" onmousedown="handlePan(0,-1)">
                  <use xlink:href="#rim" fill="#404040">
                        <set attributeName="fill" to="#808080" begin="arrowUp.mouseover" end="arrowUp.mouseout"/>
                  </use>
                  <path fill="none" stroke="white" stroke-width="1.5" d="M0,-3.0v7 M-2.5,-0.5L0,-3.0L2.5,-0.5"/>
                </g>
                <g id="arrowRight" xlink:href="#dirArrow" transform="rotate(90) translate(36 -43)" onmousedown="handlePan(1,0)">
                  <use xlink:href="#rim" fill="#404040">
                        <set attributeName="fill" to="#808080" begin="arrowRight.mouseover" end="arrowRight.mouseout"/>
                  </use>
                  <path fill="none" stroke="white" stroke-width="1.5" d="M0,-3.0v7 M-2.5,-0.5L0,-3.0L2.5,-0.5"/>
                </g>
                <g id="arrowDown" xlink:href="#dirArrow" transform="rotate(180) translate(-30 -48)" onmousedown="handlePan(0,1)">
                  <use xlink:href="#rim" fill="#404040">
                        <set attributeName="fill" to="#808080" begin="arrowDown.mouseover" end="arrowDown.mouseout"/>
                  </use>
                  <path fill="none" stroke="white" stroke-width="1.5" d="M0,-3.0v7 M-2.5,-0.5L0,-3.0L2.5,-0.5"/>
                </g>
                <g id="arrowLeft" xlink:href="#dirArrow" transform="rotate(270) translate(-36 17)" onmousedown="handlePan(-1,0)">
                  <use xlink:href="#rim" fill="#404040">
                        <set attributeName="fill" to="#808080" begin="arrowLeft.mouseover" end="arrowLeft.mouseout"/>
                  </use>
                  <path fill="none" stroke="white" stroke-width="1.5" d="M0,-3.0v7 M-2.5,-0.5L0,-3.0L2.5,-0.5"/>
                </g>
        </g>
        <svg viewBox="0 0 15 15" width="100%" height="30px" preserveAspectRatio="xMaxYMin meet">
         <g id="arrow_out" transform="scale(0.3 0.3)">
          <a xlink:href="exponential_8cc__incl_org.svg" target="_base">
           <rect id="button" ry="5" rx="5" y="6" x="6" height="38" width="38"
                fill="#f2f5e9" fill-opacity="0.5" stroke="#606060" stroke-width="1.0"/>
           <path id="arrow"
             d="M 11.500037,31.436501 C 11.940474,20.09759 22.043105,11.32322 32.158766,21.979434 L 37.068811,17.246167 C 37.068811,17.246167 37.088388,32 37.088388,32 L 22.160133,31.978069 C 22.160133,31.978069 26.997745,27.140456 26.997745,27.140456 C 18.528582,18.264221 13.291696,25.230495 11.500037,31.436501 z"
             style="fill:#404040;"/>
          </a>
         </g>
        </svg>
</svg>
