<?xml version="1.0" encoding="UTF-8" standalone="no"?>
<!DOCTYPE svg PUBLIC "-//W3C//DTD SVG 1.1//EN"
 "http://www.w3.org/Graphics/SVG/1.1/DTD/svg11.dtd">
<!-- Generated by graphviz version 2.38.0 (20140413.2041)
 -->
<!-- Title: expression.cc Pages: 1 -->
<svg width="892pt" height="218pt"
 viewBox="0.00 0.00 891.50 218.00" xmlns="http://www.w3.org/2000/svg" xmlns:xlink="http://www.w3.org/1999/xlink">
<g id="graph0" class="graph" transform="scale(1 1) rotate(0) translate(4 214)">
<title>expression.cc</title>
<polygon fill="white" stroke="none" points="-4,4 -4,-214 887.5,-214 887.5,4 -4,4"/>
<!-- Node1 -->
<g id="node1" class="node"><title>Node1</title>
<polygon fill="#bfbfbf" stroke="black" points="549.5,-190.5 549.5,-209.5 631.5,-209.5 631.5,-190.5 549.5,-190.5"/>
<text text-anchor="middle" x="590.5" y="-197.5" font-family="Helvetica,sans-Serif" font-size="10.00">expression.cc</text>
</g>
<!-- Node2 -->
<g id="node2" class="node"><title>Node2</title>
<g id="a_node2"><a xlink:href="expression_8h.xhtml" target="_top" xlink:title="Provides the base class for all expressions and units for expression values. ">
<polygon fill="white" stroke="black" points="422,-134.5 422,-153.5 499,-153.5 499,-134.5 422,-134.5"/>
<text text-anchor="middle" x="460.5" y="-141.5" font-family="Helvetica,sans-Serif" font-size="10.00">expression.h</text>
</a>
</g>
</g>
<!-- Node1&#45;&gt;Node2 -->
<g id="edge1" class="edge"><title>Node1&#45;&gt;Node2</title>
<path fill="none" stroke="midnightblue" d="M569.901,-190.444C548.507,-181.557 514.819,-167.563 490.476,-157.451"/>
<polygon fill="midnightblue" stroke="midnightblue" points="491.58,-154.12 481.003,-153.516 488.895,-160.585 491.58,-154.12"/>
</g>
<!-- Node17 -->
<g id="node17" class="node"><title>Node17</title>
<g id="a_node17"><a xlink:href="algorithm_8h.xhtml" target="_top" xlink:title="Helpful algorithm facilities as an extension to the STL or Boost. ">
<polygon fill="white" stroke="black" points="646,-134.5 646,-153.5 735,-153.5 735,-134.5 646,-134.5"/>
<text text-anchor="middle" x="690.5" y="-141.5" font-family="Helvetica,sans-Serif" font-size="10.00">ext/algorithm.h</text>
</a>
</g>
</g>
<!-- Node1&#45;&gt;Node17 -->
<g id="edge19" class="edge"><title>Node1&#45;&gt;Node17</title>
<path fill="none" stroke="midnightblue" d="M606.567,-190.324C622.458,-181.743 647.007,-168.486 665.458,-158.522"/>
<polygon fill="midnightblue" stroke="midnightblue" points="667.337,-161.486 674.473,-153.655 664.011,-155.326 667.337,-161.486"/>
</g>
<!-- Node3 -->
<g id="node3" class="node"><title>Node3</title>
<polygon fill="white" stroke="#bfbfbf" points="659.5,-73 659.5,-92 721.5,-92 721.5,-73 659.5,-73"/>
<text text-anchor="middle" x="690.5" y="-80" font-family="Helvetica,sans-Serif" font-size="10.00">algorithm</text>
</g>
<!-- Node2&#45;&gt;Node3 -->
<g id="edge2" class="edge"><title>Node2&#45;&gt;Node3</title>
<path fill="none" stroke="midnightblue" d="M499.055,-135.232C537.686,-127.131 598.692,-113.469 650.5,-98 653.13,-97.2148 655.839,-96.352 658.549,-95.4508"/>
<polygon fill="midnightblue" stroke="midnightblue" points="659.929,-98.6765 668.227,-92.0882 657.632,-92.0642 659.929,-98.6765"/>
</g>
<!-- Node4 -->
<g id="node4" class="node"><title>Node4</title>
<polygon fill="white" stroke="#bfbfbf" points="519.5,-73 519.5,-92 575.5,-92 575.5,-73 519.5,-73"/>
<text text-anchor="middle" x="547.5" y="-80" font-family="Helvetica,sans-Serif" font-size="10.00">sstream</text>
</g>
<!-- Node2&#45;&gt;Node4 -->
<g id="edge3" class="edge"><title>Node2&#45;&gt;Node4</title>
<path fill="none" stroke="midnightblue" d="M472.965,-134.475C486.919,-124.931 509.765,-109.307 526.491,-97.8683"/>
<polygon fill="midnightblue" stroke="midnightblue" points="528.78,-100.543 535.058,-92.0091 524.828,-94.7653 528.78,-100.543"/>
</g>
<!-- Node5 -->
<g id="node5" class="node"><title>Node5</title>
<polygon fill="white" stroke="#bfbfbf" points="629.5,-6 629.5,-25 673.5,-25 673.5,-6 629.5,-6"/>
<text text-anchor="middle" x="651.5" y="-13" font-family="Helvetica,sans-Serif" font-size="10.00">string</text>
</g>
<!-- Node2&#45;&gt;Node5 -->
<g id="edge4" class="edge"><title>Node2&#45;&gt;Node5</title>
<path fill="none" stroke="midnightblue" d="M463.898,-134.332C470.496,-118.608 486.532,-85.3183 510.5,-67 551.37,-35.763 572.67,-49.932 620.5,-31 621.916,-30.4397 623.359,-29.8462 624.809,-29.2319"/>
<polygon fill="midnightblue" stroke="midnightblue" points="626.577,-32.2758 634.283,-25.0048 623.724,-25.8833 626.577,-32.2758"/>
</g>
<!-- Node6 -->
<g id="node6" class="node"><title>Node6</title>
<polygon fill="white" stroke="#bfbfbf" points="23.5,-73 23.5,-92 65.5,-92 65.5,-73 23.5,-73"/>
<text text-anchor="middle" x="44.5" y="-80" font-family="Helvetica,sans-Serif" font-size="10.00">utility</text>
</g>
<!-- Node2&#45;&gt;Node6 -->
<g id="edge5" class="edge"><title>Node2&#45;&gt;Node6</title>
<path fill="none" stroke="midnightblue" d="M421.728,-141.928C352.115,-139.233 201.792,-129.9 79.5,-98 77.0498,-97.3609 74.5449,-96.586 72.0573,-95.7307"/>
<polygon fill="midnightblue" stroke="midnightblue" points="73.2907,-92.4553 62.7002,-92.1503 70.7891,-98.993 73.2907,-92.4553"/>
</g>
<!-- Node7 -->
<g id="node7" class="node"><title>Node7</title>
<polygon fill="white" stroke="#bfbfbf" points="0,-6 0,-25 47,-25 47,-6 0,-6"/>
<text text-anchor="middle" x="23.5" y="-13" font-family="Helvetica,sans-Serif" font-size="10.00">vector</text>
</g>
<!-- Node2&#45;&gt;Node7 -->
<g id="edge6" class="edge"><title>Node2&#45;&gt;Node7</title>
<path fill="none" stroke="midnightblue" d="M421.939,-140.943C343.213,-136.271 166.848,-123.256 112.5,-98 103.917,-94.0114 63.1097,-55.0492 39.8446,-32.4722"/>
<polygon fill="midnightblue" stroke="midnightblue" points="42.0359,-29.7207 32.4287,-25.2539 37.1534,-34.7369 42.0359,-29.7207"/>
</g>
<!-- Node8 -->
<g id="node8" class="node"><title>Node8</title>
<polygon fill="white" stroke="#bfbfbf" points="121.5,-67.5 121.5,-97.5 233.5,-97.5 233.5,-67.5 121.5,-67.5"/>
<text text-anchor="start" x="129.5" y="-85.5" font-family="Helvetica,sans-Serif" font-size="10.00">boost/icl/continuous</text>
<text text-anchor="middle" x="177.5" y="-74.5" font-family="Helvetica,sans-Serif" font-size="10.00">_interval.hpp</text>
</g>
<!-- Node2&#45;&gt;Node8 -->
<g id="edge7" class="edge"><title>Node2&#45;&gt;Node8</title>
<path fill="none" stroke="midnightblue" d="M421.869,-135.219C380.308,-126.805 312.004,-112.854 243.598,-98.2173"/>
<polygon fill="midnightblue" stroke="midnightblue" points="244.019,-94.7281 233.507,-96.0533 242.551,-101.572 244.019,-94.7281"/>
</g>
<!-- Node9 -->
<g id="node9" class="node"><title>Node9</title>
<polygon fill="white" stroke="#bfbfbf" points="251.5,-73 251.5,-92 379.5,-92 379.5,-73 251.5,-73"/>
<text text-anchor="middle" x="315.5" y="-80" font-family="Helvetica,sans-Serif" font-size="10.00">boost/noncopyable.hpp</text>
</g>
<!-- Node2&#45;&gt;Node9 -->
<g id="edge8" class="edge"><title>Node2&#45;&gt;Node9</title>
<path fill="none" stroke="midnightblue" d="M439.725,-134.475C415.068,-124.357 373.755,-107.405 345.598,-95.8507"/>
<polygon fill="midnightblue" stroke="midnightblue" points="346.817,-92.5674 336.236,-92.0091 344.159,-99.0434 346.817,-92.5674"/>
</g>
<!-- Node10 -->
<g id="node10" class="node"><title>Node10</title>
<g id="a_node10"><a xlink:href="element_8h.xhtml" target="_top" xlink:title="Helper classes, structs, and properties common to all other classes. ">
<polygon fill="white" stroke="black" points="398,-73 398,-92 463,-92 463,-73 398,-73"/>
<text text-anchor="middle" x="430.5" y="-80" font-family="Helvetica,sans-Serif" font-size="10.00">element.h</text>
</a>
</g>
</g>
<!-- Node2&#45;&gt;Node10 -->
<g id="edge9" class="edge"><title>Node2&#45;&gt;Node10</title>
<path fill="none" stroke="midnightblue" d="M456.202,-134.475C451.835,-125.815 444.945,-112.149 439.397,-101.145"/>
<polygon fill="midnightblue" stroke="midnightblue" points="442.418,-99.3625 434.79,-92.0091 436.167,-102.514 442.418,-99.3625"/>
</g>
<!-- Node15 -->
<g id="node15" class="node"><title>Node15</title>
<g id="a_node15"><a xlink:href="error_8h.xhtml" target="_top" xlink:title="Exceptions for SCRAM. ">
<polygon fill="white" stroke="black" points="593.5,-73 593.5,-92 641.5,-92 641.5,-73 593.5,-73"/>
<text text-anchor="middle" x="617.5" y="-80" font-family="Helvetica,sans-Serif" font-size="10.00">error.h</text>
</a>
</g>
</g>
<!-- Node2&#45;&gt;Node15 -->
<g id="edge16" class="edge"><title>Node2&#45;&gt;Node15</title>
<path fill="none" stroke="midnightblue" d="M485.858,-134.347C511.051,-125.622 550.698,-111.542 584.5,-98 585.916,-97.4327 587.361,-96.842 588.818,-96.2375"/>
<polygon fill="midnightblue" stroke="midnightblue" points="590.572,-99.2941 598.395,-92.1491 587.824,-92.8562 590.572,-99.2941"/>
</g>
<!-- Node10&#45;&gt;Node5 -->
<g id="edge11" class="edge"><title>Node10&#45;&gt;Node5</title>
<path fill="none" stroke="midnightblue" d="M457.271,-72.9742C463.865,-70.948 470.921,-68.8415 477.5,-67 540.613,-49.3335 558.758,-52.9839 620.5,-31 622.116,-30.4245 623.762,-29.7944 625.411,-29.1292"/>
<polygon fill="midnightblue" stroke="midnightblue" points="626.929,-32.2857 634.69,-25.0738 624.125,-25.8715 626.929,-32.2857"/>
</g>
<!-- Node10&#45;&gt;Node7 -->
<g id="edge12" class="edge"><title>Node10&#45;&gt;Node7</title>
<path fill="none" stroke="midnightblue" d="M408.535,-72.878C402.157,-70.6596 395.124,-68.4829 388.5,-67 243.664,-34.5785 199.894,-69.3002 56.5,-31 54.2045,-30.3869 51.8639,-29.6366 49.5422,-28.8035"/>
<polygon fill="midnightblue" stroke="midnightblue" points="50.8508,-25.5573 40.2681,-25.0504 48.2248,-32.0461 50.8508,-25.5573"/>
</g>
<!-- Node11 -->
<g id="node11" class="node"><title>Node11</title>
<polygon fill="white" stroke="#bfbfbf" points="372,-6 372,-25 421,-25 421,-6 372,-6"/>
<text text-anchor="middle" x="396.5" y="-13" font-family="Helvetica,sans-Serif" font-size="10.00">cstdint</text>
</g>
<!-- Node10&#45;&gt;Node11 -->
<g id="edge10" class="edge"><title>Node10&#45;&gt;Node11</title>
<path fill="none" stroke="midnightblue" d="M425.915,-72.7338C420.766,-62.8903 412.276,-46.6598 405.737,-34.1594"/>
<polygon fill="midnightblue" stroke="midnightblue" points="408.749,-32.366 401.013,-25.1273 402.546,-35.6106 408.749,-32.366"/>
</g>
<!-- Node12 -->
<g id="node12" class="node"><title>Node12</title>
<polygon fill="white" stroke="#bfbfbf" points="439.5,-6 439.5,-25 611.5,-25 611.5,-6 439.5,-6"/>
<text text-anchor="middle" x="525.5" y="-13" font-family="Helvetica,sans-Serif" font-size="10.00">boost/multi_index_container.hpp</text>
</g>
<!-- Node10&#45;&gt;Node12 -->
<g id="edge13" class="edge"><title>Node10&#45;&gt;Node12</title>
<path fill="none" stroke="midnightblue" d="M443.312,-72.7338C458.981,-62.0131 485.722,-43.7165 504.434,-30.9137"/>
<polygon fill="midnightblue" stroke="midnightblue" points="506.614,-33.6628 512.891,-25.1273 502.661,-27.8856 506.614,-33.6628"/>
</g>
<!-- Node13 -->
<g id="node13" class="node"><title>Node13</title>
<polygon fill="white" stroke="#bfbfbf" points="65.5,-0.5 65.5,-30.5 205.5,-30.5 205.5,-0.5 65.5,-0.5"/>
<text text-anchor="start" x="73.5" y="-18.5" font-family="Helvetica,sans-Serif" font-size="10.00">boost/multi_index/hashed</text>
<text text-anchor="middle" x="135.5" y="-7.5" font-family="Helvetica,sans-Serif" font-size="10.00">_index.hpp</text>
</g>
<!-- Node10&#45;&gt;Node13 -->
<g id="edge14" class="edge"><title>Node10&#45;&gt;Node13</title>
<path fill="none" stroke="midnightblue" d="M407.568,-72.9549C401.426,-70.8393 394.754,-68.6954 388.5,-67 356.559,-58.3413 277.192,-42.852 215.794,-31.303"/>
<polygon fill="midnightblue" stroke="midnightblue" points="216.193,-27.8167 205.719,-29.4127 214.902,-34.6967 216.193,-27.8167"/>
</g>
<!-- Node14 -->
<g id="node14" class="node"><title>Node14</title>
<polygon fill="white" stroke="#bfbfbf" points="223.5,-0.5 223.5,-30.5 353.5,-30.5 353.5,-0.5 223.5,-0.5"/>
<text text-anchor="start" x="231.5" y="-18.5" font-family="Helvetica,sans-Serif" font-size="10.00">boost/multi_index/mem</text>
<text text-anchor="middle" x="288.5" y="-7.5" font-family="Helvetica,sans-Serif" font-size="10.00">_fun.hpp</text>
</g>
<!-- Node10&#45;&gt;Node14 -->
<g id="edge15" class="edge"><title>Node10&#45;&gt;Node14</title>
<path fill="none" stroke="midnightblue" d="M411.643,-72.8685C390.52,-63.1995 355.674,-47.2486 328.43,-34.778"/>
<polygon fill="midnightblue" stroke="midnightblue" points="329.695,-31.5078 319.146,-30.5281 326.782,-37.8727 329.695,-31.5078"/>
</g>
<!-- Node15&#45;&gt;Node5 -->
<g id="edge18" class="edge"><title>Node15&#45;&gt;Node5</title>
<path fill="none" stroke="midnightblue" d="M622.085,-72.7338C627.234,-62.8903 635.724,-46.6598 642.263,-34.1594"/>
<polygon fill="midnightblue" stroke="midnightblue" points="645.454,-35.6106 646.987,-25.1273 639.251,-32.366 645.454,-35.6106"/>
</g>
<!-- Node16 -->
<g id="node16" class="node"><title>Node16</title>
<polygon fill="white" stroke="#bfbfbf" points="692,-6 692,-25 755,-25 755,-6 692,-6"/>
<text text-anchor="middle" x="723.5" y="-13" font-family="Helvetica,sans-Serif" font-size="10.00">exception</text>
</g>
<!-- Node15&#45;&gt;Node16 -->
<g id="edge17" class="edge"><title>Node15&#45;&gt;Node16</title>
<path fill="none" stroke="midnightblue" d="M631.796,-72.7338C649.517,-61.8669 679.932,-43.2161 700.844,-30.3931"/>
<polygon fill="midnightblue" stroke="midnightblue" points="702.736,-33.3386 709.431,-25.1273 699.076,-27.3712 702.736,-33.3386"/>
</g>
<!-- Node17&#45;&gt;Node3 -->
<g id="edge20" class="edge"><title>Node17&#45;&gt;Node3</title>
<path fill="none" stroke="midnightblue" d="M690.5,-134.475C690.5,-126.08 690.5,-112.981 690.5,-102.163"/>
<polygon fill="midnightblue" stroke="midnightblue" points="694,-102.009 690.5,-92.0091 687,-102.009 694,-102.009"/>
</g>
<!-- Node18 -->
<g id="node18" class="node"><title>Node18</title>
<polygon fill="white" stroke="#bfbfbf" points="739.5,-73 739.5,-92 883.5,-92 883.5,-73 739.5,-73"/>
<text text-anchor="middle" x="811.5" y="-80" font-family="Helvetica,sans-Serif" font-size="10.00">boost/range/algorithm.hpp</text>
</g>
<!-- Node17&#45;&gt;Node18 -->
<g id="edge21" class="edge"><title>Node17&#45;&gt;Node18</title>
<path fill="none" stroke="midnightblue" d="M707.836,-134.475C728.053,-124.534 761.687,-107.995 785.142,-96.461"/>
<polygon fill="midnightblue" stroke="midnightblue" points="786.767,-99.5627 794.196,-92.0091 783.678,-93.281 786.767,-99.5627"/>
</g>
</g>
</svg>
