<?xml version="1.0" encoding="UTF-8" standalone="no"?>
<!DOCTYPE svg PUBLIC "-//W3C//DTD SVG 1.1//EN"
 "http://www.w3.org/Graphics/SVG/1.1/DTD/svg11.dtd">
<!-- Generated by graphviz version 2.38.0 (20140413.2041)
 -->
<!-- Title: fault_tree.cc Pages: 1 -->
<!--zoomable 386 -->
<svg id="main" version="1.1" xmlns="http://www.w3.org/2000/svg" xmlns:xlink="http://www.w3.org/1999/xlink" xml:space="preserve" onload="init(evt)">
<style type="text/css"><![CDATA[
.edge:hover path { stroke: red; }
.edge:hover polygon { stroke: red; fill: red; }
]]></style>
<script type="text/javascript"><![CDATA[
var edges = document.getElementsByTagName('g');
if (edges && edges.length) {
  for (var i=0;i<edges.length;i++) {
    if (edges[i].id.substr(0,4)=='edge') {
      edges[i].setAttribute('class','edge');
    }
  }
}
]]></script>
        <defs>
                <circle id="rim" cx="0" cy="0" r="7"/>
                <circle id="rim2" cx="0" cy="0" r="3.5"/>
                <g id="zoomPlus">
                        <use xlink:href="#rim" fill="#404040">
                                <set attributeName="fill" to="#808080" begin="zoomplus.mouseover" end="zoomplus.mouseout"/>
                        </use>
                        <path d="M-4,0h8M0,-4v8" fill="none" stroke="white" stroke-width="1.5" pointer-events="none"/>
                </g>
                <g id="zoomMin">
                        <use xlink:href="#rim" fill="#404040">
                                <set attributeName="fill" to="#808080" begin="zoomminus.mouseover" end="zoomminus.mouseout"/>
                        </use>
                        <path d="M-4,0h8" fill="none" stroke="white" stroke-width="1.5" pointer-events="none"/>
                </g>
                <g id="dirArrow">
                        <path fill="none" stroke="white" stroke-width="1.5" d="M0,-3.0v7 M-2.5,-0.5L0,-3.0L2.5,-0.5"/>
                </g>
               <g id="resetDef">
                       <use xlink:href="#rim2" fill="#404040">
                               <set attributeName="fill" to="#808080" begin="reset.mouseover" end="reset.mouseout"/>
                       </use>
               </g>
        </defs>

<script type="text/javascript">
var viewWidth = 1171;
var viewHeight = 386;
var sectionId = 'dynsection-0';
</script>
<script xlink:href="svgpan.js"/>
<svg id="graph" class="graph">
<g id="viewport">
<title>fault_tree.cc</title>
<polygon fill="white" stroke="none" points="-4,4 -4,-382 1167.09,-382 1167.09,4 -4,4"/>
<!-- Node1 -->
<g id="node1" class="node"><title>Node1</title>
<polygon fill="#bfbfbf" stroke="black" points="874.087,-358.5 874.087,-377.5 950.087,-377.5 950.087,-358.5 874.087,-358.5"/>
<text text-anchor="middle" x="912.087" y="-365.5" font-family="Helvetica,sans-Serif" font-size="10.00">fault_tree.cc</text>
</g>
<!-- Node2 -->
<g id="node2" class="node"><title>Node2</title>
<g id="a_node2"><a xlink:href="fault__tree_8h.xhtml" target="_top" xlink:title="Fault Tree and Component containers. ">
<polygon fill="white" stroke="black" points="549.587,-302.5 549.587,-321.5 620.587,-321.5 620.587,-302.5 549.587,-302.5"/>
<text text-anchor="middle" x="585.087" y="-309.5" font-family="Helvetica,sans-Serif" font-size="10.00">fault_tree.h</text>
</a>
</g>
</g>
<!-- Node1&#45;&gt;Node2 -->
<g id="edge1" class="edge"><title>Node1&#45;&gt;Node2</title>
<path fill="none" stroke="midnightblue" d="M873.936,-360.7C813.486,-350.717 695.906,-331.3 630.955,-320.575"/>
<polygon fill="midnightblue" stroke="midnightblue" points="631.436,-317.107 621,-318.931 630.296,-324.013 631.436,-317.107"/>
</g>
<!-- Node23 -->
<g id="node23" class="node"><title>Node23</title>
<g id="a_node23"><a xlink:href="error_8h.xhtml" target="_top" xlink:title="Exceptions for SCRAM. ">
<polygon fill="white" stroke="black" points="1011.09,-73 1011.09,-92 1059.09,-92 1059.09,-73 1011.09,-73"/>
<text text-anchor="middle" x="1035.09" y="-80" font-family="Helvetica,sans-Serif" font-size="10.00">error.h</text>
</a>
</g>
</g>
<!-- Node1&#45;&gt;Node23 -->
<g id="edge51" class="edge"><title>Node1&#45;&gt;Node23</title>
<path fill="none" stroke="midnightblue" d="M950.208,-366.977C1020.42,-364.716 1163.09,-348.824 1163.09,-257 1163.09,-257 1163.09,-257 1163.09,-199 1163.09,-147.756 1105.84,-113.396 1067.92,-96.2555"/>
<polygon fill="midnightblue" stroke="midnightblue" points="1068.83,-92.8387 1058.27,-92.0731 1066.05,-99.2613 1068.83,-92.8387"/>
</g>
<!-- Node3 -->
<g id="node3" class="node"><title>Node3</title>
<polygon fill="white" stroke="#bfbfbf" points="825.587,-134.5 825.587,-153.5 882.587,-153.5 882.587,-134.5 825.587,-134.5"/>
<text text-anchor="middle" x="854.087" y="-141.5" font-family="Helvetica,sans-Serif" font-size="10.00">memory</text>
</g>
<!-- Node2&#45;&gt;Node3 -->
<g id="edge2" class="edge"><title>Node2&#45;&gt;Node3</title>
<path fill="none" stroke="midnightblue" d="M620.258,-302.394C668.305,-289.201 755.101,-260.096 813.087,-210 828.035,-197.085 839.407,-177.366 846.339,-163.034"/>
<polygon fill="midnightblue" stroke="midnightblue" points="849.621,-164.274 850.59,-153.724 843.253,-161.367 849.621,-164.274"/>
</g>
<!-- Node4 -->
<g id="node4" class="node"><title>Node4</title>
<polygon fill="white" stroke="#bfbfbf" points="456.087,-6 456.087,-25 500.087,-25 500.087,-6 456.087,-6"/>
<text text-anchor="middle" x="478.087" y="-13" font-family="Helvetica,sans-Serif" font-size="10.00">string</text>
</g>
<!-- Node2&#45;&gt;Node4 -->
<g id="edge3" class="edge"><title>Node2&#45;&gt;Node4</title>
<path fill="none" stroke="midnightblue" d="M549.291,-309.748C444.066,-305.105 143.087,-284.525 143.087,-201 143.087,-201 143.087,-201 143.087,-143 143.087,-78.6868 361.908,-35.7008 445.845,-21.5776"/>
<polygon fill="midnightblue" stroke="midnightblue" points="446.552,-25.0084 455.847,-19.9245 445.41,-18.1021 446.552,-25.0084"/>
</g>
<!-- Node5 -->
<g id="node5" class="node"><title>Node5</title>
<polygon fill="white" stroke="#bfbfbf" points="29.0868,-246.5 29.0868,-265.5 115.087,-265.5 115.087,-246.5 29.0868,-246.5"/>
<text text-anchor="middle" x="72.0868" y="-253.5" font-family="Helvetica,sans-Serif" font-size="10.00">unordered_set</text>
</g>
<!-- Node2&#45;&gt;Node5 -->
<g id="edge4" class="edge"><title>Node2&#45;&gt;Node5</title>
<path fill="none" stroke="midnightblue" d="M549.531,-308.201C472.662,-301.993 285.32,-286.026 129.087,-266 127.829,-265.839 126.557,-265.672 125.274,-265.499"/>
<polygon fill="midnightblue" stroke="midnightblue" points="125.699,-262.025 115.309,-264.095 124.723,-268.956 125.699,-262.025"/>
</g>
<!-- Node6 -->
<g id="node6" class="node"><title>Node6</title>
<polygon fill="white" stroke="#bfbfbf" points="195.587,-6 195.587,-25 242.587,-25 242.587,-6 195.587,-6"/>
<text text-anchor="middle" x="219.087" y="-13" font-family="Helvetica,sans-Serif" font-size="10.00">vector</text>
</g>
<!-- Node2&#45;&gt;Node6 -->
<g id="edge5" class="edge"><title>Node2&#45;&gt;Node6</title>
<path fill="none" stroke="midnightblue" d="M549.409,-310.475C431.744,-308.432 61.1149,-299.378 20.0868,-266 -3.26054,-247.006 1.08685,-231.098 1.08685,-201 1.08685,-201 1.08685,-201 1.08685,-143 1.08685,-58.8229 124.186,-29.7239 185.379,-20.459"/>
<polygon fill="midnightblue" stroke="midnightblue" points="185.934,-23.9155 195.342,-19.0434 184.949,-16.9851 185.934,-23.9155"/>
</g>
<!-- Node7 -->
<g id="node7" class="node"><title>Node7</title>
<polygon fill="white" stroke="#bfbfbf" points="285.087,-73 285.087,-92 413.087,-92 413.087,-73 285.087,-73"/>
<text text-anchor="middle" x="349.087" y="-80" font-family="Helvetica,sans-Serif" font-size="10.00">boost/noncopyable.hpp</text>
</g>
<!-- Node2&#45;&gt;Node7 -->
<g id="edge6" class="edge"><title>Node2&#45;&gt;Node7</title>
<path fill="none" stroke="midnightblue" d="M549.337,-303.482C523.732,-296.793 489.438,-285.055 464.087,-266 405.506,-221.969 369.289,-138.619 355.475,-101.786"/>
<polygon fill="midnightblue" stroke="midnightblue" points="358.741,-100.527 352.038,-92.3213 352.161,-102.915 358.741,-100.527"/>
</g>
<!-- Node8 -->
<g id="node8" class="node"><title>Node8</title>
<g id="a_node8"><a xlink:href="ccf__group_8h.xhtml" target="_top" xlink:title="Functional containers for basic events grouped by common cause failure. ">
<polygon fill="white" stroke="black" points="473.087,-246.5 473.087,-265.5 545.087,-265.5 545.087,-246.5 473.087,-246.5"/>
<text text-anchor="middle" x="509.087" y="-253.5" font-family="Helvetica,sans-Serif" font-size="10.00">ccf_group.h</text>
</a>
</g>
</g>
<!-- Node2&#45;&gt;Node8 -->
<g id="edge7" class="edge"><title>Node2&#45;&gt;Node8</title>
<path fill="none" stroke="midnightblue" d="M572.876,-302.324C561.311,-294.107 543.711,-281.602 529.926,-271.807"/>
<polygon fill="midnightblue" stroke="midnightblue" points="531.699,-268.773 521.52,-265.834 527.644,-274.479 531.699,-268.773"/>
</g>
<!-- Node12 -->
<g id="node12" class="node"><title>Node12</title>
<g id="a_node12"><a xlink:href="element_8h.xhtml" target="_top" xlink:title="Helper classes, structs, and properties common to all other classes. ">
<polygon fill="white" stroke="black" points="889.587,-73 889.587,-92 954.587,-92 954.587,-73 889.587,-73"/>
<text text-anchor="middle" x="922.087" y="-80" font-family="Helvetica,sans-Serif" font-size="10.00">element.h</text>
</a>
</g>
</g>
<!-- Node2&#45;&gt;Node12 -->
<g id="edge43" class="edge"><title>Node2&#45;&gt;Node12</title>
<path fill="none" stroke="midnightblue" d="M620.587,-305.177C655.635,-298.6 710.199,-286.112 754.087,-266 794.207,-247.614 802.242,-238.322 836.087,-210 862.841,-187.612 871.524,-182.884 891.087,-154 902.189,-137.609 910.818,-116.595 916.122,-101.789"/>
<polygon fill="midnightblue" stroke="midnightblue" points="919.457,-102.854 919.384,-92.2593 912.834,-100.587 919.457,-102.854"/>
</g>
<!-- Node17 -->
<g id="node17" class="node"><title>Node17</title>
<g id="a_node17"><a xlink:href="event_8h.xhtml" target="_top" xlink:title="Contains event classes for fault trees. ">
<polygon fill="white" stroke="black" points="722.587,-190.5 722.587,-209.5 775.587,-209.5 775.587,-190.5 722.587,-190.5"/>
<text text-anchor="middle" x="749.087" y="-197.5" font-family="Helvetica,sans-Serif" font-size="10.00">event.h</text>
</a>
</g>
</g>
<!-- Node2&#45;&gt;Node17 -->
<g id="edge44" class="edge"><title>Node2&#45;&gt;Node17</title>
<path fill="none" stroke="midnightblue" d="M597.956,-302.368C626.098,-283.492 693.349,-238.385 727.861,-215.237"/>
<polygon fill="midnightblue" stroke="midnightblue" points="729.923,-218.069 736.278,-209.591 726.023,-212.255 729.923,-218.069"/>
</g>
<!-- Node25 -->
<g id="node25" class="node"><title>Node25</title>
<g id="a_node25"><a xlink:href="parameter_8h.xhtml" target="_top" xlink:title="Parameter expressions that act like a shareable variable. ">
<polygon fill="white" stroke="black" points="939.087,-190.5 939.087,-209.5 1015.09,-209.5 1015.09,-190.5 939.087,-190.5"/>
<text text-anchor="middle" x="977.087" y="-197.5" font-family="Helvetica,sans-Serif" font-size="10.00">parameter.h</text>
</a>
</g>
</g>
<!-- Node2&#45;&gt;Node25 -->
<g id="edge45" class="edge"><title>Node2&#45;&gt;Node25</title>
<path fill="none" stroke="midnightblue" d="M620.762,-309.618C697.106,-306.131 873.557,-295.083 925.087,-266 944.289,-255.162 959.074,-234.154 967.886,-218.948"/>
<polygon fill="midnightblue" stroke="midnightblue" points="971.074,-220.412 972.8,-209.959 964.932,-217.054 971.074,-220.412"/>
</g>
<!-- Node8&#45;&gt;Node3 -->
<g id="edge8" class="edge"><title>Node8&#45;&gt;Node3</title>
<path fill="none" stroke="midnightblue" d="M545.364,-255.595C599.956,-255.092 705.225,-248.61 784.087,-210 807.246,-198.661 828.095,-177.118 840.897,-161.949"/>
<polygon fill="midnightblue" stroke="midnightblue" points="843.867,-163.846 847.462,-153.88 838.436,-159.428 843.867,-163.846"/>
</g>
<!-- Node8&#45;&gt;Node4 -->
<g id="edge9" class="edge"><title>Node8&#45;&gt;Node4</title>
<path fill="none" stroke="midnightblue" d="M481.389,-246.433C429.35,-228.623 318.412,-182.09 276.087,-98 242.588,-31.4452 380.312,-19.0608 445.538,-16.8868"/>
<polygon fill="midnightblue" stroke="midnightblue" points="445.814,-20.3807 455.715,-16.611 445.624,-13.3832 445.814,-20.3807"/>
</g>
<!-- Node8&#45;&gt;Node6 -->
<g id="edge12" class="edge"><title>Node8&#45;&gt;Node6</title>
<path fill="none" stroke="midnightblue" d="M473.078,-248.998C441.854,-242.675 396.276,-230.69 361.087,-210 299.309,-173.678 282.903,-158.875 245.087,-98 232.872,-78.3372 225.893,-52.4073 222.302,-35.1299"/>
<polygon fill="midnightblue" stroke="midnightblue" points="225.717,-34.349 220.411,-25.1784 218.84,-35.6561 225.717,-34.349"/>
</g>
<!-- Node8&#45;&gt;Node7 -->
<g id="edge13" class="edge"><title>Node8&#45;&gt;Node7</title>
<path fill="none" stroke="midnightblue" d="M496.626,-246.242C484.554,-237.55 465.942,-223.595 451.087,-210 426.031,-187.07 420.513,-180.353 399.087,-154 384.799,-136.427 369.978,-115.068 360.219,-100.497"/>
<polygon fill="midnightblue" stroke="midnightblue" points="363.036,-98.4111 354.594,-92.0094 357.201,-102.278 363.036,-98.4111"/>
</g>
<!-- Node9 -->
<g id="node9" class="node"><title>Node9</title>
<polygon fill="white" stroke="#bfbfbf" points="475.087,-190.5 475.087,-209.5 543.087,-209.5 543.087,-190.5 475.087,-190.5"/>
<text text-anchor="middle" x="509.087" y="-197.5" font-family="Helvetica,sans-Serif" font-size="10.00">type_traits</text>
</g>
<!-- Node8&#45;&gt;Node9 -->
<g id="edge10" class="edge"><title>Node8&#45;&gt;Node9</title>
<path fill="none" stroke="midnightblue" d="M509.087,-246.083C509.087,-239.006 509.087,-228.861 509.087,-219.986"/>
<polygon fill="midnightblue" stroke="midnightblue" points="512.587,-219.751 509.087,-209.751 505.587,-219.751 512.587,-219.751"/>
</g>
<!-- Node10 -->
<g id="node10" class="node"><title>Node10</title>
<polygon fill="white" stroke="#bfbfbf" points="469.087,-73 469.087,-92 511.087,-92 511.087,-73 469.087,-73"/>
<text text-anchor="middle" x="490.087" y="-80" font-family="Helvetica,sans-Serif" font-size="10.00">utility</text>
</g>
<!-- Node8&#45;&gt;Node10 -->
<g id="edge11" class="edge"><title>Node8&#45;&gt;Node10</title>
<path fill="none" stroke="midnightblue" d="M494.425,-246.402C482.681,-238.585 467.056,-225.862 460.087,-210 443.816,-172.967 465.028,-125.791 479.217,-100.821"/>
<polygon fill="midnightblue" stroke="midnightblue" points="482.284,-102.51 484.392,-92.127 476.269,-98.9297 482.284,-102.51"/>
</g>
<!-- Node11 -->
<g id="node11" class="node"><title>Node11</title>
<polygon fill="white" stroke="#bfbfbf" points="599.087,-190.5 599.087,-209.5 705.087,-209.5 705.087,-190.5 599.087,-190.5"/>
<text text-anchor="middle" x="652.087" y="-197.5" font-family="Helvetica,sans-Serif" font-size="10.00">boost/optional.hpp</text>
</g>
<!-- Node8&#45;&gt;Node11 -->
<g id="edge14" class="edge"><title>Node8&#45;&gt;Node11</title>
<path fill="none" stroke="midnightblue" d="M531.746,-246.444C555.489,-237.478 592.996,-223.314 619.825,-213.183"/>
<polygon fill="midnightblue" stroke="midnightblue" points="621.415,-216.324 629.534,-209.516 618.942,-209.775 621.415,-216.324"/>
</g>
<!-- Node8&#45;&gt;Node12 -->
<g id="edge15" class="edge"><title>Node8&#45;&gt;Node12</title>
<path fill="none" stroke="midnightblue" d="M517.7,-246.433C543.194,-221.263 618.407,-148.404 649.087,-134 737.185,-92.6392 769.843,-118.014 865.087,-98 870.141,-96.9379 875.423,-95.7295 880.646,-94.4741"/>
<polygon fill="midnightblue" stroke="midnightblue" points="881.672,-97.8257 890.54,-92.0279 879.992,-91.0303 881.672,-97.8257"/>
</g>
<!-- Node8&#45;&gt;Node17 -->
<g id="edge22" class="edge"><title>Node8&#45;&gt;Node17</title>
<path fill="none" stroke="midnightblue" d="M545.096,-247.501C584.102,-239.288 648.402,-225.492 712.493,-210.324"/>
<polygon fill="midnightblue" stroke="midnightblue" points="713.439,-213.696 722.358,-207.977 711.82,-206.886 713.439,-213.696"/>
</g>
<!-- Node19 -->
<g id="node19" class="node"><title>Node19</title>
<g id="a_node19"><a xlink:href="expression_8h.xhtml" target="_top" xlink:title="Provides the base class for all expressions and units for expression values. ">
<polygon fill="white" stroke="black" points="495.587,-134.5 495.587,-153.5 572.587,-153.5 572.587,-134.5 495.587,-134.5"/>
<text text-anchor="middle" x="534.087" y="-141.5" font-family="Helvetica,sans-Serif" font-size="10.00">expression.h</text>
</a>
</g>
</g>
<!-- Node8&#45;&gt;Node19 -->
<g id="edge42" class="edge"><title>Node8&#45;&gt;Node19</title>
<path fill="none" stroke="midnightblue" d="M496.369,-246.483C479.928,-234.353 454.686,-211.215 466.087,-190 473.709,-175.815 487.983,-165.352 501.493,-158.103"/>
<polygon fill="midnightblue" stroke="midnightblue" points="503.215,-161.156 510.633,-153.592 500.116,-154.879 503.215,-161.156"/>
</g>
<!-- Node12&#45;&gt;Node4 -->
<g id="edge17" class="edge"><title>Node12&#45;&gt;Node4</title>
<path fill="none" stroke="midnightblue" d="M897.448,-72.8781C890.309,-70.6597 882.454,-68.4829 875.087,-67 714.85,-34.7441 666.713,-74.2475 509.087,-31 507.153,-30.4694 505.19,-29.8267 503.24,-29.1107"/>
<polygon fill="midnightblue" stroke="midnightblue" points="504.354,-25.7816 493.781,-25.0989 501.621,-32.2259 504.354,-25.7816"/>
</g>
<!-- Node12&#45;&gt;Node6 -->
<g id="edge18" class="edge"><title>Node12&#45;&gt;Node6</title>
<path fill="none" stroke="midnightblue" d="M889.505,-74.8444C875.034,-72.0826 857.762,-69.0508 842.087,-67 726.386,-51.8626 365.402,-26.5184 252.909,-18.7999"/>
<polygon fill="midnightblue" stroke="midnightblue" points="253.031,-15.3001 242.815,-18.1088 252.553,-22.2837 253.031,-15.3001"/>
</g>
<!-- Node13 -->
<g id="node13" class="node"><title>Node13</title>
<polygon fill="white" stroke="#bfbfbf" points="1095.59,-6 1095.59,-25 1144.59,-25 1144.59,-6 1095.59,-6"/>
<text text-anchor="middle" x="1120.09" y="-13" font-family="Helvetica,sans-Serif" font-size="10.00">cstdint</text>
</g>
<!-- Node12&#45;&gt;Node13 -->
<g id="edge16" class="edge"><title>Node12&#45;&gt;Node13</title>
<path fill="none" stroke="midnightblue" d="M953.238,-72.9574C986.468,-63.6017 1040.49,-47.6929 1086.09,-31 1087.74,-30.3934 1089.44,-29.7497 1091.14,-29.0841"/>
<polygon fill="midnightblue" stroke="midnightblue" points="1092.87,-32.1564 1100.81,-25.1346 1090.23,-25.6763 1092.87,-32.1564"/>
</g>
<!-- Node14 -->
<g id="node14" class="node"><title>Node14</title>
<polygon fill="white" stroke="#bfbfbf" points="666.087,-6 666.087,-25 838.087,-25 838.087,-6 666.087,-6"/>
<text text-anchor="middle" x="752.087" y="-13" font-family="Helvetica,sans-Serif" font-size="10.00">boost/multi_index_container.hpp</text>
</g>
<!-- Node12&#45;&gt;Node14 -->
<g id="edge19" class="edge"><title>Node12&#45;&gt;Node14</title>
<path fill="none" stroke="midnightblue" d="M899.512,-72.8685C869.836,-61.5219 817.536,-41.5246 783.87,-28.6522"/>
<polygon fill="midnightblue" stroke="midnightblue" points="785.075,-25.3659 774.484,-25.0637 782.575,-31.9043 785.075,-25.3659"/>
</g>
<!-- Node15 -->
<g id="node15" class="node"><title>Node15</title>
<polygon fill="white" stroke="#bfbfbf" points="856.087,-0.5 856.087,-30.5 996.087,-30.5 996.087,-0.5 856.087,-0.5"/>
<text text-anchor="start" x="864.087" y="-18.5" font-family="Helvetica,sans-Serif" font-size="10.00">boost/multi_index/hashed</text>
<text text-anchor="middle" x="926.087" y="-7.5" font-family="Helvetica,sans-Serif" font-size="10.00">_index.hpp</text>
</g>
<!-- Node12&#45;&gt;Node15 -->
<g id="edge20" class="edge"><title>Node12&#45;&gt;Node15</title>
<path fill="none" stroke="midnightblue" d="M922.626,-72.7338C923.131,-64.5406 923.907,-51.9225 924.597,-40.7136"/>
<polygon fill="midnightblue" stroke="midnightblue" points="928.099,-40.7851 925.22,-30.589 921.112,-40.3551 928.099,-40.7851"/>
</g>
<!-- Node16 -->
<g id="node16" class="node"><title>Node16</title>
<polygon fill="white" stroke="#bfbfbf" points="518.087,-0.5 518.087,-30.5 648.087,-30.5 648.087,-0.5 518.087,-0.5"/>
<text text-anchor="start" x="526.087" y="-18.5" font-family="Helvetica,sans-Serif" font-size="10.00">boost/multi_index/mem</text>
<text text-anchor="middle" x="583.087" y="-7.5" font-family="Helvetica,sans-Serif" font-size="10.00">_fun.hpp</text>
</g>
<!-- Node12&#45;&gt;Node16 -->
<g id="edge21" class="edge"><title>Node12&#45;&gt;Node16</title>
<path fill="none" stroke="midnightblue" d="M896.402,-72.8873C889.529,-70.7722 882.069,-68.6454 875.087,-67 782.585,-45.1994 755.46,-48.2151 658.374,-31.1845"/>
<polygon fill="midnightblue" stroke="midnightblue" points="658.896,-27.7225 648.437,-29.4148 657.668,-34.6141 658.896,-27.7225"/>
</g>
<!-- Node17&#45;&gt;Node3 -->
<g id="edge24" class="edge"><title>Node17&#45;&gt;Node3</title>
<path fill="none" stroke="midnightblue" d="M765.957,-190.324C782.796,-181.664 808.893,-168.242 828.325,-158.249"/>
<polygon fill="midnightblue" stroke="midnightblue" points="829.966,-161.341 837.259,-153.655 826.765,-155.116 829.966,-161.341"/>
</g>
<!-- Node17&#45;&gt;Node4 -->
<g id="edge25" class="edge"><title>Node17&#45;&gt;Node4</title>
<path fill="none" stroke="midnightblue" d="M722.395,-191.858C719.598,-191.193 716.79,-190.56 714.087,-190 613.628,-169.202 567.981,-215.788 486.087,-154 453.871,-129.694 453.212,-106.766 460.087,-67 461.999,-55.9382 466.105,-44.0903 469.913,-34.6524"/>
<polygon fill="midnightblue" stroke="midnightblue" points="473.245,-35.7622 473.953,-25.191 466.807,-33.0133 473.245,-35.7622"/>
</g>
<!-- Node17&#45;&gt;Node6 -->
<g id="edge26" class="edge"><title>Node17&#45;&gt;Node6</title>
<path fill="none" stroke="midnightblue" d="M722.418,-191.738C719.617,-191.097 716.801,-190.502 714.087,-190 575.522,-164.393 534.874,-191.656 399.087,-154 341.205,-137.949 322.264,-136.413 276.087,-98 254.583,-80.1118 237.469,-52.2266 227.8,-34.1601"/>
<polygon fill="midnightblue" stroke="midnightblue" points="230.906,-32.5456 223.214,-25.2592 224.683,-35.7518 230.906,-32.5456"/>
</g>
<!-- Node17&#45;&gt;Node7 -->
<g id="edge27" class="edge"><title>Node17&#45;&gt;Node7</title>
<path fill="none" stroke="midnightblue" d="M722.411,-191.776C719.611,-191.127 716.798,-190.52 714.087,-190 590.432,-166.276 548.419,-204.515 433.087,-154 404.87,-141.641 378.767,-116.743 363.377,-100.093"/>
<polygon fill="midnightblue" stroke="midnightblue" points="365.629,-97.362 356.351,-92.2477 360.415,-102.032 365.629,-97.362"/>
</g>
<!-- Node17&#45;&gt;Node12 -->
<g id="edge29" class="edge"><title>Node17&#45;&gt;Node12</title>
<path fill="none" stroke="midnightblue" d="M722.407,-191.852C688.231,-181.423 635.904,-160.373 658.087,-134 688.141,-98.2682 819.428,-107.763 865.087,-98 870.076,-96.9331 875.29,-95.7303 880.449,-94.4853"/>
<polygon fill="midnightblue" stroke="midnightblue" points="881.367,-97.8639 890.233,-92.0636 879.685,-91.069 881.367,-97.8639"/>
</g>
<!-- Node17&#45;&gt;Node13 -->
<g id="edge23" class="edge"><title>Node17&#45;&gt;Node13</title>
<path fill="none" stroke="midnightblue" d="M755.305,-190.056C765.918,-175.573 789.024,-147.276 816.087,-134 917.66,-84.1716 972.983,-159.28 1068.09,-98 1091.3,-83.0426 1106.15,-53.6468 1113.81,-34.55"/>
<polygon fill="midnightblue" stroke="midnightblue" points="1117.09,-35.7498 1117.32,-25.1574 1110.54,-33.2951 1117.09,-35.7498"/>
</g>
<!-- Node18 -->
<g id="node18" class="node"><title>Node18</title>
<polygon fill="white" stroke="#bfbfbf" points="667.587,-134.5 667.587,-153.5 768.587,-153.5 768.587,-134.5 667.587,-134.5"/>
<text text-anchor="middle" x="718.087" y="-141.5" font-family="Helvetica,sans-Serif" font-size="10.00">boost/variant.hpp</text>
</g>
<!-- Node17&#45;&gt;Node18 -->
<g id="edge28" class="edge"><title>Node17&#45;&gt;Node18</title>
<path fill="none" stroke="midnightblue" d="M743.968,-190.083C739.679,-182.613 733.429,-171.724 728.145,-162.52"/>
<polygon fill="midnightblue" stroke="midnightblue" points="731.125,-160.681 723.111,-153.751 725.054,-164.166 731.125,-160.681"/>
</g>
<!-- Node17&#45;&gt;Node19 -->
<g id="edge30" class="edge"><title>Node17&#45;&gt;Node19</title>
<path fill="none" stroke="midnightblue" d="M722.339,-192.102C719.553,-191.39 716.763,-190.679 714.087,-190 667.852,-178.276 614.879,-165.059 578.433,-155.999"/>
<polygon fill="midnightblue" stroke="midnightblue" points="579.16,-152.573 568.611,-153.558 577.472,-159.366 579.16,-152.573"/>
</g>
<!-- Node19&#45;&gt;Node4 -->
<g id="edge33" class="edge"><title>Node19&#45;&gt;Node4</title>
<path fill="none" stroke="midnightblue" d="M572.854,-136.288C577.644,-135.497 582.476,-134.717 587.087,-134 702.876,-115.999 920.366,-154.198 842.087,-67 792.365,-11.613 580.77,-51.0396 509.087,-31 507.156,-30.4601 505.195,-29.8105 503.246,-29.0896"/>
<polygon fill="midnightblue" stroke="midnightblue" points="504.362,-25.7611 493.79,-25.0676 501.622,-32.2026 504.362,-25.7611"/>
</g>
<!-- Node19&#45;&gt;Node6 -->
<g id="edge35" class="edge"><title>Node19&#45;&gt;Node6</title>
<path fill="none" stroke="midnightblue" d="M535.37,-134.266C537.155,-118.434 538.351,-84.9749 520.087,-67 482.729,-30.2329 323.338,-20.1333 252.847,-17.4421"/>
<polygon fill="midnightblue" stroke="midnightblue" points="252.84,-13.9397 242.722,-17.0836 252.592,-20.9353 252.84,-13.9397"/>
</g>
<!-- Node19&#45;&gt;Node7 -->
<g id="edge37" class="edge"><title>Node19&#45;&gt;Node7</title>
<path fill="none" stroke="midnightblue" d="M507.581,-134.475C475.435,-124.136 421.1,-106.661 385.159,-95.1017"/>
<polygon fill="midnightblue" stroke="midnightblue" points="386.135,-91.739 375.544,-92.0091 383.992,-98.4028 386.135,-91.739"/>
</g>
<!-- Node19&#45;&gt;Node10 -->
<g id="edge34" class="edge"><title>Node19&#45;&gt;Node10</title>
<path fill="none" stroke="midnightblue" d="M527.783,-134.475C521.183,-125.55 510.65,-111.307 502.394,-100.143"/>
<polygon fill="midnightblue" stroke="midnightblue" points="505.139,-97.9684 496.379,-92.0091 499.511,-102.131 505.139,-97.9684"/>
</g>
<!-- Node19&#45;&gt;Node12 -->
<g id="edge38" class="edge"><title>Node19&#45;&gt;Node12</title>
<path fill="none" stroke="midnightblue" d="M572.843,-136.217C577.635,-135.438 582.47,-134.68 587.087,-134 714.705,-115.198 748.973,-125.118 875.087,-98 879.013,-97.1557 883.083,-96.1323 887.112,-95.024"/>
<polygon fill="midnightblue" stroke="midnightblue" points="888.32,-98.3171 896.934,-92.1479 886.353,-91.5992 888.32,-98.3171"/>
</g>
<!-- Node20 -->
<g id="node20" class="node"><title>Node20</title>
<polygon fill="white" stroke="#bfbfbf" points="697.087,-73 697.087,-92 759.087,-92 759.087,-73 697.087,-73"/>
<text text-anchor="middle" x="728.087" y="-80" font-family="Helvetica,sans-Serif" font-size="10.00">algorithm</text>
</g>
<!-- Node19&#45;&gt;Node20 -->
<g id="edge31" class="edge"><title>Node19&#45;&gt;Node20</title>
<path fill="none" stroke="midnightblue" d="M565.53,-134.443C596.78,-125.79 645.992,-111.765 688.087,-98 690.632,-97.1678 693.258,-96.2805 695.892,-95.3705"/>
<polygon fill="midnightblue" stroke="midnightblue" points="697.068,-98.6671 705.328,-92.0327 694.734,-92.0677 697.068,-98.6671"/>
</g>
<!-- Node21 -->
<g id="node21" class="node"><title>Node21</title>
<polygon fill="white" stroke="#bfbfbf" points="777.087,-73 777.087,-92 833.087,-92 833.087,-73 777.087,-73"/>
<text text-anchor="middle" x="805.087" y="-80" font-family="Helvetica,sans-Serif" font-size="10.00">sstream</text>
</g>
<!-- Node19&#45;&gt;Node21 -->
<g id="edge32" class="edge"><title>Node19&#45;&gt;Node21</title>
<path fill="none" stroke="midnightblue" d="M572.842,-136.437C629.475,-126.695 732.024,-108.438 768.087,-98 770.669,-97.2525 773.323,-96.3966 775.966,-95.4826"/>
<polygon fill="midnightblue" stroke="midnightblue" points="777.186,-98.7632 785.348,-92.0079 774.755,-92.1989 777.186,-98.7632"/>
</g>
<!-- Node22 -->
<g id="node22" class="node"><title>Node22</title>
<polygon fill="white" stroke="#bfbfbf" points="567.087,-67.5 567.087,-97.5 679.087,-97.5 679.087,-67.5 567.087,-67.5"/>
<text text-anchor="start" x="575.087" y="-85.5" font-family="Helvetica,sans-Serif" font-size="10.00">boost/icl/continuous</text>
<text text-anchor="middle" x="623.087" y="-74.5" font-family="Helvetica,sans-Serif" font-size="10.00">_interval.hpp</text>
</g>
<!-- Node19&#45;&gt;Node22 -->
<g id="edge36" class="edge"><title>Node19&#45;&gt;Node22</title>
<path fill="none" stroke="midnightblue" d="M546.838,-134.475C559.005,-126.341 577.778,-113.791 593.651,-103.179"/>
<polygon fill="midnightblue" stroke="midnightblue" points="595.743,-105.99 602.111,-97.523 591.853,-100.171 595.743,-105.99"/>
</g>
<!-- Node19&#45;&gt;Node23 -->
<g id="edge39" class="edge"><title>Node19&#45;&gt;Node23</title>
<path fill="none" stroke="midnightblue" d="M572.698,-140.177C648.045,-134.397 819.841,-119.887 963.087,-98 975.468,-96.1082 988.948,-93.5335 1000.86,-91.0783"/>
<polygon fill="midnightblue" stroke="midnightblue" points="1001.8,-94.4583 1010.86,-88.9717 1000.35,-87.6087 1001.8,-94.4583"/>
</g>
<!-- Node23&#45;&gt;Node4 -->
<g id="edge41" class="edge"><title>Node23&#45;&gt;Node4</title>
<path fill="none" stroke="midnightblue" d="M1015.7,-72.8586C1009.83,-70.5833 1003.29,-68.3812 997.087,-67 784.807,-19.7348 719.501,-85.9786 509.087,-31 507.104,-30.4818 505.092,-29.8399 503.095,-29.1171"/>
<polygon fill="midnightblue" stroke="midnightblue" points="504.015,-25.7056 493.442,-25.0266 501.284,-32.1509 504.015,-25.7056"/>
</g>
<!-- Node24 -->
<g id="node24" class="node"><title>Node24</title>
<polygon fill="white" stroke="#bfbfbf" points="1014.59,-6 1014.59,-25 1077.59,-25 1077.59,-6 1014.59,-6"/>
<text text-anchor="middle" x="1046.09" y="-13" font-family="Helvetica,sans-Serif" font-size="10.00">exception</text>
</g>
<!-- Node23&#45;&gt;Node24 -->
<g id="edge40" class="edge"><title>Node23&#45;&gt;Node24</title>
<path fill="none" stroke="midnightblue" d="M1036.57,-72.7338C1038.19,-63.1826 1040.82,-47.6183 1042.91,-35.2829"/>
<polygon fill="midnightblue" stroke="midnightblue" points="1046.41,-35.5711 1044.63,-25.1273 1039.51,-34.4031 1046.41,-35.5711"/>
</g>
<!-- Node25&#45;&gt;Node3 -->
<g id="edge47" class="edge"><title>Node25&#45;&gt;Node3</title>
<path fill="none" stroke="midnightblue" d="M957.597,-190.444C937.445,-181.596 905.764,-167.687 882.756,-157.586"/>
<polygon fill="midnightblue" stroke="midnightblue" points="884.049,-154.332 873.485,-153.516 881.235,-160.741 884.049,-154.332"/>
</g>
<!-- Node25&#45;&gt;Node4 -->
<g id="edge48" class="edge"><title>Node25&#45;&gt;Node4</title>
<path fill="none" stroke="midnightblue" d="M979.417,-190.345C985.207,-166.681 997.428,-100.442 963.087,-67 890.581,3.60738 606.934,-56.8536 509.087,-31 507.105,-30.4764 505.094,-29.8305 503.099,-29.1049"/>
<polygon fill="midnightblue" stroke="midnightblue" points="504.019,-25.6936 493.447,-25.0087 501.285,-32.1373 504.019,-25.6936"/>
</g>
<!-- Node25&#45;&gt;Node12 -->
<g id="edge49" class="edge"><title>Node25&#45;&gt;Node12</title>
<path fill="none" stroke="midnightblue" d="M972.953,-190.319C963.994,-171.506 942.633,-126.648 930.637,-101.455"/>
<polygon fill="midnightblue" stroke="midnightblue" points="933.728,-99.8058 926.269,-92.282 927.408,-102.815 933.728,-99.8058"/>
</g>
<!-- Node25&#45;&gt;Node13 -->
<g id="edge46" class="edge"><title>Node25&#45;&gt;Node13</title>
<path fill="none" stroke="midnightblue" d="M993.695,-190.301C1020.67,-175.273 1073.74,-141.806 1101.09,-98 1113.14,-78.6912 1117.56,-52.4892 1119.17,-35.0644"/>
<polygon fill="midnightblue" stroke="midnightblue" points="1122.66,-35.2633 1119.88,-25.0419 1115.68,-34.7711 1122.66,-35.2633"/>
</g>
<!-- Node25&#45;&gt;Node19 -->
<g id="edge50" class="edge"><title>Node25&#45;&gt;Node19</title>
<path fill="none" stroke="midnightblue" d="M938.933,-194.349C858.484,-184.543 671.572,-161.759 582.703,-150.926"/>
<polygon fill="midnightblue" stroke="midnightblue" points="582.971,-147.433 572.621,-149.697 582.124,-154.382 582.971,-147.433"/>
</g>
</g>
</svg>
        <g id="navigator" transform="translate(0 0)" fill="#404254">
                <rect fill="#f2f5e9" fill-opacity="0.5" stroke="#606060" stroke-width=".5" x="0" y="0" width="60" height="60"/>
                <use id="zoomplus" xlink:href="#zoomPlus" x="17" y="9" onmousedown="handleZoom(evt,'in')"/>
                <use id="zoomminus" xlink:href="#zoomMin" x="42" y="9" onmousedown="handleZoom(evt,'out')"/>
                <use id="reset" xlink:href="#resetDef" x="30" y="36" onmousedown="handleReset()"/>
                <g id="arrowUp" xlink:href="#dirArrow" transform="translate(30 24)" onmousedown="handlePan(0,-1)">
                  <use xlink:href="#rim" fill="#404040">
                        <set attributeName="fill" to="#808080" begin="arrowUp.mouseover" end="arrowUp.mouseout"/>
                  </use>
                  <path fill="none" stroke="white" stroke-width="1.5" d="M0,-3.0v7 M-2.5,-0.5L0,-3.0L2.5,-0.5"/>
                </g>
                <g id="arrowRight" xlink:href="#dirArrow" transform="rotate(90) translate(36 -43)" onmousedown="handlePan(1,0)">
                  <use xlink:href="#rim" fill="#404040">
                        <set attributeName="fill" to="#808080" begin="arrowRight.mouseover" end="arrowRight.mouseout"/>
                  </use>
                  <path fill="none" stroke="white" stroke-width="1.5" d="M0,-3.0v7 M-2.5,-0.5L0,-3.0L2.5,-0.5"/>
                </g>
                <g id="arrowDown" xlink:href="#dirArrow" transform="rotate(180) translate(-30 -48)" onmousedown="handlePan(0,1)">
                  <use xlink:href="#rim" fill="#404040">
                        <set attributeName="fill" to="#808080" begin="arrowDown.mouseover" end="arrowDown.mouseout"/>
                  </use>
                  <path fill="none" stroke="white" stroke-width="1.5" d="M0,-3.0v7 M-2.5,-0.5L0,-3.0L2.5,-0.5"/>
                </g>
                <g id="arrowLeft" xlink:href="#dirArrow" transform="rotate(270) translate(-36 17)" onmousedown="handlePan(-1,0)">
                  <use xlink:href="#rim" fill="#404040">
                        <set attributeName="fill" to="#808080" begin="arrowLeft.mouseover" end="arrowLeft.mouseout"/>
                  </use>
                  <path fill="none" stroke="white" stroke-width="1.5" d="M0,-3.0v7 M-2.5,-0.5L0,-3.0L2.5,-0.5"/>
                </g>
        </g>
        <svg viewBox="0 0 15 15" width="100%" height="30px" preserveAspectRatio="xMaxYMin meet">
         <g id="arrow_out" transform="scale(0.3 0.3)">
          <a xlink:href="fault__tree_8cc__incl_org.svg" target="_base">
           <rect id="button" ry="5" rx="5" y="6" x="6" height="38" width="38"
                fill="#f2f5e9" fill-opacity="0.5" stroke="#606060" stroke-width="1.0"/>
           <path id="arrow"
             d="M 11.500037,31.436501 C 11.940474,20.09759 22.043105,11.32322 32.158766,21.979434 L 37.068811,17.246167 C 37.068811,17.246167 37.088388,32 37.088388,32 L 22.160133,31.978069 C 22.160133,31.978069 26.997745,27.140456 26.997745,27.140456 C 18.528582,18.264221 13.291696,25.230495 11.500037,31.436501 z"
             style="fill:#404040;"/>
          </a>
         </g>
        </svg>
</svg>
