<?xml version="1.0" encoding="UTF-8" standalone="no"?>
<!DOCTYPE svg PUBLIC "-//W3C//DTD SVG 1.1//EN"
 "http://www.w3.org/Graphics/SVG/1.1/DTD/svg11.dtd">
<!-- Generated by graphviz version 2.38.0 (20140413.2041)
 -->
<!-- Title: fault_tree.h Pages: 1 -->
<!--zoomable 330 -->
<svg id="main" version="1.1" xmlns="http://www.w3.org/2000/svg" xmlns:xlink="http://www.w3.org/1999/xlink" xml:space="preserve" onload="init(evt)">
<style type="text/css"><![CDATA[
.edge:hover path { stroke: red; }
.edge:hover polygon { stroke: red; fill: red; }
]]></style>
<script type="text/javascript"><![CDATA[
var edges = document.getElementsByTagName('g');
if (edges && edges.length) {
  for (var i=0;i<edges.length;i++) {
    if (edges[i].id.substr(0,4)=='edge') {
      edges[i].setAttribute('class','edge');
    }
  }
}
]]></script>
        <defs>
                <circle id="rim" cx="0" cy="0" r="7"/>
                <circle id="rim2" cx="0" cy="0" r="3.5"/>
                <g id="zoomPlus">
                        <use xlink:href="#rim" fill="#404040">
                                <set attributeName="fill" to="#808080" begin="zoomplus.mouseover" end="zoomplus.mouseout"/>
                        </use>
                        <path d="M-4,0h8M0,-4v8" fill="none" stroke="white" stroke-width="1.5" pointer-events="none"/>
                </g>
                <g id="zoomMin">
                        <use xlink:href="#rim" fill="#404040">
                                <set attributeName="fill" to="#808080" begin="zoomminus.mouseover" end="zoomminus.mouseout"/>
                        </use>
                        <path d="M-4,0h8" fill="none" stroke="white" stroke-width="1.5" pointer-events="none"/>
                </g>
                <g id="dirArrow">
                        <path fill="none" stroke="white" stroke-width="1.5" d="M0,-3.0v7 M-2.5,-0.5L0,-3.0L2.5,-0.5"/>
                </g>
               <g id="resetDef">
                       <use xlink:href="#rim2" fill="#404040">
                               <set attributeName="fill" to="#808080" begin="reset.mouseover" end="reset.mouseout"/>
                       </use>
               </g>
        </defs>

<script type="text/javascript">
var viewWidth = 1214;
var viewHeight = 330;
var sectionId = 'dynsection-0';
</script>
<script xlink:href="svgpan.js"/>
<svg id="graph" class="graph">
<g id="viewport">
<title>fault_tree.h</title>
<polygon fill="white" stroke="none" points="-4,4 -4,-326 1209.5,-326 1209.5,4 -4,4"/>
<!-- Node1 -->
<g id="node1" class="node"><title>Node1</title>
<polygon fill="#bfbfbf" stroke="black" points="640,-302.5 640,-321.5 711,-321.5 711,-302.5 640,-302.5"/>
<text text-anchor="middle" x="675.5" y="-309.5" font-family="Helvetica,sans-Serif" font-size="10.00">fault_tree.h</text>
</g>
<!-- Node2 -->
<g id="node2" class="node"><title>Node2</title>
<polygon fill="white" stroke="#bfbfbf" points="242,-134.5 242,-153.5 299,-153.5 299,-134.5 242,-134.5"/>
<text text-anchor="middle" x="270.5" y="-141.5" font-family="Helvetica,sans-Serif" font-size="10.00">memory</text>
</g>
<!-- Node1&#45;&gt;Node2 -->
<g id="edge1" class="edge"><title>Node1&#45;&gt;Node2</title>
<path fill="none" stroke="midnightblue" d="M641.545,-302.415C584.724,-287.438 467.457,-253.895 374.5,-210 343.641,-195.428 310.655,-173.623 290.303,-159.354"/>
<polygon fill="midnightblue" stroke="midnightblue" points="292.326,-156.498 282.145,-153.563 288.273,-162.206 292.326,-156.498"/>
</g>
<!-- Node3 -->
<g id="node3" class="node"><title>Node3</title>
<polygon fill="white" stroke="#bfbfbf" points="645.5,-6 645.5,-25 689.5,-25 689.5,-6 645.5,-6"/>
<text text-anchor="middle" x="667.5" y="-13" font-family="Helvetica,sans-Serif" font-size="10.00">string</text>
</g>
<!-- Node1&#45;&gt;Node3 -->
<g id="edge2" class="edge"><title>Node1&#45;&gt;Node3</title>
<path fill="none" stroke="midnightblue" d="M711.243,-307.138C798.537,-296.717 1015.5,-264.436 1015.5,-201 1015.5,-201 1015.5,-201 1015.5,-143 1015.5,-108.183 1022.39,-90.2764 996.5,-67 953.449,-28.2997 795.554,-40.7965 738.5,-31 725.745,-28.8099 711.777,-26.0387 699.63,-23.5069"/>
<polygon fill="midnightblue" stroke="midnightblue" points="700.008,-20.0096 689.5,-21.3644 698.559,-26.8581 700.008,-20.0096"/>
</g>
<!-- Node4 -->
<g id="node4" class="node"><title>Node4</title>
<polygon fill="white" stroke="#bfbfbf" points="1119.5,-246.5 1119.5,-265.5 1205.5,-265.5 1205.5,-246.5 1119.5,-246.5"/>
<text text-anchor="middle" x="1162.5" y="-253.5" font-family="Helvetica,sans-Serif" font-size="10.00">unordered_set</text>
</g>
<!-- Node1&#45;&gt;Node4 -->
<g id="edge3" class="edge"><title>Node1&#45;&gt;Node4</title>
<path fill="none" stroke="midnightblue" d="M711.251,-307.896C785.066,-301.348 959.631,-285.135 1105.5,-266 1106.76,-265.835 1108.03,-265.664 1109.31,-265.489"/>
<polygon fill="midnightblue" stroke="midnightblue" points="1109.87,-268.945 1119.27,-264.068 1108.88,-262.015 1109.87,-268.945"/>
</g>
<!-- Node5 -->
<g id="node5" class="node"><title>Node5</title>
<polygon fill="white" stroke="#bfbfbf" points="748,-6 748,-25 795,-25 795,-6 748,-6"/>
<text text-anchor="middle" x="771.5" y="-13" font-family="Helvetica,sans-Serif" font-size="10.00">vector</text>
</g>
<!-- Node1&#45;&gt;Node5 -->
<g id="edge4" class="edge"><title>Node1&#45;&gt;Node5</title>
<path fill="none" stroke="midnightblue" d="M711.328,-309.198C812.234,-303.153 1091.5,-279.346 1091.5,-201 1091.5,-201 1091.5,-201 1091.5,-143 1091.5,-94.5984 1056.23,-89.7393 1013.5,-67 945.552,-30.8387 854.04,-20.5591 805.326,-17.6452"/>
<polygon fill="midnightblue" stroke="midnightblue" points="805.491,-14.1492 795.32,-17.1155 805.121,-21.1394 805.491,-14.1492"/>
</g>
<!-- Node6 -->
<g id="node6" class="node"><title>Node6</title>
<polygon fill="white" stroke="#bfbfbf" points="859.5,-73 859.5,-92 987.5,-92 987.5,-73 859.5,-73"/>
<text text-anchor="middle" x="923.5" y="-80" font-family="Helvetica,sans-Serif" font-size="10.00">boost/noncopyable.hpp</text>
</g>
<!-- Node1&#45;&gt;Node6 -->
<g id="edge5" class="edge"><title>Node1&#45;&gt;Node6</title>
<path fill="none" stroke="midnightblue" d="M695.229,-302.411C729.507,-286.942 801.381,-252.063 853.5,-210 879.465,-189.045 887.426,-183.239 903.5,-154 912.487,-137.653 917.74,-116.904 920.588,-102.159"/>
<polygon fill="midnightblue" stroke="midnightblue" points="924.051,-102.678 922.32,-92.225 917.155,-101.475 924.051,-102.678"/>
</g>
<!-- Node7 -->
<g id="node7" class="node"><title>Node7</title>
<g id="a_node7"><a xlink:href="ccf__group_8h.xhtml" target="_top" xlink:title="Functional containers for basic events grouped by common cause failure. ">
<polygon fill="white" stroke="black" points="639.5,-246.5 639.5,-265.5 711.5,-265.5 711.5,-246.5 639.5,-246.5"/>
<text text-anchor="middle" x="675.5" y="-253.5" font-family="Helvetica,sans-Serif" font-size="10.00">ccf_group.h</text>
</a>
</g>
</g>
<!-- Node1&#45;&gt;Node7 -->
<g id="edge6" class="edge"><title>Node1&#45;&gt;Node7</title>
<path fill="none" stroke="midnightblue" d="M675.5,-302.083C675.5,-295.006 675.5,-284.861 675.5,-275.986"/>
<polygon fill="midnightblue" stroke="midnightblue" points="679,-275.751 675.5,-265.751 672,-275.751 679,-275.751"/>
</g>
<!-- Node11 -->
<g id="node11" class="node"><title>Node11</title>
<g id="a_node11"><a xlink:href="element_8h.xhtml" target="_top" xlink:title="Helper classes, structs, and properties common to all other classes. ">
<polygon fill="white" stroke="black" points="138,-73 138,-92 203,-92 203,-73 138,-73"/>
<text text-anchor="middle" x="170.5" y="-80" font-family="Helvetica,sans-Serif" font-size="10.00">element.h</text>
</a>
</g>
</g>
<!-- Node1&#45;&gt;Node11 -->
<g id="edge42" class="edge"><title>Node1&#45;&gt;Node11</title>
<path fill="none" stroke="midnightblue" d="M639.981,-311.82C570.493,-312.361 412.529,-308.328 288.5,-266 242.838,-250.417 223.217,-249.493 195.5,-210 172.535,-177.278 169.444,-128.654 169.675,-102.235"/>
<polygon fill="midnightblue" stroke="midnightblue" points="173.178,-102.177 169.942,-92.0887 166.18,-101.993 173.178,-102.177"/>
</g>
<!-- Node16 -->
<g id="node16" class="node"><title>Node16</title>
<g id="a_node16"><a xlink:href="event_8h.xhtml" target="_top" xlink:title="Contains event classes for fault trees. ">
<polygon fill="white" stroke="black" points="442,-190.5 442,-209.5 495,-209.5 495,-190.5 442,-190.5"/>
<text text-anchor="middle" x="468.5" y="-197.5" font-family="Helvetica,sans-Serif" font-size="10.00">event.h</text>
</a>
</g>
</g>
<!-- Node1&#45;&gt;Node16 -->
<g id="edge43" class="edge"><title>Node1&#45;&gt;Node16</title>
<path fill="none" stroke="midnightblue" d="M659.257,-302.368C623.282,-283.251 536.676,-237.229 493.643,-214.361"/>
<polygon fill="midnightblue" stroke="midnightblue" points="495.141,-211.193 484.667,-209.591 491.856,-217.375 495.141,-211.193"/>
</g>
<!-- Node24 -->
<g id="node24" class="node"><title>Node24</title>
<g id="a_node24"><a xlink:href="parameter_8h.xhtml" target="_top" xlink:title="Parameter expressions that act like a shareable variable. ">
<polygon fill="white" stroke="black" points="204.5,-190.5 204.5,-209.5 280.5,-209.5 280.5,-190.5 204.5,-190.5"/>
<text text-anchor="middle" x="242.5" y="-197.5" font-family="Helvetica,sans-Serif" font-size="10.00">parameter.h</text>
</a>
</g>
</g>
<!-- Node1&#45;&gt;Node24 -->
<g id="edge44" class="edge"><title>Node1&#45;&gt;Node24</title>
<path fill="none" stroke="midnightblue" d="M639.896,-308.903C562.238,-303.935 380.063,-290.028 323.5,-266 296.932,-254.714 271.916,-232.123 256.901,-216.781"/>
<polygon fill="midnightblue" stroke="midnightblue" points="259.428,-214.36 250.005,-209.517 254.351,-219.179 259.428,-214.36"/>
</g>
<!-- Node7&#45;&gt;Node2 -->
<g id="edge7" class="edge"><title>Node7&#45;&gt;Node2</title>
<path fill="none" stroke="midnightblue" d="M639.159,-250.564C591.189,-244.19 504.404,-230.859 432.5,-210 383.704,-195.845 329.34,-172.352 297.629,-157.823"/>
<polygon fill="midnightblue" stroke="midnightblue" points="299.092,-154.643 288.546,-153.622 296.153,-160.996 299.092,-154.643"/>
</g>
<!-- Node7&#45;&gt;Node3 -->
<g id="edge8" class="edge"><title>Node7&#45;&gt;Node3</title>
<path fill="none" stroke="midnightblue" d="M639.293,-247.882C618.237,-241.684 593.382,-230.356 580.5,-210 549.796,-161.481 639.641,-174.946 659.5,-154 686.941,-125.057 686.877,-106.52 681.5,-67 680.021,-56.1271 676.828,-44.2901 673.864,-34.8109"/>
<polygon fill="midnightblue" stroke="midnightblue" points="677.179,-33.6855 670.719,-25.2874 670.532,-35.8806 677.179,-33.6855"/>
</g>
<!-- Node7&#45;&gt;Node5 -->
<g id="edge11" class="edge"><title>Node7&#45;&gt;Node5</title>
<path fill="none" stroke="midnightblue" d="M711.636,-251.147C783.788,-241.187 943.33,-207.18 996.5,-98 1032.66,-23.7455 876.982,-15.6686 805.601,-15.7666"/>
<polygon fill="midnightblue" stroke="midnightblue" points="805.287,-12.2686 795.312,-15.8385 805.336,-19.2685 805.287,-12.2686"/>
</g>
<!-- Node7&#45;&gt;Node6 -->
<g id="edge12" class="edge"><title>Node7&#45;&gt;Node6</title>
<path fill="none" stroke="midnightblue" d="M711.739,-250.788C744.399,-245.56 792.521,-234.174 827.5,-210 869.13,-181.229 900.415,-128.684 914.788,-101.247"/>
<polygon fill="midnightblue" stroke="midnightblue" points="918.045,-102.564 919.455,-92.0632 911.805,-99.3926 918.045,-102.564"/>
</g>
<!-- Node8 -->
<g id="node8" class="node"><title>Node8</title>
<polygon fill="white" stroke="#bfbfbf" points="589.5,-190.5 589.5,-209.5 657.5,-209.5 657.5,-190.5 589.5,-190.5"/>
<text text-anchor="middle" x="623.5" y="-197.5" font-family="Helvetica,sans-Serif" font-size="10.00">type_traits</text>
</g>
<!-- Node7&#45;&gt;Node8 -->
<g id="edge9" class="edge"><title>Node7&#45;&gt;Node8</title>
<path fill="none" stroke="midnightblue" d="M666.913,-246.083C659.341,-238.22 648.122,-226.569 638.986,-217.081"/>
<polygon fill="midnightblue" stroke="midnightblue" points="641.385,-214.527 631.927,-209.751 636.342,-219.382 641.385,-214.527"/>
</g>
<!-- Node9 -->
<g id="node9" class="node"><title>Node9</title>
<polygon fill="white" stroke="#bfbfbf" points="799.5,-73 799.5,-92 841.5,-92 841.5,-73 799.5,-73"/>
<text text-anchor="middle" x="820.5" y="-80" font-family="Helvetica,sans-Serif" font-size="10.00">utility</text>
</g>
<!-- Node7&#45;&gt;Node9 -->
<g id="edge10" class="edge"><title>Node7&#45;&gt;Node9</title>
<path fill="none" stroke="midnightblue" d="M711.506,-253.047C742.064,-249.327 784.504,-238.888 807.5,-210 832.284,-178.866 828.612,-128.861 824.269,-101.995"/>
<polygon fill="midnightblue" stroke="midnightblue" points="827.687,-101.228 822.448,-92.0197 820.801,-102.486 827.687,-101.228"/>
</g>
<!-- Node10 -->
<g id="node10" class="node"><title>Node10</title>
<polygon fill="white" stroke="#bfbfbf" points="675.5,-190.5 675.5,-209.5 781.5,-209.5 781.5,-190.5 675.5,-190.5"/>
<text text-anchor="middle" x="728.5" y="-197.5" font-family="Helvetica,sans-Serif" font-size="10.00">boost/optional.hpp</text>
</g>
<!-- Node7&#45;&gt;Node10 -->
<g id="edge13" class="edge"><title>Node7&#45;&gt;Node10</title>
<path fill="none" stroke="midnightblue" d="M684.252,-246.083C691.97,-238.22 703.405,-226.569 712.717,-217.081"/>
<polygon fill="midnightblue" stroke="midnightblue" points="715.404,-219.34 719.911,-209.751 710.408,-214.436 715.404,-219.34"/>
</g>
<!-- Node7&#45;&gt;Node11 -->
<g id="edge14" class="edge"><title>Node7&#45;&gt;Node11</title>
<path fill="none" stroke="midnightblue" d="M639.293,-249.309C611.629,-243.416 573.889,-231.87 547.5,-210 517.449,-185.095 535.751,-155.982 503.5,-134 502.002,-132.979 302.828,-103.211 213.268,-89.8652"/>
<polygon fill="midnightblue" stroke="midnightblue" points="213.571,-86.3718 203.164,-88.3601 212.539,-93.2954 213.571,-86.3718"/>
</g>
<!-- Node7&#45;&gt;Node16 -->
<g id="edge21" class="edge"><title>Node7&#45;&gt;Node16</title>
<path fill="none" stroke="midnightblue" d="M642.7,-246.444C605.236,-236.67 544.097,-220.721 505.11,-210.551"/>
<polygon fill="midnightblue" stroke="midnightblue" points="505.782,-207.109 495.222,-207.971 504.015,-213.882 505.782,-207.109"/>
</g>
<!-- Node18 -->
<g id="node18" class="node"><title>Node18</title>
<g id="a_node18"><a xlink:href="expression_8h.xhtml" target="_top" xlink:title="Provides the base class for all expressions and units for expression values. ">
<polygon fill="white" stroke="black" points="552,-134.5 552,-153.5 629,-153.5 629,-134.5 552,-134.5"/>
<text text-anchor="middle" x="590.5" y="-141.5" font-family="Helvetica,sans-Serif" font-size="10.00">expression.h</text>
</a>
</g>
</g>
<!-- Node7&#45;&gt;Node18 -->
<g id="edge41" class="edge"><title>Node7&#45;&gt;Node18</title>
<path fill="none" stroke="midnightblue" d="M711.743,-248.703C754.053,-239.774 815.285,-220.981 790.5,-190 771.949,-166.812 692.6,-154.733 639.599,-149.133"/>
<polygon fill="midnightblue" stroke="midnightblue" points="639.677,-145.623 629.376,-148.098 638.972,-152.588 639.677,-145.623"/>
</g>
<!-- Node11&#45;&gt;Node3 -->
<g id="edge16" class="edge"><title>Node11&#45;&gt;Node3</title>
<path fill="none" stroke="midnightblue" d="M194.642,-72.9717C201.908,-70.6997 209.957,-68.4709 217.5,-67 400.518,-31.3121 455.096,-78.1579 635.5,-31 637.658,-30.436 639.852,-29.7373 642.028,-28.954"/>
<polygon fill="midnightblue" stroke="midnightblue" points="643.376,-32.1839 651.284,-25.1325 640.705,-25.7136 643.376,-32.1839"/>
</g>
<!-- Node11&#45;&gt;Node5 -->
<g id="edge17" class="edge"><title>Node11&#45;&gt;Node5</title>
<path fill="none" stroke="midnightblue" d="M203.021,-77.1959C226.7,-74.1371 259.557,-70.048 288.5,-67 470.417,-47.8421 517.413,-56.857 698.5,-31 711.491,-29.145 725.664,-26.4797 738.037,-23.9389"/>
<polygon fill="midnightblue" stroke="midnightblue" points="738.876,-27.3391 747.94,-21.8545 737.434,-20.4892 738.876,-27.3391"/>
</g>
<!-- Node12 -->
<g id="node12" class="node"><title>Node12</title>
<polygon fill="white" stroke="#bfbfbf" points="0,-6 0,-25 49,-25 49,-6 0,-6"/>
<text text-anchor="middle" x="24.5" y="-13" font-family="Helvetica,sans-Serif" font-size="10.00">cstdint</text>
</g>
<!-- Node11&#45;&gt;Node12 -->
<g id="edge15" class="edge"><title>Node11&#45;&gt;Node12</title>
<path fill="none" stroke="midnightblue" d="M151.112,-72.8685C126.024,-61.699 82.1067,-42.1468 53.1613,-29.2602"/>
<polygon fill="midnightblue" stroke="midnightblue" points="54.5269,-26.037 43.9679,-25.1672 51.6799,-32.4319 54.5269,-26.037"/>
</g>
<!-- Node13 -->
<g id="node13" class="node"><title>Node13</title>
<polygon fill="white" stroke="#bfbfbf" points="373.5,-6 373.5,-25 545.5,-25 545.5,-6 373.5,-6"/>
<text text-anchor="middle" x="459.5" y="-13" font-family="Helvetica,sans-Serif" font-size="10.00">boost/multi_index_container.hpp</text>
</g>
<!-- Node11&#45;&gt;Node13 -->
<g id="edge18" class="edge"><title>Node11&#45;&gt;Node13</title>
<path fill="none" stroke="midnightblue" d="M196.726,-72.9343C203.461,-70.8655 210.72,-68.7492 217.5,-67 280.096,-50.8507 352.808,-36.2229 402.063,-26.9167"/>
<polygon fill="midnightblue" stroke="midnightblue" points="402.716,-30.3554 411.898,-25.0703 401.424,-23.4756 402.716,-30.3554"/>
</g>
<!-- Node14 -->
<g id="node14" class="node"><title>Node14</title>
<polygon fill="white" stroke="#bfbfbf" points="67.5,-0.5 67.5,-30.5 207.5,-30.5 207.5,-0.5 67.5,-0.5"/>
<text text-anchor="start" x="75.5" y="-18.5" font-family="Helvetica,sans-Serif" font-size="10.00">boost/multi_index/hashed</text>
<text text-anchor="middle" x="137.5" y="-7.5" font-family="Helvetica,sans-Serif" font-size="10.00">_index.hpp</text>
</g>
<!-- Node11&#45;&gt;Node14 -->
<g id="edge19" class="edge"><title>Node11&#45;&gt;Node14</title>
<path fill="none" stroke="midnightblue" d="M166.049,-72.7338C161.761,-64.2872 155.085,-51.1378 149.267,-39.6778"/>
<polygon fill="midnightblue" stroke="midnightblue" points="152.301,-37.9213 144.653,-30.589 146.059,-41.0901 152.301,-37.9213"/>
</g>
<!-- Node15 -->
<g id="node15" class="node"><title>Node15</title>
<polygon fill="white" stroke="#bfbfbf" points="225.5,-0.5 225.5,-30.5 355.5,-30.5 355.5,-0.5 225.5,-0.5"/>
<text text-anchor="start" x="233.5" y="-18.5" font-family="Helvetica,sans-Serif" font-size="10.00">boost/multi_index/mem</text>
<text text-anchor="middle" x="290.5" y="-7.5" font-family="Helvetica,sans-Serif" font-size="10.00">_fun.hpp</text>
</g>
<!-- Node11&#45;&gt;Node15 -->
<g id="edge20" class="edge"><title>Node11&#45;&gt;Node15</title>
<path fill="none" stroke="midnightblue" d="M186.684,-72.7338C204.227,-63.2314 232.758,-47.777 255.475,-35.4719"/>
<polygon fill="midnightblue" stroke="midnightblue" points="257.364,-38.4294 264.49,-30.589 254.03,-32.2744 257.364,-38.4294"/>
</g>
<!-- Node16&#45;&gt;Node2 -->
<g id="edge23" class="edge"><title>Node16&#45;&gt;Node2</title>
<path fill="none" stroke="midnightblue" d="M441.797,-191.717C407.519,-182.369 347.815,-166.086 308.727,-155.426"/>
<polygon fill="midnightblue" stroke="midnightblue" points="309.587,-152.032 299.018,-152.778 307.745,-158.786 309.587,-152.032"/>
</g>
<!-- Node16&#45;&gt;Node3 -->
<g id="edge24" class="edge"><title>Node16&#45;&gt;Node3</title>
<path fill="none" stroke="midnightblue" d="M495.121,-195.325C537.618,-188.92 617.992,-174.415 637.5,-154 668.496,-121.563 670.461,-64.9158 669.095,-35.4783"/>
<polygon fill="midnightblue" stroke="midnightblue" points="672.575,-35.0661 668.435,-25.314 665.59,-35.5199 672.575,-35.0661"/>
</g>
<!-- Node16&#45;&gt;Node5 -->
<g id="edge25" class="edge"><title>Node16&#45;&gt;Node5</title>
<path fill="none" stroke="midnightblue" d="M495.263,-198.06C534.211,-195.567 607.523,-186.538 659.5,-154 708.503,-123.324 745.877,-63.6731 762.317,-34.0568"/>
<polygon fill="midnightblue" stroke="midnightblue" points="765.401,-35.7112 767.076,-25.2496 759.243,-32.3832 765.401,-35.7112"/>
</g>
<!-- Node16&#45;&gt;Node6 -->
<g id="edge26" class="edge"><title>Node16&#45;&gt;Node6</title>
<path fill="none" stroke="midnightblue" d="M495.247,-196.352C561.413,-189.619 731.314,-171.158 785.5,-154 828.902,-140.257 875.223,-113.878 901.64,-97.5738"/>
<polygon fill="midnightblue" stroke="midnightblue" points="903.815,-100.341 910.429,-92.0647 900.097,-94.4099 903.815,-100.341"/>
</g>
<!-- Node16&#45;&gt;Node11 -->
<g id="edge28" class="edge"><title>Node16&#45;&gt;Node11</title>
<path fill="none" stroke="midnightblue" d="M452.796,-190.498C423.978,-174.974 363.581,-142.822 341.5,-134 298.854,-116.962 248.208,-102.711 213.156,-93.74"/>
<polygon fill="midnightblue" stroke="midnightblue" points="213.807,-90.2946 203.255,-91.2399 212.094,-97.0816 213.807,-90.2946"/>
</g>
<!-- Node16&#45;&gt;Node12 -->
<g id="edge22" class="edge"><title>Node16&#45;&gt;Node12</title>
<path fill="none" stroke="midnightblue" d="M441.643,-191.129C415.525,-183.095 374.999,-169.613 341.5,-154 325.609,-146.594 323.876,-140.259 307.5,-134 231.7,-105.027 200.616,-135.207 128.5,-98 110.617,-88.7734 111.068,-79.7501 95.5,-67 79.6603,-54.0277 60.7226,-40.6559 46.3907,-30.9334"/>
<polygon fill="midnightblue" stroke="midnightblue" points="47.9703,-27.7784 37.7165,-25.1121 44.0696,-33.5908 47.9703,-27.7784"/>
</g>
<!-- Node17 -->
<g id="node17" class="node"><title>Node17</title>
<polygon fill="white" stroke="#bfbfbf" points="394,-134.5 394,-153.5 495,-153.5 495,-134.5 394,-134.5"/>
<text text-anchor="middle" x="444.5" y="-141.5" font-family="Helvetica,sans-Serif" font-size="10.00">boost/variant.hpp</text>
</g>
<!-- Node16&#45;&gt;Node17 -->
<g id="edge27" class="edge"><title>Node16&#45;&gt;Node17</title>
<path fill="none" stroke="midnightblue" d="M464.537,-190.083C461.287,-182.77 456.581,-172.181 452.546,-163.103"/>
<polygon fill="midnightblue" stroke="midnightblue" points="455.649,-161.468 448.389,-153.751 449.252,-164.311 455.649,-161.468"/>
</g>
<!-- Node16&#45;&gt;Node18 -->
<g id="edge29" class="edge"><title>Node16&#45;&gt;Node18</title>
<path fill="none" stroke="midnightblue" d="M487.831,-190.444C507.82,-181.596 539.243,-167.687 562.064,-157.586"/>
<polygon fill="midnightblue" stroke="midnightblue" points="563.532,-160.764 571.259,-153.516 560.698,-154.363 563.532,-160.764"/>
</g>
<!-- Node18&#45;&gt;Node3 -->
<g id="edge32" class="edge"><title>Node18&#45;&gt;Node3</title>
<path fill="none" stroke="midnightblue" d="M551.731,-136.303C546.941,-135.509 542.11,-134.725 537.5,-134 424.287,-116.206 211.759,-152.115 288.5,-67 340.413,-9.42256 560.669,-51.2606 635.5,-31 637.653,-30.4172 639.843,-29.7051 642.017,-28.9125"/>
<polygon fill="midnightblue" stroke="midnightblue" points="643.373,-32.1392 651.268,-25.074 640.69,-25.6736 643.373,-32.1392"/>
</g>
<!-- Node18&#45;&gt;Node5 -->
<g id="edge34" class="edge"><title>Node18&#45;&gt;Node5</title>
<path fill="none" stroke="midnightblue" d="M602.941,-134.305C633.553,-112.911 712.79,-57.5324 750.698,-31.0384"/>
<polygon fill="midnightblue" stroke="midnightblue" points="752.78,-33.8531 758.972,-25.2557 748.77,-28.1155 752.78,-33.8531"/>
</g>
<!-- Node18&#45;&gt;Node6 -->
<g id="edge36" class="edge"><title>Node18&#45;&gt;Node6</title>
<path fill="none" stroke="midnightblue" d="M629.317,-136.589C680.182,-128.118 772.132,-112.563 850.5,-98 857.243,-96.747 864.328,-95.3903 871.323,-94.0267"/>
<polygon fill="midnightblue" stroke="midnightblue" points="872.32,-97.3978 881.458,-92.0352 870.97,-90.5291 872.32,-97.3978"/>
</g>
<!-- Node18&#45;&gt;Node9 -->
<g id="edge33" class="edge"><title>Node18&#45;&gt;Node9</title>
<path fill="none" stroke="midnightblue" d="M623.453,-134.475C667.841,-122.992 746.257,-102.706 789.577,-91.4995"/>
<polygon fill="midnightblue" stroke="midnightblue" points="790.479,-94.8815 799.284,-88.9885 788.726,-88.1046 790.479,-94.8815"/>
</g>
<!-- Node18&#45;&gt;Node11 -->
<g id="edge37" class="edge"><title>Node18&#45;&gt;Node11</title>
<path fill="none" stroke="midnightblue" d="M551.742,-136.229C546.95,-135.448 542.116,-134.686 537.5,-134 412.523,-115.42 380.47,-116.628 255.5,-98 241.695,-95.9423 226.671,-93.4602 213.148,-91.1356"/>
<polygon fill="midnightblue" stroke="midnightblue" points="213.595,-87.661 203.143,-89.3984 212.397,-94.5578 213.595,-87.661"/>
</g>
<!-- Node19 -->
<g id="node19" class="node"><title>Node19</title>
<polygon fill="white" stroke="#bfbfbf" points="297.5,-73 297.5,-92 359.5,-92 359.5,-73 297.5,-73"/>
<text text-anchor="middle" x="328.5" y="-80" font-family="Helvetica,sans-Serif" font-size="10.00">algorithm</text>
</g>
<!-- Node18&#45;&gt;Node19 -->
<g id="edge30" class="edge"><title>Node18&#45;&gt;Node19</title>
<path fill="none" stroke="midnightblue" d="M551.978,-135.904C497.952,-125.829 402.479,-107.546 368.5,-98 365.7,-97.2133 362.815,-96.3257 359.937,-95.3866"/>
<polygon fill="midnightblue" stroke="midnightblue" points="360.911,-92.0203 350.317,-92.0683 358.629,-98.6377 360.911,-92.0203"/>
</g>
<!-- Node20 -->
<g id="node20" class="node"><title>Node20</title>
<polygon fill="white" stroke="#bfbfbf" points="377.5,-73 377.5,-92 433.5,-92 433.5,-73 377.5,-73"/>
<text text-anchor="middle" x="405.5" y="-80" font-family="Helvetica,sans-Serif" font-size="10.00">sstream</text>
</g>
<!-- Node18&#45;&gt;Node20 -->
<g id="edge31" class="edge"><title>Node18&#45;&gt;Node20</title>
<path fill="none" stroke="midnightblue" d="M559.946,-134.468C529.862,-125.89 482.71,-111.968 442.5,-98 440.382,-97.2642 438.205,-96.4816 436.019,-95.6758"/>
<polygon fill="midnightblue" stroke="midnightblue" points="437.117,-92.3487 426.525,-92.0688 434.63,-98.8924 437.117,-92.3487"/>
</g>
<!-- Node21 -->
<g id="node21" class="node"><title>Node21</title>
<polygon fill="white" stroke="#bfbfbf" points="451.5,-67.5 451.5,-97.5 563.5,-97.5 563.5,-67.5 451.5,-67.5"/>
<text text-anchor="start" x="459.5" y="-85.5" font-family="Helvetica,sans-Serif" font-size="10.00">boost/icl/continuous</text>
<text text-anchor="middle" x="507.5" y="-74.5" font-family="Helvetica,sans-Serif" font-size="10.00">_interval.hpp</text>
</g>
<!-- Node18&#45;&gt;Node21 -->
<g id="edge35" class="edge"><title>Node18&#45;&gt;Node21</title>
<path fill="none" stroke="midnightblue" d="M578.608,-134.475C567.367,-126.417 550.078,-114.023 535.363,-103.474"/>
<polygon fill="midnightblue" stroke="midnightblue" points="537.228,-100.505 527.061,-97.523 533.15,-106.194 537.228,-100.505"/>
</g>
<!-- Node22 -->
<g id="node22" class="node"><title>Node22</title>
<g id="a_node22"><a xlink:href="error_8h.xhtml" target="_top" xlink:title="Exceptions for SCRAM. ">
<polygon fill="white" stroke="black" points="581.5,-73 581.5,-92 629.5,-92 629.5,-73 581.5,-73"/>
<text text-anchor="middle" x="605.5" y="-80" font-family="Helvetica,sans-Serif" font-size="10.00">error.h</text>
</a>
</g>
</g>
<!-- Node18&#45;&gt;Node22 -->
<g id="edge38" class="edge"><title>Node18&#45;&gt;Node22</title>
<path fill="none" stroke="midnightblue" d="M592.649,-134.475C594.788,-125.992 598.138,-112.704 600.881,-101.822"/>
<polygon fill="midnightblue" stroke="midnightblue" points="604.304,-102.561 603.355,-92.0091 597.516,-100.85 604.304,-102.561"/>
</g>
<!-- Node22&#45;&gt;Node3 -->
<g id="edge40" class="edge"><title>Node22&#45;&gt;Node3</title>
<path fill="none" stroke="midnightblue" d="M613.862,-72.7338C623.623,-62.5004 639.968,-45.3642 652.055,-32.6924"/>
<polygon fill="midnightblue" stroke="midnightblue" points="654.901,-34.7792 659.271,-25.1273 649.836,-29.9477 654.901,-34.7792"/>
</g>
<!-- Node23 -->
<g id="node23" class="node"><title>Node23</title>
<polygon fill="white" stroke="#bfbfbf" points="564,-6 564,-25 627,-25 627,-6 564,-6"/>
<text text-anchor="middle" x="595.5" y="-13" font-family="Helvetica,sans-Serif" font-size="10.00">exception</text>
</g>
<!-- Node22&#45;&gt;Node23 -->
<g id="edge39" class="edge"><title>Node22&#45;&gt;Node23</title>
<path fill="none" stroke="midnightblue" d="M604.151,-72.7338C602.682,-63.1826 600.287,-47.6183 598.39,-35.2829"/>
<polygon fill="midnightblue" stroke="midnightblue" points="601.807,-34.4788 596.827,-25.1273 594.889,-35.5432 601.807,-34.4788"/>
</g>
<!-- Node24&#45;&gt;Node2 -->
<g id="edge46" class="edge"><title>Node24&#45;&gt;Node2</title>
<path fill="none" stroke="midnightblue" d="M247.124,-190.083C250.956,-182.691 256.524,-171.953 261.265,-162.811"/>
<polygon fill="midnightblue" stroke="midnightblue" points="264.466,-164.24 265.962,-153.751 258.252,-161.018 264.466,-164.24"/>
</g>
<!-- Node24&#45;&gt;Node3 -->
<g id="edge47" class="edge"><title>Node24&#45;&gt;Node3</title>
<path fill="none" stroke="midnightblue" d="M240.018,-190.467C237.543,-181.485 233.915,-166.888 232.5,-154 227.934,-112.404 233.676,-90.2038 268.5,-67 336.695,-21.5604 556.341,-52.1948 635.5,-31 637.654,-30.4232 639.846,-29.7154 642.02,-28.9258"/>
<polygon fill="midnightblue" stroke="midnightblue" points="643.374,-32.1535 651.273,-25.0927 640.695,-25.6864 643.374,-32.1535"/>
</g>
<!-- Node24&#45;&gt;Node11 -->
<g id="edge48" class="edge"><title>Node24&#45;&gt;Node11</title>
<path fill="none" stroke="midnightblue" d="M232.148,-190.235C222.646,-181.752 208.688,-168.133 199.5,-154 188.923,-137.731 180.949,-116.971 176.065,-102.201"/>
<polygon fill="midnightblue" stroke="midnightblue" points="179.276,-100.741 172.942,-92.2482 172.597,-102.837 179.276,-100.741"/>
</g>
<!-- Node24&#45;&gt;Node12 -->
<g id="edge45" class="edge"><title>Node24&#45;&gt;Node12</title>
<path fill="none" stroke="midnightblue" d="M227.42,-190.384C199.747,-174.207 139.647,-137.355 95.5,-98 72.836,-77.7962 50.4594,-50.5758 37.0599,-33.2784"/>
<polygon fill="midnightblue" stroke="midnightblue" points="39.7656,-31.0544 30.9172,-25.2272 34.2004,-35.3005 39.7656,-31.0544"/>
</g>
<!-- Node24&#45;&gt;Node18 -->
<g id="edge49" class="edge"><title>Node24&#45;&gt;Node18</title>
<path fill="none" stroke="midnightblue" d="M280.738,-193.067C344.304,-183.203 471.633,-163.445 541.625,-152.584"/>
<polygon fill="midnightblue" stroke="midnightblue" points="542.589,-155.976 551.934,-150.984 541.515,-149.059 542.589,-155.976"/>
</g>
</g>
</svg>
        <g id="navigator" transform="translate(0 0)" fill="#404254">
                <rect fill="#f2f5e9" fill-opacity="0.5" stroke="#606060" stroke-width=".5" x="0" y="0" width="60" height="60"/>
                <use id="zoomplus" xlink:href="#zoomPlus" x="17" y="9" onmousedown="handleZoom(evt,'in')"/>
                <use id="zoomminus" xlink:href="#zoomMin" x="42" y="9" onmousedown="handleZoom(evt,'out')"/>
                <use id="reset" xlink:href="#resetDef" x="30" y="36" onmousedown="handleReset()"/>
                <g id="arrowUp" xlink:href="#dirArrow" transform="translate(30 24)" onmousedown="handlePan(0,-1)">
                  <use xlink:href="#rim" fill="#404040">
                        <set attributeName="fill" to="#808080" begin="arrowUp.mouseover" end="arrowUp.mouseout"/>
                  </use>
                  <path fill="none" stroke="white" stroke-width="1.5" d="M0,-3.0v7 M-2.5,-0.5L0,-3.0L2.5,-0.5"/>
                </g>
                <g id="arrowRight" xlink:href="#dirArrow" transform="rotate(90) translate(36 -43)" onmousedown="handlePan(1,0)">
                  <use xlink:href="#rim" fill="#404040">
                        <set attributeName="fill" to="#808080" begin="arrowRight.mouseover" end="arrowRight.mouseout"/>
                  </use>
                  <path fill="none" stroke="white" stroke-width="1.5" d="M0,-3.0v7 M-2.5,-0.5L0,-3.0L2.5,-0.5"/>
                </g>
                <g id="arrowDown" xlink:href="#dirArrow" transform="rotate(180) translate(-30 -48)" onmousedown="handlePan(0,1)">
                  <use xlink:href="#rim" fill="#404040">
                        <set attributeName="fill" to="#808080" begin="arrowDown.mouseover" end="arrowDown.mouseout"/>
                  </use>
                  <path fill="none" stroke="white" stroke-width="1.5" d="M0,-3.0v7 M-2.5,-0.5L0,-3.0L2.5,-0.5"/>
                </g>
                <g id="arrowLeft" xlink:href="#dirArrow" transform="rotate(270) translate(-36 17)" onmousedown="handlePan(-1,0)">
                  <use xlink:href="#rim" fill="#404040">
                        <set attributeName="fill" to="#808080" begin="arrowLeft.mouseover" end="arrowLeft.mouseout"/>
                  </use>
                  <path fill="none" stroke="white" stroke-width="1.5" d="M0,-3.0v7 M-2.5,-0.5L0,-3.0L2.5,-0.5"/>
                </g>
        </g>
        <svg viewBox="0 0 15 15" width="100%" height="30px" preserveAspectRatio="xMaxYMin meet">
         <g id="arrow_out" transform="scale(0.3 0.3)">
          <a xlink:href="fault__tree_8h__incl_org.svg" target="_base">
           <rect id="button" ry="5" rx="5" y="6" x="6" height="38" width="38"
                fill="#f2f5e9" fill-opacity="0.5" stroke="#606060" stroke-width="1.0"/>
           <path id="arrow"
             d="M 11.500037,31.436501 C 11.940474,20.09759 22.043105,11.32322 32.158766,21.979434 L 37.068811,17.246167 C 37.068811,17.246167 37.088388,32 37.088388,32 L 22.160133,31.978069 C 22.160133,31.978069 26.997745,27.140456 26.997745,27.140456 C 18.528582,18.264221 13.291696,25.230495 11.500037,31.436501 z"
             style="fill:#404040;"/>
          </a>
         </g>
        </svg>
</svg>
