<?xml version="1.0" encoding="UTF-8" standalone="no"?>
<!DOCTYPE svg PUBLIC "-//W3C//DTD SVG 1.1//EN"
 "http://www.w3.org/Graphics/SVG/1.1/DTD/svg11.dtd">
<!-- Generated by graphviz version 2.38.0 (20140413.2041)
 -->
<!-- Title: fault_tree_analysis.h Pages: 1 -->
<!--zoomable 352 -->
<svg id="main" version="1.1" xmlns="http://www.w3.org/2000/svg" xmlns:xlink="http://www.w3.org/1999/xlink" xml:space="preserve" onload="init(evt)">
<style type="text/css"><![CDATA[
.edge:hover path { stroke: red; }
.edge:hover polygon { stroke: red; fill: red; }
]]></style>
<script type="text/javascript"><![CDATA[
var edges = document.getElementsByTagName('g');
if (edges && edges.length) {
  for (var i=0;i<edges.length;i++) {
    if (edges[i].id.substr(0,4)=='edge') {
      edges[i].setAttribute('class','edge');
    }
  }
}
]]></script>
        <defs>
                <circle id="rim" cx="0" cy="0" r="7"/>
                <circle id="rim2" cx="0" cy="0" r="3.5"/>
                <g id="zoomPlus">
                        <use xlink:href="#rim" fill="#404040">
                                <set attributeName="fill" to="#808080" begin="zoomplus.mouseover" end="zoomplus.mouseout"/>
                        </use>
                        <path d="M-4,0h8M0,-4v8" fill="none" stroke="white" stroke-width="1.5" pointer-events="none"/>
                </g>
                <g id="zoomMin">
                        <use xlink:href="#rim" fill="#404040">
                                <set attributeName="fill" to="#808080" begin="zoomminus.mouseover" end="zoomminus.mouseout"/>
                        </use>
                        <path d="M-4,0h8" fill="none" stroke="white" stroke-width="1.5" pointer-events="none"/>
                </g>
                <g id="dirArrow">
                        <path fill="none" stroke="white" stroke-width="1.5" d="M0,-3.0v7 M-2.5,-0.5L0,-3.0L2.5,-0.5"/>
                </g>
               <g id="resetDef">
                       <use xlink:href="#rim2" fill="#404040">
                               <set attributeName="fill" to="#808080" begin="reset.mouseover" end="reset.mouseout"/>
                       </use>
               </g>
        </defs>

<script type="text/javascript">
var viewWidth = 2120;
var viewHeight = 352;
var sectionId = 'dynsection-0';
</script>
<script xlink:href="svgpan.js"/>
<svg id="graph" class="graph">
<g id="viewport">
<title>fault_tree_analysis.h</title>
<polygon fill="white" stroke="none" points="-4,4 -4,-348 2116.49,-348 2116.49,4 -4,4"/>
<!-- Node1 -->
<g id="node1" class="node"><title>Node1</title>
<polygon fill="#bfbfbf" stroke="black" points="626.991,-324.5 626.991,-343.5 741.991,-343.5 741.991,-324.5 626.991,-324.5"/>
<text text-anchor="middle" x="684.491" y="-331.5" font-family="Helvetica,sans-Serif" font-size="10.00">fault_tree_analysis.h</text>
</g>
<!-- Node2 -->
<g id="node2" class="node"><title>Node2</title>
<polygon fill="white" stroke="#bfbfbf" points="75.9907,-62 75.9907,-81 122.991,-81 122.991,-62 75.9907,-62"/>
<text text-anchor="middle" x="99.4907" y="-69" font-family="Helvetica,sans-Serif" font-size="10.00">cstdlib</text>
</g>
<!-- Node1&#45;&gt;Node2 -->
<g id="edge1" class="edge"><title>Node1&#45;&gt;Node2</title>
<path fill="none" stroke="midnightblue" d="M626.831,-333.213C572.75,-331.099 491.189,-321.81 429.491,-288 377.631,-259.581 386.867,-225.392 339.491,-190 321.007,-176.192 186.334,-112.895 127.203,-85.3579"/>
<polygon fill="midnightblue" stroke="midnightblue" points="128.606,-82.1505 118.063,-81.1061 125.654,-88.4974 128.606,-82.1505"/>
</g>
<!-- Node3 -->
<g id="node3" class="node"><title>Node3</title>
<polygon fill="white" stroke="#bfbfbf" points="1716.99,-62 1716.99,-81 1773.99,-81 1773.99,-62 1716.99,-62"/>
<text text-anchor="middle" x="1745.49" y="-69" font-family="Helvetica,sans-Serif" font-size="10.00">memory</text>
</g>
<!-- Node1&#45;&gt;Node3 -->
<g id="edge2" class="edge"><title>Node1&#45;&gt;Node3</title>
<path fill="none" stroke="midnightblue" d="M742.108,-332.582C984.489,-330.232 1912.79,-315.107 1998.49,-221 2027.82,-188.795 2027.13,-156.669 1999.49,-123 1972.74,-90.4084 1848.85,-78.4661 1784.51,-74.41"/>
<polygon fill="midnightblue" stroke="midnightblue" points="1784.54,-70.9055 1774.35,-73.8038 1784.12,-77.8931 1784.54,-70.9055"/>
</g>
<!-- Node4 -->
<g id="node4" class="node"><title>Node4</title>
<polygon fill="white" stroke="#bfbfbf" points="438.491,-263 438.491,-282 524.491,-282 524.491,-263 438.491,-263"/>
<text text-anchor="middle" x="481.491" y="-270" font-family="Helvetica,sans-Serif" font-size="10.00">unordered_set</text>
</g>
<!-- Node1&#45;&gt;Node4 -->
<g id="edge3" class="edge"><title>Node1&#45;&gt;Node4</title>
<path fill="none" stroke="midnightblue" d="M655.406,-324.475C619.906,-314.07 559.745,-296.437 520.317,-284.88"/>
<polygon fill="midnightblue" stroke="midnightblue" points="521.102,-281.463 510.522,-282.009 519.134,-288.181 521.102,-281.463"/>
</g>
<!-- Node5 -->
<g id="node5" class="node"><title>Node5</title>
<polygon fill="white" stroke="#bfbfbf" points="1166.99,-0.5 1166.99,-19.5 1213.99,-19.5 1213.99,-0.5 1166.99,-0.5"/>
<text text-anchor="middle" x="1190.49" y="-7.5" font-family="Helvetica,sans-Serif" font-size="10.00">vector</text>
</g>
<!-- Node1&#45;&gt;Node5 -->
<g id="edge4" class="edge"><title>Node1&#45;&gt;Node5</title>
<path fill="none" stroke="midnightblue" d="M742.323,-332.568C944.186,-330.772 1616.76,-322.295 1829.49,-288 1958.71,-267.168 2112.49,-337.39 2112.49,-206.5 2112.49,-206.5 2112.49,-206.5 2112.49,-137.5 2112.49,-35.7249 1997.95,-77.582 1898.49,-56 1767.49,-27.5734 1347.36,-14.9534 1224.53,-11.8122"/>
<polygon fill="midnightblue" stroke="midnightblue" points="1224.32,-8.30593 1214.23,-11.5535 1224.14,-15.3037 1224.32,-8.30593"/>
</g>
<!-- Node6 -->
<g id="node6" class="node"><title>Node6</title>
<polygon fill="white" stroke="#bfbfbf" points="618.491,-190.5 618.491,-220.5 738.491,-220.5 738.491,-190.5 618.491,-190.5"/>
<text text-anchor="start" x="626.491" y="-208.5" font-family="Helvetica,sans-Serif" font-size="10.00">boost/iterator/iterator</text>
<text text-anchor="middle" x="678.491" y="-197.5" font-family="Helvetica,sans-Serif" font-size="10.00">_facade.hpp</text>
</g>
<!-- Node1&#45;&gt;Node6 -->
<g id="edge5" class="edge"><title>Node1&#45;&gt;Node6</title>
<path fill="none" stroke="midnightblue" d="M711.773,-324.453C728.785,-317.548 749.316,-305.971 759.491,-288 766.279,-276.011 766.176,-269.047 759.491,-257 752.042,-243.579 739.38,-233.259 726.252,-225.552"/>
<polygon fill="midnightblue" stroke="midnightblue" points="727.608,-222.307 717.147,-220.629 724.279,-228.464 727.608,-222.307"/>
</g>
<!-- Node7 -->
<g id="node7" class="node"><title>Node7</title>
<polygon fill="white" stroke="#bfbfbf" points="618.491,-257.5 618.491,-287.5 750.491,-287.5 750.491,-257.5 618.491,-257.5"/>
<text text-anchor="start" x="626.491" y="-275.5" font-family="Helvetica,sans-Serif" font-size="10.00">boost/iterator/transform</text>
<text text-anchor="middle" x="684.491" y="-264.5" font-family="Helvetica,sans-Serif" font-size="10.00">_iterator.hpp</text>
</g>
<!-- Node1&#45;&gt;Node7 -->
<g id="edge6" class="edge"><title>Node1&#45;&gt;Node7</title>
<path fill="none" stroke="midnightblue" d="M684.491,-324.475C684.491,-317.471 684.491,-307.192 684.491,-297.696"/>
<polygon fill="midnightblue" stroke="midnightblue" points="687.991,-297.523 684.491,-287.523 680.991,-297.523 687.991,-297.523"/>
</g>
<!-- Node8 -->
<g id="node8" class="node"><title>Node8</title>
<g id="a_node8"><a xlink:href="analysis_8h.xhtml" target="_top" xlink:title="Common facilities for all analysis classes. ">
<polygon fill="white" stroke="black" points="266.491,-196 266.491,-215 330.491,-215 330.491,-196 266.491,-196"/>
<text text-anchor="middle" x="298.491" y="-203" font-family="Helvetica,sans-Serif" font-size="10.00">analysis.h</text>
</a>
</g>
</g>
<!-- Node1&#45;&gt;Node8 -->
<g id="edge7" class="edge"><title>Node1&#45;&gt;Node8</title>
<path fill="none" stroke="midnightblue" d="M626.94,-331.498C542.292,-328.283 389.385,-318.338 344.491,-288 322.444,-273.102 309.78,-243.911 303.516,-224.812"/>
<polygon fill="midnightblue" stroke="midnightblue" points="306.843,-223.723 300.61,-215.155 300.14,-225.74 306.843,-223.723"/>
</g>
<!-- Node12 -->
<g id="node12" class="node"><title>Node12</title>
<g id="a_node12"><a xlink:href="settings_8h.xhtml" target="_top" xlink:title="Builder for settings. ">
<polygon fill="white" stroke="black" points="386.491,-129 386.491,-148 450.491,-148 450.491,-129 386.491,-129"/>
<text text-anchor="middle" x="418.491" y="-136" font-family="Helvetica,sans-Serif" font-size="10.00">settings.h</text>
</a>
</g>
</g>
<!-- Node1&#45;&gt;Node12 -->
<g id="edge46" class="edge"><title>Node1&#45;&gt;Node12</title>
<path fill="none" stroke="midnightblue" d="M663.217,-324.416C644.027,-316.255 615.384,-303.022 592.491,-288 529.058,-246.377 463.4,-184.179 434.163,-155.293"/>
<polygon fill="midnightblue" stroke="midnightblue" points="436.47,-152.651 426.915,-148.074 431.53,-157.61 436.47,-152.651"/>
</g>
<!-- Node14 -->
<g id="node14" class="node"><title>Node14</title>
<g id="a_node14"><a xlink:href="pdag_8h.xhtml" target="_top" xlink:title="Classes and facilities to represent fault trees as PDAGs with event and gate indices instead of ID na...">
<polygon fill="white" stroke="black" points="670.491,-129 670.491,-148 720.491,-148 720.491,-129 670.491,-129"/>
<text text-anchor="middle" x="695.491" y="-136" font-family="Helvetica,sans-Serif" font-size="10.00">pdag.h</text>
</a>
</g>
</g>
<!-- Node1&#45;&gt;Node14 -->
<g id="edge14" class="edge"><title>Node1&#45;&gt;Node14</title>
<path fill="none" stroke="midnightblue" d="M657.209,-324.453C640.197,-317.548 619.666,-305.971 609.491,-288 588.031,-250.098 587.852,-227.8 609.491,-190 620.478,-170.806 641.912,-158.194 660.632,-150.373"/>
<polygon fill="midnightblue" stroke="midnightblue" points="662.039,-153.582 670.104,-146.711 659.515,-147.053 662.039,-153.582"/>
</g>
<!-- Node26 -->
<g id="node26" class="node"><title>Node26</title>
<g id="a_node26"><a xlink:href="preprocessor_8h.xhtml" target="_top" xlink:title="A collection of PDAG transformation/preprocessing algorithms that simplify fault trees for analysis...">
<polygon fill="white" stroke="black" points="954.491,-196 954.491,-215 1042.49,-215 1042.49,-196 954.491,-196"/>
<text text-anchor="middle" x="998.491" y="-203" font-family="Helvetica,sans-Serif" font-size="10.00">preprocessor.h</text>
</a>
</g>
</g>
<!-- Node1&#45;&gt;Node26 -->
<g id="edge37" class="edge"><title>Node1&#45;&gt;Node26</title>
<path fill="none" stroke="midnightblue" d="M706.073,-324.305C760.655,-302.316 904.346,-244.428 967.717,-218.898"/>
<polygon fill="midnightblue" stroke="midnightblue" points="969.205,-222.072 977.172,-215.088 966.589,-215.579 969.205,-222.072"/>
</g>
<!-- Node29 -->
<g id="node29" class="node"><title>Node29</title>
<g id="a_node29"><a xlink:href="zbdd_8h.xhtml" target="_top" xlink:title="Zero&#45;Suppressed Binary Decision Diagram facilities. ">
<polygon fill="white" stroke="black" points="1324.99,-263 1324.99,-282 1373.99,-282 1373.99,-263 1324.99,-263"/>
<text text-anchor="middle" x="1349.49" y="-270" font-family="Helvetica,sans-Serif" font-size="10.00">zbdd.h</text>
</a>
</g>
</g>
<!-- Node1&#45;&gt;Node29 -->
<g id="edge47" class="edge"><title>Node1&#45;&gt;Node29</title>
<path fill="none" stroke="midnightblue" d="M742.052,-327.85C876.256,-315.842 1206.69,-286.277 1314.71,-276.612"/>
<polygon fill="midnightblue" stroke="midnightblue" points="1315.09,-280.092 1324.74,-275.714 1314.47,-273.12 1315.09,-280.092"/>
</g>
<!-- Node9 -->
<g id="node9" class="node"><title>Node9</title>
<polygon fill="white" stroke="#bfbfbf" points="9.49071,-0.5 9.49071,-19.5 61.4907,-19.5 61.4907,-0.5 9.49071,-0.5"/>
<text text-anchor="middle" x="35.4907" y="-7.5" font-family="Helvetica,sans-Serif" font-size="10.00">cassert</text>
</g>
<!-- Node8&#45;&gt;Node9 -->
<g id="edge8" class="edge"><title>Node8&#45;&gt;Node9</title>
<path fill="none" stroke="midnightblue" d="M266.48,-203.217C202.717,-198.692 61.1217,-178.328 4.49071,-87 -7.29463,-67.994 7.01998,-43.7289 19.8632,-27.7954"/>
<polygon fill="midnightblue" stroke="midnightblue" points="22.7997,-29.7489 26.6718,-19.887 17.4949,-25.1818 22.7997,-29.7489"/>
</g>
<!-- Node10 -->
<g id="node10" class="node"><title>Node10</title>
<polygon fill="white" stroke="#bfbfbf" points="13.4907,-62 13.4907,-81 57.4907,-81 57.4907,-62 13.4907,-62"/>
<text text-anchor="middle" x="35.4907" y="-69" font-family="Helvetica,sans-Serif" font-size="10.00">string</text>
</g>
<!-- Node8&#45;&gt;Node10 -->
<g id="edge9" class="edge"><title>Node8&#45;&gt;Node10</title>
<path fill="none" stroke="midnightblue" d="M281.235,-195.839C236.265,-173.269 115.259,-112.536 61.6589,-85.6338"/>
<polygon fill="midnightblue" stroke="midnightblue" points="62.976,-82.3788 52.4685,-81.0212 59.836,-88.6351 62.976,-82.3788"/>
</g>
<!-- Node11 -->
<g id="node11" class="node"><title>Node11</title>
<polygon fill="white" stroke="#bfbfbf" points="1034.49,-62 1034.49,-81 1162.49,-81 1162.49,-62 1034.49,-62"/>
<text text-anchor="middle" x="1098.49" y="-69" font-family="Helvetica,sans-Serif" font-size="10.00">boost/noncopyable.hpp</text>
</g>
<!-- Node8&#45;&gt;Node11 -->
<g id="edge10" class="edge"><title>Node8&#45;&gt;Node11</title>
<path fill="none" stroke="midnightblue" d="M330.656,-203.061C417.906,-198.792 657.338,-184.545 729.491,-154 749.562,-145.503 747.514,-131.717 767.491,-123 873.605,-76.6942 911.331,-106.286 1025.49,-87 1032.67,-85.7866 1040.23,-84.4044 1047.65,-82.9867"/>
<polygon fill="midnightblue" stroke="midnightblue" points="1048.49,-86.3891 1057.64,-81.0438 1047.16,-79.5179 1048.49,-86.3891"/>
</g>
<!-- Node8&#45;&gt;Node12 -->
<g id="edge11" class="edge"><title>Node8&#45;&gt;Node12</title>
<path fill="none" stroke="midnightblue" d="M314.674,-195.734C334.916,-184.769 369.787,-165.881 393.476,-153.049"/>
<polygon fill="midnightblue" stroke="midnightblue" points="395.437,-155.968 402.563,-148.127 392.103,-149.813 395.437,-155.968"/>
</g>
<!-- Node12&#45;&gt;Node10 -->
<g id="edge13" class="edge"><title>Node12&#45;&gt;Node10</title>
<path fill="none" stroke="midnightblue" d="M386.262,-136.048C323.491,-132.532 180.963,-121.16 66.4907,-87 64.6119,-86.4393 62.7023,-85.7823 60.8011,-85.063"/>
<polygon fill="midnightblue" stroke="midnightblue" points="62.1174,-81.8193 51.5466,-81.1061 59.3654,-88.2557 62.1174,-81.8193"/>
</g>
<!-- Node13 -->
<g id="node13" class="node"><title>Node13</title>
<polygon fill="white" stroke="#bfbfbf" points="140.991,-62 140.991,-81 189.991,-81 189.991,-62 140.991,-62"/>
<text text-anchor="middle" x="165.491" y="-69" font-family="Helvetica,sans-Serif" font-size="10.00">cstdint</text>
</g>
<!-- Node12&#45;&gt;Node13 -->
<g id="edge12" class="edge"><title>Node12&#45;&gt;Node13</title>
<path fill="none" stroke="midnightblue" d="M392.835,-128.908C386.243,-126.839 379.135,-124.73 372.491,-123 296.067,-103.104 273.721,-111.016 198.491,-87 196.568,-86.3863 194.606,-85.697 192.645,-84.9611"/>
<polygon fill="midnightblue" stroke="midnightblue" points="193.618,-81.5773 183.038,-81.0251 190.965,-88.0548 193.618,-81.5773"/>
</g>
<!-- Node14&#45;&gt;Node2 -->
<g id="edge16" class="edge"><title>Node14&#45;&gt;Node2</title>
<path fill="none" stroke="midnightblue" d="M670.39,-135.751C567.908,-128.541 184.136,-100.857 131.491,-87 129.334,-86.4324 127.141,-85.7311 124.965,-84.9459"/>
<polygon fill="midnightblue" stroke="midnightblue" points="126.289,-81.7059 115.71,-81.1211 123.615,-88.1752 126.289,-81.7059"/>
</g>
<!-- Node14&#45;&gt;Node3 -->
<g id="edge19" class="edge"><title>Node14&#45;&gt;Node3</title>
<path fill="none" stroke="midnightblue" d="M720.665,-131.485C734.42,-128.437 751.803,-124.974 767.491,-123 954.033,-99.5296 1548.22,-78.9205 1706.46,-73.7468"/>
<polygon fill="midnightblue" stroke="midnightblue" points="1706.79,-77.2381 1716.67,-73.4147 1706.56,-70.2418 1706.79,-77.2381"/>
</g>
<!-- Node14&#45;&gt;Node5 -->
<g id="edge22" class="edge"><title>Node14&#45;&gt;Node5</title>
<path fill="none" stroke="midnightblue" d="M716.417,-128.988C762.71,-110.258 872.761,-66.3177 911.491,-56 998.203,-32.8995 1103.42,-19.8376 1156.45,-14.2615"/>
<polygon fill="midnightblue" stroke="midnightblue" points="1157.05,-17.7181 1166.64,-13.2148 1156.33,-10.7548 1157.05,-17.7181"/>
</g>
<!-- Node14&#45;&gt;Node11 -->
<g id="edge24" class="edge"><title>Node14&#45;&gt;Node11</title>
<path fill="none" stroke="midnightblue" d="M715.855,-128.911C721.777,-126.693 728.315,-124.508 734.491,-123 861.09,-92.0833 896.827,-107.708 1025.49,-87 1032.94,-85.8008 1040.79,-84.394 1048.47,-82.9368"/>
<polygon fill="midnightblue" stroke="midnightblue" points="1049.27,-86.3468 1058.42,-81.0053 1047.94,-79.475 1049.27,-86.3468"/>
</g>
<!-- Node14&#45;&gt;Node13 -->
<g id="edge15" class="edge"><title>Node14&#45;&gt;Node13</title>
<path fill="none" stroke="midnightblue" d="M675.57,-128.884C669.544,-126.609 662.839,-124.401 656.491,-123 457.105,-78.9993 396.516,-136.768 198.491,-87 196.135,-86.408 193.735,-85.6622 191.359,-84.8229"/>
<polygon fill="midnightblue" stroke="midnightblue" points="192.477,-81.4997 181.894,-81.0003 189.855,-87.9904 192.477,-81.4997"/>
</g>
<!-- Node15 -->
<g id="node15" class="node"><title>Node15</title>
<polygon fill="white" stroke="#bfbfbf" points="306.491,-0.5 306.491,-19.5 368.491,-19.5 368.491,-0.5 306.491,-0.5"/>
<text text-anchor="middle" x="337.491" y="-7.5" font-family="Helvetica,sans-Serif" font-size="10.00">algorithm</text>
</g>
<!-- Node14&#45;&gt;Node15 -->
<g id="edge17" class="edge"><title>Node14&#45;&gt;Node15</title>
<path fill="none" stroke="midnightblue" d="M675.131,-128.89C669.209,-126.672 662.67,-124.492 656.491,-123 590.363,-107.034 402.409,-133.216 352.491,-87 336.947,-72.6095 334.852,-47.1591 335.54,-29.7046"/>
<polygon fill="midnightblue" stroke="midnightblue" points="339.042,-29.8147 336.282,-19.5857 332.06,-29.3033 339.042,-29.8147"/>
</g>
<!-- Node16 -->
<g id="node16" class="node"><title>Node16</title>
<polygon fill="white" stroke="#bfbfbf" points="361.491,-62 361.491,-81 407.491,-81 407.491,-62 361.491,-62"/>
<text text-anchor="middle" x="384.491" y="-69" font-family="Helvetica,sans-Serif" font-size="10.00">iosfwd</text>
</g>
<!-- Node14&#45;&gt;Node16 -->
<g id="edge18" class="edge"><title>Node14&#45;&gt;Node16</title>
<path fill="none" stroke="midnightblue" d="M674.696,-128.862C668.881,-126.697 662.506,-124.552 656.491,-123 552.049,-96.0618 519.934,-117.55 416.491,-87 414.56,-86.4299 412.596,-85.7658 410.638,-85.0415"/>
<polygon fill="midnightblue" stroke="midnightblue" points="411.673,-81.6814 401.096,-81.0737 408.986,-88.1449 411.673,-81.6814"/>
</g>
<!-- Node17 -->
<g id="node17" class="node"><title>Node17</title>
<polygon fill="white" stroke="#bfbfbf" points="1218.99,-62 1218.99,-81 1311.99,-81 1311.99,-62 1218.99,-62"/>
<text text-anchor="middle" x="1265.49" y="-69" font-family="Helvetica,sans-Serif" font-size="10.00">unordered_map</text>
</g>
<!-- Node14&#45;&gt;Node17 -->
<g id="edge20" class="edge"><title>Node14&#45;&gt;Node17</title>
<path fill="none" stroke="midnightblue" d="M720.697,-131.718C734.461,-128.739 751.843,-125.266 767.491,-123 945.897,-97.1664 992.541,-108.752 1171.49,-87 1183.53,-85.5368 1196.4,-83.7198 1208.62,-81.8725"/>
<polygon fill="midnightblue" stroke="midnightblue" points="1209.36,-85.3 1218.72,-80.3206 1208.3,-78.3814 1209.36,-85.3"/>
</g>
<!-- Node18 -->
<g id="node18" class="node"><title>Node18</title>
<polygon fill="white" stroke="#bfbfbf" points="814.491,-0.5 814.491,-19.5 856.491,-19.5 856.491,-0.5 814.491,-0.5"/>
<text text-anchor="middle" x="835.491" y="-7.5" font-family="Helvetica,sans-Serif" font-size="10.00">utility</text>
</g>
<!-- Node14&#45;&gt;Node18 -->
<g id="edge21" class="edge"><title>Node14&#45;&gt;Node18</title>
<path fill="none" stroke="midnightblue" d="M716.208,-128.968C742.065,-118.015 784.367,-98.997 796.491,-87 812.92,-70.7414 823.801,-46.1093 829.799,-29.3263"/>
<polygon fill="midnightblue" stroke="midnightblue" points="833.2,-30.1914 833.044,-19.5977 826.559,-27.976 833.2,-30.1914"/>
</g>
<!-- Node19 -->
<g id="node19" class="node"><title>Node19</title>
<polygon fill="white" stroke="#bfbfbf" points="425.491,-56.5 425.491,-86.5 535.491,-86.5 535.491,-56.5 425.491,-56.5"/>
<text text-anchor="start" x="433.491" y="-74.5" font-family="Helvetica,sans-Serif" font-size="10.00">boost/container/flat</text>
<text text-anchor="middle" x="480.491" y="-63.5" font-family="Helvetica,sans-Serif" font-size="10.00">_set.hpp</text>
</g>
<!-- Node14&#45;&gt;Node19 -->
<g id="edge23" class="edge"><title>Node14&#45;&gt;Node19</title>
<path fill="none" stroke="midnightblue" d="M673.32,-128.923C667.848,-126.898 661.98,-124.805 656.491,-123 619.249,-110.754 577.044,-98.5868 543.3,-89.2647"/>
<polygon fill="midnightblue" stroke="midnightblue" points="544.138,-85.8652 533.568,-86.59 542.283,-92.615 544.138,-85.8652"/>
</g>
<!-- Node20 -->
<g id="node20" class="node"><title>Node20</title>
<polygon fill="white" stroke="#bfbfbf" points="553.991,-56.5 553.991,-86.5 668.991,-86.5 668.991,-56.5 553.991,-56.5"/>
<text text-anchor="start" x="561.991" y="-74.5" font-family="Helvetica,sans-Serif" font-size="10.00">boost/range/adaptor</text>
<text text-anchor="middle" x="611.491" y="-63.5" font-family="Helvetica,sans-Serif" font-size="10.00">/transformed.hpp</text>
</g>
<!-- Node14&#45;&gt;Node20 -->
<g id="edge25" class="edge"><title>Node14&#45;&gt;Node20</title>
<path fill="none" stroke="midnightblue" d="M684.162,-128.734C672.373,-119.611 653.496,-105.004 637.935,-92.9631"/>
<polygon fill="midnightblue" stroke="midnightblue" points="639.749,-89.9408 629.698,-86.589 635.465,-95.4769 639.749,-89.9408"/>
</g>
<!-- Node21 -->
<g id="node21" class="node"><title>Node21</title>
<g id="a_node21"><a xlink:href="find__iterator_8h.xhtml" target="_top" xlink:title="Convenience iterator adaptor to wrap find calls and results. ">
<polygon fill="white" stroke="black" points="686.991,-62 686.991,-81 787.991,-81 787.991,-62 686.991,-62"/>
<text text-anchor="middle" x="737.491" y="-69" font-family="Helvetica,sans-Serif" font-size="10.00">ext/find_iterator.h</text>
</a>
</g>
</g>
<!-- Node14&#45;&gt;Node21 -->
<g id="edge26" class="edge"><title>Node14&#45;&gt;Node21</title>
<path fill="none" stroke="midnightblue" d="M701.155,-128.734C707.578,-118.793 718.211,-102.338 726.319,-89.7892"/>
<polygon fill="midnightblue" stroke="midnightblue" points="729.429,-91.426 731.916,-81.1273 723.549,-87.627 729.429,-91.426"/>
</g>
<!-- Node22 -->
<g id="node22" class="node"><title>Node22</title>
<g id="a_node22"><a xlink:href="index__map_8h.xhtml" target="_top" xlink:title="Non&#45;zero based Index&#45;&gt;Value map adapter on sequential containers. ">
<polygon fill="white" stroke="black" points="920.491,-62 920.491,-81 1016.49,-81 1016.49,-62 920.491,-62"/>
<text text-anchor="middle" x="968.491" y="-69" font-family="Helvetica,sans-Serif" font-size="10.00">ext/index_map.h</text>
</a>
</g>
</g>
<!-- Node14&#45;&gt;Node22 -->
<g id="edge28" class="edge"><title>Node14&#45;&gt;Node22</title>
<path fill="none" stroke="midnightblue" d="M716.755,-128.939C722.458,-126.823 728.661,-124.684 734.491,-123 809.525,-101.331 830.239,-103.894 906.491,-87 911.82,-85.8194 917.399,-84.5548 922.935,-83.2825"/>
<polygon fill="midnightblue" stroke="midnightblue" points="923.835,-86.6668 932.787,-81.0006 922.255,-79.8473 923.835,-86.6668"/>
</g>
<!-- Node23 -->
<g id="node23" class="node"><title>Node23</title>
<g id="a_node23"><a xlink:href="linear__map_8h.xhtml" target="_top" xlink:title="Implementation of a vector&#45;based map for a small number of entries. ">
<polygon fill="white" stroke="black" points="207.991,-62 207.991,-81 304.991,-81 304.991,-62 207.991,-62"/>
<text text-anchor="middle" x="256.491" y="-69" font-family="Helvetica,sans-Serif" font-size="10.00">ext/linear_map.h</text>
</a>
</g>
</g>
<!-- Node14&#45;&gt;Node23 -->
<g id="edge30" class="edge"><title>Node14&#45;&gt;Node23</title>
<path fill="none" stroke="midnightblue" d="M675.545,-128.995C669.518,-126.724 662.819,-124.49 656.491,-123 509.868,-88.4853 468.042,-111.937 319.491,-87 313.171,-85.9391 306.537,-84.6303 300.043,-83.2368"/>
<polygon fill="midnightblue" stroke="midnightblue" points="300.54,-79.7617 290.018,-81.0008 299.016,-86.5939 300.54,-79.7617"/>
</g>
<!-- Node21&#45;&gt;Node18 -->
<g id="edge27" class="edge"><title>Node21&#45;&gt;Node18</title>
<path fill="none" stroke="midnightblue" d="M751.532,-61.9751C767.542,-52.2548 793.941,-36.2266 812.865,-24.7372"/>
<polygon fill="midnightblue" stroke="midnightblue" points="814.744,-27.6907 821.476,-19.5091 811.111,-21.7072 814.744,-27.6907"/>
</g>
<!-- Node22&#45;&gt;Node5 -->
<g id="edge29" class="edge"><title>Node22&#45;&gt;Node5</title>
<path fill="none" stroke="midnightblue" d="M1000.3,-61.9751C1041.94,-50.8133 1114.62,-31.334 1157.06,-19.9605"/>
<polygon fill="midnightblue" stroke="midnightblue" points="1158.15,-23.2913 1166.9,-17.3218 1156.34,-16.53 1158.15,-23.2913"/>
</g>
<!-- Node23&#45;&gt;Node5 -->
<g id="edge35" class="edge"><title>Node23&#45;&gt;Node5</title>
<path fill="none" stroke="midnightblue" d="M305.213,-62.2119C320.326,-59.8914 337.064,-57.5756 352.491,-56 663.855,-24.2 1042.75,-14.0823 1156.59,-11.6501"/>
<polygon fill="midnightblue" stroke="midnightblue" points="1156.84,-15.1456 1166.76,-11.4382 1156.69,-8.14717 1156.84,-15.1456"/>
</g>
<!-- Node23&#45;&gt;Node9 -->
<g id="edge31" class="edge"><title>Node23&#45;&gt;Node9</title>
<path fill="none" stroke="midnightblue" d="M224.827,-61.9751C184.165,-51.0277 113.785,-32.0792 71.2398,-20.6248"/>
<polygon fill="midnightblue" stroke="midnightblue" points="72.1399,-17.2425 61.5738,-18.0224 70.32,-24.0018 72.1399,-17.2425"/>
</g>
<!-- Node23&#45;&gt;Node15 -->
<g id="edge32" class="edge"><title>Node23&#45;&gt;Node15</title>
<path fill="none" stroke="midnightblue" d="M268.096,-61.9751C280.968,-52.5199 301.965,-37.0961 317.496,-25.6871"/>
<polygon fill="midnightblue" stroke="midnightblue" points="319.92,-28.25 325.907,-19.5091 315.776,-22.6085 319.92,-28.25"/>
</g>
<!-- Node23&#45;&gt;Node18 -->
<g id="edge36" class="edge"><title>Node23&#45;&gt;Node18</title>
<path fill="none" stroke="midnightblue" d="M305.255,-62.5843C320.37,-60.2789 337.098,-57.878 352.491,-56 522.554,-35.2516 727.337,-19.0624 804.269,-13.2885"/>
<polygon fill="midnightblue" stroke="midnightblue" points="804.547,-16.7776 814.259,-12.5436 804.026,-9.79701 804.547,-16.7776"/>
</g>
<!-- Node24 -->
<g id="node24" class="node"><title>Node24</title>
<polygon fill="white" stroke="#bfbfbf" points="128.991,-0.5 128.991,-19.5 205.991,-19.5 205.991,-0.5 128.991,-0.5"/>
<text text-anchor="middle" x="167.491" y="-7.5" font-family="Helvetica,sans-Serif" font-size="10.00">initializer_list</text>
</g>
<!-- Node23&#45;&gt;Node24 -->
<g id="edge33" class="edge"><title>Node23&#45;&gt;Node24</title>
<path fill="none" stroke="midnightblue" d="M243.739,-61.9751C229.464,-52.4315 206.093,-36.8073 188.983,-25.3683"/>
<polygon fill="midnightblue" stroke="midnightblue" points="190.477,-22.1572 180.219,-19.5091 186.587,-27.9766 190.477,-22.1572"/>
</g>
<!-- Node25 -->
<g id="node25" class="node"><title>Node25</title>
<polygon fill="white" stroke="#bfbfbf" points="224.491,-0.5 224.491,-19.5 288.491,-19.5 288.491,-0.5 224.491,-0.5"/>
<text text-anchor="middle" x="256.491" y="-7.5" font-family="Helvetica,sans-Serif" font-size="10.00">stdexcept</text>
</g>
<!-- Node23&#45;&gt;Node25 -->
<g id="edge34" class="edge"><title>Node23&#45;&gt;Node25</title>
<path fill="none" stroke="midnightblue" d="M256.491,-61.9751C256.491,-53.5803 256.491,-40.4806 256.491,-29.6631"/>
<polygon fill="midnightblue" stroke="midnightblue" points="259.991,-29.5091 256.491,-19.5091 252.991,-29.5091 259.991,-29.5091"/>
</g>
<!-- Node26&#45;&gt;Node3 -->
<g id="edge38" class="edge"><title>Node26&#45;&gt;Node3</title>
<path fill="none" stroke="midnightblue" d="M1042.47,-195.953C1121.19,-180.732 1291.42,-148.165 1435.49,-123 1533.04,-105.961 1648.18,-87.6843 1706.87,-78.4998"/>
<polygon fill="midnightblue" stroke="midnightblue" points="1707.48,-81.9478 1716.82,-76.946 1706.4,-75.0317 1707.48,-81.9478"/>
</g>
<!-- Node26&#45;&gt;Node5 -->
<g id="edge42" class="edge"><title>Node26&#45;&gt;Node5</title>
<path fill="none" stroke="midnightblue" d="M1008.61,-195.819C1027.01,-180.247 1067.46,-146.959 1104.49,-123 1132.87,-104.637 1150.73,-113.677 1171.49,-87 1184.25,-70.6054 1188.55,-46.7175 1189.94,-30.1153"/>
<polygon fill="midnightblue" stroke="midnightblue" points="1193.44,-30.1468 1190.51,-19.9671 1186.45,-29.7564 1193.44,-30.1468"/>
</g>
<!-- Node26&#45;&gt;Node11 -->
<g id="edge43" class="edge"><title>Node26&#45;&gt;Node11</title>
<path fill="none" stroke="midnightblue" d="M1005.05,-195.839C1021.44,-174.205 1064.39,-117.51 1085.88,-89.1523"/>
<polygon fill="midnightblue" stroke="midnightblue" points="1088.79,-91.1056 1092.04,-81.0212 1083.21,-86.8786 1088.79,-91.1056"/>
</g>
<!-- Node26&#45;&gt;Node14 -->
<g id="edge45" class="edge"><title>Node26&#45;&gt;Node14</title>
<path fill="none" stroke="midnightblue" d="M958.567,-195.936C898.962,-183.149 787.651,-159.27 730.832,-147.081"/>
<polygon fill="midnightblue" stroke="midnightblue" points="731.393,-143.622 720.881,-144.947 729.925,-150.467 731.393,-143.622"/>
</g>
<!-- Node26&#45;&gt;Node17 -->
<g id="edge40" class="edge"><title>Node26&#45;&gt;Node17</title>
<path fill="none" stroke="midnightblue" d="M1016.01,-195.839C1061.76,-173.222 1185.02,-112.284 1239.26,-85.4668"/>
<polygon fill="midnightblue" stroke="midnightblue" points="1240.84,-88.5906 1248.25,-81.0212 1237.74,-82.3155 1240.84,-88.5906"/>
</g>
<!-- Node26&#45;&gt;Node18 -->
<g id="edge41" class="edge"><title>Node26&#45;&gt;Node18</title>
<path fill="none" stroke="midnightblue" d="M998.714,-195.909C998.691,-179.892 996.516,-145.097 979.491,-123 958.62,-95.9113 938.998,-107.316 911.491,-87 887.461,-69.2523 863.764,-43.9799 849.381,-27.5351"/>
<polygon fill="midnightblue" stroke="midnightblue" points="851.928,-25.1294 842.756,-19.8267 846.619,-29.692 851.928,-25.1294"/>
</g>
<!-- Node27 -->
<g id="node27" class="node"><title>Node27</title>
<polygon fill="white" stroke="#bfbfbf" points="776.491,-129 776.491,-148 808.491,-148 808.491,-129 776.491,-129"/>
<text text-anchor="middle" x="792.491" y="-136" font-family="Helvetica,sans-Serif" font-size="10.00">set</text>
</g>
<!-- Node26&#45;&gt;Node27 -->
<g id="edge39" class="edge"><title>Node26&#45;&gt;Node27</title>
<path fill="none" stroke="midnightblue" d="M956.505,-195.967C919.156,-187.636 863.487,-173.384 817.491,-154 816.641,-153.642 815.785,-153.261 814.927,-152.861"/>
<polygon fill="midnightblue" stroke="midnightblue" points="816.402,-149.683 805.922,-148.124 813.143,-155.878 816.402,-149.683"/>
</g>
<!-- Node28 -->
<g id="node28" class="node"><title>Node28</title>
<polygon fill="white" stroke="#bfbfbf" points="826.491,-129 826.491,-148 970.491,-148 970.491,-129 826.491,-129"/>
<text text-anchor="middle" x="898.491" y="-136" font-family="Helvetica,sans-Serif" font-size="10.00">boost/unordered_map.hpp</text>
</g>
<!-- Node26&#45;&gt;Node28 -->
<g id="edge44" class="edge"><title>Node26&#45;&gt;Node28</title>
<path fill="none" stroke="midnightblue" d="M985.004,-195.734C968.436,-184.964 940.106,-166.55 920.398,-153.739"/>
<polygon fill="midnightblue" stroke="midnightblue" points="922.055,-150.643 911.763,-148.127 918.24,-156.512 922.055,-150.643"/>
</g>
<!-- Node29&#45;&gt;Node3 -->
<g id="edge51" class="edge"><title>Node29&#45;&gt;Node3</title>
<path fill="none" stroke="midnightblue" d="M1374.25,-270.903C1481.01,-267.761 1900.22,-249.424 1979.49,-154 2033.95,-88.4469 1863.99,-75.5446 1784.34,-73.0615"/>
<polygon fill="midnightblue" stroke="midnightblue" points="1784.27,-69.5586 1774.18,-72.7862 1784.08,-76.556 1784.27,-69.5586"/>
</g>
<!-- Node29&#45;&gt;Node5 -->
<g id="edge54" class="edge"><title>Node29&#45;&gt;Node5</title>
<path fill="none" stroke="midnightblue" d="M1374.2,-271.495C1487.65,-271.224 1955.02,-267.287 1998.49,-221 2028.31,-189.249 2024.8,-158.453 1999.49,-123 1946.25,-48.4123 1894.27,-74.3906 1804.49,-56 1586.93,-11.4332 1318.07,-9.56621 1224.49,-10.4444"/>
<polygon fill="midnightblue" stroke="midnightblue" points="1224.17,-6.94764 1214.21,-10.5592 1224.25,-13.9472 1224.17,-6.94764"/>
</g>
<!-- Node29&#45;&gt;Node6 -->
<g id="edge56" class="edge"><title>Node29&#45;&gt;Node6</title>
<path fill="none" stroke="midnightblue" d="M1324.93,-270.385C1243.26,-266.472 973.455,-251.9 752.491,-221 751.214,-220.822 749.927,-220.635 748.631,-220.442"/>
<polygon fill="midnightblue" stroke="midnightblue" points="748.999,-216.957 738.574,-218.842 747.9,-223.87 748.999,-216.957"/>
</g>
<!-- Node29&#45;&gt;Node11 -->
<g id="edge57" class="edge"><title>Node29&#45;&gt;Node11</title>
<path fill="none" stroke="midnightblue" d="M1335.22,-262.893C1319.48,-253.23 1293.59,-236.826 1272.49,-221 1212.38,-175.915 1146.07,-116.353 1115.57,-88.343"/>
<polygon fill="midnightblue" stroke="midnightblue" points="1117.67,-85.523 1107.95,-81.3177 1112.93,-90.6694 1117.67,-85.523"/>
</g>
<!-- Node29&#45;&gt;Node13 -->
<g id="edge48" class="edge"><title>Node29&#45;&gt;Node13</title>
<path fill="none" stroke="midnightblue" d="M1324.81,-269.063C1261.54,-262.676 1088.5,-244.324 945.491,-221 728.016,-185.532 676.735,-159.849 459.491,-123 344.041,-103.417 311.172,-118.858 198.491,-87 196.338,-86.3914 194.143,-85.6699 191.959,-84.8791"/>
<polygon fill="midnightblue" stroke="midnightblue" points="193.21,-81.6094 182.627,-81.1021 190.583,-88.0981 193.21,-81.6094"/>
</g>
<!-- Node29&#45;&gt;Node17 -->
<g id="edge52" class="edge"><title>Node29&#45;&gt;Node17</title>
<path fill="none" stroke="midnightblue" d="M1333.69,-262.94C1319.42,-254.323 1299.08,-239.65 1288.49,-221 1264.83,-179.343 1263.28,-121.043 1264.29,-91.408"/>
<polygon fill="midnightblue" stroke="midnightblue" points="1267.8,-91.3853 1264.79,-81.2277 1260.81,-91.0465 1267.8,-91.3853"/>
</g>
<!-- Node29&#45;&gt;Node18 -->
<g id="edge53" class="edge"><title>Node29&#45;&gt;Node18</title>
<path fill="none" stroke="midnightblue" d="M1351.59,-262.884C1358.96,-230.255 1380.14,-113.241 1320.49,-56 1287.75,-24.5805 968.927,-14.2129 866.796,-11.6836"/>
<polygon fill="midnightblue" stroke="midnightblue" points="866.87,-8.18446 856.789,-11.4439 866.703,-15.1824 866.87,-8.18446"/>
</g>
<!-- Node30 -->
<g id="node30" class="node"><title>Node30</title>
<polygon fill="white" stroke="#bfbfbf" points="1475.99,-196 1475.99,-215 1516.99,-215 1516.99,-196 1475.99,-196"/>
<text text-anchor="middle" x="1496.49" y="-203" font-family="Helvetica,sans-Serif" font-size="10.00">array</text>
</g>
<!-- Node29&#45;&gt;Node30 -->
<g id="edge49" class="edge"><title>Node29&#45;&gt;Node30</title>
<path fill="none" stroke="midnightblue" d="M1369.01,-262.869C1394.27,-251.699 1438.49,-232.147 1467.63,-219.26"/>
<polygon fill="midnightblue" stroke="midnightblue" points="1469.16,-222.412 1476.89,-215.167 1466.33,-216.01 1469.16,-222.412"/>
</g>
<!-- Node31 -->
<g id="node31" class="node"><title>Node31</title>
<polygon fill="white" stroke="#bfbfbf" points="1951.49,-196 1951.49,-215 1989.49,-215 1989.49,-196 1951.49,-196"/>
<text text-anchor="middle" x="1970.49" y="-203" font-family="Helvetica,sans-Serif" font-size="10.00">map</text>
</g>
<!-- Node29&#45;&gt;Node31 -->
<g id="edge50" class="edge"><title>Node29&#45;&gt;Node31</title>
<path fill="none" stroke="midnightblue" d="M1374.29,-270.453C1471.71,-266.172 1828.16,-248.897 1937.49,-221 1939.79,-220.413 1942.14,-219.68 1944.46,-218.859"/>
<polygon fill="midnightblue" stroke="midnightblue" points="1945.77,-222.106 1953.74,-215.127 1943.16,-215.611 1945.77,-222.106"/>
</g>
<!-- Node32 -->
<g id="node32" class="node"><title>Node32</title>
<polygon fill="white" stroke="#bfbfbf" points="1830.49,-129 1830.49,-148 1970.49,-148 1970.49,-129 1830.49,-129"/>
<text text-anchor="middle" x="1900.49" y="-136" font-family="Helvetica,sans-Serif" font-size="10.00">boost/functional/hash.hpp</text>
</g>
<!-- Node29&#45;&gt;Node32 -->
<g id="edge55" class="edge"><title>Node29&#45;&gt;Node32</title>
<path fill="none" stroke="midnightblue" d="M1364.09,-262.863C1380.2,-253.175 1406.73,-236.748 1428.49,-221 1446.15,-208.22 1446.36,-198.355 1466.49,-190 1610.92,-130.057 1661.57,-175.313 1816.49,-154 1825.53,-152.756 1835.1,-151.269 1844.4,-149.729"/>
<polygon fill="midnightblue" stroke="midnightblue" points="1845.09,-153.164 1854.37,-148.047 1843.92,-146.261 1845.09,-153.164"/>
</g>
<!-- Node33 -->
<g id="node33" class="node"><title>Node33</title>
<g id="a_node33"><a xlink:href="bdd_8h.xhtml" target="_top" xlink:title="Fault tree analysis with the Binary Decision Diagram algorithms. ">
<polygon fill="white" stroke="black" points="1375.49,-196 1375.49,-215 1419.49,-215 1419.49,-196 1375.49,-196"/>
<text text-anchor="middle" x="1397.49" y="-203" font-family="Helvetica,sans-Serif" font-size="10.00">bdd.h</text>
</a>
</g>
</g>
<!-- Node29&#45;&gt;Node33 -->
<g id="edge58" class="edge"><title>Node29&#45;&gt;Node33</title>
<path fill="none" stroke="midnightblue" d="M1355.96,-262.734C1363.38,-252.695 1375.7,-236.014 1385,-223.421"/>
<polygon fill="midnightblue" stroke="midnightblue" points="1387.99,-225.251 1391.12,-215.127 1382.36,-221.092 1387.99,-225.251"/>
</g>
<!-- Node33&#45;&gt;Node3 -->
<g id="edge62" class="edge"><title>Node33&#45;&gt;Node3</title>
<path fill="none" stroke="midnightblue" d="M1416.23,-195.851C1421.69,-193.632 1427.74,-191.462 1433.49,-190 1500.92,-172.85 1697.89,-205.662 1744.49,-154 1759.71,-137.127 1756.23,-109.354 1751.52,-90.9945"/>
<polygon fill="midnightblue" stroke="midnightblue" points="1754.82,-89.8137 1748.66,-81.1936 1748.1,-91.7736 1754.82,-89.8137"/>
</g>
<!-- Node33&#45;&gt;Node5 -->
<g id="edge65" class="edge"><title>Node33&#45;&gt;Node5</title>
<path fill="none" stroke="midnightblue" d="M1411.05,-195.897C1415.22,-193.622 1419.91,-191.411 1424.49,-190 1497.09,-167.608 1706.72,-203.347 1764.49,-154 1798.16,-125.238 1812.59,-88.4787 1782.49,-56 1744.4,-14.9064 1343.93,-11.1558 1224.15,-10.9583"/>
<polygon fill="midnightblue" stroke="midnightblue" points="1224.09,-7.45834 1214.09,-10.9492 1224.09,-14.4583 1224.09,-7.45834"/>
</g>
<!-- Node33&#45;&gt;Node11 -->
<g id="edge67" class="edge"><title>Node33&#45;&gt;Node11</title>
<path fill="none" stroke="midnightblue" d="M1377.87,-195.839C1326.43,-173.128 1187.46,-111.778 1127.11,-85.1355"/>
<polygon fill="midnightblue" stroke="midnightblue" points="1128.35,-81.858 1117.79,-81.0212 1125.53,-88.2618 1128.35,-81.858"/>
</g>
<!-- Node33&#45;&gt;Node12 -->
<g id="edge70" class="edge"><title>Node33&#45;&gt;Node12</title>
<path fill="none" stroke="midnightblue" d="M1375.2,-203.02C1249.54,-194.677 629.129,-153.485 460.73,-142.304"/>
<polygon fill="midnightblue" stroke="midnightblue" points="460.739,-138.797 450.529,-141.627 460.275,-145.782 460.739,-138.797"/>
</g>
<!-- Node33&#45;&gt;Node14 -->
<g id="edge69" class="edge"><title>Node33&#45;&gt;Node14</title>
<path fill="none" stroke="midnightblue" d="M1375.35,-203.678C1294,-200.454 1004.1,-187.189 767.491,-154 755.38,-152.301 742.239,-149.84 730.538,-147.427"/>
<polygon fill="midnightblue" stroke="midnightblue" points="731.197,-143.989 720.689,-145.338 729.745,-150.836 731.197,-143.989"/>
</g>
<!-- Node33&#45;&gt;Node15 -->
<g id="edge60" class="edge"><title>Node33&#45;&gt;Node15</title>
<path fill="none" stroke="midnightblue" d="M1396.04,-195.788C1391.12,-169.244 1372.35,-89.1765 1320.49,-56 1280.28,-30.2754 560.727,-15.1639 378.939,-11.746"/>
<polygon fill="midnightblue" stroke="midnightblue" points="378.788,-8.24263 368.725,-11.5556 378.658,-15.2414 378.788,-8.24263"/>
</g>
<!-- Node33&#45;&gt;Node17 -->
<g id="edge63" class="edge"><title>Node33&#45;&gt;Node17</title>
<path fill="none" stroke="midnightblue" d="M1388.83,-195.839C1367.01,-174.018 1309.52,-116.526 1281.41,-88.4221"/>
<polygon fill="midnightblue" stroke="midnightblue" points="1283.56,-85.6174 1274.01,-81.0212 1278.61,-90.5672 1283.56,-85.6174"/>
</g>
<!-- Node33&#45;&gt;Node18 -->
<g id="edge64" class="edge"><title>Node33&#45;&gt;Node18</title>
<path fill="none" stroke="midnightblue" d="M1400.56,-195.998C1409.1,-170.726 1430.06,-95.3802 1392.49,-56 1374.2,-36.8328 981.532,-17.6096 866.741,-12.3831"/>
<polygon fill="midnightblue" stroke="midnightblue" points="866.67,-8.87643 856.522,-11.9215 866.354,-15.8693 866.67,-8.87643"/>
</g>
<!-- Node33&#45;&gt;Node32 -->
<g id="edge66" class="edge"><title>Node33&#45;&gt;Node32</title>
<path fill="none" stroke="midnightblue" d="M1415.84,-195.922C1421.4,-193.649 1427.6,-191.431 1433.49,-190 1599.63,-149.64 1647.01,-176.558 1816.49,-154 1825.65,-152.781 1835.33,-151.295 1844.75,-149.743"/>
<polygon fill="midnightblue" stroke="midnightblue" points="1845.54,-153.16 1854.81,-148.044 1844.37,-146.257 1845.54,-153.16"/>
</g>
<!-- Node34 -->
<g id="node34" class="node"><title>Node34</title>
<polygon fill="white" stroke="#bfbfbf" points="1599.99,-129 1599.99,-148 1646.99,-148 1646.99,-129 1599.99,-129"/>
<text text-anchor="middle" x="1623.49" y="-136" font-family="Helvetica,sans-Serif" font-size="10.00">cmath</text>
</g>
<!-- Node33&#45;&gt;Node34 -->
<g id="edge59" class="edge"><title>Node33&#45;&gt;Node34</title>
<path fill="none" stroke="midnightblue" d="M1417.09,-195.954C1422.36,-193.839 1428.09,-191.695 1433.49,-190 1501.79,-168.56 1522.53,-176.499 1590.49,-154 1592.36,-153.38 1594.27,-152.694 1596.18,-151.966"/>
<polygon fill="midnightblue" stroke="midnightblue" points="1597.66,-155.144 1605.58,-148.104 1595,-148.67 1597.66,-155.144"/>
</g>
<!-- Node35 -->
<g id="node35" class="node"><title>Node35</title>
<polygon fill="white" stroke="#bfbfbf" points="1664.99,-129 1664.99,-148 1735.99,-148 1735.99,-129 1664.99,-129"/>
<text text-anchor="middle" x="1700.49" y="-136" font-family="Helvetica,sans-Serif" font-size="10.00">forward_list</text>
</g>
<!-- Node33&#45;&gt;Node35 -->
<g id="edge61" class="edge"><title>Node33&#45;&gt;Node35</title>
<path fill="none" stroke="midnightblue" d="M1416.65,-195.868C1422.01,-193.703 1427.91,-191.556 1433.49,-190 1529.78,-163.162 1558.31,-177.394 1655.49,-154 1659.14,-153.122 1662.91,-152.096 1666.66,-151.002"/>
<polygon fill="midnightblue" stroke="midnightblue" points="1667.87,-154.293 1676.39,-148.005 1665.81,-147.603 1667.87,-154.293"/>
</g>
<!-- Node36 -->
<g id="node36" class="node"><title>Node36</title>
<polygon fill="white" stroke="#bfbfbf" points="1444.99,-123.5 1444.99,-153.5 1581.99,-153.5 1581.99,-123.5 1444.99,-123.5"/>
<text text-anchor="start" x="1452.99" y="-141.5" font-family="Helvetica,sans-Serif" font-size="10.00">boost/smart_ptr/intrusive</text>
<text text-anchor="middle" x="1513.49" y="-130.5" font-family="Helvetica,sans-Serif" font-size="10.00">_ptr.hpp</text>
</g>
<!-- Node33&#45;&gt;Node36 -->
<g id="edge68" class="edge"><title>Node33&#45;&gt;Node36</title>
<path fill="none" stroke="midnightblue" d="M1413.13,-195.734C1430.02,-186.274 1457.43,-170.914 1479.34,-158.636"/>
<polygon fill="midnightblue" stroke="midnightblue" points="1481.33,-161.531 1488.35,-153.589 1477.91,-155.424 1481.33,-161.531"/>
</g>
</g>
</svg>
        <g id="navigator" transform="translate(0 0)" fill="#404254">
                <rect fill="#f2f5e9" fill-opacity="0.5" stroke="#606060" stroke-width=".5" x="0" y="0" width="60" height="60"/>
                <use id="zoomplus" xlink:href="#zoomPlus" x="17" y="9" onmousedown="handleZoom(evt,'in')"/>
                <use id="zoomminus" xlink:href="#zoomMin" x="42" y="9" onmousedown="handleZoom(evt,'out')"/>
                <use id="reset" xlink:href="#resetDef" x="30" y="36" onmousedown="handleReset()"/>
                <g id="arrowUp" xlink:href="#dirArrow" transform="translate(30 24)" onmousedown="handlePan(0,-1)">
                  <use xlink:href="#rim" fill="#404040">
                        <set attributeName="fill" to="#808080" begin="arrowUp.mouseover" end="arrowUp.mouseout"/>
                  </use>
                  <path fill="none" stroke="white" stroke-width="1.5" d="M0,-3.0v7 M-2.5,-0.5L0,-3.0L2.5,-0.5"/>
                </g>
                <g id="arrowRight" xlink:href="#dirArrow" transform="rotate(90) translate(36 -43)" onmousedown="handlePan(1,0)">
                  <use xlink:href="#rim" fill="#404040">
                        <set attributeName="fill" to="#808080" begin="arrowRight.mouseover" end="arrowRight.mouseout"/>
                  </use>
                  <path fill="none" stroke="white" stroke-width="1.5" d="M0,-3.0v7 M-2.5,-0.5L0,-3.0L2.5,-0.5"/>
                </g>
                <g id="arrowDown" xlink:href="#dirArrow" transform="rotate(180) translate(-30 -48)" onmousedown="handlePan(0,1)">
                  <use xlink:href="#rim" fill="#404040">
                        <set attributeName="fill" to="#808080" begin="arrowDown.mouseover" end="arrowDown.mouseout"/>
                  </use>
                  <path fill="none" stroke="white" stroke-width="1.5" d="M0,-3.0v7 M-2.5,-0.5L0,-3.0L2.5,-0.5"/>
                </g>
                <g id="arrowLeft" xlink:href="#dirArrow" transform="rotate(270) translate(-36 17)" onmousedown="handlePan(-1,0)">
                  <use xlink:href="#rim" fill="#404040">
                        <set attributeName="fill" to="#808080" begin="arrowLeft.mouseover" end="arrowLeft.mouseout"/>
                  </use>
                  <path fill="none" stroke="white" stroke-width="1.5" d="M0,-3.0v7 M-2.5,-0.5L0,-3.0L2.5,-0.5"/>
                </g>
        </g>
        <svg viewBox="0 0 15 15" width="100%" height="30px" preserveAspectRatio="xMaxYMin meet">
         <g id="arrow_out" transform="scale(0.3 0.3)">
          <a xlink:href="fault__tree__analysis_8h__incl_org.svg" target="_base">
           <rect id="button" ry="5" rx="5" y="6" x="6" height="38" width="38"
                fill="#f2f5e9" fill-opacity="0.5" stroke="#606060" stroke-width="1.0"/>
           <path id="arrow"
             d="M 11.500037,31.436501 C 11.940474,20.09759 22.043105,11.32322 32.158766,21.979434 L 37.068811,17.246167 C 37.068811,17.246167 37.088388,32 37.088388,32 L 22.160133,31.978069 C 22.160133,31.978069 26.997745,27.140456 26.997745,27.140456 C 18.528582,18.264221 13.291696,25.230495 11.500037,31.436501 z"
             style="fill:#404040;"/>
          </a>
         </g>
        </svg>
</svg>
