<?xml version="1.0" encoding="UTF-8" standalone="no"?>
<!DOCTYPE svg PUBLIC "-//W3C//DTD SVG 1.1//EN"
 "http://www.w3.org/Graphics/SVG/1.1/DTD/svg11.dtd">
<!-- Generated by graphviz version 2.38.0 (20140413.2041)
 -->
<!-- Title: find_iterator.h Pages: 1 -->
<!--zoomable 532 -->
<svg id="main" version="1.1" xmlns="http://www.w3.org/2000/svg" xmlns:xlink="http://www.w3.org/1999/xlink" xml:space="preserve" onload="init(evt)">
<style type="text/css"><![CDATA[
.edge:hover path { stroke: red; }
.edge:hover polygon { stroke: red; fill: red; }
]]></style>
<script type="text/javascript"><![CDATA[
var edges = document.getElementsByTagName('g');
if (edges && edges.length) {
  for (var i=0;i<edges.length;i++) {
    if (edges[i].id.substr(0,4)=='edge') {
      edges[i].setAttribute('class','edge');
    }
  }
}
]]></script>
        <defs>
                <circle id="rim" cx="0" cy="0" r="7"/>
                <circle id="rim2" cx="0" cy="0" r="3.5"/>
                <g id="zoomPlus">
                        <use xlink:href="#rim" fill="#404040">
                                <set attributeName="fill" to="#808080" begin="zoomplus.mouseover" end="zoomplus.mouseout"/>
                        </use>
                        <path d="M-4,0h8M0,-4v8" fill="none" stroke="white" stroke-width="1.5" pointer-events="none"/>
                </g>
                <g id="zoomMin">
                        <use xlink:href="#rim" fill="#404040">
                                <set attributeName="fill" to="#808080" begin="zoomminus.mouseover" end="zoomminus.mouseout"/>
                        </use>
                        <path d="M-4,0h8" fill="none" stroke="white" stroke-width="1.5" pointer-events="none"/>
                </g>
                <g id="dirArrow">
                        <path fill="none" stroke="white" stroke-width="1.5" d="M0,-3.0v7 M-2.5,-0.5L0,-3.0L2.5,-0.5"/>
                </g>
               <g id="resetDef">
                       <use xlink:href="#rim2" fill="#404040">
                               <set attributeName="fill" to="#808080" begin="reset.mouseover" end="reset.mouseout"/>
                       </use>
               </g>
        </defs>

<script type="text/javascript">
var viewWidth = 1142;
var viewHeight = 532;
var sectionId = 'dynsection-1';
</script>
<script xlink:href="svgpan.js"/>
<svg id="graph" class="graph">
<g id="viewport">
<title>find_iterator.h</title>
<polygon fill="white" stroke="none" points="-4,4 -4,-528 1137.9,-528 1137.9,4 -4,4"/>
<!-- Node1 -->
<g id="node1" class="node"><title>Node1</title>
<polygon fill="#bfbfbf" stroke="black" points="717.401,-504.5 717.401,-523.5 800.401,-523.5 800.401,-504.5 717.401,-504.5"/>
<text text-anchor="middle" x="758.901" y="-511.5" font-family="Helvetica,sans-Serif" font-size="10.00">find_iterator.h</text>
</g>
<!-- Node2 -->
<g id="node2" class="node"><title>Node2</title>
<g id="a_node2"><a xlink:href="pdag_8h.xhtml" target="_top" xlink:title="Classes and facilities to represent fault trees as PDAGs with event and gate indices instead of ID na...">
<polygon fill="white" stroke="black" points="382.901,-448.5 382.901,-467.5 432.901,-467.5 432.901,-448.5 382.901,-448.5"/>
<text text-anchor="middle" x="407.901" y="-455.5" font-family="Helvetica,sans-Serif" font-size="10.00">pdag.h</text>
</a>
</g>
</g>
<!-- Node1&#45;&gt;Node2 -->
<g id="edge1" class="edge"><title>Node1&#45;&gt;Node2</title>
<path fill="none" stroke="midnightblue" d="M707.128,-506.642C645.427,-498.798 539.309,-484.463 448.901,-468 443.739,-467.06 438.237,-465.937 432.995,-464.808"/>
<polygon fill="midnightblue" stroke="midnightblue" points="707.019,-510.156 717.379,-507.937 707.897,-503.211 707.019,-510.156"/>
</g>
<!-- Node4 -->
<g id="node4" class="node"><title>Node4</title>
<g id="a_node4"><a xlink:href="bdd_8cc.xhtml" target="_top" xlink:title="Implementation of BDD fault tree analysis algorithms. ">
<polygon fill="white" stroke="black" points="660.901,-280.5 660.901,-299.5 708.901,-299.5 708.901,-280.5 660.901,-280.5"/>
<text text-anchor="middle" x="684.901" y="-287.5" font-family="Helvetica,sans-Serif" font-size="10.00">bdd.cc</text>
</a>
</g>
</g>
<!-- Node1&#45;&gt;Node4 -->
<g id="edge44" class="edge"><title>Node1&#45;&gt;Node4</title>
<path fill="none" stroke="midnightblue" d="M744.298,-496.516C737.806,-488.417 730.589,-478.217 725.901,-468 698.013,-407.222 688.197,-325.723 685.647,-299.503"/>
<polygon fill="midnightblue" stroke="midnightblue" points="741.791,-498.974 750.902,-504.382 747.152,-494.473 741.791,-498.974"/>
</g>
<!-- Node21 -->
<g id="node21" class="node"><title>Node21</title>
<g id="a_node21"><a xlink:href="zbdd_8cc.xhtml" target="_top" xlink:title="Implementation of Zero&#45;Suppressed BDD algorithms. ">
<polygon fill="white" stroke="black" points="727.401,-280.5 727.401,-299.5 780.401,-299.5 780.401,-280.5 727.401,-280.5"/>
<text text-anchor="middle" x="753.901" y="-287.5" font-family="Helvetica,sans-Serif" font-size="10.00">zbdd.cc</text>
</a>
</g>
</g>
<!-- Node1&#45;&gt;Node21 -->
<g id="edge50" class="edge"><title>Node1&#45;&gt;Node21</title>
<path fill="none" stroke="midnightblue" d="M746.175,-495.901C740.97,-487.869 735.554,-477.897 732.901,-468 715.992,-404.934 741.222,-325.586 750.615,-299.639"/>
<polygon fill="midnightblue" stroke="midnightblue" points="743.437,-498.094 752.011,-504.319 749.19,-494.106 743.437,-498.094"/>
</g>
<!-- Node23 -->
<g id="node23" class="node"><title>Node23</title>
<g id="a_node23"><a xlink:href="preprocessor_8cc.xhtml" target="_top" xlink:title="Implementation of preprocessing algorithms. ">
<polygon fill="white" stroke="black" points="274.901,-336.5 274.901,-355.5 366.901,-355.5 366.901,-336.5 274.901,-336.5"/>
<text text-anchor="middle" x="320.901" y="-343.5" font-family="Helvetica,sans-Serif" font-size="10.00">preprocessor.cc</text>
</a>
</g>
</g>
<!-- Node1&#45;&gt;Node23 -->
<g id="edge49" class="edge"><title>Node1&#45;&gt;Node23</title>
<path fill="none" stroke="midnightblue" d="M727.323,-500.678C670.658,-478.609 547.912,-431 443.901,-392 409.41,-379.067 369.316,-364.482 344.522,-355.515"/>
<polygon fill="midnightblue" stroke="midnightblue" points="726.208,-504 736.797,-504.369 728.75,-497.477 726.208,-504"/>
</g>
<!-- Node25 -->
<g id="node25" class="node"><title>Node25</title>
<g id="a_node25"><a xlink:href="event__tree__analysis_8cc.xhtml" target="_top" xlink:title="Implementation of event tree analysis facilities. ">
<polygon fill="white" stroke="black" points="742.401,-448.5 742.401,-467.5 867.401,-467.5 867.401,-448.5 742.401,-448.5"/>
<text text-anchor="middle" x="804.901" y="-455.5" font-family="Helvetica,sans-Serif" font-size="10.00">event_tree_analysis.cc</text>
</a>
</g>
</g>
<!-- Node1&#45;&gt;Node25 -->
<g id="edge45" class="edge"><title>Node1&#45;&gt;Node25</title>
<path fill="none" stroke="midnightblue" d="M773.015,-496.431C781.077,-486.967 790.86,-475.483 797.446,-467.751"/>
<polygon fill="midnightblue" stroke="midnightblue" points="770.317,-494.201 766.497,-504.083 775.646,-498.74 770.317,-494.201"/>
</g>
<!-- Node26 -->
<g id="node26" class="node"><title>Node26</title>
<g id="a_node26"><a xlink:href="test__event_8cc.xhtml" target="_top" xlink:title="Implementations of event occurrence tests. ">
<polygon fill="white" stroke="black" points="885.401,-448.5 885.401,-467.5 966.401,-467.5 966.401,-448.5 885.401,-448.5"/>
<text text-anchor="middle" x="925.901" y="-455.5" font-family="Helvetica,sans-Serif" font-size="10.00">test_event.cc</text>
</a>
</g>
</g>
<!-- Node1&#45;&gt;Node26 -->
<g id="edge46" class="edge"><title>Node1&#45;&gt;Node26</title>
<path fill="none" stroke="midnightblue" d="M795.07,-501.304C826.538,-491.129 871.395,-476.625 899.563,-467.516"/>
<polygon fill="midnightblue" stroke="midnightblue" points="793.801,-498.037 785.362,-504.444 795.954,-504.697 793.801,-498.037"/>
</g>
<!-- Node27 -->
<g id="node27" class="node"><title>Node27</title>
<g id="a_node27"><a xlink:href="initializer_8cc.xhtml" target="_top" xlink:title="Implementation of input file processing into analysis constructs. ">
<polygon fill="white" stroke="black" points="984.401,-448.5 984.401,-467.5 1055.4,-467.5 1055.4,-448.5 984.401,-448.5"/>
<text text-anchor="middle" x="1019.9" y="-455.5" font-family="Helvetica,sans-Serif" font-size="10.00">initializer.cc</text>
</a>
</g>
</g>
<!-- Node1&#45;&gt;Node27 -->
<g id="edge47" class="edge"><title>Node1&#45;&gt;Node27</title>
<path fill="none" stroke="midnightblue" d="M810.157,-502.395C861.5,-491.773 939.179,-475.701 984.19,-466.388"/>
<polygon fill="midnightblue" stroke="midnightblue" points="809.341,-498.99 800.257,-504.444 810.759,-505.845 809.341,-498.99"/>
</g>
<!-- Node28 -->
<g id="node28" class="node"><title>Node28</title>
<g id="a_node28"><a xlink:href="model_8cc.xhtml" target="_top" xlink:title="Implementation of functions in Model class. ">
<polygon fill="white" stroke="black" points="1073.9,-448.5 1073.9,-467.5 1133.9,-467.5 1133.9,-448.5 1073.9,-448.5"/>
<text text-anchor="middle" x="1103.9" y="-455.5" font-family="Helvetica,sans-Serif" font-size="10.00">model.cc</text>
</a>
</g>
</g>
<!-- Node1&#45;&gt;Node28 -->
<g id="edge48" class="edge"><title>Node1&#45;&gt;Node28</title>
<path fill="none" stroke="midnightblue" d="M810.616,-506.57C871.442,-498.73 975.356,-484.469 1063.9,-468 1067.12,-467.401 1070.47,-466.727 1073.81,-466.024"/>
<polygon fill="midnightblue" stroke="midnightblue" points="809.978,-503.123 800.504,-507.865 810.867,-510.066 809.978,-503.123"/>
</g>
<!-- Node3 -->
<g id="node3" class="node"><title>Node3</title>
<g id="a_node3"><a xlink:href="bdd_8h.xhtml" target="_top" xlink:title="Fault tree analysis with the Binary Decision Diagram algorithms. ">
<polygon fill="white" stroke="black" points="535.901,-392.5 535.901,-411.5 579.901,-411.5 579.901,-392.5 535.901,-392.5"/>
<text text-anchor="middle" x="557.901" y="-399.5" font-family="Helvetica,sans-Serif" font-size="10.00">bdd.h</text>
</a>
</g>
</g>
<!-- Node2&#45;&gt;Node3 -->
<g id="edge2" class="edge"><title>Node2&#45;&gt;Node3</title>
<path fill="none" stroke="midnightblue" d="M441.302,-444.976C470.072,-434.618 510.789,-419.96 535.711,-410.988"/>
<polygon fill="midnightblue" stroke="midnightblue" points="439.892,-441.763 431.669,-448.444 442.263,-448.349 439.892,-441.763"/>
</g>
<!-- Node6 -->
<g id="node6" class="node"><title>Node6</title>
<g id="a_node6"><a xlink:href="fault__tree__analysis_8h.xhtml" target="_top" xlink:title="Fault Tree Analysis. ">
<polygon fill="white" stroke="black" points="104.401,-280.5 104.401,-299.5 219.401,-299.5 219.401,-280.5 104.401,-280.5"/>
<text text-anchor="middle" x="161.901" y="-287.5" font-family="Helvetica,sans-Serif" font-size="10.00">fault_tree_analysis.h</text>
</a>
</g>
</g>
<!-- Node2&#45;&gt;Node6 -->
<g id="edge37" class="edge"><title>Node2&#45;&gt;Node6</title>
<path fill="none" stroke="midnightblue" d="M372.628,-455.77C334.64,-452.789 274.117,-443.068 232.901,-412 192.835,-381.798 171.276,-321.852 164.383,-299.588"/>
<polygon fill="midnightblue" stroke="midnightblue" points="372.499,-459.269 382.71,-456.444 372.966,-452.284 372.499,-459.269"/>
</g>
<!-- Node8 -->
<g id="node8" class="node"><title>Node8</title>
<g id="a_node8"><a xlink:href="probability__analysis_8h.xhtml" target="_top" xlink:title="Contains functionality to do numerical analysis of probabilities. ">
<polygon fill="white" stroke="black" points="253.401,-224.5 253.401,-243.5 372.401,-243.5 372.401,-224.5 253.401,-224.5"/>
<text text-anchor="middle" x="312.901" y="-231.5" font-family="Helvetica,sans-Serif" font-size="10.00">probability_analysis.h</text>
</a>
</g>
</g>
<!-- Node2&#45;&gt;Node8 -->
<g id="edge41" class="edge"><title>Node2&#45;&gt;Node8</title>
<path fill="none" stroke="midnightblue" d="M372.533,-456.796C338.97,-454.48 290.162,-445.139 265.901,-412 225.896,-357.357 284.999,-271.111 305.982,-243.679"/>
<polygon fill="midnightblue" stroke="midnightblue" points="372.678,-460.308 382.843,-457.322 373.035,-453.317 372.678,-460.308"/>
</g>
<!-- Node19 -->
<g id="node19" class="node"><title>Node19</title>
<g id="a_node19"><a xlink:href="mocus_8h.xhtml" target="_top" xlink:title="Fault tree analysis with the MOCUS algorithm. ">
<polygon fill="white" stroke="black" points="470.901,-280.5 470.901,-299.5 528.901,-299.5 528.901,-280.5 470.901,-280.5"/>
<text text-anchor="middle" x="499.901" y="-287.5" font-family="Helvetica,sans-Serif" font-size="10.00">mocus.h</text>
</a>
</g>
</g>
<!-- Node2&#45;&gt;Node19 -->
<g id="edge42" class="edge"><title>Node2&#45;&gt;Node19</title>
<path fill="none" stroke="midnightblue" d="M422.721,-440.467C429.656,-432.256 437.728,-421.977 443.901,-412 468.504,-372.238 489.147,-319.888 496.761,-299.573"/>
<polygon fill="midnightblue" stroke="midnightblue" points="419.942,-438.328 416.032,-448.175 425.229,-442.916 419.942,-438.328"/>
</g>
<!-- Node22 -->
<g id="node22" class="node"><title>Node22</title>
<g id="a_node22"><a xlink:href="preprocessor_8h.xhtml" target="_top" xlink:title="A collection of PDAG transformation/preprocessing algorithms that simplify fault trees for analysis...">
<polygon fill="white" stroke="black" points="274.901,-392.5 274.901,-411.5 362.901,-411.5 362.901,-392.5 274.901,-392.5"/>
<text text-anchor="middle" x="318.901" y="-399.5" font-family="Helvetica,sans-Serif" font-size="10.00">preprocessor.h</text>
</a>
</g>
</g>
<!-- Node2&#45;&gt;Node22 -->
<g id="edge38" class="edge"><title>Node2&#45;&gt;Node22</title>
<path fill="none" stroke="midnightblue" d="M384.663,-442.901C368.343,-432.999 347.036,-420.071 333.165,-411.655"/>
<polygon fill="midnightblue" stroke="midnightblue" points="383.236,-446.129 393.601,-448.324 386.868,-440.144 383.236,-446.129"/>
</g>
<!-- Node24 -->
<g id="node24" class="node"><title>Node24</title>
<g id="a_node24"><a xlink:href="pdag_8cc.xhtml" target="_top" xlink:title="Implementation of a Propositional Directed Acyclic Graph with indexed nodes, variables, and gates. ">
<polygon fill="white" stroke="black" points="380.901,-392.5 380.901,-411.5 434.901,-411.5 434.901,-392.5 380.901,-392.5"/>
<text text-anchor="middle" x="407.901" y="-399.5" font-family="Helvetica,sans-Serif" font-size="10.00">pdag.cc</text>
</a>
</g>
</g>
<!-- Node2&#45;&gt;Node24 -->
<g id="edge43" class="edge"><title>Node2&#45;&gt;Node24</title>
<path fill="none" stroke="midnightblue" d="M407.901,-437.805C407.901,-428.91 407.901,-418.78 407.901,-411.751"/>
<polygon fill="midnightblue" stroke="midnightblue" points="404.401,-438.083 407.901,-448.083 411.401,-438.083 404.401,-438.083"/>
</g>
<!-- Node3&#45;&gt;Node4 -->
<g id="edge3" class="edge"><title>Node3&#45;&gt;Node4</title>
<path fill="none" stroke="midnightblue" d="M575.432,-385.816C602.481,-362.387 653.509,-318.19 674.982,-299.591"/>
<polygon fill="midnightblue" stroke="midnightblue" points="573.134,-383.176 567.866,-392.368 577.717,-388.467 573.134,-383.176"/>
</g>
<!-- Node5 -->
<g id="node5" class="node"><title>Node5</title>
<g id="a_node5"><a xlink:href="zbdd_8h.xhtml" target="_top" xlink:title="Zero&#45;Suppressed Binary Decision Diagram facilities. ">
<polygon fill="white" stroke="black" points="547.401,-336.5 547.401,-355.5 596.401,-355.5 596.401,-336.5 547.401,-336.5"/>
<text text-anchor="middle" x="571.901" y="-343.5" font-family="Helvetica,sans-Serif" font-size="10.00">zbdd.h</text>
</a>
</g>
</g>
<!-- Node3&#45;&gt;Node5 -->
<g id="edge4" class="edge"><title>Node3&#45;&gt;Node5</title>
<path fill="none" stroke="midnightblue" d="M562.724,-382.396C565.066,-373.362 567.769,-362.936 569.632,-355.751"/>
<polygon fill="midnightblue" stroke="midnightblue" points="559.334,-381.525 560.213,-392.083 566.11,-383.281 559.334,-381.525"/>
</g>
<!-- Node3&#45;&gt;Node8 -->
<g id="edge35" class="edge"><title>Node3&#45;&gt;Node8</title>
<path fill="none" stroke="midnightblue" d="M526.229,-389.541C505.726,-381.492 478.859,-369.735 456.901,-356 400.425,-320.673 342.516,-264.812 321.321,-243.576"/>
<polygon fill="midnightblue" stroke="midnightblue" points="525.143,-392.873 535.733,-393.187 527.65,-386.337 525.143,-392.873"/>
</g>
<!-- Node9 -->
<g id="node9" class="node"><title>Node9</title>
<g id="a_node9"><a xlink:href="importance__analysis_8h.xhtml" target="_top" xlink:title="Contains functionality to do numerical analysis of importance factors. ">
<polygon fill="white" stroke="black" points="262.901,-168.5 262.901,-187.5 386.901,-187.5 386.901,-168.5 262.901,-168.5"/>
<text text-anchor="middle" x="324.901" y="-175.5" font-family="Helvetica,sans-Serif" font-size="10.00">importance_analysis.h</text>
</a>
</g>
</g>
<!-- Node3&#45;&gt;Node9 -->
<g id="edge34" class="edge"><title>Node3&#45;&gt;Node9</title>
<path fill="none" stroke="midnightblue" d="M542.684,-384.637C512.727,-352.684 443.56,-280.205 380.901,-224 366.046,-210.675 347.885,-196.428 336.353,-187.617"/>
<polygon fill="midnightblue" stroke="midnightblue" points="540.359,-387.274 549.744,-392.191 545.473,-382.495 540.359,-387.274"/>
</g>
<!-- Node15 -->
<g id="node15" class="node"><title>Node15</title>
<g id="a_node15"><a xlink:href="risk__analysis_8cc.xhtml" target="_top" xlink:title="Implementation of risk analysis handler. ">
<polygon fill="white" stroke="black" points="568.901,-56.5 568.901,-75.5 658.901,-75.5 658.901,-56.5 568.901,-56.5"/>
<text text-anchor="middle" x="613.901" y="-63.5" font-family="Helvetica,sans-Serif" font-size="10.00">risk_analysis.cc</text>
</a>
</g>
</g>
<!-- Node3&#45;&gt;Node15 -->
<g id="edge36" class="edge"><title>Node3&#45;&gt;Node15</title>
<path fill="none" stroke="midnightblue" d="M590.317,-401.135C658.164,-399.544 808.901,-385.387 808.901,-291 808.901,-291 808.901,-291 808.901,-177 808.901,-108.59 716.733,-82.2518 659.128,-72.4708"/>
<polygon fill="midnightblue" stroke="midnightblue" points="590.12,-397.638 580.175,-401.293 590.229,-404.637 590.12,-397.638"/>
</g>
<!-- Node5&#45;&gt;Node4 -->
<g id="edge5" class="edge"><title>Node5&#45;&gt;Node4</title>
<path fill="none" stroke="midnightblue" d="M598.904,-332.096C620.015,-322.007 648.762,-308.27 667.079,-299.516"/>
<polygon fill="midnightblue" stroke="midnightblue" points="597.32,-328.974 589.806,-336.444 600.338,-335.29 597.32,-328.974"/>
</g>
<!-- Node5&#45;&gt;Node6 -->
<g id="edge6" class="edge"><title>Node5&#45;&gt;Node6</title>
<path fill="none" stroke="midnightblue" d="M537.039,-340.408C466.451,-331.111 306.005,-309.98 219.586,-298.598"/>
<polygon fill="midnightblue" stroke="midnightblue" points="536.805,-343.908 547.177,-341.744 537.719,-336.968 536.805,-343.908"/>
</g>
<!-- Node10 -->
<g id="node10" class="node"><title>Node10</title>
<g id="a_node10"><a xlink:href="importance__analysis_8cc.xhtml" target="_top" xlink:title="Implementations of functions to provide quantitative importance informations. ">
<polygon fill="white" stroke="black" points="395.901,-112.5 395.901,-131.5 523.901,-131.5 523.901,-112.5 395.901,-112.5"/>
<text text-anchor="middle" x="459.901" y="-119.5" font-family="Helvetica,sans-Serif" font-size="10.00">importance_analysis.cc</text>
</a>
</g>
</g>
<!-- Node5&#45;&gt;Node10 -->
<g id="edge27" class="edge"><title>Node5&#45;&gt;Node10</title>
<path fill="none" stroke="midnightblue" d="M572.981,-326.189C574.011,-291.567 571.661,-216.837 536.901,-168 524.421,-150.466 502.793,-138.706 485.63,-131.619"/>
<polygon fill="midnightblue" stroke="midnightblue" points="569.48,-326.155 572.545,-336.297 576.473,-326.457 569.48,-326.155"/>
</g>
<!-- Node5&#45;&gt;Node15 -->
<g id="edge32" class="edge"><title>Node5&#45;&gt;Node15</title>
<path fill="none" stroke="midnightblue" d="M587.487,-329.159C605.56,-309.042 632.901,-272.426 632.901,-235 632.901,-235 632.901,-235 632.901,-177 632.901,-138.821 621.649,-94.2624 616.463,-75.7514"/>
<polygon fill="midnightblue" stroke="midnightblue" points="584.906,-326.795 580.641,-336.493 590.023,-331.571 584.906,-326.795"/>
</g>
<!-- Node16 -->
<g id="node16" class="node"><title>Node16</title>
<g id="a_node16"><a xlink:href="probability__analysis_8cc.xhtml" target="_top" xlink:title="Implementations of functions to provide probability analysis. ">
<polygon fill="white" stroke="black" points="405.401,-168.5 405.401,-187.5 528.401,-187.5 528.401,-168.5 405.401,-168.5"/>
<text text-anchor="middle" x="466.901" y="-175.5" font-family="Helvetica,sans-Serif" font-size="10.00">probability_analysis.cc</text>
</a>
</g>
</g>
<!-- Node5&#45;&gt;Node16 -->
<g id="edge31" class="edge"><title>Node5&#45;&gt;Node16</title>
<path fill="none" stroke="midnightblue" d="M563.206,-327.052C556.634,-313.829 547.186,-295.523 537.901,-280 522.461,-254.187 517.242,-248.576 499.901,-224 490.852,-211.176 480.041,-196.562 473.321,-187.559"/>
<polygon fill="midnightblue" stroke="midnightblue" points="560.254,-328.982 567.802,-336.417 566.538,-325.898 560.254,-328.982"/>
</g>
<!-- Node5&#45;&gt;Node19 -->
<g id="edge28" class="edge"><title>Node5&#45;&gt;Node19</title>
<path fill="none" stroke="midnightblue" d="M552.035,-330.101C539.077,-320.382 522.603,-308.027 511.679,-299.834"/>
<polygon fill="midnightblue" stroke="midnightblue" points="550.233,-333.124 560.333,-336.324 554.433,-327.524 550.233,-333.124"/>
</g>
<!-- Node5&#45;&gt;Node21 -->
<g id="edge33" class="edge"><title>Node5&#45;&gt;Node21</title>
<path fill="none" stroke="midnightblue" d="M606.278,-334.8C641.458,-324.362 695.374,-308.365 727.388,-298.867"/>
<polygon fill="midnightblue" stroke="midnightblue" points="605.037,-331.517 596.446,-337.717 607.029,-338.228 605.037,-331.517"/>
</g>
<!-- Node7 -->
<g id="node7" class="node"><title>Node7</title>
<g id="a_node7"><a xlink:href="fault__tree__analysis_8cc.xhtml" target="_top" xlink:title="Implementation of fault tree analysis. ">
<polygon fill="white" stroke="black" points="116.401,-224.5 116.401,-243.5 235.401,-243.5 235.401,-224.5 116.401,-224.5"/>
<text text-anchor="middle" x="175.901" y="-231.5" font-family="Helvetica,sans-Serif" font-size="10.00">fault_tree_analysis.cc</text>
</a>
</g>
</g>
<!-- Node6&#45;&gt;Node7 -->
<g id="edge7" class="edge"><title>Node6&#45;&gt;Node7</title>
<path fill="none" stroke="midnightblue" d="M166.724,-270.396C169.066,-261.362 171.769,-250.936 173.632,-243.751"/>
<polygon fill="midnightblue" stroke="midnightblue" points="163.334,-269.525 164.213,-280.083 170.11,-271.281 163.334,-269.525"/>
</g>
<!-- Node6&#45;&gt;Node8 -->
<g id="edge8" class="edge"><title>Node6&#45;&gt;Node8</title>
<path fill="none" stroke="midnightblue" d="M195.347,-277.039C223.759,-266.879 263.838,-252.546 289.086,-243.516"/>
<polygon fill="midnightblue" stroke="midnightblue" points="194.065,-273.781 185.827,-280.444 196.422,-280.372 194.065,-273.781"/>
</g>
<!-- Node11 -->
<g id="node11" class="node"><title>Node11</title>
<g id="a_node11"><a xlink:href="reporter_8h.xhtml" target="_top" xlink:title="Reporter of results. ">
<polygon fill="white" stroke="black" points="21.9008,-56.5 21.9008,-75.5 85.9008,-75.5 85.9008,-56.5 21.9008,-56.5"/>
<text text-anchor="middle" x="53.9008" y="-63.5" font-family="Helvetica,sans-Serif" font-size="10.00">reporter.h</text>
</a>
</g>
</g>
<!-- Node6&#45;&gt;Node11 -->
<g id="edge25" class="edge"><title>Node6&#45;&gt;Node11</title>
<path fill="none" stroke="midnightblue" d="M124.453,-276.918C86.5763,-262.458 30.1274,-234.224 4.90083,-188 -2.01887,-175.321 -2.09424,-138.044 9.90083,-112 16.8486,-96.9148 31.0576,-83.879 41.4558,-75.7771"/>
<polygon fill="midnightblue" stroke="midnightblue" points="123.532,-280.309 134.126,-280.467 125.944,-273.737 123.532,-280.309"/>
</g>
<!-- Node14 -->
<g id="node14" class="node"><title>Node14</title>
<g id="a_node14"><a xlink:href="risk__analysis_8h.xhtml" target="_top" xlink:title="Contains the main system for performing analysis. ">
<polygon fill="white" stroke="black" points="210.901,-112.5 210.901,-131.5 296.901,-131.5 296.901,-112.5 210.901,-112.5"/>
<text text-anchor="middle" x="253.901" y="-119.5" font-family="Helvetica,sans-Serif" font-size="10.00">risk_analysis.h</text>
</a>
</g>
</g>
<!-- Node6&#45;&gt;Node14 -->
<g id="edge26" class="edge"><title>Node6&#45;&gt;Node14</title>
<path fill="none" stroke="midnightblue" d="M136.515,-275.153C117.53,-262.837 96.5011,-243.763 106.901,-224 107.137,-223.55 205.904,-155.874 241.391,-131.568"/>
<polygon fill="midnightblue" stroke="midnightblue" points="134.887,-278.259 145.248,-280.472 138.528,-272.281 134.887,-278.259"/>
</g>
<!-- Node8&#45;&gt;Node9 -->
<g id="edge9" class="edge"><title>Node8&#45;&gt;Node9</title>
<path fill="none" stroke="midnightblue" d="M317.101,-214.101C319.093,-205.136 321.377,-194.858 322.956,-187.751"/>
<polygon fill="midnightblue" stroke="midnightblue" points="313.635,-213.562 314.882,-224.083 320.468,-215.08 313.635,-213.562"/>
</g>
<!-- Node8&#45;&gt;Node11 -->
<g id="edge19" class="edge"><title>Node8&#45;&gt;Node11</title>
<path fill="none" stroke="midnightblue" d="M243.134,-223.493C157.074,-211.604 21.5794,-192.282 17.9008,-188 -11.2333,-154.085 28.9255,-97.3857 46.442,-75.7511"/>
<polygon fill="midnightblue" stroke="midnightblue" points="242.728,-226.97 253.112,-224.869 243.684,-220.036 242.728,-226.97"/>
</g>
<!-- Node8&#45;&gt;Node14 -->
<g id="edge20" class="edge"><title>Node8&#45;&gt;Node14</title>
<path fill="none" stroke="midnightblue" d="M285.072,-219.274C273.166,-211.806 260.504,-201.341 253.901,-188 244.79,-169.593 248.634,-144.505 251.617,-131.54"/>
<polygon fill="midnightblue" stroke="midnightblue" points="283.509,-222.413 293.917,-224.398 287.019,-216.357 283.509,-222.413"/>
</g>
<!-- Node8&#45;&gt;Node16 -->
<g id="edge18" class="edge"><title>Node8&#45;&gt;Node16</title>
<path fill="none" stroke="midnightblue" d="M347.011,-221.039C375.988,-210.879 416.863,-196.546 442.613,-187.516"/>
<polygon fill="midnightblue" stroke="midnightblue" points="345.581,-217.832 337.303,-224.444 347.897,-224.437 345.581,-217.832"/>
</g>
<!-- Node17 -->
<g id="node17" class="node"><title>Node17</title>
<g id="a_node17"><a xlink:href="uncertainty__analysis_8h.xhtml" target="_top" xlink:title="Provides functionality for uncertainty analysis with Monte Carlo method. ">
<polygon fill="white" stroke="black" points="27.4008,-168.5 27.4008,-187.5 150.401,-187.5 150.401,-168.5 27.4008,-168.5"/>
<text text-anchor="middle" x="88.9008" y="-175.5" font-family="Helvetica,sans-Serif" font-size="10.00">uncertainty_analysis.h</text>
</a>
</g>
</g>
<!-- Node8&#45;&gt;Node17 -->
<g id="edge21" class="edge"><title>Node8&#45;&gt;Node17</title>
<path fill="none" stroke="midnightblue" d="M267.638,-222.088C225.319,-211.887 162.992,-196.861 124.228,-187.516"/>
<polygon fill="midnightblue" stroke="midnightblue" points="266.866,-225.502 277.407,-224.444 268.506,-218.697 266.866,-225.502"/>
</g>
<!-- Node9&#45;&gt;Node10 -->
<g id="edge10" class="edge"><title>Node9&#45;&gt;Node10</title>
<path fill="none" stroke="midnightblue" d="M355.807,-164.638C381.141,-154.504 416.332,-140.427 438.61,-131.516"/>
<polygon fill="midnightblue" stroke="midnightblue" points="354.277,-161.48 346.292,-168.444 356.877,-167.979 354.277,-161.48"/>
</g>
<!-- Node9&#45;&gt;Node11 -->
<g id="edge11" class="edge"><title>Node9&#45;&gt;Node11</title>
<path fill="none" stroke="midnightblue" d="M324.529,-158.327C323.189,-143.591 318.868,-123.641 305.901,-112 273.905,-83.2762 146.304,-72.2651 85.9064,-68.6007"/>
<polygon fill="midnightblue" stroke="midnightblue" points="321.036,-158.556 325.066,-168.355 328.026,-158.182 321.036,-158.556"/>
</g>
<!-- Node9&#45;&gt;Node14 -->
<g id="edge14" class="edge"><title>Node9&#45;&gt;Node14</title>
<path fill="none" stroke="midnightblue" d="M305.311,-162.101C292.533,-152.382 276.288,-140.027 265.516,-131.834"/>
<polygon fill="midnightblue" stroke="midnightblue" points="303.415,-165.056 313.493,-168.324 307.653,-159.484 303.415,-165.056"/>
</g>
<!-- Node12 -->
<g id="node12" class="node"><title>Node12</title>
<g id="a_node12"><a xlink:href="reporter_8cc.xhtml" target="_top" xlink:title="Implements Reporter class. ">
<polygon fill="white" stroke="black" points="19.9008,-0.5 19.9008,-19.5 87.9008,-19.5 87.9008,-0.5 19.9008,-0.5"/>
<text text-anchor="middle" x="53.9008" y="-7.5" font-family="Helvetica,sans-Serif" font-size="10.00">reporter.cc</text>
</a>
</g>
</g>
<!-- Node11&#45;&gt;Node12 -->
<g id="edge12" class="edge"><title>Node11&#45;&gt;Node12</title>
<path fill="none" stroke="midnightblue" d="M53.9008,-45.8045C53.9008,-36.9102 53.9008,-26.7798 53.9008,-19.7511"/>
<polygon fill="midnightblue" stroke="midnightblue" points="50.4009,-46.083 53.9008,-56.083 57.4009,-46.083 50.4009,-46.083"/>
</g>
<!-- Node13 -->
<g id="node13" class="node"><title>Node13</title>
<g id="a_node13"><a xlink:href="scram_8cc.xhtml" target="_top" xlink:title="Main entrance. ">
<polygon fill="white" stroke="black" points="139.901,-0.5 139.901,-19.5 199.901,-19.5 199.901,-0.5 139.901,-0.5"/>
<text text-anchor="middle" x="169.901" y="-7.5" font-family="Helvetica,sans-Serif" font-size="10.00">scram.cc</text>
</a>
</g>
</g>
<!-- Node11&#45;&gt;Node13 -->
<g id="edge13" class="edge"><title>Node11&#45;&gt;Node13</title>
<path fill="none" stroke="midnightblue" d="M81.6205,-52.096C103.292,-42.0073 132.803,-28.2697 151.606,-19.5164"/>
<polygon fill="midnightblue" stroke="midnightblue" points="79.8701,-49.0501 72.2814,-56.4435 82.8243,-55.3962 79.8701,-49.0501"/>
</g>
<!-- Node14&#45;&gt;Node11 -->
<g id="edge15" class="edge"><title>Node14&#45;&gt;Node11</title>
<path fill="none" stroke="midnightblue" d="M212.527,-109.829C174.765,-99.6333 119.761,-84.7823 85.4432,-75.5164"/>
<polygon fill="midnightblue" stroke="midnightblue" points="211.644,-113.216 222.21,-112.444 213.468,-106.458 211.644,-113.216"/>
</g>
<!-- Node14&#45;&gt;Node13 -->
<g id="edge17" class="edge"><title>Node14&#45;&gt;Node13</title>
<path fill="none" stroke="midnightblue" d="M241.127,-104.272C222.969,-80.4942 190.358,-37.7889 176.462,-19.5914"/>
<polygon fill="midnightblue" stroke="midnightblue" points="238.459,-106.545 247.309,-112.368 244.022,-102.297 238.459,-106.545"/>
</g>
<!-- Node14&#45;&gt;Node15 -->
<g id="edge16" class="edge"><title>Node14&#45;&gt;Node15</title>
<path fill="none" stroke="midnightblue" d="M307.027,-113.031C377.922,-102.397 502.239,-83.7492 568.806,-73.7642"/>
<polygon fill="midnightblue" stroke="midnightblue" points="306.338,-109.595 296.968,-114.54 307.376,-116.518 306.338,-109.595"/>
</g>
<!-- Node17&#45;&gt;Node11 -->
<g id="edge23" class="edge"><title>Node17&#45;&gt;Node11</title>
<path fill="none" stroke="midnightblue" d="M73.3335,-160.833C66.6531,-152.822 59.5542,-142.605 55.9008,-132 49.2819,-112.786 50.9821,-88.4567 52.5749,-75.7046"/>
<polygon fill="midnightblue" stroke="midnightblue" points="70.7201,-163.161 79.9819,-168.306 75.95,-158.508 70.7201,-163.161"/>
</g>
<!-- Node17&#45;&gt;Node14 -->
<g id="edge22" class="edge"><title>Node17&#45;&gt;Node14</title>
<path fill="none" stroke="midnightblue" d="M124.637,-165.304C155.728,-155.129 200.048,-140.625 227.878,-131.516"/>
<polygon fill="midnightblue" stroke="midnightblue" points="123.461,-162.007 115.046,-168.444 125.638,-168.659 123.461,-162.007"/>
</g>
<!-- Node18 -->
<g id="node18" class="node"><title>Node18</title>
<g id="a_node18"><a xlink:href="uncertainty__analysis_8cc.xhtml" target="_top" xlink:title="Implements the functionality to run Monte Carlo simulations. ">
<polygon fill="white" stroke="black" points="64.9008,-112.5 64.9008,-131.5 192.901,-131.5 192.901,-112.5 64.9008,-112.5"/>
<text text-anchor="middle" x="128.901" y="-119.5" font-family="Helvetica,sans-Serif" font-size="10.00">uncertainty_analysis.cc</text>
</a>
</g>
</g>
<!-- Node17&#45;&gt;Node18 -->
<g id="edge24" class="edge"><title>Node17&#45;&gt;Node18</title>
<path fill="none" stroke="midnightblue" d="M101.601,-159.855C108.527,-150.505 116.807,-139.327 122.419,-131.751"/>
<polygon fill="midnightblue" stroke="midnightblue" points="98.6459,-157.964 95.506,-168.083 104.271,-162.131 98.6459,-157.964"/>
</g>
<!-- Node19&#45;&gt;Node15 -->
<g id="edge30" class="edge"><title>Node19&#45;&gt;Node15</title>
<path fill="none" stroke="midnightblue" d="M509.063,-271.157C532.191,-226.119 592.301,-109.063 609.339,-75.8837"/>
<polygon fill="midnightblue" stroke="midnightblue" points="505.824,-269.803 504.37,-280.297 512.051,-273 505.824,-269.803"/>
</g>
<!-- Node20 -->
<g id="node20" class="node"><title>Node20</title>
<g id="a_node20"><a xlink:href="mocus_8cc.xhtml" target="_top" xlink:title="Implementation of the MOCUS algorithm. ">
<polygon fill="white" stroke="black" points="428.901,-224.5 428.901,-243.5 490.901,-243.5 490.901,-224.5 428.901,-224.5"/>
<text text-anchor="middle" x="459.901" y="-231.5" font-family="Helvetica,sans-Serif" font-size="10.00">mocus.cc</text>
</a>
</g>
</g>
<!-- Node19&#45;&gt;Node20 -->
<g id="edge29" class="edge"><title>Node19&#45;&gt;Node20</title>
<path fill="none" stroke="midnightblue" d="M487.201,-271.855C480.275,-262.505 471.995,-251.327 466.383,-243.751"/>
<polygon fill="midnightblue" stroke="midnightblue" points="484.531,-274.131 493.296,-280.083 490.156,-269.964 484.531,-274.131"/>
</g>
<!-- Node22&#45;&gt;Node6 -->
<g id="edge39" class="edge"><title>Node22&#45;&gt;Node6</title>
<path fill="none" stroke="midnightblue" d="M298.087,-386.417C264.88,-363.151 200.937,-318.35 174.163,-299.591"/>
<polygon fill="midnightblue" stroke="midnightblue" points="296.383,-389.497 306.581,-392.368 300.4,-383.764 296.383,-389.497"/>
</g>
<!-- Node22&#45;&gt;Node23 -->
<g id="edge40" class="edge"><title>Node22&#45;&gt;Node23</title>
<path fill="none" stroke="midnightblue" d="M319.612,-381.805C319.941,-372.91 320.316,-362.78 320.577,-355.751"/>
<polygon fill="midnightblue" stroke="midnightblue" points="316.104,-381.96 319.231,-392.083 323.099,-382.219 316.104,-381.96"/>
</g>
</g>
</svg>
        <g id="navigator" transform="translate(0 0)" fill="#404254">
                <rect fill="#f2f5e9" fill-opacity="0.5" stroke="#606060" stroke-width=".5" x="0" y="0" width="60" height="60"/>
                <use id="zoomplus" xlink:href="#zoomPlus" x="17" y="9" onmousedown="handleZoom(evt,'in')"/>
                <use id="zoomminus" xlink:href="#zoomMin" x="42" y="9" onmousedown="handleZoom(evt,'out')"/>
                <use id="reset" xlink:href="#resetDef" x="30" y="36" onmousedown="handleReset()"/>
                <g id="arrowUp" xlink:href="#dirArrow" transform="translate(30 24)" onmousedown="handlePan(0,-1)">
                  <use xlink:href="#rim" fill="#404040">
                        <set attributeName="fill" to="#808080" begin="arrowUp.mouseover" end="arrowUp.mouseout"/>
                  </use>
                  <path fill="none" stroke="white" stroke-width="1.5" d="M0,-3.0v7 M-2.5,-0.5L0,-3.0L2.5,-0.5"/>
                </g>
                <g id="arrowRight" xlink:href="#dirArrow" transform="rotate(90) translate(36 -43)" onmousedown="handlePan(1,0)">
                  <use xlink:href="#rim" fill="#404040">
                        <set attributeName="fill" to="#808080" begin="arrowRight.mouseover" end="arrowRight.mouseout"/>
                  </use>
                  <path fill="none" stroke="white" stroke-width="1.5" d="M0,-3.0v7 M-2.5,-0.5L0,-3.0L2.5,-0.5"/>
                </g>
                <g id="arrowDown" xlink:href="#dirArrow" transform="rotate(180) translate(-30 -48)" onmousedown="handlePan(0,1)">
                  <use xlink:href="#rim" fill="#404040">
                        <set attributeName="fill" to="#808080" begin="arrowDown.mouseover" end="arrowDown.mouseout"/>
                  </use>
                  <path fill="none" stroke="white" stroke-width="1.5" d="M0,-3.0v7 M-2.5,-0.5L0,-3.0L2.5,-0.5"/>
                </g>
                <g id="arrowLeft" xlink:href="#dirArrow" transform="rotate(270) translate(-36 17)" onmousedown="handlePan(-1,0)">
                  <use xlink:href="#rim" fill="#404040">
                        <set attributeName="fill" to="#808080" begin="arrowLeft.mouseover" end="arrowLeft.mouseout"/>
                  </use>
                  <path fill="none" stroke="white" stroke-width="1.5" d="M0,-3.0v7 M-2.5,-0.5L0,-3.0L2.5,-0.5"/>
                </g>
        </g>
        <svg viewBox="0 0 15 15" width="100%" height="30px" preserveAspectRatio="xMaxYMin meet">
         <g id="arrow_out" transform="scale(0.3 0.3)">
          <a xlink:href="find__iterator_8h__dep__incl_org.svg" target="_base">
           <rect id="button" ry="5" rx="5" y="6" x="6" height="38" width="38"
                fill="#f2f5e9" fill-opacity="0.5" stroke="#606060" stroke-width="1.0"/>
           <path id="arrow"
             d="M 11.500037,31.436501 C 11.940474,20.09759 22.043105,11.32322 32.158766,21.979434 L 37.068811,17.246167 C 37.068811,17.246167 37.088388,32 37.088388,32 L 22.160133,31.978069 C 22.160133,31.978069 26.997745,27.140456 26.997745,27.140456 C 18.528582,18.264221 13.291696,25.230495 11.500037,31.436501 z"
             style="fill:#404040;"/>
          </a>
         </g>
        </svg>
</svg>
