<?xml version="1.0" encoding="UTF-8" standalone="no"?>
<!DOCTYPE svg PUBLIC "-//W3C//DTD SVG 1.1//EN"
 "http://www.w3.org/Graphics/SVG/1.1/DTD/svg11.dtd">
<!-- Generated by graphviz version 2.38.0 (20140413.2041)
 -->
<!-- Title: index_map.h Pages: 1 -->
<svg width="825pt" height="532pt"
 viewBox="0.00 0.00 825.30 532.00" xmlns="http://www.w3.org/2000/svg" xmlns:xlink="http://www.w3.org/1999/xlink">
<g id="graph0" class="graph" transform="scale(1 1) rotate(0) translate(4 528)">
<title>index_map.h</title>
<polygon fill="white" stroke="none" points="-4,4 -4,-528 821.296,-528 821.296,4 -4,4"/>
<!-- Node1 -->
<g id="node1" class="node"><title>Node1</title>
<polygon fill="#bfbfbf" stroke="black" points="376.296,-504.5 376.296,-523.5 454.296,-523.5 454.296,-504.5 376.296,-504.5"/>
<text text-anchor="middle" x="415.296" y="-511.5" font-family="Helvetica,sans-Serif" font-size="10.00">index_map.h</text>
</g>
<!-- Node2 -->
<g id="node2" class="node"><title>Node2</title>
<g id="a_node2"><a xlink:href="pdag_8h.xhtml" target="_top" xlink:title="Classes and facilities to represent fault trees as PDAGs with event and gate indices instead of ID na...">
<polygon fill="white" stroke="black" points="390.296,-448.5 390.296,-467.5 440.296,-467.5 440.296,-448.5 390.296,-448.5"/>
<text text-anchor="middle" x="415.296" y="-455.5" font-family="Helvetica,sans-Serif" font-size="10.00">pdag.h</text>
</a>
</g>
</g>
<!-- Node1&#45;&gt;Node2 -->
<g id="edge1" class="edge"><title>Node1&#45;&gt;Node2</title>
<path fill="none" stroke="midnightblue" d="M415.296,-493.805C415.296,-484.91 415.296,-474.78 415.296,-467.751"/>
<polygon fill="midnightblue" stroke="midnightblue" points="411.796,-494.083 415.296,-504.083 418.796,-494.083 411.796,-494.083"/>
</g>
<!-- Node3 -->
<g id="node3" class="node"><title>Node3</title>
<g id="a_node3"><a xlink:href="bdd_8h.xhtml" target="_top" xlink:title="Fault tree analysis with the Binary Decision Diagram algorithms. ">
<polygon fill="white" stroke="black" points="468.296,-392.5 468.296,-411.5 512.296,-411.5 512.296,-392.5 468.296,-392.5"/>
<text text-anchor="middle" x="490.296" y="-399.5" font-family="Helvetica,sans-Serif" font-size="10.00">bdd.h</text>
</a>
</g>
</g>
<!-- Node2&#45;&gt;Node3 -->
<g id="edge2" class="edge"><title>Node2&#45;&gt;Node3</title>
<path fill="none" stroke="midnightblue" d="M435.601,-442.38C449.157,-432.62 466.538,-420.106 478.027,-411.834"/>
<polygon fill="midnightblue" stroke="midnightblue" points="433.417,-439.641 427.346,-448.324 437.507,-445.321 433.417,-439.641"/>
</g>
<!-- Node6 -->
<g id="node6" class="node"><title>Node6</title>
<g id="a_node6"><a xlink:href="fault__tree__analysis_8h.xhtml" target="_top" xlink:title="Fault Tree Analysis. ">
<polygon fill="white" stroke="black" points="146.796,-280.5 146.796,-299.5 261.796,-299.5 261.796,-280.5 146.796,-280.5"/>
<text text-anchor="middle" x="204.296" y="-287.5" font-family="Helvetica,sans-Serif" font-size="10.00">fault_tree_analysis.h</text>
</a>
</g>
</g>
<!-- Node2&#45;&gt;Node6 -->
<g id="edge37" class="edge"><title>Node2&#45;&gt;Node6</title>
<path fill="none" stroke="midnightblue" d="M380.011,-456.308C337.694,-453.937 266.119,-444.885 215.296,-412 189.176,-395.099 183.134,-385.515 173.296,-356 166.259,-334.888 183.995,-311.71 195.456,-299.546"/>
<polygon fill="midnightblue" stroke="midnightblue" points="379.957,-459.81 390.108,-456.778 380.282,-452.817 379.957,-459.81"/>
</g>
<!-- Node8 -->
<g id="node8" class="node"><title>Node8</title>
<g id="a_node8"><a xlink:href="probability__analysis_8h.xhtml" target="_top" xlink:title="Contains functionality to do numerical analysis of probabilities. ">
<polygon fill="white" stroke="black" points="250.796,-224.5 250.796,-243.5 369.796,-243.5 369.796,-224.5 250.796,-224.5"/>
<text text-anchor="middle" x="310.296" y="-231.5" font-family="Helvetica,sans-Serif" font-size="10.00">probability_analysis.h</text>
</a>
</g>
</g>
<!-- Node2&#45;&gt;Node8 -->
<g id="edge41" class="edge"><title>Node2&#45;&gt;Node8</title>
<path fill="none" stroke="midnightblue" d="M406.857,-439.157C385.555,-394.119 330.191,-277.063 314.498,-243.884"/>
<polygon fill="midnightblue" stroke="midnightblue" points="403.74,-440.754 411.18,-448.297 410.068,-437.761 403.74,-440.754"/>
</g>
<!-- Node19 -->
<g id="node19" class="node"><title>Node19</title>
<g id="a_node19"><a xlink:href="mocus_8h.xhtml" target="_top" xlink:title="Fault tree analysis with the MOCUS algorithm. ">
<polygon fill="white" stroke="black" points="696.296,-280.5 696.296,-299.5 754.296,-299.5 754.296,-280.5 696.296,-280.5"/>
<text text-anchor="middle" x="725.296" y="-287.5" font-family="Helvetica,sans-Serif" font-size="10.00">mocus.h</text>
</a>
</g>
</g>
<!-- Node2&#45;&gt;Node19 -->
<g id="edge42" class="edge"><title>Node2&#45;&gt;Node19</title>
<path fill="none" stroke="midnightblue" d="M447.56,-444.611C468.83,-436.127 497.118,-424.233 521.296,-412 595.884,-374.261 680.455,-320.289 712.276,-299.559"/>
<polygon fill="midnightblue" stroke="midnightblue" points="446.044,-441.447 438.027,-448.373 448.614,-447.958 446.044,-441.447"/>
</g>
<!-- Node22 -->
<g id="node22" class="node"><title>Node22</title>
<g id="a_node22"><a xlink:href="preprocessor_8h.xhtml" target="_top" xlink:title="A collection of PDAG transformation/preprocessing algorithms that simplify fault trees for analysis...">
<polygon fill="white" stroke="black" points="224.296,-392.5 224.296,-411.5 312.296,-411.5 312.296,-392.5 224.296,-392.5"/>
<text text-anchor="middle" x="268.296" y="-399.5" font-family="Helvetica,sans-Serif" font-size="10.00">preprocessor.h</text>
</a>
</g>
</g>
<!-- Node2&#45;&gt;Node22 -->
<g id="edge38" class="edge"><title>Node2&#45;&gt;Node22</title>
<path fill="none" stroke="midnightblue" d="M382.373,-444.906C354.736,-434.754 315.952,-420.506 291.48,-411.516"/>
<polygon fill="midnightblue" stroke="midnightblue" points="381.41,-448.281 392.004,-448.444 383.824,-441.71 381.41,-448.281"/>
</g>
<!-- Node24 -->
<g id="node24" class="node"><title>Node24</title>
<g id="a_node24"><a xlink:href="pdag_8cc.xhtml" target="_top" xlink:title="Implementation of a Propositional Directed Acyclic Graph with indexed nodes, variables, and gates. ">
<polygon fill="white" stroke="black" points="763.296,-392.5 763.296,-411.5 817.296,-411.5 817.296,-392.5 763.296,-392.5"/>
<text text-anchor="middle" x="790.296" y="-399.5" font-family="Helvetica,sans-Serif" font-size="10.00">pdag.cc</text>
</a>
</g>
</g>
<!-- Node2&#45;&gt;Node24 -->
<g id="edge43" class="edge"><title>Node2&#45;&gt;Node24</title>
<path fill="none" stroke="midnightblue" d="M450.812,-453.186C511.997,-446.399 641.134,-431.125 749.296,-412 753.745,-411.213 758.444,-410.28 763.011,-409.317"/>
<polygon fill="midnightblue" stroke="midnightblue" points="450.102,-449.743 440.545,-454.316 450.868,-456.701 450.102,-449.743"/>
</g>
<!-- Node4 -->
<g id="node4" class="node"><title>Node4</title>
<g id="a_node4"><a xlink:href="bdd_8cc.xhtml" target="_top" xlink:title="Implementation of BDD fault tree analysis algorithms. ">
<polygon fill="white" stroke="black" points="630.296,-280.5 630.296,-299.5 678.296,-299.5 678.296,-280.5 630.296,-280.5"/>
<text text-anchor="middle" x="654.296" y="-287.5" font-family="Helvetica,sans-Serif" font-size="10.00">bdd.cc</text>
</a>
</g>
</g>
<!-- Node3&#45;&gt;Node4 -->
<g id="edge3" class="edge"><title>Node3&#45;&gt;Node4</title>
<path fill="none" stroke="midnightblue" d="M516.503,-387.511C532.406,-379.021 552.918,-367.522 570.296,-356 598.267,-337.455 628.923,-312.425 644.309,-299.505"/>
<polygon fill="midnightblue" stroke="midnightblue" points="514.479,-384.622 507.266,-392.382 517.744,-390.814 514.479,-384.622"/>
</g>
<!-- Node5 -->
<g id="node5" class="node"><title>Node5</title>
<g id="a_node5"><a xlink:href="zbdd_8h.xhtml" target="_top" xlink:title="Zero&#45;Suppressed Binary Decision Diagram facilities. ">
<polygon fill="white" stroke="black" points="512.796,-336.5 512.796,-355.5 561.796,-355.5 561.796,-336.5 512.796,-336.5"/>
<text text-anchor="middle" x="537.296" y="-343.5" font-family="Helvetica,sans-Serif" font-size="10.00">zbdd.h</text>
</a>
</g>
</g>
<!-- Node3&#45;&gt;Node5 -->
<g id="edge4" class="edge"><title>Node3&#45;&gt;Node5</title>
<path fill="none" stroke="midnightblue" d="M504.717,-384.431C512.954,-374.967 522.95,-363.483 529.68,-355.751"/>
<polygon fill="midnightblue" stroke="midnightblue" points="501.983,-382.242 498.057,-392.083 507.263,-386.838 501.983,-382.242"/>
</g>
<!-- Node3&#45;&gt;Node8 -->
<g id="edge35" class="edge"><title>Node3&#45;&gt;Node8</title>
<path fill="none" stroke="midnightblue" d="M458.565,-389.653C440.601,-382.105 418.546,-370.84 402.296,-356 372.796,-329.059 379.066,-311.345 354.296,-280 343.593,-266.455 329.341,-252.488 319.998,-243.78"/>
<polygon fill="midnightblue" stroke="midnightblue" points="457.478,-392.988 468.062,-393.462 460.084,-386.491 457.478,-392.988"/>
</g>
<!-- Node9 -->
<g id="node9" class="node"><title>Node9</title>
<g id="a_node9"><a xlink:href="importance__analysis_8h.xhtml" target="_top" xlink:title="Contains functionality to do numerical analysis of importance factors. ">
<polygon fill="white" stroke="black" points="270.296,-168.5 270.296,-187.5 394.296,-187.5 394.296,-168.5 270.296,-168.5"/>
<text text-anchor="middle" x="332.296" y="-175.5" font-family="Helvetica,sans-Serif" font-size="10.00">importance_analysis.h</text>
</a>
</g>
</g>
<!-- Node3&#45;&gt;Node9 -->
<g id="edge34" class="edge"><title>Node3&#45;&gt;Node9</title>
<path fill="none" stroke="midnightblue" d="M481.065,-383.585C463.308,-350.796 422.242,-278.313 378.296,-224 367.193,-210.278 352.273,-196.352 342.477,-187.702"/>
<polygon fill="midnightblue" stroke="midnightblue" points="477.994,-385.264 485.805,-392.422 484.163,-381.956 477.994,-385.264"/>
</g>
<!-- Node15 -->
<g id="node15" class="node"><title>Node15</title>
<g id="a_node15"><a xlink:href="risk__analysis_8cc.xhtml" target="_top" xlink:title="Implementation of risk analysis handler. ">
<polygon fill="white" stroke="black" points="582.296,-56.5 582.296,-75.5 672.296,-75.5 672.296,-56.5 582.296,-56.5"/>
<text text-anchor="middle" x="627.296" y="-63.5" font-family="Helvetica,sans-Serif" font-size="10.00">risk_analysis.cc</text>
</a>
</g>
</g>
<!-- Node3&#45;&gt;Node15 -->
<g id="edge36" class="edge"><title>Node3&#45;&gt;Node15</title>
<path fill="none" stroke="midnightblue" d="M522.527,-398.302C579.442,-391.794 697.897,-370.142 763.296,-300 783.821,-277.986 782.296,-265.098 782.296,-235 782.296,-235 782.296,-235 782.296,-177 782.296,-119.089 709.45,-88.8824 663.637,-75.6114"/>
<polygon fill="midnightblue" stroke="midnightblue" points="521.897,-394.849 512.32,-399.38 522.633,-401.81 521.897,-394.849"/>
</g>
<!-- Node5&#45;&gt;Node4 -->
<g id="edge5" class="edge"><title>Node5&#45;&gt;Node4</title>
<path fill="none" stroke="midnightblue" d="M564.96,-332.232C586.845,-322.131 616.793,-308.309 635.844,-299.516"/>
<polygon fill="midnightblue" stroke="midnightblue" points="563.448,-329.075 555.835,-336.444 566.382,-335.431 563.448,-329.075"/>
</g>
<!-- Node5&#45;&gt;Node6 -->
<g id="edge6" class="edge"><title>Node5&#45;&gt;Node6</title>
<path fill="none" stroke="midnightblue" d="M502.321,-339.328C443.738,-329.828 325.466,-310.649 256.84,-299.521"/>
<polygon fill="midnightblue" stroke="midnightblue" points="502.108,-342.839 512.539,-340.985 503.228,-335.93 502.108,-342.839"/>
</g>
<!-- Node10 -->
<g id="node10" class="node"><title>Node10</title>
<g id="a_node10"><a xlink:href="importance__analysis_8cc.xhtml" target="_top" xlink:title="Implementations of functions to provide quantitative importance informations. ">
<polygon fill="white" stroke="black" points="407.296,-112.5 407.296,-131.5 535.296,-131.5 535.296,-112.5 407.296,-112.5"/>
<text text-anchor="middle" x="471.296" y="-119.5" font-family="Helvetica,sans-Serif" font-size="10.00">importance_analysis.cc</text>
</a>
</g>
</g>
<!-- Node5&#45;&gt;Node10 -->
<g id="edge27" class="edge"><title>Node5&#45;&gt;Node10</title>
<path fill="none" stroke="midnightblue" d="M543.908,-326.639C554.884,-292.8 572.974,-219.367 544.296,-168 534.353,-150.191 514.146,-138.555 497.508,-131.586"/>
<polygon fill="midnightblue" stroke="midnightblue" points="540.577,-325.562 540.662,-336.156 547.202,-327.821 540.577,-325.562"/>
</g>
<!-- Node5&#45;&gt;Node15 -->
<g id="edge32" class="edge"><title>Node5&#45;&gt;Node15</title>
<path fill="none" stroke="midnightblue" d="M554.202,-329.045C573.461,-309.06 602.296,-272.822 602.296,-235 602.296,-235 602.296,-235 602.296,-177 602.296,-138.419 617.101,-94.077 623.925,-75.6873"/>
<polygon fill="midnightblue" stroke="midnightblue" points="551.495,-326.801 546.887,-336.341 556.439,-331.757 551.495,-326.801"/>
</g>
<!-- Node16 -->
<g id="node16" class="node"><title>Node16</title>
<g id="a_node16"><a xlink:href="probability__analysis_8cc.xhtml" target="_top" xlink:title="Implementations of functions to provide probability analysis. ">
<polygon fill="white" stroke="black" points="412.796,-168.5 412.796,-187.5 535.796,-187.5 535.796,-168.5 412.796,-168.5"/>
<text text-anchor="middle" x="474.296" y="-175.5" font-family="Helvetica,sans-Serif" font-size="10.00">probability_analysis.cc</text>
</a>
</g>
</g>
<!-- Node5&#45;&gt;Node16 -->
<g id="edge31" class="edge"><title>Node5&#45;&gt;Node16</title>
<path fill="none" stroke="midnightblue" d="M506.743,-331.559C493.967,-324.217 480.449,-313.774 473.296,-300 453.642,-262.154 465.787,-208.245 471.658,-187.545"/>
<polygon fill="midnightblue" stroke="midnightblue" points="505.338,-334.775 515.814,-336.36 508.613,-328.588 505.338,-334.775"/>
</g>
<!-- Node5&#45;&gt;Node19 -->
<g id="edge28" class="edge"><title>Node5&#45;&gt;Node19</title>
<path fill="none" stroke="midnightblue" d="M571.828,-335.081C607.484,-324.84 662.512,-309.034 696.079,-299.392"/>
<polygon fill="midnightblue" stroke="midnightblue" points="570.519,-331.816 561.874,-337.94 572.452,-338.544 570.519,-331.816"/>
</g>
<!-- Node21 -->
<g id="node21" class="node"><title>Node21</title>
<g id="a_node21"><a xlink:href="zbdd_8cc.xhtml" target="_top" xlink:title="Implementation of Zero&#45;Suppressed BDD algorithms. ">
<polygon fill="white" stroke="black" points="482.796,-280.5 482.796,-299.5 535.796,-299.5 535.796,-280.5 482.796,-280.5"/>
<text text-anchor="middle" x="509.296" y="-287.5" font-family="Helvetica,sans-Serif" font-size="10.00">zbdd.cc</text>
</a>
</g>
</g>
<!-- Node5&#45;&gt;Node21 -->
<g id="edge33" class="edge"><title>Node5&#45;&gt;Node21</title>
<path fill="none" stroke="midnightblue" d="M527.954,-326.983C523.201,-317.817 517.64,-307.092 513.834,-299.751"/>
<polygon fill="midnightblue" stroke="midnightblue" points="524.962,-328.817 532.673,-336.083 531.177,-325.594 524.962,-328.817"/>
</g>
<!-- Node7 -->
<g id="node7" class="node"><title>Node7</title>
<g id="a_node7"><a xlink:href="fault__tree__analysis_8cc.xhtml" target="_top" xlink:title="Implementation of fault tree analysis. ">
<polygon fill="white" stroke="black" points="56.7962,-224.5 56.7962,-243.5 175.796,-243.5 175.796,-224.5 56.7962,-224.5"/>
<text text-anchor="middle" x="116.296" y="-231.5" font-family="Helvetica,sans-Serif" font-size="10.00">fault_tree_analysis.cc</text>
</a>
</g>
</g>
<!-- Node6&#45;&gt;Node7 -->
<g id="edge7" class="edge"><title>Node6&#45;&gt;Node7</title>
<path fill="none" stroke="midnightblue" d="M181.319,-274.901C165.183,-264.999 144.115,-252.071 130.4,-243.655"/>
<polygon fill="midnightblue" stroke="midnightblue" points="179.804,-278.077 190.158,-280.324 183.465,-272.111 179.804,-278.077"/>
</g>
<!-- Node6&#45;&gt;Node8 -->
<g id="edge8" class="edge"><title>Node6&#45;&gt;Node8</title>
<path fill="none" stroke="midnightblue" d="M230.352,-275.726C249.98,-265.727 276.324,-252.307 293.308,-243.655"/>
<polygon fill="midnightblue" stroke="midnightblue" points="228.649,-272.666 221.327,-280.324 231.826,-278.903 228.649,-272.666"/>
</g>
<!-- Node11 -->
<g id="node11" class="node"><title>Node11</title>
<g id="a_node11"><a xlink:href="reporter_8h.xhtml" target="_top" xlink:title="Reporter of results. ">
<polygon fill="white" stroke="black" points="166.296,-56.5 166.296,-75.5 230.296,-75.5 230.296,-56.5 166.296,-56.5"/>
<text text-anchor="middle" x="198.296" y="-63.5" font-family="Helvetica,sans-Serif" font-size="10.00">reporter.h</text>
</a>
</g>
</g>
<!-- Node6&#45;&gt;Node11 -->
<g id="edge25" class="edge"><title>Node6&#45;&gt;Node11</title>
<path fill="none" stroke="midnightblue" d="M136.344,-282.944C106.009,-277.126 71.687,-265.833 47.2962,-244 2.6112,-204.001 -17.5802,-159.295 19.2962,-112 37.177,-89.0677 119.679,-76.0331 166.184,-70.3886"/>
<polygon fill="midnightblue" stroke="midnightblue" points="136.005,-286.438 146.458,-284.715 137.212,-279.543 136.005,-286.438"/>
</g>
<!-- Node14 -->
<g id="node14" class="node"><title>Node14</title>
<g id="a_node14"><a xlink:href="risk__analysis_8h.xhtml" target="_top" xlink:title="Contains the main system for performing analysis. ">
<polygon fill="white" stroke="black" points="226.296,-112.5 226.296,-131.5 312.296,-131.5 312.296,-112.5 226.296,-112.5"/>
<text text-anchor="middle" x="269.296" y="-119.5" font-family="Helvetica,sans-Serif" font-size="10.00">risk_analysis.h</text>
</a>
</g>
</g>
<!-- Node6&#45;&gt;Node14 -->
<g id="edge26" class="edge"><title>Node6&#45;&gt;Node14</title>
<path fill="none" stroke="midnightblue" d="M211.581,-270.395C225.603,-234.585 255.849,-157.342 265.941,-131.568"/>
<polygon fill="midnightblue" stroke="midnightblue" points="208.178,-269.487 207.791,-280.075 214.696,-272.04 208.178,-269.487"/>
</g>
<!-- Node8&#45;&gt;Node9 -->
<g id="edge9" class="edge"><title>Node8&#45;&gt;Node9</title>
<path fill="none" stroke="midnightblue" d="M317.756,-214.69C321.464,-205.589 325.772,-195.014 328.731,-187.751"/>
<polygon fill="midnightblue" stroke="midnightblue" points="314.461,-213.502 313.929,-224.083 320.943,-216.143 314.461,-213.502"/>
</g>
<!-- Node8&#45;&gt;Node11 -->
<g id="edge19" class="edge"><title>Node8&#45;&gt;Node11</title>
<path fill="none" stroke="midnightblue" d="M240.525,-225.419C166.171,-216.691 57.2129,-201.782 43.2962,-188 19.0889,-164.027 12.6166,-139.075 33.2962,-112 49.3366,-90.9991 122.842,-77.4469 166.145,-71.1381"/>
<polygon fill="midnightblue" stroke="midnightblue" points="240.437,-228.932 250.774,-226.609 241.244,-221.979 240.437,-228.932"/>
</g>
<!-- Node8&#45;&gt;Node14 -->
<g id="edge20" class="edge"><title>Node8&#45;&gt;Node14</title>
<path fill="none" stroke="midnightblue" d="M287.2,-218.354C277.254,-210.659 266.686,-200.268 261.296,-188 253.064,-169.263 260.363,-144.74 265.423,-131.831"/>
<polygon fill="midnightblue" stroke="midnightblue" points="285.469,-221.419 295.635,-224.402 289.548,-215.73 285.469,-221.419"/>
</g>
<!-- Node8&#45;&gt;Node16 -->
<g id="edge18" class="edge"><title>Node8&#45;&gt;Node16</title>
<path fill="none" stroke="midnightblue" d="M345.816,-221.304C376.718,-211.129 420.77,-196.625 448.432,-187.516"/>
<polygon fill="midnightblue" stroke="midnightblue" points="344.686,-217.992 336.283,-224.444 346.876,-224.64 344.686,-217.992"/>
</g>
<!-- Node17 -->
<g id="node17" class="node"><title>Node17</title>
<g id="a_node17"><a xlink:href="uncertainty__analysis_8h.xhtml" target="_top" xlink:title="Provides functionality for uncertainty analysis with Monte Carlo method. ">
<polygon fill="white" stroke="black" points="52.7962,-168.5 52.7962,-187.5 175.796,-187.5 175.796,-168.5 52.7962,-168.5"/>
<text text-anchor="middle" x="114.296" y="-175.5" font-family="Helvetica,sans-Serif" font-size="10.00">uncertainty_analysis.h</text>
</a>
</g>
</g>
<!-- Node8&#45;&gt;Node17 -->
<g id="edge21" class="edge"><title>Node8&#45;&gt;Node17</title>
<path fill="none" stroke="midnightblue" d="M269.277,-221.699C232.285,-211.507 178.696,-196.743 145.208,-187.516"/>
<polygon fill="midnightblue" stroke="midnightblue" points="268.669,-225.162 279.239,-224.444 270.528,-218.413 268.669,-225.162"/>
</g>
<!-- Node9&#45;&gt;Node10 -->
<g id="edge10" class="edge"><title>Node9&#45;&gt;Node10</title>
<path fill="none" stroke="midnightblue" d="M363.772,-164.772C389.882,-154.629 426.335,-140.467 449.374,-131.516"/>
<polygon fill="midnightblue" stroke="midnightblue" points="362.375,-161.56 354.321,-168.444 364.91,-168.085 362.375,-161.56"/>
</g>
<!-- Node9&#45;&gt;Node11 -->
<g id="edge11" class="edge"><title>Node9&#45;&gt;Node11</title>
<path fill="none" stroke="midnightblue" d="M333.871,-158.188C334.034,-143.967 331.923,-124.775 321.296,-112 298.83,-84.9919 258.681,-74.193 230.375,-69.8755"/>
<polygon fill="midnightblue" stroke="midnightblue" points="330.368,-158.149 333.371,-168.309 337.36,-158.494 330.368,-158.149"/>
</g>
<!-- Node9&#45;&gt;Node14 -->
<g id="edge14" class="edge"><title>Node9&#45;&gt;Node14</title>
<path fill="none" stroke="midnightblue" d="M314.256,-161.537C303.023,-151.909 288.977,-139.869 279.602,-131.834"/>
<polygon fill="midnightblue" stroke="midnightblue" points="312.304,-164.473 322.174,-168.324 316.859,-159.159 312.304,-164.473"/>
</g>
<!-- Node12 -->
<g id="node12" class="node"><title>Node12</title>
<g id="a_node12"><a xlink:href="reporter_8cc.xhtml" target="_top" xlink:title="Implements Reporter class. ">
<polygon fill="white" stroke="black" points="153.296,-0.5 153.296,-19.5 221.296,-19.5 221.296,-0.5 153.296,-0.5"/>
<text text-anchor="middle" x="187.296" y="-7.5" font-family="Helvetica,sans-Serif" font-size="10.00">reporter.cc</text>
</a>
</g>
</g>
<!-- Node11&#45;&gt;Node12 -->
<g id="edge12" class="edge"><title>Node11&#45;&gt;Node12</title>
<path fill="none" stroke="midnightblue" d="M194.446,-46.1005C192.62,-37.1357 190.527,-26.8579 189.079,-19.7511"/>
<polygon fill="midnightblue" stroke="midnightblue" points="191.054,-46.9829 196.48,-56.083 197.913,-45.5856 191.054,-46.9829"/>
</g>
<!-- Node13 -->
<g id="node13" class="node"><title>Node13</title>
<g id="a_node13"><a xlink:href="scram_8cc.xhtml" target="_top" xlink:title="Main entrance. ">
<polygon fill="white" stroke="black" points="239.296,-0.5 239.296,-19.5 299.296,-19.5 299.296,-0.5 239.296,-0.5"/>
<text text-anchor="middle" x="269.296" y="-7.5" font-family="Helvetica,sans-Serif" font-size="10.00">scram.cc</text>
</a>
</g>
</g>
<!-- Node11&#45;&gt;Node13 -->
<g id="edge13" class="edge"><title>Node11&#45;&gt;Node13</title>
<path fill="none" stroke="midnightblue" d="M217.886,-50.1008C230.664,-40.3824 246.909,-28.0269 257.681,-19.8339"/>
<polygon fill="midnightblue" stroke="midnightblue" points="215.544,-47.4844 209.704,-56.324 219.782,-53.0561 215.544,-47.4844"/>
</g>
<!-- Node14&#45;&gt;Node11 -->
<g id="edge15" class="edge"><title>Node14&#45;&gt;Node11</title>
<path fill="none" stroke="midnightblue" d="M249.706,-106.101C236.929,-96.3824 220.683,-84.0269 209.911,-75.8339"/>
<polygon fill="midnightblue" stroke="midnightblue" points="247.811,-109.056 257.889,-112.324 252.048,-103.484 247.811,-109.056"/>
</g>
<!-- Node14&#45;&gt;Node13 -->
<g id="edge17" class="edge"><title>Node14&#45;&gt;Node13</title>
<path fill="none" stroke="midnightblue" d="M269.296,-102.348C269.296,-78.2538 269.296,-37.3079 269.296,-19.5914"/>
<polygon fill="midnightblue" stroke="midnightblue" points="265.796,-102.368 269.296,-112.368 272.796,-102.369 265.796,-102.368"/>
</g>
<!-- Node14&#45;&gt;Node15 -->
<g id="edge16" class="edge"><title>Node14&#45;&gt;Node15</title>
<path fill="none" stroke="midnightblue" d="M322.485,-112.977C392.983,-102.343 516.142,-83.7663 582.271,-73.7915"/>
<polygon fill="midnightblue" stroke="midnightblue" points="321.845,-109.534 312.479,-114.486 322.89,-116.456 321.845,-109.534"/>
</g>
<!-- Node17&#45;&gt;Node11 -->
<g id="edge23" class="edge"><title>Node17&#45;&gt;Node11</title>
<path fill="none" stroke="midnightblue" d="M142.243,-163.376C155.201,-155.775 169.799,-145.168 179.296,-132 191.813,-114.645 196.136,-89.1136 197.589,-75.8033"/>
<polygon fill="midnightblue" stroke="midnightblue" points="140.256,-160.475 133.194,-168.373 143.64,-166.603 140.256,-160.475"/>
</g>
<!-- Node17&#45;&gt;Node14 -->
<g id="edge22" class="edge"><title>Node17&#45;&gt;Node14</title>
<path fill="none" stroke="midnightblue" d="M148.628,-165.039C177.793,-154.879 218.934,-140.546 244.851,-131.516"/>
<polygon fill="midnightblue" stroke="midnightblue" points="147.148,-161.848 138.856,-168.444 149.451,-168.459 147.148,-161.848"/>
</g>
<!-- Node18 -->
<g id="node18" class="node"><title>Node18</title>
<g id="a_node18"><a xlink:href="uncertainty__analysis_8cc.xhtml" target="_top" xlink:title="Implements the functionality to run Monte Carlo simulations. ">
<polygon fill="white" stroke="black" points="42.2962,-112.5 42.2962,-131.5 170.296,-131.5 170.296,-112.5 42.2962,-112.5"/>
<text text-anchor="middle" x="106.296" y="-119.5" font-family="Helvetica,sans-Serif" font-size="10.00">uncertainty_analysis.cc</text>
</a>
</g>
</g>
<!-- Node17&#45;&gt;Node18 -->
<g id="edge24" class="edge"><title>Node17&#45;&gt;Node18</title>
<path fill="none" stroke="midnightblue" d="M111.496,-158.101C110.168,-149.136 108.646,-138.858 107.593,-131.751"/>
<polygon fill="midnightblue" stroke="midnightblue" points="108.047,-158.704 112.975,-168.083 114.972,-157.678 108.047,-158.704"/>
</g>
<!-- Node19&#45;&gt;Node15 -->
<g id="edge30" class="edge"><title>Node19&#45;&gt;Node15</title>
<path fill="none" stroke="midnightblue" d="M707.431,-273.406C699.112,-265.339 689.668,-254.909 683.296,-244 648.832,-185 633.045,-102.334 628.636,-75.6601"/>
<polygon fill="midnightblue" stroke="midnightblue" points="705.213,-276.122 714.926,-280.355 709.973,-270.989 705.213,-276.122"/>
</g>
<!-- Node20 -->
<g id="node20" class="node"><title>Node20</title>
<g id="a_node20"><a xlink:href="mocus_8cc.xhtml" target="_top" xlink:title="Implementation of the MOCUS algorithm. ">
<polygon fill="white" stroke="black" points="692.296,-224.5 692.296,-243.5 754.296,-243.5 754.296,-224.5 692.296,-224.5"/>
<text text-anchor="middle" x="723.296" y="-231.5" font-family="Helvetica,sans-Serif" font-size="10.00">mocus.cc</text>
</a>
</g>
</g>
<!-- Node19&#45;&gt;Node20 -->
<g id="edge29" class="edge"><title>Node19&#45;&gt;Node20</title>
<path fill="none" stroke="midnightblue" d="M724.585,-269.805C724.256,-260.91 723.881,-250.78 723.62,-243.751"/>
<polygon fill="midnightblue" stroke="midnightblue" points="721.098,-270.219 724.966,-280.083 728.093,-269.96 721.098,-270.219"/>
</g>
<!-- Node22&#45;&gt;Node6 -->
<g id="edge39" class="edge"><title>Node22&#45;&gt;Node6</title>
<path fill="none" stroke="midnightblue" d="M278.868,-383.535C285.682,-369.823 291.82,-350.664 283.296,-336 272.747,-317.85 251.836,-306.413 234.177,-299.613"/>
<polygon fill="midnightblue" stroke="midnightblue" points="275.737,-381.965 273.987,-392.414 281.871,-385.337 275.737,-381.965"/>
</g>
<!-- Node23 -->
<g id="node23" class="node"><title>Node23</title>
<g id="a_node23"><a xlink:href="preprocessor_8cc.xhtml" target="_top" xlink:title="Implementation of preprocessing algorithms. ">
<polygon fill="white" stroke="black" points="182.296,-336.5 182.296,-355.5 274.296,-355.5 274.296,-336.5 182.296,-336.5"/>
<text text-anchor="middle" x="228.296" y="-343.5" font-family="Helvetica,sans-Serif" font-size="10.00">preprocessor.cc</text>
</a>
</g>
</g>
<!-- Node22&#45;&gt;Node23 -->
<g id="edge40" class="edge"><title>Node22&#45;&gt;Node23</title>
<path fill="none" stroke="midnightblue" d="M255.597,-383.855C248.67,-374.505 240.39,-363.327 234.779,-355.751"/>
<polygon fill="midnightblue" stroke="midnightblue" points="252.926,-386.131 261.691,-392.083 258.551,-381.964 252.926,-386.131"/>
</g>
</g>
</svg>
