<?xml version="1.0" encoding="UTF-8" standalone="no"?>
<!DOCTYPE svg PUBLIC "-//W3C//DTD SVG 1.1//EN"
 "http://www.w3.org/Graphics/SVG/1.1/DTD/svg11.dtd">
<!-- Generated by graphviz version 2.38.0 (20140413.2041)
 -->
<!-- Title: Graphical Class Hierarchy Pages: 1 -->
<svg width="532pt" height="256pt"
 viewBox="0.00 0.00 532.00 256.00" xmlns="http://www.w3.org/2000/svg" xmlns:xlink="http://www.w3.org/1999/xlink">
<g id="graph0" class="graph" transform="scale(1 1) rotate(0) translate(4 252)">
<title>Graphical Class Hierarchy</title>
<polygon fill="white" stroke="none" points="-4,4 -4,-252 528,-252 528,4 -4,4"/>
<!-- Node1 -->
<g id="node1" class="node"><title>Node1</title>
<polygon fill="white" stroke="#bfbfbf" points="0,-114.5 0,-133.5 63,-133.5 63,-114.5 0,-114.5"/>
<text text-anchor="middle" x="31.5" y="-121.5" font-family="Helvetica,sans-Serif" font-size="10.00">exception</text>
</g>
<!-- Node2 -->
<g id="node2" class="node"><title>Node2</title>
<g id="a_node2"><a xlink:href="classscram_1_1Error.xhtml" target="_top" xlink:title="The Error class is the base class for common exceptions specific to the SCRAM code. ">
<polygon fill="white" stroke="black" points="99,-114.5 99,-133.5 175,-133.5 175,-114.5 99,-114.5"/>
<text text-anchor="middle" x="137" y="-121.5" font-family="Helvetica,sans-Serif" font-size="10.00">scram::Error</text>
</a>
</g>
</g>
<!-- Node1&#45;&gt;Node2 -->
<g id="edge1" class="edge"><title>Node1&#45;&gt;Node2</title>
<path fill="none" stroke="midnightblue" d="M73.3191,-124C81.7737,-124 90.6361,-124 98.947,-124"/>
<polygon fill="midnightblue" stroke="midnightblue" points="73.2732,-120.5 63.2732,-124 73.2732,-127.5 73.2732,-120.5"/>
</g>
<!-- Node3 -->
<g id="node3" class="node"><title>Node3</title>
<g id="a_node3"><a xlink:href="structscram_1_1IllegalOperation.xhtml" target="_top" xlink:title="This error can be used to indicate that call for a function or operation is not legal. ">
<polygon fill="white" stroke="black" points="213,-228.5 213,-247.5 340,-247.5 340,-228.5 213,-228.5"/>
<text text-anchor="middle" x="276.5" y="-235.5" font-family="Helvetica,sans-Serif" font-size="10.00">scram::IllegalOperation</text>
</a>
</g>
</g>
<!-- Node2&#45;&gt;Node3 -->
<g id="edge2" class="edge"><title>Node2&#45;&gt;Node3</title>
<path fill="none" stroke="midnightblue" d="M147.496,-142.532C159.454,-164.045 181.991,-199.11 211,-219 216.68,-222.895 223.168,-226.004 229.79,-228.482"/>
<polygon fill="midnightblue" stroke="midnightblue" points="150.572,-140.862 142.761,-133.704 144.404,-144.171 150.572,-140.862"/>
</g>
<!-- Node4 -->
<g id="node4" class="node"><title>Node4</title>
<g id="a_node4"><a xlink:href="structscram_1_1InvalidArgument.xhtml" target="_top" xlink:title="This error class can be used to indicate unacceptable arguments. ">
<polygon fill="white" stroke="black" points="211,-190.5 211,-209.5 342,-209.5 342,-190.5 211,-190.5"/>
<text text-anchor="middle" x="276.5" y="-197.5" font-family="Helvetica,sans-Serif" font-size="10.00">scram::InvalidArgument</text>
</a>
</g>
</g>
<!-- Node2&#45;&gt;Node4 -->
<g id="edge3" class="edge"><title>Node2&#45;&gt;Node4</title>
<path fill="none" stroke="midnightblue" d="M155.444,-140.727C169.468,-153.367 190.198,-170.31 211,-181 218.268,-184.735 226.384,-187.848 234.34,-190.4"/>
<polygon fill="midnightblue" stroke="midnightblue" points="157.732,-138.076 148.012,-133.862 152.983,-143.218 157.732,-138.076"/>
</g>
<!-- Node5 -->
<g id="node5" class="node"><title>Node5</title>
<g id="a_node5"><a xlink:href="structscram_1_1IOError.xhtml" target="_top" xlink:title="For input/output related errors. ">
<polygon fill="white" stroke="black" points="233.5,-152.5 233.5,-171.5 319.5,-171.5 319.5,-152.5 233.5,-152.5"/>
<text text-anchor="middle" x="276.5" y="-159.5" font-family="Helvetica,sans-Serif" font-size="10.00">scram::IOError</text>
</a>
</g>
</g>
<!-- Node2&#45;&gt;Node5 -->
<g id="edge4" class="edge"><title>Node2&#45;&gt;Node5</title>
<path fill="none" stroke="midnightblue" d="M182.573,-136.318C201.465,-141.539 223.147,-147.532 240.814,-152.414"/>
<polygon fill="midnightblue" stroke="midnightblue" points="183.268,-132.879 172.697,-133.589 181.403,-139.626 183.268,-132.879"/>
</g>
<!-- Node6 -->
<g id="node6" class="node"><title>Node6</title>
<g id="a_node6"><a xlink:href="structscram_1_1LogicError.xhtml" target="_top" xlink:title="Signals internal logic errors, for example, pre&#45;condition failure or use of functionality in ways not...">
<polygon fill="white" stroke="black" points="226,-114.5 226,-133.5 327,-133.5 327,-114.5 226,-114.5"/>
<text text-anchor="middle" x="276.5" y="-121.5" font-family="Helvetica,sans-Serif" font-size="10.00">scram::LogicError</text>
</a>
</g>
</g>
<!-- Node2&#45;&gt;Node6 -->
<g id="edge5" class="edge"><title>Node2&#45;&gt;Node6</title>
<path fill="none" stroke="midnightblue" d="M185.402,-124C198.467,-124 212.674,-124 225.862,-124"/>
<polygon fill="midnightblue" stroke="midnightblue" points="185.21,-120.5 175.209,-124 185.209,-127.5 185.21,-120.5"/>
</g>
<!-- Node7 -->
<g id="node7" class="node"><title>Node7</title>
<g id="a_node7"><a xlink:href="structscram_1_1ValidationError.xhtml" target="_top" xlink:title="For validating input parameters or user arguments. ">
<polygon fill="white" stroke="black" points="215.5,-76.5 215.5,-95.5 337.5,-95.5 337.5,-76.5 215.5,-76.5"/>
<text text-anchor="middle" x="276.5" y="-83.5" font-family="Helvetica,sans-Serif" font-size="10.00">scram::ValidationError</text>
</a>
</g>
</g>
<!-- Node2&#45;&gt;Node7 -->
<g id="edge6" class="edge"><title>Node2&#45;&gt;Node7</title>
<path fill="none" stroke="midnightblue" d="M182.573,-111.682C201.465,-106.461 223.147,-100.468 240.814,-95.5859"/>
<polygon fill="midnightblue" stroke="midnightblue" points="181.403,-108.374 172.697,-114.411 183.268,-115.121 181.403,-108.374"/>
</g>
<!-- Node12 -->
<g id="node12" class="node"><title>Node12</title>
<g id="a_node12"><a xlink:href="structscram_1_1ValueError.xhtml" target="_top" xlink:title="For values that are not acceptable. ">
<polygon fill="white" stroke="black" points="225.5,-38.5 225.5,-57.5 327.5,-57.5 327.5,-38.5 225.5,-38.5"/>
<text text-anchor="middle" x="276.5" y="-45.5" font-family="Helvetica,sans-Serif" font-size="10.00">scram::ValueError</text>
</a>
</g>
</g>
<!-- Node2&#45;&gt;Node12 -->
<g id="edge11" class="edge"><title>Node2&#45;&gt;Node12</title>
<path fill="none" stroke="midnightblue" d="M155.444,-107.273C169.468,-94.6335 190.198,-77.6901 211,-67 218.268,-63.265 226.384,-60.152 234.34,-57.6"/>
<polygon fill="midnightblue" stroke="midnightblue" points="152.983,-104.782 148.012,-114.138 157.732,-109.924 152.983,-104.782"/>
</g>
<!-- Node13 -->
<g id="node13" class="node"><title>Node13</title>
<g id="a_node13"><a xlink:href="structscram_1_1XmlStreamError.xhtml" target="_top" xlink:title="Errors in using XML streaming facilities. ">
<polygon fill="white" stroke="black" points="211.5,-0.5 211.5,-19.5 341.5,-19.5 341.5,-0.5 211.5,-0.5"/>
<text text-anchor="middle" x="276.5" y="-7.5" font-family="Helvetica,sans-Serif" font-size="10.00">scram::XmlStreamError</text>
</a>
</g>
</g>
<!-- Node2&#45;&gt;Node13 -->
<g id="edge12" class="edge"><title>Node2&#45;&gt;Node13</title>
<path fill="none" stroke="midnightblue" d="M147.496,-105.468C159.454,-83.9549 181.991,-48.8905 211,-29 216.68,-25.1051 223.168,-21.9964 229.79,-19.5182"/>
<polygon fill="midnightblue" stroke="midnightblue" points="144.404,-103.829 142.761,-114.296 150.572,-107.138 144.404,-103.829"/>
</g>
<!-- Node8 -->
<g id="node8" class="node"><title>Node8</title>
<g id="a_node8"><a xlink:href="structscram_1_1CycleError.xhtml" target="_top" xlink:title="Signals unacceptable cycles in invalid structures. ">
<polygon fill="white" stroke="black" points="400.5,-142.5 400.5,-161.5 501.5,-161.5 501.5,-142.5 400.5,-142.5"/>
<text text-anchor="middle" x="451" y="-149.5" font-family="Helvetica,sans-Serif" font-size="10.00">scram::CycleError</text>
</a>
</g>
</g>
<!-- Node7&#45;&gt;Node8 -->
<g id="edge7" class="edge"><title>Node7&#45;&gt;Node8</title>
<path fill="none" stroke="midnightblue" d="M327.785,-98.7817C332.688,-100.628 337.506,-102.696 342,-105 360.037,-114.248 359.833,-124.01 378,-133 385.647,-136.784 394.137,-139.88 402.527,-142.391"/>
<polygon fill="midnightblue" stroke="midnightblue" points="328.908,-95.4666 318.313,-95.502 326.617,-102.081 328.908,-95.4666"/>
</g>
<!-- Node9 -->
<g id="node9" class="node"><title>Node9</title>
<g id="a_node9"><a xlink:href="structscram_1_1DuplicateArgumentError.xhtml" target="_top" xlink:title="This error indicates that arguments must be unique. ">
<polygon fill="white" stroke="black" points="378,-93 378,-123 524,-123 524,-93 378,-93"/>
<text text-anchor="start" x="386" y="-111" font-family="Helvetica,sans-Serif" font-size="10.00">scram::DuplicateArgument</text>
<text text-anchor="middle" x="451" y="-100" font-family="Helvetica,sans-Serif" font-size="10.00">Error</text>
</a>
</g>
</g>
<!-- Node7&#45;&gt;Node9 -->
<g id="edge8" class="edge"><title>Node7&#45;&gt;Node9</title>
<path fill="none" stroke="midnightblue" d="M347.974,-94.988C357.827,-96.2446 367.964,-97.5375 377.848,-98.798"/>
<polygon fill="midnightblue" stroke="midnightblue" points="348.195,-91.4879 337.832,-93.6945 347.309,-98.4316 348.195,-91.4879"/>
</g>
<!-- Node10 -->
<g id="node10" class="node"><title>Node10</title>
<g id="a_node10"><a xlink:href="structscram_1_1RedefinitionError.xhtml" target="_top" xlink:title="For cases when events or practically anything is redefined. ">
<polygon fill="white" stroke="black" points="385.5,-54.5 385.5,-73.5 516.5,-73.5 516.5,-54.5 385.5,-54.5"/>
<text text-anchor="middle" x="451" y="-61.5" font-family="Helvetica,sans-Serif" font-size="10.00">scram::RedefinitionError</text>
</a>
</g>
</g>
<!-- Node7&#45;&gt;Node10 -->
<g id="edge9" class="edge"><title>Node7&#45;&gt;Node10</title>
<path fill="none" stroke="midnightblue" d="M348.056,-77.0015C360.379,-75.4299 373.144,-73.8019 385.3,-72.2516"/>
<polygon fill="midnightblue" stroke="midnightblue" points="347.309,-73.5684 337.832,-78.3055 348.195,-80.5121 347.309,-73.5684"/>
</g>
<!-- Node11 -->
<g id="node11" class="node"><title>Node11</title>
<g id="a_node11"><a xlink:href="structscram_1_1UndefinedElement.xhtml" target="_top" xlink:title="The error for undefined elements in a model. ">
<polygon fill="white" stroke="black" points="380.5,-16.5 380.5,-35.5 521.5,-35.5 521.5,-16.5 380.5,-16.5"/>
<text text-anchor="middle" x="451" y="-23.5" font-family="Helvetica,sans-Serif" font-size="10.00">scram::UndefinedElement</text>
</a>
</g>
</g>
<!-- Node7&#45;&gt;Node11 -->
<g id="edge10" class="edge"><title>Node7&#45;&gt;Node11</title>
<path fill="none" stroke="midnightblue" d="M325.861,-73.268C331.381,-71.371 336.865,-69.278 342,-67 359.14,-59.3967 360.753,-52.3586 378,-45 386.68,-41.2964 396.265,-38.1601 405.532,-35.5686"/>
<polygon fill="midnightblue" stroke="midnightblue" points="324.393,-70.064 315.953,-76.4686 326.545,-76.725 324.393,-70.064"/>
</g>
</g>
</svg>
