<?xml version="1.0" encoding="UTF-8" standalone="no"?>
<!DOCTYPE svg PUBLIC "-//W3C//DTD SVG 1.1//EN"
 "http://www.w3.org/Graphics/SVG/1.1/DTD/svg11.dtd">
<!-- Generated by graphviz version 2.38.0 (20140413.2041)
 -->
<!-- Title: logger.cc Pages: 1 -->
<svg width="617pt" height="151pt"
 viewBox="0.00 0.00 617.00 151.00" xmlns="http://www.w3.org/2000/svg" xmlns:xlink="http://www.w3.org/1999/xlink">
<g id="graph0" class="graph" transform="scale(1 1) rotate(0) translate(4 147)">
<title>logger.cc</title>
<polygon fill="white" stroke="none" points="-4,4 -4,-147 613,-147 613,4 -4,4"/>
<!-- Node1 -->
<g id="node1" class="node"><title>Node1</title>
<polygon fill="#bfbfbf" stroke="black" points="424,-123.5 424,-142.5 483,-142.5 483,-123.5 424,-123.5"/>
<text text-anchor="middle" x="453.5" y="-130.5" font-family="Helvetica,sans-Serif" font-size="10.00">logger.cc</text>
</g>
<!-- Node2 -->
<g id="node2" class="node"><title>Node2</title>
<g id="a_node2"><a xlink:href="logger_8h.xhtml" target="_top" xlink:title="Logging capability for various purposes, such as warnings and debugging. ">
<polygon fill="white" stroke="black" points="191,-67.5 191,-86.5 246,-86.5 246,-67.5 191,-67.5"/>
<text text-anchor="middle" x="218.5" y="-74.5" font-family="Helvetica,sans-Serif" font-size="10.00">logger.h</text>
</a>
</g>
</g>
<!-- Node1&#45;&gt;Node2 -->
<g id="edge1" class="edge"><title>Node1&#45;&gt;Node2</title>
<path fill="none" stroke="midnightblue" d="M423.737,-125.161C381.138,-115.372 302.793,-97.3695 256.196,-86.662"/>
<polygon fill="midnightblue" stroke="midnightblue" points="256.727,-83.193 246.197,-84.3645 255.16,-90.0152 256.727,-83.193"/>
</g>
<!-- Node8 -->
<g id="node8" class="node"><title>Node8</title>
<polygon fill="white" stroke="#bfbfbf" points="406,-67.5 406,-86.5 451,-86.5 451,-67.5 406,-67.5"/>
<text text-anchor="middle" x="428.5" y="-74.5" font-family="Helvetica,sans-Serif" font-size="10.00">cstdio</text>
</g>
<!-- Node1&#45;&gt;Node8 -->
<g id="edge7" class="edge"><title>Node1&#45;&gt;Node8</title>
<path fill="none" stroke="midnightblue" d="M449.372,-123.083C445.986,-115.77 441.084,-105.181 436.881,-96.1034"/>
<polygon fill="midnightblue" stroke="midnightblue" points="439.929,-94.3553 432.551,-86.7511 433.577,-97.2962 439.929,-94.3553"/>
</g>
<!-- Node9 -->
<g id="node9" class="node"><title>Node9</title>
<polygon fill="white" stroke="#bfbfbf" points="483.5,-6 483.5,-25 527.5,-25 527.5,-6 483.5,-6"/>
<text text-anchor="middle" x="505.5" y="-13" font-family="Helvetica,sans-Serif" font-size="10.00">string</text>
</g>
<!-- Node1&#45;&gt;Node9 -->
<g id="edge8" class="edge"><title>Node1&#45;&gt;Node9</title>
<path fill="none" stroke="midnightblue" d="M457.408,-123.319C465.878,-104.506 486.074,-59.6475 497.416,-34.4553"/>
<polygon fill="midnightblue" stroke="midnightblue" points="500.632,-35.8374 501.546,-25.282 494.249,-32.9636 500.632,-35.8374"/>
</g>
<!-- Node10 -->
<g id="node10" class="node"><title>Node10</title>
<g id="a_node10"><a xlink:href="error_8h.xhtml" target="_top" xlink:title="Exceptions for SCRAM. ">
<polygon fill="white" stroke="black" points="507.5,-67.5 507.5,-86.5 555.5,-86.5 555.5,-67.5 507.5,-67.5"/>
<text text-anchor="middle" x="531.5" y="-74.5" font-family="Helvetica,sans-Serif" font-size="10.00">error.h</text>
</a>
</g>
</g>
<!-- Node1&#45;&gt;Node10 -->
<g id="edge9" class="edge"><title>Node1&#45;&gt;Node10</title>
<path fill="none" stroke="midnightblue" d="M466.032,-123.324C478.086,-114.979 496.527,-102.212 510.769,-92.3524"/>
<polygon fill="midnightblue" stroke="midnightblue" points="512.769,-95.2243 518.999,-86.6545 508.785,-89.469 512.769,-95.2243"/>
</g>
<!-- Node3 -->
<g id="node3" class="node"><title>Node3</title>
<polygon fill="white" stroke="#bfbfbf" points="0,-6 0,-25 49,-25 49,-6 0,-6"/>
<text text-anchor="middle" x="24.5" y="-13" font-family="Helvetica,sans-Serif" font-size="10.00">cstdint</text>
</g>
<!-- Node2&#45;&gt;Node3 -->
<g id="edge2" class="edge"><title>Node2&#45;&gt;Node3</title>
<path fill="none" stroke="midnightblue" d="M190.988,-69.4124C158.842,-61.4517 104.224,-47.1044 58.5,-31 56.6388,-30.3445 54.7342,-29.6372 52.8234,-28.9001"/>
<polygon fill="midnightblue" stroke="midnightblue" points="53.9729,-25.5893 43.3909,-25.0672 51.3376,-32.0744 53.9729,-25.5893"/>
</g>
<!-- Node4 -->
<g id="node4" class="node"><title>Node4</title>
<polygon fill="white" stroke="#bfbfbf" points="67.5,-6 67.5,-25 117.5,-25 117.5,-6 67.5,-6"/>
<text text-anchor="middle" x="92.5" y="-13" font-family="Helvetica,sans-Serif" font-size="10.00">chrono</text>
</g>
<!-- Node2&#45;&gt;Node4 -->
<g id="edge3" class="edge"><title>Node2&#45;&gt;Node4</title>
<path fill="none" stroke="midnightblue" d="M200.447,-67.4751C179.302,-57.4897 144.06,-40.8476 119.622,-29.3075"/>
<polygon fill="midnightblue" stroke="midnightblue" points="121.056,-26.1143 110.519,-25.0091 118.067,-32.4441 121.056,-26.1143"/>
</g>
<!-- Node5 -->
<g id="node5" class="node"><title>Node5</title>
<polygon fill="white" stroke="#bfbfbf" points="135.5,-6 135.5,-25 191.5,-25 191.5,-6 135.5,-6"/>
<text text-anchor="middle" x="163.5" y="-13" font-family="Helvetica,sans-Serif" font-size="10.00">sstream</text>
</g>
<!-- Node2&#45;&gt;Node5 -->
<g id="edge4" class="edge"><title>Node2&#45;&gt;Node5</title>
<path fill="none" stroke="midnightblue" d="M210.62,-67.4751C202.206,-58.3733 188.681,-43.741 178.274,-32.483"/>
<polygon fill="midnightblue" stroke="midnightblue" points="180.724,-29.9766 171.366,-25.0091 175.583,-34.7282 180.724,-29.9766"/>
</g>
<!-- Node6 -->
<g id="node6" class="node"><title>Node6</title>
<polygon fill="white" stroke="#bfbfbf" points="209.5,-6 209.5,-25 337.5,-25 337.5,-6 209.5,-6"/>
<text text-anchor="middle" x="273.5" y="-13" font-family="Helvetica,sans-Serif" font-size="10.00">boost/noncopyable.hpp</text>
</g>
<!-- Node2&#45;&gt;Node6 -->
<g id="edge5" class="edge"><title>Node2&#45;&gt;Node6</title>
<path fill="none" stroke="midnightblue" d="M226.38,-67.4751C234.794,-58.3733 248.319,-43.741 258.726,-32.483"/>
<polygon fill="midnightblue" stroke="midnightblue" points="261.417,-34.7282 265.634,-25.0091 256.276,-29.9766 261.417,-34.7282"/>
</g>
<!-- Node7 -->
<g id="node7" class="node"><title>Node7</title>
<polygon fill="white" stroke="#bfbfbf" points="355.5,-0.5 355.5,-30.5 465.5,-30.5 465.5,-0.5 355.5,-0.5"/>
<text text-anchor="start" x="363.5" y="-18.5" font-family="Helvetica,sans-Serif" font-size="10.00">boost/preprocessor</text>
<text text-anchor="middle" x="410.5" y="-7.5" font-family="Helvetica,sans-Serif" font-size="10.00">/cat.hpp</text>
</g>
<!-- Node2&#45;&gt;Node7 -->
<g id="edge6" class="edge"><title>Node2&#45;&gt;Node7</title>
<path fill="none" stroke="midnightblue" d="M246.009,-67.4751C274.443,-58.6635 319.604,-44.6684 355.418,-33.5698"/>
<polygon fill="midnightblue" stroke="midnightblue" points="356.734,-36.8263 365.249,-30.523 354.661,-30.14 356.734,-36.8263"/>
</g>
<!-- Node10&#45;&gt;Node9 -->
<g id="edge11" class="edge"><title>Node10&#45;&gt;Node9</title>
<path fill="none" stroke="midnightblue" d="M527.775,-67.4751C524.029,-58.9035 518.14,-45.4269 513.358,-34.483"/>
<polygon fill="midnightblue" stroke="midnightblue" points="516.43,-32.771 509.218,-25.0091 510.015,-35.5739 516.43,-32.771"/>
</g>
<!-- Node11 -->
<g id="node11" class="node"><title>Node11</title>
<polygon fill="white" stroke="#bfbfbf" points="546,-6 546,-25 609,-25 609,-6 546,-6"/>
<text text-anchor="middle" x="577.5" y="-13" font-family="Helvetica,sans-Serif" font-size="10.00">exception</text>
</g>
<!-- Node10&#45;&gt;Node11 -->
<g id="edge10" class="edge"><title>Node10&#45;&gt;Node11</title>
<path fill="none" stroke="midnightblue" d="M538.091,-67.4751C544.991,-58.5501 556.002,-44.3071 564.634,-33.1425"/>
<polygon fill="midnightblue" stroke="midnightblue" points="567.574,-35.0612 570.922,-25.0091 562.036,-30.7798 567.574,-35.0612"/>
</g>
</g>
</svg>
