<?xml version="1.0" encoding="UTF-8" standalone="no"?>
<!DOCTYPE svg PUBLIC "-//W3C//DTD SVG 1.1//EN"
 "http://www.w3.org/Graphics/SVG/1.1/DTD/svg11.dtd">
<!-- Generated by graphviz version 2.38.0 (20140413.2041)
 -->
<!-- Title: mocus.cc Pages: 1 -->
<!--zoomable 397 -->
<svg id="main" version="1.1" xmlns="http://www.w3.org/2000/svg" xmlns:xlink="http://www.w3.org/1999/xlink" xml:space="preserve" onload="init(evt)">
<style type="text/css"><![CDATA[
.edge:hover path { stroke: red; }
.edge:hover polygon { stroke: red; fill: red; }
]]></style>
<script type="text/javascript"><![CDATA[
var edges = document.getElementsByTagName('g');
if (edges && edges.length) {
  for (var i=0;i<edges.length;i++) {
    if (edges[i].id.substr(0,4)=='edge') {
      edges[i].setAttribute('class','edge');
    }
  }
}
]]></script>
        <defs>
                <circle id="rim" cx="0" cy="0" r="7"/>
                <circle id="rim2" cx="0" cy="0" r="3.5"/>
                <g id="zoomPlus">
                        <use xlink:href="#rim" fill="#404040">
                                <set attributeName="fill" to="#808080" begin="zoomplus.mouseover" end="zoomplus.mouseout"/>
                        </use>
                        <path d="M-4,0h8M0,-4v8" fill="none" stroke="white" stroke-width="1.5" pointer-events="none"/>
                </g>
                <g id="zoomMin">
                        <use xlink:href="#rim" fill="#404040">
                                <set attributeName="fill" to="#808080" begin="zoomminus.mouseover" end="zoomminus.mouseout"/>
                        </use>
                        <path d="M-4,0h8" fill="none" stroke="white" stroke-width="1.5" pointer-events="none"/>
                </g>
                <g id="dirArrow">
                        <path fill="none" stroke="white" stroke-width="1.5" d="M0,-3.0v7 M-2.5,-0.5L0,-3.0L2.5,-0.5"/>
                </g>
               <g id="resetDef">
                       <use xlink:href="#rim2" fill="#404040">
                               <set attributeName="fill" to="#808080" begin="reset.mouseover" end="reset.mouseout"/>
                       </use>
               </g>
        </defs>

<script type="text/javascript">
var viewWidth = 2075;
var viewHeight = 397;
var sectionId = 'dynsection-0';
</script>
<script xlink:href="svgpan.js"/>
<svg id="graph" class="graph">
<g id="viewport">
<title>mocus.cc</title>
<polygon fill="white" stroke="none" points="-4,4 -4,-393 2071,-393 2071,4 -4,4"/>
<!-- Node1 -->
<g id="node1" class="node"><title>Node1</title>
<polygon fill="#bfbfbf" stroke="black" points="1419,-369.5 1419,-388.5 1481,-388.5 1481,-369.5 1419,-369.5"/>
<text text-anchor="middle" x="1450" y="-376.5" font-family="Helvetica,sans-Serif" font-size="10.00">mocus.cc</text>
</g>
<!-- Node2 -->
<g id="node2" class="node"><title>Node2</title>
<g id="a_node2"><a xlink:href="mocus_8h.xhtml" target="_top" xlink:title="Fault tree analysis with the MOCUS algorithm. ">
<polygon fill="white" stroke="black" points="1069,-313.5 1069,-332.5 1127,-332.5 1127,-313.5 1069,-313.5"/>
<text text-anchor="middle" x="1098" y="-320.5" font-family="Helvetica,sans-Serif" font-size="10.00">mocus.h</text>
</a>
</g>
</g>
<!-- Node1&#45;&gt;Node2 -->
<g id="edge1" class="edge"><title>Node1&#45;&gt;Node2</title>
<path fill="none" stroke="midnightblue" d="M1418.76,-373.208C1354.59,-363.363 1208.01,-340.877 1137.43,-330.048"/>
<polygon fill="midnightblue" stroke="midnightblue" points="1137.59,-326.533 1127.18,-328.476 1136.53,-333.452 1137.59,-326.533"/>
</g>
<!-- Node32 -->
<g id="node32" class="node"><title>Node32</title>
<g id="a_node32"><a xlink:href="logger_8h.xhtml" target="_top" xlink:title="Logging capability for various purposes, such as warnings and debugging. ">
<polygon fill="white" stroke="black" points="1808.5,-129 1808.5,-148 1863.5,-148 1863.5,-129 1808.5,-129"/>
<text text-anchor="middle" x="1836" y="-136" font-family="Helvetica,sans-Serif" font-size="10.00">logger.h</text>
</a>
</g>
</g>
<!-- Node1&#45;&gt;Node32 -->
<g id="edge55" class="edge"><title>Node1&#45;&gt;Node32</title>
<path fill="none" stroke="midnightblue" d="M1481.14,-372.628C1535.7,-362.01 1650.24,-334.235 1729,-277 1774.53,-243.915 1810.4,-186.289 1826.6,-157.272"/>
<polygon fill="midnightblue" stroke="midnightblue" points="1829.78,-158.744 1831.49,-148.288 1823.64,-155.396 1829.78,-158.744"/>
</g>
<!-- Node3 -->
<g id="node3" class="node"><title>Node3</title>
<polygon fill="white" stroke="#bfbfbf" points="1035.5,-62 1035.5,-81 1128.5,-81 1128.5,-62 1035.5,-62"/>
<text text-anchor="middle" x="1082" y="-69" font-family="Helvetica,sans-Serif" font-size="10.00">unordered_map</text>
</g>
<!-- Node2&#45;&gt;Node3 -->
<g id="edge2" class="edge"><title>Node2&#45;&gt;Node3</title>
<path fill="none" stroke="midnightblue" d="M1075.11,-313.416C1039.57,-299.093 970.764,-267.256 928,-221 905.467,-196.626 902.53,-186.329 895,-154 891.875,-140.581 886.623,-133.939 895,-123 896.128,-121.527 984.604,-98.0768 1039.44,-83.6563"/>
<polygon fill="midnightblue" stroke="midnightblue" points="1040.47,-87.0029 1049.26,-81.0761 1038.69,-80.2327 1040.47,-87.0029"/>
</g>
<!-- Node4 -->
<g id="node4" class="node"><title>Node4</title>
<polygon fill="white" stroke="#bfbfbf" points="90.5,-0.5 90.5,-19.5 137.5,-19.5 137.5,-0.5 90.5,-0.5"/>
<text text-anchor="middle" x="114" y="-7.5" font-family="Helvetica,sans-Serif" font-size="10.00">vector</text>
</g>
<!-- Node2&#45;&gt;Node4 -->
<g id="edge3" class="edge"><title>Node2&#45;&gt;Node4</title>
<path fill="none" stroke="midnightblue" d="M1068.91,-322.077C894.986,-322.168 0,-317.253 0,-206.5 0,-206.5 0,-206.5 0,-137.5 0,-85.0747 54.6991,-44.5813 88.3185,-24.6442"/>
<polygon fill="midnightblue" stroke="midnightblue" points="90.2384,-27.5782 97.1789,-19.5732 86.7613,-21.5028 90.2384,-27.5782"/>
</g>
<!-- Node5 -->
<g id="node5" class="node"><title>Node5</title>
<polygon fill="white" stroke="#bfbfbf" points="1501,-62 1501,-81 1629,-81 1629,-62 1501,-62"/>
<text text-anchor="middle" x="1565" y="-69" font-family="Helvetica,sans-Serif" font-size="10.00">boost/noncopyable.hpp</text>
</g>
<!-- Node2&#45;&gt;Node5 -->
<g id="edge4" class="edge"><title>Node2&#45;&gt;Node5</title>
<path fill="none" stroke="midnightblue" d="M1127.4,-315.868C1188.65,-302.591 1333.81,-268.51 1449,-221 1506.19,-197.413 1539.5,-207.239 1571,-154 1582.43,-134.687 1577.44,-108.127 1571.97,-90.6476"/>
<polygon fill="midnightblue" stroke="midnightblue" points="1575.23,-89.3754 1568.63,-81.0839 1568.62,-91.6787 1575.23,-89.3754"/>
</g>
<!-- Node6 -->
<g id="node6" class="node"><title>Node6</title>
<g id="a_node6"><a xlink:href="pdag_8h.xhtml" target="_top" xlink:title="Classes and facilities to represent fault trees as PDAGs with event and gate indices instead of ID na...">
<polygon fill="white" stroke="black" points="701,-129 701,-148 751,-148 751,-129 701,-129"/>
<text text-anchor="middle" x="726" y="-136" font-family="Helvetica,sans-Serif" font-size="10.00">pdag.h</text>
</a>
</g>
</g>
<!-- Node2&#45;&gt;Node6 -->
<g id="edge5" class="edge"><title>Node2&#45;&gt;Node6</title>
<path fill="none" stroke="midnightblue" d="M1068.55,-319.69C1008.11,-314.52 872.452,-300.587 833,-277 784.231,-247.842 749.42,-187.438 734.343,-157.345"/>
<polygon fill="midnightblue" stroke="midnightblue" points="737.355,-155.536 729.842,-148.066 731.057,-158.591 737.355,-155.536"/>
</g>
<!-- Node21 -->
<g id="node21" class="node"><title>Node21</title>
<g id="a_node21"><a xlink:href="settings_8h.xhtml" target="_top" xlink:title="Builder for settings. ">
<polygon fill="white" stroke="black" points="1685,-129 1685,-148 1749,-148 1749,-129 1685,-129"/>
<text text-anchor="middle" x="1717" y="-136" font-family="Helvetica,sans-Serif" font-size="10.00">settings.h</text>
</a>
</g>
</g>
<!-- Node2&#45;&gt;Node21 -->
<g id="edge28" class="edge"><title>Node2&#45;&gt;Node21</title>
<path fill="none" stroke="midnightblue" d="M1127.22,-322.054C1243.34,-321.979 1667.81,-318.825 1709,-277 1740.09,-245.425 1730.36,-187.507 1722.62,-157.934"/>
<polygon fill="midnightblue" stroke="midnightblue" points="1725.93,-156.771 1719.84,-148.101 1719.19,-158.677 1725.93,-156.771"/>
</g>
<!-- Node23 -->
<g id="node23" class="node"><title>Node23</title>
<g id="a_node23"><a xlink:href="zbdd_8h.xhtml" target="_top" xlink:title="Zero&#45;Suppressed Binary Decision Diagram facilities. ">
<polygon fill="white" stroke="black" points="1073.5,-257.5 1073.5,-276.5 1122.5,-276.5 1122.5,-257.5 1073.5,-257.5"/>
<text text-anchor="middle" x="1098" y="-264.5" font-family="Helvetica,sans-Serif" font-size="10.00">zbdd.h</text>
</a>
</g>
</g>
<!-- Node2&#45;&gt;Node23 -->
<g id="edge31" class="edge"><title>Node2&#45;&gt;Node23</title>
<path fill="none" stroke="midnightblue" d="M1098,-313.083C1098,-306.006 1098,-295.861 1098,-286.986"/>
<polygon fill="midnightblue" stroke="midnightblue" points="1101.5,-286.751 1098,-276.751 1094.5,-286.751 1101.5,-286.751"/>
</g>
<!-- Node6&#45;&gt;Node3 -->
<g id="edge11" class="edge"><title>Node6&#45;&gt;Node3</title>
<path fill="none" stroke="midnightblue" d="M751.029,-134.036C802.687,-126.721 924.756,-108.586 1026,-87 1030.97,-85.9408 1036.16,-84.7341 1041.29,-83.4796"/>
<polygon fill="midnightblue" stroke="midnightblue" points="1042.17,-86.868 1051.01,-81.0344 1040.46,-80.0795 1042.17,-86.868"/>
</g>
<!-- Node6&#45;&gt;Node4 -->
<g id="edge13" class="edge"><title>Node6&#45;&gt;Node4</title>
<path fill="none" stroke="midnightblue" d="M709.534,-128.876C691.71,-119.328 662.659,-103.143 639,-87 620.71,-74.5202 620.546,-64.2534 600,-56 517.486,-22.8543 243.602,-13.8107 147.601,-11.628"/>
<polygon fill="midnightblue" stroke="midnightblue" points="147.647,-8.12824 137.574,-11.4105 147.495,-15.1266 147.647,-8.12824"/>
</g>
<!-- Node6&#45;&gt;Node5 -->
<g id="edge15" class="edge"><title>Node6&#45;&gt;Node5</title>
<path fill="none" stroke="midnightblue" d="M751.053,-135.419C785.505,-132.567 849.446,-127.306 904,-123 1116.87,-106.198 1368.38,-87.2251 1490.71,-78.0532"/>
<polygon fill="midnightblue" stroke="midnightblue" points="1491.01,-81.5409 1500.72,-77.3032 1490.48,-74.5604 1491.01,-81.5409"/>
</g>
<!-- Node7 -->
<g id="node7" class="node"><title>Node7</title>
<polygon fill="white" stroke="#bfbfbf" points="1747.5,-62 1747.5,-81 1796.5,-81 1796.5,-62 1747.5,-62"/>
<text text-anchor="middle" x="1772" y="-69" font-family="Helvetica,sans-Serif" font-size="10.00">cstdint</text>
</g>
<!-- Node6&#45;&gt;Node7 -->
<g id="edge6" class="edge"><title>Node6&#45;&gt;Node7</title>
<path fill="none" stroke="midnightblue" d="M751.035,-135.158C785.465,-132.006 849.382,-126.402 904,-123 1089.15,-111.467 1557.09,-128.049 1738,-87 1740.52,-86.4285 1743.09,-85.6782 1745.62,-84.8195"/>
<polygon fill="midnightblue" stroke="midnightblue" points="1747.06,-88.0155 1755.11,-81.1195 1744.52,-81.4944 1747.06,-88.0155"/>
</g>
<!-- Node8 -->
<g id="node8" class="node"><title>Node8</title>
<polygon fill="white" stroke="#bfbfbf" points="218.5,-62 218.5,-81 265.5,-81 265.5,-62 218.5,-62"/>
<text text-anchor="middle" x="242" y="-69" font-family="Helvetica,sans-Serif" font-size="10.00">cstdlib</text>
</g>
<!-- Node6&#45;&gt;Node8 -->
<g id="edge7" class="edge"><title>Node6&#45;&gt;Node8</title>
<path fill="none" stroke="midnightblue" d="M700.821,-137.325C631.598,-136.284 433.064,-129.515 275,-87 272.706,-86.3829 270.366,-85.6298 268.045,-84.7947"/>
<polygon fill="midnightblue" stroke="midnightblue" points="269.354,-81.5489 258.771,-81.0384 266.726,-88.0368 269.354,-81.5489"/>
</g>
<!-- Node9 -->
<g id="node9" class="node"><title>Node9</title>
<polygon fill="white" stroke="#bfbfbf" points="789,-0.5 789,-19.5 851,-19.5 851,-0.5 789,-0.5"/>
<text text-anchor="middle" x="820" y="-7.5" font-family="Helvetica,sans-Serif" font-size="10.00">algorithm</text>
</g>
<!-- Node6&#45;&gt;Node9 -->
<g id="edge8" class="edge"><title>Node6&#45;&gt;Node9</title>
<path fill="none" stroke="midnightblue" d="M732.461,-128.805C747.889,-108.043 787.101,-55.274 807.397,-27.9599"/>
<polygon fill="midnightblue" stroke="midnightblue" points="810.339,-29.8698 813.494,-19.7557 804.72,-25.6947 810.339,-29.8698"/>
</g>
<!-- Node10 -->
<g id="node10" class="node"><title>Node10</title>
<polygon fill="white" stroke="#bfbfbf" points="284,-62 284,-81 330,-81 330,-62 284,-62"/>
<text text-anchor="middle" x="307" y="-69" font-family="Helvetica,sans-Serif" font-size="10.00">iosfwd</text>
</g>
<!-- Node6&#45;&gt;Node10 -->
<g id="edge9" class="edge"><title>Node6&#45;&gt;Node10</title>
<path fill="none" stroke="midnightblue" d="M700.579,-136.767C637.935,-134.41 471.607,-124.788 339,-87 337.064,-86.4484 335.096,-85.7981 333.135,-85.0836"/>
<polygon fill="midnightblue" stroke="midnightblue" points="334.165,-81.7222 323.587,-81.1374 331.492,-88.1915 334.165,-81.7222"/>
</g>
<!-- Node11 -->
<g id="node11" class="node"><title>Node11</title>
<polygon fill="white" stroke="#bfbfbf" points="960.5,-62 960.5,-81 1017.5,-81 1017.5,-62 960.5,-62"/>
<text text-anchor="middle" x="989" y="-69" font-family="Helvetica,sans-Serif" font-size="10.00">memory</text>
</g>
<!-- Node6&#45;&gt;Node11 -->
<g id="edge10" class="edge"><title>Node6&#45;&gt;Node11</title>
<path fill="none" stroke="midnightblue" d="M751.258,-132.035C800.83,-121.253 909.232,-97.3913 946,-87 949.011,-86.149 952.123,-85.213 955.232,-84.2389"/>
<polygon fill="midnightblue" stroke="midnightblue" points="956.597,-87.4754 965.025,-81.0549 954.433,-80.8184 956.597,-87.4754"/>
</g>
<!-- Node12 -->
<g id="node12" class="node"><title>Node12</title>
<polygon fill="white" stroke="#bfbfbf" points="911,-0.5 911,-19.5 953,-19.5 953,-0.5 911,-0.5"/>
<text text-anchor="middle" x="932" y="-7.5" font-family="Helvetica,sans-Serif" font-size="10.00">utility</text>
</g>
<!-- Node6&#45;&gt;Node12 -->
<g id="edge12" class="edge"><title>Node6&#45;&gt;Node12</title>
<path fill="none" stroke="midnightblue" d="M751.062,-132.157C799.127,-121.7 900.54,-98.5495 912,-87 926.913,-71.97 931.095,-47.234 932.076,-30.0827"/>
<polygon fill="midnightblue" stroke="midnightblue" points="935.586,-29.7171 932.337,-19.633 928.589,-29.5427 935.586,-29.7171"/>
</g>
<!-- Node13 -->
<g id="node13" class="node"><title>Node13</title>
<polygon fill="white" stroke="#bfbfbf" points="348,-56.5 348,-86.5 458,-86.5 458,-56.5 348,-56.5"/>
<text text-anchor="start" x="356" y="-74.5" font-family="Helvetica,sans-Serif" font-size="10.00">boost/container/flat</text>
<text text-anchor="middle" x="403" y="-63.5" font-family="Helvetica,sans-Serif" font-size="10.00">_set.hpp</text>
</g>
<!-- Node6&#45;&gt;Node13 -->
<g id="edge14" class="edge"><title>Node6&#45;&gt;Node13</title>
<path fill="none" stroke="midnightblue" d="M700.947,-132.876C656.281,-124.576 559.726,-106.381 468.125,-87.2026"/>
<polygon fill="midnightblue" stroke="midnightblue" points="468.641,-83.7346 458.135,-85.1027 467.201,-90.5849 468.641,-83.7346"/>
</g>
<!-- Node14 -->
<g id="node14" class="node"><title>Node14</title>
<polygon fill="white" stroke="#bfbfbf" points="476.5,-56.5 476.5,-86.5 591.5,-86.5 591.5,-56.5 476.5,-56.5"/>
<text text-anchor="start" x="484.5" y="-74.5" font-family="Helvetica,sans-Serif" font-size="10.00">boost/range/adaptor</text>
<text text-anchor="middle" x="534" y="-63.5" font-family="Helvetica,sans-Serif" font-size="10.00">/transformed.hpp</text>
</g>
<!-- Node6&#45;&gt;Node14 -->
<g id="edge16" class="edge"><title>Node6&#45;&gt;Node14</title>
<path fill="none" stroke="midnightblue" d="M700.899,-129.002C671.693,-119.115 622.707,-102.531 585.338,-89.88"/>
<polygon fill="midnightblue" stroke="midnightblue" points="586.215,-86.4818 575.62,-86.5903 583.97,-93.1122 586.215,-86.4818"/>
</g>
<!-- Node15 -->
<g id="node15" class="node"><title>Node15</title>
<g id="a_node15"><a xlink:href="find__iterator_8h.xhtml" target="_top" xlink:title="Convenience iterator adaptor to wrap find calls and results. ">
<polygon fill="white" stroke="black" points="802.5,-62 802.5,-81 903.5,-81 903.5,-62 802.5,-62"/>
<text text-anchor="middle" x="853" y="-69" font-family="Helvetica,sans-Serif" font-size="10.00">ext/find_iterator.h</text>
</a>
</g>
</g>
<!-- Node6&#45;&gt;Node15 -->
<g id="edge17" class="edge"><title>Node6&#45;&gt;Node15</title>
<path fill="none" stroke="midnightblue" d="M742.865,-128.869C764.403,-117.845 801.896,-98.6554 827.077,-85.7678"/>
<polygon fill="midnightblue" stroke="midnightblue" points="828.758,-88.8389 836.066,-81.1672 825.569,-82.6077 828.758,-88.8389"/>
</g>
<!-- Node16 -->
<g id="node16" class="node"><title>Node16</title>
<g id="a_node16"><a xlink:href="index__map_8h.xhtml" target="_top" xlink:title="Non&#45;zero based Index&#45;&gt;Value map adapter on sequential containers. ">
<polygon fill="white" stroke="black" points="104,-62 104,-81 200,-81 200,-62 104,-62"/>
<text text-anchor="middle" x="152" y="-69" font-family="Helvetica,sans-Serif" font-size="10.00">ext/index_map.h</text>
</a>
</g>
</g>
<!-- Node6&#45;&gt;Node16 -->
<g id="edge19" class="edge"><title>Node6&#45;&gt;Node16</title>
<path fill="none" stroke="midnightblue" d="M700.8,-136.395C625.57,-132.807 396.218,-119.761 209,-87 203.468,-86.032 197.682,-84.8106 192.007,-83.4894"/>
<polygon fill="midnightblue" stroke="midnightblue" points="192.534,-80.0153 181.989,-81.0367 190.87,-86.8145 192.534,-80.0153"/>
</g>
<!-- Node17 -->
<g id="node17" class="node"><title>Node17</title>
<g id="a_node17"><a xlink:href="linear__map_8h.xhtml" target="_top" xlink:title="Implementation of a vector&#45;based map for a small number of entries. ">
<polygon fill="white" stroke="black" points="648.5,-62 648.5,-81 745.5,-81 745.5,-62 648.5,-62"/>
<text text-anchor="middle" x="697" y="-69" font-family="Helvetica,sans-Serif" font-size="10.00">ext/linear_map.h</text>
</a>
</g>
</g>
<!-- Node6&#45;&gt;Node17 -->
<g id="edge21" class="edge"><title>Node6&#45;&gt;Node17</title>
<path fill="none" stroke="midnightblue" d="M722.089,-128.734C717.741,-118.988 710.599,-102.981 705.045,-90.5318"/>
<polygon fill="midnightblue" stroke="midnightblue" points="708.12,-88.8336 700.849,-81.1273 701.727,-91.6857 708.12,-88.8336"/>
</g>
<!-- Node15&#45;&gt;Node12 -->
<g id="edge18" class="edge"><title>Node15&#45;&gt;Node12</title>
<path fill="none" stroke="midnightblue" d="M864.319,-61.9751C876.873,-52.5199 897.351,-37.0961 912.499,-25.6871"/>
<polygon fill="midnightblue" stroke="midnightblue" points="914.82,-28.321 920.702,-19.5091 910.609,-22.7295 914.82,-28.321"/>
</g>
<!-- Node16&#45;&gt;Node4 -->
<g id="edge20" class="edge"><title>Node16&#45;&gt;Node4</title>
<path fill="none" stroke="midnightblue" d="M146.556,-61.9751C140.912,-53.1384 131.939,-39.0886 124.841,-27.975"/>
<polygon fill="midnightblue" stroke="midnightblue" points="127.767,-26.0531 119.434,-19.5091 121.867,-29.8208 127.767,-26.0531"/>
</g>
<!-- Node17&#45;&gt;Node4 -->
<g id="edge26" class="edge"><title>Node17&#45;&gt;Node4</title>
<path fill="none" stroke="midnightblue" d="M663.82,-61.9482C654.249,-59.7309 643.756,-57.5372 634,-56 451.991,-27.3234 231.054,-15.8116 147.856,-12.2888"/>
<polygon fill="midnightblue" stroke="midnightblue" points="147.86,-8.78613 137.724,-11.8709 147.572,-15.7802 147.86,-8.78613"/>
</g>
<!-- Node17&#45;&gt;Node9 -->
<g id="edge23" class="edge"><title>Node17&#45;&gt;Node9</title>
<path fill="none" stroke="midnightblue" d="M714.623,-61.9751C735.174,-52.0338 769.364,-35.4947 793.207,-23.961"/>
<polygon fill="midnightblue" stroke="midnightblue" points="794.932,-27.0145 802.41,-19.5091 791.884,-20.7131 794.932,-27.0145"/>
</g>
<!-- Node17&#45;&gt;Node12 -->
<g id="edge27" class="edge"><title>Node17&#45;&gt;Node12</title>
<path fill="none" stroke="midnightblue" d="M730.67,-61.9751C776.257,-50.4327 856.974,-29.996 901.09,-18.8261"/>
<polygon fill="midnightblue" stroke="midnightblue" points="902.123,-22.1751 910.958,-16.3277 900.405,-15.3893 902.123,-22.1751"/>
</g>
<!-- Node18 -->
<g id="node18" class="node"><title>Node18</title>
<polygon fill="white" stroke="#bfbfbf" points="541,-0.5 541,-19.5 593,-19.5 593,-0.5 541,-0.5"/>
<text text-anchor="middle" x="567" y="-7.5" font-family="Helvetica,sans-Serif" font-size="10.00">cassert</text>
</g>
<!-- Node17&#45;&gt;Node18 -->
<g id="edge22" class="edge"><title>Node17&#45;&gt;Node18</title>
<path fill="none" stroke="midnightblue" d="M678.374,-61.9751C656.557,-51.9897 620.196,-35.3476 594.983,-23.8075"/>
<polygon fill="midnightblue" stroke="midnightblue" points="596.141,-20.4884 585.591,-19.5091 593.228,-26.8534 596.141,-20.4884"/>
</g>
<!-- Node19 -->
<g id="node19" class="node"><title>Node19</title>
<polygon fill="white" stroke="#bfbfbf" points="611.5,-0.5 611.5,-19.5 688.5,-19.5 688.5,-0.5 611.5,-0.5"/>
<text text-anchor="middle" x="650" y="-7.5" font-family="Helvetica,sans-Serif" font-size="10.00">initializer_list</text>
</g>
<!-- Node17&#45;&gt;Node19 -->
<g id="edge24" class="edge"><title>Node17&#45;&gt;Node19</title>
<path fill="none" stroke="midnightblue" d="M690.266,-61.9751C683.216,-53.0501 671.965,-38.8071 663.146,-27.6425"/>
<polygon fill="midnightblue" stroke="midnightblue" points="665.667,-25.1867 656.721,-19.5091 660.174,-29.5258 665.667,-25.1867"/>
</g>
<!-- Node20 -->
<g id="node20" class="node"><title>Node20</title>
<polygon fill="white" stroke="#bfbfbf" points="707,-0.5 707,-19.5 771,-19.5 771,-0.5 707,-0.5"/>
<text text-anchor="middle" x="739" y="-7.5" font-family="Helvetica,sans-Serif" font-size="10.00">stdexcept</text>
</g>
<!-- Node17&#45;&gt;Node20 -->
<g id="edge25" class="edge"><title>Node17&#45;&gt;Node20</title>
<path fill="none" stroke="midnightblue" d="M703.018,-61.9751C709.255,-53.1384 719.173,-39.0886 727.018,-27.975"/>
<polygon fill="midnightblue" stroke="midnightblue" points="730.086,-29.6972 732.994,-19.5091 724.367,-25.6604 730.086,-29.6972"/>
</g>
<!-- Node21&#45;&gt;Node7 -->
<g id="edge29" class="edge"><title>Node21&#45;&gt;Node7</title>
<path fill="none" stroke="midnightblue" d="M1724.42,-128.734C1732.99,-118.598 1747.3,-101.69 1757.99,-89.0556"/>
<polygon fill="midnightblue" stroke="midnightblue" points="1760.91,-91.022 1764.7,-81.1273 1755.57,-86.5004 1760.91,-91.022"/>
</g>
<!-- Node22 -->
<g id="node22" class="node"><title>Node22</title>
<polygon fill="white" stroke="#bfbfbf" points="1685,-62 1685,-81 1729,-81 1729,-62 1685,-62"/>
<text text-anchor="middle" x="1707" y="-69" font-family="Helvetica,sans-Serif" font-size="10.00">string</text>
</g>
<!-- Node21&#45;&gt;Node22 -->
<g id="edge30" class="edge"><title>Node21&#45;&gt;Node22</title>
<path fill="none" stroke="midnightblue" d="M1715.65,-128.734C1714.18,-119.183 1711.79,-103.618 1709.89,-91.2829"/>
<polygon fill="midnightblue" stroke="midnightblue" points="1713.31,-90.4788 1708.33,-81.1273 1706.39,-91.5432 1713.31,-90.4788"/>
</g>
<!-- Node23&#45;&gt;Node3 -->
<g id="edge36" class="edge"><title>Node23&#45;&gt;Node3</title>
<path fill="none" stroke="midnightblue" d="M1073.49,-260.997C1029.03,-250.391 936.694,-220.915 904,-154 897.952,-141.621 895.693,-133.992 904,-123 906.111,-120.207 987.932,-97.7885 1039.9,-83.7763"/>
<polygon fill="midnightblue" stroke="midnightblue" points="1041.11,-87.0737 1049.86,-81.0942 1039.29,-80.3144 1041.11,-87.0737"/>
</g>
<!-- Node23&#45;&gt;Node4 -->
<g id="edge38" class="edge"><title>Node23&#45;&gt;Node4</title>
<path fill="none" stroke="midnightblue" d="M1073.45,-265.921C939.199,-265.083 294.066,-255.747 129,-154 98.6735,-135.307 95.2055,-121.132 85,-87 81.0531,-73.7997 81.11,-69.2172 85,-56 88.0124,-45.7645 94.1546,-35.6599 100.014,-27.627"/>
<polygon fill="midnightblue" stroke="midnightblue" points="102.932,-29.5773 106.327,-19.5413 97.4142,-25.2694 102.932,-29.5773"/>
</g>
<!-- Node23&#45;&gt;Node5 -->
<g id="edge41" class="edge"><title>Node23&#45;&gt;Node5</title>
<path fill="none" stroke="midnightblue" d="M1122.79,-263.477C1208.69,-254.209 1491.57,-219.151 1550,-154 1565.27,-136.971 1567.36,-109.656 1566.75,-91.401"/>
<polygon fill="midnightblue" stroke="midnightblue" points="1570.24,-91.1371 1566.11,-81.3786 1563.25,-91.5801 1570.24,-91.1371"/>
</g>
<!-- Node23&#45;&gt;Node7 -->
<g id="edge32" class="edge"><title>Node23&#45;&gt;Node7</title>
<path fill="none" stroke="midnightblue" d="M1122.79,-265.248C1214.65,-262.255 1535.36,-249.921 1633,-221 1693.44,-203.098 1721.15,-205.138 1758,-154 1771.22,-135.655 1773.47,-109.034 1773.25,-91.2646"/>
<polygon fill="midnightblue" stroke="midnightblue" points="1776.74,-90.8914 1772.83,-81.0413 1769.74,-91.1749 1776.74,-90.8914"/>
</g>
<!-- Node23&#45;&gt;Node11 -->
<g id="edge35" class="edge"><title>Node23&#45;&gt;Node11</title>
<path fill="none" stroke="midnightblue" d="M1073.49,-265.675C1037.67,-263.96 970.643,-255.906 928,-221 892.436,-191.889 871.414,-162.445 895,-123 907.092,-102.777 930.371,-90.1838 950.737,-82.6303"/>
<polygon fill="midnightblue" stroke="midnightblue" points="952.107,-85.8608 960.439,-79.3157 949.844,-79.2367 952.107,-85.8608"/>
</g>
<!-- Node23&#45;&gt;Node12 -->
<g id="edge37" class="edge"><title>Node23&#45;&gt;Node12</title>
<path fill="none" stroke="midnightblue" d="M1122.82,-264.957C1247.61,-258.923 1794.41,-222.699 1638,-56 1614.6,-31.063 1097.46,-15.4539 963.473,-11.8187"/>
<polygon fill="midnightblue" stroke="midnightblue" points="963.191,-8.30995 953.101,-11.5405 963.003,-15.3074 963.191,-8.30995"/>
</g>
<!-- Node24 -->
<g id="node24" class="node"><title>Node24</title>
<polygon fill="white" stroke="#bfbfbf" points="1019.5,-196 1019.5,-215 1060.5,-215 1060.5,-196 1019.5,-196"/>
<text text-anchor="middle" x="1040" y="-203" font-family="Helvetica,sans-Serif" font-size="10.00">array</text>
</g>
<!-- Node23&#45;&gt;Node24 -->
<g id="edge33" class="edge"><title>Node23&#45;&gt;Node24</title>
<path fill="none" stroke="midnightblue" d="M1089.69,-257.475C1080.82,-248.373 1066.55,-233.741 1055.58,-222.483"/>
<polygon fill="midnightblue" stroke="midnightblue" points="1057.78,-219.727 1048.29,-215.009 1052.77,-224.613 1057.78,-219.727"/>
</g>
<!-- Node25 -->
<g id="node25" class="node"><title>Node25</title>
<polygon fill="white" stroke="#bfbfbf" points="1079,-196 1079,-215 1117,-215 1117,-196 1079,-196"/>
<text text-anchor="middle" x="1098" y="-203" font-family="Helvetica,sans-Serif" font-size="10.00">map</text>
</g>
<!-- Node23&#45;&gt;Node25 -->
<g id="edge34" class="edge"><title>Node23&#45;&gt;Node25</title>
<path fill="none" stroke="midnightblue" d="M1098,-257.475C1098,-249.08 1098,-235.981 1098,-225.163"/>
<polygon fill="midnightblue" stroke="midnightblue" points="1101.5,-225.009 1098,-215.009 1094.5,-225.009 1101.5,-225.009"/>
</g>
<!-- Node26 -->
<g id="node26" class="node"><title>Node26</title>
<polygon fill="white" stroke="#bfbfbf" points="913,-129 913,-148 1053,-148 1053,-129 913,-129"/>
<text text-anchor="middle" x="983" y="-136" font-family="Helvetica,sans-Serif" font-size="10.00">boost/functional/hash.hpp</text>
</g>
<!-- Node23&#45;&gt;Node26 -->
<g id="edge39" class="edge"><title>Node23&#45;&gt;Node26</title>
<path fill="none" stroke="midnightblue" d="M1073.46,-259.158C1053.73,-252.466 1026.65,-240.406 1010,-221 994.642,-203.096 987.954,-176.184 985.086,-158.242"/>
<polygon fill="midnightblue" stroke="midnightblue" points="988.532,-157.603 983.725,-148.162 981.595,-158.54 988.532,-157.603"/>
</g>
<!-- Node27 -->
<g id="node27" class="node"><title>Node27</title>
<polygon fill="white" stroke="#bfbfbf" points="1197,-190.5 1197,-220.5 1317,-220.5 1317,-190.5 1197,-190.5"/>
<text text-anchor="start" x="1205" y="-208.5" font-family="Helvetica,sans-Serif" font-size="10.00">boost/iterator/iterator</text>
<text text-anchor="middle" x="1257" y="-197.5" font-family="Helvetica,sans-Serif" font-size="10.00">_facade.hpp</text>
</g>
<!-- Node23&#45;&gt;Node27 -->
<g id="edge40" class="edge"><title>Node23&#45;&gt;Node27</title>
<path fill="none" stroke="midnightblue" d="M1120.78,-257.475C1143.93,-248.814 1180.45,-235.145 1209.86,-224.141"/>
<polygon fill="midnightblue" stroke="midnightblue" points="1211.39,-227.306 1219.53,-220.523 1208.93,-220.75 1211.39,-227.306"/>
</g>
<!-- Node28 -->
<g id="node28" class="node"><title>Node28</title>
<g id="a_node28"><a xlink:href="bdd_8h.xhtml" target="_top" xlink:title="Fault tree analysis with the Binary Decision Diagram algorithms. ">
<polygon fill="white" stroke="black" points="1135,-196 1135,-215 1179,-215 1179,-196 1135,-196"/>
<text text-anchor="middle" x="1157" y="-203" font-family="Helvetica,sans-Serif" font-size="10.00">bdd.h</text>
</a>
</g>
</g>
<!-- Node23&#45;&gt;Node28 -->
<g id="edge42" class="edge"><title>Node23&#45;&gt;Node28</title>
<path fill="none" stroke="midnightblue" d="M1106.45,-257.475C1115.57,-248.285 1130.27,-233.456 1141.48,-222.156"/>
<polygon fill="midnightblue" stroke="midnightblue" points="1144.01,-224.574 1148.56,-215.009 1139.04,-219.646 1144.01,-224.574"/>
</g>
<!-- Node28&#45;&gt;Node3 -->
<g id="edge47" class="edge"><title>Node28&#45;&gt;Node3</title>
<path fill="none" stroke="midnightblue" d="M1152.08,-195.839C1139.89,-174.393 1108.13,-118.489 1091.88,-89.8952"/>
<polygon fill="midnightblue" stroke="midnightblue" points="1094.82,-87.9867 1086.84,-81.0212 1088.74,-91.4448 1094.82,-87.9867"/>
</g>
<!-- Node28&#45;&gt;Node4 -->
<g id="edge49" class="edge"><title>Node28&#45;&gt;Node4</title>
<path fill="none" stroke="midnightblue" d="M1141.32,-195.851C1136.53,-193.576 1131.17,-191.375 1126,-190 938.961,-140.216 884.637,-172.795 692,-154 426.263,-128.073 272.958,-286.047 95,-87 80.4678,-70.7457 91.5873,-45.0454 101.93,-28.1038"/>
<polygon fill="midnightblue" stroke="midnightblue" points="104.877,-29.9917 107.428,-19.7085 99.0214,-26.1565 104.877,-29.9917"/>
</g>
<!-- Node28&#45;&gt;Node5 -->
<g id="edge51" class="edge"><title>Node28&#45;&gt;Node5</title>
<path fill="none" stroke="midnightblue" d="M1172.7,-195.929C1177.49,-193.656 1182.85,-191.437 1188,-190 1260.33,-169.816 1462.27,-196.755 1524,-154 1545.23,-139.3 1556.04,-110.276 1561.1,-91.1303"/>
<polygon fill="midnightblue" stroke="midnightblue" points="1564.56,-91.7183 1563.45,-81.1817 1557.75,-90.1102 1564.56,-91.7183"/>
</g>
<!-- Node28&#45;&gt;Node6 -->
<g id="edge53" class="edge"><title>Node28&#45;&gt;Node6</title>
<path fill="none" stroke="midnightblue" d="M1141.28,-195.99C1136.49,-193.719 1131.14,-191.486 1126,-190 1057.65,-170.231 845.586,-150.012 761.179,-142.525"/>
<polygon fill="midnightblue" stroke="midnightblue" points="761.339,-139.026 751.071,-141.636 760.725,-145.999 761.339,-139.026"/>
</g>
<!-- Node28&#45;&gt;Node9 -->
<g id="edge44" class="edge"><title>Node28&#45;&gt;Node9</title>
<path fill="none" stroke="midnightblue" d="M1158.95,-195.958C1164.18,-170.575 1175.67,-94.9511 1137,-56 1127.36,-46.2948 945.146,-24.9113 861.43,-15.5451"/>
<polygon fill="midnightblue" stroke="midnightblue" points="861.576,-12.0398 851.25,-14.4111 860.801,-18.9968 861.576,-12.0398"/>
</g>
<!-- Node28&#45;&gt;Node11 -->
<g id="edge46" class="edge"><title>Node28&#45;&gt;Node11</title>
<path fill="none" stroke="midnightblue" d="M1147.57,-195.83C1130.8,-180.554 1094.52,-148.088 1062,-123 1045.23,-110.059 1025.42,-96.4548 1010.67,-86.6307"/>
<polygon fill="midnightblue" stroke="midnightblue" points="1012.49,-83.6358 1002.21,-81.0421 1008.63,-89.4757 1012.49,-83.6358"/>
</g>
<!-- Node28&#45;&gt;Node12 -->
<g id="edge48" class="edge"><title>Node28&#45;&gt;Node12</title>
<path fill="none" stroke="midnightblue" d="M1161.56,-195.894C1174.05,-170.971 1205.71,-97.8596 1171,-56 1144.99,-24.6389 1022.37,-14.9878 963.584,-12.1368"/>
<polygon fill="midnightblue" stroke="midnightblue" points="963.534,-8.63117 953.388,-11.6799 963.221,-15.6241 963.534,-8.63117"/>
</g>
<!-- Node28&#45;&gt;Node21 -->
<g id="edge54" class="edge"><title>Node28&#45;&gt;Node21</title>
<path fill="none" stroke="midnightblue" d="M1172.69,-195.892C1177.48,-193.617 1182.84,-191.407 1188,-190 1199.73,-186.8 1551.01,-154.612 1674.54,-143.359"/>
<polygon fill="midnightblue" stroke="midnightblue" points="1675.11,-146.822 1684.75,-142.43 1674.47,-139.851 1675.11,-146.822"/>
</g>
<!-- Node28&#45;&gt;Node26 -->
<g id="edge50" class="edge"><title>Node28&#45;&gt;Node26</title>
<path fill="none" stroke="midnightblue" d="M1139.43,-195.916C1135.08,-193.892 1130.4,-191.801 1126,-190 1090.25,-175.369 1048.52,-160.923 1019.39,-151.254"/>
<polygon fill="midnightblue" stroke="midnightblue" points="1020.24,-147.849 1009.65,-148.041 1018.05,-154.497 1020.24,-147.849"/>
</g>
<!-- Node29 -->
<g id="node29" class="node"><title>Node29</title>
<polygon fill="white" stroke="#bfbfbf" points="1223.5,-129 1223.5,-148 1270.5,-148 1270.5,-129 1223.5,-129"/>
<text text-anchor="middle" x="1247" y="-136" font-family="Helvetica,sans-Serif" font-size="10.00">cmath</text>
</g>
<!-- Node28&#45;&gt;Node29 -->
<g id="edge43" class="edge"><title>Node28&#45;&gt;Node29</title>
<path fill="none" stroke="midnightblue" d="M1169.14,-195.734C1183.85,-185.111 1208.86,-167.049 1226.56,-154.264"/>
<polygon fill="midnightblue" stroke="midnightblue" points="1229,-156.82 1235.05,-148.127 1224.9,-151.145 1229,-156.82"/>
</g>
<!-- Node30 -->
<g id="node30" class="node"><title>Node30</title>
<polygon fill="white" stroke="#bfbfbf" points="1288.5,-129 1288.5,-148 1359.5,-148 1359.5,-129 1288.5,-129"/>
<text text-anchor="middle" x="1324" y="-136" font-family="Helvetica,sans-Serif" font-size="10.00">forward_list</text>
</g>
<!-- Node28&#45;&gt;Node30 -->
<g id="edge45" class="edge"><title>Node28&#45;&gt;Node30</title>
<path fill="none" stroke="midnightblue" d="M1174.59,-195.966C1178.94,-193.94 1183.62,-191.836 1188,-190 1222.14,-175.705 1261.9,-161.181 1289.58,-151.402"/>
<polygon fill="midnightblue" stroke="midnightblue" points="1290.92,-154.64 1299.19,-148.022 1288.6,-148.035 1290.92,-154.64"/>
</g>
<!-- Node31 -->
<g id="node31" class="node"><title>Node31</title>
<polygon fill="white" stroke="#bfbfbf" points="1377.5,-123.5 1377.5,-153.5 1514.5,-153.5 1514.5,-123.5 1377.5,-123.5"/>
<text text-anchor="start" x="1385.5" y="-141.5" font-family="Helvetica,sans-Serif" font-size="10.00">boost/smart_ptr/intrusive</text>
<text text-anchor="middle" x="1446" y="-130.5" font-family="Helvetica,sans-Serif" font-size="10.00">_ptr.hpp</text>
</g>
<!-- Node28&#45;&gt;Node31 -->
<g id="edge52" class="edge"><title>Node28&#45;&gt;Node31</title>
<path fill="none" stroke="midnightblue" d="M1173.43,-195.907C1178.05,-193.742 1183.14,-191.585 1188,-190 1196.65,-187.177 1294.67,-168.269 1367.34,-154.415"/>
<polygon fill="midnightblue" stroke="midnightblue" points="1368.25,-157.805 1377.42,-152.495 1366.94,-150.929 1368.25,-157.805"/>
</g>
<!-- Node32&#45;&gt;Node5 -->
<g id="edge59" class="edge"><title>Node32&#45;&gt;Node5</title>
<path fill="none" stroke="midnightblue" d="M1808.27,-130.849C1761.57,-119.647 1666.79,-96.915 1610.31,-83.368"/>
<polygon fill="midnightblue" stroke="midnightblue" points="1611.11,-79.9606 1600.57,-81.0317 1609.48,-86.7676 1611.11,-79.9606"/>
</g>
<!-- Node32&#45;&gt;Node7 -->
<g id="edge56" class="edge"><title>Node32&#45;&gt;Node7</title>
<path fill="none" stroke="midnightblue" d="M1827.37,-128.734C1817.2,-118.403 1800.1,-101.037 1787.59,-88.3315"/>
<polygon fill="midnightblue" stroke="midnightblue" points="1790,-85.7974 1780.49,-81.1273 1785.02,-90.7086 1790,-85.7974"/>
</g>
<!-- Node33 -->
<g id="node33" class="node"><title>Node33</title>
<polygon fill="white" stroke="#bfbfbf" points="1815,-62 1815,-81 1865,-81 1865,-62 1815,-62"/>
<text text-anchor="middle" x="1840" y="-69" font-family="Helvetica,sans-Serif" font-size="10.00">chrono</text>
</g>
<!-- Node32&#45;&gt;Node33 -->
<g id="edge57" class="edge"><title>Node32&#45;&gt;Node33</title>
<path fill="none" stroke="midnightblue" d="M1836.54,-128.734C1837.13,-119.183 1838.09,-103.618 1838.84,-91.2829"/>
<polygon fill="midnightblue" stroke="midnightblue" points="1842.35,-91.3234 1839.47,-81.1273 1835.36,-90.8934 1842.35,-91.3234"/>
</g>
<!-- Node34 -->
<g id="node34" class="node"><title>Node34</title>
<polygon fill="white" stroke="#bfbfbf" points="1883,-62 1883,-81 1939,-81 1939,-62 1883,-62"/>
<text text-anchor="middle" x="1911" y="-69" font-family="Helvetica,sans-Serif" font-size="10.00">sstream</text>
</g>
<!-- Node32&#45;&gt;Node34 -->
<g id="edge58" class="edge"><title>Node32&#45;&gt;Node34</title>
<path fill="none" stroke="midnightblue" d="M1846.11,-128.734C1858.15,-118.305 1878.45,-100.709 1893.15,-87.9732"/>
<polygon fill="midnightblue" stroke="midnightblue" points="1895.78,-90.3216 1901.05,-81.1273 1891.2,-85.0317 1895.78,-90.3216"/>
</g>
<!-- Node35 -->
<g id="node35" class="node"><title>Node35</title>
<polygon fill="white" stroke="#bfbfbf" points="1957,-56.5 1957,-86.5 2067,-86.5 2067,-56.5 1957,-56.5"/>
<text text-anchor="start" x="1965" y="-74.5" font-family="Helvetica,sans-Serif" font-size="10.00">boost/preprocessor</text>
<text text-anchor="middle" x="2012" y="-63.5" font-family="Helvetica,sans-Serif" font-size="10.00">/cat.hpp</text>
</g>
<!-- Node32&#45;&gt;Node35 -->
<g id="edge60" class="edge"><title>Node32&#45;&gt;Node35</title>
<path fill="none" stroke="midnightblue" d="M1859.37,-128.869C1886.01,-119.031 1930.26,-102.689 1964.27,-90.1277"/>
<polygon fill="midnightblue" stroke="midnightblue" points="1965.85,-93.2758 1974.02,-86.5281 1963.42,-86.7093 1965.85,-93.2758"/>
</g>
</g>
</svg>
        <g id="navigator" transform="translate(0 0)" fill="#404254">
                <rect fill="#f2f5e9" fill-opacity="0.5" stroke="#606060" stroke-width=".5" x="0" y="0" width="60" height="60"/>
                <use id="zoomplus" xlink:href="#zoomPlus" x="17" y="9" onmousedown="handleZoom(evt,'in')"/>
                <use id="zoomminus" xlink:href="#zoomMin" x="42" y="9" onmousedown="handleZoom(evt,'out')"/>
                <use id="reset" xlink:href="#resetDef" x="30" y="36" onmousedown="handleReset()"/>
                <g id="arrowUp" xlink:href="#dirArrow" transform="translate(30 24)" onmousedown="handlePan(0,-1)">
                  <use xlink:href="#rim" fill="#404040">
                        <set attributeName="fill" to="#808080" begin="arrowUp.mouseover" end="arrowUp.mouseout"/>
                  </use>
                  <path fill="none" stroke="white" stroke-width="1.5" d="M0,-3.0v7 M-2.5,-0.5L0,-3.0L2.5,-0.5"/>
                </g>
                <g id="arrowRight" xlink:href="#dirArrow" transform="rotate(90) translate(36 -43)" onmousedown="handlePan(1,0)">
                  <use xlink:href="#rim" fill="#404040">
                        <set attributeName="fill" to="#808080" begin="arrowRight.mouseover" end="arrowRight.mouseout"/>
                  </use>
                  <path fill="none" stroke="white" stroke-width="1.5" d="M0,-3.0v7 M-2.5,-0.5L0,-3.0L2.5,-0.5"/>
                </g>
                <g id="arrowDown" xlink:href="#dirArrow" transform="rotate(180) translate(-30 -48)" onmousedown="handlePan(0,1)">
                  <use xlink:href="#rim" fill="#404040">
                        <set attributeName="fill" to="#808080" begin="arrowDown.mouseover" end="arrowDown.mouseout"/>
                  </use>
                  <path fill="none" stroke="white" stroke-width="1.5" d="M0,-3.0v7 M-2.5,-0.5L0,-3.0L2.5,-0.5"/>
                </g>
                <g id="arrowLeft" xlink:href="#dirArrow" transform="rotate(270) translate(-36 17)" onmousedown="handlePan(-1,0)">
                  <use xlink:href="#rim" fill="#404040">
                        <set attributeName="fill" to="#808080" begin="arrowLeft.mouseover" end="arrowLeft.mouseout"/>
                  </use>
                  <path fill="none" stroke="white" stroke-width="1.5" d="M0,-3.0v7 M-2.5,-0.5L0,-3.0L2.5,-0.5"/>
                </g>
        </g>
        <svg viewBox="0 0 15 15" width="100%" height="30px" preserveAspectRatio="xMaxYMin meet">
         <g id="arrow_out" transform="scale(0.3 0.3)">
          <a xlink:href="mocus_8cc__incl_org.svg" target="_base">
           <rect id="button" ry="5" rx="5" y="6" x="6" height="38" width="38"
                fill="#f2f5e9" fill-opacity="0.5" stroke="#606060" stroke-width="1.0"/>
           <path id="arrow"
             d="M 11.500037,31.436501 C 11.940474,20.09759 22.043105,11.32322 32.158766,21.979434 L 37.068811,17.246167 C 37.068811,17.246167 37.088388,32 37.088388,32 L 22.160133,31.978069 C 22.160133,31.978069 26.997745,27.140456 26.997745,27.140456 C 18.528582,18.264221 13.291696,25.230495 11.500037,31.436501 z"
             style="fill:#404040;"/>
          </a>
         </g>
        </svg>
</svg>
