<?xml version="1.0" encoding="UTF-8" standalone="no"?>
<!DOCTYPE svg PUBLIC "-//W3C//DTD SVG 1.1//EN"
 "http://www.w3.org/Graphics/SVG/1.1/DTD/svg11.dtd">
<!-- Generated by graphviz version 2.38.0 (20140413.2041)
 -->
<!-- Title: mocus.h Pages: 1 -->
<!--zoomable 341 -->
<svg id="main" version="1.1" xmlns="http://www.w3.org/2000/svg" xmlns:xlink="http://www.w3.org/1999/xlink" xml:space="preserve" onload="init(evt)">
<style type="text/css"><![CDATA[
.edge:hover path { stroke: red; }
.edge:hover polygon { stroke: red; fill: red; }
]]></style>
<script type="text/javascript"><![CDATA[
var edges = document.getElementsByTagName('g');
if (edges && edges.length) {
  for (var i=0;i<edges.length;i++) {
    if (edges[i].id.substr(0,4)=='edge') {
      edges[i].setAttribute('class','edge');
    }
  }
}
]]></script>
        <defs>
                <circle id="rim" cx="0" cy="0" r="7"/>
                <circle id="rim2" cx="0" cy="0" r="3.5"/>
                <g id="zoomPlus">
                        <use xlink:href="#rim" fill="#404040">
                                <set attributeName="fill" to="#808080" begin="zoomplus.mouseover" end="zoomplus.mouseout"/>
                        </use>
                        <path d="M-4,0h8M0,-4v8" fill="none" stroke="white" stroke-width="1.5" pointer-events="none"/>
                </g>
                <g id="zoomMin">
                        <use xlink:href="#rim" fill="#404040">
                                <set attributeName="fill" to="#808080" begin="zoomminus.mouseover" end="zoomminus.mouseout"/>
                        </use>
                        <path d="M-4,0h8" fill="none" stroke="white" stroke-width="1.5" pointer-events="none"/>
                </g>
                <g id="dirArrow">
                        <path fill="none" stroke="white" stroke-width="1.5" d="M0,-3.0v7 M-2.5,-0.5L0,-3.0L2.5,-0.5"/>
                </g>
               <g id="resetDef">
                       <use xlink:href="#rim2" fill="#404040">
                               <set attributeName="fill" to="#808080" begin="reset.mouseover" end="reset.mouseout"/>
                       </use>
               </g>
        </defs>

<script type="text/javascript">
var viewWidth = 1504;
var viewHeight = 341;
var sectionId = 'dynsection-0';
</script>
<script xlink:href="svgpan.js"/>
<svg id="graph" class="graph">
<g id="viewport">
<title>mocus.h</title>
<polygon fill="white" stroke="none" points="-4,4 -4,-337 1500.23,-337 1500.23,4 -4,4"/>
<!-- Node1 -->
<g id="node1" class="node"><title>Node1</title>
<polygon fill="#bfbfbf" stroke="black" points="585,-313.5 585,-332.5 643,-332.5 643,-313.5 585,-313.5"/>
<text text-anchor="middle" x="614" y="-320.5" font-family="Helvetica,sans-Serif" font-size="10.00">mocus.h</text>
</g>
<!-- Node2 -->
<g id="node2" class="node"><title>Node2</title>
<polygon fill="white" stroke="#bfbfbf" points="66.5,-62 66.5,-81 159.5,-81 159.5,-62 66.5,-62"/>
<text text-anchor="middle" x="113" y="-69" font-family="Helvetica,sans-Serif" font-size="10.00">unordered_map</text>
</g>
<!-- Node1&#45;&gt;Node2 -->
<g id="edge1" class="edge"><title>Node1&#45;&gt;Node2</title>
<path fill="none" stroke="midnightblue" d="M595.825,-313.483C544.105,-289.184 391.795,-217.206 267,-154 220.978,-130.691 167.929,-102.268 137.64,-85.8899"/>
<polygon fill="midnightblue" stroke="midnightblue" points="139.103,-82.7021 128.643,-81.0172 135.77,-88.8573 139.103,-82.7021"/>
</g>
<!-- Node3 -->
<g id="node3" class="node"><title>Node3</title>
<polygon fill="white" stroke="#bfbfbf" points="202.5,-0.5 202.5,-19.5 249.5,-19.5 249.5,-0.5 202.5,-0.5"/>
<text text-anchor="middle" x="226" y="-7.5" font-family="Helvetica,sans-Serif" font-size="10.00">vector</text>
</g>
<!-- Node1&#45;&gt;Node3 -->
<g id="edge2" class="edge"><title>Node1&#45;&gt;Node3</title>
<path fill="none" stroke="midnightblue" d="M584.799,-319.649C462.777,-309.444 0,-266.767 0,-206.5 0,-206.5 0,-206.5 0,-137.5 0,-95.6862 13.6368,-81.205 47,-56 89.8843,-23.6021 153.415,-14.3405 192.128,-11.8054"/>
<polygon fill="midnightblue" stroke="midnightblue" points="192.553,-15.2876 202.351,-11.2551 192.177,-8.29774 192.553,-15.2876"/>
</g>
<!-- Node4 -->
<g id="node4" class="node"><title>Node4</title>
<polygon fill="white" stroke="#bfbfbf" points="1224,-62 1224,-81 1352,-81 1352,-62 1224,-62"/>
<text text-anchor="middle" x="1288" y="-69" font-family="Helvetica,sans-Serif" font-size="10.00">boost/noncopyable.hpp</text>
</g>
<!-- Node1&#45;&gt;Node4 -->
<g id="edge3" class="edge"><title>Node1&#45;&gt;Node4</title>
<path fill="none" stroke="midnightblue" d="M643.199,-318.189C720.892,-307.603 938.65,-275.007 1113,-221 1185.86,-198.431 1222.58,-212.939 1271,-154 1285.52,-136.325 1288.58,-109.359 1288.81,-91.3426"/>
<polygon fill="midnightblue" stroke="midnightblue" points="1292.31,-91.1567 1288.65,-81.2136 1285.31,-91.268 1292.31,-91.1567"/>
</g>
<!-- Node5 -->
<g id="node5" class="node"><title>Node5</title>
<g id="a_node5"><a xlink:href="pdag_8h.xhtml" target="_top" xlink:title="Classes and facilities to represent fault trees as PDAGs with event and gate indices instead of ID na...">
<polygon fill="white" stroke="black" points="498,-129 498,-148 548,-148 548,-129 498,-129"/>
<text text-anchor="middle" x="523" y="-136" font-family="Helvetica,sans-Serif" font-size="10.00">pdag.h</text>
</a>
</g>
</g>
<!-- Node1&#45;&gt;Node5 -->
<g id="edge4" class="edge"><title>Node1&#45;&gt;Node5</title>
<path fill="none" stroke="midnightblue" d="M609.463,-313.396C600.322,-296.017 579.104,-255.446 562,-221 551.139,-199.127 539.064,-173.716 531.269,-157.159"/>
<polygon fill="midnightblue" stroke="midnightblue" points="534.436,-155.669 527.017,-148.105 528.1,-158.645 534.436,-155.669"/>
</g>
<!-- Node20 -->
<g id="node20" class="node"><title>Node20</title>
<g id="a_node20"><a xlink:href="settings_8h.xhtml" target="_top" xlink:title="Builder for settings. ">
<polygon fill="white" stroke="black" points="1376,-129 1376,-148 1440,-148 1440,-129 1376,-129"/>
<text text-anchor="middle" x="1408" y="-136" font-family="Helvetica,sans-Serif" font-size="10.00">settings.h</text>
</a>
</g>
</g>
<!-- Node1&#45;&gt;Node20 -->
<g id="edge27" class="edge"><title>Node1&#45;&gt;Node20</title>
<path fill="none" stroke="midnightblue" d="M643.413,-321.723C770.049,-320.317 1265.04,-312.57 1324,-277 1368.8,-249.973 1392.97,-189.045 1402.75,-158.177"/>
<polygon fill="midnightblue" stroke="midnightblue" points="1406.2,-158.867 1405.71,-148.284 1399.49,-156.86 1406.2,-158.867"/>
</g>
<!-- Node22 -->
<g id="node22" class="node"><title>Node22</title>
<g id="a_node22"><a xlink:href="zbdd_8h.xhtml" target="_top" xlink:title="Zero&#45;Suppressed Binary Decision Diagram facilities. ">
<polygon fill="white" stroke="black" points="667.5,-257.5 667.5,-276.5 716.5,-276.5 716.5,-257.5 667.5,-257.5"/>
<text text-anchor="middle" x="692" y="-264.5" font-family="Helvetica,sans-Serif" font-size="10.00">zbdd.h</text>
</a>
</g>
</g>
<!-- Node1&#45;&gt;Node22 -->
<g id="edge30" class="edge"><title>Node1&#45;&gt;Node22</title>
<path fill="none" stroke="midnightblue" d="M626.532,-313.324C638.586,-304.979 657.027,-292.212 671.269,-282.352"/>
<polygon fill="midnightblue" stroke="midnightblue" points="673.269,-285.224 679.499,-276.655 669.285,-279.469 673.269,-285.224"/>
</g>
<!-- Node5&#45;&gt;Node2 -->
<g id="edge10" class="edge"><title>Node5&#45;&gt;Node2</title>
<path fill="none" stroke="midnightblue" d="M497.888,-134.165C428.768,-124.937 236.692,-98.9619 174,-87 168.246,-85.9021 162.216,-84.6251 156.28,-83.2928"/>
<polygon fill="midnightblue" stroke="midnightblue" points="156.975,-79.8613 146.444,-81.0202 155.399,-86.6816 156.975,-79.8613"/>
</g>
<!-- Node5&#45;&gt;Node3 -->
<g id="edge12" class="edge"><title>Node5&#45;&gt;Node3</title>
<path fill="none" stroke="midnightblue" d="M497.844,-133.922C423.843,-123.339 211.76,-92.5811 207,-87 192.982,-70.5644 203.672,-45.2686 213.807,-28.4332"/>
<polygon fill="midnightblue" stroke="midnightblue" points="217.012,-29.9234 219.519,-19.6294 211.14,-26.1133 217.012,-29.9234"/>
</g>
<!-- Node5&#45;&gt;Node4 -->
<g id="edge14" class="edge"><title>Node5&#45;&gt;Node4</title>
<path fill="none" stroke="midnightblue" d="M548.186,-131.576C561.945,-128.556 579.327,-125.088 595,-123 834.744,-91.055 896.935,-106.638 1138,-87 1162.64,-84.9925 1189.53,-82.4913 1213.65,-80.1344"/>
<polygon fill="midnightblue" stroke="midnightblue" points="1214.19,-83.5979 1223.8,-79.135 1213.51,-76.6316 1214.19,-83.5979"/>
</g>
<!-- Node6 -->
<g id="node6" class="node"><title>Node6</title>
<polygon fill="white" stroke="#bfbfbf" points="1370.5,-62 1370.5,-81 1419.5,-81 1419.5,-62 1370.5,-62"/>
<text text-anchor="middle" x="1395" y="-69" font-family="Helvetica,sans-Serif" font-size="10.00">cstdint</text>
</g>
<!-- Node5&#45;&gt;Node6 -->
<g id="edge5" class="edge"><title>Node5&#45;&gt;Node6</title>
<path fill="none" stroke="midnightblue" d="M548.171,-131.456C561.925,-128.4 579.308,-124.937 595,-123 933.252,-81.2366 1028.77,-163.052 1361,-87 1363.52,-86.4236 1366.08,-85.6701 1368.62,-84.8093"/>
<polygon fill="midnightblue" stroke="midnightblue" points="1370.06,-88.0046 1378.1,-81.106 1367.51,-81.4844 1370.06,-88.0046"/>
</g>
<!-- Node7 -->
<g id="node7" class="node"><title>Node7</title>
<polygon fill="white" stroke="#bfbfbf" points="330.5,-62 330.5,-81 377.5,-81 377.5,-62 330.5,-62"/>
<text text-anchor="middle" x="354" y="-69" font-family="Helvetica,sans-Serif" font-size="10.00">cstdlib</text>
</g>
<!-- Node5&#45;&gt;Node7 -->
<g id="edge6" class="edge"><title>Node5&#45;&gt;Node7</title>
<path fill="none" stroke="midnightblue" d="M498.761,-128.983C471.432,-119.268 425.752,-102.693 387,-87 385.586,-86.4275 384.142,-85.8325 382.687,-85.2246"/>
<polygon fill="midnightblue" stroke="midnightblue" points="383.685,-81.8444 373.114,-81.1247 380.929,-88.2791 383.685,-81.8444"/>
</g>
<!-- Node8 -->
<g id="node8" class="node"><title>Node8</title>
<polygon fill="white" stroke="#bfbfbf" points="901,-0.5 901,-19.5 963,-19.5 963,-0.5 901,-0.5"/>
<text text-anchor="middle" x="932" y="-7.5" font-family="Helvetica,sans-Serif" font-size="10.00">algorithm</text>
</g>
<!-- Node5&#45;&gt;Node8 -->
<g id="edge7" class="edge"><title>Node5&#45;&gt;Node8</title>
<path fill="none" stroke="midnightblue" d="M543.36,-128.89C549.281,-126.672 555.821,-124.492 562,-123 694.255,-91.0672 745.749,-150.645 866,-87 891.022,-73.7569 910.805,-46.8402 921.96,-28.8589"/>
<polygon fill="midnightblue" stroke="midnightblue" points="925.163,-30.3197 927.248,-19.9321 919.14,-26.752 925.163,-30.3197"/>
</g>
<!-- Node9 -->
<g id="node9" class="node"><title>Node9</title>
<polygon fill="white" stroke="#bfbfbf" points="396,-62 396,-81 442,-81 442,-62 396,-62"/>
<text text-anchor="middle" x="419" y="-69" font-family="Helvetica,sans-Serif" font-size="10.00">iosfwd</text>
</g>
<!-- Node5&#45;&gt;Node9 -->
<g id="edge8" class="edge"><title>Node5&#45;&gt;Node9</title>
<path fill="none" stroke="midnightblue" d="M508.974,-128.734C491.665,-117.916 462.013,-99.3832 441.505,-86.5659"/>
<polygon fill="midnightblue" stroke="midnightblue" points="443.139,-83.4593 432.804,-81.1273 439.429,-89.3953 443.139,-83.4593"/>
</g>
<!-- Node10 -->
<g id="node10" class="node"><title>Node10</title>
<polygon fill="white" stroke="#bfbfbf" points="1072.5,-62 1072.5,-81 1129.5,-81 1129.5,-62 1072.5,-62"/>
<text text-anchor="middle" x="1101" y="-69" font-family="Helvetica,sans-Serif" font-size="10.00">memory</text>
</g>
<!-- Node5&#45;&gt;Node10 -->
<g id="edge9" class="edge"><title>Node5&#45;&gt;Node10</title>
<path fill="none" stroke="midnightblue" d="M542.915,-128.86C548.941,-126.584 555.647,-124.382 562,-123 777.973,-76.0166 841.331,-130.66 1058,-87 1061.69,-86.2559 1065.51,-85.284 1069.27,-84.1953"/>
<polygon fill="midnightblue" stroke="midnightblue" points="1070.5,-87.4756 1078.97,-81.1169 1068.38,-80.803 1070.5,-87.4756"/>
</g>
<!-- Node11 -->
<g id="node11" class="node"><title>Node11</title>
<polygon fill="white" stroke="#bfbfbf" points="1023,-0.5 1023,-19.5 1065,-19.5 1065,-0.5 1023,-0.5"/>
<text text-anchor="middle" x="1044" y="-7.5" font-family="Helvetica,sans-Serif" font-size="10.00">utility</text>
</g>
<!-- Node5&#45;&gt;Node11 -->
<g id="edge11" class="edge"><title>Node5&#45;&gt;Node11</title>
<path fill="none" stroke="midnightblue" d="M542.92,-128.881C548.946,-126.606 555.651,-124.399 562,-123 662.566,-100.843 944.948,-152.994 1024,-87 1040.57,-73.1631 1044.3,-47.3915 1044.73,-29.7279"/>
<polygon fill="midnightblue" stroke="midnightblue" points="1048.23,-29.6978 1044.65,-19.7273 1041.23,-29.756 1048.23,-29.6978"/>
</g>
<!-- Node12 -->
<g id="node12" class="node"><title>Node12</title>
<polygon fill="white" stroke="#bfbfbf" points="460,-56.5 460,-86.5 570,-86.5 570,-56.5 460,-56.5"/>
<text text-anchor="start" x="468" y="-74.5" font-family="Helvetica,sans-Serif" font-size="10.00">boost/container/flat</text>
<text text-anchor="middle" x="515" y="-63.5" font-family="Helvetica,sans-Serif" font-size="10.00">_set.hpp</text>
</g>
<!-- Node5&#45;&gt;Node12 -->
<g id="edge13" class="edge"><title>Node5&#45;&gt;Node12</title>
<path fill="none" stroke="midnightblue" d="M521.921,-128.734C520.913,-120.541 519.36,-107.923 517.98,-96.7136"/>
<polygon fill="midnightblue" stroke="midnightblue" points="521.429,-96.0866 516.734,-86.589 514.482,-96.9417 521.429,-96.0866"/>
</g>
<!-- Node13 -->
<g id="node13" class="node"><title>Node13</title>
<polygon fill="white" stroke="#bfbfbf" points="588.5,-56.5 588.5,-86.5 703.5,-86.5 703.5,-56.5 588.5,-56.5"/>
<text text-anchor="start" x="596.5" y="-74.5" font-family="Helvetica,sans-Serif" font-size="10.00">boost/range/adaptor</text>
<text text-anchor="middle" x="646" y="-63.5" font-family="Helvetica,sans-Serif" font-size="10.00">/transformed.hpp</text>
</g>
<!-- Node5&#45;&gt;Node13 -->
<g id="edge15" class="edge"><title>Node5&#45;&gt;Node13</title>
<path fill="none" stroke="midnightblue" d="M539.333,-128.869C557.333,-119.357 586.836,-103.765 610.257,-91.3888"/>
<polygon fill="midnightblue" stroke="midnightblue" points="612.015,-94.4184 619.221,-86.6516 608.744,-88.2295 612.015,-94.4184"/>
</g>
<!-- Node14 -->
<g id="node14" class="node"><title>Node14</title>
<g id="a_node14"><a xlink:href="find__iterator_8h.xhtml" target="_top" xlink:title="Convenience iterator adaptor to wrap find calls and results. ">
<polygon fill="white" stroke="black" points="914.5,-62 914.5,-81 1015.5,-81 1015.5,-62 914.5,-62"/>
<text text-anchor="middle" x="965" y="-69" font-family="Helvetica,sans-Serif" font-size="10.00">ext/find_iterator.h</text>
</a>
</g>
</g>
<!-- Node5&#45;&gt;Node14 -->
<g id="edge16" class="edge"><title>Node5&#45;&gt;Node14</title>
<path fill="none" stroke="midnightblue" d="M542.946,-128.994C548.972,-126.723 555.671,-124.489 562,-123 709.058,-88.407 750.926,-111.485 900,-87 906.439,-85.9424 913.198,-84.6464 919.823,-83.2684"/>
<polygon fill="midnightblue" stroke="midnightblue" points="921.023,-86.5902 930.059,-81.0582 919.545,-79.7479 921.023,-86.5902"/>
</g>
<!-- Node15 -->
<g id="node15" class="node"><title>Node15</title>
<g id="a_node15"><a xlink:href="index__map_8h.xhtml" target="_top" xlink:title="Non&#45;zero based Index&#45;&gt;Value map adapter on sequential containers. ">
<polygon fill="white" stroke="black" points="216,-62 216,-81 312,-81 312,-62 216,-62"/>
<text text-anchor="middle" x="264" y="-69" font-family="Helvetica,sans-Serif" font-size="10.00">ext/index_map.h</text>
</a>
</g>
</g>
<!-- Node5&#45;&gt;Node15 -->
<g id="edge18" class="edge"><title>Node5&#45;&gt;Node15</title>
<path fill="none" stroke="midnightblue" d="M497.798,-131.235C459.565,-121.722 384.618,-103.044 321,-87 316.593,-85.8885 311.994,-84.7251 307.405,-83.5614"/>
<polygon fill="midnightblue" stroke="midnightblue" points="308.004,-80.1024 297.45,-81.0337 306.281,-86.8872 308.004,-80.1024"/>
</g>
<!-- Node16 -->
<g id="node16" class="node"><title>Node16</title>
<g id="a_node16"><a xlink:href="linear__map_8h.xhtml" target="_top" xlink:title="Implementation of a vector&#45;based map for a small number of entries. ">
<polygon fill="white" stroke="black" points="760.5,-62 760.5,-81 857.5,-81 857.5,-62 760.5,-62"/>
<text text-anchor="middle" x="809" y="-69" font-family="Helvetica,sans-Serif" font-size="10.00">ext/linear_map.h</text>
</a>
</g>
</g>
<!-- Node5&#45;&gt;Node16 -->
<g id="edge20" class="edge"><title>Node5&#45;&gt;Node16</title>
<path fill="none" stroke="midnightblue" d="M544.259,-128.921C549.962,-126.805 556.166,-124.67 562,-123 625.38,-104.856 699.685,-90.5806 750.118,-81.9027"/>
<polygon fill="midnightblue" stroke="midnightblue" points="750.919,-85.3168 760.19,-80.1894 749.745,-78.416 750.919,-85.3168"/>
</g>
<!-- Node14&#45;&gt;Node11 -->
<g id="edge17" class="edge"><title>Node14&#45;&gt;Node11</title>
<path fill="none" stroke="midnightblue" d="M976.319,-61.9751C988.873,-52.5199 1009.35,-37.0961 1024.5,-25.6871"/>
<polygon fill="midnightblue" stroke="midnightblue" points="1026.82,-28.321 1032.7,-19.5091 1022.61,-22.7295 1026.82,-28.321"/>
</g>
<!-- Node15&#45;&gt;Node3 -->
<g id="edge19" class="edge"><title>Node15&#45;&gt;Node3</title>
<path fill="none" stroke="midnightblue" d="M258.556,-61.9751C252.912,-53.1384 243.939,-39.0886 236.841,-27.975"/>
<polygon fill="midnightblue" stroke="midnightblue" points="239.767,-26.0531 231.434,-19.5091 233.867,-29.8208 239.767,-26.0531"/>
</g>
<!-- Node16&#45;&gt;Node3 -->
<g id="edge25" class="edge"><title>Node16&#45;&gt;Node3</title>
<path fill="none" stroke="midnightblue" d="M775.82,-61.9482C766.249,-59.7309 755.756,-57.5372 746,-56 563.991,-27.3234 343.054,-15.8116 259.856,-12.2888"/>
<polygon fill="midnightblue" stroke="midnightblue" points="259.86,-8.78613 249.724,-11.8709 259.572,-15.7802 259.86,-8.78613"/>
</g>
<!-- Node16&#45;&gt;Node8 -->
<g id="edge22" class="edge"><title>Node16&#45;&gt;Node8</title>
<path fill="none" stroke="midnightblue" d="M826.623,-61.9751C847.174,-52.0338 881.364,-35.4947 905.207,-23.961"/>
<polygon fill="midnightblue" stroke="midnightblue" points="906.932,-27.0145 914.41,-19.5091 903.884,-20.7131 906.932,-27.0145"/>
</g>
<!-- Node16&#45;&gt;Node11 -->
<g id="edge26" class="edge"><title>Node16&#45;&gt;Node11</title>
<path fill="none" stroke="midnightblue" d="M842.67,-61.9751C888.257,-50.4327 968.974,-29.996 1013.09,-18.8261"/>
<polygon fill="midnightblue" stroke="midnightblue" points="1014.12,-22.1751 1022.96,-16.3277 1012.4,-15.3893 1014.12,-22.1751"/>
</g>
<!-- Node17 -->
<g id="node17" class="node"><title>Node17</title>
<polygon fill="white" stroke="#bfbfbf" points="653,-0.5 653,-19.5 705,-19.5 705,-0.5 653,-0.5"/>
<text text-anchor="middle" x="679" y="-7.5" font-family="Helvetica,sans-Serif" font-size="10.00">cassert</text>
</g>
<!-- Node16&#45;&gt;Node17 -->
<g id="edge21" class="edge"><title>Node16&#45;&gt;Node17</title>
<path fill="none" stroke="midnightblue" d="M790.374,-61.9751C768.557,-51.9897 732.196,-35.3476 706.983,-23.8075"/>
<polygon fill="midnightblue" stroke="midnightblue" points="708.141,-20.4884 697.591,-19.5091 705.228,-26.8534 708.141,-20.4884"/>
</g>
<!-- Node18 -->
<g id="node18" class="node"><title>Node18</title>
<polygon fill="white" stroke="#bfbfbf" points="723.5,-0.5 723.5,-19.5 800.5,-19.5 800.5,-0.5 723.5,-0.5"/>
<text text-anchor="middle" x="762" y="-7.5" font-family="Helvetica,sans-Serif" font-size="10.00">initializer_list</text>
</g>
<!-- Node16&#45;&gt;Node18 -->
<g id="edge23" class="edge"><title>Node16&#45;&gt;Node18</title>
<path fill="none" stroke="midnightblue" d="M802.266,-61.9751C795.216,-53.0501 783.965,-38.8071 775.146,-27.6425"/>
<polygon fill="midnightblue" stroke="midnightblue" points="777.667,-25.1867 768.721,-19.5091 772.174,-29.5258 777.667,-25.1867"/>
</g>
<!-- Node19 -->
<g id="node19" class="node"><title>Node19</title>
<polygon fill="white" stroke="#bfbfbf" points="819,-0.5 819,-19.5 883,-19.5 883,-0.5 819,-0.5"/>
<text text-anchor="middle" x="851" y="-7.5" font-family="Helvetica,sans-Serif" font-size="10.00">stdexcept</text>
</g>
<!-- Node16&#45;&gt;Node19 -->
<g id="edge24" class="edge"><title>Node16&#45;&gt;Node19</title>
<path fill="none" stroke="midnightblue" d="M815.018,-61.9751C821.255,-53.1384 831.173,-39.0886 839.018,-27.975"/>
<polygon fill="midnightblue" stroke="midnightblue" points="842.086,-29.6972 844.994,-19.5091 836.367,-25.6604 842.086,-29.6972"/>
</g>
<!-- Node20&#45;&gt;Node6 -->
<g id="edge28" class="edge"><title>Node20&#45;&gt;Node6</title>
<path fill="none" stroke="midnightblue" d="M1406.25,-128.734C1404.34,-119.183 1401.22,-103.618 1398.76,-91.2829"/>
<polygon fill="midnightblue" stroke="midnightblue" points="1402.12,-90.2467 1396.73,-81.1273 1395.25,-91.6195 1402.12,-90.2467"/>
</g>
<!-- Node21 -->
<g id="node21" class="node"><title>Node21</title>
<polygon fill="white" stroke="#bfbfbf" points="1438,-62 1438,-81 1482,-81 1482,-62 1438,-62"/>
<text text-anchor="middle" x="1460" y="-69" font-family="Helvetica,sans-Serif" font-size="10.00">string</text>
</g>
<!-- Node20&#45;&gt;Node21 -->
<g id="edge29" class="edge"><title>Node20&#45;&gt;Node21</title>
<path fill="none" stroke="midnightblue" d="M1415.01,-128.734C1423.12,-118.598 1436.65,-101.69 1446.76,-89.0556"/>
<polygon fill="midnightblue" stroke="midnightblue" points="1449.58,-91.1225 1453.1,-81.1273 1444.12,-86.7496 1449.58,-91.1225"/>
</g>
<!-- Node22&#45;&gt;Node2 -->
<g id="edge35" class="edge"><title>Node22&#45;&gt;Node2</title>
<path fill="none" stroke="midnightblue" d="M667.412,-258.675C610.362,-241.548 464.731,-197.062 345,-154 309.897,-141.375 302.073,-135.707 267,-123 227.494,-108.687 181.674,-93.8881 150.35,-84.0407"/>
<polygon fill="midnightblue" stroke="midnightblue" points="151.305,-80.6721 140.716,-81.0244 149.213,-87.3524 151.305,-80.6721"/>
</g>
<!-- Node22&#45;&gt;Node3 -->
<g id="edge37" class="edge"><title>Node22&#45;&gt;Node3</title>
<path fill="none" stroke="midnightblue" d="M667.497,-263.111C559.916,-249.866 131.485,-191.093 57,-87 21.1491,-36.8984 133.505,-19.2258 192.396,-13.5009"/>
<polygon fill="midnightblue" stroke="midnightblue" points="192.739,-16.9843 202.382,-12.5946 192.106,-10.0129 192.739,-16.9843"/>
</g>
<!-- Node22&#45;&gt;Node4 -->
<g id="edge40" class="edge"><title>Node22&#45;&gt;Node4</title>
<path fill="none" stroke="midnightblue" d="M716.596,-263.838C812.242,-255.012 1158.34,-219.058 1244,-154 1264.77,-138.228 1276.88,-109.733 1282.97,-90.9632"/>
<polygon fill="midnightblue" stroke="midnightblue" points="1286.38,-91.7888 1285.88,-81.2057 1279.67,-89.7886 1286.38,-91.7888"/>
</g>
<!-- Node22&#45;&gt;Node6 -->
<g id="edge31" class="edge"><title>Node22&#45;&gt;Node6</title>
<path fill="none" stroke="midnightblue" d="M716.654,-265.878C782.248,-265.017 966.07,-259.109 1113,-221 1186.83,-201.85 1203.75,-189.982 1271,-154 1309.47,-133.418 1351.31,-104.398 1375.23,-87.1131"/>
<polygon fill="midnightblue" stroke="midnightblue" points="1377.45,-89.8237 1383.47,-81.1051 1373.33,-84.1668 1377.45,-89.8237"/>
</g>
<!-- Node22&#45;&gt;Node10 -->
<g id="edge34" class="edge"><title>Node22&#45;&gt;Node10</title>
<path fill="none" stroke="midnightblue" d="M674.34,-257.407C659.795,-249.594 639.447,-236.872 626,-221 596.47,-186.144 564.006,-156.56 595,-123 629.181,-85.9879 997.353,-95.5685 1047,-87 1052.38,-86.0714 1058,-84.8508 1063.5,-83.5113"/>
<polygon fill="midnightblue" stroke="midnightblue" points="1064.38,-86.8992 1073.19,-81.0094 1062.63,-80.1216 1064.38,-86.8992"/>
</g>
<!-- Node22&#45;&gt;Node11 -->
<g id="edge36" class="edge"><title>Node22&#45;&gt;Node11</title>
<path fill="none" stroke="midnightblue" d="M716.887,-265.325C833.766,-261.715 1327.58,-241.436 1449,-154 1477.52,-133.463 1481.29,-120.776 1491,-87 1494.81,-73.7587 1500.24,-66.2186 1491,-56 1463.14,-25.1938 1172.15,-14.4979 1075.22,-11.7745"/>
<polygon fill="midnightblue" stroke="midnightblue" points="1075.25,-8.27416 1065.16,-11.5012 1075.06,-15.2716 1075.25,-8.27416"/>
</g>
<!-- Node23 -->
<g id="node23" class="node"><title>Node23</title>
<polygon fill="white" stroke="#bfbfbf" points="642.5,-196 642.5,-215 683.5,-215 683.5,-196 642.5,-196"/>
<text text-anchor="middle" x="663" y="-203" font-family="Helvetica,sans-Serif" font-size="10.00">array</text>
</g>
<!-- Node22&#45;&gt;Node23 -->
<g id="edge32" class="edge"><title>Node22&#45;&gt;Node23</title>
<path fill="none" stroke="midnightblue" d="M687.845,-257.475C683.624,-248.815 676.963,-235.149 671.6,-224.145"/>
<polygon fill="midnightblue" stroke="midnightblue" points="674.675,-222.465 667.147,-215.009 668.382,-225.532 674.675,-222.465"/>
</g>
<!-- Node24 -->
<g id="node24" class="node"><title>Node24</title>
<polygon fill="white" stroke="#bfbfbf" points="702,-196 702,-215 740,-215 740,-196 702,-196"/>
<text text-anchor="middle" x="721" y="-203" font-family="Helvetica,sans-Serif" font-size="10.00">map</text>
</g>
<!-- Node22&#45;&gt;Node24 -->
<g id="edge33" class="edge"><title>Node22&#45;&gt;Node24</title>
<path fill="none" stroke="midnightblue" d="M696.155,-257.475C700.376,-248.815 707.037,-235.149 712.4,-224.145"/>
<polygon fill="midnightblue" stroke="midnightblue" points="715.618,-225.532 716.853,-215.009 709.325,-222.465 715.618,-225.532"/>
</g>
<!-- Node25 -->
<g id="node25" class="node"><title>Node25</title>
<polygon fill="white" stroke="#bfbfbf" points="604,-129 604,-148 744,-148 744,-129 604,-129"/>
<text text-anchor="middle" x="674" y="-136" font-family="Helvetica,sans-Serif" font-size="10.00">boost/functional/hash.hpp</text>
</g>
<!-- Node22&#45;&gt;Node25 -->
<g id="edge38" class="edge"><title>Node22&#45;&gt;Node25</title>
<path fill="none" stroke="midnightblue" d="M673.016,-257.398C659.114,-249.954 641.286,-237.741 633,-221 621.649,-198.066 640.955,-171.619 656.744,-155.227"/>
<polygon fill="midnightblue" stroke="midnightblue" points="659.375,-157.549 664.062,-148.047 654.473,-152.552 659.375,-157.549"/>
</g>
<!-- Node26 -->
<g id="node26" class="node"><title>Node26</title>
<polygon fill="white" stroke="#bfbfbf" points="758,-190.5 758,-220.5 878,-220.5 878,-190.5 758,-190.5"/>
<text text-anchor="start" x="766" y="-208.5" font-family="Helvetica,sans-Serif" font-size="10.00">boost/iterator/iterator</text>
<text text-anchor="middle" x="818" y="-197.5" font-family="Helvetica,sans-Serif" font-size="10.00">_facade.hpp</text>
</g>
<!-- Node22&#45;&gt;Node26 -->
<g id="edge39" class="edge"><title>Node22&#45;&gt;Node26</title>
<path fill="none" stroke="midnightblue" d="M710.053,-257.475C727.995,-249.002 756.086,-235.737 779.114,-224.863"/>
<polygon fill="midnightblue" stroke="midnightblue" points="780.756,-227.958 788.304,-220.523 777.767,-221.628 780.756,-227.958"/>
</g>
<!-- Node27 -->
<g id="node27" class="node"><title>Node27</title>
<g id="a_node27"><a xlink:href="bdd_8h.xhtml" target="_top" xlink:title="Fault tree analysis with the Binary Decision Diagram algorithms. ">
<polygon fill="white" stroke="black" points="896,-196 896,-215 940,-215 940,-196 896,-196"/>
<text text-anchor="middle" x="918" y="-203" font-family="Helvetica,sans-Serif" font-size="10.00">bdd.h</text>
</a>
</g>
</g>
<!-- Node22&#45;&gt;Node27 -->
<g id="edge41" class="edge"><title>Node22&#45;&gt;Node27</title>
<path fill="none" stroke="midnightblue" d="M716.786,-262.009C754.285,-255.588 827.387,-241.563 887,-221 888.622,-220.441 890.272,-219.823 891.924,-219.167"/>
<polygon fill="midnightblue" stroke="midnightblue" points="893.432,-222.328 901.212,-215.137 890.645,-215.907 893.432,-222.328"/>
</g>
<!-- Node27&#45;&gt;Node2 -->
<g id="edge46" class="edge"><title>Node27&#45;&gt;Node2</title>
<path fill="none" stroke="midnightblue" d="M902.312,-195.876C897.526,-193.601 892.162,-191.395 887,-190 715.536,-143.678 664.568,-180.863 489,-154 456.75,-149.065 254.713,-104.191 160.839,-83.2151"/>
<polygon fill="midnightblue" stroke="midnightblue" points="161.544,-79.7865 151.022,-81.0206 160.017,-86.6179 161.544,-79.7865"/>
</g>
<!-- Node27&#45;&gt;Node3 -->
<g id="edge48" class="edge"><title>Node27&#45;&gt;Node3</title>
<path fill="none" stroke="midnightblue" d="M899.487,-195.931C880.208,-186.672 849.465,-170.952 825,-154 811.339,-144.535 727.286,-62.5236 712,-56 630.214,-21.0953 355.865,-13.1769 259.672,-11.4567"/>
<polygon fill="midnightblue" stroke="midnightblue" points="259.681,-7.95648 249.624,-11.2883 259.564,-14.9555 259.681,-7.95648"/>
</g>
<!-- Node27&#45;&gt;Node4 -->
<g id="edge50" class="edge"><title>Node27&#45;&gt;Node4</title>
<path fill="none" stroke="midnightblue" d="M940.004,-205.239C990.771,-206.016 1118.73,-202.602 1210,-154 1238.97,-138.574 1263.44,-108.421 1276.88,-89.4314"/>
<polygon fill="midnightblue" stroke="midnightblue" points="1279.81,-91.3491 1282.57,-81.1195 1274.03,-87.3967 1279.81,-91.3491"/>
</g>
<!-- Node27&#45;&gt;Node5 -->
<g id="edge52" class="edge"><title>Node27&#45;&gt;Node5</title>
<path fill="none" stroke="midnightblue" d="M902.283,-195.981C897.496,-193.709 892.139,-191.478 887,-190 761.335,-153.852 724.076,-174.923 595,-154 582.929,-152.043 569.797,-149.518 558.093,-147.124"/>
<polygon fill="midnightblue" stroke="midnightblue" points="558.742,-143.684 548.238,-145.072 557.315,-150.537 558.742,-143.684"/>
</g>
<!-- Node27&#45;&gt;Node8 -->
<g id="edge43" class="edge"><title>Node27&#45;&gt;Node8</title>
<path fill="none" stroke="midnightblue" d="M905.412,-195.799C884.318,-180.194 846.104,-146.856 867,-123 947.059,-31.6028 1057.94,-178.397 1138,-87 1147.08,-76.636 1146.64,-66.7317 1138,-56 1127.71,-43.2159 1030.74,-26.2594 973.587,-17.2502"/>
<polygon fill="midnightblue" stroke="midnightblue" points="973.829,-13.7456 963.409,-15.6632 972.75,-20.662 973.829,-13.7456"/>
</g>
<!-- Node27&#45;&gt;Node10 -->
<g id="edge45" class="edge"><title>Node27&#45;&gt;Node10</title>
<path fill="none" stroke="midnightblue" d="M899.13,-195.871C876.647,-185.155 841.204,-166.737 834,-154 827.217,-142.008 825.064,-133.487 834,-123 866.699,-84.6258 1009.06,-99.0964 1058,-87 1061.39,-86.1618 1064.9,-85.1789 1068.38,-84.1266"/>
<polygon fill="midnightblue" stroke="midnightblue" points="1069.55,-87.4276 1078,-81.0397 1067.41,-80.7623 1069.55,-87.4276"/>
</g>
<!-- Node27&#45;&gt;Node11 -->
<g id="edge47" class="edge"><title>Node27&#45;&gt;Node11</title>
<path fill="none" stroke="midnightblue" d="M940.262,-203.627C997.268,-200.877 1146.12,-190.294 1176,-154 1194.1,-132.015 1166.21,-67.1995 1156,-56 1134.9,-32.8662 1100.28,-21.4074 1075.11,-15.8758"/>
<polygon fill="midnightblue" stroke="midnightblue" points="1075.79,-12.4438 1065.3,-13.9119 1074.42,-19.3075 1075.79,-12.4438"/>
</g>
<!-- Node27&#45;&gt;Node20 -->
<g id="edge53" class="edge"><title>Node27&#45;&gt;Node20</title>
<path fill="none" stroke="midnightblue" d="M940.006,-201.581C1015.55,-191.56 1265.15,-158.45 1365.59,-145.126"/>
<polygon fill="midnightblue" stroke="midnightblue" points="1366.22,-148.573 1375.68,-143.788 1365.3,-141.633 1366.22,-148.573"/>
</g>
<!-- Node27&#45;&gt;Node25 -->
<g id="edge49" class="edge"><title>Node27&#45;&gt;Node25</title>
<path fill="none" stroke="midnightblue" d="M901.206,-195.882C896.671,-193.767 891.713,-191.642 887,-190 835.998,-172.237 775.984,-158.633 732.68,-150.045"/>
<polygon fill="midnightblue" stroke="midnightblue" points="733.086,-146.558 722.601,-148.076 731.744,-153.428 733.086,-146.558"/>
</g>
<!-- Node28 -->
<g id="node28" class="node"><title>Node28</title>
<polygon fill="white" stroke="#bfbfbf" points="876.5,-129 876.5,-148 923.5,-148 923.5,-129 876.5,-129"/>
<text text-anchor="middle" x="900" y="-136" font-family="Helvetica,sans-Serif" font-size="10.00">cmath</text>
</g>
<!-- Node27&#45;&gt;Node28 -->
<g id="edge42" class="edge"><title>Node27&#45;&gt;Node28</title>
<path fill="none" stroke="midnightblue" d="M915.572,-195.734C912.901,-186.085 908.529,-170.3 905.097,-157.906"/>
<polygon fill="midnightblue" stroke="midnightblue" points="908.431,-156.831 902.389,-148.127 901.685,-158.699 908.431,-156.831"/>
</g>
<!-- Node29 -->
<g id="node29" class="node"><title>Node29</title>
<polygon fill="white" stroke="#bfbfbf" points="941.5,-129 941.5,-148 1012.5,-148 1012.5,-129 941.5,-129"/>
<text text-anchor="middle" x="977" y="-136" font-family="Helvetica,sans-Serif" font-size="10.00">forward_list</text>
</g>
<!-- Node27&#45;&gt;Node29 -->
<g id="edge44" class="edge"><title>Node27&#45;&gt;Node29</title>
<path fill="none" stroke="midnightblue" d="M925.957,-195.734C935.246,-185.5 950.8,-168.364 962.302,-155.692"/>
<polygon fill="midnightblue" stroke="midnightblue" points="965.04,-157.884 969.169,-148.127 959.856,-153.179 965.04,-157.884"/>
</g>
<!-- Node30 -->
<g id="node30" class="node"><title>Node30</title>
<polygon fill="white" stroke="#bfbfbf" points="1030.5,-123.5 1030.5,-153.5 1167.5,-153.5 1167.5,-123.5 1030.5,-123.5"/>
<text text-anchor="start" x="1038.5" y="-141.5" font-family="Helvetica,sans-Serif" font-size="10.00">boost/smart_ptr/intrusive</text>
<text text-anchor="middle" x="1099" y="-130.5" font-family="Helvetica,sans-Serif" font-size="10.00">_ptr.hpp</text>
</g>
<!-- Node27&#45;&gt;Node30 -->
<g id="edge51" class="edge"><title>Node27&#45;&gt;Node30</title>
<path fill="none" stroke="midnightblue" d="M940.194,-196.53C967.374,-186.769 1014.21,-169.951 1049.99,-157.099"/>
<polygon fill="midnightblue" stroke="midnightblue" points="1051.54,-160.263 1059.77,-153.589 1049.17,-153.675 1051.54,-160.263"/>
</g>
</g>
</svg>
        <g id="navigator" transform="translate(0 0)" fill="#404254">
                <rect fill="#f2f5e9" fill-opacity="0.5" stroke="#606060" stroke-width=".5" x="0" y="0" width="60" height="60"/>
                <use id="zoomplus" xlink:href="#zoomPlus" x="17" y="9" onmousedown="handleZoom(evt,'in')"/>
                <use id="zoomminus" xlink:href="#zoomMin" x="42" y="9" onmousedown="handleZoom(evt,'out')"/>
                <use id="reset" xlink:href="#resetDef" x="30" y="36" onmousedown="handleReset()"/>
                <g id="arrowUp" xlink:href="#dirArrow" transform="translate(30 24)" onmousedown="handlePan(0,-1)">
                  <use xlink:href="#rim" fill="#404040">
                        <set attributeName="fill" to="#808080" begin="arrowUp.mouseover" end="arrowUp.mouseout"/>
                  </use>
                  <path fill="none" stroke="white" stroke-width="1.5" d="M0,-3.0v7 M-2.5,-0.5L0,-3.0L2.5,-0.5"/>
                </g>
                <g id="arrowRight" xlink:href="#dirArrow" transform="rotate(90) translate(36 -43)" onmousedown="handlePan(1,0)">
                  <use xlink:href="#rim" fill="#404040">
                        <set attributeName="fill" to="#808080" begin="arrowRight.mouseover" end="arrowRight.mouseout"/>
                  </use>
                  <path fill="none" stroke="white" stroke-width="1.5" d="M0,-3.0v7 M-2.5,-0.5L0,-3.0L2.5,-0.5"/>
                </g>
                <g id="arrowDown" xlink:href="#dirArrow" transform="rotate(180) translate(-30 -48)" onmousedown="handlePan(0,1)">
                  <use xlink:href="#rim" fill="#404040">
                        <set attributeName="fill" to="#808080" begin="arrowDown.mouseover" end="arrowDown.mouseout"/>
                  </use>
                  <path fill="none" stroke="white" stroke-width="1.5" d="M0,-3.0v7 M-2.5,-0.5L0,-3.0L2.5,-0.5"/>
                </g>
                <g id="arrowLeft" xlink:href="#dirArrow" transform="rotate(270) translate(-36 17)" onmousedown="handlePan(-1,0)">
                  <use xlink:href="#rim" fill="#404040">
                        <set attributeName="fill" to="#808080" begin="arrowLeft.mouseover" end="arrowLeft.mouseout"/>
                  </use>
                  <path fill="none" stroke="white" stroke-width="1.5" d="M0,-3.0v7 M-2.5,-0.5L0,-3.0L2.5,-0.5"/>
                </g>
        </g>
        <svg viewBox="0 0 15 15" width="100%" height="30px" preserveAspectRatio="xMaxYMin meet">
         <g id="arrow_out" transform="scale(0.3 0.3)">
          <a xlink:href="mocus_8h__incl_org.svg" target="_base">
           <rect id="button" ry="5" rx="5" y="6" x="6" height="38" width="38"
                fill="#f2f5e9" fill-opacity="0.5" stroke="#606060" stroke-width="1.0"/>
           <path id="arrow"
             d="M 11.500037,31.436501 C 11.940474,20.09759 22.043105,11.32322 32.158766,21.979434 L 37.068811,17.246167 C 37.068811,17.246167 37.088388,32 37.088388,32 L 22.160133,31.978069 C 22.160133,31.978069 26.997745,27.140456 26.997745,27.140456 C 18.528582,18.264221 13.291696,25.230495 11.500037,31.436501 z"
             style="fill:#404040;"/>
          </a>
         </g>
        </svg>
</svg>
