<?xml version="1.0" encoding="UTF-8" standalone="no"?>
<!DOCTYPE svg PUBLIC "-//W3C//DTD SVG 1.1//EN"
 "http://www.w3.org/Graphics/SVG/1.1/DTD/svg11.dtd">
<!-- Generated by graphviz version 2.38.0 (20140413.2041)
 -->
<!-- Title: model.h Pages: 1 -->
<!--zoomable 386 -->
<svg id="main" version="1.1" xmlns="http://www.w3.org/2000/svg" xmlns:xlink="http://www.w3.org/1999/xlink" xml:space="preserve" onload="init(evt)">
<style type="text/css"><![CDATA[
.edge:hover path { stroke: red; }
.edge:hover polygon { stroke: red; fill: red; }
]]></style>
<script type="text/javascript"><![CDATA[
var edges = document.getElementsByTagName('g');
if (edges && edges.length) {
  for (var i=0;i<edges.length;i++) {
    if (edges[i].id.substr(0,4)=='edge') {
      edges[i].setAttribute('class','edge');
    }
  }
}
]]></script>
        <defs>
                <circle id="rim" cx="0" cy="0" r="7"/>
                <circle id="rim2" cx="0" cy="0" r="3.5"/>
                <g id="zoomPlus">
                        <use xlink:href="#rim" fill="#404040">
                                <set attributeName="fill" to="#808080" begin="zoomplus.mouseover" end="zoomplus.mouseout"/>
                        </use>
                        <path d="M-4,0h8M0,-4v8" fill="none" stroke="white" stroke-width="1.5" pointer-events="none"/>
                </g>
                <g id="zoomMin">
                        <use xlink:href="#rim" fill="#404040">
                                <set attributeName="fill" to="#808080" begin="zoomminus.mouseover" end="zoomminus.mouseout"/>
                        </use>
                        <path d="M-4,0h8" fill="none" stroke="white" stroke-width="1.5" pointer-events="none"/>
                </g>
                <g id="dirArrow">
                        <path fill="none" stroke="white" stroke-width="1.5" d="M0,-3.0v7 M-2.5,-0.5L0,-3.0L2.5,-0.5"/>
                </g>
               <g id="resetDef">
                       <use xlink:href="#rim2" fill="#404040">
                               <set attributeName="fill" to="#808080" begin="reset.mouseover" end="reset.mouseout"/>
                       </use>
               </g>
        </defs>

<script type="text/javascript">
var viewWidth = 1587;
var viewHeight = 386;
var sectionId = 'dynsection-0';
</script>
<script xlink:href="svgpan.js"/>
<svg id="graph" class="graph">
<g id="viewport">
<title>model.h</title>
<polygon fill="white" stroke="none" points="-4,4 -4,-382 1583,-382 1583,4 -4,4"/>
<!-- Node1 -->
<g id="node1" class="node"><title>Node1</title>
<polygon fill="#bfbfbf" stroke="black" points="866,-358.5 866,-377.5 922,-377.5 922,-358.5 866,-358.5"/>
<text text-anchor="middle" x="894" y="-365.5" font-family="Helvetica,sans-Serif" font-size="10.00">model.h</text>
</g>
<!-- Node2 -->
<g id="node2" class="node"><title>Node2</title>
<polygon fill="white" stroke="#bfbfbf" points="879.5,-134.5 879.5,-153.5 936.5,-153.5 936.5,-134.5 879.5,-134.5"/>
<text text-anchor="middle" x="908" y="-141.5" font-family="Helvetica,sans-Serif" font-size="10.00">memory</text>
</g>
<!-- Node1&#45;&gt;Node2 -->
<g id="edge1" class="edge"><title>Node1&#45;&gt;Node2</title>
<path fill="none" stroke="midnightblue" d="M898.113,-358.344C906.005,-341.199 923.023,-301.502 929,-266 935.17,-229.352 923.202,-186.515 914.936,-162.906"/>
<polygon fill="midnightblue" stroke="midnightblue" points="918.214,-161.68 911.477,-153.503 911.645,-164.097 918.214,-161.68"/>
</g>
<!-- Node3 -->
<g id="node3" class="node"><title>Node3</title>
<polygon fill="white" stroke="#bfbfbf" points="423,-6 423,-25 467,-25 467,-6 423,-6"/>
<text text-anchor="middle" x="445" y="-13" font-family="Helvetica,sans-Serif" font-size="10.00">string</text>
</g>
<!-- Node1&#45;&gt;Node3 -->
<g id="edge2" class="edge"><title>Node1&#45;&gt;Node3</title>
<path fill="none" stroke="midnightblue" d="M865.768,-366.566C713.805,-363.867 0,-346.429 0,-257 0,-257 0,-257 0,-143 0,-69.4515 77.2435,-90.3114 147,-67 171.912,-58.675 340.144,-32.4811 412.272,-21.4619"/>
<polygon fill="midnightblue" stroke="midnightblue" points="413.229,-24.8564 422.587,-19.8893 412.174,-17.9364 413.229,-24.8564"/>
</g>
<!-- Node4 -->
<g id="node4" class="node"><title>Node4</title>
<polygon fill="white" stroke="#bfbfbf" points="1131.5,-6 1131.5,-25 1178.5,-25 1178.5,-6 1131.5,-6"/>
<text text-anchor="middle" x="1155" y="-13" font-family="Helvetica,sans-Serif" font-size="10.00">vector</text>
</g>
<!-- Node1&#45;&gt;Node4 -->
<g id="edge3" class="edge"><title>Node1&#45;&gt;Node4</title>
<path fill="none" stroke="midnightblue" d="M922.13,-365.508C1051.03,-358.306 1579,-324.676 1579,-257 1579,-257 1579,-257 1579,-143 1579,-88.9292 1533.51,-88.7277 1484,-67 1383.41,-22.8598 1250.81,-16.4272 1189.2,-16.0409"/>
<polygon fill="midnightblue" stroke="midnightblue" points="1188.89,-12.5407 1178.89,-16.0299 1188.88,-19.5407 1188.89,-12.5407"/>
</g>
<!-- Node5 -->
<g id="node5" class="node"><title>Node5</title>
<polygon fill="white" stroke="#bfbfbf" points="1194,-73 1194,-92 1322,-92 1322,-73 1194,-73"/>
<text text-anchor="middle" x="1258" y="-80" font-family="Helvetica,sans-Serif" font-size="10.00">boost/noncopyable.hpp</text>
</g>
<!-- Node1&#45;&gt;Node5 -->
<g id="edge4" class="edge"><title>Node1&#45;&gt;Node5</title>
<path fill="none" stroke="midnightblue" d="M922.152,-364.943C1041.92,-355.823 1503,-316.831 1503,-257 1503,-257 1503,-257 1503,-199 1503,-122.537 1404.16,-96.6109 1332.04,-87.8705"/>
<polygon fill="midnightblue" stroke="midnightblue" points="1332.38,-84.3871 1322.05,-86.7478 1331.6,-91.3432 1332.38,-84.3871"/>
</g>
<!-- Node6 -->
<g id="node6" class="node"><title>Node6</title>
<g id="a_node6"><a xlink:href="ccf__group_8h.xhtml" target="_top" xlink:title="Functional containers for basic events grouped by common cause failure. ">
<polygon fill="white" stroke="black" points="488,-246.5 488,-265.5 560,-265.5 560,-246.5 488,-246.5"/>
<text text-anchor="middle" x="524" y="-253.5" font-family="Helvetica,sans-Serif" font-size="10.00">ccf_group.h</text>
</a>
</g>
</g>
<!-- Node1&#45;&gt;Node6 -->
<g id="edge5" class="edge"><title>Node1&#45;&gt;Node6</title>
<path fill="none" stroke="midnightblue" d="M865.942,-362.939C824.313,-356.516 744.004,-342.591 678,-322 631.754,-307.573 580.338,-284.322 550.158,-269.89"/>
<polygon fill="midnightblue" stroke="midnightblue" points="551.667,-266.732 541.14,-265.537 548.624,-273.036 551.667,-266.732"/>
</g>
<!-- Node10 -->
<g id="node10" class="node"><title>Node10</title>
<g id="a_node10"><a xlink:href="element_8h.xhtml" target="_top" xlink:title="Helper classes, structs, and properties common to all other classes. ">
<polygon fill="white" stroke="black" points="932.5,-73 932.5,-92 997.5,-92 997.5,-73 932.5,-73"/>
<text text-anchor="middle" x="965" y="-80" font-family="Helvetica,sans-Serif" font-size="10.00">element.h</text>
</a>
</g>
</g>
<!-- Node1&#45;&gt;Node10 -->
<g id="edge41" class="edge"><title>Node1&#45;&gt;Node10</title>
<path fill="none" stroke="midnightblue" d="M903.332,-358.243C911.809,-349.766 924.022,-336.151 931,-322 967.86,-247.251 967.937,-144.367 966.162,-102.436"/>
<polygon fill="midnightblue" stroke="midnightblue" points="969.649,-102.107 965.64,-92.2995 962.659,-102.466 969.649,-102.107"/>
</g>
<!-- Node15 -->
<g id="node15" class="node"><title>Node15</title>
<g id="a_node15"><a xlink:href="event_8h.xhtml" target="_top" xlink:title="Contains event classes for fault trees. ">
<polygon fill="white" stroke="black" points="1090.5,-190.5 1090.5,-209.5 1143.5,-209.5 1143.5,-190.5 1090.5,-190.5"/>
<text text-anchor="middle" x="1117" y="-197.5" font-family="Helvetica,sans-Serif" font-size="10.00">event.h</text>
</a>
</g>
</g>
<!-- Node1&#45;&gt;Node15 -->
<g id="edge42" class="edge"><title>Node1&#45;&gt;Node15</title>
<path fill="none" stroke="midnightblue" d="M922.022,-363.951C953.071,-359.365 1003.32,-348.231 1038,-322 1074.05,-294.729 1098.49,-245.908 1109.8,-219.38"/>
<polygon fill="midnightblue" stroke="midnightblue" points="1113.17,-220.379 1113.73,-209.799 1106.7,-217.726 1113.17,-220.379"/>
</g>
<!-- Node17 -->
<g id="node17" class="node"><title>Node17</title>
<g id="a_node17"><a xlink:href="expression_8h.xhtml" target="_top" xlink:title="Provides the base class for all expressions and units for expression values. ">
<polygon fill="white" stroke="black" points="444.5,-134.5 444.5,-153.5 521.5,-153.5 521.5,-134.5 444.5,-134.5"/>
<text text-anchor="middle" x="483" y="-141.5" font-family="Helvetica,sans-Serif" font-size="10.00">expression.h</text>
</a>
</g>
</g>
<!-- Node1&#45;&gt;Node17 -->
<g id="edge54" class="edge"><title>Node1&#45;&gt;Node17</title>
<path fill="none" stroke="midnightblue" d="M865.816,-364.081C758.26,-352.286 376.347,-304.207 310,-210 277.362,-163.657 372.16,-150.321 434.05,-146.506"/>
<polygon fill="midnightblue" stroke="midnightblue" points="434.261,-150 444.053,-145.954 433.875,-143.011 434.261,-150"/>
</g>
<!-- Node23 -->
<g id="node23" class="node"><title>Node23</title>
<g id="a_node23"><a xlink:href="event__tree_8h.xhtml" target="_top" xlink:title="Event Tree facilities. ">
<polygon fill="white" stroke="black" points="1134.5,-246.5 1134.5,-265.5 1211.5,-265.5 1211.5,-246.5 1134.5,-246.5"/>
<text text-anchor="middle" x="1173" y="-253.5" font-family="Helvetica,sans-Serif" font-size="10.00">event_tree.h</text>
</a>
</g>
</g>
<!-- Node1&#45;&gt;Node23 -->
<g id="edge43" class="edge"><title>Node1&#45;&gt;Node23</title>
<path fill="none" stroke="midnightblue" d="M922.125,-365.752C964.008,-362.872 1044.24,-353.363 1104,-322 1126.66,-310.108 1147.25,-288.684 1159.92,-273.693"/>
<polygon fill="midnightblue" stroke="midnightblue" points="1162.81,-275.69 1166.42,-265.731 1157.39,-271.262 1162.81,-275.69"/>
</g>
<!-- Node25 -->
<g id="node25" class="node"><title>Node25</title>
<g id="a_node25"><a xlink:href="test__event_8h.xhtml" target="_top" xlink:title="Event tree analysis expressions to test functional and initiating events. ">
<polygon fill="white" stroke="black" points="28.5,-190.5 28.5,-209.5 159.5,-209.5 159.5,-190.5 28.5,-190.5"/>
<text text-anchor="middle" x="94" y="-197.5" font-family="Helvetica,sans-Serif" font-size="10.00">expression/test_event.h</text>
</a>
</g>
</g>
<!-- Node1&#45;&gt;Node25 -->
<g id="edge55" class="edge"><title>Node1&#45;&gt;Node25</title>
<path fill="none" stroke="midnightblue" d="M865.919,-366.33C744.993,-363.286 272.078,-349.693 212,-322 162.657,-299.256 122.96,-246.109 104.769,-218.44"/>
<polygon fill="midnightblue" stroke="midnightblue" points="107.586,-216.348 99.2517,-209.807 101.688,-220.118 107.586,-216.348"/>
</g>
<!-- Node27 -->
<g id="node27" class="node"><title>Node27</title>
<g id="a_node27"><a xlink:href="fault__tree_8h.xhtml" target="_top" xlink:title="Fault Tree and Component containers. ">
<polygon fill="white" stroke="black" points="805.5,-302.5 805.5,-321.5 876.5,-321.5 876.5,-302.5 805.5,-302.5"/>
<text text-anchor="middle" x="841" y="-309.5" font-family="Helvetica,sans-Serif" font-size="10.00">fault_tree.h</text>
</a>
</g>
</g>
<!-- Node1&#45;&gt;Node27 -->
<g id="edge59" class="edge"><title>Node1&#45;&gt;Node27</title>
<path fill="none" stroke="midnightblue" d="M885.248,-358.083C877.53,-350.22 866.095,-338.569 856.783,-329.081"/>
<polygon fill="midnightblue" stroke="midnightblue" points="859.092,-326.436 849.589,-321.751 854.096,-331.34 859.092,-326.436"/>
</g>
<!-- Node29 -->
<g id="node29" class="node"><title>Node29</title>
<g id="a_node29"><a xlink:href="parameter_8h.xhtml" target="_top" xlink:title="Parameter expressions that act like a shareable variable. ">
<polygon fill="white" stroke="black" points="654,-190.5 654,-209.5 730,-209.5 730,-190.5 654,-190.5"/>
<text text-anchor="middle" x="692" y="-197.5" font-family="Helvetica,sans-Serif" font-size="10.00">parameter.h</text>
</a>
</g>
</g>
<!-- Node1&#45;&gt;Node29 -->
<g id="edge74" class="edge"><title>Node1&#45;&gt;Node29</title>
<path fill="none" stroke="midnightblue" d="M870.961,-358.394C850.538,-350.311 820.274,-337.208 796,-322 762.822,-301.213 753.037,-296.1 728,-266 716.036,-251.617 706.073,-232.668 699.685,-218.944"/>
<polygon fill="midnightblue" stroke="midnightblue" points="702.797,-217.331 695.522,-209.629 696.407,-220.187 702.797,-217.331"/>
</g>
<!-- Node6&#45;&gt;Node2 -->
<g id="edge6" class="edge"><title>Node6&#45;&gt;Node2</title>
<path fill="none" stroke="midnightblue" d="M560.05,-251.503C608.981,-246.076 698.719,-233.69 772,-210 813.249,-196.665 858.062,-173.371 884.553,-158.59"/>
<polygon fill="midnightblue" stroke="midnightblue" points="886.461,-161.532 893.444,-153.564 883.016,-155.438 886.461,-161.532"/>
</g>
<!-- Node6&#45;&gt;Node3 -->
<g id="edge7" class="edge"><title>Node6&#45;&gt;Node3</title>
<path fill="none" stroke="midnightblue" d="M487.724,-251.492C429.625,-245.327 318.89,-231.159 286,-210 234.771,-177.042 225.418,-156.064 207,-98 202.834,-84.8671 198.327,-77.7058 207,-67 219.944,-51.0214 350.911,-30.1309 412.855,-21.0471"/>
<polygon fill="midnightblue" stroke="midnightblue" points="413.483,-24.4927 422.877,-19.5924 412.477,-17.5653 413.483,-24.4927"/>
</g>
<!-- Node6&#45;&gt;Node4 -->
<g id="edge10" class="edge"><title>Node6&#45;&gt;Node4</title>
<path fill="none" stroke="midnightblue" d="M560.378,-250.983C603.958,-245.361 678.642,-233.134 739,-210 801.852,-185.91 807.205,-158.24 870,-134 941.238,-106.501 967.96,-128.422 1038,-98 1076.89,-81.1097 1116.11,-50.3419 1137.81,-31.8245"/>
<polygon fill="midnightblue" stroke="midnightblue" points="1140.23,-34.3585 1145.49,-25.159 1135.64,-29.0733 1140.23,-34.3585"/>
</g>
<!-- Node6&#45;&gt;Node5 -->
<g id="edge11" class="edge"><title>Node6&#45;&gt;Node5</title>
<path fill="none" stroke="midnightblue" d="M560.07,-251.228C603.668,-245.822 678.689,-233.781 739,-210 754.954,-203.709 757.22,-198.7 772,-190 815.232,-164.553 822.45,-149.984 870,-134 926.456,-115.022 1087.63,-98.348 1183.56,-89.7265"/>
<polygon fill="midnightblue" stroke="midnightblue" points="1184.13,-93.1897 1193.78,-88.8164 1183.51,-86.2173 1184.13,-93.1897"/>
</g>
<!-- Node7 -->
<g id="node7" class="node"><title>Node7</title>
<polygon fill="white" stroke="#bfbfbf" points="330,-190.5 330,-209.5 398,-209.5 398,-190.5 330,-190.5"/>
<text text-anchor="middle" x="364" y="-197.5" font-family="Helvetica,sans-Serif" font-size="10.00">type_traits</text>
</g>
<!-- Node6&#45;&gt;Node7 -->
<g id="edge8" class="edge"><title>Node6&#45;&gt;Node7</title>
<path fill="none" stroke="midnightblue" d="M498.648,-246.444C471.731,-237.359 429.004,-222.939 398.913,-212.783"/>
<polygon fill="midnightblue" stroke="midnightblue" points="399.828,-209.398 389.234,-209.516 397.59,-216.031 399.828,-209.398"/>
</g>
<!-- Node8 -->
<g id="node8" class="node"><title>Node8</title>
<polygon fill="white" stroke="#bfbfbf" points="216,-73 216,-92 258,-92 258,-73 216,-73"/>
<text text-anchor="middle" x="237" y="-80" font-family="Helvetica,sans-Serif" font-size="10.00">utility</text>
</g>
<!-- Node6&#45;&gt;Node8 -->
<g id="edge9" class="edge"><title>Node6&#45;&gt;Node8</title>
<path fill="none" stroke="midnightblue" d="M487.705,-250.977C434.333,-244.469 337.97,-230.279 310,-210 272.486,-182.801 251.332,-129.974 242.296,-101.966"/>
<polygon fill="midnightblue" stroke="midnightblue" points="245.596,-100.786 239.329,-92.2431 238.901,-102.829 245.596,-100.786"/>
</g>
<!-- Node9 -->
<g id="node9" class="node"><title>Node9</title>
<polygon fill="white" stroke="#bfbfbf" points="416,-190.5 416,-209.5 522,-209.5 522,-190.5 416,-190.5"/>
<text text-anchor="middle" x="469" y="-197.5" font-family="Helvetica,sans-Serif" font-size="10.00">boost/optional.hpp</text>
</g>
<!-- Node6&#45;&gt;Node9 -->
<g id="edge12" class="edge"><title>Node6&#45;&gt;Node9</title>
<path fill="none" stroke="midnightblue" d="M514.918,-246.083C506.829,-238.141 494.805,-226.335 485.09,-216.797"/>
<polygon fill="midnightblue" stroke="midnightblue" points="487.501,-214.26 477.913,-209.751 482.597,-219.254 487.501,-214.26"/>
</g>
<!-- Node6&#45;&gt;Node10 -->
<g id="edge13" class="edge"><title>Node6&#45;&gt;Node10</title>
<path fill="none" stroke="midnightblue" d="M533.712,-246.343C559.438,-223.911 632.3,-163.597 704,-134 742.896,-117.944 858.804,-99.1393 922.279,-89.6478"/>
<polygon fill="midnightblue" stroke="midnightblue" points="922.992,-93.0805 932.37,-88.1514 921.965,-86.1562 922.992,-93.0805"/>
</g>
<!-- Node6&#45;&gt;Node15 -->
<g id="edge20" class="edge"><title>Node6&#45;&gt;Node15</title>
<path fill="none" stroke="midnightblue" d="M560.202,-251.703C665.957,-242.073 973.648,-214.054 1080.18,-204.353"/>
<polygon fill="midnightblue" stroke="midnightblue" points="1080.79,-207.812 1090.43,-203.42 1080.15,-200.841 1080.79,-207.812"/>
</g>
<!-- Node6&#45;&gt;Node17 -->
<g id="edge40" class="edge"><title>Node6&#45;&gt;Node17</title>
<path fill="none" stroke="midnightblue" d="M487.64,-252.276C434.974,-247.49 341.505,-235.548 321,-210 287.896,-168.754 375.217,-153.536 434.154,-148.027"/>
<polygon fill="midnightblue" stroke="midnightblue" points="434.771,-151.487 444.431,-147.137 434.166,-144.513 434.771,-151.487"/>
</g>
<!-- Node10&#45;&gt;Node3 -->
<g id="edge15" class="edge"><title>Node10&#45;&gt;Node3</title>
<path fill="none" stroke="midnightblue" d="M940.362,-72.8731C933.224,-70.6546 925.368,-68.479 918,-67 756.011,-34.4803 712.064,-50.5206 548,-31 524.179,-28.1657 497.344,-24.3684 477.039,-21.3708"/>
<polygon fill="midnightblue" stroke="midnightblue" points="477.472,-17.8968 467.066,-19.8854 476.441,-24.8205 477.472,-17.8968"/>
</g>
<!-- Node10&#45;&gt;Node4 -->
<g id="edge16" class="edge"><title>Node10&#45;&gt;Node4</title>
<path fill="none" stroke="midnightblue" d="M990.231,-72.8685C1024.15,-61.266 1084.5,-40.6182 1121.99,-27.7923"/>
<polygon fill="midnightblue" stroke="midnightblue" points="1123.13,-31.1019 1131.46,-24.5533 1120.86,-24.4787 1123.13,-31.1019"/>
</g>
<!-- Node11 -->
<g id="node11" class="node"><title>Node11</title>
<polygon fill="white" stroke="#bfbfbf" points="1053.5,-6 1053.5,-25 1102.5,-25 1102.5,-6 1053.5,-6"/>
<text text-anchor="middle" x="1078" y="-13" font-family="Helvetica,sans-Serif" font-size="10.00">cstdint</text>
</g>
<!-- Node10&#45;&gt;Node11 -->
<g id="edge14" class="edge"><title>Node10&#45;&gt;Node11</title>
<path fill="none" stroke="midnightblue" d="M980.24,-72.7338C999.216,-61.8182 1031.85,-43.0487 1054.15,-30.2209"/>
<polygon fill="midnightblue" stroke="midnightblue" points="1056.08,-33.1474 1063,-25.1273 1052.59,-27.0796 1056.08,-33.1474"/>
</g>
<!-- Node12 -->
<g id="node12" class="node"><title>Node12</title>
<polygon fill="white" stroke="#bfbfbf" points="705,-6 705,-25 877,-25 877,-6 705,-6"/>
<text text-anchor="middle" x="791" y="-13" font-family="Helvetica,sans-Serif" font-size="10.00">boost/multi_index_container.hpp</text>
</g>
<!-- Node10&#45;&gt;Node12 -->
<g id="edge17" class="edge"><title>Node10&#45;&gt;Node12</title>
<path fill="none" stroke="midnightblue" d="M941.894,-72.8685C911.52,-61.5219 857.989,-41.5246 823.531,-28.6522"/>
<polygon fill="midnightblue" stroke="midnightblue" points="824.517,-25.2845 813.924,-25.0637 822.067,-31.8419 824.517,-25.2845"/>
</g>
<!-- Node13 -->
<g id="node13" class="node"><title>Node13</title>
<polygon fill="white" stroke="#bfbfbf" points="895,-0.5 895,-30.5 1035,-30.5 1035,-0.5 895,-0.5"/>
<text text-anchor="start" x="903" y="-18.5" font-family="Helvetica,sans-Serif" font-size="10.00">boost/multi_index/hashed</text>
<text text-anchor="middle" x="965" y="-7.5" font-family="Helvetica,sans-Serif" font-size="10.00">_index.hpp</text>
</g>
<!-- Node10&#45;&gt;Node13 -->
<g id="edge18" class="edge"><title>Node10&#45;&gt;Node13</title>
<path fill="none" stroke="midnightblue" d="M965,-72.7338C965,-64.5406 965,-51.9225 965,-40.7136"/>
<polygon fill="midnightblue" stroke="midnightblue" points="968.5,-40.589 965,-30.589 961.5,-40.5891 968.5,-40.589"/>
</g>
<!-- Node14 -->
<g id="node14" class="node"><title>Node14</title>
<polygon fill="white" stroke="#bfbfbf" points="557,-0.5 557,-30.5 687,-30.5 687,-0.5 557,-0.5"/>
<text text-anchor="start" x="565" y="-18.5" font-family="Helvetica,sans-Serif" font-size="10.00">boost/multi_index/mem</text>
<text text-anchor="middle" x="622" y="-7.5" font-family="Helvetica,sans-Serif" font-size="10.00">_fun.hpp</text>
</g>
<!-- Node10&#45;&gt;Node14 -->
<g id="edge19" class="edge"><title>Node10&#45;&gt;Node14</title>
<path fill="none" stroke="midnightblue" d="M939.318,-72.8736C932.445,-70.7586 924.984,-68.6353 918,-67 823.813,-44.9463 796.16,-48.3572 697.451,-31.2083"/>
<polygon fill="midnightblue" stroke="midnightblue" points="697.804,-27.7168 687.348,-29.4251 696.588,-34.6102 697.804,-27.7168"/>
</g>
<!-- Node15&#45;&gt;Node2 -->
<g id="edge22" class="edge"><title>Node15&#45;&gt;Node2</title>
<path fill="none" stroke="midnightblue" d="M1090.1,-192.051C1053.64,-182.63 988.301,-165.748 946.604,-154.974"/>
<polygon fill="midnightblue" stroke="midnightblue" points="947.359,-151.555 936.802,-152.442 945.608,-158.332 947.359,-151.555"/>
</g>
<!-- Node15&#45;&gt;Node3 -->
<g id="edge23" class="edge"><title>Node15&#45;&gt;Node3</title>
<path fill="none" stroke="midnightblue" d="M1105.48,-190.353C1087.36,-177.022 1050.77,-151.195 1017,-134 1016.86,-133.926 842.158,-67.0393 842,-67 714.249,-35.23 678.517,-48.1763 548,-31 524.216,-27.87 497.38,-24.0839 477.064,-21.1654"/>
<polygon fill="midnightblue" stroke="midnightblue" points="477.483,-17.6897 467.086,-19.7265 476.484,-24.618 477.483,-17.6897"/>
</g>
<!-- Node15&#45;&gt;Node4 -->
<g id="edge24" class="edge"><title>Node15&#45;&gt;Node4</title>
<path fill="none" stroke="midnightblue" d="M1120.02,-190.465C1123.11,-181.482 1127.89,-166.883 1131,-154 1141.12,-112.144 1148.75,-62.1428 1152.48,-35.4727"/>
<polygon fill="midnightblue" stroke="midnightblue" points="1155.99,-35.6485 1153.87,-25.2673 1149.05,-34.7028 1155.99,-35.6485"/>
</g>
<!-- Node15&#45;&gt;Node5 -->
<g id="edge25" class="edge"><title>Node15&#45;&gt;Node5</title>
<path fill="none" stroke="midnightblue" d="M1127.6,-190.319C1151.38,-170.837 1209.26,-123.425 1239.27,-98.8448"/>
<polygon fill="midnightblue" stroke="midnightblue" points="1241.76,-101.326 1247.28,-92.282 1237.33,-95.9113 1241.76,-101.326"/>
</g>
<!-- Node15&#45;&gt;Node10 -->
<g id="edge27" class="edge"><title>Node15&#45;&gt;Node10</title>
<path fill="none" stroke="midnightblue" d="M1110.07,-190.209C1099.3,-176.916 1077.42,-151.406 1055,-134 1035.72,-119.03 1011.47,-105.69 992.998,-96.4851"/>
<polygon fill="midnightblue" stroke="midnightblue" points="994.446,-93.2975 983.924,-92.062 991.379,-99.5898 994.446,-93.2975"/>
</g>
<!-- Node15&#45;&gt;Node11 -->
<g id="edge21" class="edge"><title>Node15&#45;&gt;Node11</title>
<path fill="none" stroke="midnightblue" d="M1115.12,-190.198C1109.11,-162.073 1090.28,-73.9576 1081.99,-35.1575"/>
<polygon fill="midnightblue" stroke="midnightblue" points="1085.37,-34.2618 1079.86,-25.214 1078.53,-35.7247 1085.37,-34.2618"/>
</g>
<!-- Node16 -->
<g id="node16" class="node"><title>Node16</title>
<polygon fill="white" stroke="#bfbfbf" points="1297.5,-134.5 1297.5,-153.5 1398.5,-153.5 1398.5,-134.5 1297.5,-134.5"/>
<text text-anchor="middle" x="1348" y="-141.5" font-family="Helvetica,sans-Serif" font-size="10.00">boost/variant.hpp</text>
</g>
<!-- Node15&#45;&gt;Node16 -->
<g id="edge26" class="edge"><title>Node15&#45;&gt;Node16</title>
<path fill="none" stroke="midnightblue" d="M1143.95,-192.7C1182.54,-183.68 1254.07,-166.957 1301.36,-155.903"/>
<polygon fill="midnightblue" stroke="midnightblue" points="1302.41,-159.251 1311.35,-153.567 1300.82,-152.435 1302.41,-159.251"/>
</g>
<!-- Node15&#45;&gt;Node17 -->
<g id="edge28" class="edge"><title>Node15&#45;&gt;Node17</title>
<path fill="none" stroke="midnightblue" d="M1090.16,-196.714C992.963,-188.435 658.422,-159.941 531.95,-149.169"/>
<polygon fill="midnightblue" stroke="midnightblue" points="532.048,-145.665 521.787,-148.304 531.454,-152.64 532.048,-145.665"/>
</g>
<!-- Node17&#45;&gt;Node3 -->
<g id="edge31" class="edge"><title>Node17&#45;&gt;Node3</title>
<path fill="none" stroke="midnightblue" d="M444.422,-138.515C418.929,-133.325 387.311,-122.132 371,-98 363.285,-86.5851 364.565,-79.1826 371,-67 380.049,-49.8702 397.81,-37.4546 413.663,-29.2209"/>
<polygon fill="midnightblue" stroke="midnightblue" points="415.218,-32.3568 422.697,-24.8523 412.17,-26.055 415.218,-32.3568"/>
</g>
<!-- Node17&#45;&gt;Node4 -->
<g id="edge33" class="edge"><title>Node17&#45;&gt;Node4</title>
<path fill="none" stroke="midnightblue" d="M521.724,-136.424C649.561,-114.667 1053.29,-45.578 1111,-31 1114.46,-30.1266 1118.04,-29.1206 1121.59,-28.0544"/>
<polygon fill="midnightblue" stroke="midnightblue" points="1122.95,-31.2969 1131.43,-24.9493 1120.84,-24.6215 1122.95,-31.2969"/>
</g>
<!-- Node17&#45;&gt;Node5 -->
<g id="edge35" class="edge"><title>Node17&#45;&gt;Node5</title>
<path fill="none" stroke="midnightblue" d="M521.698,-140.029C643.714,-130.661 1021.83,-101.631 1183.48,-89.2211"/>
<polygon fill="midnightblue" stroke="midnightblue" points="1184.11,-92.6834 1193.81,-88.4281 1183.57,-85.7039 1184.11,-92.6834"/>
</g>
<!-- Node17&#45;&gt;Node8 -->
<g id="edge32" class="edge"><title>Node17&#45;&gt;Node8</title>
<path fill="none" stroke="midnightblue" d="M444.398,-137.875C400.59,-131.394 327.382,-118.535 267,-98 265.381,-97.4494 263.736,-96.8326 262.092,-96.1722"/>
<polygon fill="midnightblue" stroke="midnightblue" points="263.446,-92.9437 252.887,-92.0712 260.597,-99.3378 263.446,-92.9437"/>
</g>
<!-- Node17&#45;&gt;Node10 -->
<g id="edge36" class="edge"><title>Node17&#45;&gt;Node10</title>
<path fill="none" stroke="midnightblue" d="M521.743,-136.127C526.538,-135.363 531.377,-134.634 536,-134 688.299,-113.122 727.709,-118.936 880,-98 893.827,-96.0991 908.857,-93.6596 922.38,-91.3258"/>
<polygon fill="midnightblue" stroke="midnightblue" points="923.136,-94.7467 932.382,-89.5725 921.928,-87.8518 923.136,-94.7467"/>
</g>
<!-- Node18 -->
<g id="node18" class="node"><title>Node18</title>
<polygon fill="white" stroke="#bfbfbf" points="584,-73 584,-92 646,-92 646,-73 584,-73"/>
<text text-anchor="middle" x="615" y="-80" font-family="Helvetica,sans-Serif" font-size="10.00">algorithm</text>
</g>
<!-- Node17&#45;&gt;Node18 -->
<g id="edge29" class="edge"><title>Node17&#45;&gt;Node18</title>
<path fill="none" stroke="midnightblue" d="M501.912,-134.475C524.163,-124.445 561.312,-107.7 586.926,-96.1546"/>
<polygon fill="midnightblue" stroke="midnightblue" points="588.444,-99.3094 596.123,-92.0091 585.568,-92.9277 588.444,-99.3094"/>
</g>
<!-- Node19 -->
<g id="node19" class="node"><title>Node19</title>
<polygon fill="white" stroke="#bfbfbf" points="380,-73 380,-92 436,-92 436,-73 380,-73"/>
<text text-anchor="middle" x="408" y="-80" font-family="Helvetica,sans-Serif" font-size="10.00">sstream</text>
</g>
<!-- Node17&#45;&gt;Node19 -->
<g id="edge30" class="edge"><title>Node17&#45;&gt;Node19</title>
<path fill="none" stroke="midnightblue" d="M472.254,-134.475C460.447,-125.108 441.257,-109.884 426.918,-98.5081"/>
<polygon fill="midnightblue" stroke="midnightblue" points="428.735,-95.4822 418.726,-92.0091 424.385,-100.966 428.735,-95.4822"/>
</g>
<!-- Node20 -->
<g id="node20" class="node"><title>Node20</title>
<polygon fill="white" stroke="#bfbfbf" points="454,-67.5 454,-97.5 566,-97.5 566,-67.5 454,-67.5"/>
<text text-anchor="start" x="462" y="-85.5" font-family="Helvetica,sans-Serif" font-size="10.00">boost/icl/continuous</text>
<text text-anchor="middle" x="510" y="-74.5" font-family="Helvetica,sans-Serif" font-size="10.00">_interval.hpp</text>
</g>
<!-- Node17&#45;&gt;Node20 -->
<g id="edge34" class="edge"><title>Node17&#45;&gt;Node20</title>
<path fill="none" stroke="midnightblue" d="M486.868,-134.475C490.149,-127.245 495.014,-116.525 499.436,-106.779"/>
<polygon fill="midnightblue" stroke="midnightblue" points="502.692,-108.076 503.637,-97.523 496.317,-105.183 502.692,-108.076"/>
</g>
<!-- Node21 -->
<g id="node21" class="node"><title>Node21</title>
<g id="a_node21"><a xlink:href="error_8h.xhtml" target="_top" xlink:title="Exceptions for SCRAM. ">
<polygon fill="white" stroke="black" points="276,-73 276,-92 324,-92 324,-73 276,-73"/>
<text text-anchor="middle" x="300" y="-80" font-family="Helvetica,sans-Serif" font-size="10.00">error.h</text>
</a>
</g>
</g>
<!-- Node17&#45;&gt;Node21 -->
<g id="edge37" class="edge"><title>Node17&#45;&gt;Node21</title>
<path fill="none" stroke="midnightblue" d="M453.661,-134.491C424.244,-125.821 377.735,-111.731 338,-98 335.748,-97.2216 333.429,-96.3965 331.1,-95.5504"/>
<polygon fill="midnightblue" stroke="midnightblue" points="332.209,-92.2286 321.616,-92.0207 329.767,-98.789 332.209,-92.2286"/>
</g>
<!-- Node21&#45;&gt;Node3 -->
<g id="edge39" class="edge"><title>Node21&#45;&gt;Node3</title>
<path fill="none" stroke="midnightblue" d="M319.255,-72.8685C344.171,-61.699 387.788,-42.1468 416.535,-29.2602"/>
<polygon fill="midnightblue" stroke="midnightblue" points="417.972,-32.4516 425.665,-25.1672 415.109,-26.064 417.972,-32.4516"/>
</g>
<!-- Node22 -->
<g id="node22" class="node"><title>Node22</title>
<polygon fill="white" stroke="#bfbfbf" points="268.5,-6 268.5,-25 331.5,-25 331.5,-6 268.5,-6"/>
<text text-anchor="middle" x="300" y="-13" font-family="Helvetica,sans-Serif" font-size="10.00">exception</text>
</g>
<!-- Node21&#45;&gt;Node22 -->
<g id="edge38" class="edge"><title>Node21&#45;&gt;Node22</title>
<path fill="none" stroke="midnightblue" d="M300,-72.7338C300,-63.1826 300,-47.6183 300,-35.2829"/>
<polygon fill="midnightblue" stroke="midnightblue" points="303.5,-35.1273 300,-25.1273 296.5,-35.1273 303.5,-35.1273"/>
</g>
<!-- Node23&#45;&gt;Node2 -->
<g id="edge44" class="edge"><title>Node23&#45;&gt;Node2</title>
<path fill="none" stroke="midnightblue" d="M1146.89,-246.358C1121.42,-237.752 1081.7,-223.859 1048,-210 1007.65,-193.409 962,-171.632 934.111,-157.975"/>
<polygon fill="midnightblue" stroke="midnightblue" points="935.542,-154.778 925.024,-153.504 932.452,-161.059 935.542,-154.778"/>
</g>
<!-- Node23&#45;&gt;Node3 -->
<g id="edge45" class="edge"><title>Node23&#45;&gt;Node3</title>
<path fill="none" stroke="midnightblue" d="M1154.87,-246.493C1136.21,-237.652 1106.36,-223.276 1081,-210 1019.65,-177.887 1008.99,-160.453 945,-134 894.223,-113.009 760.467,-79.6551 707,-67 624.897,-47.5671 527,-30.2236 477.343,-21.833"/>
<polygon fill="midnightblue" stroke="midnightblue" points="477.658,-18.337 467.217,-20.1334 476.499,-25.2404 477.658,-18.337"/>
</g>
<!-- Node23&#45;&gt;Node4 -->
<g id="edge46" class="edge"><title>Node23&#45;&gt;Node4</title>
<path fill="none" stroke="midnightblue" d="M1211.88,-253.316C1271.88,-249.809 1382.7,-239.423 1407,-210 1428.51,-183.958 1420.9,-164.785 1407,-134 1369.15,-50.1635 1248.02,-26.0326 1188.56,-19.1738"/>
<polygon fill="midnightblue" stroke="midnightblue" points="1188.86,-15.6863 1178.55,-18.116 1188.13,-22.6475 1188.86,-15.6863"/>
</g>
<!-- Node23&#45;&gt;Node5 -->
<g id="edge47" class="edge"><title>Node23&#45;&gt;Node5</title>
<path fill="none" stroke="midnightblue" d="M1189.23,-246.479C1202.44,-238.71 1220.56,-226.012 1231,-210 1252.8,-176.576 1257.35,-128.601 1258.09,-102.381"/>
<polygon fill="midnightblue" stroke="midnightblue" points="1261.59,-102.33 1258.21,-92.2883 1254.59,-102.245 1261.59,-102.33"/>
</g>
<!-- Node23&#45;&gt;Node10 -->
<g id="edge49" class="edge"><title>Node23&#45;&gt;Node10</title>
<path fill="none" stroke="midnightblue" d="M1171.84,-246.288C1169.74,-233.097 1164.32,-207.719 1152,-190 1116.87,-139.492 1049.56,-109.896 1006,-95.2074"/>
<polygon fill="midnightblue" stroke="midnightblue" points="1006.88,-91.8108 996.285,-92.0434 1004.71,-98.467 1006.88,-91.8108"/>
</g>
<!-- Node23&#45;&gt;Node15 -->
<g id="edge50" class="edge"><title>Node23&#45;&gt;Node15</title>
<path fill="none" stroke="midnightblue" d="M1164,-246.324C1155.81,-238.42 1143.49,-226.548 1133.53,-216.938"/>
<polygon fill="midnightblue" stroke="midnightblue" points="1135.79,-214.256 1126.16,-209.834 1130.93,-219.295 1135.79,-214.256"/>
</g>
<!-- Node23&#45;&gt;Node16 -->
<g id="edge48" class="edge"><title>Node23&#45;&gt;Node16</title>
<path fill="none" stroke="midnightblue" d="M1195.16,-246.471C1215.16,-238.348 1245.03,-225.139 1269,-210 1292.06,-195.434 1315.88,-174.954 1331.25,-160.897"/>
<polygon fill="midnightblue" stroke="midnightblue" points="1333.92,-163.196 1338.86,-153.826 1329.15,-158.067 1333.92,-163.196"/>
</g>
<!-- Node23&#45;&gt;Node17 -->
<g id="edge51" class="edge"><title>Node23&#45;&gt;Node17</title>
<path fill="none" stroke="midnightblue" d="M1134.47,-253.199C1029.17,-248.04 738.199,-232.146 645,-210 594.984,-198.115 540.118,-173.439 508.793,-158.143"/>
<polygon fill="midnightblue" stroke="midnightblue" points="510,-154.835 499.486,-153.534 506.894,-161.108 510,-154.835"/>
</g>
<!-- Node24 -->
<g id="node24" class="node"><title>Node24</title>
<g id="a_node24"><a xlink:href="variant_8h.xhtml" target="_top" xlink:title="Extra helper functions for boost::variant. ">
<polygon fill="white" stroke="black" points="1321.5,-190.5 1321.5,-209.5 1398.5,-209.5 1398.5,-190.5 1321.5,-190.5"/>
<text text-anchor="middle" x="1360" y="-197.5" font-family="Helvetica,sans-Serif" font-size="10.00">ext/variant.h</text>
</a>
</g>
</g>
<!-- Node23&#45;&gt;Node24 -->
<g id="edge52" class="edge"><title>Node23&#45;&gt;Node24</title>
<path fill="none" stroke="midnightblue" d="M1202.63,-246.444C1234.5,-237.241 1285.33,-222.562 1320.56,-212.388"/>
<polygon fill="midnightblue" stroke="midnightblue" points="1321.87,-215.653 1330.51,-209.516 1319.93,-208.928 1321.87,-215.653"/>
</g>
<!-- Node24&#45;&gt;Node16 -->
<g id="edge53" class="edge"><title>Node24&#45;&gt;Node16</title>
<path fill="none" stroke="midnightblue" d="M1358.02,-190.083C1356.43,-182.927 1354.14,-172.635 1352.15,-163.691"/>
<polygon fill="midnightblue" stroke="midnightblue" points="1355.53,-162.754 1349.94,-153.751 1348.7,-164.272 1355.53,-162.754"/>
</g>
<!-- Node25&#45;&gt;Node3 -->
<g id="edge56" class="edge"><title>Node25&#45;&gt;Node3</title>
<path fill="none" stroke="midnightblue" d="M101.738,-190.442C109.444,-181.676 121.342,-167.464 130,-154 153.437,-117.555 139.333,-92.9947 174,-67 192.99,-52.7602 345.295,-30.2631 412.886,-20.8583"/>
<polygon fill="midnightblue" stroke="midnightblue" points="413.547,-24.3004 422.974,-19.4646 412.589,-17.3663 413.547,-24.3004"/>
</g>
<!-- Node25&#45;&gt;Node17 -->
<g id="edge58" class="edge"><title>Node25&#45;&gt;Node17</title>
<path fill="none" stroke="midnightblue" d="M155.638,-190.444C232.925,-179.715 363.823,-161.544 434.413,-151.745"/>
<polygon fill="midnightblue" stroke="midnightblue" points="434.952,-155.203 444.376,-150.362 433.99,-148.27 434.952,-155.203"/>
</g>
<!-- Node26 -->
<g id="node26" class="node"><title>Node26</title>
<polygon fill="white" stroke="#bfbfbf" points="28.5,-134.5 28.5,-153.5 121.5,-153.5 121.5,-134.5 28.5,-134.5"/>
<text text-anchor="middle" x="75" y="-141.5" font-family="Helvetica,sans-Serif" font-size="10.00">unordered_map</text>
</g>
<!-- Node25&#45;&gt;Node26 -->
<g id="edge57" class="edge"><title>Node25&#45;&gt;Node26</title>
<path fill="none" stroke="midnightblue" d="M90.8625,-190.083C88.3171,-182.849 84.6438,-172.409 81.4729,-163.397"/>
<polygon fill="midnightblue" stroke="midnightblue" points="84.6998,-162.023 78.0791,-153.751 78.0966,-164.346 84.6998,-162.023"/>
</g>
<!-- Node27&#45;&gt;Node2 -->
<g id="edge60" class="edge"><title>Node27&#45;&gt;Node2</title>
<path fill="none" stroke="midnightblue" d="M835.133,-302.451C827.024,-289.472 814.512,-264.368 825,-246 840.61,-218.662 866.156,-234.439 886,-210 896.785,-196.718 902.393,-177.883 905.238,-163.904"/>
<polygon fill="midnightblue" stroke="midnightblue" points="908.707,-164.386 906.974,-153.934 901.811,-163.186 908.707,-164.386"/>
</g>
<!-- Node27&#45;&gt;Node3 -->
<g id="edge61" class="edge"><title>Node27&#45;&gt;Node3</title>
<path fill="none" stroke="midnightblue" d="M805.21,-305.089C757.866,-295.063 676.716,-269.658 645,-210 615.093,-153.745 694.434,-117.041 655,-67 643.962,-52.9927 533.361,-31.916 477.267,-22.0121"/>
<polygon fill="midnightblue" stroke="midnightblue" points="477.595,-18.5164 467.142,-20.2413 476.389,-25.4118 477.595,-18.5164"/>
</g>
<!-- Node27&#45;&gt;Node4 -->
<g id="edge63" class="edge"><title>Node27&#45;&gt;Node4</title>
<path fill="none" stroke="midnightblue" d="M876.675,-309.205C1019.32,-301.563 1541,-268.968 1541,-201 1541,-201 1541,-201 1541,-143 1541,-69.1546 1282.67,-31.4713 1188.68,-20.2045"/>
<polygon fill="midnightblue" stroke="midnightblue" points="1188.9,-16.7075 1178.56,-19.0191 1188.09,-23.6599 1188.9,-16.7075"/>
</g>
<!-- Node27&#45;&gt;Node5 -->
<g id="edge64" class="edge"><title>Node27&#45;&gt;Node5</title>
<path fill="none" stroke="midnightblue" d="M876.556,-310.654C990.558,-308.689 1343.22,-295.672 1407,-210 1427.17,-182.905 1426.68,-161.451 1407,-134 1389.7,-109.874 1360.24,-97.1313 1332.05,-90.4547"/>
<polygon fill="midnightblue" stroke="midnightblue" points="1332.67,-87.0076 1322.16,-88.3373 1331.2,-93.8526 1332.67,-87.0076"/>
</g>
<!-- Node27&#45;&gt;Node6 -->
<g id="edge65" class="edge"><title>Node27&#45;&gt;Node6</title>
<path fill="none" stroke="midnightblue" d="M805.134,-305.085C753.86,-296.6 656.663,-280.405 574,-266 572.729,-265.779 571.44,-265.553 570.14,-265.325"/>
<polygon fill="midnightblue" stroke="midnightblue" points="570.499,-261.834 560.042,-263.537 569.278,-268.727 570.499,-261.834"/>
</g>
<!-- Node27&#45;&gt;Node10 -->
<g id="edge66" class="edge"><title>Node27&#45;&gt;Node10</title>
<path fill="none" stroke="midnightblue" d="M834.633,-302.232C828.74,-293.532 820.393,-279.572 817,-266 814.844,-257.377 815.052,-254.673 817,-246 829.071,-192.269 831.978,-173.837 870,-134 886.438,-116.777 910.059,-104.185 929.634,-95.883"/>
<polygon fill="midnightblue" stroke="midnightblue" points="931.192,-99.0287 939.155,-92.0405 928.572,-92.5374 931.192,-99.0287"/>
</g>
<!-- Node27&#45;&gt;Node15 -->
<g id="edge67" class="edge"><title>Node27&#45;&gt;Node15</title>
<path fill="none" stroke="midnightblue" d="M862.657,-302.368C911.329,-282.97 1029.51,-235.87 1085.97,-213.367"/>
<polygon fill="midnightblue" stroke="midnightblue" points="1087.45,-216.545 1095.44,-209.591 1084.86,-210.042 1087.45,-216.545"/>
</g>
<!-- Node28 -->
<g id="node28" class="node"><title>Node28</title>
<polygon fill="white" stroke="#bfbfbf" points="834,-246.5 834,-265.5 920,-265.5 920,-246.5 834,-246.5"/>
<text text-anchor="middle" x="877" y="-253.5" font-family="Helvetica,sans-Serif" font-size="10.00">unordered_set</text>
</g>
<!-- Node27&#45;&gt;Node28 -->
<g id="edge62" class="edge"><title>Node27&#45;&gt;Node28</title>
<path fill="none" stroke="midnightblue" d="M846.945,-302.083C851.977,-294.534 859.337,-283.495 865.513,-274.23"/>
<polygon fill="midnightblue" stroke="midnightblue" points="868.531,-276.013 871.166,-265.751 862.707,-272.13 868.531,-276.013"/>
</g>
<!-- Node27&#45;&gt;Node29 -->
<g id="edge68" class="edge"><title>Node27&#45;&gt;Node29</title>
<path fill="none" stroke="midnightblue" d="M819.832,-302.429C801.476,-294.46 774.683,-281.502 754,-266 735.192,-251.903 717.04,-231.875 705.29,-217.786"/>
<polygon fill="midnightblue" stroke="midnightblue" points="707.884,-215.428 698.853,-209.887 702.457,-219.85 707.884,-215.428"/>
</g>
<!-- Node29&#45;&gt;Node2 -->
<g id="edge70" class="edge"><title>Node29&#45;&gt;Node2</title>
<path fill="none" stroke="midnightblue" d="M726.226,-190.444C765.266,-180.683 828.943,-164.764 869.632,-154.592"/>
<polygon fill="midnightblue" stroke="midnightblue" points="870.6,-157.958 879.453,-152.137 868.902,-151.167 870.6,-157.958"/>
</g>
<!-- Node29&#45;&gt;Node3 -->
<g id="edge71" class="edge"><title>Node29&#45;&gt;Node3</title>
<path fill="none" stroke="midnightblue" d="M693.07,-190.292C696.113,-163.924 703.621,-85.6176 688,-67 674.484,-50.891 540.289,-29.986 477.316,-20.9657"/>
<polygon fill="midnightblue" stroke="midnightblue" points="477.531,-17.4613 467.139,-19.5227 476.548,-24.392 477.531,-17.4613"/>
</g>
<!-- Node29&#45;&gt;Node10 -->
<g id="edge72" class="edge"><title>Node29&#45;&gt;Node10</title>
<path fill="none" stroke="midnightblue" d="M693.584,-190.3C696.634,-176.168 704.711,-148.363 723,-134 730.846,-127.838 854.981,-103.983 922.324,-91.3893"/>
<polygon fill="midnightblue" stroke="midnightblue" points="923.034,-94.8173 932.223,-89.5429 921.75,-87.936 923.034,-94.8173"/>
</g>
<!-- Node29&#45;&gt;Node11 -->
<g id="edge69" class="edge"><title>Node29&#45;&gt;Node11</title>
<path fill="none" stroke="midnightblue" d="M702.836,-190.492C721.393,-176.382 760.947,-148.282 799,-134 886.426,-101.188 924.489,-143.562 1006,-98 1033.49,-82.6332 1055.73,-52.6869 1067.88,-33.6869"/>
<polygon fill="midnightblue" stroke="midnightblue" points="1070.9,-35.468 1073.16,-25.1172 1064.94,-31.7986 1070.9,-35.468"/>
</g>
<!-- Node29&#45;&gt;Node17 -->
<g id="edge73" class="edge"><title>Node29&#45;&gt;Node17</title>
<path fill="none" stroke="midnightblue" d="M658.883,-190.444C622.882,-181.142 565.23,-166.246 525.814,-156.062"/>
<polygon fill="midnightblue" stroke="midnightblue" points="526.519,-152.629 515.962,-153.516 524.768,-159.407 526.519,-152.629"/>
</g>
</g>
</svg>
        <g id="navigator" transform="translate(0 0)" fill="#404254">
                <rect fill="#f2f5e9" fill-opacity="0.5" stroke="#606060" stroke-width=".5" x="0" y="0" width="60" height="60"/>
                <use id="zoomplus" xlink:href="#zoomPlus" x="17" y="9" onmousedown="handleZoom(evt,'in')"/>
                <use id="zoomminus" xlink:href="#zoomMin" x="42" y="9" onmousedown="handleZoom(evt,'out')"/>
                <use id="reset" xlink:href="#resetDef" x="30" y="36" onmousedown="handleReset()"/>
                <g id="arrowUp" xlink:href="#dirArrow" transform="translate(30 24)" onmousedown="handlePan(0,-1)">
                  <use xlink:href="#rim" fill="#404040">
                        <set attributeName="fill" to="#808080" begin="arrowUp.mouseover" end="arrowUp.mouseout"/>
                  </use>
                  <path fill="none" stroke="white" stroke-width="1.5" d="M0,-3.0v7 M-2.5,-0.5L0,-3.0L2.5,-0.5"/>
                </g>
                <g id="arrowRight" xlink:href="#dirArrow" transform="rotate(90) translate(36 -43)" onmousedown="handlePan(1,0)">
                  <use xlink:href="#rim" fill="#404040">
                        <set attributeName="fill" to="#808080" begin="arrowRight.mouseover" end="arrowRight.mouseout"/>
                  </use>
                  <path fill="none" stroke="white" stroke-width="1.5" d="M0,-3.0v7 M-2.5,-0.5L0,-3.0L2.5,-0.5"/>
                </g>
                <g id="arrowDown" xlink:href="#dirArrow" transform="rotate(180) translate(-30 -48)" onmousedown="handlePan(0,1)">
                  <use xlink:href="#rim" fill="#404040">
                        <set attributeName="fill" to="#808080" begin="arrowDown.mouseover" end="arrowDown.mouseout"/>
                  </use>
                  <path fill="none" stroke="white" stroke-width="1.5" d="M0,-3.0v7 M-2.5,-0.5L0,-3.0L2.5,-0.5"/>
                </g>
                <g id="arrowLeft" xlink:href="#dirArrow" transform="rotate(270) translate(-36 17)" onmousedown="handlePan(-1,0)">
                  <use xlink:href="#rim" fill="#404040">
                        <set attributeName="fill" to="#808080" begin="arrowLeft.mouseover" end="arrowLeft.mouseout"/>
                  </use>
                  <path fill="none" stroke="white" stroke-width="1.5" d="M0,-3.0v7 M-2.5,-0.5L0,-3.0L2.5,-0.5"/>
                </g>
        </g>
        <svg viewBox="0 0 15 15" width="100%" height="30px" preserveAspectRatio="xMaxYMin meet">
         <g id="arrow_out" transform="scale(0.3 0.3)">
          <a xlink:href="model_8h__incl_org.svg" target="_base">
           <rect id="button" ry="5" rx="5" y="6" x="6" height="38" width="38"
                fill="#f2f5e9" fill-opacity="0.5" stroke="#606060" stroke-width="1.0"/>
           <path id="arrow"
             d="M 11.500037,31.436501 C 11.940474,20.09759 22.043105,11.32322 32.158766,21.979434 L 37.068811,17.246167 C 37.068811,17.246167 37.088388,32 37.088388,32 L 22.160133,31.978069 C 22.160133,31.978069 26.997745,27.140456 26.997745,27.140456 C 18.528582,18.264221 13.291696,25.230495 11.500037,31.436501 z"
             style="fill:#404040;"/>
          </a>
         </g>
        </svg>
</svg>
