<?xml version="1.0" encoding="UTF-8" standalone="no"?>
<!DOCTYPE svg PUBLIC "-//W3C//DTD SVG 1.1//EN"
 "http://www.w3.org/Graphics/SVG/1.1/DTD/svg11.dtd">
<!-- Generated by graphviz version 2.38.0 (20140413.2041)
 -->
<!-- Title: model.cc Pages: 1 -->
<svg width="1824pt" height="442pt"
 viewBox="0.00 0.00 1824.00 442.00" xmlns="http://www.w3.org/2000/svg" xmlns:xlink="http://www.w3.org/1999/xlink">
<g id="graph0" class="graph" transform="scale(1 1) rotate(0) translate(4 438)">
<title>model.cc</title>
<polygon fill="white" stroke="none" points="-4,4 -4,-438 1820,-438 1820,4 -4,4"/>
<!-- Node1 -->
<g id="node1" class="node"><title>Node1</title>
<polygon fill="#bfbfbf" stroke="black" points="1593,-414.5 1593,-433.5 1653,-433.5 1653,-414.5 1593,-414.5"/>
<text text-anchor="middle" x="1623" y="-421.5" font-family="Helvetica,sans-Serif" font-size="10.00">model.cc</text>
</g>
<!-- Node2 -->
<g id="node2" class="node"><title>Node2</title>
<g id="a_node2"><a xlink:href="model_8h.xhtml" target="_top" xlink:title="Representation for a model container for risk analysis. ">
<polygon fill="white" stroke="black" points="738,-358.5 738,-377.5 794,-377.5 794,-358.5 738,-358.5"/>
<text text-anchor="middle" x="766" y="-365.5" font-family="Helvetica,sans-Serif" font-size="10.00">model.h</text>
</a>
</g>
</g>
<!-- Node1&#45;&gt;Node2 -->
<g id="edge1" class="edge"><title>Node1&#45;&gt;Node2</title>
<path fill="none" stroke="midnightblue" d="M1592.5,-421.078C1461.89,-412.848 949.804,-380.582 804.582,-371.431"/>
<polygon fill="midnightblue" stroke="midnightblue" points="804.581,-367.924 794.38,-370.788 804.14,-374.91 804.581,-367.924"/>
</g>
<!-- Node22 -->
<g id="node22" class="node"><title>Node22</title>
<g id="a_node22"><a xlink:href="error_8h.xhtml" target="_top" xlink:title="Exceptions for SCRAM. ">
<polygon fill="white" stroke="black" points="1600,-73 1600,-92 1648,-92 1648,-73 1600,-73"/>
<text text-anchor="middle" x="1624" y="-80" font-family="Helvetica,sans-Serif" font-size="10.00">error.h</text>
</a>
</g>
</g>
<!-- Node1&#45;&gt;Node22 -->
<g id="edge76" class="edge"><title>Node1&#45;&gt;Node22</title>
<path fill="none" stroke="midnightblue" d="M1627.05,-414.379C1635.23,-396.114 1653,-351.996 1653,-313 1653,-313 1653,-313 1653,-199 1653,-163.643 1640.06,-123.982 1631.47,-101.545"/>
<polygon fill="midnightblue" stroke="midnightblue" points="1634.62,-100.008 1627.67,-92.0092 1628.12,-102.595 1634.62,-100.008"/>
</g>
<!-- Node31 -->
<g id="node31" class="node"><title>Node31</title>
<g id="a_node31"><a xlink:href="find__iterator_8h.xhtml" target="_top" xlink:title="Convenience iterator adaptor to wrap find calls and results. ">
<polygon fill="white" stroke="black" points="1523.5,-302.5 1523.5,-321.5 1624.5,-321.5 1624.5,-302.5 1523.5,-302.5"/>
<text text-anchor="middle" x="1574" y="-309.5" font-family="Helvetica,sans-Serif" font-size="10.00">ext/find_iterator.h</text>
</a>
</g>
</g>
<!-- Node1&#45;&gt;Node31 -->
<g id="edge77" class="edge"><title>Node1&#45;&gt;Node31</title>
<path fill="none" stroke="midnightblue" d="M1619.16,-414.368C1611.18,-396.456 1592.67,-354.923 1582,-330.948"/>
<polygon fill="midnightblue" stroke="midnightblue" points="1585.09,-329.302 1577.83,-321.591 1578.7,-332.15 1585.09,-329.302"/>
</g>
<!-- Node32 -->
<g id="node32" class="node"><title>Node32</title>
<g id="a_node32"><a xlink:href="multi__index_8h.xhtml" target="_top" xlink:title="Helper functions to boost multi_index_container. ">
<polygon fill="white" stroke="black" points="1681,-358.5 1681,-377.5 1779,-377.5 1779,-358.5 1681,-358.5"/>
<text text-anchor="middle" x="1730" y="-365.5" font-family="Helvetica,sans-Serif" font-size="10.00">ext/multi_index.h</text>
</a>
</g>
</g>
<!-- Node1&#45;&gt;Node32 -->
<g id="edge79" class="edge"><title>Node1&#45;&gt;Node32</title>
<path fill="none" stroke="midnightblue" d="M1640.19,-414.324C1657.35,-405.664 1683.95,-392.242 1703.75,-382.249"/>
<polygon fill="midnightblue" stroke="midnightblue" points="1705.5,-385.285 1712.85,-377.655 1702.35,-379.035 1705.5,-385.285"/>
</g>
<!-- Node3 -->
<g id="node3" class="node"><title>Node3</title>
<polygon fill="white" stroke="#bfbfbf" points="694.5,-134.5 694.5,-153.5 751.5,-153.5 751.5,-134.5 694.5,-134.5"/>
<text text-anchor="middle" x="723" y="-141.5" font-family="Helvetica,sans-Serif" font-size="10.00">memory</text>
</g>
<!-- Node2&#45;&gt;Node3 -->
<g id="edge2" class="edge"><title>Node2&#45;&gt;Node3</title>
<path fill="none" stroke="midnightblue" d="M761.678,-358.444C750.249,-335.281 719.399,-269.118 709,-210 706.219,-194.19 710.59,-176.376 715.164,-163.401"/>
<polygon fill="midnightblue" stroke="midnightblue" points="718.539,-164.378 718.902,-153.79 712.015,-161.841 718.539,-164.378"/>
</g>
<!-- Node4 -->
<g id="node4" class="node"><title>Node4</title>
<polygon fill="white" stroke="#bfbfbf" points="1141,-6 1141,-25 1185,-25 1185,-6 1141,-6"/>
<text text-anchor="middle" x="1163" y="-13" font-family="Helvetica,sans-Serif" font-size="10.00">string</text>
</g>
<!-- Node2&#45;&gt;Node4 -->
<g id="edge3" class="edge"><title>Node2&#45;&gt;Node4</title>
<path fill="none" stroke="midnightblue" d="M794.213,-367.332C936.87,-368.27 1572,-363.333 1572,-201 1572,-201 1572,-201 1572,-143 1572,-64.2855 1292.01,-29.2279 1195.35,-19.4703"/>
<polygon fill="midnightblue" stroke="midnightblue" points="1195.57,-15.9752 1185.28,-18.4786 1194.89,-22.9416 1195.57,-15.9752"/>
</g>
<!-- Node5 -->
<g id="node5" class="node"><title>Node5</title>
<polygon fill="white" stroke="#bfbfbf" points="414.5,-6 414.5,-25 461.5,-25 461.5,-6 414.5,-6"/>
<text text-anchor="middle" x="438" y="-13" font-family="Helvetica,sans-Serif" font-size="10.00">vector</text>
</g>
<!-- Node2&#45;&gt;Node5 -->
<g id="edge4" class="edge"><title>Node2&#45;&gt;Node5</title>
<path fill="none" stroke="midnightblue" d="M737.829,-365.985C599.633,-360.642 0,-333.076 0,-257 0,-257 0,-257 0,-143 0,-58.9113 301.74,-27.2639 404.33,-18.934"/>
<polygon fill="midnightblue" stroke="midnightblue" points="404.757,-22.4113 414.451,-18.136 404.207,-15.4329 404.757,-22.4113"/>
</g>
<!-- Node6 -->
<g id="node6" class="node"><title>Node6</title>
<polygon fill="white" stroke="#bfbfbf" points="282,-73 282,-92 410,-92 410,-73 282,-73"/>
<text text-anchor="middle" x="346" y="-80" font-family="Helvetica,sans-Serif" font-size="10.00">boost/noncopyable.hpp</text>
</g>
<!-- Node2&#45;&gt;Node6 -->
<g id="edge5" class="edge"><title>Node2&#45;&gt;Node6</title>
<path fill="none" stroke="midnightblue" d="M737.8,-367.071C667.421,-366.615 478.861,-361.482 328,-322 236.116,-297.953 190.237,-294.047 146,-210 130.073,-179.739 112.806,-160.836 134,-134 151.136,-112.302 217.805,-98.9194 271.864,-91.4296"/>
<polygon fill="midnightblue" stroke="midnightblue" points="272.35,-94.8959 281.796,-90.099 271.42,-87.9579 272.35,-94.8959"/>
</g>
<!-- Node7 -->
<g id="node7" class="node"><title>Node7</title>
<g id="a_node7"><a xlink:href="ccf__group_8h.xhtml" target="_top" xlink:title="Functional containers for basic events grouped by common cause failure. ">
<polygon fill="white" stroke="black" points="833,-246.5 833,-265.5 905,-265.5 905,-246.5 833,-246.5"/>
<text text-anchor="middle" x="869" y="-253.5" font-family="Helvetica,sans-Serif" font-size="10.00">ccf_group.h</text>
</a>
</g>
</g>
<!-- Node2&#45;&gt;Node7 -->
<g id="edge6" class="edge"><title>Node2&#45;&gt;Node7</title>
<path fill="none" stroke="midnightblue" d="M774.082,-358.368C791.306,-339.974 831.853,-296.671 853.97,-273.052"/>
<polygon fill="midnightblue" stroke="midnightblue" points="856.675,-275.283 860.955,-265.591 851.565,-270.499 856.675,-275.283"/>
</g>
<!-- Node11 -->
<g id="node11" class="node"><title>Node11</title>
<g id="a_node11"><a xlink:href="element_8h.xhtml" target="_top" xlink:title="Helper classes, structs, and properties common to all other classes. ">
<polygon fill="white" stroke="black" points="731.5,-73 731.5,-92 796.5,-92 796.5,-73 731.5,-73"/>
<text text-anchor="middle" x="764" y="-80" font-family="Helvetica,sans-Serif" font-size="10.00">element.h</text>
</a>
</g>
</g>
<!-- Node2&#45;&gt;Node11 -->
<g id="edge42" class="edge"><title>Node2&#45;&gt;Node11</title>
<path fill="none" stroke="midnightblue" d="M794.113,-364.368C877.888,-355.889 1122.95,-326.262 1170,-266 1190.36,-239.927 1154.65,-203.494 1137,-190 1014,-95.9572 947.952,-146.76 801,-98 798.735,-97.2484 796.406,-96.4351 794.072,-95.5906"/>
<polygon fill="midnightblue" stroke="midnightblue" points="795.193,-92.2728 784.602,-92.0207 792.724,-98.8229 795.193,-92.2728"/>
</g>
<!-- Node16 -->
<g id="node16" class="node"><title>Node16</title>
<g id="a_node16"><a xlink:href="event_8h.xhtml" target="_top" xlink:title="Contains event classes for fault trees. ">
<polygon fill="white" stroke="black" points="428.5,-190.5 428.5,-209.5 481.5,-209.5 481.5,-190.5 428.5,-190.5"/>
<text text-anchor="middle" x="455" y="-197.5" font-family="Helvetica,sans-Serif" font-size="10.00">event.h</text>
</a>
</g>
</g>
<!-- Node2&#45;&gt;Node16 -->
<g id="edge43" class="edge"><title>Node2&#45;&gt;Node16</title>
<path fill="none" stroke="midnightblue" d="M737.84,-364.638C691.661,-360.145 597.432,-348.358 522,-322 472.072,-304.553 444.211,-311.352 417,-266 406.843,-249.071 421.897,-229.493 435.95,-216.284"/>
<polygon fill="midnightblue" stroke="midnightblue" points="438.287,-218.889 443.487,-209.659 433.666,-213.632 438.287,-218.889"/>
</g>
<!-- Node18 -->
<g id="node18" class="node"><title>Node18</title>
<g id="a_node18"><a xlink:href="expression_8h.xhtml" target="_top" xlink:title="Provides the base class for all expressions and units for expression values. ">
<polygon fill="white" stroke="black" points="1179.5,-134.5 1179.5,-153.5 1256.5,-153.5 1256.5,-134.5 1179.5,-134.5"/>
<text text-anchor="middle" x="1218" y="-141.5" font-family="Helvetica,sans-Serif" font-size="10.00">expression.h</text>
</a>
</g>
</g>
<!-- Node2&#45;&gt;Node18 -->
<g id="edge55" class="edge"><title>Node2&#45;&gt;Node18</title>
<path fill="none" stroke="midnightblue" d="M794.237,-366.516C892.54,-364.542 1215.46,-355.534 1246,-322 1285.5,-278.624 1262.12,-246.409 1246,-190 1243.1,-179.844 1237.17,-169.747 1231.51,-161.699"/>
<polygon fill="midnightblue" stroke="midnightblue" points="1234.22,-159.479 1225.41,-153.589 1228.62,-163.685 1234.22,-159.479"/>
</g>
<!-- Node24 -->
<g id="node24" class="node"><title>Node24</title>
<g id="a_node24"><a xlink:href="event__tree_8h.xhtml" target="_top" xlink:title="Event Tree facilities. ">
<polygon fill="white" stroke="black" points="262.5,-246.5 262.5,-265.5 339.5,-265.5 339.5,-246.5 262.5,-246.5"/>
<text text-anchor="middle" x="301" y="-253.5" font-family="Helvetica,sans-Serif" font-size="10.00">event_tree.h</text>
</a>
</g>
</g>
<!-- Node2&#45;&gt;Node24 -->
<g id="edge44" class="edge"><title>Node2&#45;&gt;Node24</title>
<path fill="none" stroke="midnightblue" d="M737.888,-366.667C656.215,-365.279 420.541,-358.159 354,-322 334.27,-311.278 319.077,-289.886 310.115,-274.57"/>
<polygon fill="midnightblue" stroke="midnightblue" points="313.037,-272.62 305.141,-265.556 306.908,-276.002 313.037,-272.62"/>
</g>
<!-- Node26 -->
<g id="node26" class="node"><title>Node26</title>
<g id="a_node26"><a xlink:href="test__event_8h.xhtml" target="_top" xlink:title="Event tree analysis expressions to test functional and initiating events. ">
<polygon fill="white" stroke="black" points="1374.5,-190.5 1374.5,-209.5 1505.5,-209.5 1505.5,-190.5 1374.5,-190.5"/>
<text text-anchor="middle" x="1440" y="-197.5" font-family="Helvetica,sans-Serif" font-size="10.00">expression/test_event.h</text>
</a>
</g>
</g>
<!-- Node2&#45;&gt;Node26 -->
<g id="edge56" class="edge"><title>Node2&#45;&gt;Node26</title>
<path fill="none" stroke="midnightblue" d="M794.32,-366.635C888.984,-365.09 1193.53,-357.42 1284,-322 1343.87,-298.558 1399.77,-244.498 1425.36,-217.28"/>
<polygon fill="midnightblue" stroke="midnightblue" points="1428.09,-219.481 1432.3,-209.759 1422.95,-214.734 1428.09,-219.481"/>
</g>
<!-- Node28 -->
<g id="node28" class="node"><title>Node28</title>
<g id="a_node28"><a xlink:href="fault__tree_8h.xhtml" target="_top" xlink:title="Fault Tree and Component containers. ">
<polygon fill="white" stroke="black" points="531.5,-302.5 531.5,-321.5 602.5,-321.5 602.5,-302.5 531.5,-302.5"/>
<text text-anchor="middle" x="567" y="-309.5" font-family="Helvetica,sans-Serif" font-size="10.00">fault_tree.h</text>
</a>
</g>
</g>
<!-- Node2&#45;&gt;Node28 -->
<g id="edge60" class="edge"><title>Node2&#45;&gt;Node28</title>
<path fill="none" stroke="midnightblue" d="M737.91,-359.378C704.177,-350.224 647.297,-334.789 608.498,-324.261"/>
<polygon fill="midnightblue" stroke="midnightblue" points="609.126,-320.805 598.559,-321.564 607.293,-327.56 609.126,-320.805"/>
</g>
<!-- Node30 -->
<g id="node30" class="node"><title>Node30</title>
<g id="a_node30"><a xlink:href="parameter_8h.xhtml" target="_top" xlink:title="Parameter expressions that act like a shareable variable. ">
<polygon fill="white" stroke="black" points="728,-190.5 728,-209.5 804,-209.5 804,-190.5 728,-190.5"/>
<text text-anchor="middle" x="766" y="-197.5" font-family="Helvetica,sans-Serif" font-size="10.00">parameter.h</text>
</a>
</g>
</g>
<!-- Node2&#45;&gt;Node30 -->
<g id="edge75" class="edge"><title>Node2&#45;&gt;Node30</title>
<path fill="none" stroke="midnightblue" d="M766,-358.075C766,-331.945 766,-255.211 766,-219.577"/>
<polygon fill="midnightblue" stroke="midnightblue" points="769.5,-219.568 766,-209.568 762.5,-219.568 769.5,-219.568"/>
</g>
<!-- Node7&#45;&gt;Node3 -->
<g id="edge7" class="edge"><title>Node7&#45;&gt;Node3</title>
<path fill="none" stroke="midnightblue" d="M832.826,-255.502C797.395,-253.809 745.048,-245.01 719,-210 709.104,-196.7 711.856,-177.312 716.014,-163.173"/>
<polygon fill="midnightblue" stroke="midnightblue" points="719.373,-164.166 719.282,-153.572 712.747,-161.911 719.373,-164.166"/>
</g>
<!-- Node7&#45;&gt;Node4 -->
<g id="edge8" class="edge"><title>Node7&#45;&gt;Node4</title>
<path fill="none" stroke="midnightblue" d="M905.25,-254.988C967.835,-253.91 1099.4,-246.972 1203,-210 1289.97,-178.962 1334.43,-179.416 1378,-98 1415.55,-27.844 1264.27,-17.5289 1195.46,-16.3997"/>
<polygon fill="midnightblue" stroke="midnightblue" points="1195.2,-12.8969 1185.16,-16.2896 1195.12,-19.8965 1195.2,-12.8969"/>
</g>
<!-- Node7&#45;&gt;Node5 -->
<g id="edge11" class="edge"><title>Node7&#45;&gt;Node5</title>
<path fill="none" stroke="midnightblue" d="M832.949,-254.113C731.072,-251.239 446.626,-240.526 419,-210 407.411,-197.195 426.494,-81.1973 434.615,-35.1831"/>
<polygon fill="midnightblue" stroke="midnightblue" points="438.104,-35.5578 436.418,-25.0979 431.213,-34.3258 438.104,-35.5578"/>
</g>
<!-- Node7&#45;&gt;Node6 -->
<g id="edge12" class="edge"><title>Node7&#45;&gt;Node6</title>
<path fill="none" stroke="midnightblue" d="M836.345,-246.443C803.888,-237.791 752.766,-223.766 709,-210 586.025,-171.319 441.958,-118.989 378.645,-95.6306"/>
<polygon fill="midnightblue" stroke="midnightblue" points="379.786,-92.3209 369.192,-92.137 377.359,-98.8868 379.786,-92.3209"/>
</g>
<!-- Node8 -->
<g id="node8" class="node"><title>Node8</title>
<polygon fill="white" stroke="#bfbfbf" points="936,-190.5 936,-209.5 1004,-209.5 1004,-190.5 936,-190.5"/>
<text text-anchor="middle" x="970" y="-197.5" font-family="Helvetica,sans-Serif" font-size="10.00">type_traits</text>
</g>
<!-- Node7&#45;&gt;Node8 -->
<g id="edge9" class="edge"><title>Node7&#45;&gt;Node8</title>
<path fill="none" stroke="midnightblue" d="M885.227,-246.324C901.351,-237.703 926.3,-224.364 944.964,-214.386"/>
<polygon fill="midnightblue" stroke="midnightblue" points="946.644,-217.456 953.813,-209.655 943.344,-211.283 946.644,-217.456"/>
</g>
<!-- Node9 -->
<g id="node9" class="node"><title>Node9</title>
<polygon fill="white" stroke="#bfbfbf" points="1327,-73 1327,-92 1369,-92 1369,-73 1327,-73"/>
<text text-anchor="middle" x="1348" y="-80" font-family="Helvetica,sans-Serif" font-size="10.00">utility</text>
</g>
<!-- Node7&#45;&gt;Node9 -->
<g id="edge10" class="edge"><title>Node7&#45;&gt;Node9</title>
<path fill="none" stroke="midnightblue" d="M905.344,-253.801C962.521,-250.975 1076.31,-241.521 1167,-210 1236.18,-185.955 1302.91,-127.351 1332.31,-99.1576"/>
<polygon fill="midnightblue" stroke="midnightblue" points="1334.87,-101.552 1339.59,-92.066 1329.99,-96.5391 1334.87,-101.552"/>
</g>
<!-- Node10 -->
<g id="node10" class="node"><title>Node10</title>
<polygon fill="white" stroke="#bfbfbf" points="1022,-190.5 1022,-209.5 1128,-209.5 1128,-190.5 1022,-190.5"/>
<text text-anchor="middle" x="1075" y="-197.5" font-family="Helvetica,sans-Serif" font-size="10.00">boost/optional.hpp</text>
</g>
<!-- Node7&#45;&gt;Node10 -->
<g id="edge13" class="edge"><title>Node7&#45;&gt;Node10</title>
<path fill="none" stroke="midnightblue" d="M901.641,-246.444C937.05,-237.162 993.709,-222.309 1032.55,-212.127"/>
<polygon fill="midnightblue" stroke="midnightblue" points="1033.73,-215.438 1042.51,-209.516 1031.95,-208.667 1033.73,-215.438"/>
</g>
<!-- Node7&#45;&gt;Node11 -->
<g id="edge14" class="edge"><title>Node7&#45;&gt;Node11</title>
<path fill="none" stroke="midnightblue" d="M865.656,-246.359C857.542,-225.895 835.513,-173.249 809,-134 800.578,-121.532 789.314,-108.895 780.163,-99.3804"/>
<polygon fill="midnightblue" stroke="midnightblue" points="782.594,-96.8607 773.081,-92.1953 777.608,-101.774 782.594,-96.8607"/>
</g>
<!-- Node7&#45;&gt;Node16 -->
<g id="edge21" class="edge"><title>Node7&#45;&gt;Node16</title>
<path fill="none" stroke="midnightblue" d="M832.984,-250.302C754.757,-240.099 570.044,-216.006 491.436,-205.753"/>
<polygon fill="midnightblue" stroke="midnightblue" points="491.878,-202.281 481.509,-204.458 490.973,-209.222 491.878,-202.281"/>
</g>
<!-- Node7&#45;&gt;Node18 -->
<g id="edge41" class="edge"><title>Node7&#45;&gt;Node18</title>
<path fill="none" stroke="midnightblue" d="M905.345,-254.639C958.491,-252.868 1059.5,-244.729 1137,-210 1163.06,-198.321 1187.88,-176.211 1203.02,-161.049"/>
<polygon fill="midnightblue" stroke="midnightblue" points="1205.56,-163.46 1210.01,-153.846 1200.53,-158.586 1205.56,-163.46"/>
</g>
<!-- Node11&#45;&gt;Node4 -->
<g id="edge16" class="edge"><title>Node11&#45;&gt;Node4</title>
<path fill="none" stroke="midnightblue" d="M796.682,-75.8501C812.481,-73.1381 831.721,-69.8633 849,-67 951.859,-49.9559 1073.82,-30.5798 1130.74,-21.5853"/>
<polygon fill="midnightblue" stroke="midnightblue" points="1131.58,-24.9961 1140.91,-19.979 1130.48,-18.0818 1131.58,-24.9961"/>
</g>
<!-- Node11&#45;&gt;Node5 -->
<g id="edge17" class="edge"><title>Node11&#45;&gt;Node5</title>
<path fill="none" stroke="midnightblue" d="M731.249,-74.9699C669.128,-62.5837 534.778,-35.7961 471.83,-23.2452"/>
<polygon fill="midnightblue" stroke="midnightblue" points="472.141,-19.7384 461.65,-21.2154 470.772,-26.6033 472.141,-19.7384"/>
</g>
<!-- Node12 -->
<g id="node12" class="node"><title>Node12</title>
<polygon fill="white" stroke="#bfbfbf" points="631.5,-6 631.5,-25 680.5,-25 680.5,-6 631.5,-6"/>
<text text-anchor="middle" x="656" y="-13" font-family="Helvetica,sans-Serif" font-size="10.00">cstdint</text>
</g>
<!-- Node11&#45;&gt;Node12 -->
<g id="edge15" class="edge"><title>Node11&#45;&gt;Node12</title>
<path fill="none" stroke="midnightblue" d="M749.435,-72.7338C731.379,-61.8669 700.39,-43.2161 679.084,-30.3931"/>
<polygon fill="midnightblue" stroke="midnightblue" points="680.707,-27.2852 670.335,-25.1273 677.098,-33.2827 680.707,-27.2852"/>
</g>
<!-- Node13 -->
<g id="node13" class="node"><title>Node13</title>
<polygon fill="white" stroke="#bfbfbf" points="1644,-6 1644,-25 1816,-25 1816,-6 1644,-6"/>
<text text-anchor="middle" x="1730" y="-13" font-family="Helvetica,sans-Serif" font-size="10.00">boost/multi_index_container.hpp</text>
</g>
<!-- Node11&#45;&gt;Node13 -->
<g id="edge18" class="edge"><title>Node11&#45;&gt;Node13</title>
<path fill="none" stroke="midnightblue" d="M796.654,-79.3966C841.558,-76.5185 924.897,-71.228 996,-67 1279.51,-50.142 1351.5,-60.2398 1634,-31 1645.41,-29.8189 1657.54,-28.2408 1669.2,-26.5604"/>
<polygon fill="midnightblue" stroke="midnightblue" points="1669.92,-29.9927 1679.29,-25.0648 1668.89,-23.0683 1669.92,-29.9927"/>
</g>
<!-- Node14 -->
<g id="node14" class="node"><title>Node14</title>
<polygon fill="white" stroke="#bfbfbf" points="847,-0.5 847,-30.5 987,-30.5 987,-0.5 847,-0.5"/>
<text text-anchor="start" x="855" y="-18.5" font-family="Helvetica,sans-Serif" font-size="10.00">boost/multi_index/hashed</text>
<text text-anchor="middle" x="917" y="-7.5" font-family="Helvetica,sans-Serif" font-size="10.00">_index.hpp</text>
</g>
<!-- Node11&#45;&gt;Node14 -->
<g id="edge19" class="edge"><title>Node11&#45;&gt;Node14</title>
<path fill="none" stroke="midnightblue" d="M784.317,-72.8685C807.275,-63.115 845.279,-46.9696 874.744,-34.452"/>
<polygon fill="midnightblue" stroke="midnightblue" points="876.145,-37.6596 883.98,-30.5281 873.408,-31.2169 876.145,-37.6596"/>
</g>
<!-- Node15 -->
<g id="node15" class="node"><title>Node15</title>
<polygon fill="white" stroke="#bfbfbf" points="699,-0.5 699,-30.5 829,-30.5 829,-0.5 699,-0.5"/>
<text text-anchor="start" x="707" y="-18.5" font-family="Helvetica,sans-Serif" font-size="10.00">boost/multi_index/mem</text>
<text text-anchor="middle" x="764" y="-7.5" font-family="Helvetica,sans-Serif" font-size="10.00">_fun.hpp</text>
</g>
<!-- Node11&#45;&gt;Node15 -->
<g id="edge20" class="edge"><title>Node11&#45;&gt;Node15</title>
<path fill="none" stroke="midnightblue" d="M764,-72.7338C764,-64.5406 764,-51.9225 764,-40.7136"/>
<polygon fill="midnightblue" stroke="midnightblue" points="767.5,-40.589 764,-30.589 760.5,-40.5891 767.5,-40.589"/>
</g>
<!-- Node16&#45;&gt;Node3 -->
<g id="edge23" class="edge"><title>Node16&#45;&gt;Node3</title>
<path fill="none" stroke="midnightblue" d="M481.889,-193.015C486.589,-191.993 491.434,-190.954 496,-190 562.04,-176.207 639.111,-161.148 684.328,-152.417"/>
<polygon fill="midnightblue" stroke="midnightblue" points="685.138,-155.826 694.295,-150.496 683.813,-148.952 685.138,-155.826"/>
</g>
<!-- Node16&#45;&gt;Node4 -->
<g id="edge24" class="edge"><title>Node16&#45;&gt;Node4</title>
<path fill="none" stroke="midnightblue" d="M470.597,-190.396C519.416,-163.61 669.175,-82.567 722,-67 761.014,-55.503 1035.59,-28.6248 1130.68,-19.5528"/>
<polygon fill="midnightblue" stroke="midnightblue" points="1131.23,-23.0166 1140.85,-18.5851 1130.56,-16.0481 1131.23,-23.0166"/>
</g>
<!-- Node16&#45;&gt;Node5 -->
<g id="edge25" class="edge"><title>Node16&#45;&gt;Node5</title>
<path fill="none" stroke="midnightblue" d="M455.541,-190.289C456.701,-169.062 458.796,-113.034 452,-67 450.397,-56.1446 447.197,-44.3086 444.261,-34.8256"/>
<polygon fill="midnightblue" stroke="midnightblue" points="447.582,-33.7204 441.156,-25.2963 440.926,-35.8887 447.582,-33.7204"/>
</g>
<!-- Node16&#45;&gt;Node6 -->
<g id="edge26" class="edge"><title>Node16&#45;&gt;Node6</title>
<path fill="none" stroke="midnightblue" d="M446.807,-190.319C428.659,-171.088 384.826,-124.641 361.388,-99.8054"/>
<polygon fill="midnightblue" stroke="midnightblue" points="363.697,-97.1526 354.288,-92.282 358.606,-101.957 363.697,-97.1526"/>
</g>
<!-- Node16&#45;&gt;Node11 -->
<g id="edge28" class="edge"><title>Node16&#45;&gt;Node11</title>
<path fill="none" stroke="midnightblue" d="M481.699,-191.993C511.767,-183.859 561.927,-169.557 604,-154 629.459,-144.586 697.435,-113.918 736.097,-96.2864"/>
<polygon fill="midnightblue" stroke="midnightblue" points="737.609,-99.4438 745.251,-92.1057 734.701,-93.0764 737.609,-99.4438"/>
</g>
<!-- Node16&#45;&gt;Node12 -->
<g id="edge22" class="edge"><title>Node16&#45;&gt;Node12</title>
<path fill="none" stroke="midnightblue" d="M464.425,-190.442C495.939,-161.829 597.949,-69.2083 638.826,-32.093"/>
<polygon fill="midnightblue" stroke="midnightblue" points="641.311,-34.5649 646.361,-25.2514 636.605,-29.3823 641.311,-34.5649"/>
</g>
<!-- Node17 -->
<g id="node17" class="node"><title>Node17</title>
<polygon fill="white" stroke="#bfbfbf" points="156.5,-134.5 156.5,-153.5 257.5,-153.5 257.5,-134.5 156.5,-134.5"/>
<text text-anchor="middle" x="207" y="-141.5" font-family="Helvetica,sans-Serif" font-size="10.00">boost/variant.hpp</text>
</g>
<!-- Node16&#45;&gt;Node17 -->
<g id="edge27" class="edge"><title>Node16&#45;&gt;Node17</title>
<path fill="none" stroke="midnightblue" d="M428.46,-193.221C387.459,-184.293 308.054,-167.004 256.308,-155.737"/>
<polygon fill="midnightblue" stroke="midnightblue" points="256.863,-152.275 246.348,-153.568 255.374,-159.115 256.863,-152.275"/>
</g>
<!-- Node16&#45;&gt;Node18 -->
<g id="edge29" class="edge"><title>Node16&#45;&gt;Node18</title>
<path fill="none" stroke="midnightblue" d="M481.708,-197.11C593.369,-189.207 1023.75,-158.748 1169.46,-148.436"/>
<polygon fill="midnightblue" stroke="midnightblue" points="1169.72,-151.926 1179.45,-147.729 1169.22,-144.943 1169.72,-151.926"/>
</g>
<!-- Node18&#45;&gt;Node4 -->
<g id="edge32" class="edge"><title>Node18&#45;&gt;Node4</title>
<path fill="none" stroke="midnightblue" d="M1238.22,-134.495C1252.77,-127.168 1271.3,-115.063 1280,-98 1286.26,-85.7254 1287.57,-78.512 1280,-67 1261.35,-38.6427 1223.04,-26.1371 1195.33,-20.6681"/>
<polygon fill="midnightblue" stroke="midnightblue" points="1195.75,-17.1876 1185.29,-18.8981 1194.53,-24.0813 1195.75,-17.1876"/>
</g>
<!-- Node18&#45;&gt;Node5 -->
<g id="edge34" class="edge"><title>Node18&#45;&gt;Node5</title>
<path fill="none" stroke="midnightblue" d="M1179.38,-135.29C1106.41,-120.857 943.204,-89.2131 805,-67 682.591,-47.3256 536.437,-28.6468 471.705,-20.6199"/>
<polygon fill="midnightblue" stroke="midnightblue" points="472.023,-17.1326 461.67,-19.38 471.165,-24.0798 472.023,-17.1326"/>
</g>
<!-- Node18&#45;&gt;Node6 -->
<g id="edge36" class="edge"><title>Node18&#45;&gt;Node6</title>
<path fill="none" stroke="midnightblue" d="M1179.41,-140.367C1045.39,-131.222 598.618,-100.737 420.366,-88.5743"/>
<polygon fill="midnightblue" stroke="midnightblue" points="420.508,-85.0759 410.293,-87.887 420.032,-92.0597 420.508,-85.0759"/>
</g>
<!-- Node18&#45;&gt;Node9 -->
<g id="edge33" class="edge"><title>Node18&#45;&gt;Node9</title>
<path fill="none" stroke="midnightblue" d="M1236.63,-134.475C1258.44,-124.49 1294.8,-107.848 1320.02,-96.3075"/>
<polygon fill="midnightblue" stroke="midnightblue" points="1321.77,-99.3534 1329.41,-92.0091 1318.86,-92.9884 1321.77,-99.3534"/>
</g>
<!-- Node18&#45;&gt;Node11 -->
<g id="edge37" class="edge"><title>Node18&#45;&gt;Node11</title>
<path fill="none" stroke="midnightblue" d="M1179.26,-136.114C1174.46,-135.352 1169.62,-134.627 1165,-134 1008.29,-112.75 965.983,-129.464 811,-98 806.858,-97.159 802.56,-96.1011 798.322,-94.9417"/>
<polygon fill="midnightblue" stroke="midnightblue" points="799.223,-91.5587 788.642,-92.1062 797.255,-98.2764 799.223,-91.5587"/>
</g>
<!-- Node19 -->
<g id="node19" class="node"><title>Node19</title>
<polygon fill="white" stroke="#bfbfbf" points="1209,-73 1209,-92 1271,-92 1271,-73 1209,-73"/>
<text text-anchor="middle" x="1240" y="-80" font-family="Helvetica,sans-Serif" font-size="10.00">algorithm</text>
</g>
<!-- Node18&#45;&gt;Node19 -->
<g id="edge30" class="edge"><title>Node18&#45;&gt;Node19</title>
<path fill="none" stroke="midnightblue" d="M1221.15,-134.475C1224.32,-125.904 1229.3,-112.427 1233.35,-101.483"/>
<polygon fill="midnightblue" stroke="midnightblue" points="1236.67,-102.602 1236.85,-92.0091 1230.1,-100.175 1236.67,-102.602"/>
</g>
<!-- Node20 -->
<g id="node20" class="node"><title>Node20</title>
<polygon fill="white" stroke="#bfbfbf" points="1005,-73 1005,-92 1061,-92 1061,-73 1005,-73"/>
<text text-anchor="middle" x="1033" y="-80" font-family="Helvetica,sans-Serif" font-size="10.00">sstream</text>
</g>
<!-- Node18&#45;&gt;Node20 -->
<g id="edge31" class="edge"><title>Node18&#45;&gt;Node20</title>
<path fill="none" stroke="midnightblue" d="M1187.45,-134.468C1157.36,-125.89 1110.21,-111.968 1070,-98 1067.88,-97.2642 1065.71,-96.4816 1063.52,-95.6758"/>
<polygon fill="midnightblue" stroke="midnightblue" points="1064.62,-92.3487 1054.03,-92.0688 1062.13,-98.8924 1064.62,-92.3487"/>
</g>
<!-- Node21 -->
<g id="node21" class="node"><title>Node21</title>
<polygon fill="white" stroke="#bfbfbf" points="1079,-67.5 1079,-97.5 1191,-97.5 1191,-67.5 1079,-67.5"/>
<text text-anchor="start" x="1087" y="-85.5" font-family="Helvetica,sans-Serif" font-size="10.00">boost/icl/continuous</text>
<text text-anchor="middle" x="1135" y="-74.5" font-family="Helvetica,sans-Serif" font-size="10.00">_interval.hpp</text>
</g>
<!-- Node18&#45;&gt;Node21 -->
<g id="edge35" class="edge"><title>Node18&#45;&gt;Node21</title>
<path fill="none" stroke="midnightblue" d="M1206.11,-134.475C1194.87,-126.417 1177.58,-114.023 1162.86,-103.474"/>
<polygon fill="midnightblue" stroke="midnightblue" points="1164.73,-100.505 1154.56,-97.523 1160.65,-106.194 1164.73,-100.505"/>
</g>
<!-- Node18&#45;&gt;Node22 -->
<g id="edge38" class="edge"><title>Node18&#45;&gt;Node22</title>
<path fill="none" stroke="midnightblue" d="M1256.56,-137.349C1335.42,-125.792 1514.04,-99.6153 1589.41,-88.569"/>
<polygon fill="midnightblue" stroke="midnightblue" points="1590.37,-91.9657 1599.76,-87.0526 1589.36,-85.0397 1590.37,-91.9657"/>
</g>
<!-- Node22&#45;&gt;Node4 -->
<g id="edge40" class="edge"><title>Node22&#45;&gt;Node4</title>
<path fill="none" stroke="midnightblue" d="M1604.18,-72.8836C1598.41,-70.6653 1592.03,-68.4872 1586,-67 1443.25,-31.8123 1267.12,-20.8217 1195.54,-17.6668"/>
<polygon fill="midnightblue" stroke="midnightblue" points="1195.5,-14.1621 1185.36,-17.2407 1195.21,-21.156 1195.5,-14.1621"/>
</g>
<!-- Node23 -->
<g id="node23" class="node"><title>Node23</title>
<polygon fill="white" stroke="#bfbfbf" points="1562.5,-6 1562.5,-25 1625.5,-25 1625.5,-6 1562.5,-6"/>
<text text-anchor="middle" x="1594" y="-13" font-family="Helvetica,sans-Serif" font-size="10.00">exception</text>
</g>
<!-- Node22&#45;&gt;Node23 -->
<g id="edge39" class="edge"><title>Node22&#45;&gt;Node23</title>
<path fill="none" stroke="midnightblue" d="M1619.95,-72.7338C1615.46,-62.9877 1608.07,-46.9805 1602.32,-34.5318"/>
<polygon fill="midnightblue" stroke="midnightblue" points="1605.35,-32.7402 1597.98,-25.1273 1598.99,-35.6736 1605.35,-32.7402"/>
</g>
<!-- Node24&#45;&gt;Node3 -->
<g id="edge45" class="edge"><title>Node24&#45;&gt;Node3</title>
<path fill="none" stroke="midnightblue" d="M338.757,-246.458C376.984,-237.706 437.749,-223.503 490,-210 558.798,-192.22 638.439,-169.548 684.535,-156.218"/>
<polygon fill="midnightblue" stroke="midnightblue" points="685.768,-159.505 694.399,-153.36 683.82,-152.781 685.768,-159.505"/>
</g>
<!-- Node24&#45;&gt;Node4 -->
<g id="edge46" class="edge"><title>Node24&#45;&gt;Node4</title>
<path fill="none" stroke="midnightblue" d="M339.805,-251.934C457.36,-242.6 802.214,-214.876 813,-210 854.964,-191.028 922.682,-89.2578 963,-67 1017.37,-36.9871 1089.85,-24.463 1130.95,-19.5057"/>
<polygon fill="midnightblue" stroke="midnightblue" points="1131.4,-22.9776 1140.94,-18.3766 1130.61,-16.0219 1131.4,-22.9776"/>
</g>
<!-- Node24&#45;&gt;Node5 -->
<g id="edge47" class="edge"><title>Node24&#45;&gt;Node5</title>
<path fill="none" stroke="midnightblue" d="M298.068,-246.174C287.28,-212.981 251.511,-96.0496 273,-67 303.045,-26.3833 365.111,-17.3648 403.97,-15.9394"/>
<polygon fill="midnightblue" stroke="midnightblue" points="404.346,-19.4322 414.269,-15.7188 404.196,-12.4338 404.346,-19.4322"/>
</g>
<!-- Node24&#45;&gt;Node6 -->
<g id="edge48" class="edge"><title>Node24&#45;&gt;Node6</title>
<path fill="none" stroke="midnightblue" d="M303.293,-246.26C310.305,-219.536 331.564,-138.517 341.182,-101.862"/>
<polygon fill="midnightblue" stroke="midnightblue" points="344.612,-102.58 343.765,-92.0194 337.841,-100.804 344.612,-102.58"/>
</g>
<!-- Node24&#45;&gt;Node11 -->
<g id="edge50" class="edge"><title>Node24&#45;&gt;Node11</title>
<path fill="none" stroke="midnightblue" d="M314.352,-246.461C335.761,-233.045 379.392,-206.829 419,-190 524.42,-145.209 655.114,-110.101 721.295,-93.6722"/>
<polygon fill="midnightblue" stroke="midnightblue" points="722.476,-96.9862 731.349,-91.1973 720.803,-90.1891 722.476,-96.9862"/>
</g>
<!-- Node24&#45;&gt;Node16 -->
<g id="edge51" class="edge"><title>Node24&#45;&gt;Node16</title>
<path fill="none" stroke="midnightblue" d="M325.402,-246.444C351.197,-237.399 392.077,-223.064 421.018,-212.916"/>
<polygon fill="midnightblue" stroke="midnightblue" points="422.434,-216.128 430.712,-209.516 420.118,-209.523 422.434,-216.128"/>
</g>
<!-- Node24&#45;&gt;Node17 -->
<g id="edge49" class="edge"><title>Node24&#45;&gt;Node17</title>
<path fill="none" stroke="midnightblue" d="M262.364,-253.142C232.021,-249.406 191.572,-238.891 171,-210 159.636,-194.041 174.426,-174.14 188.338,-160.592"/>
<polygon fill="midnightblue" stroke="midnightblue" points="190.773,-163.108 195.804,-153.784 186.057,-157.935 190.773,-163.108"/>
</g>
<!-- Node24&#45;&gt;Node18 -->
<g id="edge52" class="edge"><title>Node24&#45;&gt;Node18</title>
<path fill="none" stroke="midnightblue" d="M339.775,-252.159C455.978,-243.594 796.401,-218.118 846,-210 882.594,-204.011 890.641,-197.285 927,-190 1011.64,-173.041 1111.23,-158.875 1169.23,-151.197"/>
<polygon fill="midnightblue" stroke="midnightblue" points="1169.75,-154.658 1179.21,-149.885 1168.84,-147.718 1169.75,-154.658"/>
</g>
<!-- Node25 -->
<g id="node25" class="node"><title>Node25</title>
<g id="a_node25"><a xlink:href="variant_8h.xhtml" target="_top" xlink:title="Extra helper functions for boost::variant. ">
<polygon fill="white" stroke="black" points="180.5,-190.5 180.5,-209.5 257.5,-209.5 257.5,-190.5 180.5,-190.5"/>
<text text-anchor="middle" x="219" y="-197.5" font-family="Helvetica,sans-Serif" font-size="10.00">ext/variant.h</text>
</a>
</g>
</g>
<!-- Node24&#45;&gt;Node25 -->
<g id="edge53" class="edge"><title>Node24&#45;&gt;Node25</title>
<path fill="none" stroke="midnightblue" d="M287.825,-246.324C275.153,-237.979 255.767,-225.212 240.794,-215.352"/>
<polygon fill="midnightblue" stroke="midnightblue" points="242.419,-212.231 232.142,-209.655 238.569,-218.078 242.419,-212.231"/>
</g>
<!-- Node25&#45;&gt;Node17 -->
<g id="edge54" class="edge"><title>Node25&#45;&gt;Node17</title>
<path fill="none" stroke="midnightblue" d="M217.018,-190.083C215.428,-182.927 213.141,-172.635 211.154,-163.691"/>
<polygon fill="midnightblue" stroke="midnightblue" points="214.531,-162.754 208.945,-153.751 207.697,-164.272 214.531,-162.754"/>
</g>
<!-- Node26&#45;&gt;Node4 -->
<g id="edge57" class="edge"><title>Node26&#45;&gt;Node4</title>
<path fill="none" stroke="midnightblue" d="M1450.85,-190.089C1464.32,-177.873 1484.53,-155.041 1476,-134 1460.41,-95.5506 1447.4,-86.9166 1411,-67 1340.62,-28.4836 1244.46,-19.2204 1195.11,-17.0748"/>
<polygon fill="midnightblue" stroke="midnightblue" points="1195.15,-13.5741 1185.03,-16.7088 1194.9,-20.5695 1195.15,-13.5741"/>
</g>
<!-- Node26&#45;&gt;Node18 -->
<g id="edge59" class="edge"><title>Node26&#45;&gt;Node18</title>
<path fill="none" stroke="midnightblue" d="M1404.82,-190.444C1366.42,-181.102 1304.82,-166.119 1262.94,-155.933"/>
<polygon fill="midnightblue" stroke="midnightblue" points="1263.56,-152.479 1253.01,-153.516 1261.9,-159.281 1263.56,-152.479"/>
</g>
<!-- Node27 -->
<g id="node27" class="node"><title>Node27</title>
<polygon fill="white" stroke="#bfbfbf" points="1374.5,-134.5 1374.5,-153.5 1467.5,-153.5 1467.5,-134.5 1374.5,-134.5"/>
<text text-anchor="middle" x="1421" y="-141.5" font-family="Helvetica,sans-Serif" font-size="10.00">unordered_map</text>
</g>
<!-- Node26&#45;&gt;Node27 -->
<g id="edge58" class="edge"><title>Node26&#45;&gt;Node27</title>
<path fill="none" stroke="midnightblue" d="M1436.86,-190.083C1434.32,-182.849 1430.64,-172.409 1427.47,-163.397"/>
<polygon fill="midnightblue" stroke="midnightblue" points="1430.7,-162.023 1424.08,-153.751 1424.1,-164.346 1430.7,-162.023"/>
</g>
<!-- Node28&#45;&gt;Node3 -->
<g id="edge61" class="edge"><title>Node28&#45;&gt;Node3</title>
<path fill="none" stroke="midnightblue" d="M571.044,-302.451C581.388,-281.279 610.644,-225.552 648,-190 661.625,-177.033 679.624,-166.079 694.574,-158.226"/>
<polygon fill="midnightblue" stroke="midnightblue" points="696.534,-161.157 703.881,-153.523 693.377,-154.909 696.534,-161.157"/>
</g>
<!-- Node28&#45;&gt;Node4 -->
<g id="edge62" class="edge"><title>Node28&#45;&gt;Node4</title>
<path fill="none" stroke="midnightblue" d="M602.653,-310.583C716.989,-308.401 1070.87,-294.794 1137,-210 1191.89,-139.62 942.8,-138.667 996,-67 1027.01,-25.2279 1091.58,-16.7754 1130.72,-15.736"/>
<polygon fill="midnightblue" stroke="midnightblue" points="1130.84,-19.2349 1140.8,-15.6171 1130.76,-12.2354 1130.84,-19.2349"/>
</g>
<!-- Node28&#45;&gt;Node5 -->
<g id="edge64" class="edge"><title>Node28&#45;&gt;Node5</title>
<path fill="none" stroke="midnightblue" d="M531.338,-309.696C450.676,-306.262 256.752,-295.14 199,-266 168.406,-250.563 161.961,-240.325 146,-210 130.073,-179.739 116.246,-163.226 134,-134 191.185,-39.8616 337.179,-20.9494 403.856,-17.291"/>
<polygon fill="midnightblue" stroke="midnightblue" points="404.398,-20.7698 414.225,-16.8115 404.074,-13.7773 404.398,-20.7698"/>
</g>
<!-- Node28&#45;&gt;Node6 -->
<g id="edge65" class="edge"><title>Node28&#45;&gt;Node6</title>
<path fill="none" stroke="midnightblue" d="M531.474,-310.627C472.047,-308.978 349.499,-301.167 253,-266 208.737,-249.869 191.37,-247.611 163,-210 142.213,-182.442 125.805,-161.245 147,-134 162.51,-114.063 221.846,-100.722 271.724,-92.7852"/>
<polygon fill="midnightblue" stroke="midnightblue" points="272.53,-96.2024 281.881,-91.2214 271.465,-89.284 272.53,-96.2024"/>
</g>
<!-- Node28&#45;&gt;Node7 -->
<g id="edge66" class="edge"><title>Node28&#45;&gt;Node7</title>
<path fill="none" stroke="midnightblue" d="M602.531,-304.647C657.214,-294.869 762.011,-276.131 822.61,-265.295"/>
<polygon fill="midnightblue" stroke="midnightblue" points="823.437,-268.703 832.665,-263.497 822.205,-261.812 823.437,-268.703"/>
</g>
<!-- Node28&#45;&gt;Node11 -->
<g id="edge67" class="edge"><title>Node28&#45;&gt;Node11</title>
<path fill="none" stroke="midnightblue" d="M568.946,-302.272C571.987,-289.49 578.516,-265.124 588,-246 617.259,-187.006 633.315,-174.806 685,-134 702.408,-120.256 723.666,-106.836 739.743,-97.2889"/>
<polygon fill="midnightblue" stroke="midnightblue" points="741.678,-100.212 748.542,-92.1421 738.143,-94.1699 741.678,-100.212"/>
</g>
<!-- Node28&#45;&gt;Node16 -->
<g id="edge68" class="edge"><title>Node28&#45;&gt;Node16</title>
<path fill="none" stroke="midnightblue" d="M531.433,-310.782C497.878,-308.443 449.214,-299.074 425,-266 413.83,-250.743 426.532,-230.663 438.678,-216.881"/>
<polygon fill="midnightblue" stroke="midnightblue" points="441.254,-219.25 445.58,-209.579 436.167,-214.442 441.254,-219.25"/>
</g>
<!-- Node29 -->
<g id="node29" class="node"><title>Node29</title>
<polygon fill="white" stroke="#bfbfbf" points="434,-246.5 434,-265.5 520,-265.5 520,-246.5 434,-246.5"/>
<text text-anchor="middle" x="477" y="-253.5" font-family="Helvetica,sans-Serif" font-size="10.00">unordered_set</text>
</g>
<!-- Node28&#45;&gt;Node29 -->
<g id="edge63" class="edge"><title>Node28&#45;&gt;Node29</title>
<path fill="none" stroke="midnightblue" d="M552.54,-302.324C538.5,-293.9 516.952,-280.971 500.457,-271.074"/>
<polygon fill="midnightblue" stroke="midnightblue" points="501.8,-267.798 491.424,-265.655 498.198,-273.801 501.8,-267.798"/>
</g>
<!-- Node28&#45;&gt;Node30 -->
<g id="edge69" class="edge"><title>Node28&#45;&gt;Node30</title>
<path fill="none" stroke="midnightblue" d="M582.615,-302.368C617.127,-283.292 700.109,-237.422 741.567,-214.505"/>
<polygon fill="midnightblue" stroke="midnightblue" points="743.399,-217.492 750.457,-209.591 740.012,-211.366 743.399,-217.492"/>
</g>
<!-- Node30&#45;&gt;Node3 -->
<g id="edge71" class="edge"><title>Node30&#45;&gt;Node3</title>
<path fill="none" stroke="midnightblue" d="M758.899,-190.083C752.763,-182.377 743.73,-171.033 736.261,-161.653"/>
<polygon fill="midnightblue" stroke="midnightblue" points="738.936,-159.394 729.968,-153.751 733.46,-163.754 738.936,-159.394"/>
</g>
<!-- Node30&#45;&gt;Node4 -->
<g id="edge72" class="edge"><title>Node30&#45;&gt;Node4</title>
<path fill="none" stroke="midnightblue" d="M775.04,-190.488C803.376,-163.975 890.611,-83.6534 925,-67 993.422,-33.8656 1083.27,-22.3604 1130.6,-18.4492"/>
<polygon fill="midnightblue" stroke="midnightblue" points="1131.16,-21.9174 1140.86,-17.6668 1130.62,-14.9377 1131.16,-21.9174"/>
</g>
<!-- Node30&#45;&gt;Node11 -->
<g id="edge73" class="edge"><title>Node30&#45;&gt;Node11</title>
<path fill="none" stroke="midnightblue" d="M773.412,-190.411C780.276,-181.844 790.006,-167.979 794,-154 796.442,-145.453 796.354,-142.572 794,-134 790.678,-121.905 783.623,-109.774 777.189,-100.435"/>
<polygon fill="midnightblue" stroke="midnightblue" points="779.848,-98.1408 771.123,-92.13 774.195,-102.27 779.848,-98.1408"/>
</g>
<!-- Node30&#45;&gt;Node12 -->
<g id="edge70" class="edge"><title>Node30&#45;&gt;Node12</title>
<path fill="none" stroke="midnightblue" d="M767.045,-190.497C768.243,-177.579 769.013,-152.552 760,-134 749.834,-113.074 737.799,-115.077 722,-98 702.386,-76.8005 681.739,-50.5816 668.87,-33.7029"/>
<polygon fill="midnightblue" stroke="midnightblue" points="671.398,-31.2442 662.576,-25.3779 665.815,-35.4657 671.398,-31.2442"/>
</g>
<!-- Node30&#45;&gt;Node18 -->
<g id="edge74" class="edge"><title>Node30&#45;&gt;Node18</title>
<path fill="none" stroke="midnightblue" d="M804.148,-194.443C886.122,-184.649 1078.96,-161.611 1169.48,-150.797"/>
<polygon fill="midnightblue" stroke="midnightblue" points="1169.96,-154.264 1179.47,-149.603 1169.13,-147.314 1169.96,-154.264"/>
</g>
<!-- Node31&#45;&gt;Node9 -->
<g id="edge78" class="edge"><title>Node31&#45;&gt;Node9</title>
<path fill="none" stroke="midnightblue" d="M1571.8,-302.466C1564.01,-273.964 1534.95,-181.202 1476,-134 1447.39,-111.094 1407.11,-97.5068 1379.41,-90.2949"/>
<polygon fill="midnightblue" stroke="midnightblue" points="1380.01,-86.838 1369.47,-87.8369 1378.34,-93.6336 1380.01,-86.838"/>
</g>
<!-- Node32&#45;&gt;Node13 -->
<g id="edge80" class="edge"><title>Node32&#45;&gt;Node13</title>
<path fill="none" stroke="midnightblue" d="M1730,-358.442C1730,-339.936 1730,-294.812 1730,-257 1730,-257 1730,-257 1730,-143 1730,-104.702 1730,-59.8829 1730,-35.1971"/>
<polygon fill="midnightblue" stroke="midnightblue" points="1733.5,-35.0894 1730,-25.0894 1726.5,-35.0895 1733.5,-35.0894"/>
</g>
</g>
</svg>
