<?xml version="1.0" encoding="UTF-8" standalone="no"?>
<!DOCTYPE svg PUBLIC "-//W3C//DTD SVG 1.1//EN"
 "http://www.w3.org/Graphics/SVG/1.1/DTD/svg11.dtd">
<!-- Generated by graphviz version 2.38.0 (20140413.2041)
 -->
<!-- Title: model.h Pages: 1 -->
<svg width="492pt" height="196pt"
 viewBox="0.00 0.00 491.50 196.00" xmlns="http://www.w3.org/2000/svg" xmlns:xlink="http://www.w3.org/1999/xlink">
<g id="graph0" class="graph" transform="scale(1 1) rotate(0) translate(4 192)">
<title>model.h</title>
<polygon fill="white" stroke="none" points="-4,4 -4,-192 487.5,-192 487.5,4 -4,4"/>
<!-- Node1 -->
<g id="node1" class="node"><title>Node1</title>
<polygon fill="#bfbfbf" stroke="black" points="141,-168.5 141,-187.5 197,-187.5 197,-168.5 141,-168.5"/>
<text text-anchor="middle" x="169" y="-175.5" font-family="Helvetica,sans-Serif" font-size="10.00">model.h</text>
</g>
<!-- Node2 -->
<g id="node2" class="node"><title>Node2</title>
<g id="a_node2"><a xlink:href="initializer_8h.xhtml" target="_top" xlink:title="A facility that processes input files into analysis constructs. ">
<polygon fill="white" stroke="black" points="232.5,-112.5 232.5,-131.5 299.5,-131.5 299.5,-112.5 232.5,-112.5"/>
<text text-anchor="middle" x="266" y="-119.5" font-family="Helvetica,sans-Serif" font-size="10.00">initializer.h</text>
</a>
</g>
</g>
<!-- Node1&#45;&gt;Node2 -->
<g id="edge1" class="edge"><title>Node1&#45;&gt;Node2</title>
<path fill="none" stroke="midnightblue" d="M193.335,-163.453C211.243,-153.483 235.054,-140.228 250.454,-131.655"/>
<polygon fill="midnightblue" stroke="midnightblue" points="191.62,-160.402 184.585,-168.324 195.025,-166.518 191.62,-160.402"/>
</g>
<!-- Node5 -->
<g id="node5" class="node"><title>Node5</title>
<g id="a_node5"><a xlink:href="model_8cc.xhtml" target="_top" xlink:title="Implementation of functions in Model class. ">
<polygon fill="white" stroke="black" points="48,-112.5 48,-131.5 108,-131.5 108,-112.5 48,-112.5"/>
<text text-anchor="middle" x="78" y="-119.5" font-family="Helvetica,sans-Serif" font-size="10.00">model.cc</text>
</a>
</g>
</g>
<!-- Node1&#45;&gt;Node5 -->
<g id="edge4" class="edge"><title>Node1&#45;&gt;Node5</title>
<path fill="none" stroke="midnightblue" d="M145.706,-163.177C128.961,-153.241 106.9,-140.149 92.5844,-131.655"/>
<polygon fill="midnightblue" stroke="midnightblue" points="143.993,-166.231 154.379,-168.324 147.566,-160.211 143.993,-166.231"/>
</g>
<!-- Node6 -->
<g id="node6" class="node"><title>Node6</title>
<g id="a_node6"><a xlink:href="reporter_8h.xhtml" target="_top" xlink:title="Reporter of results. ">
<polygon fill="white" stroke="black" points="2,-56.5 2,-75.5 66,-75.5 66,-56.5 2,-56.5"/>
<text text-anchor="middle" x="34" y="-63.5" font-family="Helvetica,sans-Serif" font-size="10.00">reporter.h</text>
</a>
</g>
</g>
<!-- Node1&#45;&gt;Node6 -->
<g id="edge5" class="edge"><title>Node1&#45;&gt;Node6</title>
<path fill="none" stroke="midnightblue" d="M130.667,-174.677C100.693,-170.66 60.5993,-159.994 39,-132 26.2784,-115.512 29.2611,-89.1464 31.9452,-75.62"/>
<polygon fill="midnightblue" stroke="midnightblue" points="130.467,-178.177 140.8,-175.838 131.263,-171.222 130.467,-178.177"/>
</g>
<!-- Node8 -->
<g id="node8" class="node"><title>Node8</title>
<g id="a_node8"><a xlink:href="risk__analysis_8h.xhtml" target="_top" xlink:title="Contains the main system for performing analysis. ">
<polygon fill="white" stroke="black" points="126,-112.5 126,-131.5 212,-131.5 212,-112.5 126,-112.5"/>
<text text-anchor="middle" x="169" y="-119.5" font-family="Helvetica,sans-Serif" font-size="10.00">risk_analysis.h</text>
</a>
</g>
</g>
<!-- Node1&#45;&gt;Node8 -->
<g id="edge8" class="edge"><title>Node1&#45;&gt;Node8</title>
<path fill="none" stroke="midnightblue" d="M169,-157.805C169,-148.91 169,-138.78 169,-131.751"/>
<polygon fill="midnightblue" stroke="midnightblue" points="165.5,-158.083 169,-168.083 172.5,-158.083 165.5,-158.083"/>
</g>
<!-- Node10 -->
<g id="node10" class="node"><title>Node10</title>
<g id="a_node10"><a xlink:href="serialization_8h.xhtml" target="_top" xlink:title="The MEF Model serialization facilities. ">
<polygon fill="white" stroke="black" points="326.5,-112.5 326.5,-131.5 409.5,-131.5 409.5,-112.5 326.5,-112.5"/>
<text text-anchor="middle" x="368" y="-119.5" font-family="Helvetica,sans-Serif" font-size="10.00">serialization.h</text>
</a>
</g>
</g>
<!-- Node1&#45;&gt;Node10 -->
<g id="edge12" class="edge"><title>Node1&#45;&gt;Node10</title>
<path fill="none" stroke="midnightblue" d="M207.139,-166.651C244.684,-156.463 301.352,-141.085 336.441,-131.564"/>
<polygon fill="midnightblue" stroke="midnightblue" points="205.824,-163.381 197.09,-169.378 207.657,-170.137 205.824,-163.381"/>
</g>
<!-- Node3 -->
<g id="node3" class="node"><title>Node3</title>
<g id="a_node3"><a xlink:href="initializer_8cc.xhtml" target="_top" xlink:title="Implementation of input file processing into analysis constructs. ">
<polygon fill="white" stroke="black" points="230.5,-56.5 230.5,-75.5 301.5,-75.5 301.5,-56.5 230.5,-56.5"/>
<text text-anchor="middle" x="266" y="-63.5" font-family="Helvetica,sans-Serif" font-size="10.00">initializer.cc</text>
</a>
</g>
</g>
<!-- Node2&#45;&gt;Node3 -->
<g id="edge2" class="edge"><title>Node2&#45;&gt;Node3</title>
<path fill="none" stroke="midnightblue" d="M266,-101.805C266,-92.9102 266,-82.7798 266,-75.7511"/>
<polygon fill="midnightblue" stroke="midnightblue" points="262.5,-102.083 266,-112.083 269.5,-102.083 262.5,-102.083"/>
</g>
<!-- Node4 -->
<g id="node4" class="node"><title>Node4</title>
<g id="a_node4"><a xlink:href="scram_8cc.xhtml" target="_top" xlink:title="Main entrance. ">
<polygon fill="white" stroke="black" points="193,-0.5 193,-19.5 253,-19.5 253,-0.5 193,-0.5"/>
<text text-anchor="middle" x="223" y="-7.5" font-family="Helvetica,sans-Serif" font-size="10.00">scram.cc</text>
</a>
</g>
</g>
<!-- Node2&#45;&gt;Node4 -->
<g id="edge3" class="edge"><title>Node2&#45;&gt;Node4</title>
<path fill="none" stroke="midnightblue" d="M287.35,-106.186C303.335,-93.1825 320.739,-73.6447 310,-56 297.711,-35.8085 273.118,-24.2771 253.206,-17.9541"/>
<polygon fill="midnightblue" stroke="midnightblue" points="285.104,-103.497 279.277,-112.345 289.35,-109.062 285.104,-103.497"/>
</g>
<!-- Node6&#45;&gt;Node4 -->
<g id="edge7" class="edge"><title>Node6&#45;&gt;Node4</title>
<path fill="none" stroke="midnightblue" d="M74.0129,-53.5677C109.667,-43.381 161.038,-28.7034 193.192,-19.5164"/>
<polygon fill="midnightblue" stroke="midnightblue" points="72.6013,-50.3309 63.9476,-56.4435 74.5244,-57.0616 72.6013,-50.3309"/>
</g>
<!-- Node7 -->
<g id="node7" class="node"><title>Node7</title>
<g id="a_node7"><a xlink:href="reporter_8cc.xhtml" target="_top" xlink:title="Implements Reporter class. ">
<polygon fill="white" stroke="black" points="0,-0.5 0,-19.5 68,-19.5 68,-0.5 0,-0.5"/>
<text text-anchor="middle" x="34" y="-7.5" font-family="Helvetica,sans-Serif" font-size="10.00">reporter.cc</text>
</a>
</g>
</g>
<!-- Node6&#45;&gt;Node7 -->
<g id="edge6" class="edge"><title>Node6&#45;&gt;Node7</title>
<path fill="none" stroke="midnightblue" d="M34,-45.8045C34,-36.9102 34,-26.7798 34,-19.7511"/>
<polygon fill="midnightblue" stroke="midnightblue" points="30.5001,-46.083 34,-56.083 37.5001,-46.083 30.5001,-46.083"/>
</g>
<!-- Node8&#45;&gt;Node4 -->
<g id="edge11" class="edge"><title>Node8&#45;&gt;Node4</title>
<path fill="none" stroke="midnightblue" d="M143.053,-107.167C122.873,-94.5229 100.271,-74.9598 113,-56 130.711,-29.6184 166.92,-18.6926 192.962,-14.1744"/>
<polygon fill="midnightblue" stroke="midnightblue" points="141.342,-110.221 151.731,-112.301 144.907,-104.196 141.342,-110.221"/>
</g>
<!-- Node8&#45;&gt;Node6 -->
<g id="edge9" class="edge"><title>Node8&#45;&gt;Node6</title>
<path fill="none" stroke="midnightblue" d="M138.094,-108.638C112.76,-98.504 77.5686,-84.4274 55.2911,-75.5164"/>
<polygon fill="midnightblue" stroke="midnightblue" points="137.024,-111.979 147.609,-112.444 139.624,-105.48 137.024,-111.979"/>
</g>
<!-- Node9 -->
<g id="node9" class="node"><title>Node9</title>
<g id="a_node9"><a xlink:href="risk__analysis_8cc.xhtml" target="_top" xlink:title="Implementation of risk analysis handler. ">
<polygon fill="white" stroke="black" points="122,-56.5 122,-75.5 212,-75.5 212,-56.5 122,-56.5"/>
<text text-anchor="middle" x="167" y="-63.5" font-family="Helvetica,sans-Serif" font-size="10.00">risk_analysis.cc</text>
</a>
</g>
</g>
<!-- Node8&#45;&gt;Node9 -->
<g id="edge10" class="edge"><title>Node8&#45;&gt;Node9</title>
<path fill="none" stroke="midnightblue" d="M168.289,-101.805C167.96,-92.9102 167.584,-82.7798 167.324,-75.7511"/>
<polygon fill="midnightblue" stroke="midnightblue" points="164.802,-102.219 168.67,-112.083 171.797,-101.96 164.802,-102.219"/>
</g>
<!-- Node10&#45;&gt;Node4 -->
<g id="edge13" class="edge"><title>Node10&#45;&gt;Node4</title>
<path fill="none" stroke="midnightblue" d="M359.98,-102.95C352.831,-88.6078 341.157,-68.884 326,-56 304.738,-37.9268 275.091,-26.0036 253.061,-18.9989"/>
<polygon fill="midnightblue" stroke="midnightblue" points="356.942,-104.714 364.372,-112.267 363.274,-101.729 356.942,-104.714"/>
</g>
<!-- Node11 -->
<g id="node11" class="node"><title>Node11</title>
<g id="a_node11"><a xlink:href="serialization_8cc.xhtml" target="_top" xlink:title="serialization.cc">
<polygon fill="white" stroke="black" points="396.5,-56.5 396.5,-75.5 483.5,-75.5 483.5,-56.5 396.5,-56.5"/>
<text text-anchor="middle" x="440" y="-63.5" font-family="Helvetica,sans-Serif" font-size="10.00">serialization.cc</text>
</a>
</g>
</g>
<!-- Node10&#45;&gt;Node11 -->
<g id="edge14" class="edge"><title>Node10&#45;&gt;Node11</title>
<path fill="none" stroke="midnightblue" d="M387.866,-106.101C400.823,-96.3824 417.297,-84.0269 428.221,-75.8339"/>
<polygon fill="midnightblue" stroke="midnightblue" points="385.468,-103.524 379.568,-112.324 389.668,-109.124 385.468,-103.524"/>
</g>
</g>
</svg>
