<?xml version="1.0" encoding="UTF-8" standalone="no"?>
<!DOCTYPE svg PUBLIC "-//W3C//DTD SVG 1.1//EN"
 "http://www.w3.org/Graphics/SVG/1.1/DTD/svg11.dtd">
<!-- Generated by graphviz version 2.38.0 (20140413.2041)
 -->
<!-- Title: numerical.cc Pages: 1 -->
<svg width="898pt" height="330pt"
 viewBox="0.00 0.00 898.00 330.00" xmlns="http://www.w3.org/2000/svg" xmlns:xlink="http://www.w3.org/1999/xlink">
<g id="graph0" class="graph" transform="scale(1 1) rotate(0) translate(4 326)">
<title>numerical.cc</title>
<polygon fill="white" stroke="none" points="-4,4 -4,-326 894,-326 894,4 -4,4"/>
<!-- Node1 -->
<g id="node1" class="node"><title>Node1</title>
<polygon fill="#bfbfbf" stroke="black" points="156,-302.5 156,-321.5 233,-321.5 233,-302.5 156,-302.5"/>
<text text-anchor="middle" x="194.5" y="-309.5" font-family="Helvetica,sans-Serif" font-size="10.00">numerical.cc</text>
</g>
<!-- Node2 -->
<g id="node2" class="node"><title>Node2</title>
<g id="a_node2"><a xlink:href="numerical_8h.xhtml" target="_top" xlink:title="A collection of numerical expressions. ">
<polygon fill="white" stroke="black" points="158,-246.5 158,-265.5 231,-265.5 231,-246.5 158,-246.5"/>
<text text-anchor="middle" x="194.5" y="-253.5" font-family="Helvetica,sans-Serif" font-size="10.00">numerical.h</text>
</a>
</g>
</g>
<!-- Node1&#45;&gt;Node2 -->
<g id="edge1" class="edge"><title>Node1&#45;&gt;Node2</title>
<path fill="none" stroke="midnightblue" d="M194.5,-302.083C194.5,-295.006 194.5,-284.861 194.5,-275.986"/>
<polygon fill="midnightblue" stroke="midnightblue" points="198,-275.751 194.5,-265.751 191,-275.751 198,-275.751"/>
</g>
<!-- Node3 -->
<g id="node3" class="node"><title>Node3</title>
<polygon fill="white" stroke="#bfbfbf" points="0,-190.5 0,-209.5 47,-209.5 47,-190.5 0,-190.5"/>
<text text-anchor="middle" x="23.5" y="-197.5" font-family="Helvetica,sans-Serif" font-size="10.00">cmath</text>
</g>
<!-- Node2&#45;&gt;Node3 -->
<g id="edge2" class="edge"><title>Node2&#45;&gt;Node3</title>
<path fill="none" stroke="midnightblue" d="M167.405,-246.444C137.492,-236.998 89.3115,-221.783 57.04,-211.592"/>
<polygon fill="midnightblue" stroke="midnightblue" points="57.7544,-208.147 47.1645,-208.473 55.6464,-214.822 57.7544,-208.147"/>
</g>
<!-- Node4 -->
<g id="node4" class="node"><title>Node4</title>
<polygon fill="white" stroke="#bfbfbf" points="65,-190.5 65,-209.5 128,-209.5 128,-190.5 65,-190.5"/>
<text text-anchor="middle" x="96.5" y="-197.5" font-family="Helvetica,sans-Serif" font-size="10.00">functional</text>
</g>
<!-- Node2&#45;&gt;Node4 -->
<g id="edge3" class="edge"><title>Node2&#45;&gt;Node4</title>
<path fill="none" stroke="midnightblue" d="M178.755,-246.324C163.181,-237.743 139.123,-224.486 121.041,-214.522"/>
<polygon fill="midnightblue" stroke="midnightblue" points="122.654,-211.415 112.206,-209.655 119.276,-217.546 122.654,-211.415"/>
</g>
<!-- Node5 -->
<g id="node5" class="node"><title>Node5</title>
<polygon fill="white" stroke="#bfbfbf" points="85,-6 85,-25 132,-25 132,-6 85,-6"/>
<text text-anchor="middle" x="108.5" y="-13" font-family="Helvetica,sans-Serif" font-size="10.00">vector</text>
</g>
<!-- Node2&#45;&gt;Node5 -->
<g id="edge4" class="edge"><title>Node2&#45;&gt;Node5</title>
<path fill="none" stroke="midnightblue" d="M191.337,-246.229C178.798,-211.456 132.425,-82.8509 115.093,-34.7836"/>
<polygon fill="midnightblue" stroke="midnightblue" points="118.285,-33.3193 111.601,-25.0994 111.7,-35.6938 118.285,-33.3193"/>
</g>
<!-- Node6 -->
<g id="node6" class="node"><title>Node6</title>
<g id="a_node6"><a xlink:href="constant_8h.xhtml" target="_top" xlink:title="Constant expressions that cannot have uncertainties. ">
<polygon fill="white" stroke="black" points="340.5,-190.5 340.5,-209.5 408.5,-209.5 408.5,-190.5 340.5,-190.5"/>
<text text-anchor="middle" x="374.5" y="-197.5" font-family="Helvetica,sans-Serif" font-size="10.00">constant.h</text>
</a>
</g>
</g>
<!-- Node2&#45;&gt;Node6 -->
<g id="edge5" class="edge"><title>Node2&#45;&gt;Node6</title>
<path fill="none" stroke="midnightblue" d="M223.022,-246.444C253.566,-237.28 302.208,-222.688 336.103,-212.519"/>
<polygon fill="midnightblue" stroke="midnightblue" points="337.539,-215.742 346.112,-209.516 335.528,-209.038 337.539,-215.742"/>
</g>
<!-- Node7 -->
<g id="node7" class="node"><title>Node7</title>
<g id="a_node7"><a xlink:href="expression_8h.xhtml" target="_top" xlink:title="Provides the base class for all expressions and units for expression values. ">
<polygon fill="white" stroke="black" points="367,-134.5 367,-153.5 462,-153.5 462,-134.5 367,-134.5"/>
<text text-anchor="middle" x="414.5" y="-141.5" font-family="Helvetica,sans-Serif" font-size="10.00">src/expression.h</text>
</a>
</g>
</g>
<!-- Node2&#45;&gt;Node7 -->
<g id="edge25" class="edge"><title>Node2&#45;&gt;Node7</title>
<path fill="none" stroke="midnightblue" d="M211.763,-246.368C250.158,-227.171 342.816,-180.842 388.352,-158.074"/>
<polygon fill="midnightblue" stroke="midnightblue" points="389.938,-161.194 397.317,-153.591 386.808,-154.933 389.938,-161.194"/>
</g>
<!-- Node19 -->
<g id="node19" class="node"><title>Node19</title>
<g id="a_node19"><a xlink:href="error_8h.xhtml" target="_top" xlink:title="Exceptions for SCRAM. ">
<polygon fill="white" stroke="black" points="834.5,-73 834.5,-92 882.5,-92 882.5,-73 834.5,-73"/>
<text text-anchor="middle" x="858.5" y="-80" font-family="Helvetica,sans-Serif" font-size="10.00">error.h</text>
</a>
</g>
</g>
<!-- Node2&#45;&gt;Node19 -->
<g id="edge24" class="edge"><title>Node2&#45;&gt;Node19</title>
<path fill="none" stroke="midnightblue" d="M231.367,-248.365C275.727,-240.196 352.372,-225.491 417.5,-210 600.438,-166.487 648.283,-160.879 825.5,-98 827.162,-97.4102 828.859,-96.7744 830.562,-96.11"/>
<polygon fill="midnightblue" stroke="midnightblue" points="832.297,-99.1791 840.191,-92.1119 829.613,-92.7142 832.297,-99.1791"/>
</g>
<!-- Node6&#45;&gt;Node7 -->
<g id="edge6" class="edge"><title>Node6&#45;&gt;Node7</title>
<path fill="none" stroke="midnightblue" d="M381.105,-190.083C386.755,-182.455 395.045,-171.264 401.951,-161.941"/>
<polygon fill="midnightblue" stroke="midnightblue" points="404.878,-163.87 408.018,-153.751 399.253,-159.703 404.878,-163.87"/>
</g>
<!-- Node7&#45;&gt;Node5 -->
<g id="edge11" class="edge"><title>Node7&#45;&gt;Node5</title>
<path fill="none" stroke="midnightblue" d="M366.958,-138.179C325.209,-132.598 263.643,-121.039 214.5,-98 204.881,-93.4904 154.816,-53.7552 127.068,-31.4792"/>
<polygon fill="midnightblue" stroke="midnightblue" points="129.229,-28.7253 119.243,-25.1849 124.841,-34.1798 129.229,-28.7253"/>
</g>
<!-- Node8 -->
<g id="node8" class="node"><title>Node8</title>
<polygon fill="white" stroke="#bfbfbf" points="306.5,-73 306.5,-92 368.5,-92 368.5,-73 306.5,-73"/>
<text text-anchor="middle" x="337.5" y="-80" font-family="Helvetica,sans-Serif" font-size="10.00">algorithm</text>
</g>
<!-- Node7&#45;&gt;Node8 -->
<g id="edge7" class="edge"><title>Node7&#45;&gt;Node8</title>
<path fill="none" stroke="midnightblue" d="M403.468,-134.475C391.232,-125.02 371.271,-109.596 356.507,-98.1871"/>
<polygon fill="midnightblue" stroke="midnightblue" points="358.565,-95.3541 348.512,-92.0091 354.285,-100.893 358.565,-95.3541"/>
</g>
<!-- Node9 -->
<g id="node9" class="node"><title>Node9</title>
<polygon fill="white" stroke="#bfbfbf" points="386.5,-73 386.5,-92 442.5,-92 442.5,-73 386.5,-73"/>
<text text-anchor="middle" x="414.5" y="-80" font-family="Helvetica,sans-Serif" font-size="10.00">sstream</text>
</g>
<!-- Node7&#45;&gt;Node9 -->
<g id="edge8" class="edge"><title>Node7&#45;&gt;Node9</title>
<path fill="none" stroke="midnightblue" d="M414.5,-134.475C414.5,-126.08 414.5,-112.981 414.5,-102.163"/>
<polygon fill="midnightblue" stroke="midnightblue" points="418,-102.009 414.5,-92.0091 411,-102.009 418,-102.009"/>
</g>
<!-- Node10 -->
<g id="node10" class="node"><title>Node10</title>
<polygon fill="white" stroke="#bfbfbf" points="713.5,-6 713.5,-25 757.5,-25 757.5,-6 713.5,-6"/>
<text text-anchor="middle" x="735.5" y="-13" font-family="Helvetica,sans-Serif" font-size="10.00">string</text>
</g>
<!-- Node7&#45;&gt;Node10 -->
<g id="edge9" class="edge"><title>Node7&#45;&gt;Node10</title>
<path fill="none" stroke="midnightblue" d="M421.797,-134.367C437.255,-116.296 473.213,-75.4577 489.5,-67 575.484,-22.3494 611.99,-59.7896 704.5,-31 706.372,-30.4174 708.277,-29.744 710.174,-29.013"/>
<polygon fill="midnightblue" stroke="midnightblue" points="711.621,-32.2007 719.421,-25.0305 708.852,-25.7717 711.621,-32.2007"/>
</g>
<!-- Node11 -->
<g id="node11" class="node"><title>Node11</title>
<polygon fill="white" stroke="#bfbfbf" points="498.5,-73 498.5,-92 540.5,-92 540.5,-73 498.5,-73"/>
<text text-anchor="middle" x="519.5" y="-80" font-family="Helvetica,sans-Serif" font-size="10.00">utility</text>
</g>
<!-- Node7&#45;&gt;Node11 -->
<g id="edge10" class="edge"><title>Node7&#45;&gt;Node11</title>
<path fill="none" stroke="midnightblue" d="M429.544,-134.475C446.775,-124.711 475.24,-108.581 495.534,-97.0808"/>
<polygon fill="midnightblue" stroke="midnightblue" points="497.509,-99.9843 504.484,-92.0091 494.058,-93.8942 497.509,-99.9843"/>
</g>
<!-- Node12 -->
<g id="node12" class="node"><title>Node12</title>
<polygon fill="white" stroke="#bfbfbf" points="558.5,-67.5 558.5,-97.5 670.5,-97.5 670.5,-67.5 558.5,-67.5"/>
<text text-anchor="start" x="566.5" y="-85.5" font-family="Helvetica,sans-Serif" font-size="10.00">boost/icl/continuous</text>
<text text-anchor="middle" x="614.5" y="-74.5" font-family="Helvetica,sans-Serif" font-size="10.00">_interval.hpp</text>
</g>
<!-- Node7&#45;&gt;Node12 -->
<g id="edge12" class="edge"><title>Node7&#45;&gt;Node12</title>
<path fill="none" stroke="midnightblue" d="M443.155,-134.475C472.9,-125.626 520.219,-111.549 557.6,-100.428"/>
<polygon fill="midnightblue" stroke="midnightblue" points="558.777,-103.729 567.364,-97.523 556.781,-97.0198 558.777,-103.729"/>
</g>
<!-- Node13 -->
<g id="node13" class="node"><title>Node13</title>
<polygon fill="white" stroke="#bfbfbf" points="688.5,-73 688.5,-92 816.5,-92 816.5,-73 688.5,-73"/>
<text text-anchor="middle" x="752.5" y="-80" font-family="Helvetica,sans-Serif" font-size="10.00">boost/noncopyable.hpp</text>
</g>
<!-- Node7&#45;&gt;Node13 -->
<g id="edge13" class="edge"><title>Node7&#45;&gt;Node13</title>
<path fill="none" stroke="midnightblue" d="M462.444,-135.271C515.578,-126.61 603.776,-111.947 679.5,-98 686.245,-96.7577 693.331,-95.4072 700.327,-94.0468"/>
<polygon fill="midnightblue" stroke="midnightblue" points="701.323,-97.4182 710.462,-92.058 699.975,-90.5492 701.323,-97.4182"/>
</g>
<!-- Node14 -->
<g id="node14" class="node"><title>Node14</title>
<g id="a_node14"><a xlink:href="element_8h.xhtml" target="_top" xlink:title="Helper classes, structs, and properties common to all other classes. ">
<polygon fill="white" stroke="black" points="223,-73 223,-92 288,-92 288,-73 223,-73"/>
<text text-anchor="middle" x="255.5" y="-80" font-family="Helvetica,sans-Serif" font-size="10.00">element.h</text>
</a>
</g>
</g>
<!-- Node7&#45;&gt;Node14 -->
<g id="edge14" class="edge"><title>Node7&#45;&gt;Node14</title>
<path fill="none" stroke="midnightblue" d="M391.719,-134.475C364.445,-124.269 318.587,-107.108 287.699,-95.5492"/>
<polygon fill="midnightblue" stroke="midnightblue" points="288.831,-92.2359 278.239,-92.0091 286.378,-98.7919 288.831,-92.2359"/>
</g>
<!-- Node7&#45;&gt;Node19 -->
<g id="edge21" class="edge"><title>Node7&#45;&gt;Node19</title>
<path fill="none" stroke="midnightblue" d="M462.205,-142.459C539.708,-140.545 697.221,-132.335 825.5,-98 827.795,-97.3857 830.136,-96.6346 832.457,-95.8009"/>
<polygon fill="midnightblue" stroke="midnightblue" points="833.775,-99.0434 841.731,-92.0468 831.148,-92.5548 833.775,-99.0434"/>
</g>
<!-- Node14&#45;&gt;Node5 -->
<g id="edge17" class="edge"><title>Node14&#45;&gt;Node5</title>
<path fill="none" stroke="midnightblue" d="M235.935,-72.9913C213.027,-63.0092 173.955,-45.9247 140.5,-31 139.309,-30.4689 138.094,-29.9253 136.868,-29.3752"/>
<polygon fill="midnightblue" stroke="midnightblue" points="137.99,-26.042 127.435,-25.124 135.114,-32.4238 137.99,-26.042"/>
</g>
<!-- Node14&#45;&gt;Node10 -->
<g id="edge16" class="edge"><title>Node14&#45;&gt;Node10</title>
<path fill="none" stroke="midnightblue" d="M277.012,-72.9447C283.504,-70.6719 290.71,-68.4495 297.5,-67 475.093,-29.0871 529.143,-78.1874 704.5,-31 706.436,-30.4789 708.401,-29.8432 710.353,-29.1322"/>
<polygon fill="midnightblue" stroke="midnightblue" points="711.967,-32.2497 719.814,-25.1309 709.241,-25.8025 711.967,-32.2497"/>
</g>
<!-- Node15 -->
<g id="node15" class="node"><title>Node15</title>
<polygon fill="white" stroke="#bfbfbf" points="150,-6 150,-25 199,-25 199,-6 150,-6"/>
<text text-anchor="middle" x="174.5" y="-13" font-family="Helvetica,sans-Serif" font-size="10.00">cstdint</text>
</g>
<!-- Node14&#45;&gt;Node15 -->
<g id="edge15" class="edge"><title>Node14&#45;&gt;Node15</title>
<path fill="none" stroke="midnightblue" d="M244.576,-72.7338C231.459,-62.208 209.242,-44.3793 193.339,-31.6174"/>
<polygon fill="midnightblue" stroke="midnightblue" points="195.241,-28.6563 185.251,-25.1273 190.86,-34.1158 195.241,-28.6563"/>
</g>
<!-- Node16 -->
<g id="node16" class="node"><title>Node16</title>
<polygon fill="white" stroke="#bfbfbf" points="217.5,-6 217.5,-25 389.5,-25 389.5,-6 217.5,-6"/>
<text text-anchor="middle" x="303.5" y="-13" font-family="Helvetica,sans-Serif" font-size="10.00">boost/multi_index_container.hpp</text>
</g>
<!-- Node14&#45;&gt;Node16 -->
<g id="edge18" class="edge"><title>Node14&#45;&gt;Node16</title>
<path fill="none" stroke="midnightblue" d="M261.973,-72.7338C269.387,-62.6953 281.705,-46.0145 291.004,-33.4213"/>
<polygon fill="midnightblue" stroke="midnightblue" points="294.004,-35.2508 297.129,-25.1273 288.373,-31.0925 294.004,-35.2508"/>
</g>
<!-- Node17 -->
<g id="node17" class="node"><title>Node17</title>
<polygon fill="white" stroke="#bfbfbf" points="407.5,-0.5 407.5,-30.5 547.5,-30.5 547.5,-0.5 407.5,-0.5"/>
<text text-anchor="start" x="415.5" y="-18.5" font-family="Helvetica,sans-Serif" font-size="10.00">boost/multi_index/hashed</text>
<text text-anchor="middle" x="477.5" y="-7.5" font-family="Helvetica,sans-Serif" font-size="10.00">_index.hpp</text>
</g>
<!-- Node14&#45;&gt;Node17 -->
<g id="edge19" class="edge"><title>Node14&#45;&gt;Node17</title>
<path fill="none" stroke="midnightblue" d="M279.407,-72.9739C285.3,-70.9477 291.61,-68.8412 297.5,-67 335.986,-54.9692 379.51,-42.722 414.119,-33.3018"/>
<polygon fill="midnightblue" stroke="midnightblue" points="415.358,-36.5924 424.094,-30.5977 413.526,-29.8362 415.358,-36.5924"/>
</g>
<!-- Node18 -->
<g id="node18" class="node"><title>Node18</title>
<polygon fill="white" stroke="#bfbfbf" points="565.5,-0.5 565.5,-30.5 695.5,-30.5 695.5,-0.5 565.5,-0.5"/>
<text text-anchor="start" x="573.5" y="-18.5" font-family="Helvetica,sans-Serif" font-size="10.00">boost/multi_index/mem</text>
<text text-anchor="middle" x="630.5" y="-7.5" font-family="Helvetica,sans-Serif" font-size="10.00">_fun.hpp</text>
</g>
<!-- Node14&#45;&gt;Node18 -->
<g id="edge20" class="edge"><title>Node14&#45;&gt;Node18</title>
<path fill="none" stroke="midnightblue" d="M277.93,-72.8555C284.192,-70.6902 291.049,-68.5464 297.5,-67 407.426,-40.6499 440.1,-49.6473 555.255,-31.1337"/>
<polygon fill="midnightblue" stroke="midnightblue" points="555.865,-34.5804 565.166,-29.5057 554.731,-27.6729 555.865,-34.5804"/>
</g>
<!-- Node19&#45;&gt;Node10 -->
<g id="edge23" class="edge"><title>Node19&#45;&gt;Node10</title>
<path fill="none" stroke="midnightblue" d="M842.167,-72.8685C821.398,-61.8932 785.314,-42.8243 760.93,-29.9385"/>
<polygon fill="midnightblue" stroke="midnightblue" points="762.378,-26.745 751.901,-25.1672 759.107,-32.934 762.378,-26.745"/>
</g>
<!-- Node20 -->
<g id="node20" class="node"><title>Node20</title>
<polygon fill="white" stroke="#bfbfbf" points="827,-6 827,-25 890,-25 890,-6 827,-6"/>
<text text-anchor="middle" x="858.5" y="-13" font-family="Helvetica,sans-Serif" font-size="10.00">exception</text>
</g>
<!-- Node19&#45;&gt;Node20 -->
<g id="edge22" class="edge"><title>Node19&#45;&gt;Node20</title>
<path fill="none" stroke="midnightblue" d="M858.5,-72.7338C858.5,-63.1826 858.5,-47.6183 858.5,-35.2829"/>
<polygon fill="midnightblue" stroke="midnightblue" points="862,-35.1273 858.5,-25.1273 855,-35.1273 862,-35.1273"/>
</g>
</g>
</svg>
