<?xml version="1.0" encoding="UTF-8" standalone="no"?>
<!DOCTYPE svg PUBLIC "-//W3C//DTD SVG 1.1//EN"
 "http://www.w3.org/Graphics/SVG/1.1/DTD/svg11.dtd">
<!-- Generated by graphviz version 2.38.0 (20140413.2041)
 -->
<!-- Title: parameter.cc Pages: 1 -->
<svg width="1217pt" height="274pt"
 viewBox="0.00 0.00 1216.50 274.00" xmlns="http://www.w3.org/2000/svg" xmlns:xlink="http://www.w3.org/1999/xlink">
<g id="graph0" class="graph" transform="scale(1 1) rotate(0) translate(4 270)">
<title>parameter.cc</title>
<polygon fill="white" stroke="none" points="-4,4 -4,-270 1212.5,-270 1212.5,4 -4,4"/>
<!-- Node1 -->
<g id="node1" class="node"><title>Node1</title>
<polygon fill="#bfbfbf" stroke="black" points="1077,-246.5 1077,-265.5 1157,-265.5 1157,-246.5 1077,-246.5"/>
<text text-anchor="middle" x="1117" y="-253.5" font-family="Helvetica,sans-Serif" font-size="10.00">parameter.cc</text>
</g>
<!-- Node2 -->
<g id="node2" class="node"><title>Node2</title>
<g id="a_node2"><a xlink:href="parameter_8h.xhtml" target="_top" xlink:title="Parameter expressions that act like a shareable variable. ">
<polygon fill="white" stroke="black" points="898,-190.5 898,-209.5 974,-209.5 974,-190.5 898,-190.5"/>
<text text-anchor="middle" x="936" y="-197.5" font-family="Helvetica,sans-Serif" font-size="10.00">parameter.h</text>
</a>
</g>
</g>
<!-- Node1&#45;&gt;Node2 -->
<g id="edge1" class="edge"><title>Node1&#45;&gt;Node2</title>
<path fill="none" stroke="midnightblue" d="M1088.32,-246.444C1057.47,-237.241 1008.27,-222.562 974.171,-212.388"/>
<polygon fill="midnightblue" stroke="midnightblue" points="975.129,-209.021 964.546,-209.516 973.128,-215.729 975.129,-209.021"/>
</g>
<!-- Node17 -->
<g id="node17" class="node"><title>Node17</title>
<g id="a_node17"><a xlink:href="error_8h.xhtml" target="_top" xlink:title="Exceptions for SCRAM. ">
<polygon fill="white" stroke="black" points="1153,-73 1153,-92 1201,-92 1201,-73 1153,-73"/>
<text text-anchor="middle" x="1177" y="-80" font-family="Helvetica,sans-Serif" font-size="10.00">error.h</text>
</a>
</g>
</g>
<!-- Node1&#45;&gt;Node17 -->
<g id="edge24" class="edge"><title>Node1&#45;&gt;Node17</title>
<path fill="none" stroke="midnightblue" d="M1126.14,-246.349C1142.56,-230.115 1176.47,-193.174 1189,-154 1194.49,-136.85 1189.91,-116.505 1184.9,-102.089"/>
<polygon fill="midnightblue" stroke="midnightblue" points="1188.02,-100.442 1181.15,-92.3718 1181.49,-102.961 1188.02,-100.442"/>
</g>
<!-- Node3 -->
<g id="node3" class="node"><title>Node3</title>
<polygon fill="white" stroke="#bfbfbf" points="496.5,-6 496.5,-25 545.5,-25 545.5,-6 496.5,-6"/>
<text text-anchor="middle" x="521" y="-13" font-family="Helvetica,sans-Serif" font-size="10.00">cstdint</text>
</g>
<!-- Node2&#45;&gt;Node3 -->
<g id="edge2" class="edge"><title>Node2&#45;&gt;Node3</title>
<path fill="none" stroke="midnightblue" d="M897.878,-198.079C825.606,-194.461 666.887,-177.337 566,-98 545.396,-81.7972 532.838,-53.4167 526.401,-34.7895"/>
<polygon fill="midnightblue" stroke="midnightblue" points="529.686,-33.5713 523.303,-25.1149 523.019,-35.706 529.686,-33.5713"/>
</g>
<!-- Node4 -->
<g id="node4" class="node"><title>Node4</title>
<polygon fill="white" stroke="#bfbfbf" points="1122.5,-134.5 1122.5,-153.5 1179.5,-153.5 1179.5,-134.5 1122.5,-134.5"/>
<text text-anchor="middle" x="1151" y="-141.5" font-family="Helvetica,sans-Serif" font-size="10.00">memory</text>
</g>
<!-- Node2&#45;&gt;Node4 -->
<g id="edge3" class="edge"><title>Node2&#45;&gt;Node4</title>
<path fill="none" stroke="midnightblue" d="M970.067,-190.444C1008.82,-180.711 1071.95,-164.854 1112.47,-154.678"/>
<polygon fill="midnightblue" stroke="midnightblue" points="1113.41,-158.051 1122.25,-152.22 1111.7,-151.262 1113.41,-158.051"/>
</g>
<!-- Node5 -->
<g id="node5" class="node"><title>Node5</title>
<polygon fill="white" stroke="#bfbfbf" points="1034,-6 1034,-25 1078,-25 1078,-6 1034,-6"/>
<text text-anchor="middle" x="1056" y="-13" font-family="Helvetica,sans-Serif" font-size="10.00">string</text>
</g>
<!-- Node2&#45;&gt;Node5 -->
<g id="edge4" class="edge"><title>Node2&#45;&gt;Node5</title>
<path fill="none" stroke="midnightblue" d="M968.408,-190.422C1008.93,-177.757 1076.54,-149.767 1106,-98 1112.81,-86.0253 1111.24,-79.7421 1106,-67 1100.09,-52.6338 1087.9,-40.1834 1077.04,-31.2394"/>
<polygon fill="midnightblue" stroke="midnightblue" points="1079.16,-28.4603 1069.11,-25.1097 1074.88,-33.9969 1079.16,-28.4603"/>
</g>
<!-- Node6 -->
<g id="node6" class="node"><title>Node6</title>
<g id="a_node6"><a xlink:href="element_8h.xhtml" target="_top" xlink:title="Helper classes, structs, and properties common to all other classes. ">
<polygon fill="white" stroke="black" points="427.5,-73 427.5,-92 492.5,-92 492.5,-73 427.5,-73"/>
<text text-anchor="middle" x="460" y="-80" font-family="Helvetica,sans-Serif" font-size="10.00">element.h</text>
</a>
</g>
</g>
<!-- Node2&#45;&gt;Node6 -->
<g id="edge5" class="edge"><title>Node2&#45;&gt;Node6</title>
<path fill="none" stroke="midnightblue" d="M897.842,-199.073C805.405,-198.614 572.293,-193.463 507,-154 487.378,-142.141 474.228,-118.59 466.942,-101.979"/>
<polygon fill="midnightblue" stroke="midnightblue" points="469.999,-100.205 462.991,-92.2588 463.514,-102.841 469.999,-100.205"/>
</g>
<!-- Node11 -->
<g id="node11" class="node"><title>Node11</title>
<g id="a_node11"><a xlink:href="expression_8h.xhtml" target="_top" xlink:title="Provides the base class for all expressions and units for expression values. ">
<polygon fill="white" stroke="black" points="807.5,-134.5 807.5,-153.5 884.5,-153.5 884.5,-134.5 807.5,-134.5"/>
<text text-anchor="middle" x="846" y="-141.5" font-family="Helvetica,sans-Serif" font-size="10.00">expression.h</text>
</a>
</g>
</g>
<!-- Node2&#45;&gt;Node11 -->
<g id="edge12" class="edge"><title>Node2&#45;&gt;Node11</title>
<path fill="none" stroke="midnightblue" d="M921.54,-190.324C907.5,-181.9 885.952,-168.971 869.457,-159.074"/>
<polygon fill="midnightblue" stroke="midnightblue" points="870.8,-155.798 860.424,-153.655 867.198,-161.801 870.8,-155.798"/>
</g>
<!-- Node6&#45;&gt;Node3 -->
<g id="edge6" class="edge"><title>Node6&#45;&gt;Node3</title>
<path fill="none" stroke="midnightblue" d="M468.227,-72.7338C477.83,-62.5004 493.912,-45.3642 505.804,-32.6924"/>
<polygon fill="midnightblue" stroke="midnightblue" points="508.613,-34.8143 512.904,-25.1273 503.508,-30.0241 508.613,-34.8143"/>
</g>
<!-- Node6&#45;&gt;Node5 -->
<g id="edge7" class="edge"><title>Node6&#45;&gt;Node5</title>
<path fill="none" stroke="midnightblue" d="M492.538,-77.3507C516.226,-74.3669 549.085,-70.3037 578,-67 745.474,-47.8649 946.264,-27.4853 1023.52,-19.7389"/>
<polygon fill="midnightblue" stroke="midnightblue" points="1023.99,-23.21 1033.59,-18.7311 1023.29,-16.2449 1023.99,-23.21"/>
</g>
<!-- Node7 -->
<g id="node7" class="node"><title>Node7</title>
<polygon fill="white" stroke="#bfbfbf" points="563.5,-6 563.5,-25 610.5,-25 610.5,-6 563.5,-6"/>
<text text-anchor="middle" x="587" y="-13" font-family="Helvetica,sans-Serif" font-size="10.00">vector</text>
</g>
<!-- Node6&#45;&gt;Node7 -->
<g id="edge8" class="edge"><title>Node6&#45;&gt;Node7</title>
<path fill="none" stroke="midnightblue" d="M476.865,-72.8685C498.403,-61.8447 535.896,-42.6554 561.077,-29.7678"/>
<polygon fill="midnightblue" stroke="midnightblue" points="562.758,-32.8389 570.066,-25.1672 559.569,-26.6077 562.758,-32.8389"/>
</g>
<!-- Node8 -->
<g id="node8" class="node"><title>Node8</title>
<polygon fill="white" stroke="#bfbfbf" points="306,-6 306,-25 478,-25 478,-6 306,-6"/>
<text text-anchor="middle" x="392" y="-13" font-family="Helvetica,sans-Serif" font-size="10.00">boost/multi_index_container.hpp</text>
</g>
<!-- Node6&#45;&gt;Node8 -->
<g id="edge9" class="edge"><title>Node6&#45;&gt;Node8</title>
<path fill="none" stroke="midnightblue" d="M450.829,-72.7338C440.022,-62.403 421.854,-45.0371 408.562,-32.3315"/>
<polygon fill="midnightblue" stroke="midnightblue" points="410.673,-29.5071 401.025,-25.1273 405.836,-34.5672 410.673,-29.5071"/>
</g>
<!-- Node9 -->
<g id="node9" class="node"><title>Node9</title>
<polygon fill="white" stroke="#bfbfbf" points="0,-0.5 0,-30.5 140,-30.5 140,-0.5 0,-0.5"/>
<text text-anchor="start" x="8" y="-18.5" font-family="Helvetica,sans-Serif" font-size="10.00">boost/multi_index/hashed</text>
<text text-anchor="middle" x="70" y="-7.5" font-family="Helvetica,sans-Serif" font-size="10.00">_index.hpp</text>
</g>
<!-- Node6&#45;&gt;Node9 -->
<g id="edge10" class="edge"><title>Node6&#45;&gt;Node9</title>
<path fill="none" stroke="midnightblue" d="M427.277,-76.413C372.274,-67.8135 257.553,-49.667 150.226,-31.1927"/>
<polygon fill="midnightblue" stroke="midnightblue" points="150.648,-27.7137 140.198,-29.4618 149.457,-34.6117 150.648,-27.7137"/>
</g>
<!-- Node10 -->
<g id="node10" class="node"><title>Node10</title>
<polygon fill="white" stroke="#bfbfbf" points="158,-0.5 158,-30.5 288,-30.5 288,-0.5 158,-0.5"/>
<text text-anchor="start" x="166" y="-18.5" font-family="Helvetica,sans-Serif" font-size="10.00">boost/multi_index/mem</text>
<text text-anchor="middle" x="223" y="-7.5" font-family="Helvetica,sans-Serif" font-size="10.00">_fun.hpp</text>
</g>
<!-- Node6&#45;&gt;Node10 -->
<g id="edge11" class="edge"><title>Node6&#45;&gt;Node10</title>
<path fill="none" stroke="midnightblue" d="M428.528,-72.8685C391.811,-62.7983 330.249,-45.9144 284.053,-33.2446"/>
<polygon fill="midnightblue" stroke="midnightblue" points="284.718,-29.7977 274.148,-30.5281 282.867,-36.5484 284.718,-29.7977"/>
</g>
<!-- Node11&#45;&gt;Node5 -->
<g id="edge15" class="edge"><title>Node11&#45;&gt;Node5</title>
<path fill="none" stroke="midnightblue" d="M884.758,-136.871C914.873,-130.721 956.651,-119.043 988,-98 1013.28,-81.0331 1034.25,-52.0244 1045.94,-33.5813"/>
<polygon fill="midnightblue" stroke="midnightblue" points="1048.95,-35.3751 1051.19,-25.0196 1042.98,-31.7185 1048.95,-35.3751"/>
</g>
<!-- Node11&#45;&gt;Node6 -->
<g id="edge20" class="edge"><title>Node11&#45;&gt;Node6</title>
<path fill="none" stroke="midnightblue" d="M807.474,-137.499C750.186,-129.26 639.174,-113.07 545,-98 531.218,-95.7945 516.2,-93.2722 502.675,-90.9564"/>
<polygon fill="midnightblue" stroke="midnightblue" points="503.117,-87.4811 492.669,-89.2344 501.93,-94.3797 503.117,-87.4811"/>
</g>
<!-- Node11&#45;&gt;Node7 -->
<g id="edge17" class="edge"><title>Node11&#45;&gt;Node7</title>
<path fill="none" stroke="midnightblue" d="M807.253,-142.384C740.202,-140.409 606.912,-132.171 578,-98 563.173,-80.4763 570.596,-52.6931 578.121,-34.5274"/>
<polygon fill="midnightblue" stroke="midnightblue" points="581.352,-35.8759 582.284,-25.3221 574.974,-32.9916 581.352,-35.8759"/>
</g>
<!-- Node12 -->
<g id="node12" class="node"><title>Node12</title>
<polygon fill="white" stroke="#bfbfbf" points="1035,-73 1035,-92 1097,-92 1097,-73 1035,-73"/>
<text text-anchor="middle" x="1066" y="-80" font-family="Helvetica,sans-Serif" font-size="10.00">algorithm</text>
</g>
<!-- Node11&#45;&gt;Node12 -->
<g id="edge13" class="edge"><title>Node11&#45;&gt;Node12</title>
<path fill="none" stroke="midnightblue" d="M881.698,-134.486C917.184,-125.867 973.087,-111.866 1021,-98 1024.15,-97.0873 1027.42,-96.1058 1030.69,-95.0993"/>
<polygon fill="midnightblue" stroke="midnightblue" points="1031.89,-98.3894 1040.38,-92.0486 1029.79,-91.7123 1031.89,-98.3894"/>
</g>
<!-- Node13 -->
<g id="node13" class="node"><title>Node13</title>
<polygon fill="white" stroke="#bfbfbf" points="587,-73 587,-92 643,-92 643,-73 587,-73"/>
<text text-anchor="middle" x="615" y="-80" font-family="Helvetica,sans-Serif" font-size="10.00">sstream</text>
</g>
<!-- Node11&#45;&gt;Node13 -->
<g id="edge14" class="edge"><title>Node11&#45;&gt;Node13</title>
<path fill="none" stroke="midnightblue" d="M807.278,-135.747C767.8,-127.952 705.002,-114.437 652,-98 649.578,-97.249 647.089,-96.4148 644.602,-95.5367"/>
<polygon fill="midnightblue" stroke="midnightblue" points="645.76,-92.2329 635.167,-92.0163 643.313,-98.7913 645.76,-92.2329"/>
</g>
<!-- Node14 -->
<g id="node14" class="node"><title>Node14</title>
<polygon fill="white" stroke="#bfbfbf" points="661,-73 661,-92 703,-92 703,-73 661,-73"/>
<text text-anchor="middle" x="682" y="-80" font-family="Helvetica,sans-Serif" font-size="10.00">utility</text>
</g>
<!-- Node11&#45;&gt;Node14 -->
<g id="edge16" class="edge"><title>Node11&#45;&gt;Node14</title>
<path fill="none" stroke="midnightblue" d="M817.125,-134.461C789.724,-126.088 747.564,-112.499 712,-98 710.627,-97.4404 709.229,-96.8475 707.824,-96.2337"/>
<polygon fill="midnightblue" stroke="midnightblue" points="709.197,-93.013 698.65,-92.0081 706.269,-99.3709 709.197,-93.013"/>
</g>
<!-- Node15 -->
<g id="node15" class="node"><title>Node15</title>
<polygon fill="white" stroke="#bfbfbf" points="721,-67.5 721,-97.5 833,-97.5 833,-67.5 721,-67.5"/>
<text text-anchor="start" x="729" y="-85.5" font-family="Helvetica,sans-Serif" font-size="10.00">boost/icl/continuous</text>
<text text-anchor="middle" x="777" y="-74.5" font-family="Helvetica,sans-Serif" font-size="10.00">_interval.hpp</text>
</g>
<!-- Node11&#45;&gt;Node15 -->
<g id="edge18" class="edge"><title>Node11&#45;&gt;Node15</title>
<path fill="none" stroke="midnightblue" d="M836.114,-134.475C826.944,-126.567 812.932,-114.485 800.851,-104.067"/>
<polygon fill="midnightblue" stroke="midnightblue" points="803.121,-101.403 793.262,-97.523 798.549,-106.704 803.121,-101.403"/>
</g>
<!-- Node16 -->
<g id="node16" class="node"><title>Node16</title>
<polygon fill="white" stroke="#bfbfbf" points="851,-73 851,-92 979,-92 979,-73 851,-73"/>
<text text-anchor="middle" x="915" y="-80" font-family="Helvetica,sans-Serif" font-size="10.00">boost/noncopyable.hpp</text>
</g>
<!-- Node11&#45;&gt;Node16 -->
<g id="edge19" class="edge"><title>Node11&#45;&gt;Node16</title>
<path fill="none" stroke="midnightblue" d="M855.886,-134.475C866.646,-125.197 884.071,-110.171 897.221,-98.831"/>
<polygon fill="midnightblue" stroke="midnightblue" points="899.845,-101.19 905.132,-92.0091 895.273,-95.889 899.845,-101.19"/>
</g>
<!-- Node11&#45;&gt;Node17 -->
<g id="edge21" class="edge"><title>Node11&#45;&gt;Node17</title>
<path fill="none" stroke="midnightblue" d="M884.829,-136.654C935.707,-128.253 1027.67,-112.773 1106,-98 1118.05,-95.7277 1131.21,-93.0841 1142.9,-90.6813"/>
<polygon fill="midnightblue" stroke="midnightblue" points="1143.64,-94.1024 1152.72,-88.647 1142.22,-87.2479 1143.64,-94.1024"/>
</g>
<!-- Node17&#45;&gt;Node5 -->
<g id="edge23" class="edge"><title>Node17&#45;&gt;Node5</title>
<path fill="none" stroke="midnightblue" d="M1160.68,-72.7338C1140.18,-61.7207 1104.8,-42.7129 1080.91,-29.8787"/>
<polygon fill="midnightblue" stroke="midnightblue" points="1082.53,-26.7764 1072.06,-25.1273 1079.21,-32.943 1082.53,-26.7764"/>
</g>
<!-- Node18 -->
<g id="node18" class="node"><title>Node18</title>
<polygon fill="white" stroke="#bfbfbf" points="1145.5,-6 1145.5,-25 1208.5,-25 1208.5,-6 1145.5,-6"/>
<text text-anchor="middle" x="1177" y="-13" font-family="Helvetica,sans-Serif" font-size="10.00">exception</text>
</g>
<!-- Node17&#45;&gt;Node18 -->
<g id="edge22" class="edge"><title>Node17&#45;&gt;Node18</title>
<path fill="none" stroke="midnightblue" d="M1177,-72.7338C1177,-63.1826 1177,-47.6183 1177,-35.2829"/>
<polygon fill="midnightblue" stroke="midnightblue" points="1180.5,-35.1273 1177,-25.1273 1173.5,-35.1273 1180.5,-35.1273"/>
</g>
</g>
</svg>
