<?xml version="1.0" encoding="UTF-8" standalone="no"?>
<!DOCTYPE svg PUBLIC "-//W3C//DTD SVG 1.1//EN"
 "http://www.w3.org/Graphics/SVG/1.1/DTD/svg11.dtd">
<!-- Generated by graphviz version 2.38.0 (20140413.2041)
 -->
<!-- Title: parameter.h Pages: 1 -->
<!--zoomable 218 -->
<svg id="main" version="1.1" xmlns="http://www.w3.org/2000/svg" xmlns:xlink="http://www.w3.org/1999/xlink" xml:space="preserve" onload="init(evt)">
<style type="text/css"><![CDATA[
.edge:hover path { stroke: red; }
.edge:hover polygon { stroke: red; fill: red; }
]]></style>
<script type="text/javascript"><![CDATA[
var edges = document.getElementsByTagName('g');
if (edges && edges.length) {
  for (var i=0;i<edges.length;i++) {
    if (edges[i].id.substr(0,4)=='edge') {
      edges[i].setAttribute('class','edge');
    }
  }
}
]]></script>
        <defs>
                <circle id="rim" cx="0" cy="0" r="7"/>
                <circle id="rim2" cx="0" cy="0" r="3.5"/>
                <g id="zoomPlus">
                        <use xlink:href="#rim" fill="#404040">
                                <set attributeName="fill" to="#808080" begin="zoomplus.mouseover" end="zoomplus.mouseout"/>
                        </use>
                        <path d="M-4,0h8M0,-4v8" fill="none" stroke="white" stroke-width="1.5" pointer-events="none"/>
                </g>
                <g id="zoomMin">
                        <use xlink:href="#rim" fill="#404040">
                                <set attributeName="fill" to="#808080" begin="zoomminus.mouseover" end="zoomminus.mouseout"/>
                        </use>
                        <path d="M-4,0h8" fill="none" stroke="white" stroke-width="1.5" pointer-events="none"/>
                </g>
                <g id="dirArrow">
                        <path fill="none" stroke="white" stroke-width="1.5" d="M0,-3.0v7 M-2.5,-0.5L0,-3.0L2.5,-0.5"/>
                </g>
               <g id="resetDef">
                       <use xlink:href="#rim2" fill="#404040">
                               <set attributeName="fill" to="#808080" begin="reset.mouseover" end="reset.mouseout"/>
                       </use>
               </g>
        </defs>

<script type="text/javascript">
var viewWidth = 1077;
var viewHeight = 218;
var sectionId = 'dynsection-0';
</script>
<script xlink:href="svgpan.js"/>
<svg id="graph" class="graph">
<g id="viewport">
<title>parameter.h</title>
<polygon fill="white" stroke="none" points="-4,4 -4,-214 1073,-214 1073,4 -4,4"/>
<!-- Node1 -->
<g id="node1" class="node"><title>Node1</title>
<polygon fill="#bfbfbf" stroke="black" points="487.5,-190.5 487.5,-209.5 563.5,-209.5 563.5,-190.5 487.5,-190.5"/>
<text text-anchor="middle" x="525.5" y="-197.5" font-family="Helvetica,sans-Serif" font-size="10.00">parameter.h</text>
</g>
<!-- Node2 -->
<g id="node2" class="node"><title>Node2</title>
<polygon fill="white" stroke="#bfbfbf" points="0,-6 0,-25 49,-25 49,-6 0,-6"/>
<text text-anchor="middle" x="24.5" y="-13" font-family="Helvetica,sans-Serif" font-size="10.00">cstdint</text>
</g>
<!-- Node1&#45;&gt;Node2 -->
<g id="edge1" class="edge"><title>Node1&#45;&gt;Node2</title>
<path fill="none" stroke="midnightblue" d="M499.026,-190.462C471.743,-181.595 428.021,-167.2 390.5,-154 242.061,-101.779 204.692,-89.2147 58.5,-31 56.9015,-30.3635 55.2648,-29.7012 53.6156,-29.0256"/>
<polygon fill="midnightblue" stroke="midnightblue" points="54.7861,-25.7215 44.2097,-25.0962 52.0877,-32.1805 54.7861,-25.7215"/>
</g>
<!-- Node3 -->
<g id="node3" class="node"><title>Node3</title>
<polygon fill="white" stroke="#bfbfbf" points="1012,-134.5 1012,-153.5 1069,-153.5 1069,-134.5 1012,-134.5"/>
<text text-anchor="middle" x="1040.5" y="-141.5" font-family="Helvetica,sans-Serif" font-size="10.00">memory</text>
</g>
<!-- Node1&#45;&gt;Node3 -->
<g id="edge2" class="edge"><title>Node1&#45;&gt;Node3</title>
<path fill="none" stroke="midnightblue" d="M563.609,-196.81C644.092,-191.869 837.175,-178.344 997.5,-154 998.961,-153.778 1000.45,-153.538 1001.95,-153.285"/>
<polygon fill="midnightblue" stroke="midnightblue" points="1002.7,-156.705 1011.9,-151.449 1001.43,-149.821 1002.7,-156.705"/>
</g>
<!-- Node4 -->
<g id="node4" class="node"><title>Node4</title>
<polygon fill="white" stroke="#bfbfbf" points="733.5,-6 733.5,-25 777.5,-25 777.5,-6 733.5,-6"/>
<text text-anchor="middle" x="755.5" y="-13" font-family="Helvetica,sans-Serif" font-size="10.00">string</text>
</g>
<!-- Node1&#45;&gt;Node4 -->
<g id="edge3" class="edge"><title>Node1&#45;&gt;Node4</title>
<path fill="none" stroke="midnightblue" d="M563.811,-196.129C661.256,-187.952 914.392,-160.946 964.5,-98 973.081,-87.2207 973.022,-77.8262 964.5,-67 942.899,-39.5586 841.225,-25.2533 788.067,-19.5412"/>
<polygon fill="midnightblue" stroke="midnightblue" points="788.12,-16.0282 777.813,-18.4816 787.4,-22.9911 788.12,-16.0282"/>
</g>
<!-- Node5 -->
<g id="node5" class="node"><title>Node5</title>
<g id="a_node5"><a xlink:href="element_8h.xhtml" target="_top" xlink:title="Helper classes, structs, and properties common to all other classes. ">
<polygon fill="white" stroke="black" points="258,-73 258,-92 323,-92 323,-73 258,-73"/>
<text text-anchor="middle" x="290.5" y="-80" font-family="Helvetica,sans-Serif" font-size="10.00">element.h</text>
</a>
</g>
</g>
<!-- Node1&#45;&gt;Node5 -->
<g id="edge4" class="edge"><title>Node1&#45;&gt;Node5</title>
<path fill="none" stroke="midnightblue" d="M507.837,-190.319C466.993,-170.245 365.811,-120.515 317.289,-96.6667"/>
<polygon fill="midnightblue" stroke="midnightblue" points="318.566,-93.3943 308.048,-92.1245 315.478,-99.6766 318.566,-93.3943"/>
</g>
<!-- Node10 -->
<g id="node10" class="node"><title>Node10</title>
<g id="a_node10"><a xlink:href="expression_8h.xhtml" target="_top" xlink:title="Provides the base class for all expressions and units for expression values. ">
<polygon fill="white" stroke="black" points="487,-134.5 487,-153.5 564,-153.5 564,-134.5 487,-134.5"/>
<text text-anchor="middle" x="525.5" y="-141.5" font-family="Helvetica,sans-Serif" font-size="10.00">expression.h</text>
</a>
</g>
</g>
<!-- Node1&#45;&gt;Node10 -->
<g id="edge11" class="edge"><title>Node1&#45;&gt;Node10</title>
<path fill="none" stroke="midnightblue" d="M525.5,-190.083C525.5,-183.006 525.5,-172.861 525.5,-163.986"/>
<polygon fill="midnightblue" stroke="midnightblue" points="529,-163.751 525.5,-153.751 522,-163.751 529,-163.751"/>
</g>
<!-- Node5&#45;&gt;Node2 -->
<g id="edge5" class="edge"><title>Node5&#45;&gt;Node2</title>
<path fill="none" stroke="midnightblue" d="M257.714,-76.3741C212.308,-68.8233 128.012,-53.1686 58.5,-31 56.5742,-30.3858 54.6075,-29.7032 52.6392,-28.9784"/>
<polygon fill="midnightblue" stroke="midnightblue" points="53.5508,-25.574 42.9655,-25.123 50.9591,-32.0766 53.5508,-25.574"/>
</g>
<!-- Node5&#45;&gt;Node4 -->
<g id="edge6" class="edge"><title>Node5&#45;&gt;Node4</title>
<path fill="none" stroke="midnightblue" d="M323.149,-75.641C338.94,-72.8813 358.183,-69.6268 375.5,-67 503.899,-47.5233 657.344,-28.397 723.049,-20.4034"/>
<polygon fill="midnightblue" stroke="midnightblue" points="723.681,-23.8524 733.187,-19.1737 722.838,-16.9034 723.681,-23.8524"/>
</g>
<!-- Node6 -->
<g id="node6" class="node"><title>Node6</title>
<polygon fill="white" stroke="#bfbfbf" points="564,-6 564,-25 611,-25 611,-6 564,-6"/>
<text text-anchor="middle" x="587.5" y="-13" font-family="Helvetica,sans-Serif" font-size="10.00">vector</text>
</g>
<!-- Node5&#45;&gt;Node6 -->
<g id="edge7" class="edge"><title>Node5&#45;&gt;Node6</title>
<path fill="none" stroke="midnightblue" d="M316.186,-72.8908C323.059,-70.7757 330.519,-68.648 337.5,-67 432.647,-44.5388 460.797,-58.8805 554.5,-31 556.644,-30.362 558.833,-29.6194 561.013,-28.8139"/>
<polygon fill="midnightblue" stroke="midnightblue" points="562.401,-32.0277 570.337,-25.0088 559.756,-25.5466 562.401,-32.0277"/>
</g>
<!-- Node7 -->
<g id="node7" class="node"><title>Node7</title>
<polygon fill="white" stroke="#bfbfbf" points="373.5,-6 373.5,-25 545.5,-25 545.5,-6 373.5,-6"/>
<text text-anchor="middle" x="459.5" y="-13" font-family="Helvetica,sans-Serif" font-size="10.00">boost/multi_index_container.hpp</text>
</g>
<!-- Node5&#45;&gt;Node7 -->
<g id="edge8" class="edge"><title>Node5&#45;&gt;Node7</title>
<path fill="none" stroke="midnightblue" d="M312.942,-72.8685C342.317,-61.5706 393.99,-41.6961 427.472,-28.8183"/>
<polygon fill="midnightblue" stroke="midnightblue" points="429.157,-31.9202 437.234,-25.0637 426.645,-25.3868 429.157,-31.9202"/>
</g>
<!-- Node8 -->
<g id="node8" class="node"><title>Node8</title>
<polygon fill="white" stroke="#bfbfbf" points="67.5,-0.5 67.5,-30.5 207.5,-30.5 207.5,-0.5 67.5,-0.5"/>
<text text-anchor="start" x="75.5" y="-18.5" font-family="Helvetica,sans-Serif" font-size="10.00">boost/multi_index/hashed</text>
<text text-anchor="middle" x="137.5" y="-7.5" font-family="Helvetica,sans-Serif" font-size="10.00">_index.hpp</text>
</g>
<!-- Node5&#45;&gt;Node8 -->
<g id="edge9" class="edge"><title>Node5&#45;&gt;Node8</title>
<path fill="none" stroke="midnightblue" d="M270.183,-72.8685C247.225,-63.115 209.221,-46.9696 179.756,-34.452"/>
<polygon fill="midnightblue" stroke="midnightblue" points="181.092,-31.2169 170.52,-30.5281 178.355,-37.6596 181.092,-31.2169"/>
</g>
<!-- Node9 -->
<g id="node9" class="node"><title>Node9</title>
<polygon fill="white" stroke="#bfbfbf" points="225.5,-0.5 225.5,-30.5 355.5,-30.5 355.5,-0.5 225.5,-0.5"/>
<text text-anchor="start" x="233.5" y="-18.5" font-family="Helvetica,sans-Serif" font-size="10.00">boost/multi_index/mem</text>
<text text-anchor="middle" x="290.5" y="-7.5" font-family="Helvetica,sans-Serif" font-size="10.00">_fun.hpp</text>
</g>
<!-- Node5&#45;&gt;Node9 -->
<g id="edge10" class="edge"><title>Node5&#45;&gt;Node9</title>
<path fill="none" stroke="midnightblue" d="M290.5,-72.7338C290.5,-64.5406 290.5,-51.9225 290.5,-40.7136"/>
<polygon fill="midnightblue" stroke="midnightblue" points="294,-40.589 290.5,-30.589 287,-40.5891 294,-40.589"/>
</g>
<!-- Node10&#45;&gt;Node4 -->
<g id="edge14" class="edge"><title>Node10&#45;&gt;Node4</title>
<path fill="none" stroke="midnightblue" d="M486.968,-139.332C460.08,-134.533 425.996,-123.474 408.5,-98 400.7,-86.6428 399.486,-77.4203 408.5,-67 418.8,-55.0922 639.111,-29.4458 723.24,-20.0462"/>
<polygon fill="midnightblue" stroke="midnightblue" points="723.708,-23.5158 733.26,-18.9317 722.935,-16.5587 723.708,-23.5158"/>
</g>
<!-- Node10&#45;&gt;Node5 -->
<g id="edge19" class="edge"><title>Node10&#45;&gt;Node5</title>
<path fill="none" stroke="midnightblue" d="M486.789,-134.499C448.649,-125.944 388.808,-112.039 337.5,-98 334.102,-97.0703 330.58,-96.0638 327.06,-95.0293"/>
<polygon fill="midnightblue" stroke="midnightblue" points="327.84,-91.6092 317.256,-92.0804 325.824,-98.3125 327.84,-91.6092"/>
</g>
<!-- Node10&#45;&gt;Node6 -->
<g id="edge16" class="edge"><title>Node10&#45;&gt;Node6</title>
<path fill="none" stroke="midnightblue" d="M486.707,-137.925C431.853,-129.178 341.837,-108.107 375.5,-67 426.914,-4.21679 477.127,-55.4639 554.5,-31 556.424,-30.3916 558.387,-29.7064 560.349,-28.9733"/>
<polygon fill="midnightblue" stroke="midnightblue" points="562.027,-32.0684 569.959,-25.0439 559.378,-25.5891 562.027,-32.0684"/>
</g>
<!-- Node11 -->
<g id="node11" class="node"><title>Node11</title>
<polygon fill="white" stroke="#bfbfbf" points="417.5,-73 417.5,-92 479.5,-92 479.5,-73 417.5,-73"/>
<text text-anchor="middle" x="448.5" y="-80" font-family="Helvetica,sans-Serif" font-size="10.00">algorithm</text>
</g>
<!-- Node10&#45;&gt;Node11 -->
<g id="edge12" class="edge"><title>Node10&#45;&gt;Node11</title>
<path fill="none" stroke="midnightblue" d="M514.468,-134.475C502.232,-125.02 482.271,-109.596 467.507,-98.1871"/>
<polygon fill="midnightblue" stroke="midnightblue" points="469.565,-95.3541 459.512,-92.0091 465.285,-100.893 469.565,-95.3541"/>
</g>
<!-- Node12 -->
<g id="node12" class="node"><title>Node12</title>
<polygon fill="white" stroke="#bfbfbf" points="497.5,-73 497.5,-92 553.5,-92 553.5,-73 497.5,-73"/>
<text text-anchor="middle" x="525.5" y="-80" font-family="Helvetica,sans-Serif" font-size="10.00">sstream</text>
</g>
<!-- Node10&#45;&gt;Node12 -->
<g id="edge13" class="edge"><title>Node10&#45;&gt;Node12</title>
<path fill="none" stroke="midnightblue" d="M525.5,-134.475C525.5,-126.08 525.5,-112.981 525.5,-102.163"/>
<polygon fill="midnightblue" stroke="midnightblue" points="529,-102.009 525.5,-92.0091 522,-102.009 529,-102.009"/>
</g>
<!-- Node13 -->
<g id="node13" class="node"><title>Node13</title>
<polygon fill="white" stroke="#bfbfbf" points="571.5,-73 571.5,-92 613.5,-92 613.5,-73 571.5,-73"/>
<text text-anchor="middle" x="592.5" y="-80" font-family="Helvetica,sans-Serif" font-size="10.00">utility</text>
</g>
<!-- Node10&#45;&gt;Node13 -->
<g id="edge15" class="edge"><title>Node10&#45;&gt;Node13</title>
<path fill="none" stroke="midnightblue" d="M535.099,-134.475C545.548,-125.197 562.468,-110.171 575.236,-98.831"/>
<polygon fill="midnightblue" stroke="midnightblue" points="577.765,-101.266 582.918,-92.0091 573.117,-96.0323 577.765,-101.266"/>
</g>
<!-- Node14 -->
<g id="node14" class="node"><title>Node14</title>
<polygon fill="white" stroke="#bfbfbf" points="631.5,-67.5 631.5,-97.5 743.5,-97.5 743.5,-67.5 631.5,-67.5"/>
<text text-anchor="start" x="639.5" y="-85.5" font-family="Helvetica,sans-Serif" font-size="10.00">boost/icl/continuous</text>
<text text-anchor="middle" x="687.5" y="-74.5" font-family="Helvetica,sans-Serif" font-size="10.00">_interval.hpp</text>
</g>
<!-- Node10&#45;&gt;Node14 -->
<g id="edge17" class="edge"><title>Node10&#45;&gt;Node14</title>
<path fill="none" stroke="midnightblue" d="M548.711,-134.475C572.394,-125.776 609.831,-112.026 639.858,-100.998"/>
<polygon fill="midnightblue" stroke="midnightblue" points="641.14,-104.256 649.32,-97.523 638.726,-97.6853 641.14,-104.256"/>
</g>
<!-- Node15 -->
<g id="node15" class="node"><title>Node15</title>
<polygon fill="white" stroke="#bfbfbf" points="761.5,-73 761.5,-92 889.5,-92 889.5,-73 761.5,-73"/>
<text text-anchor="middle" x="825.5" y="-80" font-family="Helvetica,sans-Serif" font-size="10.00">boost/noncopyable.hpp</text>
</g>
<!-- Node10&#45;&gt;Node15 -->
<g id="edge18" class="edge"><title>Node10&#45;&gt;Node15</title>
<path fill="none" stroke="midnightblue" d="M564.059,-135.361C609.223,-126.412 686.294,-111.137 752.5,-98 759.057,-96.6989 765.945,-95.3315 772.762,-93.9777"/>
<polygon fill="midnightblue" stroke="midnightblue" points="773.527,-97.3943 782.654,-92.0134 772.163,-90.5284 773.527,-97.3943"/>
</g>
<!-- Node16 -->
<g id="node16" class="node"><title>Node16</title>
<g id="a_node16"><a xlink:href="error_8h.xhtml" target="_top" xlink:title="Exceptions for SCRAM. ">
<polygon fill="white" stroke="black" points="907.5,-73 907.5,-92 955.5,-92 955.5,-73 907.5,-73"/>
<text text-anchor="middle" x="931.5" y="-80" font-family="Helvetica,sans-Serif" font-size="10.00">error.h</text>
</a>
</g>
</g>
<!-- Node10&#45;&gt;Node16 -->
<g id="edge20" class="edge"><title>Node10&#45;&gt;Node16</title>
<path fill="none" stroke="midnightblue" d="M564.068,-142.061C632.564,-139.579 779.434,-130.572 898.5,-98 900.792,-97.373 903.13,-96.6131 905.45,-95.7734"/>
<polygon fill="midnightblue" stroke="midnightblue" points="906.772,-99.014 914.721,-92.0091 904.139,-92.5282 906.772,-99.014"/>
</g>
<!-- Node16&#45;&gt;Node4 -->
<g id="edge22" class="edge"><title>Node16&#45;&gt;Node4</title>
<path fill="none" stroke="midnightblue" d="M912.755,-72.9746C908.124,-70.9484 903.155,-68.8417 898.5,-67 860.831,-52.097 816.787,-36.8663 787.638,-27.0851"/>
<polygon fill="midnightblue" stroke="midnightblue" points="788.577,-23.7088 777.983,-23.8621 786.361,-30.3486 788.577,-23.7088"/>
</g>
<!-- Node17 -->
<g id="node17" class="node"><title>Node17</title>
<polygon fill="white" stroke="#bfbfbf" points="900,-6 900,-25 963,-25 963,-6 900,-6"/>
<text text-anchor="middle" x="931.5" y="-13" font-family="Helvetica,sans-Serif" font-size="10.00">exception</text>
</g>
<!-- Node16&#45;&gt;Node17 -->
<g id="edge21" class="edge"><title>Node16&#45;&gt;Node17</title>
<path fill="none" stroke="midnightblue" d="M931.5,-72.7338C931.5,-63.1826 931.5,-47.6183 931.5,-35.2829"/>
<polygon fill="midnightblue" stroke="midnightblue" points="935,-35.1273 931.5,-25.1273 928,-35.1273 935,-35.1273"/>
</g>
</g>
</svg>
        <g id="navigator" transform="translate(0 0)" fill="#404254">
                <rect fill="#f2f5e9" fill-opacity="0.5" stroke="#606060" stroke-width=".5" x="0" y="0" width="60" height="60"/>
                <use id="zoomplus" xlink:href="#zoomPlus" x="17" y="9" onmousedown="handleZoom(evt,'in')"/>
                <use id="zoomminus" xlink:href="#zoomMin" x="42" y="9" onmousedown="handleZoom(evt,'out')"/>
                <use id="reset" xlink:href="#resetDef" x="30" y="36" onmousedown="handleReset()"/>
                <g id="arrowUp" xlink:href="#dirArrow" transform="translate(30 24)" onmousedown="handlePan(0,-1)">
                  <use xlink:href="#rim" fill="#404040">
                        <set attributeName="fill" to="#808080" begin="arrowUp.mouseover" end="arrowUp.mouseout"/>
                  </use>
                  <path fill="none" stroke="white" stroke-width="1.5" d="M0,-3.0v7 M-2.5,-0.5L0,-3.0L2.5,-0.5"/>
                </g>
                <g id="arrowRight" xlink:href="#dirArrow" transform="rotate(90) translate(36 -43)" onmousedown="handlePan(1,0)">
                  <use xlink:href="#rim" fill="#404040">
                        <set attributeName="fill" to="#808080" begin="arrowRight.mouseover" end="arrowRight.mouseout"/>
                  </use>
                  <path fill="none" stroke="white" stroke-width="1.5" d="M0,-3.0v7 M-2.5,-0.5L0,-3.0L2.5,-0.5"/>
                </g>
                <g id="arrowDown" xlink:href="#dirArrow" transform="rotate(180) translate(-30 -48)" onmousedown="handlePan(0,1)">
                  <use xlink:href="#rim" fill="#404040">
                        <set attributeName="fill" to="#808080" begin="arrowDown.mouseover" end="arrowDown.mouseout"/>
                  </use>
                  <path fill="none" stroke="white" stroke-width="1.5" d="M0,-3.0v7 M-2.5,-0.5L0,-3.0L2.5,-0.5"/>
                </g>
                <g id="arrowLeft" xlink:href="#dirArrow" transform="rotate(270) translate(-36 17)" onmousedown="handlePan(-1,0)">
                  <use xlink:href="#rim" fill="#404040">
                        <set attributeName="fill" to="#808080" begin="arrowLeft.mouseover" end="arrowLeft.mouseout"/>
                  </use>
                  <path fill="none" stroke="white" stroke-width="1.5" d="M0,-3.0v7 M-2.5,-0.5L0,-3.0L2.5,-0.5"/>
                </g>
        </g>
        <svg viewBox="0 0 15 15" width="100%" height="30px" preserveAspectRatio="xMaxYMin meet">
         <g id="arrow_out" transform="scale(0.3 0.3)">
          <a xlink:href="parameter_8h__incl_org.svg" target="_base">
           <rect id="button" ry="5" rx="5" y="6" x="6" height="38" width="38"
                fill="#f2f5e9" fill-opacity="0.5" stroke="#606060" stroke-width="1.0"/>
           <path id="arrow"
             d="M 11.500037,31.436501 C 11.940474,20.09759 22.043105,11.32322 32.158766,21.979434 L 37.068811,17.246167 C 37.068811,17.246167 37.088388,32 37.088388,32 L 22.160133,31.978069 C 22.160133,31.978069 26.997745,27.140456 26.997745,27.140456 C 18.528582,18.264221 13.291696,25.230495 11.500037,31.436501 z"
             style="fill:#404040;"/>
          </a>
         </g>
        </svg>
</svg>
