<?xml version="1.0" encoding="UTF-8" standalone="no"?>
<!DOCTYPE svg PUBLIC "-//W3C//DTD SVG 1.1//EN"
 "http://www.w3.org/Graphics/SVG/1.1/DTD/svg11.dtd">
<!-- Generated by graphviz version 2.38.0 (20140413.2041)
 -->
<!-- Title: parameter.h Pages: 1 -->
<!--zoomable 308 -->
<svg id="main" version="1.1" xmlns="http://www.w3.org/2000/svg" xmlns:xlink="http://www.w3.org/1999/xlink" xml:space="preserve" onload="init(evt)">
<style type="text/css"><![CDATA[
.edge:hover path { stroke: red; }
.edge:hover polygon { stroke: red; fill: red; }
]]></style>
<script type="text/javascript"><![CDATA[
var edges = document.getElementsByTagName('g');
if (edges && edges.length) {
  for (var i=0;i<edges.length;i++) {
    if (edges[i].id.substr(0,4)=='edge') {
      edges[i].setAttribute('class','edge');
    }
  }
}
]]></script>
        <defs>
                <circle id="rim" cx="0" cy="0" r="7"/>
                <circle id="rim2" cx="0" cy="0" r="3.5"/>
                <g id="zoomPlus">
                        <use xlink:href="#rim" fill="#404040">
                                <set attributeName="fill" to="#808080" begin="zoomplus.mouseover" end="zoomplus.mouseout"/>
                        </use>
                        <path d="M-4,0h8M0,-4v8" fill="none" stroke="white" stroke-width="1.5" pointer-events="none"/>
                </g>
                <g id="zoomMin">
                        <use xlink:href="#rim" fill="#404040">
                                <set attributeName="fill" to="#808080" begin="zoomminus.mouseover" end="zoomminus.mouseout"/>
                        </use>
                        <path d="M-4,0h8" fill="none" stroke="white" stroke-width="1.5" pointer-events="none"/>
                </g>
                <g id="dirArrow">
                        <path fill="none" stroke="white" stroke-width="1.5" d="M0,-3.0v7 M-2.5,-0.5L0,-3.0L2.5,-0.5"/>
                </g>
               <g id="resetDef">
                       <use xlink:href="#rim2" fill="#404040">
                               <set attributeName="fill" to="#808080" begin="reset.mouseover" end="reset.mouseout"/>
                       </use>
               </g>
        </defs>

<script type="text/javascript">
var viewWidth = 573;
var viewHeight = 308;
var sectionId = 'dynsection-1';
</script>
<script xlink:href="svgpan.js"/>
<svg id="graph" class="graph">
<g id="viewport">
<title>parameter.h</title>
<polygon fill="white" stroke="none" points="-4,4 -4,-304 568.5,-304 568.5,4 -4,4"/>
<!-- Node1 -->
<g id="node1" class="node"><title>Node1</title>
<polygon fill="#bfbfbf" stroke="black" points="132,-280.5 132,-299.5 208,-299.5 208,-280.5 132,-280.5"/>
<text text-anchor="middle" x="170" y="-287.5" font-family="Helvetica,sans-Serif" font-size="10.00">parameter.h</text>
</g>
<!-- Node2 -->
<g id="node2" class="node"><title>Node2</title>
<g id="a_node2"><a xlink:href="cycle_8h.xhtml" target="_top" xlink:title="Validation facilities to detect and print cycles in graphs. ">
<polygon fill="white" stroke="black" points="39,-168.5 39,-187.5 89,-187.5 89,-168.5 39,-168.5"/>
<text text-anchor="middle" x="64" y="-175.5" font-family="Helvetica,sans-Serif" font-size="10.00">cycle.h</text>
</a>
</g>
</g>
<!-- Node1&#45;&gt;Node2 -->
<g id="edge1" class="edge"><title>Node1&#45;&gt;Node2</title>
<path fill="none" stroke="midnightblue" d="M145.788,-275.114C133.035,-267.064 117.667,-256.133 106,-244 89.0511,-226.374 74.9733,-200.957 68.2507,-187.735"/>
<polygon fill="midnightblue" stroke="midnightblue" points="144.161,-278.221 154.521,-280.442 147.807,-272.246 144.161,-278.221"/>
</g>
<!-- Node4 -->
<g id="node4" class="node"><title>Node4</title>
<g id="a_node4"><a xlink:href="fault__tree_8h.xhtml" target="_top" xlink:title="Fault Tree and Component containers. ">
<polygon fill="white" stroke="black" points="198.5,-224.5 198.5,-243.5 269.5,-243.5 269.5,-224.5 198.5,-224.5"/>
<text text-anchor="middle" x="234" y="-231.5" font-family="Helvetica,sans-Serif" font-size="10.00">fault_tree.h</text>
</a>
</g>
</g>
<!-- Node1&#45;&gt;Node4 -->
<g id="edge3" class="edge"><title>Node1&#45;&gt;Node4</title>
<path fill="none" stroke="midnightblue" d="M187.991,-273.82C199.458,-264.145 213.913,-251.948 223.53,-243.834"/>
<polygon fill="midnightblue" stroke="midnightblue" points="185.669,-271.2 180.283,-280.324 190.183,-276.55 185.669,-271.2"/>
</g>
<!-- Node6 -->
<g id="node6" class="node"><title>Node6</title>
<g id="a_node6"><a xlink:href="initializer_8h.xhtml" target="_top" xlink:title="A facility that processes input files into analysis constructs. ">
<polygon fill="white" stroke="black" points="73.5,-112.5 73.5,-131.5 140.5,-131.5 140.5,-112.5 73.5,-112.5"/>
<text text-anchor="middle" x="107" y="-119.5" font-family="Helvetica,sans-Serif" font-size="10.00">initializer.h</text>
</a>
</g>
</g>
<!-- Node1&#45;&gt;Node6 -->
<g id="edge24" class="edge"><title>Node1&#45;&gt;Node6</title>
<path fill="none" stroke="midnightblue" d="M162.939,-270.395C149.349,-234.585 120.034,-157.342 110.252,-131.568"/>
<polygon fill="midnightblue" stroke="midnightblue" points="159.792,-271.968 166.613,-280.075 166.337,-269.484 159.792,-271.968"/>
</g>
<!-- Node8 -->
<g id="node8" class="node"><title>Node8</title>
<g id="a_node8"><a xlink:href="model_8h.xhtml" target="_top" xlink:title="Representation for a model container for risk analysis. ">
<polygon fill="white" stroke="black" points="206,-168.5 206,-187.5 262,-187.5 262,-168.5 206,-168.5"/>
<text text-anchor="middle" x="234" y="-175.5" font-family="Helvetica,sans-Serif" font-size="10.00">model.h</text>
</a>
</g>
</g>
<!-- Node1&#45;&gt;Node8 -->
<g id="edge23" class="edge"><title>Node1&#45;&gt;Node8</title>
<path fill="none" stroke="midnightblue" d="M172.874,-270.409C175.562,-256.84 180.479,-238.382 189,-224 197.673,-209.362 212.196,-196.051 222.392,-187.767"/>
<polygon fill="midnightblue" stroke="midnightblue" points="169.391,-270.006 171.111,-280.461 176.286,-271.216 169.391,-270.006"/>
</g>
<!-- Node11 -->
<g id="node11" class="node"><title>Node11</title>
<g id="a_node11"><a xlink:href="reporter_8cc.xhtml" target="_top" xlink:title="Implements Reporter class. ">
<polygon fill="white" stroke="black" points="49,-0.5 49,-19.5 117,-19.5 117,-0.5 49,-0.5"/>
<text text-anchor="middle" x="83" y="-7.5" font-family="Helvetica,sans-Serif" font-size="10.00">reporter.cc</text>
</a>
</g>
</g>
<!-- Node1&#45;&gt;Node11 -->
<g id="edge27" class="edge"><title>Node1&#45;&gt;Node11</title>
<path fill="none" stroke="midnightblue" d="M122.108,-279.506C71.8304,-266.424 0,-237.498 0,-179 0,-179 0,-179 0,-121 0,-90.9022 1.48323,-80.4753 19,-56 30.6996,-39.6528 50.2621,-27.1668 64.6858,-19.5411"/>
<polygon fill="midnightblue" stroke="midnightblue" points="121.301,-282.912 131.849,-281.915 122.982,-276.117 121.301,-282.912"/>
</g>
<!-- Node16 -->
<g id="node16" class="node"><title>Node16</title>
<g id="a_node16"><a xlink:href="parameter_8cc.xhtml" target="_top" xlink:title="Implementation of expression parameters. ">
<polygon fill="white" stroke="black" points="288,-224.5 288,-243.5 368,-243.5 368,-224.5 288,-224.5"/>
<text text-anchor="middle" x="328" y="-231.5" font-family="Helvetica,sans-Serif" font-size="10.00">parameter.cc</text>
</a>
</g>
</g>
<!-- Node1&#45;&gt;Node16 -->
<g id="edge25" class="edge"><title>Node1&#45;&gt;Node16</title>
<path fill="none" stroke="midnightblue" d="M204.608,-277.172C234.359,-267.004 276.547,-252.585 303.082,-243.516"/>
<polygon fill="midnightblue" stroke="midnightblue" points="203.366,-273.898 195.036,-280.444 205.63,-280.521 203.366,-273.898"/>
</g>
<!-- Node17 -->
<g id="node17" class="node"><title>Node17</title>
<g id="a_node17"><a xlink:href="probability__analysis_8cc.xhtml" target="_top" xlink:title="Implementations of functions to provide probability analysis. ">
<polygon fill="white" stroke="black" points="386.5,-224.5 386.5,-243.5 509.5,-243.5 509.5,-224.5 386.5,-224.5"/>
<text text-anchor="middle" x="448" y="-231.5" font-family="Helvetica,sans-Serif" font-size="10.00">probability_analysis.cc</text>
</a>
</g>
</g>
<!-- Node1&#45;&gt;Node17 -->
<g id="edge26" class="edge"><title>Node1&#45;&gt;Node17</title>
<path fill="none" stroke="midnightblue" d="M218.108,-279.655C270.424,-269.493 353.326,-253.39 403.979,-243.551"/>
<polygon fill="midnightblue" stroke="midnightblue" points="217.221,-276.262 208.072,-281.605 218.556,-283.134 217.221,-276.262"/>
</g>
<!-- Node3 -->
<g id="node3" class="node"><title>Node3</title>
<g id="a_node3"><a xlink:href="initializer_8cc.xhtml" target="_top" xlink:title="Implementation of input file processing into analysis constructs. ">
<polygon fill="white" stroke="black" points="28.5,-56.5 28.5,-75.5 99.5,-75.5 99.5,-56.5 28.5,-56.5"/>
<text text-anchor="middle" x="64" y="-63.5" font-family="Helvetica,sans-Serif" font-size="10.00">initializer.cc</text>
</a>
</g>
</g>
<!-- Node2&#45;&gt;Node3 -->
<g id="edge2" class="edge"><title>Node2&#45;&gt;Node3</title>
<path fill="none" stroke="midnightblue" d="M64,-158.348C64,-134.254 64,-93.3079 64,-75.5914"/>
<polygon fill="midnightblue" stroke="midnightblue" points="60.5001,-158.368 64,-168.368 67.5001,-158.369 60.5001,-158.368"/>
</g>
<!-- Node5 -->
<g id="node5" class="node"><title>Node5</title>
<g id="a_node5"><a xlink:href="fault__tree_8cc.xhtml" target="_top" xlink:title="Implementation of fault tree and component containers. ">
<polygon fill="white" stroke="black" points="417,-168.5 417,-187.5 493,-187.5 493,-168.5 417,-168.5"/>
<text text-anchor="middle" x="455" y="-175.5" font-family="Helvetica,sans-Serif" font-size="10.00">fault_tree.cc</text>
</a>
</g>
</g>
<!-- Node4&#45;&gt;Node5 -->
<g id="edge4" class="edge"><title>Node4&#45;&gt;Node5</title>
<path fill="none" stroke="midnightblue" d="M278.921,-222.024C320.668,-211.823 381.982,-196.841 420.146,-187.516"/>
<polygon fill="midnightblue" stroke="midnightblue" points="277.902,-218.67 269.018,-224.444 279.563,-225.47 277.902,-218.67"/>
</g>
<!-- Node4&#45;&gt;Node6 -->
<g id="edge5" class="edge"><title>Node4&#45;&gt;Node6</title>
<path fill="none" stroke="midnightblue" d="M216.469,-217.816C189.42,-194.387 138.392,-150.19 116.919,-131.591"/>
<polygon fill="midnightblue" stroke="midnightblue" points="214.184,-220.467 224.035,-224.368 218.767,-215.176 214.184,-220.467"/>
</g>
<!-- Node4&#45;&gt;Node8 -->
<g id="edge8" class="edge"><title>Node4&#45;&gt;Node8</title>
<path fill="none" stroke="midnightblue" d="M234,-213.805C234,-204.91 234,-194.78 234,-187.751"/>
<polygon fill="midnightblue" stroke="midnightblue" points="230.5,-214.083 234,-224.083 237.5,-214.083 230.5,-214.083"/>
</g>
<!-- Node13 -->
<g id="node13" class="node"><title>Node13</title>
<g id="a_node13"><a xlink:href="risk__analysis_8cc.xhtml" target="_top" xlink:title="Implementation of risk analysis handler. ">
<polygon fill="white" stroke="black" points="307,-56.5 307,-75.5 397,-75.5 397,-56.5 307,-56.5"/>
<text text-anchor="middle" x="352" y="-63.5" font-family="Helvetica,sans-Serif" font-size="10.00">risk_analysis.cc</text>
</a>
</g>
</g>
<!-- Node4&#45;&gt;Node13 -->
<g id="edge21" class="edge"><title>Node4&#45;&gt;Node13</title>
<path fill="none" stroke="midnightblue" d="M264.956,-220.275C297.884,-204.847 348.17,-175.403 370,-132 379.47,-113.171 366.724,-88.685 358.321,-75.8062"/>
<polygon fill="midnightblue" stroke="midnightblue" points="263.426,-217.125 255.756,-224.433 266.31,-223.503 263.426,-217.125"/>
</g>
<!-- Node15 -->
<g id="node15" class="node"><title>Node15</title>
<g id="a_node15"><a xlink:href="serialization_8cc.xhtml" target="_top" xlink:title="serialization.cc">
<polygon fill="white" stroke="black" points="477.5,-56.5 477.5,-75.5 564.5,-75.5 564.5,-56.5 477.5,-56.5"/>
<text text-anchor="middle" x="521" y="-63.5" font-family="Helvetica,sans-Serif" font-size="10.00">serialization.cc</text>
</a>
</g>
</g>
<!-- Node4&#45;&gt;Node15 -->
<g id="edge22" class="edge"><title>Node4&#45;&gt;Node15</title>
<path fill="none" stroke="midnightblue" d="M279.74,-224.175C342.686,-215.85 468.449,-221.695 502,-188 532.758,-157.11 526.439,-98.1008 522.7,-75.8154"/>
<polygon fill="midnightblue" stroke="midnightblue" points="279.186,-220.719 269.838,-225.707 280.256,-227.637 279.186,-220.719"/>
</g>
<!-- Node6&#45;&gt;Node3 -->
<g id="edge6" class="edge"><title>Node6&#45;&gt;Node3</title>
<path fill="none" stroke="midnightblue" d="M93.5776,-104.144C86.0858,-94.7357 77.0629,-83.4046 70.9685,-75.7511"/>
<polygon fill="midnightblue" stroke="midnightblue" points="90.9321,-106.44 99.8994,-112.083 96.4081,-102.08 90.9321,-106.44"/>
</g>
<!-- Node7 -->
<g id="node7" class="node"><title>Node7</title>
<g id="a_node7"><a xlink:href="scram_8cc.xhtml" target="_top" xlink:title="Main entrance. ">
<polygon fill="white" stroke="black" points="188,-0.5 188,-19.5 248,-19.5 248,-0.5 188,-0.5"/>
<text text-anchor="middle" x="218" y="-7.5" font-family="Helvetica,sans-Serif" font-size="10.00">scram.cc</text>
</a>
</g>
</g>
<!-- Node6&#45;&gt;Node7 -->
<g id="edge7" class="edge"><title>Node6&#45;&gt;Node7</title>
<path fill="none" stroke="midnightblue" d="M115.217,-103.067C122.243,-89.0942 133.369,-69.8123 147,-56 162.479,-40.315 184.399,-27.4772 199.777,-19.5848"/>
<polygon fill="midnightblue" stroke="midnightblue" points="112.029,-101.62 110.848,-112.149 118.337,-104.655 112.029,-101.62"/>
</g>
<!-- Node8&#45;&gt;Node6 -->
<g id="edge9" class="edge"><title>Node8&#45;&gt;Node6</title>
<path fill="none" stroke="midnightblue" d="M204.609,-164.503C180.8,-154.38 147.894,-140.388 127.029,-131.516"/>
<polygon fill="midnightblue" stroke="midnightblue" points="203.304,-167.751 213.876,-168.444 206.043,-161.31 203.304,-167.751"/>
</g>
<!-- Node9 -->
<g id="node9" class="node"><title>Node9</title>
<g id="a_node9"><a xlink:href="model_8cc.xhtml" target="_top" xlink:title="Implementation of functions in Model class. ">
<polygon fill="white" stroke="black" points="301,-112.5 301,-131.5 361,-131.5 361,-112.5 301,-112.5"/>
<text text-anchor="middle" x="331" y="-119.5" font-family="Helvetica,sans-Serif" font-size="10.00">model.cc</text>
</a>
</g>
</g>
<!-- Node8&#45;&gt;Node9 -->
<g id="edge10" class="edge"><title>Node8&#45;&gt;Node9</title>
<path fill="none" stroke="midnightblue" d="M258.335,-163.453C276.243,-153.483 300.054,-140.228 315.454,-131.655"/>
<polygon fill="midnightblue" stroke="midnightblue" points="256.62,-160.402 249.585,-168.324 260.025,-166.518 256.62,-160.402"/>
</g>
<!-- Node10 -->
<g id="node10" class="node"><title>Node10</title>
<g id="a_node10"><a xlink:href="reporter_8h.xhtml" target="_top" xlink:title="Reporter of results. ">
<polygon fill="white" stroke="black" points="156,-56.5 156,-75.5 220,-75.5 220,-56.5 156,-56.5"/>
<text text-anchor="middle" x="188" y="-63.5" font-family="Helvetica,sans-Serif" font-size="10.00">reporter.h</text>
</a>
</g>
</g>
<!-- Node8&#45;&gt;Node10 -->
<g id="edge11" class="edge"><title>Node8&#45;&gt;Node10</title>
<path fill="none" stroke="midnightblue" d="M212.287,-162.066C202.944,-154.308 193.026,-143.947 188,-132 180.124,-113.277 183.323,-88.748 185.917,-75.8343"/>
<polygon fill="midnightblue" stroke="midnightblue" points="210.16,-164.845 220.213,-168.189 214.439,-159.306 210.16,-164.845"/>
</g>
<!-- Node12 -->
<g id="node12" class="node"><title>Node12</title>
<g id="a_node12"><a xlink:href="risk__analysis_8h.xhtml" target="_top" xlink:title="Contains the main system for performing analysis. ">
<polygon fill="white" stroke="black" points="197,-112.5 197,-131.5 283,-131.5 283,-112.5 197,-112.5"/>
<text text-anchor="middle" x="240" y="-119.5" font-family="Helvetica,sans-Serif" font-size="10.00">risk_analysis.h</text>
</a>
</g>
</g>
<!-- Node8&#45;&gt;Node12 -->
<g id="edge14" class="edge"><title>Node8&#45;&gt;Node12</title>
<path fill="none" stroke="midnightblue" d="M236.1,-158.101C237.096,-149.136 238.238,-138.858 239.028,-131.751"/>
<polygon fill="midnightblue" stroke="midnightblue" points="232.617,-157.758 234.991,-168.083 239.574,-158.531 232.617,-157.758"/>
</g>
<!-- Node14 -->
<g id="node14" class="node"><title>Node14</title>
<g id="a_node14"><a xlink:href="serialization_8h.xhtml" target="_top" xlink:title="The MEF Model serialization facilities. ">
<polygon fill="white" stroke="black" points="417.5,-112.5 417.5,-131.5 500.5,-131.5 500.5,-112.5 417.5,-112.5"/>
<text text-anchor="middle" x="459" y="-119.5" font-family="Helvetica,sans-Serif" font-size="10.00">serialization.h</text>
</a>
</g>
</g>
<!-- Node8&#45;&gt;Node14 -->
<g id="edge18" class="edge"><title>Node8&#45;&gt;Node14</title>
<path fill="none" stroke="midnightblue" d="M271.964,-167.889C314.306,-157.726 382.261,-141.417 423.555,-131.507"/>
<polygon fill="midnightblue" stroke="midnightblue" points="270.949,-164.533 262.041,-170.27 272.582,-171.34 270.949,-164.533"/>
</g>
<!-- Node10&#45;&gt;Node7 -->
<g id="edge13" class="edge"><title>Node10&#45;&gt;Node7</title>
<path fill="none" stroke="midnightblue" d="M197.847,-47.2747C202.975,-38.0454 209.016,-27.1703 213.138,-19.7511"/>
<polygon fill="midnightblue" stroke="midnightblue" points="194.751,-45.6416 192.954,-56.083 200.87,-49.0412 194.751,-45.6416"/>
</g>
<!-- Node10&#45;&gt;Node11 -->
<g id="edge12" class="edge"><title>Node10&#45;&gt;Node11</title>
<path fill="none" stroke="midnightblue" d="M162.19,-51.7261C142.747,-41.7271 116.652,-28.3065 99.8282,-19.6545"/>
<polygon fill="midnightblue" stroke="midnightblue" points="160.636,-54.8629 171.13,-56.324 163.838,-48.6379 160.636,-54.8629"/>
</g>
<!-- Node12&#45;&gt;Node7 -->
<g id="edge17" class="edge"><title>Node12&#45;&gt;Node7</title>
<path fill="none" stroke="midnightblue" d="M237.165,-102.067C235.128,-89.0636 232.187,-71.431 229,-56 226.364,-43.2405 222.66,-28.6094 220.294,-19.585"/>
<polygon fill="midnightblue" stroke="midnightblue" points="233.733,-102.776 238.706,-112.131 240.652,-101.716 233.733,-102.776"/>
</g>
<!-- Node12&#45;&gt;Node10 -->
<g id="edge15" class="edge"><title>Node12&#45;&gt;Node10</title>
<path fill="none" stroke="midnightblue" d="M224.321,-104.718C215.155,-95.1997 203.947,-83.5608 196.427,-75.7511"/>
<polygon fill="midnightblue" stroke="midnightblue" points="221.956,-107.308 231.413,-112.083 226.998,-102.452 221.956,-107.308"/>
</g>
<!-- Node12&#45;&gt;Node13 -->
<g id="edge16" class="edge"><title>Node12&#45;&gt;Node13</title>
<path fill="none" stroke="midnightblue" d="M267.249,-107.862C288.016,-97.8492 316.023,-84.3458 334.05,-75.6545"/>
<polygon fill="midnightblue" stroke="midnightblue" points="265.482,-104.828 257.995,-112.324 268.523,-111.134 265.482,-104.828"/>
</g>
<!-- Node14&#45;&gt;Node7 -->
<g id="edge19" class="edge"><title>Node14&#45;&gt;Node7</title>
<path fill="none" stroke="midnightblue" d="M449.25,-103.532C440.027,-88.6375 424.813,-67.8168 406,-56 356.55,-24.9392 287.47,-15.3128 248.289,-12.3327"/>
<polygon fill="midnightblue" stroke="midnightblue" points="446.33,-105.471 454.423,-112.309 452.361,-101.917 446.33,-105.471"/>
</g>
<!-- Node14&#45;&gt;Node15 -->
<g id="edge20" class="edge"><title>Node14&#45;&gt;Node15</title>
<path fill="none" stroke="midnightblue" d="M476.754,-105.537C487.808,-95.9087 501.631,-83.8694 510.857,-75.8339"/>
<polygon fill="midnightblue" stroke="midnightblue" points="474.203,-103.117 468.961,-112.324 478.801,-108.395 474.203,-103.117"/>
</g>
</g>
</svg>
        <g id="navigator" transform="translate(0 0)" fill="#404254">
                <rect fill="#f2f5e9" fill-opacity="0.5" stroke="#606060" stroke-width=".5" x="0" y="0" width="60" height="60"/>
                <use id="zoomplus" xlink:href="#zoomPlus" x="17" y="9" onmousedown="handleZoom(evt,'in')"/>
                <use id="zoomminus" xlink:href="#zoomMin" x="42" y="9" onmousedown="handleZoom(evt,'out')"/>
                <use id="reset" xlink:href="#resetDef" x="30" y="36" onmousedown="handleReset()"/>
                <g id="arrowUp" xlink:href="#dirArrow" transform="translate(30 24)" onmousedown="handlePan(0,-1)">
                  <use xlink:href="#rim" fill="#404040">
                        <set attributeName="fill" to="#808080" begin="arrowUp.mouseover" end="arrowUp.mouseout"/>
                  </use>
                  <path fill="none" stroke="white" stroke-width="1.5" d="M0,-3.0v7 M-2.5,-0.5L0,-3.0L2.5,-0.5"/>
                </g>
                <g id="arrowRight" xlink:href="#dirArrow" transform="rotate(90) translate(36 -43)" onmousedown="handlePan(1,0)">
                  <use xlink:href="#rim" fill="#404040">
                        <set attributeName="fill" to="#808080" begin="arrowRight.mouseover" end="arrowRight.mouseout"/>
                  </use>
                  <path fill="none" stroke="white" stroke-width="1.5" d="M0,-3.0v7 M-2.5,-0.5L0,-3.0L2.5,-0.5"/>
                </g>
                <g id="arrowDown" xlink:href="#dirArrow" transform="rotate(180) translate(-30 -48)" onmousedown="handlePan(0,1)">
                  <use xlink:href="#rim" fill="#404040">
                        <set attributeName="fill" to="#808080" begin="arrowDown.mouseover" end="arrowDown.mouseout"/>
                  </use>
                  <path fill="none" stroke="white" stroke-width="1.5" d="M0,-3.0v7 M-2.5,-0.5L0,-3.0L2.5,-0.5"/>
                </g>
                <g id="arrowLeft" xlink:href="#dirArrow" transform="rotate(270) translate(-36 17)" onmousedown="handlePan(-1,0)">
                  <use xlink:href="#rim" fill="#404040">
                        <set attributeName="fill" to="#808080" begin="arrowLeft.mouseover" end="arrowLeft.mouseout"/>
                  </use>
                  <path fill="none" stroke="white" stroke-width="1.5" d="M0,-3.0v7 M-2.5,-0.5L0,-3.0L2.5,-0.5"/>
                </g>
        </g>
        <svg viewBox="0 0 15 15" width="100%" height="30px" preserveAspectRatio="xMaxYMin meet">
         <g id="arrow_out" transform="scale(0.3 0.3)">
          <a xlink:href="parameter_8h__dep__incl_org.svg" target="_base">
           <rect id="button" ry="5" rx="5" y="6" x="6" height="38" width="38"
                fill="#f2f5e9" fill-opacity="0.5" stroke="#606060" stroke-width="1.0"/>
           <path id="arrow"
             d="M 11.500037,31.436501 C 11.940474,20.09759 22.043105,11.32322 32.158766,21.979434 L 37.068811,17.246167 C 37.068811,17.246167 37.088388,32 37.088388,32 L 22.160133,31.978069 C 22.160133,31.978069 26.997745,27.140456 26.997745,27.140456 C 18.528582,18.264221 13.291696,25.230495 11.500037,31.436501 z"
             style="fill:#404040;"/>
          </a>
         </g>
        </svg>
</svg>
