<?xml version="1.0" encoding="UTF-8" standalone="no"?>
<!DOCTYPE svg PUBLIC "-//W3C//DTD SVG 1.1//EN"
 "http://www.w3.org/Graphics/SVG/1.1/DTD/svg11.dtd">
<!-- Generated by graphviz version 2.38.0 (20140413.2041)
 -->
<!-- Title: scram::core::Clear&lt; Pdag::kCount &gt; Pages: 1 -->
<svg width="298pt" height="52pt"
 viewBox="0.00 0.00 298.00 51.50" xmlns="http://www.w3.org/2000/svg" xmlns:xlink="http://www.w3.org/1999/xlink">
<g id="graph0" class="graph" transform="scale(1 1) rotate(0) translate(4 47.5)">
<title>scram::core::Clear&lt; Pdag::kCount &gt;</title>
<polygon fill="white" stroke="none" points="-4,4 -4,-47.5 294,-47.5 294,4 -4,4"/>
<!-- Node1 -->
<g id="node1" class="node"><title>Node1</title>
<polygon fill="#bfbfbf" stroke="black" points="0,-0.5 0,-30.5 104,-30.5 104,-0.5 0,-0.5"/>
<text text-anchor="start" x="8" y="-18.5" font-family="Helvetica,sans-Serif" font-size="10.00">scram::core::Clear</text>
<text text-anchor="middle" x="52" y="-7.5" font-family="Helvetica,sans-Serif" font-size="10.00">&lt; Pdag::kCount &gt;</text>
</g>
<!-- Node2 -->
<g id="node2" class="node"><title>Node2</title>
<g id="a_node2"><a xlink:href="pdag_8h.xhtml#a48743e35654aca714f994998f2979d58" target="_top" xlink:title="Traverses and visits gates and nodes in the graph. ">
<polygon fill="white" stroke="black" points="140,-6 140,-25 290,-25 290,-6 140,-6"/>
<text text-anchor="middle" x="215" y="-13" font-family="Helvetica,sans-Serif" font-size="10.00">scram::core::TraverseNodes</text>
</a>
</g>
</g>
<!-- Node1&#45;&gt;Node2 -->
<g id="edge1" class="edge"><title>Node1&#45;&gt;Node2</title>
<path fill="none" stroke="midnightblue" d="M104.384,-15.5C112.52,-15.5 121.114,-15.5 129.766,-15.5"/>
<polygon fill="midnightblue" stroke="midnightblue" points="129.925,-19.0001 139.925,-15.5 129.925,-12.0001 129.925,-19.0001"/>
</g>
<!-- Node2&#45;&gt;Node2 -->
<g id="edge2" class="edge"><title>Node2&#45;&gt;Node2</title>
<path fill="none" stroke="midnightblue" d="M190.031,-25.2571C177.884,-34.0653 186.207,-43.5 215,-43.5 234.345,-43.5 244.45,-39.241 245.314,-33.7746"/>
<polygon fill="midnightblue" stroke="midnightblue" points="248.249,-31.8667 239.969,-25.2571 242.32,-35.5877 248.249,-31.8667"/>
</g>
</g>
</svg>
