<?xml version="1.0" encoding="UTF-8" standalone="no"?>
<!DOCTYPE svg PUBLIC "-//W3C//DTD SVG 1.1//EN"
 "http://www.w3.org/Graphics/SVG/1.1/DTD/svg11.dtd">
<!-- Generated by graphviz version 2.38.0 (20140413.2041)
 -->
<!-- Title: pdag.cc Pages: 1 -->
<!--zoomable 285 -->
<svg id="main" version="1.1" xmlns="http://www.w3.org/2000/svg" xmlns:xlink="http://www.w3.org/1999/xlink" xml:space="preserve" onload="init(evt)">
<style type="text/css"><![CDATA[
.edge:hover path { stroke: red; }
.edge:hover polygon { stroke: red; fill: red; }
]]></style>
<script type="text/javascript"><![CDATA[
var edges = document.getElementsByTagName('g');
if (edges && edges.length) {
  for (var i=0;i<edges.length;i++) {
    if (edges[i].id.substr(0,4)=='edge') {
      edges[i].setAttribute('class','edge');
    }
  }
}
]]></script>
        <defs>
                <circle id="rim" cx="0" cy="0" r="7"/>
                <circle id="rim2" cx="0" cy="0" r="3.5"/>
                <g id="zoomPlus">
                        <use xlink:href="#rim" fill="#404040">
                                <set attributeName="fill" to="#808080" begin="zoomplus.mouseover" end="zoomplus.mouseout"/>
                        </use>
                        <path d="M-4,0h8M0,-4v8" fill="none" stroke="white" stroke-width="1.5" pointer-events="none"/>
                </g>
                <g id="zoomMin">
                        <use xlink:href="#rim" fill="#404040">
                                <set attributeName="fill" to="#808080" begin="zoomminus.mouseover" end="zoomminus.mouseout"/>
                        </use>
                        <path d="M-4,0h8" fill="none" stroke="white" stroke-width="1.5" pointer-events="none"/>
                </g>
                <g id="dirArrow">
                        <path fill="none" stroke="white" stroke-width="1.5" d="M0,-3.0v7 M-2.5,-0.5L0,-3.0L2.5,-0.5"/>
                </g>
               <g id="resetDef">
                       <use xlink:href="#rim2" fill="#404040">
                               <set attributeName="fill" to="#808080" begin="reset.mouseover" end="reset.mouseout"/>
                       </use>
               </g>
        </defs>

<script type="text/javascript">
var viewWidth = 2065;
var viewHeight = 285;
var sectionId = 'dynsection-0';
</script>
<script xlink:href="svgpan.js"/>
<svg id="graph" class="graph">
<g id="viewport">
<title>pdag.cc</title>
<polygon fill="white" stroke="none" points="-4,4 -4,-281 2060.74,-281 2060.74,4 -4,4"/>
<!-- Node1 -->
<g id="node1" class="node"><title>Node1</title>
<polygon fill="#bfbfbf" stroke="black" points="1427.5,-257.5 1427.5,-276.5 1481.5,-276.5 1481.5,-257.5 1427.5,-257.5"/>
<text text-anchor="middle" x="1454.5" y="-264.5" font-family="Helvetica,sans-Serif" font-size="10.00">pdag.cc</text>
</g>
<!-- Node2 -->
<g id="node2" class="node"><title>Node2</title>
<g id="a_node2"><a xlink:href="pdag_8h.xhtml" target="_top" xlink:title="Classes and facilities to represent fault trees as PDAGs with event and gate indices instead of ID na...">
<polygon fill="white" stroke="black" points="696.5,-134.5 696.5,-153.5 746.5,-153.5 746.5,-134.5 696.5,-134.5"/>
<text text-anchor="middle" x="721.5" y="-141.5" font-family="Helvetica,sans-Serif" font-size="10.00">pdag.h</text>
</a>
</g>
</g>
<!-- Node1&#45;&gt;Node2 -->
<g id="edge1" class="edge"><title>Node1&#45;&gt;Node2</title>
<path fill="none" stroke="midnightblue" d="M1427.1,-261.477C1313.98,-242.803 883.246,-171.7 756.675,-150.807"/>
<polygon fill="midnightblue" stroke="midnightblue" points="757.172,-147.341 746.735,-149.166 756.032,-154.248 757.172,-147.341"/>
</g>
<!-- Node20 -->
<g id="node20" class="node"><title>Node20</title>
<polygon fill="white" stroke="#bfbfbf" points="1205,-196 1205,-215 1264,-215 1264,-196 1205,-196"/>
<text text-anchor="middle" x="1234.5" y="-203" font-family="Helvetica,sans-Serif" font-size="10.00">iostream</text>
</g>
<!-- Node1&#45;&gt;Node20 -->
<g id="edge24" class="edge"><title>Node1&#45;&gt;Node20</title>
<path fill="none" stroke="midnightblue" d="M1427.39,-260.382C1391.58,-252.715 1326.7,-237.972 1272.5,-221 1270.08,-220.243 1267.6,-219.413 1265.11,-218.546"/>
<polygon fill="midnightblue" stroke="midnightblue" points="1266.24,-215.233 1255.64,-215.092 1263.84,-221.808 1266.24,-215.233"/>
</g>
<!-- Node21 -->
<g id="node21" class="node"><title>Node21</title>
<polygon fill="white" stroke="#bfbfbf" points="1802.5,-6 1802.5,-25 1846.5,-25 1846.5,-6 1802.5,-6"/>
<text text-anchor="middle" x="1824.5" y="-13" font-family="Helvetica,sans-Serif" font-size="10.00">string</text>
</g>
<!-- Node1&#45;&gt;Node21 -->
<g id="edge25" class="edge"><title>Node1&#45;&gt;Node21</title>
<path fill="none" stroke="midnightblue" d="M1481.66,-264.657C1560.79,-259.813 1796.43,-238.721 1968.5,-154 2008.09,-134.505 2029.89,-137.026 2050.5,-98 2089.59,-23.9758 1928.48,-15.9266 1857.06,-15.9034"/>
<polygon fill="midnightblue" stroke="midnightblue" points="1856.79,-12.4046 1846.8,-15.9554 1856.82,-19.4045 1856.79,-12.4046"/>
</g>
<!-- Node22 -->
<g id="node22" class="node"><title>Node22</title>
<polygon fill="white" stroke="#bfbfbf" points="1353.5,-196 1353.5,-215 1439.5,-215 1439.5,-196 1353.5,-196"/>
<text text-anchor="middle" x="1396.5" y="-203" font-family="Helvetica,sans-Serif" font-size="10.00">unordered_set</text>
</g>
<!-- Node1&#45;&gt;Node22 -->
<g id="edge26" class="edge"><title>Node1&#45;&gt;Node22</title>
<path fill="none" stroke="midnightblue" d="M1446.19,-257.475C1437.32,-248.373 1423.05,-233.741 1412.08,-222.483"/>
<polygon fill="midnightblue" stroke="midnightblue" points="1414.28,-219.727 1404.79,-215.009 1409.27,-224.613 1414.28,-219.727"/>
</g>
<!-- Node23 -->
<g id="node23" class="node"><title>Node23</title>
<polygon fill="white" stroke="#bfbfbf" points="1458,-190.5 1458,-220.5 1567,-220.5 1567,-190.5 1458,-190.5"/>
<text text-anchor="start" x="1466" y="-208.5" font-family="Helvetica,sans-Serif" font-size="10.00">boost/math/special</text>
<text text-anchor="middle" x="1512.5" y="-197.5" font-family="Helvetica,sans-Serif" font-size="10.00">_functions/sign.hpp</text>
</g>
<!-- Node1&#45;&gt;Node23 -->
<g id="edge27" class="edge"><title>Node1&#45;&gt;Node23</title>
<path fill="none" stroke="midnightblue" d="M1462.81,-257.475C1470.3,-249.793 1481.63,-238.172 1491.58,-227.964"/>
<polygon fill="midnightblue" stroke="midnightblue" points="1494.36,-230.127 1498.83,-220.523 1489.34,-225.241 1494.36,-230.127"/>
</g>
<!-- Node24 -->
<g id="node24" class="node"><title>Node24</title>
<polygon fill="white" stroke="#bfbfbf" points="1585.5,-196 1585.5,-215 1729.5,-215 1729.5,-196 1585.5,-196"/>
<text text-anchor="middle" x="1657.5" y="-203" font-family="Helvetica,sans-Serif" font-size="10.00">boost/range/algorithm.hpp</text>
</g>
<!-- Node1&#45;&gt;Node24 -->
<g id="edge28" class="edge"><title>Node1&#45;&gt;Node24</title>
<path fill="none" stroke="midnightblue" d="M1481.88,-257.976C1517.1,-247.653 1578.49,-229.657 1618.56,-217.913"/>
<polygon fill="midnightblue" stroke="midnightblue" points="1619.65,-221.241 1628.26,-215.07 1617.68,-214.524 1619.65,-221.241"/>
</g>
<!-- Node25 -->
<g id="node25" class="node"><title>Node25</title>
<g id="a_node25"><a xlink:href="event_8h.xhtml" target="_top" xlink:title="Contains event classes for fault trees. ">
<polygon fill="white" stroke="black" points="1282,-196 1282,-215 1335,-215 1335,-196 1282,-196"/>
<text text-anchor="middle" x="1308.5" y="-203" font-family="Helvetica,sans-Serif" font-size="10.00">event.h</text>
</a>
</g>
</g>
<!-- Node1&#45;&gt;Node25 -->
<g id="edge29" class="edge"><title>Node1&#45;&gt;Node25</title>
<path fill="none" stroke="midnightblue" d="M1433.58,-257.475C1408.75,-247.357 1367.16,-230.405 1338.81,-218.851"/>
<polygon fill="midnightblue" stroke="midnightblue" points="1339.96,-215.542 1329.38,-215.009 1337.32,-222.024 1339.96,-215.542"/>
</g>
<!-- Node36 -->
<g id="node36" class="node"><title>Node36</title>
<g id="a_node36"><a xlink:href="logger_8h.xhtml" target="_top" xlink:title="Logging capability for various purposes, such as warnings and debugging. ">
<polygon fill="white" stroke="black" points="1746,-134.5 1746,-153.5 1801,-153.5 1801,-134.5 1746,-134.5"/>
<text text-anchor="middle" x="1773.5" y="-141.5" font-family="Helvetica,sans-Serif" font-size="10.00">logger.h</text>
</a>
</g>
</g>
<!-- Node1&#45;&gt;Node36 -->
<g id="edge55" class="edge"><title>Node1&#45;&gt;Node36</title>
<path fill="none" stroke="midnightblue" d="M1481.71,-264.901C1544.72,-261.86 1698.31,-251.44 1738.5,-221 1756.83,-207.121 1765.87,-181.36 1770.1,-163.71"/>
<polygon fill="midnightblue" stroke="midnightblue" points="1773.57,-164.223 1772.2,-153.718 1766.72,-162.786 1773.57,-164.223"/>
</g>
<!-- Node3 -->
<g id="node3" class="node"><title>Node3</title>
<polygon fill="white" stroke="#bfbfbf" points="1130,-6 1130,-25 1179,-25 1179,-6 1130,-6"/>
<text text-anchor="middle" x="1154.5" y="-13" font-family="Helvetica,sans-Serif" font-size="10.00">cstdint</text>
</g>
<!-- Node2&#45;&gt;Node3 -->
<g id="edge2" class="edge"><title>Node2&#45;&gt;Node3</title>
<path fill="none" stroke="midnightblue" d="M746.505,-141.728C790.075,-138.741 881.993,-128.99 952.5,-98 973.74,-88.6645 973.823,-77.5235 994.5,-67 1035.38,-46.1961 1086.5,-31.8791 1119.8,-23.9396"/>
<polygon fill="midnightblue" stroke="midnightblue" points="1121,-27.2545 1129.95,-21.5858 1119.42,-20.4354 1121,-27.2545"/>
</g>
<!-- Node4 -->
<g id="node4" class="node"><title>Node4</title>
<polygon fill="white" stroke="#bfbfbf" points="646,-73 646,-92 693,-92 693,-73 646,-73"/>
<text text-anchor="middle" x="669.5" y="-80" font-family="Helvetica,sans-Serif" font-size="10.00">cstdlib</text>
</g>
<!-- Node2&#45;&gt;Node4 -->
<g id="edge3" class="edge"><title>Node2&#45;&gt;Node4</title>
<path fill="none" stroke="midnightblue" d="M714.05,-134.475C706.172,-125.462 693.555,-111.025 683.756,-99.8118"/>
<polygon fill="midnightblue" stroke="midnightblue" points="686.153,-97.2356 676.937,-92.0091 680.882,-101.842 686.153,-97.2356"/>
</g>
<!-- Node5 -->
<g id="node5" class="node"><title>Node5</title>
<polygon fill="white" stroke="#bfbfbf" points="690.5,-6 690.5,-25 752.5,-25 752.5,-6 690.5,-6"/>
<text text-anchor="middle" x="721.5" y="-13" font-family="Helvetica,sans-Serif" font-size="10.00">algorithm</text>
</g>
<!-- Node2&#45;&gt;Node5 -->
<g id="edge4" class="edge"><title>Node2&#45;&gt;Node5</title>
<path fill="none" stroke="midnightblue" d="M721.5,-134.305C721.5,-113.994 721.5,-63.0532 721.5,-35.2768"/>
<polygon fill="midnightblue" stroke="midnightblue" points="725,-35.2557 721.5,-25.2557 718,-35.2557 725,-35.2557"/>
</g>
<!-- Node6 -->
<g id="node6" class="node"><title>Node6</title>
<polygon fill="white" stroke="#bfbfbf" points="749.5,-73 749.5,-92 795.5,-92 795.5,-73 749.5,-73"/>
<text text-anchor="middle" x="772.5" y="-80" font-family="Helvetica,sans-Serif" font-size="10.00">iosfwd</text>
</g>
<!-- Node2&#45;&gt;Node6 -->
<g id="edge5" class="edge"><title>Node2&#45;&gt;Node6</title>
<path fill="none" stroke="midnightblue" d="M728.807,-134.475C736.533,-125.462 748.908,-111.025 758.518,-99.8118"/>
<polygon fill="midnightblue" stroke="midnightblue" points="761.356,-101.879 765.206,-92.0091 756.041,-97.3239 761.356,-101.879"/>
</g>
<!-- Node7 -->
<g id="node7" class="node"><title>Node7</title>
<polygon fill="white" stroke="#bfbfbf" points="1004,-73 1004,-92 1061,-92 1061,-73 1004,-73"/>
<text text-anchor="middle" x="1032.5" y="-80" font-family="Helvetica,sans-Serif" font-size="10.00">memory</text>
</g>
<!-- Node2&#45;&gt;Node7 -->
<g id="edge6" class="edge"><title>Node2&#45;&gt;Node7</title>
<path fill="none" stroke="midnightblue" d="M746.528,-140.146C794.263,-134.408 901.41,-120.099 989.5,-98 992.889,-97.1499 996.393,-96.1593 999.872,-95.1023"/>
<polygon fill="midnightblue" stroke="midnightblue" points="1001.04,-98.4024 1009.49,-92.0093 998.9,-91.7384 1001.04,-98.4024"/>
</g>
<!-- Node8 -->
<g id="node8" class="node"><title>Node8</title>
<polygon fill="white" stroke="#bfbfbf" points="0,-73 0,-92 93,-92 93,-73 0,-73"/>
<text text-anchor="middle" x="46.5" y="-80" font-family="Helvetica,sans-Serif" font-size="10.00">unordered_map</text>
</g>
<!-- Node2&#45;&gt;Node8 -->
<g id="edge7" class="edge"><title>Node2&#45;&gt;Node8</title>
<path fill="none" stroke="midnightblue" d="M696.249,-142.796C611.67,-141.765 330.825,-135.542 102.5,-98 96.9257,-97.0835 91.0975,-95.8696 85.3959,-94.5334"/>
<polygon fill="midnightblue" stroke="midnightblue" points="85.9014,-91.0525 75.3521,-92.0338 84.2109,-97.8453 85.9014,-91.0525"/>
</g>
<!-- Node9 -->
<g id="node9" class="node"><title>Node9</title>
<polygon fill="white" stroke="#bfbfbf" points="516.5,-6 516.5,-25 558.5,-25 558.5,-6 516.5,-6"/>
<text text-anchor="middle" x="537.5" y="-13" font-family="Helvetica,sans-Serif" font-size="10.00">utility</text>
</g>
<!-- Node2&#45;&gt;Node9 -->
<g id="edge8" class="edge"><title>Node2&#45;&gt;Node9</title>
<path fill="none" stroke="midnightblue" d="M696.425,-141.279C646.967,-137.306 539.705,-125.637 517.5,-98 502.717,-79.601 514.653,-51.8514 525.411,-33.9535"/>
<polygon fill="midnightblue" stroke="midnightblue" points="528.613,-35.4469 531.09,-25.1457 522.73,-31.6538 528.613,-35.4469"/>
</g>
<!-- Node10 -->
<g id="node10" class="node"><title>Node10</title>
<polygon fill="white" stroke="#bfbfbf" points="976,-6 976,-25 1023,-25 1023,-6 976,-6"/>
<text text-anchor="middle" x="999.5" y="-13" font-family="Helvetica,sans-Serif" font-size="10.00">vector</text>
</g>
<!-- Node2&#45;&gt;Node10 -->
<g id="edge9" class="edge"><title>Node2&#45;&gt;Node10</title>
<path fill="none" stroke="midnightblue" d="M746.726,-141.707C785.816,-138.758 862.361,-129.146 918.5,-98 947.582,-81.865 973.139,-52.1799 987.428,-33.4367"/>
<polygon fill="midnightblue" stroke="midnightblue" points="990.371,-35.3431 993.503,-25.2218 984.743,-31.1808 990.371,-35.3431"/>
</g>
<!-- Node11 -->
<g id="node11" class="node"><title>Node11</title>
<polygon fill="white" stroke="#bfbfbf" points="111.5,-67.5 111.5,-97.5 221.5,-97.5 221.5,-67.5 111.5,-67.5"/>
<text text-anchor="start" x="119.5" y="-85.5" font-family="Helvetica,sans-Serif" font-size="10.00">boost/container/flat</text>
<text text-anchor="middle" x="166.5" y="-74.5" font-family="Helvetica,sans-Serif" font-size="10.00">_set.hpp</text>
</g>
<!-- Node2&#45;&gt;Node11 -->
<g id="edge10" class="edge"><title>Node2&#45;&gt;Node11</title>
<path fill="none" stroke="midnightblue" d="M696.318,-141.862C624.987,-138.393 415.384,-126.498 231.681,-98.0467"/>
<polygon fill="midnightblue" stroke="midnightblue" points="231.991,-94.5525 221.569,-96.4595 230.905,-101.468 231.991,-94.5525"/>
</g>
<!-- Node12 -->
<g id="node12" class="node"><title>Node12</title>
<polygon fill="white" stroke="#bfbfbf" points="1155.5,-73 1155.5,-92 1283.5,-92 1283.5,-73 1155.5,-73"/>
<text text-anchor="middle" x="1219.5" y="-80" font-family="Helvetica,sans-Serif" font-size="10.00">boost/noncopyable.hpp</text>
</g>
<!-- Node2&#45;&gt;Node12 -->
<g id="edge11" class="edge"><title>Node2&#45;&gt;Node12</title>
<path fill="none" stroke="midnightblue" d="M746.537,-140.009C819.1,-131.339 1031.58,-105.952 1145.44,-92.349"/>
<polygon fill="midnightblue" stroke="midnightblue" points="1145.96,-95.812 1155.47,-91.1503 1145.12,-88.8614 1145.96,-95.812"/>
</g>
<!-- Node13 -->
<g id="node13" class="node"><title>Node13</title>
<polygon fill="white" stroke="#bfbfbf" points="355,-67.5 355,-97.5 470,-97.5 470,-67.5 355,-67.5"/>
<text text-anchor="start" x="363" y="-85.5" font-family="Helvetica,sans-Serif" font-size="10.00">boost/range/adaptor</text>
<text text-anchor="middle" x="412.5" y="-74.5" font-family="Helvetica,sans-Serif" font-size="10.00">/transformed.hpp</text>
</g>
<!-- Node2&#45;&gt;Node13 -->
<g id="edge12" class="edge"><title>Node2&#45;&gt;Node13</title>
<path fill="none" stroke="midnightblue" d="M696.228,-138.297C652.879,-130.208 561.566,-113.076 484.5,-98 483.053,-97.7169 481.59,-97.4299 480.115,-97.1398"/>
<polygon fill="midnightblue" stroke="midnightblue" points="480.746,-93.6969 470.257,-95.1903 479.388,-100.564 480.746,-93.6969"/>
</g>
<!-- Node14 -->
<g id="node14" class="node"><title>Node14</title>
<g id="a_node14"><a xlink:href="find__iterator_8h.xhtml" target="_top" xlink:title="Convenience iterator adaptor to wrap find calls and results. ">
<polygon fill="white" stroke="black" points="527,-73 527,-92 628,-92 628,-73 527,-73"/>
<text text-anchor="middle" x="577.5" y="-80" font-family="Helvetica,sans-Serif" font-size="10.00">ext/find_iterator.h</text>
</a>
</g>
</g>
<!-- Node2&#45;&gt;Node14 -->
<g id="edge13" class="edge"><title>Node2&#45;&gt;Node14</title>
<path fill="none" stroke="midnightblue" d="M700.868,-134.475C676.381,-124.357 635.353,-107.405 607.391,-95.8507"/>
<polygon fill="midnightblue" stroke="midnightblue" points="608.672,-92.5932 598.093,-92.0091 605.999,-99.0627 608.672,-92.5932"/>
</g>
<!-- Node15 -->
<g id="node15" class="node"><title>Node15</title>
<g id="a_node15"><a xlink:href="index__map_8h.xhtml" target="_top" xlink:title="Non&#45;zero based Index&#45;&gt;Value map adapter on sequential containers. ">
<polygon fill="white" stroke="black" points="813.5,-73 813.5,-92 909.5,-92 909.5,-73 813.5,-73"/>
<text text-anchor="middle" x="861.5" y="-80" font-family="Helvetica,sans-Serif" font-size="10.00">ext/index_map.h</text>
</a>
</g>
</g>
<!-- Node2&#45;&gt;Node15 -->
<g id="edge15" class="edge"><title>Node2&#45;&gt;Node15</title>
<path fill="none" stroke="midnightblue" d="M741.559,-134.475C765.262,-124.401 804.906,-107.553 832.083,-96.0023"/>
<polygon fill="midnightblue" stroke="midnightblue" points="833.644,-99.1417 841.479,-92.0091 830.906,-92.6994 833.644,-99.1417"/>
</g>
<!-- Node16 -->
<g id="node16" class="node"><title>Node16</title>
<g id="a_node16"><a xlink:href="linear__map_8h.xhtml" target="_top" xlink:title="Implementation of a vector&#45;based map for a small number of entries. ">
<polygon fill="white" stroke="black" points="240,-73 240,-92 337,-92 337,-73 240,-73"/>
<text text-anchor="middle" x="288.5" y="-80" font-family="Helvetica,sans-Serif" font-size="10.00">ext/linear_map.h</text>
</a>
</g>
</g>
<!-- Node2&#45;&gt;Node16 -->
<g id="edge17" class="edge"><title>Node2&#45;&gt;Node16</title>
<path fill="none" stroke="midnightblue" d="M696.247,-141.119C635.469,-136.344 476.381,-122.372 345.5,-98 340.104,-96.9952 334.462,-95.7732 328.914,-94.4694"/>
<polygon fill="midnightblue" stroke="midnightblue" points="329.649,-91.046 319.103,-92.0635 327.982,-97.8446 329.649,-91.046"/>
</g>
<!-- Node14&#45;&gt;Node9 -->
<g id="edge14" class="edge"><title>Node14&#45;&gt;Node9</title>
<path fill="none" stroke="midnightblue" d="M572.105,-72.7338C565.988,-62.7928 555.862,-46.3377 548.14,-33.7892"/>
<polygon fill="midnightblue" stroke="midnightblue" points="551.031,-31.8095 542.809,-25.1273 545.069,-35.4783 551.031,-31.8095"/>
</g>
<!-- Node15&#45;&gt;Node10 -->
<g id="edge16" class="edge"><title>Node15&#45;&gt;Node10</title>
<path fill="none" stroke="midnightblue" d="M879.825,-72.8685C903.436,-61.7476 944.689,-42.3167 972.052,-29.4286"/>
<polygon fill="midnightblue" stroke="midnightblue" points="973.544,-32.5947 981.099,-25.1672 970.561,-26.262 973.544,-32.5947"/>
</g>
<!-- Node16&#45;&gt;Node5 -->
<g id="edge19" class="edge"><title>Node16&#45;&gt;Node5</title>
<path fill="none" stroke="midnightblue" d="M319.415,-72.9431C327.833,-70.8033 336.979,-68.6503 345.5,-67 466.05,-43.6526 610.427,-27.5283 679.996,-20.4888"/>
<polygon fill="midnightblue" stroke="midnightblue" points="680.503,-23.9556 690.105,-19.4768 679.806,-16.9904 680.503,-23.9556"/>
</g>
<!-- Node16&#45;&gt;Node9 -->
<g id="edge23" class="edge"><title>Node16&#45;&gt;Node9</title>
<path fill="none" stroke="midnightblue" d="M321.308,-72.9355C369.559,-60.3401 459.038,-36.9821 506.333,-24.636"/>
<polygon fill="midnightblue" stroke="midnightblue" points="507.512,-27.9456 516.304,-22.0332 505.744,-21.1726 507.512,-27.9456"/>
</g>
<!-- Node16&#45;&gt;Node10 -->
<g id="edge22" class="edge"><title>Node16&#45;&gt;Node10</title>
<path fill="none" stroke="midnightblue" d="M317.88,-72.9985C326.695,-70.7272 336.432,-68.4921 345.5,-67 406.917,-56.8941 840.422,-27.2176 965.683,-18.7684"/>
<polygon fill="midnightblue" stroke="midnightblue" points="966.091,-22.2489 975.833,-18.0847 965.62,-15.2647 966.091,-22.2489"/>
</g>
<!-- Node17 -->
<g id="node17" class="node"><title>Node17</title>
<polygon fill="white" stroke="#bfbfbf" points="338.5,-6 338.5,-25 390.5,-25 390.5,-6 338.5,-6"/>
<text text-anchor="middle" x="364.5" y="-13" font-family="Helvetica,sans-Serif" font-size="10.00">cassert</text>
</g>
<!-- Node16&#45;&gt;Node17 -->
<g id="edge18" class="edge"><title>Node16&#45;&gt;Node17</title>
<path fill="none" stroke="midnightblue" d="M298.75,-72.7338C310.943,-62.3055 331.517,-44.7088 346.408,-31.9732"/>
<polygon fill="midnightblue" stroke="midnightblue" points="349.088,-34.2869 354.413,-25.1273 344.538,-28.9671 349.088,-34.2869"/>
</g>
<!-- Node18 -->
<g id="node18" class="node"><title>Node18</title>
<polygon fill="white" stroke="#bfbfbf" points="161,-6 161,-25 238,-25 238,-6 161,-6"/>
<text text-anchor="middle" x="199.5" y="-13" font-family="Helvetica,sans-Serif" font-size="10.00">initializer_list</text>
</g>
<!-- Node16&#45;&gt;Node18 -->
<g id="edge20" class="edge"><title>Node16&#45;&gt;Node18</title>
<path fill="none" stroke="midnightblue" d="M276.497,-72.7338C261.951,-62.1106 237.22,-44.0485 219.716,-31.2642"/>
<polygon fill="midnightblue" stroke="midnightblue" points="221.453,-28.1988 211.313,-25.1273 217.324,-33.8517 221.453,-28.1988"/>
</g>
<!-- Node19 -->
<g id="node19" class="node"><title>Node19</title>
<polygon fill="white" stroke="#bfbfbf" points="256.5,-6 256.5,-25 320.5,-25 320.5,-6 256.5,-6"/>
<text text-anchor="middle" x="288.5" y="-13" font-family="Helvetica,sans-Serif" font-size="10.00">stdexcept</text>
</g>
<!-- Node16&#45;&gt;Node19 -->
<g id="edge21" class="edge"><title>Node16&#45;&gt;Node19</title>
<path fill="none" stroke="midnightblue" d="M288.5,-72.7338C288.5,-63.1826 288.5,-47.6183 288.5,-35.2829"/>
<polygon fill="midnightblue" stroke="midnightblue" points="292,-35.1273 288.5,-25.1273 285,-35.1273 292,-35.1273"/>
</g>
<!-- Node25&#45;&gt;Node3 -->
<g id="edge30" class="edge"><title>Node25&#45;&gt;Node3</title>
<path fill="none" stroke="midnightblue" d="M1291.5,-195.988C1253.27,-176.447 1162.56,-127.773 1146.5,-98 1135.88,-78.311 1141.34,-52.037 1147.12,-34.7104"/>
<polygon fill="midnightblue" stroke="midnightblue" points="1150.44,-35.8106 1150.62,-25.2172 1143.88,-33.3879 1150.44,-35.8106"/>
</g>
<!-- Node25&#45;&gt;Node7 -->
<g id="edge31" class="edge"><title>Node25&#45;&gt;Node7</title>
<path fill="none" stroke="midnightblue" d="M1289.32,-195.942C1283.96,-193.777 1278.07,-191.612 1272.5,-190 1187.01,-165.247 1148.86,-204.398 1075.5,-154 1057.08,-141.348 1045.15,-117.969 1038.64,-101.615"/>
<polygon fill="midnightblue" stroke="midnightblue" points="1041.86,-100.243 1035.12,-92.0661 1035.29,-102.66 1041.86,-100.243"/>
</g>
<!-- Node25&#45;&gt;Node10 -->
<g id="edge33" class="edge"><title>Node25&#45;&gt;Node10</title>
<path fill="none" stroke="midnightblue" d="M1287.4,-195.989C1252.64,-181.952 1186.87,-155.35 1184.5,-154 1128.79,-122.311 1121.05,-105.084 1069.5,-67 1052.99,-54.8012 1034.1,-41.1971 1020.11,-31.1848"/>
<polygon fill="midnightblue" stroke="midnightblue" points="1021.87,-28.14 1011.7,-25.175 1017.8,-33.8359 1021.87,-28.14"/>
</g>
<!-- Node25&#45;&gt;Node12 -->
<g id="edge34" class="edge"><title>Node25&#45;&gt;Node12</title>
<path fill="none" stroke="midnightblue" d="M1294.94,-195.944C1281.57,-186.922 1261.35,-171.593 1248.5,-154 1236.94,-138.174 1229.05,-117.072 1224.46,-102.09"/>
<polygon fill="midnightblue" stroke="midnightblue" points="1227.81,-101.073 1221.68,-92.4261 1221.08,-103.004 1227.81,-101.073"/>
</g>
<!-- Node25&#45;&gt;Node21 -->
<g id="edge32" class="edge"><title>Node25&#45;&gt;Node21</title>
<path fill="none" stroke="midnightblue" d="M1326.83,-195.86C1332.39,-193.585 1338.6,-191.382 1344.5,-190 1494.69,-154.835 1937.7,-219.681 2032.5,-98 2080.13,-36.8676 1926.69,-21.5146 1857.05,-17.7201"/>
<polygon fill="midnightblue" stroke="midnightblue" points="1856.79,-14.2033 1846.63,-17.2051 1856.45,-21.1948 1856.79,-14.2033"/>
</g>
<!-- Node26 -->
<g id="node26" class="node"><title>Node26</title>
<polygon fill="white" stroke="#bfbfbf" points="1258,-134.5 1258,-153.5 1359,-153.5 1359,-134.5 1258,-134.5"/>
<text text-anchor="middle" x="1308.5" y="-141.5" font-family="Helvetica,sans-Serif" font-size="10.00">boost/variant.hpp</text>
</g>
<!-- Node25&#45;&gt;Node26 -->
<g id="edge35" class="edge"><title>Node25&#45;&gt;Node26</title>
<path fill="none" stroke="midnightblue" d="M1308.5,-195.975C1308.5,-187.58 1308.5,-174.481 1308.5,-163.663"/>
<polygon fill="midnightblue" stroke="midnightblue" points="1312,-163.509 1308.5,-153.509 1305,-163.509 1312,-163.509"/>
</g>
<!-- Node27 -->
<g id="node27" class="node"><title>Node27</title>
<g id="a_node27"><a xlink:href="element_8h.xhtml" target="_top" xlink:title="Helper classes, structs, and properties common to all other classes. ">
<polygon fill="white" stroke="black" points="1584,-73 1584,-92 1649,-92 1649,-73 1584,-73"/>
<text text-anchor="middle" x="1616.5" y="-80" font-family="Helvetica,sans-Serif" font-size="10.00">element.h</text>
</a>
</g>
</g>
<!-- Node25&#45;&gt;Node27 -->
<g id="edge36" class="edge"><title>Node25&#45;&gt;Node27</title>
<path fill="none" stroke="midnightblue" d="M1328.54,-195.996C1333.7,-193.926 1339.27,-191.794 1344.5,-190 1399.59,-171.094 1416.08,-174.739 1470.5,-154 1514.69,-137.161 1563.76,-112.059 1592.27,-96.7931"/>
<polygon fill="midnightblue" stroke="midnightblue" points="1593.98,-99.8491 1601.12,-92.0191 1590.66,-93.6891 1593.98,-99.8491"/>
</g>
<!-- Node31 -->
<g id="node31" class="node"><title>Node31</title>
<g id="a_node31"><a xlink:href="expression_8h.xhtml" target="_top" xlink:title="Provides the base class for all expressions and units for expression values. ">
<polygon fill="white" stroke="black" points="1384,-134.5 1384,-153.5 1461,-153.5 1461,-134.5 1384,-134.5"/>
<text text-anchor="middle" x="1422.5" y="-141.5" font-family="Helvetica,sans-Serif" font-size="10.00">expression.h</text>
</a>
</g>
</g>
<!-- Node25&#45;&gt;Node31 -->
<g id="edge43" class="edge"><title>Node25&#45;&gt;Node31</title>
<path fill="none" stroke="midnightblue" d="M1324.83,-195.975C1343.71,-186.122 1375.01,-169.788 1397.08,-158.27"/>
<polygon fill="midnightblue" stroke="midnightblue" points="1398.95,-161.239 1406.2,-153.509 1395.71,-155.033 1398.95,-161.239"/>
</g>
<!-- Node27&#45;&gt;Node3 -->
<g id="edge37" class="edge"><title>Node27&#45;&gt;Node3</title>
<path fill="none" stroke="midnightblue" d="M1591.86,-72.8938C1584.72,-70.6757 1576.86,-68.4951 1569.5,-67 1414.52,-35.5355 1371.44,-57.3438 1215.5,-31 1206.86,-29.5403 1197.62,-27.5649 1189.02,-25.5423"/>
<polygon fill="midnightblue" stroke="midnightblue" points="1189.82,-22.1364 1179.28,-23.1745 1188.17,-28.9382 1189.82,-22.1364"/>
</g>
<!-- Node27&#45;&gt;Node10 -->
<g id="edge39" class="edge"><title>Node27&#45;&gt;Node10</title>
<path fill="none" stroke="midnightblue" d="M1583.91,-74.8849C1569.44,-72.1306 1552.17,-69.0935 1536.5,-67 1352.55,-42.4249 1305.1,-50.0431 1120.5,-31 1090.98,-27.9552 1057.49,-23.8947 1033.24,-20.8452"/>
<polygon fill="midnightblue" stroke="midnightblue" points="1033.48,-17.3482 1023.12,-19.5644 1032.6,-24.2927 1033.48,-17.3482"/>
</g>
<!-- Node27&#45;&gt;Node21 -->
<g id="edge38" class="edge"><title>Node27&#45;&gt;Node21</title>
<path fill="none" stroke="midnightblue" d="M1640.39,-72.9198C1646.28,-70.8953 1652.6,-68.8031 1658.5,-67 1717.89,-48.8561 1735.15,-52.2378 1793.5,-31 1795.11,-30.4132 1796.76,-29.7744 1798.4,-29.1026"/>
<polygon fill="midnightblue" stroke="midnightblue" points="1799.93,-32.2557 1807.67,-25.0294 1797.11,-25.8467 1799.93,-32.2557"/>
</g>
<!-- Node28 -->
<g id="node28" class="node"><title>Node28</title>
<polygon fill="white" stroke="#bfbfbf" points="1530.5,-6 1530.5,-25 1702.5,-25 1702.5,-6 1530.5,-6"/>
<text text-anchor="middle" x="1616.5" y="-13" font-family="Helvetica,sans-Serif" font-size="10.00">boost/multi_index_container.hpp</text>
</g>
<!-- Node27&#45;&gt;Node28 -->
<g id="edge40" class="edge"><title>Node27&#45;&gt;Node28</title>
<path fill="none" stroke="midnightblue" d="M1616.5,-72.7338C1616.5,-63.1826 1616.5,-47.6183 1616.5,-35.2829"/>
<polygon fill="midnightblue" stroke="midnightblue" points="1620,-35.1273 1616.5,-25.1273 1613,-35.1273 1620,-35.1273"/>
</g>
<!-- Node29 -->
<g id="node29" class="node"><title>Node29</title>
<polygon fill="white" stroke="#bfbfbf" points="1224.5,-0.5 1224.5,-30.5 1364.5,-30.5 1364.5,-0.5 1224.5,-0.5"/>
<text text-anchor="start" x="1232.5" y="-18.5" font-family="Helvetica,sans-Serif" font-size="10.00">boost/multi_index/hashed</text>
<text text-anchor="middle" x="1294.5" y="-7.5" font-family="Helvetica,sans-Serif" font-size="10.00">_index.hpp</text>
</g>
<!-- Node27&#45;&gt;Node29 -->
<g id="edge41" class="edge"><title>Node27&#45;&gt;Node29</title>
<path fill="none" stroke="midnightblue" d="M1590.79,-72.972C1583.92,-70.8563 1576.47,-68.708 1569.5,-67 1569.2,-66.9257 1455.78,-46.1038 1374.72,-31.2233"/>
<polygon fill="midnightblue" stroke="midnightblue" points="1374.97,-27.7117 1364.5,-29.3486 1373.71,-34.5966 1374.97,-27.7117"/>
</g>
<!-- Node30 -->
<g id="node30" class="node"><title>Node30</title>
<polygon fill="white" stroke="#bfbfbf" points="1382.5,-0.5 1382.5,-30.5 1512.5,-30.5 1512.5,-0.5 1382.5,-0.5"/>
<text text-anchor="start" x="1390.5" y="-18.5" font-family="Helvetica,sans-Serif" font-size="10.00">boost/multi_index/mem</text>
<text text-anchor="middle" x="1447.5" y="-7.5" font-family="Helvetica,sans-Serif" font-size="10.00">_fun.hpp</text>
</g>
<!-- Node27&#45;&gt;Node30 -->
<g id="edge42" class="edge"><title>Node27&#45;&gt;Node30</title>
<path fill="none" stroke="midnightblue" d="M1594.06,-72.8685C1568.48,-63.0306 1525.99,-46.6895 1493.33,-34.1277"/>
<polygon fill="midnightblue" stroke="midnightblue" points="1494.56,-30.8512 1483.97,-30.5281 1492.05,-37.3846 1494.56,-30.8512"/>
</g>
<!-- Node31&#45;&gt;Node5 -->
<g id="edge44" class="edge"><title>Node31&#45;&gt;Node5</title>
<path fill="none" stroke="midnightblue" d="M1411.1,-134.482C1399.16,-125.513 1379.88,-110.926 1363.5,-98 1346.39,-84.5002 1345.71,-75.1625 1325.5,-67 1299.41,-56.4607 895.033,-28.2638 762.912,-19.2862"/>
<polygon fill="midnightblue" stroke="midnightblue" points="763.004,-15.7845 752.79,-18.5998 762.531,-22.7684 763.004,-15.7845"/>
</g>
<!-- Node31&#45;&gt;Node9 -->
<g id="edge47" class="edge"><title>Node31&#45;&gt;Node9</title>
<path fill="none" stroke="midnightblue" d="M1398.65,-134.42C1378.3,-126.531 1348.73,-113.695 1325.5,-98 1308.83,-86.7331 1310.98,-74.9567 1292.5,-67 1167.57,-13.2201 817.083,-41.8158 681.5,-31 642.685,-27.9036 598.095,-23.2426 568.945,-20.0458"/>
<polygon fill="midnightblue" stroke="midnightblue" points="569.268,-16.5603 558.944,-18.9399 568.499,-23.5179 569.268,-16.5603"/>
</g>
<!-- Node31&#45;&gt;Node10 -->
<g id="edge48" class="edge"><title>Node31&#45;&gt;Node10</title>
<path fill="none" stroke="midnightblue" d="M1418.49,-134.135C1410.57,-117.777 1391.26,-83.0539 1363.5,-67 1349.23,-58.7512 1120.85,-30.9178 1033.3,-20.4895"/>
<polygon fill="midnightblue" stroke="midnightblue" points="1033.45,-16.9826 1023.1,-19.2782 1032.62,-23.9337 1033.45,-16.9826"/>
</g>
<!-- Node31&#45;&gt;Node12 -->
<g id="edge50" class="edge"><title>Node31&#45;&gt;Node12</title>
<path fill="none" stroke="midnightblue" d="M1393.42,-134.475C1357.92,-124.07 1297.75,-106.437 1258.33,-94.8801"/>
<polygon fill="midnightblue" stroke="midnightblue" points="1259.11,-91.4632 1248.53,-92.0091 1257.14,-98.1806 1259.11,-91.4632"/>
</g>
<!-- Node31&#45;&gt;Node21 -->
<g id="edge46" class="edge"><title>Node31&#45;&gt;Node21</title>
<path fill="none" stroke="midnightblue" d="M1461.01,-143.672C1520.21,-143.324 1636.01,-137.103 1724.5,-98 1744.44,-89.19 1745.61,-80.7713 1762.5,-67 1777.19,-55.0269 1793.84,-41.4646 1806.18,-31.4118"/>
<polygon fill="midnightblue" stroke="midnightblue" points="1808.42,-34.1038 1813.97,-25.0755 1804,-28.6756 1808.42,-34.1038"/>
</g>
<!-- Node31&#45;&gt;Node27 -->
<g id="edge51" class="edge"><title>Node31&#45;&gt;Node27</title>
<path fill="none" stroke="midnightblue" d="M1450.3,-134.475C1484.15,-124.092 1541.47,-106.512 1579.15,-94.9538"/>
<polygon fill="midnightblue" stroke="midnightblue" points="1580.22,-98.2875 1588.76,-92.0091 1578.17,-91.5952 1580.22,-98.2875"/>
</g>
<!-- Node32 -->
<g id="node32" class="node"><title>Node32</title>
<polygon fill="white" stroke="#bfbfbf" points="1771.5,-73 1771.5,-92 1827.5,-92 1827.5,-73 1771.5,-73"/>
<text text-anchor="middle" x="1799.5" y="-80" font-family="Helvetica,sans-Serif" font-size="10.00">sstream</text>
</g>
<!-- Node31&#45;&gt;Node32 -->
<g id="edge45" class="edge"><title>Node31&#45;&gt;Node32</title>
<path fill="none" stroke="midnightblue" d="M1461.14,-140.32C1523.96,-135.403 1651.87,-123.064 1757.5,-98 1760.91,-97.1919 1764.42,-96.2147 1767.91,-95.1538"/>
<polygon fill="midnightblue" stroke="midnightblue" points="1769.09,-98.4481 1777.51,-92.0129 1766.92,-91.7949 1769.09,-98.4481"/>
</g>
<!-- Node33 -->
<g id="node33" class="node"><title>Node33</title>
<polygon fill="white" stroke="#bfbfbf" points="1415.5,-67.5 1415.5,-97.5 1527.5,-97.5 1527.5,-67.5 1415.5,-67.5"/>
<text text-anchor="start" x="1423.5" y="-85.5" font-family="Helvetica,sans-Serif" font-size="10.00">boost/icl/continuous</text>
<text text-anchor="middle" x="1471.5" y="-74.5" font-family="Helvetica,sans-Serif" font-size="10.00">_interval.hpp</text>
</g>
<!-- Node31&#45;&gt;Node33 -->
<g id="edge49" class="edge"><title>Node31&#45;&gt;Node33</title>
<path fill="none" stroke="midnightblue" d="M1429.52,-134.475C1435.78,-126.869 1445.23,-115.399 1453.58,-105.265"/>
<polygon fill="midnightblue" stroke="midnightblue" points="1456.3,-107.467 1459.95,-97.523 1450.89,-103.017 1456.3,-107.467"/>
</g>
<!-- Node34 -->
<g id="node34" class="node"><title>Node34</title>
<g id="a_node34"><a xlink:href="error_8h.xhtml" target="_top" xlink:title="Exceptions for SCRAM. ">
<polygon fill="white" stroke="black" points="1667.5,-73 1667.5,-92 1715.5,-92 1715.5,-73 1667.5,-73"/>
<text text-anchor="middle" x="1691.5" y="-80" font-family="Helvetica,sans-Serif" font-size="10.00">error.h</text>
</a>
</g>
</g>
<!-- Node31&#45;&gt;Node34 -->
<g id="edge52" class="edge"><title>Node31&#45;&gt;Node34</title>
<path fill="none" stroke="midnightblue" d="M1461.16,-138.355C1508.45,-132.054 1590.59,-119.098 1658.5,-98 1660.43,-97.4013 1662.39,-96.7233 1664.36,-95.9955"/>
<polygon fill="midnightblue" stroke="midnightblue" points="1666.03,-99.093 1673.97,-92.0781 1663.39,-92.6105 1666.03,-99.093"/>
</g>
<!-- Node34&#45;&gt;Node21 -->
<g id="edge54" class="edge"><title>Node34&#45;&gt;Node21</title>
<path fill="none" stroke="midnightblue" d="M1709.16,-72.8685C1731.82,-61.7961 1771.33,-42.4862 1797.7,-29.5978"/>
<polygon fill="midnightblue" stroke="midnightblue" points="1799.32,-32.7027 1806.77,-25.1672 1796.24,-26.4136 1799.32,-32.7027"/>
</g>
<!-- Node35 -->
<g id="node35" class="node"><title>Node35</title>
<polygon fill="white" stroke="#bfbfbf" points="1721,-6 1721,-25 1784,-25 1784,-6 1721,-6"/>
<text text-anchor="middle" x="1752.5" y="-13" font-family="Helvetica,sans-Serif" font-size="10.00">exception</text>
</g>
<!-- Node34&#45;&gt;Node35 -->
<g id="edge53" class="edge"><title>Node34&#45;&gt;Node35</title>
<path fill="none" stroke="midnightblue" d="M1699.73,-72.7338C1709.33,-62.5004 1725.41,-45.3642 1737.3,-32.6924"/>
<polygon fill="midnightblue" stroke="midnightblue" points="1740.11,-34.8143 1744.4,-25.1273 1735.01,-30.0241 1740.11,-34.8143"/>
</g>
<!-- Node36&#45;&gt;Node3 -->
<g id="edge56" class="edge"><title>Node36&#45;&gt;Node3</title>
<path fill="none" stroke="midnightblue" d="M1745.98,-140.647C1706.52,-136.428 1632.39,-125.307 1575.5,-98 1555.54,-88.418 1556.97,-75.4518 1536.5,-67 1403.81,-12.2015 1356.93,-55.6457 1215.5,-31 1206.87,-29.4957 1197.63,-27.5037 1189.03,-25.4794"/>
<polygon fill="midnightblue" stroke="midnightblue" points="1189.83,-22.0732 1179.29,-23.1156 1188.18,-28.8757 1189.83,-22.0732"/>
</g>
<!-- Node36&#45;&gt;Node12 -->
<g id="edge59" class="edge"><title>Node36&#45;&gt;Node12</title>
<path fill="none" stroke="midnightblue" d="M1745.65,-140.009C1663.16,-131.15 1418.15,-104.835 1293.75,-91.4748"/>
<polygon fill="midnightblue" stroke="midnightblue" points="1293.87,-87.9673 1283.55,-90.3794 1293.12,-94.9273 1293.87,-87.9673"/>
</g>
<!-- Node36&#45;&gt;Node32 -->
<g id="edge58" class="edge"><title>Node36&#45;&gt;Node32</title>
<path fill="none" stroke="midnightblue" d="M1777.23,-134.475C1780.97,-125.904 1786.86,-112.427 1791.64,-101.483"/>
<polygon fill="midnightblue" stroke="midnightblue" points="1794.98,-102.574 1795.78,-92.0091 1788.57,-99.771 1794.98,-102.574"/>
</g>
<!-- Node37 -->
<g id="node37" class="node"><title>Node37</title>
<polygon fill="white" stroke="#bfbfbf" points="1845.5,-73 1845.5,-92 1895.5,-92 1895.5,-73 1845.5,-73"/>
<text text-anchor="middle" x="1870.5" y="-80" font-family="Helvetica,sans-Serif" font-size="10.00">chrono</text>
</g>
<!-- Node36&#45;&gt;Node37 -->
<g id="edge57" class="edge"><title>Node36&#45;&gt;Node37</title>
<path fill="none" stroke="midnightblue" d="M1787.4,-134.475C1803.17,-124.799 1829.14,-108.872 1847.85,-97.3941"/>
<polygon fill="midnightblue" stroke="midnightblue" points="1849.93,-100.221 1856.63,-92.0091 1846.27,-94.2544 1849.93,-100.221"/>
</g>
<!-- Node38 -->
<g id="node38" class="node"><title>Node38</title>
<polygon fill="white" stroke="#bfbfbf" points="1913.5,-67.5 1913.5,-97.5 2023.5,-97.5 2023.5,-67.5 1913.5,-67.5"/>
<text text-anchor="start" x="1921.5" y="-85.5" font-family="Helvetica,sans-Serif" font-size="10.00">boost/preprocessor</text>
<text text-anchor="middle" x="1968.5" y="-74.5" font-family="Helvetica,sans-Serif" font-size="10.00">/cat.hpp</text>
</g>
<!-- Node36&#45;&gt;Node38 -->
<g id="edge60" class="edge"><title>Node36&#45;&gt;Node38</title>
<path fill="none" stroke="midnightblue" d="M1801.03,-134.601C1829.81,-125.817 1875.81,-111.784 1912.31,-100.644"/>
<polygon fill="midnightblue" stroke="midnightblue" points="1913.79,-103.852 1922.34,-97.5854 1911.75,-97.1562 1913.79,-103.852"/>
</g>
</g>
</svg>
        <g id="navigator" transform="translate(0 0)" fill="#404254">
                <rect fill="#f2f5e9" fill-opacity="0.5" stroke="#606060" stroke-width=".5" x="0" y="0" width="60" height="60"/>
                <use id="zoomplus" xlink:href="#zoomPlus" x="17" y="9" onmousedown="handleZoom(evt,'in')"/>
                <use id="zoomminus" xlink:href="#zoomMin" x="42" y="9" onmousedown="handleZoom(evt,'out')"/>
                <use id="reset" xlink:href="#resetDef" x="30" y="36" onmousedown="handleReset()"/>
                <g id="arrowUp" xlink:href="#dirArrow" transform="translate(30 24)" onmousedown="handlePan(0,-1)">
                  <use xlink:href="#rim" fill="#404040">
                        <set attributeName="fill" to="#808080" begin="arrowUp.mouseover" end="arrowUp.mouseout"/>
                  </use>
                  <path fill="none" stroke="white" stroke-width="1.5" d="M0,-3.0v7 M-2.5,-0.5L0,-3.0L2.5,-0.5"/>
                </g>
                <g id="arrowRight" xlink:href="#dirArrow" transform="rotate(90) translate(36 -43)" onmousedown="handlePan(1,0)">
                  <use xlink:href="#rim" fill="#404040">
                        <set attributeName="fill" to="#808080" begin="arrowRight.mouseover" end="arrowRight.mouseout"/>
                  </use>
                  <path fill="none" stroke="white" stroke-width="1.5" d="M0,-3.0v7 M-2.5,-0.5L0,-3.0L2.5,-0.5"/>
                </g>
                <g id="arrowDown" xlink:href="#dirArrow" transform="rotate(180) translate(-30 -48)" onmousedown="handlePan(0,1)">
                  <use xlink:href="#rim" fill="#404040">
                        <set attributeName="fill" to="#808080" begin="arrowDown.mouseover" end="arrowDown.mouseout"/>
                  </use>
                  <path fill="none" stroke="white" stroke-width="1.5" d="M0,-3.0v7 M-2.5,-0.5L0,-3.0L2.5,-0.5"/>
                </g>
                <g id="arrowLeft" xlink:href="#dirArrow" transform="rotate(270) translate(-36 17)" onmousedown="handlePan(-1,0)">
                  <use xlink:href="#rim" fill="#404040">
                        <set attributeName="fill" to="#808080" begin="arrowLeft.mouseover" end="arrowLeft.mouseout"/>
                  </use>
                  <path fill="none" stroke="white" stroke-width="1.5" d="M0,-3.0v7 M-2.5,-0.5L0,-3.0L2.5,-0.5"/>
                </g>
        </g>
        <svg viewBox="0 0 15 15" width="100%" height="30px" preserveAspectRatio="xMaxYMin meet">
         <g id="arrow_out" transform="scale(0.3 0.3)">
          <a xlink:href="pdag_8cc__incl_org.svg" target="_base">
           <rect id="button" ry="5" rx="5" y="6" x="6" height="38" width="38"
                fill="#f2f5e9" fill-opacity="0.5" stroke="#606060" stroke-width="1.0"/>
           <path id="arrow"
             d="M 11.500037,31.436501 C 11.940474,20.09759 22.043105,11.32322 32.158766,21.979434 L 37.068811,17.246167 C 37.068811,17.246167 37.088388,32 37.088388,32 L 22.160133,31.978069 C 22.160133,31.978069 26.997745,27.140456 26.997745,27.140456 C 18.528582,18.264221 13.291696,25.230495 11.500037,31.436501 z"
             style="fill:#404040;"/>
          </a>
         </g>
        </svg>
</svg>
