<?xml version="1.0" encoding="UTF-8" standalone="no"?>
<!DOCTYPE svg PUBLIC "-//W3C//DTD SVG 1.1//EN"
 "http://www.w3.org/Graphics/SVG/1.1/DTD/svg11.dtd">
<!-- Generated by graphviz version 2.38.0 (20140413.2041)
 -->
<!-- Title: scram::core::TraverseGates Pages: 1 -->
<svg width="324pt" height="137pt"
 viewBox="0.00 0.00 324.00 137.00" xmlns="http://www.w3.org/2000/svg" xmlns:xlink="http://www.w3.org/1999/xlink">
<g id="graph0" class="graph" transform="scale(1 1) rotate(0) translate(4 133)">
<title>scram::core::TraverseGates</title>
<polygon fill="white" stroke="none" points="-4,4 -4,-133 320,-133 320,4 -4,4"/>
<!-- Node1 -->
<g id="node1" class="node"><title>Node1</title>
<polygon fill="#bfbfbf" stroke="black" points="0,-55 0,-74 148,-74 148,-55 0,-55"/>
<text text-anchor="middle" x="74" y="-62" font-family="Helvetica,sans-Serif" font-size="10.00">scram::core::TraverseGates</text>
</g>
<!-- Node1&#45;&gt;Node1 -->
<g id="edge4" class="edge"><title>Node1&#45;&gt;Node1</title>
<path fill="none" stroke="midnightblue" d="M41.0166,-82.3913C41.4997,-88.0406 52.4941,-92.5 74,-92.5 105.281,-92.5 114.323,-83.0653 101.127,-74.2571"/>
<polygon fill="midnightblue" stroke="midnightblue" points="43.8706,-84.4175 46.8733,-74.2571 38.1898,-80.3273 43.8706,-84.4175"/>
</g>
<!-- Node2 -->
<g id="node2" class="node"><title>Node2</title>
<g id="a_node2"><a xlink:href="pdag_8h.xhtml#ae1d3a2de9cccb9e87bdeee839a7d381f" target="_top" xlink:title="Specializations for various node mark clearance operations. ">
<polygon fill="white" stroke="black" points="191.5,-98.5 191.5,-128.5 308.5,-128.5 308.5,-98.5 191.5,-98.5"/>
<text text-anchor="start" x="199.5" y="-116.5" font-family="Helvetica,sans-Serif" font-size="10.00">scram::core::Clear</text>
<text text-anchor="middle" x="250" y="-105.5" font-family="Helvetica,sans-Serif" font-size="10.00">&lt; Pdag::kAncestor &gt;</text>
</a>
</g>
</g>
<!-- Node1&#45;&gt;Node2 -->
<g id="edge1" class="edge"><title>Node1&#45;&gt;Node2</title>
<path fill="none" stroke="midnightblue" d="M118.598,-76.7776C141.95,-83.3537 170.91,-91.5092 195.603,-98.463"/>
<polygon fill="midnightblue" stroke="midnightblue" points="119.536,-73.4058 108.962,-74.064 117.639,-80.1437 119.536,-73.4058"/>
</g>
<!-- Node3 -->
<g id="node3" class="node"><title>Node3</title>
<g id="a_node3"><a xlink:href="pdag_8h.xhtml#a250b1e0c16cc87d907716f70bc275286" target="_top" xlink:title="Specializations for various node mark clearance operations. ">
<polygon fill="white" stroke="black" points="184,-49.5 184,-79.5 316,-79.5 316,-49.5 184,-49.5"/>
<text text-anchor="start" x="192" y="-67.5" font-family="Helvetica,sans-Serif" font-size="10.00">scram::core::Clear</text>
<text text-anchor="middle" x="250" y="-56.5" font-family="Helvetica,sans-Serif" font-size="10.00">&lt; Pdag::kDescendant &gt;</text>
</a>
</g>
</g>
<!-- Node1&#45;&gt;Node3 -->
<g id="edge2" class="edge"><title>Node1&#45;&gt;Node3</title>
<path fill="none" stroke="midnightblue" d="M158.144,-64.5C166.793,-64.5 175.492,-64.5 183.899,-64.5"/>
<polygon fill="midnightblue" stroke="midnightblue" points="158.035,-61.0001 148.035,-64.5 158.035,-68.0001 158.035,-61.0001"/>
</g>
<!-- Node4 -->
<g id="node4" class="node"><title>Node4</title>
<g id="a_node4"><a xlink:href="classscram_1_1core_1_1Pdag.xhtml#a1ec495a3595a7d088f1889f46eeb725d" target="_top" xlink:title="Removes gates of Null logic with a single argument (maybe constant). ">
<polygon fill="white" stroke="black" points="195,-0.5 195,-30.5 305,-30.5 305,-0.5 195,-0.5"/>
<text text-anchor="start" x="203" y="-18.5" font-family="Helvetica,sans-Serif" font-size="10.00">scram::core::Pdag::</text>
<text text-anchor="middle" x="250" y="-7.5" font-family="Helvetica,sans-Serif" font-size="10.00">RemoveNullGates</text>
</a>
</g>
</g>
<!-- Node1&#45;&gt;Node4 -->
<g id="edge3" class="edge"><title>Node1&#45;&gt;Node4</title>
<path fill="none" stroke="midnightblue" d="M118.598,-52.2224C141.95,-45.6463 170.91,-37.4908 195.603,-30.537"/>
<polygon fill="midnightblue" stroke="midnightblue" points="117.639,-48.8563 108.962,-54.936 119.536,-55.5942 117.639,-48.8563"/>
</g>
</g>
</svg>
