<?xml version="1.0" encoding="UTF-8" standalone="no"?>
<!DOCTYPE svg PUBLIC "-//W3C//DTD SVG 1.1//EN"
 "http://www.w3.org/Graphics/SVG/1.1/DTD/svg11.dtd">
<!-- Generated by graphviz version 2.38.0 (20140413.2041)
 -->
<!-- Title: scram::core::Clear&lt; Pdag::kAncestor &gt; Pages: 1 -->
<svg width="309pt" height="52pt"
 viewBox="0.00 0.00 309.00 51.50" xmlns="http://www.w3.org/2000/svg" xmlns:xlink="http://www.w3.org/1999/xlink">
<g id="graph0" class="graph" transform="scale(1 1) rotate(0) translate(4 47.5)">
<title>scram::core::Clear&lt; Pdag::kAncestor &gt;</title>
<polygon fill="white" stroke="none" points="-4,4 -4,-47.5 305,-47.5 305,4 -4,4"/>
<!-- Node1 -->
<g id="node1" class="node"><title>Node1</title>
<polygon fill="#bfbfbf" stroke="black" points="0,-0.5 0,-30.5 117,-30.5 117,-0.5 0,-0.5"/>
<text text-anchor="start" x="8" y="-18.5" font-family="Helvetica,sans-Serif" font-size="10.00">scram::core::Clear</text>
<text text-anchor="middle" x="58.5" y="-7.5" font-family="Helvetica,sans-Serif" font-size="10.00">&lt; Pdag::kAncestor &gt;</text>
</g>
<!-- Node2 -->
<g id="node2" class="node"><title>Node2</title>
<g id="a_node2"><a xlink:href="pdag_8h.xhtml#aa00922ee92d35a300d86442f8b9ad331" target="_top" xlink:title="Traverses and visits gates and nodes in the graph. ">
<polygon fill="white" stroke="black" points="153,-6 153,-25 301,-25 301,-6 153,-6"/>
<text text-anchor="middle" x="227" y="-13" font-family="Helvetica,sans-Serif" font-size="10.00">scram::core::TraverseGates</text>
</a>
</g>
</g>
<!-- Node1&#45;&gt;Node2 -->
<g id="edge1" class="edge"><title>Node1&#45;&gt;Node2</title>
<path fill="none" stroke="midnightblue" d="M117.266,-15.5C125.502,-15.5 134.107,-15.5 142.711,-15.5"/>
<polygon fill="midnightblue" stroke="midnightblue" points="142.791,-19.0001 152.791,-15.5 142.791,-12.0001 142.791,-19.0001"/>
</g>
<!-- Node2&#45;&gt;Node2 -->
<g id="edge2" class="edge"><title>Node2&#45;&gt;Node2</title>
<path fill="none" stroke="midnightblue" d="M201.106,-25.2571C188.509,-34.0653 197.141,-43.5 227,-43.5 247.062,-43.5 257.541,-39.241 258.437,-33.7746"/>
<polygon fill="midnightblue" stroke="midnightblue" points="261.282,-31.7291 252.894,-25.2571 255.415,-35.5475 261.282,-31.7291"/>
</g>
</g>
</svg>
