<?xml version="1.0" encoding="UTF-8" standalone="no"?>
<!DOCTYPE svg PUBLIC "-//W3C//DTD SVG 1.1//EN"
 "http://www.w3.org/Graphics/SVG/1.1/DTD/svg11.dtd">
<!-- Generated by graphviz version 2.38.0 (20140413.2041)
 -->
<!-- Title: scram::core::Clear&lt; Pdag::kOptiValue &gt; Pages: 1 -->
<svg width="314pt" height="52pt"
 viewBox="0.00 0.00 314.00 51.50" xmlns="http://www.w3.org/2000/svg" xmlns:xlink="http://www.w3.org/1999/xlink">
<g id="graph0" class="graph" transform="scale(1 1) rotate(0) translate(4 47.5)">
<title>scram::core::Clear&lt; Pdag::kOptiValue &gt;</title>
<polygon fill="white" stroke="none" points="-4,4 -4,-47.5 310,-47.5 310,4 -4,4"/>
<!-- Node1 -->
<g id="node1" class="node"><title>Node1</title>
<polygon fill="#bfbfbf" stroke="black" points="0,-0.5 0,-30.5 120,-30.5 120,-0.5 0,-0.5"/>
<text text-anchor="start" x="8" y="-18.5" font-family="Helvetica,sans-Serif" font-size="10.00">scram::core::Clear</text>
<text text-anchor="middle" x="60" y="-7.5" font-family="Helvetica,sans-Serif" font-size="10.00">&lt; Pdag::kOptiValue &gt;</text>
</g>
<!-- Node2 -->
<g id="node2" class="node"><title>Node2</title>
<g id="a_node2"><a xlink:href="pdag_8h.xhtml#a48743e35654aca714f994998f2979d58" target="_top" xlink:title="Traverses and visits gates and nodes in the graph. ">
<polygon fill="white" stroke="black" points="156,-6 156,-25 306,-25 306,-6 156,-6"/>
<text text-anchor="middle" x="231" y="-13" font-family="Helvetica,sans-Serif" font-size="10.00">scram::core::TraverseNodes</text>
</a>
</g>
</g>
<!-- Node1&#45;&gt;Node2 -->
<g id="edge1" class="edge"><title>Node1&#45;&gt;Node2</title>
<path fill="none" stroke="midnightblue" d="M120.108,-15.5C128.386,-15.5 137.023,-15.5 145.657,-15.5"/>
<polygon fill="midnightblue" stroke="midnightblue" points="145.77,-19.0001 155.77,-15.5 145.77,-12.0001 145.77,-19.0001"/>
</g>
<!-- Node2&#45;&gt;Node2 -->
<g id="edge2" class="edge"><title>Node2&#45;&gt;Node2</title>
<path fill="none" stroke="midnightblue" d="M204.798,-25.2571C192.051,-34.0653 200.785,-43.5 231,-43.5 251.301,-43.5 261.904,-39.241 262.811,-33.7746"/>
<polygon fill="midnightblue" stroke="midnightblue" points="265.625,-31.6836 257.202,-25.2571 259.779,-35.5337 265.625,-31.6836"/>
</g>
</g>
</svg>
