<?xml version="1.0" encoding="UTF-8" standalone="no"?>
<!DOCTYPE svg PUBLIC "-//W3C//DTD SVG 1.1//EN"
 "http://www.w3.org/Graphics/SVG/1.1/DTD/svg11.dtd">
<!-- Generated by graphviz version 2.38.0 (20140413.2041)
 -->
<!-- Title: scram::core::TraverseNodes Pages: 1 -->
<svg width="314pt" height="186pt"
 viewBox="0.00 0.00 314.00 186.00" xmlns="http://www.w3.org/2000/svg" xmlns:xlink="http://www.w3.org/1999/xlink">
<g id="graph0" class="graph" transform="scale(1 1) rotate(0) translate(4 182)">
<title>scram::core::TraverseNodes</title>
<polygon fill="white" stroke="none" points="-4,4 -4,-182 310,-182 310,4 -4,4"/>
<!-- Node1 -->
<g id="node1" class="node"><title>Node1</title>
<polygon fill="#bfbfbf" stroke="black" points="-2.84217e-14,-79 -2.84217e-14,-98 150,-98 150,-79 -2.84217e-14,-79"/>
<text text-anchor="middle" x="75" y="-86" font-family="Helvetica,sans-Serif" font-size="10.00">scram::core::TraverseNodes</text>
</g>
<!-- Node1&#45;&gt;Node1 -->
<g id="edge5" class="edge"><title>Node1&#45;&gt;Node1</title>
<path fill="none" stroke="midnightblue" d="M43.1886,-106.775C44.0956,-112.241 54.6994,-116.5 75,-116.5 105.215,-116.5 113.949,-107.065 101.202,-98.2571"/>
<polygon fill="midnightblue" stroke="midnightblue" points="46.2209,-108.534 48.7981,-98.2571 40.3748,-104.684 46.2209,-108.534"/>
</g>
<!-- Node2 -->
<g id="node2" class="node"><title>Node2</title>
<g id="a_node2"><a xlink:href="pdag_8h.xhtml#abd1b7b418220453348e51fc3b08f92b6" target="_top" xlink:title="Specializations for various node mark clearance operations. ">
<polygon fill="white" stroke="black" points="194,-147.5 194,-177.5 298,-177.5 298,-147.5 194,-147.5"/>
<text text-anchor="start" x="202" y="-165.5" font-family="Helvetica,sans-Serif" font-size="10.00">scram::core::Clear</text>
<text text-anchor="middle" x="246" y="-154.5" font-family="Helvetica,sans-Serif" font-size="10.00">&lt; Pdag::kCount &gt;</text>
</a>
</g>
</g>
<!-- Node1&#45;&gt;Node2 -->
<g id="edge1" class="edge"><title>Node1&#45;&gt;Node2</title>
<path fill="none" stroke="midnightblue" d="M105.741,-102.411C127.792,-112.629 158.641,-126.723 186,-138.5 192.907,-141.473 200.307,-144.56 207.452,-147.491"/>
<polygon fill="midnightblue" stroke="midnightblue" points="107.113,-99.1888 96.5689,-98.1491 104.163,-105.537 107.113,-99.1888"/>
</g>
<!-- Node3 -->
<g id="node3" class="node"><title>Node3</title>
<g id="a_node3"><a xlink:href="pdag_8h.xhtml#a520b16682fef8cd1cd1759244f349b8f" target="_top" xlink:title="Specializations for various node mark clearance operations. ">
<polygon fill="white" stroke="black" points="186,-98.5 186,-128.5 306,-128.5 306,-98.5 186,-98.5"/>
<text text-anchor="start" x="194" y="-116.5" font-family="Helvetica,sans-Serif" font-size="10.00">scram::core::Clear</text>
<text text-anchor="middle" x="246" y="-105.5" font-family="Helvetica,sans-Serif" font-size="10.00">&lt; Pdag::kOptiValue &gt;</text>
</a>
</g>
</g>
<!-- Node1&#45;&gt;Node3 -->
<g id="edge2" class="edge"><title>Node1&#45;&gt;Node3</title>
<path fill="none" stroke="midnightblue" d="M150.275,-99.4874C162.163,-101.246 174.326,-103.045 185.803,-104.743"/>
<polygon fill="midnightblue" stroke="midnightblue" points="150.778,-96.0239 140.374,-98.0227 149.754,-102.949 150.778,-96.0239"/>
</g>
<!-- Node4 -->
<g id="node4" class="node"><title>Node4</title>
<g id="a_node4"><a xlink:href="pdag_8h.xhtml#a8c4d620ac963cc0b6ff8cd51fd5ef290" target="_top" xlink:title="Specializations for various node mark clearance operations. ">
<polygon fill="white" stroke="black" points="194,-49.5 194,-79.5 298,-79.5 298,-49.5 194,-49.5"/>
<text text-anchor="start" x="202" y="-67.5" font-family="Helvetica,sans-Serif" font-size="10.00">scram::core::Clear</text>
<text text-anchor="middle" x="246" y="-56.5" font-family="Helvetica,sans-Serif" font-size="10.00">&lt; Pdag::kOrder &gt;</text>
</a>
</g>
</g>
<!-- Node1&#45;&gt;Node4 -->
<g id="edge3" class="edge"><title>Node1&#45;&gt;Node4</title>
<path fill="none" stroke="midnightblue" d="M153.237,-77.5314C167.004,-75.5763 181.031,-73.5843 193.84,-71.7653"/>
<polygon fill="midnightblue" stroke="midnightblue" points="152.687,-74.0743 143.279,-78.9456 153.672,-81.0047 152.687,-74.0743"/>
</g>
<!-- Node5 -->
<g id="node5" class="node"><title>Node5</title>
<g id="a_node5"><a xlink:href="pdag_8h.xhtml#ad8df4939c58194b97fdd1d694cca2bba" target="_top" xlink:title="Specializations for various node mark clearance operations. ">
<polygon fill="white" stroke="black" points="194,-0.5 194,-30.5 298,-30.5 298,-0.5 194,-0.5"/>
<text text-anchor="start" x="202" y="-18.5" font-family="Helvetica,sans-Serif" font-size="10.00">scram::core::Clear</text>
<text text-anchor="middle" x="246" y="-7.5" font-family="Helvetica,sans-Serif" font-size="10.00">&lt; Pdag::kVisit &gt;</text>
</a>
</g>
</g>
<!-- Node1&#45;&gt;Node5 -->
<g id="edge4" class="edge"><title>Node1&#45;&gt;Node5</title>
<path fill="none" stroke="midnightblue" d="M107.077,-74.8338C129.088,-65.1806 159.322,-51.9725 186,-40.5 193.563,-37.2478 201.683,-33.7869 209.407,-30.5096"/>
<polygon fill="midnightblue" stroke="midnightblue" points="105.634,-71.6448 97.8843,-78.8687 108.448,-78.0545 105.634,-71.6448"/>
</g>
</g>
</svg>
