<?xml version="1.0" encoding="UTF-8" standalone="no"?>
<!DOCTYPE svg PUBLIC "-//W3C//DTD SVG 1.1//EN"
 "http://www.w3.org/Graphics/SVG/1.1/DTD/svg11.dtd">
<!-- Generated by graphviz version 2.38.0 (20140413.2041)
 -->
<!-- Title: pdag.h Pages: 1 -->
<svg width="1245pt" height="151pt"
 viewBox="0.00 0.00 1245.00 151.00" xmlns="http://www.w3.org/2000/svg" xmlns:xlink="http://www.w3.org/1999/xlink">
<g id="graph0" class="graph" transform="scale(1 1) rotate(0) translate(4 147)">
<title>pdag.h</title>
<polygon fill="white" stroke="none" points="-4,4 -4,-147 1241,-147 1241,4 -4,4"/>
<!-- Node1 -->
<g id="node1" class="node"><title>Node1</title>
<polygon fill="#bfbfbf" stroke="black" points="446.5,-123.5 446.5,-142.5 496.5,-142.5 496.5,-123.5 446.5,-123.5"/>
<text text-anchor="middle" x="471.5" y="-130.5" font-family="Helvetica,sans-Serif" font-size="10.00">pdag.h</text>
</g>
<!-- Node2 -->
<g id="node2" class="node"><title>Node2</title>
<polygon fill="white" stroke="#bfbfbf" points="0,-62 0,-81 49,-81 49,-62 0,-62"/>
<text text-anchor="middle" x="24.5" y="-69" font-family="Helvetica,sans-Serif" font-size="10.00">cstdint</text>
</g>
<!-- Node1&#45;&gt;Node2 -->
<g id="edge1" class="edge"><title>Node1&#45;&gt;Node2</title>
<path fill="none" stroke="midnightblue" d="M446.282,-131.915C380.904,-131.131 201.036,-125.358 57.5,-87 55.2045,-86.3866 52.8641,-85.6361 50.5424,-84.8028"/>
<polygon fill="midnightblue" stroke="midnightblue" points="51.851,-81.5567 41.2683,-81.0495 49.2249,-88.0455 51.851,-81.5567"/>
</g>
<!-- Node3 -->
<g id="node3" class="node"><title>Node3</title>
<polygon fill="white" stroke="#bfbfbf" points="67,-62 67,-81 114,-81 114,-62 67,-62"/>
<text text-anchor="middle" x="90.5" y="-69" font-family="Helvetica,sans-Serif" font-size="10.00">cstdlib</text>
</g>
<!-- Node1&#45;&gt;Node3 -->
<g id="edge2" class="edge"><title>Node1&#45;&gt;Node3</title>
<path fill="none" stroke="midnightblue" d="M446.16,-130.706C388.801,-127.339 244.958,-116.425 128.5,-87 125.676,-86.2865 122.775,-85.4264 119.896,-84.4856"/>
<polygon fill="midnightblue" stroke="midnightblue" points="120.927,-81.1373 110.333,-81.0711 118.574,-87.7298 120.927,-81.1373"/>
</g>
<!-- Node4 -->
<g id="node4" class="node"><title>Node4</title>
<polygon fill="white" stroke="#bfbfbf" points="280.5,-0.5 280.5,-19.5 342.5,-19.5 342.5,-0.5 280.5,-0.5"/>
<text text-anchor="middle" x="311.5" y="-7.5" font-family="Helvetica,sans-Serif" font-size="10.00">algorithm</text>
</g>
<!-- Node1&#45;&gt;Node4 -->
<g id="edge3" class="edge"><title>Node1&#45;&gt;Node4</title>
<path fill="none" stroke="midnightblue" d="M446.481,-128.513C419.398,-123.565 376.352,-112.138 348.5,-87 331.431,-71.5945 321.396,-46.5781 316.179,-29.4858"/>
<polygon fill="midnightblue" stroke="midnightblue" points="319.474,-28.2733 313.42,-19.5786 312.731,-30.1509 319.474,-28.2733"/>
</g>
<!-- Node5 -->
<g id="node5" class="node"><title>Node5</title>
<polygon fill="white" stroke="#bfbfbf" points="596.5,-62 596.5,-81 642.5,-81 642.5,-62 596.5,-62"/>
<text text-anchor="middle" x="619.5" y="-69" font-family="Helvetica,sans-Serif" font-size="10.00">iosfwd</text>
</g>
<!-- Node1&#45;&gt;Node5 -->
<g id="edge4" class="edge"><title>Node1&#45;&gt;Node5</title>
<path fill="none" stroke="midnightblue" d="M494.761,-123.41C518.29,-114.619 555.636,-100.387 587.5,-87 588.871,-86.4241 590.27,-85.8265 591.681,-85.2164"/>
<polygon fill="midnightblue" stroke="midnightblue" points="593.235,-88.3564 600.963,-81.1092 590.402,-81.955 593.235,-88.3564"/>
</g>
<!-- Node6 -->
<g id="node6" class="node"><title>Node6</title>
<polygon fill="white" stroke="#bfbfbf" points="661,-62 661,-81 718,-81 718,-62 661,-62"/>
<text text-anchor="middle" x="689.5" y="-69" font-family="Helvetica,sans-Serif" font-size="10.00">memory</text>
</g>
<!-- Node1&#45;&gt;Node6 -->
<g id="edge5" class="edge"><title>Node1&#45;&gt;Node6</title>
<path fill="none" stroke="midnightblue" d="M496.51,-126.741C531.516,-119.155 596.959,-104.156 651.5,-87 653.916,-86.2399 656.402,-85.4081 658.89,-84.5396"/>
<polygon fill="midnightblue" stroke="midnightblue" points="660.162,-87.8011 668.354,-81.0821 657.76,-81.2261 660.162,-87.8011"/>
</g>
<!-- Node7 -->
<g id="node7" class="node"><title>Node7</title>
<polygon fill="white" stroke="#bfbfbf" points="736,-62 736,-81 829,-81 829,-62 736,-62"/>
<text text-anchor="middle" x="782.5" y="-69" font-family="Helvetica,sans-Serif" font-size="10.00">unordered_map</text>
</g>
<!-- Node1&#45;&gt;Node7 -->
<g id="edge6" class="edge"><title>Node1&#45;&gt;Node7</title>
<path fill="none" stroke="midnightblue" d="M496.71,-128.286C542.773,-121.342 643.531,-105.415 727.5,-87 732.253,-85.9575 737.215,-84.7791 742.128,-83.5556"/>
<polygon fill="midnightblue" stroke="midnightblue" points="743.245,-86.8826 752.064,-81.0103 741.508,-80.1016 743.245,-86.8826"/>
</g>
<!-- Node8 -->
<g id="node8" class="node"><title>Node8</title>
<polygon fill="white" stroke="#bfbfbf" points="200.5,-0.5 200.5,-19.5 242.5,-19.5 242.5,-0.5 200.5,-0.5"/>
<text text-anchor="middle" x="221.5" y="-7.5" font-family="Helvetica,sans-Serif" font-size="10.00">utility</text>
</g>
<!-- Node1&#45;&gt;Node8 -->
<g id="edge7" class="edge"><title>Node1&#45;&gt;Node8</title>
<path fill="none" stroke="midnightblue" d="M446.392,-132.347C379.45,-132.683 199.294,-129.54 162.5,-87 153.487,-76.5793 156.388,-68.348 162.5,-56 169.103,-42.6595 181.765,-32.1941 193.671,-24.7262"/>
<polygon fill="midnightblue" stroke="midnightblue" points="195.618,-27.6435 202.516,-19.6018 192.109,-21.5866 195.618,-27.6435"/>
</g>
<!-- Node9 -->
<g id="node9" class="node"><title>Node9</title>
<polygon fill="white" stroke="#bfbfbf" points="373,-0.5 373,-19.5 420,-19.5 420,-0.5 373,-0.5"/>
<text text-anchor="middle" x="396.5" y="-7.5" font-family="Helvetica,sans-Serif" font-size="10.00">vector</text>
</g>
<!-- Node1&#45;&gt;Node9 -->
<g id="edge8" class="edge"><title>Node1&#45;&gt;Node9</title>
<path fill="none" stroke="midnightblue" d="M446.013,-129.988C418.898,-126.331 377.249,-116.027 357.5,-87 344.094,-67.2953 362.888,-42.3807 378.737,-26.5622"/>
<polygon fill="midnightblue" stroke="midnightblue" points="381.256,-28.9982 386.128,-19.5901 376.452,-23.9065 381.256,-28.9982"/>
</g>
<!-- Node10 -->
<g id="node10" class="node"><title>Node10</title>
<polygon fill="white" stroke="#bfbfbf" points="847.5,-56.5 847.5,-86.5 957.5,-86.5 957.5,-56.5 847.5,-56.5"/>
<text text-anchor="start" x="855.5" y="-74.5" font-family="Helvetica,sans-Serif" font-size="10.00">boost/container/flat</text>
<text text-anchor="middle" x="902.5" y="-63.5" font-family="Helvetica,sans-Serif" font-size="10.00">_set.hpp</text>
</g>
<!-- Node1&#45;&gt;Node10 -->
<g id="edge9" class="edge"><title>Node1&#45;&gt;Node10</title>
<path fill="none" stroke="midnightblue" d="M496.547,-129.807C554.652,-124.534 703.259,-109.979 837.373,-87.0855"/>
<polygon fill="midnightblue" stroke="midnightblue" points="838.155,-90.5025 847.413,-85.3512 836.963,-83.6046 838.155,-90.5025"/>
</g>
<!-- Node11 -->
<g id="node11" class="node"><title>Node11</title>
<polygon fill="white" stroke="#bfbfbf" points="975.5,-62 975.5,-81 1103.5,-81 1103.5,-62 975.5,-62"/>
<text text-anchor="middle" x="1039.5" y="-69" font-family="Helvetica,sans-Serif" font-size="10.00">boost/noncopyable.hpp</text>
</g>
<!-- Node1&#45;&gt;Node11 -->
<g id="edge10" class="edge"><title>Node1&#45;&gt;Node11</title>
<path fill="none" stroke="midnightblue" d="M496.591,-130.657C569.472,-126.553 787.36,-112.861 966.5,-87 974.323,-85.8707 982.576,-84.4531 990.606,-82.9496"/>
<polygon fill="midnightblue" stroke="midnightblue" points="991.456,-86.3501 1000.61,-81.0143 990.126,-79.4775 991.456,-86.3501"/>
</g>
<!-- Node12 -->
<g id="node12" class="node"><title>Node12</title>
<polygon fill="white" stroke="#bfbfbf" points="1122,-56.5 1122,-86.5 1237,-86.5 1237,-56.5 1122,-56.5"/>
<text text-anchor="start" x="1130" y="-74.5" font-family="Helvetica,sans-Serif" font-size="10.00">boost/range/adaptor</text>
<text text-anchor="middle" x="1179.5" y="-63.5" font-family="Helvetica,sans-Serif" font-size="10.00">/transformed.hpp</text>
</g>
<!-- Node1&#45;&gt;Node12 -->
<g id="edge11" class="edge"><title>Node1&#45;&gt;Node12</title>
<path fill="none" stroke="midnightblue" d="M496.683,-131.525C581.788,-129.65 866.564,-121.167 1111.68,-86.9614"/>
<polygon fill="midnightblue" stroke="midnightblue" points="1112.44,-90.3892 1121.85,-85.5241 1111.46,-83.4581 1112.44,-90.3892"/>
</g>
<!-- Node13 -->
<g id="node13" class="node"><title>Node13</title>
<g id="a_node13"><a xlink:href="find__iterator_8h.xhtml" target="_top" xlink:title="Convenience iterator adaptor to wrap find calls and results. ">
<polygon fill="white" stroke="black" points="171,-62 171,-81 272,-81 272,-62 171,-62"/>
<text text-anchor="middle" x="221.5" y="-69" font-family="Helvetica,sans-Serif" font-size="10.00">ext/find_iterator.h</text>
</a>
</g>
</g>
<!-- Node1&#45;&gt;Node13 -->
<g id="edge12" class="edge"><title>Node1&#45;&gt;Node13</title>
<path fill="none" stroke="midnightblue" d="M446.153,-125.967C404.17,-115.975 319.628,-95.8545 267.071,-83.3458"/>
<polygon fill="midnightblue" stroke="midnightblue" points="267.866,-79.9374 257.327,-81.0269 266.245,-86.7472 267.866,-79.9374"/>
</g>
<!-- Node14 -->
<g id="node14" class="node"><title>Node14</title>
<g id="a_node14"><a xlink:href="index__map_8h.xhtml" target="_top" xlink:title="Non&#45;zero based Index&#45;&gt;Value map adapter on sequential containers. ">
<polygon fill="white" stroke="black" points="366.5,-62 366.5,-81 462.5,-81 462.5,-62 366.5,-62"/>
<text text-anchor="middle" x="414.5" y="-69" font-family="Helvetica,sans-Serif" font-size="10.00">ext/index_map.h</text>
</a>
</g>
</g>
<!-- Node1&#45;&gt;Node14 -->
<g id="edge14" class="edge"><title>Node1&#45;&gt;Node14</title>
<path fill="none" stroke="midnightblue" d="M463.333,-123.475C454.614,-114.373 440.596,-99.741 429.811,-88.483"/>
<polygon fill="midnightblue" stroke="midnightblue" points="432.097,-85.809 422.652,-81.0091 427.042,-90.6515 432.097,-85.809"/>
</g>
<!-- Node15 -->
<g id="node15" class="node"><title>Node15</title>
<g id="a_node15"><a xlink:href="linear__map_8h.xhtml" target="_top" xlink:title="Implementation of a vector&#45;based map for a small number of entries. ">
<polygon fill="white" stroke="black" points="481,-62 481,-81 578,-81 578,-62 481,-62"/>
<text text-anchor="middle" x="529.5" y="-69" font-family="Helvetica,sans-Serif" font-size="10.00">ext/linear_map.h</text>
</a>
</g>
</g>
<!-- Node1&#45;&gt;Node15 -->
<g id="edge16" class="edge"><title>Node1&#45;&gt;Node15</title>
<path fill="none" stroke="midnightblue" d="M479.81,-123.475C488.682,-114.373 502.946,-99.741 513.92,-88.483"/>
<polygon fill="midnightblue" stroke="midnightblue" points="516.731,-90.613 521.205,-81.0091 511.719,-85.7268 516.731,-90.613"/>
</g>
<!-- Node13&#45;&gt;Node8 -->
<g id="edge13" class="edge"><title>Node13&#45;&gt;Node8</title>
<path fill="none" stroke="midnightblue" d="M221.5,-61.9751C221.5,-53.5803 221.5,-40.4806 221.5,-29.6631"/>
<polygon fill="midnightblue" stroke="midnightblue" points="225,-29.5091 221.5,-19.5091 218,-29.5091 225,-29.5091"/>
</g>
<!-- Node14&#45;&gt;Node9 -->
<g id="edge15" class="edge"><title>Node14&#45;&gt;Node9</title>
<path fill="none" stroke="midnightblue" d="M411.921,-61.9751C409.355,-53.4919 405.335,-40.2043 402.043,-29.3222"/>
<polygon fill="midnightblue" stroke="midnightblue" points="405.32,-28.0672 399.074,-19.5091 398.62,-30.0942 405.32,-28.0672"/>
</g>
<!-- Node15&#45;&gt;Node4 -->
<g id="edge18" class="edge"><title>Node15&#45;&gt;Node4</title>
<path fill="none" stroke="midnightblue" d="M498.266,-61.9751C459.9,-51.5036 394.713,-33.7118 352.389,-22.1601"/>
<polygon fill="midnightblue" stroke="midnightblue" points="353.245,-18.7657 342.676,-19.5091 351.402,-25.5187 353.245,-18.7657"/>
</g>
<!-- Node15&#45;&gt;Node8 -->
<g id="edge22" class="edge"><title>Node15&#45;&gt;Node8</title>
<path fill="none" stroke="midnightblue" d="M497.073,-61.9867C488.763,-59.9169 479.821,-57.787 471.5,-56 470.829,-55.8558 319.626,-28.6524 252.724,-16.6169"/>
<polygon fill="midnightblue" stroke="midnightblue" points="253.208,-13.1479 242.746,-14.822 251.969,-20.0373 253.208,-13.1479"/>
</g>
<!-- Node15&#45;&gt;Node9 -->
<g id="edge21" class="edge"><title>Node15&#45;&gt;Node9</title>
<path fill="none" stroke="midnightblue" d="M510.444,-61.9751C488.025,-51.9455 450.595,-35.2002 424.787,-23.6546"/>
<polygon fill="midnightblue" stroke="midnightblue" points="426.078,-20.3979 415.52,-19.5091 423.219,-26.7877 426.078,-20.3979"/>
</g>
<!-- Node16 -->
<g id="node16" class="node"><title>Node16</title>
<polygon fill="white" stroke="#bfbfbf" points="438.5,-0.5 438.5,-19.5 490.5,-19.5 490.5,-0.5 438.5,-0.5"/>
<text text-anchor="middle" x="464.5" y="-7.5" font-family="Helvetica,sans-Serif" font-size="10.00">cassert</text>
</g>
<!-- Node15&#45;&gt;Node16 -->
<g id="edge17" class="edge"><title>Node15&#45;&gt;Node16</title>
<path fill="none" stroke="midnightblue" d="M520.187,-61.9751C510.051,-52.6966 493.636,-37.6706 481.248,-26.331"/>
<polygon fill="midnightblue" stroke="midnightblue" points="483.535,-23.6795 473.796,-19.5091 478.809,-28.8429 483.535,-23.6795"/>
</g>
<!-- Node17 -->
<g id="node17" class="node"><title>Node17</title>
<polygon fill="white" stroke="#bfbfbf" points="509,-0.5 509,-19.5 586,-19.5 586,-0.5 509,-0.5"/>
<text text-anchor="middle" x="547.5" y="-7.5" font-family="Helvetica,sans-Serif" font-size="10.00">initializer_list</text>
</g>
<!-- Node15&#45;&gt;Node17 -->
<g id="edge19" class="edge"><title>Node15&#45;&gt;Node17</title>
<path fill="none" stroke="midnightblue" d="M532.079,-61.9751C534.645,-53.4919 538.665,-40.2043 541.957,-29.3222"/>
<polygon fill="midnightblue" stroke="midnightblue" points="545.38,-30.0942 544.926,-19.5091 538.68,-28.0672 545.38,-30.0942"/>
</g>
<!-- Node18 -->
<g id="node18" class="node"><title>Node18</title>
<polygon fill="white" stroke="#bfbfbf" points="604.5,-0.5 604.5,-19.5 668.5,-19.5 668.5,-0.5 604.5,-0.5"/>
<text text-anchor="middle" x="636.5" y="-7.5" font-family="Helvetica,sans-Serif" font-size="10.00">stdexcept</text>
</g>
<!-- Node15&#45;&gt;Node18 -->
<g id="edge20" class="edge"><title>Node15&#45;&gt;Node18</title>
<path fill="none" stroke="midnightblue" d="M544.83,-61.9751C562.47,-52.1664 591.66,-35.9346 612.358,-24.425"/>
<polygon fill="midnightblue" stroke="midnightblue" points="614.159,-27.4279 621.198,-19.5091 610.757,-21.3102 614.159,-27.4279"/>
</g>
</g>
</svg>
