<?xml version="1.0" encoding="UTF-8" standalone="no"?>
<!DOCTYPE svg PUBLIC "-//W3C//DTD SVG 1.1//EN"
 "http://www.w3.org/Graphics/SVG/1.1/DTD/svg11.dtd">
<!-- Generated by graphviz version 2.38.0 (20140413.2041)
 -->
<!-- Title: preprocessor.h Pages: 1 -->
<svg width="1263pt" height="207pt"
 viewBox="0.00 0.00 1263.02 207.00" xmlns="http://www.w3.org/2000/svg" xmlns:xlink="http://www.w3.org/1999/xlink">
<g id="graph0" class="graph" transform="scale(1 1) rotate(0) translate(4 203)">
<title>preprocessor.h</title>
<polygon fill="white" stroke="none" points="-4,4 -4,-203 1259.02,-203 1259.02,4 -4,4"/>
<!-- Node1 -->
<g id="node1" class="node"><title>Node1</title>
<polygon fill="#bfbfbf" stroke="black" points="210.717,-179.5 210.717,-198.5 298.717,-198.5 298.717,-179.5 210.717,-179.5"/>
<text text-anchor="middle" x="254.717" y="-186.5" font-family="Helvetica,sans-Serif" font-size="10.00">preprocessor.h</text>
</g>
<!-- Node2 -->
<g id="node2" class="node"><title>Node2</title>
<polygon fill="white" stroke="#bfbfbf" points="23.2171,-62 23.2171,-81 80.2171,-81 80.2171,-62 23.2171,-62"/>
<text text-anchor="middle" x="51.7171" y="-69" font-family="Helvetica,sans-Serif" font-size="10.00">memory</text>
</g>
<!-- Node1&#45;&gt;Node2 -->
<g id="edge1" class="edge"><title>Node1&#45;&gt;Node2</title>
<path fill="none" stroke="midnightblue" d="M246.554,-179.385C233.364,-165.864 206.068,-139.507 178.717,-123 176.532,-121.681 119.876,-99.3076 82.9826,-84.7874"/>
<polygon fill="midnightblue" stroke="midnightblue" points="84.2056,-81.5075 73.6185,-81.1035 81.6429,-88.0216 84.2056,-81.5075"/>
</g>
<!-- Node3 -->
<g id="node3" class="node"><title>Node3</title>
<polygon fill="white" stroke="#bfbfbf" points="137.717,-123.5 137.717,-142.5 169.717,-142.5 169.717,-123.5 137.717,-123.5"/>
<text text-anchor="middle" x="153.717" y="-130.5" font-family="Helvetica,sans-Serif" font-size="10.00">set</text>
</g>
<!-- Node1&#45;&gt;Node3 -->
<g id="edge2" class="edge"><title>Node1&#45;&gt;Node3</title>
<path fill="none" stroke="midnightblue" d="M238.49,-179.324C222.366,-170.703 197.417,-157.364 178.753,-147.386"/>
<polygon fill="midnightblue" stroke="midnightblue" points="180.373,-144.283 169.904,-142.655 177.073,-150.456 180.373,-144.283"/>
</g>
<!-- Node4 -->
<g id="node4" class="node"><title>Node4</title>
<polygon fill="white" stroke="#bfbfbf" points="98.2171,-62 98.2171,-81 191.217,-81 191.217,-62 98.2171,-62"/>
<text text-anchor="middle" x="144.717" y="-69" font-family="Helvetica,sans-Serif" font-size="10.00">unordered_map</text>
</g>
<!-- Node1&#45;&gt;Node4 -->
<g id="edge3" class="edge"><title>Node1&#45;&gt;Node4</title>
<path fill="none" stroke="midnightblue" d="M250.244,-179.343C243.204,-166.224 228.587,-140.94 211.717,-123 198.538,-108.986 181.125,-95.9907 167.354,-86.6931"/>
<polygon fill="midnightblue" stroke="midnightblue" points="169.191,-83.7119 158.912,-81.1437 165.346,-89.5613 169.191,-83.7119"/>
</g>
<!-- Node5 -->
<g id="node5" class="node"><title>Node5</title>
<polygon fill="white" stroke="#bfbfbf" points="505.717,-0.5 505.717,-19.5 547.717,-19.5 547.717,-0.5 505.717,-0.5"/>
<text text-anchor="middle" x="526.717" y="-7.5" font-family="Helvetica,sans-Serif" font-size="10.00">utility</text>
</g>
<!-- Node1&#45;&gt;Node5 -->
<g id="edge4" class="edge"><title>Node1&#45;&gt;Node5</title>
<path fill="none" stroke="midnightblue" d="M210.471,-180.949C124.934,-165.59 -49.3636,-124.856 13.7171,-56 46.3414,-20.3886 389.371,-12.8339 495.563,-11.3436"/>
<polygon fill="midnightblue" stroke="midnightblue" points="495.691,-14.8424 505.644,-11.2107 495.598,-7.84296 495.691,-14.8424"/>
</g>
<!-- Node6 -->
<g id="node6" class="node"><title>Node6</title>
<polygon fill="white" stroke="#bfbfbf" points="1122.22,-0.5 1122.22,-19.5 1169.22,-19.5 1169.22,-0.5 1122.22,-0.5"/>
<text text-anchor="middle" x="1145.72" y="-7.5" font-family="Helvetica,sans-Serif" font-size="10.00">vector</text>
</g>
<!-- Node1&#45;&gt;Node6 -->
<g id="edge5" class="edge"><title>Node1&#45;&gt;Node6</title>
<path fill="none" stroke="midnightblue" d="M299.009,-186.984C483.667,-182.294 1185.59,-159.757 1248.72,-87 1257.75,-76.5931 1256.26,-67.5288 1248.72,-56 1233.45,-32.6729 1203.15,-21.3673 1179.34,-15.9305"/>
<polygon fill="midnightblue" stroke="midnightblue" points="1179.77,-12.4456 1169.27,-13.8825 1178.38,-19.3052 1179.77,-12.4456"/>
</g>
<!-- Node7 -->
<g id="node7" class="node"><title>Node7</title>
<polygon fill="white" stroke="#bfbfbf" points="209.717,-62 209.717,-81 337.717,-81 337.717,-62 209.717,-62"/>
<text text-anchor="middle" x="273.717" y="-69" font-family="Helvetica,sans-Serif" font-size="10.00">boost/noncopyable.hpp</text>
</g>
<!-- Node1&#45;&gt;Node7 -->
<g id="edge6" class="edge"><title>Node1&#45;&gt;Node7</title>
<path fill="none" stroke="midnightblue" d="M256.145,-179.319C259.199,-160.757 266.423,-116.839 270.596,-91.4734"/>
<polygon fill="midnightblue" stroke="midnightblue" points="274.103,-91.7175 272.272,-81.282 267.196,-90.5812 274.103,-91.7175"/>
</g>
<!-- Node8 -->
<g id="node8" class="node"><title>Node8</title>
<polygon fill="white" stroke="#bfbfbf" points="702.717,-123.5 702.717,-142.5 846.717,-142.5 846.717,-123.5 702.717,-123.5"/>
<text text-anchor="middle" x="774.717" y="-130.5" font-family="Helvetica,sans-Serif" font-size="10.00">boost/unordered_map.hpp</text>
</g>
<!-- Node1&#45;&gt;Node8 -->
<g id="edge7" class="edge"><title>Node1&#45;&gt;Node8</title>
<path fill="none" stroke="midnightblue" d="M298.972,-183.589C376.388,-175.846 541.71,-159.189 691.965,-143.18"/>
<polygon fill="midnightblue" stroke="midnightblue" points="692.725,-146.619 702.297,-142.078 691.982,-139.658 692.725,-146.619"/>
</g>
<!-- Node9 -->
<g id="node9" class="node"><title>Node9</title>
<g id="a_node9"><a xlink:href="pdag_8h.xhtml" target="_top" xlink:title="Classes and facilities to represent fault trees as PDAGs with event and gate indices instead of ID na...">
<polygon fill="white" stroke="black" points="634.717,-123.5 634.717,-142.5 684.717,-142.5 684.717,-123.5 634.717,-123.5"/>
<text text-anchor="middle" x="659.717" y="-130.5" font-family="Helvetica,sans-Serif" font-size="10.00">pdag.h</text>
</a>
</g>
</g>
<!-- Node1&#45;&gt;Node9 -->
<g id="edge8" class="edge"><title>Node1&#45;&gt;Node9</title>
<path fill="none" stroke="midnightblue" d="M298.83,-182.118C379.727,-171.332 550.285,-148.591 624.252,-138.729"/>
<polygon fill="midnightblue" stroke="midnightblue" points="624.993,-142.161 634.442,-137.37 624.067,-135.222 624.993,-142.161"/>
</g>
<!-- Node9&#45;&gt;Node2 -->
<g id="edge13" class="edge"><title>Node9&#45;&gt;Node2</title>
<path fill="none" stroke="midnightblue" d="M634.691,-131.008C538.829,-127.058 195.075,-111.463 88.7171,-87 85.8805,-86.3476 82.9741,-85.5164 80.0977,-84.5831"/>
<polygon fill="midnightblue" stroke="midnightblue" points="81.1743,-81.2505 70.5801,-81.128 78.7856,-87.8303 81.1743,-81.2505"/>
</g>
<!-- Node9&#45;&gt;Node4 -->
<g id="edge14" class="edge"><title>Node9&#45;&gt;Node4</title>
<path fill="none" stroke="midnightblue" d="M634.654,-130.915C565.223,-127.614 364.702,-116.086 200.717,-87 195.278,-86.0353 189.592,-84.8159 184.015,-83.4957"/>
<polygon fill="midnightblue" stroke="midnightblue" points="184.722,-80.0648 174.172,-81.0437 183.029,-86.8572 184.722,-80.0648"/>
</g>
<!-- Node9&#45;&gt;Node5 -->
<g id="edge15" class="edge"><title>Node9&#45;&gt;Node5</title>
<path fill="none" stroke="midnightblue" d="M685.011,-125.153C721.757,-114.955 786.252,-96.0122 792.717,-87 800.748,-75.8048 801.61,-66.5236 792.717,-56 777.652,-38.1723 624.771,-20.8241 557.83,-14.0178"/>
<polygon fill="midnightblue" stroke="midnightblue" points="558.158,-10.5332 547.859,-13.0174 557.459,-17.4982 558.158,-10.5332"/>
</g>
<!-- Node9&#45;&gt;Node6 -->
<g id="edge16" class="edge"><title>Node9&#45;&gt;Node6</title>
<path fill="none" stroke="midnightblue" d="M684.852,-124.771C687.822,-124.088 690.825,-123.475 693.717,-123 752.836,-113.29 1190.79,-130.755 1231.72,-87 1241.13,-76.9377 1238.85,-67.7863 1231.72,-56 1220.27,-37.0956 1197.99,-25.7506 1178.97,-19.181"/>
<polygon fill="midnightblue" stroke="midnightblue" points="1179.98,-15.8319 1169.4,-16.1661 1177.88,-22.5086 1179.98,-15.8319"/>
</g>
<!-- Node9&#45;&gt;Node7 -->
<g id="edge18" class="edge"><title>Node9&#45;&gt;Node7</title>
<path fill="none" stroke="midnightblue" d="M634.491,-128.837C581.206,-122.054 453.319,-105.237 346.717,-87 339.537,-85.7717 331.979,-84.3812 324.558,-82.9595"/>
<polygon fill="midnightblue" stroke="midnightblue" points="325.057,-79.4908 314.572,-81.0138 323.718,-86.3616 325.057,-79.4908"/>
</g>
<!-- Node10 -->
<g id="node10" class="node"><title>Node10</title>
<polygon fill="white" stroke="#bfbfbf" points="1108.22,-62 1108.22,-81 1157.22,-81 1157.22,-62 1108.22,-62"/>
<text text-anchor="middle" x="1132.72" y="-69" font-family="Helvetica,sans-Serif" font-size="10.00">cstdint</text>
</g>
<!-- Node9&#45;&gt;Node10 -->
<g id="edge9" class="edge"><title>Node9&#45;&gt;Node10</title>
<path fill="none" stroke="midnightblue" d="M684.862,-124.834C687.831,-124.14 690.83,-123.507 693.717,-123 871.707,-91.7659 923.443,-130.988 1098.72,-87 1101.08,-86.4069 1103.49,-85.6708 1105.88,-84.8471"/>
<polygon fill="midnightblue" stroke="midnightblue" points="1107.4,-88.0126 1115.44,-81.1103 1104.85,-81.4935 1107.4,-88.0126"/>
</g>
<!-- Node11 -->
<g id="node11" class="node"><title>Node11</title>
<polygon fill="white" stroke="#bfbfbf" points="1175.22,-62 1175.22,-81 1222.22,-81 1222.22,-62 1175.22,-62"/>
<text text-anchor="middle" x="1198.72" y="-69" font-family="Helvetica,sans-Serif" font-size="10.00">cstdlib</text>
</g>
<!-- Node9&#45;&gt;Node11 -->
<g id="edge10" class="edge"><title>Node9&#45;&gt;Node11</title>
<path fill="none" stroke="midnightblue" d="M684.856,-124.798C687.826,-124.11 690.827,-123.488 693.717,-123 901.601,-87.8784 962.478,-139.305 1166.72,-87 1168.93,-86.4345 1171.17,-85.725 1173.4,-84.9257"/>
<polygon fill="midnightblue" stroke="midnightblue" points="1174.94,-88.075 1182.84,-81.014 1172.26,-81.608 1174.94,-88.075"/>
</g>
<!-- Node12 -->
<g id="node12" class="node"><title>Node12</title>
<polygon fill="white" stroke="#bfbfbf" points="934.717,-0.5 934.717,-19.5 996.717,-19.5 996.717,-0.5 934.717,-0.5"/>
<text text-anchor="middle" x="965.717" y="-7.5" font-family="Helvetica,sans-Serif" font-size="10.00">algorithm</text>
</g>
<!-- Node9&#45;&gt;Node12 -->
<g id="edge11" class="edge"><title>Node9&#45;&gt;Node12</title>
<path fill="none" stroke="midnightblue" d="M684.891,-124.984C687.854,-124.263 690.845,-123.582 693.717,-123 749.373,-111.715 904.536,-125.022 946.717,-87 962.628,-72.658 966.153,-47.1964 966.51,-29.7261"/>
<polygon fill="midnightblue" stroke="midnightblue" points="970.008,-29.553 966.385,-19.5968 963.009,-29.6392 970.008,-29.553"/>
</g>
<!-- Node13 -->
<g id="node13" class="node"><title>Node13</title>
<polygon fill="white" stroke="#bfbfbf" points="475.717,-62 475.717,-81 521.717,-81 521.717,-62 475.717,-62"/>
<text text-anchor="middle" x="498.717" y="-69" font-family="Helvetica,sans-Serif" font-size="10.00">iosfwd</text>
</g>
<!-- Node9&#45;&gt;Node13 -->
<g id="edge12" class="edge"><title>Node9&#45;&gt;Node13</title>
<path fill="none" stroke="midnightblue" d="M634.256,-123.868C608.055,-115.326 566.173,-101.184 530.717,-87 529.301,-86.4336 527.857,-85.8396 526.403,-85.2287"/>
<polygon fill="midnightblue" stroke="midnightblue" points="527.436,-81.8609 516.871,-81.0671 524.635,-88.2761 527.436,-81.8609"/>
</g>
<!-- Node14 -->
<g id="node14" class="node"><title>Node14</title>
<polygon fill="white" stroke="#bfbfbf" points="539.717,-56.5 539.717,-86.5 649.717,-86.5 649.717,-56.5 539.717,-56.5"/>
<text text-anchor="start" x="547.717" y="-74.5" font-family="Helvetica,sans-Serif" font-size="10.00">boost/container/flat</text>
<text text-anchor="middle" x="594.717" y="-63.5" font-family="Helvetica,sans-Serif" font-size="10.00">_set.hpp</text>
</g>
<!-- Node9&#45;&gt;Node14 -->
<g id="edge17" class="edge"><title>Node9&#45;&gt;Node14</title>
<path fill="none" stroke="midnightblue" d="M650.404,-123.475C641.848,-115.643 628.817,-103.714 617.511,-93.3656"/>
<polygon fill="midnightblue" stroke="midnightblue" points="619.776,-90.6934 610.036,-86.523 615.049,-95.8568 619.776,-90.6934"/>
</g>
<!-- Node15 -->
<g id="node15" class="node"><title>Node15</title>
<polygon fill="white" stroke="#bfbfbf" points="668.217,-56.5 668.217,-86.5 783.217,-86.5 783.217,-56.5 668.217,-56.5"/>
<text text-anchor="start" x="676.217" y="-74.5" font-family="Helvetica,sans-Serif" font-size="10.00">boost/range/adaptor</text>
<text text-anchor="middle" x="725.717" y="-63.5" font-family="Helvetica,sans-Serif" font-size="10.00">/transformed.hpp</text>
</g>
<!-- Node9&#45;&gt;Node15 -->
<g id="edge19" class="edge"><title>Node9&#45;&gt;Node15</title>
<path fill="none" stroke="midnightblue" d="M669.173,-123.475C677.861,-115.643 691.093,-103.714 702.572,-93.3656"/>
<polygon fill="midnightblue" stroke="midnightblue" points="705.078,-95.8184 710.162,-86.523 700.391,-90.6193 705.078,-95.8184"/>
</g>
<!-- Node16 -->
<g id="node16" class="node"><title>Node16</title>
<g id="a_node16"><a xlink:href="find__iterator_8h.xhtml" target="_top" xlink:title="Convenience iterator adaptor to wrap find calls and results. ">
<polygon fill="white" stroke="black" points="356.217,-62 356.217,-81 457.217,-81 457.217,-62 356.217,-62"/>
<text text-anchor="middle" x="406.717" y="-69" font-family="Helvetica,sans-Serif" font-size="10.00">ext/find_iterator.h</text>
</a>
</g>
</g>
<!-- Node9&#45;&gt;Node16 -->
<g id="edge20" class="edge"><title>Node9&#45;&gt;Node16</title>
<path fill="none" stroke="midnightblue" d="M634.411,-126.168C597.516,-117.65 526.805,-101.265 466.717,-87 461.95,-85.8683 456.972,-84.6783 452.011,-83.487"/>
<polygon fill="midnightblue" stroke="midnightblue" points="452.464,-79.9962 441.922,-81.0581 450.825,-86.8017 452.464,-79.9962"/>
</g>
<!-- Node17 -->
<g id="node17" class="node"><title>Node17</title>
<g id="a_node17"><a xlink:href="index__map_8h.xhtml" target="_top" xlink:title="Non&#45;zero based Index&#45;&gt;Value map adapter on sequential containers. ">
<polygon fill="white" stroke="black" points="993.717,-62 993.717,-81 1089.72,-81 1089.72,-62 993.717,-62"/>
<text text-anchor="middle" x="1041.72" y="-69" font-family="Helvetica,sans-Serif" font-size="10.00">ext/index_map.h</text>
</a>
</g>
</g>
<!-- Node9&#45;&gt;Node17 -->
<g id="edge22" class="edge"><title>Node9&#45;&gt;Node17</title>
<path fill="none" stroke="midnightblue" d="M684.881,-124.938C687.847,-124.225 690.84,-123.559 693.717,-123 819.477,-98.5538 853.615,-109.618 979.717,-87 985.642,-85.9373 991.851,-84.6706 997.956,-83.3348"/>
<polygon fill="midnightblue" stroke="midnightblue" points="999.084,-86.6683 1008.06,-81.0454 997.537,-79.8412 999.084,-86.6683"/>
</g>
<!-- Node18 -->
<g id="node18" class="node"><title>Node18</title>
<g id="a_node18"><a xlink:href="linear__map_8h.xhtml" target="_top" xlink:title="Implementation of a vector&#45;based map for a small number of entries. ">
<polygon fill="white" stroke="black" points="840.217,-62 840.217,-81 937.217,-81 937.217,-62 840.217,-62"/>
<text text-anchor="middle" x="888.717" y="-69" font-family="Helvetica,sans-Serif" font-size="10.00">ext/linear_map.h</text>
</a>
</g>
</g>
<!-- Node9&#45;&gt;Node18 -->
<g id="edge24" class="edge"><title>Node9&#45;&gt;Node18</title>
<path fill="none" stroke="midnightblue" d="M684.964,-125.301C687.914,-124.523 690.882,-123.742 693.717,-123 746.001,-109.31 806.226,-93.7445 845.748,-83.5572"/>
<polygon fill="midnightblue" stroke="midnightblue" points="846.77,-86.9085 855.58,-81.0239 845.023,-80.1299 846.77,-86.9085"/>
</g>
<!-- Node16&#45;&gt;Node5 -->
<g id="edge21" class="edge"><title>Node16&#45;&gt;Node5</title>
<path fill="none" stroke="midnightblue" d="M423.91,-61.9751C443.96,-52.0338 477.316,-35.4947 500.577,-23.961"/>
<polygon fill="midnightblue" stroke="midnightblue" points="502.152,-27.0871 509.556,-19.5091 499.042,-20.8157 502.152,-27.0871"/>
</g>
<!-- Node17&#45;&gt;Node6 -->
<g id="edge23" class="edge"><title>Node17&#45;&gt;Node6</title>
<path fill="none" stroke="midnightblue" d="M1056.62,-61.9751C1073.69,-52.2106 1101.88,-36.0807 1121.98,-24.5808"/>
<polygon fill="midnightblue" stroke="midnightblue" points="1123.9,-27.513 1130.84,-19.5091 1120.43,-21.4371 1123.9,-27.513"/>
</g>
<!-- Node18&#45;&gt;Node5 -->
<g id="edge30" class="edge"><title>Node18&#45;&gt;Node5</title>
<path fill="none" stroke="midnightblue" d="M853.828,-61.967C844.709,-59.8748 834.869,-57.7392 825.717,-56 728.537,-37.532 612.418,-21.8701 557.896,-14.8896"/>
<polygon fill="midnightblue" stroke="midnightblue" points="558.198,-11.3999 547.837,-13.611 557.315,-18.3441 558.198,-11.3999"/>
</g>
<!-- Node18&#45;&gt;Node6 -->
<g id="edge29" class="edge"><title>Node18&#45;&gt;Node6</title>
<path fill="none" stroke="midnightblue" d="M925.539,-61.9751C975.451,-50.4195 1063.87,-29.9493 1112.08,-18.7879"/>
<polygon fill="midnightblue" stroke="midnightblue" points="1113.06,-22.1539 1122.01,-16.4885 1111.48,-15.3343 1113.06,-22.1539"/>
</g>
<!-- Node18&#45;&gt;Node12 -->
<g id="edge26" class="edge"><title>Node18&#45;&gt;Node12</title>
<path fill="none" stroke="midnightblue" d="M899.749,-61.9751C911.986,-52.5199 931.946,-37.0961 946.71,-25.6871"/>
<polygon fill="midnightblue" stroke="midnightblue" points="948.933,-28.3931 954.705,-19.5091 944.652,-22.8541 948.933,-28.3931"/>
</g>
<!-- Node19 -->
<g id="node19" class="node"><title>Node19</title>
<polygon fill="white" stroke="#bfbfbf" points="864.717,-0.5 864.717,-19.5 916.717,-19.5 916.717,-0.5 864.717,-0.5"/>
<text text-anchor="middle" x="890.717" y="-7.5" font-family="Helvetica,sans-Serif" font-size="10.00">cassert</text>
</g>
<!-- Node18&#45;&gt;Node19 -->
<g id="edge25" class="edge"><title>Node18&#45;&gt;Node19</title>
<path fill="none" stroke="midnightblue" d="M889.004,-61.9751C889.286,-53.5803 889.726,-40.4806 890.09,-29.6631"/>
<polygon fill="midnightblue" stroke="midnightblue" points="893.593,-29.6211 890.431,-19.5091 886.597,-29.3858 893.593,-29.6211"/>
</g>
<!-- Node20 -->
<g id="node20" class="node"><title>Node20</title>
<polygon fill="white" stroke="#bfbfbf" points="687.217,-0.5 687.217,-19.5 764.217,-19.5 764.217,-0.5 687.217,-0.5"/>
<text text-anchor="middle" x="725.717" y="-7.5" font-family="Helvetica,sans-Serif" font-size="10.00">initializer_list</text>
</g>
<!-- Node18&#45;&gt;Node20 -->
<g id="edge27" class="edge"><title>Node18&#45;&gt;Node20</title>
<path fill="none" stroke="midnightblue" d="M865.363,-61.9751C837.403,-51.7687 790.391,-34.608 758.726,-23.0492"/>
<polygon fill="midnightblue" stroke="midnightblue" points="759.622,-19.6503 749.028,-19.5091 757.221,-26.2259 759.622,-19.6503"/>
</g>
<!-- Node21 -->
<g id="node21" class="node"><title>Node21</title>
<polygon fill="white" stroke="#bfbfbf" points="782.717,-0.5 782.717,-19.5 846.717,-19.5 846.717,-0.5 782.717,-0.5"/>
<text text-anchor="middle" x="814.717" y="-7.5" font-family="Helvetica,sans-Serif" font-size="10.00">stdexcept</text>
</g>
<!-- Node18&#45;&gt;Node21 -->
<g id="edge28" class="edge"><title>Node18&#45;&gt;Node21</title>
<path fill="none" stroke="midnightblue" d="M878.115,-61.9751C866.465,-52.6082 847.531,-37.3839 833.383,-26.0081"/>
<polygon fill="midnightblue" stroke="midnightblue" points="835.286,-23.0477 825.3,-19.5091 830.9,-28.503 835.286,-23.0477"/>
</g>
</g>
</svg>
