<?xml version="1.0" encoding="UTF-8" standalone="no"?>
<!DOCTYPE svg PUBLIC "-//W3C//DTD SVG 1.1//EN"
 "http://www.w3.org/Graphics/SVG/1.1/DTD/svg11.dtd">
<!-- Generated by graphviz version 2.38.0 (20140413.2041)
 -->
<!-- Title: scram::core::pdag::Transform Pages: 1 -->
<svg width="411pt" height="307pt"
 viewBox="0.00 0.00 411.00 307.00" xmlns="http://www.w3.org/2000/svg" xmlns:xlink="http://www.w3.org/1999/xlink">
<g id="graph0" class="graph" transform="scale(1 1) rotate(0) translate(4 303)">
<title>scram::core::pdag::Transform</title>
<polygon fill="white" stroke="none" points="-4,4 -4,-303 407,-303 407,4 -4,4"/>
<!-- Node1 -->
<g id="node1" class="node"><title>Node1</title>
<polygon fill="#bfbfbf" stroke="black" points="0,-134.5 0,-164.5 110,-164.5 110,-134.5 0,-134.5"/>
<text text-anchor="start" x="8" y="-152.5" font-family="Helvetica,sans-Serif" font-size="10.00">scram::core::pdag::</text>
<text text-anchor="middle" x="55" y="-141.5" font-family="Helvetica,sans-Serif" font-size="10.00">Transform</text>
</g>
<!-- Node2 -->
<g id="node2" class="node"><title>Node2</title>
<g id="a_node2"><a xlink:href="classscram_1_1core_1_1Pdag.xhtml#a09f0aa3bddb78b2eff0446736d040e1b" target="_top" xlink:title="scram::core::Pdag::\lIsTrivial">
<polygon fill="white" stroke="black" points="146,-268.5 146,-298.5 256,-298.5 256,-268.5 146,-268.5"/>
<text text-anchor="start" x="154" y="-286.5" font-family="Helvetica,sans-Serif" font-size="10.00">scram::core::Pdag::</text>
<text text-anchor="middle" x="201" y="-275.5" font-family="Helvetica,sans-Serif" font-size="10.00">IsTrivial</text>
</a>
</g>
</g>
<!-- Node1&#45;&gt;Node2 -->
<g id="edge1" class="edge"><title>Node1&#45;&gt;Node2</title>
<path fill="none" stroke="midnightblue" d="M65.0231,-164.552C79.5345,-187.671 110.098,-232.114 146,-259.5 147.621,-260.737 149.316,-261.926 151.064,-263.068"/>
<polygon fill="midnightblue" stroke="midnightblue" points="149.742,-266.35 160.141,-268.381 153.278,-260.309 149.742,-266.35"/>
</g>
<!-- Node3 -->
<g id="node3" class="node"><title>Node3</title>
<g id="a_node3"><a xlink:href="preprocessor_8cc.xhtml#ac1f71051965d2af495655a946c09724c" target="_top" xlink:title="Marks coherence of the whole graph. ">
<polygon fill="white" stroke="black" points="146,-201.5 146,-231.5 256,-231.5 256,-201.5 146,-201.5"/>
<text text-anchor="start" x="154" y="-219.5" font-family="Helvetica,sans-Serif" font-size="10.00">scram::core::pdag::</text>
<text text-anchor="middle" x="201" y="-208.5" font-family="Helvetica,sans-Serif" font-size="10.00">MarkCoherence</text>
</a>
</g>
</g>
<!-- Node1&#45;&gt;Node3 -->
<g id="edge2" class="edge"><title>Node1&#45;&gt;Node3</title>
<path fill="none" stroke="midnightblue" d="M87.1393,-164.637C104.424,-172.973 126.342,-183.438 146,-192.5 149.366,-194.052 152.857,-195.643 156.371,-197.233"/>
<polygon fill="midnightblue" stroke="midnightblue" points="155.1,-200.499 165.656,-201.406 157.97,-194.114 155.1,-200.499"/>
</g>
<!-- Node4 -->
<g id="node4" class="node"><title>Node4</title>
<g id="a_node4"><a xlink:href="preprocessor_8cc.xhtml#aad23ca4172bc61fc1fbb6024eb81dc59" target="_top" xlink:title="Determines the order of traversal for gate arguments. ">
<polygon fill="white" stroke="black" points="146,-134.5 146,-164.5 256,-164.5 256,-134.5 146,-134.5"/>
<text text-anchor="start" x="154" y="-152.5" font-family="Helvetica,sans-Serif" font-size="10.00">scram::core::pdag::</text>
<text text-anchor="middle" x="201" y="-141.5" font-family="Helvetica,sans-Serif" font-size="10.00">OrderArguments</text>
</a>
</g>
</g>
<!-- Node1&#45;&gt;Node4 -->
<g id="edge4" class="edge"><title>Node1&#45;&gt;Node4</title>
<path fill="none" stroke="midnightblue" d="M110.03,-149.5C118.314,-149.5 126.936,-149.5 135.42,-149.5"/>
<polygon fill="midnightblue" stroke="midnightblue" points="135.667,-153 145.667,-149.5 135.667,-146 135.667,-153"/>
</g>
<!-- Node5 -->
<g id="node5" class="node"><title>Node5</title>
<g id="a_node5"><a xlink:href="preprocessor_8cc.xhtml#afb6bfa449cb37d89e64264cab6d3efaa" target="_top" xlink:title="Assigns topological ordering to nodes of the PDAG. ">
<polygon fill="white" stroke="black" points="146,-67.5 146,-97.5 256,-97.5 256,-67.5 146,-67.5"/>
<text text-anchor="start" x="154" y="-85.5" font-family="Helvetica,sans-Serif" font-size="10.00">scram::core::pdag::</text>
<text text-anchor="middle" x="201" y="-74.5" font-family="Helvetica,sans-Serif" font-size="10.00">TopologicalOrder</text>
</a>
</g>
</g>
<!-- Node1&#45;&gt;Node5 -->
<g id="edge6" class="edge"><title>Node1&#45;&gt;Node5</title>
<path fill="none" stroke="midnightblue" d="M88.3164,-134.464C108.922,-124.876 135.835,-112.355 158.078,-102.005"/>
<polygon fill="midnightblue" stroke="midnightblue" points="159.703,-105.11 167.293,-97.7177 156.75,-98.763 159.703,-105.11"/>
</g>
<!-- Node8 -->
<g id="node8" class="node"><title>Node8</title>
<g id="a_node8"><a xlink:href="preprocessor_8h.xhtml#a8491e1f33238e34fab73c36307f8b85a" target="_top" xlink:title="The terminal case for graph transformations. ">
<polygon fill="white" stroke="black" points="146,-0.5 146,-30.5 256,-30.5 256,-0.5 146,-0.5"/>
<text text-anchor="start" x="154" y="-18.5" font-family="Helvetica,sans-Serif" font-size="10.00">scram::core::pdag::</text>
<text text-anchor="middle" x="201" y="-7.5" font-family="Helvetica,sans-Serif" font-size="10.00">Transform</text>
</a>
</g>
</g>
<!-- Node1&#45;&gt;Node8 -->
<g id="edge10" class="edge"><title>Node1&#45;&gt;Node8</title>
<path fill="none" stroke="midnightblue" d="M69.8271,-134.462C87.07,-115.961 117.729,-83.8868 146,-58.5 154.092,-51.2336 163.233,-43.7154 171.662,-37.037"/>
<polygon fill="midnightblue" stroke="midnightblue" points="174.069,-39.5975 179.789,-30.679 169.756,-34.0843 174.069,-39.5975"/>
</g>
<!-- Node3&#45;&gt;Node3 -->
<g id="edge3" class="edge"><title>Node3&#45;&gt;Node3</title>
<path fill="none" stroke="midnightblue" d="M175.556,-231.659C169.421,-241.057 177.902,-250 201,-250 215.075,-250 223.723,-246.679 226.942,-241.958"/>
<polygon fill="midnightblue" stroke="midnightblue" points="230.423,-241.478 226.444,-231.659 223.432,-241.817 230.423,-241.478"/>
</g>
<!-- Node4&#45;&gt;Node4 -->
<g id="edge5" class="edge"><title>Node4&#45;&gt;Node4</title>
<path fill="none" stroke="midnightblue" d="M175.556,-164.659C169.421,-174.057 177.902,-183 201,-183 215.075,-183 223.723,-179.679 226.942,-174.958"/>
<polygon fill="midnightblue" stroke="midnightblue" points="230.423,-174.478 226.444,-164.659 223.432,-174.817 230.423,-174.478"/>
</g>
<!-- Node5&#45;&gt;Node5 -->
<g id="edge9" class="edge"><title>Node5&#45;&gt;Node5</title>
<path fill="none" stroke="midnightblue" d="M175.556,-97.659C169.421,-107.057 177.902,-116 201,-116 215.075,-116 223.723,-112.679 226.942,-107.958"/>
<polygon fill="midnightblue" stroke="midnightblue" points="230.423,-107.478 226.444,-97.659 223.432,-107.817 230.423,-107.478"/>
</g>
<!-- Node6 -->
<g id="node6" class="node"><title>Node6</title>
<g id="a_node6"><a xlink:href="classscram_1_1core_1_1Gate.xhtml#ab2a4e8ac78b36541a32cc719863910a5" target="_top" xlink:title="scram::core::Gate::\lconstant">
<polygon fill="white" stroke="black" points="293,-91.5 293,-121.5 402,-121.5 402,-91.5 293,-91.5"/>
<text text-anchor="start" x="301" y="-109.5" font-family="Helvetica,sans-Serif" font-size="10.00">scram::core::Gate::</text>
<text text-anchor="middle" x="347.5" y="-98.5" font-family="Helvetica,sans-Serif" font-size="10.00">constant</text>
</a>
</g>
</g>
<!-- Node5&#45;&gt;Node6 -->
<g id="edge7" class="edge"><title>Node5&#45;&gt;Node6</title>
<path fill="none" stroke="midnightblue" d="M256.218,-91.505C264.945,-92.9546 274.048,-94.4665 282.971,-95.9485"/>
<polygon fill="midnightblue" stroke="midnightblue" points="282.501,-99.4182 292.939,-97.6041 283.648,-92.5128 282.501,-99.4182"/>
</g>
<!-- Node7 -->
<g id="node7" class="node"><title>Node7</title>
<g id="a_node7"><a xlink:href="classscram_1_1core_1_1Node.xhtml#a8b76f2081293edc1cf85ddf8cb2ac2ed" target="_top" xlink:title="scram::core::Node::\lorder">
<polygon fill="white" stroke="black" points="292,-42.5 292,-72.5 403,-72.5 403,-42.5 292,-42.5"/>
<text text-anchor="start" x="300" y="-60.5" font-family="Helvetica,sans-Serif" font-size="10.00">scram::core::Node::</text>
<text text-anchor="middle" x="347.5" y="-49.5" font-family="Helvetica,sans-Serif" font-size="10.00">order</text>
</a>
</g>
</g>
<!-- Node5&#45;&gt;Node7 -->
<g id="edge8" class="edge"><title>Node5&#45;&gt;Node7</title>
<path fill="none" stroke="midnightblue" d="M256.218,-73.1198C264.621,-71.6659 273.373,-70.1518 281.976,-68.6633"/>
<polygon fill="midnightblue" stroke="midnightblue" points="282.722,-72.0864 291.979,-66.9328 281.528,-65.1889 282.722,-72.0864"/>
</g>
<!-- Node8&#45;&gt;Node8 -->
<g id="edge11" class="edge"><title>Node8&#45;&gt;Node8</title>
<path fill="none" stroke="midnightblue" d="M175.556,-30.659C169.421,-40.0566 177.902,-49 201,-49 215.075,-49 223.723,-45.679 226.942,-40.9579"/>
<polygon fill="midnightblue" stroke="midnightblue" points="230.423,-40.4779 226.444,-30.659 223.432,-40.8167 230.423,-40.4779"/>
</g>
</g>
</svg>
