<?xml version="1.0" encoding="UTF-8" standalone="no"?>
<!DOCTYPE svg PUBLIC "-//W3C//DTD SVG 1.1//EN"
 "http://www.w3.org/Graphics/SVG/1.1/DTD/svg11.dtd">
<!-- Generated by graphviz version 2.38.0 (20140413.2041)
 -->
<!-- Title: preprocessor.cc Pages: 1 -->
<svg width="2086pt" height="274pt"
 viewBox="0.00 0.00 2086.00 274.00" xmlns="http://www.w3.org/2000/svg" xmlns:xlink="http://www.w3.org/1999/xlink">
<g id="graph0" class="graph" transform="scale(1 1) rotate(0) translate(4 270)">
<title>preprocessor.cc</title>
<polygon fill="white" stroke="none" points="-4,4 -4,-270 2082,-270 2082,4 -4,4"/>
<!-- Node1 -->
<g id="node1" class="node"><title>Node1</title>
<polygon fill="#bfbfbf" stroke="black" points="1341.5,-246.5 1341.5,-265.5 1433.5,-265.5 1433.5,-246.5 1341.5,-246.5"/>
<text text-anchor="middle" x="1387.5" y="-253.5" font-family="Helvetica,sans-Serif" font-size="10.00">preprocessor.cc</text>
</g>
<!-- Node2 -->
<g id="node2" class="node"><title>Node2</title>
<g id="a_node2"><a xlink:href="preprocessor_8h.xhtml" target="_top" xlink:title="A collection of PDAG transformation/preprocessing algorithms that simplify fault trees for analysis...">
<polygon fill="white" stroke="black" points="392.5,-185 392.5,-204 480.5,-204 480.5,-185 392.5,-185"/>
<text text-anchor="middle" x="436.5" y="-192" font-family="Helvetica,sans-Serif" font-size="10.00">preprocessor.h</text>
</a>
</g>
</g>
<!-- Node1&#45;&gt;Node2 -->
<g id="edge1" class="edge"><title>Node1&#45;&gt;Node2</title>
<path fill="none" stroke="midnightblue" d="M1341.31,-252.11C1182.74,-242.189 660.986,-209.545 490.746,-198.894"/>
<polygon fill="midnightblue" stroke="midnightblue" points="490.958,-195.4 480.759,-198.269 490.521,-202.387 490.958,-195.4"/>
</g>
<!-- Node12 -->
<g id="node12" class="node"><title>Node12</title>
<polygon fill="white" stroke="#bfbfbf" points="1052,-62 1052,-81 1099,-81 1099,-62 1052,-62"/>
<text text-anchor="middle" x="1075.5" y="-69" font-family="Helvetica,sans-Serif" font-size="10.00">cstdlib</text>
</g>
<!-- Node1&#45;&gt;Node12 -->
<g id="edge32" class="edge"><title>Node1&#45;&gt;Node12</title>
<path fill="none" stroke="midnightblue" d="M1341.46,-255.724C1293.59,-254.32 1218.4,-245.851 1165.5,-210 1121.54,-180.206 1093.92,-121.044 1082.13,-90.9736"/>
<polygon fill="midnightblue" stroke="midnightblue" points="1085.29,-89.4468 1078.5,-81.3195 1078.74,-91.9115 1085.29,-89.4468"/>
</g>
<!-- Node13 -->
<g id="node13" class="node"><title>Node13</title>
<polygon fill="white" stroke="#bfbfbf" points="1126.5,-0.5 1126.5,-19.5 1188.5,-19.5 1188.5,-0.5 1126.5,-0.5"/>
<text text-anchor="middle" x="1157.5" y="-7.5" font-family="Helvetica,sans-Serif" font-size="10.00">algorithm</text>
</g>
<!-- Node1&#45;&gt;Node13 -->
<g id="edge33" class="edge"><title>Node1&#45;&gt;Node13</title>
<path fill="none" stroke="midnightblue" d="M1341.49,-252.299C1306.8,-248.027 1259.97,-237.204 1228.5,-210 1197.56,-183.252 1178.9,-158.899 1198.5,-123 1212.68,-97.0301 1240.32,-112.97 1254.5,-87 1261.1,-74.9071 1261.91,-67.6128 1254.5,-56 1242.14,-36.6367 1219.06,-25.4785 1198.52,-19.1173"/>
<polygon fill="midnightblue" stroke="midnightblue" points="1199.27,-15.6927 1188.69,-16.365 1197.38,-22.4332 1199.27,-15.6927"/>
</g>
<!-- Node17 -->
<g id="node17" class="node"><title>Node17</title>
<g id="a_node17"><a xlink:href="find__iterator_8h.xhtml" target="_top" xlink:title="Convenience iterator adaptor to wrap find calls and results. ">
<polygon fill="white" stroke="black" points="0,-62 0,-81 101,-81 101,-62 0,-62"/>
<text text-anchor="middle" x="50.5" y="-69" font-family="Helvetica,sans-Serif" font-size="10.00">ext/find_iterator.h</text>
</a>
</g>
</g>
<!-- Node1&#45;&gt;Node17 -->
<g id="edge45" class="edge"><title>Node1&#45;&gt;Node17</title>
<path fill="none" stroke="midnightblue" d="M1341.28,-254.457C1169.95,-252.207 571.386,-242.17 383.5,-210 282.335,-192.679 255.875,-185.607 162.5,-143 128.298,-127.394 92.0622,-102.936 70.3649,-87.3177"/>
<polygon fill="midnightblue" stroke="midnightblue" points="72.1455,-84.2843 62.0045,-81.2168 68.0192,-89.9388 72.1455,-84.2843"/>
</g>
<!-- Node23 -->
<g id="node23" class="node"><title>Node23</title>
<polygon fill="white" stroke="#bfbfbf" points="1392,-185 1392,-204 1433,-204 1433,-185 1392,-185"/>
<text text-anchor="middle" x="1412.5" y="-192" font-family="Helvetica,sans-Serif" font-size="10.00">array</text>
</g>
<!-- Node1&#45;&gt;Node23 -->
<g id="edge34" class="edge"><title>Node1&#45;&gt;Node23</title>
<path fill="none" stroke="midnightblue" d="M1391.08,-246.475C1394.68,-237.904 1400.35,-224.427 1404.94,-213.483"/>
<polygon fill="midnightblue" stroke="midnightblue" points="1408.28,-214.584 1408.92,-204.009 1401.82,-211.873 1408.28,-214.584"/>
</g>
<!-- Node24 -->
<g id="node24" class="node"><title>Node24</title>
<polygon fill="white" stroke="#bfbfbf" points="1451.5,-185 1451.5,-204 1481.5,-204 1481.5,-185 1451.5,-185"/>
<text text-anchor="middle" x="1466.5" y="-192" font-family="Helvetica,sans-Serif" font-size="10.00">list</text>
</g>
<!-- Node1&#45;&gt;Node24 -->
<g id="edge35" class="edge"><title>Node1&#45;&gt;Node24</title>
<path fill="none" stroke="midnightblue" d="M1398.82,-246.475C1411.37,-237.02 1431.85,-221.596 1447,-210.187"/>
<polygon fill="midnightblue" stroke="midnightblue" points="1449.32,-212.821 1455.2,-204.009 1445.11,-207.23 1449.32,-212.821"/>
</g>
<!-- Node25 -->
<g id="node25" class="node"><title>Node25</title>
<polygon fill="white" stroke="#bfbfbf" points="1500,-185 1500,-204 1547,-204 1547,-185 1500,-185"/>
<text text-anchor="middle" x="1523.5" y="-192" font-family="Helvetica,sans-Serif" font-size="10.00">queue</text>
</g>
<!-- Node1&#45;&gt;Node25 -->
<g id="edge36" class="edge"><title>Node1&#45;&gt;Node25</title>
<path fill="none" stroke="midnightblue" d="M1407.25,-246.385C1427.99,-237.337 1461.54,-222.687 1490.5,-210 1491.86,-209.404 1493.25,-208.793 1494.66,-208.176"/>
<polygon fill="midnightblue" stroke="midnightblue" points="1496.21,-211.319 1503.96,-204.094 1493.4,-204.909 1496.21,-211.319"/>
</g>
<!-- Node26 -->
<g id="node26" class="node"><title>Node26</title>
<polygon fill="white" stroke="#bfbfbf" points="1565.5,-185 1565.5,-204 1651.5,-204 1651.5,-185 1565.5,-185"/>
<text text-anchor="middle" x="1608.5" y="-192" font-family="Helvetica,sans-Serif" font-size="10.00">unordered_set</text>
</g>
<!-- Node1&#45;&gt;Node26 -->
<g id="edge37" class="edge"><title>Node1&#45;&gt;Node26</title>
<path fill="none" stroke="midnightblue" d="M1419.72,-246.424C1453.55,-237.407 1508.28,-222.782 1555.5,-210 1559.38,-208.95 1563.41,-207.854 1567.45,-206.754"/>
<polygon fill="midnightblue" stroke="midnightblue" points="1568.67,-210.048 1577.4,-204.038 1566.83,-203.295 1568.67,-210.048"/>
</g>
<!-- Node27 -->
<g id="node27" class="node"><title>Node27</title>
<polygon fill="white" stroke="#bfbfbf" points="1669.5,-185 1669.5,-204 1809.5,-204 1809.5,-185 1669.5,-185"/>
<text text-anchor="middle" x="1739.5" y="-192" font-family="Helvetica,sans-Serif" font-size="10.00">boost/functional/hash.hpp</text>
</g>
<!-- Node1&#45;&gt;Node27 -->
<g id="edge38" class="edge"><title>Node1&#45;&gt;Node27</title>
<path fill="none" stroke="midnightblue" d="M1433.92,-247.612C1488.27,-238.9 1581,-223.847 1660.5,-210 1667.95,-208.702 1675.79,-207.304 1683.52,-205.905"/>
<polygon fill="midnightblue" stroke="midnightblue" points="1684.36,-209.309 1693.57,-204.075 1683.11,-202.422 1684.36,-209.309"/>
</g>
<!-- Node28 -->
<g id="node28" class="node"><title>Node28</title>
<polygon fill="white" stroke="#bfbfbf" points="1828,-179.5 1828,-209.5 1937,-209.5 1937,-179.5 1828,-179.5"/>
<text text-anchor="start" x="1836" y="-197.5" font-family="Helvetica,sans-Serif" font-size="10.00">boost/math/special</text>
<text text-anchor="middle" x="1882.5" y="-186.5" font-family="Helvetica,sans-Serif" font-size="10.00">_functions/sign.hpp</text>
</g>
<!-- Node1&#45;&gt;Node28 -->
<g id="edge39" class="edge"><title>Node1&#45;&gt;Node28</title>
<path fill="none" stroke="midnightblue" d="M1433.67,-251.988C1511.03,-246.546 1671.88,-233.551 1817.74,-209.99"/>
<polygon fill="midnightblue" stroke="midnightblue" points="1818.47,-213.418 1827.77,-208.349 1817.34,-206.509 1818.47,-213.418"/>
</g>
<!-- Node29 -->
<g id="node29" class="node"><title>Node29</title>
<polygon fill="white" stroke="#bfbfbf" points="1207.5,-123.5 1207.5,-142.5 1351.5,-142.5 1351.5,-123.5 1207.5,-123.5"/>
<text text-anchor="middle" x="1279.5" y="-130.5" font-family="Helvetica,sans-Serif" font-size="10.00">boost/range/algorithm.hpp</text>
</g>
<!-- Node1&#45;&gt;Node29 -->
<g id="edge40" class="edge"><title>Node1&#45;&gt;Node29</title>
<path fill="none" stroke="midnightblue" d="M1341.4,-254.979C1306.44,-252.223 1260.45,-242.13 1236.5,-210 1221.81,-190.29 1242.98,-165.055 1260.48,-149.203"/>
<polygon fill="midnightblue" stroke="midnightblue" points="1262.82,-151.808 1268.12,-142.634 1258.26,-146.5 1262.82,-151.808"/>
</g>
<!-- Node30 -->
<g id="node30" class="node"><title>Node30</title>
<polygon fill="white" stroke="#bfbfbf" points="1955,-179.5 1955,-209.5 2078,-209.5 2078,-179.5 1955,-179.5"/>
<text text-anchor="start" x="1963" y="-197.5" font-family="Helvetica,sans-Serif" font-size="10.00">boost/range/algorithm</text>
<text text-anchor="middle" x="2016.5" y="-186.5" font-family="Helvetica,sans-Serif" font-size="10.00">_ext.hpp</text>
</g>
<!-- Node1&#45;&gt;Node30 -->
<g id="edge41" class="edge"><title>Node1&#45;&gt;Node30</title>
<path fill="none" stroke="midnightblue" d="M1433.73,-253.218C1528.06,-249.165 1749.61,-237.504 1944.59,-210.167"/>
<polygon fill="midnightblue" stroke="midnightblue" points="1945.33,-213.597 1954.74,-208.727 1944.34,-206.667 1945.33,-213.597"/>
</g>
<!-- Node31 -->
<g id="node31" class="node"><title>Node31</title>
<g id="a_node31"><a xlink:href="algorithm_8h.xhtml" target="_top" xlink:title="Helpful algorithm facilities as an extension to the STL or Boost. ">
<polygon fill="white" stroke="black" points="1246,-185 1246,-204 1335,-204 1335,-185 1246,-185"/>
<text text-anchor="middle" x="1290.5" y="-192" font-family="Helvetica,sans-Serif" font-size="10.00">ext/algorithm.h</text>
</a>
</g>
</g>
<!-- Node1&#45;&gt;Node31 -->
<g id="edge42" class="edge"><title>Node1&#45;&gt;Node31</title>
<path fill="none" stroke="midnightblue" d="M1373.6,-246.475C1357.83,-236.799 1331.86,-220.872 1313.15,-209.394"/>
<polygon fill="midnightblue" stroke="midnightblue" points="1314.73,-206.254 1304.37,-204.009 1311.07,-212.221 1314.73,-206.254"/>
</g>
<!-- Node32 -->
<g id="node32" class="node"><title>Node32</title>
<g id="a_node32"><a xlink:href="logger_8h.xhtml" target="_top" xlink:title="Logging capability for various purposes, such as warnings and debugging. ">
<polygon fill="white" stroke="black" points="1408,-123.5 1408,-142.5 1463,-142.5 1463,-123.5 1408,-123.5"/>
<text text-anchor="middle" x="1435.5" y="-130.5" font-family="Helvetica,sans-Serif" font-size="10.00">logger.h</text>
</a>
</g>
</g>
<!-- Node1&#45;&gt;Node32 -->
<g id="edge46" class="edge"><title>Node1&#45;&gt;Node32</title>
<path fill="none" stroke="midnightblue" d="M1384.27,-246.067C1379.49,-231.326 1372.17,-201.321 1382.5,-179 1388.42,-166.207 1399.97,-155.722 1410.78,-148.1"/>
<polygon fill="midnightblue" stroke="midnightblue" points="1412.71,-151.016 1419.17,-142.613 1408.88,-145.158 1412.71,-151.016"/>
</g>
<!-- Node3 -->
<g id="node3" class="node"><title>Node3</title>
<polygon fill="white" stroke="#bfbfbf" points="977,-62 977,-81 1034,-81 1034,-62 977,-62"/>
<text text-anchor="middle" x="1005.5" y="-69" font-family="Helvetica,sans-Serif" font-size="10.00">memory</text>
</g>
<!-- Node2&#45;&gt;Node3 -->
<g id="edge2" class="edge"><title>Node2&#45;&gt;Node3</title>
<path fill="none" stroke="midnightblue" d="M480.574,-186.501C571.499,-171.642 786.138,-134.389 962.5,-87 965.696,-86.1414 969,-85.1742 972.291,-84.1571"/>
<polygon fill="midnightblue" stroke="midnightblue" points="973.568,-87.4228 982.006,-81.0154 971.414,-80.7625 973.568,-87.4228"/>
</g>
<!-- Node4 -->
<g id="node4" class="node"><title>Node4</title>
<polygon fill="white" stroke="#bfbfbf" points="214.5,-123.5 214.5,-142.5 246.5,-142.5 246.5,-123.5 214.5,-123.5"/>
<text text-anchor="middle" x="230.5" y="-130.5" font-family="Helvetica,sans-Serif" font-size="10.00">set</text>
</g>
<!-- Node2&#45;&gt;Node4 -->
<g id="edge3" class="edge"><title>Node2&#45;&gt;Node4</title>
<path fill="none" stroke="midnightblue" d="M402.922,-184.922C368.415,-175.933 312.958,-161.008 256.401,-143.119"/>
<polygon fill="midnightblue" stroke="midnightblue" points="257.169,-139.69 246.579,-139.985 255.042,-146.359 257.169,-139.69"/>
</g>
<!-- Node5 -->
<g id="node5" class="node"><title>Node5</title>
<polygon fill="white" stroke="#bfbfbf" points="158,-62 158,-81 251,-81 251,-62 158,-62"/>
<text text-anchor="middle" x="204.5" y="-69" font-family="Helvetica,sans-Serif" font-size="10.00">unordered_map</text>
</g>
<!-- Node2&#45;&gt;Node5 -->
<g id="edge4" class="edge"><title>Node2&#45;&gt;Node5</title>
<path fill="none" stroke="midnightblue" d="M392.432,-190.242C332.129,-184.77 228.709,-171.416 205.5,-143 193.786,-128.658 195.567,-106.647 198.985,-91.0393"/>
<polygon fill="midnightblue" stroke="midnightblue" points="202.464,-91.5665 201.593,-81.0075 195.689,-89.8051 202.464,-91.5665"/>
</g>
<!-- Node6 -->
<g id="node6" class="node"><title>Node6</title>
<polygon fill="white" stroke="#bfbfbf" points="202.5,-0.5 202.5,-19.5 244.5,-19.5 244.5,-0.5 202.5,-0.5"/>
<text text-anchor="middle" x="223.5" y="-7.5" font-family="Helvetica,sans-Serif" font-size="10.00">utility</text>
</g>
<!-- Node2&#45;&gt;Node6 -->
<g id="edge5" class="edge"><title>Node2&#45;&gt;Node6</title>
<path fill="none" stroke="midnightblue" d="M392.442,-193.121C341.104,-190.795 255.42,-180.912 193.5,-143 156.373,-120.268 127.051,-93.8823 148.5,-56 157.979,-39.2577 176.447,-28.0649 192.684,-21.0295"/>
<polygon fill="midnightblue" stroke="midnightblue" points="194.401,-24.1141 202.406,-17.1738 191.82,-17.6073 194.401,-24.1141"/>
</g>
<!-- Node7 -->
<g id="node7" class="node"><title>Node7</title>
<polygon fill="white" stroke="#bfbfbf" points="408,-0.5 408,-19.5 455,-19.5 455,-0.5 408,-0.5"/>
<text text-anchor="middle" x="431.5" y="-7.5" font-family="Helvetica,sans-Serif" font-size="10.00">vector</text>
</g>
<!-- Node2&#45;&gt;Node7 -->
<g id="edge6" class="edge"><title>Node2&#45;&gt;Node7</title>
<path fill="none" stroke="midnightblue" d="M436.454,-184.587C435.914,-170.012 432.831,-140.913 417.5,-123 391.883,-93.0704 357.967,-120.033 336.5,-87 328.992,-75.4474 329.132,-67.6424 336.5,-56 349.895,-34.8325 376.238,-23.4271 397.792,-17.4009"/>
<polygon fill="midnightblue" stroke="midnightblue" points="398.762,-20.7658 407.602,-14.925 397.049,-13.9786 398.762,-20.7658"/>
</g>
<!-- Node8 -->
<g id="node8" class="node"><title>Node8</title>
<polygon fill="white" stroke="#bfbfbf" points="1117.5,-62 1117.5,-81 1245.5,-81 1245.5,-62 1117.5,-62"/>
<text text-anchor="middle" x="1181.5" y="-69" font-family="Helvetica,sans-Serif" font-size="10.00">boost/noncopyable.hpp</text>
</g>
<!-- Node2&#45;&gt;Node8 -->
<g id="edge7" class="edge"><title>Node2&#45;&gt;Node8</title>
<path fill="none" stroke="midnightblue" d="M480.652,-187.458C546.631,-178.343 674.831,-160.295 783.5,-143 927.819,-120.031 963.787,-113.496 1107.5,-87 1114.33,-85.7401 1121.51,-84.3793 1128.61,-83.0136"/>
<polygon fill="midnightblue" stroke="midnightblue" points="1129.73,-86.3612 1138.88,-81.0205 1128.39,-79.4893 1129.73,-86.3612"/>
</g>
<!-- Node9 -->
<g id="node9" class="node"><title>Node9</title>
<polygon fill="white" stroke="#bfbfbf" points="264.5,-123.5 264.5,-142.5 408.5,-142.5 408.5,-123.5 264.5,-123.5"/>
<text text-anchor="middle" x="336.5" y="-130.5" font-family="Helvetica,sans-Serif" font-size="10.00">boost/unordered_map.hpp</text>
</g>
<!-- Node2&#45;&gt;Node9 -->
<g id="edge8" class="edge"><title>Node2&#45;&gt;Node9</title>
<path fill="none" stroke="midnightblue" d="M422.172,-184.975C405.836,-175.255 378.898,-159.227 359.588,-147.737"/>
<polygon fill="midnightblue" stroke="midnightblue" points="361.185,-144.615 350.801,-142.509 357.605,-150.63 361.185,-144.615"/>
</g>
<!-- Node10 -->
<g id="node10" class="node"><title>Node10</title>
<g id="a_node10"><a xlink:href="pdag_8h.xhtml" target="_top" xlink:title="Classes and facilities to represent fault trees as PDAGs with event and gate indices instead of ID na...">
<polygon fill="white" stroke="black" points="591.5,-123.5 591.5,-142.5 641.5,-142.5 641.5,-123.5 591.5,-123.5"/>
<text text-anchor="middle" x="616.5" y="-130.5" font-family="Helvetica,sans-Serif" font-size="10.00">pdag.h</text>
</a>
</g>
</g>
<!-- Node2&#45;&gt;Node10 -->
<g id="edge9" class="edge"><title>Node2&#45;&gt;Node10</title>
<path fill="none" stroke="midnightblue" d="M462.29,-184.975C493.61,-174.622 546.579,-157.113 581.548,-145.554"/>
<polygon fill="midnightblue" stroke="midnightblue" points="582.942,-148.779 591.339,-142.317 580.745,-142.133 582.942,-148.779"/>
</g>
<!-- Node10&#45;&gt;Node3 -->
<g id="edge14" class="edge"><title>Node10&#45;&gt;Node3</title>
<path fill="none" stroke="midnightblue" d="M641.551,-130.431C698.954,-126.47 844.17,-114.367 962.5,-87 965.983,-86.1945 969.582,-85.219 973.147,-84.1591"/>
<polygon fill="midnightblue" stroke="midnightblue" points="974.516,-87.3961 982.977,-81.0195 972.386,-80.7279 974.516,-87.3961"/>
</g>
<!-- Node10&#45;&gt;Node5 -->
<g id="edge15" class="edge"><title>Node10&#45;&gt;Node5</title>
<path fill="none" stroke="midnightblue" d="M591.342,-128.406C538.186,-120.807 410.53,-102.532 303.5,-87 289.736,-85.0026 274.898,-82.8362 261.003,-80.802"/>
<polygon fill="midnightblue" stroke="midnightblue" points="261.483,-77.3351 251.082,-79.3484 260.469,-84.2611 261.483,-77.3351"/>
</g>
<!-- Node10&#45;&gt;Node6 -->
<g id="edge16" class="edge"><title>Node10&#45;&gt;Node6</title>
<path fill="none" stroke="midnightblue" d="M591.209,-131.54C540.929,-129.859 425.582,-122.139 336.5,-87 299.193,-72.2843 261.713,-43.702 240.669,-26.0904"/>
<polygon fill="midnightblue" stroke="midnightblue" points="242.828,-23.3318 232.95,-19.5007 238.283,-28.6556 242.828,-23.3318"/>
</g>
<!-- Node10&#45;&gt;Node7 -->
<g id="edge17" class="edge"><title>Node10&#45;&gt;Node7</title>
<path fill="none" stroke="midnightblue" d="M591.359,-127.696C563.957,-122.033 519.844,-109.982 488.5,-87 467.263,-71.4288 450.345,-45.7178 440.618,-28.5721"/>
<polygon fill="midnightblue" stroke="midnightblue" points="443.596,-26.7217 435.745,-19.6081 437.447,-30.0654 443.596,-26.7217"/>
</g>
<!-- Node10&#45;&gt;Node8 -->
<g id="edge19" class="edge"><title>Node10&#45;&gt;Node8</title>
<path fill="none" stroke="midnightblue" d="M641.644,-130.605C714.183,-126.386 929.984,-112.459 1107.5,-87 1115.52,-85.8505 1123.98,-84.41 1132.2,-82.8863"/>
<polygon fill="midnightblue" stroke="midnightblue" points="1132.91,-86.3152 1142.07,-81.0003 1131.59,-79.4396 1132.91,-86.3152"/>
</g>
<!-- Node11 -->
<g id="node11" class="node"><title>Node11</title>
<polygon fill="white" stroke="#bfbfbf" points="1302,-62 1302,-81 1351,-81 1351,-62 1302,-62"/>
<text text-anchor="middle" x="1326.5" y="-69" font-family="Helvetica,sans-Serif" font-size="10.00">cstdint</text>
</g>
<!-- Node10&#45;&gt;Node11 -->
<g id="edge10" class="edge"><title>Node10&#45;&gt;Node11</title>
<path fill="none" stroke="midnightblue" d="M641.547,-131.388C727.371,-129.046 1017.37,-119.105 1254.5,-87 1266.81,-85.3328 1280.19,-82.8337 1292.03,-80.3776"/>
<polygon fill="midnightblue" stroke="midnightblue" points="1292.93,-83.7648 1301.97,-78.2523 1291.46,-76.9193 1292.93,-83.7648"/>
</g>
<!-- Node10&#45;&gt;Node12 -->
<g id="edge11" class="edge"><title>Node10&#45;&gt;Node12</title>
<path fill="none" stroke="midnightblue" d="M641.959,-132.022C708.817,-131.501 894.432,-126.329 1042.5,-87 1044.8,-86.39 1047.14,-85.6421 1049.46,-84.8104"/>
<polygon fill="midnightblue" stroke="midnightblue" points="1050.78,-88.0535 1058.73,-81.0599 1048.15,-81.564 1050.78,-88.0535"/>
</g>
<!-- Node10&#45;&gt;Node13 -->
<g id="edge12" class="edge"><title>Node10&#45;&gt;Node13</title>
<path fill="none" stroke="midnightblue" d="M641.634,-130.077C706.256,-124.863 876.745,-109.336 928.5,-87 948.83,-78.2263 947.582,-65.6725 967.5,-56 1015.65,-32.6192 1076.68,-20.9614 1116.39,-15.4599"/>
<polygon fill="midnightblue" stroke="midnightblue" points="1117.04,-18.9043 1126.5,-14.1286 1116.12,-11.9642 1117.04,-18.9043"/>
</g>
<!-- Node14 -->
<g id="node14" class="node"><title>Node14</title>
<polygon fill="white" stroke="#bfbfbf" points="497.5,-62 497.5,-81 543.5,-81 543.5,-62 497.5,-62"/>
<text text-anchor="middle" x="520.5" y="-69" font-family="Helvetica,sans-Serif" font-size="10.00">iosfwd</text>
</g>
<!-- Node10&#45;&gt;Node14 -->
<g id="edge13" class="edge"><title>Node10&#45;&gt;Node14</title>
<path fill="none" stroke="midnightblue" d="M602.746,-123.475C587.134,-113.799 561.437,-97.8721 542.917,-86.3941"/>
<polygon fill="midnightblue" stroke="midnightblue" points="544.573,-83.3023 534.229,-81.0091 540.885,-89.2522 544.573,-83.3023"/>
</g>
<!-- Node15 -->
<g id="node15" class="node"><title>Node15</title>
<polygon fill="white" stroke="#bfbfbf" points="561.5,-56.5 561.5,-86.5 671.5,-86.5 671.5,-56.5 561.5,-56.5"/>
<text text-anchor="start" x="569.5" y="-74.5" font-family="Helvetica,sans-Serif" font-size="10.00">boost/container/flat</text>
<text text-anchor="middle" x="616.5" y="-63.5" font-family="Helvetica,sans-Serif" font-size="10.00">_set.hpp</text>
</g>
<!-- Node10&#45;&gt;Node15 -->
<g id="edge18" class="edge"><title>Node10&#45;&gt;Node15</title>
<path fill="none" stroke="midnightblue" d="M616.5,-123.475C616.5,-116.471 616.5,-106.192 616.5,-96.6956"/>
<polygon fill="midnightblue" stroke="midnightblue" points="620,-96.5229 616.5,-86.523 613,-96.523 620,-96.5229"/>
</g>
<!-- Node16 -->
<g id="node16" class="node"><title>Node16</title>
<polygon fill="white" stroke="#bfbfbf" points="690,-56.5 690,-86.5 805,-86.5 805,-56.5 690,-56.5"/>
<text text-anchor="start" x="698" y="-74.5" font-family="Helvetica,sans-Serif" font-size="10.00">boost/range/adaptor</text>
<text text-anchor="middle" x="747.5" y="-63.5" font-family="Helvetica,sans-Serif" font-size="10.00">/transformed.hpp</text>
</g>
<!-- Node10&#45;&gt;Node16 -->
<g id="edge20" class="edge"><title>Node10&#45;&gt;Node16</title>
<path fill="none" stroke="midnightblue" d="M635.269,-123.475C654.006,-114.965 683.389,-101.619 707.39,-90.718"/>
<polygon fill="midnightblue" stroke="midnightblue" points="708.968,-93.8451 716.626,-86.523 706.074,-87.4717 708.968,-93.8451"/>
</g>
<!-- Node10&#45;&gt;Node17 -->
<g id="edge21" class="edge"><title>Node10&#45;&gt;Node17</title>
<path fill="none" stroke="midnightblue" d="M591.339,-130.035C521.142,-124.456 317.233,-107.581 148.5,-87 136.429,-85.5276 123.551,-83.7626 111.231,-81.9787"/>
<polygon fill="midnightblue" stroke="midnightblue" points="111.447,-78.4729 101.045,-80.4819 110.43,-85.3986 111.447,-78.4729"/>
</g>
<!-- Node18 -->
<g id="node18" class="node"><title>Node18</title>
<g id="a_node18"><a xlink:href="index__map_8h.xhtml" target="_top" xlink:title="Non&#45;zero based Index&#45;&gt;Value map adapter on sequential containers. ">
<polygon fill="white" stroke="black" points="345.5,-62 345.5,-81 441.5,-81 441.5,-62 345.5,-62"/>
<text text-anchor="middle" x="393.5" y="-69" font-family="Helvetica,sans-Serif" font-size="10.00">ext/index_map.h</text>
</a>
</g>
</g>
<!-- Node10&#45;&gt;Node18 -->
<g id="edge23" class="edge"><title>Node10&#45;&gt;Node18</title>
<path fill="none" stroke="midnightblue" d="M591.353,-125.29C553.441,-115.175 481.212,-95.903 435.302,-83.6535"/>
<polygon fill="midnightblue" stroke="midnightblue" points="435.928,-80.198 425.363,-81.0017 434.123,-86.9614 435.928,-80.198"/>
</g>
<!-- Node19 -->
<g id="node19" class="node"><title>Node19</title>
<g id="a_node19"><a xlink:href="linear__map_8h.xhtml" target="_top" xlink:title="Implementation of a vector&#45;based map for a small number of entries. ">
<polygon fill="white" stroke="black" points="823,-62 823,-81 920,-81 920,-62 823,-62"/>
<text text-anchor="middle" x="871.5" y="-69" font-family="Helvetica,sans-Serif" font-size="10.00">ext/linear_map.h</text>
</a>
</g>
</g>
<!-- Node10&#45;&gt;Node19 -->
<g id="edge25" class="edge"><title>Node10&#45;&gt;Node19</title>
<path fill="none" stroke="midnightblue" d="M641.727,-126.41C679.238,-118.06 751.914,-101.731 813.5,-87 818.175,-85.8818 823.057,-84.6936 827.917,-83.4974"/>
<polygon fill="midnightblue" stroke="midnightblue" points="828.927,-86.853 837.792,-81.0505 827.244,-80.0585 828.927,-86.853"/>
</g>
<!-- Node17&#45;&gt;Node6 -->
<g id="edge22" class="edge"><title>Node17&#45;&gt;Node6</title>
<path fill="none" stroke="midnightblue" d="M75.2867,-61.9751C106.191,-51.346 159.026,-33.1744 192.556,-21.6426"/>
<polygon fill="midnightblue" stroke="midnightblue" points="193.978,-24.8547 202.296,-18.2926 191.702,-18.2353 193.978,-24.8547"/>
</g>
<!-- Node18&#45;&gt;Node7 -->
<g id="edge24" class="edge"><title>Node18&#45;&gt;Node7</title>
<path fill="none" stroke="midnightblue" d="M398.944,-61.9751C404.588,-53.1384 413.561,-39.0886 420.659,-27.975"/>
<polygon fill="midnightblue" stroke="midnightblue" points="423.633,-29.8208 426.066,-19.5091 417.733,-26.0531 423.633,-29.8208"/>
</g>
<!-- Node19&#45;&gt;Node6 -->
<g id="edge31" class="edge"><title>Node19&#45;&gt;Node6</title>
<path fill="none" stroke="midnightblue" d="M841.298,-61.9244C832.407,-59.6792 822.619,-57.4767 813.5,-56 704.186,-38.2971 360.536,-18.4956 254.783,-12.6861"/>
<polygon fill="midnightblue" stroke="midnightblue" points="254.924,-9.18867 244.748,-12.1377 254.542,-16.1782 254.924,-9.18867"/>
</g>
<!-- Node19&#45;&gt;Node7 -->
<g id="edge30" class="edge"><title>Node19&#45;&gt;Node7</title>
<path fill="none" stroke="midnightblue" d="M840.355,-61.9368C831.707,-59.7719 822.28,-57.6079 813.5,-56 685.994,-32.6503 532.219,-18.8377 465.323,-13.5242"/>
<polygon fill="midnightblue" stroke="midnightblue" points="465.592,-10.0346 455.35,-12.7442 465.047,-17.0133 465.592,-10.0346"/>
</g>
<!-- Node19&#45;&gt;Node13 -->
<g id="edge27" class="edge"><title>Node19&#45;&gt;Node13</title>
<path fill="none" stroke="midnightblue" d="M907.775,-61.9742C916.516,-59.9687 925.833,-57.8715 934.5,-56 997.894,-42.311 1071.71,-27.6682 1116.5,-18.9276"/>
<polygon fill="midnightblue" stroke="midnightblue" points="1117.27,-22.343 1126.42,-16.9957 1115.94,-15.4721 1117.27,-22.343"/>
</g>
<!-- Node20 -->
<g id="node20" class="node"><title>Node20</title>
<polygon fill="white" stroke="#bfbfbf" points="762.5,-0.5 762.5,-19.5 814.5,-19.5 814.5,-0.5 762.5,-0.5"/>
<text text-anchor="middle" x="788.5" y="-7.5" font-family="Helvetica,sans-Serif" font-size="10.00">cassert</text>
</g>
<!-- Node19&#45;&gt;Node20 -->
<g id="edge26" class="edge"><title>Node19&#45;&gt;Node20</title>
<path fill="none" stroke="midnightblue" d="M859.608,-61.9751C846.295,-52.4315 824.5,-36.8073 808.543,-25.3683"/>
<polygon fill="midnightblue" stroke="midnightblue" points="810.536,-22.4908 800.37,-19.5091 806.458,-28.18 810.536,-22.4908"/>
</g>
<!-- Node21 -->
<g id="node21" class="node"><title>Node21</title>
<polygon fill="white" stroke="#bfbfbf" points="833,-0.5 833,-19.5 910,-19.5 910,-0.5 833,-0.5"/>
<text text-anchor="middle" x="871.5" y="-7.5" font-family="Helvetica,sans-Serif" font-size="10.00">initializer_list</text>
</g>
<!-- Node19&#45;&gt;Node21 -->
<g id="edge28" class="edge"><title>Node19&#45;&gt;Node21</title>
<path fill="none" stroke="midnightblue" d="M871.5,-61.9751C871.5,-53.5803 871.5,-40.4806 871.5,-29.6631"/>
<polygon fill="midnightblue" stroke="midnightblue" points="875,-29.5091 871.5,-19.5091 868,-29.5091 875,-29.5091"/>
</g>
<!-- Node22 -->
<g id="node22" class="node"><title>Node22</title>
<polygon fill="white" stroke="#bfbfbf" points="928.5,-0.5 928.5,-19.5 992.5,-19.5 992.5,-0.5 928.5,-0.5"/>
<text text-anchor="middle" x="960.5" y="-7.5" font-family="Helvetica,sans-Serif" font-size="10.00">stdexcept</text>
</g>
<!-- Node19&#45;&gt;Node22 -->
<g id="edge29" class="edge"><title>Node19&#45;&gt;Node22</title>
<path fill="none" stroke="midnightblue" d="M884.252,-61.9751C898.527,-52.4315 921.897,-36.8073 939.008,-25.3683"/>
<polygon fill="midnightblue" stroke="midnightblue" points="941.404,-27.9766 947.772,-19.5091 937.514,-22.1572 941.404,-27.9766"/>
</g>
<!-- Node31&#45;&gt;Node13 -->
<g id="edge43" class="edge"><title>Node31&#45;&gt;Node13</title>
<path fill="none" stroke="midnightblue" d="M1311.3,-184.988C1327.99,-176.909 1350.26,-163.011 1360.5,-143 1369.19,-126.01 1387.16,-89.9757 1359.5,-56 1339.56,-31.5105 1251.77,-19.4355 1198.7,-14.2727"/>
<polygon fill="midnightblue" stroke="midnightblue" points="1198.86,-10.7727 1188.58,-13.3306 1198.21,-17.7425 1198.86,-10.7727"/>
</g>
<!-- Node31&#45;&gt;Node29 -->
<g id="edge44" class="edge"><title>Node31&#45;&gt;Node29</title>
<path fill="none" stroke="midnightblue" d="M1288.92,-184.975C1287.37,-176.58 1284.95,-163.481 1282.95,-152.663"/>
<polygon fill="midnightblue" stroke="midnightblue" points="1286.33,-151.706 1281.07,-142.509 1279.45,-152.979 1286.33,-151.706"/>
</g>
<!-- Node32&#45;&gt;Node8 -->
<g id="edge50" class="edge"><title>Node32&#45;&gt;Node8</title>
<path fill="none" stroke="midnightblue" d="M1407.83,-125.519C1364.59,-115.389 1280.5,-95.6902 1227.88,-83.3646"/>
<polygon fill="midnightblue" stroke="midnightblue" points="1228.65,-79.951 1218.12,-81.0779 1227.06,-86.7665 1228.65,-79.951"/>
</g>
<!-- Node32&#45;&gt;Node11 -->
<g id="edge47" class="edge"><title>Node32&#45;&gt;Node11</title>
<path fill="none" stroke="midnightblue" d="M1419.88,-123.475C1401.91,-113.666 1372.18,-97.4346 1351.09,-85.925"/>
<polygon fill="midnightblue" stroke="midnightblue" points="1352.54,-82.7284 1342.09,-81.0091 1349.19,-88.8726 1352.54,-82.7284"/>
</g>
<!-- Node33 -->
<g id="node33" class="node"><title>Node33</title>
<polygon fill="white" stroke="#bfbfbf" points="1407.5,-62 1407.5,-81 1457.5,-81 1457.5,-62 1407.5,-62"/>
<text text-anchor="middle" x="1432.5" y="-69" font-family="Helvetica,sans-Serif" font-size="10.00">chrono</text>
</g>
<!-- Node32&#45;&gt;Node33 -->
<g id="edge48" class="edge"><title>Node32&#45;&gt;Node33</title>
<path fill="none" stroke="midnightblue" d="M1435.07,-123.475C1434.65,-115.08 1433.99,-101.981 1433.44,-91.1631"/>
<polygon fill="midnightblue" stroke="midnightblue" points="1436.93,-90.8201 1432.93,-81.0091 1429.94,-91.1727 1436.93,-90.8201"/>
</g>
<!-- Node34 -->
<g id="node34" class="node"><title>Node34</title>
<polygon fill="white" stroke="#bfbfbf" points="1475.5,-62 1475.5,-81 1531.5,-81 1531.5,-62 1475.5,-62"/>
<text text-anchor="middle" x="1503.5" y="-69" font-family="Helvetica,sans-Serif" font-size="10.00">sstream</text>
</g>
<!-- Node32&#45;&gt;Node34 -->
<g id="edge49" class="edge"><title>Node32&#45;&gt;Node34</title>
<path fill="none" stroke="midnightblue" d="M1445.24,-123.475C1455.85,-114.197 1473.02,-99.1706 1485.98,-87.831"/>
<polygon fill="midnightblue" stroke="midnightblue" points="1488.55,-90.2282 1493.78,-81.0091 1483.94,-84.9601 1488.55,-90.2282"/>
</g>
<!-- Node35 -->
<g id="node35" class="node"><title>Node35</title>
<polygon fill="white" stroke="#bfbfbf" points="1549.5,-56.5 1549.5,-86.5 1659.5,-86.5 1659.5,-56.5 1549.5,-56.5"/>
<text text-anchor="start" x="1557.5" y="-74.5" font-family="Helvetica,sans-Serif" font-size="10.00">boost/preprocessor</text>
<text text-anchor="middle" x="1604.5" y="-63.5" font-family="Helvetica,sans-Serif" font-size="10.00">/cat.hpp</text>
</g>
<!-- Node32&#45;&gt;Node35 -->
<g id="edge51" class="edge"><title>Node32&#45;&gt;Node35</title>
<path fill="none" stroke="midnightblue" d="M1459.71,-123.475C1484.53,-114.739 1523.81,-100.907 1555.21,-89.855"/>
<polygon fill="midnightblue" stroke="midnightblue" points="1556.4,-93.1453 1564.67,-86.523 1554.08,-86.5426 1556.4,-93.1453"/>
</g>
</g>
</svg>
