<?xml version="1.0" encoding="UTF-8" standalone="no"?>
<!DOCTYPE svg PUBLIC "-//W3C//DTD SVG 1.1//EN"
 "http://www.w3.org/Graphics/SVG/1.1/DTD/svg11.dtd">
<!-- Generated by graphviz version 2.38.0 (20140413.2041)
 -->
<!-- Title: probability_analysis.h Pages: 1 -->
<svg width="2015pt" height="408pt"
 viewBox="0.00 0.00 2015.00 408.00" xmlns="http://www.w3.org/2000/svg" xmlns:xlink="http://www.w3.org/1999/xlink">
<g id="graph0" class="graph" transform="scale(1 1) rotate(0) translate(4 404)">
<title>probability_analysis.h</title>
<polygon fill="white" stroke="none" points="-4,4 -4,-404 2011,-404 2011,4 -4,4"/>
<!-- Node1 -->
<g id="node1" class="node"><title>Node1</title>
<polygon fill="#bfbfbf" stroke="black" points="871.5,-380.5 871.5,-399.5 990.5,-399.5 990.5,-380.5 871.5,-380.5"/>
<text text-anchor="middle" x="931" y="-387.5" font-family="Helvetica,sans-Serif" font-size="10.00">probability_analysis.h</text>
</g>
<!-- Node2 -->
<g id="node2" class="node"><title>Node2</title>
<polygon fill="white" stroke="#bfbfbf" points="1806,-0.5 1806,-19.5 1848,-19.5 1848,-0.5 1806,-0.5"/>
<text text-anchor="middle" x="1827" y="-7.5" font-family="Helvetica,sans-Serif" font-size="10.00">utility</text>
</g>
<!-- Node1&#45;&gt;Node2 -->
<g id="edge1" class="edge"><title>Node1&#45;&gt;Node2</title>
<path fill="none" stroke="midnightblue" d="M990.769,-388.911C1216.86,-387.799 2007,-376.54 2007,-273.5 2007,-273.5 2007,-273.5 2007,-137.5 2007,-65.4969 1909.39,-30.9419 1857.93,-17.7269"/>
<polygon fill="midnightblue" stroke="midnightblue" points="1858.55,-14.2738 1848,-15.2942 1856.88,-21.0728 1858.55,-14.2738"/>
</g>
<!-- Node3 -->
<g id="node3" class="node"><title>Node3</title>
<polygon fill="white" stroke="#bfbfbf" points="726.5,-0.5 726.5,-19.5 773.5,-19.5 773.5,-0.5 726.5,-0.5"/>
<text text-anchor="middle" x="750" y="-7.5" font-family="Helvetica,sans-Serif" font-size="10.00">vector</text>
</g>
<!-- Node1&#45;&gt;Node3 -->
<g id="edge2" class="edge"><title>Node1&#45;&gt;Node3</title>
<path fill="none" stroke="midnightblue" d="M871.346,-387.895C665.864,-383.311 0,-361.654 0,-273.5 0,-273.5 0,-273.5 0,-137.5 0,-95.2351 12.8974,-77.9756 49,-56 106.311,-21.1152 583.095,-12.9531 715.825,-11.349"/>
<polygon fill="midnightblue" stroke="midnightblue" points="716.228,-14.8447 726.187,-11.2288 716.147,-7.84515 716.228,-14.8447"/>
</g>
<!-- Node4 -->
<g id="node4" class="node"><title>Node4</title>
<g id="a_node4"><a xlink:href="analysis_8h.xhtml" target="_top" xlink:title="Common facilities for all analysis classes. ">
<polygon fill="white" stroke="black" points="142,-196 142,-215 206,-215 206,-196 142,-196"/>
<text text-anchor="middle" x="174" y="-203" font-family="Helvetica,sans-Serif" font-size="10.00">analysis.h</text>
</a>
</g>
</g>
<!-- Node1&#45;&gt;Node4 -->
<g id="edge3" class="edge"><title>Node1&#45;&gt;Node4</title>
<path fill="none" stroke="midnightblue" d="M871.384,-389.008C771.917,-387.905 566.315,-380.861 397,-344 325.021,-328.33 301.223,-330.423 241,-288 216.517,-270.753 195.978,-242.293 184.331,-223.977"/>
<polygon fill="midnightblue" stroke="midnightblue" points="187.299,-222.121 179.078,-215.437 181.336,-225.788 187.299,-222.121"/>
</g>
<!-- Node10 -->
<g id="node10" class="node"><title>Node10</title>
<g id="a_node10"><a xlink:href="bdd_8h.xhtml" target="_top" xlink:title="Fault tree analysis with the Binary Decision Diagram algorithms. ">
<polygon fill="white" stroke="black" points="826,-196 826,-215 870,-215 870,-196 826,-196"/>
<text text-anchor="middle" x="848" y="-203" font-family="Helvetica,sans-Serif" font-size="10.00">bdd.h</text>
</a>
</g>
</g>
<!-- Node1&#45;&gt;Node10 -->
<g id="edge10" class="edge"><title>Node1&#45;&gt;Node10</title>
<path fill="none" stroke="midnightblue" d="M926.997,-380.198C914.151,-351.952 873.787,-263.2 856.259,-224.661"/>
<polygon fill="midnightblue" stroke="midnightblue" points="859.289,-222.868 851.963,-215.214 852.917,-225.766 859.289,-222.868"/>
</g>
<!-- Node18 -->
<g id="node18" class="node"><title>Node18</title>
<g id="a_node18"><a xlink:href="pdag_8h.xhtml" target="_top" xlink:title="Classes and facilities to represent fault trees as PDAGs with event and gate indices instead of ID na...">
<polygon fill="white" stroke="black" points="1300,-129 1300,-148 1350,-148 1350,-129 1300,-129"/>
<text text-anchor="middle" x="1325" y="-136" font-family="Helvetica,sans-Serif" font-size="10.00">pdag.h</text>
</a>
</g>
</g>
<!-- Node1&#45;&gt;Node18 -->
<g id="edge76" class="edge"><title>Node1&#45;&gt;Node18</title>
<path fill="none" stroke="midnightblue" d="M990.863,-384.154C1083.13,-373.092 1257.53,-337.11 1335,-221 1347.63,-202.066 1340.62,-175.048 1333.55,-157.394"/>
<polygon fill="midnightblue" stroke="midnightblue" points="1336.75,-155.97 1329.53,-148.214 1330.33,-158.778 1336.75,-155.97"/>
</g>
<!-- Node28 -->
<g id="node28" class="node"><title>Node28</title>
<g id="a_node28"><a xlink:href="fault__tree__analysis_8h.xhtml" target="_top" xlink:title="Fault Tree Analysis. ">
<polygon fill="white" stroke="black" points="406.5,-324.5 406.5,-343.5 521.5,-343.5 521.5,-324.5 406.5,-324.5"/>
<text text-anchor="middle" x="464" y="-331.5" font-family="Helvetica,sans-Serif" font-size="10.00">fault_tree_analysis.h</text>
</a>
</g>
</g>
<!-- Node1&#45;&gt;Node28 -->
<g id="edge45" class="edge"><title>Node1&#45;&gt;Node28</title>
<path fill="none" stroke="midnightblue" d="M871.38,-382.106C784.398,-372.048 623.149,-353.403 531.774,-342.837"/>
<polygon fill="midnightblue" stroke="midnightblue" points="532.136,-339.355 521.8,-341.684 531.332,-346.309 532.136,-339.355"/>
</g>
<!-- Node5 -->
<g id="node5" class="node"><title>Node5</title>
<polygon fill="white" stroke="#bfbfbf" points="1114,-0.5 1114,-19.5 1166,-19.5 1166,-0.5 1114,-0.5"/>
<text text-anchor="middle" x="1140" y="-7.5" font-family="Helvetica,sans-Serif" font-size="10.00">cassert</text>
</g>
<!-- Node4&#45;&gt;Node5 -->
<g id="edge4" class="edge"><title>Node4&#45;&gt;Node5</title>
<path fill="none" stroke="midnightblue" d="M188.053,-195.926C215.299,-179.629 277.596,-143.939 334,-123 616.554,-18.105 987.927,-10.2578 1103.85,-10.5553"/>
<polygon fill="midnightblue" stroke="midnightblue" points="1103.94,-14.0557 1113.95,-10.6043 1103.97,-7.05576 1103.94,-14.0557"/>
</g>
<!-- Node6 -->
<g id="node6" class="node"><title>Node6</title>
<polygon fill="white" stroke="#bfbfbf" points="128,-62 128,-81 172,-81 172,-62 128,-62"/>
<text text-anchor="middle" x="150" y="-69" font-family="Helvetica,sans-Serif" font-size="10.00">string</text>
</g>
<!-- Node4&#45;&gt;Node6 -->
<g id="edge5" class="edge"><title>Node4&#45;&gt;Node6</title>
<path fill="none" stroke="midnightblue" d="M163.576,-195.705C153.547,-186.498 139.042,-171.029 133,-154 125.475,-132.793 133.39,-107.237 140.749,-90.4656"/>
<polygon fill="midnightblue" stroke="midnightblue" points="143.985,-91.8099 145.115,-81.2756 137.662,-88.8057 143.985,-91.8099"/>
</g>
<!-- Node7 -->
<g id="node7" class="node"><title>Node7</title>
<polygon fill="white" stroke="#bfbfbf" points="693,-62 693,-81 821,-81 821,-62 693,-62"/>
<text text-anchor="middle" x="757" y="-69" font-family="Helvetica,sans-Serif" font-size="10.00">boost/noncopyable.hpp</text>
</g>
<!-- Node4&#45;&gt;Node7 -->
<g id="edge6" class="edge"><title>Node4&#45;&gt;Node7</title>
<path fill="none" stroke="midnightblue" d="M193.659,-195.97C232.998,-179.26 324.539,-142.178 405,-123 526.192,-94.1144 560.027,-106.989 683,-87 690.457,-85.7878 698.313,-84.3853 706.009,-82.9398"/>
<polygon fill="midnightblue" stroke="midnightblue" points="706.824,-86.3474 715.986,-81.0273 705.506,-79.4726 706.824,-86.3474"/>
</g>
<!-- Node8 -->
<g id="node8" class="node"><title>Node8</title>
<g id="a_node8"><a xlink:href="settings_8h.xhtml" target="_top" xlink:title="Builder for settings. ">
<polygon fill="white" stroke="black" points="142,-129 142,-148 206,-148 206,-129 142,-129"/>
<text text-anchor="middle" x="174" y="-136" font-family="Helvetica,sans-Serif" font-size="10.00">settings.h</text>
</a>
</g>
</g>
<!-- Node4&#45;&gt;Node8 -->
<g id="edge7" class="edge"><title>Node4&#45;&gt;Node8</title>
<path fill="none" stroke="midnightblue" d="M174,-195.734C174,-186.183 174,-170.618 174,-158.283"/>
<polygon fill="midnightblue" stroke="midnightblue" points="177.5,-158.127 174,-148.127 170.5,-158.127 177.5,-158.127"/>
</g>
<!-- Node8&#45;&gt;Node6 -->
<g id="edge9" class="edge"><title>Node8&#45;&gt;Node6</title>
<path fill="none" stroke="midnightblue" d="M170.763,-128.734C167.165,-118.988 161.254,-102.981 156.658,-90.5318"/>
<polygon fill="midnightblue" stroke="midnightblue" points="159.933,-89.2959 153.185,-81.1273 153.366,-91.7206 159.933,-89.2959"/>
</g>
<!-- Node9 -->
<g id="node9" class="node"><title>Node9</title>
<polygon fill="white" stroke="#bfbfbf" points="232.5,-62 232.5,-81 281.5,-81 281.5,-62 232.5,-62"/>
<text text-anchor="middle" x="257" y="-69" font-family="Helvetica,sans-Serif" font-size="10.00">cstdint</text>
</g>
<!-- Node8&#45;&gt;Node9 -->
<g id="edge8" class="edge"><title>Node8&#45;&gt;Node9</title>
<path fill="none" stroke="midnightblue" d="M185.194,-128.734C198.634,-118.208 221.4,-100.379 237.696,-87.6174"/>
<polygon fill="midnightblue" stroke="midnightblue" points="240.269,-90.0486 245.984,-81.1273 235.953,-84.5374 240.269,-90.0486"/>
</g>
<!-- Node10&#45;&gt;Node2 -->
<g id="edge16" class="edge"><title>Node10&#45;&gt;Node2</title>
<path fill="none" stroke="midnightblue" d="M870.096,-204.004C956.119,-201.817 1268.35,-191.409 1359,-154 1379.15,-145.685 1376.81,-131.22 1397,-123 1480.27,-89.0915 1728.93,-142.075 1800,-87 1817.52,-73.4269 1823.69,-47.593 1825.86,-29.8433"/>
<polygon fill="midnightblue" stroke="midnightblue" points="1829.35,-30.0616 1826.77,-19.7873 1822.38,-29.4319 1829.35,-30.0616"/>
</g>
<!-- Node10&#45;&gt;Node3 -->
<g id="edge17" class="edge"><title>Node10&#45;&gt;Node3</title>
<path fill="none" stroke="midnightblue" d="M825.991,-202.682C773.699,-196.966 643.712,-174.142 608,-87 602.775,-74.2513 599.861,-67.1169 608,-56 632.606,-22.3904 682.461,-13.2597 716.053,-11.1096"/>
<polygon fill="midnightblue" stroke="midnightblue" points="716.507,-14.5924 726.335,-10.6346 716.184,-7.59987 716.507,-14.5924"/>
</g>
<!-- Node10&#45;&gt;Node7 -->
<g id="edge19" class="edge"><title>Node10&#45;&gt;Node7</title>
<path fill="none" stroke="midnightblue" d="M825.955,-203.419C795.128,-200.58 740.107,-190.39 715,-154 700.184,-132.526 721.555,-105.143 738.85,-88.2182"/>
<polygon fill="midnightblue" stroke="midnightblue" points="741.42,-90.6074 746.364,-81.237 736.656,-85.4789 741.42,-90.6074"/>
</g>
<!-- Node10&#45;&gt;Node8 -->
<g id="edge44" class="edge"><title>Node10&#45;&gt;Node8</title>
<path fill="none" stroke="midnightblue" d="M825.958,-202.374C729.746,-193.096 345.643,-156.053 216.562,-143.605"/>
<polygon fill="midnightblue" stroke="midnightblue" points="216.582,-140.09 206.292,-142.614 215.91,-147.058 216.582,-140.09"/>
</g>
<!-- Node11 -->
<g id="node11" class="node"><title>Node11</title>
<polygon fill="white" stroke="#bfbfbf" points="879.5,-129 879.5,-148 926.5,-148 926.5,-129 879.5,-129"/>
<text text-anchor="middle" x="903" y="-136" font-family="Helvetica,sans-Serif" font-size="10.00">cmath</text>
</g>
<!-- Node10&#45;&gt;Node11 -->
<g id="edge11" class="edge"><title>Node10&#45;&gt;Node11</title>
<path fill="none" stroke="midnightblue" d="M855.418,-195.734C863.994,-185.598 878.301,-168.69 888.991,-156.056"/>
<polygon fill="midnightblue" stroke="midnightblue" points="891.912,-158.022 895.7,-148.127 886.569,-153.5 891.912,-158.022"/>
</g>
<!-- Node12 -->
<g id="node12" class="node"><title>Node12</title>
<polygon fill="white" stroke="#bfbfbf" points="1345,-0.5 1345,-19.5 1407,-19.5 1407,-0.5 1345,-0.5"/>
<text text-anchor="middle" x="1376" y="-7.5" font-family="Helvetica,sans-Serif" font-size="10.00">algorithm</text>
</g>
<!-- Node10&#45;&gt;Node12 -->
<g id="edge12" class="edge"><title>Node10&#45;&gt;Node12</title>
<path fill="none" stroke="midnightblue" d="M870.04,-201.481C912.994,-195.098 1005.35,-178.754 1024,-154 1032.29,-142.996 1032.58,-133.782 1024,-123 979.702,-67.3152 912.298,-142.685 868,-87 859.423,-76.2178 858.697,-66.1631 868,-56 883.722,-38.8233 1216.74,-19.4843 1334.88,-13.1397"/>
<polygon fill="midnightblue" stroke="midnightblue" points="1335.18,-16.629 1344.98,-12.6012 1334.81,-9.63897 1335.18,-16.629"/>
</g>
<!-- Node13 -->
<g id="node13" class="node"><title>Node13</title>
<polygon fill="white" stroke="#bfbfbf" points="944.5,-129 944.5,-148 1015.5,-148 1015.5,-129 944.5,-129"/>
<text text-anchor="middle" x="980" y="-136" font-family="Helvetica,sans-Serif" font-size="10.00">forward_list</text>
</g>
<!-- Node10&#45;&gt;Node13 -->
<g id="edge13" class="edge"><title>Node10&#45;&gt;Node13</title>
<path fill="none" stroke="midnightblue" d="M865.529,-195.869C888.014,-184.796 927.228,-165.486 953.401,-152.598"/>
<polygon fill="midnightblue" stroke="midnightblue" points="954.974,-155.725 962.399,-148.167 951.881,-149.445 954.974,-155.725"/>
</g>
<!-- Node14 -->
<g id="node14" class="node"><title>Node14</title>
<polygon fill="white" stroke="#bfbfbf" points="617.5,-62 617.5,-81 674.5,-81 674.5,-62 617.5,-62"/>
<text text-anchor="middle" x="646" y="-69" font-family="Helvetica,sans-Serif" font-size="10.00">memory</text>
</g>
<!-- Node10&#45;&gt;Node14 -->
<g id="edge14" class="edge"><title>Node10&#45;&gt;Node14</title>
<path fill="none" stroke="midnightblue" d="M825.831,-200.702C796.352,-194.783 743.708,-181.109 707,-154 683.849,-136.903 665.468,-108.579 655.157,-90.2298"/>
<polygon fill="midnightblue" stroke="midnightblue" points="658.11,-88.3329 650.279,-81.1965 651.951,-91.6587 658.11,-88.3329"/>
</g>
<!-- Node15 -->
<g id="node15" class="node"><title>Node15</title>
<polygon fill="white" stroke="#bfbfbf" points="877.5,-62 877.5,-81 970.5,-81 970.5,-62 877.5,-62"/>
<text text-anchor="middle" x="924" y="-69" font-family="Helvetica,sans-Serif" font-size="10.00">unordered_map</text>
</g>
<!-- Node10&#45;&gt;Node15 -->
<g id="edge15" class="edge"><title>Node10&#45;&gt;Node15</title>
<path fill="none" stroke="midnightblue" d="M870.214,-203.439C925.617,-200.28 1067.51,-188.879 1096,-154 1104.72,-143.33 1104.26,-134.03 1096,-123 1092.01,-117.668 1016.43,-96.8817 966.797,-83.6963"/>
<polygon fill="midnightblue" stroke="midnightblue" points="967.504,-80.2628 956.941,-81.0869 965.712,-87.0297 967.504,-80.2628"/>
</g>
<!-- Node16 -->
<g id="node16" class="node"><title>Node16</title>
<polygon fill="white" stroke="#bfbfbf" points="414,-129 414,-148 554,-148 554,-129 414,-129"/>
<text text-anchor="middle" x="484" y="-136" font-family="Helvetica,sans-Serif" font-size="10.00">boost/functional/hash.hpp</text>
</g>
<!-- Node10&#45;&gt;Node16 -->
<g id="edge18" class="edge"><title>Node10&#45;&gt;Node16</title>
<path fill="none" stroke="midnightblue" d="M825.778,-200.532C770.213,-190.609 623.827,-164.469 541.8,-149.821"/>
<polygon fill="midnightblue" stroke="midnightblue" points="542.343,-146.363 531.883,-148.051 541.112,-153.254 542.343,-146.363"/>
</g>
<!-- Node17 -->
<g id="node17" class="node"><title>Node17</title>
<polygon fill="white" stroke="#bfbfbf" points="724.5,-123.5 724.5,-153.5 861.5,-153.5 861.5,-123.5 724.5,-123.5"/>
<text text-anchor="start" x="732.5" y="-141.5" font-family="Helvetica,sans-Serif" font-size="10.00">boost/smart_ptr/intrusive</text>
<text text-anchor="middle" x="793" y="-130.5" font-family="Helvetica,sans-Serif" font-size="10.00">_ptr.hpp</text>
</g>
<!-- Node10&#45;&gt;Node17 -->
<g id="edge20" class="edge"><title>Node10&#45;&gt;Node17</title>
<path fill="none" stroke="midnightblue" d="M840.582,-195.734C833.149,-186.949 821.412,-173.078 811.456,-161.311"/>
<polygon fill="midnightblue" stroke="midnightblue" points="814.053,-158.962 804.921,-153.589 808.709,-163.484 814.053,-158.962"/>
</g>
<!-- Node10&#45;&gt;Node18 -->
<g id="edge21" class="edge"><title>Node10&#45;&gt;Node18</title>
<path fill="none" stroke="midnightblue" d="M870.05,-201.495C945.913,-191.158 1196.6,-156.997 1289.74,-144.304"/>
<polygon fill="midnightblue" stroke="midnightblue" points="1290.36,-147.753 1299.79,-142.935 1289.41,-140.817 1290.36,-147.753"/>
</g>
<!-- Node18&#45;&gt;Node2 -->
<g id="edge28" class="edge"><title>Node18&#45;&gt;Node2</title>
<path fill="none" stroke="midnightblue" d="M1344.93,-128.924C1350.96,-126.651 1357.66,-124.433 1364,-123 1452.13,-103.079 1689.87,-130.619 1769,-87 1792.44,-74.0797 1809.36,-47.2828 1818.68,-29.2167"/>
<polygon fill="midnightblue" stroke="midnightblue" points="1821.94,-30.5136 1823.17,-19.9905 1815.65,-27.4491 1821.94,-30.5136"/>
</g>
<!-- Node18&#45;&gt;Node3 -->
<g id="edge29" class="edge"><title>Node18&#45;&gt;Node3</title>
<path fill="none" stroke="midnightblue" d="M1302.39,-128.854C1297.04,-126.874 1291.33,-124.817 1286,-123 1234.9,-105.587 1217.56,-112.529 1170,-87 1150.8,-76.6922 1152.07,-64.5033 1132,-56 1069.48,-29.5087 865.216,-16.7084 783.871,-12.5649"/>
<polygon fill="midnightblue" stroke="midnightblue" points="783.843,-9.05924 773.682,-12.0586 783.496,-16.0506 783.843,-9.05924"/>
</g>
<!-- Node18&#45;&gt;Node7 -->
<g id="edge31" class="edge"><title>Node18&#45;&gt;Node7</title>
<path fill="none" stroke="midnightblue" d="M1299.96,-134.91C1231.03,-127.74 1032.64,-106.848 868,-87 856.016,-85.5553 843.313,-83.9581 830.946,-82.3674"/>
<polygon fill="midnightblue" stroke="midnightblue" points="831.026,-78.8487 820.66,-81.0363 830.128,-85.7908 831.026,-78.8487"/>
</g>
<!-- Node18&#45;&gt;Node9 -->
<g id="edge22" class="edge"><title>Node18&#45;&gt;Node9</title>
<path fill="none" stroke="midnightblue" d="M1299.91,-135.973C1158.03,-127.338 456.604,-84.6482 291.738,-74.6142"/>
<polygon fill="midnightblue" stroke="midnightblue" points="291.86,-71.1152 281.666,-74.0012 291.435,-78.1023 291.86,-71.1152"/>
</g>
<!-- Node18&#45;&gt;Node12 -->
<g id="edge24" class="edge"><title>Node18&#45;&gt;Node12</title>
<path fill="none" stroke="midnightblue" d="M1335.54,-128.665C1345.76,-119.426 1360.74,-103.933 1368,-87 1375.83,-68.7499 1377.24,-45.8613 1377.06,-29.9964"/>
<polygon fill="midnightblue" stroke="midnightblue" points="1380.55,-29.7286 1376.71,-19.8524 1373.55,-29.9648 1380.55,-29.7286"/>
</g>
<!-- Node18&#45;&gt;Node14 -->
<g id="edge26" class="edge"><title>Node18&#45;&gt;Node14</title>
<path fill="none" stroke="midnightblue" d="M1299.95,-135.951C1189.02,-129.035 744.916,-100.723 684,-87 680.997,-86.3235 677.915,-85.4569 674.868,-84.4847"/>
<polygon fill="midnightblue" stroke="midnightblue" points="675.987,-81.168 665.392,-81.122 673.646,-87.7649 675.987,-81.168"/>
</g>
<!-- Node18&#45;&gt;Node15 -->
<g id="edge27" class="edge"><title>Node18&#45;&gt;Node15</title>
<path fill="none" stroke="midnightblue" d="M1299.72,-132.532C1284.71,-129.634 1265.29,-125.975 1248,-123 1222.22,-118.565 1066.48,-94.4719 980.655,-81.2309"/>
<polygon fill="midnightblue" stroke="midnightblue" points="980.965,-77.7375 970.549,-79.672 979.898,-84.6557 980.965,-77.7375"/>
</g>
<!-- Node19 -->
<g id="node19" class="node"><title>Node19</title>
<polygon fill="white" stroke="#bfbfbf" points="1855.5,-62 1855.5,-81 1902.5,-81 1902.5,-62 1855.5,-62"/>
<text text-anchor="middle" x="1879" y="-69" font-family="Helvetica,sans-Serif" font-size="10.00">cstdlib</text>
</g>
<!-- Node18&#45;&gt;Node19 -->
<g id="edge23" class="edge"><title>Node18&#45;&gt;Node19</title>
<path fill="none" stroke="midnightblue" d="M1350.21,-131.715C1363.97,-128.735 1381.35,-125.262 1397,-123 1576.29,-97.0786 1623.58,-112.006 1803,-87 1816.96,-85.0541 1832.25,-82.2668 1845.43,-79.6551"/>
<polygon fill="midnightblue" stroke="midnightblue" points="1846.37,-83.0345 1855.48,-77.6175 1844.98,-76.174 1846.37,-83.0345"/>
</g>
<!-- Node20 -->
<g id="node20" class="node"><title>Node20</title>
<polygon fill="white" stroke="#bfbfbf" points="1313,-62 1313,-81 1359,-81 1359,-62 1313,-62"/>
<text text-anchor="middle" x="1336" y="-69" font-family="Helvetica,sans-Serif" font-size="10.00">iosfwd</text>
</g>
<!-- Node18&#45;&gt;Node20 -->
<g id="edge25" class="edge"><title>Node18&#45;&gt;Node20</title>
<path fill="none" stroke="midnightblue" d="M1326.48,-128.734C1328.1,-119.183 1330.73,-103.618 1332.82,-91.2829"/>
<polygon fill="midnightblue" stroke="midnightblue" points="1336.32,-91.5711 1334.54,-81.1273 1329.42,-90.4031 1336.32,-91.5711"/>
</g>
<!-- Node21 -->
<g id="node21" class="node"><title>Node21</title>
<polygon fill="white" stroke="#bfbfbf" points="1531,-56.5 1531,-86.5 1641,-86.5 1641,-56.5 1531,-56.5"/>
<text text-anchor="start" x="1539" y="-74.5" font-family="Helvetica,sans-Serif" font-size="10.00">boost/container/flat</text>
<text text-anchor="middle" x="1586" y="-63.5" font-family="Helvetica,sans-Serif" font-size="10.00">_set.hpp</text>
</g>
<!-- Node18&#45;&gt;Node21 -->
<g id="edge30" class="edge"><title>Node18&#45;&gt;Node21</title>
<path fill="none" stroke="midnightblue" d="M1346.69,-128.856C1352.28,-126.789 1358.32,-124.693 1364,-123 1371.66,-120.715 1458.36,-101.136 1521.1,-87.0422"/>
<polygon fill="midnightblue" stroke="midnightblue" points="1521.96,-90.4368 1530.95,-84.8309 1520.43,-83.6068 1521.96,-90.4368"/>
</g>
<!-- Node22 -->
<g id="node22" class="node"><title>Node22</title>
<polygon fill="white" stroke="#bfbfbf" points="1179.5,-56.5 1179.5,-86.5 1294.5,-86.5 1294.5,-56.5 1179.5,-56.5"/>
<text text-anchor="start" x="1187.5" y="-74.5" font-family="Helvetica,sans-Serif" font-size="10.00">boost/range/adaptor</text>
<text text-anchor="middle" x="1237" y="-63.5" font-family="Helvetica,sans-Serif" font-size="10.00">/transformed.hpp</text>
</g>
<!-- Node18&#45;&gt;Node22 -->
<g id="edge32" class="edge"><title>Node18&#45;&gt;Node22</title>
<path fill="none" stroke="midnightblue" d="M1313.13,-128.734C1300.67,-119.527 1280.64,-104.733 1264.25,-92.6293"/>
<polygon fill="midnightblue" stroke="midnightblue" points="1266.2,-89.7151 1256.07,-86.589 1262.04,-95.3457 1266.2,-89.7151"/>
</g>
<!-- Node23 -->
<g id="node23" class="node"><title>Node23</title>
<g id="a_node23"><a xlink:href="find__iterator_8h.xhtml" target="_top" xlink:title="Convenience iterator adaptor to wrap find calls and results. ">
<polygon fill="white" stroke="black" points="1659.5,-62 1659.5,-81 1760.5,-81 1760.5,-62 1659.5,-62"/>
<text text-anchor="middle" x="1710" y="-69" font-family="Helvetica,sans-Serif" font-size="10.00">ext/find_iterator.h</text>
</a>
</g>
</g>
<!-- Node18&#45;&gt;Node23 -->
<g id="edge33" class="edge"><title>Node18&#45;&gt;Node23</title>
<path fill="none" stroke="midnightblue" d="M1345.37,-128.919C1351.29,-126.701 1357.83,-124.515 1364,-123 1488.42,-92.4739 1523.98,-110.083 1650,-87 1655.74,-85.9486 1661.75,-84.6884 1667.66,-83.3558"/>
<polygon fill="midnightblue" stroke="midnightblue" points="1668.5,-86.7536 1677.44,-81.069 1666.91,-79.9373 1668.5,-86.7536"/>
</g>
<!-- Node24 -->
<g id="node24" class="node"><title>Node24</title>
<g id="a_node24"><a xlink:href="index__map_8h.xhtml" target="_top" xlink:title="Non&#45;zero based Index&#45;&gt;Value map adapter on sequential containers. ">
<polygon fill="white" stroke="black" points="1027,-62 1027,-81 1123,-81 1123,-62 1027,-62"/>
<text text-anchor="middle" x="1075" y="-69" font-family="Helvetica,sans-Serif" font-size="10.00">ext/index_map.h</text>
</a>
</g>
</g>
<!-- Node18&#45;&gt;Node24 -->
<g id="edge35" class="edge"><title>Node18&#45;&gt;Node24</title>
<path fill="none" stroke="midnightblue" d="M1303.29,-128.9C1297.7,-126.832 1291.67,-124.725 1286,-123 1278.06,-120.583 1180.98,-97.5444 1121.31,-83.4335"/>
<polygon fill="midnightblue" stroke="midnightblue" points="1121.89,-79.9743 1111.35,-81.0799 1120.28,-86.7865 1121.89,-79.9743"/>
</g>
<!-- Node25 -->
<g id="node25" class="node"><title>Node25</title>
<g id="a_node25"><a xlink:href="linear__map_8h.xhtml" target="_top" xlink:title="Implementation of a vector&#45;based map for a small number of entries. ">
<polygon fill="white" stroke="black" points="1415.5,-62 1415.5,-81 1512.5,-81 1512.5,-62 1415.5,-62"/>
<text text-anchor="middle" x="1464" y="-69" font-family="Helvetica,sans-Serif" font-size="10.00">ext/linear_map.h</text>
</a>
</g>
</g>
<!-- Node18&#45;&gt;Node25 -->
<g id="edge37" class="edge"><title>Node18&#45;&gt;Node25</title>
<path fill="none" stroke="midnightblue" d="M1343.46,-128.869C1367.24,-117.748 1408.79,-98.3167 1436.35,-85.4286"/>
<polygon fill="midnightblue" stroke="midnightblue" points="1437.89,-88.5737 1445.47,-81.1672 1434.92,-82.2328 1437.89,-88.5737"/>
</g>
<!-- Node23&#45;&gt;Node2 -->
<g id="edge34" class="edge"><title>Node23&#45;&gt;Node2</title>
<path fill="none" stroke="midnightblue" d="M1726.76,-61.9751C1746.22,-52.078 1778.55,-35.6416 1801.21,-24.1151"/>
<polygon fill="midnightblue" stroke="midnightblue" points="1802.94,-27.1619 1810.27,-19.5091 1799.77,-20.9224 1802.94,-27.1619"/>
</g>
<!-- Node24&#45;&gt;Node3 -->
<g id="edge36" class="edge"><title>Node24&#45;&gt;Node3</title>
<path fill="none" stroke="midnightblue" d="M1040,-61.9252C1031.21,-59.8789 1021.78,-57.7754 1013,-56 930.978,-39.4074 833.752,-23.8241 783.623,-16.0881"/>
<polygon fill="midnightblue" stroke="midnightblue" points="784.079,-12.6172 773.664,-14.5589 783.017,-19.5361 784.079,-12.6172"/>
</g>
<!-- Node25&#45;&gt;Node2 -->
<g id="edge43" class="edge"><title>Node25&#45;&gt;Node2</title>
<path fill="none" stroke="midnightblue" d="M1495.78,-61.9553C1504.26,-59.8397 1513.45,-57.6956 1522,-56 1621.18,-36.3355 1740.07,-21.1891 1795.57,-14.6006"/>
<polygon fill="midnightblue" stroke="midnightblue" points="1796.28,-18.0415 1805.8,-13.3982 1795.46,-11.0894 1796.28,-18.0415"/>
</g>
<!-- Node25&#45;&gt;Node3 -->
<g id="edge42" class="edge"><title>Node25&#45;&gt;Node3</title>
<path fill="none" stroke="midnightblue" d="M1415.26,-62.3926C1400.14,-60.0795 1383.41,-57.7224 1368,-56 1145.87,-31.1747 877.219,-17.0042 783.884,-12.5462"/>
<polygon fill="midnightblue" stroke="midnightblue" points="783.789,-9.03797 773.635,-12.0623 783.459,-16.0302 783.789,-9.03797"/>
</g>
<!-- Node25&#45;&gt;Node5 -->
<g id="edge38" class="edge"><title>Node25&#45;&gt;Node5</title>
<path fill="none" stroke="midnightblue" d="M1417.58,-61.9751C1352.38,-50.0013 1235.06,-28.4561 1176.01,-17.6136"/>
<polygon fill="midnightblue" stroke="midnightblue" points="1176.5,-14.1445 1166.03,-15.7807 1175.24,-21.0294 1176.5,-14.1445"/>
</g>
<!-- Node25&#45;&gt;Node12 -->
<g id="edge39" class="edge"><title>Node25&#45;&gt;Node12</title>
<path fill="none" stroke="midnightblue" d="M1451.39,-61.9751C1437.28,-52.4315 1414.17,-36.8073 1397.25,-25.3683"/>
<polygon fill="midnightblue" stroke="midnightblue" points="1398.83,-22.2109 1388.58,-19.5091 1394.91,-28.0098 1398.83,-22.2109"/>
</g>
<!-- Node26 -->
<g id="node26" class="node"><title>Node26</title>
<polygon fill="white" stroke="#bfbfbf" points="1425.5,-0.5 1425.5,-19.5 1502.5,-19.5 1502.5,-0.5 1425.5,-0.5"/>
<text text-anchor="middle" x="1464" y="-7.5" font-family="Helvetica,sans-Serif" font-size="10.00">initializer_list</text>
</g>
<!-- Node25&#45;&gt;Node26 -->
<g id="edge40" class="edge"><title>Node25&#45;&gt;Node26</title>
<path fill="none" stroke="midnightblue" d="M1464,-61.9751C1464,-53.5803 1464,-40.4806 1464,-29.6631"/>
<polygon fill="midnightblue" stroke="midnightblue" points="1467.5,-29.5091 1464,-19.5091 1460.5,-29.5091 1467.5,-29.5091"/>
</g>
<!-- Node27 -->
<g id="node27" class="node"><title>Node27</title>
<polygon fill="white" stroke="#bfbfbf" points="1521,-0.5 1521,-19.5 1585,-19.5 1585,-0.5 1521,-0.5"/>
<text text-anchor="middle" x="1553" y="-7.5" font-family="Helvetica,sans-Serif" font-size="10.00">stdexcept</text>
</g>
<!-- Node25&#45;&gt;Node27 -->
<g id="edge41" class="edge"><title>Node25&#45;&gt;Node27</title>
<path fill="none" stroke="midnightblue" d="M1476.75,-61.9751C1491.03,-52.4315 1514.4,-36.8073 1531.51,-25.3683"/>
<polygon fill="midnightblue" stroke="midnightblue" points="1533.9,-27.9766 1540.27,-19.5091 1530.01,-22.1572 1533.9,-27.9766"/>
</g>
<!-- Node28&#45;&gt;Node3 -->
<g id="edge49" class="edge"><title>Node28&#45;&gt;Node3</title>
<path fill="none" stroke="midnightblue" d="M406.353,-331.949C343.752,-329.119 241.766,-319.522 160,-288 99.1566,-264.544 38,-271.708 38,-206.5 38,-206.5 38,-206.5 38,-137.5 38,-93.5511 55.8304,-77.7851 94,-56 148.25,-25.0373 589.249,-14.1252 716.029,-11.6113"/>
<polygon fill="midnightblue" stroke="midnightblue" points="716.365,-15.1055 726.296,-11.4126 716.23,-8.1068 716.365,-15.1055"/>
</g>
<!-- Node28&#45;&gt;Node4 -->
<g id="edge52" class="edge"><title>Node28&#45;&gt;Node4</title>
<path fill="none" stroke="midnightblue" d="M416.537,-324.466C382.328,-317.307 335.586,-305.426 297,-288 257.046,-269.956 215.543,-239.615 192.417,-221.482"/>
<polygon fill="midnightblue" stroke="midnightblue" points="194.5,-218.667 184.495,-215.181 190.142,-224.145 194.5,-218.667"/>
</g>
<!-- Node28&#45;&gt;Node8 -->
<g id="edge63" class="edge"><title>Node28&#45;&gt;Node8</title>
<path fill="none" stroke="midnightblue" d="M406.03,-327.041C360.049,-320.968 294.794,-309.311 241,-288 188.484,-267.195 160.465,-270.36 133,-221 120.558,-198.639 140.15,-172.041 156.298,-155.461"/>
<polygon fill="midnightblue" stroke="midnightblue" points="159.054,-157.664 163.794,-148.189 154.179,-152.64 159.054,-157.664"/>
</g>
<!-- Node28&#45;&gt;Node14 -->
<g id="edge47" class="edge"><title>Node28&#45;&gt;Node14</title>
<path fill="none" stroke="midnightblue" d="M460.636,-324.359C453.946,-308.374 437.391,-274.248 412,-257 348.567,-213.91 211.857,-254.713 253,-190 262.414,-175.193 379.337,-128.498 396,-123 468.821,-98.9697 557.527,-84.3412 607.299,-77.3912"/>
<polygon fill="midnightblue" stroke="midnightblue" points="607.875,-80.8451 617.31,-76.0241 606.928,-73.9095 607.875,-80.8451"/>
</g>
<!-- Node28&#45;&gt;Node18 -->
<g id="edge53" class="edge"><title>Node28&#45;&gt;Node18</title>
<path fill="none" stroke="midnightblue" d="M521.624,-329.514C703.844,-317.939 1258.84,-278.235 1314,-221 1329.92,-204.485 1330.19,-176.6 1328.18,-158.121"/>
<polygon fill="midnightblue" stroke="midnightblue" points="1331.62,-157.43 1326.76,-148.016 1324.69,-158.407 1331.62,-157.43"/>
</g>
<!-- Node28&#45;&gt;Node19 -->
<g id="edge46" class="edge"><title>Node28&#45;&gt;Node19</title>
<path fill="none" stroke="midnightblue" d="M521.933,-332.973C637.484,-332.059 904.47,-325.636 1125,-288 1345.02,-250.45 1394.59,-216.032 1609,-154 1694.37,-129.302 1794.4,-98.6594 1845.4,-82.9153"/>
<polygon fill="midnightblue" stroke="midnightblue" points="1846.7,-86.177 1855.22,-79.8803 1844.63,-79.4891 1846.7,-86.177"/>
</g>
<!-- Node29 -->
<g id="node29" class="node"><title>Node29</title>
<polygon fill="white" stroke="#bfbfbf" points="317,-263 317,-282 403,-282 403,-263 317,-263"/>
<text text-anchor="middle" x="360" y="-270" font-family="Helvetica,sans-Serif" font-size="10.00">unordered_set</text>
</g>
<!-- Node28&#45;&gt;Node29 -->
<g id="edge48" class="edge"><title>Node28&#45;&gt;Node29</title>
<path fill="none" stroke="midnightblue" d="M449.099,-324.475C432.032,-314.711 403.839,-298.581 383.738,-287.081"/>
<polygon fill="midnightblue" stroke="midnightblue" points="385.291,-283.937 374.873,-282.009 381.815,-290.013 385.291,-283.937"/>
</g>
<!-- Node30 -->
<g id="node30" class="node"><title>Node30</title>
<polygon fill="white" stroke="#bfbfbf" points="262,-190.5 262,-220.5 382,-220.5 382,-190.5 262,-190.5"/>
<text text-anchor="start" x="270" y="-208.5" font-family="Helvetica,sans-Serif" font-size="10.00">boost/iterator/iterator</text>
<text text-anchor="middle" x="322" y="-197.5" font-family="Helvetica,sans-Serif" font-size="10.00">_facade.hpp</text>
</g>
<!-- Node28&#45;&gt;Node30 -->
<g id="edge50" class="edge"><title>Node28&#45;&gt;Node30</title>
<path fill="none" stroke="midnightblue" d="M410.014,-324.477C370.044,-316.936 320.455,-304.556 308,-288 295.474,-271.351 301.649,-247.386 309.348,-229.752"/>
<polygon fill="midnightblue" stroke="midnightblue" points="312.523,-231.225 313.672,-220.692 306.206,-228.209 312.523,-231.225"/>
</g>
<!-- Node31 -->
<g id="node31" class="node"><title>Node31</title>
<polygon fill="white" stroke="#bfbfbf" points="540,-257.5 540,-287.5 672,-287.5 672,-257.5 540,-257.5"/>
<text text-anchor="start" x="548" y="-275.5" font-family="Helvetica,sans-Serif" font-size="10.00">boost/iterator/transform</text>
<text text-anchor="middle" x="606" y="-264.5" font-family="Helvetica,sans-Serif" font-size="10.00">_iterator.hpp</text>
</g>
<!-- Node28&#45;&gt;Node31 -->
<g id="edge51" class="edge"><title>Node28&#45;&gt;Node31</title>
<path fill="none" stroke="midnightblue" d="M484.345,-324.475C504.835,-315.889 537.07,-302.383 563.211,-291.429"/>
<polygon fill="midnightblue" stroke="midnightblue" points="564.663,-294.616 572.533,-287.523 561.958,-288.16 564.663,-294.616"/>
</g>
<!-- Node32 -->
<g id="node32" class="node"><title>Node32</title>
<g id="a_node32"><a xlink:href="preprocessor_8h.xhtml" target="_top" xlink:title="A collection of PDAG transformation/preprocessing algorithms that simplify fault trees for analysis...">
<polygon fill="white" stroke="black" points="1217,-196 1217,-215 1305,-215 1305,-196 1217,-196"/>
<text text-anchor="middle" x="1261" y="-203" font-family="Helvetica,sans-Serif" font-size="10.00">preprocessor.h</text>
</a>
</g>
</g>
<!-- Node28&#45;&gt;Node32 -->
<g id="edge54" class="edge"><title>Node28&#45;&gt;Node32</title>
<path fill="none" stroke="midnightblue" d="M521.817,-326.129C646.771,-310.866 951.072,-271.464 1203,-221 1208.34,-219.93 1213.93,-218.689 1219.45,-217.392"/>
<polygon fill="midnightblue" stroke="midnightblue" points="1220.32,-220.781 1229.21,-215.022 1218.67,-213.979 1220.32,-220.781"/>
</g>
<!-- Node35 -->
<g id="node35" class="node"><title>Node35</title>
<g id="a_node35"><a xlink:href="zbdd_8h.xhtml" target="_top" xlink:title="Zero&#45;Suppressed Binary Decision Diagram facilities. ">
<polygon fill="white" stroke="black" points="472.5,-263 472.5,-282 521.5,-282 521.5,-263 472.5,-263"/>
<text text-anchor="middle" x="497" y="-270" font-family="Helvetica,sans-Serif" font-size="10.00">zbdd.h</text>
</a>
</g>
</g>
<!-- Node28&#45;&gt;Node35 -->
<g id="edge64" class="edge"><title>Node28&#45;&gt;Node35</title>
<path fill="none" stroke="midnightblue" d="M468.728,-324.475C473.58,-315.727 481.266,-301.869 487.4,-290.809"/>
<polygon fill="midnightblue" stroke="midnightblue" points="490.491,-292.452 492.281,-282.009 484.37,-289.057 490.491,-292.452"/>
</g>
<!-- Node32&#45;&gt;Node2 -->
<g id="edge58" class="edge"><title>Node32&#45;&gt;Node2</title>
<path fill="none" stroke="midnightblue" d="M1305.26,-203.682C1439.08,-200.17 1834.92,-181.806 1911,-87 1919.62,-76.2543 1918.08,-67.8209 1911,-56 1899.55,-36.8692 1876.87,-25.4093 1857.96,-18.8458"/>
<polygon fill="midnightblue" stroke="midnightblue" points="1858.81,-15.4432 1848.22,-15.7653 1856.7,-22.1174 1858.81,-15.4432"/>
</g>
<!-- Node32&#45;&gt;Node3 -->
<g id="edge59" class="edge"><title>Node32&#45;&gt;Node3</title>
<path fill="none" stroke="midnightblue" d="M1261.47,-195.827C1261.86,-179.032 1260.11,-142.052 1239,-123 1165.13,-56.3163 1109.01,-127.265 1018,-87 997.751,-78.0413 999.1,-65.2871 979,-56 913.996,-25.9655 829.602,-15.9533 783.573,-12.6327"/>
<polygon fill="midnightblue" stroke="midnightblue" points="783.75,-9.13686 773.542,-11.9722 783.29,-16.1217 783.75,-9.13686"/>
</g>
<!-- Node32&#45;&gt;Node7 -->
<g id="edge60" class="edge"><title>Node32&#45;&gt;Node7</title>
<path fill="none" stroke="midnightblue" d="M1243.53,-195.982C1208.93,-179.46 1128.93,-142.936 1058,-123 1015.8,-111.138 902.4,-93.5124 827.473,-82.5296"/>
<polygon fill="midnightblue" stroke="midnightblue" points="827.568,-79.0064 817.167,-81.0252 826.557,-85.933 827.568,-79.0064"/>
</g>
<!-- Node32&#45;&gt;Node14 -->
<g id="edge55" class="edge"><title>Node32&#45;&gt;Node14</title>
<path fill="none" stroke="midnightblue" d="M1216.77,-199.871C1174.06,-193.972 1108.59,-181.083 1058,-154 1039.97,-144.348 1042.65,-131.383 1024,-123 885.399,-60.7079 831.779,-122.383 684,-87 681.006,-86.2832 677.93,-85.3901 674.887,-84.4015"/>
<polygon fill="midnightblue" stroke="midnightblue" points="676.011,-81.0864 665.416,-81.0171 673.655,-87.6782 676.011,-81.0864"/>
</g>
<!-- Node32&#45;&gt;Node15 -->
<g id="edge57" class="edge"><title>Node32&#45;&gt;Node15</title>
<path fill="none" stroke="midnightblue" d="M1258.31,-195.885C1252.52,-178.855 1237.13,-140.977 1210,-123 1125.58,-67.065 1084.33,-106.724 985,-87 979.461,-85.9002 973.663,-84.6508 967.937,-83.3574"/>
<polygon fill="midnightblue" stroke="midnightblue" points="968.312,-79.8518 957.78,-81.0049 966.733,-86.6713 968.312,-79.8518"/>
</g>
<!-- Node32&#45;&gt;Node18 -->
<g id="edge62" class="edge"><title>Node32&#45;&gt;Node18</title>
<path fill="none" stroke="midnightblue" d="M1269.63,-195.734C1279.8,-185.403 1296.9,-168.037 1309.41,-155.332"/>
<polygon fill="midnightblue" stroke="midnightblue" points="1311.98,-157.709 1316.51,-148.127 1307,-152.797 1311.98,-157.709"/>
</g>
<!-- Node33 -->
<g id="node33" class="node"><title>Node33</title>
<polygon fill="white" stroke="#bfbfbf" points="1406,-129 1406,-148 1438,-148 1438,-129 1406,-129"/>
<text text-anchor="middle" x="1422" y="-136" font-family="Helvetica,sans-Serif" font-size="10.00">set</text>
</g>
<!-- Node32&#45;&gt;Node33 -->
<g id="edge56" class="edge"><title>Node32&#45;&gt;Node33</title>
<path fill="none" stroke="midnightblue" d="M1284.9,-195.957C1311.35,-186.352 1355.1,-169.997 1392,-154 1393.57,-153.32 1395.18,-152.603 1396.79,-151.868"/>
<polygon fill="midnightblue" stroke="midnightblue" points="1398.36,-154.997 1405.92,-147.572 1395.38,-148.663 1398.36,-154.997"/>
</g>
<!-- Node34 -->
<g id="node34" class="node"><title>Node34</title>
<polygon fill="white" stroke="#bfbfbf" points="1456,-129 1456,-148 1600,-148 1600,-129 1456,-129"/>
<text text-anchor="middle" x="1528" y="-136" font-family="Helvetica,sans-Serif" font-size="10.00">boost/unordered_map.hpp</text>
</g>
<!-- Node32&#45;&gt;Node34 -->
<g id="edge61" class="edge"><title>Node32&#45;&gt;Node34</title>
<path fill="none" stroke="midnightblue" d="M1296.18,-195.936C1344.2,-184.244 1430.32,-163.28 1482.99,-150.457"/>
<polygon fill="midnightblue" stroke="midnightblue" points="1483.85,-153.85 1492.74,-148.083 1482.2,-147.048 1483.85,-153.85"/>
</g>
<!-- Node35&#45;&gt;Node2 -->
<g id="edge70" class="edge"><title>Node35&#45;&gt;Node2</title>
<path fill="none" stroke="midnightblue" d="M513.896,-262.89C519.235,-260.557 525.244,-258.314 531,-257 700.812,-218.218 1140.48,-236.227 1314,-221 1544.37,-200.783 1613.93,-236.419 1830,-154 1887.55,-132.047 1961.54,-107.664 1928,-56 1912.7,-32.4374 1881.89,-21.1087 1858.3,-15.7267"/>
<polygon fill="midnightblue" stroke="midnightblue" points="1858.87,-12.2714 1848.37,-13.7076 1857.48,-19.1309 1858.87,-12.2714"/>
</g>
<!-- Node35&#45;&gt;Node3 -->
<g id="edge71" class="edge"><title>Node35&#45;&gt;Node3</title>
<path fill="none" stroke="midnightblue" d="M472.493,-267.048C455.535,-264.034 432.431,-260.059 412,-257 350.175,-247.742 176.665,-265.736 133,-221 81.5933,-168.333 68.8443,-109.86 119,-56 159.909,-12.07 591.159,-10.3534 716.199,-10.7884"/>
<polygon fill="midnightblue" stroke="midnightblue" points="716.32,-14.2888 726.335,-10.8309 716.349,-7.28891 716.32,-14.2888"/>
</g>
<!-- Node35&#45;&gt;Node7 -->
<g id="edge74" class="edge"><title>Node35&#45;&gt;Node7</title>
<path fill="none" stroke="midnightblue" d="M516.745,-262.99C521.411,-261.004 526.374,-258.911 531,-257 570.817,-240.549 585.825,-245.874 621,-221 668.314,-187.542 667.485,-165.386 707,-123 718.02,-111.179 730.852,-98.2344 740.758,-88.4102"/>
<polygon fill="midnightblue" stroke="midnightblue" points="743.323,-90.7962 747.984,-81.2816 738.407,-85.813 743.323,-90.7962"/>
</g>
<!-- Node35&#45;&gt;Node9 -->
<g id="edge65" class="edge"><title>Node35&#45;&gt;Node9</title>
<path fill="none" stroke="midnightblue" d="M483.382,-262.952C468.386,-253.341 443.777,-236.982 424,-221 408.349,-208.352 405.901,-203.524 391,-190 350.038,-152.821 300.932,-110.262 275.037,-87.9719"/>
<polygon fill="midnightblue" stroke="midnightblue" points="277.055,-85.0914 267.19,-81.2268 272.492,-90.3997 277.055,-85.0914"/>
</g>
<!-- Node35&#45;&gt;Node10 -->
<g id="edge75" class="edge"><title>Node35&#45;&gt;Node10</title>
<path fill="none" stroke="midnightblue" d="M514.699,-262.982C519.86,-260.766 525.574,-258.564 531,-257 632.581,-227.73 757.675,-214.11 815.661,-209.018"/>
<polygon fill="midnightblue" stroke="midnightblue" points="816.02,-212.5 825.687,-208.164 815.426,-205.525 816.02,-212.5"/>
</g>
<!-- Node35&#45;&gt;Node14 -->
<g id="edge68" class="edge"><title>Node35&#45;&gt;Node14</title>
<path fill="none" stroke="midnightblue" d="M488.838,-262.691C467.971,-239.938 413.701,-179.227 405,-154 400.508,-140.975 396.314,-133.695 405,-123 430.031,-92.1803 545.623,-79.4981 607.175,-74.8587"/>
<polygon fill="midnightblue" stroke="midnightblue" points="607.563,-78.3399 617.286,-74.1323 607.061,-71.3579 607.563,-78.3399"/>
</g>
<!-- Node35&#45;&gt;Node15 -->
<g id="edge69" class="edge"><title>Node35&#45;&gt;Node15</title>
<path fill="none" stroke="midnightblue" d="M514.295,-262.941C519.546,-260.668 525.409,-258.446 531,-257 658.371,-224.056 1034.74,-259.01 1114,-154 1122.3,-143.003 1122.4,-133.922 1114,-123 1111.72,-120.039 1023.67,-97.5025 968.247,-83.5547"/>
<polygon fill="midnightblue" stroke="midnightblue" points="968.858,-80.0994 958.306,-81.057 967.152,-86.8883 968.858,-80.0994"/>
</g>
<!-- Node35&#45;&gt;Node16 -->
<g id="edge72" class="edge"><title>Node35&#45;&gt;Node16</title>
<path fill="none" stroke="midnightblue" d="M504.083,-262.924C515.459,-248.06 535.599,-216.553 526,-190 521.203,-176.729 511.229,-164.488 502.205,-155.382"/>
<polygon fill="midnightblue" stroke="midnightblue" points="504.337,-152.581 494.672,-148.24 499.521,-157.66 504.337,-152.581"/>
</g>
<!-- Node35&#45;&gt;Node30 -->
<g id="edge73" class="edge"><title>Node35&#45;&gt;Node30</title>
<path fill="none" stroke="midnightblue" d="M473.761,-262.869C447.275,-253.031 403.279,-236.689 369.459,-224.128"/>
<polygon fill="midnightblue" stroke="midnightblue" points="370.361,-220.729 359.768,-220.528 367.923,-227.291 370.361,-220.729"/>
</g>
<!-- Node36 -->
<g id="node36" class="node"><title>Node36</title>
<polygon fill="white" stroke="#bfbfbf" points="476.5,-196 476.5,-215 517.5,-215 517.5,-196 476.5,-196"/>
<text text-anchor="middle" x="497" y="-203" font-family="Helvetica,sans-Serif" font-size="10.00">array</text>
</g>
<!-- Node35&#45;&gt;Node36 -->
<g id="edge66" class="edge"><title>Node35&#45;&gt;Node36</title>
<path fill="none" stroke="midnightblue" d="M497,-262.734C497,-253.183 497,-237.618 497,-225.283"/>
<polygon fill="midnightblue" stroke="midnightblue" points="500.5,-225.127 497,-215.127 493.5,-225.127 500.5,-225.127"/>
</g>
<!-- Node37 -->
<g id="node37" class="node"><title>Node37</title>
<polygon fill="white" stroke="#bfbfbf" points="574,-196 574,-215 612,-215 612,-196 574,-196"/>
<text text-anchor="middle" x="593" y="-203" font-family="Helvetica,sans-Serif" font-size="10.00">map</text>
</g>
<!-- Node35&#45;&gt;Node37 -->
<g id="edge67" class="edge"><title>Node35&#45;&gt;Node37</title>
<path fill="none" stroke="midnightblue" d="M509.947,-262.734C525.853,-251.964 553.049,-233.55 571.969,-220.739"/>
<polygon fill="midnightblue" stroke="midnightblue" points="573.94,-223.632 580.258,-215.127 570.015,-217.836 573.94,-223.632"/>
</g>
</g>
</svg>
