<?xml version="1.0" encoding="UTF-8" standalone="no"?>
<!DOCTYPE svg PUBLIC "-//W3C//DTD SVG 1.1//EN"
 "http://www.w3.org/Graphics/SVG/1.1/DTD/svg11.dtd">
<!-- Generated by graphviz version 2.38.0 (20140413.2041)
 -->
<!-- Title: random_deviate.cc Pages: 1 -->
<!--zoomable 296 -->
<svg id="main" version="1.1" xmlns="http://www.w3.org/2000/svg" xmlns:xlink="http://www.w3.org/1999/xlink" xml:space="preserve" onload="init(evt)">
<style type="text/css"><![CDATA[
.edge:hover path { stroke: red; }
.edge:hover polygon { stroke: red; fill: red; }
]]></style>
<script type="text/javascript"><![CDATA[
var edges = document.getElementsByTagName('g');
if (edges && edges.length) {
  for (var i=0;i<edges.length;i++) {
    if (edges[i].id.substr(0,4)=='edge') {
      edges[i].setAttribute('class','edge');
    }
  }
}
]]></script>
        <defs>
                <circle id="rim" cx="0" cy="0" r="7"/>
                <circle id="rim2" cx="0" cy="0" r="3.5"/>
                <g id="zoomPlus">
                        <use xlink:href="#rim" fill="#404040">
                                <set attributeName="fill" to="#808080" begin="zoomplus.mouseover" end="zoomplus.mouseout"/>
                        </use>
                        <path d="M-4,0h8M0,-4v8" fill="none" stroke="white" stroke-width="1.5" pointer-events="none"/>
                </g>
                <g id="zoomMin">
                        <use xlink:href="#rim" fill="#404040">
                                <set attributeName="fill" to="#808080" begin="zoomminus.mouseover" end="zoomminus.mouseout"/>
                        </use>
                        <path d="M-4,0h8" fill="none" stroke="white" stroke-width="1.5" pointer-events="none"/>
                </g>
                <g id="dirArrow">
                        <path fill="none" stroke="white" stroke-width="1.5" d="M0,-3.0v7 M-2.5,-0.5L0,-3.0L2.5,-0.5"/>
                </g>
               <g id="resetDef">
                       <use xlink:href="#rim2" fill="#404040">
                               <set attributeName="fill" to="#808080" begin="reset.mouseover" end="reset.mouseout"/>
                       </use>
               </g>
        </defs>

<script type="text/javascript">
var viewWidth = 1786;
var viewHeight = 296;
var sectionId = 'dynsection-0';
</script>
<script xlink:href="svgpan.js"/>
<svg id="graph" class="graph">
<g id="viewport">
<title>random_deviate.cc</title>
<polygon fill="white" stroke="none" points="-4,4 -4,-292 1782,-292 1782,4 -4,4"/>
<!-- Node1 -->
<g id="node1" class="node"><title>Node1</title>
<polygon fill="#bfbfbf" stroke="black" points="999.5,-268.5 999.5,-287.5 1107.5,-287.5 1107.5,-268.5 999.5,-268.5"/>
<text text-anchor="middle" x="1053.5" y="-275.5" font-family="Helvetica,sans-Serif" font-size="10.00">random_deviate.cc</text>
</g>
<!-- Node2 -->
<g id="node2" class="node"><title>Node2</title>
<g id="a_node2"><a xlink:href="random__deviate_8h.xhtml" target="_top" xlink:title="A collection of deviate expressions with random distributions sampled at run&#45;time. ">
<polygon fill="white" stroke="black" points="194.5,-207 194.5,-226 298.5,-226 298.5,-207 194.5,-207"/>
<text text-anchor="middle" x="246.5" y="-214" font-family="Helvetica,sans-Serif" font-size="10.00">random_deviate.h</text>
</a>
</g>
</g>
<!-- Node1&#45;&gt;Node2 -->
<g id="edge1" class="edge"><title>Node1&#45;&gt;Node2</title>
<path fill="none" stroke="midnightblue" d="M999.297,-273.004C854.982,-262.363 461.982,-233.387 308.802,-222.093"/>
<polygon fill="midnightblue" stroke="midnightblue" points="308.859,-218.588 298.629,-221.343 308.344,-225.569 308.859,-218.588"/>
</g>
<!-- Node18 -->
<g id="node18" class="node"><title>Node18</title>
<g id="a_node18"><a xlink:href="error_8h.xhtml" target="_top" xlink:title="Exceptions for SCRAM. ">
<polygon fill="white" stroke="black" points="819.5,-73 819.5,-92 867.5,-92 867.5,-73 819.5,-73"/>
<text text-anchor="middle" x="843.5" y="-80" font-family="Helvetica,sans-Serif" font-size="10.00">error.h</text>
</a>
</g>
</g>
<!-- Node1&#45;&gt;Node18 -->
<g id="edge30" class="edge"><title>Node1&#45;&gt;Node18</title>
<path fill="none" stroke="midnightblue" d="M999.299,-272.647C966.136,-267.498 924.628,-256.301 895.5,-232 856.083,-199.115 846.515,-134.489 844.214,-102.443"/>
<polygon fill="midnightblue" stroke="midnightblue" points="847.696,-102.023 843.653,-92.2297 840.707,-102.407 847.696,-102.023"/>
</g>
<!-- Node20 -->
<g id="node20" class="node"><title>Node20</title>
<polygon fill="white" stroke="#bfbfbf" points="872,-140 872,-159 919,-159 919,-140 872,-140"/>
<text text-anchor="middle" x="895.5" y="-147" font-family="Helvetica,sans-Serif" font-size="10.00">cmath</text>
</g>
<!-- Node1&#45;&gt;Node20 -->
<g id="edge23" class="edge"><title>Node1&#45;&gt;Node20</title>
<path fill="none" stroke="midnightblue" d="M999.449,-272.239C970.41,-266.887 936.215,-255.622 914.5,-232 898.866,-214.993 895.323,-187.673 894.883,-169.411"/>
<polygon fill="midnightblue" stroke="midnightblue" points="898.383,-169.4 894.929,-159.384 891.383,-169.368 898.383,-169.4"/>
</g>
<!-- Node21 -->
<g id="node21" class="node"><title>Node21</title>
<polygon fill="white" stroke="#bfbfbf" points="1022,-207 1022,-226 1085,-226 1085,-207 1022,-207"/>
<text text-anchor="middle" x="1053.5" y="-214" font-family="Helvetica,sans-Serif" font-size="10.00">functional</text>
</g>
<!-- Node1&#45;&gt;Node21 -->
<g id="edge24" class="edge"><title>Node1&#45;&gt;Node21</title>
<path fill="none" stroke="midnightblue" d="M1053.5,-268.475C1053.5,-260.08 1053.5,-246.981 1053.5,-236.163"/>
<polygon fill="midnightblue" stroke="midnightblue" points="1057,-236.009 1053.5,-226.009 1050,-236.009 1057,-236.009"/>
</g>
<!-- Node22 -->
<g id="node22" class="node"><title>Node22</title>
<polygon fill="white" stroke="#bfbfbf" points="1103.5,-201.5 1103.5,-231.5 1235.5,-231.5 1235.5,-201.5 1103.5,-201.5"/>
<text text-anchor="start" x="1111.5" y="-219.5" font-family="Helvetica,sans-Serif" font-size="10.00">boost/iterator/transform</text>
<text text-anchor="middle" x="1169.5" y="-208.5" font-family="Helvetica,sans-Serif" font-size="10.00">_iterator.hpp</text>
</g>
<!-- Node1&#45;&gt;Node22 -->
<g id="edge25" class="edge"><title>Node1&#45;&gt;Node22</title>
<path fill="none" stroke="midnightblue" d="M1070.12,-268.475C1086.49,-260.078 1112.04,-246.973 1133.13,-236.153"/>
<polygon fill="midnightblue" stroke="midnightblue" points="1134.86,-239.201 1142.16,-231.523 1131.67,-232.973 1134.86,-239.201"/>
</g>
<!-- Node23 -->
<g id="node23" class="node"><title>Node23</title>
<polygon fill="white" stroke="#bfbfbf" points="1254,-201.5 1254,-231.5 1365,-231.5 1365,-201.5 1254,-201.5"/>
<text text-anchor="start" x="1262" y="-219.5" font-family="Helvetica,sans-Serif" font-size="10.00">boost/math/special</text>
<text text-anchor="middle" x="1309.5" y="-208.5" font-family="Helvetica,sans-Serif" font-size="10.00">_functions/beta.hpp</text>
</g>
<!-- Node1&#45;&gt;Node23 -->
<g id="edge26" class="edge"><title>Node1&#45;&gt;Node23</title>
<path fill="none" stroke="midnightblue" d="M1090.18,-268.475C1130.15,-259.186 1194.9,-244.136 1243.71,-232.792"/>
<polygon fill="midnightblue" stroke="midnightblue" points="1244.61,-236.176 1253.55,-230.503 1243.02,-229.358 1244.61,-236.176"/>
</g>
<!-- Node24 -->
<g id="node24" class="node"><title>Node24</title>
<polygon fill="white" stroke="#bfbfbf" points="1383.5,-201.5 1383.5,-231.5 1491.5,-231.5 1491.5,-201.5 1383.5,-201.5"/>
<text text-anchor="start" x="1391.5" y="-219.5" font-family="Helvetica,sans-Serif" font-size="10.00">boost/math/special</text>
<text text-anchor="middle" x="1437.5" y="-208.5" font-family="Helvetica,sans-Serif" font-size="10.00">_functions/erf.hpp</text>
</g>
<!-- Node1&#45;&gt;Node24 -->
<g id="edge27" class="edge"><title>Node1&#45;&gt;Node24</title>
<path fill="none" stroke="midnightblue" d="M1107.69,-270.862C1169.63,-263.52 1274.24,-250.131 1373.38,-232.113"/>
<polygon fill="midnightblue" stroke="midnightblue" points="1374.06,-235.546 1383.27,-230.297 1372.8,-228.662 1374.06,-235.546"/>
</g>
<!-- Node25 -->
<g id="node25" class="node"><title>Node25</title>
<polygon fill="white" stroke="#bfbfbf" points="1510,-201.5 1510,-231.5 1637,-231.5 1637,-201.5 1510,-201.5"/>
<text text-anchor="start" x="1518" y="-219.5" font-family="Helvetica,sans-Serif" font-size="10.00">boost/math/special</text>
<text text-anchor="middle" x="1573.5" y="-208.5" font-family="Helvetica,sans-Serif" font-size="10.00">_functions/gamma.hpp</text>
</g>
<!-- Node1&#45;&gt;Node25 -->
<g id="edge28" class="edge"><title>Node1&#45;&gt;Node25</title>
<path fill="none" stroke="midnightblue" d="M1107.72,-273.225C1190.14,-267.118 1352.04,-253.67 1499.71,-232.019"/>
<polygon fill="midnightblue" stroke="midnightblue" points="1500.48,-235.442 1509.86,-230.513 1499.46,-228.518 1500.48,-235.442"/>
</g>
<!-- Node26 -->
<g id="node26" class="node"><title>Node26</title>
<polygon fill="white" stroke="#bfbfbf" points="1655,-201.5 1655,-231.5 1778,-231.5 1778,-201.5 1655,-201.5"/>
<text text-anchor="start" x="1663" y="-219.5" font-family="Helvetica,sans-Serif" font-size="10.00">boost/range/algorithm</text>
<text text-anchor="middle" x="1716.5" y="-208.5" font-family="Helvetica,sans-Serif" font-size="10.00">_ext/is_sorted.hpp</text>
</g>
<!-- Node1&#45;&gt;Node26 -->
<g id="edge29" class="edge"><title>Node1&#45;&gt;Node26</title>
<path fill="none" stroke="midnightblue" d="M1107.71,-275.217C1210.65,-271.326 1441.58,-260.173 1644.78,-232.133"/>
<polygon fill="midnightblue" stroke="midnightblue" points="1645.32,-235.592 1654.74,-230.742 1644.35,-228.659 1645.32,-235.592"/>
</g>
<!-- Node27 -->
<g id="node27" class="node"><title>Node27</title>
<g id="a_node27"><a xlink:href="algorithm_8h.xhtml" target="_top" xlink:title="Helpful algorithm facilities as an extension to the STL or Boost. ">
<polygon fill="white" stroke="black" points="690,-207 690,-226 797,-226 797,-207 690,-207"/>
<text text-anchor="middle" x="743.5" y="-214" font-family="Helvetica,sans-Serif" font-size="10.00">src/ext/algorithm.h</text>
</a>
</g>
</g>
<!-- Node1&#45;&gt;Node27 -->
<g id="edge31" class="edge"><title>Node1&#45;&gt;Node27</title>
<path fill="none" stroke="midnightblue" d="M1009.08,-268.475C953.376,-257.783 857.902,-239.458 797.88,-227.937"/>
<polygon fill="midnightblue" stroke="midnightblue" points="798.314,-224.457 787.833,-226.009 796.994,-231.331 798.314,-224.457"/>
</g>
<!-- Node29 -->
<g id="node29" class="node"><title>Node29</title>
<g id="a_node29"><a xlink:href="random_8h.xhtml" target="_top" xlink:title="Contains helpers for randomness simulations. ">
<polygon fill="white" stroke="black" points="923.5,-207 923.5,-226 1003.5,-226 1003.5,-207 923.5,-207"/>
<text text-anchor="middle" x="963.5" y="-214" font-family="Helvetica,sans-Serif" font-size="10.00">src/random.h</text>
</a>
</g>
</g>
<!-- Node1&#45;&gt;Node29 -->
<g id="edge34" class="edge"><title>Node1&#45;&gt;Node29</title>
<path fill="none" stroke="midnightblue" d="M1040.61,-268.475C1026.04,-258.843 1002.1,-243.017 984.755,-231.552"/>
<polygon fill="midnightblue" stroke="midnightblue" points="986.643,-228.604 976.371,-226.009 982.783,-234.444 986.643,-228.604"/>
</g>
<!-- Node3 -->
<g id="node3" class="node"><title>Node3</title>
<polygon fill="white" stroke="#bfbfbf" points="218,-140 218,-159 275,-159 275,-140 218,-140"/>
<text text-anchor="middle" x="246.5" y="-147" font-family="Helvetica,sans-Serif" font-size="10.00">memory</text>
</g>
<!-- Node2&#45;&gt;Node3 -->
<g id="edge2" class="edge"><title>Node2&#45;&gt;Node3</title>
<path fill="none" stroke="midnightblue" d="M246.5,-206.734C246.5,-197.183 246.5,-181.618 246.5,-169.283"/>
<polygon fill="midnightblue" stroke="midnightblue" points="250,-169.127 246.5,-159.127 243,-169.127 250,-169.127"/>
</g>
<!-- Node4 -->
<g id="node4" class="node"><title>Node4</title>
<polygon fill="white" stroke="#bfbfbf" points="2,-6 2,-25 49,-25 49,-6 2,-6"/>
<text text-anchor="middle" x="25.5" y="-13" font-family="Helvetica,sans-Serif" font-size="10.00">vector</text>
</g>
<!-- Node2&#45;&gt;Node4 -->
<g id="edge3" class="edge"><title>Node2&#45;&gt;Node4</title>
<path fill="none" stroke="midnightblue" d="M237.004,-206.949C202.93,-176.268 86.5171,-71.443 42.523,-31.8284"/>
<polygon fill="midnightblue" stroke="midnightblue" points="44.734,-29.1095 34.9607,-25.0189 40.05,-34.3114 44.734,-29.1095"/>
</g>
<!-- Node5 -->
<g id="node5" class="node"><title>Node5</title>
<polygon fill="white" stroke="#bfbfbf" points="0,-134.5 0,-164.5 113,-164.5 113,-134.5 0,-134.5"/>
<text text-anchor="start" x="8" y="-152.5" font-family="Helvetica,sans-Serif" font-size="10.00">boost/range/iterator</text>
<text text-anchor="middle" x="56.5" y="-141.5" font-family="Helvetica,sans-Serif" font-size="10.00">_range.hpp</text>
</g>
<!-- Node2&#45;&gt;Node5 -->
<g id="edge4" class="edge"><title>Node2&#45;&gt;Node5</title>
<path fill="none" stroke="midnightblue" d="M221.269,-206.869C192.266,-196.946 143.925,-180.408 107.084,-167.805"/>
<polygon fill="midnightblue" stroke="midnightblue" points="108.1,-164.453 97.5051,-164.528 105.834,-171.077 108.1,-164.453"/>
</g>
<!-- Node6 -->
<g id="node6" class="node"><title>Node6</title>
<g id="a_node6"><a xlink:href="expression_8h.xhtml" target="_top" xlink:title="Provides the base class for all expressions and units for expression values. ">
<polygon fill="white" stroke="black" points="364,-140 364,-159 459,-159 459,-140 364,-140"/>
<text text-anchor="middle" x="411.5" y="-147" font-family="Helvetica,sans-Serif" font-size="10.00">src/expression.h</text>
</a>
</g>
</g>
<!-- Node2&#45;&gt;Node6 -->
<g id="edge5" class="edge"><title>Node2&#45;&gt;Node6</title>
<path fill="none" stroke="midnightblue" d="M268.411,-206.869C297.09,-195.571 347.541,-175.696 380.23,-162.818"/>
<polygon fill="midnightblue" stroke="midnightblue" points="381.74,-165.985 389.761,-159.064 379.175,-159.473 381.74,-165.985"/>
</g>
<!-- Node6&#45;&gt;Node4 -->
<g id="edge10" class="edge"><title>Node6&#45;&gt;Node4</title>
<path fill="none" stroke="midnightblue" d="M363.644,-142.62C319.29,-135.921 252.248,-122.567 198.5,-98 177.072,-88.2062 176.287,-78.088 155.5,-67 114.927,-45.3583 101.124,-48.2566 58.5,-31 57.0861,-30.4276 55.6423,-29.8327 54.1871,-29.2249"/>
<polygon fill="midnightblue" stroke="midnightblue" points="55.1846,-25.8446 44.6142,-25.1253 52.4289,-32.2794 55.1846,-25.8446"/>
</g>
<!-- Node7 -->
<g id="node7" class="node"><title>Node7</title>
<polygon fill="white" stroke="#bfbfbf" points="739.5,-73 739.5,-92 801.5,-92 801.5,-73 739.5,-73"/>
<text text-anchor="middle" x="770.5" y="-80" font-family="Helvetica,sans-Serif" font-size="10.00">algorithm</text>
</g>
<!-- Node6&#45;&gt;Node7 -->
<g id="edge6" class="edge"><title>Node6&#45;&gt;Node7</title>
<path fill="none" stroke="midnightblue" d="M459.1,-143.833C521.956,-137.021 635.755,-122.433 730.5,-98 733.48,-97.2316 736.548,-96.3294 739.599,-95.3572"/>
<polygon fill="midnightblue" stroke="midnightblue" points="740.818,-98.6394 749.147,-92.0917 738.553,-92.016 740.818,-98.6394"/>
</g>
<!-- Node8 -->
<g id="node8" class="node"><title>Node8</title>
<polygon fill="white" stroke="#bfbfbf" points="291.5,-73 291.5,-92 347.5,-92 347.5,-73 291.5,-73"/>
<text text-anchor="middle" x="319.5" y="-80" font-family="Helvetica,sans-Serif" font-size="10.00">sstream</text>
</g>
<!-- Node6&#45;&gt;Node8 -->
<g id="edge7" class="edge"><title>Node6&#45;&gt;Node8</title>
<path fill="none" stroke="midnightblue" d="M399.092,-139.734C383.919,-129.013 358.022,-110.716 339.901,-97.9137"/>
<polygon fill="midnightblue" stroke="midnightblue" points="341.898,-95.0391 331.711,-92.1273 337.859,-100.756 341.898,-95.0391"/>
</g>
<!-- Node9 -->
<g id="node9" class="node"><title>Node9</title>
<polygon fill="white" stroke="#bfbfbf" points="631.5,-6 631.5,-25 675.5,-25 675.5,-6 631.5,-6"/>
<text text-anchor="middle" x="653.5" y="-13" font-family="Helvetica,sans-Serif" font-size="10.00">string</text>
</g>
<!-- Node6&#45;&gt;Node9 -->
<g id="edge8" class="edge"><title>Node6&#45;&gt;Node9</title>
<path fill="none" stroke="midnightblue" d="M413.493,-139.774C417.828,-122.887 429.771,-85.7532 454.5,-67 514.999,-21.1216 549.401,-54.8038 621.5,-31 623.368,-30.3833 625.273,-29.6919 627.176,-28.9544"/>
<polygon fill="midnightblue" stroke="midnightblue" points="628.649,-32.1319 636.497,-25.0148 625.923,-25.6841 628.649,-32.1319"/>
</g>
<!-- Node10 -->
<g id="node10" class="node"><title>Node10</title>
<polygon fill="white" stroke="#bfbfbf" points="365.5,-73 365.5,-92 407.5,-92 407.5,-73 365.5,-73"/>
<text text-anchor="middle" x="386.5" y="-80" font-family="Helvetica,sans-Serif" font-size="10.00">utility</text>
</g>
<!-- Node6&#45;&gt;Node10 -->
<g id="edge9" class="edge"><title>Node6&#45;&gt;Node10</title>
<path fill="none" stroke="midnightblue" d="M408.128,-139.734C404.38,-129.988 398.223,-113.981 393.435,-101.532"/>
<polygon fill="midnightblue" stroke="midnightblue" points="396.675,-100.204 389.818,-92.1273 390.141,-102.717 396.675,-100.204"/>
</g>
<!-- Node11 -->
<g id="node11" class="node"><title>Node11</title>
<polygon fill="white" stroke="#bfbfbf" points="463.5,-67.5 463.5,-97.5 575.5,-97.5 575.5,-67.5 463.5,-67.5"/>
<text text-anchor="start" x="471.5" y="-85.5" font-family="Helvetica,sans-Serif" font-size="10.00">boost/icl/continuous</text>
<text text-anchor="middle" x="519.5" y="-74.5" font-family="Helvetica,sans-Serif" font-size="10.00">_interval.hpp</text>
</g>
<!-- Node6&#45;&gt;Node11 -->
<g id="edge11" class="edge"><title>Node6&#45;&gt;Node11</title>
<path fill="none" stroke="midnightblue" d="M426.065,-139.734C441.714,-130.316 467.076,-115.051 487.431,-102.801"/>
<polygon fill="midnightblue" stroke="midnightblue" points="489.327,-105.744 496.091,-97.589 485.718,-99.7469 489.327,-105.744"/>
</g>
<!-- Node12 -->
<g id="node12" class="node"><title>Node12</title>
<polygon fill="white" stroke="#bfbfbf" points="593.5,-73 593.5,-92 721.5,-92 721.5,-73 593.5,-73"/>
<text text-anchor="middle" x="657.5" y="-80" font-family="Helvetica,sans-Serif" font-size="10.00">boost/noncopyable.hpp</text>
</g>
<!-- Node6&#45;&gt;Node12 -->
<g id="edge12" class="edge"><title>Node6&#45;&gt;Node12</title>
<path fill="none" stroke="midnightblue" d="M443.913,-139.936C487.884,-128.317 566.515,-107.541 615.122,-94.6975"/>
<polygon fill="midnightblue" stroke="midnightblue" points="616.241,-98.022 625.015,-92.0834 614.453,-91.2542 616.241,-98.022"/>
</g>
<!-- Node13 -->
<g id="node13" class="node"><title>Node13</title>
<g id="a_node13"><a xlink:href="element_8h.xhtml" target="_top" xlink:title="Helper classes, structs, and properties common to all other classes. ">
<polygon fill="white" stroke="black" points="208,-73 208,-92 273,-92 273,-73 208,-73"/>
<text text-anchor="middle" x="240.5" y="-80" font-family="Helvetica,sans-Serif" font-size="10.00">element.h</text>
</a>
</g>
</g>
<!-- Node6&#45;&gt;Node13 -->
<g id="edge13" class="edge"><title>Node6&#45;&gt;Node13</title>
<path fill="none" stroke="midnightblue" d="M388.793,-139.869C358.942,-128.522 306.334,-108.525 272.47,-95.6522"/>
<polygon fill="midnightblue" stroke="midnightblue" points="273.62,-92.3452 263.029,-92.0637 271.133,-98.8885 273.62,-92.3452"/>
</g>
<!-- Node6&#45;&gt;Node18 -->
<g id="edge20" class="edge"><title>Node6&#45;&gt;Node18</title>
<path fill="none" stroke="midnightblue" d="M459.048,-146.894C534.726,-143.361 686.678,-132.262 810.5,-98 812.656,-97.4034 814.854,-96.6906 817.039,-95.9058"/>
<polygon fill="midnightblue" stroke="midnightblue" points="818.41,-99.1269 826.375,-92.1404 815.791,-92.6351 818.41,-99.1269"/>
</g>
<!-- Node13&#45;&gt;Node4 -->
<g id="edge16" class="edge"><title>Node13&#45;&gt;Node4</title>
<path fill="none" stroke="midnightblue" d="M213.215,-72.887C206.765,-70.9051 199.901,-68.8402 193.5,-67 133.82,-49.8437 117.098,-51.5503 58.5,-31 56.8355,-30.4162 55.1374,-29.7852 53.4334,-29.1245"/>
<polygon fill="midnightblue" stroke="midnightblue" points="54.3789,-25.7279 43.8006,-25.1364 51.7012,-32.1955 54.3789,-25.7279"/>
</g>
<!-- Node13&#45;&gt;Node9 -->
<g id="edge15" class="edge"><title>Node13&#45;&gt;Node9</title>
<path fill="none" stroke="midnightblue" d="M262.463,-72.8686C268.84,-70.65 275.874,-68.4755 282.5,-67 430.391,-34.0665 475.3,-70.7741 621.5,-31 623.652,-30.4146 625.842,-29.7006 628.015,-28.9068"/>
<polygon fill="midnightblue" stroke="midnightblue" points="629.372,-32.133 637.266,-25.0659 626.688,-25.668 629.372,-32.133"/>
</g>
<!-- Node14 -->
<g id="node14" class="node"><title>Node14</title>
<polygon fill="white" stroke="#bfbfbf" points="564,-6 564,-25 613,-25 613,-6 564,-6"/>
<text text-anchor="middle" x="588.5" y="-13" font-family="Helvetica,sans-Serif" font-size="10.00">cstdint</text>
</g>
<!-- Node13&#45;&gt;Node14 -->
<g id="edge14" class="edge"><title>Node13&#45;&gt;Node14</title>
<path fill="none" stroke="midnightblue" d="M262.488,-72.9788C268.866,-70.762 275.894,-68.5608 282.5,-67 401.176,-38.9614 436.889,-63.2147 554.5,-31 556.798,-30.3706 559.144,-29.6189 561.477,-28.7934"/>
<polygon fill="midnightblue" stroke="midnightblue" points="562.806,-32.0316 570.827,-25.1104 560.24,-25.5186 562.806,-32.0316"/>
</g>
<!-- Node15 -->
<g id="node15" class="node"><title>Node15</title>
<polygon fill="white" stroke="#bfbfbf" points="67.5,-6 67.5,-25 239.5,-25 239.5,-6 67.5,-6"/>
<text text-anchor="middle" x="153.5" y="-13" font-family="Helvetica,sans-Serif" font-size="10.00">boost/multi_index_container.hpp</text>
</g>
<!-- Node13&#45;&gt;Node15 -->
<g id="edge17" class="edge"><title>Node13&#45;&gt;Node15</title>
<path fill="none" stroke="midnightblue" d="M228.767,-72.7338C214.548,-62.1106 190.373,-44.0485 173.261,-31.2642"/>
<polygon fill="midnightblue" stroke="midnightblue" points="175.153,-28.3087 165.047,-25.1273 170.964,-33.9165 175.153,-28.3087"/>
</g>
<!-- Node16 -->
<g id="node16" class="node"><title>Node16</title>
<polygon fill="white" stroke="#bfbfbf" points="257.5,-0.5 257.5,-30.5 397.5,-30.5 397.5,-0.5 257.5,-0.5"/>
<text text-anchor="start" x="265.5" y="-18.5" font-family="Helvetica,sans-Serif" font-size="10.00">boost/multi_index/hashed</text>
<text text-anchor="middle" x="327.5" y="-7.5" font-family="Helvetica,sans-Serif" font-size="10.00">_index.hpp</text>
</g>
<!-- Node13&#45;&gt;Node16 -->
<g id="edge18" class="edge"><title>Node13&#45;&gt;Node16</title>
<path fill="none" stroke="midnightblue" d="M252.233,-72.7338C264.556,-63.527 284.358,-48.7328 300.558,-36.6293"/>
<polygon fill="midnightblue" stroke="midnightblue" points="302.726,-39.3782 308.642,-30.589 298.536,-33.7704 302.726,-39.3782"/>
</g>
<!-- Node17 -->
<g id="node17" class="node"><title>Node17</title>
<polygon fill="white" stroke="#bfbfbf" points="415.5,-0.5 415.5,-30.5 545.5,-30.5 545.5,-0.5 415.5,-0.5"/>
<text text-anchor="start" x="423.5" y="-18.5" font-family="Helvetica,sans-Serif" font-size="10.00">boost/multi_index/mem</text>
<text text-anchor="middle" x="480.5" y="-7.5" font-family="Helvetica,sans-Serif" font-size="10.00">_fun.hpp</text>
</g>
<!-- Node13&#45;&gt;Node17 -->
<g id="edge19" class="edge"><title>Node13&#45;&gt;Node17</title>
<path fill="none" stroke="midnightblue" d="M264.376,-72.8743C270.27,-70.8512 276.588,-68.771 282.5,-67 324.458,-54.43 372,-42.2382 409.98,-32.9837"/>
<polygon fill="midnightblue" stroke="midnightblue" points="411.027,-36.3313 419.922,-30.5749 409.379,-29.5281 411.027,-36.3313"/>
</g>
<!-- Node18&#45;&gt;Node9 -->
<g id="edge22" class="edge"><title>Node18&#45;&gt;Node9</title>
<path fill="none" stroke="midnightblue" d="M824.791,-72.881C820.159,-70.8577 815.181,-68.7758 810.5,-67 767.743,-50.7792 717.228,-35.142 685.277,-25.6738"/>
<polygon fill="midnightblue" stroke="midnightblue" points="686.17,-22.2883 675.589,-22.8236 684.194,-29.0038 686.17,-22.2883"/>
</g>
<!-- Node19 -->
<g id="node19" class="node"><title>Node19</title>
<polygon fill="white" stroke="#bfbfbf" points="812,-6 812,-25 875,-25 875,-6 812,-6"/>
<text text-anchor="middle" x="843.5" y="-13" font-family="Helvetica,sans-Serif" font-size="10.00">exception</text>
</g>
<!-- Node18&#45;&gt;Node19 -->
<g id="edge21" class="edge"><title>Node18&#45;&gt;Node19</title>
<path fill="none" stroke="midnightblue" d="M843.5,-72.7338C843.5,-63.1826 843.5,-47.6183 843.5,-35.2829"/>
<polygon fill="midnightblue" stroke="midnightblue" points="847,-35.1273 843.5,-25.1273 840,-35.1273 847,-35.1273"/>
</g>
<!-- Node27&#45;&gt;Node7 -->
<g id="edge32" class="edge"><title>Node27&#45;&gt;Node7</title>
<path fill="none" stroke="midnightblue" d="M717.203,-206.941C698.261,-199.236 674.08,-185.865 662.5,-165 655.814,-152.953 655.103,-145.624 662.5,-134 667.012,-126.909 709.273,-108.488 739.566,-95.9677"/>
<polygon fill="midnightblue" stroke="midnightblue" points="740.994,-99.165 748.918,-92.132 738.338,-92.6886 740.994,-99.165"/>
</g>
<!-- Node28 -->
<g id="node28" class="node"><title>Node28</title>
<polygon fill="white" stroke="#bfbfbf" points="671.5,-140 671.5,-159 815.5,-159 815.5,-140 671.5,-140"/>
<text text-anchor="middle" x="743.5" y="-147" font-family="Helvetica,sans-Serif" font-size="10.00">boost/range/algorithm.hpp</text>
</g>
<!-- Node27&#45;&gt;Node28 -->
<g id="edge33" class="edge"><title>Node27&#45;&gt;Node28</title>
<path fill="none" stroke="midnightblue" d="M743.5,-206.734C743.5,-197.183 743.5,-181.618 743.5,-169.283"/>
<polygon fill="midnightblue" stroke="midnightblue" points="747,-169.127 743.5,-159.127 740,-169.127 747,-169.127"/>
</g>
<!-- Node29&#45;&gt;Node20 -->
<g id="edge36" class="edge"><title>Node29&#45;&gt;Node20</title>
<path fill="none" stroke="midnightblue" d="M954.329,-206.734C943.522,-196.403 925.354,-179.037 912.062,-166.332"/>
<polygon fill="midnightblue" stroke="midnightblue" points="914.173,-163.507 904.525,-159.127 909.336,-168.567 914.173,-163.507"/>
</g>
<!-- Node30 -->
<g id="node30" class="node"><title>Node30</title>
<polygon fill="white" stroke="#bfbfbf" points="937.5,-140 937.5,-159 989.5,-159 989.5,-140 937.5,-140"/>
<text text-anchor="middle" x="963.5" y="-147" font-family="Helvetica,sans-Serif" font-size="10.00">cassert</text>
</g>
<!-- Node29&#45;&gt;Node30 -->
<g id="edge35" class="edge"><title>Node29&#45;&gt;Node30</title>
<path fill="none" stroke="midnightblue" d="M963.5,-206.734C963.5,-197.183 963.5,-181.618 963.5,-169.283"/>
<polygon fill="midnightblue" stroke="midnightblue" points="967,-169.127 963.5,-159.127 960,-169.127 967,-169.127"/>
</g>
<!-- Node31 -->
<g id="node31" class="node"><title>Node31</title>
<polygon fill="white" stroke="#bfbfbf" points="1007.5,-140 1007.5,-159 1061.5,-159 1061.5,-140 1007.5,-140"/>
<text text-anchor="middle" x="1034.5" y="-147" font-family="Helvetica,sans-Serif" font-size="10.00">random</text>
</g>
<!-- Node29&#45;&gt;Node31 -->
<g id="edge37" class="edge"><title>Node29&#45;&gt;Node31</title>
<path fill="none" stroke="midnightblue" d="M973.075,-206.734C984.466,-196.305 1003.69,-178.709 1017.6,-165.973"/>
<polygon fill="midnightblue" stroke="midnightblue" points="1020.06,-168.461 1025.08,-159.127 1015.34,-163.298 1020.06,-168.461"/>
</g>
<!-- Node32 -->
<g id="node32" class="node"><title>Node32</title>
<polygon fill="white" stroke="#bfbfbf" points="1079.5,-140 1079.5,-159 1267.5,-159 1267.5,-140 1079.5,-140"/>
<text text-anchor="middle" x="1173.5" y="-147" font-family="Helvetica,sans-Serif" font-size="10.00">boost/random/beta_distribution.hpp</text>
</g>
<!-- Node29&#45;&gt;Node32 -->
<g id="edge38" class="edge"><title>Node29&#45;&gt;Node32</title>
<path fill="none" stroke="midnightblue" d="M991.386,-206.869C1028.6,-195.351 1094.6,-174.922 1136.1,-162.077"/>
<polygon fill="midnightblue" stroke="midnightblue" points="1137.31,-165.364 1145.83,-159.064 1135.24,-158.677 1137.31,-165.364"/>
</g>
<!-- Node33 -->
<g id="node33" class="node"><title>Node33</title>
<polygon fill="white" stroke="#bfbfbf" points="1286,-134.5 1286,-164.5 1409,-164.5 1409,-134.5 1286,-134.5"/>
<text text-anchor="start" x="1294" y="-152.5" font-family="Helvetica,sans-Serif" font-size="10.00">boost/random/triangle</text>
<text text-anchor="middle" x="1347.5" y="-141.5" font-family="Helvetica,sans-Serif" font-size="10.00">_distribution.hpp</text>
</g>
<!-- Node29&#45;&gt;Node33 -->
<g id="edge39" class="edge"><title>Node29&#45;&gt;Node33</title>
<path fill="none" stroke="midnightblue" d="M990.304,-206.945C997.759,-204.78 1005.9,-202.614 1013.5,-201 1125.75,-177.174 1158.42,-184.384 1275.86,-165.019"/>
<polygon fill="midnightblue" stroke="midnightblue" points="1276.69,-168.43 1285.97,-163.322 1275.53,-161.526 1276.69,-168.43"/>
</g>
</g>
</svg>
        <g id="navigator" transform="translate(0 0)" fill="#404254">
                <rect fill="#f2f5e9" fill-opacity="0.5" stroke="#606060" stroke-width=".5" x="0" y="0" width="60" height="60"/>
                <use id="zoomplus" xlink:href="#zoomPlus" x="17" y="9" onmousedown="handleZoom(evt,'in')"/>
                <use id="zoomminus" xlink:href="#zoomMin" x="42" y="9" onmousedown="handleZoom(evt,'out')"/>
                <use id="reset" xlink:href="#resetDef" x="30" y="36" onmousedown="handleReset()"/>
                <g id="arrowUp" xlink:href="#dirArrow" transform="translate(30 24)" onmousedown="handlePan(0,-1)">
                  <use xlink:href="#rim" fill="#404040">
                        <set attributeName="fill" to="#808080" begin="arrowUp.mouseover" end="arrowUp.mouseout"/>
                  </use>
                  <path fill="none" stroke="white" stroke-width="1.5" d="M0,-3.0v7 M-2.5,-0.5L0,-3.0L2.5,-0.5"/>
                </g>
                <g id="arrowRight" xlink:href="#dirArrow" transform="rotate(90) translate(36 -43)" onmousedown="handlePan(1,0)">
                  <use xlink:href="#rim" fill="#404040">
                        <set attributeName="fill" to="#808080" begin="arrowRight.mouseover" end="arrowRight.mouseout"/>
                  </use>
                  <path fill="none" stroke="white" stroke-width="1.5" d="M0,-3.0v7 M-2.5,-0.5L0,-3.0L2.5,-0.5"/>
                </g>
                <g id="arrowDown" xlink:href="#dirArrow" transform="rotate(180) translate(-30 -48)" onmousedown="handlePan(0,1)">
                  <use xlink:href="#rim" fill="#404040">
                        <set attributeName="fill" to="#808080" begin="arrowDown.mouseover" end="arrowDown.mouseout"/>
                  </use>
                  <path fill="none" stroke="white" stroke-width="1.5" d="M0,-3.0v7 M-2.5,-0.5L0,-3.0L2.5,-0.5"/>
                </g>
                <g id="arrowLeft" xlink:href="#dirArrow" transform="rotate(270) translate(-36 17)" onmousedown="handlePan(-1,0)">
                  <use xlink:href="#rim" fill="#404040">
                        <set attributeName="fill" to="#808080" begin="arrowLeft.mouseover" end="arrowLeft.mouseout"/>
                  </use>
                  <path fill="none" stroke="white" stroke-width="1.5" d="M0,-3.0v7 M-2.5,-0.5L0,-3.0L2.5,-0.5"/>
                </g>
        </g>
        <svg viewBox="0 0 15 15" width="100%" height="30px" preserveAspectRatio="xMaxYMin meet">
         <g id="arrow_out" transform="scale(0.3 0.3)">
          <a xlink:href="random__deviate_8cc__incl_org.svg" target="_base">
           <rect id="button" ry="5" rx="5" y="6" x="6" height="38" width="38"
                fill="#f2f5e9" fill-opacity="0.5" stroke="#606060" stroke-width="1.0"/>
           <path id="arrow"
             d="M 11.500037,31.436501 C 11.940474,20.09759 22.043105,11.32322 32.158766,21.979434 L 37.068811,17.246167 C 37.068811,17.246167 37.088388,32 37.088388,32 L 22.160133,31.978069 C 22.160133,31.978069 26.997745,27.140456 26.997745,27.140456 C 18.528582,18.264221 13.291696,25.230495 11.500037,31.436501 z"
             style="fill:#404040;"/>
          </a>
         </g>
        </svg>
</svg>
