<?xml version="1.0" encoding="UTF-8" standalone="no"?>
<!DOCTYPE svg PUBLIC "-//W3C//DTD SVG 1.1//EN"
 "http://www.w3.org/Graphics/SVG/1.1/DTD/svg11.dtd">
<!-- Generated by graphviz version 2.38.0 (20140413.2041)
 -->
<!-- Title: random.cc Pages: 1 -->
<svg width="546pt" height="151pt"
 viewBox="0.00 0.00 545.50 151.00" xmlns="http://www.w3.org/2000/svg" xmlns:xlink="http://www.w3.org/1999/xlink">
<g id="graph0" class="graph" transform="scale(1 1) rotate(0) translate(4 147)">
<title>random.cc</title>
<polygon fill="white" stroke="none" points="-4,4 -4,-147 541.5,-147 541.5,4 -4,4"/>
<!-- Node1 -->
<g id="node1" class="node"><title>Node1</title>
<polygon fill="#bfbfbf" stroke="black" points="129,-123.5 129,-142.5 197,-142.5 197,-123.5 129,-123.5"/>
<text text-anchor="middle" x="163" y="-130.5" font-family="Helvetica,sans-Serif" font-size="10.00">random.cc</text>
</g>
<!-- Node2 -->
<g id="node2" class="node"><title>Node2</title>
<g id="a_node2"><a xlink:href="random_8h.xhtml" target="_top" xlink:title="Contains helpers for randomness simulations. ">
<polygon fill="white" stroke="black" points="131.5,-67.5 131.5,-86.5 194.5,-86.5 194.5,-67.5 131.5,-67.5"/>
<text text-anchor="middle" x="163" y="-74.5" font-family="Helvetica,sans-Serif" font-size="10.00">random.h</text>
</a>
</g>
</g>
<!-- Node1&#45;&gt;Node2 -->
<g id="edge1" class="edge"><title>Node1&#45;&gt;Node2</title>
<path fill="none" stroke="midnightblue" d="M163,-123.083C163,-116.006 163,-105.861 163,-96.9865"/>
<polygon fill="midnightblue" stroke="midnightblue" points="166.5,-96.751 163,-86.7511 159.5,-96.7511 166.5,-96.751"/>
</g>
<!-- Node3 -->
<g id="node3" class="node"><title>Node3</title>
<polygon fill="white" stroke="#bfbfbf" points="0,-6 0,-25 52,-25 52,-6 0,-6"/>
<text text-anchor="middle" x="26" y="-13" font-family="Helvetica,sans-Serif" font-size="10.00">cassert</text>
</g>
<!-- Node2&#45;&gt;Node3 -->
<g id="edge2" class="edge"><title>Node2&#45;&gt;Node3</title>
<path fill="none" stroke="midnightblue" d="M143.371,-67.4751C120.176,-57.4013 81.3815,-40.5525 54.7869,-29.0023"/>
<polygon fill="midnightblue" stroke="midnightblue" points="56.1589,-25.7824 45.5923,-25.0091 53.3704,-32.203 56.1589,-25.7824"/>
</g>
<!-- Node4 -->
<g id="node4" class="node"><title>Node4</title>
<polygon fill="white" stroke="#bfbfbf" points="70.5,-6 70.5,-25 117.5,-25 117.5,-6 70.5,-6"/>
<text text-anchor="middle" x="94" y="-13" font-family="Helvetica,sans-Serif" font-size="10.00">cmath</text>
</g>
<!-- Node2&#45;&gt;Node4 -->
<g id="edge3" class="edge"><title>Node2&#45;&gt;Node4</title>
<path fill="none" stroke="midnightblue" d="M153.114,-67.4751C142.354,-58.1966 124.929,-43.1706 111.779,-31.831"/>
<polygon fill="midnightblue" stroke="midnightblue" points="113.727,-28.889 103.868,-25.0091 109.155,-34.1902 113.727,-28.889"/>
</g>
<!-- Node5 -->
<g id="node5" class="node"><title>Node5</title>
<polygon fill="white" stroke="#bfbfbf" points="136,-6 136,-25 190,-25 190,-6 136,-6"/>
<text text-anchor="middle" x="163" y="-13" font-family="Helvetica,sans-Serif" font-size="10.00">random</text>
</g>
<!-- Node2&#45;&gt;Node5 -->
<g id="edge4" class="edge"><title>Node2&#45;&gt;Node5</title>
<path fill="none" stroke="midnightblue" d="M163,-67.4751C163,-59.0803 163,-45.9806 163,-35.1631"/>
<polygon fill="midnightblue" stroke="midnightblue" points="166.5,-35.0091 163,-25.0091 159.5,-35.0091 166.5,-35.0091"/>
</g>
<!-- Node6 -->
<g id="node6" class="node"><title>Node6</title>
<polygon fill="white" stroke="#bfbfbf" points="208,-6 208,-25 396,-25 396,-6 208,-6"/>
<text text-anchor="middle" x="302" y="-13" font-family="Helvetica,sans-Serif" font-size="10.00">boost/random/beta_distribution.hpp</text>
</g>
<!-- Node2&#45;&gt;Node6 -->
<g id="edge5" class="edge"><title>Node2&#45;&gt;Node6</title>
<path fill="none" stroke="midnightblue" d="M182.915,-67.4751C206.449,-57.4013 245.81,-40.5525 272.793,-29.0023"/>
<polygon fill="midnightblue" stroke="midnightblue" points="274.306,-32.162 282.122,-25.0091 271.551,-25.7267 274.306,-32.162"/>
</g>
<!-- Node7 -->
<g id="node7" class="node"><title>Node7</title>
<polygon fill="white" stroke="#bfbfbf" points="414.5,-0.5 414.5,-30.5 537.5,-30.5 537.5,-0.5 414.5,-0.5"/>
<text text-anchor="start" x="422.5" y="-18.5" font-family="Helvetica,sans-Serif" font-size="10.00">boost/random/triangle</text>
<text text-anchor="middle" x="476" y="-7.5" font-family="Helvetica,sans-Serif" font-size="10.00">_distribution.hpp</text>
</g>
<!-- Node2&#45;&gt;Node7 -->
<g id="edge6" class="edge"><title>Node2&#45;&gt;Node7</title>
<path fill="none" stroke="midnightblue" d="M194.746,-70.2809C239.218,-62.2288 322.848,-46.9415 404.495,-31.0782"/>
<polygon fill="midnightblue" stroke="midnightblue" points="405.293,-34.4886 414.44,-29.1412 403.955,-27.6177 405.293,-34.4886"/>
</g>
</g>
</svg>
