<?xml version="1.0" encoding="UTF-8" standalone="no"?>
<!DOCTYPE svg PUBLIC "-//W3C//DTD SVG 1.1//EN"
 "http://www.w3.org/Graphics/SVG/1.1/DTD/svg11.dtd">
<!-- Generated by graphviz version 2.38.0 (20140413.2041)
 -->
<!-- Title: random_deviate.h Pages: 1 -->
<!--zoomable 229 -->
<svg id="main" version="1.1" xmlns="http://www.w3.org/2000/svg" xmlns:xlink="http://www.w3.org/1999/xlink" xml:space="preserve" onload="init(evt)">
<style type="text/css"><![CDATA[
.edge:hover path { stroke: red; }
.edge:hover polygon { stroke: red; fill: red; }
]]></style>
<script type="text/javascript"><![CDATA[
var edges = document.getElementsByTagName('g');
if (edges && edges.length) {
  for (var i=0;i<edges.length;i++) {
    if (edges[i].id.substr(0,4)=='edge') {
      edges[i].setAttribute('class','edge');
    }
  }
}
]]></script>
        <defs>
                <circle id="rim" cx="0" cy="0" r="7"/>
                <circle id="rim2" cx="0" cy="0" r="3.5"/>
                <g id="zoomPlus">
                        <use xlink:href="#rim" fill="#404040">
                                <set attributeName="fill" to="#808080" begin="zoomplus.mouseover" end="zoomplus.mouseout"/>
                        </use>
                        <path d="M-4,0h8M0,-4v8" fill="none" stroke="white" stroke-width="1.5" pointer-events="none"/>
                </g>
                <g id="zoomMin">
                        <use xlink:href="#rim" fill="#404040">
                                <set attributeName="fill" to="#808080" begin="zoomminus.mouseover" end="zoomminus.mouseout"/>
                        </use>
                        <path d="M-4,0h8" fill="none" stroke="white" stroke-width="1.5" pointer-events="none"/>
                </g>
                <g id="dirArrow">
                        <path fill="none" stroke="white" stroke-width="1.5" d="M0,-3.0v7 M-2.5,-0.5L0,-3.0L2.5,-0.5"/>
                </g>
               <g id="resetDef">
                       <use xlink:href="#rim2" fill="#404040">
                               <set attributeName="fill" to="#808080" begin="reset.mouseover" end="reset.mouseout"/>
                       </use>
               </g>
        </defs>

<script type="text/javascript">
var viewWidth = 1019;
var viewHeight = 229;
var sectionId = 'dynsection-0';
</script>
<script xlink:href="svgpan.js"/>
<svg id="graph" class="graph">
<g id="viewport">
<title>random_deviate.h</title>
<polygon fill="white" stroke="none" points="-4,4 -4,-225 1014.5,-225 1014.5,4 -4,4"/>
<!-- Node1 -->
<g id="node1" class="node"><title>Node1</title>
<polygon fill="#bfbfbf" stroke="black" points="361.5,-201.5 361.5,-220.5 465.5,-220.5 465.5,-201.5 361.5,-201.5"/>
<text text-anchor="middle" x="413.5" y="-208.5" font-family="Helvetica,sans-Serif" font-size="10.00">random_deviate.h</text>
</g>
<!-- Node2 -->
<g id="node2" class="node"><title>Node2</title>
<polygon fill="white" stroke="#bfbfbf" points="199,-140 199,-159 256,-159 256,-140 199,-140"/>
<text text-anchor="middle" x="227.5" y="-147" font-family="Helvetica,sans-Serif" font-size="10.00">memory</text>
</g>
<!-- Node1&#45;&gt;Node2 -->
<g id="edge1" class="edge"><title>Node1&#45;&gt;Node2</title>
<path fill="none" stroke="midnightblue" d="M385.766,-201.456C356.916,-192.525 310.464,-178.025 270.5,-165 267.761,-164.107 264.928,-163.174 262.082,-162.23"/>
<polygon fill="midnightblue" stroke="midnightblue" points="263.077,-158.872 252.483,-159.02 260.857,-165.511 263.077,-158.872"/>
</g>
<!-- Node3 -->
<g id="node3" class="node"><title>Node3</title>
<polygon fill="white" stroke="#bfbfbf" points="0,-6 0,-25 47,-25 47,-6 0,-6"/>
<text text-anchor="middle" x="23.5" y="-13" font-family="Helvetica,sans-Serif" font-size="10.00">vector</text>
</g>
<!-- Node1&#45;&gt;Node3 -->
<g id="edge2" class="edge"><title>Node1&#45;&gt;Node3</title>
<path fill="none" stroke="midnightblue" d="M397.013,-201.468C369.589,-187.303 312.834,-158.107 264.5,-134 187.08,-95.3859 95.0435,-50.9057 50.4236,-29.4313"/>
<polygon fill="midnightblue" stroke="midnightblue" points="51.9209,-26.2677 41.392,-25.0872 48.8867,-32.5759 51.9209,-26.2677"/>
</g>
<!-- Node4 -->
<g id="node4" class="node"><title>Node4</title>
<polygon fill="white" stroke="#bfbfbf" points="608,-134.5 608,-164.5 721,-164.5 721,-134.5 608,-134.5"/>
<text text-anchor="start" x="616" y="-152.5" font-family="Helvetica,sans-Serif" font-size="10.00">boost/range/iterator</text>
<text text-anchor="middle" x="664.5" y="-141.5" font-family="Helvetica,sans-Serif" font-size="10.00">_range.hpp</text>
</g>
<!-- Node1&#45;&gt;Node4 -->
<g id="edge3" class="edge"><title>Node1&#45;&gt;Node4</title>
<path fill="none" stroke="midnightblue" d="M449.462,-201.475C488.061,-192.325 550.237,-177.586 597.827,-166.305"/>
<polygon fill="midnightblue" stroke="midnightblue" points="598.825,-169.666 607.748,-163.953 597.21,-162.854 598.825,-169.666"/>
</g>
<!-- Node5 -->
<g id="node5" class="node"><title>Node5</title>
<g id="a_node5"><a xlink:href="expression_8h.xhtml" target="_top" xlink:title="Provides the base class for all expressions and units for expression values. ">
<polygon fill="white" stroke="black" points="495,-140 495,-159 590,-159 590,-140 495,-140"/>
<text text-anchor="middle" x="542.5" y="-147" font-family="Helvetica,sans-Serif" font-size="10.00">src/expression.h</text>
</a>
</g>
</g>
<!-- Node1&#45;&gt;Node5 -->
<g id="edge4" class="edge"><title>Node1&#45;&gt;Node5</title>
<path fill="none" stroke="midnightblue" d="M431.983,-201.475C453.632,-191.49 489.713,-174.848 514.732,-163.307"/>
<polygon fill="midnightblue" stroke="midnightblue" points="516.437,-166.376 524.052,-159.009 513.505,-160.019 516.437,-166.376"/>
</g>
<!-- Node5&#45;&gt;Node3 -->
<g id="edge9" class="edge"><title>Node5&#45;&gt;Node3</title>
<path fill="none" stroke="midnightblue" d="M494.898,-141.759C453.056,-134.633 391.251,-121.142 341.5,-98 320.138,-88.0633 320.328,-75.8668 298.5,-67 197.348,-25.9102 160.236,-61.8288 55.5,-31 53.5691,-30.4317 51.6043,-29.7689 49.6464,-29.0455"/>
<polygon fill="midnightblue" stroke="midnightblue" points="50.681,-25.6853 40.1035,-25.0797 47.9946,-32.1493 50.681,-25.6853"/>
</g>
<!-- Node6 -->
<g id="node6" class="node"><title>Node6</title>
<polygon fill="white" stroke="#bfbfbf" points="434.5,-73 434.5,-92 496.5,-92 496.5,-73 434.5,-73"/>
<text text-anchor="middle" x="465.5" y="-80" font-family="Helvetica,sans-Serif" font-size="10.00">algorithm</text>
</g>
<!-- Node5&#45;&gt;Node6 -->
<g id="edge5" class="edge"><title>Node5&#45;&gt;Node6</title>
<path fill="none" stroke="midnightblue" d="M532.115,-139.734C519.646,-129.208 498.526,-111.379 483.408,-98.6174"/>
<polygon fill="midnightblue" stroke="midnightblue" points="485.619,-95.9034 475.72,-92.1273 481.104,-101.252 485.619,-95.9034"/>
</g>
<!-- Node7 -->
<g id="node7" class="node"><title>Node7</title>
<polygon fill="white" stroke="#bfbfbf" points="514.5,-73 514.5,-92 570.5,-92 570.5,-73 514.5,-73"/>
<text text-anchor="middle" x="542.5" y="-80" font-family="Helvetica,sans-Serif" font-size="10.00">sstream</text>
</g>
<!-- Node5&#45;&gt;Node7 -->
<g id="edge6" class="edge"><title>Node5&#45;&gt;Node7</title>
<path fill="none" stroke="midnightblue" d="M542.5,-139.734C542.5,-130.183 542.5,-114.618 542.5,-102.283"/>
<polygon fill="midnightblue" stroke="midnightblue" points="546,-102.127 542.5,-92.1273 539,-102.127 546,-102.127"/>
</g>
<!-- Node8 -->
<g id="node8" class="node"><title>Node8</title>
<polygon fill="white" stroke="#bfbfbf" points="628.5,-6 628.5,-25 672.5,-25 672.5,-6 628.5,-6"/>
<text text-anchor="middle" x="650.5" y="-13" font-family="Helvetica,sans-Serif" font-size="10.00">string</text>
</g>
<!-- Node5&#45;&gt;Node8 -->
<g id="edge7" class="edge"><title>Node5&#45;&gt;Node8</title>
<path fill="none" stroke="midnightblue" d="M549.586,-139.839C567.363,-118.112 614.076,-61.0187 637.175,-32.7856"/>
<polygon fill="midnightblue" stroke="midnightblue" points="639.905,-34.9771 643.528,-25.0212 634.487,-30.5444 639.905,-34.9771"/>
</g>
<!-- Node9 -->
<g id="node9" class="node"><title>Node9</title>
<polygon fill="white" stroke="#bfbfbf" points="692.5,-73 692.5,-92 734.5,-92 734.5,-73 692.5,-73"/>
<text text-anchor="middle" x="713.5" y="-80" font-family="Helvetica,sans-Serif" font-size="10.00">utility</text>
</g>
<!-- Node5&#45;&gt;Node9 -->
<g id="edge8" class="edge"><title>Node5&#45;&gt;Node9</title>
<path fill="none" stroke="midnightblue" d="M569.067,-139.924C597.654,-130.48 644.295,-114.441 683.5,-98 684.7,-97.4967 685.921,-96.9698 687.15,-96.4274"/>
<polygon fill="midnightblue" stroke="midnightblue" points="688.902,-99.4734 696.51,-92.0992 685.964,-93.1199 688.902,-99.4734"/>
</g>
<!-- Node10 -->
<g id="node10" class="node"><title>Node10</title>
<polygon fill="white" stroke="#bfbfbf" points="752.5,-67.5 752.5,-97.5 864.5,-97.5 864.5,-67.5 752.5,-67.5"/>
<text text-anchor="start" x="760.5" y="-85.5" font-family="Helvetica,sans-Serif" font-size="10.00">boost/icl/continuous</text>
<text text-anchor="middle" x="808.5" y="-74.5" font-family="Helvetica,sans-Serif" font-size="10.00">_interval.hpp</text>
</g>
<!-- Node5&#45;&gt;Node10 -->
<g id="edge10" class="edge"><title>Node5&#45;&gt;Node10</title>
<path fill="none" stroke="midnightblue" d="M575.049,-139.97C582.732,-137.985 590.9,-135.898 598.5,-134 646.562,-122 700.943,-108.937 742.322,-99.1033"/>
<polygon fill="midnightblue" stroke="midnightblue" points="743.361,-102.454 752.282,-96.7392 741.744,-95.6434 743.361,-102.454"/>
</g>
<!-- Node11 -->
<g id="node11" class="node"><title>Node11</title>
<polygon fill="white" stroke="#bfbfbf" points="882.5,-73 882.5,-92 1010.5,-92 1010.5,-73 882.5,-73"/>
<text text-anchor="middle" x="946.5" y="-80" font-family="Helvetica,sans-Serif" font-size="10.00">boost/noncopyable.hpp</text>
</g>
<!-- Node5&#45;&gt;Node11 -->
<g id="edge11" class="edge"><title>Node5&#45;&gt;Node11</title>
<path fill="none" stroke="midnightblue" d="M572.57,-139.987C580.92,-137.823 590.021,-135.646 598.5,-134 719.505,-110.507 751.871,-118.018 873.5,-98 880.858,-96.789 888.608,-95.3871 896.2,-93.9419"/>
<polygon fill="midnightblue" stroke="midnightblue" points="896.894,-97.3726 906.043,-92.0295 895.559,-90.5011 896.894,-97.3726"/>
</g>
<!-- Node12 -->
<g id="node12" class="node"><title>Node12</title>
<g id="a_node12"><a xlink:href="element_8h.xhtml" target="_top" xlink:title="Helper classes, structs, and properties common to all other classes. ">
<polygon fill="white" stroke="black" points="351,-73 351,-92 416,-92 416,-73 351,-73"/>
<text text-anchor="middle" x="383.5" y="-80" font-family="Helvetica,sans-Serif" font-size="10.00">element.h</text>
</a>
</g>
</g>
<!-- Node5&#45;&gt;Node12 -->
<g id="edge12" class="edge"><title>Node5&#45;&gt;Node12</title>
<path fill="none" stroke="midnightblue" d="M521.386,-139.869C493.869,-128.619 445.552,-108.867 414.041,-95.9853"/>
<polygon fill="midnightblue" stroke="midnightblue" points="415.029,-92.6081 404.448,-92.0637 412.38,-99.0875 415.029,-92.6081"/>
</g>
<!-- Node17 -->
<g id="node17" class="node"><title>Node17</title>
<g id="a_node17"><a xlink:href="error_8h.xhtml" target="_top" xlink:title="Exceptions for SCRAM. ">
<polygon fill="white" stroke="black" points="626.5,-73 626.5,-92 674.5,-92 674.5,-73 626.5,-73"/>
<text text-anchor="middle" x="650.5" y="-80" font-family="Helvetica,sans-Serif" font-size="10.00">error.h</text>
</a>
</g>
</g>
<!-- Node5&#45;&gt;Node17 -->
<g id="edge19" class="edge"><title>Node5&#45;&gt;Node17</title>
<path fill="none" stroke="midnightblue" d="M557.065,-139.734C575.121,-128.867 606.11,-110.216 627.416,-97.3931"/>
<polygon fill="midnightblue" stroke="midnightblue" points="629.402,-100.283 636.165,-92.1273 625.793,-94.2852 629.402,-100.283"/>
</g>
<!-- Node12&#45;&gt;Node3 -->
<g id="edge15" class="edge"><title>Node12&#45;&gt;Node3</title>
<path fill="none" stroke="midnightblue" d="M358.344,-72.8666C351.336,-70.7014 343.677,-68.5548 336.5,-67 213.445,-40.3426 176.629,-65.3642 55.5,-31 53.5637,-30.4507 51.5948,-29.802 49.6339,-29.0888"/>
<polygon fill="midnightblue" stroke="midnightblue" points="50.6634,-25.7272 40.0845,-25.1452 47.9914,-32.1972 50.6634,-25.7272"/>
</g>
<!-- Node12&#45;&gt;Node8 -->
<g id="edge14" class="edge"><title>Node12&#45;&gt;Node8</title>
<path fill="none" stroke="midnightblue" d="M406.417,-72.8975C412.559,-70.7824 419.235,-68.653 425.5,-67 510.293,-44.629 535.999,-57.7932 619.5,-31 621.172,-30.4633 622.872,-29.8573 624.57,-29.205"/>
<polygon fill="midnightblue" stroke="midnightblue" points="626.271,-32.2838 634.082,-25.1249 623.512,-25.8507 626.271,-32.2838"/>
</g>
<!-- Node13 -->
<g id="node13" class="node"><title>Node13</title>
<polygon fill="white" stroke="#bfbfbf" points="65,-6 65,-25 114,-25 114,-6 65,-6"/>
<text text-anchor="middle" x="89.5" y="-13" font-family="Helvetica,sans-Serif" font-size="10.00">cstdint</text>
</g>
<!-- Node12&#45;&gt;Node13 -->
<g id="edge13" class="edge"><title>Node12&#45;&gt;Node13</title>
<path fill="none" stroke="midnightblue" d="M357.811,-72.9051C350.938,-70.7899 343.479,-68.6586 336.5,-67 243.093,-44.8 215.629,-58.0189 123.5,-31 121.349,-30.3691 119.151,-29.6403 116.96,-28.8521"/>
<polygon fill="midnightblue" stroke="midnightblue" points="118.147,-25.5578 107.561,-25.1357 115.574,-32.0675 118.147,-25.5578"/>
</g>
<!-- Node14 -->
<g id="node14" class="node"><title>Node14</title>
<polygon fill="white" stroke="#bfbfbf" points="132.5,-6 132.5,-25 304.5,-25 304.5,-6 132.5,-6"/>
<text text-anchor="middle" x="218.5" y="-13" font-family="Helvetica,sans-Serif" font-size="10.00">boost/multi_index_container.hpp</text>
</g>
<!-- Node12&#45;&gt;Node14 -->
<g id="edge16" class="edge"><title>Node12&#45;&gt;Node14</title>
<path fill="none" stroke="midnightblue" d="M361.589,-72.8685C332.91,-61.5706 282.459,-41.6961 249.77,-28.8183"/>
<polygon fill="midnightblue" stroke="midnightblue" points="250.825,-25.4725 240.239,-25.0637 248.26,-31.9854 250.825,-25.4725"/>
</g>
<!-- Node15 -->
<g id="node15" class="node"><title>Node15</title>
<polygon fill="white" stroke="#bfbfbf" points="322.5,-0.5 322.5,-30.5 462.5,-30.5 462.5,-0.5 322.5,-0.5"/>
<text text-anchor="start" x="330.5" y="-18.5" font-family="Helvetica,sans-Serif" font-size="10.00">boost/multi_index/hashed</text>
<text text-anchor="middle" x="392.5" y="-7.5" font-family="Helvetica,sans-Serif" font-size="10.00">_index.hpp</text>
</g>
<!-- Node12&#45;&gt;Node15 -->
<g id="edge17" class="edge"><title>Node12&#45;&gt;Node15</title>
<path fill="none" stroke="midnightblue" d="M384.714,-72.7338C385.848,-64.5406 387.595,-51.9225 389.147,-40.7136"/>
<polygon fill="midnightblue" stroke="midnightblue" points="392.645,-40.9746 390.549,-30.589 385.711,-40.0145 392.645,-40.9746"/>
</g>
<!-- Node16 -->
<g id="node16" class="node"><title>Node16</title>
<polygon fill="white" stroke="#bfbfbf" points="480.5,-0.5 480.5,-30.5 610.5,-30.5 610.5,-0.5 480.5,-0.5"/>
<text text-anchor="start" x="488.5" y="-18.5" font-family="Helvetica,sans-Serif" font-size="10.00">boost/multi_index/mem</text>
<text text-anchor="middle" x="545.5" y="-7.5" font-family="Helvetica,sans-Serif" font-size="10.00">_fun.hpp</text>
</g>
<!-- Node12&#45;&gt;Node16 -->
<g id="edge18" class="edge"><title>Node12&#45;&gt;Node16</title>
<path fill="none" stroke="midnightblue" d="M405.012,-72.8685C429.426,-63.0728 469.909,-46.8296 501.163,-34.2897"/>
<polygon fill="midnightblue" stroke="midnightblue" points="502.56,-37.5002 510.538,-30.5281 499.954,-31.0036 502.56,-37.5002"/>
</g>
<!-- Node17&#45;&gt;Node8 -->
<g id="edge21" class="edge"><title>Node17&#45;&gt;Node8</title>
<path fill="none" stroke="midnightblue" d="M650.5,-72.7338C650.5,-63.1826 650.5,-47.6183 650.5,-35.2829"/>
<polygon fill="midnightblue" stroke="midnightblue" points="654,-35.1273 650.5,-25.1273 647,-35.1273 654,-35.1273"/>
</g>
<!-- Node18 -->
<g id="node18" class="node"><title>Node18</title>
<polygon fill="white" stroke="#bfbfbf" points="691,-6 691,-25 754,-25 754,-6 691,-6"/>
<text text-anchor="middle" x="722.5" y="-13" font-family="Helvetica,sans-Serif" font-size="10.00">exception</text>
</g>
<!-- Node17&#45;&gt;Node18 -->
<g id="edge20" class="edge"><title>Node17&#45;&gt;Node18</title>
<path fill="none" stroke="midnightblue" d="M660.21,-72.7338C671.762,-62.3055 691.253,-44.7088 705.36,-31.9732"/>
<polygon fill="midnightblue" stroke="midnightblue" points="707.866,-34.4263 712.944,-25.1273 703.176,-29.2304 707.866,-34.4263"/>
</g>
</g>
</svg>
        <g id="navigator" transform="translate(0 0)" fill="#404254">
                <rect fill="#f2f5e9" fill-opacity="0.5" stroke="#606060" stroke-width=".5" x="0" y="0" width="60" height="60"/>
                <use id="zoomplus" xlink:href="#zoomPlus" x="17" y="9" onmousedown="handleZoom(evt,'in')"/>
                <use id="zoomminus" xlink:href="#zoomMin" x="42" y="9" onmousedown="handleZoom(evt,'out')"/>
                <use id="reset" xlink:href="#resetDef" x="30" y="36" onmousedown="handleReset()"/>
                <g id="arrowUp" xlink:href="#dirArrow" transform="translate(30 24)" onmousedown="handlePan(0,-1)">
                  <use xlink:href="#rim" fill="#404040">
                        <set attributeName="fill" to="#808080" begin="arrowUp.mouseover" end="arrowUp.mouseout"/>
                  </use>
                  <path fill="none" stroke="white" stroke-width="1.5" d="M0,-3.0v7 M-2.5,-0.5L0,-3.0L2.5,-0.5"/>
                </g>
                <g id="arrowRight" xlink:href="#dirArrow" transform="rotate(90) translate(36 -43)" onmousedown="handlePan(1,0)">
                  <use xlink:href="#rim" fill="#404040">
                        <set attributeName="fill" to="#808080" begin="arrowRight.mouseover" end="arrowRight.mouseout"/>
                  </use>
                  <path fill="none" stroke="white" stroke-width="1.5" d="M0,-3.0v7 M-2.5,-0.5L0,-3.0L2.5,-0.5"/>
                </g>
                <g id="arrowDown" xlink:href="#dirArrow" transform="rotate(180) translate(-30 -48)" onmousedown="handlePan(0,1)">
                  <use xlink:href="#rim" fill="#404040">
                        <set attributeName="fill" to="#808080" begin="arrowDown.mouseover" end="arrowDown.mouseout"/>
                  </use>
                  <path fill="none" stroke="white" stroke-width="1.5" d="M0,-3.0v7 M-2.5,-0.5L0,-3.0L2.5,-0.5"/>
                </g>
                <g id="arrowLeft" xlink:href="#dirArrow" transform="rotate(270) translate(-36 17)" onmousedown="handlePan(-1,0)">
                  <use xlink:href="#rim" fill="#404040">
                        <set attributeName="fill" to="#808080" begin="arrowLeft.mouseover" end="arrowLeft.mouseout"/>
                  </use>
                  <path fill="none" stroke="white" stroke-width="1.5" d="M0,-3.0v7 M-2.5,-0.5L0,-3.0L2.5,-0.5"/>
                </g>
        </g>
        <svg viewBox="0 0 15 15" width="100%" height="30px" preserveAspectRatio="xMaxYMin meet">
         <g id="arrow_out" transform="scale(0.3 0.3)">
          <a xlink:href="random__deviate_8h__incl_org.svg" target="_base">
           <rect id="button" ry="5" rx="5" y="6" x="6" height="38" width="38"
                fill="#f2f5e9" fill-opacity="0.5" stroke="#606060" stroke-width="1.0"/>
           <path id="arrow"
             d="M 11.500037,31.436501 C 11.940474,20.09759 22.043105,11.32322 32.158766,21.979434 L 37.068811,17.246167 C 37.068811,17.246167 37.088388,32 37.088388,32 L 22.160133,31.978069 C 22.160133,31.978069 26.997745,27.140456 26.997745,27.140456 C 18.528582,18.264221 13.291696,25.230495 11.500037,31.436501 z"
             style="fill:#404040;"/>
          </a>
         </g>
        </svg>
</svg>
