<?xml version="1.0" encoding="UTF-8" standalone="no"?>
<!DOCTYPE svg PUBLIC "-//W3C//DTD SVG 1.1//EN"
 "http://www.w3.org/Graphics/SVG/1.1/DTD/svg11.dtd">
<!-- Generated by graphviz version 2.38.0 (20140413.2041)
 -->
<!-- Title: risk_analysis.h Pages: 1 -->
<svg width="4197pt" height="531pt"
 viewBox="0.00 0.00 4197.00 531.00" xmlns="http://www.w3.org/2000/svg" xmlns:xlink="http://www.w3.org/1999/xlink">
<g id="graph0" class="graph" transform="scale(1 1) rotate(0) translate(4 527)">
<title>risk_analysis.h</title>
<polygon fill="white" stroke="none" points="-4,4 -4,-527 4193,-527 4193,4 -4,4"/>
<!-- Node1 -->
<g id="node1" class="node"><title>Node1</title>
<polygon fill="#bfbfbf" stroke="black" points="2061,-503.5 2061,-522.5 2147,-522.5 2147,-503.5 2061,-503.5"/>
<text text-anchor="middle" x="2104" y="-510.5" font-family="Helvetica,sans-Serif" font-size="10.00">risk_analysis.h</text>
</g>
<!-- Node2 -->
<g id="node2" class="node"><title>Node2</title>
<polygon fill="white" stroke="#bfbfbf" points="1775.5,-73 1775.5,-92 1832.5,-92 1832.5,-73 1775.5,-73"/>
<text text-anchor="middle" x="1804" y="-80" font-family="Helvetica,sans-Serif" font-size="10.00">memory</text>
</g>
<!-- Node1&#45;&gt;Node2 -->
<g id="edge1" class="edge"><title>Node1&#45;&gt;Node2</title>
<path fill="none" stroke="midnightblue" d="M2091.19,-503.388C2068.12,-486.742 2022,-447.734 2022,-402 2022,-402 2022,-402 2022,-344 2022,-309.183 2020.72,-297.969 2003,-268 1978.66,-226.846 1867.82,-134.972 1822.95,-98.6739"/>
<polygon fill="midnightblue" stroke="midnightblue" points="1824.88,-95.7359 1814.9,-92.1867 1820.49,-101.187 1824.88,-95.7359"/>
</g>
<!-- Node3 -->
<g id="node3" class="node"><title>Node3</title>
<polygon fill="white" stroke="#bfbfbf" points="3313,-6 3313,-25 3355,-25 3355,-6 3313,-6"/>
<text text-anchor="middle" x="3334" y="-13" font-family="Helvetica,sans-Serif" font-size="10.00">utility</text>
</g>
<!-- Node1&#45;&gt;Node3 -->
<g id="edge2" class="edge"><title>Node1&#45;&gt;Node3</title>
<path fill="none" stroke="midnightblue" d="M2147.07,-512.051C2445.1,-512.134 4189,-508.083 4189,-402 4189,-402 4189,-402 4189,-148.5 4189,-97.1167 4153.84,-88.1297 4107,-67 4072.65,-51.5039 3505.78,-24.426 3365.3,-17.9301"/>
<polygon fill="midnightblue" stroke="midnightblue" points="3365.36,-14.4291 3355.21,-17.4649 3365.04,-21.4217 3365.36,-14.4291"/>
</g>
<!-- Node4 -->
<g id="node4" class="node"><title>Node4</title>
<polygon fill="white" stroke="#bfbfbf" points="2318.5,-6 2318.5,-25 2365.5,-25 2365.5,-6 2318.5,-6"/>
<text text-anchor="middle" x="2342" y="-13" font-family="Helvetica,sans-Serif" font-size="10.00">vector</text>
</g>
<!-- Node1&#45;&gt;Node4 -->
<g id="edge3" class="edge"><title>Node1&#45;&gt;Node4</title>
<path fill="none" stroke="midnightblue" d="M2147.35,-510.705C2183.97,-507.386 2235.63,-497.163 2269,-467 2291.96,-446.245 2294,-432.952 2294,-402 2294,-402 2294,-402 2294,-344 2294,-312.897 2328.33,-100.167 2338.92,-35.2625"/>
<polygon fill="midnightblue" stroke="midnightblue" points="2342.4,-35.6754 2340.56,-25.2415 2335.5,-34.5455 2342.4,-35.6754"/>
</g>
<!-- Node5 -->
<g id="node5" class="node"><title>Node5</title>
<polygon fill="white" stroke="#bfbfbf" points="1446.5,-140 1446.5,-159 1547.5,-159 1547.5,-140 1446.5,-140"/>
<text text-anchor="middle" x="1497" y="-147" font-family="Helvetica,sans-Serif" font-size="10.00">boost/variant.hpp</text>
</g>
<!-- Node1&#45;&gt;Node5 -->
<g id="edge4" class="edge"><title>Node1&#45;&gt;Node5</title>
<path fill="none" stroke="midnightblue" d="M2074.7,-503.482C2046.89,-495.123 2004.1,-481.544 1968,-467 1861.05,-423.915 1830.5,-418.106 1734,-355 1642.66,-295.269 1548.79,-203.414 1512.56,-166.586"/>
<polygon fill="midnightblue" stroke="midnightblue" points="1514.85,-163.919 1505.35,-159.212 1509.84,-168.811 1514.85,-163.919"/>
</g>
<!-- Node6 -->
<g id="node6" class="node"><title>Node6</title>
<g id="a_node6"><a xlink:href="analysis_8h.xhtml" target="_top" xlink:title="Common facilities for all analysis classes. ">
<polygon fill="white" stroke="black" points="2088,-274 2088,-293 2152,-293 2152,-274 2088,-274"/>
<text text-anchor="middle" x="2120" y="-281" font-family="Helvetica,sans-Serif" font-size="10.00">analysis.h</text>
</a>
</g>
</g>
<!-- Node1&#45;&gt;Node6 -->
<g id="edge5" class="edge"><title>Node1&#45;&gt;Node6</title>
<path fill="none" stroke="midnightblue" d="M2104.61,-503.36C2106.94,-470.138 2115.38,-350.16 2118.67,-303.371"/>
<polygon fill="midnightblue" stroke="midnightblue" points="2122.18,-303.37 2119.39,-293.149 2115.2,-302.879 2122.18,-303.37"/>
</g>
<!-- Node10 -->
<g id="node10" class="node"><title>Node10</title>
<g id="a_node10"><a xlink:href="settings_8h.xhtml" target="_top" xlink:title="Builder for settings. ">
<polygon fill="white" stroke="black" points="2022,-140 2022,-159 2086,-159 2086,-140 2022,-140"/>
<text text-anchor="middle" x="2054" y="-147" font-family="Helvetica,sans-Serif" font-size="10.00">settings.h</text>
</a>
</g>
</g>
<!-- Node1&#45;&gt;Node10 -->
<g id="edge176" class="edge"><title>Node1&#45;&gt;Node10</title>
<path fill="none" stroke="midnightblue" d="M2060.67,-511.936C1770.24,-511.231 118,-502.79 118,-402 118,-402 118,-402 118,-282.5 118,-226.869 161.093,-221.009 213,-201 282.643,-174.154 1481.39,-167.086 1556,-165 1724.9,-160.277 1926.02,-154.319 2011.83,-151.761"/>
<polygon fill="midnightblue" stroke="midnightblue" points="2012.07,-155.255 2021.96,-151.459 2011.86,-148.258 2012.07,-155.255"/>
</g>
<!-- Node12 -->
<g id="node12" class="node"><title>Node12</title>
<g id="a_node12"><a xlink:href="event_8h.xhtml" target="_top" xlink:title="Contains event classes for fault trees. ">
<polygon fill="white" stroke="black" points="906.5,-207 906.5,-226 959.5,-226 959.5,-207 906.5,-207"/>
<text text-anchor="middle" x="933" y="-214" font-family="Helvetica,sans-Serif" font-size="10.00">event.h</text>
</a>
</g>
</g>
<!-- Node1&#45;&gt;Node12 -->
<g id="edge12" class="edge"><title>Node1&#45;&gt;Node12</title>
<path fill="none" stroke="midnightblue" d="M2060.72,-510.942C1979.52,-508.244 1799.16,-498.87 1651,-467 1422.22,-417.787 1373.11,-375.615 1152,-299 1068.19,-269.958 1046.04,-265.718 964,-232 962.626,-231.435 961.225,-230.843 959.815,-230.233"/>
<polygon fill="midnightblue" stroke="midnightblue" points="961.131,-226.987 950.576,-226.075 958.259,-233.371 961.131,-226.987"/>
</g>
<!-- Node23 -->
<g id="node23" class="node"><title>Node23</title>
<g id="a_node23"><a xlink:href="event__tree__analysis_8h.xhtml" target="_top" xlink:title="Event tree analysis facilities. ">
<polygon fill="white" stroke="black" points="1743.5,-335.5 1743.5,-354.5 1864.5,-354.5 1864.5,-335.5 1743.5,-335.5"/>
<text text-anchor="middle" x="1804" y="-342.5" font-family="Helvetica,sans-Serif" font-size="10.00">event_tree_analysis.h</text>
</a>
</g>
</g>
<!-- Node1&#45;&gt;Node23 -->
<g id="edge38" class="edge"><title>Node1&#45;&gt;Node23</title>
<path fill="none" stroke="midnightblue" d="M2084.24,-503.411C2064.63,-494.735 2033.87,-480.692 2008,-467 1940.23,-431.125 1863.11,-383.417 1826.1,-360.074"/>
<polygon fill="midnightblue" stroke="midnightblue" points="1827.91,-357.075 1817.59,-354.686 1824.17,-362.991 1827.91,-357.075"/>
</g>
<!-- Node28 -->
<g id="node28" class="node"><title>Node28</title>
<g id="a_node28"><a xlink:href="fault__tree__analysis_8h.xhtml" target="_top" xlink:title="Fault Tree Analysis. ">
<polygon fill="white" stroke="black" points="2742.5,-335.5 2742.5,-354.5 2857.5,-354.5 2857.5,-335.5 2742.5,-335.5"/>
<text text-anchor="middle" x="2800" y="-342.5" font-family="Helvetica,sans-Serif" font-size="10.00">fault_tree_analysis.h</text>
</a>
</g>
</g>
<!-- Node1&#45;&gt;Node28 -->
<g id="edge62" class="edge"><title>Node1&#45;&gt;Node28</title>
<path fill="none" stroke="midnightblue" d="M2143.94,-503.488C2185.11,-494.642 2251.13,-480.263 2308,-467 2474.07,-428.267 2670.78,-378.805 2756.47,-357.078"/>
<polygon fill="midnightblue" stroke="midnightblue" points="2757.53,-360.42 2766.36,-354.568 2755.81,-353.635 2757.53,-360.42"/>
</g>
<!-- Node53 -->
<g id="node53" class="node"><title>Node53</title>
<g id="a_node53"><a xlink:href="importance__analysis_8h.xhtml" target="_top" xlink:title="Contains functionality to do numerical analysis of importance factors. ">
<polygon fill="white" stroke="black" points="2436,-447.5 2436,-466.5 2560,-466.5 2560,-447.5 2436,-447.5"/>
<text text-anchor="middle" x="2498" y="-454.5" font-family="Helvetica,sans-Serif" font-size="10.00">importance_analysis.h</text>
</a>
</g>
</g>
<!-- Node1&#45;&gt;Node53 -->
<g id="edge127" class="edge"><title>Node1&#45;&gt;Node53</title>
<path fill="none" stroke="midnightblue" d="M2147.29,-506.067C2214.39,-496.871 2344.23,-479.075 2425.72,-467.907"/>
<polygon fill="midnightblue" stroke="midnightblue" points="2426.47,-471.337 2435.9,-466.511 2425.52,-464.401 2426.47,-471.337"/>
</g>
<!-- Node54 -->
<g id="node54" class="node"><title>Node54</title>
<g id="a_node54"><a xlink:href="probability__analysis_8h.xhtml" target="_top" xlink:title="Contains functionality to do numerical analysis of probabilities. ">
<polygon fill="white" stroke="black" points="2740.5,-391.5 2740.5,-410.5 2859.5,-410.5 2859.5,-391.5 2740.5,-391.5"/>
<text text-anchor="middle" x="2800" y="-398.5" font-family="Helvetica,sans-Serif" font-size="10.00">probability_analysis.h</text>
</a>
</g>
</g>
<!-- Node1&#45;&gt;Node54 -->
<g id="edge175" class="edge"><title>Node1&#45;&gt;Node54</title>
<path fill="none" stroke="midnightblue" d="M2147.31,-510.379C2229.95,-506.721 2415.55,-495.778 2569,-467 2640,-453.685 2720.79,-428.589 2765.54,-413.779"/>
<polygon fill="midnightblue" stroke="midnightblue" points="2766.68,-417.089 2775.05,-410.604 2764.46,-410.449 2766.68,-417.089"/>
</g>
<!-- Node55 -->
<g id="node55" class="node"><title>Node55</title>
<g id="a_node55"><a xlink:href="model_8h.xhtml" target="_top" xlink:title="Representation for a model container for risk analysis. ">
<polygon fill="white" stroke="black" points="1072,-391.5 1072,-410.5 1128,-410.5 1128,-391.5 1072,-391.5"/>
<text text-anchor="middle" x="1100" y="-398.5" font-family="Helvetica,sans-Serif" font-size="10.00">model.h</text>
</a>
</g>
</g>
<!-- Node1&#45;&gt;Node55 -->
<g id="edge138" class="edge"><title>Node1&#45;&gt;Node55</title>
<path fill="none" stroke="midnightblue" d="M2060.97,-509.764C1964.59,-504.514 1724.16,-490.075 1524,-467 1381.21,-450.539 1212.72,-421.952 1138.45,-408.88"/>
<polygon fill="midnightblue" stroke="midnightblue" points="1138.64,-405.36 1128.19,-407.067 1137.42,-412.254 1138.64,-405.36"/>
</g>
<!-- Node61 -->
<g id="node61" class="node"><title>Node61</title>
<g id="a_node61"><a xlink:href="uncertainty__analysis_8h.xhtml" target="_top" xlink:title="Provides functionality for uncertainty analysis with Monte Carlo method. ">
<polygon fill="white" stroke="black" points="2137.5,-447.5 2137.5,-466.5 2260.5,-466.5 2260.5,-447.5 2137.5,-447.5"/>
<text text-anchor="middle" x="2199" y="-454.5" font-family="Helvetica,sans-Serif" font-size="10.00">uncertainty_analysis.h</text>
</a>
</g>
</g>
<!-- Node1&#45;&gt;Node61 -->
<g id="edge177" class="edge"><title>Node1&#45;&gt;Node61</title>
<path fill="none" stroke="midnightblue" d="M2119.26,-503.324C2134.22,-494.822 2157.25,-481.729 2174.73,-471.797"/>
<polygon fill="midnightblue" stroke="midnightblue" points="2176.81,-474.639 2183.77,-466.655 2173.35,-468.553 2176.81,-474.639"/>
</g>
<!-- Node7 -->
<g id="node7" class="node"><title>Node7</title>
<polygon fill="white" stroke="#bfbfbf" points="3067,-6 3067,-25 3119,-25 3119,-6 3067,-6"/>
<text text-anchor="middle" x="3093" y="-13" font-family="Helvetica,sans-Serif" font-size="10.00">cassert</text>
</g>
<!-- Node6&#45;&gt;Node7 -->
<g id="edge6" class="edge"><title>Node6&#45;&gt;Node7</title>
<path fill="none" stroke="midnightblue" d="M2105.47,-273.982C2067.07,-250.473 1968.83,-183.174 2013,-134 2155.93,25.1333 2757.45,-54.9657 2970,-31 2999.17,-27.7115 3032.2,-23.8074 3056.68,-20.8792"/>
<polygon fill="midnightblue" stroke="midnightblue" points="3057.1,-24.3538 3066.62,-19.6886 3056.27,-17.4036 3057.1,-24.3538"/>
</g>
<!-- Node8 -->
<g id="node8" class="node"><title>Node8</title>
<polygon fill="white" stroke="#bfbfbf" points="496,-6 496,-25 540,-25 540,-6 496,-6"/>
<text text-anchor="middle" x="518" y="-13" font-family="Helvetica,sans-Serif" font-size="10.00">string</text>
</g>
<!-- Node6&#45;&gt;Node8 -->
<g id="edge7" class="edge"><title>Node6&#45;&gt;Node8</title>
<path fill="none" stroke="midnightblue" d="M2097.19,-273.94C2075.14,-265.125 2041.31,-250.14 2015,-232 1927.26,-171.509 1939.44,-107.849 1841,-67 1708.36,-11.9552 688.741,-64.1152 549,-31 546.792,-30.4768 544.553,-29.7871 542.342,-28.9921"/>
<polygon fill="midnightblue" stroke="midnightblue" points="543.574,-25.7129 533.002,-25.0236 540.837,-32.1555 543.574,-25.7129"/>
</g>
<!-- Node9 -->
<g id="node9" class="node"><title>Node9</title>
<polygon fill="white" stroke="#bfbfbf" points="1354,-73 1354,-92 1482,-92 1482,-73 1354,-73"/>
<text text-anchor="middle" x="1418" y="-80" font-family="Helvetica,sans-Serif" font-size="10.00">boost/noncopyable.hpp</text>
</g>
<!-- Node6&#45;&gt;Node9 -->
<g id="edge8" class="edge"><title>Node6&#45;&gt;Node9</title>
<path fill="none" stroke="midnightblue" d="M2089.84,-273.949C1977.66,-242.151 1584.57,-130.717 1457.76,-94.7702"/>
<polygon fill="midnightblue" stroke="midnightblue" points="1458.63,-91.379 1448.05,-92.0189 1456.72,-98.1136 1458.63,-91.379"/>
</g>
<!-- Node6&#45;&gt;Node10 -->
<g id="edge9" class="edge"><title>Node6&#45;&gt;Node10</title>
<path fill="none" stroke="midnightblue" d="M2115.53,-273.948C2110.31,-263.924 2101.44,-246.801 2094,-232 2082.98,-210.076 2070.57,-184.676 2062.53,-168.136"/>
<polygon fill="midnightblue" stroke="midnightblue" points="2065.66,-166.564 2058.15,-159.092 2059.36,-169.618 2065.66,-166.564"/>
</g>
<!-- Node10&#45;&gt;Node8 -->
<g id="edge11" class="edge"><title>Node10&#45;&gt;Node8</title>
<path fill="none" stroke="midnightblue" d="M2043.61,-139.921C2021.47,-122.241 1967.3,-82.1396 1914,-67 1622.11,15.9166 844.314,-100.75 549,-31 546.792,-30.4785 544.553,-29.7899 542.341,-28.9956"/>
<polygon fill="midnightblue" stroke="midnightblue" points="543.573,-25.7164 533.001,-25.0284 540.836,-32.1593 543.573,-25.7164"/>
</g>
<!-- Node11 -->
<g id="node11" class="node"><title>Node11</title>
<polygon fill="white" stroke="#bfbfbf" points="1505.5,-6 1505.5,-25 1554.5,-25 1554.5,-6 1505.5,-6"/>
<text text-anchor="middle" x="1530" y="-13" font-family="Helvetica,sans-Serif" font-size="10.00">cstdint</text>
</g>
<!-- Node10&#45;&gt;Node11 -->
<g id="edge10" class="edge"><title>Node10&#45;&gt;Node11</title>
<path fill="none" stroke="midnightblue" d="M2052.13,-139.796C2047.94,-122.605 2036.05,-84.4525 2010,-67 1937.2,-18.2246 1662.94,-15.4404 1565.02,-16.0545"/>
<polygon fill="midnightblue" stroke="midnightblue" points="1564.74,-12.5565 1554.77,-16.1357 1564.79,-19.5563 1564.74,-12.5565"/>
</g>
<!-- Node12&#45;&gt;Node2 -->
<g id="edge14" class="edge"><title>Node12&#45;&gt;Node2</title>
<path fill="none" stroke="midnightblue" d="M959.902,-211.753C1024.79,-202.611 1188.47,-178.897 1242,-165 1281.33,-154.791 1288.4,-143.098 1328,-134 1487.48,-97.3589 1683.24,-87.2073 1765.12,-84.4731"/>
<polygon fill="midnightblue" stroke="midnightblue" points="1765.56,-87.961 1775.44,-84.1479 1765.34,-80.9645 1765.56,-87.961"/>
</g>
<!-- Node12&#45;&gt;Node4 -->
<g id="edge16" class="edge"><title>Node12&#45;&gt;Node4</title>
<path fill="none" stroke="midnightblue" d="M950.073,-206.884C1005.34,-179.537 1185.08,-94.8606 1345,-67 1536.33,-33.6669 2156.81,-19.9924 2308.37,-17.1036"/>
<polygon fill="midnightblue" stroke="midnightblue" points="2308.53,-20.6013 2318.46,-16.9141 2308.4,-13.6026 2308.53,-20.6013"/>
</g>
<!-- Node12&#45;&gt;Node5 -->
<g id="edge18" class="edge"><title>Node12&#45;&gt;Node5</title>
<path fill="none" stroke="midnightblue" d="M959.823,-212.409C1045.55,-202.529 1314.36,-171.548 1436.07,-157.523"/>
<polygon fill="midnightblue" stroke="midnightblue" points="1436.79,-160.962 1446.32,-156.34 1435.99,-154.008 1436.79,-160.962"/>
</g>
<!-- Node12&#45;&gt;Node8 -->
<g id="edge15" class="edge"><title>Node12&#45;&gt;Node8</title>
<path fill="none" stroke="midnightblue" d="M906.28,-209.899C818.217,-191.181 541.34,-130.167 517,-98 503.36,-79.9737 507.133,-52.7086 511.898,-34.7546"/>
<polygon fill="midnightblue" stroke="midnightblue" points="515.251,-35.756 514.77,-25.1721 508.546,-33.7462 515.251,-35.756"/>
</g>
<!-- Node12&#45;&gt;Node9 -->
<g id="edge17" class="edge"><title>Node12&#45;&gt;Node9</title>
<path fill="none" stroke="midnightblue" d="M959.54,-208.811C997.104,-199.302 1067.9,-181.225 1128,-165 1217.83,-140.747 1322.88,-110.838 1378.6,-94.8501"/>
<polygon fill="midnightblue" stroke="midnightblue" points="1379.77,-98.1558 1388.41,-92.0314 1377.84,-91.4277 1379.77,-98.1558"/>
</g>
<!-- Node12&#45;&gt;Node11 -->
<g id="edge13" class="edge"><title>Node12&#45;&gt;Node11</title>
<path fill="none" stroke="midnightblue" d="M936.583,-206.618C943.659,-190.118 960.942,-154.549 986,-134 1048.16,-83.0277 1076.24,-87.3931 1154,-67 1277.06,-34.7237 1428.49,-22.4035 1495.41,-18.3001"/>
<polygon fill="midnightblue" stroke="midnightblue" points="1495.63,-21.7933 1505.4,-17.7103 1495.21,-14.8054 1495.63,-21.7933"/>
</g>
<!-- Node13 -->
<g id="node13" class="node"><title>Node13</title>
<g id="a_node13"><a xlink:href="element_8h.xhtml" target="_top" xlink:title="Helper classes, structs, and properties common to all other classes. ">
<polygon fill="white" stroke="black" points="310.5,-73 310.5,-92 375.5,-92 375.5,-73 310.5,-73"/>
<text text-anchor="middle" x="343" y="-80" font-family="Helvetica,sans-Serif" font-size="10.00">element.h</text>
</a>
</g>
</g>
<!-- Node12&#45;&gt;Node13 -->
<g id="edge19" class="edge"><title>Node12&#45;&gt;Node13</title>
<path fill="none" stroke="midnightblue" d="M906.212,-212.663C850.31,-206.454 717.343,-190.171 608,-165 523.305,-145.503 426.254,-112.965 376.41,-95.4817"/>
<polygon fill="midnightblue" stroke="midnightblue" points="377.395,-92.1177 366.8,-92.0917 375.066,-98.7191 377.395,-92.1177"/>
</g>
<!-- Node17 -->
<g id="node17" class="node"><title>Node17</title>
<g id="a_node17"><a xlink:href="expression_8h.xhtml" target="_top" xlink:title="Provides the base class for all expressions and units for expression values. ">
<polygon fill="white" stroke="black" points="780.5,-140 780.5,-159 857.5,-159 857.5,-140 780.5,-140"/>
<text text-anchor="middle" x="819" y="-147" font-family="Helvetica,sans-Serif" font-size="10.00">expression.h</text>
</a>
</g>
</g>
<!-- Node12&#45;&gt;Node17 -->
<g id="edge26" class="edge"><title>Node12&#45;&gt;Node17</title>
<path fill="none" stroke="midnightblue" d="M917.625,-206.734C898.481,-195.818 865.562,-177.049 843.064,-164.221"/>
<polygon fill="midnightblue" stroke="midnightblue" points="844.552,-161.04 834.131,-159.127 841.084,-167.121 844.552,-161.04"/>
</g>
<!-- Node13&#45;&gt;Node4 -->
<g id="edge22" class="edge"><title>Node13&#45;&gt;Node4</title>
<path fill="none" stroke="midnightblue" d="M375.58,-78.5986C414.101,-75.2762 480.165,-69.9175 537,-67 900.877,-48.3215 2092.14,-21.9271 2308.23,-17.2292"/>
<polygon fill="midnightblue" stroke="midnightblue" points="2308.41,-20.7262 2318.33,-17.01 2308.25,-13.7279 2308.41,-20.7262"/>
</g>
<!-- Node13&#45;&gt;Node8 -->
<g id="edge21" class="edge"><title>Node13&#45;&gt;Node8</title>
<path fill="none" stroke="midnightblue" d="M369.839,-72.9811C398.988,-63.5228 446.772,-47.414 487,-31 488.375,-30.4388 489.778,-29.849 491.189,-29.2414"/>
<polygon fill="midnightblue" stroke="midnightblue" points="492.742,-32.3805 500.43,-25.0907 489.874,-25.995 492.742,-32.3805"/>
</g>
<!-- Node13&#45;&gt;Node11 -->
<g id="edge20" class="edge"><title>Node13&#45;&gt;Node11</title>
<path fill="none" stroke="midnightblue" d="M375.593,-78.826C414.126,-75.7198 480.202,-70.5664 537,-67 911.977,-43.4551 1367.14,-23.4418 1495.08,-17.9748"/>
<polygon fill="midnightblue" stroke="midnightblue" points="1495.58,-21.4567 1505.42,-17.5341 1495.28,-14.4631 1495.58,-21.4567"/>
</g>
<!-- Node14 -->
<g id="node14" class="node"><title>Node14</title>
<polygon fill="white" stroke="#bfbfbf" points="0,-6 0,-25 172,-25 172,-6 0,-6"/>
<text text-anchor="middle" x="86" y="-13" font-family="Helvetica,sans-Serif" font-size="10.00">boost/multi_index_container.hpp</text>
</g>
<!-- Node13&#45;&gt;Node14 -->
<g id="edge23" class="edge"><title>Node13&#45;&gt;Node14</title>
<path fill="none" stroke="midnightblue" d="M310.451,-73.2677C264.612,-61.6742 180.926,-40.5086 129.707,-27.5542"/>
<polygon fill="midnightblue" stroke="midnightblue" points="130.469,-24.1369 119.916,-25.0781 128.753,-30.9233 130.469,-24.1369"/>
</g>
<!-- Node15 -->
<g id="node15" class="node"><title>Node15</title>
<polygon fill="white" stroke="#bfbfbf" points="190,-0.5 190,-30.5 330,-30.5 330,-0.5 190,-0.5"/>
<text text-anchor="start" x="198" y="-18.5" font-family="Helvetica,sans-Serif" font-size="10.00">boost/multi_index/hashed</text>
<text text-anchor="middle" x="260" y="-7.5" font-family="Helvetica,sans-Serif" font-size="10.00">_index.hpp</text>
</g>
<!-- Node13&#45;&gt;Node15 -->
<g id="edge24" class="edge"><title>Node13&#45;&gt;Node15</title>
<path fill="none" stroke="midnightblue" d="M331.806,-72.7338C320.158,-63.6115 301.505,-49.0038 286.13,-36.9631"/>
<polygon fill="midnightblue" stroke="midnightblue" points="288.022,-33.9991 277.991,-30.589 283.706,-39.5103 288.022,-33.9991"/>
</g>
<!-- Node16 -->
<g id="node16" class="node"><title>Node16</title>
<polygon fill="white" stroke="#bfbfbf" points="348,-0.5 348,-30.5 478,-30.5 478,-0.5 348,-0.5"/>
<text text-anchor="start" x="356" y="-18.5" font-family="Helvetica,sans-Serif" font-size="10.00">boost/multi_index/mem</text>
<text text-anchor="middle" x="413" y="-7.5" font-family="Helvetica,sans-Serif" font-size="10.00">_fun.hpp</text>
</g>
<!-- Node13&#45;&gt;Node16 -->
<g id="edge25" class="edge"><title>Node13&#45;&gt;Node16</title>
<path fill="none" stroke="midnightblue" d="M352.441,-72.7338C362.083,-63.7804 377.415,-49.543 390.24,-37.6346"/>
<polygon fill="midnightblue" stroke="midnightblue" points="392.881,-39.9583 397.827,-30.589 388.118,-34.8288 392.881,-39.9583"/>
</g>
<!-- Node17&#45;&gt;Node3 -->
<g id="edge30" class="edge"><title>Node17&#45;&gt;Node3</title>
<path fill="none" stroke="midnightblue" d="M857.609,-143.396C922.457,-134.725 1057.32,-116.276 1171,-98 1248.56,-85.5317 1266.83,-74.7052 1345,-67 1739.39,-28.1261 2732.1,-48.9188 3128,-31 3190.14,-28.1875 3262.67,-22.5273 3302.96,-19.171"/>
<polygon fill="midnightblue" stroke="midnightblue" points="3303.29,-22.6559 3312.96,-18.3301 3302.71,-15.6805 3303.29,-22.6559"/>
</g>
<!-- Node17&#45;&gt;Node4 -->
<g id="edge31" class="edge"><title>Node17&#45;&gt;Node4</title>
<path fill="none" stroke="midnightblue" d="M836.493,-139.875C873.154,-122.294 961.183,-82.6521 1040,-67 1167.59,-41.6614 2117.09,-21.0859 2308.45,-17.1716"/>
<polygon fill="midnightblue" stroke="midnightblue" points="2308.55,-20.6703 2318.48,-16.9675 2308.41,-13.6717 2308.55,-20.6703"/>
</g>
<!-- Node17&#45;&gt;Node8 -->
<g id="edge29" class="edge"><title>Node17&#45;&gt;Node8</title>
<path fill="none" stroke="midnightblue" d="M780.371,-140.1C770.485,-138.028 759.862,-135.869 750,-134 702.835,-125.062 571.974,-130.883 537,-98 519.995,-82.0114 516.85,-53.9929 516.867,-35.3404"/>
<polygon fill="midnightblue" stroke="midnightblue" points="520.372,-35.234 517.19,-25.1283 513.375,-35.0125 520.372,-35.234"/>
</g>
<!-- Node17&#45;&gt;Node9 -->
<g id="edge33" class="edge"><title>Node17&#45;&gt;Node9</title>
<path fill="none" stroke="midnightblue" d="M857.841,-144.285C955.903,-133.644 1214.81,-105.549 1343.38,-91.5978"/>
<polygon fill="midnightblue" stroke="midnightblue" points="1343.96,-95.0546 1353.53,-90.4961 1343.21,-88.0954 1343.96,-95.0546"/>
</g>
<!-- Node17&#45;&gt;Node13 -->
<g id="edge34" class="edge"><title>Node17&#45;&gt;Node13</title>
<path fill="none" stroke="midnightblue" d="M780.45,-143.236C692.541,-131.231 477.762,-101.902 385.861,-89.3529"/>
<polygon fill="midnightblue" stroke="midnightblue" points="386.179,-85.8639 375.798,-87.9787 385.232,-92.7996 386.179,-85.8639"/>
</g>
<!-- Node18 -->
<g id="node18" class="node"><title>Node18</title>
<polygon fill="white" stroke="#bfbfbf" points="2899,-6 2899,-25 2961,-25 2961,-6 2899,-6"/>
<text text-anchor="middle" x="2930" y="-13" font-family="Helvetica,sans-Serif" font-size="10.00">algorithm</text>
</g>
<!-- Node17&#45;&gt;Node18 -->
<g id="edge27" class="edge"><title>Node17&#45;&gt;Node18</title>
<path fill="none" stroke="midnightblue" d="M854.082,-139.966C927.424,-122.554 1102.57,-83.2117 1252,-67 1335.82,-57.9065 2639.4,-23.9841 2888.9,-17.5553"/>
<polygon fill="midnightblue" stroke="midnightblue" points="2889.08,-21.0518 2898.99,-17.2954 2888.9,-14.0541 2889.08,-21.0518"/>
</g>
<!-- Node19 -->
<g id="node19" class="node"><title>Node19</title>
<polygon fill="white" stroke="#bfbfbf" points="726,-73 726,-92 782,-92 782,-73 726,-73"/>
<text text-anchor="middle" x="754" y="-80" font-family="Helvetica,sans-Serif" font-size="10.00">sstream</text>
</g>
<!-- Node17&#45;&gt;Node19 -->
<g id="edge28" class="edge"><title>Node17&#45;&gt;Node19</title>
<path fill="none" stroke="midnightblue" d="M810.234,-139.734C799.903,-129.403 782.537,-112.037 769.832,-99.3315"/>
<polygon fill="midnightblue" stroke="midnightblue" points="772.173,-96.7235 762.627,-92.1273 767.224,-101.673 772.173,-96.7235"/>
</g>
<!-- Node20 -->
<g id="node20" class="node"><title>Node20</title>
<polygon fill="white" stroke="#bfbfbf" points="800,-67.5 800,-97.5 912,-97.5 912,-67.5 800,-67.5"/>
<text text-anchor="start" x="808" y="-85.5" font-family="Helvetica,sans-Serif" font-size="10.00">boost/icl/continuous</text>
<text text-anchor="middle" x="856" y="-74.5" font-family="Helvetica,sans-Serif" font-size="10.00">_interval.hpp</text>
</g>
<!-- Node17&#45;&gt;Node20 -->
<g id="edge32" class="edge"><title>Node17&#45;&gt;Node20</title>
<path fill="none" stroke="midnightblue" d="M823.99,-139.734C828.846,-131.203 836.433,-117.874 843.002,-106.334"/>
<polygon fill="midnightblue" stroke="midnightblue" points="846.075,-108.011 847.98,-97.589 839.991,-104.548 846.075,-108.011"/>
</g>
<!-- Node21 -->
<g id="node21" class="node"><title>Node21</title>
<g id="a_node21"><a xlink:href="error_8h.xhtml" target="_top" xlink:title="Exceptions for SCRAM. ">
<polygon fill="white" stroke="black" points="546,-73 546,-92 594,-92 594,-73 546,-73"/>
<text text-anchor="middle" x="570" y="-80" font-family="Helvetica,sans-Serif" font-size="10.00">error.h</text>
</a>
</g>
</g>
<!-- Node17&#45;&gt;Node21 -->
<g id="edge35" class="edge"><title>Node17&#45;&gt;Node21</title>
<path fill="none" stroke="midnightblue" d="M786.192,-139.936C738.947,-127.603 652.175,-104.951 604.18,-92.4224"/>
<polygon fill="midnightblue" stroke="midnightblue" points="604.831,-88.9753 594.272,-89.836 603.063,-95.7484 604.831,-88.9753"/>
</g>
<!-- Node21&#45;&gt;Node8 -->
<g id="edge37" class="edge"><title>Node21&#45;&gt;Node8</title>
<path fill="none" stroke="midnightblue" d="M562.987,-72.7338C554.878,-62.5979 541.352,-45.6899 531.245,-33.0556"/>
<polygon fill="midnightblue" stroke="midnightblue" points="533.882,-30.7496 524.902,-25.1273 528.416,-35.1225 533.882,-30.7496"/>
</g>
<!-- Node22 -->
<g id="node22" class="node"><title>Node22</title>
<polygon fill="white" stroke="#bfbfbf" points="558.5,-6 558.5,-25 621.5,-25 621.5,-6 558.5,-6"/>
<text text-anchor="middle" x="590" y="-13" font-family="Helvetica,sans-Serif" font-size="10.00">exception</text>
</g>
<!-- Node21&#45;&gt;Node22 -->
<g id="edge36" class="edge"><title>Node21&#45;&gt;Node22</title>
<path fill="none" stroke="midnightblue" d="M572.697,-72.7338C575.666,-63.0852 580.523,-47.3001 584.337,-34.9063"/>
<polygon fill="midnightblue" stroke="midnightblue" points="587.75,-35.7144 587.345,-25.1273 581.059,-33.6558 587.75,-35.7144"/>
</g>
<!-- Node23&#45;&gt;Node2 -->
<g id="edge39" class="edge"><title>Node23&#45;&gt;Node2</title>
<path fill="none" stroke="midnightblue" d="M1804,-335.333C1804,-298.481 1804,-154.325 1804,-102.33"/>
<polygon fill="midnightblue" stroke="midnightblue" points="1807.5,-102.2 1804,-92.1999 1800.5,-102.2 1807.5,-102.2"/>
</g>
<!-- Node23&#45;&gt;Node4 -->
<g id="edge42" class="edge"><title>Node23&#45;&gt;Node4</title>
<path fill="none" stroke="midnightblue" d="M1807.94,-335.198C1822.84,-302.926 1879.12,-190.061 1961,-134 2073.46,-57.007 2238.3,-28.9413 2308.43,-20.0857"/>
<polygon fill="midnightblue" stroke="midnightblue" points="2308.96,-23.5478 2318.46,-18.8698 2308.11,-16.5986 2308.96,-23.5478"/>
</g>
<!-- Node23&#45;&gt;Node6 -->
<g id="edge43" class="edge"><title>Node23&#45;&gt;Node6</title>
<path fill="none" stroke="midnightblue" d="M1864.54,-336.385C1919.58,-328.878 2002.83,-316.058 2074,-299 2077.63,-298.129 2081.4,-297.121 2085.14,-296.05"/>
<polygon fill="midnightblue" stroke="midnightblue" points="2086.3,-299.355 2094.87,-293.121 2084.29,-292.652 2086.3,-299.355"/>
</g>
<!-- Node23&#45;&gt;Node8 -->
<g id="edge40" class="edge"><title>Node23&#45;&gt;Node8</title>
<path fill="none" stroke="midnightblue" d="M1798.01,-335.471C1769.49,-295.691 1642.54,-127.761 1491,-67 1296.56,10.9609 752.588,-80.3586 549,-31 547.008,-30.517 544.99,-29.9009 542.989,-29.1962"/>
<polygon fill="midnightblue" stroke="midnightblue" points="543.901,-25.7837 533.326,-25.1422 541.193,-32.2386 543.901,-25.7837"/>
</g>
<!-- Node23&#45;&gt;Node10 -->
<g id="edge61" class="edge"><title>Node23&#45;&gt;Node10</title>
<path fill="none" stroke="midnightblue" d="M1864.92,-336.795C1915.69,-329.634 1982.83,-317.094 2003,-299 2041.13,-264.794 2050.76,-200.786 2053.19,-169.163"/>
<polygon fill="midnightblue" stroke="midnightblue" points="2056.69,-169.285 2053.8,-159.092 2049.7,-168.863 2056.69,-169.285"/>
</g>
<!-- Node23&#45;&gt;Node12 -->
<g id="edge44" class="edge"><title>Node23&#45;&gt;Node12</title>
<path fill="none" stroke="midnightblue" d="M1743.27,-341.22C1617.64,-335.133 1333.03,-319.518 1238,-299 1198.29,-290.425 1191.13,-278.945 1152,-268 1074.27,-246.257 1051.79,-253.509 974,-232 971.039,-231.181 967.984,-230.257 964.939,-229.28"/>
<polygon fill="midnightblue" stroke="midnightblue" points="965.97,-225.934 955.376,-226.052 963.731,-232.567 965.97,-225.934"/>
</g>
<!-- Node23&#45;&gt;Node17 -->
<g id="edge56" class="edge"><title>Node23&#45;&gt;Node17</title>
<path fill="none" stroke="midnightblue" d="M1743.45,-341.538C1623.97,-336.238 1361.91,-322.306 1275,-299 1243.7,-290.606 1239.74,-278.26 1209,-268 1134.5,-243.136 1110.64,-256.44 1036,-232 1004.43,-221.664 998.879,-213.235 968,-201 930.699,-186.22 887.147,-171.775 856.798,-162.146"/>
<polygon fill="midnightblue" stroke="midnightblue" points="857.63,-158.738 847.04,-159.072 855.526,-165.415 857.63,-158.738"/>
</g>
<!-- Node24 -->
<g id="node24" class="node"><title>Node24</title>
<polygon fill="white" stroke="#bfbfbf" points="2946.5,-73 2946.5,-92 3039.5,-92 3039.5,-73 2946.5,-73"/>
<text text-anchor="middle" x="2993" y="-80" font-family="Helvetica,sans-Serif" font-size="10.00">unordered_map</text>
</g>
<!-- Node23&#45;&gt;Node24 -->
<g id="edge41" class="edge"><title>Node23&#45;&gt;Node24</title>
<path fill="none" stroke="midnightblue" d="M1814.62,-335.324C1825.32,-326.467 1842.18,-312.185 1856,-299 1929.25,-229.131 1921.03,-176.277 2013,-134 2096.78,-95.488 2739.77,-85.9971 2936.19,-83.9852"/>
<polygon fill="midnightblue" stroke="midnightblue" points="2936.34,-87.484 2946.3,-83.8842 2936.27,-80.4844 2936.34,-87.484"/>
</g>
<!-- Node25 -->
<g id="node25" class="node"><title>Node25</title>
<g id="a_node25"><a xlink:href="event__tree_8h.xhtml" target="_top" xlink:title="Event Tree facilities. ">
<polygon fill="white" stroke="black" points="1356.5,-274 1356.5,-293 1433.5,-293 1433.5,-274 1356.5,-274"/>
<text text-anchor="middle" x="1395" y="-281" font-family="Helvetica,sans-Serif" font-size="10.00">event_tree.h</text>
</a>
</g>
</g>
<!-- Node23&#45;&gt;Node25 -->
<g id="edge45" class="edge"><title>Node23&#45;&gt;Node25</title>
<path fill="none" stroke="midnightblue" d="M1745.4,-335.475C1664.29,-323.675 1519.27,-302.578 1443.75,-291.592"/>
<polygon fill="midnightblue" stroke="midnightblue" points="1443.97,-288.087 1433.57,-290.11 1442.96,-295.014 1443.97,-288.087"/>
</g>
<!-- Node27 -->
<g id="node27" class="node"><title>Node27</title>
<g id="a_node27"><a xlink:href="test__event_8h.xhtml" target="_top" xlink:title="Event tree analysis expressions to test functional and initiating events. ">
<polygon fill="white" stroke="black" points="1130.5,-207 1130.5,-226 1261.5,-226 1261.5,-207 1130.5,-207"/>
<text text-anchor="middle" x="1196" y="-214" font-family="Helvetica,sans-Serif" font-size="10.00">expression/test_event.h</text>
</a>
</g>
</g>
<!-- Node23&#45;&gt;Node27 -->
<g id="edge57" class="edge"><title>Node23&#45;&gt;Node27</title>
<path fill="none" stroke="midnightblue" d="M1743.4,-341.005C1636.65,-335.236 1419.53,-321.161 1347,-299 1296.83,-283.671 1244.23,-250.868 1216.29,-231.884"/>
<polygon fill="midnightblue" stroke="midnightblue" points="1218.01,-228.821 1207.79,-226.021 1214.04,-234.582 1218.01,-228.821"/>
</g>
<!-- Node25&#45;&gt;Node2 -->
<g id="edge46" class="edge"><title>Node25&#45;&gt;Node2</title>
<path fill="none" stroke="midnightblue" d="M1428.88,-273.942C1461.23,-265.23 1510.99,-250.406 1552,-232 1642.42,-191.417 1741.45,-126.397 1783.4,-97.7915"/>
<polygon fill="midnightblue" stroke="midnightblue" points="1785.42,-100.65 1791.68,-92.107 1781.46,-94.8779 1785.42,-100.65"/>
</g>
<!-- Node25&#45;&gt;Node4 -->
<g id="edge48" class="edge"><title>Node25&#45;&gt;Node4</title>
<path fill="none" stroke="midnightblue" d="M1420.72,-273.855C1443.33,-265.45 1476.38,-251.152 1501,-232 1510.4,-224.683 1627.4,-72.4461 1638,-67 1697.96,-36.185 2175.06,-21.0315 2307.82,-17.3843"/>
<polygon fill="midnightblue" stroke="midnightblue" points="2308.28,-20.8732 2318.18,-17.1039 2308.09,-13.8758 2308.28,-20.8732"/>
</g>
<!-- Node25&#45;&gt;Node5 -->
<g id="edge50" class="edge"><title>Node25&#45;&gt;Node5</title>
<path fill="none" stroke="midnightblue" d="M1420.13,-273.998C1439.49,-266.137 1465.34,-252.534 1480,-232 1493.16,-213.571 1496.58,-187.172 1497.25,-169.462"/>
<polygon fill="midnightblue" stroke="midnightblue" points="1500.75,-169.29 1497.37,-159.249 1493.75,-169.208 1500.75,-169.29"/>
</g>
<!-- Node25&#45;&gt;Node8 -->
<g id="edge47" class="edge"><title>Node25&#45;&gt;Node8</title>
<path fill="none" stroke="midnightblue" d="M1383.34,-273.949C1361.7,-258.296 1313.55,-224.491 1270,-201 1138.97,-130.323 1107.28,-103.709 963,-67 784.008,-21.4585 727.386,-78.8603 549,-31 547.063,-30.4804 545.098,-29.8457 543.146,-29.1354"/>
<polygon fill="midnightblue" stroke="midnightblue" points="544.258,-25.8057 533.685,-25.1357 541.533,-32.2532 544.258,-25.8057"/>
</g>
<!-- Node25&#45;&gt;Node9 -->
<g id="edge49" class="edge"><title>Node25&#45;&gt;Node9</title>
<path fill="none" stroke="midnightblue" d="M1392.79,-273.998C1390.31,-264.022 1386.47,-246.943 1385,-232 1380.31,-184.2 1398.94,-129.372 1410.12,-101.624"/>
<polygon fill="midnightblue" stroke="midnightblue" points="1413.48,-102.661 1414.11,-92.0852 1407.02,-99.9617 1413.48,-102.661"/>
</g>
<!-- Node25&#45;&gt;Node12 -->
<g id="edge52" class="edge"><title>Node25&#45;&gt;Node12</title>
<path fill="none" stroke="midnightblue" d="M1356.31,-278.053C1287.09,-269.951 1137.55,-251.786 1012,-232 998.197,-229.825 983.094,-227.13 969.826,-224.657"/>
<polygon fill="midnightblue" stroke="midnightblue" points="970.113,-221.15 959.637,-222.735 968.815,-228.028 970.113,-221.15"/>
</g>
<!-- Node25&#45;&gt;Node13 -->
<g id="edge51" class="edge"><title>Node25&#45;&gt;Node13</title>
<path fill="none" stroke="midnightblue" d="M1356.49,-280.37C1290.57,-275.989 1152.37,-263.576 1040,-232 1006.46,-222.575 1001.35,-211.085 968,-201 882.805,-175.237 858.496,-181.325 771,-165 630.031,-138.698 463.127,-106.656 386.012,-91.7997"/>
<polygon fill="midnightblue" stroke="midnightblue" points="386.22,-88.2755 375.738,-89.8199 384.895,-95.149 386.22,-88.2755"/>
</g>
<!-- Node25&#45;&gt;Node17 -->
<g id="edge53" class="edge"><title>Node25&#45;&gt;Node17</title>
<path fill="none" stroke="midnightblue" d="M1356.37,-277.657C1302.86,-270.434 1203.42,-255.157 1121,-232 1083.89,-221.574 1076.88,-212.21 1040,-201 981.536,-183.229 912.7,-168.439 867.576,-159.55"/>
<polygon fill="midnightblue" stroke="midnightblue" points="868.244,-156.115 857.759,-157.636 866.904,-162.986 868.244,-156.115"/>
</g>
<!-- Node26 -->
<g id="node26" class="node"><title>Node26</title>
<g id="a_node26"><a xlink:href="variant_8h.xhtml" target="_top" xlink:title="Extra helper functions for boost::variant. ">
<polygon fill="white" stroke="black" points="1394.5,-207 1394.5,-226 1471.5,-226 1471.5,-207 1394.5,-207"/>
<text text-anchor="middle" x="1433" y="-214" font-family="Helvetica,sans-Serif" font-size="10.00">ext/variant.h</text>
</a>
</g>
</g>
<!-- Node25&#45;&gt;Node26 -->
<g id="edge54" class="edge"><title>Node25&#45;&gt;Node26</title>
<path fill="none" stroke="midnightblue" d="M1400.12,-273.734C1405.94,-263.793 1415.56,-247.338 1422.89,-234.789"/>
<polygon fill="midnightblue" stroke="midnightblue" points="1425.93,-236.527 1427.96,-226.127 1419.89,-232.994 1425.93,-236.527"/>
</g>
<!-- Node26&#45;&gt;Node5 -->
<g id="edge55" class="edge"><title>Node26&#45;&gt;Node5</title>
<path fill="none" stroke="midnightblue" d="M1441.63,-206.734C1451.8,-196.403 1468.9,-179.037 1481.41,-166.332"/>
<polygon fill="midnightblue" stroke="midnightblue" points="1483.98,-168.709 1488.51,-159.127 1479,-163.797 1483.98,-168.709"/>
</g>
<!-- Node27&#45;&gt;Node8 -->
<g id="edge58" class="edge"><title>Node27&#45;&gt;Node8</title>
<path fill="none" stroke="midnightblue" d="M1167.41,-206.999C1139.66,-198.228 1096.77,-183.275 1062,-165 994.446,-129.495 992.639,-93.3071 921,-67 765.075,-9.74167 709.22,-74.8238 549,-31 547.066,-30.4709 545.103,-29.8294 543.152,-29.1141"/>
<polygon fill="midnightblue" stroke="midnightblue" points="544.266,-25.7849 533.693,-25.104 541.534,-32.2297 544.266,-25.7849"/>
</g>
<!-- Node27&#45;&gt;Node17 -->
<g id="edge60" class="edge"><title>Node27&#45;&gt;Node17</title>
<path fill="none" stroke="midnightblue" d="M1149.48,-206.98C1138.51,-204.995 1126.84,-202.905 1116,-201 1028.77,-185.679 926.993,-168.531 868.078,-158.677"/>
<polygon fill="midnightblue" stroke="midnightblue" points="868.383,-155.179 857.942,-156.983 867.228,-162.084 868.383,-155.179"/>
</g>
<!-- Node27&#45;&gt;Node24 -->
<g id="edge59" class="edge"><title>Node27&#45;&gt;Node24</title>
<path fill="none" stroke="midnightblue" d="M1224.78,-206.982C1256.95,-197.332 1310.48,-180.878 1356,-165 1392.4,-152.304 1399.21,-141.619 1437,-134 1585.95,-103.965 2673.82,-87.7303 2936.18,-84.2262"/>
<polygon fill="midnightblue" stroke="midnightblue" points="2936.3,-87.7251 2946.25,-84.0926 2936.2,-80.7257 2936.3,-87.7251"/>
</g>
<!-- Node28&#45;&gt;Node2 -->
<g id="edge64" class="edge"><title>Node28&#45;&gt;Node2</title>
<path fill="none" stroke="midnightblue" d="M2742.4,-340.079C2676.64,-334.68 2566.25,-322.789 2474,-299 2393.76,-278.308 2376.11,-264.785 2300,-232 2253.63,-212.024 2143.1,-149.35 2095,-134 2007.35,-106.03 1899.6,-92.4597 1843,-86.844"/>
<polygon fill="midnightblue" stroke="midnightblue" points="1843,-83.328 1832.71,-85.8556 1842.33,-90.2959 1843,-83.328"/>
</g>
<!-- Node28&#45;&gt;Node4 -->
<g id="edge66" class="edge"><title>Node28&#45;&gt;Node4</title>
<path fill="none" stroke="midnightblue" d="M2779.88,-335.354C2726.51,-311.96 2577.86,-243.844 2468,-165 2431.96,-139.131 2422.63,-131.892 2394,-98 2376.8,-77.6361 2360.92,-51.1694 2351.35,-34.011"/>
<polygon fill="midnightblue" stroke="midnightblue" points="2354.35,-32.1971 2346.48,-25.1005 2348.21,-35.5541 2354.35,-32.1971"/>
</g>
<!-- Node28&#45;&gt;Node6 -->
<g id="edge69" class="edge"><title>Node28&#45;&gt;Node6</title>
<path fill="none" stroke="midnightblue" d="M2742.32,-338.953C2608.46,-327.24 2279.25,-298.435 2162.17,-288.19"/>
<polygon fill="midnightblue" stroke="midnightblue" points="2162.43,-284.699 2152.16,-287.314 2161.82,-291.673 2162.43,-284.699"/>
</g>
<!-- Node28&#45;&gt;Node10 -->
<g id="edge102" class="edge"><title>Node28&#45;&gt;Node10</title>
<path fill="none" stroke="midnightblue" d="M2742.16,-342.206C2632.92,-336.882 2390.82,-315.763 2208,-232 2184.91,-221.422 2182.18,-213.376 2160,-201 2134.68,-186.872 2104.78,-172.856 2083.2,-163.187"/>
<polygon fill="midnightblue" stroke="midnightblue" points="2084.48,-159.925 2073.92,-159.066 2081.64,-166.323 2084.48,-159.925"/>
</g>
<!-- Node29 -->
<g id="node29" class="node"><title>Node29</title>
<polygon fill="white" stroke="#bfbfbf" points="3999.5,-73 3999.5,-92 4046.5,-92 4046.5,-73 3999.5,-73"/>
<text text-anchor="middle" x="4023" y="-80" font-family="Helvetica,sans-Serif" font-size="10.00">cstdlib</text>
</g>
<!-- Node28&#45;&gt;Node29 -->
<g id="edge63" class="edge"><title>Node28&#45;&gt;Node29</title>
<path fill="none" stroke="midnightblue" d="M2857.57,-340.021C2935.14,-334.082 3077.3,-321.154 3197,-299 3509.66,-241.134 3878.43,-128.895 3989.64,-94.0673"/>
<polygon fill="midnightblue" stroke="midnightblue" points="3990.8,-97.3712 3999.3,-91.0358 3988.71,-90.6927 3990.8,-97.3712"/>
</g>
<!-- Node30 -->
<g id="node30" class="node"><title>Node30</title>
<polygon fill="white" stroke="#bfbfbf" points="1908,-274 1908,-293 1994,-293 1994,-274 1908,-274"/>
<text text-anchor="middle" x="1951" y="-281" font-family="Helvetica,sans-Serif" font-size="10.00">unordered_set</text>
</g>
<!-- Node28&#45;&gt;Node30 -->
<g id="edge65" class="edge"><title>Node28&#45;&gt;Node30</title>
<path fill="none" stroke="midnightblue" d="M2742.45,-341.396C2620.16,-335.646 2325.44,-320.635 2079,-299 2054.46,-296.846 2027.35,-293.862 2004.42,-291.16"/>
<polygon fill="midnightblue" stroke="midnightblue" points="2004.54,-287.65 1994.2,-289.943 2003.71,-294.601 2004.54,-287.65"/>
</g>
<!-- Node31 -->
<g id="node31" class="node"><title>Node31</title>
<polygon fill="white" stroke="#bfbfbf" points="3141,-201.5 3141,-231.5 3261,-231.5 3261,-201.5 3141,-201.5"/>
<text text-anchor="start" x="3149" y="-219.5" font-family="Helvetica,sans-Serif" font-size="10.00">boost/iterator/iterator</text>
<text text-anchor="middle" x="3201" y="-208.5" font-family="Helvetica,sans-Serif" font-size="10.00">_facade.hpp</text>
</g>
<!-- Node28&#45;&gt;Node31 -->
<g id="edge67" class="edge"><title>Node28&#45;&gt;Node31</title>
<path fill="none" stroke="midnightblue" d="M2857.63,-344.223C2949.79,-343.422 3124.75,-336.79 3172,-299 3189.26,-285.198 3196.26,-260.342 3199.09,-241.696"/>
<polygon fill="midnightblue" stroke="midnightblue" points="3202.59,-241.915 3200.32,-231.566 3195.64,-241.069 3202.59,-241.915"/>
</g>
<!-- Node32 -->
<g id="node32" class="node"><title>Node32</title>
<polygon fill="white" stroke="#bfbfbf" points="3031,-268.5 3031,-298.5 3163,-298.5 3163,-268.5 3031,-268.5"/>
<text text-anchor="start" x="3039" y="-286.5" font-family="Helvetica,sans-Serif" font-size="10.00">boost/iterator/transform</text>
<text text-anchor="middle" x="3097" y="-275.5" font-family="Helvetica,sans-Serif" font-size="10.00">_iterator.hpp</text>
</g>
<!-- Node28&#45;&gt;Node32 -->
<g id="edge68" class="edge"><title>Node28&#45;&gt;Node32</title>
<path fill="none" stroke="midnightblue" d="M2842.55,-335.475C2889.01,-326.169 2964.32,-311.081 3020.98,-299.73"/>
<polygon fill="midnightblue" stroke="midnightblue" points="3021.86,-303.124 3030.97,-297.727 3020.48,-296.26 3021.86,-303.124"/>
</g>
<!-- Node33 -->
<g id="node33" class="node"><title>Node33</title>
<g id="a_node33"><a xlink:href="pdag_8h.xhtml" target="_top" xlink:title="Classes and facilities to represent fault trees as PDAGs with event and gate indices instead of ID na...">
<polygon fill="white" stroke="black" points="3620,-140 3620,-159 3670,-159 3670,-140 3620,-140"/>
<text text-anchor="middle" x="3645" y="-147" font-family="Helvetica,sans-Serif" font-size="10.00">pdag.h</text>
</a>
</g>
</g>
<!-- Node28&#45;&gt;Node33 -->
<g id="edge70" class="edge"><title>Node28&#45;&gt;Node33</title>
<path fill="none" stroke="midnightblue" d="M2841.55,-335.481C2875.45,-327.868 2924.23,-315.389 2965,-299 2991.76,-288.245 2994.45,-276.515 3022,-268 3173.09,-221.306 3220.94,-263.072 3376,-232 3463.06,-214.554 3562.27,-180.733 3612.36,-162.629"/>
<polygon fill="midnightblue" stroke="midnightblue" points="3613.8,-165.832 3622,-159.122 3611.4,-159.254 3613.8,-165.832"/>
</g>
<!-- Node42 -->
<g id="node42" class="node"><title>Node42</title>
<g id="a_node42"><a xlink:href="preprocessor_8h.xhtml" target="_top" xlink:title="A collection of PDAG transformation/preprocessing algorithms that simplify fault trees for analysis...">
<polygon fill="white" stroke="black" points="3279,-207 3279,-226 3367,-226 3367,-207 3279,-207"/>
<text text-anchor="middle" x="3323" y="-214" font-family="Helvetica,sans-Serif" font-size="10.00">preprocessor.h</text>
</a>
</g>
</g>
<!-- Node28&#45;&gt;Node42 -->
<g id="edge93" class="edge"><title>Node28&#45;&gt;Node42</title>
<path fill="none" stroke="midnightblue" d="M2820.88,-335.438C2868.24,-316.041 2980.38,-270.246 2989,-268 3110.84,-236.255 3146.53,-256.673 3270,-232 3274.78,-231.045 3279.76,-229.895 3284.67,-228.664"/>
<polygon fill="midnightblue" stroke="midnightblue" points="3285.79,-231.99 3294.57,-226.063 3284.01,-225.219 3285.79,-231.99"/>
</g>
<!-- Node45 -->
<g id="node45" class="node"><title>Node45</title>
<g id="a_node45"><a xlink:href="zbdd_8h.xhtml" target="_top" xlink:title="Zero&#45;Suppressed Binary Decision Diagram facilities. ">
<polygon fill="white" stroke="black" points="2851.5,-274 2851.5,-293 2900.5,-293 2900.5,-274 2851.5,-274"/>
<text text-anchor="middle" x="2876" y="-281" font-family="Helvetica,sans-Serif" font-size="10.00">zbdd.h</text>
</a>
</g>
</g>
<!-- Node28&#45;&gt;Node45 -->
<g id="edge103" class="edge"><title>Node28&#45;&gt;Node45</title>
<path fill="none" stroke="midnightblue" d="M2810.89,-335.475C2822.97,-326.02 2842.67,-310.596 2857.24,-299.187"/>
<polygon fill="midnightblue" stroke="midnightblue" points="2859.41,-301.929 2865.13,-293.009 2855.1,-296.418 2859.41,-301.929"/>
</g>
<!-- Node33&#45;&gt;Node2 -->
<g id="edge75" class="edge"><title>Node33&#45;&gt;Node2</title>
<path fill="none" stroke="midnightblue" d="M3619.84,-142.34C3606.09,-139.251 3588.71,-135.793 3573,-134 3221.24,-93.8544 2069.11,-85.0631 1842.79,-83.7088"/>
<polygon fill="midnightblue" stroke="midnightblue" points="1842.73,-80.2085 1832.71,-83.6498 1842.69,-87.2084 1842.73,-80.2085"/>
</g>
<!-- Node33&#45;&gt;Node3 -->
<g id="edge77" class="edge"><title>Node33&#45;&gt;Node3</title>
<path fill="none" stroke="midnightblue" d="M3665.38,-139.954C3671.3,-137.737 3677.83,-135.542 3684,-134 3802.69,-104.325 4033.91,-156.971 3951,-67 3930.94,-45.2305 3488.29,-23.5226 3365.4,-17.8988"/>
<polygon fill="midnightblue" stroke="midnightblue" points="3365.31,-14.3914 3355.16,-17.4339 3364.99,-21.3842 3365.31,-14.3914"/>
</g>
<!-- Node33&#45;&gt;Node4 -->
<g id="edge78" class="edge"><title>Node33&#45;&gt;Node4</title>
<path fill="none" stroke="midnightblue" d="M3619.72,-143.174C3605.93,-140.329 3588.55,-136.838 3573,-134 3475.53,-116.217 3449.82,-119.027 3353,-98 3301.69,-86.8566 3290.83,-75.4106 3239,-67 3067.94,-39.2409 2518,-21.6233 2375.81,-17.4563"/>
<polygon fill="midnightblue" stroke="midnightblue" points="2375.64,-13.9499 2365.55,-17.158 2375.44,-20.947 2375.64,-13.9499"/>
</g>
<!-- Node33&#45;&gt;Node9 -->
<g id="edge80" class="edge"><title>Node33&#45;&gt;Node9</title>
<path fill="none" stroke="midnightblue" d="M3619.85,-142.286C3606.1,-139.181 3588.72,-135.725 3573,-134 3173.76,-90.1785 2167.44,-110.361 1766,-98 1671.52,-95.091 1562.68,-90.3284 1492.23,-87.0604"/>
<polygon fill="midnightblue" stroke="midnightblue" points="1492.28,-83.5588 1482.12,-86.5895 1491.95,-90.5512 1492.28,-83.5588"/>
</g>
<!-- Node33&#45;&gt;Node11 -->
<g id="edge71" class="edge"><title>Node33&#45;&gt;Node11</title>
<path fill="none" stroke="midnightblue" d="M3619.8,-142.663C3606.04,-139.669 3588.66,-136.198 3573,-134 3375.19,-106.233 3319.43,-143.824 3125,-98 3089.09,-89.537 3084.1,-74.6182 3048,-67 2973.11,-51.1949 1785.16,-22.5134 1564.97,-17.3181"/>
<polygon fill="midnightblue" stroke="midnightblue" points="1564.73,-13.8117 1554.65,-17.0753 1564.57,-20.8098 1564.73,-13.8117"/>
</g>
<!-- Node33&#45;&gt;Node18 -->
<g id="edge73" class="edge"><title>Node33&#45;&gt;Node18</title>
<path fill="none" stroke="midnightblue" d="M3653.93,-139.763C3669.5,-123.502 3698.12,-88.3169 3678,-67 3630.64,-16.8119 3126.75,-36.8859 3058,-31 3029.05,-28.5213 2996.51,-24.8233 2971.48,-21.7822"/>
<polygon fill="midnightblue" stroke="midnightblue" points="2971.6,-18.2707 2961.25,-20.5246 2970.75,-25.2185 2971.6,-18.2707"/>
</g>
<!-- Node33&#45;&gt;Node24 -->
<g id="edge76" class="edge"><title>Node33&#45;&gt;Node24</title>
<path fill="none" stroke="midnightblue" d="M3619.81,-142.595C3606.05,-139.58 3588.67,-136.112 3573,-134 3343.85,-103.111 3282.58,-132.853 3054,-98 3047.64,-97.0309 3040.97,-95.7371 3034.47,-94.3201"/>
<polygon fill="midnightblue" stroke="midnightblue" points="3035,-90.8491 3024.47,-92.0209 3033.43,-97.6714 3035,-90.8491"/>
</g>
<!-- Node33&#45;&gt;Node29 -->
<g id="edge72" class="edge"><title>Node33&#45;&gt;Node29</title>
<path fill="none" stroke="midnightblue" d="M3665.36,-139.894C3671.28,-137.676 3677.82,-135.496 3684,-134 3814.95,-102.302 3854.19,-130.259 3985,-98 3987.83,-97.3026 3990.73,-96.4535 3993.61,-95.5196"/>
<polygon fill="midnightblue" stroke="midnightblue" points="3994.93,-98.7656 4003.18,-92.1156 3992.58,-92.1706 3994.93,-98.7656"/>
</g>
<!-- Node34 -->
<g id="node34" class="node"><title>Node34</title>
<polygon fill="white" stroke="#bfbfbf" points="3362,-73 3362,-92 3408,-92 3408,-73 3362,-73"/>
<text text-anchor="middle" x="3385" y="-80" font-family="Helvetica,sans-Serif" font-size="10.00">iosfwd</text>
</g>
<!-- Node33&#45;&gt;Node34 -->
<g id="edge74" class="edge"><title>Node33&#45;&gt;Node34</title>
<path fill="none" stroke="midnightblue" d="M3623.76,-139.867C3618.05,-137.752 3611.84,-135.631 3606,-134 3523.64,-111.02 3498.52,-123.828 3417,-98 3415.12,-97.4059 3413.21,-96.7313 3411.31,-96.006"/>
<polygon fill="midnightblue" stroke="midnightblue" points="3412.55,-92.7332 3401.98,-92.0943 3409.85,-99.1887 3412.55,-92.7332"/>
</g>
<!-- Node35 -->
<g id="node35" class="node"><title>Node35</title>
<polygon fill="white" stroke="#bfbfbf" points="3426,-67.5 3426,-97.5 3536,-97.5 3536,-67.5 3426,-67.5"/>
<text text-anchor="start" x="3434" y="-85.5" font-family="Helvetica,sans-Serif" font-size="10.00">boost/container/flat</text>
<text text-anchor="middle" x="3481" y="-74.5" font-family="Helvetica,sans-Serif" font-size="10.00">_set.hpp</text>
</g>
<!-- Node33&#45;&gt;Node35 -->
<g id="edge79" class="edge"><title>Node33&#45;&gt;Node35</title>
<path fill="none" stroke="midnightblue" d="M3623.22,-139.869C3598.51,-130.073 3557.52,-113.83 3525.88,-101.29"/>
<polygon fill="midnightblue" stroke="midnightblue" points="3526.98,-97.9589 3516.39,-97.5281 3524.4,-104.466 3526.98,-97.9589"/>
</g>
<!-- Node36 -->
<g id="node36" class="node"><title>Node36</title>
<polygon fill="white" stroke="#bfbfbf" points="3554.5,-67.5 3554.5,-97.5 3669.5,-97.5 3669.5,-67.5 3554.5,-67.5"/>
<text text-anchor="start" x="3562.5" y="-85.5" font-family="Helvetica,sans-Serif" font-size="10.00">boost/range/adaptor</text>
<text text-anchor="middle" x="3612" y="-74.5" font-family="Helvetica,sans-Serif" font-size="10.00">/transformed.hpp</text>
</g>
<!-- Node33&#45;&gt;Node36 -->
<g id="edge81" class="edge"><title>Node33&#45;&gt;Node36</title>
<path fill="none" stroke="midnightblue" d="M3640.55,-139.734C3636.26,-131.287 3629.59,-118.138 3623.77,-106.678"/>
<polygon fill="midnightblue" stroke="midnightblue" points="3626.8,-104.921 3619.15,-97.589 3620.56,-108.09 3626.8,-104.921"/>
</g>
<!-- Node37 -->
<g id="node37" class="node"><title>Node37</title>
<g id="a_node37"><a xlink:href="find__iterator_8h.xhtml" target="_top" xlink:title="Convenience iterator adaptor to wrap find calls and results. ">
<polygon fill="white" stroke="black" points="3841.5,-73 3841.5,-92 3942.5,-92 3942.5,-73 3841.5,-73"/>
<text text-anchor="middle" x="3892" y="-80" font-family="Helvetica,sans-Serif" font-size="10.00">ext/find_iterator.h</text>
</a>
</g>
</g>
<!-- Node33&#45;&gt;Node37 -->
<g id="edge82" class="edge"><title>Node33&#45;&gt;Node37</title>
<path fill="none" stroke="midnightblue" d="M3666.71,-139.913C3672.3,-137.845 3678.34,-135.734 3684,-134 3685.98,-133.393 3786.39,-109.064 3846.96,-94.4009"/>
<polygon fill="midnightblue" stroke="midnightblue" points="3847.78,-97.8023 3856.68,-92.0476 3846.14,-90.9989 3847.78,-97.8023"/>
</g>
<!-- Node38 -->
<g id="node38" class="node"><title>Node38</title>
<g id="a_node38"><a xlink:href="index__map_8h.xhtml" target="_top" xlink:title="Non&#45;zero based Index&#45;&gt;Value map adapter on sequential containers. ">
<polygon fill="white" stroke="black" points="3134,-73 3134,-92 3230,-92 3230,-73 3134,-73"/>
<text text-anchor="middle" x="3182" y="-80" font-family="Helvetica,sans-Serif" font-size="10.00">ext/index_map.h</text>
</a>
</g>
</g>
<!-- Node33&#45;&gt;Node38 -->
<g id="edge84" class="edge"><title>Node33&#45;&gt;Node38</title>
<path fill="none" stroke="midnightblue" d="M3619.76,-142.931C3605.99,-140.014 3588.61,-136.533 3573,-134 3444.36,-113.121 3411.16,-115.351 3282,-98 3268.49,-96.1853 3253.97,-94.1365 3240.3,-92.1628"/>
<polygon fill="midnightblue" stroke="midnightblue" points="3240.44,-88.6464 3230.04,-90.6733 3239.43,-95.5738 3240.44,-88.6464"/>
</g>
<!-- Node39 -->
<g id="node39" class="node"><title>Node39</title>
<g id="a_node39"><a xlink:href="linear__map_8h.xhtml" target="_top" xlink:title="Implementation of a vector&#45;based map for a small number of entries. ">
<polygon fill="white" stroke="black" points="3726.5,-73 3726.5,-92 3823.5,-92 3823.5,-73 3726.5,-73"/>
<text text-anchor="middle" x="3775" y="-80" font-family="Helvetica,sans-Serif" font-size="10.00">ext/linear_map.h</text>
</a>
</g>
</g>
<!-- Node33&#45;&gt;Node39 -->
<g id="edge86" class="edge"><title>Node33&#45;&gt;Node39</title>
<path fill="none" stroke="midnightblue" d="M3662.26,-139.869C3684.31,-128.845 3722.69,-109.655 3748.46,-96.7678"/>
<polygon fill="midnightblue" stroke="midnightblue" points="3750.29,-99.7699 3757.67,-92.1672 3747.16,-93.5089 3750.29,-99.7699"/>
</g>
<!-- Node37&#45;&gt;Node3 -->
<g id="edge83" class="edge"><title>Node37&#45;&gt;Node3</title>
<path fill="none" stroke="midnightblue" d="M3860.09,-72.9371C3851.06,-70.7462 3841.19,-68.569 3832,-67 3656.92,-37.1099 3443.97,-22.7577 3365.22,-18.1855"/>
<polygon fill="midnightblue" stroke="midnightblue" points="3365.19,-14.6788 3355.01,-17.6047 3364.8,-21.6675 3365.19,-14.6788"/>
</g>
<!-- Node38&#45;&gt;Node4 -->
<g id="edge85" class="edge"><title>Node38&#45;&gt;Node4</title>
<path fill="none" stroke="midnightblue" d="M3150.01,-72.958C3140.43,-70.6856 3129.84,-68.46 3120,-67 2834.29,-24.6136 2484.31,-17.8019 2375.73,-16.7086"/>
<polygon fill="midnightblue" stroke="midnightblue" points="2375.73,-13.2086 2365.7,-16.6173 2375.67,-20.2083 2375.73,-13.2086"/>
</g>
<!-- Node39&#45;&gt;Node3 -->
<g id="edge92" class="edge"><title>Node39&#45;&gt;Node3</title>
<path fill="none" stroke="midnightblue" d="M3740.46,-72.9386C3731.25,-70.8231 3721.28,-68.6833 3712,-67 3583.95,-43.7637 3429.7,-26.4384 3364.96,-19.6454"/>
<polygon fill="midnightblue" stroke="midnightblue" points="3365.31,-16.163 3355.01,-18.6096 3364.59,-23.1254 3365.31,-16.163"/>
</g>
<!-- Node39&#45;&gt;Node4 -->
<g id="edge91" class="edge"><title>Node39&#45;&gt;Node4</title>
<path fill="none" stroke="midnightblue" d="M3726.28,-73.1406C3710.88,-70.788 3693.77,-68.4719 3678,-67 3414.02,-42.3567 2557.27,-21.4805 2375.92,-17.2725"/>
<polygon fill="midnightblue" stroke="midnightblue" points="2375.97,-13.773 2365.89,-17.041 2375.81,-20.7711 2375.97,-13.773"/>
</g>
<!-- Node39&#45;&gt;Node7 -->
<g id="edge87" class="edge"><title>Node39&#45;&gt;Node7</title>
<path fill="none" stroke="midnightblue" d="M3742.15,-72.9928C3732.49,-70.7492 3721.87,-68.5303 3712,-67 3654.48,-58.0816 3253.51,-28.273 3129.48,-19.1657"/>
<polygon fill="midnightblue" stroke="midnightblue" points="3129.58,-15.6641 3119.35,-18.4232 3129.07,-22.6454 3129.58,-15.6641"/>
</g>
<!-- Node39&#45;&gt;Node18 -->
<g id="edge88" class="edge"><title>Node39&#45;&gt;Node18</title>
<path fill="none" stroke="midnightblue" d="M3742.83,-72.9778C3733,-70.6773 3722.11,-68.4313 3712,-67 3423.77,-26.2037 3348.08,-55.3939 3058,-31 3029.04,-28.5649 2996.5,-24.8662 2971.48,-21.8139"/>
<polygon fill="midnightblue" stroke="midnightblue" points="2971.6,-18.3025 2961.25,-20.551 2970.75,-25.2497 2971.6,-18.3025"/>
</g>
<!-- Node40 -->
<g id="node40" class="node"><title>Node40</title>
<polygon fill="white" stroke="#bfbfbf" points="3780.5,-6 3780.5,-25 3857.5,-25 3857.5,-6 3780.5,-6"/>
<text text-anchor="middle" x="3819" y="-13" font-family="Helvetica,sans-Serif" font-size="10.00">initializer_list</text>
</g>
<!-- Node39&#45;&gt;Node40 -->
<g id="edge89" class="edge"><title>Node39&#45;&gt;Node40</title>
<path fill="none" stroke="midnightblue" d="M3780.93,-72.7338C3787.73,-62.6953 3799.02,-46.0145 3807.55,-33.4213"/>
<polygon fill="midnightblue" stroke="midnightblue" points="3810.45,-35.3704 3813.16,-25.1273 3804.66,-31.4464 3810.45,-35.3704"/>
</g>
<!-- Node41 -->
<g id="node41" class="node"><title>Node41</title>
<polygon fill="white" stroke="#bfbfbf" points="3698,-6 3698,-25 3762,-25 3762,-6 3698,-6"/>
<text text-anchor="middle" x="3730" y="-13" font-family="Helvetica,sans-Serif" font-size="10.00">stdexcept</text>
</g>
<!-- Node39&#45;&gt;Node41 -->
<g id="edge90" class="edge"><title>Node39&#45;&gt;Node41</title>
<path fill="none" stroke="midnightblue" d="M3768.93,-72.7338C3761.98,-62.6953 3750.43,-46.0145 3741.71,-33.4213"/>
<polygon fill="midnightblue" stroke="midnightblue" points="3744.54,-31.357 3735.97,-25.1273 3738.79,-35.3415 3744.54,-31.357"/>
</g>
<!-- Node42&#45;&gt;Node2 -->
<g id="edge94" class="edge"><title>Node42&#45;&gt;Node2</title>
<path fill="none" stroke="midnightblue" d="M3308.51,-206.921C3275.61,-187.625 3195.84,-141.873 3166,-134 3035.22,-99.4973 2051.54,-86.3418 1842.84,-83.9246"/>
<polygon fill="midnightblue" stroke="midnightblue" points="1842.7,-80.423 1832.66,-83.8082 1842.62,-87.4225 1842.7,-80.423"/>
</g>
<!-- Node42&#45;&gt;Node3 -->
<g id="edge97" class="edge"><title>Node42&#45;&gt;Node3</title>
<path fill="none" stroke="midnightblue" d="M3355.74,-206.953C3363.96,-204.906 3372.79,-202.795 3381,-201 3423.41,-191.732 3545.28,-198.405 3573,-165 3581.8,-154.398 3581.92,-144.5 3573,-134 3508.85,-58.4959 3425.36,-165.679 3353,-98 3335.95,-82.0559 3332.82,-54.026 3332.85,-35.3589"/>
<polygon fill="midnightblue" stroke="midnightblue" points="3336.35,-35.246 3333.18,-25.1377 3329.36,-35.0189 3336.35,-35.246"/>
</g>
<!-- Node42&#45;&gt;Node4 -->
<g id="edge98" class="edge"><title>Node42&#45;&gt;Node4</title>
<path fill="none" stroke="midnightblue" d="M3320.53,-206.808C3315.29,-189.98 3301.4,-152.945 3276,-134 3220.7,-92.7502 3190.74,-118.941 3125,-98 3089.85,-86.8024 3083.94,-75.3054 3048,-67 2917.69,-36.89 2498.53,-21.4727 2375.96,-17.5318"/>
<polygon fill="midnightblue" stroke="midnightblue" points="2375.8,-14.0249 2365.69,-17.2063 2375.57,-21.0214 2375.8,-14.0249"/>
</g>
<!-- Node42&#45;&gt;Node9 -->
<g id="edge99" class="edge"><title>Node42&#45;&gt;Node9</title>
<path fill="none" stroke="midnightblue" d="M3294.04,-206.939C3251.84,-194.349 3177.22,-171.616 3166,-165 3148.67,-154.781 3151.61,-141.655 3133,-134 3062.74,-105.1 1841.93,-100.581 1766,-98 1671.53,-94.7883 1562.69,-90.0927 1492.24,-86.9227"/>
<polygon fill="midnightblue" stroke="midnightblue" points="1492.28,-83.421 1482.13,-86.4665 1491.96,-90.4139 1492.28,-83.421"/>
</g>
<!-- Node42&#45;&gt;Node24 -->
<g id="edge96" class="edge"><title>Node42&#45;&gt;Node24</title>
<path fill="none" stroke="midnightblue" d="M3317.24,-206.935C3305.36,-189.993 3276.34,-152.268 3242,-134 3166.89,-94.0494 3137.18,-115.841 3054,-98 3048.68,-96.8586 3043.11,-95.6099 3037.59,-94.3394"/>
<polygon fill="midnightblue" stroke="midnightblue" points="3038.31,-90.9139 3027.78,-92.0473 3036.72,-97.7304 3038.31,-90.9139"/>
</g>
<!-- Node42&#45;&gt;Node33 -->
<g id="edge101" class="edge"><title>Node42&#45;&gt;Node33</title>
<path fill="none" stroke="midnightblue" d="M3355.1,-206.95C3363.5,-204.858 3372.56,-202.727 3381,-201 3480.22,-180.7 3508.06,-190.771 3606,-165 3608.82,-164.259 3611.71,-163.392 3614.59,-162.456"/>
<polygon fill="midnightblue" stroke="midnightblue" points="3615.91,-165.704 3624.19,-159.099 3613.6,-159.096 3615.91,-165.704"/>
</g>
<!-- Node43 -->
<g id="node43" class="node"><title>Node43</title>
<polygon fill="white" stroke="#bfbfbf" points="3370,-140 3370,-159 3402,-159 3402,-140 3370,-140"/>
<text text-anchor="middle" x="3386" y="-147" font-family="Helvetica,sans-Serif" font-size="10.00">set</text>
</g>
<!-- Node42&#45;&gt;Node43 -->
<g id="edge95" class="edge"><title>Node42&#45;&gt;Node43</title>
<path fill="none" stroke="midnightblue" d="M3331.5,-206.734C3341.51,-196.403 3358.34,-179.037 3370.66,-166.332"/>
<polygon fill="midnightblue" stroke="midnightblue" points="3373.19,-168.744 3377.64,-159.127 3368.17,-163.872 3373.19,-168.744"/>
</g>
<!-- Node44 -->
<g id="node44" class="node"><title>Node44</title>
<polygon fill="white" stroke="#bfbfbf" points="3420,-140 3420,-159 3564,-159 3564,-140 3420,-140"/>
<text text-anchor="middle" x="3492" y="-147" font-family="Helvetica,sans-Serif" font-size="10.00">boost/unordered_map.hpp</text>
</g>
<!-- Node42&#45;&gt;Node44 -->
<g id="edge100" class="edge"><title>Node42&#45;&gt;Node44</title>
<path fill="none" stroke="midnightblue" d="M3345.44,-206.869C3374.82,-195.571 3426.49,-175.696 3459.97,-162.818"/>
<polygon fill="midnightblue" stroke="midnightblue" points="3461.66,-165.92 3469.73,-159.064 3459.14,-159.387 3461.66,-165.92"/>
</g>
<!-- Node45&#45;&gt;Node2 -->
<g id="edge107" class="edge"><title>Node45&#45;&gt;Node2</title>
<path fill="none" stroke="midnightblue" d="M2851.43,-281.224C2784.28,-277.407 2592.25,-264.274 2436,-232 2335.07,-211.152 2307.54,-208.27 2214,-165 2190.95,-154.338 2189.8,-142.852 2166,-134 2053.93,-92.3261 1910.73,-84.6407 1842.93,-83.4872"/>
<polygon fill="midnightblue" stroke="midnightblue" points="1842.76,-79.9847 1832.72,-83.3539 1842.67,-86.9841 1842.76,-79.9847"/>
</g>
<!-- Node45&#45;&gt;Node3 -->
<g id="edge109" class="edge"><title>Node45&#45;&gt;Node3</title>
<path fill="none" stroke="midnightblue" d="M2893.54,-273.938C2898.46,-271.773 2903.86,-269.609 2909,-268 2988.52,-243.088 3018.39,-269.098 3093,-232 3106.39,-225.344 3264.48,-80.444 3317.09,-32.0665"/>
<polygon fill="midnightblue" stroke="midnightblue" points="3319.6,-34.5132 3324.59,-25.1669 3314.86,-29.3616 3319.6,-34.5132"/>
</g>
<!-- Node45&#45;&gt;Node4 -->
<g id="edge110" class="edge"><title>Node45&#45;&gt;Node4</title>
<path fill="none" stroke="midnightblue" d="M2851.27,-278.065C2790.52,-266.435 2630.38,-231.284 2513,-165 2478.93,-145.758 2394.46,-66.666 2358.57,-32.4243"/>
<polygon fill="midnightblue" stroke="midnightblue" points="2360.57,-29.4926 2350.92,-25.1076 2355.73,-34.5501 2360.57,-29.4926"/>
</g>
<!-- Node45&#45;&gt;Node9 -->
<g id="edge113" class="edge"><title>Node45&#45;&gt;Node9</title>
<path fill="none" stroke="midnightblue" d="M2851.35,-281.511C2755.35,-277.48 2406.52,-261.101 2300,-232 2275.65,-225.346 2119.4,-140.495 2095,-134 2038.02,-118.831 1656.47,-96.5206 1492.58,-87.5015"/>
<polygon fill="midnightblue" stroke="midnightblue" points="1492.28,-83.9799 1482.1,-86.9268 1491.9,-90.9694 1492.28,-83.9799"/>
</g>
<!-- Node45&#45;&gt;Node11 -->
<g id="edge104" class="edge"><title>Node45&#45;&gt;Node11</title>
<path fill="none" stroke="midnightblue" d="M2851.14,-279.146C2801.01,-272.16 2684.33,-254.786 2588,-232 2339.23,-173.157 2287.78,-116.563 2037,-67 1861.59,-32.3329 1647.08,-20.9268 1564.59,-17.6619"/>
<polygon fill="midnightblue" stroke="midnightblue" points="1564.64,-14.1615 1554.52,-17.2782 1564.38,-21.1564 1564.64,-14.1615"/>
</g>
<!-- Node45&#45;&gt;Node24 -->
<g id="edge108" class="edge"><title>Node45&#45;&gt;Node24</title>
<path fill="none" stroke="midnightblue" d="M2888.32,-273.918C2902.16,-264.146 2925.16,-247.52 2944,-232 2959.78,-218.999 2959.9,-210.511 2978,-201 3040.61,-168.107 3089.01,-220.377 3133,-165 3141.57,-154.212 3140.92,-145.275 3133,-134 3126.91,-125.326 3071.1,-107.023 3031.82,-94.999"/>
<polygon fill="midnightblue" stroke="midnightblue" points="3032.82,-91.6433 3022.23,-92.0871 3030.78,-98.3414 3032.82,-91.6433"/>
</g>
<!-- Node45&#45;&gt;Node31 -->
<g id="edge112" class="edge"><title>Node45&#45;&gt;Node31</title>
<path fill="none" stroke="midnightblue" d="M2900.79,-276.572C2912.37,-273.858 2926.37,-270.662 2939,-268 3022.25,-250.456 3043.48,-248.179 3127,-232 3128.27,-231.755 3129.54,-231.507 3130.83,-231.258"/>
<polygon fill="midnightblue" stroke="midnightblue" points="3131.68,-234.658 3140.83,-229.313 3130.34,-227.786 3131.68,-234.658"/>
</g>
<!-- Node46 -->
<g id="node46" class="node"><title>Node46</title>
<polygon fill="white" stroke="#bfbfbf" points="3043.5,-207 3043.5,-226 3084.5,-226 3084.5,-207 3043.5,-207"/>
<text text-anchor="middle" x="3064" y="-214" font-family="Helvetica,sans-Serif" font-size="10.00">array</text>
</g>
<!-- Node45&#45;&gt;Node46 -->
<g id="edge105" class="edge"><title>Node45&#45;&gt;Node46</title>
<path fill="none" stroke="midnightblue" d="M2900.74,-275.765C2932.16,-266.943 2987.86,-250.416 3034,-232 3035.38,-231.45 3036.78,-230.866 3038.19,-230.258"/>
<polygon fill="midnightblue" stroke="midnightblue" points="3039.73,-233.399 3047.37,-226.053 3036.82,-227.035 3039.73,-233.399"/>
</g>
<!-- Node47 -->
<g id="node47" class="node"><title>Node47</title>
<polygon fill="white" stroke="#bfbfbf" points="2987,-207 2987,-226 3025,-226 3025,-207 2987,-207"/>
<text text-anchor="middle" x="3006" y="-214" font-family="Helvetica,sans-Serif" font-size="10.00">map</text>
</g>
<!-- Node45&#45;&gt;Node47 -->
<g id="edge106" class="edge"><title>Node45&#45;&gt;Node47</title>
<path fill="none" stroke="midnightblue" d="M2893.26,-273.869C2915.31,-262.845 2953.69,-243.655 2979.46,-230.768"/>
<polygon fill="midnightblue" stroke="midnightblue" points="2981.29,-233.77 2988.67,-226.167 2978.16,-227.509 2981.29,-233.77"/>
</g>
<!-- Node48 -->
<g id="node48" class="node"><title>Node48</title>
<polygon fill="white" stroke="#bfbfbf" points="2984,-140 2984,-159 3124,-159 3124,-140 2984,-140"/>
<text text-anchor="middle" x="3054" y="-147" font-family="Helvetica,sans-Serif" font-size="10.00">boost/functional/hash.hpp</text>
</g>
<!-- Node45&#45;&gt;Node48 -->
<g id="edge111" class="edge"><title>Node45&#45;&gt;Node48</title>
<path fill="none" stroke="midnightblue" d="M2881.47,-273.81C2892.03,-257.63 2916.69,-222.572 2945,-201 2967.11,-184.155 2995.74,-171.162 3018.11,-162.576"/>
<polygon fill="midnightblue" stroke="midnightblue" points="3019.43,-165.818 3027.59,-159.055 3017,-159.256 3019.43,-165.818"/>
</g>
<!-- Node49 -->
<g id="node49" class="node"><title>Node49</title>
<g id="a_node49"><a xlink:href="bdd_8h.xhtml" target="_top" xlink:title="Fault tree analysis with the Binary Decision Diagram algorithms. ">
<polygon fill="white" stroke="black" points="2820,-207 2820,-226 2864,-226 2864,-207 2820,-207"/>
<text text-anchor="middle" x="2842" y="-214" font-family="Helvetica,sans-Serif" font-size="10.00">bdd.h</text>
</a>
</g>
</g>
<!-- Node45&#45;&gt;Node49 -->
<g id="edge114" class="edge"><title>Node45&#45;&gt;Node49</title>
<path fill="none" stroke="midnightblue" d="M2871.41,-273.734C2866.27,-263.89 2857.78,-247.66 2851.24,-235.159"/>
<polygon fill="midnightblue" stroke="midnightblue" points="2854.25,-233.366 2846.51,-226.127 2848.05,-236.611 2854.25,-233.366"/>
</g>
<!-- Node49&#45;&gt;Node2 -->
<g id="edge118" class="edge"><title>Node49&#45;&gt;Node2</title>
<path fill="none" stroke="midnightblue" d="M2819.82,-211.971C2744.36,-200.032 2490.56,-160.427 2280,-134 2118.03,-113.672 1924.37,-94.8071 1843.02,-87.1285"/>
<polygon fill="midnightblue" stroke="midnightblue" points="1843.03,-83.6148 1832.75,-86.1627 1842.38,-90.584 1843.03,-83.6148"/>
</g>
<!-- Node49&#45;&gt;Node3 -->
<g id="edge120" class="edge"><title>Node49&#45;&gt;Node3</title>
<path fill="none" stroke="midnightblue" d="M2849.76,-206.929C2858.4,-197.166 2872.53,-180.548 2883,-165 2910.78,-123.754 2895.87,-94.9502 2937,-67 2967.13,-46.5231 3214.4,-25.6997 3302.76,-18.8441"/>
<polygon fill="midnightblue" stroke="midnightblue" points="3303.26,-22.3163 3312.96,-18.0602 3302.72,-15.3369 3303.26,-22.3163"/>
</g>
<!-- Node49&#45;&gt;Node4 -->
<g id="edge121" class="edge"><title>Node49&#45;&gt;Node4</title>
<path fill="none" stroke="midnightblue" d="M2842.57,-206.99C2843.17,-190.482 2841.99,-153.98 2822,-134 2758.03,-70.0714 2473.9,-31.7497 2375.6,-20.2142"/>
<polygon fill="midnightblue" stroke="midnightblue" points="2375.95,-16.7314 2365.61,-19.06 2375.15,-23.6851 2375.95,-16.7314"/>
</g>
<!-- Node49&#45;&gt;Node9 -->
<g id="edge123" class="edge"><title>Node49&#45;&gt;Node9</title>
<path fill="none" stroke="midnightblue" d="M2819.94,-214.405C2744.34,-210.464 2488.88,-195.588 2280,-165 2211.78,-155.01 2196.31,-143.354 2128,-134 1897.64,-102.453 1622.36,-89.9991 1492.63,-85.6136"/>
<polygon fill="midnightblue" stroke="midnightblue" points="1492.53,-82.1083 1482.42,-85.2748 1492.29,-89.1044 1492.53,-82.1083"/>
</g>
<!-- Node49&#45;&gt;Node10 -->
<g id="edge126" class="edge"><title>Node49&#45;&gt;Node10</title>
<path fill="none" stroke="midnightblue" d="M2819.69,-213.659C2711.56,-204.741 2241.43,-165.961 2096.62,-154.015"/>
<polygon fill="midnightblue" stroke="midnightblue" points="2096.62,-150.504 2086.37,-153.17 2096.05,-157.48 2096.62,-150.504"/>
</g>
<!-- Node49&#45;&gt;Node18 -->
<g id="edge116" class="edge"><title>Node49&#45;&gt;Node18</title>
<path fill="none" stroke="midnightblue" d="M2845.39,-206.69C2854.37,-183.54 2879.72,-119.181 2904,-67 2909.13,-55.9847 2915.34,-43.8754 2920.41,-34.2765"/>
<polygon fill="midnightblue" stroke="midnightblue" points="2923.56,-35.8033 2925.18,-25.3331 2917.38,-32.5077 2923.56,-35.8033"/>
</g>
<!-- Node49&#45;&gt;Node24 -->
<g id="edge119" class="edge"><title>Node49&#45;&gt;Node24</title>
<path fill="none" stroke="midnightblue" d="M2862.85,-206.838C2882.16,-198.148 2910.98,-183.426 2932,-165 2953.53,-146.125 2972.24,-118.502 2983.07,-100.761"/>
<polygon fill="midnightblue" stroke="midnightblue" points="2986.16,-102.425 2988.25,-92.04 2980.14,-98.8514 2986.16,-102.425"/>
</g>
<!-- Node49&#45;&gt;Node33 -->
<g id="edge125" class="edge"><title>Node49&#45;&gt;Node33</title>
<path fill="none" stroke="midnightblue" d="M2864.11,-212.828C2891,-209.651 2937.77,-204.36 2978,-201 3242.01,-178.951 3310.29,-199.234 3573,-165 3585.13,-163.42 3598.27,-160.989 3609.97,-158.566"/>
<polygon fill="midnightblue" stroke="midnightblue" points="3610.77,-161.974 3619.82,-156.46 3609.31,-155.129 3610.77,-161.974"/>
</g>
<!-- Node49&#45;&gt;Node48 -->
<g id="edge122" class="edge"><title>Node49&#45;&gt;Node48</title>
<path fill="none" stroke="midnightblue" d="M2864.41,-208.192C2871.61,-205.866 2879.64,-203.3 2887,-201 2930.89,-187.294 2981.45,-172.087 3015.33,-161.977"/>
<polygon fill="midnightblue" stroke="midnightblue" points="3016.7,-165.221 3025.29,-159.011 3014.7,-158.512 3016.7,-165.221"/>
</g>
<!-- Node50 -->
<g id="node50" class="node"><title>Node50</title>
<polygon fill="white" stroke="#bfbfbf" points="2522.5,-140 2522.5,-159 2569.5,-159 2569.5,-140 2522.5,-140"/>
<text text-anchor="middle" x="2546" y="-147" font-family="Helvetica,sans-Serif" font-size="10.00">cmath</text>
</g>
<!-- Node49&#45;&gt;Node50 -->
<g id="edge115" class="edge"><title>Node49&#45;&gt;Node50</title>
<path fill="none" stroke="midnightblue" d="M2819.66,-213.036C2773.62,-207.568 2665.18,-192.66 2578,-165 2576.13,-164.405 2574.21,-163.73 2572.31,-163.004"/>
<polygon fill="midnightblue" stroke="midnightblue" points="2573.55,-159.732 2562.98,-159.092 2570.85,-166.187 2573.55,-159.732"/>
</g>
<!-- Node51 -->
<g id="node51" class="node"><title>Node51</title>
<polygon fill="white" stroke="#bfbfbf" points="2587.5,-140 2587.5,-159 2658.5,-159 2658.5,-140 2587.5,-140"/>
<text text-anchor="middle" x="2623" y="-147" font-family="Helvetica,sans-Serif" font-size="10.00">forward_list</text>
</g>
<!-- Node49&#45;&gt;Node51 -->
<g id="edge117" class="edge"><title>Node49&#45;&gt;Node51</title>
<path fill="none" stroke="midnightblue" d="M2819.82,-209.387C2786.52,-200.144 2721.68,-181.894 2667,-165 2664.1,-164.103 2661.09,-163.155 2658.08,-162.191"/>
<polygon fill="midnightblue" stroke="midnightblue" points="2659.13,-158.853 2648.54,-159.096 2656.97,-165.511 2659.13,-158.853"/>
</g>
<!-- Node52 -->
<g id="node52" class="node"><title>Node52</title>
<polygon fill="white" stroke="#bfbfbf" points="2676.5,-134.5 2676.5,-164.5 2813.5,-164.5 2813.5,-134.5 2676.5,-134.5"/>
<text text-anchor="start" x="2684.5" y="-152.5" font-family="Helvetica,sans-Serif" font-size="10.00">boost/smart_ptr/intrusive</text>
<text text-anchor="middle" x="2745" y="-141.5" font-family="Helvetica,sans-Serif" font-size="10.00">_ptr.hpp</text>
</g>
<!-- Node49&#45;&gt;Node52 -->
<g id="edge124" class="edge"><title>Node49&#45;&gt;Node52</title>
<path fill="none" stroke="midnightblue" d="M2828.92,-206.734C2815.05,-197.443 2792.7,-182.461 2774.54,-170.297"/>
<polygon fill="midnightblue" stroke="midnightblue" points="2776.28,-167.248 2766.03,-164.589 2772.38,-173.063 2776.28,-167.248"/>
</g>
<!-- Node53&#45;&gt;Node4 -->
<g id="edge128" class="edge"><title>Node53&#45;&gt;Node4</title>
<path fill="none" stroke="midnightblue" d="M2560.28,-455.177C2861.3,-450.799 4151,-427.296 4151,-346 4151,-346 4151,-346 4151,-282.5 4151,-181.518 4160.08,-127.201 4079,-67 4074.56,-63.7013 2617.45,-23.9825 2375.77,-17.4165"/>
<polygon fill="midnightblue" stroke="midnightblue" points="2375.59,-13.9104 2365.5,-17.1375 2375.4,-20.9078 2375.59,-13.9104"/>
</g>
<!-- Node53&#45;&gt;Node10 -->
<g id="edge137" class="edge"><title>Node53&#45;&gt;Node10</title>
<path fill="none" stroke="midnightblue" d="M2482.29,-447.359C2432.45,-419.597 2274.49,-328.826 2160,-232 2145.59,-219.817 2145.43,-213.148 2131,-201 2114.33,-186.974 2093.6,-173.572 2077.84,-164.104"/>
<polygon fill="midnightblue" stroke="midnightblue" points="2079.6,-161.078 2069.21,-159.008 2076.04,-167.106 2079.6,-161.078"/>
</g>
<!-- Node53&#45;&gt;Node49 -->
<g id="edge129" class="edge"><title>Node53&#45;&gt;Node49</title>
<path fill="none" stroke="midnightblue" d="M2510.65,-447.229C2562.18,-411.504 2756.55,-276.741 2821.05,-232.022"/>
<polygon fill="midnightblue" stroke="midnightblue" points="2823.37,-234.673 2829.6,-226.099 2819.38,-228.921 2823.37,-234.673"/>
</g>
<!-- Node53&#45;&gt;Node54 -->
<g id="edge130" class="edge"><title>Node53&#45;&gt;Node54</title>
<path fill="none" stroke="midnightblue" d="M2545.85,-447.444C2599.2,-437.905 2685.44,-422.483 2742.44,-412.293"/>
<polygon fill="midnightblue" stroke="midnightblue" points="2743.14,-415.722 2752.37,-410.516 2741.91,-408.831 2743.14,-415.722"/>
</g>
<!-- Node54&#45;&gt;Node3 -->
<g id="edge131" class="edge"><title>Node54&#45;&gt;Node3</title>
<path fill="none" stroke="midnightblue" d="M2859.88,-399.949C3101.95,-399.128 3999.31,-389.934 4083,-299 4152.84,-223.12 4154.8,-136.929 4079,-67 4065.65,-54.6844 3504.47,-25.2171 3365.09,-18.0777"/>
<polygon fill="midnightblue" stroke="midnightblue" points="3365.23,-14.5808 3355.07,-17.5659 3364.88,-21.5717 3365.23,-14.5808"/>
</g>
<!-- Node54&#45;&gt;Node4 -->
<g id="edge132" class="edge"><title>Node54&#45;&gt;Node4</title>
<path fill="none" stroke="midnightblue" d="M2859.79,-397.76C3111.86,-387.928 4075,-346.316 4075,-284.5 4075,-284.5 4075,-284.5 4075,-148.5 4075,-111.203 4084.01,-90.4466 4055,-67 4050.76,-63.5713 2615.18,-24.0022 2375.69,-17.4241"/>
<polygon fill="midnightblue" stroke="midnightblue" points="2375.59,-13.9203 2365.5,-17.1445 2375.4,-20.9177 2375.59,-13.9203"/>
</g>
<!-- Node54&#45;&gt;Node6 -->
<g id="edge133" class="edge"><title>Node54&#45;&gt;Node6</title>
<path fill="none" stroke="midnightblue" d="M2749.72,-391.46C2621.04,-369.604 2281.55,-311.941 2162.22,-291.67"/>
<polygon fill="midnightblue" stroke="midnightblue" points="2162.8,-288.219 2152.35,-289.995 2161.63,-295.12 2162.8,-288.219"/>
</g>
<!-- Node54&#45;&gt;Node28 -->
<g id="edge135" class="edge"><title>Node54&#45;&gt;Node28</title>
<path fill="none" stroke="midnightblue" d="M2800,-391.083C2800,-384.006 2800,-373.861 2800,-364.986"/>
<polygon fill="midnightblue" stroke="midnightblue" points="2803.5,-364.751 2800,-354.751 2796.5,-364.751 2803.5,-364.751"/>
</g>
<!-- Node54&#45;&gt;Node33 -->
<g id="edge136" class="edge"><title>Node54&#45;&gt;Node33</title>
<path fill="none" stroke="midnightblue" d="M2859.65,-394.372C2920.47,-387.854 3017.24,-375.327 3099,-355 3259.01,-315.221 3295.04,-291.009 3449,-232 3508.86,-209.057 3577.87,-179.663 3615.95,-163.178"/>
<polygon fill="midnightblue" stroke="midnightblue" points="3617.61,-166.273 3625.39,-159.082 3614.83,-159.851 3617.61,-166.273"/>
</g>
<!-- Node54&#45;&gt;Node49 -->
<g id="edge134" class="edge"><title>Node54&#45;&gt;Node49</title>
<path fill="none" stroke="midnightblue" d="M2859.75,-392.564C2954.95,-379.354 3134.19,-348.439 3172,-299 3180.37,-288.055 3180.98,-278.453 3172,-268 3162.3,-256.703 2955.48,-230.997 2874.3,-221.298"/>
<polygon fill="midnightblue" stroke="midnightblue" points="2874.5,-217.797 2864.15,-220.092 2873.67,-224.748 2874.5,-217.797"/>
</g>
<!-- Node55&#45;&gt;Node2 -->
<g id="edge139" class="edge"><title>Node55&#45;&gt;Node2</title>
<path fill="none" stroke="midnightblue" d="M1128.01,-399.31C1195.39,-397.145 1371.47,-388.467 1514,-355 1584.09,-338.543 1609.89,-344.107 1666,-299 1735.29,-243.297 1780.58,-142.996 1797.05,-101.86"/>
<polygon fill="midnightblue" stroke="midnightblue" points="1800.4,-102.912 1800.77,-92.3241 1793.87,-100.367 1800.4,-102.912"/>
</g>
<!-- Node55&#45;&gt;Node4 -->
<g id="edge141" class="edge"><title>Node55&#45;&gt;Node4</title>
<path fill="none" stroke="midnightblue" d="M1128.13,-396.953C1240.62,-384.006 1652,-329.033 1652,-217.5 1652,-217.5 1652,-217.5 1652,-148.5 1652,-86.2171 1707.58,-88.5939 1766,-67 1866.59,-29.8189 2200.51,-19.5242 2308.2,-17.136"/>
<polygon fill="midnightblue" stroke="midnightblue" points="2308.56,-20.6294 2318.48,-16.9172 2308.41,-13.6309 2308.56,-20.6294"/>
</g>
<!-- Node55&#45;&gt;Node8 -->
<g id="edge140" class="edge"><title>Node55&#45;&gt;Node8</title>
<path fill="none" stroke="midnightblue" d="M1071.97,-399.964C904.382,-399.393 42,-391.263 42,-284.5 42,-284.5 42,-284.5 42,-148.5 42,56.0561 292.197,-93.4084 487,-31 488.673,-30.4641 490.373,-29.8586 492.071,-29.2068"/>
<polygon fill="midnightblue" stroke="midnightblue" points="493.771,-32.2859 501.582,-25.1279 491.012,-25.8524 493.771,-32.2859"/>
</g>
<!-- Node55&#45;&gt;Node9 -->
<g id="edge142" class="edge"><title>Node55&#45;&gt;Node9</title>
<path fill="none" stroke="midnightblue" d="M1108.87,-391.279C1134.13,-366.444 1208.55,-293.192 1270,-232 1318.36,-183.846 1375.27,-126.572 1402.27,-99.3667"/>
<polygon fill="midnightblue" stroke="midnightblue" points="1404.79,-101.791 1409.35,-92.2268 1399.82,-96.8611 1404.79,-101.791"/>
</g>
<!-- Node55&#45;&gt;Node12 -->
<g id="edge155" class="edge"><title>Node55&#45;&gt;Node12</title>
<path fill="none" stroke="midnightblue" d="M1091.95,-391.198C1065.66,-362.469 982.092,-271.148 947.85,-233.729"/>
<polygon fill="midnightblue" stroke="midnightblue" points="950.307,-231.229 940.974,-226.214 945.143,-235.954 950.307,-231.229"/>
</g>
<!-- Node55&#45;&gt;Node13 -->
<g id="edge154" class="edge"><title>Node55&#45;&gt;Node13</title>
<path fill="none" stroke="midnightblue" d="M1071.71,-400.454C920.603,-402.168 211.493,-401.07 104,-232 52.8511,-151.55 218.575,-107.46 300.244,-91.0452"/>
<polygon fill="midnightblue" stroke="midnightblue" points="301.096,-94.4449 310.238,-89.0902 299.752,-87.5751 301.096,-94.4449"/>
</g>
<!-- Node55&#45;&gt;Node17 -->
<g id="edge157" class="edge"><title>Node55&#45;&gt;Node17</title>
<path fill="none" stroke="midnightblue" d="M1071.83,-400.013C1003.77,-399.418 833.128,-393.982 795,-355 777.387,-336.993 783.004,-218.689 788,-201 791.475,-188.696 798.882,-176.436 805.585,-167.078"/>
<polygon fill="midnightblue" stroke="midnightblue" points="808.39,-169.171 811.643,-159.088 802.812,-164.941 808.39,-169.171"/>
</g>
<!-- Node55&#45;&gt;Node25 -->
<g id="edge156" class="edge"><title>Node55&#45;&gt;Node25</title>
<path fill="none" stroke="midnightblue" d="M1128.31,-397.711C1168.9,-393.569 1245.21,-382.542 1304,-355 1333.24,-341.302 1361.82,-316.814 1378.92,-300.611"/>
<polygon fill="midnightblue" stroke="midnightblue" points="1381.61,-302.881 1386.35,-293.406 1376.74,-297.856 1381.61,-302.881"/>
</g>
<!-- Node55&#45;&gt;Node27 -->
<g id="edge158" class="edge"><title>Node55&#45;&gt;Node27</title>
<path fill="none" stroke="midnightblue" d="M1104.63,-391.198C1119.55,-362.831 1166.57,-273.44 1186.71,-235.169"/>
<polygon fill="midnightblue" stroke="midnightblue" points="1189.86,-236.694 1191.42,-226.214 1183.66,-233.435 1189.86,-236.694"/>
</g>
<!-- Node56 -->
<g id="node56" class="node"><title>Node56</title>
<g id="a_node56"><a xlink:href="ccf__group_8h.xhtml" target="_top" xlink:title="Functional containers for basic events grouped by common cause failure. ">
<polygon fill="white" stroke="black" points="501,-274 501,-293 573,-293 573,-274 501,-274"/>
<text text-anchor="middle" x="537" y="-281" font-family="Helvetica,sans-Serif" font-size="10.00">ccf_group.h</text>
</a>
</g>
</g>
<!-- Node55&#45;&gt;Node56 -->
<g id="edge143" class="edge"><title>Node55&#45;&gt;Node56</title>
<path fill="none" stroke="midnightblue" d="M1071.96,-399.516C982.404,-397.637 704.287,-389.127 622,-355 593.084,-343.007 566.475,-317.633 550.994,-300.825"/>
<polygon fill="midnightblue" stroke="midnightblue" points="553.598,-298.487 544.327,-293.359 548.377,-303.149 553.598,-298.487"/>
</g>
<!-- Node59 -->
<g id="node59" class="node"><title>Node59</title>
<g id="a_node59"><a xlink:href="fault__tree_8h.xhtml" target="_top" xlink:title="Fault Tree and Component containers. ">
<polygon fill="white" stroke="black" points="804.5,-335.5 804.5,-354.5 875.5,-354.5 875.5,-335.5 804.5,-335.5"/>
<text text-anchor="middle" x="840" y="-342.5" font-family="Helvetica,sans-Serif" font-size="10.00">fault_tree.h</text>
</a>
</g>
</g>
<!-- Node55&#45;&gt;Node59 -->
<g id="edge159" class="edge"><title>Node55&#45;&gt;Node59</title>
<path fill="none" stroke="midnightblue" d="M1071.68,-394.118C1026.92,-384.822 939.407,-366.646 885.682,-355.488"/>
<polygon fill="midnightblue" stroke="midnightblue" points="886.239,-352.029 875.736,-353.422 884.816,-358.883 886.239,-352.029"/>
</g>
<!-- Node60 -->
<g id="node60" class="node"><title>Node60</title>
<g id="a_node60"><a xlink:href="parameter_8h.xhtml" target="_top" xlink:title="Parameter expressions that act like a shareable variable. ">
<polygon fill="white" stroke="black" points="584,-207 584,-226 660,-226 660,-207 584,-207"/>
<text text-anchor="middle" x="622" y="-214" font-family="Helvetica,sans-Serif" font-size="10.00">parameter.h</text>
</a>
</g>
</g>
<!-- Node55&#45;&gt;Node60 -->
<g id="edge174" class="edge"><title>Node55&#45;&gt;Node60</title>
<path fill="none" stroke="midnightblue" d="M1071.91,-398.727C982.021,-394.422 705.499,-379.308 674,-355 636.376,-325.966 625.974,-266.42 623.098,-236.111"/>
<polygon fill="midnightblue" stroke="midnightblue" points="626.581,-235.753 622.324,-226.052 619.602,-236.291 626.581,-235.753"/>
</g>
<!-- Node56&#45;&gt;Node2 -->
<g id="edge144" class="edge"><title>Node56&#45;&gt;Node2</title>
<path fill="none" stroke="midnightblue" d="M573.054,-276.034C621.644,-267.127 710.738,-250.117 786,-232 835.799,-220.013 847.03,-212.251 897,-201 988.955,-180.296 1013.57,-183.48 1106,-165 1166.79,-152.845 1180.77,-143.685 1242,-134 1437.22,-103.123 1673.81,-89.548 1765.3,-85.1819"/>
<polygon fill="midnightblue" stroke="midnightblue" points="1765.65,-88.6696 1775.47,-84.7061 1765.32,-81.6772 1765.65,-88.6696"/>
</g>
<!-- Node56&#45;&gt;Node3 -->
<g id="edge147" class="edge"><title>Node56&#45;&gt;Node3</title>
<path fill="none" stroke="midnightblue" d="M536.159,-273.99C535.029,-258.404 534.514,-224.702 548,-201 559.851,-180.171 694.429,-75.0519 717,-67 843.171,-21.9901 2994.16,-36.7051 3128,-31 3190.15,-28.3509 3262.67,-22.6326 3302.97,-19.2219"/>
<polygon fill="midnightblue" stroke="midnightblue" points="3303.3,-22.7062 3312.97,-18.3667 3302.7,-15.7317 3303.3,-22.7062"/>
</g>
<!-- Node56&#45;&gt;Node4 -->
<g id="edge148" class="edge"><title>Node56&#45;&gt;Node4</title>
<path fill="none" stroke="midnightblue" d="M528.526,-273.732C514.955,-258.578 491.12,-226.646 504,-201 526.381,-156.437 636.908,-83.4038 684,-67 723.758,-53.1507 2075.1,-22.4486 2307.99,-17.2537"/>
<polygon fill="midnightblue" stroke="midnightblue" points="2308.3,-20.7476 2318.22,-17.0257 2308.15,-13.7493 2308.3,-20.7476"/>
</g>
<!-- Node56&#45;&gt;Node8 -->
<g id="edge145" class="edge"><title>Node56&#45;&gt;Node8</title>
<path fill="none" stroke="midnightblue" d="M524.513,-273.977C510.195,-264.122 486.107,-247.291 466,-232 447.201,-217.704 311.153,-119.324 301,-98 295.077,-85.5602 292.232,-77.6278 301,-67 354.584,-2.05005 406.925,-57.0345 487,-31 488.67,-30.4569 490.368,-29.8459 492.065,-29.1899"/>
<polygon fill="midnightblue" stroke="midnightblue" points="493.77,-32.2667 501.574,-25.1002 491.004,-25.8363 493.77,-32.2667"/>
</g>
<!-- Node56&#45;&gt;Node9 -->
<g id="edge149" class="edge"><title>Node56&#45;&gt;Node9</title>
<path fill="none" stroke="midnightblue" d="M566.033,-273.948C618.01,-258.72 730.466,-226.143 826,-201 947.237,-169.093 977.1,-158.741 1100,-134 1183.23,-117.245 1279.63,-102.596 1344.28,-93.4518"/>
<polygon fill="midnightblue" stroke="midnightblue" points="1344.96,-96.8906 1354.37,-92.032 1343.98,-89.9588 1344.96,-96.8906"/>
</g>
<!-- Node56&#45;&gt;Node12 -->
<g id="edge152" class="edge"><title>Node56&#45;&gt;Node12</title>
<path fill="none" stroke="midnightblue" d="M573.176,-277.02C632.087,-268.034 752.384,-249.417 854,-232 867.773,-229.639 882.868,-226.905 896.141,-224.451"/>
<polygon fill="midnightblue" stroke="midnightblue" points="897.142,-227.825 906.334,-222.556 895.862,-220.943 897.142,-227.825"/>
</g>
<!-- Node56&#45;&gt;Node13 -->
<g id="edge151" class="edge"><title>Node56&#45;&gt;Node13</title>
<path fill="none" stroke="midnightblue" d="M500.868,-282.497C424.307,-281.642 249.748,-274.919 213,-232 169.872,-181.63 266.244,-122.55 315.848,-96.7154"/>
<polygon fill="midnightblue" stroke="midnightblue" points="317.489,-99.8076 324.806,-92.1457 314.308,-93.572 317.489,-99.8076"/>
</g>
<!-- Node56&#45;&gt;Node17 -->
<g id="edge153" class="edge"><title>Node56&#45;&gt;Node17</title>
<path fill="none" stroke="midnightblue" d="M538.427,-273.781C541.672,-256.906 551.247,-219.791 575,-201 590.207,-188.97 703.801,-169.019 770.507,-158.144"/>
<polygon fill="midnightblue" stroke="midnightblue" points="771.078,-161.597 780.389,-156.543 769.958,-154.687 771.078,-161.597"/>
</g>
<!-- Node57 -->
<g id="node57" class="node"><title>Node57</title>
<polygon fill="white" stroke="#bfbfbf" points="346,-207 346,-226 414,-226 414,-207 346,-207"/>
<text text-anchor="middle" x="380" y="-214" font-family="Helvetica,sans-Serif" font-size="10.00">type_traits</text>
</g>
<!-- Node56&#45;&gt;Node57 -->
<g id="edge146" class="edge"><title>Node56&#45;&gt;Node57</title>
<path fill="none" stroke="midnightblue" d="M516.152,-273.869C489.056,-262.65 441.536,-242.977 410.416,-230.092"/>
<polygon fill="midnightblue" stroke="midnightblue" points="411.513,-226.759 400.935,-226.167 408.835,-233.226 411.513,-226.759"/>
</g>
<!-- Node58 -->
<g id="node58" class="node"><title>Node58</title>
<polygon fill="white" stroke="#bfbfbf" points="222,-207 222,-226 328,-226 328,-207 222,-207"/>
<text text-anchor="middle" x="275" y="-214" font-family="Helvetica,sans-Serif" font-size="10.00">boost/optional.hpp</text>
</g>
<!-- Node56&#45;&gt;Node58 -->
<g id="edge150" class="edge"><title>Node56&#45;&gt;Node58</title>
<path fill="none" stroke="midnightblue" d="M502.479,-273.936C455.451,-262.268 371.202,-241.367 319.486,-228.537"/>
<polygon fill="midnightblue" stroke="midnightblue" points="320.146,-225.094 309.598,-226.083 318.461,-231.888 320.146,-225.094"/>
</g>
<!-- Node59&#45;&gt;Node2 -->
<g id="edge160" class="edge"><title>Node59&#45;&gt;Node2</title>
<path fill="none" stroke="midnightblue" d="M855.389,-335.467C905.746,-307.655 1065.56,-220.309 1121,-201 1197.22,-174.453 1223.15,-192.588 1299,-165 1326.1,-155.143 1328.49,-142.665 1356,-134 1501.81,-88.0667 1685.9,-82.8273 1764.99,-82.9244"/>
<polygon fill="midnightblue" stroke="midnightblue" points="1765.42,-86.4262 1775.44,-82.9699 1765.45,-79.4263 1765.42,-86.4262"/>
</g>
<!-- Node59&#45;&gt;Node4 -->
<g id="edge163" class="edge"><title>Node59&#45;&gt;Node4</title>
<path fill="none" stroke="midnightblue" d="M838.87,-335.492C836.119,-310.895 831.807,-239.034 869,-201 984.877,-82.5044 1054.59,-100.024 1217,-67 1433.31,-23.0166 2143.33,-17.3347 2307.78,-16.6062"/>
<polygon fill="midnightblue" stroke="midnightblue" points="2308.25,-20.1044 2318.24,-16.5635 2308.23,-13.1045 2308.25,-20.1044"/>
</g>
<!-- Node59&#45;&gt;Node8 -->
<g id="edge161" class="edge"><title>Node59&#45;&gt;Node8</title>
<path fill="none" stroke="midnightblue" d="M830.051,-335.471C796.158,-306.446 686.345,-212.656 669,-201 597.247,-152.783 544.163,-174.553 504,-98 493.506,-77.9966 501.2,-51.7947 508.689,-34.5703"/>
<polygon fill="midnightblue" stroke="midnightblue" points="512.038,-35.6767 513.161,-25.1415 505.713,-32.6768 512.038,-35.6767"/>
</g>
<!-- Node59&#45;&gt;Node9 -->
<g id="edge164" class="edge"><title>Node59&#45;&gt;Node9</title>
<path fill="none" stroke="midnightblue" d="M840.752,-335.369C843.404,-310.439 854.594,-237.766 897,-201 948.475,-156.371 980.9,-185.085 1046,-165 1083.23,-153.514 1090.42,-144.277 1128,-134 1200.23,-114.249 1284.78,-100.564 1343.88,-92.4711"/>
<polygon fill="midnightblue" stroke="midnightblue" points="1344.44,-95.9283 1353.88,-91.1226 1343.5,-88.9912 1344.44,-95.9283"/>
</g>
<!-- Node59&#45;&gt;Node12 -->
<g id="edge167" class="edge"><title>Node59&#45;&gt;Node12</title>
<path fill="none" stroke="midnightblue" d="M852.366,-335.491C863.749,-327.189 880.555,-313.693 892,-299 907.315,-279.339 919.292,-253.059 926.249,-235.723"/>
<polygon fill="midnightblue" stroke="midnightblue" points="929.58,-236.813 929.917,-226.224 923.05,-234.292 929.58,-236.813"/>
</g>
<!-- Node59&#45;&gt;Node13 -->
<g id="edge166" class="edge"><title>Node59&#45;&gt;Node13</title>
<path fill="none" stroke="midnightblue" d="M804.372,-343.653C680.975,-341.614 275.228,-327.626 199,-232 182.123,-210.828 206.805,-145.484 217,-134 238.459,-109.828 273.092,-97.0617 300.623,-90.4174"/>
<polygon fill="midnightblue" stroke="midnightblue" points="301.408,-93.8285 310.407,-88.2368 299.885,-86.9961 301.408,-93.8285"/>
</g>
<!-- Node59&#45;&gt;Node30 -->
<g id="edge162" class="edge"><title>Node59&#45;&gt;Node30</title>
<path fill="none" stroke="midnightblue" d="M875.707,-342.088C1037.64,-333.416 1703.47,-297.756 1897.63,-287.358"/>
<polygon fill="midnightblue" stroke="midnightblue" points="1898.06,-290.84 1907.86,-286.81 1897.69,-283.85 1898.06,-290.84"/>
</g>
<!-- Node59&#45;&gt;Node56 -->
<g id="edge165" class="edge"><title>Node59&#45;&gt;Node56</title>
<path fill="none" stroke="midnightblue" d="M804.351,-337C749.487,-326.226 644.343,-305.579 583.544,-293.64"/>
<polygon fill="midnightblue" stroke="midnightblue" points="583.942,-290.151 573.455,-291.659 582.593,-297.02 583.942,-290.151"/>
</g>
<!-- Node59&#45;&gt;Node60 -->
<g id="edge168" class="edge"><title>Node59&#45;&gt;Node60</title>
<path fill="none" stroke="midnightblue" d="M821.438,-335.41C803.034,-326.732 774.169,-312.688 750,-299 711.209,-277.031 667.773,-248.495 642.782,-231.673"/>
<polygon fill="midnightblue" stroke="midnightblue" points="644.696,-228.742 634.452,-226.039 640.774,-234.541 644.696,-228.742"/>
</g>
<!-- Node60&#45;&gt;Node2 -->
<g id="edge170" class="edge"><title>Node60&#45;&gt;Node2</title>
<path fill="none" stroke="midnightblue" d="M660.008,-209.576C753.854,-195.101 1004.18,-157.407 1214,-134 1421.34,-110.87 1670.7,-92.6779 1765.18,-86.129"/>
<polygon fill="midnightblue" stroke="midnightblue" points="1765.66,-89.6039 1775.4,-85.4241 1765.18,-82.6204 1765.66,-89.6039"/>
</g>
<!-- Node60&#45;&gt;Node8 -->
<g id="edge171" class="edge"><title>Node60&#45;&gt;Node8</title>
<path fill="none" stroke="midnightblue" d="M606.915,-206.905C562.193,-181.354 433.11,-107.07 428,-98 421.237,-85.9965 421.038,-78.8894 428,-67 431.633,-60.7964 466.085,-42.5223 491.285,-29.7509"/>
<polygon fill="midnightblue" stroke="midnightblue" points="493.046,-32.7829 500.407,-25.1622 489.901,-26.5295 493.046,-32.7829"/>
</g>
<!-- Node60&#45;&gt;Node11 -->
<g id="edge169" class="edge"><title>Node60&#45;&gt;Node11</title>
<path fill="none" stroke="midnightblue" d="M624.499,-206.764C632.627,-180.151 661.079,-99.9046 717,-67 784.777,-27.119 1348.55,-18.4165 1495.23,-16.82"/>
<polygon fill="midnightblue" stroke="midnightblue" points="1495.48,-20.3177 1505.44,-16.7131 1495.41,-13.3181 1495.48,-20.3177"/>
</g>
<!-- Node60&#45;&gt;Node13 -->
<g id="edge172" class="edge"><title>Node60&#45;&gt;Node13</title>
<path fill="none" stroke="midnightblue" d="M597.575,-206.85C571.545,-197.405 529.307,-181.422 494,-165 447.691,-143.461 395.684,-114.218 366.381,-97.2505"/>
<polygon fill="midnightblue" stroke="midnightblue" points="368.104,-94.2038 357.701,-92.1982 364.583,-100.254 368.104,-94.2038"/>
</g>
<!-- Node60&#45;&gt;Node17 -->
<g id="edge173" class="edge"><title>Node60&#45;&gt;Node17</title>
<path fill="none" stroke="midnightblue" d="M648.16,-206.869C682.844,-195.424 744.199,-175.181 783.169,-162.322"/>
<polygon fill="midnightblue" stroke="midnightblue" points="784.646,-165.521 793.045,-159.064 782.452,-158.873 784.646,-165.521"/>
</g>
<!-- Node61&#45;&gt;Node3 -->
<g id="edge178" class="edge"><title>Node61&#45;&gt;Node3</title>
<path fill="none" stroke="midnightblue" d="M2206.1,-447.397C2245.04,-400.426 2433.84,-175.556 2513,-134 2584.52,-96.4537 3161.5,-34.4463 3302.84,-19.712"/>
<polygon fill="midnightblue" stroke="midnightblue" points="3303.39,-23.173 3312.98,-18.658 3302.67,-16.2105 3303.39,-23.173"/>
</g>
<!-- Node61&#45;&gt;Node4 -->
<g id="edge179" class="edge"><title>Node61&#45;&gt;Node4</title>
<path fill="none" stroke="midnightblue" d="M2201.86,-447.221C2219.3,-393.601 2311.56,-110.065 2336.03,-34.8358"/>
<polygon fill="midnightblue" stroke="midnightblue" points="2339.37,-35.8923 2339.14,-25.3001 2332.71,-33.7265 2339.37,-35.8923"/>
</g>
<!-- Node61&#45;&gt;Node6 -->
<g id="edge180" class="edge"><title>Node61&#45;&gt;Node6</title>
<path fill="none" stroke="midnightblue" d="M2191.37,-447.201C2184.09,-438.478 2173.21,-424.501 2166,-411 2146.52,-374.554 2132.01,-328.1 2124.89,-302.854"/>
<polygon fill="midnightblue" stroke="midnightblue" points="2128.25,-301.858 2122.22,-293.141 2121.49,-303.711 2128.25,-301.858"/>
</g>
<!-- Node61&#45;&gt;Node10 -->
<g id="edge182" class="edge"><title>Node61&#45;&gt;Node10</title>
<path fill="none" stroke="midnightblue" d="M2198.86,-447.224C2198.08,-419.401 2193.06,-331.267 2161,-268 2155.01,-256.19 2097.85,-196.029 2069.62,-166.666"/>
<polygon fill="midnightblue" stroke="midnightblue" points="2071.95,-164.04 2062.49,-159.266 2066.91,-168.897 2071.95,-164.04"/>
</g>
<!-- Node61&#45;&gt;Node54 -->
<g id="edge181" class="edge"><title>Node61&#45;&gt;Node54</title>
<path fill="none" stroke="midnightblue" d="M2260.77,-450.45C2373.56,-440.316 2612.08,-418.885 2730.41,-408.253"/>
<polygon fill="midnightblue" stroke="midnightblue" points="2730.8,-411.732 2740.44,-407.351 2730.17,-404.76 2730.8,-411.732"/>
</g>
</g>
</svg>
