<?xml version="1.0" encoding="UTF-8" standalone="no"?>
<!DOCTYPE svg PUBLIC "-//W3C//DTD SVG 1.1//EN"
 "http://www.w3.org/Graphics/SVG/1.1/DTD/svg11.dtd">
<!-- Generated by graphviz version 2.38.0 (20140413.2041)
 -->
<!-- Title: scram::mef::Serialize Pages: 1 -->
<!--zoomable 1121 -->
<svg id="main" version="1.1" xmlns="http://www.w3.org/2000/svg" xmlns:xlink="http://www.w3.org/1999/xlink" xml:space="preserve" onload="init(evt)">
<style type="text/css"><![CDATA[
.edge:hover path { stroke: red; }
.edge:hover polygon { stroke: red; fill: red; }
]]></style>
<script type="text/javascript"><![CDATA[
var edges = document.getElementsByTagName('g');
if (edges && edges.length) {
  for (var i=0;i<edges.length;i++) {
    if (edges[i].id.substr(0,4)=='edge') {
      edges[i].setAttribute('class','edge');
    }
  }
}
]]></script>
        <defs>
                <circle id="rim" cx="0" cy="0" r="7"/>
                <circle id="rim2" cx="0" cy="0" r="3.5"/>
                <g id="zoomPlus">
                        <use xlink:href="#rim" fill="#404040">
                                <set attributeName="fill" to="#808080" begin="zoomplus.mouseover" end="zoomplus.mouseout"/>
                        </use>
                        <path d="M-4,0h8M0,-4v8" fill="none" stroke="white" stroke-width="1.5" pointer-events="none"/>
                </g>
                <g id="zoomMin">
                        <use xlink:href="#rim" fill="#404040">
                                <set attributeName="fill" to="#808080" begin="zoomminus.mouseover" end="zoomminus.mouseout"/>
                        </use>
                        <path d="M-4,0h8" fill="none" stroke="white" stroke-width="1.5" pointer-events="none"/>
                </g>
                <g id="dirArrow">
                        <path fill="none" stroke="white" stroke-width="1.5" d="M0,-3.0v7 M-2.5,-0.5L0,-3.0L2.5,-0.5"/>
                </g>
               <g id="resetDef">
                       <use xlink:href="#rim2" fill="#404040">
                               <set attributeName="fill" to="#808080" begin="reset.mouseover" end="reset.mouseout"/>
                       </use>
               </g>
        </defs>

<script type="text/javascript">
var viewWidth = 809;
var viewHeight = 1121;
var sectionId = 'dynsection-3';
</script>
<script xlink:href="svgpan.js"/>
<svg id="graph" class="graph">
<g id="viewport">
<title>scram::mef::Serialize</title>
<polygon fill="white" stroke="none" points="-4,4 -4,-1117 805,-1117 805,4 -4,4"/>
<!-- Node1 -->
<g id="node1" class="node"><title>Node1</title>
<polygon fill="#bfbfbf" stroke="black" points="0,-798 0,-817 118,-817 118,-798 0,-798"/>
<text text-anchor="middle" x="59" y="-805" font-family="Helvetica,sans-Serif" font-size="10.00">scram::mef::Serialize</text>
</g>
<!-- Node2 -->
<g id="node2" class="node"><title>Node2</title>
<g id="a_node2"><a xlink:href="classscram_1_1XmlStreamElement.xhtml#ac8227ce1d2bf22ab83d3055a8e98fb2d" target="_top" xlink:title="Adds a child element to the element. ">
<polygon fill="white" stroke="black" points="308,-811.5 308,-841.5 454,-841.5 454,-811.5 308,-811.5"/>
<text text-anchor="start" x="316" y="-829.5" font-family="Helvetica,sans-Serif" font-size="10.00">scram::XmlStreamElement</text>
<text text-anchor="middle" x="381" y="-818.5" font-family="Helvetica,sans-Serif" font-size="10.00">::AddChild</text>
</a>
</g>
</g>
<!-- Node1&#45;&gt;Node2 -->
<g id="edge1" class="edge"><title>Node1&#45;&gt;Node2</title>
<path fill="none" stroke="midnightblue" d="M118.321,-810.963C168.47,-813.94 241.374,-818.269 297.501,-821.602"/>
<polygon fill="midnightblue" stroke="midnightblue" points="297.587,-825.113 307.777,-822.212 298.002,-818.125 297.587,-825.113"/>
</g>
<!-- Node4 -->
<g id="node4" class="node"><title>Node4</title>
<g id="a_node4"><a xlink:href="classscram_1_1mef_1_1Model.xhtml#ada7804d62fc594bff7b080c680586209" target="_top" xlink:title="scram::mef::Model::\lbasic_events">
<polygon fill="white" stroke="black" points="157,-1033.5 157,-1063.5 269,-1063.5 269,-1033.5 157,-1033.5"/>
<text text-anchor="start" x="165" y="-1051.5" font-family="Helvetica,sans-Serif" font-size="10.00">scram::mef::Model::</text>
<text text-anchor="middle" x="213" y="-1040.5" font-family="Helvetica,sans-Serif" font-size="10.00">basic_events</text>
</a>
</g>
</g>
<!-- Node1&#45;&gt;Node4 -->
<g id="edge3" class="edge"><title>Node1&#45;&gt;Node4</title>
<path fill="none" stroke="midnightblue" d="M61.9082,-817.177C68.7466,-849.585 94.8338,-955.783 154,-1018.5 157.326,-1022.03 161.158,-1025.21 165.235,-1028.07"/>
<polygon fill="midnightblue" stroke="midnightblue" points="163.533,-1031.13 173.864,-1033.49 167.255,-1025.2 163.533,-1031.13"/>
</g>
<!-- Node5 -->
<g id="node5" class="node"><title>Node5</title>
<g id="a_node5"><a xlink:href="classscram_1_1mef_1_1Model.xhtml#a5c8b03561207b374fc06dd61c0cf3ace" target="_top" xlink:title="scram::mef::Model::\lccf_groups">
<polygon fill="white" stroke="black" points="157,-1082.5 157,-1112.5 269,-1112.5 269,-1082.5 157,-1082.5"/>
<text text-anchor="start" x="165" y="-1100.5" font-family="Helvetica,sans-Serif" font-size="10.00">scram::mef::Model::</text>
<text text-anchor="middle" x="213" y="-1089.5" font-family="Helvetica,sans-Serif" font-size="10.00">ccf_groups</text>
</a>
</g>
</g>
<!-- Node1&#45;&gt;Node5 -->
<g id="edge4" class="edge"><title>Node1&#45;&gt;Node5</title>
<path fill="none" stroke="midnightblue" d="M60.7,-817.096C63.9381,-854.739 80.6115,-994.093 154,-1072.5 155.349,-1073.94 156.795,-1075.3 158.317,-1076.59"/>
<polygon fill="midnightblue" stroke="midnightblue" points="156.304,-1079.45 166.476,-1082.42 160.373,-1073.76 156.304,-1079.45"/>
</g>
<!-- Node7 -->
<g id="node7" class="node"><title>Node7</title>
<g id="a_node7"><a xlink:href="classscram_1_1mef_1_1Model.xhtml#a97786aaa61d59617a0b08dcd518d0d68" target="_top" xlink:title="scram::mef::Model::\levent_trees">
<polygon fill="white" stroke="black" points="157,-945.5 157,-975.5 269,-975.5 269,-945.5 157,-945.5"/>
<text text-anchor="start" x="165" y="-963.5" font-family="Helvetica,sans-Serif" font-size="10.00">scram::mef::Model::</text>
<text text-anchor="middle" x="213" y="-952.5" font-family="Helvetica,sans-Serif" font-size="10.00">event_trees</text>
</a>
</g>
</g>
<!-- Node1&#45;&gt;Node7 -->
<g id="edge6" class="edge"><title>Node1&#45;&gt;Node7</title>
<path fill="none" stroke="midnightblue" d="M64.7875,-817.206C76.7594,-840.583 110.206,-900.649 154,-935.5 156.065,-937.143 158.253,-938.698 160.525,-940.167"/>
<polygon fill="midnightblue" stroke="midnightblue" points="159.198,-943.442 169.608,-945.411 162.698,-937.38 159.198,-943.442"/>
</g>
<!-- Node8 -->
<g id="node8" class="node"><title>Node8</title>
<g id="a_node8"><a xlink:href="classscram_1_1mef_1_1Model.xhtml#a9bac9a7746026484f3dc69a3ccb2ac4a" target="_top" xlink:title="scram::mef::Model::\lfault_trees">
<polygon fill="white" stroke="black" points="157,-896.5 157,-926.5 269,-926.5 269,-896.5 157,-896.5"/>
<text text-anchor="start" x="165" y="-914.5" font-family="Helvetica,sans-Serif" font-size="10.00">scram::mef::Model::</text>
<text text-anchor="middle" x="213" y="-903.5" font-family="Helvetica,sans-Serif" font-size="10.00">fault_trees</text>
</a>
</g>
</g>
<!-- Node1&#45;&gt;Node8 -->
<g id="edge7" class="edge"><title>Node1&#45;&gt;Node8</title>
<path fill="none" stroke="midnightblue" d="M70.7761,-817.1C87.7412,-831.95 122.044,-860.921 154,-881.5 159.379,-884.964 165.206,-888.359 171.021,-891.547"/>
<polygon fill="midnightblue" stroke="midnightblue" points="169.61,-894.761 180.083,-896.365 172.897,-888.58 169.61,-894.761"/>
</g>
<!-- Node9 -->
<g id="node9" class="node"><title>Node9</title>
<g id="a_node9"><a xlink:href="classscram_1_1mef_1_1Model.xhtml#a742b8f5f989b633eeeeb192d2e793181" target="_top" xlink:title="scram::mef::Model::\lHasDefaultName">
<polygon fill="white" stroke="black" points="513,-942.5 513,-972.5 625,-972.5 625,-942.5 513,-942.5"/>
<text text-anchor="start" x="521" y="-960.5" font-family="Helvetica,sans-Serif" font-size="10.00">scram::mef::Model::</text>
<text text-anchor="middle" x="569" y="-949.5" font-family="Helvetica,sans-Serif" font-size="10.00">HasDefaultName</text>
</a>
</g>
</g>
<!-- Node1&#45;&gt;Node9 -->
<g id="edge8" class="edge"><title>Node1&#45;&gt;Node9</title>
<path fill="none" stroke="midnightblue" d="M61.6073,-817.131C67.3746,-848.225 90.186,-946.135 154,-984.5 271.155,-1054.93 442.138,-1006.1 522.75,-976.121"/>
<polygon fill="midnightblue" stroke="midnightblue" points="524.013,-979.385 532.123,-972.568 521.532,-972.84 524.013,-979.385"/>
</g>
<!-- Node10 -->
<g id="node10" class="node"><title>Node10</title>
<g id="a_node10"><a xlink:href="classscram_1_1mef_1_1Element.xhtml#adb401e2ca84aa98cb60797bec2500a81" target="_top" xlink:title="scram::mef::Element\l::name">
<polygon fill="white" stroke="black" points="684,-693.5 684,-723.5 801,-723.5 801,-693.5 684,-693.5"/>
<text text-anchor="start" x="692" y="-711.5" font-family="Helvetica,sans-Serif" font-size="10.00">scram::mef::Element</text>
<text text-anchor="middle" x="742.5" y="-700.5" font-family="Helvetica,sans-Serif" font-size="10.00">::name</text>
</a>
</g>
</g>
<!-- Node1&#45;&gt;Node10 -->
<g id="edge12" class="edge"><title>Node1&#45;&gt;Node10</title>
<path fill="none" stroke="midnightblue" d="M82.0368,-817.058C163.291,-850.742 451.568,-956.35 648,-850.5 694.155,-825.629 721.274,-766.909 733.553,-733.286"/>
<polygon fill="midnightblue" stroke="midnightblue" points="736.9,-734.317 736.892,-723.722 730.292,-732.009 736.9,-734.317"/>
</g>
<!-- Node11 -->
<g id="node11" class="node"><title>Node11</title>
<g id="a_node11"><a xlink:href="classscram_1_1mef_1_1Model.xhtml#a2ddd6d121e1ab6fbe140fc3fb449cd96" target="_top" xlink:title="scram::mef::Model::\lhouse_events">
<polygon fill="white" stroke="black" points="157,-770.5 157,-800.5 269,-800.5 269,-770.5 157,-770.5"/>
<text text-anchor="start" x="165" y="-788.5" font-family="Helvetica,sans-Serif" font-size="10.00">scram::mef::Model::</text>
<text text-anchor="middle" x="213" y="-777.5" font-family="Helvetica,sans-Serif" font-size="10.00">house_events</text>
</a>
</g>
</g>
<!-- Node1&#45;&gt;Node11 -->
<g id="edge10" class="edge"><title>Node1&#45;&gt;Node11</title>
<path fill="none" stroke="midnightblue" d="M118.332,-799.057C127.555,-797.722 137.145,-796.334 146.517,-794.978"/>
<polygon fill="midnightblue" stroke="midnightblue" points="147.178,-798.419 156.573,-793.522 146.175,-791.491 147.178,-798.419"/>
</g>
<!-- Node12 -->
<g id="node12" class="node"><title>Node12</title>
<g id="a_node12"><a xlink:href="classscram_1_1mef_1_1Model.xhtml#a04f7628e1d3a27295d2ac7bbdc7ab26b" target="_top" xlink:title="scram::mef::Model::\linitiating_events">
<polygon fill="white" stroke="black" points="157,-721.5 157,-751.5 269,-751.5 269,-721.5 157,-721.5"/>
<text text-anchor="start" x="165" y="-739.5" font-family="Helvetica,sans-Serif" font-size="10.00">scram::mef::Model::</text>
<text text-anchor="middle" x="213" y="-728.5" font-family="Helvetica,sans-Serif" font-size="10.00">initiating_events</text>
</a>
</g>
</g>
<!-- Node1&#45;&gt;Node12 -->
<g id="edge11" class="edge"><title>Node1&#45;&gt;Node12</title>
<path fill="none" stroke="midnightblue" d="M78.1856,-797.924C96.9852,-788.139 127.274,-772.692 154,-760.5 157.579,-758.867 161.301,-757.218 165.055,-755.589"/>
<polygon fill="midnightblue" stroke="midnightblue" points="166.568,-758.749 174.391,-751.604 163.82,-752.311 166.568,-758.749"/>
</g>
<!-- Node13 -->
<g id="node13" class="node"><title>Node13</title>
<g id="a_node13"><a xlink:href="classscram_1_1mef_1_1Model.xhtml#a698156baa445c530089d57601e19bb35" target="_top" xlink:title="scram::mef::Model::\lparameters">
<polygon fill="white" stroke="black" points="157,-672.5 157,-702.5 269,-702.5 269,-672.5 157,-672.5"/>
<text text-anchor="start" x="165" y="-690.5" font-family="Helvetica,sans-Serif" font-size="10.00">scram::mef::Model::</text>
<text text-anchor="middle" x="213" y="-679.5" font-family="Helvetica,sans-Serif" font-size="10.00">parameters</text>
</a>
</g>
</g>
<!-- Node1&#45;&gt;Node13 -->
<g id="edge13" class="edge"><title>Node1&#45;&gt;Node13</title>
<path fill="none" stroke="midnightblue" d="M67.2718,-797.792C81.8547,-778.901 116.502,-736.832 154,-711.5 156.133,-710.059 158.367,-708.679 160.664,-707.362"/>
<polygon fill="midnightblue" stroke="midnightblue" points="162.529,-710.336 169.761,-702.594 159.279,-704.136 162.529,-710.336"/>
</g>
<!-- Node14 -->
<g id="node14" class="node"><title>Node14</title>
<g id="a_node14"><a xlink:href="classscram_1_1mef_1_1Model.xhtml#a52198e362df1827d583eceed7306eb6f" target="_top" xlink:title="scram::mef::Model::\lrules">
<polygon fill="white" stroke="black" points="157,-623.5 157,-653.5 269,-653.5 269,-623.5 157,-623.5"/>
<text text-anchor="start" x="165" y="-641.5" font-family="Helvetica,sans-Serif" font-size="10.00">scram::mef::Model::</text>
<text text-anchor="middle" x="213" y="-630.5" font-family="Helvetica,sans-Serif" font-size="10.00">rules</text>
</a>
</g>
</g>
<!-- Node1&#45;&gt;Node14 -->
<g id="edge14" class="edge"><title>Node1&#45;&gt;Node14</title>
<path fill="none" stroke="midnightblue" d="M63.7664,-797.962C74.2661,-772.51 106.263,-702.22 154,-662.5 155.508,-661.245 157.09,-660.049 158.73,-658.908"/>
<polygon fill="midnightblue" stroke="midnightblue" points="160.609,-661.861 167.316,-653.659 156.958,-655.888 160.609,-661.861"/>
</g>
<!-- Node15 -->
<g id="node15" class="node"><title>Node15</title>
<g id="a_node15"><a xlink:href="classscram_1_1mef_1_1Model.xhtml#afbb8bfee9de066a3341d34ef5ce885e4" target="_top" xlink:title="scram::mef::Model::\lsequences">
<polygon fill="white" stroke="black" points="157,-574.5 157,-604.5 269,-604.5 269,-574.5 157,-574.5"/>
<text text-anchor="start" x="165" y="-592.5" font-family="Helvetica,sans-Serif" font-size="10.00">scram::mef::Model::</text>
<text text-anchor="middle" x="213" y="-581.5" font-family="Helvetica,sans-Serif" font-size="10.00">sequences</text>
</a>
</g>
</g>
<!-- Node1&#45;&gt;Node15 -->
<g id="edge15" class="edge"><title>Node1&#45;&gt;Node15</title>
<path fill="none" stroke="midnightblue" d="M62.0545,-797.985C69.192,-767.093 95.7247,-668.442 154,-613.5 155.254,-612.318 156.574,-611.19 157.948,-610.115"/>
<polygon fill="midnightblue" stroke="midnightblue" points="159.95,-612.987 166.308,-604.512 156.053,-607.172 159.95,-612.987"/>
</g>
<!-- Node16 -->
<g id="node16" class="node"><title>Node16</title>
<g id="a_node16"><a xlink:href="serialization_8cc.xhtml#a83f7058a5caad9ec3ffb5fd6c7d7b8f6" target="_top" xlink:title="Convenience function for serialization into a file. ">
<polygon fill="white" stroke="black" points="154,-445 154,-464 272,-464 272,-445 154,-445"/>
<text text-anchor="middle" x="213" y="-452" font-family="Helvetica,sans-Serif" font-size="10.00">scram::mef::Serialize</text>
</a>
</g>
</g>
<!-- Node1&#45;&gt;Node16 -->
<g id="edge16" class="edge"><title>Node1&#45;&gt;Node16</title>
<path fill="none" stroke="midnightblue" d="M63.3606,-797.609C74.7925,-764.249 113.709,-653.014 154,-564.5 169.047,-531.443 189.366,-494.329 201.529,-472.766"/>
<polygon fill="midnightblue" stroke="midnightblue" points="204.599,-474.447 206.495,-464.023 198.513,-470.989 204.599,-474.447"/>
</g>
<!-- Node32 -->
<g id="node32" class="node"><title>Node32</title>
<g id="a_node32"><a xlink:href="classscram_1_1XmlStreamElement.xhtml#a3f8cfc1031e589dac6e33ea98c9b0479" target="_top" xlink:title="Sets the attributes for the element. ">
<polygon fill="white" stroke="black" points="308,-0.5 308,-30.5 454,-30.5 454,-0.5 308,-0.5"/>
<text text-anchor="start" x="316" y="-18.5" font-family="Helvetica,sans-Serif" font-size="10.00">scram::XmlStreamElement</text>
<text text-anchor="middle" x="381" y="-7.5" font-family="Helvetica,sans-Serif" font-size="10.00">::SetAttribute</text>
</a>
</g>
</g>
<!-- Node1&#45;&gt;Node32 -->
<g id="edge42" class="edge"><title>Node1&#45;&gt;Node32</title>
<path fill="none" stroke="midnightblue" d="M59.9188,-797.891C59.8539,-725.863 69.0175,-267.018 308,-39.5 309.133,-38.4211 310.316,-37.3907 311.542,-36.4066"/>
<polygon fill="midnightblue" stroke="midnightblue" points="313.859,-39.0646 320.177,-30.56 309.934,-33.2682 313.859,-39.0646"/>
</g>
<!-- Node3 -->
<g id="node3" class="node"><title>Node3</title>
<g id="a_node3"><a xlink:href="classscram_1_1XmlStreamElement.xhtml#af62b9ffc844dba0b3fa143136dc5ac50" target="_top" xlink:title="Constructs a root streamer for the XML element data ready to accept attributes, elements, text. ">
<polygon fill="white" stroke="black" points="496,-811.5 496,-841.5 642,-841.5 642,-811.5 496,-811.5"/>
<text text-anchor="start" x="504" y="-829.5" font-family="Helvetica,sans-Serif" font-size="10.00">scram::XmlStreamElement</text>
<text text-anchor="middle" x="569" y="-818.5" font-family="Helvetica,sans-Serif" font-size="10.00">::XmlStreamElement</text>
</a>
</g>
</g>
<!-- Node2&#45;&gt;Node3 -->
<g id="edge2" class="edge"><title>Node2&#45;&gt;Node3</title>
<path fill="none" stroke="midnightblue" d="M454.179,-826.5C464.548,-826.5 475.282,-826.5 485.827,-826.5"/>
<polygon fill="midnightblue" stroke="midnightblue" points="485.862,-830 495.862,-826.5 485.862,-823 485.862,-830"/>
</g>
<!-- Node6 -->
<g id="node6" class="node"><title>Node6</title>
<g id="a_node6"><a xlink:href="classscram_1_1mef_1_1Model.xhtml#a73983f66319f63a3f663c5fb318a2620" target="_top" xlink:title="Adds MEF constructs into the model container. ">
<polygon fill="white" stroke="black" points="315.5,-1088 315.5,-1107 446.5,-1107 446.5,-1088 315.5,-1088"/>
<text text-anchor="middle" x="381" y="-1095" font-family="Helvetica,sans-Serif" font-size="10.00">scram::mef::Model::Add</text>
</a>
</g>
</g>
<!-- Node5&#45;&gt;Node6 -->
<g id="edge5" class="edge"><title>Node5&#45;&gt;Node6</title>
<path fill="none" stroke="midnightblue" d="M269.276,-1097.5C280.844,-1097.5 293.224,-1097.5 305.363,-1097.5"/>
<polygon fill="midnightblue" stroke="midnightblue" points="305.48,-1101 315.48,-1097.5 305.48,-1094 305.48,-1101"/>
</g>
<!-- Node9&#45;&gt;Node10 -->
<g id="edge9" class="edge"><title>Node9&#45;&gt;Node10</title>
<path fill="none" stroke="midnightblue" d="M589.342,-942.5C606.258,-928.706 630.749,-907.032 648,-884.5 685.713,-835.241 716.465,-768.647 731.506,-733.164"/>
<polygon fill="midnightblue" stroke="midnightblue" points="734.871,-734.189 735.493,-723.612 728.411,-731.492 734.871,-734.189"/>
</g>
<!-- Node16&#45;&gt;Node2 -->
<g id="edge17" class="edge"><title>Node16&#45;&gt;Node2</title>
<path fill="none" stroke="midnightblue" d="M220.442,-464.016C232.622,-482.499 258.973,-524.922 272,-564.5 305.311,-665.7 239.881,-719.58 308,-801.5 309.005,-802.708 310.071,-803.858 311.191,-804.952"/>
<polygon fill="midnightblue" stroke="midnightblue" points="309.28,-807.905 319.282,-811.4 313.643,-802.431 309.28,-807.905"/>
</g>
<!-- Node16&#45;&gt;Node10 -->
<g id="edge35" class="edge"><title>Node16&#45;&gt;Node10</title>
<path fill="none" stroke="midnightblue" d="M223.519,-464.057C239.551,-479.62 273.574,-510.415 308,-527.5 368.163,-557.358 391.139,-542.846 454,-566.5 548.371,-602.011 653.121,-658.355 706.323,-688.277"/>
<polygon fill="midnightblue" stroke="midnightblue" points="704.907,-691.497 715.335,-693.371 708.352,-685.403 704.907,-691.497"/>
</g>
<!-- Node16&#45;&gt;Node16 -->
<g id="edge37" class="edge"><title>Node16&#45;&gt;Node16</title>
<path fill="none" stroke="midnightblue" d="M189.264,-464.257C177.717,-473.065 185.629,-482.5 213,-482.5 230.962,-482.5 240.544,-478.437 241.746,-473.154"/>
<polygon fill="midnightblue" stroke="midnightblue" points="244.692,-471.253 236.736,-464.257 238.593,-474.688 244.692,-471.253"/>
</g>
<!-- Node17 -->
<g id="node17" class="node"><title>Node17</title>
<g id="a_node17"><a xlink:href="classscram_1_1XmlStreamElement.xhtml#a414c693e59f68e95677ed91e48bae61a" target="_top" xlink:title="Adds text to the element. ">
<polygon fill="white" stroke="black" points="308,-488.5 308,-518.5 454,-518.5 454,-488.5 308,-488.5"/>
<text text-anchor="start" x="316" y="-506.5" font-family="Helvetica,sans-Serif" font-size="10.00">scram::XmlStreamElement</text>
<text text-anchor="middle" x="381" y="-495.5" font-family="Helvetica,sans-Serif" font-size="10.00">::AddText</text>
</a>
</g>
</g>
<!-- Node16&#45;&gt;Node17 -->
<g id="edge18" class="edge"><title>Node16&#45;&gt;Node17</title>
<path fill="none" stroke="midnightblue" d="M246.401,-464.064C267.141,-470.186 294.699,-478.321 319.397,-485.611"/>
<polygon fill="midnightblue" stroke="midnightblue" points="318.477,-488.989 329.058,-488.463 320.458,-482.275 318.477,-488.989"/>
</g>
<!-- Node18 -->
<g id="node18" class="node"><title>Node18</title>
<g id="a_node18"><a xlink:href="classscram_1_1mef_1_1Expression.xhtml#ac22fdb9ced7ef6942f666337b6a34110" target="_top" xlink:title="scram::mef::Expression\l::args">
<polygon fill="white" stroke="black" points="316.5,-439.5 316.5,-469.5 445.5,-469.5 445.5,-439.5 316.5,-439.5"/>
<text text-anchor="start" x="324.5" y="-457.5" font-family="Helvetica,sans-Serif" font-size="10.00">scram::mef::Expression</text>
<text text-anchor="middle" x="381" y="-446.5" font-family="Helvetica,sans-Serif" font-size="10.00">::args</text>
</a>
</g>
</g>
<!-- Node16&#45;&gt;Node18 -->
<g id="edge19" class="edge"><title>Node16&#45;&gt;Node18</title>
<path fill="none" stroke="midnightblue" d="M272.059,-454.5C283.011,-454.5 294.602,-454.5 305.966,-454.5"/>
<polygon fill="midnightblue" stroke="midnightblue" points="306.313,-458 316.313,-454.5 306.313,-451 306.313,-458"/>
</g>
<!-- Node19 -->
<g id="node19" class="node"><title>Node19</title>
<g id="a_node19"><a xlink:href="classscram_1_1mef_1_1Element.xhtml#a25474d50f8cc2c6a728c88e4c7d1b9f1" target="_top" xlink:title="scram::mef::Element\l::attributes">
<polygon fill="white" stroke="black" points="322.5,-390.5 322.5,-420.5 439.5,-420.5 439.5,-390.5 322.5,-390.5"/>
<text text-anchor="start" x="330.5" y="-408.5" font-family="Helvetica,sans-Serif" font-size="10.00">scram::mef::Element</text>
<text text-anchor="middle" x="381" y="-397.5" font-family="Helvetica,sans-Serif" font-size="10.00">::attributes</text>
</a>
</g>
</g>
<!-- Node16&#45;&gt;Node19 -->
<g id="edge20" class="edge"><title>Node16&#45;&gt;Node19</title>
<path fill="none" stroke="midnightblue" d="M246.401,-444.936C267.141,-438.814 294.699,-430.679 319.397,-423.389"/>
<polygon fill="midnightblue" stroke="midnightblue" points="320.458,-426.725 329.058,-420.537 318.477,-420.011 320.458,-426.725"/>
</g>
<!-- Node20 -->
<g id="node20" class="node"><title>Node20</title>
<g id="a_node20"><a xlink:href="classscram_1_1mef_1_1Component.xhtml#a483f7a67e2197449902bddc48756e2cd" target="_top" xlink:title="scram::mef::Component\l::components">
<polygon fill="white" stroke="black" points="314,-341.5 314,-371.5 448,-371.5 448,-341.5 314,-341.5"/>
<text text-anchor="start" x="322" y="-359.5" font-family="Helvetica,sans-Serif" font-size="10.00">scram::mef::Component</text>
<text text-anchor="middle" x="381" y="-348.5" font-family="Helvetica,sans-Serif" font-size="10.00">::components</text>
</a>
</g>
</g>
<!-- Node16&#45;&gt;Node20 -->
<g id="edge21" class="edge"><title>Node16&#45;&gt;Node20</title>
<path fill="none" stroke="midnightblue" d="M223.876,-444.788C240.148,-429.257 274.176,-398.73 308,-380.5 311.266,-378.74 314.684,-377.077 318.182,-375.51"/>
<polygon fill="midnightblue" stroke="midnightblue" points="319.696,-378.671 327.577,-371.59 317,-372.211 319.696,-378.671"/>
</g>
<!-- Node24 -->
<g id="node24" class="node"><title>Node24</title>
<g id="a_node24"><a xlink:href="classscram_1_1mef_1_1Component.xhtml#ad246305a79904f65b36157096464703b" target="_top" xlink:title="scram::mef::Component\l::gates">
<polygon fill="white" stroke="black" points="502,-297.5 502,-327.5 636,-327.5 636,-297.5 502,-297.5"/>
<text text-anchor="start" x="510" y="-315.5" font-family="Helvetica,sans-Serif" font-size="10.00">scram::mef::Component</text>
<text text-anchor="middle" x="569" y="-304.5" font-family="Helvetica,sans-Serif" font-size="10.00">::gates</text>
</a>
</g>
</g>
<!-- Node16&#45;&gt;Node24 -->
<g id="edge32" class="edge"><title>Node16&#45;&gt;Node24</title>
<path fill="none" stroke="midnightblue" d="M217.935,-444.92C228.411,-420.813 259.533,-357.701 308,-331.5 364.105,-301.17 437.225,-298.473 491.627,-302.179"/>
<polygon fill="midnightblue" stroke="midnightblue" points="491.664,-305.692 501.903,-302.969 492.201,-298.712 491.664,-305.692"/>
</g>
<!-- Node25 -->
<g id="node25" class="node"><title>Node25</title>
<g id="a_node25"><a xlink:href="classscram_1_1mef_1_1Formula.xhtml#a4e86a729bae4629de0217c9f8c6960a0" target="_top" xlink:title="scram::mef::Formula\l::event_args">
<polygon fill="white" stroke="black" points="323,-253.5 323,-283.5 439,-283.5 439,-253.5 323,-253.5"/>
<text text-anchor="start" x="331" y="-271.5" font-family="Helvetica,sans-Serif" font-size="10.00">scram::mef::Formula</text>
<text text-anchor="middle" x="381" y="-260.5" font-family="Helvetica,sans-Serif" font-size="10.00">::event_args</text>
</a>
</g>
</g>
<!-- Node16&#45;&gt;Node25 -->
<g id="edge27" class="edge"><title>Node16&#45;&gt;Node25</title>
<path fill="none" stroke="midnightblue" d="M217.422,-444.634C227.268,-417.592 258.193,-341.453 308,-298.5 312.467,-294.647 317.499,-291.237 322.774,-288.231"/>
<polygon fill="midnightblue" stroke="midnightblue" points="324.553,-291.251 331.824,-283.545 321.334,-285.035 324.553,-291.251"/>
</g>
<!-- Node26 -->
<g id="node26" class="node"><title>Node26</title>
<g id="a_node26"><a xlink:href="classscram_1_1mef_1_1BasicEvent.xhtml#ab9764640b00bcc3f7241c5bf185d8f2a" target="_top" xlink:title="Sets the expression of this basic event. ">
<polygon fill="white" stroke="black" points="316,-186.5 316,-216.5 446,-216.5 446,-186.5 316,-186.5"/>
<text text-anchor="start" x="324" y="-204.5" font-family="Helvetica,sans-Serif" font-size="10.00">scram::mef::BasicEvent</text>
<text text-anchor="middle" x="381" y="-193.5" font-family="Helvetica,sans-Serif" font-size="10.00">::expression</text>
</a>
</g>
</g>
<!-- Node16&#45;&gt;Node26 -->
<g id="edge28" class="edge"><title>Node16&#45;&gt;Node26</title>
<path fill="none" stroke="midnightblue" d="M216.032,-444.937C223.262,-412.889 250.443,-307.697 308,-243.5 315.696,-234.916 325.574,-227.608 335.532,-221.612"/>
<polygon fill="midnightblue" stroke="midnightblue" points="337.268,-224.651 344.25,-216.682 333.822,-218.558 337.268,-224.651"/>
</g>
<!-- Node27 -->
<g id="node27" class="node"><title>Node27</title>
<g id="a_node27"><a xlink:href="classscram_1_1mef_1_1Gate.xhtml#abde84a63a060e2424ab92431634f21d9" target="_top" xlink:title="scram::mef::Gate::formula">
<polygon fill="white" stroke="black" points="309.5,-148 309.5,-167 452.5,-167 452.5,-148 309.5,-148"/>
<text text-anchor="middle" x="381" y="-155" font-family="Helvetica,sans-Serif" font-size="10.00">scram::mef::Gate::formula</text>
</a>
</g>
</g>
<!-- Node16&#45;&gt;Node27 -->
<g id="edge30" class="edge"><title>Node16&#45;&gt;Node27</title>
<path fill="none" stroke="midnightblue" d="M215.959,-444.979C225.243,-400.724 266.116,-215.627 308,-176.5 309.689,-174.923 311.493,-173.473 313.387,-172.14"/>
<polygon fill="midnightblue" stroke="midnightblue" points="315.313,-175.07 322.202,-167.02 311.797,-169.017 315.313,-175.07"/>
</g>
<!-- Node28 -->
<g id="node28" class="node"><title>Node28</title>
<g id="a_node28"><a xlink:href="classscram_1_1mef_1_1Formula.xhtml#af3c5953f817cc202b5009cc4557c7d72" target="_top" xlink:title="scram::mef::Formula\l::formula_args">
<polygon fill="white" stroke="black" points="323,-98.5 323,-128.5 439,-128.5 439,-98.5 323,-98.5"/>
<text text-anchor="start" x="331" y="-116.5" font-family="Helvetica,sans-Serif" font-size="10.00">scram::mef::Formula</text>
<text text-anchor="middle" x="381" y="-105.5" font-family="Helvetica,sans-Serif" font-size="10.00">::formula_args</text>
</a>
</g>
</g>
<!-- Node16&#45;&gt;Node28 -->
<g id="edge31" class="edge"><title>Node16&#45;&gt;Node28</title>
<path fill="none" stroke="midnightblue" d="M216.318,-444.832C228.507,-394.314 285.456,-162.083 308,-138.5 310.014,-136.393 312.215,-134.463 314.556,-132.696"/>
<polygon fill="midnightblue" stroke="midnightblue" points="316.454,-135.637 322.982,-127.292 312.675,-129.744 316.454,-135.637"/>
</g>
<!-- Node29 -->
<g id="node29" class="node"><title>Node29</title>
<g id="a_node29"><a xlink:href="classscram_1_1mef_1_1BasicEvent.xhtml#ab6b4e5fd2ce8a81ae887902be30c2b29" target="_top" xlink:title="scram::mef::BasicEvent\l::HasExpression">
<polygon fill="white" stroke="black" points="316,-49.5 316,-79.5 446,-79.5 446,-49.5 316,-49.5"/>
<text text-anchor="start" x="324" y="-67.5" font-family="Helvetica,sans-Serif" font-size="10.00">scram::mef::BasicEvent</text>
<text text-anchor="middle" x="381" y="-56.5" font-family="Helvetica,sans-Serif" font-size="10.00">::HasExpression</text>
</a>
</g>
</g>
<!-- Node16&#45;&gt;Node29 -->
<g id="edge33" class="edge"><title>Node16&#45;&gt;Node29</title>
<path fill="none" stroke="midnightblue" d="M216.562,-444.679C224.713,-413.415 250.762,-313.387 272,-230.5 288.16,-167.43 263.684,-136.198 308,-88.5 308.908,-87.5227 309.857,-86.5851 310.842,-85.6856"/>
<polygon fill="midnightblue" stroke="midnightblue" points="313.151,-88.3281 319.024,-79.5105 308.934,-82.7407 313.151,-88.3281"/>
</g>
<!-- Node30 -->
<g id="node30" class="node"><title>Node30</title>
<g id="a_node30"><a xlink:href="classscram_1_1mef_1_1Element.xhtml#a87e90b86d7599c2f60d7a7b99ab52d20" target="_top" xlink:title="scram::mef::Element\l::label">
<polygon fill="white" stroke="black" points="322.5,-762.5 322.5,-792.5 439.5,-792.5 439.5,-762.5 322.5,-762.5"/>
<text text-anchor="start" x="330.5" y="-780.5" font-family="Helvetica,sans-Serif" font-size="10.00">scram::mef::Element</text>
<text text-anchor="middle" x="381" y="-769.5" font-family="Helvetica,sans-Serif" font-size="10.00">::label</text>
</a>
</g>
</g>
<!-- Node16&#45;&gt;Node30 -->
<g id="edge34" class="edge"><title>Node16&#45;&gt;Node30</title>
<path fill="none" stroke="midnightblue" d="M220.304,-464.063C232.249,-482.626 258.214,-525.179 272,-564.5 300.147,-644.782 252.359,-688.144 308,-752.5 309.742,-754.514 311.654,-756.367 313.701,-758.07"/>
<polygon fill="midnightblue" stroke="midnightblue" points="311.959,-761.12 322.175,-763.927 315.939,-755.362 311.959,-761.12"/>
</g>
<!-- Node31 -->
<g id="node31" class="node"><title>Node31</title>
<g id="a_node31"><a xlink:href="classscram_1_1mef_1_1Role.xhtml#aa1843c29411c29b27d79414d34525bbc" target="_top" xlink:title="scram::mef::Role::role">
<polygon fill="white" stroke="black" points="320.5,-724 320.5,-743 441.5,-743 441.5,-724 320.5,-724"/>
<text text-anchor="middle" x="381" y="-731" font-family="Helvetica,sans-Serif" font-size="10.00">scram::mef::Role::role</text>
</a>
</g>
</g>
<!-- Node16&#45;&gt;Node31 -->
<g id="edge36" class="edge"><title>Node16&#45;&gt;Node31</title>
<path fill="none" stroke="midnightblue" d="M220.134,-464.125C231.788,-482.794 257.277,-525.521 272,-564.5 296.073,-628.233 260.649,-664.517 308,-713.5 309.815,-715.377 311.789,-717.083 313.887,-718.632"/>
<polygon fill="midnightblue" stroke="midnightblue" points="312.147,-721.671 322.512,-723.867 315.779,-715.687 312.147,-721.671"/>
</g>
<!-- Node16&#45;&gt;Node32 -->
<g id="edge38" class="edge"><title>Node16&#45;&gt;Node32</title>
<path fill="none" stroke="midnightblue" d="M216.78,-444.732C225.58,-413.623 253.341,-314.006 272,-230.5 290.837,-146.195 251.191,-104.576 308,-39.5 308.758,-38.6315 309.549,-37.7943 310.368,-36.9873"/>
<polygon fill="midnightblue" stroke="midnightblue" points="312.836,-39.4948 318.45,-30.5095 308.458,-34.0328 312.836,-39.4948"/>
</g>
<!-- Node33 -->
<g id="node33" class="node"><title>Node33</title>
<g id="a_node33"><a xlink:href="classscram_1_1mef_1_1HouseEvent.xhtml#a15ab4daf36b62127703cf610bdc80183" target="_top" xlink:title="Sets the state for House event. ">
<polygon fill="white" stroke="black" points="313.5,-674.5 313.5,-704.5 448.5,-704.5 448.5,-674.5 313.5,-674.5"/>
<text text-anchor="start" x="321.5" y="-692.5" font-family="Helvetica,sans-Serif" font-size="10.00">scram::mef::HouseEvent</text>
<text text-anchor="middle" x="381" y="-681.5" font-family="Helvetica,sans-Serif" font-size="10.00">::state</text>
</a>
</g>
</g>
<!-- Node16&#45;&gt;Node33 -->
<g id="edge39" class="edge"><title>Node16&#45;&gt;Node33</title>
<path fill="none" stroke="midnightblue" d="M219.754,-464.28C230.758,-483.215 255.185,-526.376 272,-564.5 291.062,-607.72 274.409,-631.289 308,-664.5 309.605,-666.087 311.317,-667.574 313.113,-668.967"/>
<polygon fill="midnightblue" stroke="midnightblue" points="311.191,-671.892 321.463,-674.489 315.053,-666.054 311.191,-671.892"/>
</g>
<!-- Node34 -->
<g id="node34" class="node"><title>Node34</title>
<g id="a_node34"><a xlink:href="classscram_1_1mef_1_1Formula.xhtml#aaf6992ab41ab8ae013211fd861e726db" target="_top" xlink:title="scram::mef::Formula\l::type">
<polygon fill="white" stroke="black" points="323,-625.5 323,-655.5 439,-655.5 439,-625.5 323,-625.5"/>
<text text-anchor="start" x="331" y="-643.5" font-family="Helvetica,sans-Serif" font-size="10.00">scram::mef::Formula</text>
<text text-anchor="middle" x="381" y="-632.5" font-family="Helvetica,sans-Serif" font-size="10.00">::type</text>
</a>
</g>
</g>
<!-- Node16&#45;&gt;Node34 -->
<g id="edge40" class="edge"><title>Node16&#45;&gt;Node34</title>
<path fill="none" stroke="midnightblue" d="M219.179,-464.251C236.862,-497.412 294.501,-604.398 308,-615.5 310.057,-617.192 312.235,-618.772 314.503,-620.247"/>
<polygon fill="midnightblue" stroke="midnightblue" points="313.206,-623.536 323.629,-625.437 316.666,-617.451 313.206,-623.536"/>
</g>
<!-- Node35 -->
<g id="node35" class="node"><title>Node35</title>
<g id="a_node35"><a xlink:href="classscram_1_1mef_1_1Formula.xhtml#a73f9de40978aad0665e3a6d95e85e7a2" target="_top" xlink:title="scram::mef::Formula\l::vote_number">
<polygon fill="white" stroke="black" points="323,-576.5 323,-606.5 439,-606.5 439,-576.5 323,-576.5"/>
<text text-anchor="start" x="331" y="-594.5" font-family="Helvetica,sans-Serif" font-size="10.00">scram::mef::Formula</text>
<text text-anchor="middle" x="381" y="-583.5" font-family="Helvetica,sans-Serif" font-size="10.00">::vote_number</text>
</a>
</g>
</g>
<!-- Node16&#45;&gt;Node35 -->
<g id="edge41" class="edge"><title>Node16&#45;&gt;Node35</title>
<path fill="none" stroke="midnightblue" d="M220.163,-464.093C233.744,-484.559 268.222,-532.958 308,-561.5 313.47,-565.425 319.532,-568.957 325.748,-572.101"/>
<polygon fill="midnightblue" stroke="midnightblue" points="324.379,-575.325 334.916,-576.429 327.367,-568.995 324.379,-575.325"/>
</g>
<!-- Node21 -->
<g id="node21" class="node"><title>Node21</title>
<g id="a_node21"><a xlink:href="classscram_1_1mef_1_1Component.xhtml#a29871b1caf2fb961509b42872e6b5213" target="_top" xlink:title="Adds MEF constructs into this component container. ">
<polygon fill="white" stroke="black" points="490,-347 490,-366 648,-366 648,-347 490,-347"/>
<text text-anchor="middle" x="569" y="-354" font-family="Helvetica,sans-Serif" font-size="10.00">scram::mef::Component::Add</text>
</a>
</g>
</g>
<!-- Node20&#45;&gt;Node21 -->
<g id="edge22" class="edge"><title>Node20&#45;&gt;Node21</title>
<path fill="none" stroke="midnightblue" d="M448.1,-356.5C458.308,-356.5 468.989,-356.5 479.59,-356.5"/>
<polygon fill="midnightblue" stroke="midnightblue" points="479.711,-360 489.711,-356.5 479.711,-353 479.711,-360"/>
</g>
<!-- Node22 -->
<g id="node22" class="node"><title>Node22</title>
<g id="a_node22"><a xlink:href="classscram_1_1mef_1_1Component.xhtml#ab9230b43d6903a2e26bf55f7584a1f56" target="_top" xlink:title="Removes Event from the component container. ">
<polygon fill="white" stroke="black" points="502,-434.5 502,-464.5 636,-464.5 636,-434.5 502,-434.5"/>
<text text-anchor="start" x="510" y="-452.5" font-family="Helvetica,sans-Serif" font-size="10.00">scram::mef::Component</text>
<text text-anchor="middle" x="569" y="-441.5" font-family="Helvetica,sans-Serif" font-size="10.00">::Remove</text>
</a>
</g>
</g>
<!-- Node20&#45;&gt;Node22 -->
<g id="edge23" class="edge"><title>Node20&#45;&gt;Node22</title>
<path fill="none" stroke="midnightblue" d="M437.786,-371.511C443.487,-374.082 449.009,-377.061 454,-380.5 474.805,-394.838 469.112,-410.283 490,-424.5 492.909,-426.48 495.985,-428.311 499.169,-430.004"/>
<polygon fill="midnightblue" stroke="midnightblue" points="497.843,-433.249 508.373,-434.413 500.867,-426.936 497.843,-433.249"/>
</g>
<!-- Node23 -->
<g id="node23" class="node"><title>Node23</title>
<g id="a_node23"><a xlink:href="classscram_1_1mef_1_1Component.xhtml#a63441da08667fe6826f3ae0c0a5a94fe" target="_top" xlink:title="Recursively traverses components to gather gates relevant to the whole component. ...">
<polygon fill="white" stroke="black" points="502,-385.5 502,-415.5 636,-415.5 636,-385.5 502,-385.5"/>
<text text-anchor="start" x="510" y="-403.5" font-family="Helvetica,sans-Serif" font-size="10.00">scram::mef::Component</text>
<text text-anchor="middle" x="569" y="-392.5" font-family="Helvetica,sans-Serif" font-size="10.00">::GatherGates</text>
</a>
</g>
</g>
<!-- Node20&#45;&gt;Node23 -->
<g id="edge24" class="edge"><title>Node20&#45;&gt;Node23</title>
<path fill="none" stroke="midnightblue" d="M445.49,-371.519C461.265,-375.251 478.303,-379.281 494.513,-383.116"/>
<polygon fill="midnightblue" stroke="midnightblue" points="493.943,-386.578 504.48,-385.474 495.554,-379.766 493.943,-386.578"/>
</g>
<!-- Node20&#45;&gt;Node24 -->
<g id="edge26" class="edge"><title>Node20&#45;&gt;Node24</title>
<path fill="none" stroke="midnightblue" d="M445.49,-341.481C461.265,-337.749 478.303,-333.719 494.513,-329.884"/>
<polygon fill="midnightblue" stroke="midnightblue" points="495.554,-333.234 504.48,-327.526 493.943,-326.422 495.554,-333.234"/>
</g>
<!-- Node23&#45;&gt;Node10 -->
<g id="edge25" class="edge"><title>Node23&#45;&gt;Node10</title>
<path fill="none" stroke="midnightblue" d="M636.109,-415.514C640.429,-418.057 644.459,-421.028 648,-424.5 721.681,-496.754 737.311,-628.059 740.618,-683.125"/>
<polygon fill="midnightblue" stroke="midnightblue" points="737.136,-683.568 741.14,-693.376 744.126,-683.211 737.136,-683.568"/>
</g>
<!-- Node26&#45;&gt;Node26 -->
<g id="edge29" class="edge"><title>Node26&#45;&gt;Node26</title>
<path fill="none" stroke="midnightblue" d="M351.723,-216.659C344.663,-226.057 354.422,-235 381,-235 397.196,-235 407.147,-231.679 410.852,-226.958"/>
<polygon fill="midnightblue" stroke="midnightblue" points="414.329,-226.449 410.277,-216.659 407.34,-226.838 414.329,-226.449"/>
</g>
</g>
</svg>
        <g id="navigator" transform="translate(0 0)" fill="#404254">
                <rect fill="#f2f5e9" fill-opacity="0.5" stroke="#606060" stroke-width=".5" x="0" y="0" width="60" height="60"/>
                <use id="zoomplus" xlink:href="#zoomPlus" x="17" y="9" onmousedown="handleZoom(evt,'in')"/>
                <use id="zoomminus" xlink:href="#zoomMin" x="42" y="9" onmousedown="handleZoom(evt,'out')"/>
                <use id="reset" xlink:href="#resetDef" x="30" y="36" onmousedown="handleReset()"/>
                <g id="arrowUp" xlink:href="#dirArrow" transform="translate(30 24)" onmousedown="handlePan(0,-1)">
                  <use xlink:href="#rim" fill="#404040">
                        <set attributeName="fill" to="#808080" begin="arrowUp.mouseover" end="arrowUp.mouseout"/>
                  </use>
                  <path fill="none" stroke="white" stroke-width="1.5" d="M0,-3.0v7 M-2.5,-0.5L0,-3.0L2.5,-0.5"/>
                </g>
                <g id="arrowRight" xlink:href="#dirArrow" transform="rotate(90) translate(36 -43)" onmousedown="handlePan(1,0)">
                  <use xlink:href="#rim" fill="#404040">
                        <set attributeName="fill" to="#808080" begin="arrowRight.mouseover" end="arrowRight.mouseout"/>
                  </use>
                  <path fill="none" stroke="white" stroke-width="1.5" d="M0,-3.0v7 M-2.5,-0.5L0,-3.0L2.5,-0.5"/>
                </g>
                <g id="arrowDown" xlink:href="#dirArrow" transform="rotate(180) translate(-30 -48)" onmousedown="handlePan(0,1)">
                  <use xlink:href="#rim" fill="#404040">
                        <set attributeName="fill" to="#808080" begin="arrowDown.mouseover" end="arrowDown.mouseout"/>
                  </use>
                  <path fill="none" stroke="white" stroke-width="1.5" d="M0,-3.0v7 M-2.5,-0.5L0,-3.0L2.5,-0.5"/>
                </g>
                <g id="arrowLeft" xlink:href="#dirArrow" transform="rotate(270) translate(-36 17)" onmousedown="handlePan(-1,0)">
                  <use xlink:href="#rim" fill="#404040">
                        <set attributeName="fill" to="#808080" begin="arrowLeft.mouseover" end="arrowLeft.mouseout"/>
                  </use>
                  <path fill="none" stroke="white" stroke-width="1.5" d="M0,-3.0v7 M-2.5,-0.5L0,-3.0L2.5,-0.5"/>
                </g>
        </g>
        <svg viewBox="0 0 15 15" width="100%" height="30px" preserveAspectRatio="xMaxYMin meet">
         <g id="arrow_out" transform="scale(0.3 0.3)">
          <a xlink:href="serialization_8cc_a12094f882cf779ecac838576c86954ee_cgraph_org.svg" target="_base">
           <rect id="button" ry="5" rx="5" y="6" x="6" height="38" width="38"
                fill="#f2f5e9" fill-opacity="0.5" stroke="#606060" stroke-width="1.0"/>
           <path id="arrow"
             d="M 11.500037,31.436501 C 11.940474,20.09759 22.043105,11.32322 32.158766,21.979434 L 37.068811,17.246167 C 37.068811,17.246167 37.088388,32 37.088388,32 L 22.160133,31.978069 C 22.160133,31.978069 26.997745,27.140456 26.997745,27.140456 C 18.528582,18.264221 13.291696,25.230495 11.500037,31.436501 z"
             style="fill:#404040;"/>
          </a>
         </g>
        </svg>
</svg>
