<?xml version="1.0" encoding="UTF-8" standalone="no"?>
<!DOCTYPE svg PUBLIC "-//W3C//DTD SVG 1.1//EN"
 "http://www.w3.org/Graphics/SVG/1.1/DTD/svg11.dtd">
<!-- Generated by graphviz version 2.38.0 (20140413.2041)
 -->
<!-- Title: serialization.h Pages: 1 -->
<svg width="1840pt" height="442pt"
 viewBox="0.00 0.00 1839.50 442.00" xmlns="http://www.w3.org/2000/svg" xmlns:xlink="http://www.w3.org/1999/xlink">
<g id="graph0" class="graph" transform="scale(1 1) rotate(0) translate(4 438)">
<title>serialization.h</title>
<polygon fill="white" stroke="none" points="-4,4 -4,-438 1835.5,-438 1835.5,4 -4,4"/>
<!-- Node1 -->
<g id="node1" class="node"><title>Node1</title>
<polygon fill="#bfbfbf" stroke="black" points="905,-414.5 905,-433.5 988,-433.5 988,-414.5 905,-414.5"/>
<text text-anchor="middle" x="946.5" y="-421.5" font-family="Helvetica,sans-Serif" font-size="10.00">serialization.h</text>
</g>
<!-- Node2 -->
<g id="node2" class="node"><title>Node2</title>
<polygon fill="white" stroke="#bfbfbf" points="854.5,-358.5 854.5,-377.5 900.5,-377.5 900.5,-358.5 854.5,-358.5"/>
<text text-anchor="middle" x="877.5" y="-365.5" font-family="Helvetica,sans-Serif" font-size="10.00">iosfwd</text>
</g>
<!-- Node1&#45;&gt;Node2 -->
<g id="edge1" class="edge"><title>Node1&#45;&gt;Node2</title>
<path fill="none" stroke="midnightblue" d="M935.414,-414.324C925.014,-406.185 909.239,-393.839 896.778,-384.087"/>
<polygon fill="midnightblue" stroke="midnightblue" points="898.82,-381.241 888.788,-377.834 894.506,-386.753 898.82,-381.241"/>
</g>
<!-- Node3 -->
<g id="node3" class="node"><title>Node3</title>
<polygon fill="white" stroke="#bfbfbf" points="1482.5,-6 1482.5,-25 1526.5,-25 1526.5,-6 1482.5,-6"/>
<text text-anchor="middle" x="1504.5" y="-13" font-family="Helvetica,sans-Serif" font-size="10.00">string</text>
</g>
<!-- Node1&#45;&gt;Node3 -->
<g id="edge2" class="edge"><title>Node1&#45;&gt;Node3</title>
<path fill="none" stroke="midnightblue" d="M988.294,-422.26C1163.72,-418.613 1831.5,-399.075 1831.5,-313 1831.5,-313 1831.5,-313 1831.5,-143 1831.5,-80.2389 1619.33,-36.5079 1536.8,-21.8716"/>
<polygon fill="midnightblue" stroke="midnightblue" points="1537.17,-18.3845 1526.72,-20.1155 1535.97,-25.2805 1537.17,-18.3845"/>
</g>
<!-- Node4 -->
<g id="node4" class="node"><title>Node4</title>
<g id="a_node4"><a xlink:href="model_8h.xhtml" target="_top" xlink:title="Representation for a model container for risk analysis. ">
<polygon fill="white" stroke="black" points="918.5,-358.5 918.5,-377.5 974.5,-377.5 974.5,-358.5 918.5,-358.5"/>
<text text-anchor="middle" x="946.5" y="-365.5" font-family="Helvetica,sans-Serif" font-size="10.00">model.h</text>
</a>
</g>
</g>
<!-- Node1&#45;&gt;Node4 -->
<g id="edge3" class="edge"><title>Node1&#45;&gt;Node4</title>
<path fill="none" stroke="midnightblue" d="M946.5,-414.083C946.5,-407.006 946.5,-396.861 946.5,-387.986"/>
<polygon fill="midnightblue" stroke="midnightblue" points="950,-387.751 946.5,-377.751 943,-387.751 950,-387.751"/>
</g>
<!-- Node4&#45;&gt;Node3 -->
<g id="edge5" class="edge"><title>Node4&#45;&gt;Node3</title>
<path fill="none" stroke="midnightblue" d="M974.56,-365.15C1097.26,-356.692 1580.5,-319.42 1580.5,-257 1580.5,-257 1580.5,-257 1580.5,-143 1580.5,-97.6215 1544.12,-54.482 1521.7,-32.205"/>
<polygon fill="midnightblue" stroke="midnightblue" points="1524.07,-29.6293 1514.44,-25.2259 1519.22,-34.6776 1524.07,-29.6293"/>
</g>
<!-- Node5 -->
<g id="node5" class="node"><title>Node5</title>
<polygon fill="white" stroke="#bfbfbf" points="755,-134.5 755,-153.5 812,-153.5 812,-134.5 755,-134.5"/>
<text text-anchor="middle" x="783.5" y="-141.5" font-family="Helvetica,sans-Serif" font-size="10.00">memory</text>
</g>
<!-- Node4&#45;&gt;Node5 -->
<g id="edge4" class="edge"><title>Node4&#45;&gt;Node5</title>
<path fill="none" stroke="midnightblue" d="M941.056,-358.232C924.597,-331.922 873.476,-251.666 824.5,-190 816.53,-179.965 806.912,-169.341 798.996,-160.937"/>
<polygon fill="midnightblue" stroke="midnightblue" points="801.474,-158.465 792.036,-153.652 796.413,-163.3 801.474,-158.465"/>
</g>
<!-- Node6 -->
<g id="node6" class="node"><title>Node6</title>
<polygon fill="white" stroke="#bfbfbf" points="564,-6 564,-25 611,-25 611,-6 564,-6"/>
<text text-anchor="middle" x="587.5" y="-13" font-family="Helvetica,sans-Serif" font-size="10.00">vector</text>
</g>
<!-- Node4&#45;&gt;Node6 -->
<g id="edge6" class="edge"><title>Node4&#45;&gt;Node6</title>
<path fill="none" stroke="midnightblue" d="M918.327,-359.554C915.362,-358.948 912.379,-358.412 909.5,-358 822.627,-345.571 199.752,-359.691 120.5,-322 85.535,-305.371 62.5,-295.718 62.5,-257 62.5,-257 62.5,-257 62.5,-143 62.5,-38.0797 462.198,-55.9755 554.5,-31 556.794,-30.3794 559.133,-29.6239 561.453,-28.7872"/>
<polygon fill="midnightblue" stroke="midnightblue" points="562.774,-32.0288 570.726,-25.0281 560.144,-25.5416 562.774,-32.0288"/>
</g>
<!-- Node7 -->
<g id="node7" class="node"><title>Node7</title>
<polygon fill="white" stroke="#bfbfbf" points="814.5,-73 814.5,-92 942.5,-92 942.5,-73 814.5,-73"/>
<text text-anchor="middle" x="878.5" y="-80" font-family="Helvetica,sans-Serif" font-size="10.00">boost/noncopyable.hpp</text>
</g>
<!-- Node4&#45;&gt;Node7 -->
<g id="edge7" class="edge"><title>Node4&#45;&gt;Node7</title>
<path fill="none" stroke="midnightblue" d="M944.39,-358.205C934.911,-318.683 896.144,-157.06 882.934,-101.984"/>
<polygon fill="midnightblue" stroke="midnightblue" points="886.321,-101.101 880.585,-92.1929 879.514,-102.733 886.321,-101.101"/>
</g>
<!-- Node8 -->
<g id="node8" class="node"><title>Node8</title>
<g id="a_node8"><a xlink:href="ccf__group_8h.xhtml" target="_top" xlink:title="Functional containers for basic events grouped by common cause failure. ">
<polygon fill="white" stroke="black" points="701.5,-246.5 701.5,-265.5 773.5,-265.5 773.5,-246.5 701.5,-246.5"/>
<text text-anchor="middle" x="737.5" y="-253.5" font-family="Helvetica,sans-Serif" font-size="10.00">ccf_group.h</text>
</a>
</g>
</g>
<!-- Node4&#45;&gt;Node8 -->
<g id="edge8" class="edge"><title>Node4&#45;&gt;Node8</title>
<path fill="none" stroke="midnightblue" d="M928.814,-358.393C910.595,-349.471 881.424,-335.032 856.5,-322 823.35,-304.666 785.504,-283.807 761.563,-270.478"/>
<polygon fill="midnightblue" stroke="midnightblue" points="763.247,-267.409 752.808,-265.593 759.836,-273.522 763.247,-267.409"/>
</g>
<!-- Node12 -->
<g id="node12" class="node"><title>Node12</title>
<g id="a_node12"><a xlink:href="element_8h.xhtml" target="_top" xlink:title="Helper classes, structs, and properties common to all other classes. ">
<polygon fill="white" stroke="black" points="251,-73 251,-92 316,-92 316,-73 251,-73"/>
<text text-anchor="middle" x="283.5" y="-80" font-family="Helvetica,sans-Serif" font-size="10.00">element.h</text>
</a>
</g>
</g>
<!-- Node4&#45;&gt;Node12 -->
<g id="edge44" class="edge"><title>Node4&#45;&gt;Node12</title>
<path fill="none" stroke="midnightblue" d="M918.323,-359.583C915.359,-358.972 912.377,-358.426 909.5,-358 624.169,-315.736 543.017,-384.836 261.5,-322 186.186,-305.189 100.5,-334.167 100.5,-257 100.5,-257 100.5,-257 100.5,-199 100.5,-132.999 186.68,-103.191 240.759,-90.9835"/>
<polygon fill="midnightblue" stroke="midnightblue" points="241.737,-94.3534 250.783,-88.8376 240.272,-87.5085 241.737,-94.3534"/>
</g>
<!-- Node17 -->
<g id="node17" class="node"><title>Node17</title>
<g id="a_node17"><a xlink:href="event_8h.xhtml" target="_top" xlink:title="Contains event classes for fault trees. ">
<polygon fill="white" stroke="black" points="1013,-190.5 1013,-209.5 1066,-209.5 1066,-190.5 1013,-190.5"/>
<text text-anchor="middle" x="1039.5" y="-197.5" font-family="Helvetica,sans-Serif" font-size="10.00">event.h</text>
</a>
</g>
</g>
<!-- Node4&#45;&gt;Node17 -->
<g id="edge45" class="edge"><title>Node4&#45;&gt;Node17</title>
<path fill="none" stroke="midnightblue" d="M951.5,-358.075C966.266,-331.719 1009.88,-253.878 1029.61,-218.661"/>
<polygon fill="midnightblue" stroke="midnightblue" points="1032.87,-220.003 1034.7,-209.568 1026.76,-216.582 1032.87,-220.003"/>
</g>
<!-- Node19 -->
<g id="node19" class="node"><title>Node19</title>
<g id="a_node19"><a xlink:href="expression_8h.xhtml" target="_top" xlink:title="Provides the base class for all expressions and units for expression values. ">
<polygon fill="white" stroke="black" points="1292,-134.5 1292,-153.5 1369,-153.5 1369,-134.5 1292,-134.5"/>
<text text-anchor="middle" x="1330.5" y="-141.5" font-family="Helvetica,sans-Serif" font-size="10.00">expression.h</text>
</a>
</g>
</g>
<!-- Node4&#45;&gt;Node19 -->
<g id="edge57" class="edge"><title>Node4&#45;&gt;Node19</title>
<path fill="none" stroke="midnightblue" d="M974.63,-364.577C1046.02,-356.795 1234.78,-325.7 1322.5,-210 1332.47,-196.846 1333.71,-177.705 1332.91,-163.599"/>
<polygon fill="midnightblue" stroke="midnightblue" points="1336.38,-163.202 1331.96,-153.577 1329.42,-163.862 1336.38,-163.202"/>
</g>
<!-- Node25 -->
<g id="node25" class="node"><title>Node25</title>
<g id="a_node25"><a xlink:href="event__tree_8h.xhtml" target="_top" xlink:title="Event Tree facilities. ">
<polygon fill="white" stroke="black" points="1081,-246.5 1081,-265.5 1158,-265.5 1158,-246.5 1081,-246.5"/>
<text text-anchor="middle" x="1119.5" y="-253.5" font-family="Helvetica,sans-Serif" font-size="10.00">event_tree.h</text>
</a>
</g>
</g>
<!-- Node4&#45;&gt;Node25 -->
<g id="edge46" class="edge"><title>Node4&#45;&gt;Node25</title>
<path fill="none" stroke="midnightblue" d="M962.706,-358.486C979.061,-349.755 1004.91,-335.569 1026.5,-322 1052.44,-305.693 1081.19,-285.206 1099.76,-271.638"/>
<polygon fill="midnightblue" stroke="midnightblue" points="1102.02,-274.324 1108,-265.582 1097.87,-268.683 1102.02,-274.324"/>
</g>
<!-- Node27 -->
<g id="node27" class="node"><title>Node27</title>
<g id="a_node27"><a xlink:href="test__event_8h.xhtml" target="_top" xlink:title="Event tree analysis expressions to test functional and initiating events. ">
<polygon fill="white" stroke="black" points="1614,-190.5 1614,-209.5 1745,-209.5 1745,-190.5 1614,-190.5"/>
<text text-anchor="middle" x="1679.5" y="-197.5" font-family="Helvetica,sans-Serif" font-size="10.00">expression/test_event.h</text>
</a>
</g>
</g>
<!-- Node4&#45;&gt;Node27 -->
<g id="edge58" class="edge"><title>Node4&#45;&gt;Node27</title>
<path fill="none" stroke="midnightblue" d="M974.87,-366.458C1092.72,-364.013 1540,-352.765 1594.5,-322 1635.35,-298.939 1661.2,-247.145 1672.64,-219.39"/>
<polygon fill="midnightblue" stroke="midnightblue" points="1676.03,-220.318 1676.44,-209.731 1669.52,-217.757 1676.03,-220.318"/>
</g>
<!-- Node29 -->
<g id="node29" class="node"><title>Node29</title>
<g id="a_node29"><a xlink:href="fault__tree_8h.xhtml" target="_top" xlink:title="Fault Tree and Component containers. ">
<polygon fill="white" stroke="black" points="378,-302.5 378,-321.5 449,-321.5 449,-302.5 378,-302.5"/>
<text text-anchor="middle" x="413.5" y="-309.5" font-family="Helvetica,sans-Serif" font-size="10.00">fault_tree.h</text>
</a>
</g>
</g>
<!-- Node4&#45;&gt;Node29 -->
<g id="edge62" class="edge"><title>Node4&#45;&gt;Node29</title>
<path fill="none" stroke="midnightblue" d="M918.307,-359.686C915.346,-359.055 912.37,-358.476 909.5,-358 745.16,-330.712 547.243,-319.01 459.375,-314.889"/>
<polygon fill="midnightblue" stroke="midnightblue" points="459.365,-311.385 449.215,-314.424 459.044,-318.378 459.365,-311.385"/>
</g>
<!-- Node31 -->
<g id="node31" class="node"><title>Node31</title>
<g id="a_node31"><a xlink:href="parameter_8h.xhtml" target="_top" xlink:title="Parameter expressions that act like a shareable variable. ">
<polygon fill="white" stroke="black" points="176.5,-190.5 176.5,-209.5 252.5,-209.5 252.5,-190.5 176.5,-190.5"/>
<text text-anchor="middle" x="214.5" y="-197.5" font-family="Helvetica,sans-Serif" font-size="10.00">parameter.h</text>
</a>
</g>
</g>
<!-- Node4&#45;&gt;Node31 -->
<g id="edge77" class="edge"><title>Node4&#45;&gt;Node31</title>
<path fill="none" stroke="midnightblue" d="M918.318,-359.615C915.355,-358.998 912.375,-358.442 909.5,-358 671.321,-321.387 603.917,-373.462 368.5,-322 300.199,-307.07 264.202,-321.357 221.5,-266 211.435,-252.952 210.535,-233.797 211.642,-219.659"/>
<polygon fill="midnightblue" stroke="midnightblue" points="215.132,-219.949 212.823,-209.609 208.18,-219.132 215.132,-219.949"/>
</g>
<!-- Node8&#45;&gt;Node3 -->
<g id="edge10" class="edge"><title>Node8&#45;&gt;Node3</title>
<path fill="none" stroke="midnightblue" d="M735.425,-246.344C730.958,-225.848 722.099,-173.138 738.5,-134 754.776,-95.1604 767.2,-84.5078 805.5,-67 866.648,-39.048 1343.31,-21.7171 1472.37,-17.5045"/>
<polygon fill="midnightblue" stroke="midnightblue" points="1472.53,-21.0012 1482.41,-17.1804 1472.3,-14.0048 1472.53,-21.0012"/>
</g>
<!-- Node8&#45;&gt;Node5 -->
<g id="edge9" class="edge"><title>Node8&#45;&gt;Node5</title>
<path fill="none" stroke="midnightblue" d="M762.661,-246.378C778.919,-239.343 798.793,-227.645 808.5,-210 817.105,-194.358 807.467,-175.136 797.767,-161.668"/>
<polygon fill="midnightblue" stroke="midnightblue" points="800.49,-159.468 791.575,-153.743 794.974,-163.778 800.49,-159.468"/>
</g>
<!-- Node8&#45;&gt;Node6 -->
<g id="edge13" class="edge"><title>Node8&#45;&gt;Node6</title>
<path fill="none" stroke="midnightblue" d="M734.568,-246.11C729.547,-232.213 718.018,-205.348 699.5,-190 662.809,-159.589 627.496,-191.818 598.5,-154 571.744,-119.103 577.712,-63.5246 583.225,-34.8883"/>
<polygon fill="midnightblue" stroke="midnightblue" points="586.667,-35.5288 585.319,-25.0201 579.819,-34.0758 586.667,-35.5288"/>
</g>
<!-- Node8&#45;&gt;Node7 -->
<g id="edge14" class="edge"><title>Node8&#45;&gt;Node7</title>
<path fill="none" stroke="midnightblue" d="M701.369,-253.911C639.196,-251.193 516.072,-241.827 489.5,-210 483.803,-203.177 483.883,-196.89 489.5,-190 539.674,-128.454 588.613,-177.378 664.5,-154 686.587,-147.196 690.751,-141.817 712.5,-134 754.375,-118.949 803.195,-104.453 837.003,-94.883"/>
<polygon fill="midnightblue" stroke="midnightblue" points="838.309,-98.1516 846.989,-92.076 836.415,-91.4128 838.309,-98.1516"/>
</g>
<!-- Node9 -->
<g id="node9" class="node"><title>Node9</title>
<polygon fill="white" stroke="#bfbfbf" points="498.5,-190.5 498.5,-209.5 566.5,-209.5 566.5,-190.5 498.5,-190.5"/>
<text text-anchor="middle" x="532.5" y="-197.5" font-family="Helvetica,sans-Serif" font-size="10.00">type_traits</text>
</g>
<!-- Node8&#45;&gt;Node9 -->
<g id="edge11" class="edge"><title>Node8&#45;&gt;Node9</title>
<path fill="none" stroke="midnightblue" d="M705.017,-246.444C669.78,-237.162 613.396,-222.309 574.741,-212.127"/>
<polygon fill="midnightblue" stroke="midnightblue" points="575.393,-208.679 564.831,-209.516 573.609,-215.448 575.393,-208.679"/>
</g>
<!-- Node10 -->
<g id="node10" class="node"><title>Node10</title>
<polygon fill="white" stroke="#bfbfbf" points="998.5,-73 998.5,-92 1040.5,-92 1040.5,-73 998.5,-73"/>
<text text-anchor="middle" x="1019.5" y="-80" font-family="Helvetica,sans-Serif" font-size="10.00">utility</text>
</g>
<!-- Node8&#45;&gt;Node10 -->
<g id="edge12" class="edge"><title>Node8&#45;&gt;Node10</title>
<path fill="none" stroke="midnightblue" d="M746.52,-246.34C754.572,-237.932 765.798,-224.363 770.5,-210 773.266,-201.552 773.156,-198.483 770.5,-190 764.678,-171.411 751.322,-172.589 745.5,-154 742.844,-145.517 739.781,-140.805 745.5,-134 775.398,-98.4235 905.878,-106.847 951.5,-98 963.567,-95.6599 976.793,-92.8873 988.347,-90.3965"/>
<polygon fill="midnightblue" stroke="midnightblue" points="989.379,-93.754 998.406,-88.2087 987.891,-86.9139 989.379,-93.754"/>
</g>
<!-- Node11 -->
<g id="node11" class="node"><title>Node11</title>
<polygon fill="white" stroke="#bfbfbf" points="584.5,-190.5 584.5,-209.5 690.5,-209.5 690.5,-190.5 584.5,-190.5"/>
<text text-anchor="middle" x="637.5" y="-197.5" font-family="Helvetica,sans-Serif" font-size="10.00">boost/optional.hpp</text>
</g>
<!-- Node8&#45;&gt;Node11 -->
<g id="edge15" class="edge"><title>Node8&#45;&gt;Node11</title>
<path fill="none" stroke="midnightblue" d="M721.433,-246.324C705.542,-237.743 680.993,-224.486 662.542,-214.522"/>
<polygon fill="midnightblue" stroke="midnightblue" points="663.989,-211.326 653.527,-209.655 660.663,-217.486 663.989,-211.326"/>
</g>
<!-- Node8&#45;&gt;Node12 -->
<g id="edge16" class="edge"><title>Node8&#45;&gt;Node12</title>
<path fill="none" stroke="midnightblue" d="M701.104,-253.098C650.347,-249.455 556.141,-239.059 481.5,-210 409.269,-181.879 335.178,-125.809 301.784,-98.7738"/>
<polygon fill="midnightblue" stroke="midnightblue" points="303.79,-95.8929 293.837,-92.2624 299.354,-101.308 303.79,-95.8929"/>
</g>
<!-- Node8&#45;&gt;Node17 -->
<g id="edge23" class="edge"><title>Node8&#45;&gt;Node17</title>
<path fill="none" stroke="midnightblue" d="M773.628,-248.54C831.525,-238.188 944.483,-217.99 1002.76,-207.569"/>
<polygon fill="midnightblue" stroke="midnightblue" points="1003.42,-211.007 1012.65,-205.802 1002.19,-204.117 1003.42,-211.007"/>
</g>
<!-- Node8&#45;&gt;Node19 -->
<g id="edge43" class="edge"><title>Node8&#45;&gt;Node19</title>
<path fill="none" stroke="midnightblue" d="M773.742,-251.584C835.862,-245.415 966.521,-231.069 1075.5,-210 1153.13,-194.991 1242.35,-170.566 1292,-156.318"/>
<polygon fill="midnightblue" stroke="midnightblue" points="1293.05,-159.659 1301.69,-153.524 1291.11,-152.933 1293.05,-159.659"/>
</g>
<!-- Node12&#45;&gt;Node3 -->
<g id="edge18" class="edge"><title>Node12&#45;&gt;Node3</title>
<path fill="none" stroke="midnightblue" d="M307.122,-72.9191C314.511,-70.5867 322.759,-68.3378 330.5,-67 558.929,-27.5258 1306.99,-18.3391 1472.07,-16.774"/>
<polygon fill="midnightblue" stroke="midnightblue" points="1472.12,-20.2738 1482.09,-16.6817 1472.06,-13.274 1472.12,-20.2738"/>
</g>
<!-- Node12&#45;&gt;Node6 -->
<g id="edge19" class="edge"><title>Node12&#45;&gt;Node6</title>
<path fill="none" stroke="midnightblue" d="M309.18,-72.8669C316.053,-70.752 323.515,-68.6304 330.5,-67 428.694,-44.0812 457.782,-59.512 554.5,-31 556.646,-30.3674 558.836,-29.6287 561.016,-28.8259"/>
<polygon fill="midnightblue" stroke="midnightblue" points="562.402,-32.0407 570.342,-25.026 559.76,-25.5582 562.402,-32.0407"/>
</g>
<!-- Node13 -->
<g id="node13" class="node"><title>Node13</title>
<polygon fill="white" stroke="#bfbfbf" points="0,-6 0,-25 49,-25 49,-6 0,-6"/>
<text text-anchor="middle" x="24.5" y="-13" font-family="Helvetica,sans-Serif" font-size="10.00">cstdint</text>
</g>
<!-- Node12&#45;&gt;Node13 -->
<g id="edge17" class="edge"><title>Node12&#45;&gt;Node13</title>
<path fill="none" stroke="midnightblue" d="M250.961,-76.1229C206.76,-68.385 125.56,-52.6254 58.5,-31 56.5762,-30.3796 54.611,-29.6923 52.6438,-28.9641"/>
<polygon fill="midnightblue" stroke="midnightblue" points="53.5576,-25.5602 42.9727,-25.1006 50.9607,-32.0607 53.5576,-25.5602"/>
</g>
<!-- Node14 -->
<g id="node14" class="node"><title>Node14</title>
<polygon fill="white" stroke="#bfbfbf" points="215.5,-6 215.5,-25 387.5,-25 387.5,-6 215.5,-6"/>
<text text-anchor="middle" x="301.5" y="-13" font-family="Helvetica,sans-Serif" font-size="10.00">boost/multi_index_container.hpp</text>
</g>
<!-- Node12&#45;&gt;Node14 -->
<g id="edge20" class="edge"><title>Node12&#45;&gt;Node14</title>
<path fill="none" stroke="midnightblue" d="M285.928,-72.7338C288.599,-63.0852 292.971,-47.3001 296.403,-34.9063"/>
<polygon fill="midnightblue" stroke="midnightblue" points="299.815,-35.6987 299.111,-25.1273 293.069,-33.8305 299.815,-35.6987"/>
</g>
<!-- Node15 -->
<g id="node15" class="node"><title>Node15</title>
<polygon fill="white" stroke="#bfbfbf" points="405.5,-0.5 405.5,-30.5 545.5,-30.5 545.5,-0.5 405.5,-0.5"/>
<text text-anchor="start" x="413.5" y="-18.5" font-family="Helvetica,sans-Serif" font-size="10.00">boost/multi_index/hashed</text>
<text text-anchor="middle" x="475.5" y="-7.5" font-family="Helvetica,sans-Serif" font-size="10.00">_index.hpp</text>
</g>
<!-- Node12&#45;&gt;Node15 -->
<g id="edge21" class="edge"><title>Node12&#45;&gt;Node15</title>
<path fill="none" stroke="midnightblue" d="M308.996,-72.8685C338.305,-62.9461 387.155,-46.4085 424.383,-33.8051"/>
<polygon fill="midnightblue" stroke="midnightblue" points="425.714,-37.05 434.063,-30.5281 423.469,-30.4196 425.714,-37.05"/>
</g>
<!-- Node16 -->
<g id="node16" class="node"><title>Node16</title>
<polygon fill="white" stroke="#bfbfbf" points="67.5,-0.5 67.5,-30.5 197.5,-30.5 197.5,-0.5 67.5,-0.5"/>
<text text-anchor="start" x="75.5" y="-18.5" font-family="Helvetica,sans-Serif" font-size="10.00">boost/multi_index/mem</text>
<text text-anchor="middle" x="132.5" y="-7.5" font-family="Helvetica,sans-Serif" font-size="10.00">_fun.hpp</text>
</g>
<!-- Node12&#45;&gt;Node16 -->
<g id="edge22" class="edge"><title>Node12&#45;&gt;Node16</title>
<path fill="none" stroke="midnightblue" d="M263.448,-72.8685C240.888,-63.1572 203.608,-47.1092 174.582,-34.6148"/>
<polygon fill="midnightblue" stroke="midnightblue" points="175.657,-31.2672 165.088,-30.5281 172.89,-37.6968 175.657,-31.2672"/>
</g>
<!-- Node17&#45;&gt;Node3 -->
<g id="edge26" class="edge"><title>Node17&#45;&gt;Node3</title>
<path fill="none" stroke="midnightblue" d="M1046.89,-190.443C1068.15,-166.446 1132.4,-98.2243 1201.5,-67 1293.5,-25.4274 1415.12,-17.7238 1472.25,-16.5317"/>
<polygon fill="midnightblue" stroke="midnightblue" points="1472.52,-20.028 1482.46,-16.375 1472.41,-13.0289 1472.52,-20.028"/>
</g>
<!-- Node17&#45;&gt;Node5 -->
<g id="edge25" class="edge"><title>Node17&#45;&gt;Node5</title>
<path fill="none" stroke="midnightblue" d="M1012.59,-193.323C967.095,-183.727 874.831,-164.265 822.334,-153.191"/>
<polygon fill="midnightblue" stroke="midnightblue" points="822.897,-149.733 812.39,-151.094 821.452,-156.583 822.897,-149.733"/>
</g>
<!-- Node17&#45;&gt;Node6 -->
<g id="edge27" class="edge"><title>Node17&#45;&gt;Node6</title>
<path fill="none" stroke="midnightblue" d="M1043.95,-190.236C1055.12,-166.864 1081.26,-102.42 1049.5,-67 1020.95,-35.1614 722.858,-21.4232 621.226,-17.6411"/>
<polygon fill="midnightblue" stroke="midnightblue" points="621.315,-14.1421 611.195,-17.2766 621.061,-21.1375 621.315,-14.1421"/>
</g>
<!-- Node17&#45;&gt;Node7 -->
<g id="edge28" class="edge"><title>Node17&#45;&gt;Node7</title>
<path fill="none" stroke="midnightblue" d="M1027.4,-190.319C1000.01,-170.67 933.015,-122.609 899.014,-98.2169"/>
<polygon fill="midnightblue" stroke="midnightblue" points="900.907,-95.2672 890.742,-92.282 896.827,-100.955 900.907,-95.2672"/>
</g>
<!-- Node17&#45;&gt;Node12 -->
<g id="edge30" class="edge"><title>Node17&#45;&gt;Node12</title>
<path fill="none" stroke="midnightblue" d="M1020.25,-190.428C987.129,-176.091 916.887,-147.496 854.5,-134 660.429,-92.0169 422.025,-84.8 326.277,-83.6591"/>
<polygon fill="midnightblue" stroke="midnightblue" points="326.155,-80.1577 316.12,-83.5549 326.084,-87.1574 326.155,-80.1577"/>
</g>
<!-- Node17&#45;&gt;Node13 -->
<g id="edge24" class="edge"><title>Node17&#45;&gt;Node13</title>
<path fill="none" stroke="midnightblue" d="M1036.88,-190.488C1028.84,-166 1001.94,-95.3136 951.5,-67 864.909,-18.389 155.372,-52.8359 58.5,-31 55.9803,-30.432 53.4125,-29.6842 50.8739,-28.8272"/>
<polygon fill="midnightblue" stroke="midnightblue" points="51.9802,-25.502 41.3919,-25.1296 49.437,-32.0236 51.9802,-25.502"/>
</g>
<!-- Node18 -->
<g id="node18" class="node"><title>Node18</title>
<polygon fill="white" stroke="#bfbfbf" points="1173,-134.5 1173,-153.5 1274,-153.5 1274,-134.5 1173,-134.5"/>
<text text-anchor="middle" x="1223.5" y="-141.5" font-family="Helvetica,sans-Serif" font-size="10.00">boost/variant.hpp</text>
</g>
<!-- Node17&#45;&gt;Node18 -->
<g id="edge29" class="edge"><title>Node17&#45;&gt;Node18</title>
<path fill="none" stroke="midnightblue" d="M1066.26,-191.148C1097.28,-182.043 1148.7,-166.952 1184.25,-156.519"/>
<polygon fill="midnightblue" stroke="midnightblue" points="1185.67,-159.75 1194.28,-153.576 1183.7,-153.033 1185.67,-159.75"/>
</g>
<!-- Node17&#45;&gt;Node19 -->
<g id="edge31" class="edge"><title>Node17&#45;&gt;Node19</title>
<path fill="none" stroke="midnightblue" d="M1066.23,-194.132C1109.42,-186.253 1197.5,-170.129 1281.78,-154.314"/>
<polygon fill="midnightblue" stroke="midnightblue" points="1282.59,-157.723 1291.78,-152.437 1281.3,-150.843 1282.59,-157.723"/>
</g>
<!-- Node19&#45;&gt;Node3 -->
<g id="edge34" class="edge"><title>Node19&#45;&gt;Node3</title>
<path fill="none" stroke="midnightblue" d="M1369.21,-142.288C1404.45,-139.496 1455.43,-129.725 1485.5,-98 1501.39,-81.2342 1504.87,-53.8554 1505.23,-35.5145"/>
<polygon fill="midnightblue" stroke="midnightblue" points="1508.73,-35.4034 1505.13,-25.4383 1501.73,-35.4723 1508.73,-35.4034"/>
</g>
<!-- Node19&#45;&gt;Node6 -->
<g id="edge36" class="edge"><title>Node19&#45;&gt;Node6</title>
<path fill="none" stroke="midnightblue" d="M1297.89,-134.466C1271.14,-126.806 1232.74,-114.27 1201.5,-98 1180.6,-87.1177 1180.58,-75.2206 1158.5,-67 1058.98,-29.9453 728.542,-19.5756 621.375,-17.1511"/>
<polygon fill="midnightblue" stroke="midnightblue" points="621.216,-13.6469 611.142,-16.9287 621.063,-20.6453 621.216,-13.6469"/>
</g>
<!-- Node19&#45;&gt;Node7 -->
<g id="edge38" class="edge"><title>Node19&#45;&gt;Node7</title>
<path fill="none" stroke="midnightblue" d="M1291.81,-135.377C1289,-134.889 1286.21,-134.425 1283.5,-134 1153.45,-113.609 1120.1,-114.526 989.5,-98 977.675,-96.5037 965.146,-94.8922 952.928,-93.3065"/>
<polygon fill="midnightblue" stroke="midnightblue" points="953.128,-89.8032 942.76,-91.9837 952.225,-96.7447 953.128,-89.8032"/>
</g>
<!-- Node19&#45;&gt;Node10 -->
<g id="edge35" class="edge"><title>Node19&#45;&gt;Node10</title>
<path fill="none" stroke="midnightblue" d="M1291.77,-135.583C1288.97,-135.047 1286.19,-134.515 1283.5,-134 1199.38,-117.901 1100.19,-98.9293 1050.77,-89.4787"/>
<polygon fill="midnightblue" stroke="midnightblue" points="1051.2,-85.9977 1040.72,-87.5571 1049.88,-92.8731 1051.2,-85.9977"/>
</g>
<!-- Node19&#45;&gt;Node12 -->
<g id="edge39" class="edge"><title>Node19&#45;&gt;Node12</title>
<path fill="none" stroke="midnightblue" d="M1291.84,-135.156C1289.02,-134.721 1286.22,-134.328 1283.5,-134 1093.83,-111.163 492.68,-90.3137 326.456,-84.8739"/>
<polygon fill="midnightblue" stroke="midnightblue" points="326.254,-81.3655 316.145,-84.538 326.026,-88.3618 326.254,-81.3655"/>
</g>
<!-- Node20 -->
<g id="node20" class="node"><title>Node20</title>
<polygon fill="white" stroke="#bfbfbf" points="1210.5,-73 1210.5,-92 1272.5,-92 1272.5,-73 1210.5,-73"/>
<text text-anchor="middle" x="1241.5" y="-80" font-family="Helvetica,sans-Serif" font-size="10.00">algorithm</text>
</g>
<!-- Node19&#45;&gt;Node20 -->
<g id="edge32" class="edge"><title>Node19&#45;&gt;Node20</title>
<path fill="none" stroke="midnightblue" d="M1317.75,-134.475C1303.47,-124.931 1280.1,-109.307 1262.99,-97.8683"/>
<polygon fill="midnightblue" stroke="midnightblue" points="1264.49,-94.6572 1254.23,-92.0091 1260.6,-100.477 1264.49,-94.6572"/>
</g>
<!-- Node21 -->
<g id="node21" class="node"><title>Node21</title>
<polygon fill="white" stroke="#bfbfbf" points="1290.5,-73 1290.5,-92 1346.5,-92 1346.5,-73 1290.5,-73"/>
<text text-anchor="middle" x="1318.5" y="-80" font-family="Helvetica,sans-Serif" font-size="10.00">sstream</text>
</g>
<!-- Node19&#45;&gt;Node21 -->
<g id="edge33" class="edge"><title>Node19&#45;&gt;Node21</title>
<path fill="none" stroke="midnightblue" d="M1328.78,-134.475C1327.07,-125.992 1324.39,-112.704 1322.2,-101.822"/>
<polygon fill="midnightblue" stroke="midnightblue" points="1325.62,-101.12 1320.22,-92.0091 1318.76,-102.504 1325.62,-101.12"/>
</g>
<!-- Node22 -->
<g id="node22" class="node"><title>Node22</title>
<polygon fill="white" stroke="#bfbfbf" points="1364.5,-67.5 1364.5,-97.5 1476.5,-97.5 1476.5,-67.5 1364.5,-67.5"/>
<text text-anchor="start" x="1372.5" y="-85.5" font-family="Helvetica,sans-Serif" font-size="10.00">boost/icl/continuous</text>
<text text-anchor="middle" x="1420.5" y="-74.5" font-family="Helvetica,sans-Serif" font-size="10.00">_interval.hpp</text>
</g>
<!-- Node19&#45;&gt;Node22 -->
<g id="edge37" class="edge"><title>Node19&#45;&gt;Node22</title>
<path fill="none" stroke="midnightblue" d="M1343.39,-134.475C1355.7,-126.341 1374.68,-113.791 1390.73,-103.179"/>
<polygon fill="midnightblue" stroke="midnightblue" points="1392.88,-105.958 1399.29,-97.523 1389.02,-100.118 1392.88,-105.958"/>
</g>
<!-- Node23 -->
<g id="node23" class="node"><title>Node23</title>
<g id="a_node23"><a xlink:href="error_8h.xhtml" target="_top" xlink:title="Exceptions for SCRAM. ">
<polygon fill="white" stroke="black" points="1608.5,-73 1608.5,-92 1656.5,-92 1656.5,-73 1608.5,-73"/>
<text text-anchor="middle" x="1632.5" y="-80" font-family="Helvetica,sans-Serif" font-size="10.00">error.h</text>
</a>
</g>
</g>
<!-- Node19&#45;&gt;Node23 -->
<g id="edge40" class="edge"><title>Node19&#45;&gt;Node23</title>
<path fill="none" stroke="midnightblue" d="M1369.06,-135.404C1428.49,-123.695 1541.53,-101.424 1598.24,-90.2492"/>
<polygon fill="midnightblue" stroke="midnightblue" points="1599.02,-93.664 1608.15,-88.2969 1597.66,-86.796 1599.02,-93.664"/>
</g>
<!-- Node23&#45;&gt;Node3 -->
<g id="edge42" class="edge"><title>Node23&#45;&gt;Node3</title>
<path fill="none" stroke="midnightblue" d="M1615.5,-72.8685C1593.79,-61.8447 1556.01,-42.6554 1530.63,-29.7678"/>
<polygon fill="midnightblue" stroke="midnightblue" points="1532.07,-26.5743 1521.57,-25.1672 1528.9,-32.8157 1532.07,-26.5743"/>
</g>
<!-- Node24 -->
<g id="node24" class="node"><title>Node24</title>
<polygon fill="white" stroke="#bfbfbf" points="1601,-6 1601,-25 1664,-25 1664,-6 1601,-6"/>
<text text-anchor="middle" x="1632.5" y="-13" font-family="Helvetica,sans-Serif" font-size="10.00">exception</text>
</g>
<!-- Node23&#45;&gt;Node24 -->
<g id="edge41" class="edge"><title>Node23&#45;&gt;Node24</title>
<path fill="none" stroke="midnightblue" d="M1632.5,-72.7338C1632.5,-63.1826 1632.5,-47.6183 1632.5,-35.2829"/>
<polygon fill="midnightblue" stroke="midnightblue" points="1636,-35.1273 1632.5,-25.1273 1629,-35.1273 1636,-35.1273"/>
</g>
<!-- Node25&#45;&gt;Node3 -->
<g id="edge48" class="edge"><title>Node25&#45;&gt;Node3</title>
<path fill="none" stroke="midnightblue" d="M1158.03,-250.303C1199.71,-244.349 1267.58,-232.095 1322.5,-210 1411.32,-174.27 1459.6,-181.459 1506.5,-98 1517.36,-78.668 1514.18,-52.4712 1510.08,-35.0539"/>
<polygon fill="midnightblue" stroke="midnightblue" points="1513.36,-33.7851 1507.38,-25.0365 1506.6,-35.6022 1513.36,-33.7851"/>
</g>
<!-- Node25&#45;&gt;Node5 -->
<g id="edge47" class="edge"><title>Node25&#45;&gt;Node5</title>
<path fill="none" stroke="midnightblue" d="M1089.99,-246.476C1059.84,-237.68 1011.75,-223.392 970.5,-210 916.414,-192.441 854.133,-170.429 816.839,-157.054"/>
<polygon fill="midnightblue" stroke="midnightblue" points="817.605,-153.61 807.011,-153.522 815.237,-160.198 817.605,-153.61"/>
</g>
<!-- Node25&#45;&gt;Node6 -->
<g id="edge49" class="edge"><title>Node25&#45;&gt;Node6</title>
<path fill="none" stroke="midnightblue" d="M1120.33,-246.143C1122.65,-215.68 1125.75,-114.49 1070.5,-67 1036.5,-37.7735 725.507,-22.2495 621.329,-17.836"/>
<polygon fill="midnightblue" stroke="midnightblue" points="621.204,-14.3278 611.067,-17.409 620.913,-21.3218 621.204,-14.3278"/>
</g>
<!-- Node25&#45;&gt;Node7 -->
<g id="edge50" class="edge"><title>Node25&#45;&gt;Node7</title>
<path fill="none" stroke="midnightblue" d="M1115.41,-246.484C1108.64,-233.1 1094,-206.925 1075.5,-190 1026.11,-144.809 954.029,-112.227 912.133,-95.7381"/>
<polygon fill="midnightblue" stroke="midnightblue" points="913.255,-92.4196 902.665,-92.0845 910.734,-98.9502 913.255,-92.4196"/>
</g>
<!-- Node25&#45;&gt;Node12 -->
<g id="edge52" class="edge"><title>Node25&#45;&gt;Node12</title>
<path fill="none" stroke="midnightblue" d="M1097.42,-246.468C1074.24,-237.487 1036.75,-222.891 1004.5,-210 982.658,-201.27 977.473,-198.395 955.5,-190 910.984,-172.991 897.676,-174.171 854.5,-154 838.616,-146.579 837.181,-139.394 820.5,-134 728.684,-104.311 436.645,-89.694 326.287,-85.124"/>
<polygon fill="midnightblue" stroke="midnightblue" points="326.321,-81.6226 316.187,-84.7129 326.037,-88.6168 326.321,-81.6226"/>
</g>
<!-- Node25&#45;&gt;Node17 -->
<g id="edge53" class="edge"><title>Node25&#45;&gt;Node17</title>
<path fill="none" stroke="midnightblue" d="M1106.65,-246.324C1094.28,-237.979 1075.37,-225.212 1060.76,-215.352"/>
<polygon fill="midnightblue" stroke="midnightblue" points="1062.57,-212.348 1052.32,-209.655 1058.65,-218.15 1062.57,-212.348"/>
</g>
<!-- Node25&#45;&gt;Node18 -->
<g id="edge51" class="edge"><title>Node25&#45;&gt;Node18</title>
<path fill="none" stroke="midnightblue" d="M1158.28,-249.943C1202.34,-243.31 1270.12,-230.099 1285.5,-210 1300.16,-190.84 1274.46,-171.102 1251.83,-158.481"/>
<polygon fill="midnightblue" stroke="midnightblue" points="1253.24,-155.267 1242.77,-153.689 1249.97,-161.456 1253.24,-155.267"/>
</g>
<!-- Node25&#45;&gt;Node19 -->
<g id="edge54" class="edge"><title>Node25&#45;&gt;Node19</title>
<path fill="none" stroke="midnightblue" d="M1158.37,-254.96C1198.54,-252.926 1260.94,-243.943 1301.5,-210 1315.55,-198.246 1323.05,-178.314 1326.88,-163.613"/>
<polygon fill="midnightblue" stroke="midnightblue" points="1330.35,-164.139 1329.13,-153.614 1323.52,-162.597 1330.35,-164.139"/>
</g>
<!-- Node26 -->
<g id="node26" class="node"><title>Node26</title>
<g id="a_node26"><a xlink:href="variant_8h.xhtml" target="_top" xlink:title="Extra helper functions for boost::variant. ">
<polygon fill="white" stroke="black" points="1199,-190.5 1199,-209.5 1276,-209.5 1276,-190.5 1199,-190.5"/>
<text text-anchor="middle" x="1237.5" y="-197.5" font-family="Helvetica,sans-Serif" font-size="10.00">ext/variant.h</text>
</a>
</g>
</g>
<!-- Node25&#45;&gt;Node26 -->
<g id="edge55" class="edge"><title>Node25&#45;&gt;Node26</title>
<path fill="none" stroke="midnightblue" d="M1138.2,-246.444C1157.44,-237.636 1187.65,-223.812 1209.7,-213.722"/>
<polygon fill="midnightblue" stroke="midnightblue" points="1211.25,-216.86 1218.89,-209.516 1208.34,-210.495 1211.25,-216.86"/>
</g>
<!-- Node26&#45;&gt;Node18 -->
<g id="edge56" class="edge"><title>Node26&#45;&gt;Node18</title>
<path fill="none" stroke="midnightblue" d="M1235.19,-190.083C1233.33,-182.927 1230.66,-172.635 1228.35,-163.691"/>
<polygon fill="midnightblue" stroke="midnightblue" points="1231.67,-162.553 1225.77,-153.751 1224.89,-164.309 1231.67,-162.553"/>
</g>
<!-- Node27&#45;&gt;Node3 -->
<g id="edge59" class="edge"><title>Node27&#45;&gt;Node3</title>
<path fill="none" stroke="midnightblue" d="M1681.48,-190.399C1686.22,-167.432 1695.73,-103.905 1665.5,-67 1649.12,-46.9958 1578.76,-30.5661 1536.67,-22.2939"/>
<polygon fill="midnightblue" stroke="midnightblue" points="1537.11,-18.814 1526.63,-20.3694 1535.79,-25.689 1537.11,-18.814"/>
</g>
<!-- Node27&#45;&gt;Node19 -->
<g id="edge61" class="edge"><title>Node27&#45;&gt;Node19</title>
<path fill="none" stroke="midnightblue" d="M1624.2,-190.444C1556.6,-179.985 1443.3,-162.453 1378.97,-152.5"/>
<polygon fill="midnightblue" stroke="midnightblue" points="1379.5,-149.04 1369.08,-150.97 1378.43,-155.958 1379.5,-149.04"/>
</g>
<!-- Node28 -->
<g id="node28" class="node"><title>Node28</title>
<polygon fill="white" stroke="#bfbfbf" points="1710,-134.5 1710,-153.5 1803,-153.5 1803,-134.5 1710,-134.5"/>
<text text-anchor="middle" x="1756.5" y="-141.5" font-family="Helvetica,sans-Serif" font-size="10.00">unordered_map</text>
</g>
<!-- Node27&#45;&gt;Node28 -->
<g id="edge60" class="edge"><title>Node27&#45;&gt;Node28</title>
<path fill="none" stroke="midnightblue" d="M1691.87,-190.324C1703.66,-182.058 1721.63,-169.453 1735.64,-159.632"/>
<polygon fill="midnightblue" stroke="midnightblue" points="1737.98,-162.262 1744.16,-153.655 1733.96,-156.531 1737.98,-162.262"/>
</g>
<!-- Node29&#45;&gt;Node3 -->
<g id="edge64" class="edge"><title>Node29&#45;&gt;Node3</title>
<path fill="none" stroke="midnightblue" d="M413.991,-302.422C415.749,-280.181 423.651,-220.286 458.5,-190 566.338,-96.2804 616.39,-99.5688 755.5,-67 894.988,-34.3427 1347.27,-20.5328 1472.24,-17.2832"/>
<polygon fill="midnightblue" stroke="midnightblue" points="1472.41,-20.7801 1482.32,-17.0258 1472.24,-13.7824 1472.41,-20.7801"/>
</g>
<!-- Node29&#45;&gt;Node5 -->
<g id="edge63" class="edge"><title>Node29&#45;&gt;Node5</title>
<path fill="none" stroke="midnightblue" d="M420.392,-302.254C427.298,-293.342 438.085,-279.018 446.5,-266 467.567,-233.406 457.555,-212.038 489.5,-190 510.228,-175.7 670.08,-157.064 744.992,-149.003"/>
<polygon fill="midnightblue" stroke="midnightblue" points="745.404,-152.479 754.976,-147.938 744.661,-145.519 745.404,-152.479"/>
</g>
<!-- Node29&#45;&gt;Node6 -->
<g id="edge66" class="edge"><title>Node29&#45;&gt;Node6</title>
<path fill="none" stroke="midnightblue" d="M377.89,-304.647C340.122,-297.099 284.18,-283.319 271.5,-266 266.249,-258.828 269.161,-254.576 271.5,-246 287.716,-186.541 404.004,-68.56 406.5,-67 463.908,-31.125 490.376,-52.6995 554.5,-31 556.367,-30.3681 558.275,-29.6722 560.184,-28.9376"/>
<polygon fill="midnightblue" stroke="midnightblue" points="561.665,-32.1128 569.57,-25.0592 558.992,-25.6433 561.665,-32.1128"/>
</g>
<!-- Node29&#45;&gt;Node7 -->
<g id="edge67" class="edge"><title>Node29&#45;&gt;Node7</title>
<path fill="none" stroke="midnightblue" d="M415.762,-302.414C422.086,-280.156 442.121,-220.222 481.5,-190 576.699,-116.939 718.135,-93.909 803.984,-86.7062"/>
<polygon fill="midnightblue" stroke="midnightblue" points="804.476,-90.1784 814.171,-85.904 803.927,-83.2 804.476,-90.1784"/>
</g>
<!-- Node29&#45;&gt;Node8 -->
<g id="edge68" class="edge"><title>Node29&#45;&gt;Node8</title>
<path fill="none" stroke="midnightblue" d="M449.1,-305.067C508.083,-295.236 626.032,-275.578 691.334,-264.694"/>
<polygon fill="midnightblue" stroke="midnightblue" points="692.057,-268.122 701.346,-263.026 690.906,-261.217 692.057,-268.122"/>
</g>
<!-- Node29&#45;&gt;Node12 -->
<g id="edge69" class="edge"><title>Node29&#45;&gt;Node12</title>
<path fill="none" stroke="midnightblue" d="M377.526,-310.444C317.427,-307.229 199.985,-290.487 167.5,-210 147.212,-159.733 214.334,-117.028 254.882,-96.5213"/>
<polygon fill="midnightblue" stroke="midnightblue" points="256.621,-99.5665 264.062,-92.0247 253.542,-93.28 256.621,-99.5665"/>
</g>
<!-- Node29&#45;&gt;Node17 -->
<g id="edge70" class="edge"><title>Node29&#45;&gt;Node17</title>
<path fill="none" stroke="midnightblue" d="M449.091,-308.166C515.179,-302.572 661.168,-288.648 782.5,-266 862.072,-251.147 953.616,-226.021 1003.12,-211.75"/>
<polygon fill="midnightblue" stroke="midnightblue" points="1004.11,-215.108 1012.74,-208.962 1002.16,-208.385 1004.11,-215.108"/>
</g>
<!-- Node30 -->
<g id="node30" class="node"><title>Node30</title>
<polygon fill="white" stroke="#bfbfbf" points="280.5,-246.5 280.5,-265.5 366.5,-265.5 366.5,-246.5 280.5,-246.5"/>
<text text-anchor="middle" x="323.5" y="-253.5" font-family="Helvetica,sans-Serif" font-size="10.00">unordered_set</text>
</g>
<!-- Node29&#45;&gt;Node30 -->
<g id="edge65" class="edge"><title>Node29&#45;&gt;Node30</title>
<path fill="none" stroke="midnightblue" d="M399.04,-302.324C385,-293.9 363.452,-280.971 346.957,-271.074"/>
<polygon fill="midnightblue" stroke="midnightblue" points="348.3,-267.798 337.924,-265.655 344.698,-273.801 348.3,-267.798"/>
</g>
<!-- Node29&#45;&gt;Node31 -->
<g id="edge71" class="edge"><title>Node29&#45;&gt;Node31</title>
<path fill="none" stroke="midnightblue" d="M377.8,-311.149C338.886,-309.406 277.035,-300.792 238.5,-266 225.266,-254.052 219.311,-234.15 216.643,-219.51"/>
<polygon fill="midnightblue" stroke="midnightblue" points="220.097,-218.942 215.177,-209.559 213.172,-219.962 220.097,-218.942"/>
</g>
<!-- Node31&#45;&gt;Node3 -->
<g id="edge74" class="edge"><title>Node31&#45;&gt;Node3</title>
<path fill="none" stroke="midnightblue" d="M223.07,-190.366C248.362,-165.547 325.976,-94.0538 406.5,-67 509.656,-32.3424 1300.75,-19.3527 1471.91,-16.9336"/>
<polygon fill="midnightblue" stroke="midnightblue" points="1472.11,-20.4313 1482.06,-16.7924 1472.01,-13.432 1472.11,-20.4313"/>
</g>
<!-- Node31&#45;&gt;Node5 -->
<g id="edge73" class="edge"><title>Node31&#45;&gt;Node5</title>
<path fill="none" stroke="midnightblue" d="M252.717,-195.373C356.184,-185.554 640.944,-158.529 744.88,-148.665"/>
<polygon fill="midnightblue" stroke="midnightblue" points="745.309,-152.14 754.934,-147.711 744.648,-145.172 745.309,-152.14"/>
</g>
<!-- Node31&#45;&gt;Node12 -->
<g id="edge75" class="edge"><title>Node31&#45;&gt;Node12</title>
<path fill="none" stroke="midnightblue" d="M219.686,-190.319C230.975,-171.422 257.962,-126.248 272.973,-101.121"/>
<polygon fill="midnightblue" stroke="midnightblue" points="276.13,-102.662 278.254,-92.282 270.12,-99.0718 276.13,-102.662"/>
</g>
<!-- Node31&#45;&gt;Node13 -->
<g id="edge72" class="edge"><title>Node31&#45;&gt;Node13</title>
<path fill="none" stroke="midnightblue" d="M205.591,-190.442C175.864,-161.889 79.7767,-69.5947 40.9766,-32.3262"/>
<polygon fill="midnightblue" stroke="midnightblue" points="43.2476,-29.6545 33.6111,-25.2514 38.3985,-34.7029 43.2476,-29.6545"/>
</g>
<!-- Node31&#45;&gt;Node19 -->
<g id="edge76" class="edge"><title>Node31&#45;&gt;Node19</title>
<path fill="none" stroke="midnightblue" d="M252.568,-197.731C426.223,-191.896 1140.51,-167.409 1281.66,-153.939"/>
<polygon fill="midnightblue" stroke="midnightblue" points="1282.26,-157.395 1291.84,-152.87 1281.53,-150.433 1282.26,-157.395"/>
</g>
</g>
</svg>
