<?xml version="1.0" encoding="UTF-8" standalone="no"?>
<!DOCTYPE svg PUBLIC "-//W3C//DTD SVG 1.1//EN"
 "http://www.w3.org/Graphics/SVG/1.1/DTD/svg11.dtd">
<!-- Generated by graphviz version 2.38.0 (20140413.2041)
 -->
<!-- Title: scram::mef::Serialize Pages: 1 -->
<svg width="655pt" height="849pt"
 viewBox="0.00 0.00 655.00 849.00" xmlns="http://www.w3.org/2000/svg" xmlns:xlink="http://www.w3.org/1999/xlink">
<g id="graph0" class="graph" transform="scale(1 1) rotate(0) translate(4 845)">
<title>scram::mef::Serialize</title>
<polygon fill="white" stroke="none" points="-4,4 -4,-845 651,-845 651,4 -4,4"/>
<!-- Node1 -->
<g id="node1" class="node"><title>Node1</title>
<polygon fill="#bfbfbf" stroke="black" points="0,-405 0,-424 118,-424 118,-405 0,-405"/>
<text text-anchor="middle" x="59" y="-412" font-family="Helvetica,sans-Serif" font-size="10.00">scram::mef::Serialize</text>
</g>
<!-- Node1&#45;&gt;Node1 -->
<g id="edge22" class="edge"><title>Node1&#45;&gt;Node1</title>
<path fill="none" stroke="midnightblue" d="M33.1063,-424.257C20.5094,-433.065 29.1406,-442.5 59,-442.5 79.0618,-442.5 89.5408,-438.241 90.4371,-432.775"/>
<polygon fill="midnightblue" stroke="midnightblue" points="93.2819,-430.729 84.8937,-424.257 87.415,-434.548 93.2819,-430.729"/>
</g>
<!-- Node2 -->
<g id="node2" class="node"><title>Node2</title>
<g id="a_node2"><a xlink:href="classscram_1_1XmlStreamElement.xhtml#ac8227ce1d2bf22ab83d3055a8e98fb2d" target="_top" xlink:title="Adds a child element to the element. ">
<polygon fill="white" stroke="black" points="154,-810.5 154,-840.5 300,-840.5 300,-810.5 154,-810.5"/>
<text text-anchor="start" x="162" y="-828.5" font-family="Helvetica,sans-Serif" font-size="10.00">scram::XmlStreamElement</text>
<text text-anchor="middle" x="227" y="-817.5" font-family="Helvetica,sans-Serif" font-size="10.00">::AddChild</text>
</a>
</g>
</g>
<!-- Node1&#45;&gt;Node2 -->
<g id="edge1" class="edge"><title>Node1&#45;&gt;Node2</title>
<path fill="none" stroke="midnightblue" d="M61.0866,-424.205C67.3337,-478.385 100.288,-743.107 154,-801.5 154.781,-802.349 155.592,-803.167 156.431,-803.957"/>
<polygon fill="midnightblue" stroke="midnightblue" points="154.598,-806.964 164.65,-810.312 158.88,-801.426 154.598,-806.964"/>
</g>
<!-- Node4 -->
<g id="node4" class="node"><title>Node4</title>
<g id="a_node4"><a xlink:href="classscram_1_1XmlStreamElement.xhtml#a414c693e59f68e95677ed91e48bae61a" target="_top" xlink:title="Adds text to the element. ">
<polygon fill="white" stroke="black" points="154,-761.5 154,-791.5 300,-791.5 300,-761.5 154,-761.5"/>
<text text-anchor="start" x="162" y="-779.5" font-family="Helvetica,sans-Serif" font-size="10.00">scram::XmlStreamElement</text>
<text text-anchor="middle" x="227" y="-768.5" font-family="Helvetica,sans-Serif" font-size="10.00">::AddText</text>
</a>
</g>
</g>
<!-- Node1&#45;&gt;Node4 -->
<g id="edge3" class="edge"><title>Node1&#45;&gt;Node4</title>
<path fill="none" stroke="midnightblue" d="M59.6399,-424.092C58.5236,-468.175 59.7839,-653.402 154,-752.5 154.919,-753.467 155.878,-754.395 156.873,-755.285"/>
<polygon fill="midnightblue" stroke="midnightblue" points="154.998,-758.253 165.112,-761.407 159.173,-752.634 154.998,-758.253"/>
</g>
<!-- Node5 -->
<g id="node5" class="node"><title>Node5</title>
<g id="a_node5"><a xlink:href="classscram_1_1mef_1_1Expression.xhtml#ac22fdb9ced7ef6942f666337b6a34110" target="_top" xlink:title="scram::mef::Expression\l::args">
<polygon fill="white" stroke="black" points="162.5,-712.5 162.5,-742.5 291.5,-742.5 291.5,-712.5 162.5,-712.5"/>
<text text-anchor="start" x="170.5" y="-730.5" font-family="Helvetica,sans-Serif" font-size="10.00">scram::mef::Expression</text>
<text text-anchor="middle" x="227" y="-719.5" font-family="Helvetica,sans-Serif" font-size="10.00">::args</text>
</a>
</g>
</g>
<!-- Node1&#45;&gt;Node5 -->
<g id="edge4" class="edge"><title>Node1&#45;&gt;Node5</title>
<path fill="none" stroke="midnightblue" d="M60.167,-424.04C61.3911,-464.088 71.4793,-620.376 154,-703.5 155.073,-704.581 156.197,-705.614 157.363,-706.6"/>
<polygon fill="midnightblue" stroke="midnightblue" points="155.437,-709.524 165.618,-712.455 159.487,-703.815 155.437,-709.524"/>
</g>
<!-- Node6 -->
<g id="node6" class="node"><title>Node6</title>
<g id="a_node6"><a xlink:href="classscram_1_1mef_1_1Element.xhtml#a25474d50f8cc2c6a728c88e4c7d1b9f1" target="_top" xlink:title="scram::mef::Element\l::attributes">
<polygon fill="white" stroke="black" points="168.5,-663.5 168.5,-693.5 285.5,-693.5 285.5,-663.5 168.5,-663.5"/>
<text text-anchor="start" x="176.5" y="-681.5" font-family="Helvetica,sans-Serif" font-size="10.00">scram::mef::Element</text>
<text text-anchor="middle" x="227" y="-670.5" font-family="Helvetica,sans-Serif" font-size="10.00">::attributes</text>
</a>
</g>
</g>
<!-- Node1&#45;&gt;Node6 -->
<g id="edge5" class="edge"><title>Node1&#45;&gt;Node6</title>
<path fill="none" stroke="midnightblue" d="M60.923,-424.354C64.8358,-460.518 83.2655,-587.321 154,-654.5 155.708,-656.122 157.528,-657.634 159.437,-659.045"/>
<polygon fill="midnightblue" stroke="midnightblue" points="157.966,-662.253 168.298,-664.597 161.683,-656.322 157.966,-662.253"/>
</g>
<!-- Node7 -->
<g id="node7" class="node"><title>Node7</title>
<g id="a_node7"><a xlink:href="classscram_1_1mef_1_1Component.xhtml#a483f7a67e2197449902bddc48756e2cd" target="_top" xlink:title="scram::mef::Component\l::components">
<polygon fill="white" stroke="black" points="160,-614.5 160,-644.5 294,-644.5 294,-614.5 160,-614.5"/>
<text text-anchor="start" x="168" y="-632.5" font-family="Helvetica,sans-Serif" font-size="10.00">scram::mef::Component</text>
<text text-anchor="middle" x="227" y="-621.5" font-family="Helvetica,sans-Serif" font-size="10.00">::components</text>
</a>
</g>
</g>
<!-- Node1&#45;&gt;Node7 -->
<g id="edge6" class="edge"><title>Node1&#45;&gt;Node7</title>
<path fill="none" stroke="midnightblue" d="M62.413,-424.414C70.2853,-454.776 97.9991,-547.566 154,-599.5 158.096,-603.298 162.741,-606.652 167.652,-609.604"/>
<polygon fill="midnightblue" stroke="midnightblue" points="166.256,-612.828 176.719,-614.497 169.58,-606.668 166.256,-612.828"/>
</g>
<!-- Node11 -->
<g id="node11" class="node"><title>Node11</title>
<g id="a_node11"><a xlink:href="classscram_1_1mef_1_1Element.xhtml#adb401e2ca84aa98cb60797bec2500a81" target="_top" xlink:title="scram::mef::Element\l::name">
<polygon fill="white" stroke="black" points="530,-578.5 530,-608.5 647,-608.5 647,-578.5 530,-578.5"/>
<text text-anchor="start" x="538" y="-596.5" font-family="Helvetica,sans-Serif" font-size="10.00">scram::mef::Element</text>
<text text-anchor="middle" x="588.5" y="-585.5" font-family="Helvetica,sans-Serif" font-size="10.00">::name</text>
</a>
</g>
</g>
<!-- Node1&#45;&gt;Node11 -->
<g id="edge20" class="edge"><title>Node1&#45;&gt;Node11</title>
<path fill="none" stroke="midnightblue" d="M64.7054,-424.275C76.2657,-447.084 108.47,-503.761 154,-528.5 220.824,-564.809 419.357,-552.934 494,-567.5 505.383,-569.721 517.405,-572.628 528.899,-575.691"/>
<polygon fill="midnightblue" stroke="midnightblue" points="528.265,-579.146 538.834,-578.409 530.113,-572.394 528.265,-579.146"/>
</g>
<!-- Node12 -->
<g id="node12" class="node"><title>Node12</title>
<g id="a_node12"><a xlink:href="classscram_1_1mef_1_1Component.xhtml#ad246305a79904f65b36157096464703b" target="_top" xlink:title="scram::mef::Component\l::gates">
<polygon fill="white" stroke="black" points="348,-576.5 348,-606.5 482,-606.5 482,-576.5 348,-576.5"/>
<text text-anchor="start" x="356" y="-594.5" font-family="Helvetica,sans-Serif" font-size="10.00">scram::mef::Component</text>
<text text-anchor="middle" x="415" y="-583.5" font-family="Helvetica,sans-Serif" font-size="10.00">::gates</text>
</a>
</g>
</g>
<!-- Node1&#45;&gt;Node12 -->
<g id="edge17" class="edge"><title>Node1&#45;&gt;Node12</title>
<path fill="none" stroke="midnightblue" d="M62.9122,-424.153C71.6309,-451.205 100.304,-527.957 154,-561.5 208.691,-595.664 282.647,-601.169 337.702,-599.291"/>
<polygon fill="midnightblue" stroke="midnightblue" points="337.912,-602.785 347.753,-598.86 337.612,-595.792 337.912,-602.785"/>
</g>
<!-- Node13 -->
<g id="node13" class="node"><title>Node13</title>
<g id="a_node13"><a xlink:href="classscram_1_1mef_1_1Formula.xhtml#a4e86a729bae4629de0217c9f8c6960a0" target="_top" xlink:title="scram::mef::Formula\l::event_args">
<polygon fill="white" stroke="black" points="169,-488.5 169,-518.5 285,-518.5 285,-488.5 169,-488.5"/>
<text text-anchor="start" x="177" y="-506.5" font-family="Helvetica,sans-Serif" font-size="10.00">scram::mef::Formula</text>
<text text-anchor="middle" x="227" y="-495.5" font-family="Helvetica,sans-Serif" font-size="10.00">::event_args</text>
</a>
</g>
</g>
<!-- Node1&#45;&gt;Node13 -->
<g id="edge12" class="edge"><title>Node1&#45;&gt;Node13</title>
<path fill="none" stroke="midnightblue" d="M71.4878,-424.064C88.5587,-437.887 122.052,-463.537 154,-479.5 157.713,-481.355 161.602,-483.117 165.568,-484.781"/>
<polygon fill="midnightblue" stroke="midnightblue" points="164.328,-488.054 174.915,-488.482 166.906,-481.546 164.328,-488.054"/>
</g>
<!-- Node14 -->
<g id="node14" class="node"><title>Node14</title>
<g id="a_node14"><a xlink:href="classscram_1_1mef_1_1BasicEvent.xhtml#ab9764640b00bcc3f7241c5bf185d8f2a" target="_top" xlink:title="Sets the expression of this basic event. ">
<polygon fill="white" stroke="black" points="162,-421.5 162,-451.5 292,-451.5 292,-421.5 162,-421.5"/>
<text text-anchor="start" x="170" y="-439.5" font-family="Helvetica,sans-Serif" font-size="10.00">scram::mef::BasicEvent</text>
<text text-anchor="middle" x="227" y="-428.5" font-family="Helvetica,sans-Serif" font-size="10.00">::expression</text>
</a>
</g>
</g>
<!-- Node1&#45;&gt;Node14 -->
<g id="edge13" class="edge"><title>Node1&#45;&gt;Node14</title>
<path fill="none" stroke="midnightblue" d="M118.059,-422.195C128.868,-423.627 140.299,-425.142 151.52,-426.629"/>
<polygon fill="midnightblue" stroke="midnightblue" points="151.369,-430.14 161.742,-427.984 152.289,-423.2 151.369,-430.14"/>
</g>
<!-- Node15 -->
<g id="node15" class="node"><title>Node15</title>
<g id="a_node15"><a xlink:href="classscram_1_1mef_1_1Gate.xhtml#abde84a63a060e2424ab92431634f21d9" target="_top" xlink:title="scram::mef::Gate::formula">
<polygon fill="white" stroke="black" points="155.5,-383 155.5,-402 298.5,-402 298.5,-383 155.5,-383"/>
<text text-anchor="middle" x="227" y="-390" font-family="Helvetica,sans-Serif" font-size="10.00">scram::mef::Gate::formula</text>
</a>
</g>
</g>
<!-- Node1&#45;&gt;Node15 -->
<g id="edge15" class="edge"><title>Node1&#45;&gt;Node15</title>
<path fill="none" stroke="midnightblue" d="M118.059,-406.805C126.916,-405.632 136.191,-404.402 145.426,-403.179"/>
<polygon fill="midnightblue" stroke="midnightblue" points="145.956,-406.639 155.409,-401.855 145.036,-399.7 145.956,-406.639"/>
</g>
<!-- Node16 -->
<g id="node16" class="node"><title>Node16</title>
<g id="a_node16"><a xlink:href="classscram_1_1mef_1_1Formula.xhtml#af3c5953f817cc202b5009cc4557c7d72" target="_top" xlink:title="scram::mef::Formula\l::formula_args">
<polygon fill="white" stroke="black" points="169,-333.5 169,-363.5 285,-363.5 285,-333.5 169,-333.5"/>
<text text-anchor="start" x="177" y="-351.5" font-family="Helvetica,sans-Serif" font-size="10.00">scram::mef::Formula</text>
<text text-anchor="middle" x="227" y="-340.5" font-family="Helvetica,sans-Serif" font-size="10.00">::formula_args</text>
</a>
</g>
</g>
<!-- Node1&#45;&gt;Node16 -->
<g id="edge16" class="edge"><title>Node1&#45;&gt;Node16</title>
<path fill="none" stroke="midnightblue" d="M80.7151,-404.916C99.6347,-396.294 128.464,-383.485 154,-373.5 159.526,-371.339 165.326,-369.168 171.133,-367.057"/>
<polygon fill="midnightblue" stroke="midnightblue" points="172.632,-370.238 180.867,-363.573 170.273,-363.647 172.632,-370.238"/>
</g>
<!-- Node17 -->
<g id="node17" class="node"><title>Node17</title>
<g id="a_node17"><a xlink:href="classscram_1_1mef_1_1BasicEvent.xhtml#ab6b4e5fd2ce8a81ae887902be30c2b29" target="_top" xlink:title="scram::mef::BasicEvent\l::HasExpression">
<polygon fill="white" stroke="black" points="162,-284.5 162,-314.5 292,-314.5 292,-284.5 162,-284.5"/>
<text text-anchor="start" x="170" y="-302.5" font-family="Helvetica,sans-Serif" font-size="10.00">scram::mef::BasicEvent</text>
<text text-anchor="middle" x="227" y="-291.5" font-family="Helvetica,sans-Serif" font-size="10.00">::HasExpression</text>
</a>
</g>
</g>
<!-- Node1&#45;&gt;Node17 -->
<g id="edge18" class="edge"><title>Node1&#45;&gt;Node17</title>
<path fill="none" stroke="midnightblue" d="M67.518,-404.965C82.2639,-386.852 116.801,-347.252 154,-324.5 157.395,-322.423 160.987,-320.49 164.681,-318.694"/>
<polygon fill="midnightblue" stroke="midnightblue" points="166.327,-321.792 174.024,-314.511 163.467,-315.403 166.327,-321.792"/>
</g>
<!-- Node18 -->
<g id="node18" class="node"><title>Node18</title>
<g id="a_node18"><a xlink:href="classscram_1_1mef_1_1Element.xhtml#a87e90b86d7599c2f60d7a7b99ab52d20" target="_top" xlink:title="scram::mef::Element\l::label">
<polygon fill="white" stroke="black" points="168.5,-235.5 168.5,-265.5 285.5,-265.5 285.5,-235.5 168.5,-235.5"/>
<text text-anchor="start" x="176.5" y="-253.5" font-family="Helvetica,sans-Serif" font-size="10.00">scram::mef::Element</text>
<text text-anchor="middle" x="227" y="-242.5" font-family="Helvetica,sans-Serif" font-size="10.00">::label</text>
</a>
</g>
</g>
<!-- Node1&#45;&gt;Node18 -->
<g id="edge19" class="edge"><title>Node1&#45;&gt;Node18</title>
<path fill="none" stroke="midnightblue" d="M63.911,-404.849C74.5449,-379.789 106.415,-312.066 154,-275.5 156.439,-273.625 159.03,-271.885 161.723,-270.27"/>
<polygon fill="midnightblue" stroke="midnightblue" points="163.441,-273.321 170.619,-265.529 160.148,-267.144 163.441,-273.321"/>
</g>
<!-- Node19 -->
<g id="node19" class="node"><title>Node19</title>
<g id="a_node19"><a xlink:href="classscram_1_1mef_1_1Role.xhtml#aa1843c29411c29b27d79414d34525bbc" target="_top" xlink:title="scram::mef::Role::role">
<polygon fill="white" stroke="black" points="166.5,-197 166.5,-216 287.5,-216 287.5,-197 166.5,-197"/>
<text text-anchor="middle" x="227" y="-204" font-family="Helvetica,sans-Serif" font-size="10.00">scram::mef::Role::role</text>
</a>
</g>
</g>
<!-- Node1&#45;&gt;Node19 -->
<g id="edge21" class="edge"><title>Node1&#45;&gt;Node19</title>
<path fill="none" stroke="midnightblue" d="M61.8931,-404.989C68.5358,-374.164 93.7249,-276.151 154,-226.5 156.736,-224.246 159.709,-222.245 162.837,-220.469"/>
<polygon fill="midnightblue" stroke="midnightblue" points="164.516,-223.545 171.992,-216.037 161.466,-217.244 164.516,-223.545"/>
</g>
<!-- Node20 -->
<g id="node20" class="node"><title>Node20</title>
<g id="a_node20"><a xlink:href="classscram_1_1XmlStreamElement.xhtml#a3f8cfc1031e589dac6e33ea98c9b0479" target="_top" xlink:title="Sets the attributes for the element. ">
<polygon fill="white" stroke="black" points="154,-147.5 154,-177.5 300,-177.5 300,-147.5 154,-147.5"/>
<text text-anchor="start" x="162" y="-165.5" font-family="Helvetica,sans-Serif" font-size="10.00">scram::XmlStreamElement</text>
<text text-anchor="middle" x="227" y="-154.5" font-family="Helvetica,sans-Serif" font-size="10.00">::SetAttribute</text>
</a>
</g>
</g>
<!-- Node1&#45;&gt;Node20 -->
<g id="edge23" class="edge"><title>Node1&#45;&gt;Node20</title>
<path fill="none" stroke="midnightblue" d="M61.1919,-404.722C65.9432,-369.956 86.6662,-251.012 154,-187.5 155.681,-185.914 157.469,-184.428 159.34,-183.036"/>
<polygon fill="midnightblue" stroke="midnightblue" points="161.455,-185.838 168.008,-177.513 157.693,-179.935 161.455,-185.838"/>
</g>
<!-- Node21 -->
<g id="node21" class="node"><title>Node21</title>
<g id="a_node21"><a xlink:href="classscram_1_1mef_1_1HouseEvent.xhtml#a15ab4daf36b62127703cf610bdc80183" target="_top" xlink:title="Sets the state for House event. ">
<polygon fill="white" stroke="black" points="159.5,-98.5 159.5,-128.5 294.5,-128.5 294.5,-98.5 159.5,-98.5"/>
<text text-anchor="start" x="167.5" y="-116.5" font-family="Helvetica,sans-Serif" font-size="10.00">scram::mef::HouseEvent</text>
<text text-anchor="middle" x="227" y="-105.5" font-family="Helvetica,sans-Serif" font-size="10.00">::state</text>
</a>
</g>
</g>
<!-- Node1&#45;&gt;Node21 -->
<g id="edge24" class="edge"><title>Node1&#45;&gt;Node21</title>
<path fill="none" stroke="midnightblue" d="M60.3681,-404.883C62.3806,-365.884 75.1319,-217.838 154,-138.5 155.434,-137.057 156.956,-135.697 158.549,-134.416"/>
<polygon fill="midnightblue" stroke="midnightblue" points="160.742,-137.158 167.042,-128.64 156.805,-131.37 160.742,-137.158"/>
</g>
<!-- Node22 -->
<g id="node22" class="node"><title>Node22</title>
<g id="a_node22"><a xlink:href="classscram_1_1mef_1_1Formula.xhtml#aaf6992ab41ab8ae013211fd861e726db" target="_top" xlink:title="scram::mef::Formula\l::type">
<polygon fill="white" stroke="black" points="169,-49.5 169,-79.5 285,-79.5 285,-49.5 169,-49.5"/>
<text text-anchor="start" x="177" y="-67.5" font-family="Helvetica,sans-Serif" font-size="10.00">scram::mef::Formula</text>
<text text-anchor="middle" x="227" y="-56.5" font-family="Helvetica,sans-Serif" font-size="10.00">::type</text>
</a>
</g>
</g>
<!-- Node1&#45;&gt;Node22 -->
<g id="edge25" class="edge"><title>Node1&#45;&gt;Node22</title>
<path fill="none" stroke="midnightblue" d="M59.7563,-404.954C59.1901,-361.892 62.6354,-183.692 154,-88.5 155.876,-86.5453 157.915,-84.7498 160.079,-83.1005"/>
<polygon fill="midnightblue" stroke="midnightblue" points="162.413,-85.7634 168.964,-77.4364 158.65,-79.8608 162.413,-85.7634"/>
</g>
<!-- Node23 -->
<g id="node23" class="node"><title>Node23</title>
<g id="a_node23"><a xlink:href="classscram_1_1mef_1_1Formula.xhtml#a73f9de40978aad0665e3a6d95e85e7a2" target="_top" xlink:title="scram::mef::Formula\l::vote_number">
<polygon fill="white" stroke="black" points="169,-0.5 169,-30.5 285,-30.5 285,-0.5 169,-0.5"/>
<text text-anchor="start" x="177" y="-18.5" font-family="Helvetica,sans-Serif" font-size="10.00">scram::mef::Formula</text>
<text text-anchor="middle" x="227" y="-7.5" font-family="Helvetica,sans-Serif" font-size="10.00">::vote_number</text>
</a>
</g>
</g>
<!-- Node1&#45;&gt;Node23 -->
<g id="edge26" class="edge"><title>Node1&#45;&gt;Node23</title>
<path fill="none" stroke="midnightblue" d="M61.1732,-404.747C67.7644,-351.46 101.766,-95.8706 154,-39.5 155.841,-37.5127 157.852,-35.6898 159.992,-34.0177"/>
<polygon fill="midnightblue" stroke="midnightblue" points="162.33,-36.6723 168.806,-28.2872 158.514,-30.8035 162.33,-36.6723"/>
</g>
<!-- Node3 -->
<g id="node3" class="node"><title>Node3</title>
<g id="a_node3"><a xlink:href="classscram_1_1XmlStreamElement.xhtml#af62b9ffc844dba0b3fa143136dc5ac50" target="_top" xlink:title="Constructs a root streamer for the XML element data ready to accept attributes, elements, text. ">
<polygon fill="white" stroke="black" points="342,-810.5 342,-840.5 488,-840.5 488,-810.5 342,-810.5"/>
<text text-anchor="start" x="350" y="-828.5" font-family="Helvetica,sans-Serif" font-size="10.00">scram::XmlStreamElement</text>
<text text-anchor="middle" x="415" y="-817.5" font-family="Helvetica,sans-Serif" font-size="10.00">::XmlStreamElement</text>
</a>
</g>
</g>
<!-- Node2&#45;&gt;Node3 -->
<g id="edge2" class="edge"><title>Node2&#45;&gt;Node3</title>
<path fill="none" stroke="midnightblue" d="M300.179,-825.5C310.548,-825.5 321.282,-825.5 331.827,-825.5"/>
<polygon fill="midnightblue" stroke="midnightblue" points="331.862,-829 341.862,-825.5 331.862,-822 331.862,-829"/>
</g>
<!-- Node8 -->
<g id="node8" class="node"><title>Node8</title>
<g id="a_node8"><a xlink:href="classscram_1_1mef_1_1Component.xhtml#a29871b1caf2fb961509b42872e6b5213" target="_top" xlink:title="Adds MEF constructs into this component container. ">
<polygon fill="white" stroke="black" points="336,-724 336,-743 494,-743 494,-724 336,-724"/>
<text text-anchor="middle" x="415" y="-731" font-family="Helvetica,sans-Serif" font-size="10.00">scram::mef::Component::Add</text>
</a>
</g>
</g>
<!-- Node7&#45;&gt;Node8 -->
<g id="edge7" class="edge"><title>Node7&#45;&gt;Node8</title>
<path fill="none" stroke="midnightblue" d="M284.325,-644.62C289.925,-647.396 295.276,-650.662 300,-654.5 324.136,-674.11 310.957,-696.062 336,-714.5 338.638,-716.442 341.448,-718.187 344.378,-719.756"/>
<polygon fill="midnightblue" stroke="midnightblue" points="342.923,-722.94 353.47,-723.952 345.857,-716.584 342.923,-722.94"/>
</g>
<!-- Node9 -->
<g id="node9" class="node"><title>Node9</title>
<g id="a_node9"><a xlink:href="classscram_1_1mef_1_1Component.xhtml#ab9230b43d6903a2e26bf55f7584a1f56" target="_top" xlink:title="Removes Event from the component container. ">
<polygon fill="white" stroke="black" points="348,-674.5 348,-704.5 482,-704.5 482,-674.5 348,-674.5"/>
<text text-anchor="start" x="356" y="-692.5" font-family="Helvetica,sans-Serif" font-size="10.00">scram::mef::Component</text>
<text text-anchor="middle" x="415" y="-681.5" font-family="Helvetica,sans-Serif" font-size="10.00">::Remove</text>
</a>
</g>
</g>
<!-- Node7&#45;&gt;Node9 -->
<g id="edge8" class="edge"><title>Node7&#45;&gt;Node9</title>
<path fill="none" stroke="midnightblue" d="M272.325,-644.533C291.821,-651.079 315.014,-658.775 336,-665.5 342.021,-667.43 348.313,-669.416 354.598,-671.38"/>
<polygon fill="midnightblue" stroke="midnightblue" points="353.842,-674.81 364.431,-674.437 355.921,-668.126 353.842,-674.81"/>
</g>
<!-- Node10 -->
<g id="node10" class="node"><title>Node10</title>
<g id="a_node10"><a xlink:href="classscram_1_1mef_1_1Component.xhtml#a63441da08667fe6826f3ae0c0a5a94fe" target="_top" xlink:title="Recursively traverses components to gather gates relevant to the whole component. ...">
<polygon fill="white" stroke="black" points="348,-625.5 348,-655.5 482,-655.5 482,-625.5 348,-625.5"/>
<text text-anchor="start" x="356" y="-643.5" font-family="Helvetica,sans-Serif" font-size="10.00">scram::mef::Component</text>
<text text-anchor="middle" x="415" y="-632.5" font-family="Helvetica,sans-Serif" font-size="10.00">::GatherGates</text>
</a>
</g>
</g>
<!-- Node7&#45;&gt;Node10 -->
<g id="edge9" class="edge"><title>Node7&#45;&gt;Node10</title>
<path fill="none" stroke="midnightblue" d="M294.1,-633.409C308.132,-634.239 323.058,-635.122 337.442,-635.972"/>
<polygon fill="midnightblue" stroke="midnightblue" points="337.61,-639.488 347.799,-636.585 338.023,-632.501 337.61,-639.488"/>
</g>
<!-- Node7&#45;&gt;Node12 -->
<g id="edge11" class="edge"><title>Node7&#45;&gt;Node12</title>
<path fill="none" stroke="midnightblue" d="M294.1,-615.996C308.269,-613.101 323.348,-610.02 337.861,-607.055"/>
<polygon fill="midnightblue" stroke="midnightblue" points="338.702,-610.456 347.799,-605.025 337.301,-603.597 338.702,-610.456"/>
</g>
<!-- Node10&#45;&gt;Node11 -->
<g id="edge10" class="edge"><title>Node10&#45;&gt;Node11</title>
<path fill="none" stroke="midnightblue" d="M470.735,-625.5C487.288,-620.963 505.623,-615.939 522.765,-611.241"/>
<polygon fill="midnightblue" stroke="midnightblue" points="523.977,-614.538 532.697,-608.519 522.127,-607.787 523.977,-614.538"/>
</g>
<!-- Node14&#45;&gt;Node14 -->
<g id="edge14" class="edge"><title>Node14&#45;&gt;Node14</title>
<path fill="none" stroke="midnightblue" d="M197.723,-451.659C190.663,-461.057 200.422,-470 227,-470 243.196,-470 253.147,-466.679 256.852,-461.958"/>
<polygon fill="midnightblue" stroke="midnightblue" points="260.329,-461.449 256.277,-451.659 253.34,-461.838 260.329,-461.449"/>
</g>
</g>
</svg>
