<?xml version="1.0" encoding="UTF-8" standalone="no"?>
<!DOCTYPE svg PUBLIC "-//W3C//DTD SVG 1.1//EN"
 "http://www.w3.org/Graphics/SVG/1.1/DTD/svg11.dtd">
<!-- Generated by graphviz version 2.38.0 (20140413.2041)
 -->
<!-- Title: settings.cc Pages: 1 -->
<svg width="308pt" height="140pt"
 viewBox="0.00 0.00 307.50 140.00" xmlns="http://www.w3.org/2000/svg" xmlns:xlink="http://www.w3.org/1999/xlink">
<g id="graph0" class="graph" transform="scale(1 1) rotate(0) translate(4 136)">
<title>settings.cc</title>
<polygon fill="white" stroke="none" points="-4,4 -4,-136 303.5,-136 303.5,4 -4,4"/>
<!-- Node1 -->
<g id="node1" class="node"><title>Node1</title>
<polygon fill="#bfbfbf" stroke="black" points="120,-112.5 120,-131.5 188,-131.5 188,-112.5 120,-112.5"/>
<text text-anchor="middle" x="154" y="-119.5" font-family="Helvetica,sans-Serif" font-size="10.00">settings.cc</text>
</g>
<!-- Node2 -->
<g id="node2" class="node"><title>Node2</title>
<g id="a_node2"><a xlink:href="settings_8h.xhtml" target="_top" xlink:title="Builder for settings. ">
<polygon fill="white" stroke="black" points="0,-56.5 0,-75.5 64,-75.5 64,-56.5 0,-56.5"/>
<text text-anchor="middle" x="32" y="-63.5" font-family="Helvetica,sans-Serif" font-size="10.00">settings.h</text>
</a>
</g>
</g>
<!-- Node1&#45;&gt;Node2 -->
<g id="edge1" class="edge"><title>Node1&#45;&gt;Node2</title>
<path fill="none" stroke="midnightblue" d="M134.669,-112.444C114.68,-103.596 83.2569,-89.6875 60.4361,-79.5865"/>
<polygon fill="midnightblue" stroke="midnightblue" points="61.8018,-76.3635 51.2408,-75.5164 58.9685,-82.7645 61.8018,-76.3635"/>
</g>
<!-- Node5 -->
<g id="node5" class="node"><title>Node5</title>
<polygon fill="white" stroke="#bfbfbf" points="82,-56.5 82,-75.5 226,-75.5 226,-56.5 82,-56.5"/>
<text text-anchor="middle" x="154" y="-63.5" font-family="Helvetica,sans-Serif" font-size="10.00">boost/range/algorithm.hpp</text>
</g>
<!-- Node1&#45;&gt;Node5 -->
<g id="edge4" class="edge"><title>Node1&#45;&gt;Node5</title>
<path fill="none" stroke="midnightblue" d="M154,-112.083C154,-105.006 154,-94.8611 154,-85.9865"/>
<polygon fill="midnightblue" stroke="midnightblue" points="157.5,-85.751 154,-75.7511 150.5,-85.7511 157.5,-85.751"/>
</g>
<!-- Node6 -->
<g id="node6" class="node"><title>Node6</title>
<g id="a_node6"><a xlink:href="error_8h.xhtml" target="_top" xlink:title="Exceptions for SCRAM. ">
<polygon fill="white" stroke="black" points="244,-56.5 244,-75.5 292,-75.5 292,-56.5 244,-56.5"/>
<text text-anchor="middle" x="268" y="-63.5" font-family="Helvetica,sans-Serif" font-size="10.00">error.h</text>
</a>
</g>
</g>
<!-- Node1&#45;&gt;Node6 -->
<g id="edge5" class="edge"><title>Node1&#45;&gt;Node6</title>
<path fill="none" stroke="midnightblue" d="M172.064,-112.444C190.575,-103.675 219.581,-89.9355 240.855,-79.8579"/>
<polygon fill="midnightblue" stroke="midnightblue" points="242.482,-82.9604 250.021,-75.5164 239.485,-76.6343 242.482,-82.9604"/>
</g>
<!-- Node3 -->
<g id="node3" class="node"><title>Node3</title>
<polygon fill="white" stroke="#bfbfbf" points="7.5,-0.5 7.5,-19.5 56.5,-19.5 56.5,-0.5 7.5,-0.5"/>
<text text-anchor="middle" x="32" y="-7.5" font-family="Helvetica,sans-Serif" font-size="10.00">cstdint</text>
</g>
<!-- Node2&#45;&gt;Node3 -->
<g id="edge2" class="edge"><title>Node2&#45;&gt;Node3</title>
<path fill="none" stroke="midnightblue" d="M32,-56.083C32,-49.0059 32,-38.8611 32,-29.9865"/>
<polygon fill="midnightblue" stroke="midnightblue" points="35.5001,-29.751 32,-19.7511 28.5001,-29.7511 35.5001,-29.751"/>
</g>
<!-- Node4 -->
<g id="node4" class="node"><title>Node4</title>
<polygon fill="white" stroke="#bfbfbf" points="124,-0.5 124,-19.5 168,-19.5 168,-0.5 124,-0.5"/>
<text text-anchor="middle" x="146" y="-7.5" font-family="Helvetica,sans-Serif" font-size="10.00">string</text>
</g>
<!-- Node2&#45;&gt;Node4 -->
<g id="edge3" class="edge"><title>Node2&#45;&gt;Node4</title>
<path fill="none" stroke="midnightblue" d="M50.0636,-56.4435C68.5748,-47.6751 97.5807,-33.9355 118.855,-23.8579"/>
<polygon fill="midnightblue" stroke="midnightblue" points="120.482,-26.9604 128.021,-19.5164 117.485,-20.6343 120.482,-26.9604"/>
</g>
<!-- Node6&#45;&gt;Node4 -->
<g id="edge7" class="edge"><title>Node6&#45;&gt;Node4</title>
<path fill="none" stroke="midnightblue" d="M248.669,-56.4435C228.68,-47.5961 197.257,-33.6875 174.436,-23.5865"/>
<polygon fill="midnightblue" stroke="midnightblue" points="175.802,-20.3635 165.241,-19.5164 172.968,-26.7645 175.802,-20.3635"/>
</g>
<!-- Node7 -->
<g id="node7" class="node"><title>Node7</title>
<polygon fill="white" stroke="#bfbfbf" points="236.5,-0.5 236.5,-19.5 299.5,-19.5 299.5,-0.5 236.5,-0.5"/>
<text text-anchor="middle" x="268" y="-7.5" font-family="Helvetica,sans-Serif" font-size="10.00">exception</text>
</g>
<!-- Node6&#45;&gt;Node7 -->
<g id="edge6" class="edge"><title>Node6&#45;&gt;Node7</title>
<path fill="none" stroke="midnightblue" d="M268,-56.083C268,-49.0059 268,-38.8611 268,-29.9865"/>
<polygon fill="midnightblue" stroke="midnightblue" points="271.5,-29.751 268,-19.7511 264.5,-29.7511 271.5,-29.751"/>
</g>
</g>
</svg>
