<?xml version="1.0" encoding="UTF-8" standalone="no"?>
<!DOCTYPE svg PUBLIC "-//W3C//DTD SVG 1.1//EN"
 "http://www.w3.org/Graphics/SVG/1.1/DTD/svg11.dtd">
<!-- Generated by graphviz version 2.38.0 (20140413.2041)
 -->
<!-- Title: scram::ValidationError Pages: 1 -->
<svg width="582pt" height="414pt"
 viewBox="0.00 0.00 582.00 414.00" xmlns="http://www.w3.org/2000/svg" xmlns:xlink="http://www.w3.org/1999/xlink">
<g id="graph0" class="graph" transform="scale(1 1) rotate(0) translate(4 410)">
<title>scram::ValidationError</title>
<polygon fill="white" stroke="none" points="-4,4 -4,-410 578,-410 578,4 -4,4"/>
<!-- Node1 -->
<g id="node1" class="node"><title>Node1</title>
<polygon fill="#bfbfbf" stroke="black" points="209.5,-105.5 209.5,-162.5 331.5,-162.5 331.5,-105.5 209.5,-105.5"/>
<text text-anchor="middle" x="270.5" y="-150.5" font-family="Helvetica,sans-Serif" font-size="10.00">scram::ValidationError</text>
<polyline fill="none" stroke="black" points="209.5,-143.5 331.5,-143.5 "/>
<text text-anchor="middle" x="270.5" y="-131.5" font-family="Helvetica,sans-Serif" font-size="10.00"> </text>
<polyline fill="none" stroke="black" points="209.5,-124.5 331.5,-124.5 "/>
<text text-anchor="middle" x="270.5" y="-112.5" font-family="Helvetica,sans-Serif" font-size="10.00"> </text>
</g>
<!-- Node4 -->
<g id="node4" class="node"><title>Node4</title>
<g id="a_node4"><a xlink:href="structscram_1_1CycleError.xhtml" target="_top" xlink:title="Signals unacceptable cycles in invalid structures. ">
<polygon fill="white" stroke="black" points="0,-6 0,-63 101,-63 101,-6 0,-6"/>
<text text-anchor="middle" x="50.5" y="-51" font-family="Helvetica,sans-Serif" font-size="10.00">scram::CycleError</text>
<polyline fill="none" stroke="black" points="0,-44 101,-44 "/>
<text text-anchor="middle" x="50.5" y="-32" font-family="Helvetica,sans-Serif" font-size="10.00"> </text>
<polyline fill="none" stroke="black" points="0,-25 101,-25 "/>
<text text-anchor="middle" x="50.5" y="-13" font-family="Helvetica,sans-Serif" font-size="10.00"> </text>
</a>
</g>
</g>
<!-- Node1&#45;&gt;Node4 -->
<g id="edge3" class="edge"><title>Node1&#45;&gt;Node4</title>
<path fill="none" stroke="midnightblue" d="M199.931,-107.031C171.762,-96.0821 139.252,-82.7069 110.5,-69 106.623,-67.1518 102.65,-65.1609 98.6846,-63.104"/>
<polygon fill="none" stroke="midnightblue" points="198.717,-110.314 209.306,-110.648 201.236,-103.783 198.717,-110.314"/>
</g>
<!-- Node5 -->
<g id="node5" class="node"><title>Node5</title>
<g id="a_node5"><a xlink:href="structscram_1_1DuplicateArgumentError.xhtml" target="_top" xlink:title="This error indicates that arguments must be unique. ">
<polygon fill="white" stroke="black" points="119.5,-0.5 119.5,-68.5 265.5,-68.5 265.5,-0.5 119.5,-0.5"/>
<text text-anchor="start" x="127.5" y="-56.5" font-family="Helvetica,sans-Serif" font-size="10.00">scram::DuplicateArgument</text>
<text text-anchor="middle" x="192.5" y="-45.5" font-family="Helvetica,sans-Serif" font-size="10.00">Error</text>
<polyline fill="none" stroke="black" points="119.5,-38.5 265.5,-38.5 "/>
<text text-anchor="middle" x="192.5" y="-26.5" font-family="Helvetica,sans-Serif" font-size="10.00"> </text>
<polyline fill="none" stroke="black" points="119.5,-19.5 265.5,-19.5 "/>
<text text-anchor="middle" x="192.5" y="-7.5" font-family="Helvetica,sans-Serif" font-size="10.00"> </text>
</a>
</g>
</g>
<!-- Node1&#45;&gt;Node5 -->
<g id="edge4" class="edge"><title>Node1&#45;&gt;Node5</title>
<path fill="none" stroke="midnightblue" d="M241.97,-97.3377C234.506,-88.0075 226.489,-77.9866 219.128,-68.7855"/>
<polygon fill="none" stroke="midnightblue" points="239.377,-99.6989 248.357,-105.321 244.843,-95.3261 239.377,-99.6989"/>
</g>
<!-- Node6 -->
<g id="node6" class="node"><title>Node6</title>
<g id="a_node6"><a xlink:href="structscram_1_1RedefinitionError.xhtml" target="_top" xlink:title="For cases when events or practically anything is redefined. ">
<polygon fill="white" stroke="black" points="284,-6 284,-63 415,-63 415,-6 284,-6"/>
<text text-anchor="middle" x="349.5" y="-51" font-family="Helvetica,sans-Serif" font-size="10.00">scram::RedefinitionError</text>
<polyline fill="none" stroke="black" points="284,-44 415,-44 "/>
<text text-anchor="middle" x="349.5" y="-32" font-family="Helvetica,sans-Serif" font-size="10.00"> </text>
<polyline fill="none" stroke="black" points="284,-25 415,-25 "/>
<text text-anchor="middle" x="349.5" y="-13" font-family="Helvetica,sans-Serif" font-size="10.00"> </text>
</a>
</g>
</g>
<!-- Node1&#45;&gt;Node6 -->
<g id="edge5" class="edge"><title>Node1&#45;&gt;Node6</title>
<path fill="none" stroke="midnightblue" d="M299.387,-97.3489C308.497,-86.1046 318.422,-73.8561 327.017,-63.248"/>
<polygon fill="none" stroke="midnightblue" points="296.503,-95.3481 292.927,-105.321 301.942,-99.7549 296.503,-95.3481"/>
</g>
<!-- Node7 -->
<g id="node7" class="node"><title>Node7</title>
<g id="a_node7"><a xlink:href="structscram_1_1UndefinedElement.xhtml" target="_top" xlink:title="The error for undefined elements in a model. ">
<polygon fill="white" stroke="black" points="433,-6 433,-63 574,-63 574,-6 433,-6"/>
<text text-anchor="middle" x="503.5" y="-51" font-family="Helvetica,sans-Serif" font-size="10.00">scram::UndefinedElement</text>
<polyline fill="none" stroke="black" points="433,-44 574,-44 "/>
<text text-anchor="middle" x="503.5" y="-32" font-family="Helvetica,sans-Serif" font-size="10.00"> </text>
<polyline fill="none" stroke="black" points="433,-25 574,-25 "/>
<text text-anchor="middle" x="503.5" y="-13" font-family="Helvetica,sans-Serif" font-size="10.00"> </text>
</a>
</g>
</g>
<!-- Node1&#45;&gt;Node7 -->
<g id="edge6" class="edge"><title>Node1&#45;&gt;Node7</title>
<path fill="none" stroke="midnightblue" d="M341.095,-103.787C367.305,-92.9078 397.276,-80.4288 424.5,-69 429.033,-67.097 433.71,-65.128 438.419,-63.1416"/>
<polygon fill="none" stroke="midnightblue" points="339.516,-100.653 331.621,-107.718 342.198,-107.118 339.516,-100.653"/>
</g>
<!-- Node2 -->
<g id="node2" class="node"><title>Node2</title>
<g id="a_node2"><a xlink:href="classscram_1_1Error.xhtml" target="_top" xlink:title="The Error class is the base class for common exceptions specific to the SCRAM code. ">
<polygon fill="white" stroke="black" points="232.5,-199.5 232.5,-311.5 308.5,-311.5 308.5,-199.5 232.5,-199.5"/>
<text text-anchor="middle" x="270.5" y="-299.5" font-family="Helvetica,sans-Serif" font-size="10.00">scram::Error</text>
<polyline fill="none" stroke="black" points="232.5,-292.5 308.5,-292.5 "/>
<text text-anchor="middle" x="270.5" y="-280.5" font-family="Helvetica,sans-Serif" font-size="10.00"> </text>
<polyline fill="none" stroke="black" points="232.5,-273.5 308.5,-273.5 "/>
<text text-anchor="start" x="240.5" y="-261.5" font-family="Helvetica,sans-Serif" font-size="10.00">+ Error()</text>
<text text-anchor="start" x="240.5" y="-250.5" font-family="Helvetica,sans-Serif" font-size="10.00">+ Error()</text>
<text text-anchor="start" x="240.5" y="-239.5" font-family="Helvetica,sans-Serif" font-size="10.00">+ ~Error()</text>
<text text-anchor="start" x="240.5" y="-228.5" font-family="Helvetica,sans-Serif" font-size="10.00">+ what()</text>
<text text-anchor="start" x="240.5" y="-217.5" font-family="Helvetica,sans-Serif" font-size="10.00">+ msg()</text>
<text text-anchor="start" x="240.5" y="-206.5" font-family="Helvetica,sans-Serif" font-size="10.00">+ msg()</text>
</a>
</g>
</g>
<!-- Node2&#45;&gt;Node1 -->
<g id="edge1" class="edge"><title>Node2&#45;&gt;Node1</title>
<path fill="none" stroke="midnightblue" d="M270.5,-189.146C270.5,-179.817 270.5,-170.672 270.5,-162.631"/>
<polygon fill="none" stroke="midnightblue" points="267,-189.297 270.5,-199.297 274,-189.297 267,-189.297"/>
</g>
<!-- Node3 -->
<g id="node3" class="node"><title>Node3</title>
<polygon fill="white" stroke="#bfbfbf" points="228.5,-348.5 228.5,-405.5 312.5,-405.5 312.5,-348.5 228.5,-348.5"/>
<text text-anchor="middle" x="270.5" y="-393.5" font-family="Helvetica,sans-Serif" font-size="10.00">std::exception</text>
<polyline fill="none" stroke="#bfbfbf" points="228.5,-386.5 312.5,-386.5 "/>
<text text-anchor="middle" x="270.5" y="-374.5" font-family="Helvetica,sans-Serif" font-size="10.00"> </text>
<polyline fill="none" stroke="#bfbfbf" points="228.5,-367.5 312.5,-367.5 "/>
<text text-anchor="middle" x="270.5" y="-355.5" font-family="Helvetica,sans-Serif" font-size="10.00"> </text>
</g>
<!-- Node3&#45;&gt;Node2 -->
<g id="edge2" class="edge"><title>Node3&#45;&gt;Node2</title>
<path fill="none" stroke="midnightblue" d="M270.5,-338.108C270.5,-329.748 270.5,-320.725 270.5,-311.834"/>
<polygon fill="none" stroke="midnightblue" points="267,-338.284 270.5,-348.284 274,-338.284 267,-338.284"/>
</g>
</g>
</svg>
