<?xml version="1.0" encoding="UTF-8" standalone="no"?>
<!DOCTYPE svg PUBLIC "-//W3C//DTD SVG 1.1//EN"
 "http://www.w3.org/Graphics/SVG/1.1/DTD/svg11.dtd">
<!-- Generated by graphviz version 2.38.0 (20140413.2041)
 -->
<!-- Title: scram::mef::Initializer::Extractor&lt; T,&#45;1 &gt;::operator() Pages: 1 -->
<svg width="511pt" height="421pt"
 viewBox="0.00 0.00 511.00 420.50" xmlns="http://www.w3.org/2000/svg" xmlns:xlink="http://www.w3.org/1999/xlink">
<g id="graph0" class="graph" transform="scale(1 1) rotate(0) translate(4 416.5)">
<title>scram::mef::Initializer::Extractor&lt; T,&#45;1 &gt;::operator()</title>
<polygon fill="white" stroke="none" points="-4,4 -4,-416.5 507,-416.5 507,4 -4,4"/>
<!-- Node1 -->
<g id="node1" class="node"><title>Node1</title>
<polygon fill="#bfbfbf" stroke="black" points="0,-177 0,-207 161,-207 161,-177 0,-177"/>
<text text-anchor="start" x="8" y="-195" font-family="Helvetica,sans-Serif" font-size="10.00">scram::mef::Initializer</text>
<text text-anchor="middle" x="80.5" y="-184" font-family="Helvetica,sans-Serif" font-size="10.00">::Extractor&lt; T,&#45;1 &gt;::operator()</text>
</g>
<!-- Node2 -->
<g id="node2" class="node"><title>Node2</title>
<g id="a_node2"><a xlink:href="classscram_1_1mef_1_1CcfGroup.xhtml#ab6ec2054de2a2d97fce880af77a05066" target="_top" xlink:title="Adds a CCF factor for the specified model. ">
<polygon fill="white" stroke="black" points="212.5,-382 212.5,-412 334.5,-412 334.5,-382 212.5,-382"/>
<text text-anchor="start" x="220.5" y="-400" font-family="Helvetica,sans-Serif" font-size="10.00">scram::mef::CcfGroup</text>
<text text-anchor="middle" x="273.5" y="-389" font-family="Helvetica,sans-Serif" font-size="10.00">::AddFactor</text>
</a>
</g>
</g>
<!-- Node1&#45;&gt;Node2 -->
<g id="edge1" class="edge"><title>Node1&#45;&gt;Node2</title>
<path fill="none" stroke="midnightblue" d="M86.9768,-207.151C100.272,-241.8 137.594,-327.341 197,-373 199.052,-374.577 201.209,-376.051 203.446,-377.43"/>
<polygon fill="midnightblue" stroke="midnightblue" points="201.954,-380.602 212.413,-382.289 205.288,-374.448 201.954,-380.602"/>
</g>
<!-- Node4 -->
<g id="node4" class="node"><title>Node4</title>
<g id="a_node4"><a xlink:href="classscram_1_1mef_1_1CcfGroup.xhtml#a9d6dbf5a3154a1537a806e7f3993c710" target="_top" xlink:title="Adds a basic event into this CCF group. ">
<polygon fill="white" stroke="black" points="212.5,-333 212.5,-363 334.5,-363 334.5,-333 212.5,-333"/>
<text text-anchor="start" x="220.5" y="-351" font-family="Helvetica,sans-Serif" font-size="10.00">scram::mef::CcfGroup</text>
<text text-anchor="middle" x="273.5" y="-340" font-family="Helvetica,sans-Serif" font-size="10.00">::AddMember</text>
</a>
</g>
</g>
<!-- Node1&#45;&gt;Node4 -->
<g id="edge3" class="edge"><title>Node1&#45;&gt;Node4</title>
<path fill="none" stroke="midnightblue" d="M90.9889,-207.298C108.596,-234.462 148.938,-291.237 197,-323 200.06,-325.022 203.297,-326.894 206.643,-328.624"/>
<polygon fill="midnightblue" stroke="midnightblue" points="205.165,-331.797 215.704,-332.883 208.142,-325.462 205.165,-331.797"/>
</g>
<!-- Node5 -->
<g id="node5" class="node"><title>Node5</title>
<g id="a_node5"><a xlink:href="classscram_1_1mef_1_1Role.xhtml#ab91a51488ee8c4ed054de1e8450c8a59" target="_top" xlink:title="scram::mef::Role::base_path">
<polygon fill="white" stroke="black" points="197,-294.5 197,-313.5 350,-313.5 350,-294.5 197,-294.5"/>
<text text-anchor="middle" x="273.5" y="-301.5" font-family="Helvetica,sans-Serif" font-size="10.00">scram::mef::Role::base_path</text>
</a>
</g>
</g>
<!-- Node1&#45;&gt;Node5 -->
<g id="edge5" class="edge"><title>Node1&#45;&gt;Node5</title>
<path fill="none" stroke="midnightblue" d="M96.0566,-207.298C116.613,-228.001 156.214,-264.68 197,-285 201.839,-287.411 207.009,-289.532 212.289,-291.396"/>
<polygon fill="midnightblue" stroke="midnightblue" points="211.271,-294.745 221.863,-294.478 213.417,-288.082 211.271,-294.745"/>
</g>
<!-- Node6 -->
<g id="node6" class="node"><title>Node6</title>
<g id="a_node6"><a xlink:href="xml_8h.xhtml#a0c5491388e25d1f1badb26b56ef302e7" target="_top" xlink:title="Returns Normalized (trimmed) string value of an XML element attribute. ">
<polygon fill="white" stroke="black" points="204.5,-238.5 204.5,-257.5 342.5,-257.5 342.5,-238.5 204.5,-238.5"/>
<text text-anchor="middle" x="273.5" y="-245.5" font-family="Helvetica,sans-Serif" font-size="10.00">scram::GetAttributeValue</text>
</a>
</g>
</g>
<!-- Node1&#45;&gt;Node6 -->
<g id="edge6" class="edge"><title>Node1&#45;&gt;Node6</title>
<path fill="none" stroke="midnightblue" d="M126.276,-207.074C147.598,-214.065 173.515,-222.291 197,-229 205.22,-231.348 213.987,-233.696 222.529,-235.9"/>
<polygon fill="midnightblue" stroke="midnightblue" points="221.853,-239.34 232.407,-238.413 223.579,-232.556 221.853,-239.34"/>
</g>
<!-- Node7 -->
<g id="node7" class="node"><title>Node7</title>
<g id="a_node7"><a xlink:href="xml_8h.xhtml#a0f074705681d730dcd5fb6035e91f30f" target="_top" xlink:title="Returns XML line number message. ">
<polygon fill="white" stroke="black" points="229,-182.5 229,-201.5 318,-201.5 318,-182.5 229,-182.5"/>
<text text-anchor="middle" x="273.5" y="-189.5" font-family="Helvetica,sans-Serif" font-size="10.00">scram::GetLine</text>
</a>
</g>
</g>
<!-- Node1&#45;&gt;Node7 -->
<g id="edge8" class="edge"><title>Node1&#45;&gt;Node7</title>
<path fill="none" stroke="midnightblue" d="M161.118,-192C180.542,-192 200.867,-192 218.758,-192"/>
<polygon fill="midnightblue" stroke="midnightblue" points="218.985,-195.5 228.985,-192 218.985,-188.5 218.985,-195.5"/>
</g>
<!-- Node8 -->
<g id="node8" class="node"><title>Node8</title>
<g id="a_node8"><a xlink:href="classscram_1_1Error.xhtml#a35818dcc7c8dde101d4fd117adf47bc3" target="_top" xlink:title="scram::Error::msg">
<polygon fill="white" stroke="black" points="222,-144.5 222,-163.5 325,-163.5 325,-144.5 222,-144.5"/>
<text text-anchor="middle" x="273.5" y="-151.5" font-family="Helvetica,sans-Serif" font-size="10.00">scram::Error::msg</text>
</a>
</g>
</g>
<!-- Node1&#45;&gt;Node8 -->
<g id="edge10" class="edge"><title>Node1&#45;&gt;Node8</title>
<path fill="none" stroke="midnightblue" d="M156.988,-176.981C176.256,-173.148 196.662,-169.088 214.874,-165.465"/>
<polygon fill="midnightblue" stroke="midnightblue" points="215.621,-168.885 224.745,-163.501 214.255,-162.02 215.621,-168.885"/>
</g>
<!-- Node9 -->
<g id="node9" class="node"><title>Node9</title>
<g id="a_node9"><a xlink:href="classscram_1_1mef_1_1Role.xhtml#aa1843c29411c29b27d79414d34525bbc" target="_top" xlink:title="scram::mef::Role::role">
<polygon fill="white" stroke="black" points="213,-106.5 213,-125.5 334,-125.5 334,-106.5 213,-106.5"/>
<text text-anchor="middle" x="273.5" y="-113.5" font-family="Helvetica,sans-Serif" font-size="10.00">scram::mef::Role::role</text>
</a>
</g>
</g>
<!-- Node1&#45;&gt;Node9 -->
<g id="edge11" class="edge"><title>Node1&#45;&gt;Node9</title>
<path fill="none" stroke="midnightblue" d="M107.859,-176.982C130.821,-164.393 165.311,-146.657 197,-135 203.802,-132.498 211.068,-130.21 218.304,-128.157"/>
<polygon fill="midnightblue" stroke="midnightblue" points="219.368,-131.495 228.107,-125.504 217.54,-124.738 219.368,-131.495"/>
</g>
<!-- Node10 -->
<g id="node10" class="node"><title>Node10</title>
<g id="a_node10"><a xlink:href="classscram_1_1mef_1_1Usage.xhtml#ae2ee222f7ce6cd4660567ce97d551222" target="_top" xlink:title="scram::mef::Usage::\lusage">
<polygon fill="white" stroke="black" points="216.5,-57 216.5,-87 330.5,-87 330.5,-57 216.5,-57"/>
<text text-anchor="start" x="224.5" y="-75" font-family="Helvetica,sans-Serif" font-size="10.00">scram::mef::Usage::</text>
<text text-anchor="middle" x="273.5" y="-64" font-family="Helvetica,sans-Serif" font-size="10.00">usage</text>
</a>
</g>
</g>
<!-- Node1&#45;&gt;Node10 -->
<g id="edge12" class="edge"><title>Node1&#45;&gt;Node10</title>
<path fill="none" stroke="midnightblue" d="M96.2124,-176.784C116.95,-156.113 156.76,-119.195 197,-97 200.914,-94.841 205.046,-92.8283 209.278,-90.9594"/>
<polygon fill="midnightblue" stroke="midnightblue" points="210.742,-94.1416 218.655,-87.0966 208.076,-87.6691 210.742,-94.1416"/>
</g>
<!-- Node11 -->
<g id="node11" class="node"><title>Node11</title>
<g id="a_node11"><a xlink:href="xml_8h.xhtml#ab908f9834f69be3009ee07445b51a673" target="_top" xlink:title="Helper function to statically cast to XML element. ">
<polygon fill="white" stroke="black" points="218.5,-0.5 218.5,-19.5 328.5,-19.5 328.5,-0.5 218.5,-0.5"/>
<text text-anchor="middle" x="273.5" y="-7.5" font-family="Helvetica,sans-Serif" font-size="10.00">scram::XmlElement</text>
</a>
</g>
</g>
<!-- Node1&#45;&gt;Node11 -->
<g id="edge13" class="edge"><title>Node1&#45;&gt;Node11</title>
<path fill="none" stroke="midnightblue" d="M90.5797,-176.759C108.119,-148.359 149.175,-86.717 197,-48 209.115,-38.1926 224.174,-29.9818 237.649,-23.731"/>
<polygon fill="midnightblue" stroke="midnightblue" points="239.394,-26.7857 247.116,-19.5312 236.555,-20.3871 239.394,-26.7857"/>
</g>
<!-- Node3 -->
<g id="node3" class="node"><title>Node3</title>
<g id="a_node3"><a xlink:href="classscram_1_1mef_1_1Element.xhtml#adb401e2ca84aa98cb60797bec2500a81" target="_top" xlink:title="scram::mef::Element\l::name">
<polygon fill="white" stroke="black" points="386,-357 386,-387 503,-387 503,-357 386,-357"/>
<text text-anchor="start" x="394" y="-375" font-family="Helvetica,sans-Serif" font-size="10.00">scram::mef::Element</text>
<text text-anchor="middle" x="444.5" y="-364" font-family="Helvetica,sans-Serif" font-size="10.00">::name</text>
</a>
</g>
</g>
<!-- Node2&#45;&gt;Node3 -->
<g id="edge2" class="edge"><title>Node2&#45;&gt;Node3</title>
<path fill="none" stroke="midnightblue" d="M334.559,-388.116C347.865,-386.147 362.056,-384.048 375.648,-382.037"/>
<polygon fill="midnightblue" stroke="midnightblue" points="376.521,-385.446 385.901,-380.521 375.496,-378.522 376.521,-385.446"/>
</g>
<!-- Node4&#45;&gt;Node3 -->
<g id="edge4" class="edge"><title>Node4&#45;&gt;Node3</title>
<path fill="none" stroke="midnightblue" d="M334.559,-356.529C347.865,-358.419 362.056,-360.434 375.648,-362.364"/>
<polygon fill="midnightblue" stroke="midnightblue" points="375.508,-365.879 385.901,-363.82 376.492,-358.949 375.508,-365.879"/>
</g>
<!-- Node6&#45;&gt;Node6 -->
<g id="edge7" class="edge"><title>Node6&#45;&gt;Node6</title>
<path fill="none" stroke="midnightblue" d="M247.298,-257.757C234.551,-266.565 243.285,-276 273.5,-276 293.801,-276 304.404,-271.741 305.311,-266.275"/>
<polygon fill="midnightblue" stroke="midnightblue" points="308.125,-264.184 299.702,-257.757 302.279,-268.034 308.125,-264.184"/>
</g>
<!-- Node7&#45;&gt;Node7 -->
<g id="edge9" class="edge"><title>Node7&#45;&gt;Node7</title>
<path fill="none" stroke="midnightblue" d="M247.298,-201.757C234.551,-210.565 243.285,-220 273.5,-220 293.801,-220 304.404,-215.741 305.311,-210.275"/>
<polygon fill="midnightblue" stroke="midnightblue" points="308.125,-208.184 299.702,-201.757 302.279,-212.034 308.125,-208.184"/>
</g>
<!-- Node11&#45;&gt;Node11 -->
<g id="edge14" class="edge"><title>Node11&#45;&gt;Node11</title>
<path fill="none" stroke="midnightblue" d="M247.298,-19.7571C234.551,-28.5653 243.285,-38 273.5,-38 293.801,-38 304.404,-33.741 305.311,-28.2746"/>
<polygon fill="midnightblue" stroke="midnightblue" points="308.125,-26.1836 299.702,-19.7571 302.279,-30.0337 308.125,-26.1836"/>
</g>
</g>
</svg>
