<?xml version="1.0" encoding="UTF-8" standalone="no"?>
<!DOCTYPE svg PUBLIC "-//W3C//DTD SVG 1.1//EN"
 "http://www.w3.org/Graphics/SVG/1.1/DTD/svg11.dtd">
<!-- Generated by graphviz version 2.38.0 (20140413.2041)
 -->
<!-- Title: scram::LogicError Pages: 1 -->
<svg width="109pt" height="309pt"
 viewBox="0.00 0.00 109.00 309.00" xmlns="http://www.w3.org/2000/svg" xmlns:xlink="http://www.w3.org/1999/xlink">
<g id="graph0" class="graph" transform="scale(1 1) rotate(0) translate(4 305)">
<title>scram::LogicError</title>
<polygon fill="white" stroke="none" points="-4,4 -4,-305 105,-305 105,4 -4,4"/>
<!-- Node1 -->
<g id="node1" class="node"><title>Node1</title>
<polygon fill="#bfbfbf" stroke="black" points="0,-0.5 0,-57.5 101,-57.5 101,-0.5 0,-0.5"/>
<text text-anchor="middle" x="50.5" y="-45.5" font-family="Helvetica,sans-Serif" font-size="10.00">scram::LogicError</text>
<polyline fill="none" stroke="black" points="0,-38.5 101,-38.5 "/>
<text text-anchor="middle" x="50.5" y="-26.5" font-family="Helvetica,sans-Serif" font-size="10.00"> </text>
<polyline fill="none" stroke="black" points="0,-19.5 101,-19.5 "/>
<text text-anchor="middle" x="50.5" y="-7.5" font-family="Helvetica,sans-Serif" font-size="10.00"> </text>
</g>
<!-- Node2 -->
<g id="node2" class="node"><title>Node2</title>
<g id="a_node2"><a xlink:href="classscram_1_1Error.xhtml" target="_top" xlink:title="The Error class is the base class for common exceptions specific to the SCRAM code. ">
<polygon fill="white" stroke="black" points="12.5,-94.5 12.5,-206.5 88.5,-206.5 88.5,-94.5 12.5,-94.5"/>
<text text-anchor="middle" x="50.5" y="-194.5" font-family="Helvetica,sans-Serif" font-size="10.00">scram::Error</text>
<polyline fill="none" stroke="black" points="12.5,-187.5 88.5,-187.5 "/>
<text text-anchor="middle" x="50.5" y="-175.5" font-family="Helvetica,sans-Serif" font-size="10.00"> </text>
<polyline fill="none" stroke="black" points="12.5,-168.5 88.5,-168.5 "/>
<text text-anchor="start" x="20.5" y="-156.5" font-family="Helvetica,sans-Serif" font-size="10.00">+ Error()</text>
<text text-anchor="start" x="20.5" y="-145.5" font-family="Helvetica,sans-Serif" font-size="10.00">+ Error()</text>
<text text-anchor="start" x="20.5" y="-134.5" font-family="Helvetica,sans-Serif" font-size="10.00">+ ~Error()</text>
<text text-anchor="start" x="20.5" y="-123.5" font-family="Helvetica,sans-Serif" font-size="10.00">+ what()</text>
<text text-anchor="start" x="20.5" y="-112.5" font-family="Helvetica,sans-Serif" font-size="10.00">+ msg()</text>
<text text-anchor="start" x="20.5" y="-101.5" font-family="Helvetica,sans-Serif" font-size="10.00">+ msg()</text>
</a>
</g>
</g>
<!-- Node2&#45;&gt;Node1 -->
<g id="edge1" class="edge"><title>Node2&#45;&gt;Node1</title>
<path fill="none" stroke="midnightblue" d="M50.5,-84.146C50.5,-74.8172 50.5,-65.6722 50.5,-57.6315"/>
<polygon fill="none" stroke="midnightblue" points="47.0001,-84.2973 50.5,-94.2974 54.0001,-84.2974 47.0001,-84.2973"/>
</g>
<!-- Node3 -->
<g id="node3" class="node"><title>Node3</title>
<polygon fill="white" stroke="#bfbfbf" points="8.5,-243.5 8.5,-300.5 92.5,-300.5 92.5,-243.5 8.5,-243.5"/>
<text text-anchor="middle" x="50.5" y="-288.5" font-family="Helvetica,sans-Serif" font-size="10.00">std::exception</text>
<polyline fill="none" stroke="#bfbfbf" points="8.5,-281.5 92.5,-281.5 "/>
<text text-anchor="middle" x="50.5" y="-269.5" font-family="Helvetica,sans-Serif" font-size="10.00"> </text>
<polyline fill="none" stroke="#bfbfbf" points="8.5,-262.5 92.5,-262.5 "/>
<text text-anchor="middle" x="50.5" y="-250.5" font-family="Helvetica,sans-Serif" font-size="10.00"> </text>
</g>
<!-- Node3&#45;&gt;Node2 -->
<g id="edge2" class="edge"><title>Node3&#45;&gt;Node2</title>
<path fill="none" stroke="midnightblue" d="M50.5,-233.108C50.5,-224.748 50.5,-215.725 50.5,-206.834"/>
<polygon fill="none" stroke="midnightblue" points="47.0001,-233.284 50.5,-243.284 54.0001,-233.284 47.0001,-233.284"/>
</g>
</g>
</svg>
