<?xml version="1.0" encoding="UTF-8" standalone="no"?>
<!DOCTYPE svg PUBLIC "-//W3C//DTD SVG 1.1//EN"
 "http://www.w3.org/Graphics/SVG/1.1/DTD/svg11.dtd">
<!-- Generated by graphviz version 2.38.0 (20140413.2041)
 -->
<!-- Title: scram::CycleError Pages: 1 -->
<svg width="130pt" height="403pt"
 viewBox="0.00 0.00 130.00 403.00" xmlns="http://www.w3.org/2000/svg" xmlns:xlink="http://www.w3.org/1999/xlink">
<g id="graph0" class="graph" transform="scale(1 1) rotate(0) translate(4 399)">
<title>scram::CycleError</title>
<polygon fill="white" stroke="none" points="-4,4 -4,-399 126,-399 126,4 -4,4"/>
<!-- Node1 -->
<g id="node1" class="node"><title>Node1</title>
<polygon fill="#bfbfbf" stroke="black" points="10.5,-0.5 10.5,-57.5 111.5,-57.5 111.5,-0.5 10.5,-0.5"/>
<text text-anchor="middle" x="61" y="-45.5" font-family="Helvetica,sans-Serif" font-size="10.00">scram::CycleError</text>
<polyline fill="none" stroke="black" points="10.5,-38.5 111.5,-38.5 "/>
<text text-anchor="middle" x="61" y="-26.5" font-family="Helvetica,sans-Serif" font-size="10.00"> </text>
<polyline fill="none" stroke="black" points="10.5,-19.5 111.5,-19.5 "/>
<text text-anchor="middle" x="61" y="-7.5" font-family="Helvetica,sans-Serif" font-size="10.00"> </text>
</g>
<!-- Node2 -->
<g id="node2" class="node"><title>Node2</title>
<g id="a_node2"><a xlink:href="structscram_1_1ValidationError.xhtml" target="_top" xlink:title="For validating input parameters or user arguments. ">
<polygon fill="white" stroke="black" points="0,-94.5 0,-151.5 122,-151.5 122,-94.5 0,-94.5"/>
<text text-anchor="middle" x="61" y="-139.5" font-family="Helvetica,sans-Serif" font-size="10.00">scram::ValidationError</text>
<polyline fill="none" stroke="black" points="0,-132.5 122,-132.5 "/>
<text text-anchor="middle" x="61" y="-120.5" font-family="Helvetica,sans-Serif" font-size="10.00"> </text>
<polyline fill="none" stroke="black" points="0,-113.5 122,-113.5 "/>
<text text-anchor="middle" x="61" y="-101.5" font-family="Helvetica,sans-Serif" font-size="10.00"> </text>
</a>
</g>
</g>
<!-- Node2&#45;&gt;Node1 -->
<g id="edge1" class="edge"><title>Node2&#45;&gt;Node1</title>
<path fill="none" stroke="midnightblue" d="M61,-84.2092C61,-75.2929 61,-65.9513 61,-57.5836"/>
<polygon fill="none" stroke="midnightblue" points="57.5001,-84.3969 61,-94.397 64.5001,-84.397 57.5001,-84.3969"/>
</g>
<!-- Node3 -->
<g id="node3" class="node"><title>Node3</title>
<g id="a_node3"><a xlink:href="classscram_1_1Error.xhtml" target="_top" xlink:title="The Error class is the base class for common exceptions specific to the SCRAM code. ">
<polygon fill="white" stroke="black" points="23,-188.5 23,-300.5 99,-300.5 99,-188.5 23,-188.5"/>
<text text-anchor="middle" x="61" y="-288.5" font-family="Helvetica,sans-Serif" font-size="10.00">scram::Error</text>
<polyline fill="none" stroke="black" points="23,-281.5 99,-281.5 "/>
<text text-anchor="middle" x="61" y="-269.5" font-family="Helvetica,sans-Serif" font-size="10.00"> </text>
<polyline fill="none" stroke="black" points="23,-262.5 99,-262.5 "/>
<text text-anchor="start" x="31" y="-250.5" font-family="Helvetica,sans-Serif" font-size="10.00">+ Error()</text>
<text text-anchor="start" x="31" y="-239.5" font-family="Helvetica,sans-Serif" font-size="10.00">+ Error()</text>
<text text-anchor="start" x="31" y="-228.5" font-family="Helvetica,sans-Serif" font-size="10.00">+ ~Error()</text>
<text text-anchor="start" x="31" y="-217.5" font-family="Helvetica,sans-Serif" font-size="10.00">+ what()</text>
<text text-anchor="start" x="31" y="-206.5" font-family="Helvetica,sans-Serif" font-size="10.00">+ msg()</text>
<text text-anchor="start" x="31" y="-195.5" font-family="Helvetica,sans-Serif" font-size="10.00">+ msg()</text>
</a>
</g>
</g>
<!-- Node3&#45;&gt;Node2 -->
<g id="edge2" class="edge"><title>Node3&#45;&gt;Node2</title>
<path fill="none" stroke="midnightblue" d="M61,-178.146C61,-168.817 61,-159.672 61,-151.631"/>
<polygon fill="none" stroke="midnightblue" points="57.5001,-178.297 61,-188.297 64.5001,-178.297 57.5001,-178.297"/>
</g>
<!-- Node4 -->
<g id="node4" class="node"><title>Node4</title>
<polygon fill="white" stroke="#bfbfbf" points="19,-337.5 19,-394.5 103,-394.5 103,-337.5 19,-337.5"/>
<text text-anchor="middle" x="61" y="-382.5" font-family="Helvetica,sans-Serif" font-size="10.00">std::exception</text>
<polyline fill="none" stroke="#bfbfbf" points="19,-375.5 103,-375.5 "/>
<text text-anchor="middle" x="61" y="-363.5" font-family="Helvetica,sans-Serif" font-size="10.00"> </text>
<polyline fill="none" stroke="#bfbfbf" points="19,-356.5 103,-356.5 "/>
<text text-anchor="middle" x="61" y="-344.5" font-family="Helvetica,sans-Serif" font-size="10.00"> </text>
</g>
<!-- Node4&#45;&gt;Node3 -->
<g id="edge3" class="edge"><title>Node4&#45;&gt;Node3</title>
<path fill="none" stroke="midnightblue" d="M61,-327.108C61,-318.748 61,-309.725 61,-300.834"/>
<polygon fill="none" stroke="midnightblue" points="57.5001,-327.284 61,-337.284 64.5001,-327.284 57.5001,-327.284"/>
</g>
</g>
</svg>
