<?xml version="1.0" encoding="UTF-8" standalone="no"?>
<!DOCTYPE svg PUBLIC "-//W3C//DTD SVG 1.1//EN"
 "http://www.w3.org/Graphics/SVG/1.1/DTD/svg11.dtd">
<!-- Generated by graphviz version 2.38.0 (20140413.2041)
 -->
<!-- Title: scram::ValueError Pages: 1 -->
<svg width="110pt" height="309pt"
 viewBox="0.00 0.00 110.00 309.00" xmlns="http://www.w3.org/2000/svg" xmlns:xlink="http://www.w3.org/1999/xlink">
<g id="graph0" class="graph" transform="scale(1 1) rotate(0) translate(4 305)">
<title>scram::ValueError</title>
<polygon fill="white" stroke="none" points="-4,4 -4,-305 106,-305 106,4 -4,4"/>
<!-- Node1 -->
<g id="node1" class="node"><title>Node1</title>
<polygon fill="#bfbfbf" stroke="black" points="-7.10543e-15,-0.5 -7.10543e-15,-57.5 102,-57.5 102,-0.5 -7.10543e-15,-0.5"/>
<text text-anchor="middle" x="51" y="-45.5" font-family="Helvetica,sans-Serif" font-size="10.00">scram::ValueError</text>
<polyline fill="none" stroke="black" points="-7.10543e-15,-38.5 102,-38.5 "/>
<text text-anchor="middle" x="51" y="-26.5" font-family="Helvetica,sans-Serif" font-size="10.00"> </text>
<polyline fill="none" stroke="black" points="-7.10543e-15,-19.5 102,-19.5 "/>
<text text-anchor="middle" x="51" y="-7.5" font-family="Helvetica,sans-Serif" font-size="10.00"> </text>
</g>
<!-- Node2 -->
<g id="node2" class="node"><title>Node2</title>
<g id="a_node2"><a xlink:href="classscram_1_1Error.xhtml" target="_top" xlink:title="The Error class is the base class for common exceptions specific to the SCRAM code. ">
<polygon fill="white" stroke="black" points="13,-94.5 13,-206.5 89,-206.5 89,-94.5 13,-94.5"/>
<text text-anchor="middle" x="51" y="-194.5" font-family="Helvetica,sans-Serif" font-size="10.00">scram::Error</text>
<polyline fill="none" stroke="black" points="13,-187.5 89,-187.5 "/>
<text text-anchor="middle" x="51" y="-175.5" font-family="Helvetica,sans-Serif" font-size="10.00"> </text>
<polyline fill="none" stroke="black" points="13,-168.5 89,-168.5 "/>
<text text-anchor="start" x="21" y="-156.5" font-family="Helvetica,sans-Serif" font-size="10.00">+ Error()</text>
<text text-anchor="start" x="21" y="-145.5" font-family="Helvetica,sans-Serif" font-size="10.00">+ Error()</text>
<text text-anchor="start" x="21" y="-134.5" font-family="Helvetica,sans-Serif" font-size="10.00">+ ~Error()</text>
<text text-anchor="start" x="21" y="-123.5" font-family="Helvetica,sans-Serif" font-size="10.00">+ what()</text>
<text text-anchor="start" x="21" y="-112.5" font-family="Helvetica,sans-Serif" font-size="10.00">+ msg()</text>
<text text-anchor="start" x="21" y="-101.5" font-family="Helvetica,sans-Serif" font-size="10.00">+ msg()</text>
</a>
</g>
</g>
<!-- Node2&#45;&gt;Node1 -->
<g id="edge1" class="edge"><title>Node2&#45;&gt;Node1</title>
<path fill="none" stroke="midnightblue" d="M51,-84.146C51,-74.8172 51,-65.6722 51,-57.6315"/>
<polygon fill="none" stroke="midnightblue" points="47.5001,-84.2973 51,-94.2974 54.5001,-84.2974 47.5001,-84.2973"/>
</g>
<!-- Node3 -->
<g id="node3" class="node"><title>Node3</title>
<polygon fill="white" stroke="#bfbfbf" points="9,-243.5 9,-300.5 93,-300.5 93,-243.5 9,-243.5"/>
<text text-anchor="middle" x="51" y="-288.5" font-family="Helvetica,sans-Serif" font-size="10.00">std::exception</text>
<polyline fill="none" stroke="#bfbfbf" points="9,-281.5 93,-281.5 "/>
<text text-anchor="middle" x="51" y="-269.5" font-family="Helvetica,sans-Serif" font-size="10.00"> </text>
<polyline fill="none" stroke="#bfbfbf" points="9,-262.5 93,-262.5 "/>
<text text-anchor="middle" x="51" y="-250.5" font-family="Helvetica,sans-Serif" font-size="10.00"> </text>
</g>
<!-- Node3&#45;&gt;Node2 -->
<g id="edge2" class="edge"><title>Node3&#45;&gt;Node2</title>
<path fill="none" stroke="midnightblue" d="M51,-233.108C51,-224.748 51,-215.725 51,-206.834"/>
<polygon fill="none" stroke="midnightblue" points="47.5001,-233.284 51,-243.284 54.5001,-233.284 47.5001,-233.284"/>
</g>
</g>
</svg>
