<?xml version="1.0" encoding="UTF-8" standalone="no"?>
<!DOCTYPE svg PUBLIC "-//W3C//DTD SVG 1.1//EN"
 "http://www.w3.org/Graphics/SVG/1.1/DTD/svg11.dtd">
<!-- Generated by graphviz version 2.38.0 (20140413.2041)
 -->
<!-- Title: scram::mef::Initializer::Extractor::operator() Pages: 1 -->
<svg width="275pt" height="52pt"
 viewBox="0.00 0.00 275.00 51.50" xmlns="http://www.w3.org/2000/svg" xmlns:xlink="http://www.w3.org/1999/xlink">
<g id="graph0" class="graph" transform="scale(1 1) rotate(0) translate(4 47.5)">
<title>scram::mef::Initializer::Extractor::operator()</title>
<polygon fill="white" stroke="none" points="-4,4 -4,-47.5 271,-47.5 271,4 -4,4"/>
<!-- Node1 -->
<g id="node1" class="node"><title>Node1</title>
<polygon fill="#bfbfbf" stroke="black" points="0,-0.5 0,-30.5 121,-30.5 121,-0.5 0,-0.5"/>
<text text-anchor="start" x="8" y="-18.5" font-family="Helvetica,sans-Serif" font-size="10.00">scram::mef::Initializer</text>
<text text-anchor="middle" x="60.5" y="-7.5" font-family="Helvetica,sans-Serif" font-size="10.00">::Extractor::operator()</text>
</g>
<!-- Node2 -->
<g id="node2" class="node"><title>Node2</title>
<g id="a_node2"><a xlink:href="xml_8h.xhtml#ab908f9834f69be3009ee07445b51a673" target="_top" xlink:title="Helper function to statically cast to XML element. ">
<polygon fill="white" stroke="black" points="157,-6 157,-25 267,-25 267,-6 157,-6"/>
<text text-anchor="middle" x="212" y="-13" font-family="Helvetica,sans-Serif" font-size="10.00">scram::XmlElement</text>
</a>
</g>
</g>
<!-- Node1&#45;&gt;Node2 -->
<g id="edge1" class="edge"><title>Node1&#45;&gt;Node2</title>
<path fill="none" stroke="midnightblue" d="M121.016,-15.5C129.352,-15.5 137.952,-15.5 146.377,-15.5"/>
<polygon fill="midnightblue" stroke="midnightblue" points="146.538,-19.0001 156.538,-15.5 146.538,-12.0001 146.538,-19.0001"/>
</g>
<!-- Node2&#45;&gt;Node2 -->
<g id="edge2" class="edge"><title>Node2&#45;&gt;Node2</title>
<path fill="none" stroke="midnightblue" d="M188.881,-25.2571C177.633,-34.0653 185.34,-43.5 212,-43.5 229.496,-43.5 238.829,-39.4368 239.999,-34.1539"/>
<polygon fill="midnightblue" stroke="midnightblue" points="242.997,-32.3417 235.119,-25.2571 236.86,-35.708 242.997,-32.3417"/>
</g>
</g>
</svg>
