<?xml version="1.0" encoding="UTF-8" standalone="no"?>
<!DOCTYPE svg PUBLIC "-//W3C//DTD SVG 1.1//EN"
 "http://www.w3.org/Graphics/SVG/1.1/DTD/svg11.dtd">
<!-- Generated by graphviz version 2.38.0 (20140413.2041)
 -->
<!-- Title: variant.h Pages: 1 -->
<svg width="593pt" height="308pt"
 viewBox="0.00 0.00 593.00 308.00" xmlns="http://www.w3.org/2000/svg" xmlns:xlink="http://www.w3.org/1999/xlink">
<g id="graph0" class="graph" transform="scale(1 1) rotate(0) translate(4 304)">
<title>variant.h</title>
<polygon fill="white" stroke="none" points="-4,4 -4,-304 589,-304 589,4 -4,4"/>
<!-- Node1 -->
<g id="node1" class="node"><title>Node1</title>
<polygon fill="#bfbfbf" stroke="black" points="270,-280.5 270,-299.5 329,-299.5 329,-280.5 270,-280.5"/>
<text text-anchor="middle" x="299.5" y="-287.5" font-family="Helvetica,sans-Serif" font-size="10.00">variant.h</text>
</g>
<!-- Node2 -->
<g id="node2" class="node"><title>Node2</title>
<g id="a_node2"><a xlink:href="event__tree_8h.xhtml" target="_top" xlink:title="Event Tree facilities. ">
<polygon fill="white" stroke="black" points="219,-224.5 219,-243.5 296,-243.5 296,-224.5 219,-224.5"/>
<text text-anchor="middle" x="257.5" y="-231.5" font-family="Helvetica,sans-Serif" font-size="10.00">event_tree.h</text>
</a>
</g>
</g>
<!-- Node1&#45;&gt;Node2 -->
<g id="edge1" class="edge"><title>Node1&#45;&gt;Node2</title>
<path fill="none" stroke="midnightblue" d="M286.39,-272.144C279.072,-262.736 270.259,-251.405 264.306,-243.751"/>
<polygon fill="midnightblue" stroke="midnightblue" points="283.662,-274.338 292.565,-280.083 289.188,-270.041 283.662,-274.338"/>
</g>
<!-- Node18 -->
<g id="node18" class="node"><title>Node18</title>
<g id="a_node18"><a xlink:href="event_8cc.xhtml" target="_top" xlink:title="Implementation of Event Class and its derived classes. ">
<polygon fill="white" stroke="black" points="314,-224.5 314,-243.5 371,-243.5 371,-224.5 314,-224.5"/>
<text text-anchor="middle" x="342.5" y="-231.5" font-family="Helvetica,sans-Serif" font-size="10.00">event.cc</text>
</a>
</g>
</g>
<!-- Node1&#45;&gt;Node18 -->
<g id="edge24" class="edge"><title>Node1&#45;&gt;Node18</title>
<path fill="none" stroke="midnightblue" d="M312.922,-272.144C320.414,-262.736 329.437,-251.405 335.532,-243.751"/>
<polygon fill="midnightblue" stroke="midnightblue" points="310.092,-270.08 306.601,-280.083 315.568,-274.44 310.092,-270.08"/>
</g>
<!-- Node3 -->
<g id="node3" class="node"><title>Node3</title>
<g id="a_node3"><a xlink:href="cycle_8h.xhtml" target="_top" xlink:title="Validation facilities to detect and print cycles in graphs. ">
<polygon fill="white" stroke="black" points="32.5,-168.5 32.5,-187.5 82.5,-187.5 82.5,-168.5 32.5,-168.5"/>
<text text-anchor="middle" x="57.5" y="-175.5" font-family="Helvetica,sans-Serif" font-size="10.00">cycle.h</text>
</a>
</g>
</g>
<!-- Node2&#45;&gt;Node3 -->
<g id="edge2" class="edge"><title>Node2&#45;&gt;Node3</title>
<path fill="none" stroke="midnightblue" d="M216.041,-221.806C175.86,-210.957 116.217,-194.853 82.7098,-185.807"/>
<polygon fill="midnightblue" stroke="midnightblue" points="215.243,-225.216 225.809,-224.444 217.067,-218.458 215.243,-225.216"/>
</g>
<!-- Node5 -->
<g id="node5" class="node"><title>Node5</title>
<g id="a_node5"><a xlink:href="event__tree_8cc.xhtml" target="_top" xlink:title="Implementation of event tree facilities. ">
<polygon fill="white" stroke="black" points="459.5,-168.5 459.5,-187.5 541.5,-187.5 541.5,-168.5 459.5,-168.5"/>
<text text-anchor="middle" x="500.5" y="-175.5" font-family="Helvetica,sans-Serif" font-size="10.00">event_tree.cc</text>
</a>
</g>
</g>
<!-- Node2&#45;&gt;Node5 -->
<g id="edge4" class="edge"><title>Node2&#45;&gt;Node5</title>
<path fill="none" stroke="midnightblue" d="M306.022,-222.217C351.94,-212.013 419.947,-196.901 462.176,-187.516"/>
<polygon fill="midnightblue" stroke="midnightblue" points="305.007,-218.858 296.004,-224.444 306.525,-225.691 305.007,-218.858"/>
</g>
<!-- Node6 -->
<g id="node6" class="node"><title>Node6</title>
<g id="a_node6"><a xlink:href="event__tree__analysis_8h.xhtml" target="_top" xlink:title="Event tree analysis facilities. ">
<polygon fill="white" stroke="black" points="320,-168.5 320,-187.5 441,-187.5 441,-168.5 320,-168.5"/>
<text text-anchor="middle" x="380.5" y="-175.5" font-family="Helvetica,sans-Serif" font-size="10.00">event_tree_analysis.h</text>
</a>
</g>
</g>
<!-- Node2&#45;&gt;Node6 -->
<g id="edge5" class="edge"><title>Node2&#45;&gt;Node6</title>
<path fill="none" stroke="midnightblue" d="M286.273,-220.368C309.307,-210.255 340.984,-196.349 361.101,-187.516"/>
<polygon fill="midnightblue" stroke="midnightblue" points="284.739,-217.219 276.99,-224.444 287.553,-223.628 284.739,-217.219"/>
</g>
<!-- Node13 -->
<g id="node13" class="node"><title>Node13</title>
<g id="a_node13"><a xlink:href="initializer_8h.xhtml" target="_top" xlink:title="A facility that processes input files into analysis constructs. ">
<polygon fill="white" stroke="black" points="52,-112.5 52,-131.5 119,-131.5 119,-112.5 52,-112.5"/>
<text text-anchor="middle" x="85.5" y="-119.5" font-family="Helvetica,sans-Serif" font-size="10.00">initializer.h</text>
</a>
</g>
</g>
<!-- Node2&#45;&gt;Node13 -->
<g id="edge13" class="edge"><title>Node2&#45;&gt;Node13</title>
<path fill="none" stroke="midnightblue" d="M235.162,-218.714C198.918,-195.535 128.391,-150.43 98.9339,-131.591"/>
<polygon fill="midnightblue" stroke="midnightblue" points="233.693,-221.929 244.003,-224.368 237.465,-216.032 233.693,-221.929"/>
</g>
<!-- Node14 -->
<g id="node14" class="node"><title>Node14</title>
<g id="a_node14"><a xlink:href="model_8h.xhtml" target="_top" xlink:title="Representation for a model container for risk analysis. ">
<polygon fill="white" stroke="black" points="229.5,-168.5 229.5,-187.5 285.5,-187.5 285.5,-168.5 229.5,-168.5"/>
<text text-anchor="middle" x="257.5" y="-175.5" font-family="Helvetica,sans-Serif" font-size="10.00">model.h</text>
</a>
</g>
</g>
<!-- Node2&#45;&gt;Node14 -->
<g id="edge16" class="edge"><title>Node2&#45;&gt;Node14</title>
<path fill="none" stroke="midnightblue" d="M257.5,-213.805C257.5,-204.91 257.5,-194.78 257.5,-187.751"/>
<polygon fill="midnightblue" stroke="midnightblue" points="254,-214.083 257.5,-224.083 261,-214.083 254,-214.083"/>
</g>
<!-- Node4 -->
<g id="node4" class="node"><title>Node4</title>
<g id="a_node4"><a xlink:href="initializer_8cc.xhtml" target="_top" xlink:title="Implementation of input file processing into analysis constructs. ">
<polygon fill="white" stroke="black" points="0,-56.5 0,-75.5 71,-75.5 71,-56.5 0,-56.5"/>
<text text-anchor="middle" x="35.5" y="-63.5" font-family="Helvetica,sans-Serif" font-size="10.00">initializer.cc</text>
</a>
</g>
</g>
<!-- Node3&#45;&gt;Node4 -->
<g id="edge3" class="edge"><title>Node3&#45;&gt;Node4</title>
<path fill="none" stroke="midnightblue" d="M50.4068,-158.694C47.5382,-150.621 44.4502,-140.952 42.5,-132 38.151,-112.038 36.4571,-88.0127 35.8346,-75.5069"/>
<polygon fill="midnightblue" stroke="midnightblue" points="47.1725,-160.039 53.9372,-168.193 53.7339,-157.6 47.1725,-160.039"/>
</g>
<!-- Node7 -->
<g id="node7" class="node"><title>Node7</title>
<g id="a_node7"><a xlink:href="event__tree__analysis_8cc.xhtml" target="_top" xlink:title="Implementation of event tree analysis facilities. ">
<polygon fill="white" stroke="black" points="460,-112.5 460,-131.5 585,-131.5 585,-112.5 460,-112.5"/>
<text text-anchor="middle" x="522.5" y="-119.5" font-family="Helvetica,sans-Serif" font-size="10.00">event_tree_analysis.cc</text>
</a>
</g>
</g>
<!-- Node6&#45;&gt;Node7 -->
<g id="edge6" class="edge"><title>Node6&#45;&gt;Node7</title>
<path fill="none" stroke="midnightblue" d="M412.655,-164.772C439.328,-154.629 476.569,-140.467 500.105,-131.516"/>
<polygon fill="midnightblue" stroke="midnightblue" points="411.103,-161.618 403,-168.444 413.591,-168.16 411.103,-161.618"/>
</g>
<!-- Node8 -->
<g id="node8" class="node"><title>Node8</title>
<g id="a_node8"><a xlink:href="risk__analysis_8h.xhtml" target="_top" xlink:title="Contains the main system for performing analysis. ">
<polygon fill="white" stroke="black" points="355.5,-112.5 355.5,-131.5 441.5,-131.5 441.5,-112.5 355.5,-112.5"/>
<text text-anchor="middle" x="398.5" y="-119.5" font-family="Helvetica,sans-Serif" font-size="10.00">risk_analysis.h</text>
</a>
</g>
</g>
<!-- Node6&#45;&gt;Node8 -->
<g id="edge7" class="edge"><title>Node6&#45;&gt;Node8</title>
<path fill="none" stroke="midnightblue" d="M386.701,-158.396C389.713,-149.362 393.188,-138.936 395.583,-131.751"/>
<polygon fill="midnightblue" stroke="midnightblue" points="383.314,-157.489 383.472,-168.083 389.955,-159.703 383.314,-157.489"/>
</g>
<!-- Node9 -->
<g id="node9" class="node"><title>Node9</title>
<g id="a_node9"><a xlink:href="reporter_8h.xhtml" target="_top" xlink:title="Reporter of results. ">
<polygon fill="white" stroke="black" points="295.5,-56.5 295.5,-75.5 359.5,-75.5 359.5,-56.5 295.5,-56.5"/>
<text text-anchor="middle" x="327.5" y="-63.5" font-family="Helvetica,sans-Serif" font-size="10.00">reporter.h</text>
</a>
</g>
</g>
<!-- Node8&#45;&gt;Node9 -->
<g id="edge8" class="edge"><title>Node8&#45;&gt;Node9</title>
<path fill="none" stroke="midnightblue" d="M378.91,-106.101C366.132,-96.3824 349.887,-84.0269 339.115,-75.8339"/>
<polygon fill="midnightblue" stroke="midnightblue" points="377.014,-109.056 387.093,-112.324 381.252,-103.484 377.014,-109.056"/>
</g>
<!-- Node11 -->
<g id="node11" class="node"><title>Node11</title>
<g id="a_node11"><a xlink:href="scram_8cc.xhtml" target="_top" xlink:title="Main entrance. ">
<polygon fill="white" stroke="black" points="232.5,-0.5 232.5,-19.5 292.5,-19.5 292.5,-0.5 232.5,-0.5"/>
<text text-anchor="middle" x="262.5" y="-7.5" font-family="Helvetica,sans-Serif" font-size="10.00">scram.cc</text>
</a>
</g>
</g>
<!-- Node8&#45;&gt;Node11 -->
<g id="edge12" class="edge"><title>Node8&#45;&gt;Node11</title>
<path fill="none" stroke="midnightblue" d="M393.916,-102.49C389.521,-88.1624 381.584,-68.6851 368.5,-56 347.544,-35.682 316.013,-23.9027 292.786,-17.5312"/>
<polygon fill="midnightblue" stroke="midnightblue" points="390.574,-103.539 396.612,-112.245 397.321,-101.674 390.574,-103.539"/>
</g>
<!-- Node12 -->
<g id="node12" class="node"><title>Node12</title>
<g id="a_node12"><a xlink:href="risk__analysis_8cc.xhtml" target="_top" xlink:title="Implementation of risk analysis handler. ">
<polygon fill="white" stroke="black" points="415.5,-56.5 415.5,-75.5 505.5,-75.5 505.5,-56.5 415.5,-56.5"/>
<text text-anchor="middle" x="460.5" y="-63.5" font-family="Helvetica,sans-Serif" font-size="10.00">risk_analysis.cc</text>
</a>
</g>
</g>
<!-- Node8&#45;&gt;Node12 -->
<g id="edge11" class="edge"><title>Node8&#45;&gt;Node12</title>
<path fill="none" stroke="midnightblue" d="M416.254,-105.537C427.308,-95.9087 441.131,-83.8694 450.357,-75.8339"/>
<polygon fill="midnightblue" stroke="midnightblue" points="413.703,-103.117 408.461,-112.324 418.301,-108.395 413.703,-103.117"/>
</g>
<!-- Node10 -->
<g id="node10" class="node"><title>Node10</title>
<g id="a_node10"><a xlink:href="reporter_8cc.xhtml" target="_top" xlink:title="Implements Reporter class. ">
<polygon fill="white" stroke="black" points="310.5,-0.5 310.5,-19.5 378.5,-19.5 378.5,-0.5 310.5,-0.5"/>
<text text-anchor="middle" x="344.5" y="-7.5" font-family="Helvetica,sans-Serif" font-size="10.00">reporter.cc</text>
</a>
</g>
</g>
<!-- Node9&#45;&gt;Node10 -->
<g id="edge9" class="edge"><title>Node9&#45;&gt;Node10</title>
<path fill="none" stroke="midnightblue" d="M333.357,-46.3956C336.201,-37.362 339.483,-26.936 341.745,-19.7511"/>
<polygon fill="midnightblue" stroke="midnightblue" points="329.972,-45.4935 330.307,-56.083 336.649,-47.5955 329.972,-45.4935"/>
</g>
<!-- Node9&#45;&gt;Node11 -->
<g id="edge10" class="edge"><title>Node9&#45;&gt;Node11</title>
<path fill="none" stroke="midnightblue" d="M309.227,-49.8197C297.582,-40.1452 282.901,-27.9481 273.133,-19.8339"/>
<polygon fill="midnightblue" stroke="midnightblue" points="307.128,-52.6259 317.057,-56.324 311.601,-47.2416 307.128,-52.6259"/>
</g>
<!-- Node13&#45;&gt;Node4 -->
<g id="edge14" class="edge"><title>Node13&#45;&gt;Node4</title>
<path fill="none" stroke="midnightblue" d="M70.4237,-104.718C61.6109,-95.1997 50.8341,-83.5608 43.6028,-75.7511"/>
<polygon fill="midnightblue" stroke="midnightblue" points="67.8812,-107.123 77.2435,-112.083 73.0176,-102.367 67.8812,-107.123"/>
</g>
<!-- Node13&#45;&gt;Node11 -->
<g id="edge15" class="edge"><title>Node13&#45;&gt;Node11</title>
<path fill="none" stroke="midnightblue" d="M95.6209,-103.554C104.86,-89.0103 119.757,-68.6883 137.5,-56 166.298,-35.4055 205.503,-23.3294 232.28,-16.9607"/>
<polygon fill="midnightblue" stroke="midnightblue" points="92.6053,-101.776 90.3934,-112.138 98.584,-105.417 92.6053,-101.776"/>
</g>
<!-- Node14&#45;&gt;Node8 -->
<g id="edge20" class="edge"><title>Node14&#45;&gt;Node8</title>
<path fill="none" stroke="midnightblue" d="M289.429,-164.772C315.914,-154.629 352.892,-140.467 376.263,-131.516"/>
<polygon fill="midnightblue" stroke="midnightblue" points="287.929,-161.599 279.842,-168.444 290.432,-168.136 287.929,-161.599"/>
</g>
<!-- Node14&#45;&gt;Node9 -->
<g id="edge19" class="edge"><title>Node14&#45;&gt;Node9</title>
<path fill="none" stroke="midnightblue" d="M278.377,-162.456C288.441,-154.493 299.939,-143.843 307.5,-132 319.064,-113.888 324.294,-88.6762 326.351,-75.6137"/>
<polygon fill="midnightblue" stroke="midnightblue" points="276.26,-159.669 270.378,-168.481 280.472,-165.26 276.26,-159.669"/>
</g>
<!-- Node14&#45;&gt;Node13 -->
<g id="edge17" class="edge"><title>Node14&#45;&gt;Node13</title>
<path fill="none" stroke="midnightblue" d="M220.668,-165.436C188.238,-155.255 141.763,-140.664 112.626,-131.516"/>
<polygon fill="midnightblue" stroke="midnightblue" points="219.657,-168.787 230.246,-168.444 221.754,-162.109 219.657,-168.787"/>
</g>
<!-- Node15 -->
<g id="node15" class="node"><title>Node15</title>
<g id="a_node15"><a xlink:href="model_8cc.xhtml" target="_top" xlink:title="Implementation of functions in Model class. ">
<polygon fill="white" stroke="black" points="137.5,-112.5 137.5,-131.5 197.5,-131.5 197.5,-112.5 137.5,-112.5"/>
<text text-anchor="middle" x="167.5" y="-119.5" font-family="Helvetica,sans-Serif" font-size="10.00">model.cc</text>
</a>
</g>
</g>
<!-- Node14&#45;&gt;Node15 -->
<g id="edge18" class="edge"><title>Node14&#45;&gt;Node15</title>
<path fill="none" stroke="midnightblue" d="M234.462,-163.177C217.901,-153.241 196.082,-140.149 181.924,-131.655"/>
<polygon fill="midnightblue" stroke="midnightblue" points="232.664,-166.18 243.04,-168.324 236.266,-160.178 232.664,-166.18"/>
</g>
<!-- Node16 -->
<g id="node16" class="node"><title>Node16</title>
<g id="a_node16"><a xlink:href="serialization_8h.xhtml" target="_top" xlink:title="The MEF Model serialization facilities. ">
<polygon fill="white" stroke="black" points="216,-112.5 216,-131.5 299,-131.5 299,-112.5 216,-112.5"/>
<text text-anchor="middle" x="257.5" y="-119.5" font-family="Helvetica,sans-Serif" font-size="10.00">serialization.h</text>
</a>
</g>
</g>
<!-- Node14&#45;&gt;Node16 -->
<g id="edge21" class="edge"><title>Node14&#45;&gt;Node16</title>
<path fill="none" stroke="midnightblue" d="M257.5,-157.805C257.5,-148.91 257.5,-138.78 257.5,-131.751"/>
<polygon fill="midnightblue" stroke="midnightblue" points="254,-158.083 257.5,-168.083 261,-158.083 254,-158.083"/>
</g>
<!-- Node16&#45;&gt;Node11 -->
<g id="edge22" class="edge"><title>Node16&#45;&gt;Node11</title>
<path fill="none" stroke="midnightblue" d="M258.348,-102.348C259.443,-78.2538 261.304,-37.3079 262.109,-19.5914"/>
<polygon fill="midnightblue" stroke="midnightblue" points="254.85,-102.22 257.892,-112.368 261.843,-102.538 254.85,-102.22"/>
</g>
<!-- Node17 -->
<g id="node17" class="node"><title>Node17</title>
<g id="a_node17"><a xlink:href="serialization_8cc.xhtml" target="_top" xlink:title="serialization.cc">
<polygon fill="white" stroke="black" points="147,-56.5 147,-75.5 234,-75.5 234,-56.5 147,-56.5"/>
<text text-anchor="middle" x="190.5" y="-63.5" font-family="Helvetica,sans-Serif" font-size="10.00">serialization.cc</text>
</a>
</g>
</g>
<!-- Node16&#45;&gt;Node17 -->
<g id="edge23" class="edge"><title>Node16&#45;&gt;Node17</title>
<path fill="none" stroke="midnightblue" d="M238.665,-105.82C226.662,-96.1452 211.528,-83.9481 201.461,-75.8339"/>
<polygon fill="midnightblue" stroke="midnightblue" points="236.753,-108.774 246.735,-112.324 241.146,-103.324 236.753,-108.774"/>
</g>
</g>
</svg>
