<?xml version="1.0" encoding="UTF-8" standalone="no"?>
<!DOCTYPE svg PUBLIC "-//W3C//DTD SVG 1.1//EN"
 "http://www.w3.org/Graphics/SVG/1.1/DTD/svg11.dtd">
<!-- Generated by graphviz version 2.38.0 (20140413.2041)
 -->
<!-- Title: version.cc.in Pages: 1 -->
<svg width="558pt" height="95pt"
 viewBox="0.00 0.00 558.00 95.00" xmlns="http://www.w3.org/2000/svg" xmlns:xlink="http://www.w3.org/1999/xlink">
<g id="graph0" class="graph" transform="scale(1 1) rotate(0) translate(4 91)">
<title>version.cc.in</title>
<polygon fill="white" stroke="none" points="-4,4 -4,-91 554,-91 554,4 -4,4"/>
<!-- Node1 -->
<g id="node1" class="node"><title>Node1</title>
<polygon fill="#bfbfbf" stroke="black" points="219,-67.5 219,-86.5 295,-86.5 295,-67.5 219,-67.5"/>
<text text-anchor="middle" x="257" y="-74.5" font-family="Helvetica,sans-Serif" font-size="10.00">version.cc.in</text>
</g>
<!-- Node2 -->
<g id="node2" class="node"><title>Node2</title>
<g id="a_node2"><a xlink:href="version_8h.xhtml" target="_top" xlink:title="Set of functions with version information of the core and dependencies. ">
<polygon fill="white" stroke="black" points="0,-6 0,-25 60,-25 60,-6 0,-6"/>
<text text-anchor="middle" x="30" y="-13" font-family="Helvetica,sans-Serif" font-size="10.00">version.h</text>
</a>
</g>
</g>
<!-- Node1&#45;&gt;Node2 -->
<g id="edge1" class="edge"><title>Node1&#45;&gt;Node2</title>
<path fill="none" stroke="midnightblue" d="M218.829,-68.2821C180.587,-60.219 120.21,-46.5862 69,-31 66.4323,-30.2185 63.7883,-29.3584 61.1444,-28.4589"/>
<polygon fill="midnightblue" stroke="midnightblue" points="62.3002,-25.1553 51.7055,-25.0996 59.953,-31.7501 62.3002,-25.1553"/>
</g>
<!-- Node3 -->
<g id="node3" class="node"><title>Node3</title>
<polygon fill="white" stroke="#bfbfbf" points="78,-0.5 78,-30.5 188,-30.5 188,-0.5 78,-0.5"/>
<text text-anchor="start" x="86" y="-18.5" font-family="Helvetica,sans-Serif" font-size="10.00">boost/preprocessor</text>
<text text-anchor="middle" x="133" y="-7.5" font-family="Helvetica,sans-Serif" font-size="10.00">/stringize.hpp</text>
</g>
<!-- Node1&#45;&gt;Node3 -->
<g id="edge2" class="edge"><title>Node1&#45;&gt;Node3</title>
<path fill="none" stroke="midnightblue" d="M239.234,-67.4751C221.577,-59.0024 193.932,-45.7373 171.269,-34.8628"/>
<polygon fill="midnightblue" stroke="midnightblue" points="172.754,-31.6936 162.224,-30.523 169.726,-38.0047 172.754,-31.6936"/>
</g>
<!-- Node4 -->
<g id="node4" class="node"><title>Node4</title>
<polygon fill="white" stroke="#bfbfbf" points="206,-6 206,-25 308,-25 308,-6 206,-6"/>
<text text-anchor="middle" x="257" y="-13" font-family="Helvetica,sans-Serif" font-size="10.00">boost/version.hpp</text>
</g>
<!-- Node1&#45;&gt;Node4 -->
<g id="edge3" class="edge"><title>Node1&#45;&gt;Node4</title>
<path fill="none" stroke="midnightblue" d="M257,-67.4751C257,-59.0803 257,-45.9806 257,-35.1631"/>
<polygon fill="midnightblue" stroke="midnightblue" points="260.5,-35.0091 257,-25.0091 253.5,-35.0091 260.5,-35.0091"/>
</g>
<!-- Node5 -->
<g id="node5" class="node"><title>Node5</title>
<polygon fill="white" stroke="#bfbfbf" points="326,-6 326,-25 424,-25 424,-6 326,-6"/>
<text text-anchor="middle" x="375" y="-13" font-family="Helvetica,sans-Serif" font-size="10.00">libxml++config.h</text>
</g>
<!-- Node1&#45;&gt;Node5 -->
<g id="edge4" class="edge"><title>Node1&#45;&gt;Node5</title>
<path fill="none" stroke="midnightblue" d="M273.907,-67.4751C293.534,-57.578 326.131,-41.1416 348.99,-29.6151"/>
<polygon fill="midnightblue" stroke="midnightblue" points="350.772,-32.6367 358.125,-25.0091 347.62,-26.3863 350.772,-32.6367"/>
</g>
<!-- Node6 -->
<g id="node6" class="node"><title>Node6</title>
<polygon fill="white" stroke="#bfbfbf" points="442,-6 442,-25 550,-25 550,-6 442,-6"/>
<text text-anchor="middle" x="496" y="-13" font-family="Helvetica,sans-Serif" font-size="10.00">libxml/xmlversion.h</text>
</g>
<!-- Node1&#45;&gt;Node6 -->
<g id="edge5" class="edge"><title>Node1&#45;&gt;Node6</title>
<path fill="none" stroke="midnightblue" d="M291.243,-67.4751C333.571,-56.9374 405.677,-38.9863 452.05,-27.4415"/>
<polygon fill="midnightblue" stroke="midnightblue" points="452.962,-30.8213 461.821,-25.0091 451.271,-24.0286 452.962,-30.8213"/>
</g>
</g>
</svg>
