<?xml version="1.0" encoding="UTF-8" standalone="no"?>
<!DOCTYPE svg PUBLIC "-//W3C//DTD SVG 1.1//EN"
 "http://www.w3.org/Graphics/SVG/1.1/DTD/svg11.dtd">
<!-- Generated by graphviz version 2.38.0 (20140413.2041)
 -->
<!-- Title: xml_stream.h Pages: 1 -->
<svg width="166pt" height="140pt"
 viewBox="0.00 0.00 165.50 140.00" xmlns="http://www.w3.org/2000/svg" xmlns:xlink="http://www.w3.org/1999/xlink">
<g id="graph0" class="graph" transform="scale(1 1) rotate(0) translate(4 136)">
<title>xml_stream.h</title>
<polygon fill="white" stroke="none" points="-4,4 -4,-136 161.5,-136 161.5,4 -4,4"/>
<!-- Node1 -->
<g id="node1" class="node"><title>Node1</title>
<polygon fill="#bfbfbf" stroke="black" points="22,-112.5 22,-131.5 105,-131.5 105,-112.5 22,-112.5"/>
<text text-anchor="middle" x="63.5" y="-119.5" font-family="Helvetica,sans-Serif" font-size="10.00">xml_stream.h</text>
</g>
<!-- Node2 -->
<g id="node2" class="node"><title>Node2</title>
<polygon fill="white" stroke="#bfbfbf" points="0,-56.5 0,-75.5 57,-75.5 57,-56.5 0,-56.5"/>
<text text-anchor="middle" x="28.5" y="-63.5" font-family="Helvetica,sans-Serif" font-size="10.00">ostream</text>
</g>
<!-- Node1&#45;&gt;Node2 -->
<g id="edge1" class="edge"><title>Node1&#45;&gt;Node2</title>
<path fill="none" stroke="midnightblue" d="M57.7205,-112.083C52.8276,-104.534 45.6726,-93.4948 39.6674,-84.2298"/>
<polygon fill="midnightblue" stroke="midnightblue" points="42.548,-82.239 34.172,-75.7511 36.674,-86.0463 42.548,-82.239"/>
</g>
<!-- Node3 -->
<g id="node3" class="node"><title>Node3</title>
<g id="a_node3"><a xlink:href="error_8h.xhtml" target="_top" xlink:title="Exceptions for SCRAM. ">
<polygon fill="white" stroke="black" points="75.5,-56.5 75.5,-75.5 123.5,-75.5 123.5,-56.5 75.5,-56.5"/>
<text text-anchor="middle" x="99.5" y="-63.5" font-family="Helvetica,sans-Serif" font-size="10.00">error.h</text>
</a>
</g>
</g>
<!-- Node1&#45;&gt;Node3 -->
<g id="edge2" class="edge"><title>Node1&#45;&gt;Node3</title>
<path fill="none" stroke="midnightblue" d="M69.4447,-112.083C74.4773,-104.534 81.8368,-93.4948 88.0135,-84.2298"/>
<polygon fill="midnightblue" stroke="midnightblue" points="91.0311,-86.0131 93.6659,-75.7511 85.2067,-82.1301 91.0311,-86.0131"/>
</g>
<!-- Node4 -->
<g id="node4" class="node"><title>Node4</title>
<polygon fill="white" stroke="#bfbfbf" points="32,-0.5 32,-19.5 95,-19.5 95,-0.5 32,-0.5"/>
<text text-anchor="middle" x="63.5" y="-7.5" font-family="Helvetica,sans-Serif" font-size="10.00">exception</text>
</g>
<!-- Node3&#45;&gt;Node4 -->
<g id="edge3" class="edge"><title>Node3&#45;&gt;Node4</title>
<path fill="none" stroke="midnightblue" d="M93.5553,-56.083C88.5227,-48.5341 81.1632,-37.4948 74.9865,-28.2298"/>
<polygon fill="midnightblue" stroke="midnightblue" points="77.7933,-26.1301 69.3341,-19.7511 71.9689,-30.0131 77.7933,-26.1301"/>
</g>
<!-- Node5 -->
<g id="node5" class="node"><title>Node5</title>
<polygon fill="white" stroke="#bfbfbf" points="113.5,-0.5 113.5,-19.5 157.5,-19.5 157.5,-0.5 113.5,-0.5"/>
<text text-anchor="middle" x="135.5" y="-7.5" font-family="Helvetica,sans-Serif" font-size="10.00">string</text>
</g>
<!-- Node3&#45;&gt;Node5 -->
<g id="edge4" class="edge"><title>Node3&#45;&gt;Node5</title>
<path fill="none" stroke="midnightblue" d="M105.445,-56.083C110.477,-48.5341 117.837,-37.4948 124.013,-28.2298"/>
<polygon fill="midnightblue" stroke="midnightblue" points="127.031,-30.0131 129.666,-19.7511 121.207,-26.1301 127.031,-30.0131"/>
</g>
</g>
</svg>
