<?xml version="1.0" encoding="UTF-8" standalone="no"?>
<!DOCTYPE svg PUBLIC "-//W3C//DTD SVG 1.1//EN"
 "http://www.w3.org/Graphics/SVG/1.1/DTD/svg11.dtd">
<!-- Generated by graphviz version 2.38.0 (20140413.2041)
 -->
<!-- Title: scram::XmlElement Pages: 1 -->
<svg width="315pt" height="225pt"
 viewBox="0.00 0.00 315.00 224.50" xmlns="http://www.w3.org/2000/svg" xmlns:xlink="http://www.w3.org/1999/xlink">
<g id="graph0" class="graph" transform="scale(1 1) rotate(0) translate(4 220.5)">
<title>scram::XmlElement</title>
<polygon fill="white" stroke="none" points="-4,4 -4,-220.5 311,-220.5 311,4 -4,4"/>
<!-- Node1 -->
<g id="node1" class="node"><title>Node1</title>
<polygon fill="#bfbfbf" stroke="black" points="0,-104 0,-123 110,-123 110,-104 0,-104"/>
<text text-anchor="middle" x="55" y="-111" font-family="Helvetica,sans-Serif" font-size="10.00">scram::XmlElement</text>
</g>
<!-- Node1&#45;&gt;Node1 -->
<g id="edge6" class="edge"><title>Node1&#45;&gt;Node1</title>
<path fill="none" stroke="midnightblue" d="M23.1886,-131.775C24.0956,-137.241 34.6994,-141.5 55,-141.5 85.2148,-141.5 93.9488,-132.065 81.2019,-123.257"/>
<polygon fill="midnightblue" stroke="midnightblue" points="26.2209,-133.534 28.7981,-123.257 20.3748,-129.684 26.2209,-133.534"/>
</g>
<!-- Node2 -->
<g id="node2" class="node"><title>Node2</title>
<g id="a_node2"><a xlink:href="classscram_1_1Config.xhtml#ab0d7940fbb627fab9867821e133eab5d" target="_top" xlink:title="A constructor with configurations for analysis. ">
<polygon fill="white" stroke="black" points="167,-197 167,-216 286,-216 286,-197 167,-197"/>
<text text-anchor="middle" x="226.5" y="-204" font-family="Helvetica,sans-Serif" font-size="10.00">scram::Config::Config</text>
</a>
</g>
</g>
<!-- Node1&#45;&gt;Node2 -->
<g id="edge1" class="edge"><title>Node1&#45;&gt;Node2</title>
<path fill="none" stroke="midnightblue" d="M72.0284,-130.613C88.8623,-147.565 116.891,-173.028 146,-187.5 153.751,-191.354 162.322,-194.449 170.883,-196.93"/>
<polygon fill="midnightblue" stroke="midnightblue" points="74.181,-127.805 64.708,-123.06 69.1544,-132.676 74.181,-127.805"/>
</g>
<!-- Node3 -->
<g id="node3" class="node"><title>Node3</title>
<g id="a_node3"><a xlink:href="classscram_1_1mef_1_1Initializer.xhtml#a14baeb786ca655ac41c6ad3197ebf612" target="_top" xlink:title="Specializations for elements defined after registration. ">
<polygon fill="white" stroke="black" points="167,-147.5 167,-177.5 286,-177.5 286,-147.5 167,-147.5"/>
<text text-anchor="start" x="175" y="-165.5" font-family="Helvetica,sans-Serif" font-size="10.00">scram::mef::Initializer</text>
<text text-anchor="middle" x="226.5" y="-154.5" font-family="Helvetica,sans-Serif" font-size="10.00">::Define</text>
</a>
</g>
</g>
<!-- Node1&#45;&gt;Node3 -->
<g id="edge2" class="edge"><title>Node1&#45;&gt;Node3</title>
<path fill="none" stroke="midnightblue" d="M98.7753,-125.866C121.47,-132.426 149.537,-140.54 173.484,-147.463"/>
<polygon fill="midnightblue" stroke="midnightblue" points="99.6624,-122.479 89.0837,-123.064 97.7183,-129.204 99.6624,-122.479"/>
</g>
<!-- Node4 -->
<g id="node4" class="node"><title>Node4</title>
<g id="a_node4"><a xlink:href="structscram_1_1mef_1_1Initializer_1_1Extractor.xhtml#a3beb2f7884a244a3613577c1f4fb9e43" target="_top" xlink:title="Extracts and accumulates expressions to be passed to the constructor of expression T...">
<polygon fill="white" stroke="black" points="166,-98.5 166,-128.5 287,-128.5 287,-98.5 166,-98.5"/>
<text text-anchor="start" x="174" y="-116.5" font-family="Helvetica,sans-Serif" font-size="10.00">scram::mef::Initializer</text>
<text text-anchor="middle" x="226.5" y="-105.5" font-family="Helvetica,sans-Serif" font-size="10.00">::Extractor::operator()</text>
</a>
</g>
</g>
<!-- Node1&#45;&gt;Node4 -->
<g id="edge3" class="edge"><title>Node1&#45;&gt;Node4</title>
<path fill="none" stroke="midnightblue" d="M120.264,-113.5C135.193,-113.5 151.024,-113.5 165.749,-113.5"/>
<polygon fill="midnightblue" stroke="midnightblue" points="120.097,-110 110.097,-113.5 120.097,-117 120.097,-110"/>
</g>
<!-- Node5 -->
<g id="node5" class="node"><title>Node5</title>
<g id="a_node5"><a xlink:href="structscram_1_1mef_1_1Initializer_1_1Extractor_3_01T_00-1_01_4.xhtml#a0d6a8f1491cbe14a5aac653129c6445d" target="_top" xlink:title="Constructs an expression with a variable number of arguments. ">
<polygon fill="white" stroke="black" points="146,-49.5 146,-79.5 307,-79.5 307,-49.5 146,-49.5"/>
<text text-anchor="start" x="154" y="-67.5" font-family="Helvetica,sans-Serif" font-size="10.00">scram::mef::Initializer</text>
<text text-anchor="middle" x="226.5" y="-56.5" font-family="Helvetica,sans-Serif" font-size="10.00">::Extractor&lt; T,&#45;1 &gt;::operator()</text>
</a>
</g>
</g>
<!-- Node1&#45;&gt;Node5 -->
<g id="edge4" class="edge"><title>Node1&#45;&gt;Node5</title>
<path fill="none" stroke="midnightblue" d="M98.7753,-101.134C121.47,-94.5735 149.537,-86.4597 173.484,-79.537"/>
<polygon fill="midnightblue" stroke="midnightblue" points="97.7183,-97.7964 89.0837,-103.936 99.6624,-104.521 97.7183,-97.7964"/>
</g>
<!-- Node6 -->
<g id="node6" class="node"><title>Node6</title>
<g id="a_node6"><a xlink:href="classscram_1_1mef_1_1Initializer.xhtml#af95d2bd8c2196d3046fc2e45013412f5" target="_top" xlink:title="Specializations for element registrations. ">
<polygon fill="white" stroke="black" points="167,-0.5 167,-30.5 286,-30.5 286,-0.5 167,-0.5"/>
<text text-anchor="start" x="175" y="-18.5" font-family="Helvetica,sans-Serif" font-size="10.00">scram::mef::Initializer</text>
<text text-anchor="middle" x="226.5" y="-7.5" font-family="Helvetica,sans-Serif" font-size="10.00">::Register</text>
</a>
</g>
</g>
<!-- Node1&#45;&gt;Node6 -->
<g id="edge5" class="edge"><title>Node1&#45;&gt;Node6</title>
<path fill="none" stroke="midnightblue" d="M73.1185,-96.2508C90.235,-79.8654 117.977,-55.5582 146,-40.5 153.01,-36.7333 160.677,-33.4312 168.396,-30.5679"/>
<polygon fill="midnightblue" stroke="midnightblue" points="70.321,-94.0908 65.6147,-103.583 75.2132,-99.0975 70.321,-94.0908"/>
</g>
</g>
</svg>
