<?xml version="1.0" encoding="UTF-8" standalone="no"?>
<!DOCTYPE svg PUBLIC "-//W3C//DTD SVG 1.1//EN"
 "http://www.w3.org/Graphics/SVG/1.1/DTD/svg11.dtd">
<!-- Generated by graphviz version 2.38.0 (20140413.2041)
 -->
<!-- Title: scram::CastChildText Pages: 1 -->
<svg width="268pt" height="102pt"
 viewBox="0.00 0.00 268.00 102.00" xmlns="http://www.w3.org/2000/svg" xmlns:xlink="http://www.w3.org/1999/xlink">
<g id="graph0" class="graph" transform="scale(1 1) rotate(0) translate(4 98)">
<title>scram::CastChildText</title>
<polygon fill="white" stroke="none" points="-4,4 -4,-98 264,-98 264,4 -4,4"/>
<!-- Node1 -->
<g id="node1" class="node"><title>Node1</title>
<polygon fill="#bfbfbf" stroke="black" points="0,-28.5 0,-47.5 116,-47.5 116,-28.5 0,-28.5"/>
<text text-anchor="middle" x="58" y="-35.5" font-family="Helvetica,sans-Serif" font-size="10.00">scram::CastChildText</text>
</g>
<!-- Node1&#45;&gt;Node1 -->
<g id="edge1" class="edge"><title>Node1&#45;&gt;Node1</title>
<path fill="none" stroke="midnightblue" d="M35.1889,-47.7571C24.0916,-56.5653 31.6953,-66 58,-66 75.2625,-66 84.4711,-61.9368 85.6258,-56.6539"/>
<polygon fill="midnightblue" stroke="midnightblue" points="88.6488,-54.886 80.8111,-47.7571 82.4924,-58.2176 88.6488,-54.886"/>
</g>
<!-- Node2 -->
<g id="node2" class="node"><title>Node2</title>
<g id="a_node2"><a xlink:href="xml_8h.xhtml#a818b7826f3993c5ff58d45a237274285" target="_top" xlink:title="Returns Normalized content of an XML text node. ">
<polygon fill="white" stroke="black" points="152,-56.5 152,-75.5 260,-75.5 260,-56.5 152,-56.5"/>
<text text-anchor="middle" x="206" y="-63.5" font-family="Helvetica,sans-Serif" font-size="10.00">scram::GetContent</text>
</a>
</g>
</g>
<!-- Node1&#45;&gt;Node2 -->
<g id="edge2" class="edge"><title>Node1&#45;&gt;Node2</title>
<path fill="none" stroke="midnightblue" d="M108.837,-47.5577C120.582,-49.8103 133.221,-52.2341 145.35,-54.5603"/>
<polygon fill="midnightblue" stroke="midnightblue" points="144.908,-58.0392 155.388,-56.4854 146.226,-51.1645 144.908,-58.0392"/>
</g>
<!-- Node3 -->
<g id="node3" class="node"><title>Node3</title>
<g id="a_node3"><a xlink:href="xml_8h.xhtml#a0f074705681d730dcd5fb6035e91f30f" target="_top" xlink:title="Returns XML line number message. ">
<polygon fill="white" stroke="black" points="161.5,-0.5 161.5,-19.5 250.5,-19.5 250.5,-0.5 161.5,-0.5"/>
<text text-anchor="middle" x="206" y="-7.5" font-family="Helvetica,sans-Serif" font-size="10.00">scram::GetLine</text>
</a>
</g>
</g>
<!-- Node1&#45;&gt;Node3 -->
<g id="edge4" class="edge"><title>Node1&#45;&gt;Node3</title>
<path fill="none" stroke="midnightblue" d="M108.837,-28.4423C122.53,-25.8162 137.437,-22.9573 151.336,-20.2918"/>
<polygon fill="midnightblue" stroke="midnightblue" points="152.084,-23.7121 161.246,-18.3911 150.766,-16.8373 152.084,-23.7121"/>
</g>
<!-- Node2&#45;&gt;Node2 -->
<g id="edge3" class="edge"><title>Node2&#45;&gt;Node2</title>
<path fill="none" stroke="midnightblue" d="M183.189,-75.7571C172.092,-84.5653 179.695,-94 206,-94 223.262,-94 232.471,-89.9368 233.626,-84.6539"/>
<polygon fill="midnightblue" stroke="midnightblue" points="236.649,-82.886 228.811,-75.7571 230.492,-86.2176 236.649,-82.886"/>
</g>
<!-- Node3&#45;&gt;Node3 -->
<g id="edge5" class="edge"><title>Node3&#45;&gt;Node3</title>
<path fill="none" stroke="midnightblue" d="M183.189,-19.7571C172.092,-28.5653 179.695,-38 206,-38 223.262,-38 232.471,-33.9368 233.626,-28.6539"/>
<polygon fill="midnightblue" stroke="midnightblue" points="236.649,-26.886 228.811,-19.7571 230.492,-30.2176 236.649,-26.886"/>
</g>
</g>
</svg>
