<?xml version="1.0" encoding="UTF-8" standalone="no"?>
<!DOCTYPE svg PUBLIC "-//W3C//DTD SVG 1.1//EN"
 "http://www.w3.org/Graphics/SVG/1.1/DTD/svg11.dtd">
<!-- Generated by graphviz version 2.38.0 (20140413.2041)
 -->
<!-- Title: scram::CastAttributeValue Pages: 1 -->
<svg width="325pt" height="102pt"
 viewBox="0.00 0.00 325.00 102.00" xmlns="http://www.w3.org/2000/svg" xmlns:xlink="http://www.w3.org/1999/xlink">
<g id="graph0" class="graph" transform="scale(1 1) rotate(0) translate(4 98)">
<title>scram::CastAttributeValue</title>
<polygon fill="white" stroke="none" points="-4,4 -4,-98 321,-98 321,4 -4,4"/>
<!-- Node1 -->
<g id="node1" class="node"><title>Node1</title>
<polygon fill="#bfbfbf" stroke="black" points="0,-28.5 0,-47.5 143,-47.5 143,-28.5 0,-28.5"/>
<text text-anchor="middle" x="71.5" y="-35.5" font-family="Helvetica,sans-Serif" font-size="10.00">scram::CastAttributeValue</text>
</g>
<!-- Node1&#45;&gt;Node1 -->
<g id="edge1" class="edge"><title>Node1&#45;&gt;Node1</title>
<path fill="none" stroke="midnightblue" d="M44.3733,-47.7571C31.1765,-56.5653 40.2188,-66 71.5,-66 93.0059,-66 104,-61.5406 104.483,-55.8913"/>
<polygon fill="midnightblue" stroke="midnightblue" points="107.31,-53.8273 98.6267,-47.7571 101.629,-57.9175 107.31,-53.8273"/>
</g>
<!-- Node2 -->
<g id="node2" class="node"><title>Node2</title>
<g id="a_node2"><a xlink:href="xml_8h.xhtml#a0c5491388e25d1f1badb26b56ef302e7" target="_top" xlink:title="Returns Normalized (trimmed) string value of an XML element attribute. ">
<polygon fill="white" stroke="black" points="179,-56.5 179,-75.5 317,-75.5 317,-56.5 179,-56.5"/>
<text text-anchor="middle" x="248" y="-63.5" font-family="Helvetica,sans-Serif" font-size="10.00">scram::GetAttributeValue</text>
</a>
</g>
</g>
<!-- Node1&#45;&gt;Node2 -->
<g id="edge2" class="edge"><title>Node1&#45;&gt;Node2</title>
<path fill="none" stroke="midnightblue" d="M132.065,-47.5577C146.665,-49.9004 162.419,-52.4283 177.443,-54.8389"/>
<polygon fill="midnightblue" stroke="midnightblue" points="177.275,-58.3568 187.704,-56.4854 178.384,-51.4452 177.275,-58.3568"/>
</g>
<!-- Node3 -->
<g id="node3" class="node"><title>Node3</title>
<g id="a_node3"><a xlink:href="xml_8h.xhtml#a0f074705681d730dcd5fb6035e91f30f" target="_top" xlink:title="Returns XML line number message. ">
<polygon fill="white" stroke="black" points="203.5,-0.5 203.5,-19.5 292.5,-19.5 292.5,-0.5 203.5,-0.5"/>
<text text-anchor="middle" x="248" y="-7.5" font-family="Helvetica,sans-Serif" font-size="10.00">scram::GetLine</text>
</a>
</g>
</g>
<!-- Node1&#45;&gt;Node3 -->
<g id="edge4" class="edge"><title>Node1&#45;&gt;Node3</title>
<path fill="none" stroke="midnightblue" d="M132.065,-28.4423C151.991,-25.245 174.067,-21.7027 193.501,-18.5843"/>
<polygon fill="midnightblue" stroke="midnightblue" points="194.079,-22.0365 203.398,-16.9963 192.97,-15.1249 194.079,-22.0365"/>
</g>
<!-- Node2&#45;&gt;Node2 -->
<g id="edge3" class="edge"><title>Node2&#45;&gt;Node2</title>
<path fill="none" stroke="midnightblue" d="M220.873,-75.7571C207.677,-84.5653 216.719,-94 248,-94 269.506,-94 280.5,-89.5406 280.983,-83.8913"/>
<polygon fill="midnightblue" stroke="midnightblue" points="283.81,-81.8273 275.127,-75.7571 278.129,-85.9175 283.81,-81.8273"/>
</g>
<!-- Node3&#45;&gt;Node3 -->
<g id="edge5" class="edge"><title>Node3&#45;&gt;Node3</title>
<path fill="none" stroke="midnightblue" d="M220.873,-19.7571C207.677,-28.5653 216.719,-38 248,-38 269.506,-38 280.5,-33.5406 280.983,-27.8913"/>
<polygon fill="midnightblue" stroke="midnightblue" points="283.81,-25.8273 275.127,-19.7571 278.129,-29.9175 283.81,-25.8273"/>
</g>
</g>
</svg>
