<?xml version="1.0" encoding="UTF-8" standalone="no"?>
<!DOCTYPE svg PUBLIC "-//W3C//DTD SVG 1.1//EN"
 "http://www.w3.org/Graphics/SVG/1.1/DTD/svg11.dtd">
<!-- Generated by graphviz version 2.38.0 (20140413.2041)
 -->
<!-- Title: xml_stream.cc Pages: 1 -->
<svg width="249pt" height="196pt"
 viewBox="0.00 0.00 248.50 196.00" xmlns="http://www.w3.org/2000/svg" xmlns:xlink="http://www.w3.org/1999/xlink">
<g id="graph0" class="graph" transform="scale(1 1) rotate(0) translate(4 192)">
<title>xml_stream.cc</title>
<polygon fill="white" stroke="none" points="-4,4 -4,-192 244.5,-192 244.5,4 -4,4"/>
<!-- Node1 -->
<g id="node1" class="node"><title>Node1</title>
<polygon fill="#bfbfbf" stroke="black" points="117,-168.5 117,-187.5 204,-187.5 204,-168.5 117,-168.5"/>
<text text-anchor="middle" x="160.5" y="-175.5" font-family="Helvetica,sans-Serif" font-size="10.00">xml_stream.cc</text>
</g>
<!-- Node2 -->
<g id="node2" class="node"><title>Node2</title>
<g id="a_node2"><a xlink:href="xml__stream_8h.xhtml" target="_top" xlink:title="Facilities to stream data in XML format. ">
<polygon fill="white" stroke="black" points="49,-112.5 49,-131.5 132,-131.5 132,-112.5 49,-112.5"/>
<text text-anchor="middle" x="90.5" y="-119.5" font-family="Helvetica,sans-Serif" font-size="10.00">xml_stream.h</text>
</a>
</g>
</g>
<!-- Node1&#45;&gt;Node2 -->
<g id="edge1" class="edge"><title>Node1&#45;&gt;Node2</title>
<path fill="none" stroke="midnightblue" d="M149.253,-168.324C138.703,-160.185 122.699,-147.839 110.058,-138.087"/>
<polygon fill="midnightblue" stroke="midnightblue" points="112.007,-135.171 101.951,-131.834 107.731,-140.713 112.007,-135.171"/>
</g>
<!-- Node6 -->
<g id="node6" class="node"><title>Node6</title>
<polygon fill="white" stroke="#bfbfbf" points="138.5,-0.5 138.5,-19.5 182.5,-19.5 182.5,-0.5 138.5,-0.5"/>
<text text-anchor="middle" x="160.5" y="-7.5" font-family="Helvetica,sans-Serif" font-size="10.00">string</text>
</g>
<!-- Node1&#45;&gt;Node6 -->
<g id="edge7" class="edge"><title>Node1&#45;&gt;Node6</title>
<path fill="none" stroke="midnightblue" d="M160.5,-168.075C160.5,-141.945 160.5,-65.2106 160.5,-29.577"/>
<polygon fill="midnightblue" stroke="midnightblue" points="164,-29.5681 160.5,-19.5681 157,-29.5681 164,-29.5681"/>
</g>
<!-- Node7 -->
<g id="node7" class="node"><title>Node7</title>
<polygon fill="white" stroke="#bfbfbf" points="188.5,-112.5 188.5,-131.5 240.5,-131.5 240.5,-112.5 188.5,-112.5"/>
<text text-anchor="middle" x="214.5" y="-119.5" font-family="Helvetica,sans-Serif" font-size="10.00">cassert</text>
</g>
<!-- Node1&#45;&gt;Node7 -->
<g id="edge6" class="edge"><title>Node1&#45;&gt;Node7</title>
<path fill="none" stroke="midnightblue" d="M169.417,-168.083C177.28,-160.22 188.931,-148.569 198.419,-139.081"/>
<polygon fill="midnightblue" stroke="midnightblue" points="201.153,-141.297 205.749,-131.751 196.203,-136.347 201.153,-141.297"/>
</g>
<!-- Node3 -->
<g id="node3" class="node"><title>Node3</title>
<polygon fill="white" stroke="#bfbfbf" points="0,-56.5 0,-75.5 57,-75.5 57,-56.5 0,-56.5"/>
<text text-anchor="middle" x="28.5" y="-63.5" font-family="Helvetica,sans-Serif" font-size="10.00">ostream</text>
</g>
<!-- Node2&#45;&gt;Node3 -->
<g id="edge2" class="edge"><title>Node2&#45;&gt;Node3</title>
<path fill="none" stroke="midnightblue" d="M80.5386,-112.324C71.3734,-104.341 57.5628,-92.3128 46.4718,-82.6529"/>
<polygon fill="midnightblue" stroke="midnightblue" points="48.4822,-79.7624 38.6426,-75.8339 43.8847,-85.041 48.4822,-79.7624"/>
</g>
<!-- Node4 -->
<g id="node4" class="node"><title>Node4</title>
<g id="a_node4"><a xlink:href="error_8h.xhtml" target="_top" xlink:title="Exceptions for SCRAM. ">
<polygon fill="white" stroke="black" points="75.5,-56.5 75.5,-75.5 123.5,-75.5 123.5,-56.5 75.5,-56.5"/>
<text text-anchor="middle" x="99.5" y="-63.5" font-family="Helvetica,sans-Serif" font-size="10.00">error.h</text>
</a>
</g>
</g>
<!-- Node2&#45;&gt;Node4 -->
<g id="edge3" class="edge"><title>Node2&#45;&gt;Node4</title>
<path fill="none" stroke="midnightblue" d="M91.9862,-112.083C93.1788,-104.927 94.8941,-94.6353 96.3848,-85.6911"/>
<polygon fill="midnightblue" stroke="midnightblue" points="99.8498,-86.1904 98.0415,-75.7511 92.945,-85.0396 99.8498,-86.1904"/>
</g>
<!-- Node5 -->
<g id="node5" class="node"><title>Node5</title>
<polygon fill="white" stroke="#bfbfbf" points="57,-0.5 57,-19.5 120,-19.5 120,-0.5 57,-0.5"/>
<text text-anchor="middle" x="88.5" y="-7.5" font-family="Helvetica,sans-Serif" font-size="10.00">exception</text>
</g>
<!-- Node4&#45;&gt;Node5 -->
<g id="edge4" class="edge"><title>Node4&#45;&gt;Node5</title>
<path fill="none" stroke="midnightblue" d="M97.6836,-56.083C96.2259,-48.9272 94.1294,-38.6353 92.3075,-29.6911"/>
<polygon fill="midnightblue" stroke="midnightblue" points="95.7083,-28.8512 90.2826,-19.7511 88.8492,-30.2485 95.7083,-28.8512"/>
</g>
<!-- Node4&#45;&gt;Node6 -->
<g id="edge5" class="edge"><title>Node4&#45;&gt;Node6</title>
<path fill="none" stroke="midnightblue" d="M109.301,-56.324C118.318,-48.3414 131.906,-36.3128 142.818,-26.6529"/>
<polygon fill="midnightblue" stroke="midnightblue" points="145.353,-29.083 150.521,-19.8339 140.713,-23.8416 145.353,-29.083"/>
</g>
</g>
</svg>
