<?xml version="1.0" encoding="UTF-8" standalone="no"?>
<!DOCTYPE svg PUBLIC "-//W3C//DTD SVG 1.1//EN"
 "http://www.w3.org/Graphics/SVG/1.1/DTD/svg11.dtd">
<!-- Generated by graphviz version 2.38.0 (20140413.2041)
 -->
<!-- Title: scram::ConstructDomParser Pages: 1 -->
<svg width="315pt" height="78pt"
 viewBox="0.00 0.00 315.00 77.50" xmlns="http://www.w3.org/2000/svg" xmlns:xlink="http://www.w3.org/1999/xlink">
<g id="graph0" class="graph" transform="scale(1 1) rotate(0) translate(4 73.5)">
<title>scram::ConstructDomParser</title>
<polygon fill="white" stroke="none" points="-4,4 -4,-73.5 311,-73.5 311,4 -4,4"/>
<!-- Node1 -->
<g id="node1" class="node"><title>Node1</title>
<polygon fill="#bfbfbf" stroke="black" points="0,-28 0,-47 152,-47 152,-28 0,-28"/>
<text text-anchor="middle" x="76" y="-35" font-family="Helvetica,sans-Serif" font-size="10.00">scram::ConstructDomParser</text>
</g>
<!-- Node1&#45;&gt;Node1 -->
<g id="edge2" class="edge"><title>Node1&#45;&gt;Node1</title>
<path fill="none" stroke="midnightblue" d="M44.1886,-55.7746C45.0956,-61.241 55.6994,-65.5 76,-65.5 106.215,-65.5 114.949,-56.0653 102.202,-47.2571"/>
<polygon fill="midnightblue" stroke="midnightblue" points="47.2209,-57.5337 49.7981,-47.2571 41.3748,-53.6836 47.2209,-57.5337"/>
</g>
<!-- Node2 -->
<g id="node2" class="node"><title>Node2</title>
<g id="a_node2"><a xlink:href="classscram_1_1Config.xhtml#ab0d7940fbb627fab9867821e133eab5d" target="_top" xlink:title="A constructor with configurations for analysis. ">
<polygon fill="white" stroke="black" points="188,-50 188,-69 307,-69 307,-50 188,-50"/>
<text text-anchor="middle" x="247.5" y="-57" font-family="Helvetica,sans-Serif" font-size="10.00">scram::Config::Config</text>
</a>
</g>
</g>
<!-- Node1&#45;&gt;Node2 -->
<g id="edge1" class="edge"><title>Node1&#45;&gt;Node2</title>
<path fill="none" stroke="midnightblue" d="M160.392,-48.3237C169.664,-49.5272 178.958,-50.7335 187.83,-51.885"/>
<polygon fill="midnightblue" stroke="midnightblue" points="160.727,-44.8379 150.359,-47.0216 159.826,-51.7797 160.727,-44.8379"/>
</g>
<!-- Node3 -->
<g id="node3" class="node"><title>Node3</title>
<g id="a_node3"><a xlink:href="classscram_1_1mef_1_1Initializer.xhtml#ad259a0195e0839558cf99b9839624349" target="_top" xlink:title="Specializations for element registrations. ">
<polygon fill="white" stroke="black" points="188,-0.5 188,-30.5 307,-30.5 307,-0.5 188,-0.5"/>
<text text-anchor="start" x="196" y="-18.5" font-family="Helvetica,sans-Serif" font-size="10.00">scram::mef::Initializer</text>
<text text-anchor="middle" x="247.5" y="-7.5" font-family="Helvetica,sans-Serif" font-size="10.00">::Register</text>
</a>
</g>
</g>
<!-- Node1&#45;&gt;Node3 -->
<g id="edge3" class="edge"><title>Node1&#45;&gt;Node3</title>
<path fill="none" stroke="midnightblue" d="M160.392,-26.6763C169.664,-25.4728 178.958,-24.2665 187.83,-23.115"/>
<polygon fill="midnightblue" stroke="midnightblue" points="159.826,-23.2203 150.359,-27.9784 160.727,-30.1621 159.826,-23.2203"/>
</g>
</g>
</svg>
