<?xml version="1.0" encoding="UTF-8" standalone="no"?>
<!DOCTYPE svg PUBLIC "-//W3C//DTD SVG 1.1//EN"
 "http://www.w3.org/Graphics/SVG/1.1/DTD/svg11.dtd">
<!-- Generated by graphviz version 2.38.0 (20140413.2041)
 -->
<!-- Title: xml.h Pages: 1 -->
<svg width="919pt" height="140pt"
 viewBox="0.00 0.00 919.00 140.00" xmlns="http://www.w3.org/2000/svg" xmlns:xlink="http://www.w3.org/1999/xlink">
<g id="graph0" class="graph" transform="scale(1 1) rotate(0) translate(4 136)">
<title>xml.h</title>
<polygon fill="white" stroke="none" points="-4,4 -4,-136 915,-136 915,4 -4,4"/>
<!-- Node1 -->
<g id="node1" class="node"><title>Node1</title>
<polygon fill="#bfbfbf" stroke="black" points="401,-112.5 401,-131.5 444,-131.5 444,-112.5 401,-112.5"/>
<text text-anchor="middle" x="422.5" y="-119.5" font-family="Helvetica,sans-Serif" font-size="10.00">xml.h</text>
</g>
<!-- Node2 -->
<g id="node2" class="node"><title>Node2</title>
<polygon fill="white" stroke="#bfbfbf" points="0,-56.5 0,-75.5 57,-75.5 57,-56.5 0,-56.5"/>
<text text-anchor="middle" x="28.5" y="-63.5" font-family="Helvetica,sans-Serif" font-size="10.00">memory</text>
</g>
<!-- Node1&#45;&gt;Node2 -->
<g id="edge1" class="edge"><title>Node1&#45;&gt;Node2</title>
<path fill="none" stroke="midnightblue" d="M400.642,-118.804C345.329,-113.114 195.391,-96.8737 71.5,-76 70.0428,-75.7545 68.5599,-75.4946 67.0634,-75.2239"/>
<polygon fill="midnightblue" stroke="midnightblue" points="67.6016,-71.7634 57.1215,-73.3185 66.284,-78.6383 67.6016,-71.7634"/>
</g>
<!-- Node3 -->
<g id="node3" class="node"><title>Node3</title>
<polygon fill="white" stroke="#bfbfbf" points="424.5,-0.5 424.5,-19.5 468.5,-19.5 468.5,-0.5 424.5,-0.5"/>
<text text-anchor="middle" x="446.5" y="-7.5" font-family="Helvetica,sans-Serif" font-size="10.00">string</text>
</g>
<!-- Node1&#45;&gt;Node3 -->
<g id="edge2" class="edge"><title>Node1&#45;&gt;Node3</title>
<path fill="none" stroke="midnightblue" d="M400.982,-121.424C335.903,-122.2 143.254,-120.625 104.5,-76 98.6716,-69.2887 98.6389,-62.6828 104.5,-56 124.789,-32.8665 332.928,-17.8736 414.22,-12.8605"/>
<polygon fill="midnightblue" stroke="midnightblue" points="414.604,-16.3438 424.374,-12.2458 414.181,-9.35656 414.604,-16.3438"/>
</g>
<!-- Node4 -->
<g id="node4" class="node"><title>Node4</title>
<polygon fill="white" stroke="#bfbfbf" points="113.5,-56.5 113.5,-75.5 181.5,-75.5 181.5,-56.5 113.5,-56.5"/>
<text text-anchor="middle" x="147.5" y="-63.5" font-family="Helvetica,sans-Serif" font-size="10.00">type_traits</text>
</g>
<!-- Node1&#45;&gt;Node4 -->
<g id="edge3" class="edge"><title>Node1&#45;&gt;Node4</title>
<path fill="none" stroke="midnightblue" d="M400.729,-116.888C361.176,-109.394 274.646,-92.8904 191.603,-76.2006"/>
<polygon fill="midnightblue" stroke="midnightblue" points="192.252,-72.7612 181.758,-74.2178 190.87,-79.6234 192.252,-72.7612"/>
</g>
<!-- Node5 -->
<g id="node5" class="node"><title>Node5</title>
<polygon fill="white" stroke="#bfbfbf" points="200,-56.5 200,-75.5 343,-75.5 343,-56.5 200,-56.5"/>
<text text-anchor="middle" x="271.5" y="-63.5" font-family="Helvetica,sans-Serif" font-size="10.00">boost/algorithm/string.hpp</text>
</g>
<!-- Node1&#45;&gt;Node5 -->
<g id="edge4" class="edge"><title>Node1&#45;&gt;Node5</title>
<path fill="none" stroke="midnightblue" d="M400.865,-113.263C375.844,-104.315 334.354,-89.4776 305.119,-79.0227"/>
<polygon fill="midnightblue" stroke="midnightblue" points="305.931,-75.5961 295.337,-75.5243 303.574,-82.1873 305.931,-75.5961"/>
</g>
<!-- Node6 -->
<g id="node6" class="node"><title>Node6</title>
<polygon fill="white" stroke="#bfbfbf" points="361.5,-56.5 361.5,-75.5 483.5,-75.5 483.5,-56.5 361.5,-56.5"/>
<text text-anchor="middle" x="422.5" y="-63.5" font-family="Helvetica,sans-Serif" font-size="10.00">boost/lexical_cast.hpp</text>
</g>
<!-- Node1&#45;&gt;Node6 -->
<g id="edge5" class="edge"><title>Node1&#45;&gt;Node6</title>
<path fill="none" stroke="midnightblue" d="M422.5,-112.083C422.5,-105.006 422.5,-94.8611 422.5,-85.9865"/>
<polygon fill="midnightblue" stroke="midnightblue" points="426,-85.751 422.5,-75.7511 419,-85.7511 426,-85.751"/>
</g>
<!-- Node7 -->
<g id="node7" class="node"><title>Node7</title>
<polygon fill="white" stroke="#bfbfbf" points="502,-56.5 502,-75.5 619,-75.5 619,-56.5 502,-56.5"/>
<text text-anchor="middle" x="560.5" y="-63.5" font-family="Helvetica,sans-Serif" font-size="10.00">libxml++/libxml++.h</text>
</g>
<!-- Node1&#45;&gt;Node7 -->
<g id="edge6" class="edge"><title>Node1&#45;&gt;Node7</title>
<path fill="none" stroke="midnightblue" d="M444.062,-112.562C466.917,-103.62 503.228,-89.4106 529.225,-79.2381"/>
<polygon fill="midnightblue" stroke="midnightblue" points="530.596,-82.4599 538.633,-75.5565 528.046,-75.9412 530.596,-82.4599"/>
</g>
<!-- Node8 -->
<g id="node8" class="node"><title>Node8</title>
<polygon fill="white" stroke="#bfbfbf" points="637.5,-56.5 637.5,-75.5 723.5,-75.5 723.5,-56.5 637.5,-56.5"/>
<text text-anchor="middle" x="680.5" y="-63.5" font-family="Helvetica,sans-Serif" font-size="10.00">libxml/parser.h</text>
</g>
<!-- Node1&#45;&gt;Node8 -->
<g id="edge7" class="edge"><title>Node1&#45;&gt;Node8</title>
<path fill="none" stroke="midnightblue" d="M444.053,-116.489C484.612,-108 573.272,-89.4432 629.756,-77.6209"/>
<polygon fill="midnightblue" stroke="midnightblue" points="630.494,-81.0424 639.565,-75.5679 629.06,-74.1908 630.494,-81.0424"/>
</g>
<!-- Node9 -->
<g id="node9" class="node"><title>Node9</title>
<polygon fill="white" stroke="#bfbfbf" points="742,-56.5 742,-75.5 837,-75.5 837,-56.5 742,-56.5"/>
<text text-anchor="middle" x="789.5" y="-63.5" font-family="Helvetica,sans-Serif" font-size="10.00">libxml/xinclude.h</text>
</g>
<!-- Node1&#45;&gt;Node9 -->
<g id="edge8" class="edge"><title>Node1&#45;&gt;Node9</title>
<path fill="none" stroke="midnightblue" d="M444.313,-117.929C493.521,-110.98 617.153,-93.4093 731.912,-76.0728"/>
<polygon fill="midnightblue" stroke="midnightblue" points="732.558,-79.515 741.921,-74.5578 731.51,-72.5938 732.558,-79.515"/>
</g>
<!-- Node10 -->
<g id="node10" class="node"><title>Node10</title>
<g id="a_node10"><a xlink:href="error_8h.xhtml" target="_top" xlink:title="Exceptions for SCRAM. ">
<polygon fill="white" stroke="black" points="855.5,-56.5 855.5,-75.5 903.5,-75.5 903.5,-56.5 855.5,-56.5"/>
<text text-anchor="middle" x="879.5" y="-63.5" font-family="Helvetica,sans-Serif" font-size="10.00">error.h</text>
</a>
</g>
</g>
<!-- Node1&#45;&gt;Node10 -->
<g id="edge9" class="edge"><title>Node1&#45;&gt;Node10</title>
<path fill="none" stroke="midnightblue" d="M444.238,-119.863C506.937,-116.331 693.346,-104.061 845.5,-76 845.601,-75.9813 845.703,-75.9625 845.804,-75.9435"/>
<polygon fill="midnightblue" stroke="midnightblue" points="846.426,-79.3902 855.457,-73.8506 844.942,-72.5492 846.426,-79.3902"/>
</g>
<!-- Node10&#45;&gt;Node3 -->
<g id="edge11" class="edge"><title>Node10&#45;&gt;Node3</title>
<path fill="none" stroke="midnightblue" d="M855.453,-58.1686C852.127,-57.3604 848.741,-56.6083 845.5,-56 710.554,-30.6709 547.069,-17.6795 478.842,-13.0346"/>
<polygon fill="midnightblue" stroke="midnightblue" points="478.94,-9.53345 468.729,-12.3602 478.474,-16.5179 478.94,-9.53345"/>
</g>
<!-- Node11 -->
<g id="node11" class="node"><title>Node11</title>
<polygon fill="white" stroke="#bfbfbf" points="848,-0.5 848,-19.5 911,-19.5 911,-0.5 848,-0.5"/>
<text text-anchor="middle" x="879.5" y="-7.5" font-family="Helvetica,sans-Serif" font-size="10.00">exception</text>
</g>
<!-- Node10&#45;&gt;Node11 -->
<g id="edge10" class="edge"><title>Node10&#45;&gt;Node11</title>
<path fill="none" stroke="midnightblue" d="M879.5,-56.083C879.5,-49.0059 879.5,-38.8611 879.5,-29.9865"/>
<polygon fill="midnightblue" stroke="midnightblue" points="883,-29.751 879.5,-19.7511 876,-29.7511 883,-29.751"/>
</g>
</g>
</svg>
