<?xml version="1.0" encoding="UTF-8" standalone="no"?>
<!DOCTYPE svg PUBLIC "-//W3C//DTD SVG 1.1//EN"
 "http://www.w3.org/Graphics/SVG/1.1/DTD/svg11.dtd">
<!-- Generated by graphviz version 2.38.0 (20140413.2041)
 -->
<!-- Title: zbdd.h Pages: 1 -->
<!--zoomable 285 -->
<svg id="main" version="1.1" xmlns="http://www.w3.org/2000/svg" xmlns:xlink="http://www.w3.org/1999/xlink" xml:space="preserve" onload="init(evt)">
<style type="text/css"><![CDATA[
.edge:hover path { stroke: red; }
.edge:hover polygon { stroke: red; fill: red; }
]]></style>
<script type="text/javascript"><![CDATA[
var edges = document.getElementsByTagName('g');
if (edges && edges.length) {
  for (var i=0;i<edges.length;i++) {
    if (edges[i].id.substr(0,4)=='edge') {
      edges[i].setAttribute('class','edge');
    }
  }
}
]]></script>
        <defs>
                <circle id="rim" cx="0" cy="0" r="7"/>
                <circle id="rim2" cx="0" cy="0" r="3.5"/>
                <g id="zoomPlus">
                        <use xlink:href="#rim" fill="#404040">
                                <set attributeName="fill" to="#808080" begin="zoomplus.mouseover" end="zoomplus.mouseout"/>
                        </use>
                        <path d="M-4,0h8M0,-4v8" fill="none" stroke="white" stroke-width="1.5" pointer-events="none"/>
                </g>
                <g id="zoomMin">
                        <use xlink:href="#rim" fill="#404040">
                                <set attributeName="fill" to="#808080" begin="zoomminus.mouseover" end="zoomminus.mouseout"/>
                        </use>
                        <path d="M-4,0h8" fill="none" stroke="white" stroke-width="1.5" pointer-events="none"/>
                </g>
                <g id="dirArrow">
                        <path fill="none" stroke="white" stroke-width="1.5" d="M0,-3.0v7 M-2.5,-0.5L0,-3.0L2.5,-0.5"/>
                </g>
               <g id="resetDef">
                       <use xlink:href="#rim2" fill="#404040">
                               <set attributeName="fill" to="#808080" begin="reset.mouseover" end="reset.mouseout"/>
                       </use>
               </g>
        </defs>

<script type="text/javascript">
var viewWidth = 1809;
var viewHeight = 285;
var sectionId = 'dynsection-0';
</script>
<script xlink:href="svgpan.js"/>
<svg id="graph" class="graph">
<g id="viewport">
<title>zbdd.h</title>
<polygon fill="white" stroke="none" points="-4,4 -4,-281 1804.65,-281 1804.65,4 -4,4"/>
<!-- Node1 -->
<g id="node1" class="node"><title>Node1</title>
<polygon fill="#bfbfbf" stroke="black" points="252.682,-257.5 252.682,-276.5 301.682,-276.5 301.682,-257.5 252.682,-257.5"/>
<text text-anchor="middle" x="277.182" y="-264.5" font-family="Helvetica,sans-Serif" font-size="10.00">zbdd.h</text>
</g>
<!-- Node2 -->
<g id="node2" class="node"><title>Node2</title>
<polygon fill="white" stroke="#bfbfbf" points="403.682,-62 403.682,-81 452.682,-81 452.682,-62 403.682,-62"/>
<text text-anchor="middle" x="428.182" y="-69" font-family="Helvetica,sans-Serif" font-size="10.00">cstdint</text>
</g>
<!-- Node1&#45;&gt;Node2 -->
<g id="edge1" class="edge"><title>Node1&#45;&gt;Node2</title>
<path fill="none" stroke="midnightblue" d="M252.61,-263.911C225.972,-260.185 184.662,-249.82 165.182,-221 140.792,-184.914 137.439,-156.577 165.182,-123 193.726,-88.4539 328.407,-77.3003 393.198,-73.898"/>
<polygon fill="midnightblue" stroke="midnightblue" points="393.522,-77.3864 403.338,-73.3991 393.178,-70.3948 393.522,-77.3864"/>
</g>
<!-- Node3 -->
<g id="node3" class="node"><title>Node3</title>
<polygon fill="white" stroke="#bfbfbf" points="15.6825,-196 15.6825,-215 56.6825,-215 56.6825,-196 15.6825,-196"/>
<text text-anchor="middle" x="36.1825" y="-203" font-family="Helvetica,sans-Serif" font-size="10.00">array</text>
</g>
<!-- Node1&#45;&gt;Node3 -->
<g id="edge2" class="edge"><title>Node1&#45;&gt;Node3</title>
<path fill="none" stroke="midnightblue" d="M252.621,-262.72C212.733,-256.962 131.733,-243.465 66.1825,-221 64.5647,-220.446 62.9205,-219.826 61.2776,-219.163"/>
<polygon fill="midnightblue" stroke="midnightblue" points="62.6326,-215.935 52.0743,-215.057 59.7801,-222.328 62.6326,-215.935"/>
</g>
<!-- Node4 -->
<g id="node4" class="node"><title>Node4</title>
<polygon fill="white" stroke="#bfbfbf" points="75.1825,-196 75.1825,-215 113.182,-215 113.182,-196 75.1825,-196"/>
<text text-anchor="middle" x="94.1825" y="-203" font-family="Helvetica,sans-Serif" font-size="10.00">map</text>
</g>
<!-- Node1&#45;&gt;Node4 -->
<g id="edge3" class="edge"><title>Node1&#45;&gt;Node4</title>
<path fill="none" stroke="midnightblue" d="M252.457,-259.583C222.472,-251.572 170.557,-236.967 127.182,-221 125.527,-220.391 123.836,-219.74 122.138,-219.064"/>
<polygon fill="midnightblue" stroke="midnightblue" points="123.096,-215.67 112.52,-215.033 120.39,-222.126 123.096,-215.67"/>
</g>
<!-- Node5 -->
<g id="node5" class="node"><title>Node5</title>
<polygon fill="white" stroke="#bfbfbf" points="1722.68,-62 1722.68,-81 1779.68,-81 1779.68,-62 1722.68,-62"/>
<text text-anchor="middle" x="1751.18" y="-69" font-family="Helvetica,sans-Serif" font-size="10.00">memory</text>
</g>
<!-- Node1&#45;&gt;Node5 -->
<g id="edge4" class="edge"><title>Node1&#45;&gt;Node5</title>
<path fill="none" stroke="midnightblue" d="M301.871,-265.882C484.625,-264.782 1623.28,-253.93 1734.18,-154 1751.51,-138.383 1753.75,-110.058 1753.03,-91.2601"/>
<polygon fill="midnightblue" stroke="midnightblue" points="1756.52,-90.9575 1752.34,-81.2227 1749.54,-91.4403 1756.52,-90.9575"/>
</g>
<!-- Node6 -->
<g id="node6" class="node"><title>Node6</title>
<polygon fill="white" stroke="#bfbfbf" points="571.682,-62 571.682,-81 664.682,-81 664.682,-62 571.682,-62"/>
<text text-anchor="middle" x="618.182" y="-69" font-family="Helvetica,sans-Serif" font-size="10.00">unordered_map</text>
</g>
<!-- Node1&#45;&gt;Node6 -->
<g id="edge5" class="edge"><title>Node1&#45;&gt;Node6</title>
<path fill="none" stroke="midnightblue" d="M265.741,-257.438C235.575,-233.882 158.823,-166.946 198.182,-123 246.809,-68.7078 451.927,-96.5579 524.182,-87 536.204,-85.4098 549.064,-83.5387 561.292,-81.6787"/>
<polygon fill="midnightblue" stroke="midnightblue" points="562.031,-85.1062 571.382,-80.1254 560.966,-78.1877 562.031,-85.1062"/>
</g>
<!-- Node7 -->
<g id="node7" class="node"><title>Node7</title>
<polygon fill="white" stroke="#bfbfbf" points="859.182,-0.5 859.182,-19.5 901.182,-19.5 901.182,-0.5 859.182,-0.5"/>
<text text-anchor="middle" x="880.182" y="-7.5" font-family="Helvetica,sans-Serif" font-size="10.00">utility</text>
</g>
<!-- Node1&#45;&gt;Node7 -->
<g id="edge6" class="edge"><title>Node1&#45;&gt;Node7</title>
<path fill="none" stroke="midnightblue" d="M252.521,-265.786C191.801,-264.683 37.7147,-258.2 6.18246,-221 -2.72629,-210.49 -1.12916,-201.678 6.18246,-190 98.6072,-42.3852 703.136,-15.9845 848.695,-11.748"/>
<polygon fill="midnightblue" stroke="midnightblue" points="849.22,-15.2349 859.12,-11.4602 849.027,-8.23757 849.22,-15.2349"/>
</g>
<!-- Node8 -->
<g id="node8" class="node"><title>Node8</title>
<polygon fill="white" stroke="#bfbfbf" points="1632.68,-0.5 1632.68,-19.5 1679.68,-19.5 1679.68,-0.5 1632.68,-0.5"/>
<text text-anchor="middle" x="1656.18" y="-7.5" font-family="Helvetica,sans-Serif" font-size="10.00">vector</text>
</g>
<!-- Node1&#45;&gt;Node8 -->
<g id="edge7" class="edge"><title>Node1&#45;&gt;Node8</title>
<path fill="none" stroke="midnightblue" d="M302.01,-266.07C457.464,-266.367 1298.4,-265.849 1551.18,-221 1645.56,-204.255 1683.77,-216.808 1756.18,-154 1790.9,-123.886 1815.97,-93.344 1789.18,-56 1766.72,-24.6802 1721.26,-14.8828 1689.79,-11.9693"/>
<polygon fill="midnightblue" stroke="midnightblue" points="1689.93,-8.47071 1679.7,-11.224 1689.42,-15.4517 1689.93,-8.47071"/>
</g>
<!-- Node9 -->
<g id="node9" class="node"><title>Node9</title>
<polygon fill="white" stroke="#bfbfbf" points="207.182,-129 207.182,-148 347.182,-148 347.182,-129 207.182,-129"/>
<text text-anchor="middle" x="277.182" y="-136" font-family="Helvetica,sans-Serif" font-size="10.00">boost/functional/hash.hpp</text>
</g>
<!-- Node1&#45;&gt;Node9 -->
<g id="edge8" class="edge"><title>Node1&#45;&gt;Node9</title>
<path fill="none" stroke="midnightblue" d="M277.182,-257.305C277.182,-236.994 277.182,-186.053 277.182,-158.277"/>
<polygon fill="midnightblue" stroke="midnightblue" points="280.683,-158.256 277.182,-148.256 273.683,-158.256 280.683,-158.256"/>
</g>
<!-- Node10 -->
<g id="node10" class="node"><title>Node10</title>
<polygon fill="white" stroke="#bfbfbf" points="948.182,-190.5 948.182,-220.5 1068.18,-220.5 1068.18,-190.5 948.182,-190.5"/>
<text text-anchor="start" x="956.182" y="-208.5" font-family="Helvetica,sans-Serif" font-size="10.00">boost/iterator/iterator</text>
<text text-anchor="middle" x="1008.18" y="-197.5" font-family="Helvetica,sans-Serif" font-size="10.00">_facade.hpp</text>
</g>
<!-- Node1&#45;&gt;Node10 -->
<g id="edge9" class="edge"><title>Node1&#45;&gt;Node10</title>
<path fill="none" stroke="midnightblue" d="M301.753,-265.425C388.557,-263.158 688.777,-253.318 934.182,-221 935.46,-220.832 936.749,-220.655 938.046,-220.471"/>
<polygon fill="midnightblue" stroke="midnightblue" points="938.758,-223.902 948.111,-218.923 937.695,-216.984 938.758,-223.902"/>
</g>
<!-- Node11 -->
<g id="node11" class="node"><title>Node11</title>
<polygon fill="white" stroke="#bfbfbf" points="683.182,-62 683.182,-81 811.182,-81 811.182,-62 683.182,-62"/>
<text text-anchor="middle" x="747.182" y="-69" font-family="Helvetica,sans-Serif" font-size="10.00">boost/noncopyable.hpp</text>
</g>
<!-- Node1&#45;&gt;Node11 -->
<g id="edge10" class="edge"><title>Node1&#45;&gt;Node11</title>
<path fill="none" stroke="midnightblue" d="M301.807,-265.708C407.985,-263.869 824.691,-250.514 900.182,-154 908.671,-143.148 908.255,-134.165 900.182,-123 888.26,-106.509 840.467,-92.4509 801.429,-83.3869"/>
<polygon fill="midnightblue" stroke="midnightblue" points="801.731,-79.867 791.205,-81.0785 800.189,-86.6951 801.731,-79.867"/>
</g>
<!-- Node12 -->
<g id="node12" class="node"><title>Node12</title>
<g id="a_node12"><a xlink:href="bdd_8h.xhtml" target="_top" xlink:title="Fault tree analysis with the Binary Decision Diagram algorithms. ">
<polygon fill="white" stroke="black" points="577.182,-196 577.182,-215 621.182,-215 621.182,-196 577.182,-196"/>
<text text-anchor="middle" x="599.182" y="-203" font-family="Helvetica,sans-Serif" font-size="10.00">bdd.h</text>
</a>
</g>
</g>
<!-- Node1&#45;&gt;Node12 -->
<g id="edge11" class="edge"><title>Node1&#45;&gt;Node12</title>
<path fill="none" stroke="midnightblue" d="M301.915,-261.43C359.528,-250.784 502.657,-224.336 566.979,-212.451"/>
<polygon fill="midnightblue" stroke="midnightblue" points="567.762,-215.865 576.96,-210.606 566.49,-208.982 567.762,-215.865"/>
</g>
<!-- Node12&#45;&gt;Node5 -->
<g id="edge15" class="edge"><title>Node12&#45;&gt;Node5</title>
<path fill="none" stroke="midnightblue" d="M621.272,-203.531C777.137,-196.692 1705.2,-155.892 1708.18,-154 1730.42,-139.891 1741.84,-110.23 1747.16,-90.85"/>
<polygon fill="midnightblue" stroke="midnightblue" points="1750.57,-91.6107 1749.57,-81.0638 1743.78,-89.9366 1750.57,-91.6107"/>
</g>
<!-- Node12&#45;&gt;Node6 -->
<g id="edge16" class="edge"><title>Node12&#45;&gt;Node6</title>
<path fill="none" stroke="midnightblue" d="M600.429,-195.839C603.476,-174.674 611.353,-119.948 615.515,-91.0329"/>
<polygon fill="midnightblue" stroke="midnightblue" points="618.995,-91.4178 616.956,-81.0212 612.067,-90.4205 618.995,-91.4178"/>
</g>
<!-- Node12&#45;&gt;Node7 -->
<g id="edge17" class="edge"><title>Node12&#45;&gt;Node7</title>
<path fill="none" stroke="midnightblue" d="M576.929,-202.412C528.634,-197.373 416.733,-182.78 394.182,-154 367.319,-119.716 364.838,-88.1869 394.182,-56 424.853,-22.3589 746.491,-13.4876 848.989,-11.506"/>
<polygon fill="midnightblue" stroke="midnightblue" points="849.091,-15.0048 859.025,-11.3207 848.962,-8.00598 849.091,-15.0048"/>
</g>
<!-- Node12&#45;&gt;Node8 -->
<g id="edge18" class="edge"><title>Node12&#45;&gt;Node8</title>
<path fill="none" stroke="midnightblue" d="M621.582,-203.78C768.245,-198.842 1587.67,-167.735 1659.18,-87 1672.83,-71.5939 1668.75,-46.7762 1663.46,-29.7176"/>
<polygon fill="midnightblue" stroke="midnightblue" points="1666.6,-28.087 1659.99,-19.8049 1660,-30.3998 1666.6,-28.087"/>
</g>
<!-- Node12&#45;&gt;Node9 -->
<g id="edge19" class="edge"><title>Node12&#45;&gt;Node9</title>
<path fill="none" stroke="midnightblue" d="M577.05,-200.032C526.468,-189.822 401.258,-164.546 329.65,-150.091"/>
<polygon fill="midnightblue" stroke="midnightblue" points="329.984,-146.588 319.489,-148.04 328.599,-153.45 329.984,-146.588"/>
</g>
<!-- Node12&#45;&gt;Node11 -->
<g id="edge20" class="edge"><title>Node12&#45;&gt;Node11</title>
<path fill="none" stroke="midnightblue" d="M603.472,-195.927C611.808,-179.942 631.558,-145.196 656.182,-123 673.897,-107.033 697.536,-94.1061 716.281,-85.3291"/>
<polygon fill="midnightblue" stroke="midnightblue" points="717.91,-88.4334 725.58,-81.1235 715.026,-82.0554 717.91,-88.4334"/>
</g>
<!-- Node13 -->
<g id="node13" class="node"><title>Node13</title>
<polygon fill="white" stroke="#bfbfbf" points="403.682,-129 403.682,-148 450.682,-148 450.682,-129 403.682,-129"/>
<text text-anchor="middle" x="427.182" y="-136" font-family="Helvetica,sans-Serif" font-size="10.00">cmath</text>
</g>
<!-- Node12&#45;&gt;Node13 -->
<g id="edge12" class="edge"><title>Node12&#45;&gt;Node13</title>
<path fill="none" stroke="midnightblue" d="M576.865,-196.898C549.264,-187.38 500.935,-170.336 460.182,-154 458.767,-153.432 457.321,-152.842 455.865,-152.237"/>
<polygon fill="midnightblue" stroke="midnightblue" points="456.859,-148.856 446.288,-148.148 454.11,-155.293 456.859,-148.856"/>
</g>
<!-- Node14 -->
<g id="node14" class="node"><title>Node14</title>
<polygon fill="white" stroke="#bfbfbf" points="943.182,-0.5 943.182,-19.5 1005.18,-19.5 1005.18,-0.5 943.182,-0.5"/>
<text text-anchor="middle" x="974.182" y="-7.5" font-family="Helvetica,sans-Serif" font-size="10.00">algorithm</text>
</g>
<!-- Node12&#45;&gt;Node14 -->
<g id="edge13" class="edge"><title>Node12&#45;&gt;Node14</title>
<path fill="none" stroke="midnightblue" d="M592.408,-195.852C573.651,-170.818 524.814,-97.4338 562.182,-56 588.217,-27.133 871.596,-24.7074 910.182,-20 917.533,-19.1032 925.348,-18.0706 932.898,-17.0319"/>
<polygon fill="midnightblue" stroke="midnightblue" points="933.544,-20.4757 942.963,-15.6237 932.574,-13.5433 933.544,-20.4757"/>
</g>
<!-- Node15 -->
<g id="node15" class="node"><title>Node15</title>
<polygon fill="white" stroke="#bfbfbf" points="665.682,-129 665.682,-148 736.682,-148 736.682,-129 665.682,-129"/>
<text text-anchor="middle" x="701.182" y="-136" font-family="Helvetica,sans-Serif" font-size="10.00">forward_list</text>
</g>
<!-- Node12&#45;&gt;Node15 -->
<g id="edge14" class="edge"><title>Node12&#45;&gt;Node15</title>
<path fill="none" stroke="midnightblue" d="M612.939,-195.734C629.915,-184.916 658.997,-166.383 679.11,-153.566"/>
<polygon fill="midnightblue" stroke="midnightblue" points="681.092,-156.453 687.644,-148.127 677.33,-150.55 681.092,-156.453"/>
</g>
<!-- Node16 -->
<g id="node16" class="node"><title>Node16</title>
<polygon fill="white" stroke="#bfbfbf" points="754.682,-123.5 754.682,-153.5 891.682,-153.5 891.682,-123.5 754.682,-123.5"/>
<text text-anchor="start" x="762.682" y="-141.5" font-family="Helvetica,sans-Serif" font-size="10.00">boost/smart_ptr/intrusive</text>
<text text-anchor="middle" x="823.182" y="-130.5" font-family="Helvetica,sans-Serif" font-size="10.00">_ptr.hpp</text>
</g>
<!-- Node12&#45;&gt;Node16 -->
<g id="edge21" class="edge"><title>Node12&#45;&gt;Node16</title>
<path fill="none" stroke="midnightblue" d="M621.479,-198.03C654.643,-188.407 718.087,-169.996 765.002,-156.383"/>
<polygon fill="midnightblue" stroke="midnightblue" points="766.117,-159.703 774.746,-153.555 764.167,-152.981 766.117,-159.703"/>
</g>
<!-- Node17 -->
<g id="node17" class="node"><title>Node17</title>
<g id="a_node17"><a xlink:href="pdag_8h.xhtml" target="_top" xlink:title="Classes and facilities to represent fault trees as PDAGs with event and gate indices instead of ID na...">
<polygon fill="white" stroke="black" points="1049.18,-129 1049.18,-148 1099.18,-148 1099.18,-129 1049.18,-129"/>
<text text-anchor="middle" x="1074.18" y="-136" font-family="Helvetica,sans-Serif" font-size="10.00">pdag.h</text>
</a>
</g>
</g>
<!-- Node12&#45;&gt;Node17 -->
<g id="edge22" class="edge"><title>Node12&#45;&gt;Node17</title>
<path fill="none" stroke="midnightblue" d="M621.456,-201.452C697.398,-191.06 946.58,-156.961 1039.15,-144.294"/>
<polygon fill="midnightblue" stroke="midnightblue" points="1039.7,-147.751 1049.13,-142.928 1038.75,-140.816 1039.7,-147.751"/>
</g>
<!-- Node28 -->
<g id="node28" class="node"><title>Node28</title>
<g id="a_node28"><a xlink:href="settings_8h.xhtml" target="_top" xlink:title="Builder for settings. ">
<polygon fill="white" stroke="black" points="469.182,-129 469.182,-148 533.182,-148 533.182,-129 469.182,-129"/>
<text text-anchor="middle" x="501.182" y="-136" font-family="Helvetica,sans-Serif" font-size="10.00">settings.h</text>
</a>
</g>
</g>
<!-- Node12&#45;&gt;Node28 -->
<g id="edge45" class="edge"><title>Node12&#45;&gt;Node28</title>
<path fill="none" stroke="midnightblue" d="M585.966,-195.734C569.729,-184.964 541.966,-166.55 522.651,-153.739"/>
<polygon fill="midnightblue" stroke="midnightblue" points="524.458,-150.738 514.19,-148.127 520.589,-156.571 524.458,-150.738"/>
</g>
<!-- Node17&#45;&gt;Node2 -->
<g id="edge23" class="edge"><title>Node17&#45;&gt;Node2</title>
<path fill="none" stroke="midnightblue" d="M1049.11,-135.402C1015.3,-132.574 953.201,-127.388 900.182,-123 705.525,-106.89 651.788,-133.915 462.182,-87 459.817,-86.4148 457.406,-85.6842 455.014,-84.8642"/>
<polygon fill="midnightblue" stroke="midnightblue" points="456.047,-81.5102 445.458,-81.1338 453.501,-88.0309 456.047,-81.5102"/>
</g>
<!-- Node17&#45;&gt;Node5 -->
<g id="edge27" class="edge"><title>Node17&#45;&gt;Node5</title>
<path fill="none" stroke="midnightblue" d="M1099.25,-136.209C1181.41,-131.802 1449.86,-115.991 1670.18,-87 1684.07,-85.1732 1699.19,-82.6197 1712.57,-80.1638"/>
<polygon fill="midnightblue" stroke="midnightblue" points="1713.23,-83.6011 1722.42,-78.3183 1711.94,-76.7209 1713.23,-83.6011"/>
</g>
<!-- Node17&#45;&gt;Node6 -->
<g id="edge28" class="edge"><title>Node17&#45;&gt;Node6</title>
<path fill="none" stroke="midnightblue" d="M1048.73,-135.425C985.157,-129.994 814.418,-113.894 674.182,-87 669.014,-86.0087 663.614,-84.8157 658.295,-83.545"/>
<polygon fill="midnightblue" stroke="midnightblue" points="658.797,-80.063 648.248,-81.0383 657.103,-86.8549 658.797,-80.063"/>
</g>
<!-- Node17&#45;&gt;Node7 -->
<g id="edge29" class="edge"><title>Node17&#45;&gt;Node7</title>
<path fill="none" stroke="midnightblue" d="M1060.04,-128.888C1043.8,-118.952 1016.41,-102.045 993.182,-87 960.743,-65.988 923.654,-40.82 901.083,-25.3723"/>
<polygon fill="midnightblue" stroke="midnightblue" points="902.857,-22.345 892.63,-19.5771 898.898,-28.1185 902.857,-22.345"/>
</g>
<!-- Node17&#45;&gt;Node8 -->
<g id="edge30" class="edge"><title>Node17&#45;&gt;Node8</title>
<path fill="none" stroke="midnightblue" d="M1099.5,-136.929C1203.69,-134.354 1595.84,-122.365 1637.18,-87 1653.46,-73.0756 1656.9,-47.5177 1657.14,-29.9116"/>
<polygon fill="midnightblue" stroke="midnightblue" points="1660.63,-29.6205 1656.93,-19.6923 1653.63,-29.7601 1660.63,-29.6205"/>
</g>
<!-- Node17&#45;&gt;Node11 -->
<g id="edge32" class="edge"><title>Node17&#45;&gt;Node11</title>
<path fill="none" stroke="midnightblue" d="M1049.07,-132.507C996.04,-121.967 871.684,-97.2479 800.219,-83.0425"/>
<polygon fill="midnightblue" stroke="midnightblue" points="800.564,-79.5427 790.074,-81.0258 799.199,-86.4083 800.564,-79.5427"/>
</g>
<!-- Node17&#45;&gt;Node14 -->
<g id="edge25" class="edge"><title>Node17&#45;&gt;Node14</title>
<path fill="none" stroke="midnightblue" d="M1061.96,-128.879C1049.39,-119.577 1029.78,-103.823 1016.18,-87 1001.57,-68.9171 989.321,-45.0402 981.891,-28.9125"/>
<polygon fill="midnightblue" stroke="midnightblue" points="984.996,-27.281 977.728,-19.5721 978.602,-30.1308 984.996,-27.281"/>
</g>
<!-- Node18 -->
<g id="node18" class="node"><title>Node18</title>
<polygon fill="white" stroke="#bfbfbf" points="1140.68,-62 1140.68,-81 1187.68,-81 1187.68,-62 1140.68,-62"/>
<text text-anchor="middle" x="1164.18" y="-69" font-family="Helvetica,sans-Serif" font-size="10.00">cstdlib</text>
</g>
<!-- Node17&#45;&gt;Node18 -->
<g id="edge24" class="edge"><title>Node17&#45;&gt;Node18</title>
<path fill="none" stroke="midnightblue" d="M1086.32,-128.734C1101.03,-118.111 1126.04,-100.049 1143.74,-87.2642"/>
<polygon fill="midnightblue" stroke="midnightblue" points="1146.18,-89.8196 1152.24,-81.1273 1142.08,-84.1449 1146.18,-89.8196"/>
</g>
<!-- Node19 -->
<g id="node19" class="node"><title>Node19</title>
<polygon fill="white" stroke="#bfbfbf" points="1206.18,-62 1206.18,-81 1252.18,-81 1252.18,-62 1206.18,-62"/>
<text text-anchor="middle" x="1229.18" y="-69" font-family="Helvetica,sans-Serif" font-size="10.00">iosfwd</text>
</g>
<!-- Node17&#45;&gt;Node19 -->
<g id="edge26" class="edge"><title>Node17&#45;&gt;Node19</title>
<path fill="none" stroke="midnightblue" d="M1095.4,-128.88C1119.78,-118.935 1160.97,-102.022 1196.18,-87 1197.59,-86.4015 1199.02,-85.7855 1200.47,-85.1607"/>
<polygon fill="midnightblue" stroke="midnightblue" points="1202.25,-88.2044 1210.02,-81.0041 1199.45,-81.7861 1202.25,-88.2044"/>
</g>
<!-- Node20 -->
<g id="node20" class="node"><title>Node20</title>
<polygon fill="white" stroke="#bfbfbf" points="1270.18,-56.5 1270.18,-86.5 1380.18,-86.5 1380.18,-56.5 1270.18,-56.5"/>
<text text-anchor="start" x="1278.18" y="-74.5" font-family="Helvetica,sans-Serif" font-size="10.00">boost/container/flat</text>
<text text-anchor="middle" x="1325.18" y="-63.5" font-family="Helvetica,sans-Serif" font-size="10.00">_set.hpp</text>
</g>
<!-- Node17&#45;&gt;Node20 -->
<g id="edge31" class="edge"><title>Node17&#45;&gt;Node20</title>
<path fill="none" stroke="midnightblue" d="M1099.63,-130.91C1137.1,-121.207 1208.33,-102.761 1260.75,-89.1847"/>
<polygon fill="midnightblue" stroke="midnightblue" points="1261.84,-92.5193 1270.64,-86.6241 1260.08,-85.7428 1261.84,-92.5193"/>
</g>
<!-- Node21 -->
<g id="node21" class="node"><title>Node21</title>
<polygon fill="white" stroke="#bfbfbf" points="1398.68,-56.5 1398.68,-86.5 1513.68,-86.5 1513.68,-56.5 1398.68,-56.5"/>
<text text-anchor="start" x="1406.68" y="-74.5" font-family="Helvetica,sans-Serif" font-size="10.00">boost/range/adaptor</text>
<text text-anchor="middle" x="1456.18" y="-63.5" font-family="Helvetica,sans-Serif" font-size="10.00">/transformed.hpp</text>
</g>
<!-- Node17&#45;&gt;Node21 -->
<g id="edge33" class="edge"><title>Node17&#45;&gt;Node21</title>
<path fill="none" stroke="midnightblue" d="M1099.58,-133.905C1151.7,-126.426 1274.72,-108.251 1388.55,-87.0564"/>
<polygon fill="midnightblue" stroke="midnightblue" points="1389.3,-90.4781 1398.48,-85.1956 1388.01,-83.5979 1389.3,-90.4781"/>
</g>
<!-- Node22 -->
<g id="node22" class="node"><title>Node22</title>
<g id="a_node22"><a xlink:href="find__iterator_8h.xhtml" target="_top" xlink:title="Convenience iterator adaptor to wrap find calls and results. ">
<polygon fill="white" stroke="black" points="829.682,-62 829.682,-81 930.682,-81 930.682,-62 829.682,-62"/>
<text text-anchor="middle" x="880.182" y="-69" font-family="Helvetica,sans-Serif" font-size="10.00">ext/find_iterator.h</text>
</a>
</g>
</g>
<!-- Node17&#45;&gt;Node22 -->
<g id="edge34" class="edge"><title>Node17&#45;&gt;Node22</title>
<path fill="none" stroke="midnightblue" d="M1048.82,-129.002C1014.78,-117.599 954.162,-97.2869 915.627,-84.3756"/>
<polygon fill="midnightblue" stroke="midnightblue" points="916.454,-80.9615 905.86,-81.1032 914.23,-87.5989 916.454,-80.9615"/>
</g>
<!-- Node23 -->
<g id="node23" class="node"><title>Node23</title>
<g id="a_node23"><a xlink:href="index__map_8h.xhtml" target="_top" xlink:title="Non&#45;zero based Index&#45;&gt;Value map adapter on sequential containers. ">
<polygon fill="white" stroke="black" points="1532.18,-62 1532.18,-81 1628.18,-81 1628.18,-62 1532.18,-62"/>
<text text-anchor="middle" x="1580.18" y="-69" font-family="Helvetica,sans-Serif" font-size="10.00">ext/index_map.h</text>
</a>
</g>
</g>
<!-- Node17&#45;&gt;Node23 -->
<g id="edge36" class="edge"><title>Node17&#45;&gt;Node23</title>
<path fill="none" stroke="midnightblue" d="M1099.68,-135.863C1168.47,-131.18 1363.45,-116.158 1523.18,-87 1528.64,-86.003 1534.36,-84.7753 1539.97,-83.46"/>
<polygon fill="midnightblue" stroke="midnightblue" points="1541,-86.8098 1549.88,-81.0286 1539.34,-80.0113 1541,-86.8098"/>
</g>
<!-- Node24 -->
<g id="node24" class="node"><title>Node24</title>
<g id="a_node24"><a xlink:href="linear__map_8h.xhtml" target="_top" xlink:title="Implementation of a vector&#45;based map for a small number of entries. ">
<polygon fill="white" stroke="black" points="1025.68,-62 1025.68,-81 1122.68,-81 1122.68,-62 1025.68,-62"/>
<text text-anchor="middle" x="1074.18" y="-69" font-family="Helvetica,sans-Serif" font-size="10.00">ext/linear_map.h</text>
</a>
</g>
</g>
<!-- Node17&#45;&gt;Node24 -->
<g id="edge38" class="edge"><title>Node17&#45;&gt;Node24</title>
<path fill="none" stroke="midnightblue" d="M1074.18,-128.734C1074.18,-119.183 1074.18,-103.618 1074.18,-91.2829"/>
<polygon fill="midnightblue" stroke="midnightblue" points="1077.68,-91.1273 1074.18,-81.1273 1070.68,-91.1273 1077.68,-91.1273"/>
</g>
<!-- Node22&#45;&gt;Node7 -->
<g id="edge35" class="edge"><title>Node22&#45;&gt;Node7</title>
<path fill="none" stroke="midnightblue" d="M880.182,-61.9751C880.182,-53.5803 880.182,-40.4806 880.182,-29.6631"/>
<polygon fill="midnightblue" stroke="midnightblue" points="883.683,-29.5091 880.182,-19.5091 876.683,-29.5091 883.683,-29.5091"/>
</g>
<!-- Node23&#45;&gt;Node8 -->
<g id="edge37" class="edge"><title>Node23&#45;&gt;Node8</title>
<path fill="none" stroke="midnightblue" d="M1591.07,-61.9751C1603.15,-52.5199 1622.85,-37.0961 1637.42,-25.6871"/>
<polygon fill="midnightblue" stroke="midnightblue" points="1639.6,-28.4295 1645.31,-19.5091 1635.28,-22.9177 1639.6,-28.4295"/>
</g>
<!-- Node24&#45;&gt;Node7 -->
<g id="edge44" class="edge"><title>Node24&#45;&gt;Node7</title>
<path fill="none" stroke="midnightblue" d="M1046.39,-61.9751C1010.57,-50.99 948.486,-31.9488 911.18,-20.5068"/>
<polygon fill="midnightblue" stroke="midnightblue" points="911.943,-17.0802 901.357,-17.4941 909.891,-23.7726 911.943,-17.0802"/>
</g>
<!-- Node24&#45;&gt;Node8 -->
<g id="edge43" class="edge"><title>Node24&#45;&gt;Node8</title>
<path fill="none" stroke="midnightblue" d="M1103.86,-61.9711C1112.6,-59.727 1122.22,-57.5133 1131.18,-56 1314.81,-24.9878 1538.39,-14.8418 1622.25,-11.9869"/>
<polygon fill="midnightblue" stroke="midnightblue" points="1622.58,-15.4781 1632.46,-11.6523 1622.35,-8.48184 1622.58,-15.4781"/>
</g>
<!-- Node24&#45;&gt;Node14 -->
<g id="edge40" class="edge"><title>Node24&#45;&gt;Node14</title>
<path fill="none" stroke="midnightblue" d="M1059.85,-61.9751C1043.52,-52.2548 1016.58,-36.2266 997.27,-24.7372"/>
<polygon fill="midnightblue" stroke="midnightblue" points="998.867,-21.6146 988.483,-19.5091 995.288,-27.6303 998.867,-21.6146"/>
</g>
<!-- Node25 -->
<g id="node25" class="node"><title>Node25</title>
<polygon fill="white" stroke="#bfbfbf" points="1023.18,-0.5 1023.18,-19.5 1075.18,-19.5 1075.18,-0.5 1023.18,-0.5"/>
<text text-anchor="middle" x="1049.18" y="-7.5" font-family="Helvetica,sans-Serif" font-size="10.00">cassert</text>
</g>
<!-- Node24&#45;&gt;Node25 -->
<g id="edge39" class="edge"><title>Node24&#45;&gt;Node25</title>
<path fill="none" stroke="midnightblue" d="M1070.6,-61.9751C1067,-53.4035 1061.34,-39.9269 1056.74,-28.983"/>
<polygon fill="midnightblue" stroke="midnightblue" points="1059.86,-27.3726 1052.76,-19.5091 1053.4,-30.0842 1059.86,-27.3726"/>
</g>
<!-- Node26 -->
<g id="node26" class="node"><title>Node26</title>
<polygon fill="white" stroke="#bfbfbf" points="1093.68,-0.5 1093.68,-19.5 1170.68,-19.5 1170.68,-0.5 1093.68,-0.5"/>
<text text-anchor="middle" x="1132.18" y="-7.5" font-family="Helvetica,sans-Serif" font-size="10.00">initializer_list</text>
</g>
<!-- Node24&#45;&gt;Node26 -->
<g id="edge41" class="edge"><title>Node24&#45;&gt;Node26</title>
<path fill="none" stroke="midnightblue" d="M1082.49,-61.9751C1091.36,-52.8733 1105.63,-38.241 1116.6,-26.983"/>
<polygon fill="midnightblue" stroke="midnightblue" points="1119.41,-29.113 1123.89,-19.5091 1114.4,-24.2268 1119.41,-29.113"/>
</g>
<!-- Node27 -->
<g id="node27" class="node"><title>Node27</title>
<polygon fill="white" stroke="#bfbfbf" points="1189.18,-0.5 1189.18,-19.5 1253.18,-19.5 1253.18,-0.5 1189.18,-0.5"/>
<text text-anchor="middle" x="1221.18" y="-7.5" font-family="Helvetica,sans-Serif" font-size="10.00">stdexcept</text>
</g>
<!-- Node24&#45;&gt;Node27 -->
<g id="edge42" class="edge"><title>Node24&#45;&gt;Node27</title>
<path fill="none" stroke="midnightblue" d="M1095.24,-61.9751C1120.24,-51.8571 1162.12,-34.9046 1190.67,-23.3507"/>
<polygon fill="midnightblue" stroke="midnightblue" points="1192.2,-26.5054 1200.16,-19.5091 1189.58,-20.0168 1192.2,-26.5054"/>
</g>
<!-- Node28&#45;&gt;Node2 -->
<g id="edge46" class="edge"><title>Node28&#45;&gt;Node2</title>
<path fill="none" stroke="midnightblue" d="M491.337,-128.734C479.626,-118.305 459.863,-100.709 445.56,-87.9732"/>
<polygon fill="midnightblue" stroke="midnightblue" points="447.668,-85.1634 437.872,-81.1273 443.013,-90.3913 447.668,-85.1634"/>
</g>
<!-- Node29 -->
<g id="node29" class="node"><title>Node29</title>
<polygon fill="white" stroke="#bfbfbf" points="471.182,-62 471.182,-81 515.182,-81 515.182,-62 471.182,-62"/>
<text text-anchor="middle" x="493.182" y="-69" font-family="Helvetica,sans-Serif" font-size="10.00">string</text>
</g>
<!-- Node28&#45;&gt;Node29 -->
<g id="edge47" class="edge"><title>Node28&#45;&gt;Node29</title>
<path fill="none" stroke="midnightblue" d="M500.104,-128.734C498.928,-119.183 497.012,-103.618 495.494,-91.2829"/>
<polygon fill="midnightblue" stroke="midnightblue" points="498.94,-90.6248 494.244,-81.1273 491.992,-91.48 498.94,-90.6248"/>
</g>
</g>
</svg>
        <g id="navigator" transform="translate(0 0)" fill="#404254">
                <rect fill="#f2f5e9" fill-opacity="0.5" stroke="#606060" stroke-width=".5" x="0" y="0" width="60" height="60"/>
                <use id="zoomplus" xlink:href="#zoomPlus" x="17" y="9" onmousedown="handleZoom(evt,'in')"/>
                <use id="zoomminus" xlink:href="#zoomMin" x="42" y="9" onmousedown="handleZoom(evt,'out')"/>
                <use id="reset" xlink:href="#resetDef" x="30" y="36" onmousedown="handleReset()"/>
                <g id="arrowUp" xlink:href="#dirArrow" transform="translate(30 24)" onmousedown="handlePan(0,-1)">
                  <use xlink:href="#rim" fill="#404040">
                        <set attributeName="fill" to="#808080" begin="arrowUp.mouseover" end="arrowUp.mouseout"/>
                  </use>
                  <path fill="none" stroke="white" stroke-width="1.5" d="M0,-3.0v7 M-2.5,-0.5L0,-3.0L2.5,-0.5"/>
                </g>
                <g id="arrowRight" xlink:href="#dirArrow" transform="rotate(90) translate(36 -43)" onmousedown="handlePan(1,0)">
                  <use xlink:href="#rim" fill="#404040">
                        <set attributeName="fill" to="#808080" begin="arrowRight.mouseover" end="arrowRight.mouseout"/>
                  </use>
                  <path fill="none" stroke="white" stroke-width="1.5" d="M0,-3.0v7 M-2.5,-0.5L0,-3.0L2.5,-0.5"/>
                </g>
                <g id="arrowDown" xlink:href="#dirArrow" transform="rotate(180) translate(-30 -48)" onmousedown="handlePan(0,1)">
                  <use xlink:href="#rim" fill="#404040">
                        <set attributeName="fill" to="#808080" begin="arrowDown.mouseover" end="arrowDown.mouseout"/>
                  </use>
                  <path fill="none" stroke="white" stroke-width="1.5" d="M0,-3.0v7 M-2.5,-0.5L0,-3.0L2.5,-0.5"/>
                </g>
                <g id="arrowLeft" xlink:href="#dirArrow" transform="rotate(270) translate(-36 17)" onmousedown="handlePan(-1,0)">
                  <use xlink:href="#rim" fill="#404040">
                        <set attributeName="fill" to="#808080" begin="arrowLeft.mouseover" end="arrowLeft.mouseout"/>
                  </use>
                  <path fill="none" stroke="white" stroke-width="1.5" d="M0,-3.0v7 M-2.5,-0.5L0,-3.0L2.5,-0.5"/>
                </g>
        </g>
        <svg viewBox="0 0 15 15" width="100%" height="30px" preserveAspectRatio="xMaxYMin meet">
         <g id="arrow_out" transform="scale(0.3 0.3)">
          <a xlink:href="zbdd_8h__incl_org.svg" target="_base">
           <rect id="button" ry="5" rx="5" y="6" x="6" height="38" width="38"
                fill="#f2f5e9" fill-opacity="0.5" stroke="#606060" stroke-width="1.0"/>
           <path id="arrow"
             d="M 11.500037,31.436501 C 11.940474,20.09759 22.043105,11.32322 32.158766,21.979434 L 37.068811,17.246167 C 37.068811,17.246167 37.088388,32 37.088388,32 L 22.160133,31.978069 C 22.160133,31.978069 26.997745,27.140456 26.997745,27.140456 C 18.528582,18.264221 13.291696,25.230495 11.500037,31.436501 z"
             style="fill:#404040;"/>
          </a>
         </g>
        </svg>
</svg>
