<?xml version="1.0" encoding="UTF-8" standalone="no"?>
<!DOCTYPE svg PUBLIC "-//W3C//DTD SVG 1.1//EN"
 "http://www.w3.org/Graphics/SVG/1.1/DTD/svg11.dtd">
<!-- Generated by graphviz version 2.38.0 (20140413.2041)
 -->
<!-- Title: zbdd.cc Pages: 1 -->
<svg width="1963pt" height="341pt"
 viewBox="0.00 0.00 1962.70 341.00" xmlns="http://www.w3.org/2000/svg" xmlns:xlink="http://www.w3.org/1999/xlink">
<g id="graph0" class="graph" transform="scale(1 1) rotate(0) translate(4 337)">
<title>zbdd.cc</title>
<polygon fill="white" stroke="none" points="-4,4 -4,-337 1958.7,-337 1958.7,4 -4,4"/>
<!-- Node1 -->
<g id="node1" class="node"><title>Node1</title>
<polygon fill="#bfbfbf" stroke="black" points="1647.5,-313.5 1647.5,-332.5 1700.5,-332.5 1700.5,-313.5 1647.5,-313.5"/>
<text text-anchor="middle" x="1674" y="-320.5" font-family="Helvetica,sans-Serif" font-size="10.00">zbdd.cc</text>
</g>
<!-- Node2 -->
<g id="node2" class="node"><title>Node2</title>
<g id="a_node2"><a xlink:href="zbdd_8h.xhtml" target="_top" xlink:title="Zero&#45;Suppressed Binary Decision Diagram facilities. ">
<polygon fill="white" stroke="black" points="805.5,-257.5 805.5,-276.5 854.5,-276.5 854.5,-257.5 805.5,-257.5"/>
<text text-anchor="middle" x="830" y="-264.5" font-family="Helvetica,sans-Serif" font-size="10.00">zbdd.h</text>
</a>
</g>
</g>
<!-- Node1&#45;&gt;Node2 -->
<g id="edge1" class="edge"><title>Node1&#45;&gt;Node2</title>
<path fill="none" stroke="midnightblue" d="M1647.35,-320.295C1523.5,-312.371 1004.38,-279.157 864.725,-270.222"/>
<polygon fill="midnightblue" stroke="midnightblue" points="864.799,-266.719 854.596,-269.574 864.352,-273.705 864.799,-266.719"/>
</g>
<!-- Node15 -->
<g id="node15" class="node"><title>Node15</title>
<polygon fill="white" stroke="#bfbfbf" points="1719,-0.5 1719,-19.5 1781,-19.5 1781,-0.5 1719,-0.5"/>
<text text-anchor="middle" x="1750" y="-7.5" font-family="Helvetica,sans-Serif" font-size="10.00">algorithm</text>
</g>
<!-- Node1&#45;&gt;Node15 -->
<g id="edge50" class="edge"><title>Node1&#45;&gt;Node15</title>
<path fill="none" stroke="midnightblue" d="M1676.11,-313.357C1686.36,-271.423 1731,-88.7646 1745.46,-29.5816"/>
<polygon fill="midnightblue" stroke="midnightblue" points="1748.89,-30.2932 1747.86,-19.7481 1742.09,-28.6314 1748.89,-30.2932"/>
</g>
<!-- Node19 -->
<g id="node19" class="node"><title>Node19</title>
<polygon fill="white" stroke="#bfbfbf" points="1636.5,-62 1636.5,-81 1683.5,-81 1683.5,-62 1636.5,-62"/>
<text text-anchor="middle" x="1660" y="-69" font-family="Helvetica,sans-Serif" font-size="10.00">cstdlib</text>
</g>
<!-- Node1&#45;&gt;Node19 -->
<g id="edge49" class="edge"><title>Node1&#45;&gt;Node19</title>
<path fill="none" stroke="midnightblue" d="M1673.52,-313.412C1671.52,-277.798 1663.86,-141.252 1661.04,-91.1085"/>
<polygon fill="midnightblue" stroke="midnightblue" points="1664.53,-90.8404 1660.48,-81.0522 1657.55,-91.2326 1664.53,-90.8404"/>
</g>
<!-- Node23 -->
<g id="node23" class="node"><title>Node23</title>
<g id="a_node23"><a xlink:href="find__iterator_8h.xhtml" target="_top" xlink:title="Convenience iterator adaptor to wrap find calls and results. ">
<polygon fill="white" stroke="black" points="622.5,-62 622.5,-81 723.5,-81 723.5,-62 622.5,-62"/>
<text text-anchor="middle" x="673" y="-69" font-family="Helvetica,sans-Serif" font-size="10.00">ext/find_iterator.h</text>
</a>
</g>
</g>
<!-- Node1&#45;&gt;Node23 -->
<g id="edge55" class="edge"><title>Node1&#45;&gt;Node23</title>
<path fill="none" stroke="midnightblue" d="M1647.49,-322.218C1519.19,-323.032 962.011,-323.767 796,-277 745.846,-262.871 722.565,-263.907 693,-221 665.646,-181.302 667.415,-121.257 670.477,-91.1286"/>
<polygon fill="midnightblue" stroke="midnightblue" points="673.958,-91.4928 671.655,-81.1512 667.006,-90.6715 673.958,-91.4928"/>
</g>
<!-- Node31 -->
<g id="node31" class="node"><title>Node31</title>
<polygon fill="white" stroke="#bfbfbf" points="1797,-196 1797,-215 1941,-215 1941,-196 1797,-196"/>
<text text-anchor="middle" x="1869" y="-203" font-family="Helvetica,sans-Serif" font-size="10.00">boost/range/algorithm.hpp</text>
</g>
<!-- Node1&#45;&gt;Node31 -->
<g id="edge51" class="edge"><title>Node1&#45;&gt;Node31</title>
<path fill="none" stroke="midnightblue" d="M1700.58,-313.509C1723.31,-305.675 1756.47,-292.87 1783,-277 1809.24,-261.302 1835.93,-238.041 1852.47,-222.585"/>
<polygon fill="midnightblue" stroke="midnightblue" points="1855.3,-224.723 1860.14,-215.296 1850.48,-219.65 1855.3,-224.723"/>
</g>
<!-- Node32 -->
<g id="node32" class="node"><title>Node32</title>
<g id="a_node32"><a xlink:href="algorithm_8h.xhtml" target="_top" xlink:title="Helpful algorithm facilities as an extension to the STL or Boost. ">
<polygon fill="white" stroke="black" points="1835.5,-257.5 1835.5,-276.5 1924.5,-276.5 1924.5,-257.5 1835.5,-257.5"/>
<text text-anchor="middle" x="1880" y="-264.5" font-family="Helvetica,sans-Serif" font-size="10.00">ext/algorithm.h</text>
</a>
</g>
</g>
<!-- Node1&#45;&gt;Node32 -->
<g id="edge52" class="edge"><title>Node1&#45;&gt;Node32</title>
<path fill="none" stroke="midnightblue" d="M1700.51,-315.051C1735.24,-305.946 1796.57,-289.871 1837.74,-279.078"/>
<polygon fill="midnightblue" stroke="midnightblue" points="1838.7,-282.444 1847.49,-276.522 1836.93,-275.673 1838.7,-282.444"/>
</g>
<!-- Node33 -->
<g id="node33" class="node"><title>Node33</title>
<g id="a_node33"><a xlink:href="logger_8h.xhtml" target="_top" xlink:title="Logging capability for various purposes, such as warnings and debugging. ">
<polygon fill="white" stroke="black" points="196.5,-129 196.5,-148 251.5,-148 251.5,-129 196.5,-129"/>
<text text-anchor="middle" x="224" y="-136" font-family="Helvetica,sans-Serif" font-size="10.00">logger.h</text>
</a>
</g>
</g>
<!-- Node1&#45;&gt;Node33 -->
<g id="edge56" class="edge"><title>Node1&#45;&gt;Node33</title>
<path fill="none" stroke="midnightblue" d="M1647.3,-321.764C1530.3,-320.531 1051.27,-313.402 660,-277 483.89,-260.616 410.15,-323.49 266,-221 244.853,-205.965 233.608,-177.033 228.229,-157.997"/>
<polygon fill="midnightblue" stroke="midnightblue" points="231.571,-156.939 225.709,-148.113 224.788,-158.668 231.571,-156.939"/>
</g>
<!-- Node3 -->
<g id="node3" class="node"><title>Node3</title>
<polygon fill="white" stroke="#bfbfbf" points="454.5,-62 454.5,-81 503.5,-81 503.5,-62 454.5,-62"/>
<text text-anchor="middle" x="479" y="-69" font-family="Helvetica,sans-Serif" font-size="10.00">cstdint</text>
</g>
<!-- Node2&#45;&gt;Node3 -->
<g id="edge2" class="edge"><title>Node2&#45;&gt;Node3</title>
<path fill="none" stroke="midnightblue" d="M805.33,-263.894C718.538,-255.916 429.669,-224.373 377,-154 368.744,-142.969 369.734,-134.706 377,-123 381.237,-116.175 421.249,-97.6435 449.876,-85.0321"/>
<polygon fill="midnightblue" stroke="midnightblue" points="451.32,-88.2208 459.08,-81.0075 448.515,-81.8072 451.32,-88.2208"/>
</g>
<!-- Node4 -->
<g id="node4" class="node"><title>Node4</title>
<polygon fill="white" stroke="#bfbfbf" points="702.5,-196 702.5,-215 743.5,-215 743.5,-196 702.5,-196"/>
<text text-anchor="middle" x="723" y="-203" font-family="Helvetica,sans-Serif" font-size="10.00">array</text>
</g>
<!-- Node2&#45;&gt;Node4 -->
<g id="edge3" class="edge"><title>Node2&#45;&gt;Node4</title>
<path fill="none" stroke="midnightblue" d="M814.67,-257.475C797.03,-247.666 767.84,-231.435 747.142,-219.925"/>
<polygon fill="midnightblue" stroke="midnightblue" points="748.743,-216.81 738.302,-215.009 745.341,-222.928 748.743,-216.81"/>
</g>
<!-- Node5 -->
<g id="node5" class="node"><title>Node5</title>
<polygon fill="white" stroke="#bfbfbf" points="762,-196 762,-215 800,-215 800,-196 762,-196"/>
<text text-anchor="middle" x="781" y="-203" font-family="Helvetica,sans-Serif" font-size="10.00">map</text>
</g>
<!-- Node2&#45;&gt;Node5 -->
<g id="edge4" class="edge"><title>Node2&#45;&gt;Node5</title>
<path fill="none" stroke="midnightblue" d="M822.979,-257.475C815.557,-248.462 803.667,-234.025 794.433,-222.812"/>
<polygon fill="midnightblue" stroke="midnightblue" points="797.066,-220.503 788.007,-215.009 791.663,-224.953 797.066,-220.503"/>
</g>
<!-- Node6 -->
<g id="node6" class="node"><title>Node6</title>
<polygon fill="white" stroke="#bfbfbf" points="1450.5,-62 1450.5,-81 1507.5,-81 1507.5,-62 1450.5,-62"/>
<text text-anchor="middle" x="1479" y="-69" font-family="Helvetica,sans-Serif" font-size="10.00">memory</text>
</g>
<!-- Node2&#45;&gt;Node6 -->
<g id="edge5" class="edge"><title>Node2&#45;&gt;Node6</title>
<path fill="none" stroke="midnightblue" d="M854.731,-260.261C889.377,-252.112 954.263,-236.455 1009,-221 1172.93,-174.713 1366.1,-110.621 1443.92,-84.4009"/>
<polygon fill="midnightblue" stroke="midnightblue" points="1445.34,-87.6173 1453.69,-81.1033 1443.1,-80.9849 1445.34,-87.6173"/>
</g>
<!-- Node7 -->
<g id="node7" class="node"><title>Node7</title>
<polygon fill="white" stroke="#bfbfbf" points="1525.5,-62 1525.5,-81 1618.5,-81 1618.5,-62 1525.5,-62"/>
<text text-anchor="middle" x="1572" y="-69" font-family="Helvetica,sans-Serif" font-size="10.00">unordered_map</text>
</g>
<!-- Node2&#45;&gt;Node7 -->
<g id="edge6" class="edge"><title>Node2&#45;&gt;Node7</title>
<path fill="none" stroke="midnightblue" d="M854.774,-262.333C899.069,-255.577 994.636,-240.093 1074,-221 1250.23,-178.603 1456.57,-111.291 1537.22,-84.2819"/>
<polygon fill="midnightblue" stroke="midnightblue" points="1538.5,-87.5441 1546.87,-81.0427 1536.27,-80.9082 1538.5,-87.5441"/>
</g>
<!-- Node8 -->
<g id="node8" class="node"><title>Node8</title>
<polygon fill="white" stroke="#bfbfbf" points="646,-0.5 646,-19.5 688,-19.5 688,-0.5 646,-0.5"/>
<text text-anchor="middle" x="667" y="-7.5" font-family="Helvetica,sans-Serif" font-size="10.00">utility</text>
</g>
<!-- Node2&#45;&gt;Node8 -->
<g id="edge7" class="edge"><title>Node2&#45;&gt;Node8</title>
<path fill="none" stroke="midnightblue" d="M805.393,-265.358C729.103,-263.037 497.687,-253.429 431,-221 355.82,-184.441 330.701,-164.354 299,-87 293.775,-74.2513 289.868,-66.3167 299,-56 321.22,-30.8973 551.004,-16.849 635.794,-12.4882"/>
<polygon fill="midnightblue" stroke="midnightblue" points="636.039,-15.9804 645.85,-11.9817 635.687,-8.98927 636.039,-15.9804"/>
</g>
<!-- Node9 -->
<g id="node9" class="node"><title>Node9</title>
<polygon fill="white" stroke="#bfbfbf" points="1246.5,-0.5 1246.5,-19.5 1293.5,-19.5 1293.5,-0.5 1246.5,-0.5"/>
<text text-anchor="middle" x="1270" y="-7.5" font-family="Helvetica,sans-Serif" font-size="10.00">vector</text>
</g>
<!-- Node2&#45;&gt;Node9 -->
<g id="edge8" class="edge"><title>Node2&#45;&gt;Node9</title>
<path fill="none" stroke="midnightblue" d="M854.823,-264.967C984.742,-258.988 1584.53,-224.154 1692,-87 1700.5,-76.155 1701.21,-66.2459 1692,-56 1666.18,-27.2797 1399.58,-15.4186 1303.93,-12.0661"/>
<polygon fill="midnightblue" stroke="midnightblue" points="1303.77,-8.55874 1293.65,-11.716 1303.53,-15.5547 1303.77,-8.55874"/>
</g>
<!-- Node10 -->
<g id="node10" class="node"><title>Node10</title>
<polygon fill="white" stroke="#bfbfbf" points="386,-129 386,-148 526,-148 526,-129 386,-129"/>
<text text-anchor="middle" x="456" y="-136" font-family="Helvetica,sans-Serif" font-size="10.00">boost/functional/hash.hpp</text>
</g>
<!-- Node2&#45;&gt;Node10 -->
<g id="edge9" class="edge"><title>Node2&#45;&gt;Node10</title>
<path fill="none" stroke="midnightblue" d="M805.216,-257.974C777.749,-249.051 732.155,-234.162 693,-221 620.572,-196.653 535.985,-167.357 490.005,-151.359"/>
<polygon fill="midnightblue" stroke="midnightblue" points="491.122,-148.042 480.527,-148.06 488.82,-154.653 491.122,-148.042"/>
</g>
<!-- Node11 -->
<g id="node11" class="node"><title>Node11</title>
<polygon fill="white" stroke="#bfbfbf" points="818,-190.5 818,-220.5 938,-220.5 938,-190.5 818,-190.5"/>
<text text-anchor="start" x="826" y="-208.5" font-family="Helvetica,sans-Serif" font-size="10.00">boost/iterator/iterator</text>
<text text-anchor="middle" x="878" y="-197.5" font-family="Helvetica,sans-Serif" font-size="10.00">_facade.hpp</text>
</g>
<!-- Node2&#45;&gt;Node11 -->
<g id="edge10" class="edge"><title>Node2&#45;&gt;Node11</title>
<path fill="none" stroke="midnightblue" d="M836.877,-257.475C842.953,-249.944 852.083,-238.626 860.199,-228.566"/>
<polygon fill="midnightblue" stroke="midnightblue" points="863.133,-230.504 866.687,-220.523 857.684,-226.108 863.133,-230.504"/>
</g>
<!-- Node12 -->
<g id="node12" class="node"><title>Node12</title>
<polygon fill="white" stroke="#bfbfbf" points="308,-62 308,-81 436,-81 436,-62 308,-62"/>
<text text-anchor="middle" x="372" y="-69" font-family="Helvetica,sans-Serif" font-size="10.00">boost/noncopyable.hpp</text>
</g>
<!-- Node2&#45;&gt;Node12 -->
<g id="edge11" class="edge"><title>Node2&#45;&gt;Node12</title>
<path fill="none" stroke="midnightblue" d="M805.478,-263.779C719.187,-255.415 431.8,-222.727 377,-154 362.948,-136.377 364.422,-109.206 367.557,-91.1452"/>
<polygon fill="midnightblue" stroke="midnightblue" points="371.007,-91.7451 369.6,-81.2442 364.151,-90.3309 371.007,-91.7451"/>
</g>
<!-- Node13 -->
<g id="node13" class="node"><title>Node13</title>
<g id="a_node13"><a xlink:href="bdd_8h.xhtml" target="_top" xlink:title="Fault tree analysis with the Binary Decision Diagram algorithms. ">
<polygon fill="white" stroke="black" points="956,-196 956,-215 1000,-215 1000,-196 956,-196"/>
<text text-anchor="middle" x="978" y="-203" font-family="Helvetica,sans-Serif" font-size="10.00">bdd.h</text>
</a>
</g>
</g>
<!-- Node2&#45;&gt;Node13 -->
<g id="edge12" class="edge"><title>Node2&#45;&gt;Node13</title>
<path fill="none" stroke="midnightblue" d="M853.95,-257.35C877.738,-248.627 915.16,-234.55 947,-221 948.199,-220.49 949.421,-219.96 950.652,-219.419"/>
<polygon fill="midnightblue" stroke="midnightblue" points="952.403,-222.468 960.065,-215.15 949.512,-216.093 952.403,-222.468"/>
</g>
<!-- Node13&#45;&gt;Node6 -->
<g id="edge16" class="edge"><title>Node13&#45;&gt;Node6</title>
<path fill="none" stroke="midnightblue" d="M982.575,-195.93C992.331,-178.631 1017.01,-139.762 1050,-123 1126.8,-83.976 1351.73,-104.884 1436,-87 1439.68,-86.218 1443.49,-85.2224 1447.25,-84.1201"/>
<polygon fill="midnightblue" stroke="midnightblue" points="1448.49,-87.3982 1456.96,-81.0269 1446.37,-80.7286 1448.49,-87.3982"/>
</g>
<!-- Node13&#45;&gt;Node7 -->
<g id="edge17" class="edge"><title>Node13&#45;&gt;Node7</title>
<path fill="none" stroke="midnightblue" d="M1000.1,-199.989C1073.62,-184.921 1316.53,-134.589 1516,-87 1520.46,-85.9356 1525.11,-84.7895 1529.75,-83.6247"/>
<polygon fill="midnightblue" stroke="midnightblue" points="1530.95,-86.9302 1539.77,-81.0693 1529.22,-80.1469 1530.95,-86.9302"/>
</g>
<!-- Node13&#45;&gt;Node8 -->
<g id="edge18" class="edge"><title>Node13&#45;&gt;Node8</title>
<path fill="none" stroke="midnightblue" d="M961.922,-195.967C957.216,-193.75 951.993,-191.552 947,-190 854.061,-161.115 822.728,-186.528 731,-154 702.58,-143.922 628.171,-113.06 613,-87 606.068,-75.093 607.156,-68.477 613,-56 619.045,-43.0941 630.812,-32.5985 641.823,-24.9999"/>
<polygon fill="midnightblue" stroke="midnightblue" points="643.828,-27.8723 650.367,-19.5364 640.057,-21.9748 643.828,-27.8723"/>
</g>
<!-- Node13&#45;&gt;Node9 -->
<g id="edge19" class="edge"><title>Node13&#45;&gt;Node9</title>
<path fill="none" stroke="midnightblue" d="M969.48,-195.669C946.465,-170.764 887.252,-98.9915 925,-56 945.379,-32.7906 1153.42,-17.9427 1236.25,-12.9108"/>
<polygon fill="midnightblue" stroke="midnightblue" points="1236.62,-16.3951 1246.39,-12.3058 1236.2,-9.40749 1236.62,-16.3951"/>
</g>
<!-- Node13&#45;&gt;Node10 -->
<g id="edge20" class="edge"><title>Node13&#45;&gt;Node10</title>
<path fill="none" stroke="midnightblue" d="M962.314,-195.869C957.528,-193.594 952.164,-191.39 947,-190 771.643,-142.813 720.073,-177.465 540,-154 530.633,-152.779 520.715,-151.266 511.104,-149.682"/>
<polygon fill="midnightblue" stroke="midnightblue" points="511.677,-146.229 501.234,-148.015 510.511,-153.132 511.677,-146.229"/>
</g>
<!-- Node13&#45;&gt;Node12 -->
<g id="edge21" class="edge"><title>Node13&#45;&gt;Node12</title>
<path fill="none" stroke="midnightblue" d="M962.307,-195.894C957.521,-193.62 952.158,-191.409 947,-190 785.915,-145.984 727.443,-217.508 573,-154 552.842,-145.711 554.207,-133.303 535,-123 500.339,-104.407 457.789,-91.5166 424.855,-83.4148"/>
<polygon fill="midnightblue" stroke="midnightblue" points="425.501,-79.9708 414.962,-81.0531 423.876,-86.7795 425.501,-79.9708"/>
</g>
<!-- Node14 -->
<g id="node14" class="node"><title>Node14</title>
<polygon fill="white" stroke="#bfbfbf" points="1059.5,-129 1059.5,-148 1106.5,-148 1106.5,-129 1059.5,-129"/>
<text text-anchor="middle" x="1083" y="-136" font-family="Helvetica,sans-Serif" font-size="10.00">cmath</text>
</g>
<!-- Node13&#45;&gt;Node14 -->
<g id="edge13" class="edge"><title>Node13&#45;&gt;Node14</title>
<path fill="none" stroke="midnightblue" d="M992.161,-195.734C1009.71,-184.867 1039.84,-166.216 1060.56,-153.393"/>
<polygon fill="midnightblue" stroke="midnightblue" points="1062.4,-156.367 1069.06,-148.127 1058.72,-150.415 1062.4,-156.367"/>
</g>
<!-- Node13&#45;&gt;Node15 -->
<g id="edge14" class="edge"><title>Node13&#45;&gt;Node15</title>
<path fill="none" stroke="midnightblue" d="M1000.12,-203.068C1107.08,-195.816 1570.59,-160.562 1692,-87 1714.78,-73.1954 1731.8,-46.8272 1741.32,-29.0751"/>
<polygon fill="midnightblue" stroke="midnightblue" points="1744.63,-30.2787 1746.05,-19.7786 1738.39,-27.1053 1744.63,-30.2787"/>
</g>
<!-- Node16 -->
<g id="node16" class="node"><title>Node16</title>
<polygon fill="white" stroke="#bfbfbf" points="1124.5,-129 1124.5,-148 1195.5,-148 1195.5,-129 1124.5,-129"/>
<text text-anchor="middle" x="1160" y="-136" font-family="Helvetica,sans-Serif" font-size="10.00">forward_list</text>
</g>
<!-- Node13&#45;&gt;Node16 -->
<g id="edge15" class="edge"><title>Node13&#45;&gt;Node16</title>
<path fill="none" stroke="midnightblue" d="M1000.32,-196.53C1031.81,-185.281 1089.55,-164.661 1126.29,-151.54"/>
<polygon fill="midnightblue" stroke="midnightblue" points="1127.81,-154.711 1136.05,-148.052 1125.46,-148.119 1127.81,-154.711"/>
</g>
<!-- Node17 -->
<g id="node17" class="node"><title>Node17</title>
<polygon fill="white" stroke="#bfbfbf" points="740.5,-123.5 740.5,-153.5 877.5,-153.5 877.5,-123.5 740.5,-123.5"/>
<text text-anchor="start" x="748.5" y="-141.5" font-family="Helvetica,sans-Serif" font-size="10.00">boost/smart_ptr/intrusive</text>
<text text-anchor="middle" x="809" y="-130.5" font-family="Helvetica,sans-Serif" font-size="10.00">_ptr.hpp</text>
</g>
<!-- Node13&#45;&gt;Node17 -->
<g id="edge22" class="edge"><title>Node13&#45;&gt;Node17</title>
<path fill="none" stroke="midnightblue" d="M960.413,-195.951C956.062,-193.926 951.389,-191.825 947,-190 918.593,-178.185 886.326,-166.295 860.14,-157.023"/>
<polygon fill="midnightblue" stroke="midnightblue" points="861.017,-153.621 850.422,-153.603 858.693,-160.224 861.017,-153.621"/>
</g>
<!-- Node18 -->
<g id="node18" class="node"><title>Node18</title>
<g id="a_node18"><a xlink:href="pdag_8h.xhtml" target="_top" xlink:title="Classes and facilities to represent fault trees as PDAGs with event and gate indices instead of ID na...">
<polygon fill="white" stroke="black" points="953,-129 953,-148 1003,-148 1003,-129 953,-129"/>
<text text-anchor="middle" x="978" y="-136" font-family="Helvetica,sans-Serif" font-size="10.00">pdag.h</text>
</a>
</g>
</g>
<!-- Node13&#45;&gt;Node18 -->
<g id="edge23" class="edge"><title>Node13&#45;&gt;Node18</title>
<path fill="none" stroke="midnightblue" d="M978,-195.734C978,-186.183 978,-170.618 978,-158.283"/>
<polygon fill="midnightblue" stroke="midnightblue" points="981.5,-158.127 978,-148.127 974.5,-158.127 981.5,-158.127"/>
</g>
<!-- Node29 -->
<g id="node29" class="node"><title>Node29</title>
<g id="a_node29"><a xlink:href="settings_8h.xhtml" target="_top" xlink:title="Builder for settings. ">
<polygon fill="white" stroke="black" points="582,-129 582,-148 646,-148 646,-129 582,-129"/>
<text text-anchor="middle" x="614" y="-136" font-family="Helvetica,sans-Serif" font-size="10.00">settings.h</text>
</a>
</g>
</g>
<!-- Node13&#45;&gt;Node29 -->
<g id="edge46" class="edge"><title>Node13&#45;&gt;Node29</title>
<path fill="none" stroke="midnightblue" d="M961.943,-195.897C957.238,-193.679 952.009,-191.498 947,-190 839.869,-157.967 808.438,-171.512 698,-154 684.372,-151.839 669.529,-149.329 656.164,-147.01"/>
<polygon fill="midnightblue" stroke="midnightblue" points="656.729,-143.556 646.276,-145.284 655.525,-150.452 656.729,-143.556"/>
</g>
<!-- Node18&#45;&gt;Node3 -->
<g id="edge24" class="edge"><title>Node18&#45;&gt;Node3</title>
<path fill="none" stroke="midnightblue" d="M952.676,-133.089C934.229,-129.978 908.617,-125.871 886,-123 720.778,-102.026 674.384,-128.151 513,-87 510.639,-86.398 508.23,-85.6556 505.84,-84.8277"/>
<polygon fill="midnightblue" stroke="midnightblue" points="506.876,-81.4745 496.289,-81.0836 504.322,-87.9917 506.876,-81.4745"/>
</g>
<!-- Node18&#45;&gt;Node6 -->
<g id="edge28" class="edge"><title>Node18&#45;&gt;Node6</title>
<path fill="none" stroke="midnightblue" d="M997.927,-128.913C1003.95,-126.639 1010.66,-124.424 1017,-123 1199.37,-82.0591 1253.02,-125.135 1436,-87 1439.69,-86.2315 1443.5,-85.2442 1447.26,-84.1467"/>
<polygon fill="midnightblue" stroke="midnightblue" points="1448.49,-87.4256 1456.96,-81.0588 1446.37,-80.755 1448.49,-87.4256"/>
</g>
<!-- Node18&#45;&gt;Node7 -->
<g id="edge29" class="edge"><title>Node18&#45;&gt;Node7</title>
<path fill="none" stroke="midnightblue" d="M1003.2,-131.644C1016.96,-128.644 1034.34,-125.174 1050,-123 1255.76,-94.4418 1311.1,-121.167 1516,-87 1521.57,-86.0708 1527.4,-84.8499 1533.1,-83.5104"/>
<polygon fill="midnightblue" stroke="midnightblue" points="1534.29,-86.822 1543.14,-81.0084 1532.59,-80.0296 1534.29,-86.822"/>
</g>
<!-- Node18&#45;&gt;Node8 -->
<g id="edge30" class="edge"><title>Node18&#45;&gt;Node8</title>
<path fill="none" stroke="midnightblue" d="M952.757,-132.755C904.958,-123.539 803.141,-102.742 771,-87 751.115,-77.2605 749.779,-69.1978 732,-56 717.811,-45.4671 701.453,-34.1466 688.697,-25.4949"/>
<polygon fill="midnightblue" stroke="midnightblue" points="690.375,-22.4053 680.128,-19.7162 686.462,-28.209 690.375,-22.4053"/>
</g>
<!-- Node18&#45;&gt;Node9 -->
<g id="edge31" class="edge"><title>Node18&#45;&gt;Node9</title>
<path fill="none" stroke="midnightblue" d="M998.8,-128.88C1004.61,-126.715 1010.99,-124.565 1017,-123 1118.41,-96.6066 1172.15,-157.141 1250,-87 1265.96,-72.6157 1269.86,-47.1638 1270.49,-29.7073"/>
<polygon fill="midnightblue" stroke="midnightblue" points="1273.99,-29.6002 1270.52,-19.5872 1266.99,-29.574 1273.99,-29.6002"/>
</g>
<!-- Node18&#45;&gt;Node12 -->
<g id="edge33" class="edge"><title>Node18&#45;&gt;Node12</title>
<path fill="none" stroke="midnightblue" d="M952.689,-132.988C934.248,-129.828 908.638,-125.704 886,-123 690.736,-99.6756 639.762,-114.201 445,-87 436.994,-85.8818 428.541,-84.4442 420.338,-82.91"/>
<polygon fill="midnightblue" stroke="midnightblue" points="420.986,-79.4705 410.503,-81.0058 419.655,-86.3429 420.986,-79.4705"/>
</g>
<!-- Node18&#45;&gt;Node15 -->
<g id="edge26" class="edge"><title>Node18&#45;&gt;Node15</title>
<path fill="none" stroke="midnightblue" d="M994.221,-128.886C999.162,-126.611 1004.69,-124.403 1010,-123 1179.57,-78.18 1240.63,-153.331 1403,-87 1423.18,-78.7574 1421.05,-64.777 1441,-56 1530.59,-16.5839 1647.52,-10.3829 1708.65,-10.1513"/>
<polygon fill="midnightblue" stroke="midnightblue" points="1708.68,-13.6512 1718.68,-10.1657 1708.69,-6.65122 1708.68,-13.6512"/>
</g>
<!-- Node18&#45;&gt;Node19 -->
<g id="edge25" class="edge"><title>Node18&#45;&gt;Node19</title>
<path fill="none" stroke="midnightblue" d="M1003.18,-131.552C1016.94,-128.524 1034.32,-125.058 1050,-123 1304.76,-89.5587 1377.31,-147.615 1627,-87 1629.36,-86.427 1631.76,-85.6945 1634.14,-84.8639"/>
<polygon fill="midnightblue" stroke="midnightblue" points="1635.64,-88.0344 1643.61,-81.0558 1633.03,-81.54 1635.64,-88.0344"/>
</g>
<!-- Node20 -->
<g id="node20" class="node"><title>Node20</title>
<polygon fill="white" stroke="#bfbfbf" points="934,-62 934,-81 980,-81 980,-62 934,-62"/>
<text text-anchor="middle" x="957" y="-69" font-family="Helvetica,sans-Serif" font-size="10.00">iosfwd</text>
</g>
<!-- Node18&#45;&gt;Node20 -->
<g id="edge27" class="edge"><title>Node18&#45;&gt;Node20</title>
<path fill="none" stroke="midnightblue" d="M975.168,-128.734C972.051,-119.085 966.951,-103.3 962.947,-90.9063"/>
<polygon fill="midnightblue" stroke="midnightblue" points="966.192,-89.567 959.787,-81.1273 959.531,-91.719 966.192,-89.567"/>
</g>
<!-- Node21 -->
<g id="node21" class="node"><title>Node21</title>
<polygon fill="white" stroke="#bfbfbf" points="998,-56.5 998,-86.5 1108,-86.5 1108,-56.5 998,-56.5"/>
<text text-anchor="start" x="1006" y="-74.5" font-family="Helvetica,sans-Serif" font-size="10.00">boost/container/flat</text>
<text text-anchor="middle" x="1053" y="-63.5" font-family="Helvetica,sans-Serif" font-size="10.00">_set.hpp</text>
</g>
<!-- Node18&#45;&gt;Node21 -->
<g id="edge32" class="edge"><title>Node18&#45;&gt;Node21</title>
<path fill="none" stroke="midnightblue" d="M988.115,-128.734C998.543,-119.696 1015.18,-105.274 1029,-93.2982"/>
<polygon fill="midnightblue" stroke="midnightblue" points="1031.48,-95.7833 1036.74,-86.589 1026.89,-90.4934 1031.48,-95.7833"/>
</g>
<!-- Node22 -->
<g id="node22" class="node"><title>Node22</title>
<polygon fill="white" stroke="#bfbfbf" points="1126.5,-56.5 1126.5,-86.5 1241.5,-86.5 1241.5,-56.5 1126.5,-56.5"/>
<text text-anchor="start" x="1134.5" y="-74.5" font-family="Helvetica,sans-Serif" font-size="10.00">boost/range/adaptor</text>
<text text-anchor="middle" x="1184" y="-63.5" font-family="Helvetica,sans-Serif" font-size="10.00">/transformed.hpp</text>
</g>
<!-- Node18&#45;&gt;Node22 -->
<g id="edge34" class="edge"><title>Node18&#45;&gt;Node22</title>
<path fill="none" stroke="midnightblue" d="M1000.19,-128.978C1005.66,-126.952 1011.52,-124.844 1017,-123 1052.64,-110.999 1092.99,-98.7603 1125.1,-89.3375"/>
<polygon fill="midnightblue" stroke="midnightblue" points="1126.17,-92.6715 1134.79,-86.5069 1124.21,-85.9525 1126.17,-92.6715"/>
</g>
<!-- Node18&#45;&gt;Node23 -->
<g id="edge35" class="edge"><title>Node18&#45;&gt;Node23</title>
<path fill="none" stroke="midnightblue" d="M952.755,-132.293C908.994,-123.243 816.232,-103.956 738,-87 732.354,-85.7762 726.435,-84.4777 720.566,-83.1804"/>
<polygon fill="midnightblue" stroke="midnightblue" points="721.312,-79.7609 710.791,-81.0113 719.795,-86.5946 721.312,-79.7609"/>
</g>
<!-- Node24 -->
<g id="node24" class="node"><title>Node24</title>
<g id="a_node24"><a xlink:href="index__map_8h.xhtml" target="_top" xlink:title="Non&#45;zero based Index&#45;&gt;Value map adapter on sequential containers. ">
<polygon fill="white" stroke="black" points="1298,-62 1298,-81 1394,-81 1394,-62 1298,-62"/>
<text text-anchor="middle" x="1346" y="-69" font-family="Helvetica,sans-Serif" font-size="10.00">ext/index_map.h</text>
</a>
</g>
</g>
<!-- Node18&#45;&gt;Node24 -->
<g id="edge37" class="edge"><title>Node18&#45;&gt;Node24</title>
<path fill="none" stroke="midnightblue" d="M998.375,-128.954C1004.3,-126.737 1010.83,-124.542 1017,-123 1133.16,-93.9573 1166.23,-108.659 1284,-87 1289.85,-85.924 1295.98,-84.6597 1302.02,-83.3337"/>
<polygon fill="midnightblue" stroke="midnightblue" points="1303.03,-86.6915 1312.01,-81.0664 1301.49,-79.8648 1303.03,-86.6915"/>
</g>
<!-- Node25 -->
<g id="node25" class="node"><title>Node25</title>
<g id="a_node25"><a xlink:href="linear__map_8h.xhtml" target="_top" xlink:title="Implementation of a vector&#45;based map for a small number of entries. ">
<polygon fill="white" stroke="black" points="780.5,-62 780.5,-81 877.5,-81 877.5,-62 780.5,-62"/>
<text text-anchor="middle" x="829" y="-69" font-family="Helvetica,sans-Serif" font-size="10.00">ext/linear_map.h</text>
</a>
</g>
</g>
<!-- Node18&#45;&gt;Node25 -->
<g id="edge39" class="edge"><title>Node18&#45;&gt;Node25</title>
<path fill="none" stroke="midnightblue" d="M958.214,-128.869C932.61,-117.699 887.79,-98.1468 858.25,-85.2602"/>
<polygon fill="midnightblue" stroke="midnightblue" points="859.433,-81.9577 848.868,-81.1672 856.634,-88.3738 859.433,-81.9577"/>
</g>
<!-- Node23&#45;&gt;Node8 -->
<g id="edge36" class="edge"><title>Node23&#45;&gt;Node8</title>
<path fill="none" stroke="midnightblue" d="M672.14,-61.9751C671.294,-53.5803 669.973,-40.4806 668.882,-29.6631"/>
<polygon fill="midnightblue" stroke="midnightblue" points="672.344,-29.1074 667.858,-19.5091 665.379,-29.8098 672.344,-29.1074"/>
</g>
<!-- Node24&#45;&gt;Node9 -->
<g id="edge38" class="edge"><title>Node24&#45;&gt;Node9</title>
<path fill="none" stroke="midnightblue" d="M1335.11,-61.9751C1323.03,-52.5199 1303.33,-37.0961 1288.76,-25.6871"/>
<polygon fill="midnightblue" stroke="midnightblue" points="1290.9,-22.9177 1280.87,-19.5091 1286.59,-28.4295 1290.9,-22.9177"/>
</g>
<!-- Node25&#45;&gt;Node8 -->
<g id="edge45" class="edge"><title>Node25&#45;&gt;Node8</title>
<path fill="none" stroke="midnightblue" d="M805.789,-61.9751C777.369,-51.5368 729.144,-33.8243 697.684,-22.2699"/>
<polygon fill="midnightblue" stroke="midnightblue" points="698.7,-18.9142 688.106,-18.7519 696.286,-25.485 698.7,-18.9142"/>
</g>
<!-- Node25&#45;&gt;Node9 -->
<g id="edge44" class="edge"><title>Node25&#45;&gt;Node9</title>
<path fill="none" stroke="midnightblue" d="M862.867,-61.9997C872.261,-59.8349 882.491,-57.6554 892,-56 1018.13,-34.0436 1169.81,-19.5492 1236.16,-13.796"/>
<polygon fill="midnightblue" stroke="midnightblue" points="1236.76,-17.2572 1246.43,-12.9166 1236.17,-10.2828 1236.76,-17.2572"/>
</g>
<!-- Node25&#45;&gt;Node15 -->
<g id="edge41" class="edge"><title>Node25&#45;&gt;Node15</title>
<path fill="none" stroke="midnightblue" d="M877.723,-62.2199C892.837,-59.8997 909.574,-57.5821 925,-56 1224.53,-25.2805 1587.55,-14.6833 1708.54,-11.8633"/>
<polygon fill="midnightblue" stroke="midnightblue" points="1708.91,-15.356 1718.82,-11.6289 1708.75,-8.35777 1708.91,-15.356"/>
</g>
<!-- Node26 -->
<g id="node26" class="node"><title>Node26</title>
<polygon fill="white" stroke="#bfbfbf" points="884,-0.5 884,-19.5 936,-19.5 936,-0.5 884,-0.5"/>
<text text-anchor="middle" x="910" y="-7.5" font-family="Helvetica,sans-Serif" font-size="10.00">cassert</text>
</g>
<!-- Node25&#45;&gt;Node26 -->
<g id="edge40" class="edge"><title>Node25&#45;&gt;Node26</title>
<path fill="none" stroke="midnightblue" d="M840.605,-61.9751C853.477,-52.5199 874.474,-37.0961 890.006,-25.6871"/>
<polygon fill="midnightblue" stroke="midnightblue" points="892.429,-28.25 898.416,-19.5091 888.285,-22.6085 892.429,-28.25"/>
</g>
<!-- Node27 -->
<g id="node27" class="node"><title>Node27</title>
<polygon fill="white" stroke="#bfbfbf" points="706.5,-0.5 706.5,-19.5 783.5,-19.5 783.5,-0.5 706.5,-0.5"/>
<text text-anchor="middle" x="745" y="-7.5" font-family="Helvetica,sans-Serif" font-size="10.00">initializer_list</text>
</g>
<!-- Node25&#45;&gt;Node27 -->
<g id="edge42" class="edge"><title>Node25&#45;&gt;Node27</title>
<path fill="none" stroke="midnightblue" d="M816.965,-61.9751C803.492,-52.4315 781.434,-36.8073 765.285,-25.3683"/>
<polygon fill="midnightblue" stroke="midnightblue" points="767.196,-22.4332 757.013,-19.5091 763.15,-28.1454 767.196,-22.4332"/>
</g>
<!-- Node28 -->
<g id="node28" class="node"><title>Node28</title>
<polygon fill="white" stroke="#bfbfbf" points="802,-0.5 802,-19.5 866,-19.5 866,-0.5 802,-0.5"/>
<text text-anchor="middle" x="834" y="-7.5" font-family="Helvetica,sans-Serif" font-size="10.00">stdexcept</text>
</g>
<!-- Node25&#45;&gt;Node28 -->
<g id="edge43" class="edge"><title>Node25&#45;&gt;Node28</title>
<path fill="none" stroke="midnightblue" d="M829.716,-61.9751C830.422,-53.5803 831.523,-40.4806 832.432,-29.6631"/>
<polygon fill="midnightblue" stroke="midnightblue" points="835.935,-29.7671 833.285,-19.5091 828.96,-29.1808 835.935,-29.7671"/>
</g>
<!-- Node29&#45;&gt;Node3 -->
<g id="edge47" class="edge"><title>Node29&#45;&gt;Node3</title>
<path fill="none" stroke="midnightblue" d="M596.073,-128.869C573.077,-117.796 532.971,-98.4862 506.203,-85.5978"/>
<polygon fill="midnightblue" stroke="midnightblue" points="507.53,-82.3519 497.001,-81.1672 504.493,-88.6589 507.53,-82.3519"/>
</g>
<!-- Node30 -->
<g id="node30" class="node"><title>Node30</title>
<polygon fill="white" stroke="#bfbfbf" points="522,-62 522,-81 566,-81 566,-62 522,-62"/>
<text text-anchor="middle" x="544" y="-69" font-family="Helvetica,sans-Serif" font-size="10.00">string</text>
</g>
<!-- Node29&#45;&gt;Node30 -->
<g id="edge48" class="edge"><title>Node29&#45;&gt;Node30</title>
<path fill="none" stroke="midnightblue" d="M604.559,-128.734C593.329,-118.305 574.379,-100.709 560.663,-87.9732"/>
<polygon fill="midnightblue" stroke="midnightblue" points="563,-85.3671 553.291,-81.1273 558.237,-90.4966 563,-85.3671"/>
</g>
<!-- Node32&#45;&gt;Node15 -->
<g id="edge53" class="edge"><title>Node32&#45;&gt;Node15</title>
<path fill="none" stroke="midnightblue" d="M1904.47,-257.438C1920.57,-250.378 1940.38,-238.626 1950,-221 1956.6,-208.907 1955.59,-202.594 1950,-190 1914.1,-109.074 1821.33,-49.6775 1775.88,-24.4258"/>
<polygon fill="midnightblue" stroke="midnightblue" points="1777.39,-21.2643 1766.93,-19.5601 1774.04,-27.4133 1777.39,-21.2643"/>
</g>
<!-- Node32&#45;&gt;Node31 -->
<g id="edge54" class="edge"><title>Node32&#45;&gt;Node31</title>
<path fill="none" stroke="midnightblue" d="M1878.42,-257.475C1876.87,-249.08 1874.45,-235.981 1872.45,-225.163"/>
<polygon fill="midnightblue" stroke="midnightblue" points="1875.83,-224.206 1870.57,-215.009 1868.95,-225.479 1875.83,-224.206"/>
</g>
<!-- Node33&#45;&gt;Node3 -->
<g id="edge57" class="edge"><title>Node33&#45;&gt;Node3</title>
<path fill="none" stroke="midnightblue" d="M251.644,-132.824C293.912,-125.31 376.87,-109.116 445,-87 446.923,-86.3759 448.887,-85.6858 450.853,-84.9555"/>
<polygon fill="midnightblue" stroke="midnightblue" points="452.538,-88.0512 460.523,-81.0871 449.938,-81.552 452.538,-88.0512"/>
</g>
<!-- Node33&#45;&gt;Node12 -->
<g id="edge60" class="edge"><title>Node33&#45;&gt;Node12</title>
<path fill="none" stroke="midnightblue" d="M243.653,-128.869C269.085,-117.699 313.604,-98.1468 342.946,-85.2602"/>
<polygon fill="midnightblue" stroke="midnightblue" points="344.517,-88.393 352.265,-81.1672 341.702,-81.9839 344.517,-88.393"/>
</g>
<!-- Node34 -->
<g id="node34" class="node"><title>Node34</title>
<polygon fill="white" stroke="#bfbfbf" points="128,-62 128,-81 178,-81 178,-62 128,-62"/>
<text text-anchor="middle" x="153" y="-69" font-family="Helvetica,sans-Serif" font-size="10.00">chrono</text>
</g>
<!-- Node33&#45;&gt;Node34 -->
<g id="edge58" class="edge"><title>Node33&#45;&gt;Node34</title>
<path fill="none" stroke="midnightblue" d="M214.425,-128.734C203.034,-118.305 183.813,-100.709 169.901,-87.9732"/>
<polygon fill="midnightblue" stroke="midnightblue" points="172.163,-85.2983 162.424,-81.1273 167.436,-90.4614 172.163,-85.2983"/>
</g>
<!-- Node35 -->
<g id="node35" class="node"><title>Node35</title>
<polygon fill="white" stroke="#bfbfbf" points="196,-62 196,-81 252,-81 252,-62 196,-62"/>
<text text-anchor="middle" x="224" y="-69" font-family="Helvetica,sans-Serif" font-size="10.00">sstream</text>
</g>
<!-- Node33&#45;&gt;Node35 -->
<g id="edge59" class="edge"><title>Node33&#45;&gt;Node35</title>
<path fill="none" stroke="midnightblue" d="M224,-128.734C224,-119.183 224,-103.618 224,-91.2829"/>
<polygon fill="midnightblue" stroke="midnightblue" points="227.5,-91.1273 224,-81.1273 220.5,-91.1273 227.5,-91.1273"/>
</g>
<!-- Node36 -->
<g id="node36" class="node"><title>Node36</title>
<polygon fill="white" stroke="#bfbfbf" points="0,-56.5 0,-86.5 110,-86.5 110,-56.5 0,-56.5"/>
<text text-anchor="start" x="8" y="-74.5" font-family="Helvetica,sans-Serif" font-size="10.00">boost/preprocessor</text>
<text text-anchor="middle" x="55" y="-63.5" font-family="Helvetica,sans-Serif" font-size="10.00">/cat.hpp</text>
</g>
<!-- Node33&#45;&gt;Node36 -->
<g id="edge61" class="edge"><title>Node33&#45;&gt;Node36</title>
<path fill="none" stroke="midnightblue" d="M201.558,-128.869C175.979,-119.031 133.493,-102.689 100.832,-90.1277"/>
<polygon fill="midnightblue" stroke="midnightblue" points="102.063,-86.8512 91.473,-86.5281 99.55,-93.3846 102.063,-86.8512"/>
</g>
</g>
</svg>
